<svg id="Capa_1" data-name="Capa 1" xmlns="http://www.w3.org/2000/svg" viewBox="0 0 1300 1000"><defs><style>.cls-1,.cls-3{fill:#fff;}.cls-2{fill:none;}.cls-2,.cls-3{stroke:#262626;stroke-miterlimit:10;stroke-width:10px;}.cls-4{fill:#262626;}</style></defs><title>Capa 3-Espacio y referentes</title><g id="_Grupo_" data-name="&lt;Grupo&gt;"><g id="_Grupo_2" data-name="&lt;Grupo&gt;"><rect class="cls-1" x="91.82" y="608.19" width="529.13" height="60" rx="20" ry="20"/><rect class="cls-2" x="91.82" y="608.19" width="529.13" height="60" rx="20" ry="20"/></g><path id="_Trazado_" data-name="&lt;Trazado&gt;" class="cls-3" d="M336.38,717.17H76.79a20.06,20.06,0,0,1-20-20.13V677.31a20.07,20.07,0,0,1,20-20.14H336.38a20.07,20.07,0,0,1,20,20.14V697A20.06,20.06,0,0,1,336.38,717.17Z"/><path id="_Trazado_2" data-name="&lt;Trazado&gt;" class="cls-3" d="M636,717.17H376.38a20.07,20.07,0,0,1-20-20.13V677.31a20.08,20.08,0,0,1,20-20.14H636a20.07,20.07,0,0,1,20,20.14V697A20.06,20.06,0,0,1,636,717.17Z"/></g><rect id="_Rectángulo_" data-name="&lt;Rectángulo&gt;" class="cls-4" y="900" width="1300" height="100"/></svg>