<svg id="Capa_1" data-name="Capa 1" xmlns="http://www.w3.org/2000/svg" viewBox="0 0 1300 1000"><defs><style>.cls-1{fill:#262626;}</style></defs><title>Capa1-Acciones del protagonista</title><path class="cls-1" d="M699.3,867l14,0,0,34.17h71.16l-.5-10.69-26.44-23.48L770,867,736.91,530.83l13.35,0L717.33,342.43l99-31.59,24.32-134.26H820.19L793.78,283.31s-93.42,8.35-118.87,9.7c-87.14,4.66-105.13,139.42-105.13,139.42L554,521.31h18.92l23.38-92.26,35.09-76.23L600.26,530.88h13.27L584.37,867.22H595.7l-28.64,23.27.09,10.73h69.16l.27-34.22H649l25.16-317.23Z"/><ellipse id="_Trazado_" data-name="&lt;Trazado&gt;" class="cls-1" cx="677.07" cy="252.81" rx="24" ry="30"/></svg>