<svg id="Capa_1" data-name="Capa 1" xmlns="http://www.w3.org/2000/svg" viewBox="0 0 1300 1000"><defs><style>.cls-1{fill:#262626;}</style></defs><title>Capa1-Acciones del protagonista</title><g id="_Grupo_" data-name="&lt;Grupo&gt;"><path class="cls-1" d="M659.74,548.16,634,866l-14.08,0L620,900H550.13l.18-10.38L575.59,865h-8l28.72-334.31-13.15,0L620.5,352.86l-40.13,62L599,457.31l-6.14,31.77-42-70.87S576.11,292.8,660,292.8c0,0,56.23-3.78,97.85,73l61.28-59L831.28,317,758.56,411.4l-56.83-58.79,32.67,178H721.25L750,865H737.85l29.61,25.5V900H698.57l.33-34.07-13.34,0Z"/></g><ellipse id="_Trazado_" data-name="&lt;Trazado&gt;" class="cls-1" cx="661.79" cy="252.11" rx="24" ry="30"/></svg>