<svg id="Capa_1" data-name="Capa 1" xmlns="http://www.w3.org/2000/svg" viewBox="0 0 1300 1000"><defs><style>.cls-1{fill:#262626;}.cls-2{fill:#fff;}</style></defs><title>Capa1-Acciones del protagonista</title><path id="_Trazado_" data-name="&lt;Trazado&gt;" class="cls-1" d="M698.91,252.11c0,16.57,10.75,30,24,30s24-13.43,24-30-10.75-30-24-30S698.91,235.55,698.91,252.11Z"/><path class="cls-1" d="M752.2,528.58s14.49-162-29.19-230.36c-6.93-10.86-24.07-11-30.36,6.92L616.17,528.58l29.94.13,77.64,156,13.66,132.06,14.53-.12-.32,34H821.5l-.18-10.38L796,815.58h8L790.68,663.1,726.75,528.71Z"/><path class="cls-1" d="M706.08,315.68C705.92,376,736,425.86,736,425.86l61.61,101.35,22.7-14.3-53.8-114.67S742.05,321.1,721.15,296"/><path class="cls-2" d="M706.08,315.68c.24,4.88.53,9.74,1.14,14.56.23,2.42.6,4.83.91,7.24s.72,4.8,1.19,7.18c.85,4.78,1.91,9.51,3,14.22s2.48,9.37,3.9,14A263.4,263.4,0,0,0,726.34,400q2.91,6.63,6.15,13.09c2.18,4.28,4.44,8.55,7,12.53,5.17,8.26,10.4,16.49,15.52,24.79l15.41,24.86,7.71,12.43,7.63,12.47L801,525.16l-5.49-1.29,11.33-7.18,11.36-7.14-1.48,5.05-13.36-28.71-6.69-14.35-6.6-14.39-13.2-28.79c-2.21-4.79-4.37-9.6-6.55-14.41l-6.51-14.44-.1-.21-.05-.15c-1.34-4.43-2.77-8.89-4.22-13.31s-2.9-8.87-4.4-13.28-3-8.82-4.63-13.21L748,352.78l-2.46-6.55q-2.47-6.54-5.15-13c-.88-2.16-1.81-4.29-2.73-6.43s-1.87-4.28-2.85-6.39-2-4.23-3-6.32-2.13-4.14-3.21-6.21l-1.71-3.06-1.79-3c-.61-1-1.27-2-1.9-2.94s-1.37-1.9-2.05-2.85c.76.89,1.54,1.77,2.27,2.68s1.45,1.84,2.15,2.79l2,2.87,2,2.93c1.26,2,2.49,4,3.66,6s2.34,4.07,3.45,6.14c2.26,4.13,4.36,8.33,6.39,12.56s4,8.5,5.91,12.8c3.82,8.57,7.33,17.29,10.75,26,1.69,4.38,3.38,8.76,5,13.17s3.17,8.83,4.68,13.31l-.14-.36,6.93,14.23c2.31,4.75,4.63,9.49,6.9,14.25L796.77,454l6.84,14.28,6.77,14.32,13.53,28.63,1.5,3.16-3,1.88-11.33,7.17-11.37,7.12-3.42,2.14-2.07-3.43-15.12-25-7.55-12.52-7.49-12.56-15-25.13c-5-8.36-9.91-16.8-14.87-25.19-2.57-4.33-4.74-8.77-6.84-13.24s-4-9-5.78-13.61-3.42-9.23-4.93-13.91-2.92-9.39-4.1-14.16-2.28-9.56-3.18-14.39-1.7-9.67-2.21-14.55c-.32-2.43-.48-4.87-.72-7.31s-.38-4.88-.42-7.33C705.84,325.44,705.93,320.55,706.08,315.68Z"/><polygon class="cls-1" points="589.35 510.4 574.93 500.36 669.59 349.11 634.1 450.5 589.35 510.4"/><polygon class="cls-1" points="640.12 535.57 698.91 655.11 690.1 719.11 632.28 865.03 618.32 865.16 642.61 889.48 642.79 899.86 572.91 899.86 580.39 864.76 568.93 864.04 630.7 698.23 640.12 535.57"/></svg>