<svg id="Capa_1" data-name="Capa 1" xmlns="http://www.w3.org/2000/svg" viewBox="0 0 500 500"><defs><style>.cls-1{fill:none;stroke:#1d1d1b;stroke-miterlimit:10;stroke-width:10px;}.cls-2{fill:#1e1e1c;}</style></defs><title>Íconos apoyo</title><path id="_Trazado_" data-name="&lt;Trazado&gt;" class="cls-1" d="M367,427.28h54.88c7.58,0,13.72-5.66,13.72-12.64V21.88c0-7-6.14-12.64-13.72-12.64H82c-7.58,0-13.72,5.66-13.72,12.64V414.64c0,7,6.14,12.64,13.72,12.64H367Z"/><rect id="_Rectángulo_" data-name="&lt;Rectángulo&gt;" class="cls-1" x="102.91" y="71.04" width="298.6" height="214.13" rx="26" ry="26" transform="translate(504.42 356.22) rotate(180)"/><path id="_Trazado_2" data-name="&lt;Trazado&gt;" class="cls-2" d="M155.32,346.66a26.51,26.51,0,1,1-26.51-26.5A26.51,26.51,0,0,1,155.32,346.66Z"/><path id="_Trazado_3" data-name="&lt;Trazado&gt;" class="cls-2" d="M401.36,346.66a26.5,26.5,0,1,1-26.5-26.5A26.5,26.5,0,0,1,401.36,346.66Z"/><g id="_Grupo_" data-name="&lt;Grupo&gt;"><path id="_Rectángulo_2" data-name="&lt;Rectángulo&gt;" class="cls-1" d="M102.06,428.07h57.33a0,0,0,0,1,0,0v34.58a27.53,27.53,0,0,1-27.53,27.53h-2.27a27.53,27.53,0,0,1-27.53-27.53V428.07a0,0,0,0,1,0,0Z"/><path id="_Rectángulo_3" data-name="&lt;Rectángulo&gt;" class="cls-1" d="M344.52,428.07h57.33a0,0,0,0,1,0,0v34.58a27.53,27.53,0,0,1-27.53,27.53h-2.27a27.53,27.53,0,0,1-27.53-27.53V428.07A0,0,0,0,1,344.52,428.07Z"/></g></svg>