<svg id="Capa_1" data-name="Capa 1" xmlns="http://www.w3.org/2000/svg" viewBox="0 0 500 500"><defs><style>.cls-1{fill:none;stroke:#1d1d1b;stroke-miterlimit:10;stroke-width:10px;}</style></defs><title>Íconos apoyo</title><g id="_Grupo_" data-name="&lt;Grupo&gt;"><path id="_Trazado_" data-name="&lt;Trazado&gt;" class="cls-1" d="M334.06,93.13H469a20,20,0,0,1,20,20V392.5a20,20,0,0,1-20,20H30a20,20,0,0,1-20-20V113.09a20,20,0,0,1,20-20h304.1Z"/><g id="_Grupo_2" data-name="&lt;Grupo&gt;"><path id="_Trazado_2" data-name="&lt;Trazado&gt;" class="cls-1" d="M174.73,227.86c0,18-11.94,32.67-26.67,32.67S121.4,245.9,121.4,227.86s11.94-32.66,26.66-32.66S174.73,209.82,174.73,227.86Z"/><path id="_Trazado_3" data-name="&lt;Trazado&gt;" class="cls-1" d="M76.7,341.92s20.46-58.22,72.81-58.22c53.14,0,72.91,58.11,72.91,58.11"/><rect id="_Rectángulo_" data-name="&lt;Rectángulo&gt;" class="cls-1" x="58.06" y="162.79" width="180" height="180" rx="15" ry="15"/><g id="_Grupo_3" data-name="&lt;Grupo&gt;"><line id="_Trazado_4" data-name="&lt;Trazado&gt;" class="cls-1" x1="279.92" y1="194.22" x2="440.94" y2="194.22"/><line id="_Trazado_5" data-name="&lt;Trazado&gt;" class="cls-1" x1="279.1" y1="252.29" x2="440.13" y2="252.29"/><line id="_Trazado_6" data-name="&lt;Trazado&gt;" class="cls-1" x1="278.62" y1="311.37" x2="369.37" y2="311.37"/></g></g></g></svg>