<svg id="Capa_1" data-name="Capa 1" xmlns="http://www.w3.org/2000/svg" viewBox="0 0 500 500"><defs><style>.cls-1{fill:none;stroke:#1d1d1b;stroke-miterlimit:10;stroke-width:10px;}</style></defs><title>Íconos apoyo</title><g id="_Grupo_" data-name="&lt;Grupo&gt;"><line id="_Trazado_" data-name="&lt;Trazado&gt;" class="cls-1" x1="136.8" y1="180.32" x2="380.49" y2="180.32"/><line id="_Trazado_2" data-name="&lt;Trazado&gt;" class="cls-1" x1="137.06" y1="240.14" x2="380.76" y2="240.14"/><line id="_Trazado_3" data-name="&lt;Trazado&gt;" class="cls-1" x1="137.06" y1="299.21" x2="380.76" y2="299.21"/><line id="_Trazado_4" data-name="&lt;Trazado&gt;" class="cls-1" x1="136.33" y1="358.29" x2="273.68" y2="358.29"/></g><path id="_Trazado_5" data-name="&lt;Trazado&gt;" class="cls-1" d="M441.82,125H342.05a18.45,18.45,0,0,1-18.46-18.46V13.11"/><path id="_Trazado_6" data-name="&lt;Trazado&gt;" class="cls-1" d="M424.7,489H92.39a18.46,18.46,0,0,1-18.46-18.46V27.46A18.45,18.45,0,0,1,92.39,9H321.82a18.47,18.47,0,0,1,13,5.36L437.71,116.57a18.46,18.46,0,0,1,5.45,13.1V470.54A18.47,18.47,0,0,1,424.7,489Z"/></svg>