<svg id="Capa_1" data-name="Capa 1" xmlns="http://www.w3.org/2000/svg" viewBox="0 0 500 500"><defs><style>.cls-1{fill:none;stroke:#1d1d1b;stroke-miterlimit:10;stroke-width:10px;}</style></defs><title>Íconos apoyo</title><path id="_Trazado_" data-name="&lt;Trazado&gt;" class="cls-1" d="M477.89,218.8l-225,83.46a17.32,17.32,0,0,1-12.14-.05L22,218.82c-14.86-5.66-14.78-26.72.12-32.28l220-82a17.24,17.24,0,0,1,11.95,0l223.79,81.92C492.88,192,492.93,213.23,477.89,218.8Z"/><path id="_Trazado_2" data-name="&lt;Trazado&gt;" class="cls-1" d="M93.36,244.49v113a17.25,17.25,0,0,0,12.77,16.66l16.71,4.5a483,483,0,0,0,248.87.55L391,374.14a17.26,17.26,0,0,0,12.84-16.68V243.81"/><path id="_Trazado_3" data-name="&lt;Trazado&gt;" class="cls-1" d="M68.31,233.14s-12.7,9.25-29.23,47.23c-8.58,19.72-17.61,56.71-26.43,76.51a10.35,10.35,0,0,0,9.46,14.55H43.24c6.45,0,15.56-5.39,14.4-11.74L39.08,280.37"/></svg>