<svg id="Capa_1" data-name="Capa 1" xmlns="http://www.w3.org/2000/svg" viewBox="0 0 500 500"><defs><style>.cls-1{fill:none;stroke:#1d1d1b;stroke-miterlimit:10;stroke-width:10px;}</style></defs><title>Íconos apoyo</title><path id="_Trazado_" data-name="&lt;Trazado&gt;" class="cls-1" d="M447.79,454.15V248.91a12.24,12.24,0,0,0-12.25-12.25H417.16a12.24,12.24,0,0,0-12.25,12.25V454.15l15.49,31.43a6.12,6.12,0,0,0,10.92.13Z"/><path id="_Trazado_2" data-name="&lt;Trazado&gt;" class="cls-1" d="M113.29,90.48l-36.23.22A15.31,15.31,0,0,0,61.83,106V473.68A15.32,15.32,0,0,0,77.15,489H352.83a15.32,15.32,0,0,0,15.32-15.32V106.19a15.31,15.31,0,0,0-15.41-15.31l-35.44.21"/><path id="_Trazado_3" data-name="&lt;Trazado&gt;" class="cls-1" d="M316.69,58v61.26a9.19,9.19,0,0,1-9.19,9.19H123.71a9.18,9.18,0,0,1-9.19-9.19V58a9.19,9.19,0,0,1,9.19-9.19h37.67a9.18,9.18,0,0,0,9.19-9.19V18.19A9.19,9.19,0,0,1,179.76,9h73.52a9.18,9.18,0,0,1,9.19,9.19V39.63a9.18,9.18,0,0,0,9.19,9.19H307.5A9.2,9.2,0,0,1,316.69,58Z"/><g id="_Grupo_" data-name="&lt;Grupo&gt;"><line id="_Trazado_4" data-name="&lt;Trazado&gt;" class="cls-1" x1="189.26" y1="224.65" x2="318.53" y2="224.65"/><line id="_Trazado_5" data-name="&lt;Trazado&gt;" class="cls-1" x1="189.26" y1="309.19" x2="318.53" y2="309.19"/><line id="_Trazado_6" data-name="&lt;Trazado&gt;" class="cls-1" x1="189.26" y1="394.35" x2="318.53" y2="394.35"/><line id="_Trazado_7" data-name="&lt;Trazado&gt;" class="cls-1" x1="110.23" y1="203.23" x2="149.9" y2="243.03"/><line id="_Trazado_8" data-name="&lt;Trazado&gt;" class="cls-1" x1="110.38" y1="243.01" x2="150.05" y2="203.21"/><line id="_Trazado_9" data-name="&lt;Trazado&gt;" class="cls-1" x1="112.07" y1="376.6" x2="151.73" y2="416.4"/><line id="_Trazado_10" data-name="&lt;Trazado&gt;" class="cls-1" x1="112.22" y1="416.38" x2="151.89" y2="376.58"/><polyline id="_Trazado_11" data-name="&lt;Trazado&gt;" class="cls-1" points="108.39 306.74 123.09 326.96 159.85 288.36"/></g></svg>