<svg id="Capa_1" data-name="Capa 1" xmlns="http://www.w3.org/2000/svg" viewBox="0 0 500 500"><defs><style>.cls-1{fill:none;stroke:#1d1d1b;stroke-miterlimit:10;stroke-width:10px;}</style></defs><title>Íconos apoyo</title><path id="_Trazado_" data-name="&lt;Trazado&gt;" class="cls-1" d="M291.75,95.91h69.3c5.66,0,10.24,5,10.24,11.18V263.65c0,6.17-4.58,11.18-10.24,11.18H135.65c-5.66,0-10.25-5-10.25-11.18V107.09c0-6.17,4.59-11.18,10.25-11.18h156.1Z"/><path id="_Trazado_2" data-name="&lt;Trazado&gt;" class="cls-1" d="M215,177.81c0,9.06-5.49,16.4-12.26,16.4s-12.27-7.34-12.27-16.4,5.5-16.4,12.27-16.4S215,168.75,215,177.81Z"/><path id="_Trazado_3" data-name="&lt;Trazado&gt;" class="cls-1" d="M171.31,231.05s8-25.21,32.11-25.21c24.44,0,30.77,27.16,30.77,27.16"/><rect id="_Rectángulo_" data-name="&lt;Rectángulo&gt;" class="cls-1" x="156.55" y="134.94" width="92.4" height="100.85" rx="15" ry="15"/><line id="_Trazado_4" data-name="&lt;Trazado&gt;" class="cls-1" x1="279.48" y1="152.55" x2="338.35" y2="152.55"/><line id="_Trazado_5" data-name="&lt;Trazado&gt;" class="cls-1" x1="279.48" y1="193.46" x2="312.66" y2="193.46"/><rect id="_Rectángulo_2" data-name="&lt;Rectángulo&gt;" class="cls-1" x="67.81" y="14.07" width="366.84" height="471.05" rx="15" ry="15"/></svg>