<svg id="Capa_1" data-name="Capa 1" xmlns="http://www.w3.org/2000/svg" viewBox="0 0 500 500"><defs><style>.cls-1{fill:none;stroke:#1d1d1b;stroke-miterlimit:10;stroke-width:10px;}</style></defs><title>Íconos apoyo</title><path id="_Trazado_" data-name="&lt;Trazado&gt;" class="cls-1" d="M178.26,180.86a74.13,74.13,0,0,0-37.18,33.19c-14.9,28.08-17.62,42.08-14.59,73.72,4.33,45.2,27.77,82.36,56.34,103.76l-4.6,93.58"/><path id="_Trazado_2" data-name="&lt;Trazado&gt;" class="cls-1" d="M178.26,259l0-221a26.43,26.43,0,0,1,26.43-26.43h0A26.42,26.42,0,0,1,231.08,38V155.19"/><path id="_Trazado_3" data-name="&lt;Trazado&gt;" class="cls-1" d="M231.08,183.86,231,140.54a26.42,26.42,0,0,1,26.42-26.6h0a26.42,26.42,0,0,1,26.42,26.25l.1,43.67"/><path id="_Trazado_4" data-name="&lt;Trazado&gt;" class="cls-1" d="M283.66,154.51a27.57,27.57,0,0,1,27.57-27.57h0a25.44,25.44,0,0,1,25.44,25.27l.11,31.65"/><path id="_Trazado_5" data-name="&lt;Trazado&gt;" class="cls-1" d="M336.88,179.77c0-15.22,10.41-27.57,27.57-27.57h0a25.24,25.24,0,0,1,25.25,25.28l.93,38.6S396,346.31,359.84,387.35l.27,97.76"/></svg>