<svg id="Capa_1" data-name="Capa 1" xmlns="http://www.w3.org/2000/svg" viewBox="0 0 500 500"><defs><style>.cls-1{fill:none;stroke:#1d1d1b;stroke-miterlimit:10;stroke-width:10px;}</style></defs><title>Íconos apoyo</title><path id="_Trazado_" data-name="&lt;Trazado&gt;" class="cls-1" d="M181.45,184.75A24.77,24.77,0,0,0,156.68,160h0a24.77,24.77,0,0,0-24.78,24.77l-1,68.66s-11.1,146.31,94.58,147.42h0"/><path id="_Trazado_2" data-name="&lt;Trazado&gt;" class="cls-1" d="M232.65,168.53V56.24a25.32,25.32,0,0,0-25.33-25.32h0A25.32,25.32,0,0,0,182,56.24l-.55,201.59A82.56,82.56,0,0,1,264,340.39V347"/><path id="_Trazado_3" data-name="&lt;Trazado&gt;" class="cls-1" d="M232.65,168.53V36.42A26.42,26.42,0,0,1,259.07,10h0c14.59,0,24.22,12.93,24.22,27.52v131"/><path id="_Trazado_4" data-name="&lt;Trazado&gt;" class="cls-1" d="M283.29,56.24a26.42,26.42,0,0,1,26.42-26.42h0c14.59,0,24.22,12.93,24.22,27.52V168.53"/><path id="_Trazado_5" data-name="&lt;Trazado&gt;" class="cls-1" d="M321.82,400.83c72.66-1.11,62.75-173.95,62.75-173.95V91.47a24.22,24.22,0,0,0-24.22-24.22h0a26.42,26.42,0,0,0-26.42,26.42"/><line id="_Trazado_6" data-name="&lt;Trazado&gt;" class="cls-1" x1="186.41" y1="392.02" x2="178.7" y2="490"/><line id="_Trazado_7" data-name="&lt;Trazado&gt;" class="cls-1" x1="354.85" y1="385.62" x2="355.95" y2="490"/></svg>