<svg id="Capa_1" data-name="Capa 1" xmlns="http://www.w3.org/2000/svg" viewBox="0 0 500 500"><defs><style>.cls-1{fill:none;stroke:#1d1d1b;stroke-miterlimit:10;stroke-width:10px;}.cls-2{fill:#000100;}</style></defs><title>Íconos apoyo</title><path id="_Trazado_" data-name="&lt;Trazado&gt;" class="cls-1" d="M399.12,340.69A83.88,83.88,0,0,0,483,256.8V92a80.61,80.61,0,0,0-80.61-80.61H102.49A80.61,80.61,0,0,0,21.88,92V256.8a83.89,83.89,0,0,0,83.88,83.89l.69,132.57c.08,14.33,17.65,21.16,27.38,10.64L266.42,340.58Z"/><path id="_Trazado_2" data-name="&lt;Trazado&gt;" class="cls-2" d="M163.82,186.32a21.68,21.68,0,1,1-21.68-21.68A21.68,21.68,0,0,1,163.82,186.32Z"/><path id="_Trazado_3" data-name="&lt;Trazado&gt;" class="cls-2" d="M379.48,186.32a21.68,21.68,0,1,1-21.68-21.68A21.68,21.68,0,0,1,379.48,186.32Z"/><path id="_Trazado_4" data-name="&lt;Trazado&gt;" class="cls-2" d="M272.13,184.86a21.68,21.68,0,1,1-21.69-21.68A21.69,21.69,0,0,1,272.13,184.86Z"/></svg>