<svg id="Capa_1" data-name="Capa 1" xmlns="http://www.w3.org/2000/svg" viewBox="0 0 1300 1000"><defs><style>.cls-1{fill:#fff;}.cls-2{fill:#262626;}.cls-3{fill:none;stroke:#262626;stroke-miterlimit:10;stroke-width:10px;}</style></defs><title>Capa 3-Espacio y referentes</title><g id="_Grupo_" data-name="&lt;Grupo&gt;"><rect class="cls-1" x="57.95" y="179.73" width="574.62" height="393.41" rx="20" ry="20"/><path class="cls-2" d="M612.57,184.73a15,15,0,0,1,15,15V553.14a15,15,0,0,1-15,15H78a15,15,0,0,1-15-15V199.73a15,15,0,0,1,15-15H612.57m0-10H78a25.07,25.07,0,0,0-25,25V553.14a25.07,25.07,0,0,0,25,25H612.57a25.07,25.07,0,0,0,25-25V199.73a25.07,25.07,0,0,0-25-25Z"/></g><path id="_Trazado_" data-name="&lt;Trazado&gt;" class="cls-3" d="M474.82,91.5v29l23.69,37.74a3.43,3.43,0,0,1-2.91,5.26H453a3.2,3.2,0,0,1-2.7-4.92l24.52-38.39"/><path id="_Trazado_2" data-name="&lt;Trazado&gt;" class="cls-3" d="M160.12,92.5v29l23.7,37.74a3.44,3.44,0,0,1-2.92,5.26H138.3a3.2,3.2,0,0,1-2.7-4.92l24.52-38.39"/><path id="_Trazado_3" data-name="&lt;Trazado&gt;" class="cls-3" d="M316.64,92.5v29l23.69,37.74a3.43,3.43,0,0,1-2.91,5.26H294.81a3.19,3.19,0,0,1-2.69-4.92l24.52-38.39"/><g id="_Grupo_2" data-name="&lt;Grupo&gt;"><path class="cls-3" d="M0,91.5H612.45a25.11,25.11,0,0,0,25-25L637.57,0"/></g><rect id="_Rectángulo_" data-name="&lt;Rectángulo&gt;" class="cls-2" y="900" width="1300" height="100" transform="translate(1300 1900) rotate(180)"/></svg>