<svg id="Capa_1" data-name="Capa 1" xmlns="http://www.w3.org/2000/svg" viewBox="0 0 1300 1000"><defs><style>.cls-1{fill:#262626;}.cls-2{fill:#fff;}</style></defs><title>Capa1-Acciones del protagonista</title><polygon class="cls-1" points="590.26 527.94 643.01 655.3 630.87 716.68 565.96 855.44 555.74 851.56 573.31 885.46 569.93 894.4 505.02 870.57 517.85 838.29 504.46 834.04 573.78 688.4 590.26 527.94"/><ellipse id="_Trazado_" data-name="&lt;Trazado&gt;" class="cls-1" cx="653.26" cy="244.19" rx="24" ry="30"/><path class="cls-1" d="M625.94,298.29,563,521.58h32.67L666,685.66l39.62,172.07,21.34,2-.33,34.07h68.89v-9.56l-29.62-25.49H778L738.14,677l-60.56-155.4h21.21S700.2,360,656.38,291.34C649.43,280.46,632.24,280.32,625.94,298.29Z"/><path class="cls-1" d="M641.08,310.14C640.92,370.5,671,420.32,671,420.32l61.61,101.36,22.69-14.3L701.52,392.7S677,315.56,656.15,290.48"/><path class="cls-2" d="M641.08,310.14c.24,4.88.53,9.74,1.13,14.57.24,2.42.61,4.82.92,7.23s.72,4.8,1.19,7.18c.85,4.78,1.9,9.52,3,14.23s2.47,9.36,3.9,14a260.26,260.26,0,0,0,10.09,27.17q2.91,6.63,6.15,13.09c2.18,4.29,4.44,8.56,7,12.53,5.17,8.27,10.4,16.5,15.52,24.8l15.41,24.86,7.7,12.43,7.64,12.47L736,519.63l-5.48-1.3,11.33-7.18L753.2,504l-1.48,5-13.37-28.7L731.67,466l-6.61-14.39-13.19-28.78c-2.21-4.79-4.38-9.61-6.55-14.42L698.8,394l-.09-.22-.05-.15c-1.34-4.42-2.77-8.88-4.22-13.31s-2.9-8.87-4.41-13.28-3-8.82-4.62-13.21L683,347.24l-2.46-6.55c-1.66-4.36-3.36-8.7-5.15-13-.88-2.16-1.82-4.3-2.74-6.44s-1.86-4.27-2.84-6.39-2-4.22-3-6.31-2.12-4.15-3.21-6.22l-1.7-3.05-1.79-3c-.61-1-1.27-1.95-1.91-2.94s-1.36-1.89-2-2.85c.75.9,1.53,1.77,2.27,2.68s1.45,1.85,2.15,2.8l2,2.87,2,2.93q1.89,3,3.66,6t3.45,6.15c2.26,4.12,4.36,8.32,6.39,12.56s4,8.5,5.9,12.79c3.83,8.58,7.33,17.29,10.75,26,1.7,4.38,3.39,8.76,5,13.18s3.17,8.82,4.68,13.31l-.14-.37,6.93,14.24c2.31,4.74,4.63,9.48,6.9,14.25l13.7,28.55,6.84,14.28,6.77,14.31,13.53,28.63,1.49,3.17-3,1.88-11.34,7.16L734.72,525l-3.41,2.14-2.07-3.43-15.12-25-7.56-12.52-7.48-12.56-15-25.12c-5-8.37-9.91-16.8-14.87-25.2-2.58-4.33-4.74-8.76-6.84-13.23s-4-9-5.78-13.61-3.42-9.24-4.93-13.92-2.92-9.39-4.11-14.16-2.28-9.56-3.17-14.39-1.7-9.66-2.21-14.54c-.32-2.43-.49-4.88-.73-7.31s-.37-4.89-.42-7.34C640.84,319.91,640.93,315,641.08,310.14Z"/><polygon class="cls-1" points="531.35 503.86 516.92 493.82 607.59 342.58 576.1 443.96 531.35 503.86"/></svg>