<svg width="260" height="260" viewBox="0 0 260 260" fill="none" xmlns="http://www.w3.org/2000/svg">
<path fill-rule="evenodd" clip-rule="evenodd" d="M74 80.4615C74 77.4877 76.2386 75.0769 79 75.0769H153V60H70C64.4772 60 60 64.8215 60 70.7692V189.231C60 195.178 64.4772 200 70 200H190C195.523 200 200 195.178 200 189.231V70.7692C200 64.8215 195.523 60 190 60H153V75.0769H181C183.761 75.0769 186 77.4877 186 80.4615V179.538C186 182.512 183.761 184.923 181 184.923H79C76.2386 184.923 74 182.512 74 179.538V80.4615Z" fill="black"/>
<path fill-rule="evenodd" clip-rule="evenodd" d="M164 130C164 133.866 160.866 137 157 137H104C100.134 137 97 133.866 97 130C97 126.134 100.134 123 104 123H157C160.866 123 164 126.134 164 130Z" fill="black"/>
<path fill-rule="evenodd" clip-rule="evenodd" d="M130 164C126.134 164 123 160.866 123 157L123 104C123 100.134 126.134 97 130 97C133.866 97 137 100.134 137 104V157C137 160.866 133.866 164 130 164Z" fill="black"/>
</svg>
