<svg width="260" height="260" viewBox="0 0 260 260" fill="none" xmlns="http://www.w3.org/2000/svg"><path d="M129 168a7 7 0 0 0 7-7v-46a7 7 0 1 0-14 0v46a7 7 0 0 0 7 7Zm7 17a7 7 0 1 1-14 0 7 7 0 0 1 14 0Z" fill="#000"/><path fill-rule="evenodd" clip-rule="evenodd" d="M137.881 32.65c-3.919-6.186-12.938-6.201-16.878-.028L3.588 216.619c-4.248 6.657.533 15.379 8.43 15.379h233.967c7.882 0 12.666-8.693 8.448-15.351L137.881 32.65Zm99.336 184.389L129.464 47.276 21.71 217.039h215.507Z" fill="#000"/></svg>