<svg width="260" height="260" viewBox="0 0 260 260" fill="none" xmlns="http://www.w3.org/2000/svg">
<path fill-rule="evenodd" clip-rule="evenodd" d="M128.394 70C118.103 70 108.812 74.2452 102.152 81.1041C98.8926 84.4605 96.2726 88.4352 94.4832 92.83C93.0252 96.4105 88.9407 98.1312 85.3602 96.6733C81.7796 95.2154 80.0589 91.1309 81.5169 87.5503C83.9942 81.4661 87.615 75.9781 92.1078 71.3512C101.293 61.8918 114.162 56 128.394 56C156.353 56 179 78.6949 179 106.669C179 126.328 167.816 143.364 151.496 151.761C141.866 156.715 135.394 163.764 135.394 171C135.394 174.866 132.26 178 128.394 178C124.528 178 121.394 174.866 121.394 171C121.394 155.413 134.426 144.799 145.091 139.312C156.924 133.224 165 120.888 165 106.669C165 86.4077 148.601 70 128.394 70Z" fill="black"/>
<path fill-rule="evenodd" clip-rule="evenodd" d="M130 260C58.203 260 0 201.797 0 130C0 58.203 58.203 0 130 0C201.797 0 260 58.203 260 130C260 201.797 201.797 260 130 260ZM130 246C65.935 246 14 194.065 14 130C14 65.935 65.935 14 130 14C194.065 14 246 65.935 246 130C246 194.065 194.065 246 130 246Z" fill="black"/>
<path d="M129 202C132.866 202 136 198.866 136 195C136 191.134 132.866 188 129 188C125.134 188 122 191.134 122 195C122 198.866 125.134 202 129 202Z" fill="black"/>
</svg>
