<svg width="260" height="260" viewBox="0 0 260 260" fill="none" xmlns="http://www.w3.org/2000/svg">
<path fill-rule="evenodd" clip-rule="evenodd" d="M128.5 105C114.417 105 103 116.417 103 130.5C103 144.583 114.417 156 128.5 156C142.583 156 154 144.583 154 130.5C154 116.417 142.583 105 128.5 105ZM89 130.5C89 108.685 106.685 91 128.5 91C150.315 91 168 108.685 168 130.5C168 152.315 150.315 170 128.5 170C106.685 170 89 152.315 89 130.5Z" fill="black"/>
<path fill-rule="evenodd" clip-rule="evenodd" d="M129.358 64C97.9868 64 63.9991 87.2802 64 131.145C64.0004 153.005 73.7745 169.379 86.4852 180.421C99.41 191.65 114.955 197 125.519 197C129.385 197 132.519 200.134 132.519 204C132.519 207.866 129.385 211 125.519 211C111.108 211 92.3943 204.1 77.3035 190.99C61.9987 177.694 50.0005 157.639 50 131.145C49.9989 78.2987 91.5666 50 129.358 50C166.901 50 210 78.7214 210 129.211C210 141.66 207.214 151.346 202.352 158.369C197.441 165.464 190.688 169.418 183.755 170.673C176.959 171.902 170.049 170.525 164.681 167.133C159.276 163.718 155.017 157.906 155.017 150.487V98.2632C155.017 94.3972 158.151 91.2632 162.017 91.2632C165.883 91.2632 169.017 94.3972 169.017 98.2632V150.487C169.017 152.094 169.881 153.858 172.16 155.298C174.477 156.762 177.813 157.521 181.262 156.896C184.575 156.297 188.067 154.408 190.841 150.402C193.664 146.323 196 139.649 196 129.211C196 88.1471 160.979 64 129.358 64Z" fill="black"/>
</svg>
