<svg width="260" height="260" fill="none" xmlns="http://www.w3.org/2000/svg"><path d="M65.805 213.33c9.49 0 19.136-3.822 26.52-11.258l6.084-6.137.105.104 4.575-4.81 20.435-20.645-.415-.416 64.974-68.328c5.121-5.382 7.774-12.272 7.774-19.032 0-5.902-2.08-11.83-6.5-16.25-4.238-4.238-9.906-6.292-15.522-6.292-6.916 0-13.91 2.965-19.188 8.528l-81.692 86.112 7.54 7.15 81.666-86.085c3.38-3.562 7.722-5.304 11.648-5.304 3.198.026 6.032 1.092 8.19 3.25 2.236 2.236 3.432 5.356 3.432 8.867 0 4.003-1.612 8.423-4.915 11.856l-84.838 89.258L84.94 194.74c-5.409 5.46-12.428 8.19-19.136 8.19-5.953 0-11.57-2.105-15.781-6.318-4.29-4.29-6.5-10.114-6.5-16.302 0-6.708 2.626-13.728 7.851-19.188l46.384-48.308 50.232-52c8.268-8.58 18.98-12.87 29.016-12.87 8.347.026 16.094 2.911 21.945 8.736 6.032 6.032 9.073 14.248 9.1 23.114 0 10.061-4.03 20.8-12.038 29.198l-83.07 86.995 7.513 7.177 83.044-86.996c9.853-10.348 14.898-23.556 14.924-36.374 0-11.232-3.951-22.309-12.141-30.472-7.93-7.93-18.539-11.805-29.302-11.778-12.974 0-26.312 5.485-36.504 16.041l-50.232 52 3.77 3.614-3.743-3.614-46.41 48.334c-7.124 7.435-10.765 17.005-10.765 26.39 0 8.658 3.12 17.265 9.542 23.686 6.318 6.292 14.715 9.36 23.165 9.334l.001.001Z" fill="#000" opacity=".9"/></svg>