<svg width="260" height="260" viewBox="0 0 260 260" fill="none" xmlns="http://www.w3.org/2000/svg"><path d="M45.887 253c13.314 0 26.846-5.348 37.206-15.755l8.534-8.587.147.145 6.42-6.732 28.668-28.89-.582-.583 91.153-95.62c7.185-7.532 10.907-17.174 10.907-26.634 0-8.259-2.918-16.555-9.119-22.74-5.946-5.931-13.898-8.805-21.776-8.805-9.703 0-19.515 4.148-26.92 11.934L60.949 165.951a7.28 7.28 0 1 0 10.55 10.034L181.067 60.776c4.742-4.984 10.834-7.422 16.342-7.422 4.487.036 8.462 1.528 11.49 4.548 3.137 3.129 4.815 7.495 4.815 12.408 0 5.603-2.262 11.788-6.895 16.592L87.796 211.812l-15.065 15.173c-7.587 7.641-17.436 11.461-26.845 11.461-8.353 0-16.232-2.946-22.141-8.842-6.018-6.003-9.119-14.153-9.119-22.813 0-9.388 3.685-19.212 11.016-26.852l65.072-67.604 70.472-72.77c11.599-12.007 26.627-18.01 40.707-18.01 11.71.036 22.579 4.074 30.787 12.225 8.462 8.441 12.73 19.94 12.767 32.346 0 14.08-5.654 29.108-16.889 40.861L117.062 223.459a7.28 7.28 0 0 0 10.518 10.067l111.482-116.497c13.824-14.481 20.901-32.965 20.938-50.903 0-15.718-5.544-31.219-17.034-42.643C231.841 12.385 216.958 6.963 201.858 7c-18.201 0-36.914 7.677-51.212 22.45l-70.471 72.77 5.289 5.056-5.252-5.056-65.11 67.639C5.108 180.264 0 193.655 0 206.79c0 12.116 4.377 24.16 13.386 33.147 8.864 8.805 20.645 13.099 32.5 13.062l.001.001Z" fill="#000" opacity=".9"/></svg>