<svg width="260" height="261" viewBox="0 0 260 261" fill="none" xmlns="http://www.w3.org/2000/svg">
<path fill-rule="evenodd" clip-rule="evenodd" d="M101 35C97.6861 35 94.9998 37.6863 94.9998 41V79C94.9998 82.3137 97.6861 85 101 85H188C191.313 85 194 82.3137 194 79V41C194 37.6863 191.313 35 188 35H101ZM107 73V47H182V73H107Z" fill="black"/>
<path fill-rule="evenodd" clip-rule="evenodd" d="M26.0734 27.1963C26.0187 12.1923 38.1665 0 53.1706 0H235V224.447L230.227 225.9C230.177 225.922 230.094 225.962 229.986 226.022C229.657 226.204 229.13 226.552 228.576 227.135C227.603 228.161 225.998 230.474 225.998 235.487C225.998 240.54 227.645 243.7 229.059 245.549C229.794 246.51 230.51 247.169 230.993 247.559C231.233 247.753 231.408 247.875 231.491 247.93C231.506 247.94 231.518 247.948 231.526 247.953C234.237 249.533 235.569 252.731 234.771 255.776C233.961 258.863 231.166 261.012 227.974 261L52.8589 260.356L52.5739 260.331C52.8589 260.356 52.571 260.331 52.568 260.331L52.5474 260.329L52.5137 260.326L52.4864 260.323L52.4247 260.317C52.3561 260.311 52.2688 260.301 52.1642 260.29C51.955 260.266 51.6753 260.231 51.335 260.181C50.6562 260.082 49.7253 259.923 48.6238 259.674C46.4505 259.183 43.4607 258.307 40.3893 256.752C34.1351 253.586 26.927 247.15 26.8339 235.543C26.8333 235.469 26.833 235.396 26.833 235.322L26.0734 27.1963ZM40.3893 235.543C40.3785 241.5 42.3343 242.551 45.7127 244.262C47.4592 245.146 50.2793 245.695 51.7113 246.019C52.4124 246.177 52.9831 246.273 53.3552 246.328C53.4397 246.34 53.5133 246.35 53.5752 246.358L214.005 246.948C212.797 243.754 211.998 239.948 211.998 235.487C211.998 231.963 212.499 228.902 213.338 226.26H53.2004C53.1903 226.261 53.1722 226.261 53.1465 226.262C53.0728 226.264 52.9379 226.269 52.7506 226.28C52.374 226.302 51.7991 226.349 51.0952 226.447C49.6506 226.648 47.8511 227.037 46.1538 227.747C44.4501 228.459 43.1445 229.37 42.2881 230.451C41.5333 231.405 40.3937 233.085 40.3893 235.543ZM221 212.26V14H73V212.26H221ZM59 212.26V14H53.1706C45.9185 14 40.0469 19.8931 40.0733 27.1452L40.7583 214.828C43.9096 213.511 46.9665 212.887 49.1667 212.581C50.2858 212.425 51.2307 212.345 51.9182 212.305C52.263 212.284 52.5462 212.273 52.7576 212.267C52.8634 212.264 52.9515 212.262 53.0207 212.262C53.0553 212.261 53.0852 212.261 53.1102 212.261L53.1441 212.26L53.1647 212.26C53.1677 212.26 53.0207 212.262 53.1706 212.26H59Z" fill="black"/>
</svg>
