<svg width="262" height="260" viewBox="0 0 262 260" fill="none" xmlns="http://www.w3.org/2000/svg">
<path d="M51.2299 93.7333C50.7126 93.8062 50.1995 93.8786 49.6904 93.9495C46.9554 94.3307 44.4292 92.4226 44.048 89.6876C43.6668 86.9527 45.5749 84.4265 48.3099 84.0453C48.8112 83.9754 49.3185 83.9039 49.8321 83.8315L49.8415 83.8302C63.7188 81.874 82.1667 79.2735 108.991 90.9137C111.524 92.0129 112.686 94.9576 111.587 97.4908C110.488 100.024 107.543 101.186 105.01 100.087C80.771 89.5688 64.5893 91.85 51.2299 93.7333Z" fill="black"/>
<path d="M49.8805 122.922C66.3865 119.968 82.1327 118.629 104.839 129.509C107.33 130.702 110.316 129.651 111.509 127.16C112.702 124.67 111.651 121.684 109.16 120.491C83.8671 108.371 65.7711 109.92 48.1193 113.078C45.401 113.564 43.5917 116.162 44.078 118.88C44.5644 121.599 47.1622 123.408 49.8805 122.922Z" fill="black"/>
<path d="M52.1732 148.037C51.4049 148.166 50.6219 148.298 49.822 148.432C47.0981 148.886 44.5219 147.046 44.0679 144.322C43.6138 141.598 45.4538 139.022 48.1776 138.568C49.0003 138.431 49.8186 138.292 50.6338 138.154C58.5328 136.815 66.1491 135.524 74.7912 136.137C84.4494 136.823 95.1053 139.834 109.268 147.044C111.729 148.297 112.708 151.307 111.456 153.768C110.203 156.229 107.192 157.209 104.731 155.956C91.3943 149.166 82.0502 146.678 74.0835 146.112C66.6954 145.588 60.2468 146.675 52.1732 148.037Z" fill="black"/>
<path d="M211.31 94.45C210.439 94.3287 209.558 94.2016 208.665 94.0729C195.421 92.1634 179.525 89.8717 155.99 100.085C153.457 101.184 150.512 100.022 149.413 97.4883C148.314 94.9552 149.476 92.0105 152.009 90.9112C178.161 79.563 196.393 82.1962 210.045 84.168C210.946 84.2982 211.828 84.4255 212.69 84.5457C215.425 84.9269 217.333 87.4531 216.952 90.1881C216.571 92.9231 214.045 94.8312 211.31 94.45Z" fill="black"/>
<path d="M156.161 130.008C178.937 119.095 194.72 119.987 211.12 122.921C213.838 123.408 216.436 121.598 216.922 118.88C217.408 116.162 215.599 113.564 212.881 113.077C195.122 109.9 177.063 108.904 151.84 120.99C149.349 122.183 148.298 125.169 149.491 127.66C150.684 130.15 153.67 131.201 156.161 130.008Z" fill="black"/>
<path d="M188.534 152.46C180.796 151.735 175.817 151.89 171.333 152.765C166.778 153.653 162.464 155.33 155.948 158.087C153.405 159.163 150.471 157.973 149.395 155.43C148.319 152.887 149.509 149.953 152.052 148.877C158.536 146.134 163.722 144.061 169.418 142.95C175.183 141.825 181.204 141.729 189.467 142.504C192.216 142.762 194.236 145.199 193.978 147.949C193.721 150.698 191.283 152.718 188.534 152.46Z" fill="black"/>
<path fill-rule="evenodd" clip-rule="evenodd" d="M131 220.784L130.813 221.083C84.5472 192.074 31.0854 211.341 8.45224 221.476C6.59584 222.307 4.44468 222.142 2.7376 221.036C1.03051 219.93 0 218.034 0 216V64C0 60.6863 2.68629 58 6 58H20V49.0432C20 46.179 22.0243 43.7143 24.8338 43.1576C39.2672 40.2978 58.95 37.6899 78.8876 39.7236C97.0665 41.5779 115.876 47.3412 131 60.6953C146.124 47.3412 164.933 41.5779 183.112 39.7236C203.05 37.6899 222.733 40.2978 237.166 43.1576C239.976 43.7143 242 46.179 242 49.0432V58H256C259.314 58 262 60.6863 262 64V216C262 218.034 260.969 219.93 259.262 221.036C257.555 222.142 255.404 222.307 253.548 221.476C230.915 211.341 177.453 192.074 131.187 221.083L131 220.784ZM32 183.496V54.0227C45.1659 51.698 61.4602 50.0082 77.6699 51.6616C95.1448 53.4441 112.058 59.0564 125 71.4798V194.557C106.319 181.262 73.0508 171.244 32 183.496ZM242 70V191.792C242 193.748 241.047 195.581 239.446 196.704C237.845 197.827 235.798 198.1 233.959 197.435C201.2 185.584 174.189 189.501 156.196 197.456C193.057 188.032 229.145 198.626 250 206.945V70H242ZM20 191.792V70H12V206.945C32.8553 198.626 68.9429 188.032 105.804 197.456C87.8112 189.501 60.7995 185.584 28.0411 197.435C26.2023 198.1 24.1545 197.827 22.5538 196.704C20.953 195.581 20 193.748 20 191.792ZM137 194.557C155.681 181.262 188.949 171.244 230 183.496V54.0227C216.834 51.698 200.54 50.0082 184.33 51.6616C166.855 53.4441 149.942 59.0564 137 71.4798V194.557Z" fill="black"/>
</svg>
