<svg width="260" height="260" viewBox="0 0 260 260" fill="none" xmlns="http://www.w3.org/2000/svg">
<path d="M128.449 21.405C129.959 20.8199 131.647 20.8691 133.127 21.5505L237.51 69.6306C239.654 70.6181 241.02 72.7711 241 75.1315C240.979 77.4921 239.577 79.6214 237.416 80.572L133.032 126.492C131.507 127.162 129.773 127.169 128.243 126.51L21.6267 80.5905C19.443 79.65 18.0201 77.509 17.9998 75.1315C17.9796 72.754 19.3656 70.5886 21.533 69.611L128.149 21.53L128.449 21.405ZM38.8738 74.9538L130.591 114.455L220.386 74.9538L130.591 33.5925L38.8738 74.9538Z" fill="black"/>
<path d="M29.9998 117V179.033L129.5 226.355L229 179.033V117H241V182.823C241 185.138 239.668 187.246 237.577 188.241L132.077 238.418C130.446 239.193 128.553 239.193 126.923 238.418L21.4226 188.241C19.3319 187.246 17.9998 185.138 17.9998 182.823V117H29.9998Z" fill="black"/>
<path d="M135 122V233H123V122H135Z" fill="black"/>
<path d="M29.158 76.8112L14.2566 104.905L106.975 148.262L125.844 116.548L136.156 122.683L114.511 159.067C112.935 161.717 109.606 162.741 106.813 161.435L3.45779 113.103C1.96919 112.407 0.830777 111.13 0.309349 109.572C-0.211971 108.013 -0.0710418 106.309 0.698997 104.857L18.5564 71.1882L29.158 76.8112Z" fill="black"/>
<path d="M229.975 76.7936L244.771 104.914L152.86 148.241L134.167 116.566L123.833 122.665L145.304 159.049C146.879 161.718 150.227 162.748 153.03 161.426L255.558 113.095C257.039 112.397 258.17 111.125 258.689 109.573C259.209 108.021 259.072 106.323 258.309 104.875L240.595 71.2057L229.975 76.7936Z" fill="black"/>
</svg>
