<svg width="260" height="260" fill="none" xmlns="http://www.w3.org/2000/svg"><g opacity=".9" fill="#000"><path d="M47.45 153.295c.52.469 1.145.755 1.846.755h104l1.639 10.4H49.296c-7.176-.027-12.973-5.825-13-13V74.412c.026-7.177 5.824-12.974 13-13h139.36a13.036 13.036 0 0 1 13 13v51.713l-10.4-7.123v-44.59c0-.728-.26-1.351-.754-1.846-.52-.469-1.144-.754-1.846-.754H49.296a2.53 2.53 0 0 0-1.846.754c-.467.494-.754 1.117-.754 1.846v77.038c0 .727.26 1.351.754 1.845Z"/><path fill-rule="evenodd" clip-rule="evenodd" d="m169.78 113.464 56.212 38.791v-.001c2.729 1.872 4.342 4.915 4.264 8.087-.079 3.172-1.769 6.083-4.577 7.852l-11.622 7.306 7.307 11.622c1.455 2.366 1.949 5.148 1.325 7.852a10.43 10.43 0 0 1-4.602 6.5l-3.77 2.365a10.455 10.455 0 0 1-5.538 1.585c-3.614 0-6.891-1.82-8.814-4.861l-7.307-11.622-11.622 7.306c-1.611.989-3.431 1.535-5.251 1.535-4.602 0-8.476-3.407-9.23-8.112l-10.66-67.47c-.442-2.86.26-5.538 1.976-7.54a8.554 8.554 0 0 1 6.475-2.964c1.872 0 3.744.599 5.434 1.769Zm35.725 58.162 16.015-10.088.003.001c1.196-.754 1.222-2.054.052-2.86l-56.212-38.818c-.391-.26-.729-.39-1.014-.39-.572 0-.885.52-.728 1.482l10.66 67.47c.13.989.753 1.535 1.508 1.535.337 0 .728-.104 1.092-.339l16.015-10.088c.416-.26.91-.39 1.378-.39.858 0 1.716.442 2.21 1.222l10.088 16.015a2.636 2.636 0 0 0 2.21 1.222c.494 0 .962-.131 1.43-.416l3.77-2.366c1.196-.753 1.56-2.366.806-3.588L204.7 175.215a2.579 2.579 0 0 1 .805-3.589Z"/></g></svg>