<svg width="260" height="260" viewBox="0 0 260 260" fill="none" xmlns="http://www.w3.org/2000/svg"><path fill-rule="evenodd" clip-rule="evenodd" d="M126.375 160H60c-33.137 0-60-26.863-60-60s26.863-60 60-60h140c33.137 0 60 26.863 60 60 0 30.991-23.496 56.494-53.646 59.668l2.113 1.756c.66.406 1.254.922 1.753 1.534a6.725 6.725 0 0 1 1.146 7.406 6.72 6.72 0 0 1-4.774 3.755l-18.185 6.598 7.745 21.212c3.962 10.853-1.651 22.854-12.539 26.804-10.887 3.95-22.926-1.646-26.888-12.499l-7.745-21.212-18.775 6.812a8.545 8.545 0 0 1-.208.072 6.745 6.745 0 0 1-6.093.191 6.735 6.735 0 0 1-3.797-7.299L126.375 160Zm2.522-14H60c-25.405 0-46-20.595-46-46s20.595-46 46-46h140c25.405 0 46 20.595 46 46s-20.595 46-46 46h-10.09l-43.837-36.435c-2.002-1.665-4.615-1.953-6.81-1.094-2.251.74-4.082 2.642-4.545 5.213L128.897 146Zm17.143-18.914 45.366 37.706-20.925 7.592 12.528 34.313c1.321 3.618-.55 7.618-4.179 8.935-3.629 1.317-7.642-.549-8.963-4.167l-12.528-34.313-21.738 7.888 10.439-57.954Z" fill="#000" opacity=".9"/></svg>