<svg width="260" height="260" fill="none" xmlns="http://www.w3.org/2000/svg"><path d="M48.464 194.116c1.481 2.159 3.224 4.317 5.174 6.266 2.965 2.912 6.916 5.434 11.31 7.643 4.368 2.159 9.1 3.9 13.547 4.759 1.325.26 2.651.338 4.055.338 2.6 0 5.434-.338 8.45-.937 9.048-1.768 19.993-5.771 29.536-11.05 14.222-7.93 33.982-22.828 45.11-33.981 11.076-11.18 25.897-30.966 33.826-45.085 3.51-6.292 6.448-13.235 8.553-19.812 2.08-6.603 3.38-12.74 3.38-17.913 0-1.43-.103-2.809-.363-4.16-.884-4.42-2.626-9.1-4.81-13.442-2.185-4.342-4.706-8.294-7.619-11.207a43.902 43.902 0 0 0-8.45-6.578c-1.456-.858-2.885-1.586-4.316-2.158-1.456-.546-2.86-.988-4.68-1.014-1.092 0-1.95.209-2.782.442-1.43.417-2.756 1.04-4.16 1.795-4.134 2.288-8.892 5.98-13.208 10.27-3.276 3.275-6.188 6.838-8.398 10.166-1.118 1.664-2.028 3.25-2.757 4.81-.363.78-.676 1.56-.91 2.392-.233.832-.416 1.69-.441 2.782.025 1.793.468 3.223 1.014 4.68.832 2.158 2.055 4.29 3.562 6.473a44.901 44.901 0 0 0 5.2 6.266c3.875 3.873 8.008 8.008 10.088 10.088-.052.702-.26 1.872-.65 3.198a36.156 36.156 0 0 1-2.158 5.434c-.572 1.143-1.638 2.912-3.042 4.94-4.238 6.11-11.388 14.664-17.94 21.19-4.368 4.368-9.932 9.333-15.288 13.702-5.33 4.368-10.556 8.215-13.936 10.218-2.782 1.69-5.59 3.042-7.879 3.952-1.143.441-2.158.78-2.963.988-.182.052-.365.078-.52.13l-9.776-9.776c-2.574-2.548-5.434-4.836-8.19-6.63a34.03 34.03 0 0 0-4.109-2.261c-1.378-.599-2.678-1.066-4.42-1.197l-.494-.025c-1.092 0-1.95.208-2.756.442-1.43.416-2.703 1.04-4.082 1.794-4.081 2.288-8.788 5.955-13.13 10.27-3.354 3.355-6.37 6.995-8.683 10.348-1.145 1.69-2.132 3.302-2.886 4.862-.39.78-.701 1.56-.961 2.366-.26.831-.468 1.69-.52 2.756v-.025.285c.026 1.795.442 3.198.988 4.655.806 2.21 2.002 4.368 3.485 6.551h-.002Zm10.322-18.07a68.532 68.532 0 0 1 5.59-6.318c2.835-2.808 5.98-5.408 8.606-7.15 1.3-.883 2.495-1.56 3.328-1.95.312-.156.545-.234.754-.312.26.079.65.235 1.092.469 2.288 1.091 5.98 3.743 8.737 6.5l10.998 10.998c.962.962 2.028 1.403 2.885 1.663.885.235 1.639.286 2.34.312 1.404 0 2.652-.234 4.004-.572 3.952-1.04 8.684-3.171 13.598-6.11 4.186-2.521 9.542-6.5 15.158-11.101 5.59-4.577 11.362-9.725 16.069-14.405 4.705-4.705 9.541-10.166 13.65-15.288 2.054-2.575 3.925-5.044 5.485-7.307 1.585-2.288 2.86-4.341 3.822-6.213 1.196-2.418 2.158-4.836 2.834-7.124.677-2.313 1.092-4.42 1.092-6.552 0-.884-.078-1.768-.338-2.781a7.184 7.184 0 0 0-1.845-3.276l-10.972-10.972c-1.924-1.923-3.797-4.341-5.044-6.421-.623-1.04-1.118-2.002-1.378-2.73-.13-.365-.235-.65-.26-.806.104-.338.39-1.092.91-1.975 1.56-2.912 4.888-7.28 8.528-10.92 2.757-2.782 5.928-5.355 8.58-7.098 1.326-.884 2.522-1.56 3.38-1.95.417-.182.728-.312.91-.364.235.052.702.208 1.248.442 2.315.988 6.059 3.51 8.762 6.24 1.638 1.612 3.848 4.862 5.642 8.502 1.82 3.613 3.276 7.67 3.9 10.816.104.468.182 1.222.156 2.132.026 3.353-1.014 8.866-2.911 14.768-1.872 5.902-4.577 12.298-7.722 17.888-7.202 12.922-22.022 32.708-32.11 42.822-10.036 10.14-29.797 25.038-42.77 32.215-5.642 3.145-12.09 5.85-18.07 7.748-2.99.936-5.85 1.69-8.399 2.183-2.548.494-4.81.729-6.473.729-.885 0-1.612-.079-2.08-.157h-.025c-3.172-.598-7.229-2.054-10.895-3.874-3.64-1.795-6.942-4.03-8.554-5.669-1.924-1.923-3.744-4.29-4.965-6.37-.624-1.04-1.092-2.001-1.352-2.703-.13-.364-.233-.65-.26-.832.104-.285.312-.858.677-1.535.753-1.534 2.08-3.51 3.691-5.59l-.003-.002Z" fill="#000"/></svg>