<svg width="260" height="260" viewBox="0 0 260 260" fill="none" xmlns="http://www.w3.org/2000/svg"><path d="M6.945 230.47c2.301 3.354 5.008 6.707 8.036 9.735 4.604 4.524 10.74 8.444 17.565 11.876 6.784 3.354 14.133 6.06 21.038 7.393 2.059.404 4.119.526 6.298.526 4.038 0 8.439-.525 13.124-1.455 14.052-2.747 31.05-8.968 45.871-17.169 22.087-12.321 52.775-35.469 70.057-52.799 17.201-17.371 40.219-48.113 52.533-70.051 5.451-9.776 10.014-20.563 13.284-30.783C257.981 77.483 260 67.95 260 59.91c0-2.222-.161-4.363-.565-6.464-1.372-6.867-4.077-14.139-7.47-20.885-3.393-6.746-7.307-12.886-11.831-17.412a68.24 68.24 0 0 0-13.123-10.22c-2.262-1.334-4.481-2.466-6.704-3.354-2.262-.85-4.442-1.536-7.268-1.575-1.696 0-3.029.323-4.32.686-2.221.647-4.281 1.616-6.461 2.789-6.421 3.555-13.809 9.291-20.513 15.957-5.088 5.09-9.61 10.625-13.043 15.796-1.736 2.585-3.15 5.05-4.28 7.474-.565 1.212-1.051 2.424-1.414 3.716-.362 1.292-.646 2.626-.686 4.322.04 2.787.727 5.009 1.576 7.272 1.292 3.353 3.191 6.665 5.531 10.058a69.823 69.823 0 0 0 8.076 9.735c6.018 6.019 12.437 12.443 15.668 15.675-.081 1.09-.404 2.908-1.01 4.969a56.125 56.125 0 0 1-3.352 8.442c-.888 1.777-2.544 4.524-4.724 7.676-6.582 9.493-17.686 22.785-27.861 32.924-6.784 6.787-15.425 14.502-23.743 21.289-8.278 6.787-16.395 12.765-21.644 15.877-4.32 2.626-8.682 4.726-12.235 6.14-1.776.686-3.352 1.212-4.603 1.535-.282.081-.566.122-.807.202-3.352-3.353-9.448-9.452-15.184-15.188-3.997-3.96-8.438-7.515-12.719-10.302a52.845 52.845 0 0 0-6.38-3.514c-2.14-.929-4.16-1.655-6.865-1.859l-.768-.039c-1.695 0-3.028.323-4.279.686-2.22.647-4.199 1.616-6.34 2.789-6.338 3.555-13.648 9.252-20.39 15.957-5.21 5.212-9.893 10.868-13.487 16.078-1.777 2.626-3.31 5.13-4.48 7.554a26.04 26.04 0 0 0-1.494 3.675c-.404 1.293-.728 2.626-.808 4.283v-.039.443c.041 2.789.686 4.969 1.535 7.232 1.252 3.434 3.109 6.787 5.411 10.18h-.001Zm16.032-28.076c2.503-3.232 5.531-6.666 8.681-9.817 4.402-4.363 9.287-8.403 13.365-11.109 2.019-1.373 3.875-2.424 5.168-3.03.485-.243.847-.365 1.172-.485.404.122 1.01.365 1.696.728 3.554 1.696 9.287 5.816 13.568 10.099l17.08 17.089c1.494 1.494 3.15 2.181 4.482 2.585 1.374.364 2.544.443 3.634.484 2.18 0 4.118-.365 6.218-.888 6.137-1.616 13.486-4.929 21.118-9.494 6.5-3.918 14.819-10.099 23.541-17.249 8.682-7.111 17.646-15.11 24.955-22.382 7.308-7.311 14.819-15.796 21.199-23.754 3.191-4 6.096-7.836 8.519-11.352 2.462-3.555 4.442-6.746 5.935-9.655 1.859-3.757 3.352-7.513 4.403-11.068 1.05-3.595 1.695-6.868 1.695-10.18 0-1.374-.121-2.747-.525-4.322-.404-1.535-1.172-3.353-2.866-5.09a304421.34 304421.34 0 0 0-17.04-17.047c-2.987-2.988-5.895-6.746-7.832-9.978-.969-1.615-1.737-3.11-2.141-4.241-.202-.567-.364-1.01-.404-1.252.161-.525.606-1.696 1.414-3.069 2.422-4.524 7.591-11.311 13.244-16.967 4.281-4.322 9.207-8.321 13.325-11.029 2.059-1.373 3.917-2.424 5.25-3.03.646-.282 1.131-.484 1.413-.565.364.08 1.09.324 1.938.687 3.595 1.535 9.409 5.453 13.608 9.695 2.544 2.505 5.976 7.554 8.762 13.21 2.826 5.615 5.088 11.917 6.057 16.806.161.728.282 1.898.243 3.312.039 5.211-1.576 13.776-4.523 22.947-2.907 9.17-7.107 19.108-11.992 27.793-11.185 20.078-34.201 50.821-49.868 66.535-15.585 15.755-46.275 38.903-66.423 50.054-8.762 4.887-18.777 9.089-28.064 12.038-4.644 1.455-9.085 2.626-13.043 3.393-3.957.767-7.47 1.132-10.053 1.132-1.374 0-2.504-.122-3.23-.243h-.04c-4.926-.93-11.226-3.193-16.92-6.02-5.653-2.789-10.78-6.262-13.284-8.807-2.989-2.989-5.816-6.666-7.711-9.898-.969-1.616-1.696-3.11-2.1-4.201-.202-.565-.363-1.01-.404-1.292.161-.444.485-1.333 1.05-2.384 1.171-2.385 3.231-5.454 5.734-8.686l-.004-.003Z" fill="#000"/></svg>