<svg width="260" height="260" viewBox="0 0 260 260" fill="none" xmlns="http://www.w3.org/2000/svg"><path fill-rule="evenodd" clip-rule="evenodd" d="M87 61h153c11.046 0 20 8.954 20 20v125c0 11.046-8.954 20-20 20H20c-11.046 0-20-8.954-20-20V81c0-11.046 8.954-20 20-20h13c0-14.912 12.088-27 27-27s27 12.088 27 27Zm-14 0c0-7.18-5.82-13-13-13s-13 5.82-13 13h26ZM14 197v-66h58.004A60.593 60.593 0 0 0 70 146.5c0 33.413 27.087 60.5 60.5 60.5s60.5-27.087 60.5-60.5c0-5.358-.696-10.553-2.004-15.5H246v66c0 8.284-6.716 15-15 15H29c-8.284 0-15-6.716-15-15Zm232-80V90c0-8.284-6.716-15-15-15H29c-8.284 0-15 6.716-15 15v27h63.667c10.35-18.496 30.131-31 52.833-31 22.702 0 42.483 12.504 52.833 31H246Zm-115.5 76c-25.681 0-46.5-20.819-46.5-46.5s20.819-46.5 46.5-46.5 46.5 20.819 46.5 46.5-20.819 46.5-46.5 46.5Z" fill="#000"/></svg>