<svg width="260" height="260" fill="none" xmlns="http://www.w3.org/2000/svg"><path d="M200.2 82.055h-97.865c0-.104.026-.181.026-.26V73.97a10.43 10.43 0 0 0-10.4-10.4H71.967a10.431 10.431 0 0 0-10.4 10.4v7.826c0 .105.026.182.026.26H59.8c-7.177.026-12.974 5.824-13 13v88.4a13.037 13.037 0 0 0 13 13h140.4c7.175-.025 12.973-5.823 13-13v-88.4c-.026-7.201-5.824-13-13-13h.001ZM71.968 73.944h19.994v7.826H71.968v-7.826Zm130.078 111.331c-.494.495-1.118.755-1.845.78h-140.4c-.702 0-1.327-.285-1.846-.78a2.515 2.515 0 0 1-.754-1.82v-88.4c0-.701.286-1.325.754-1.82.493-.494 1.118-.754 1.846-.78h140.4c.702 0 1.325.286 1.845.78.495.495.755 1.119.755 1.82v88.4c0 .702-.286 1.326-.755 1.82Z" fill="#000"/><path d="M130 100.255c-21.554 0-39 17.446-39 39 0 21.555 17.445 39 39 39 21.554 0 39-17.446 39-39 0-21.553-17.446-39-39-39Zm20.228 59.229c-5.2 5.174-12.298 8.371-20.228 8.371-7.904 0-15.028-3.198-20.228-8.371-5.174-5.2-8.372-12.299-8.372-20.229 0-7.903 3.198-15.028 8.372-20.228 5.2-5.173 12.298-8.372 20.228-8.372 7.904 0 15.028 3.199 20.228 8.372 5.175 5.2 8.372 12.298 8.372 20.228 0 7.904-3.198 15.029-8.372 20.229Z" fill="#000"/><path d="M106.756 139.775a24.2 24.2 0 0 0 4.94 14.69l6.214-4.705a16.437 16.437 0 0 1-3.354-9.985c0-4.576 1.846-8.71 4.862-11.7 3.016-3.015 7.124-4.861 11.7-4.861 3.952 0 7.54 1.378 10.4 3.665l4.888-6.058c-4.16-3.38-9.515-5.382-15.288-5.382-13.442-.025-24.362 10.895-24.362 24.336Z" fill="#000"/></svg>