<svg width="260" height="260" viewBox="0 0 260 260" fill="none" xmlns="http://www.w3.org/2000/svg"><g opacity=".9" fill="#000"><path d="M82.95 188.69a7.001 7.001 0 0 1-9.9-9.9l48.921-48.92-48.92-48.92a7 7 0 1 1 9.899-9.9l47.419 47.42 47.42-47.42a7 7 0 1 1 9.899 9.9l-48.92 48.92 48.92 48.92a7 7 0 0 1-9.899 9.9l-47.42-47.42-47.42 47.42Z"/><path fill-rule="evenodd" clip-rule="evenodd" d="M0 130c0 71.797 58.203 130 130 130s130-58.203 130-130S201.797 0 130 0 0 58.203 0 130Zm14 0c0 64.065 51.935 116 116 116s116-51.935 116-116S194.065 14 130 14 14 65.935 14 130Z"/></g></svg>