<svg width="260" height="260" fill="none" xmlns="http://www.w3.org/2000/svg"><g opacity=".9" fill="#000"><path d="m92.924 163.02-3.692-3.665c-1.015-.988-1.014-2.652.026-3.692l28.6-28.6-28.6-28.6c-1.014-.987-1.014-2.65 0-3.665l3.666-3.666c.987-1.014 2.65-1.014 3.665 0l28.6 28.6 28.6-28.6c.987-1.014 2.651-1.014 3.665 0l3.666 3.666c1.014.987 1.014 2.65 0 3.665l-28.6 28.6 28.6 28.6c1.014.987 1.014 2.651 0 3.666l-3.666 3.691c-.987 1.015-2.65 1.015-3.665 0l-28.6-28.6-28.6 28.6c-.987 1.015-2.65 1.015-3.665 0Z"/><path fill-rule="evenodd" clip-rule="evenodd" d="M204.49 127.089c0 43.81-35.49 79.3-79.3 79.3-43.81 0-79.3-35.49-79.3-79.3 0-43.81 35.49-79.3 79.3-79.3 43.81 0 79.3 35.49 79.3 79.3Zm-79.299-68.874c-19.059 0-36.245 7.695-48.725 20.175-12.478 12.481-20.175 29.667-20.175 48.725 0 19.059 7.695 36.245 20.175 48.725 12.482 12.48 29.693 20.175 48.725 20.175 19.059 0 36.245-7.694 48.725-20.175 12.48-12.481 20.175-29.693 20.175-48.725 0-19.059-7.694-36.246-20.175-48.725-12.481-12.479-29.693-20.175-48.725-20.175Z"/></g></svg>