<svg width="260" height="260" viewBox="0 0 260 260" fill="none" xmlns="http://www.w3.org/2000/svg">
<path d="M143.5 68.5002C149.644 68.5003 155.608 71.1594 160.964 74.4944C166.39 77.8734 171.835 82.3638 176.999 86.8118C182.286 91.3663 187.219 95.8199 192.05 99.6194C196.91 103.441 201.097 106.128 204.646 107.344C207.965 108.481 211.371 109.321 214.931 110.126C218.403 110.912 222.181 111.696 225.792 112.662C233.148 114.631 240.745 117.573 247.336 124.039C251.739 128.359 254.317 134.151 255.873 139.663C257.445 145.235 258.105 150.995 258.358 155.725C258.884 165.525 250.717 172.5 241.802 172.5H224.895C222.321 184.016 211.836 192.5 199.5 192.5C187.164 192.5 176.679 184.016 174.105 172.5H74.8945C72.3211 184.016 61.8361 192.5 49.5 192.5C37.1639 192.5 26.6789 184.016 24.1055 172.5H21C10.7827 172.5 2.5 164.217 2.5 154V124.917C2.5 118.362 6.89803 112.622 13.2275 110.916L42.0479 103.152C45.4615 102.232 48.5415 99.936 50.792 96.7268C54.2239 91.8329 59.5307 84.9797 65.8809 79.2932C72.0651 73.7553 80.1454 68.5002 89.0508 68.5002C108.218 68.5002 117.761 68.4997 143.5 68.5002ZM49.5 152.5C41.0869 152.5 34.5 159.119 34.5 167C34.5 174.881 41.0869 181.5 49.5 181.5C57.9131 181.5 64.5 174.881 64.5 167C64.5 159.119 57.9131 152.5 49.5 152.5ZM199.5 152.5C191.087 152.5 184.5 159.119 184.5 167C184.5 174.881 191.087 181.5 199.5 181.5C207.913 181.5 214.5 174.881 214.5 167C214.5 159.119 207.913 152.5 199.5 152.5ZM136.337 89.5002C140.003 89.5002 143.55 90.8001 146.349 93.1682L165.385 109.275C170.718 113.788 167.527 122.5 160.54 122.5H96C92.4102 122.5 89.5 119.59 89.5 116V96.0002C89.5 92.4104 92.4101 89.5002 96 89.5002H136.337ZM100.5 111.5H150.985L139.244 101.565C138.432 100.877 137.401 100.5 136.337 100.5H100.5V111.5ZM13.5 154C13.5 158.142 16.8579 161.5 21 161.5H24.1055C26.6789 149.984 37.1639 141.5 49.5 141.5C61.8361 141.5 72.3211 149.984 74.8945 161.5H174.105C176.679 149.984 187.164 141.5 199.5 141.5C211.836 141.5 222.321 149.984 224.895 161.5H241.802C245.328 161.5 247.515 158.936 247.374 156.314C247.145 152.053 246.561 147.167 245.286 142.651C243.995 138.075 242.123 134.335 239.633 131.892C234.987 127.334 229.487 125.038 222.949 123.288C219.614 122.396 216.245 121.702 212.504 120.856C208.851 120.029 204.977 119.085 201.081 117.75C195.698 115.906 190.308 112.245 185.249 108.266C180.161 104.264 174.832 99.4628 169.82 95.1457C164.685 90.7224 159.794 86.7234 155.149 83.8313C150.434 80.895 146.591 79.5003 143.5 79.5002C117.761 79.4997 108.218 79.5002 89.0508 79.5002C84.32 79.5002 78.8427 82.4514 73.2188 87.4875C67.761 92.3749 63.0085 98.464 59.7979 103.042C56.2952 108.037 51.1707 112.086 44.9092 113.773L16.0898 121.537C14.562 121.949 13.5 123.335 13.5 124.917V154Z" fill="black"/>
</svg>
