<svg width="260" height="260" viewBox="0 0 260 260" fill="none" xmlns="http://www.w3.org/2000/svg"><g opacity=".9" fill="#000"><path d="m114.921 152.538-.059-.062a9.375 9.375 0 0 1-.143-.139L98.05 135.668a7 7 0 1 1 9.9-9.899l12.001 12.001 31.719-31.72a7.002 7.002 0 0 1 9.9 0 7.002 7.002 0 0 1 0 9.9l-36.669 36.669a7.002 7.002 0 0 1-9.98-.081Z"/><path fill-rule="evenodd" clip-rule="evenodd" d="M70 80c0-5.523 4.477-10 10-10h100c5.523 0 10 4.477 10 10v100c0 5.523-4.477 10-10 10H80c-5.523 0-10-4.477-10-10V80Zm14 9a5 5 0 0 1 5-5h82a5 5 0 0 1 5 5v82a5 5 0 0 1-5 5H89a5 5 0 0 1-5-5V89Z"/></g></svg>