<svg width="260" height="260" fill="none" xmlns="http://www.w3.org/2000/svg"><g opacity=".9" fill="#000"><path d="M154.544 168.245a2.676 2.676 0 0 0 .754-1.845v-34.788l10.4-12.87V166.4c-.026 7.176-5.824 12.975-13 13h-72.8c-7.176-.026-12.974-5.825-13-13V93.6c.026-7.176 5.824-12.975 13-13h72.8c4.212-.025 6.864 1.56 6.864 1.56L152.698 91h-72.8c-.727.025-1.35.285-1.845.78-.47.495-.755 1.118-.755 1.82v72.8c0 .727.26 1.351.755 1.845.52.47 1.144.755 1.845.755h72.8c.702 0 1.326-.286 1.846-.755Z"/><path d="M119.886 143.884s42.303-52.417 47.009-57.642c4.732-5.278 14.949-.78 14.923-.78l-61.828 75.946-36.322-38.74s9.697-5.485 14.95-.78c5.253 4.706 21.268 21.996 21.268 21.996Z"/></g></svg>