<svg width="260" height="260" viewBox="0 0 260 260" fill="none" xmlns="http://www.w3.org/2000/svg"><path d="m114.927 176.544-.065-.068a9.375 9.375 0 0 1-.143-.139L68.05 129.668a7 7 0 0 1 0-9.899 7 7 0 0 1 9.9 0l42.001 42.001 71.719-71.72a7 7 0 0 1 9.9 9.9l-76.669 76.669a7.002 7.002 0 0 1-9.9 0l-.074-.075Z" fill="#000"/><path fill-rule="evenodd" clip-rule="evenodd" d="M0 130c0 71.797 58.203 130 130 130s130-58.203 130-130S201.797 0 130 0 0 58.203 0 130Zm14 0c0 64.065 51.935 116 116 116s116-51.935 116-116S194.065 14 130 14 14 65.935 14 130Z" fill="#000"/></svg>