<svg width="260" height="260" fill="none" xmlns="http://www.w3.org/2000/svg"><path d="M126.412 207.012c43.81 0 79.3-35.49 79.3-79.3 0-43.81-35.49-79.3-79.3-79.3-43.81 0-79.3 35.49-79.3 79.3.026 43.784 35.515 79.274 79.3 79.3ZM77.715 78.988c12.48-12.48 29.666-20.175 48.723-20.175 19.032 0 36.244 7.696 48.725 20.175 12.481 12.48 20.175 29.666 20.175 48.725 0 19.032-7.695 36.243-20.175 48.725-12.48 12.481-29.666 20.175-48.725 20.175-19.032 0-36.243-7.696-48.724-20.175-12.481-12.481-20.176-29.666-20.176-48.725 0-19.058 7.697-36.244 20.176-48.725Z" fill="#000"/><path d="M175.448 93.522s-10.218-4.472-14.95.78c-4.705 5.225-46.878 54.6-46.878 54.6s-16.016-17.29-21.268-21.996c-5.252-4.705-14.95.78-14.95.78l36.322 38.74 61.724-72.903v-.001Z" fill="#000"/></svg>