<svg width="260" height="260" fill="none" xmlns="http://www.w3.org/2000/svg"><g opacity=".9" fill="#000"><path d="m128.388 69.393-2.105 7.592c-.39 1.378.441 2.808 1.82 3.198 1.378.39 2.808-.441 3.198-1.82l2.105-7.591c.39-1.379-.442-2.809-1.82-3.199a2.628 2.628 0 0 0-3.198 1.82Zm-19.812 71.215-1.794 6.449c-.39 1.378.442 2.808 1.82 3.198 1.379.39 2.809-.442 3.199-1.82l1.793-6.449c.39-1.378-.442-2.808-1.82-3.198a2.63 2.63 0 0 0-3.198 1.82Zm52.26-20.358c-.39 1.378-1.82 2.21-3.198 1.82l-7.592-2.106c-1.378-.39-2.21-1.82-1.82-3.198.39-1.378 1.82-2.21 3.198-1.82l7.592 2.105c1.378.39 2.21 1.82 1.82 3.199Zm-71.214-19.812c.39-1.378-.442-2.808-1.82-3.198l-6.448-1.794c-1.379-.39-2.809.442-3.199 1.82-.39 1.379.442 2.809 1.82 3.199l6.449 1.793a2.597 2.597 0 0 0 3.198-1.82Zm15.366-21.268a2.598 2.598 0 0 1-.988 3.535 2.599 2.599 0 0 1-3.536-.988l-3.301-5.824a2.599 2.599 0 0 1 .988-3.535 2.598 2.598 0 0 1 3.535.988l3.302 5.824Zm44.303 14.976 6.864-3.873a2.598 2.598 0 0 0 .988-3.536 2.6 2.6 0 0 0-3.536-.988l-6.864 3.874a2.598 2.598 0 0 0-.988 3.535c.676 1.248 2.288 1.69 3.536.988ZM91.779 126.62l-5.824 3.275c-1.247.703-2.833.285-3.535-.962a2.598 2.598 0 0 1 .988-3.535l5.824-3.302a2.599 2.599 0 0 1 3.535.988 2.599 2.599 0 0 1-.988 3.536Z"/><path fill-rule="evenodd" clip-rule="evenodd" d="M128.596 107.978c-1.69-1.17-3.561-1.768-5.433-1.768a8.552 8.552 0 0 0-6.474 2.964c-1.715 2.001-2.418 4.68-1.975 7.54l10.66 67.47c.754 4.705 4.628 8.111 9.23 8.111 1.82 0 3.64-.545 5.225-1.534l11.622-7.307 7.306 11.622c1.924 3.042 5.2 4.862 8.815 4.862 1.95 0 3.875-.545 5.538-1.585l3.77-2.366c4.862-3.042 6.318-9.49 3.277-14.352l-7.307-11.621 11.622-7.307c2.808-1.768 4.498-4.68 4.576-7.852.079-3.145-1.508-6.161-4.238-8.034l-56.212-38.844-.002.001Zm51.714 48.1-16.015 10.088a2.58 2.58 0 0 0-.806 3.589l10.088 16.015c.755 1.222.39 2.835-.805 3.588l-3.77 2.366c-.416.26-.91.39-1.378.39a2.635 2.635 0 0 1-2.21-1.222l-10.088-16.016a2.636 2.636 0 0 0-2.21-1.221c-.469 0-.962.13-1.379.39l-16.015 10.088a2.054 2.054 0 0 1-1.092.338c-.754 0-1.378-.545-1.508-1.535l-10.66-67.47c-.155-.961.155-1.481.728-1.481.286 0 .625.13 1.015.39l56.212 38.818c1.143.832 1.118 2.132-.104 2.885h-.003Z"/><path d="M111.878 132.393c-9.906-3.198-17.082-12.507-17.082-23.478.026-13.625 11.076-24.702 24.726-24.727 13.65 0 24.7 11.05 24.7 24.7 0 1.118-.078 2.21-.234 3.302l-7.696-5.304a16.706 16.706 0 0 0-4.81-9.958c-3.068-3.042-7.28-4.94-11.96-4.94-4.68 0-8.891 1.872-11.96 4.94-3.041 3.068-4.94 7.28-4.94 11.96 0 4.68 1.872 8.892 4.94 11.96.859.858 1.82 1.638 2.86 2.288l1.456 9.257Z"/></g></svg>