<svg width="260" height="260" fill="none" xmlns="http://www.w3.org/2000/svg"><path d="M130.91 43.265c-46.306 0-83.85 37.543-83.85 83.85 0 46.306 37.544 83.85 83.85 83.85s83.85-37.544 83.85-83.85c0-46.307-37.544-83.824-83.85-83.85Zm51.948 135.797c-13.312 13.312-31.642 21.502-51.922 21.502-20.305 0-38.635-8.216-51.948-21.502-13.311-13.312-21.502-31.642-21.528-51.948 0-20.306 8.215-38.636 21.528-51.949 13.313-13.312 31.642-21.501 51.948-21.501 20.307 0 38.61 8.216 51.922 21.501 13.312 13.312 21.502 31.642 21.502 51.949 0 20.306-8.215 38.635-21.502 51.948Z" fill="#000"/><path d="M136.11 85.072h-10.4v47.242h56.888v-10.4H136.11V85.072Z" fill="#000"/></svg>