<svg width="260" height="260" viewBox="0 0 260 260" fill="none" xmlns="http://www.w3.org/2000/svg">
<path fill-rule="evenodd" clip-rule="evenodd" d="M24.6345 79.2145C23.1911 68.9679 31.2114 60 41.409 60H192.938C202.67 60 210.596 68.2365 209.764 78.1648C207.111 109.801 200.893 139.229 189.576 161.026C178.173 182.987 160.943 198.213 136.459 198.459C136.436 198.459 136.413 198.459 136.389 198.459C134.061 198.459 132.097 198.516 129.835 198.581C124.087 198.745 116.41 198.966 95.9266 198.457C71.04 197.839 55.0565 180.236 44.6718 157.934C34.2727 135.602 28.5037 106.682 24.6345 79.2145ZM41.409 74C39.5696 74 38.262 75.589 38.4977 77.2617C42.3368 104.516 47.8932 131.687 57.3633 152.024C66.8477 172.393 79.2771 184.04 96.274 184.461C116.369 184.96 123.451 184.755 129.132 184.59C131.502 184.521 133.628 184.46 136.352 184.459C153.824 184.271 167.163 173.81 177.15 154.575C187.229 135.163 193.224 107.862 195.813 76.9951C195.941 75.4606 194.709 74 192.938 74H41.409Z" fill="black"/>
<path fill-rule="evenodd" clip-rule="evenodd" d="M212.112 104.44C211.967 104.449 211.822 104.454 211.676 104.454H202.447C198.581 104.454 195.447 101.32 195.447 97.4537C195.447 93.5877 198.581 90.4537 202.447 90.4537H211.495C211.561 90.4508 211.635 90.4478 211.718 90.4451C211.986 90.4362 212.344 90.4295 212.779 90.4331C213.647 90.4403 214.84 90.4884 216.252 90.6458C219.04 90.9565 222.887 91.7153 226.829 93.5786C230.821 95.465 234.971 98.5187 238.088 103.37C241.211 108.229 243 114.432 243 122.128C243 129.958 241.001 136.294 237.645 141.277C234.32 146.213 229.943 149.409 225.789 151.465C221.661 153.507 217.619 154.494 214.669 154.98C213.177 155.226 211.919 155.352 211.007 155.417C210.549 155.449 210.175 155.466 209.899 155.475C209.76 155.48 209.646 155.482 209.557 155.484C209.513 155.485 209.475 155.485 209.443 155.485L209.401 155.485L209.384 155.486L209.376 155.486C209.372 155.486 209.369 155.486 209.369 148.486V155.486H190.333C186.467 155.486 183.333 152.352 183.333 148.486C183.333 144.62 186.467 141.486 190.333 141.486H209.339C209.354 141.485 209.387 141.485 209.437 141.483C209.55 141.479 209.749 141.471 210.02 141.451C210.564 141.413 211.386 141.333 212.391 141.167C214.434 140.83 217.05 140.169 219.58 138.917C222.084 137.678 224.365 135.933 226.033 133.455C227.67 131.026 229 127.478 229 122.128C229 116.647 227.748 113.176 226.31 110.938C224.867 108.691 222.937 107.224 220.847 106.236C218.708 105.225 216.474 104.757 214.701 104.56C213.834 104.463 213.126 104.436 212.664 104.433C212.434 104.431 212.269 104.434 212.18 104.437C212.145 104.439 212.122 104.44 212.112 104.44ZM18 192.788C18 188.922 21.134 185.788 25 185.788H211.676C215.542 185.788 218.676 188.922 218.676 192.788C218.676 196.654 215.542 199.788 211.676 199.788H25C21.134 199.788 18 196.654 18 192.788Z" fill="black"/>
</svg>
