<svg width="260" height="260" fill="none" xmlns="http://www.w3.org/2000/svg"><path d="M219.752 201.11c-.13-.13-1.717-1.872-3.355-4.056a47.369 47.369 0 0 1-2.365-3.406c-.677-1.118-1.197-2.183-1.378-2.782-.677-2.131-1.17-4.628-1.482-6.551-.026-.079-.026-.157-.026-.235 5.902-3.692 10.92-8.294 14.665-13.675 4.342-6.292 6.916-13.676 6.916-21.502 0-6.37-1.69-12.48-4.68-17.914-4.498-8.163-11.804-14.846-20.773-19.525-8.996-4.68-19.682-7.332-31.122-7.332-15.262 0-29.198 4.732-39.494 12.662-5.148 3.978-9.411 8.762-12.401 14.195-2.99 5.434-4.68 11.518-4.68 17.914 0 6.37 1.69 12.48 4.68 17.913 4.498 8.164 11.804 14.847 20.773 19.527 8.996 4.68 19.682 7.332 31.122 7.332 2.6 0 5.122-.182 7.618-.442 1.898 2.834 4.888 6.525 9.23 9.515 2.21 1.482 4.628 2.575 7.072 3.458 3.665 1.326 7.384 2.21 10.27 2.809 2.86.571 4.862.831 4.94.858l14.248 1.845-9.775-10.608h-.003Zm-20.904-7.02c-3.614-2.418-6.343-6.344-7.514-8.398l-.104-.157-.545-.805-1.846-2.73-3.25.495a61.969 61.969 0 0 1-9.438.728c-13.105 0-24.882-4.108-33.15-10.505-4.135-3.198-7.41-6.942-9.62-10.972-2.21-4.03-3.38-8.346-3.405-12.895 0-4.55 1.196-8.866 3.405-12.895 3.302-6.059 9.022-11.44 16.458-15.289 7.41-3.873 16.51-6.161 26.338-6.161 13.105 0 24.882 4.108 33.15 10.504 4.135 3.198 7.41 6.942 9.62 10.972 2.21 4.03 3.38 8.346 3.406 12.895 0 5.564-1.768 10.816-5.07 15.6-3.277 4.759-8.112 8.996-14.118 12.247l-2.6 1.403-.104 2.964v.65l.025.312c0 .078.157 1.638.495 3.874.364 2.237.91 5.149 1.82 8.087.285.858.624 1.638.988 2.418l-.468-.156c-1.82-.677-3.405-1.457-4.472-2.184l-.001-.002Z" fill="#000"/><path d="M120.588 177.606h-.39c-5.72 0-11.31-.441-16.692-1.274l-3.25-.495-2.73 4.004-.104.156c-2.184 3.797-7.072 10.868-13.962 15.522-2.288 1.56-5.512 3.068-8.996 4.342-3.069 1.118-6.292 2.054-9.387 2.808a78.373 78.373 0 0 0 2.262-3.432c1.585-2.6 2.99-5.252 3.874-8.06 1.481-4.705 2.418-9.542 2.99-13.26.571-3.718.805-6.292.805-6.37l.025-.338-.025-.858-.105-2.964-2.6-1.403c-10.686-5.772-19.395-13.365-25.376-22.049-5.981-8.683-9.282-18.408-9.308-28.73 0-8.423 2.21-16.405 6.24-23.79 6.083-11.076 16.406-20.721 29.64-27.611 13.208-6.89 29.301-10.946 46.644-10.946 23.14 0 43.992 7.254 58.864 18.72 7.436 5.72 13.364 12.48 17.42 19.864a53.066 53.066 0 0 1 3.016 6.552 74.957 74.957 0 0 1 12.272 4.888 60.089 60.089 0 0 0-6.188-16.432c-7.177-13.182-19.11-24.154-33.878-31.85-14.794-7.696-32.475-12.116-51.454-12.116-25.298 0-48.308 7.878-65.208 20.878-8.45 6.5-15.367 14.3-20.175 23.088-4.836 8.788-7.54 18.565-7.54 28.808 0 12.585 4.081 24.414 11.128 34.632 6.448 9.335 15.366 17.315 25.974 23.556-.13.989-.286 2.184-.52 3.537-.546 3.276-1.378 7.41-2.548 11.075-.468 1.508-1.508 3.615-2.834 5.746-1.977 3.223-4.525 6.578-6.579 9.073-1.013 1.248-1.924 2.288-2.548 3.017-.312.363-.572.65-.728.831l-.182.209-.052.051-9.776 10.556 14.248-1.846c.104-.025 5.98-.78 13.39-2.548 3.692-.883 7.8-2.028 11.805-3.483 4.004-1.456 7.903-3.224 11.284-5.512 7.8-5.33 13-12.35 15.965-17.056 4.862.599 9.828.937 14.898.937 3.614 0 7.202-.182 10.712-.495-3.9-2.99-7.384-6.318-10.322-9.932h.001Z" fill="#000"/></svg>