<svg width="260" height="260" viewBox="0 0 260 260" fill="none" xmlns="http://www.w3.org/2000/svg"><path d="M86 117a7 7 0 1 0 0-14 7 7 0 0 0 0 14Zm44 0a7 7 0 1 0 0-14 7 7 0 0 0 0 14Zm51-7a7 7 0 1 1-14 0 7 7 0 0 1 14 0Z" fill="#000"/><path fill-rule="evenodd" clip-rule="evenodd" d="M60 170h61.26l28.907 41.434c1.313 2.249 3.67 3.414 6.026 3.357 2.368.074 4.739-1.086 6.054-3.344L189.184 170H200c33.137 0 60-26.863 60-60s-26.863-60-60-60H60C26.863 50 0 76.863 0 110s26.863 60 60 60Zm59.5-14c4.757 0 8.96 2.373 11.49 5.999l.01.002 25.191 32.98L179.001 162l.01-.002A13.982 13.982 0 0 1 190.5 156h9.5c25.405 0 46-20.595 46-46s-20.595-46-46-46H60c-25.405 0-46 20.595-46 46s20.595 46 46 46h59.5Z" fill="#000"/></svg>