<svg width="260" height="260" fill="none" xmlns="http://www.w3.org/2000/svg"><path d="M204.802 59.124h-28.808V37.337c0-1.43-1.17-2.6-2.6-2.6h-5.2c-1.43 0-2.6 1.17-2.6 2.6v21.788H95.602V37.337c0-1.43-1.17-2.6-2.6-2.6h-5.2c-1.43 0-2.6 1.17-2.6 2.6v21.788H55.197c-7.176.027-12.974 5.824-13 13v126.569c.027 7.175 5.824 12.973 13 13h149.605c7.176-.026 12.973-5.824 13-13V72.124c-.026-7.176-5.824-12.974-13-13ZM53.378 70.304a2.642 2.642 0 0 1 1.82-.78h29.979v20.228c0 1.43 1.17 2.6 2.6 2.6h5.2c1.43 0 2.6-1.17 2.6-2.6V69.524h69.991v20.228c0 1.43 1.17 2.6 2.6 2.6h5.2c1.43 0 2.6-1.17 2.6-2.6V69.524h28.808c.702 0 1.326.285 1.82.78a2.64 2.64 0 0 1 .78 1.82v31.85H52.598v-31.85c0-.702.287-1.326.78-1.82Zm153.244 130.208a2.65 2.65 0 0 1-1.82.78H55.197c-.702 0-1.326-.286-1.82-.78a2.654 2.654 0 0 1-.78-1.82v-84.318h154.805v84.318c0 .702-.286 1.325-.78 1.82Z" fill="#000"/></svg>