<svg width="260" height="260" viewBox="0 0 260 260" fill="none" xmlns="http://www.w3.org/2000/svg">
<path fill-rule="evenodd" clip-rule="evenodd" d="M77 9C73.134 9 70 12.134 70 16V39H15C6.71573 39 0 45.7157 0 54V235C0 243.284 6.71572 250 15 250H245C253.284 250 260 243.284 260 235V54C260 45.7157 253.284 39 245 39H193V16C193 12.134 189.866 9 186 9C182.134 9 179 12.134 179 16V39H84V16C84 12.134 80.866 9 77 9ZM246 85V63C246 57.4772 241.523 53 236 53H24C18.4772 53 14 57.4772 14 63V85H246ZM14 99V226C14 231.523 18.4772 236 24 236H236C241.523 236 246 231.523 246 226V99H14Z" fill="black"/>
</svg>
