<svg width="260" height="260" fill="none" xmlns="http://www.w3.org/2000/svg"><path d="M130 18.993a9.875 9.875 0 0 1 9.876 9.876V205.07l64.975-65.165a10.467 10.467 0 0 1 14.804 0 10.454 10.454 0 0 1 3.067 7.402 10.468 10.468 0 0 1-3.067 7.402l-82.918 83.508a9.587 9.587 0 0 1-6.827 2.853 9.593 9.593 0 0 1-6.827-2.853L40.354 154.68a10.467 10.467 0 0 1 7.403-17.87c2.776 0 5.439 1.103 7.402 3.066l64.975 65.165V28.839A9.876 9.876 0 0 1 130 18.993Zm0-7.997a17.89 17.89 0 0 0-17.873 17.873v156.859l-51.31-51.5a18.469 18.469 0 0 0-21.132-3.536 18.468 18.468 0 0 0-5.978 4.636 18.563 18.563 0 0 0 1 24.99l82.688 83.478a17.601 17.601 0 0 0 24.99 0l82.918-83.508a18.464 18.464 0 0 0-20.128-30.094 18.352 18.352 0 0 0-5.962 3.984l-51.27 51.52V28.838a17.907 17.907 0 0 0-5.276-12.637A17.885 17.885 0 0 0 130 10.996Z" fill="#000"/></svg>