<svg width="260" height="260" viewBox="0 0 260 260" fill="none" xmlns="http://www.w3.org/2000/svg"><g opacity=".9" fill="#000"><path d="M130 58.602a7 7 0 0 0-7 7V178.1l-42.05-42.05a7.001 7.001 0 0 0-9.9 9.9l53.74 53.74a6.98 6.98 0 0 0 5.08 2.049 6.979 6.979 0 0 0 5.08-2.049l53.74-53.74a7.002 7.002 0 0 0 0-9.9 7.002 7.002 0 0 0-9.9 0L137 177.841V65.601a7 7 0 0 0-7-7Z"/><path fill-rule="evenodd" clip-rule="evenodd" d="M130 260C58.203 260 0 201.797 0 130S58.203 0 130 0s130 58.203 130 130-58.203 130-130 130Zm0-14c-64.065 0-116-51.935-116-116S65.935 14 130 14s116 51.935 116 116-51.935 116-116 116Z"/></g></svg>