<svg width="260" height="260" viewBox="0 0 260 260" fill="none" xmlns="http://www.w3.org/2000/svg"><path d="M240.109 19.892c-6.25-6.215-13.07-11.139-20.003-14.55C213.173 1.968 206.128 0 199.309 0c-3.373 0-6.706.493-9.85 1.63-3.145 1.136-6.137 2.955-8.6 5.418L17.276 170.617 2.807 245.476c-1.344 6.952 4.765 13.06 11.716 11.716l74.846-14.469L252.953 79.115a23.342 23.342 0 0 0 5.418-8.562c1.136-3.144 1.629-6.478 1.629-9.851 0-6.82-1.97-13.868-5.341-20.802-3.446-6.934-8.334-13.793-14.548-20.006l-.002-.002ZM81.945 228.74l-41.521 8.032c0-.304.075-.568.113-.872.076-9.093-7.122-16.519-16.063-16.596-.38 0-.758.076-1.137.114l7.993-41.337L165.818 43.573l50.689 50.697L81.943 228.74l.002-.001ZM244.087 65.398c-.454 1.25-1.061 2.198-1.857 2.993L227.115 83.51l-50.651-50.66 15.115-15.118c.795-.797 1.744-1.402 2.994-1.858 1.251-.456 2.841-.72 4.736-.72 3.825 0 8.827 1.213 14.131 3.828 5.303 2.577 10.872 6.517 15.949 11.632 5.115 5.115 9.056 10.685 11.631 15.95 2.614 5.305 3.825 10.306 3.788 14.134.037 1.856-.265 3.447-.721 4.698v.001Z" fill="#000"/></svg>