<svg width="260" height="260" fill="none" xmlns="http://www.w3.org/2000/svg"><path d="M200.746 48.75c-4.29-4.264-8.97-7.644-13.728-9.984-4.759-2.315-9.594-3.666-14.274-3.666-2.315 0-4.602.338-6.76 1.118-2.158.78-4.212 2.028-5.902 3.718L47.814 152.179l-11.856 61.335 61.334-11.855L209.56 89.389a16.01 16.01 0 0 0 3.719-5.875c.78-2.157 1.118-4.445 1.118-6.76 0-4.68-1.352-9.517-3.666-14.275-2.365-4.758-5.72-9.464-9.984-13.728h-.001ZM92.196 192.062 63.7 197.574c0-.209.052-.39.078-.599.052-6.239-4.888-11.335-11.024-11.388-.26 0-.52.052-.78.078l5.485-28.365 92.3-92.3 34.789 34.788-92.352 92.275v-.001Zm111.28-112.086c-.312.859-.728 1.509-1.275 2.054l-10.373 10.375-34.762-34.762 10.373-10.375c.546-.546 1.197-.962 2.055-1.274.858-.313 1.95-.494 3.25-.494 2.625 0 6.058.832 9.698 2.627 3.64 1.768 7.462 4.471 10.947 7.981 3.51 3.51 6.214 7.332 7.981 10.946 1.795 3.64 2.626 7.072 2.6 9.698.026 1.273-.181 2.365-.494 3.224Z" fill="#000"/></svg>