<svg width="260" height="264" viewBox="0 0 260 264" fill="none" xmlns="http://www.w3.org/2000/svg">
<g opacity="0.9">
<path d="M32 58H32.3333C36.0152 58 39 55.0152 39 51.3333V51C39 43.8203 44.8203 38 52 38C59.1797 38 65 43.8203 65 51V51.3333C65 55.0152 67.9848 58 71.6667 58H72C75.866 58 79 54.866 79 51V49.5C79 35.4167 67.5833 24 53.5 24H50.5C36.4167 24 25 35.4167 25 49.5V51C25 54.866 28.134 58 32 58Z" fill="black"/>
<path d="M0 48.3333V51C0 54.866 3.13401 58 7 58C10.866 58 14 54.866 14 51V49.2C14 29.7596 29.7596 14 49.2 14H54.8C74.2404 14 90 29.7596 90 49.2V51C90 54.866 93.134 58 97 58C100.866 58 104 54.866 104 51V48.3333C104 21.6396 82.3604 0 55.6667 0H48.3333C21.6396 0 0 21.6396 0 48.3333Z" fill="black"/>
<path d="M0 83.6667V81C0 77.134 3.13401 74 7 74C10.866 74 14 77.134 14 81V82.8C14 102.24 29.7596 118 49.2 118H54.8C74.2404 118 90 102.24 90 82.8V81C90 77.134 93.134 74 97 74C100.866 74 104 77.134 104 81V83.6667C104 110.36 82.3604 132 55.6667 132H48.3333C21.6396 132 0 110.36 0 83.6667Z" fill="black"/>
<path d="M32 74H32.3333C36.0152 74 39 76.9848 39 80.6667V81C39 88.1797 44.8203 94 52 94C59.1797 94 65 88.1797 65 81V80.6667C65 76.9848 67.9848 74 71.6667 74H72C75.866 74 79 77.134 79 81V82.5C79 96.5833 67.5833 108 53.5 108H50.5C36.4167 108 25 96.5833 25 82.5V81C25 77.134 28.134 74 32 74Z" fill="black"/>
<path d="M45 58C45 54.134 48.134 51 52 51C55.866 51 59 54.134 59 58V74C59 77.866 55.866 81 52 81C48.134 81 45 77.866 45 74V58Z" fill="black"/>
<path d="M163.53 118C163.678 102.745 164.03 60.4503 164.03 56.0002C164.03 46.5 161.53 38.9999 148.53 39C137.723 39.0001 133.53 46.5001 133.53 56.0002V131.5M163.53 118C163.466 124.685 163.53 123.575 163.53 128.501M163.53 118C163.595 111.315 168.036 104.134 179.03 104.5C194.03 105 194.53 115.5 194.53 124.5V131M194.53 131V135.5M194.53 131C194.864 127.333 197.646 116.079 212.531 118C228.031 120 226.531 137 226.531 137M226.531 137C226.031 140 226.031 141.5 226.031 141.5M226.531 137C227.531 131 233.904 127.51 242.031 128.501C249.743 129.441 255.031 138.5 253.031 148.5C249.531 181.5 247.531 185 247.531 185C247.531 185 242.531 216.5 233.03 236.5C231.752 238.5 228.332 241.667 225.531 243L223 257.5M133.53 164V131.5M133.53 131.5H114.53C113.03 131.667 109.83 132.7 109.03 135.5C108.23 138.3 105.03 154.167 101.53 169C98.03 183.833 101.331 186.5 103.531 192C105.732 197.5 111.53 210.5 124.031 231C131.044 242.5 140.031 243 140.031 243L142.5 257.5" stroke="black" stroke-width="12" stroke-linecap="round" stroke-linejoin="round"/>
</g>
</svg>
