<svg width="260" height="260" viewBox="0 0 260 260" fill="none" xmlns="http://www.w3.org/2000/svg"><g opacity=".9" fill="#000"><path d="M0 48.333V51a7 7 0 1 0 14 0v-1.8C14 29.76 29.76 14 49.2 14h5.6C74.24 14 90 29.76 90 49.2V51a7 7 0 1 0 14 0v-2.667C104 21.64 82.36 0 55.667 0h-7.334C21.64 0 0 21.64 0 48.333Z"/><path d="M32.333 58H32a7 7 0 0 1-7-7v-1.5C25 35.417 36.417 24 50.5 24h3C67.583 24 79 35.417 79 49.5V51a7 7 0 0 1-7 7h-.333A6.667 6.667 0 0 1 65 51.333V51c0-7.18-5.82-13-13-13s-13 5.82-13 13v.333A6.667 6.667 0 0 1 32.333 58Z"/><path fill-rule="evenodd" clip-rule="evenodd" d="M258.127 127.302c1.118 2.303 1.722 4.909 1.813 7.665v.004c.016.176.024.605.032 1.051.007.399.014.812.028 1.07-.059 3.303-.423 8.059-.936 13.875-.545 5.817-1.27 12.664-2.086 19.965-1.662 14.602-3.747 31.022-5.681 44.443-1.299 8.968-2.508 16.572-3.505 21.571-.725 3.574-1.572 6.846-2.84 9.875-1.27 2.999-3.053 5.848-5.621 8.12-1.693 1.515-3.717 2.697-5.923 3.515-2.932 1.09-6.165 1.544-9.701 1.544H123.364a9.971 9.971 0 0 1-8.852-5.384l-34.29-65.904a10 10 0 0 1-.272-8.668l22.367-50.457a10 10 0 0 1 9.142-5.947h15.553V53.664c0-3.091.665-6.06 1.904-8.605a18.441 18.441 0 0 1 5.077-6.332C138.134 35.454 143.21 34 148.165 34c3.748 0 7.495.817 10.909 2.605 3.386 1.788 6.468 4.635 8.341 8.483 1.239 2.544 1.904 5.482 1.904 8.603v39.923a24.144 24.144 0 0 1 9.065-1.758c3.748 0 7.494.818 10.909 2.605 3.384 1.758 6.466 4.605 8.339 8.452.513 1.031.907 2.181 1.209 3.333a24.013 24.013 0 0 1 9.881-2.151c3.686 0 7.433.818 10.818 2.576 3.384 1.757 6.467 4.575 8.309 8.422.575 1.121.998 2.363 1.3 3.635a24.427 24.427 0 0 1 10.092-2.181c3.657.031 7.314.758 10.667 2.484 3.354 1.697 6.406 4.484 8.219 8.271Zm-10.245 9.513v-.849l-.001-.001v-.091c0-1.424-.271-2.393-.634-3.181a5.752 5.752 0 0 0-1.631-1.999c-1.389-1.151-3.807-1.938-6.375-1.938-1.994-.031-4.019.453-5.59 1.241-1.571.788-2.629 1.818-3.233 2.969-.423.787-.665 1.637-.665 2.878a4.181 4.181 0 0 1-4.181 4.181h-1.862a6.043 6.043 0 0 1-6.044-6.043v-10.256c0-1.425-.271-2.424-.664-3.272-.393-.818-.967-1.515-1.722-2.121-1.511-1.212-3.958-2.029-6.557-2.029-1.935 0-3.898.454-5.379 1.241-1.482.787-2.508 1.787-3.113 2.999-.422.818-.695 1.818-.695 3.181v4.016a6.044 6.044 0 0 1-12.087-.002v-16.132c0-1.424-.273-2.454-.695-3.302-.393-.849-.967-1.546-1.753-2.181-1.542-1.272-4.019-2.09-6.618-2.09-1.935-.03-3.838.454-5.288 1.212-1.48.788-2.478 1.757-3.082 3.029-.423.849-.695 1.878-.695 3.302v9.108a6.041 6.041 0 0 1-6.044 6.04 6.042 6.042 0 0 1-6.043-6.043V53.719c0-1.424-.272-2.454-.696-3.303-.393-.847-.968-1.545-1.752-2.18-1.541-1.274-4.02-2.092-6.618-2.092-1.934-.03-3.837.455-5.288 1.212-1.48.787-2.477 1.758-3.082 3.03-.422.848-.695 1.879-.695 3.303v118.525c0 3.337-2.705 5.983-6.043 5.983a6.042 6.042 0 0 1-6.044-6.042v-36.372h-10.949a5 5 0 0 0-4.571 2.974l-19.1 43.088a5 5 0 0 0 .135 4.334l30.698 59.006c.861 1.654 2.537 2.692 4.402 2.692h96.081c2.81 0 4.684-.424 5.923-.969 1.208-.575 1.964-1.181 2.81-2.333.544-.757 1.088-1.788 1.602-3.12.694-1.787 1.298-4.09 1.842-6.877 1.391-6.877 3.384-20.298 5.349-35.052 1.963-14.784 3.897-30.962 5.166-43.656.848-8.421 1.391-15.39 1.481-19.055Z"/><path d="M0 81v2.667C0 110.36 21.64 132 48.333 132h7.334C82.36 132 104 110.36 104 83.667V81a7 7 0 1 0-14 0v1.8c0 19.44-15.76 35.2-35.2 35.2h-5.6C29.76 118 14 102.24 14 82.8V81a7 7 0 1 0-14 0Z"/><path d="M32 74h.333A6.667 6.667 0 0 1 39 80.667V81c0 7.18 5.82 13 13 13s13-5.82 13-13v-.333A6.667 6.667 0 0 1 71.667 74H72a7 7 0 0 1 7 7v1.5C79 96.583 67.583 108 53.5 108h-3C36.417 108 25 96.583 25 82.5V81a7 7 0 0 1 7-7Z"/><path d="M52 51a7 7 0 0 0-7 7v16a7 7 0 1 0 14 0V58a7 7 0 0 0-7-7Z"/></g></svg>