<svg width="260" height="260" fill="none" xmlns="http://www.w3.org/2000/svg"><path d="M87.066 52.89a4 4 0 1 0-8 0h8Zm-19.04 15.039v4-4Zm-11.039-15.04a4 4 0 1 0-8 0h8Zm-8.04-16.413a4 4 0 1 0 8 0h-8Zm19.04-15.04v-4 4Zm11.039 15.04a4 4 0 1 0 8 0h-8Zm22.813 16.82a4 4 0 1 0-7.998.147l7.998-.147ZM67.986 83.774v-4 4ZM42.132 53.443a4 4 0 0 0-7.998-.147l7.998.147Zm-7.998-17.384a4 4 0 1 0 7.998-.146l-7.998.146ZM67.986 5.581v-4 4Zm25.855 30.332a4 4 0 0 0 7.998.146l-7.998-.146Zm-21.86.073a4 4 0 0 0-8 0h8Zm-8 16.904a4 4 0 1 0 8 0h-8Zm51.261 94.503a4 4 0 0 0 8 0h-8Zm4-32.937-4-.026v.026h4Zm-5.478-7.997 1.421-3.739-.002-.001-1.419 3.74Zm-9.746 2.759-3.169-2.441a3.669 3.669 0 0 0-.148.205l3.317 2.236ZM91.532 130l-3.94-.685-.006.031 3.946.654Zm2.73 33.127 3.933-.722v-.001l-3.934.723Zm27.119 49.171 3.994.211a4.002 4.002 0 0 0-1.796-3.553l-2.198 3.342Zm-6.144 40.494a4 4 0 0 0 7.989.422l-7.989-.422Zm51.615-136.837a4 4 0 0 0 8 0h-8Zm4-8.336h4v-.01l-4 .01Zm-12.915-12.856v4h.009l-.009-4Zm-12.895 12.896h-4 4Zm0 8.296-4 .062a4 4 0 0 0 8-.062h-4Zm-1.1-71.902-3.999.06v.001l3.999-.061Zm-11.395-11.216.002 4h.002l-.004-4Zm-11.396 11.146-3.999-.091v.01l3.999.081Zm-1.909 94.284-3.999-.081-.001.081h4Zm-4 9.096a4 4 0 0 0 8 0h-8Zm76.562-29.095a3.999 3.999 0 1 0 7.957-.827l-7.957.827Zm3.409-5.891 3.978-.414v-.005l-3.978.419Zm-.47-4.469-3.979.414.001.005 3.978-.419Zm-11.836-10.755-.036 3.999h.004l.032-4Zm-12.105 11.995h4-4Zm-4 6.807a4 4 0 0 0 8 0h-8Zm37.006 137.061a4 4 0 0 0 8-.026l-8 .026Zm3.88-36.639-3.017-2.627a4.002 4.002 0 0 0-.983 2.64l4-.013ZM222.402 130l3.992-.251a3.448 3.448 0 0 0-.026-.269l-3.966.52Zm-2.929-15.774-3.88.97a.075.075 0 0 0 .004.016l3.876-.986Zm-.08-.32 3.881-.97-.002-.009-3.879.979Zm-11.485-8.946-.002 4h.002v-4Zm-15.764 13.516a4 4 0 0 0 7.956-.843l-7.956.843ZM79.066 52.89a11.04 11.04 0 0 1-3.234 7.806l5.657 5.656a19.04 19.04 0 0 0 5.577-13.462h-8Zm-3.234 7.806a11.039 11.039 0 0 1-7.806 3.233v8a19.04 19.04 0 0 0 13.463-5.577l-5.657-5.657Zm-7.806 3.233a11.04 11.04 0 0 1-7.805-3.233l-5.657 5.656a19.04 19.04 0 0 0 13.462 5.577v-8Zm-7.805-3.233a11.04 11.04 0 0 1-3.234-7.806h-8a19.04 19.04 0 0 0 5.577 13.462l5.657-5.657Zm-3.274-24.22a11.04 11.04 0 0 1 3.233-7.806l-5.656-5.657a19.039 19.039 0 0 0-5.577 13.463h8Zm3.233-7.806a11.04 11.04 0 0 1 7.806-3.233v-8c-5.05 0-9.892 2.006-13.462 5.576l5.657 5.657Zm7.806-3.233a11.04 11.04 0 0 1 7.806 3.233l5.657-5.657a19.039 19.039 0 0 0-13.463-5.576v8Zm7.806 3.233a11.04 11.04 0 0 1 3.234 7.806h8a19.04 19.04 0 0 0-5.577-13.463l-5.657 5.657Zm18.049 24.773a25.857 25.857 0 0 1-1.83 10.04l7.431 2.96a33.842 33.842 0 0 0 2.397-13.147l-7.998.147Zm-1.83 10.04a25.857 25.857 0 0 1-5.573 8.55l5.708 5.604a33.86 33.86 0 0 0 7.296-11.195l-7.432-2.96Zm-5.573 8.55a25.859 25.859 0 0 1-8.447 5.727l3.096 7.377a33.86 33.86 0 0 0 11.06-7.5l-5.71-5.605ZM77.99 77.76a25.86 25.86 0 0 1-10.005 2.014v8c4.499 0 8.952-.896 13.1-2.637L77.99 77.76Zm-10.005 2.014a25.86 25.86 0 0 1-10.004-2.014l-3.096 7.377a33.859 33.859 0 0 0 13.1 2.637v-8ZM57.982 77.76a25.859 25.859 0 0 1-8.447-5.728l-5.708 5.605a33.86 33.86 0 0 0 11.06 7.5l3.095-7.377Zm-8.447-5.728a25.859 25.859 0 0 1-5.572-8.55l-7.433 2.96a33.858 33.858 0 0 0 7.297 11.195l5.708-5.605Zm-5.572-8.55a25.86 25.86 0 0 1-1.83-10.04l-8-.146a33.859 33.859 0 0 0 2.397 13.146l7.433-2.96Zm-1.83-27.57a25.859 25.859 0 0 1 1.83-10.039l-7.433-2.96a33.859 33.859 0 0 0-2.396 13.146l7.998-.146Zm1.83-10.039a25.86 25.86 0 0 1 5.572-8.55l-5.708-5.605a33.857 33.857 0 0 0-7.297 11.195l7.433 2.96Zm5.572-8.55a25.859 25.859 0 0 1 8.447-5.728l-3.096-7.377a33.858 33.858 0 0 0-11.06 7.5l5.71 5.605Zm8.447-5.728a25.858 25.858 0 0 1 10.004-2.014v-8c-4.498 0-8.951.897-13.1 2.637l3.096 7.377Zm10.004-2.014c3.436 0 6.837.685 10.005 2.014l3.096-7.377a33.859 33.859 0 0 0-13.1-2.637v8Zm10.005 2.014a25.859 25.859 0 0 1 8.447 5.728l5.708-5.605a33.859 33.859 0 0 0-11.06-7.5l-3.095 7.377Zm8.447 5.728a25.857 25.857 0 0 1 5.572 8.55l7.432-2.96a33.859 33.859 0 0 0-7.296-11.195l-5.708 5.605Zm5.572 8.55a25.857 25.857 0 0 1 1.83 10.04l7.999.146a33.842 33.842 0 0 0-2.397-13.146l-7.432 2.96ZM63.981 35.986V52.89h8V35.986h-8Zm59.261 111.407v-32.937h-8v32.937h8Zm0-32.911a12.501 12.501 0 0 0-2.187-7.143l-6.6 4.521c.518.757.793 1.653.787 2.57l8 .052Zm-2.187-7.143a12.495 12.495 0 0 0-5.87-4.619l-2.842 7.478a4.5 4.5 0 0 1 2.112 1.662l6.6-4.521Zm-5.872-4.62a12.495 12.495 0 0 0-7.838-.34l2.179 7.697a4.495 4.495 0 0 1 2.821.123l2.838-7.48Zm-7.838-.34a12.494 12.494 0 0 0-6.496 4.398l6.338 4.882a4.494 4.494 0 0 1 2.337-1.583l-2.179-7.697Zm-3.327 6.839-3.317-2.236-.001.001-.002.003a.098.098 0 0 1-.007.01l-.027.04-.102.152-.385.576a442.36 442.36 0 0 0-5.58 8.558c-1.54 2.427-3.122 4.989-4.363 7.16a52.498 52.498 0 0 0-1.61 3.001c-.365.75-.858 1.827-1.033 2.832l7.882 1.37c-.042.243-.045.099.345-.704.323-.663.784-1.52 1.361-2.529 1.15-2.013 2.656-4.455 4.172-6.843a428.9 428.9 0 0 1 5.478-8.401l.375-.561.098-.145.025-.037a.035.035 0 0 1 .006-.009l.001-.002-3.316-2.236Zm-16.432 20.128c-.678 4.094-.52 9.703.031 15.606.56 5.993 1.556 12.618 2.71 18.898l7.868-1.446c-1.125-6.125-2.082-12.505-2.612-18.195-.54-5.78-.605-10.531-.104-13.555l-7.893-1.308Zm2.741 34.504c1.685 9.171 2.836 18.354 6.556 26.935 3.834 8.843 10.301 16.963 22.3 24.855l4.396-6.684c-10.873-7.151-16.22-14.12-19.356-21.354-3.25-7.496-4.223-15.376-6.028-25.197l-7.868 1.445Zm27.059 48.237-2.149 40.705 7.989.422 2.149-40.705-7.989-.422Zm57.466-96.132v-8.336h-8v8.336h8Zm0-8.346a16.884 16.884 0 0 0-1.3-6.458l-7.384 3.078a8.892 8.892 0 0 1 .684 3.399l8-.019Zm-1.3-6.458a16.903 16.903 0 0 0-3.673-5.47l-5.644 5.67a8.883 8.883 0 0 1 1.933 2.878l7.384-3.078Zm-3.673-5.47a16.887 16.887 0 0 0-5.487-3.647l-3.044 7.398a8.887 8.887 0 0 1 2.887 1.919l5.644-5.67Zm-5.487-3.647a16.88 16.88 0 0 0-6.464-1.27l.018 8a8.886 8.886 0 0 1 3.402.668l3.044-7.398Zm-6.455-1.27c-4.481 0-8.778 1.78-11.947 4.948l5.657 5.657a8.895 8.895 0 0 1 6.29-2.606v-8Zm-11.947 4.948a16.897 16.897 0 0 0-4.948 11.947h8c0-2.36.937-4.622 2.605-6.29l-5.657-5.657Zm-4.948 11.947v8.296h8v-8.296h-8Zm7.999 8.235-1.099-71.902-7.999.122 1.099 71.903 7.999-.123Zm-1.099-71.9a15.388 15.388 0 0 0-4.592-10.737l-5.611 5.702a7.387 7.387 0 0 1 2.204 5.154l7.999-.12Zm-4.592-10.737a15.386 15.386 0 0 0-10.807-4.42l.008 8a7.387 7.387 0 0 1 5.188 2.122l5.611-5.702Zm-10.806-4.42a15.405 15.405 0 0 0-10.762 4.392l5.593 5.72a7.407 7.407 0 0 1 5.174-2.112l-.005-8Zm-10.762 4.392a15.405 15.405 0 0 0-4.63 10.663l7.998.182a7.407 7.407 0 0 1 2.225-5.125l-5.593-5.72Zm-4.63 10.673-1.909 94.284 7.998.162 1.909-94.284-7.998-.162Zm-1.91 94.365v9.096h8v-9.096h-8Zm84.519-20.826-.57-5.478-7.957.828.57 5.477 7.957-.827Zm-.57-5.483-.47-4.468-7.956.837.469 4.468 7.957-.837Zm-.47-4.463a15.99 15.99 0 0 0-5.152-10.185l-5.38 5.921a7.994 7.994 0 0 1 2.575 5.091l7.957-.827Zm-5.152-10.185a15.995 15.995 0 0 0-10.63-4.157l-.064 7.999a7.997 7.997 0 0 1 5.314 2.079l5.38-5.92Zm-10.625-4.157a15.99 15.99 0 0 0-6.166 1.175l3.01 7.412a8.001 8.001 0 0 1 3.083-.588l.073-8Zm-6.166 1.175a15.983 15.983 0 0 0-5.239 3.457l5.631 5.683a7.993 7.993 0 0 1 2.618-1.728l-3.01-7.412Zm-5.239 3.457a16 16 0 0 0-3.506 5.208l7.384 3.078a8 8 0 0 1 1.753-2.603l-5.631-5.683Zm-3.506 5.208a15.994 15.994 0 0 0-1.231 6.155h8c0-1.056.209-2.102.615-3.077l-7.384-3.078Zm-1.231 6.155v6.807h8v-6.807h-8Zm45.006 143.842-.12-36.626-8 .026.12 36.626 8-.026Zm-1.103-33.987c17.345-19.925 18.627-42.429 15.689-89.254l-7.984.501c2.96 47.18 1.183 66.36-13.739 83.5l6.034 5.253Zm15.663-89.523c-.557-4.245-.744-6.164-1.063-7.983-.333-1.896-.824-3.812-1.955-8.257l-7.753 1.972c1.168 4.592 1.561 6.145 1.828 7.667.281 1.6.408 3.049 1.011 7.641l7.932-1.04Zm-3.014-16.224-.08-.32-7.761 1.94.08.32 7.761-1.94Zm-.082-.329a15.853 15.853 0 0 0-5.627-8.623l-4.916 6.312a7.848 7.848 0 0 1 2.786 4.269l7.757-1.958Zm-5.627-8.623a15.844 15.844 0 0 0-9.737-3.344v8c1.746 0 3.443.582 4.821 1.656l4.916-6.312Zm-9.735-3.344a15.823 15.823 0 0 0-6.451 1.369l3.253 7.308a7.841 7.841 0 0 1 3.194-.677l.004-8Zm-6.451 1.369a15.822 15.822 0 0 0-5.335 3.876l5.946 5.352a7.848 7.848 0 0 1 2.642-1.92l-3.253-7.308Zm-5.335 3.876a15.834 15.834 0 0 0-3.295 5.712l7.61 2.468a7.837 7.837 0 0 1 1.631-2.828l-5.946-5.352Zm-3.295 5.712a15.847 15.847 0 0 0-.685 6.559l7.956-.843a7.839 7.839 0 0 1 .339-3.248l-7.61-2.468Z" fill="#000"/></svg>