<svg width="260" height="260" fill="none" xmlns="http://www.w3.org/2000/svg"><path d="m220.786 194.155 19.492 56.159M117.046 106.399 106.96 67.974a11.415 11.415 0 0 0-5.666-7.168 11.404 11.404 0 0 0-9.108-.71v0a11.395 11.395 0 0 0-7.368 13.366c4.838 20.652 15.654 66.584 17.644 72.312 6.757 19.482 17.653 59.287 44.352 71.632l9.217 32.988" stroke="#000" stroke-width="8" stroke-linecap="round" stroke-linejoin="round"/><path d="m144.755 105.689-11.796-35.986-9.346-28.539a11.48 11.48 0 0 0-5.803-6.707 11.473 11.473 0 0 0-8.851-.56v0a11.464 11.464 0 0 0-7.328 13.745l9.247 35.256 8.307 31.698" stroke="#000" stroke-width="8" stroke-linecap="round" stroke-linejoin="round"/><path d="m167.667 88.826-24.831-67.704a12.243 12.243 0 0 0-15.514-7.347v0a12.247 12.247 0 0 0-7.627 15.384l13.785 42.084 9.586 29.299" stroke="#000" stroke-width="8" stroke-linecap="round" stroke-linejoin="round"/><path d="m195.096 83.968-3.869-8.997-21.772-49.91a11.825 11.825 0 0 0-14.724-6.448v0a11.82 11.82 0 0 0-6.81 6.106 11.83 11.83 0 0 0-.417 9.138l11.725 31.987 11.336 30.909" stroke="#000" stroke-width="8" stroke-linecap="round" stroke-linejoin="round"/><path d="M146.914 233.91a13.895 13.895 0 0 1-4.948-.9L14.585 185.289a14.136 14.136 0 0 1-9.127-13.165c0-1.684.305-3.354.9-4.928L55.34 36.516a14.094 14.094 0 0 1 7.378-7.877l54.129-24.4a13.993 13.993 0 0 1 10.706-.35l87.966 32.987a14.065 14.065 0 0 1 8.227 18.103L160.07 224.814a14.056 14.056 0 0 1-13.155 9.096Z" fill="#fff"/><path d="M122.613 5.488c1.39.003 2.767.254 4.069.74l87.966 32.987a11.576 11.576 0 0 1 6.767 14.884L157.73 223.914a11.545 11.545 0 0 1-6.032 6.472 11.546 11.546 0 0 1-8.842.295L15.465 182.93a11.535 11.535 0 0 1-6.767-14.855l48.98-130.68a11.626 11.626 0 0 1 6.068-6.477l54.129-24.4a11.408 11.408 0 0 1 4.738-1v-.03Zm0-4.968c-2.348 0-4.67.504-6.807 1.48l-54.12 24.36a16.663 16.663 0 0 0-8.696 9.286L4.01 166.326a16.436 16.436 0 0 0-1 5.798 16.636 16.636 0 0 0 10.695 15.504l127.391 47.751a16.565 16.565 0 0 0 6.376 1.044 16.573 16.573 0 0 0 11.534-5.248 16.552 16.552 0 0 0 3.402-5.492l63.676-169.844a16.584 16.584 0 0 0-9.687-21.322L128.431 1.529a16.554 16.554 0 0 0-5.818-1.04v.03Z" fill="#fff"/><path d="m16.864 179.211 127.381 47.752a7.578 7.578 0 0 0 9.736-4.429L217.657 52.67a7.558 7.558 0 0 0-4.438-9.687L125.252 9.996a7.555 7.555 0 0 0-5.757.18l-54.11 24.38a7.608 7.608 0 0 0-3.998 4.239l-48.981 130.68a7.566 7.566 0 0 0 4.458 9.736Z" fill="#fff" stroke="#000" stroke-width="8" stroke-linecap="round" stroke-linejoin="round"/><path d="M171.585 102.241 78.161 67.224m84.727 57.908L69.464 90.115m84.938 57.668-93.424-35.016m85.216 57.767-52.66-19.732M62.606 37.196l38.246 14.334a7.544 7.544 0 0 0 9.726-4.418l13.425-35.816" stroke="#000" stroke-width="8" stroke-linecap="round" stroke-linejoin="round"/><path d="M201.723 135.368a43.052 43.052 0 0 0 3.049-16.414l-3.219-8.706-5.997-16.324 5.997 16.324-5.997-16.324a16.252 16.252 0 0 1 7.667-20.072 6.436 6.436 0 0 1 8.676 2.659l11.846 22.081-9.707-18.103 9.707 18.103a9638.973 9638.973 0 0 0 8.446 17.923c2.899 6.728 2.619 8.217 2.859 13.175 2.17 45.343-2.239 54.05-22.371 67.274" fill="#fff"/><path d="M201.723 135.368a43.052 43.052 0 0 0 3.049-16.414l-3.219-8.706-5.997-16.324 5.997 16.324-5.997-16.324a16.252 16.252 0 0 1 7.667-20.072v0a6.436 6.436 0 0 1 8.676 2.659l11.846 22.081-9.707-18.103 9.707 18.103a9638.973 9638.973 0 0 0 8.446 17.923c2.899 6.728 2.619 8.217 2.859 13.175 2.17 45.343-2.239 54.05-22.371 67.274" stroke="#000" stroke-width="8" stroke-linecap="round" stroke-linejoin="round"/></svg>