<svg width="260" height="260" fill="none" xmlns="http://www.w3.org/2000/svg"><path d="m197.624 194.155 19.483 56.159M93.874 106.399 83.788 67.974a11.396 11.396 0 0 0-14.765-7.877v0a11.395 11.395 0 0 0-7.367 13.365c4.828 20.652 15.654 66.584 17.643 72.312 6.758 19.483 17.644 59.287 44.353 71.632l9.217 32.988" stroke="#000" stroke-width="8" stroke-linecap="round" stroke-linejoin="round"/><path d="m121.593 105.689-11.795-35.986-9.347-28.539a11.458 11.458 0 0 0-5.803-6.706 11.466 11.466 0 0 0-8.851-.561v0a11.466 11.466 0 0 0-7.327 13.715l9.236 35.256 8.317 31.698" stroke="#000" stroke-width="8" stroke-linecap="round" stroke-linejoin="round"/><path d="m144.504 88.826-24.83-67.704a12.255 12.255 0 0 0-15.524-7.347v0a12.246 12.246 0 0 0-7.617 15.384l13.775 42.084 9.596 29.298" stroke="#000" stroke-width="8" stroke-linecap="round" stroke-linejoin="round"/><path d="m171.934 83.968-3.899-8.997-21.751-49.91a11.817 11.817 0 0 0-14.715-6.448v0a11.829 11.829 0 0 0-7.227 15.244l11.726 31.988 11.335 30.908" stroke="#000" stroke-width="8" stroke-linecap="round" stroke-linejoin="round"/><path d="m130.83 128.75 14.804 5.548M37.126 93.624l14.814 5.548m21.542-57.468-14.815-5.548M167.176 76.83l-14.804-5.557" stroke="#fff" stroke-width="5" stroke-miterlimit="10"/><path d="M151.482 159.599a12.962 12.962 0 0 1-4.548-.83L20.062 111.217a12.816 12.816 0 0 1-6.997-6.357 11.998 11.998 0 0 1-.48-9.637l28.61-76.44a12.435 12.435 0 0 1 11.645-7.927c1.55.001 3.088.282 4.538.83l126.862 47.55a12.755 12.755 0 0 1 7.048 6.368 12.07 12.07 0 0 1 .479 9.616l-28.649 76.451a12.092 12.092 0 0 1-6.697 6.927 12.654 12.654 0 0 1-4.938 1Z" fill="#fff"/><path d="M52.84 13.355c1.25.004 2.488.23 3.658.67L183.37 61.576a10.257 10.257 0 0 1 5.667 5.118 9.568 9.568 0 0 1 .39 7.647l-28.649 76.451a9.613 9.613 0 0 1-5.328 5.508 10.258 10.258 0 0 1-3.998.799 10.451 10.451 0 0 1-3.669-.669l-126.79-47.552a10.324 10.324 0 0 1-5.669-5.118 9.595 9.595 0 0 1-.39-7.657l28.61-76.44a9.847 9.847 0 0 1 9.296-6.308Zm0-4.998a14.925 14.925 0 0 0-13.995 9.556l-28.649 76.44a14.554 14.554 0 0 0 .58 11.596 15.314 15.314 0 0 0 8.407 7.607l126.871 47.552c1.734.659 3.573.997 5.428 1 2.022 0 4.024-.405 5.888-1.19a14.614 14.614 0 0 0 8.087-8.357l28.648-76.45a14.56 14.56 0 0 0-.579-11.596 15.247 15.247 0 0 0-8.397-7.607L58.248 9.346a15.194 15.194 0 0 0-5.408-1v.01Z" fill="#fff"/><path d="m68.244 22.691-13.155-4.928a5.998 5.998 0 0 0-7.807 3.299l-28.659 76.45a5.997 5.997 0 0 0 3.719 7.618l126.871 47.561a5.984 5.984 0 0 0 4.594-.033 6.006 6.006 0 0 0 3.223-3.276l28.649-76.41a6.005 6.005 0 0 0-.277-4.61 6.002 6.002 0 0 0-3.472-3.047l-27.419-10.286L68.244 22.69Z" fill="#fff" stroke="#000" stroke-width="8" stroke-linecap="round" stroke-linejoin="round"/><path d="M102.151 118.334c18.284 0 33.107-14.822 33.107-33.107S120.435 52.12 102.151 52.12c-18.285 0-33.108 14.822-33.108 33.107s14.823 33.107 33.108 33.107Z" fill="#fff" stroke="#000" stroke-width="8" stroke-linecap="round" stroke-linejoin="round"/><path d="m130.83 128.75 14.804 5.548M37.126 93.624l14.814 5.548m21.542-57.468-14.815-5.548M167.176 76.83l-14.804-5.557" stroke="#000" stroke-width="8" stroke-linecap="round" stroke-linejoin="round"/><path d="M178.562 135.368a43.246 43.246 0 0 0 3.048-16.414l-3.218-8.706-6.048-16.324 6.048 16.324-6.048-16.324a16.263 16.263 0 0 1 7.717-20.052 6.447 6.447 0 0 1 8.677 2.659l11.845 22.081-9.716-18.103 9.716 18.103a4962.707 4962.707 0 0 0 8.447 17.923c2.899 6.728 2.619 8.217 2.849 13.175 2.179 45.343-2.229 54.049-22.362 67.274" fill="#fff"/><path d="M178.562 135.368a43.246 43.246 0 0 0 3.048-16.414l-3.218-8.706-6.048-16.324 6.048 16.324-6.048-16.324a16.263 16.263 0 0 1 7.717-20.052v0a6.447 6.447 0 0 1 8.677 2.659l11.845 22.081-9.716-18.103 9.716 18.103a4962.707 4962.707 0 0 0 8.447 17.923c2.899 6.728 2.619 8.217 2.849 13.175 2.179 45.343-2.229 54.049-22.362 67.274" stroke="#000" stroke-width="8" stroke-linecap="round" stroke-linejoin="round"/></svg>