<svg width="260" height="260" fill="none" xmlns="http://www.w3.org/2000/svg"><path d="M233.428 85.045c-1.482-3.145-3.875-5.59-6.63-7.253a18.08 18.08 0 0 0-9.282-2.574c-3.302 0-6.76.962-9.75 3.042s-5.408 5.304-6.863 9.308l-.026.052-3.822 10.79 6.059-50.518.025-.208c.052-.572.078-1.145.078-1.69.026-5.72-2.392-10.687-5.928-13.962-3.536-3.302-8.086-5.07-12.714-5.096-3.64 0-7.461 1.196-10.504 3.849-3.042 2.626-5.07 6.603-5.695 11.31v-.027l-5.928 41.756c-.598-11.7-1.222-23.427-1.768-33.047-.312-5.33-.572-10.01-.806-13.675-.234-3.692-.416-6.345-.545-7.8-.235-2.548-.91-4.888-2.002-6.942a15.877 15.877 0 0 0-6.915-6.812c-2.782-1.43-5.824-2.053-8.814-2.053-4.602.025-9.152 1.43-12.896 4.316-1.846 1.43-3.484 3.276-4.654 5.485a16.138 16.138 0 0 0-1.845 7.514c0 .728.052 1.482.13 2.236.052.39.13 1.275.235 2.419.364 4.341.884 12.895 1.481 23.165a8071.54 8071.54 0 0 1 2.106 38.74c-1.872-5.745-3.796-11.622-5.642-17.264-4.81-14.794-9.048-27.82-10.167-31.46-1.17-3.874-3.588-7.02-6.578-8.943-2.963-1.95-6.37-2.756-9.646-2.756-4.654.027-9.205 1.56-12.897 4.446-1.845 1.456-3.458 3.275-4.628 5.46a15.741 15.741 0 0 0-1.871 7.41c0 1.69.26 3.405.805 5.122 1.143 3.718 7.8 25.454 14.17 46.28 3.172 10.4 6.292 20.591 8.606 28.158 1.794 5.876 3.094 10.14 3.614 11.778-.026 3.796-.13 20.592-.13 22.932 0 1.585-.676 2.99-2.105 4.212-1.404 1.221-3.51 2.054-5.824 2.054-2.808-.025-5.928-1.092-8.97-4.523-.988-1.144-2.288-2.497-3.848-4.057-4.629-4.705-11.467-11.258-17.16-16.978a17.138 17.138 0 0 0-6.214-3.978c-2.236-.806-4.525-1.118-6.708-1.118-3.302 0-6.448.676-9.36 1.611-4.342 1.404-8.19 3.432-10.998 5.097-2.808 1.664-4.602 3.016-4.706 3.094l-.91 7.437 67.6 83.2 4.03 1.923h88.4c3.042 0 5.824-.39 8.347-1.325 1.898-.702 3.64-1.716 5.096-3.016 2.21-1.95 3.744-4.395 4.837-6.969 1.091-2.6 1.819-5.408 2.418-8.475 1.663-8.346 4.576-25.142 7.15-41.678 1.274-8.268 2.47-16.432 3.38-23.452.858-6.682 1.43-12.246 1.56-16.094a82.55 82.55 0 0 1 .988-3.145c1.872-5.798 5.695-17.005 9.022-26.728 1.663-4.862 3.223-9.36 4.342-12.662a609.63 609.63 0 0 0 1.845-5.355l.052-.182c.571-1.846.858-3.692.858-5.486a15.434 15.434 0 0 0-1.482-6.89l-.003-.005Zm-9.256 9.361c-.469 1.379-4.317 12.507-8.164 23.817a3754.055 3754.055 0 0 0-5.668 16.77 599.62 599.62 0 0 0-1.898 5.772c-.235.728-.417 1.325-.572 1.82-.078.26-.13.468-.182.701l-.104.417c-.025.208-.078.363-.103.988-.052 3.042-.624 8.762-1.508 15.626-2.626 20.645-8.009 52.287-10.427 64.402-.468 2.392-.988 4.368-1.585 5.877-.442 1.143-.91 2.028-1.378 2.678-.729.988-1.379 1.534-2.444 2.002-1.065.467-2.678.831-5.096.831h-85.93l-62.349-76.726a46.26 46.26 0 0 1 2.002-1.092c1.898-.988 4.056-1.95 6.189-2.625 2.132-.676 4.264-1.092 6.031-1.092 1.222 0 2.262.182 3.147.495a6.632 6.632 0 0 1 2.418 1.56c3.874 3.874 8.19 8.086 11.985 11.804a478.475 478.475 0 0 1 5.122 5.122c1.482 1.507 2.704 2.782 3.458 3.64 4.784 5.46 10.998 8.06 16.77 8.035 4.758 0 9.205-1.664 12.61-4.577 3.38-2.885 5.746-7.202 5.72-12.115 0-1.248.026-7.202.078-12.792.026-5.59.079-10.868.079-10.868l-.235-1.56s-24.31-79.535-26.625-87.022c-.234-.78-.338-1.456-.338-2.054 0-.962.208-1.742.625-2.522.598-1.145 1.768-2.289 3.302-3.12 1.508-.832 3.38-1.3 5.043-1.3 1.586 0 2.938.39 3.926 1.04.988.676 1.768 1.56 2.34 3.328.78 2.575 2.911 9.152 5.693 17.68 8.294 25.558 22.308 68.275 22.308 68.275l10.14-1.872s-1.17-23.686-2.496-48.49c-.65-12.401-1.352-25.09-1.95-35.256-.312-5.07-.572-9.516-.805-13-.13-1.742-.235-3.224-.339-4.445-.103-1.221-.181-2.158-.285-2.86-.052-.338-.052-.65-.052-.936 0-1.066.235-1.898.65-2.678.598-1.145 1.69-2.21 3.224-3.016a11.569 11.569 0 0 1 5.148-1.248c2.055 0 3.848.598 5.044 1.534a5.326 5.326 0 0 1 1.481 1.795c.39.754.729 1.715.832 3.041.104 1.145.286 3.822.52 7.462.78 12.792 2.132 37.934 3.25 59.879.572 10.971 1.092 21.138 1.457 28.548.363 7.436.598 12.09.598 12.116l10.348.468 13.52-95.212v-.026c.39-2.704 1.3-4.03 2.236-4.888.962-.832 2.159-1.248 3.64-1.275 1.872-.026 4.057.807 5.617 2.288 1.56 1.509 2.6 3.459 2.625 6.37 0 .26 0 .547-.025.859l-11.596 96.72 10.062 2.365 19.448-54.782c.832-2.288 1.95-3.535 3.069-4.341 1.143-.78 2.391-1.145 3.743-1.17 1.795 0 3.692.728 4.992 1.871a6.46 6.46 0 0 1 1.508 1.976c.338.754.546 1.56.546 2.548 0 .755-.104 1.534-.39 2.444v-.004Z" fill="#000"/></svg>