<svg width="260" height="260" fill="none" xmlns="http://www.w3.org/2000/svg"><path d="m197.281 194.155 19.493 56.159M93.541 106.399 83.455 67.974a11.406 11.406 0 0 0-14.774-7.877 11.395 11.395 0 0 0-7.408 13.315c4.839 20.652 15.654 66.584 17.644 72.312 6.757 19.482 17.653 59.287 44.353 71.632l9.216 32.988" stroke="#000" stroke-width="8" stroke-linecap="round" stroke-linejoin="round"/><path d="m121.251 105.689-11.796-35.986-9.346-28.569a11.467 11.467 0 0 0-14.654-7.267v0a11.465 11.465 0 0 0-7.328 13.745l9.247 35.256 8.307 31.698" stroke="#000" stroke-width="8" stroke-linecap="round" stroke-linejoin="round"/><path d="m144.162 88.826-24.831-67.704a12.243 12.243 0 0 0-15.514-7.347v0a12.244 12.244 0 0 0-7.627 15.384l13.785 42.084 9.586 29.298m52.03-16.573-3.888-8.997-21.752-49.91a11.827 11.827 0 0 0-14.704-6.448v0a11.823 11.823 0 0 0-7.228 15.244l11.726 31.988 11.336 30.908" stroke="#000" stroke-width="8" stroke-linecap="round" stroke-linejoin="round"/><path d="m170.582 94.944-2.929-1.1M43.772 47.412l-2.38-.89" stroke="#fff" stroke-width="5" stroke-miterlimit="10"/><path d="M145.331 160.458c-1.478 0-2.944-.268-4.328-.789L20.579 114.526a12.34 12.34 0 0 1-7.996-11.134c-.055-1.619.21-3.233.78-4.75l28.718-76.65a12.415 12.415 0 0 1 11.576-7.997 12.267 12.267 0 0 1 4.318.78l120.434 45.142a12.327 12.327 0 0 1 6.903 6.45 12.344 12.344 0 0 1 .314 9.444l-28.729 76.64a12.393 12.393 0 0 1-11.566 8.007Z" fill="#fff"/><path d="M53.657 16.494c1.174 0 2.338.21 3.438.62l12.486 4.678 107.958 40.464a9.833 9.833 0 0 1 6.388 8.916 9.854 9.854 0 0 1-.64 3.8l-28.729 76.64a9.86 9.86 0 0 1-9.227 6.387 9.682 9.682 0 0 1-3.438-.629L21.459 112.187a9.846 9.846 0 0 1-5.758-12.665l28.72-76.64a9.877 9.877 0 0 1 9.236-6.388Zm0-4.998a14.924 14.924 0 0 0-13.915 9.626l-28.719 76.65a14.833 14.833 0 0 0 8.687 19.093l120.433 45.143c1.654.649 3.412.987 5.188.999a14.904 14.904 0 0 0 13.905-9.686l28.729-76.63a14.827 14.827 0 0 0-8.687-19.113L71.32 17.113l-12.465-4.678a14.705 14.705 0 0 0-5.198-.94Z" fill="#fff"/><path d="m68.17 25.54-12.474-4.678a5.847 5.847 0 0 0-7.528 3.419L19.44 100.96a5.858 5.858 0 0 0 3.43 7.527l120.423 45.143a5.84 5.84 0 0 0 4.474-.155 5.845 5.845 0 0 0 3.053-3.274l28.729-76.63a5.852 5.852 0 0 0-1.467-6.39 5.84 5.84 0 0 0-1.962-1.207l-26.05-9.767L68.171 25.54Z" fill="#fff" stroke="#000" stroke-width="8" stroke-linecap="round" stroke-linejoin="round"/><path d="m41.401 46.522 129.181 48.421" stroke="#000" stroke-width="8" stroke-linecap="round" stroke-linejoin="round"/><path d="M178.229 135.368a43.065 43.065 0 0 0 2.999-16.414l-3.219-8.706-5.998-16.324 5.998 16.324-5.998-16.324a16.255 16.255 0 0 1 7.707-20.052 6.438 6.438 0 0 1 8.677 2.659l11.825 22.061-9.706-18.103 9.706 18.103a9578.086 9578.086 0 0 0 8.447 17.923c2.899 6.728 2.619 8.217 2.859 13.175 2.169 45.343-2.239 54.049-22.372 67.274" fill="#fff"/><path d="M178.229 135.368a43.065 43.065 0 0 0 2.999-16.414l-3.219-8.706-5.998-16.324 5.998 16.324-5.998-16.324a16.255 16.255 0 0 1 7.707-20.052v0a6.438 6.438 0 0 1 8.677 2.659l11.825 22.061-9.706-18.103 9.706 18.103a9578.086 9578.086 0 0 0 8.447 17.923c2.899 6.728 2.619 8.217 2.859 13.175 2.169 45.343-2.239 54.049-22.372 67.274" stroke="#000" stroke-width="8" stroke-linecap="round" stroke-linejoin="round"/></svg>