<svg width="260" height="260" fill="none" xmlns="http://www.w3.org/2000/svg"><path d="M208.26 132.548c-.078-2.365-.598-4.601-1.56-6.578-1.56-3.25-4.186-5.642-7.072-7.098-2.885-1.482-6.032-2.105-9.178-2.132-2.964 0-5.928.625-8.684 1.872-.26-1.092-.623-2.158-1.118-3.12-1.585-3.302-4.238-5.72-7.15-7.228s-6.136-2.21-9.308-2.21c-2.886 0-5.798.624-8.502 1.845-.26-.988-.598-1.975-1.04-2.86-1.612-3.302-4.264-5.745-7.175-7.254-2.939-1.533-6.162-2.235-9.387-2.235-2.625 0-5.303.495-7.8 1.508V37.05c0-2.678-.572-5.2-1.638-7.383-1.612-3.302-4.264-5.746-7.176-7.28-2.939-1.535-6.162-2.236-9.387-2.236-4.263 0-8.632 1.248-12.194 4.056a15.836 15.836 0 0 0-4.369 5.435c-1.066 2.185-1.638 4.732-1.638 7.385v85.8h-18.98l-23.192 52.182 33.827 64.843h91.545c3.042 0 5.824-.39 8.347-1.325 1.898-.702 3.64-1.717 5.096-3.017 2.21-1.95 3.744-4.394 4.836-6.968 1.092-2.6 1.82-5.408 2.444-8.475.858-4.29 1.898-10.816 3.016-18.512 1.664-11.518 3.459-25.61 4.889-38.142.701-6.265 1.325-12.142 1.794-17.133.442-4.992.755-9.074.806-11.909-.026-.468-.026-1.534-.052-1.82v-.003Zm-10.375.857v.729c-.078 3.145-.545 9.126-1.274 16.353-1.092 10.894-2.757 24.779-4.446 37.466-1.69 12.661-3.405 24.18-4.602 30.081-.468 2.392-.988 4.369-1.585 5.902-.442 1.144-.91 2.028-1.378 2.678-.728.989-1.378 1.509-2.418 2.002-1.066.468-2.679.832-5.097.832H91.832l-28.575-54.782 18.408-41.418h12.22v41.6h10.4v-137.8c0-1.222.235-2.106.598-2.834.52-1.092 1.379-1.925 2.652-2.6 1.248-.65 2.886-1.066 4.55-1.04 2.236 0 4.368.701 5.694 1.794.675.545 1.17 1.145 1.508 1.872.365.728.598 1.612.598 2.834v88.4h10.4v-13c0-1.221.235-2.105.598-2.833.52-1.092 1.379-1.924 2.652-2.6 1.248-.65 2.886-1.065 4.55-1.04 2.237 0 4.368.702 5.695 1.793.676.546 1.17 1.144 1.508 1.872.364.728.598 1.612.598 2.834v19.032h10.4V122.9c0-1.17.235-2.028.598-2.73.52-1.04 1.404-1.898 2.679-2.574 1.274-.675 2.963-1.065 4.628-1.065 2.236 0 4.342.702 5.642 1.742.65.52 1.143 1.118 1.481 1.82.339.728.572 1.585.572 2.808v13.988h10.4v-3.588c0-1.066.208-1.795.572-2.47.52-.988 1.43-1.872 2.782-2.548 1.352-.677 3.094-1.092 4.81-1.066 2.21 0 4.29.676 5.485 1.664a4.945 4.945 0 0 1 1.404 1.715c.312.677.545 1.508.545 2.73v.078l.001.001Z" fill="#000"/></svg>