<svg width="260" height="260" fill="none" xmlns="http://www.w3.org/2000/svg"><path d="m198.323 194.155 19.483 56.159M94.573 106.399 84.487 67.974a11.396 11.396 0 0 0-14.764-7.877v0a11.395 11.395 0 0 0-7.368 13.365c4.819 20.602 15.654 66.534 17.634 72.262 6.767 19.483 17.653 59.287 44.363 71.632l9.216 32.988" stroke="#000" stroke-width="8" stroke-linecap="round" stroke-linejoin="round"/><path d="m122.292 105.689-11.795-35.986-9.336-28.569a11.475 11.475 0 0 0-5.804-6.706 11.466 11.466 0 0 0-8.85-.561v0a11.485 11.485 0 0 0-7.338 13.745l9.236 35.256 8.317 31.698" stroke="#000" stroke-width="8" stroke-linecap="round" stroke-linejoin="round"/><path d="m145.203 88.826-24.84-67.704a12.235 12.235 0 0 0-15.514-7.347v0a12.245 12.245 0 0 0-7.627 15.384l13.785 42.084 9.596 29.298" stroke="#000" stroke-width="8" stroke-linecap="round" stroke-linejoin="round"/><path d="m172.633 83.968-3.898-8.997-21.752-49.91a11.813 11.813 0 0 0-14.714-6.448v0a11.823 11.823 0 0 0-7.228 15.244l11.726 31.988 11.376 30.888" stroke="#000" stroke-width="8" stroke-linecap="round" stroke-linejoin="round"/><path d="m75.57 102.441-.65 1.73m23.252-62.047-.63 1.68" stroke="#fff" stroke-width="5" stroke-miterlimit="10"/><path d="M141.605 137.947a6.547 6.547 0 0 1-2.289-.41L34.566 98.282a6.528 6.528 0 0 1-3.819-8.317l6.248-16.693a6.497 6.497 0 0 1 6.078-4.219 6.217 6.217 0 0 1 2.299.43c1.244.462 2.561.7 3.888.7a11.483 11.483 0 0 0 4.659-1 10.817 10.817 0 0 0 5.458-14.554 11.186 11.186 0 0 0-6.258-5.848 6.528 6.528 0 0 1-3.819-8.367l6.238-16.623a6.557 6.557 0 0 1 6.088-4.218 6.44 6.44 0 0 1 2.289.42l104.739 39.254a6.504 6.504 0 0 1 3.819 8.357l-24.78 66.135a6.524 6.524 0 0 1-6.088 4.218v-.01Z" fill="#fff"/><path d="M61.626 22.072c.481.003.958.091 1.409.26l104.75 39.254a3.994 3.994 0 0 1 2.242 2.087 4.012 4.012 0 0 1 .107 3.061l-24.781 66.125a3.99 3.99 0 0 1-1.467 1.886 3.992 3.992 0 0 1-2.281.713 4.005 4.005 0 0 1-1.4-.25L35.445 95.963a4 4 0 0 1-2.349-5.148l6.248-16.643a3.998 3.998 0 0 1 3.729-2.6c.481.002.959.09 1.41.26a13.6 13.6 0 0 0 4.777.87 13.994 13.994 0 0 0 5.678-1.22 13.305 13.305 0 0 0 6.708-17.902 13.665 13.665 0 0 0-7.648-7.138 3.998 3.998 0 0 1-2.349-5.158l6.238-16.613a3.999 3.999 0 0 1 3.739-2.6Zm0-4.998a8.997 8.997 0 0 0-8.447 5.837L46.96 39.525a8.996 8.996 0 0 0 5.22 11.585 8.787 8.787 0 0 1 4.888 4.559 8.316 8.316 0 0 1-4.218 11.235 8.997 8.997 0 0 1-3.629.78 8.767 8.767 0 0 1-2.998-.55 8.915 8.915 0 0 0-6.878.23 8.925 8.925 0 0 0-4.698 4.998l-6.238 16.674a8.998 8.998 0 0 0 5.268 11.585l104.77 39.265a8.85 8.85 0 0 0 3.159.57 8.993 8.993 0 0 0 8.417-5.818l24.79-66.144a9.001 9.001 0 0 0-2.283-9.736 8.996 8.996 0 0 0-2.985-1.85L64.784 17.653a8.997 8.997 0 0 0-3.158-.58Z" fill="#fff"/><path d="M55.398 42.694A17.547 17.547 0 1 1 43.073 75.55l-6.238 16.644 104.76 39.265 24.79-66.125L61.625 26.07l-6.227 16.624Z" fill="#fff" stroke="#000" stroke-width="8" stroke-linecap="round" stroke-linejoin="round"/><path d="m98.171 42.134-3.158 8.416" stroke="#000" stroke-width="8" stroke-linecap="round" stroke-linejoin="round"/><path d="m89.365 65.615-8.467 22.591" stroke="#000" stroke-width="8" stroke-linecap="round" stroke-linejoin="round" stroke-dasharray="16.09 16.09"/><path d="m78.08 95.743-3.16 8.427m98.123-10.266 5.998 16.324 3.228 8.706a43.062 43.062 0 0 1-3.058 16.434m11.005 61.556c20.122-13.225 24.54-21.931 22.361-67.274-.23-4.998 0-6.447-2.849-13.175a9549.484 9549.484 0 0 0-8.446-17.923l-9.717-18.103" stroke="#000" stroke-width="8" stroke-linecap="round" stroke-linejoin="round"/><path d="M201.282 98.592 189.436 76.51a6.447 6.447 0 0 0-8.676-2.659 16.265 16.265 0 0 0-7.717 20.053l5.997 16.324" stroke="#000" stroke-width="8" stroke-linecap="round" stroke-linejoin="round"/></svg>