<svg width="260" height="260" viewBox="0 0 260 260" fill="none" xmlns="http://www.w3.org/2000/svg"><path fill-rule="evenodd" clip-rule="evenodd" d="M110 68a7 7 0 0 1 7-7h28a7 7 0 0 1 7 7v41h39a7 7 0 0 1 7 7v28a7 7 0 0 1-7 7h-39v41a7 7 0 0 1-7 7h-28a7 7 0 0 1-7-7v-41H72c-5.523 0-10-4.477-10-10v-25a7 7 0 0 1 7-7h41V68Zm14 7h14v45a3 3 0 0 0 3 3h43v14h-43a3 3 0 0 0-3 3v45h-14v-45a3 3 0 0 0-3-3H76v-14h45a3 3 0 0 0 3-3V75Z" fill="#000"/><path fill-rule="evenodd" clip-rule="evenodd" d="M0 130c0 71.797 58.203 130 130 130s130-58.203 130-130S201.797 0 130 0 0 58.203 0 130Zm14 0c0 64.065 51.935 116 116 116s116-51.935 116-116S194.065 14 130 14 14 65.935 14 130Z" fill="#000"/></svg>