<svg width="260" height="260" viewBox="0 0 260 260" fill="none" xmlns="http://www.w3.org/2000/svg">
<path d="M56.5 138V124H27C19.8203 124 14 118.18 14 111C14 103.82 19.8203 98 27 98H79V84H27C12.0883 84 0 96.0883 0 111C0 125.912 12.0883 138 27 138H56.5Z" fill="black"/>
<path d="M206 138V124H233C240.18 124 246 118.18 246 111C246 103.82 240.18 98 233 98H208V84H233C247.912 84 260 96.0883 260 111C260 125.912 247.912 138 233 138H206Z" fill="black"/>
<path fill-rule="evenodd" clip-rule="evenodd" d="M101.529 63C93.8768 63.0001 89.5292 67.9704 89.5292 74.0002V130C89.5292 133.314 86.8429 136 83.5292 136H66.967C66.9885 136.096 67.0101 136.192 67.0318 136.289C67.9695 140.464 69.0697 145.225 69.7974 147.954C70.3319 149.958 70.7197 151.675 71.13 153.492C72.3386 158.844 73.7425 165.06 79.6647 182.022C81.1144 186.175 85.0304 189.368 89.5982 191.652C91.777 192.742 93.8614 193.501 95.4053 193.986C96.1712 194.226 96.7887 194.394 97.1985 194.499C97.4031 194.551 97.5547 194.587 97.6459 194.608C97.6915 194.619 97.7218 194.626 97.7361 194.629L97.7326 194.628M97.7453 194.631C100.516 195.219 102.499 197.666 102.499 200.5V221.5C102.499 224.814 99.8127 227.5 96.4989 227.5C93.1852 227.5 90.4989 224.814 90.4989 221.5V205.004C88.7065 204.389 86.5263 203.533 84.2307 202.385C78.659 199.599 71.3255 194.542 68.3353 185.978C62.1696 168.318 60.6157 161.43 59.3992 156.038C59.0121 154.322 58.6591 152.758 58.2026 151.046C57.404 148.051 56.2541 143.062 55.3235 138.918C54.8535 136.826 54.4318 134.914 54.1276 133.526C53.9754 132.832 53.8526 132.268 53.7676 131.877L53.6353 131.267C53.6353 131.267 53.6351 131.266 59.5 130L53.6353 131.267C53.2526 129.494 53.6921 127.643 54.8312 126.231C55.9702 124.82 57.6865 124 59.5 124H77.5292V74.0002C77.5292 61.0298 87.5668 51.0001 101.529 51C110.439 50.9999 115.989 55.6159 119.078 60.0925C119.4 60.5602 119.697 61.0261 119.969 61.485C123.621 58.7575 128.452 57.1011 134.442 57.5142C138.729 57.8098 142.43 58.8019 145.49 60.6311C148.546 62.4573 150.644 64.9299 152.018 67.6834C155.878 65.356 160.941 64.2291 167.298 65.0493C172.328 65.6983 176.312 67.6314 179.318 70.3959C181.573 72.4695 183.114 74.8579 184.168 77.1737C187.993 75.5288 192.479 75.0232 196.756 75.5447C209.107 77.0505 215.222 90.4321 212.97 102.389C211.231 118.781 209.733 132.814 208.669 142.763C208.133 147.764 207.708 151.734 207.416 154.453L206.968 158.623L206.967 158.625L206.967 158.631L206.966 158.638L206.966 158.641L206.965 158.651L206.958 158.712C206.953 158.761 206.945 158.828 206.935 158.912C206.915 159.08 206.886 159.316 206.847 159.614C206.768 160.211 206.646 161.059 206.469 162.115C206.116 164.224 205.543 167.178 204.654 170.624C202.891 177.458 199.816 186.499 194.556 194.731C193.538 196.323 191.47 198.627 189.551 200.52C188.458 201.599 187.054 202.907 185.583 204.031L182.937 222.357C182.464 225.637 179.421 227.912 176.142 227.438C172.862 226.965 170.587 223.923 171.06 220.643L174.092 199.643C174.378 197.657 175.639 195.945 177.451 195.083C177.425 195.095 177.535 195.043 177.797 194.863C178.044 194.694 178.353 194.462 178.719 194.164C179.453 193.564 180.287 192.804 181.121 191.98C181.952 191.16 182.732 190.329 183.359 189.612C183.672 189.255 183.931 188.943 184.13 188.691C184.229 188.566 184.305 188.464 184.362 188.386C184.421 188.305 184.444 188.269 184.444 188.269C188.769 181.501 191.444 173.792 193.035 167.626C193.823 164.572 194.327 161.964 194.633 160.135C194.786 159.222 194.888 158.508 194.951 158.034C194.983 157.798 195.004 157.621 195.017 157.511C195.024 157.456 195.028 157.417 195.03 157.395L195.032 157.382L195.032 157.38L195.032 157.378L195.034 157.358L201 158C195.034 157.358 195.034 157.358 195.034 157.358L195.035 157.357L195.035 157.353L195.484 153.172C195.776 150.454 196.202 146.486 196.737 141.487C197.807 131.488 199.314 117.365 201.064 100.867C201.083 100.685 201.111 100.503 201.147 100.323C202.741 92.3521 198.277 87.819 195.304 87.4565C188.71 86.6525 186.684 89.5737 186.449 90.9864C186.225 92.3263 186.121 93.2884 186.072 93.8733C186.048 94.1658 186.037 94.3642 186.033 94.4685C186.031 94.5107 186.03 94.5376 186.03 94.5491C186.004 97.8402 183.328 100.5 180.03 100.5C176.716 100.5 174.03 97.8137 174.03 94.5H180.03C174.03 94.5 174.03 94.498 174.03 94.498V94.496L174.03 94.4833L174.03 94.4644L174.031 94.4199C174.031 94.3874 174.032 94.349 174.032 94.3047C174.034 94.2162 174.038 94.1043 174.043 93.969C174.054 93.6983 174.075 93.3342 174.113 92.8767C174.185 92.0211 174.317 90.8396 174.56 89.3326C174.562 89.2765 174.564 89.2081 174.566 89.1282C174.573 88.8051 174.573 88.3057 174.534 87.6868C174.455 86.421 174.226 84.8046 173.675 83.2181C173.127 81.6407 172.324 80.2667 171.196 79.2291C170.124 78.2436 168.483 77.3017 165.762 76.9507C160.104 76.2206 157.771 77.9758 156.629 79.3089C155.24 80.9302 154.68 83.0924 154.529 84.3147V87.5C154.529 90.8137 151.843 93.5 148.529 93.5C145.215 93.5 142.529 90.8137 142.529 87.5V83.5C142.529 78.6222 142.413 75.3829 141.315 73.111C140.873 72.1969 140.281 71.4973 139.334 70.9314C138.316 70.3231 136.58 69.6902 133.616 69.4858C127.288 69.0493 124.08 73.3158 123.589 77.2054C123.578 77.5651 123.559 77.9366 123.526 78.3117C123.491 82.0459 123.498 82.4452 123.509 83.1496C123.518 83.6565 123.529 84.3214 123.529 86.5006C123.529 89.8143 120.843 92.5006 117.529 92.5006C114.215 92.5006 111.529 89.8143 111.529 86.5006C111.529 84.713 111.519 84.0238 111.511 83.4541C111.499 82.5652 111.491 81.9673 111.529 77.9421C111.534 77.4572 111.558 76.9714 111.6 76.4865C111.602 75.4363 111.494 74.1441 111.358 72.985C111.288 72.3923 111.217 71.8819 111.164 71.5234C111.138 71.3449 111.116 71.2061 111.102 71.1158C111.093 71.079 111.08 71.0258 111.062 70.9589C111.008 70.7495 110.91 70.4097 110.759 69.9843C110.449 69.1152 109.949 67.992 109.201 66.9074C107.804 64.884 105.62 63 101.529 63M186.03 94.5019C186.03 94.5058 186.03 94.5096 186.03 94.5134L186.03 94.5038V94.5019ZM97.7436 194.631C97.7436 194.631 97.7396 194.63 97.7361 194.629L97.7403 194.63L97.7436 194.631Z" fill="black"/>
</svg>
