<svg width="260" height="260" viewBox="0 0 260 260" fill="none" xmlns="http://www.w3.org/2000/svg"><path fill-rule="evenodd" clip-rule="evenodd" d="M211.156 138c-1.499 12.668-3.233 26.082-4.86 37.374-1.299 8.968-2.508 16.572-3.505 21.571-.725 3.574-1.571 6.846-2.84 9.876-1.27 2.999-3.053 5.847-5.621 8.12-1.693 1.515-3.717 2.697-5.923 3.515-2.932 1.09-6.165 1.544-9.701 1.544H79.957a9.976 9.976 0 0 1-9.636-7.402L50.254 138H27c-14.912 0-27-12.088-27-27s12.088-27 27-27h55.005l.004-11.872v-.096l.002-7.368c0-3.09.665-6.059 1.904-8.605a18.446 18.446 0 0 1 5.077-6.332C93.132 46.455 98.209 45 103.164 45c3.748 0 7.494.817 10.909 2.605 2.926 1.532 6.341 5.395 6.341 9.483 1.085-4.088 9.918-5.237 12.969-5.237 3.747 0 7.494.818 10.909 2.605 3.384 1.758 6.466 4.605 8.339 8.452.513 1.031.906 2.181 1.209 3.333a24.02 24.02 0 0 1 9.88-2.15c3.687 0 7.435.818 10.819 2.575 3.384 1.757 6.467 4.575 8.309 8.423.575 1.12.998 2.363 1.3 3.635a24.422 24.422 0 0 1 10.092-2.18c3.657.03 7.314.757 10.667 2.483 2.291 1.16 4.44 2.826 6.15 4.973H233c14.912 0 27 12.088 27 27s-12.088 27-27 27h-21.844Zm3.82-40c-.102 3.242-.445 7.663-.913 12.964-.369 3.934-.82 8.338-1.325 13.036H233c7.18 0 13-5.82 13-13s-5.82-13-13-13h-18.024ZM27 124c-7.18 0-13-5.82-13-13s5.82-13 13-13h55.002l-.001 26H27Zm52.711 80.034L64 138h20.435c5.548 0 10.036-4.509 10.001-10.057-.113-18.012-.337-54.698-.337-63.254 0-1.423.273-2.454.695-3.303.605-1.272 1.602-2.242 3.082-3.03 1.451-.757 3.354-1.24 5.288-1.211 2.598 0 5.077.817 6.617 2.09.785.636 1.36 1.335 1.753 2.182.424.849.696 1.878.696 3.303v15.958a6.042 6.042 0 0 0 6.043 6.043 6.04 6.04 0 0 0 6.043-6.04v-9.108c0-1.424.273-2.454.696-3.302.604-1.272 1.601-2.242 3.082-3.03 1.45-.757 3.353-1.241 5.288-1.212 2.599 0 5.076.818 6.618 2.09.786.636 1.36 1.333 1.753 2.181.422.849.695 1.878.695 3.302v16.134a6.043 6.043 0 0 0 12.087 0v-4.015c0-1.364.273-2.364.695-3.181.604-1.212 1.631-2.212 3.113-3 1.481-.786 3.444-1.24 5.379-1.24 2.599 0 5.046.817 6.557 2.029.755.606 1.329 1.303 1.722 2.12.393.85.664 1.848.664 3.273v10.14a6.16 6.16 0 0 0 6.16 6.16c3.31 0 5.913-2.63 6.345-5.912.074-.558.156-.979.247-1.148.604-1.151 1.662-2.18 3.233-2.969 1.571-.788 3.596-1.272 5.59-1.241 2.568 0 4.986.787 6.375 1.938a5.754 5.754 0 0 1 1.631 2c.363.787.634 1.757.634 3.18v.091l.001.002v.848c-.09 3.665-.633 10.635-1.481 19.056-1.269 12.694-3.203 28.873-5.166 43.657-1.964 14.754-3.958 28.176-5.349 35.053-.544 2.787-1.148 5.09-1.842 6.877-.514 1.333-1.058 2.363-1.602 3.121-.846 1.151-1.602 1.757-2.81 2.332-1.238.546-3.113.97-5.923.97h-94.14a4.99 4.99 0 0 1-4.857-3.843Z" fill="#000"/></svg>