<svg width="260" height="260" fill="none" xmlns="http://www.w3.org/2000/svg"><path d="M63.938 110.078a76.074 76.074 0 0 0 1.11 23.571 81.04 81.04 0 0 0 11.695 27.459c4.409 6.677 11.606 11.606 15.174 14.994l-2.229 45.533M16.216 74.421h74.172m-74.172 35.657h73.392m101.961-35.657h57.918m-56.769 35.657h56.768" stroke="#000" stroke-width="8" stroke-linecap="round" stroke-linejoin="round"/><path d="m167.338 171.064-.719-.65c-10.546-9.596-30.928-28.189-48.891-44.982-34.557-32.318-34.517-33.887-34.477-35.537A475.74 475.74 0 0 1 85.79 51.18a18.073 18.073 0 0 1 17.993-16.173 17.867 17.867 0 0 1 8.507 2.129 19.375 19.375 0 0 1 15.993-8.434 19.384 19.384 0 0 1 15.994 8.434 18.127 18.127 0 0 1 22.431 4.406 18.119 18.119 0 0 1 3.679 7.3 18.322 18.322 0 0 1 25.091 12.285l.08.29a118.922 118.922 0 0 1 3.668 29.078c2.459 39.495 1.789 61.447-8.697 79.34l-.719 1.239-22.472-.01Z" fill="#fff"/><path d="M128.353 31.178a16.905 16.905 0 0 1 15.155 9.436 15.629 15.629 0 0 1 15.573-1.737 15.638 15.638 0 0 1 9.257 12.643l.13 1.26a15.843 15.843 0 0 1 24.601 8.996l.09.33a116.063 116.063 0 0 1 3.578 28.499c2.499 39.985 1.61 60.976-8.347 77.97h-20.112c-20.212-18.383-82.608-75.371-82.528-78.61a470.87 470.87 0 0 1 2.529-38.505 15.594 15.594 0 0 1 24.87-10.816 16.887 16.887 0 0 1 15.204-9.466Zm0-4.998a21.728 21.728 0 0 0-16.833 7.807A20.623 20.623 0 0 0 83.3 50.92a475.046 475.046 0 0 0-2.548 38.915c-.06 2.44.48 3.839 11.495 14.745 5.618 5.557 13.605 13.174 23.741 22.661 17.993 16.823 38.365 35.426 48.921 44.983l1.43 1.299h24.93l1.45-2.469c10.796-18.443 11.525-40.724 8.996-80.689a121.147 121.147 0 0 0-3.738-29.569v-.08l-.08-.3a20.783 20.783 0 0 0-9.805-12.898 20.798 20.798 0 0 0-16.085-1.946 20.663 20.663 0 0 0-11.071-11.44 20.657 20.657 0 0 0-15.919-.165 21.73 21.73 0 0 0-16.664-7.787Z" fill="#fff"/><path d="M141.198 76.65V48.083a12.901 12.901 0 0 0-12.845-12.905 12.905 12.905 0 0 0-12.995 12.905V76.65" fill="#fff"/><path d="M141.198 76.65V48.083a12.901 12.901 0 0 0-12.845-12.905v0a12.905 12.905 0 0 0-12.995 12.905V76.65" stroke="#000" stroke-width="8" stroke-linecap="round" stroke-linejoin="round"/><path d="M115.358 76.65V53.11a11.607 11.607 0 0 0-11.606-11.606A11.615 11.615 0 0 0 92.247 51.88a466.126 466.126 0 0 0-2.64 49.691v8.507" fill="#fff"/><path d="M115.358 76.65V53.11a11.607 11.607 0 0 0-11.606-11.606A11.615 11.615 0 0 0 92.247 51.88v0a466.126 466.126 0 0 0-2.64 49.691v8.507" stroke="#000" stroke-width="8" stroke-linecap="round" stroke-linejoin="round"/><path d="m166.958 76.65-2.619-24.67a11.648 11.648 0 0 0-11.575-10.436 11.646 11.646 0 0 0-11.646 11.646v23.46" fill="#fff"/><path d="m166.958 76.65-2.619-24.67a11.648 11.648 0 0 0-11.575-10.436v0a11.646 11.646 0 0 0-11.646 11.646v23.46" stroke="#000" stroke-width="8" stroke-linecap="round" stroke-linejoin="round"/><path d="m166.958 76.65-1-9.766a11.855 11.855 0 0 1 6.968-12.059 11.845 11.845 0 0 1 16.304 7.9l.079.32a111.617 111.617 0 0 1 3.469 27.65c2.949 46.982 1.42 66.834-14.704 85.367l.13 45.533" fill="#fff"/><path d="m166.958 76.65-1-9.766a11.855 11.855 0 0 1 6.968-12.059 11.845 11.845 0 0 1 16.304 7.9l.079.32a111.617 111.617 0 0 1 3.469 27.65v0c2.949 46.982 1.42 66.834-14.704 85.367l.13 45.533" stroke="#000" stroke-width="8" stroke-linecap="round" stroke-linejoin="round"/></svg>