<svg width="260" height="260" viewBox="0 0 260 260" fill="none" xmlns="http://www.w3.org/2000/svg"><path fill-rule="evenodd" clip-rule="evenodd" d="M15 45C6.716 45 0 51.716 0 60v140c0 8.284 6.716 15 15 15h230c8.284 0 15-6.716 15-15V60c0-8.284-6.716-15-15-15H15Zm9 14c-5.523 0-10 4.477-10 10v122c0 5.523 4.477 10 10 10h212c5.523 0 10-4.477 10-10V69c0-5.523-4.477-10-10-10H24Z" fill="#000"/><path d="M24.173 167s-2.948-1.964 5.892-20.816c7.59-15.262 19.769-17.139 38.993-17.366 18.648-.223 33.812 2.885 41.832 17.366 7.788 18.888 5.726 20.816 5.726 20.816h-15.072a.422.422 0 0 1-.314-.14l-2.24-2.499a.925.925 0 0 0-1.61.617V167H42.061a.266.266 0 0 1-.266-.266v-1.83a.842.842 0 0 0-1.537-.478L38.484 167h-14.31Zm39.265-42.64c1.763.684 5.054.929 5.915.931 0 0 3.882-.034 6.143-.931 2.548-1.011 3.967-1.999 5.688-4.171.96-1.212 1.747-3.143 2.225-4.501.365-1.036.593-2.112.77-3.196l1.782-10.941s.231-1.699.228-2.793c-.01-2.603-.349-4.131-1.365-6.517-1.044-2.45-1.957-3.763-3.868-5.586-2.037-1.944-3.505-2.793-6.142-3.71-2.048-.71-3.298-.927-5.46-.945-2.322.081-3.186.233-5.4.946-2.218.767-4.481 2.127-6.203 3.709-1.722 1.582-2.928 3.454-3.868 5.586s-1.364 4.19-1.365 6.517c0 .877.093 1.925.228 2.793l2.1 10.704c.233 1.19.531 2.367.962 3.5.54 1.416 1.363 3.36 2.17 4.415 1.368 1.788 3.352 3.371 5.46 4.19ZM130 136a7 7 0 0 1 7-7h86a7 7 0 1 1 0 14h-86a7 7 0 0 1-7-7Zm0 24a7 7 0 0 1 7-7h86a7 7 0 1 1 0 14h-86a7 7 0 0 1-7-7Zm0-49a7 7 0 0 1 7-7h48a7 7 0 1 1 0 14h-48a7 7 0 0 1-7-7Z" fill="#000"/></svg>