<svg width="260" height="260" viewBox="0 0 260 260" fill="none" xmlns="http://www.w3.org/2000/svg"><g opacity=".9" fill-rule="evenodd" clip-rule="evenodd" fill="#000"><path d="M36 93c0 16.569 13.431 30 30 30 16.569 0 30-13.431 30-30 0-16.569-13.431-30-30-30-16.569 0-30 13.431-30 30Zm14 0c0 8.837 7.163 16 16 16s16-7.163 16-16-7.163-16-16-16-16 7.163-16 16Z"/><path d="M0 38a3 3 0 0 1 3-3h254a3 3 0 0 1 3 3v184a3 3 0 0 1-3 3H0V38Zm246 11v54.059C231.984 83.069 208.768 70 182.5 70c-42.386 0-76.824 34.026-77.49 76.253C96.329 142.862 86.882 141 77 141c-26.042 0-49.065 12.928-63 32.717V49h232Zm-92.314 162c-2.172-24.106-15.454-45.008-34.686-57.547V147.5c0-35.07 28.43-63.5 63.5-63.5s63.5 28.43 63.5 63.5V211h-92.314Zm-14.071 0c-3.482-31.5-30.187-56-62.615-56s-59.133 24.5-62.615 56h125.23Z"/></g></svg>