<svg width="260" height="260" fill="none" xmlns="http://www.w3.org/2000/svg"><g opacity=".9" fill-rule="evenodd" clip-rule="evenodd" fill="#000"><path d="M181.74 106.392c-3.953 3.978-9.49 6.5-15.548 6.5s-11.57-2.549-15.548-6.5c-3.979-3.979-6.5-9.49-6.5-15.549 0-6.058 2.521-11.57 6.5-15.548 3.978-3.978 9.49-6.5 15.548-6.5s11.57 2.522 15.548 6.5c3.978 3.978 6.5 9.49 6.5 15.548 0 6.059-2.522 11.57-6.5 15.549ZM166.192 79.17c-3.12 0-6.032 1.3-8.19 3.458-2.158 2.158-3.484 5.07-3.458 8.19 0 3.12 1.3 6.032 3.458 8.19 2.158 2.158 5.07 3.458 8.19 3.458 3.145 0 6.057-1.3 8.215-3.458 2.158-2.158 3.458-5.07 3.458-8.19 0-3.12-1.301-6.032-3.458-8.19-2.157-2.158-5.07-3.458-8.215-3.458Z"/><path d="M62.244 53.065h139.464c7.177.026 12.975 5.824 13 13v127.869c-.026 7.176-5.823 12.974-13 13H62.244c-7.177-.027-12.974-5.825-13-13V66.065c.025-7.176 5.823-12.973 13-13Zm0 10.401c-.727.027-1.352.287-1.846.78-.467.494-.753 1.12-.753 1.822v73.996l31.876-29.952c3.822-3.588 8.762-5.33 13.65-5.33s9.828 1.742 13.65 5.33l19.655 18.485 9.23-7.098c3.459-2.677 7.67-3.822 11.779-3.822 4.108.026 8.268 1.17 11.726 3.796l33.098 25.038V66.066c0-.701-.26-1.326-.754-1.82-.52-.493-1.144-.78-1.846-.78H62.245Zm39.546 90.662c4.03-1.378 7.853-3.353 10.868-5.668l17.471-13.415-18.435-17.342c-1.741-1.637-4.081-2.496-6.525-2.496s-4.784.858-6.525 2.496l-36.842 34.632-.052.051-.587.544c-.392.364-.914.849-1.493 1.38v1.95h30.055c3.797 0 8.035-.754 12.065-2.132Zm99.893 42.407c.727-.026 1.351-.286 1.845-.78v-.002c.495-.494.78-1.119.78-1.769v-34.371l-39.39-29.822-.025-.026c-1.223-.962-3.277-1.638-5.408-1.638-2.132-.025-4.187.677-5.409 1.638l-35.1 26.962c-4.055 3.12-8.813 5.538-13.831 7.255-5.018 1.69-10.27 2.653-15.392 2.678H59.645v27.275c0 .701.26 1.325.753 1.82.52.494 1.145.78 1.847.78h139.438Z"/></g></svg>