<svg width="260" height="260" fill="none" xmlns="http://www.w3.org/2000/svg"><path fill-rule="evenodd" clip-rule="evenodd" d="M218.53 59.462H41.47c-7.176.026-12.973 5.825-13 13v115.102c.027 7.175 5.825 12.973 13 13h177.06c7.176-.026 12.974-5.824 13-13V72.462c-.025-7.202-5.823-13-13-13Zm1.82 129.922c-.494.494-1.118.754-1.845.78H41.445c-.702 0-1.327-.286-1.847-.78a2.517 2.517 0 0 1-.753-1.82V72.462c0-.702.286-1.326.753-1.82.494-.495 1.119-.755 1.847-.78h177.06c.702 0 1.325.285 1.845.78.495.495.755 1.118.755 1.82v115.102c.025.702-.26 1.325-.755 1.82ZM112.658 89.024c-2.288-2.08-5.303-3.38-8.658-3.38h-8.658v8.658H104c2.34 0 4.342 1.976 4.342 4.342v60.658c0 2.34-1.976 4.342-4.342 4.342h-8.658v8.658H104c3.354 0 6.37-1.3 8.658-3.38 2.314 2.08 5.33 3.38 8.658 3.38H130v-8.658h-8.658c-2.34 0-4.342-1.976-4.342-4.342V98.644c0-2.34 1.975-4.342 4.342-4.342H130v-8.658h-8.658c-3.354 0-6.37 1.3-8.684 3.38Zm-49.27 1.145h9.62l.053-.002v15.808h9.048v7.774h-9.048v36.998c0 1.976.65 3.302 2.002 3.978.728.364 1.977.572 3.692.572.467 0 .962 0 1.482-.026a19.04 19.04 0 0 0 1.845-.181v7.566a20.669 20.669 0 0 1-3.405.676c-1.197.13-2.47.209-3.849.209-4.446 0-7.462-1.118-9.048-3.406-1.612-2.288-2.392-5.226-2.392-8.866v-37.518h-7.67v-7.774h7.67V90.169Z" fill="#000" opacity=".9"/></svg>