<svg width="260" height="260" viewBox="0 0 260 260" fill="none" xmlns="http://www.w3.org/2000/svg"><g opacity=".9" fill="#000"><path d="M106 95.126c-2.791-2.5-6.416-4.084-10.5-4.084H85v10.5h10.5c2.834 0 5.251 2.417 5.251 5.249v73.459c0 2.833-2.417 5.25-5.251 5.25H85V196h10.5c4.041 0 7.709-1.584 10.5-4.084 2.791 2.5 6.459 4.084 10.5 4.084H127v-10.5h-10.5c-2.834 0-5.251-2.417-5.251-5.25v-73.501c0-2.834 2.375-5.249 5.251-5.249H127V91h-10.5a15.756 15.756 0 0 0-10.5 4.124v.002Zm-56.99 4.876h11.3l.062-.002v18.098H71v8.899H60.372v42.356c0 2.263.763 3.78 2.351 4.555.855.416 2.322.654 4.337.654.548 0 1.13 0 1.74-.029.61-.029 1.343-.089 2.168-.208v8.662a24.894 24.894 0 0 1-4 .775 42.93 42.93 0 0 1-4.52.238c-5.224 0-8.767-1.279-10.629-3.899-1.893-2.619-2.81-5.983-2.81-10.15v-42.952H40V118.1h9.01v-18.098Z"/><path fill-rule="evenodd" clip-rule="evenodd" d="M20 61C8.954 61 0 69.954 0 81v125c0 11.046 8.954 20 20 20h220c11.046 0 20-8.954 20-20V81c0-11.046-8.954-20-20-20H20Zm9 14c-8.284 0-15 6.716-15 15v107c0 8.284 6.716 15 15 15h202c8.284 0 15-6.716 15-15V90c0-8.284-6.716-15-15-15H29Z"/></g></svg>