<svg width="260" height="260" viewBox="0 0 260 260" fill="none" xmlns="http://www.w3.org/2000/svg">
<path d="M140 15L78 15C69.7157 15 63 21.7157 63 30L63 229.211C63 237.495 69.7157 244.211 78 244.211H182C190.284 244.211 197 237.495 197 229.211V154H185.966V221.868C185.966 227.391 181.489 231.868 175.966 231.868H84.0371C78.5142 231.868 74.0371 227.391 74.0371 221.868L74.0371 37.3421C74.0371 31.8193 78.5142 27.3421 84.0371 27.3421L140 27.3421V15Z" fill="black"/>
<path d="M140 42.3291H85C83.3431 42.3291 82 43.6722 82 45.3291V193.605C82 195.262 83.3431 196.605 85 196.605H175.974C177.631 196.605 178.974 195.262 178.974 193.605V154H168.974V186.605H92V52.3291H140V42.3291Z" fill="black"/>
<path d="M176.181 132.97C176.353 133.178 176.539 133.378 176.739 133.569C179.504 136.209 183.911 136.133 186.581 133.399L219.046 100.162C221.717 97.428 221.64 93.0715 218.875 90.4314C216.109 87.7913 211.703 87.8673 209.032 90.6012L181.419 118.871L151.796 90.5889C149.031 87.9488 144.624 88.0248 141.954 90.7587C139.283 93.4926 139.36 97.8491 142.125 100.489L175.744 132.586C175.886 132.721 176.031 132.849 176.181 132.97Z" fill="black"/>
<path fill-rule="evenodd" clip-rule="evenodd" d="M188 32L188 125H174L174 32C174 28.134 177.134 25 181 25C184.866 25 188 28.134 188 32Z" fill="black"/>
</svg>
