<svg width="260" height="260" viewBox="0 0 260 260" fill="none" xmlns="http://www.w3.org/2000/svg"><g opacity=".9" fill="#000"><path d="M201.438 130.041a7 7 0 0 1-7 7h-112.5l42.051 42.05a7.002 7.002 0 0 1 0 9.9 7.002 7.002 0 0 1-9.9 0l-53.74-53.74a6.981 6.981 0 0 1-2.049-5.08 6.98 6.98 0 0 1 2.05-5.08l53.739-53.74a7 7 0 0 1 9.9 9.9l-41.79 41.79h112.239a7 7 0 0 1 7 7Z"/><path fill-rule="evenodd" clip-rule="evenodd" d="M0 130c0 71.797 58.203 130 130 130s130-58.203 130-130S201.797 0 130 0 0 58.203 0 130Zm14 0c0 64.065 51.935 116 116 116s116-51.935 116-116S194.065 14 130 14 14 65.935 14 130Z"/></g></svg>