<svg width="260" height="260" fill="none" xmlns="http://www.w3.org/2000/svg"><path d="M112.707 37.306a10.463 10.463 0 0 1 9.668 6.45 10.47 10.47 0 0 1-2.251 11.403l-65.145 64.945H231.18a9.875 9.875 0 1 1 0 19.752l-176.202.09 65.165 64.975a10.469 10.469 0 1 1-14.805 14.804L21.81 136.727a9.6 9.6 0 0 1-2.848-6.827 9.605 9.605 0 0 1 2.848-6.827l83.498-82.719a10.415 10.415 0 0 1 7.388-2.998l.01-.05Zm-.01-7.947a18.332 18.332 0 0 0-12.996 5.388l-83.507 82.638a17.604 17.604 0 0 0 0 24.99L99.7 225.293a18.464 18.464 0 0 0 26.115-.005 18.467 18.467 0 0 0-.005-26.115l-51.51-51.23h156.86a17.873 17.873 0 0 0 0-35.746H74.301l51.47-51.29a18.457 18.457 0 0 0 3.99-20.117 18.465 18.465 0 0 0-17.054-11.391l-.01-.04Z" fill="#000"/></svg>