<svg width="260" height="260" fill="none" xmlns="http://www.w3.org/2000/svg"><path d="M95.354 87.91c.569.294 1.2.447 1.84.446v.03a3.999 3.999 0 0 0 3.269-6.307c-5.618-7.957-18.453-13.105-32.698-13.105-14.244 0-27.08 5.118-32.677 13.075a3.998 3.998 0 0 0 6.508 4.618c4.108-5.818 14.624-9.696 26.17-9.696 11.545 0 22.061 3.878 26.16 9.696.37.523.86.949 1.428 1.243Zm122.673 0c.569.294 1.2.447 1.84.446v.03a4 4 0 0 0 3.993-4.273 4 4 0 0 0-.724-2.034c-5.618-7.957-18.463-13.105-32.708-13.105-14.244 0-27.079 5.108-32.697 13.105a4.009 4.009 0 0 0-.676 2.987 4 4 0 0 0 4.623 3.266 4.006 4.006 0 0 0 2.59-1.635c4.099-5.818 14.565-9.726 26.16-9.726 11.596 0 22.072 3.878 26.17 9.696.37.523.86.949 1.429 1.243Zm-15.813 18.609a4 4 0 0 0 6.351-4.207 4.005 4.005 0 0 0-1.333-2.021c-6.457-5.188-15.494-8.186-24.79-8.186-10.786 0-18.323 4.178-23.691 7.816a3.992 3.992 0 0 0-1.681 2.56 4 4 0 0 0 6.179 4.058c3.563-2.426 7.557-4.716 12.733-5.793a7.947 7.947 0 1 0 13.844.115c6.423 1.365 10.609 4.221 12.388 5.658Zm-148.743.88a4.001 4.001 0 0 1-2.51-7.108c6.458-5.208 15.495-8.186 24.791-8.186 10.786 0 18.323 4.178 23.691 7.816a3.998 3.998 0 0 1 1.669 4.121 4.012 4.012 0 0 1-1.722 2.532 4 4 0 0 1-4.445-.035c-3.563-2.426-7.557-4.716-12.733-5.794a7.947 7.947 0 1 1-13.844.116c-6.423 1.365-10.609 4.221-12.388 5.658a4.001 4.001 0 0 1-2.509.88Z" fill="#000"/><path fill-rule="evenodd" clip-rule="evenodd" d="M129.052 230.411c-21.992 0-43.563-12.055-44.473-12.565a3.997 3.997 0 0 1 2-7.477 41.729 41.729 0 0 0 16.823-3.758c.879-.37 1.709-.73 2.499-1.08l.343-.15c1.134-.495 2.215-.968 3.205-1.349a16.002 16.002 0 0 1 5.118-1.18 7.63 7.63 0 0 1 3.359.67c.435.157.921.358 1.438.571l.002.001c.338.14.69.285 1.049.427.431.171.853.357 1.284.547.479.212.969.428 1.495.633a16.18 16.18 0 0 0 5.888 1.339 19.367 19.367 0 0 0 7.537-1.999l1.359-.59.122-.052c.811-.349 1.538-.661 2.148-.947a7.927 7.927 0 0 1 3.308-.67c1.755.109 3.481.504 5.108 1.17 1.118.407 2.335.94 3.625 1.505l.214.094c4.788 2.119 10.756 4.748 19.092 4.748a3.998 3.998 0 0 1 2 7.437c-.82.56-21.492 12.675-44.543 12.675Zm-28.749-14.144c7.737 2.999 18.323 6.148 28.749 6.148 10.906 0 21.422-3.119 28.989-6.108a75.96 75.96 0 0 1-8.817-3.399l-.373-.165c-1.132-.501-2.119-.938-2.976-1.244a10.632 10.632 0 0 0-2.419-.67l-.39.13c-.481.184-1.039.429-1.659.701l-.27.119-1.429.609a26.793 26.793 0 0 1-10.636 2.679 23.784 23.784 0 0 1-8.827-1.889 72.917 72.917 0 0 1-2.953-1.244l-.126-.055c-.909-.4-1.539-.67-2.079-.87l-.46-.16a9.466 9.466 0 0 0-2.339.65c-.929.35-1.999.819-3.218 1.359l-.209.092c-.756.332-1.549.68-2.39 1.028a62.573 62.573 0 0 1-6.128 2.289h-.04Z" fill="#000"/><path d="M108.879 169.745c1.68 8.687 10.227 14.994 20.223 14.994 10.026 0 18.533-6.307 20.212-14.994a3.998 3.998 0 0 0-7.847-1.52c-.94 4.859-6.248 8.527-12.365 8.527-6.118 0-11.436-3.668-12.376-8.527a3.998 3.998 0 0 0-7.847 1.52Z" fill="#000"/></svg>