<svg width="260" height="260" viewBox="0 0 260 260" fill="none" xmlns="http://www.w3.org/2000/svg"><path fill-rule="evenodd" clip-rule="evenodd" d="M40 70C17.909 70 0 87.909 0 110s17.909 40 40 40h40a39.843 39.843 0 0 0 26-9.602V190c0 14.912 12.088 27 27 27h1.5c14.083 0 25.5-11.417 25.5-25.5V190a7 7 0 0 0-7-7h-.333a6.667 6.667 0 0 0-6.667 6.667V190c0 7.18-5.82 13-13 13s-13-5.82-13-13v-81h-.012C119.457 87.37 101.757 70 80 70H40Zm66 40c0-14.36-11.64-26-26-26h-9.618A29.86 29.86 0 0 1 75 100c0 16.569-13.431 30-30 30-15.73 0-28.634-12.107-29.898-27.512A25.997 25.997 0 0 0 14 110c0 14.359 11.64 26 26 26h40c14.36 0 26-11.641 26-26ZM45 84c-8.837 0-16 7.163-16 16s7.163 16 16 16 16-7.163 16-16-7.163-16-16-16Zm135-14c-22.091 0-40 17.909-40 40s17.909 40 40 40h40c22.091 0 40-17.909 40-40s-17.909-40-40-40h-40Zm5 60c-15.731 0-28.634-12.107-29.898-27.512A25.984 25.984 0 0 0 154 110c0 14.359 11.641 26 26 26h40c14.359 0 26-11.641 26-26 0-14.36-11.641-26-26-26h-9.618A29.862 29.862 0 0 1 215 100c0 16.569-13.431 30-30 30Zm-16-30c0-8.837 7.163-16 16-16s16 7.163 16 16-7.163 16-16 16-16-7.163-16-16Z" fill="#000"/></svg>