<svg width="260" height="260" fill="none" xmlns="http://www.w3.org/2000/svg"><g opacity=".9" fill-rule="evenodd" clip-rule="evenodd" fill="#000"><path d="M140.868 103.141a16.18 16.18 0 0 1 11.31-4.575c4.395 0 8.425 1.715 11.31 4.575 2.913 2.835 4.758 6.813 4.758 11.206 0 4.395-1.846 8.373-4.758 11.207a16.18 16.18 0 0 1-11.31 4.575 16.228 16.228 0 0 1-11.31-4.575c-2.913-2.835-4.758-6.813-4.758-11.207 0-4.394 1.847-8.372 4.758-11.206Zm11.336 16.589a5.969 5.969 0 0 0 4.056-1.638c1.014-1.014 1.612-2.314 1.612-3.744 0-1.455-.597-2.73-1.612-3.743-1.015-1.014-2.445-1.638-4.056-1.638a5.97 5.97 0 0 0-4.057 1.638c-1.013.988-1.612 2.288-1.612 3.743 0 1.456.598 2.73 1.612 3.744 1.015 1.014 2.418 1.638 4.057 1.638Z"/><path d="M201.084 42.64c1.3 0 2.626.26 3.848.807l-.001-.003a9.076 9.076 0 0 1 3.198 2.392c1.742 2.028 2.47 4.628 2.47 7.176v129.402c-.025 3.431-1.169 6.551-2.885 9.281-1.716 2.704-4.056 5.07-7.15 6.552l-38.819 18.278c-2.938 1.352-6.083 1.847-9.281 1.872-3.172 0-6.344-.493-9.256-1.845l-38.973-18.278c-.962-.468-2.964-.909-4.914-.884-1.924-.025-3.873.39-4.835.858l-38.974 18.045c-1.535.727-3.198 1.143-4.915 1.143-1.3 0-2.626-.258-3.848-.805a9.072 9.072 0 0 1-3.198-2.392c-1.768-2.053-2.496-4.653-2.496-7.201V77.609c.026-3.431 1.17-6.551 2.886-9.281 1.742-2.704 4.107-5.07 7.202-6.526l38.948-18.07c2.912-1.326 6.058-1.794 9.23-1.82 3.198.026 6.37.52 9.308 1.872l38.896 18.226c.961.494 2.911.91 4.861.884 1.95 0 3.9-.416 4.862-.884l38.896-18.2c1.534-.728 3.198-1.17 4.94-1.17Zm-27.716 79.119c.105-.313.26-.78.417-1.379h.001a19.78 19.78 0 0 0 .623-4.861c0-5.85-2.418-11.155-6.396-15.055a22.153 22.153 0 0 0-15.522-6.292c-6.083 0-11.544 2.392-15.522 6.292-3.978 3.9-6.396 9.179-6.396 15.055 0 4.263.415 6.187.545 6.681 1.976 3.614 5.278 9.334 7.41 12.792l8.295 13.547c.858 1.39 1.846 3.002 2.834 4.615a2005.78 2005.78 0 0 0 2.834 4.615l2.847-4.615c.995-1.613 1.989-3.225 2.848-4.615l-.026.025 8.216-13.338.025-.026c2.08-3.303 5.304-9.516 6.864-13.104v-.026l.103-.311Zm-121.94 84.967 38.662-17.914.001-.001a19.825 19.825 0 0 1 4.316-1.352V53.247L55.51 71.293c-.78.338-1.976 1.353-2.808 2.678-.858 1.3-1.301 2.808-1.275 3.666v129.09Zm53.378-19.11c1.3.286 2.574.676 3.822 1.248l.001-.001 38.169 17.888v-39.104c-.677-.676-1.301-1.378-1.795-2.158-.665-1.088-1.588-2.592-2.599-4.241a3930.085 3930.085 0 0 1-4.473-7.303l-8.19-13.365c-2.315-3.77-5.825-9.827-7.956-13.702-.65-1.247-1.613-3.848-1.639-11.362 0-8.788 3.667-16.77 9.517-22.49 4.575-4.498 10.53-7.591 17.16-8.761V72.643c-1.248-.287-2.522-.677-3.718-1.222l-38.299-17.94v134.135Zm91.338 1.222c.78-.339 1.976-1.379 2.808-2.704.832-1.326 1.273-2.833 1.248-3.691V53.405l-38.532 17.992c-1.43.675-2.912 1.118-4.42 1.403v11.31c6.969 1.014 13.261 4.212 18.045 8.892 5.85 5.72 9.515 13.702 9.515 22.49-.025 5.846-1.73 9.987-2.002 10.649l-.026.063c-1.872 4.289-5.096 10.477-7.54 14.455l-8.215 13.339a6683.27 6683.27 0 0 1-4.486 7.281l-2.613 4.237c-.676 1.117-1.586 2.08-2.678 2.885v38.74c.027-.025.027-.025.052-.025l38.844-18.278Z"/></g></svg>