<svg width="260" height="260" viewBox="0 0 260 260" fill="none" xmlns="http://www.w3.org/2000/svg">
<path fill-rule="evenodd" clip-rule="evenodd" d="M130 0C201.797 0 260 58.203 260 130C260 201.797 201.797 260 130 260C58.203 260 0 201.797 0 130C0 58.203 58.203 0 130 0ZM130 14C65.935 14 14 65.935 14 130C14 194.065 65.935 246 130 246C194.065 246 246 194.065 246 130C246 65.935 194.065 14 130 14Z" fill="black"/>
<path d="M173 161.78C173 154.405 168.642 148.88 160.626 144.56C154.274 141.136 146.246 138.866 138.149 137.447V186.207C147.832 186.05 156.505 183.988 162.708 180.151C169.096 176.201 173 170.353 173 161.78ZM185 161.78C185 174.913 178.588 184.44 169.02 190.357C160.373 195.705 149.312 198.052 138.149 198.208V212C138.149 215.314 135.463 218 132.149 218C128.836 218 126.149 215.314 126.149 212V197.563C117.187 196.492 108.28 194.123 100.393 190.6C89.7998 185.867 80.3402 178.725 75.6152 169.108C74.154 166.134 75.3804 162.538 78.3545 161.077C81.3285 159.616 84.9235 160.842 86.3848 163.816C89.3967 169.947 96.0555 175.519 105.288 179.644C111.614 182.47 118.82 184.46 126.149 185.466V135.679C116.721 134.039 107.137 131.001 99.3779 126.181C90.0734 120.4 82.7375 111.559 82.7373 99.2197C82.7373 87.7229 88.2029 78.6711 96.3438 72.4873C104.34 66.4133 114.872 63.0904 125.646 62.3125C125.813 62.3004 125.981 62.2902 126.149 62.2793V49C126.149 45.6863 128.836 43 132.149 43C135.463 43.0003 138.149 45.6865 138.149 49V62.541C155.967 64.4561 173.989 73.2321 182.649 90.5811C184.129 93.5459 182.925 97.1499 179.96 98.6299C176.995 100.109 173.392 98.9051 171.912 95.9404C165.781 83.6585 152.512 76.4483 138.149 74.6045V125.282C147.633 126.791 157.871 129.442 166.319 133.996C176.463 139.464 185 148.303 185 161.78ZM94.7373 99.2197C94.7375 106.032 98.5753 111.554 105.711 115.987C111.31 119.466 118.525 121.96 126.149 123.473V74.3096C117.242 75.0098 109.243 77.7576 103.602 82.043C98.0285 86.2764 94.7373 91.9714 94.7373 99.2197Z" fill="black"/>
</svg>
