<svg width="260" height="260" viewBox="0 0 260 260" fill="none" xmlns="http://www.w3.org/2000/svg"><g opacity=".9" fill="#000"><path d="M37 75a7 7 0 1 0 0 14h26a7 7 0 1 0 0-14H37Z"/><path fill-rule="evenodd" clip-rule="evenodd" d="M80 130.5c0 27.89 22.61 50.5 50.5 50.5s50.5-22.61 50.5-50.5S158.39 80 130.5 80 80 102.61 80 130.5Zm14 0c0 20.158 16.342 36.5 36.5 36.5s36.5-16.342 36.5-36.5S150.658 94 130.5 94 94 110.342 94 130.5Z"/><path d="M30 185a7 7 0 0 1 7-7h26a7 7 0 1 1 0 14H37a7 7 0 0 1-7-7Zm167-7a7 7 0 1 0 0 14h26a7 7 0 1 0 0-14h-26Zm-7-96a7 7 0 0 1 7-7h26a7 7 0 1 1 0 14h-26a7 7 0 0 1-7-7Z"/><path fill-rule="evenodd" clip-rule="evenodd" d="M0 48a3 3 0 0 1 3-3h254a3 3 0 0 1 3 3v164a3 3 0 0 1-3 3H3a3 3 0 0 1-3-3V48Zm14 11h232v142H14V59Z"/></g></svg>