<svg width="260" height="260" viewBox="0 0 260 260" fill="none" xmlns="http://www.w3.org/2000/svg">
<g opacity="0.9">
<path d="M39 42C39 45.866 35.866 49 32 49C28.134 49 25 45.866 25 42C25 38.134 28.134 35 32 35C35.866 35 39 38.134 39 42Z" fill="black"/>
<path d="M63 42C63 45.866 59.866 49 56 49C52.134 49 49 45.866 49 42C49 38.134 52.134 35 56 35C59.866 35 63 38.134 63 42Z" fill="black"/>
<path d="M87 42C87 45.866 83.866 49 80 49C76.134 49 73 45.866 73 42C73 38.134 76.134 35 80 35C83.866 35 87 38.134 87 42Z" fill="black"/>
<path fill-rule="evenodd" clip-rule="evenodd" d="M0 25C0 19.4772 4.47715 15 10 15H250C255.523 15 260 19.4772 260 25V175C260 180.523 255.523 185 250 185H161V214H175C191.569 214 205 227.431 205 244V250C205 255.523 200.523 260 195 260H65C59.4771 260 55 255.523 55 250V244C55 227.431 68.4315 214 85 214H99V185H10C4.47716 185 0 180.523 0 175V25ZM14 69V166C14 168.761 16.2386 171 19 171H241C243.761 171 246 168.761 246 166V69H14ZM246 55H14V34C14 31.2386 16.2386 29 19 29H241C243.761 29 246 31.2386 246 34V55ZM147 185V214H113V185H147ZM84 228H176C184.284 228 191 234.716 191 243C191 244.657 189.657 246 188 246H72C70.3431 246 69 244.657 69 243C69 234.716 75.7157 228 84 228Z" fill="black"/>
</g>
</svg>
