<svg width="260" height="260" fill="none" xmlns="http://www.w3.org/2000/svg"><g opacity=".9" fill="#000"><path d="M239.2 20.8H21.502V130H239.2V20.8ZM36.92 162.682H23.4c-1.43 0-2.6-1.17-2.6-2.6V153.4c0-1.43 1.17-2.6 2.6-2.6h13.52c1.43 0 2.6 1.17 2.6 2.6v6.682c0 1.43-1.17 2.6-2.6 2.6Zm-13.52 31.72h13.52c1.43 0 2.6-1.17 2.6-2.6v-6.682c0-1.43-1.17-2.6-2.6-2.6H23.4c-1.43 0-2.6 1.17-2.6 2.6v6.682c0 1.43 1.17 2.6 2.6 2.6Zm32.24 3.953c1.43 0 2.6 1.17 2.6 2.6v6.681c0 1.43-1.17 2.6-2.6 2.6H23.4c-1.43 0-2.6-1.17-2.6-2.6v-6.681c0-1.43 1.17-2.6 2.6-2.6h32.24Zm148.72 0h32.24c1.43 0 2.6 1.17 2.6 2.6v6.681c0 1.43-1.17 2.6-2.6 2.6h-32.24c-1.43 0-2.6-1.17-2.6-2.6v-6.681c0-1.43 1.17-2.6 2.6-2.6Zm-33.775 15.807h-81.17c-1.43 0-2.6 1.17-2.6 2.6v21.398c0 1.43 1.17 2.6 2.6 2.6h81.145c1.43 0 2.6-1.17 2.6-2.6v-21.398c.025-1.43-1.144-2.6-2.575-2.6ZM67.08 198.355h125.84c1.43 0 2.6 1.17 2.6 2.6v6.681c0 1.43-1.17 2.6-2.6 2.6H67.08c-1.43 0-2.6-1.17-2.6-2.6v-6.681c0-1.43 1.17-2.6 2.6-2.6Zm-5.2-15.835c1.43 0 2.6 1.17 2.6 2.6v6.682c0 1.43-1.17 2.6-2.6 2.6H48.36c-1.43 0-2.6-1.17-2.6-2.6v-6.682c0-1.43 1.17-2.6 2.6-2.6h13.52Zm11.44 11.882h13.52c1.43 0 2.6-1.17 2.6-2.6v-6.682c0-1.43-1.17-2.6-2.6-2.6H73.32c-1.43 0-2.6 1.17-2.6 2.6v6.682c0 1.43 1.17 2.6 2.6 2.6Zm38.48 0H98.28c-1.43 0-2.6-1.17-2.6-2.6v-6.682c0-1.43 1.17-2.6 2.6-2.6h13.52c1.43 0 2.6 1.17 2.6 2.6v6.682c0 1.43-1.17 2.6-2.6 2.6Zm11.44 0h13.52c1.43 0 2.6-1.17 2.6-2.6v-6.682c0-1.43-1.17-2.6-2.6-2.6h-13.52c-1.43 0-2.6 1.17-2.6 2.6v6.682c0 1.43 1.17 2.6 2.6 2.6Zm38.48 0H148.2c-1.43 0-2.6-1.17-2.6-2.6v-6.682c0-1.43 1.17-2.6 2.6-2.6h13.52c1.43 0 2.6 1.17 2.6 2.6v6.682c0 1.43-1.17 2.6-2.6 2.6Zm11.44 0h13.52c1.43 0 2.6-1.17 2.6-2.6v-6.682c0-1.43-1.17-2.6-2.6-2.6h-13.52c-1.43 0-2.6 1.17-2.6 2.6v6.682c0 1.43 1.17 2.6 2.6 2.6Zm41.08-9.282v6.682c0 1.43-1.17 2.6-2.6 2.6h-13.52c-1.43 0-2.6-1.17-2.6-2.6v-6.682c0-1.43 1.17-2.6 2.6-2.6h13.52c1.43 0 2.6 1.17 2.6 2.6Zm22.36-2.6h-13.52c-1.43 0-2.6 1.17-2.6 2.6v6.682c0 1.43 1.17 2.6 2.6 2.6h13.52c1.43 0 2.6-1.17 2.6-2.6v-6.682c0-1.43-1.17-2.6-2.6-2.6ZM48.36 162.682h13.52c1.43 0 2.6-1.17 2.6-2.6V153.4c0-1.43-1.17-2.6-2.6-2.6H48.36c-1.43 0-2.6 1.17-2.6 2.6v6.682c0 1.43 1.17 2.6 2.6 2.6Zm38.48 0H73.32c-1.43 0-2.6-1.17-2.6-2.6V153.4c0-1.43 1.17-2.6 2.6-2.6h13.52c1.43 0 2.6 1.17 2.6 2.6v6.682c0 1.43-1.17 2.6-2.6 2.6Zm11.44 0h13.52c1.43 0 2.6-1.17 2.6-2.6V153.4c0-1.43-1.17-2.6-2.6-2.6H98.28c-1.43 0-2.6 1.17-2.6 2.6v6.682c0 1.43 1.17 2.6 2.6 2.6Zm38.48 0h-13.52c-1.43 0-2.6-1.17-2.6-2.6V153.4c0-1.43 1.17-2.6 2.6-2.6h13.52c1.43 0 2.6 1.17 2.6 2.6v6.682c0 1.43-1.17 2.6-2.6 2.6Zm11.44 0h13.52c1.43 0 2.6-1.17 2.6-2.6V153.4c0-1.43-1.17-2.6-2.6-2.6H148.2c-1.43 0-2.6 1.17-2.6 2.6v6.682c0 1.43 1.17 2.6 2.6 2.6Zm38.48 0h-13.52c-1.43 0-2.6-1.17-2.6-2.6V153.4c0-1.43 1.17-2.6 2.6-2.6h13.52c1.43 0 2.6 1.17 2.6 2.6v6.682c0 1.43-1.17 2.6-2.6 2.6Zm11.44 0h13.52c1.43 0 2.6-1.17 2.6-2.6V153.4c0-1.43-1.17-2.6-2.6-2.6h-13.52c-1.43 0-2.6 1.17-2.6 2.6v6.682c0 1.43 1.17 2.6 2.6 2.6Zm24.96-11.882h13.52c1.43 0 2.6 1.17 2.6 2.6v6.682c0 1.43-1.17 2.6-2.6 2.6h-13.52c-1.43 0-2.6-1.17-2.6-2.6V153.4c0-1.43 1.17-2.6 2.6-2.6ZM23.4 178.542h26c1.43 0 2.6-1.17 2.6-2.6v-6.682c0-1.43-1.17-2.6-2.6-2.6h-26c-1.43 0-2.6 1.17-2.6 2.6v6.682c0 1.43 1.17 2.6 2.6 2.6Zm53.56-9.282v6.682c0 1.43-1.17 2.6-2.6 2.6H60.84c-1.43 0-2.6-1.17-2.6-2.6v-6.682c0-1.43 1.17-2.6 2.6-2.6h13.52c1.43 0 2.6 1.17 2.6 2.6Zm24.96 6.682v-6.682c0-1.43-1.17-2.6-2.6-2.6H85.8c-1.43 0-2.6 1.17-2.6 2.6v6.682c0 1.43 1.17 2.6 2.6 2.6h13.52c1.43 0 2.6-1.17 2.6-2.6Zm24.96-6.682v6.682c0 1.43-1.17 2.6-2.6 2.6h-13.52c-1.43 0-2.6-1.17-2.6-2.6v-6.682c0-1.43 1.17-2.6 2.6-2.6h13.52c1.43 0 2.6 1.17 2.6 2.6Zm24.96 6.682v-6.682c0-1.43-1.17-2.6-2.6-2.6h-13.52c-1.43 0-2.6 1.17-2.6 2.6v6.682c0 1.43 1.17 2.6 2.6 2.6h13.52c1.43 0 2.6-1.17 2.6-2.6Zm24.96-6.682v6.682c0 1.43-1.17 2.6-2.6 2.6h-13.52c-1.43 0-2.6-1.17-2.6-2.6v-6.682c0-1.43 1.17-2.6 2.6-2.6h13.52c1.43 0 2.6 1.17 2.6 2.6Zm24.96 6.682v-6.682c0-1.43-1.17-2.6-2.6-2.6h-13.52c-1.43 0-2.6 1.17-2.6 2.6v6.682c0 1.43 1.17 2.6 2.6 2.6h13.52c1.43 0 2.6-1.17 2.6-2.6Zm8.84-9.282h26c1.43 0 2.6 1.17 2.6 2.6v6.682c0 1.43-1.17 2.6-2.6 2.6h-26c-1.43 0-2.6-1.17-2.6-2.6v-6.682c0-1.43 1.17-2.6 2.6-2.6Z"/><path fill-rule="evenodd" clip-rule="evenodd" d="M239.2 5.2H20.8c-8.605.027-15.574 6.994-15.6 15.6v218.4c.027 8.607 6.994 15.574 15.6 15.6h218.4c8.607-.025 15.574-6.994 15.6-15.6V20.8c-.025-8.605-6.994-15.574-15.6-15.6ZM15.6 20.8c0-1.43.572-2.704 1.535-3.666.963-.962 2.235-1.535 3.666-1.535h218.4c1.43 0 2.704.572 3.666 1.535.961.963 1.534 2.235 1.534 3.666v115.7h-228.8V20.8Zm227.267 222.067c-.962.961-2.237 1.534-3.666 1.534h-218.4c-1.43 0-2.704-.572-3.666-1.534-.962-.963-1.535-2.237-1.535-3.666v-94.9h228.8v94.9c0 1.43-.572 2.704-1.534 3.666h.001Z"/></g></svg>