<svg width="260" height="260" viewBox="0 0 260 260" fill="none" xmlns="http://www.w3.org/2000/svg"><g opacity=".9" fill="#000"><path d="M204 95.126c-2.791-2.5-6.416-4.084-10.5-4.084H183v10.5h10.5c2.834 0 5.251 2.417 5.251 5.249v73.459c0 2.833-2.417 5.25-5.251 5.25H183V196h10.5c4.041 0 7.709-1.584 10.5-4.084 2.791 2.5 6.459 4.084 10.5 4.084H225v-10.5h-10.5c-2.834 0-5.251-2.417-5.251-5.25v-73.501c0-2.834 2.375-5.249 5.251-5.249H225V91h-10.5a15.756 15.756 0 0 0-10.5 4.124v.002Zm-144.79 41.62 14.176-4.986L76 139.07l-14.22 4.733 8.789 12.508L64.143 161l-8.498-13.015L47.022 161l-6.633-4.689 8.913-12.508L35 139.07l2.57-7.351 14.095 5.154V122h7.544v14.746Zm67.22-4.986-14.22 4.986V122h-7.545v14.873l-14.053-5.154L88 139.07l14.303 4.733-8.914 12.508 6.633 4.689 8.624-13.015L117.144 161l6.467-4.689-8.789-12.508L129 139.07l-2.57-7.31Zm37.37 4.986 14.566-4.986 2.634 7.31-14.523 4.733 9.002 12.508-6.582 4.689-8.705-13.015L151.358 161l-6.794-4.689 9.13-12.508L139 139.07l2.676-7.351 14.395 5.154V122h7.729v14.746Z"/><path fill-rule="evenodd" clip-rule="evenodd" d="M20 61C8.954 61 0 69.954 0 81v125c0 11.046 8.954 20 20 20h220c11.046 0 20-8.954 20-20V81c0-11.046-8.954-20-20-20H20Zm9 14c-8.284 0-15 6.716-15 15v107c0 8.284 6.716 15 15 15h202c8.284 0 15-6.716 15-15V90c0-8.284-6.716-15-15-15H29Z"/></g></svg>