<svg width="260" height="260" fill="none" xmlns="http://www.w3.org/2000/svg"><g opacity=".9" fill="#000"><path d="M161.46 99.034c-1.742-1.56-4.003-2.548-6.552-2.548h-6.551v6.551h6.551c1.769 0 3.277 1.509 3.277 3.276v45.838c0 1.768-1.508 3.276-3.277 3.276h-6.551v6.552h6.551c2.522 0 4.81-.988 6.552-2.548 1.742 1.56 4.03 2.548 6.552 2.548h6.552v-6.552h-6.552c-1.768 0-3.276-1.508-3.276-3.276v-45.865c0-1.768 1.481-3.275 3.276-3.275h6.552v-6.552h-6.552a9.833 9.833 0 0 0-6.552 2.575Zm-90.012 25.793 8.892-3.068 1.64 4.498-8.92 2.912 5.513 7.696-4.03 2.885-5.33-8.008-5.409 8.008-4.16-2.885 5.59-7.696-8.97-2.912 1.612-4.524 8.84 3.172v-9.152h4.732v9.074Zm41.444-3.068-8.919 3.068v-9.074h-4.731v9.152l-8.814-3.172-1.638 4.524 8.97 2.912-5.59 7.696 4.16 2.885 5.408-8.008 5.33 8.008 4.055-2.885-5.511-7.696 8.891-2.912-1.611-4.498Zm23.608 3.068 8.918-3.068 1.613 4.498-8.892 2.912 5.512 7.696-4.03 2.885-5.33-8.008-5.408 8.008-4.16-2.885 5.59-7.696-8.996-2.912 1.638-4.524 8.813 3.172v-9.152h4.732v9.074Z"/><path fill-rule="evenodd" clip-rule="evenodd" d="M47.918 75.4c-7.176.026-12.975 5.824-13 13v83.2c.026 7.176 5.824 12.974 13 13h164.138c7.177-.025 12.974-5.823 13-13V88.4c0-7.176-5.798-12.974-12.973-13H47.918Zm165.984 98.02c-.495.495-1.119.755-1.846.78H47.918c-.702 0-1.326-.285-1.846-.78a2.515 2.515 0 0 1-.754-1.82V88.4c0-.701.286-1.325.754-1.82.493-.494 1.118-.754 1.846-.78h164.138c.702 0 1.326.286 1.846.78.494.495.754 1.119.754 1.82v83.2c.026.702-.26 1.326-.754 1.82Z"/></g></svg>