<svg width="260" height="260" fill="none" xmlns="http://www.w3.org/2000/svg"><path d="M85.417 151.042H39.954V7.997h74.082" stroke="#000" stroke-width="8" stroke-linecap="round" stroke-linejoin="round"/><path d="M94.353 23.091H54.71v38.455h39.644V23.091Z" stroke="#000" stroke-width="7" stroke-linecap="round" stroke-linejoin="round"/><path d="M119.374 19.093a3.999 3.999 0 0 1 3.998 3.998v40.555a16.065 16.065 0 0 1 24.151 13.184l.67 15.135a16.834 16.834 0 0 1 23.52 3.778 15.995 15.995 0 0 1 11.266-4.588h.08a15.99 15.99 0 0 1 15.144 11.246 15.817 15.817 0 0 1 14.922-2.583 15.832 15.832 0 0 1 10.259 11.139l.08.32c1.899 7.437 1.939 7.577 2.519 12.305.13 1 .29 2.29.509 3.939.005.09.005.18 0 .27 2.999 47.382 1.19 71.103-14.694 90.085l.06 17.074h-95.403l1.159-20.562c-19.662-13.385-22.241-25.831-26.08-39.895-.52-1.919-1.08-3.999-1.719-6.148-2.569-8.826-6.797-24.99-6.218-34.047.21-3.278 5.998-14.614 10.786-23.541l.12-.209a12.397 12.397 0 0 1 13.805-5.488V23.091a3.998 3.998 0 0 1 3.998-3.998h7.068Zm0-4.998h-7.068a8.995 8.995 0 0 0-8.996 8.996v76.6a17.361 17.361 0 0 0-13.055 8.188v.159l-.13.23v.05c-10.996 20.512-11.276 24.071-11.376 25.591-.59 9.316 3.159 24.59 6.408 35.766.64 2.169 1.19 4.178 1.7 6.057.18.66.349 1.3.519 1.95 3.599 13.315 6.997 25.92 25.23 39.125l-.999 17.793-.45 5.308h105.739v-20.282c7.787-9.817 12.245-20.842 14.355-35.447 1.919-13.245 1.999-29.658.329-56.628 0-.27 0-.5-.05-.61v-.1a779.343 779.343 0 0 1-.459-3.538v-.37c-.61-4.998-.72-5.428-2.599-12.765v-.15l-.08-.29a20.807 20.807 0 0 0-27.87-14.265 20.905 20.905 0 0 0-17.393-9.296h-.12a21.055 21.055 0 0 0-10.696 2.889 21.875 21.875 0 0 0-19.422-4.658l-.34-7.787a21.058 21.058 0 0 0-7.64-15.339 21.062 21.062 0 0 0-16.511-4.584V23.091a8.997 8.997 0 0 0-8.996-8.996h-.03Z" fill="#fff"/><path d="M119.374 138.217V23.091h-7.067v115.126" fill="#000"/><path d="M119.374 138.217V23.091h-7.067v115.126m58.657-24.261v-8.337a12.885 12.885 0 0 0-12.895-12.865v0a12.894 12.894 0 0 0-12.895 12.895v8.307" stroke="#000" stroke-width="8" stroke-linecap="round" stroke-linejoin="round"/><path d="m145.144 113.956-1.64-36.986a12.076 12.076 0 0 0-12.065-11.555v0A12.088 12.088 0 0 0 119.354 77.5v69.443m76.55-31.078-.57-5.478-.469-4.468a11.999 11.999 0 0 0-11.836-10.756v0a11.997 11.997 0 0 0-12.105 11.996v6.797m37.005 139.047-.11-36.626c16.124-18.533 17.653-41.364 14.705-88.366-1.16-8.837-.63-6.738-2.929-15.774l-.08-.32a11.856 11.856 0 0 0-11.486-8.957v0a11.873 11.873 0 0 0-8.806 3.921 11.865 11.865 0 0 0-2.989 9.164v0" stroke="#000" stroke-width="8" stroke-linecap="round" stroke-linejoin="round"/><path d="m119.573 253.003 2.15-40.705c-22.872-14.994-22.672-26.579-28.06-45.102-3.498-12.106-6.497-25.47-6.077-32.668.2-3.099 10.316-21.901 10.316-21.901a8.499 8.499 0 0 1 9.416-3.729v0c3.409.91 4.628 2.339 4.998 5.848v24.56l7.068 7.648" stroke="#000" stroke-width="8" stroke-linecap="round" stroke-linejoin="round"/></svg>