<svg width="260" height="260" viewBox="0 0 260 260" fill="none" xmlns="http://www.w3.org/2000/svg"><path d="M220.94 112.967c-.091-2.756-.695-5.362-1.813-7.665-1.813-3.787-4.865-6.574-8.219-8.27-3.353-1.727-7.01-2.454-10.667-2.485-3.444 0-6.89.728-10.092 2.181-.302-1.272-.725-2.514-1.3-3.635-1.842-3.847-4.925-6.665-8.309-8.422-3.385-1.758-7.132-2.576-10.818-2.576a24.02 24.02 0 0 0-9.881 2.15c-.302-1.15-.696-2.301-1.209-3.332-1.873-3.847-4.955-6.694-8.339-8.452-3.415-1.787-7.161-2.605-10.909-2.605-3.051 0-6.164.577-9.065 1.758V41.69c0-3.12-.665-6.06-1.904-8.604-1.873-3.847-4.955-6.694-8.341-8.482C116.66 22.817 112.913 22 109.165 22c-4.955 0-10.032 1.454-14.172 4.727a18.445 18.445 0 0 0-5.077 6.332c-1.24 2.546-1.904 5.514-1.904 8.605v59.976H72.46a10 10 0 0 0-9.142 5.947L40.95 158.044a10 10 0 0 0 .271 8.668l34.29 65.904A9.972 9.972 0 0 0 84.365 238h100.343c3.536 0 6.769-.454 9.701-1.544 2.206-.818 4.23-2 5.923-3.515 2.568-2.272 4.351-5.121 5.621-8.12 1.268-3.029 2.115-6.301 2.84-9.875.997-4.999 2.206-12.603 3.505-21.571 1.934-13.421 4.019-29.841 5.681-44.443.816-7.301 1.541-14.148 2.086-19.965.513-5.816.877-10.572.936-13.875-.03-.546-.03-1.788-.06-2.121v-.004Zm-12.058.999v.849c-.09 3.665-.633 10.634-1.481 19.055-1.269 12.694-3.203 28.872-5.166 43.656-1.965 14.754-3.958 28.175-5.349 35.052-.544 2.787-1.148 5.09-1.842 6.877-.514 1.332-1.058 2.363-1.602 3.12-.846 1.152-1.602 1.758-2.81 2.333-1.239.545-3.113.969-5.923.969H88.628c-1.865 0-3.541-1.038-4.402-2.692l-30.698-59.006a5 5 0 0 1-.136-4.334l19.101-43.088a5 5 0 0 1 4.571-2.974h10.95v36.372a6.042 6.042 0 0 0 6.043 6.042c3.337 0 6.043-2.658 6.043-5.995V41.689c0-1.424.273-2.455.695-3.303.605-1.273 1.602-2.243 3.082-3.03 1.451-.757 3.354-1.241 5.288-1.212 2.598 0 5.077.818 6.618 2.091.784.636 1.359 1.334 1.752 2.181.424.849.696 1.879.696 3.303v56.963a6.042 6.042 0 0 0 6.043 6.043 6.041 6.041 0 0 0 6.044-6.04v-9.108c0-1.424.272-2.453.695-3.302.604-1.272 1.602-2.241 3.082-3.03 1.45-.757 3.353-1.24 5.288-1.211 2.599 0 5.076.818 6.618 2.09.786.635 1.36 1.332 1.753 2.18.422.85.695 1.879.695 3.303v16.132a6.044 6.044 0 0 0 12.087.002v-4.016c0-1.363.273-2.363.695-3.181.605-1.212 1.631-2.212 3.113-2.999 1.481-.787 3.444-1.241 5.379-1.241 2.599 0 5.046.817 6.557 2.03.755.605 1.329 1.302 1.722 2.12.393.848.664 1.847.664 3.272v10.256a6.043 6.043 0 0 0 6.044 6.043h1.862a4.181 4.181 0 0 0 4.181-4.181c0-1.241.242-2.091.665-2.878.604-1.151 1.662-2.181 3.233-2.969 1.571-.788 3.596-1.272 5.59-1.241 2.568 0 4.986.787 6.375 1.938a5.752 5.752 0 0 1 1.631 1.999c.363.788.634 1.757.634 3.181v.091l.001.001Z" fill="#000"/></svg>