<svg width="260" height="260" fill="none" xmlns="http://www.w3.org/2000/svg"><path d="m106.353 183.829-4.508 4.499a16.42 16.42 0 0 1-11.616 4.812 16.42 16.42 0 0 1-11.615-4.812 16.43 16.43 0 0 1-4.813-11.616 16.43 16.43 0 0 1 4.813-11.616l16.993-16.993" fill="#fff"/><path d="m106.353 183.829-4.508 4.499a16.42 16.42 0 0 1-11.616 4.812 16.42 16.42 0 0 1-11.615-4.812v0a16.43 16.43 0 0 1-4.813-11.616 16.43 16.43 0 0 1 4.813-11.616l16.993-16.993m119.614 99.542-6.467-36.256-36.986-120.894-53.48-43.303-40.844-34.457a14.565 14.565 0 0 0-18.883.08v0a14.584 14.584 0 0 0-1.579 20.552l68.484 72.172 1.209 8.997" stroke="#000" stroke-width="8" stroke-linecap="round" stroke-linejoin="round"/><path d="m92.159 146.604-8.097 14.214a16.434 16.434 0 0 1-22.402 6.178v0a16.446 16.446 0 0 1-6.177-22.412l5.458-9.586 19.292-33.987a16.545 16.545 0 0 1 15.914-8.287l18.803 1.75" stroke="#000" stroke-width="8" stroke-linecap="round" stroke-linejoin="round"/><path d="m143.759 247.645-47.702-53.18-31.198-72.262a9.907 9.907 0 0 1 4.608-12.765 22.132 22.132 0 0 1 29.779 9.746l10.906 21.602 24.48 7.897" fill="#fff"/><path d="m143.759 247.645-47.702-53.18-31.198-72.262a9.907 9.907 0 0 1 4.608-12.765 22.132 22.132 0 0 1 29.779 9.746l10.906 21.602 24.48 7.897" stroke="#000" stroke-width="8" stroke-linecap="round" stroke-linejoin="round"/></svg>