<svg width="260" height="260" viewBox="0 0 260 260" fill="none" xmlns="http://www.w3.org/2000/svg">
<path d="M123.53 96C123.678 80.7446 124.03 38.4503 124.03 34.0002C124.03 24.5 121.53 16.9999 108.53 17C97.7228 17.0001 93.5302 24.5001 93.5302 34.0002V109.5M123.53 96C123.466 102.685 123.53 101.575 123.53 106.501M123.53 96C123.595 89.3149 128.036 82.1335 139.03 82.5C154.03 83 154.53 93.5 154.53 102.5V109M154.53 109V113.5M154.53 109C154.864 105.333 157.646 94.0794 172.531 96C188.031 98 186.531 115 186.531 115M186.531 115C186.031 118 186.031 119.5 186.031 119.5M186.531 115C187.531 109 193.904 105.51 202.031 106.501C209.743 107.441 215.031 116.5 213.031 126.5C209.531 159.5 207.531 163 207.531 163C207.531 163 202.531 194.5 193.03 214.5C191.752 216.5 188.332 219.667 185.531 221L183.531 245.5M93.5302 142V109.5M93.5302 109.5H74.5303C73.0303 109.667 69.8302 110.7 69.0302 113.5C68.2302 116.3 65.0301 132.167 61.5301 147C58.03 161.833 61.3309 164.5 63.5312 170C65.7316 175.5 71.5303 188.5 84.0312 209C91.044 220.5 100.031 221 100.031 221L104.5 245.5" stroke="black" stroke-width="12" stroke-linecap="round" stroke-linejoin="round"/>
</svg>
