<svg width="260" height="260" fill="none" xmlns="http://www.w3.org/2000/svg"><g opacity=".9" fill-rule="evenodd" clip-rule="evenodd" fill="#000"><path d="M129.402 79.066c-7.332 0-14.04 2.912-18.876 7.618-4.835 4.707-7.878 11.285-7.878 18.538 0 7.254 3.042 13.832 7.878 18.539 4.837 4.706 11.545 7.618 18.876 7.618 7.332 0 14.013-2.912 18.85-7.618 4.836-4.707 7.903-11.285 7.878-18.539 0-7.253-3.042-13.858-7.878-18.538-4.81-4.705-11.518-7.618-18.85-7.618Zm11.623 37.257c-2.964 2.886-7.047 4.654-11.622 4.654-4.576 0-8.658-1.794-11.622-4.654-2.964-2.885-4.732-6.76-4.732-11.076 0-4.317 1.794-8.217 4.732-11.102 2.964-2.885 7.046-4.654 11.622-4.654 4.575 0 8.658 1.794 11.622 4.654 2.963 2.885 4.731 6.76 4.731 11.102 0 4.315-1.768 8.19-4.731 11.076Z"/><path d="M130 49.764c-16.198 0-30.94 6.473-41.6 16.926-10.66 10.427-17.315 24.934-17.315 40.898.024 14.603 5.539 25.271 6.249 26.644l.07.136c2.131 3.875 5.641 9.958 7.956 13.728l24.231 39.547c1.16 1.901 2.705 4.426 4.235 6.927 1.42 2.32 2.827 4.621 3.904 6.385l3.743 6.11c.885 1.456 2.028 2.73 3.484 3.691 1.43.962 3.223 1.56 5.044 1.535 1.82 0 3.589-.572 5.019-1.535 1.456-.961 2.6-2.236 3.483-3.665l3.77-6.11c1.193-1.933 2.777-4.504 4.34-7.04l3.85-6.246 24.337-39.494c2.443-3.978 5.668-10.14 7.514-14.405.052-.103 1.638-3.796 3.277-8.84.805-2.521 1.638-5.381 2.261-8.346.624-2.965 1.092-6.005 1.092-8.996 0-15.965-6.655-30.472-17.315-40.898-10.687-10.505-25.428-16.952-41.627-16.952H130Zm47.659 64.661c-.806 3.744-2.055 7.592-3.095 10.479a86.363 86.363 0 0 1-1.325 3.458c-.078.207-.156.388-.224.547-.068.16-.127.297-.166.415l-.104.234-.025.052c-1.56 3.588-4.81 9.802-6.864 13.13l-24.31 39.442a10046.41 10046.41 0 0 0-4.3 6.976l-.04.064a9385.629 9385.629 0 0 1-3.85 6.246l-3.405 5.538-3.406-5.538c-1.159-1.901-2.704-4.426-4.234-6.927l-.002-.003a4662.2 4662.2 0 0 1-3.902-6.382L94.175 142.61c-2.183-3.536-5.693-9.62-7.696-13.26-.182-.285-5.07-9.725-5.044-21.788 0-13.052 5.408-24.856 14.196-33.488 8.788-8.607 20.903-13.936 34.32-13.936 13.416 0 25.531 5.33 34.32 13.936 8.788 8.606 14.195 20.435 14.195 33.488.052 1.95-.26 4.368-.805 6.863h-.002Z"/></g></svg>