<svg width="260" height="260" viewBox="0 0 260 260" fill="none" xmlns="http://www.w3.org/2000/svg"><g opacity=".9" fill-rule="evenodd" clip-rule="evenodd" fill="#000"><path d="M77.037 21.662C90.604 8.285 109.366 0 129.982 0h.002c20.616 0 39.378 8.251 52.979 21.695C196.53 35.038 205 53.603 205 74.035c0 3.828-.596 7.72-1.39 11.514-.793 3.794-1.853 7.454-2.878 10.681-2.085 6.455-4.104 11.181-4.17 11.313-2.35 5.458-6.454 13.344-9.564 18.435L178.405 140H240c11.046 0 20 8.954 20 20v80c0 11.046-8.954 20-20 20H20c-11.046 0-20-8.954-20-20v-80c0-11.046 8.954-20 20-20h61.793l-8.626-14.156c-2.945-4.825-7.413-12.61-10.126-17.569a6.931 6.931 0 0 0-.088-.174c-.904-1.758-7.922-15.41-7.953-34.098 0-20.431 8.47-38.998 22.037-52.341ZM90.324 154H29c-8.284 0-15 6.716-15 15v62c0 8.284 6.716 15 15 15h202c8.284 0 15-6.716 15-15v-62c0-8.284-6.716-15-15-15h-61.174l-13.801 22.521a86500.89 86500.89 0 0 0-10.423 17.004l-4.799 7.819c-1.124 1.829-2.58 3.46-4.433 4.691a11.49 11.49 0 0 1-6.387 1.964c-2.317.033-4.6-.733-6.42-1.964-1.852-1.231-3.308-2.861-4.434-4.725l-4.764-7.819c-1.37-2.258-3.162-5.203-4.969-8.173-1.948-3.2-3.913-6.43-5.389-8.863L90.324 154Zm96.374-57.838c1.324-3.693 2.914-8.618 3.939-13.41h.002c.694-3.193 1.091-6.288 1.025-8.783 0-16.705-6.881-31.843-18.066-42.858-11.185-11.013-26.604-17.834-43.679-17.834-17.076 0-32.495 6.82-43.68 17.834C75.056 42.158 68.173 57.266 68.173 73.97c-.034 15.439 6.187 27.519 6.419 27.884 2.549 4.658 7.016 12.444 9.795 16.97l30.84 50.61c1.37 2.259 3.163 5.204 4.97 8.175 1.947 3.2 3.912 6.429 5.388 8.862l4.334 7.087 4.334-7.087 4.902-7.998c1.988-3.244 4.003-6.532 5.521-9.006l30.94-50.477c2.613-4.259 6.749-12.211 8.735-16.803l.032-.067.132-.3c.05-.15.125-.326.212-.531.087-.203.185-.435.284-.7.43-1.032 1.025-2.595 1.687-4.425Z"/><path d="M130 113c-20.987 0-38-17.013-38-38s17.013-38 38-38 38 17.013 38 38-17.013 38-38 38Zm0-14c-13.255 0-24-10.745-24-24s10.745-24 24-24 24 10.745 24 24-10.745 24-24 24Z"/></g></svg>