<svg width="260" height="260" viewBox="0 0 260 260" fill="none" xmlns="http://www.w3.org/2000/svg"><path d="M63 126a7 7 0 1 0 0 14h86a7 7 0 1 0 0-14H63Zm-7 40a7 7 0 0 1 7-7h86a7 7 0 1 1 0 14H63a7 7 0 0 1-7-7Zm7 25a7 7 0 1 0 0 14h86a7 7 0 1 0 0-14H63Z" fill="#000"/><path fill-rule="evenodd" clip-rule="evenodd" d="M66 40V3a3 3 0 0 1 3-3h168a3 3 0 0 1 3 3v214a3 3 0 0 1-3 3h-47v37a3 3 0 0 1-3 3H19a3 3 0 0 1-3-3V82.952L57 40h9Zm14 0h107a3 3 0 0 1 3 3v163h36V14H80v26ZM30 246V104h43a7 7 0 0 0 7-7V54h96v192H30ZM66 90H31.875L66 54v36Z" fill="#000"/></svg>