<svg width="260" height="260" viewBox="0 0 260 260" fill="none" xmlns="http://www.w3.org/2000/svg"><path fill-rule="evenodd" clip-rule="evenodd" d="M130.319 80.352C143.271 72.942 152 58.99 152 43c0-23.748-19.252-43-43-43S66 19.252 66 43c0 16.127 8.878 30.18 22.012 37.539v43.101H72.46a10 10 0 0 0-9.142 5.947L40.95 180.044a10 10 0 0 0 .271 8.668l34.29 65.904A9.972 9.972 0 0 0 84.365 260h100.343c3.536 0 6.769-.454 9.701-1.544 2.206-.818 4.23-2 5.923-3.515 2.568-2.272 4.351-5.121 5.621-8.12 1.269-3.029 2.115-6.301 2.84-9.875.997-4.999 2.206-12.603 3.505-21.571 1.934-13.421 4.019-29.841 5.681-44.443.816-7.301 1.541-14.148 2.086-19.965.514-5.816.877-10.572.936-13.875-.014-.258-.021-.671-.028-1.07a21.893 21.893 0 0 0-.032-1.051v-.004c-.091-2.756-.695-5.362-1.813-7.665-1.813-3.787-4.864-6.574-8.219-8.271-3.353-1.726-7.01-2.453-10.667-2.484-3.444 0-6.89.728-10.092 2.181-.302-1.272-.725-2.514-1.3-3.635-1.842-3.847-4.925-6.665-8.309-8.422-3.384-1.758-7.132-2.576-10.818-2.576-3.354 0-6.739.728-9.881 2.151-.302-1.152-.695-2.302-1.209-3.333-1.873-3.847-4.955-6.694-8.339-8.452-3.415-1.787-7.161-2.605-10.909-2.605-3.051 0-6.164.577-9.065 1.758V80.352Zm-.023-17.667c-.128-2.746-.776-5.328-1.881-7.598-1.873-3.847-4.955-6.694-8.341-8.482C116.66 44.817 112.913 44 109.166 44c-4.956 0-10.032 1.454-14.173 4.727a18.444 18.444 0 0 0-5.077 6.332c-1.153 2.37-1.809 5.104-1.894 7.964A28.902 28.902 0 0 1 80 43c0-16.016 12.984-29 29-29s29 12.984 29 29a28.897 28.897 0 0 1-7.704 19.685Zm78.586 74.13v-.849l-.001-.001v-.091c0-1.424-.271-2.393-.634-3.181a5.752 5.752 0 0 0-1.631-1.999c-1.389-1.151-3.806-1.938-6.375-1.938-1.994-.031-4.019.453-5.59 1.241-1.571.788-2.629 1.818-3.233 2.969-.423.787-.665 1.637-.665 2.878a4.181 4.181 0 0 1-4.181 4.181h-1.862a6.043 6.043 0 0 1-6.044-6.043v-10.256c0-1.425-.271-2.424-.664-3.272-.393-.818-.967-1.515-1.722-2.121-1.511-1.212-3.958-2.029-6.557-2.029-1.935 0-3.898.454-5.379 1.241-1.481.787-2.508 1.787-3.113 2.999-.422.818-.695 1.818-.695 3.181v4.016a6.044 6.044 0 0 1-12.087-.002v-16.132c0-1.424-.273-2.454-.695-3.302-.393-.849-.967-1.546-1.753-2.181-1.541-1.272-4.019-2.09-6.618-2.09-1.935-.03-3.838.454-5.288 1.212-1.48.788-2.478 1.757-3.082 3.029-.423.849-.695 1.878-.695 3.302v9.108a6.041 6.041 0 0 1-6.044 6.04 6.042 6.042 0 0 1-6.043-6.043V63.719c0-1.424-.272-2.454-.696-3.303-.393-.847-.967-1.545-1.752-2.18-1.541-1.274-4.02-2.092-6.617-2.092-1.935-.03-3.838.455-5.289 1.212-1.48.787-2.477 1.758-3.081 3.03-.423.848-.696 1.879-.696 3.303v108.513c0 3.337-2.705 5.995-6.043 5.995a6.042 6.042 0 0 1-6.044-6.042v-36.372H77.064a5 5 0 0 0-4.57 2.974l-19.102 43.088a5 5 0 0 0 .136 4.334l30.698 59.006a4.948 4.948 0 0 0 4.402 2.692h96.081c2.81 0 4.685-.424 5.923-.969 1.208-.575 1.964-1.181 2.81-2.333.544-.757 1.088-1.788 1.602-3.12.694-1.787 1.298-4.09 1.842-6.877 1.391-6.877 3.385-20.298 5.349-35.052 1.963-14.784 3.897-30.962 5.166-43.656.848-8.421 1.391-15.39 1.481-19.055Z" fill="#000"/></svg>