<svg width="260" height="260" fill="none" xmlns="http://www.w3.org/2000/svg"><path d="M112.245 72.702c18.146 0 32.857-14.71 32.857-32.857S130.391 6.987 112.245 6.987c-18.147 0-32.858 14.711-32.858 32.858 0 18.146 14.711 32.857 32.858 32.857Z" stroke="#000" stroke-width="8" stroke-linecap="round" stroke-linejoin="round"/><path d="m92.792 236.659 1.19-21.052c-20.273-14.424-22.992-29.928-25.94-46.332l-.37-2.059c-.17-1-.34-1.919-.52-2.909-2.08-11.266-4.219-26.53-2.75-35.356.18-1.11.75-4.469 13.486-23.271l.19-.27.07-.1a14.896 14.896 0 0 1 14.654-5.578l1.13-55.849a17.893 17.893 0 1 1 35.786.08l.699 45.533a19.383 19.383 0 0 1 20.762 4.718 18.284 18.284 0 0 1 10.856-3.558h.18a18.422 18.422 0 0 1 16.284 9.996 18.33 18.33 0 0 1 22.742 4.281 18.348 18.348 0 0 1 3.778 7.364l.07.29c1.929 7.567 1.999 7.807 2.579 12.645l.05.39c.12 1 .27 2.089.46 3.529.009.166.009.333 0 .499 2.908 46.463 1.499 69.354-14.685 89.096v17.913H92.792Z" fill="#fff"/><path d="M111.825 28.85a15.465 15.465 0 0 1 15.394 15.133l.76 49.511a16.883 16.883 0 0 1 22.901 4.219 15.994 15.994 0 0 1 11.156-4.559h.149a15.995 15.995 0 0 1 15.145 11.236 15.855 15.855 0 0 1 25.21 8.567l.09.33c1.889 7.427 1.919 7.577 2.509 12.295.13 1 .29 2.289.51 3.938.005.09.005.18 0 .27 2.999 47.572 1.349 68.974-14.695 88.096l.05 16.314H95.431l1.12-19.802c-20.992-14.455-23.261-29.889-26.3-46.902-.21-1.18-.42-2.379-.65-3.609-1.66-8.996-4.228-25.55-2.739-34.507.55-3.238 7.437-13.924 13.125-22.321.043-.069.09-.136.14-.2a12.423 12.423 0 0 1 14.335-3.998l.77.32 1.199-59.198A15.483 15.483 0 0 1 111.825 28.9v-.05Zm0-4.949a20.512 20.512 0 0 0-20.392 19.992l-1.07 53.07h-.37a17.383 17.383 0 0 0-13.825 6.797v.15c-.08.1-.17.23-.28.39-12.994 19.213-13.594 22.711-13.854 24.201-1.53 9.216.65 24.8 2.749 36.246.19.999.36 1.949.53 2.889l.12.699.25 1.38c2.818 15.884 5.737 32.298 25.82 47.112l-1 17.053-.3 5.278h105.819v-19.512c16.184-20.212 17.594-43.494 14.685-90.096-.006-.2-.023-.4-.05-.599v-.11c-.19-1.4-.33-2.519-.45-3.439l-.06-.47c-.61-4.938-.69-5.298-2.619-12.895v-.08l-.08-.29a20.827 20.827 0 0 0-20.262-15.704 21.09 21.09 0 0 0-7.657 1.46 20.935 20.935 0 0 0-17.274-9.287h-.219c-3.733-.01-7.4.985-10.616 2.88a21.994 21.994 0 0 0-14.235-5.269 22.5 22.5 0 0 0-4.348.43l-.65-42.274a20.484 20.484 0 0 0-20.392-20.072l.03.07Z" fill="#fff"/><path d="M98.58 147.393v-32.937a8.497 8.497 0 0 0-10.807-8.229 8.5 8.5 0 0 0-4.417 2.991S71.38 126.951 70.87 130c-1.19 7.117.44 20.722 2.719 33.127 3.488 18.993 4.258 34.127 27.129 49.171l-2.15 40.705" stroke="#000" stroke-width="8" stroke-linecap="round" stroke-linejoin="round"/><path d="M150.18 115.956v-8.337a12.889 12.889 0 0 0-12.895-12.865 12.894 12.894 0 0 0-12.895 12.895v8.307" fill="#fff"/><path d="M150.18 115.956v-8.337a12.889 12.889 0 0 0-12.895-12.865v0a12.894 12.894 0 0 0-12.895 12.895v8.307" stroke="#000" stroke-width="8" stroke-linecap="round" stroke-linejoin="round"/><path d="m124.38 115.955-1.1-71.902a11.395 11.395 0 0 0-11.396-11.216 11.394 11.394 0 0 0-11.395 11.146l-1.91 94.284v9.096" fill="#fff"/><path d="m124.38 115.955-1.1-71.902a11.395 11.395 0 0 0-11.396-11.216v0a11.394 11.394 0 0 0-11.395 11.146l-1.91 94.284v9.096" stroke="#000" stroke-width="8" stroke-linecap="round" stroke-linejoin="round"/><path d="m175.12 117.855-.57-5.478-.47-4.468a11.99 11.99 0 0 0-11.835-10.756 11.997 11.997 0 0 0-12.105 11.995v6.808" fill="#fff"/><path d="m175.12 117.855-.57-5.478-.47-4.468a11.99 11.99 0 0 0-11.835-10.756v0a11.997 11.997 0 0 0-12.105 11.995v6.808m36.996 137.047-.11-36.626c16.123-18.533 17.663-39.375 14.714-86.377-1.16-8.836-.63-6.737-2.929-15.774l-.08-.319a11.844 11.844 0 0 0-11.485-8.947v0a11.858 11.858 0 0 0-11.796 13.075v0" stroke="#000" stroke-width="8" stroke-linecap="round" stroke-linejoin="round"/></svg>