<svg width="260" height="264" viewBox="0 0 260 264" fill="none" xmlns="http://www.w3.org/2000/svg">
<path d="M119 84.8311C137.926 80.3236 152 63.3054 152 43C152 19.2518 132.748 0 109 0C85.2518 0 66 19.2518 66 43C66 63.3054 80.0744 80.3236 99 84.8311V70.2297C87.9109 66.156 80 55.5019 80 43C80 26.9837 92.9837 14 109 14C125.016 14 138 26.9837 138 43C138 55.5019 130.089 66.156 119 70.2297V84.8311Z" fill="black"/>
<path d="M123.53 118C123.678 102.745 124.03 60.4503 124.03 56.0002C124.03 46.5 121.53 38.9999 108.53 39C97.7228 39.0001 93.5302 46.5001 93.5302 56.0002V131.5M123.53 118C123.466 124.685 123.53 123.575 123.53 128.501M123.53 118C123.595 111.315 128.036 104.134 139.03 104.5C154.03 105 154.53 115.5 154.53 124.5V131M154.53 131V135.5M154.53 131C154.864 127.333 157.646 116.079 172.531 118C188.031 120 186.531 137 186.531 137M186.531 137C186.031 140 186.031 141.5 186.031 141.5M186.531 137C187.531 131 193.904 127.51 202.031 128.501C209.743 129.441 215.031 138.5 213.031 148.5C209.531 181.5 207.531 185 207.531 185C207.531 185 202.531 216.5 193.03 236.5C191.752 238.5 188.332 241.667 185.531 243L183 257.5M93.5302 164V131.5M93.5302 131.5H74.5303C73.0303 131.667 69.8302 132.7 69.0302 135.5C68.2302 138.3 65.0301 154.167 61.5301 169C58.03 183.833 61.3309 186.5 63.5312 192C65.7316 197.5 71.5303 210.5 84.0312 231C91.044 242.5 100.031 243 100.031 243L102.5 257.5" stroke="black" stroke-width="12" stroke-linecap="round" stroke-linejoin="round"/>
</svg>
