<svg width="260" height="260" fill="none" xmlns="http://www.w3.org/2000/svg"><g opacity=".9" fill="#000"><path d="M130 157.014c14.92 0 27.015-12.095 27.015-27.014 0-14.92-12.095-27.015-27.015-27.015-14.919 0-27.014 12.095-27.014 27.015 0 14.919 12.095 27.014 27.014 27.014Z"/><path fill-rule="evenodd" clip-rule="evenodd" d="M130 80.6c27.274 0 49.4 22.125 49.4 49.4 0 27.3-22.126 49.4-49.4 49.4-27.3 0-49.4-22.1-49.4-49.4 0-27.275 22.1-49.4 49.4-49.4Zm-27.585 21.814C95.368 109.486 91 119.21 91 130v-.001c0 10.791 4.367 20.515 11.414 27.586 7.072 7.046 16.795 11.414 27.586 11.414 10.791 0 20.515-4.367 27.587-11.414C164.632 150.514 169 140.79 169 130s-4.367-20.515-11.413-27.586c-7.072-7.047-16.796-11.415-27.586-11.415s-20.515 4.368-27.586 11.415Z"/></g></svg>