<svg width="260" height="260" viewBox="0 0 260 260" fill="none" xmlns="http://www.w3.org/2000/svg"><g opacity=".9" fill="#000"><path d="M131 161c16.568 0 30-13.432 30-30 0-16.568-13.432-30-30-30-16.568 0-30 13.432-30 30 0 16.568 13.432 30 30 30Z"/><path fill-rule="evenodd" clip-rule="evenodd" d="M70 130.5c0 33.413 27.087 60.5 60.5 60.5s60.5-27.087 60.5-60.5S163.913 70 130.5 70 70 97.087 70 130.5Zm14 0c0 25.681 20.819 46.5 46.5 46.5s46.5-20.819 46.5-46.5S156.181 84 130.5 84 84 104.819 84 130.5Z"/></g></svg>