<svg width="260" height="260" viewBox="0 0 260 260" fill="none" xmlns="http://www.w3.org/2000/svg"><path d="M214.675 65.967c-.091-2.756-.695-5.362-1.811-7.665-1.81-3.787-3.858-6.574-7.208-8.27-3.348-1.727-7-2.454-10.651-2.485-3.44 0-6.88.728-10.078 2.181-.301-1.272-.723-2.514-1.297-3.635-1.84-3.847-4.919-6.665-8.298-8.423-3.379-1.757-7.121-2.575-10.802-2.575-3.348 0-6.729.728-9.866 2.15-.302-1.15-.695-2.301-1.207-3.332-1.871-3.847-4.948-6.694-8.327-8.452-3.41-1.787-7.151-2.605-10.893-2.605a24.08 24.08 0 0 0-9.052 1.758c-1.317.537-6.31 4.886-6.31 4.886-1.87-3.847-1.497-3-3.919-4.895-3.41-1.788-7.151-2.605-10.893-2.605-4.948 0-10.018 1.454-14.152 4.727a18.44 18.44 0 0 0-5.07 6.332c-1.237 2.546-1.9 5.514-1.9 8.605V85.64l-.59-.394a21.475 21.475 0 0 0-11.913-3.606c-11.447 0-20.883 8.98-21.449 20.413l-1.803 36.441a119.62 119.62 0 0 0 6.95 46.505l16.736 46.394a9.965 9.965 0 0 0 9.38 6.607h99.242c3.53 0 6.758-.454 9.686-1.544 2.203-.818 4.224-2 5.914-3.515 2.565-2.272 4.345-5.121 5.613-8.12 1.267-3.029 2.112-6.301 2.836-9.875.996-4.999 2.203-12.603 3.5-21.571 1.931-13.421 4.014-29.841 5.673-44.443.814-7.301 1.538-54.148 2.083-59.965.512-12.816-.123-17.572-.064-20.875-.03-.546-.03-1.788-.06-2.121v-.004Zm-11.041 1v.848c-.091 3.665-1.633 57.634-2.48 66.055-1.267 12.694-2.199 28.872-4.159 43.656-1.961 14.754-3.952 28.175-5.34 35.052-.543 2.787-1.147 5.09-1.84 6.877-.512 1.332-1.056 2.363-1.599 3.12-.845 1.152-1.6 1.758-2.807 2.333-1.236.545-3.108.969-5.914.969H84.1a4.982 4.982 0 0 1-4.708-3.36l-15.447-44.493a98.749 98.749 0 0 1-5.46-32.895l.208-40.246c.036-7.065 6.082-12.603 13.123-12.02a12.124 12.124 0 0 1 11.126 12.083v8.837c0 5.993-.014 35.13-.014 40.217a14.174 14.174 0 0 0 10.656 13.73l63.992 16.392c3.716.952 7.332-1.855 7.332-5.691a5.874 5.874 0 0 0-4.26-5.648l-62.111-17.747a4.977 4.977 0 0 1-3.626-4.789c.007-33.049.1-101.1.1-108.558 0-1.424.272-2.455.694-3.303.603-1.273 1.6-2.243 3.077-3.03 1.449-.757 3.349-1.241 5.281-1.212 2.594 0 5.069.818 6.607 2.091.784.636 1.358 1.334 1.75 2.181.423.849.695 1.879.695 3.303v81.979a6.028 6.028 0 0 0 6.034 6.027c3.333 0 6.035-2.664 6.035-5.997V42.577c0-1.424.272-2.453.694-3.302.603-1.272 1.599-2.241 3.077-3.03 1.449-.757 3.349-1.24 5.281-1.211 2.595 0 5.069.818 6.608 2.09.785.635 1.358 1.332 1.75 2.18.422.85.695 1.879.695 3.303v91.141a6.034 6.034 0 0 0 6.034 6.035c3.333 0 6.035-2.687 6.035-6.02V54.725c0-1.363.272-2.363.694-3.181.604-1.212 1.629-2.212 3.108-2.999 1.479-.787 3.439-1.241 5.371-1.241 2.596 0 5.039.817 6.547 2.03.755.605 1.328 1.302 1.72 2.12.393.848.664 1.847.664 3.272l-.935 89.234a6.002 6.002 0 0 0 6.002 6.065c3.316 0 6.038-2.686 6.086-6.001.285-19.445 1.223-79.394 1.579-80.058.604-1.151 1.66-2.18 3.229-2.969 1.568-.788 3.591-1.272 5.582-1.241 2.564 0 4.978.787 6.366 1.938a5.756 5.756 0 0 1 1.628 1.999c.362.788.633 1.757.633 3.18v.092l.002.001Z" fill="#000"/></svg>