<svg width="260" height="260" fill="none" xmlns="http://www.w3.org/2000/svg"><path d="M161.797 208.41v41.804m8.987-144.805.36 17.403.189 9.287a43.13 43.13 0 0 1-8.276 14.514m-9.836 61.797c23.351-5.898 30.368-12.675 43.183-56.228 1.4-4.758 2.149-6.078 1.629-13.385a6147.178 6147.178 0 0 1-2.109-19.693l-3.238-20.282M92.564 91.495l3.079-39.655a11.406 11.406 0 0 0-11.376-12.285v0A11.395 11.395 0 0 0 72.93 49.77c-2.209 21.092-7.047 68.034-7.047 74.091 0 20.622-2.759 61.807 18.423 82.219l-2.71 44.133" stroke="#000" stroke-width="8" stroke-linecap="round" stroke-linejoin="round"/><path d="m118.974 99.962.66-37.986.519-29.988a11.462 11.462 0 0 0-11.465-11.666v0a11.454 11.454 0 0 0-11.416 10.576l-2.829 36.336-2.539 32.728" stroke="#000" stroke-width="8" stroke-linecap="round" stroke-linejoin="round"/><path d="m146.143 91.495-1.269-72.112a12.236 12.236 0 0 0-12.246-11.996 12.243 12.243 0 0 0-12.245 11.996l-.78 44.283-.54 30.828m54.6 1.349-.74-9.716-4.189-54.3a11.824 11.824 0 0 0-11.795-10.915v0a11.836 11.836 0 0 0-11.795 12.075l.599 34.047.58 32.918" stroke="#000" stroke-width="8" stroke-linecap="round" stroke-linejoin="round"/><path d="m195.924 119.104-3.999-24.75a6.435 6.435 0 0 0-7.277-5.388 16.273 16.273 0 0 0-13.865 16.414l.36 17.403" stroke="#000" stroke-width="8" stroke-linecap="round" stroke-linejoin="round"/></svg>