<svg width="260" height="260" viewBox="0 0 260 260" fill="none" xmlns="http://www.w3.org/2000/svg">
<path d="M86.5 216.073C73.5 206.573 67.0354 195.133 62.5 181.073C57.5 165.573 56 147.573 56 138.073C56 130.473 57 105.24 57.5 93.5729C57.7786 87.0731 62 80.0731 72.5 80.0731C87.0344 80.0731 87.5193 93.0732 87.4795 95.0732M86.5 216.073L90.5 242.573M86.5 216.073C90 219.073 94.5 221.073 103.5 222.573M116.5 181.073C113.5 148.573 86.5 142.573 86.5 142.573C86.5 142.573 88 72.4063 88.5 39.573C88.5914 33.573 93.5 26.173 103.5 26.573C116 27.073 118.685 38.0729 118.685 39.573M116.5 122.073L119 30.0732C119.5 25.5732 121.5 16.0737 134.5 17.0731C149 18.1879 148.5 30.5731 148.5 33.0731L148 50.0731M146 122.073L148 50.0731M148 50.0731C148.5 41.0731 153.5 34.1531 164 34.5731C180 35.2131 178 50.0732 178 52.5732L177.5 69.0735M174.5 129.073L177.5 69.0735M177.5 69.0735C178 63.0735 182.1 55.7732 192.5 56.5732C202.9 57.3732 203.5 66.0732 203.5 70.0732L200 146.073C197.5 181.073 196.5 208.573 187 216.073L177.5 222.573L174.5 242.573" stroke="black" stroke-width="12" stroke-linecap="round" stroke-linejoin="round"/>
</svg>
