<svg width="260" height="260" viewBox="0 0 260 260" fill="none" xmlns="http://www.w3.org/2000/svg"><path d="M58.3 130.041a7 7 0 0 0 7 7h112.5l-42.051 42.05a7.002 7.002 0 0 0 0 9.9 7.002 7.002 0 0 0 9.9 0l53.74-53.74a6.98 6.98 0 0 0 2.049-5.08 6.979 6.979 0 0 0-2.049-5.08l-53.74-53.74a7 7 0 0 0-9.9 9.9l41.791 41.79H65.3a7 7 0 0 0-7 7Z" fill="#000"/><path fill-rule="evenodd" clip-rule="evenodd" d="M0 130c0 71.797 58.203 130 130 130s130-58.203 130-130S201.797 0 130 0 0 58.203 0 130Zm14 0c0 64.065 51.935 116 116 116s116-51.935 116-116S194.065 14 130 14 14 65.935 14 130Z" fill="#000"/></svg>