<svg width="260" height="260" fill="none" xmlns="http://www.w3.org/2000/svg"><path d="M147.293 37.306a10.416 10.416 0 0 1 7.387 2.998l83.508 82.919a9.593 9.593 0 0 1 2.849 6.827 9.606 9.606 0 0 1-2.849 6.827l-83.498 82.719a10.469 10.469 0 1 1-14.804-14.805l65.165-64.975H28.849a9.876 9.876 0 1 1 0-19.752H205.05l-65.165-64.975a10.47 10.47 0 0 1-2.251-11.403 10.469 10.469 0 0 1 9.668-6.45l-.01.07Zm.01-8.067a18.46 18.46 0 0 0-18.114 22.033 18.471 18.471 0 0 0 5.029 9.455l51.49 51.31H28.848a17.873 17.873 0 1 0 0 35.746h156.86l-51.47 51.29a18.465 18.465 0 0 0 13.067 31.441 18.464 18.464 0 0 0 13.033-5.321l83.478-82.688a17.601 17.601 0 0 0 0-24.99l-83.498-82.838a18.367 18.367 0 0 0-12.995-5.368l-.02-.07Z" fill="#000"/></svg>