<svg width="260" height="260" viewBox="0 0 260 260" fill="none" xmlns="http://www.w3.org/2000/svg"><path fill-rule="evenodd" clip-rule="evenodd" d="M26 92c0 50.81 41.19 92 92 92 10.385 0 20.369-1.721 29.681-4.893l40.819 70.701c5.523 9.566 17.755 12.844 27.321 7.321l1.732-1c9.565-5.523 12.843-17.755 7.32-27.321l-41.571-72.003C199.805 140.176 210 117.279 210 92c0-50.81-41.19-92-92-92S26 41.19 26 92Zm14 0c0 43.078 34.922 78 78 78s78-34.922 78-78-34.922-78-78-78-78 34.922-78 78Zm122.125 84.124 12.124-7 38 65.818a7 7 0 1 1-12.124 7l-38-65.818Z" fill="#000"/></svg>