<svg width="260" height="260" fill="none" xmlns="http://www.w3.org/2000/svg"><path d="M106.288 54.47c-33.41 0-60.475 27.092-60.475 60.475 0 33.41 27.065 60.476 60.475 60.476 11.492 0 22.255-3.199 31.408-8.789.545 1.222 1.222 2.392 2.132 3.432l34.762 39.26a12.549 12.549 0 0 0 9.386 4.264c3.198 0 6.448-1.275 8.866-3.718l8.294-8.295a12.546 12.546 0 0 0 3.718-8.892c0-3.458-1.482-6.916-4.238-9.386l-39.26-34.737c-1.04-.91-2.21-1.585-3.405-2.131a60.276 60.276 0 0 0 8.813-31.46c0-33.437-27.092-60.502-60.476-60.502v.003ZM70.85 150.358c-9.074-9.074-14.664-21.58-14.664-35.412 0-13.858 5.59-26.338 14.664-35.412 9.073-9.073 21.58-14.663 35.411-14.663 13.859 0 26.339 5.59 35.412 14.663 9.074 9.074 14.665 21.58 14.665 35.412 0 13.39-5.252 25.455-13.78 34.45l-1.82 1.82c-8.996 8.555-21.086 13.807-34.477 13.807-13.831.025-26.311-5.59-35.411-14.665Zm81.561 5.252c.806 0 1.535.285 2.029.728l39.234 34.788c.546.495.755 1.04.755 1.612 0 .52-.182 1.04-.65 1.535l-8.294 8.293c-.494.495-.988.65-1.508.65-.572 0-1.092-.208-1.612-.754l-34.761-39.26a3.166 3.166 0 0 1-.729-2.029c0-.831.312-1.611.806-2.131a62.498 62.498 0 0 0 2.6-2.6c.52-.52 1.3-.832 2.131-.832h-.001Z" fill="#000"/></svg>