<svg width="260" height="260" fill="none" xmlns="http://www.w3.org/2000/svg"><g opacity=".9" fill="#000"><path d="M149.682 82.212c2.703 3.328 1.43 6.032-2.86 6.032h-33.617c-4.29 0-5.59-2.704-2.86-6.032l14.715-17.915c2.73-3.328 7.177-3.328 9.907 0l14.715 17.915Z"/><path fill-rule="evenodd" clip-rule="evenodd" d="M195.285 98.878H65.051c-7.177.025-12.975 5.824-13 13v36.27c.026 7.176 5.823 12.974 13 13h130.234c7.176-.025 12.974-5.824 13-13v-36.27c0-7.202-5.798-13-13-13Zm1.847 51.09a2.513 2.513 0 0 1-1.82.755H65.052c-.702 0-1.327-.286-1.82-.755-.494-.495-.754-1.118-.78-1.845v-36.244c0-.702.286-1.325.78-1.845a2.51 2.51 0 0 1 1.82-.755h130.234c.702 0 1.326.285 1.82.755.495.494.755 1.118.78 1.845v36.27c0 .702-.26 1.325-.754 1.82v-.001Z"/><path d="m135.304 195.338 14.715-17.914c2.73-3.328 1.43-6.031-2.86-6.031h-33.644c-4.29 0-5.563 2.703-2.86 6.031l14.716 17.914c2.755 3.328 7.202 3.328 9.932 0h.001Z"/></g></svg>