<svg width="260" height="260" viewBox="0 0 260 260" fill="none" xmlns="http://www.w3.org/2000/svg"><path d="M134.819 11.53a6.998 6.998 0 0 0-.558-.599c-2.765-2.64-7.172-2.564-9.842.17L91.954 44.338a6.826 6.826 0 0 0 .171 9.73c2.766 2.64 7.172 2.565 9.843-.17l27.613-28.269 29.623 28.282c2.765 2.64 7.172 2.564 9.842-.17a6.826 6.826 0 0 0-.171-9.73l-33.619-32.097a7.045 7.045 0 0 0-.437-.384Z" fill="#000"/><path fill-rule="evenodd" clip-rule="evenodd" d="M60 70C26.863 70 0 96.863 0 130s26.863 60 60 60h140c33.137 0 60-26.863 60-60s-26.863-60-60-60H60Zm0 14c-25.405 0-46 20.595-46 46s20.595 46 46 46h140c25.405 0 46-20.595 46-46s-20.595-46-46-46H60Z" fill="#000"/><path d="M134.261 249.069c.2-.191.386-.391.558-.599.15-.121.295-.249.437-.384l33.619-32.097a6.826 6.826 0 0 0 .171-9.73c-2.67-2.734-7.077-2.81-9.842-.17l-29.623 28.282-27.613-28.27c-2.67-2.734-7.077-2.81-9.843-.17a6.827 6.827 0 0 0-.171 9.731l32.465 33.237c2.67 2.734 7.077 2.81 9.842.17Z" fill="#000"/></svg>