<svg width="260" height="260" viewBox="0 0 260 260" fill="none" xmlns="http://www.w3.org/2000/svg">
<path d="M134.819 21.5302C134.647 21.3224 134.461 21.1224 134.261 20.9314C131.496 18.2913 127.089 18.3673 124.419 21.1012L91.9536 54.3381C89.2831 57.072 89.3601 61.4285 92.1254 64.0686C94.8907 66.7087 99.2972 66.6327 101.968 63.8988L129.581 35.629L159.204 63.9111C161.969 66.5512 166.376 66.4752 169.046 63.7413C171.717 61.0074 171.64 56.6509 168.875 54.0108L135.256 21.9143C135.114 21.7791 134.969 21.6511 134.819 21.5302Z" fill="black"/>
<path fill-rule="evenodd" clip-rule="evenodd" d="M123 122.5V29.5H137V122.5C137 126.366 133.866 129.5 130 129.5C126.134 129.5 123 126.366 123 122.5Z" fill="black"/>
<path fill-rule="evenodd" clip-rule="evenodd" d="M74 99C74 96.2386 76.2386 94 79 94H103V80H70C64.4772 80 60 84.4771 60 90V200C60 205.523 64.4772 210 70 210H190C195.523 210 200 205.523 200 200V90C200 84.4771 195.523 80 190 80H158V94H181C183.761 94 186 96.2386 186 99V191C186 193.761 183.761 196 181 196H79C76.2386 196 74 193.761 74 191V99Z" fill="black"/>
</svg>
