<svg width="260" height="260" viewBox="0 0 260 260" fill="none" xmlns="http://www.w3.org/2000/svg"><path fill-rule="evenodd" clip-rule="evenodd" d="M83 75V47c0-25.957 21.043-47 47-47s47 21.043 47 47v28h29.261a10 10 0 0 1 9.91 8.66l22.298 165.001c.81 6-3.855 11.339-9.91 11.339H31.443c-6.055 0-10.72-5.339-9.91-11.339l22.297-165A10 10 0 0 1 53.74 75H83Zm0 14v44a7 7 0 1 0 14 0V89h66v44a7 7 0 1 0 14 0V89h22.597a5 5 0 0 1 4.959 4.368l18.727 147a5 5 0 0 1-4.96 5.632H41.677a5 5 0 0 1-4.96-5.632l18.727-147A5 5 0 0 1 60.404 89H83Zm80-14H97V47c0-18.225 14.775-33 33-33s33 14.775 33 33v28Z" fill="#000"/></svg>