<svg width="260" height="260" viewBox="0 0 260 260" fill="none" xmlns="http://www.w3.org/2000/svg"><path d="M75 31h110v175H75V31Z" fill="#000"/><path fill-rule="evenodd" clip-rule="evenodd" d="M206 15c0-8.284-6.716-15-15-15H69c-8.284 0-15 6.716-15 15v230c0 8.284 6.716 15 15 15h122c8.284 0 15-6.716 15-15V15Zm-12.517 9c0-5.523-4.477-10-10-10H76.519c-5.523 0-10 4.477-10 10v212c0 5.523 4.477 10 10 10h106.964c5.523 0 10-4.477 10-10V24Z" fill="#000"/><path d="M130.5 235a8.5 8.5 0 1 0-.001-17.001A8.5 8.5 0 0 0 130.5 235Z" fill="#000"/></svg>