<svg width="260" height="260" viewBox="0 0 260 260" fill="none" xmlns="http://www.w3.org/2000/svg">
<path d="M191 5.00001C196.523 5.00001 201 9.47716 201 15L201 245C201 250.523 196.523 255 191 255H69C63.4772 255 59 250.523 59 245L59 15C59 9.47715 63.4772 5 69 5L191 5.00001ZM198.483 24C198.483 15.7157 191.768 9 183.483 9L76.5186 9C68.2343 9 61.5186 15.7157 61.5186 24L61.5186 236C61.5186 244.284 68.2344 251 76.5186 251H183.483C191.768 251 198.483 244.284 198.483 236L198.483 24ZM130.5 230C128.567 230 127 228.433 127 226.5C127 224.567 128.567 223 130.5 223C132.433 223 134 224.567 134 226.5C134 228.433 132.433 230 130.5 230ZM80 36H180V201H80V36Z" stroke="black" stroke-width="10"/>
</svg>
