<svg width="260" height="260" viewBox="0 0 260 260" fill="none" xmlns="http://www.w3.org/2000/svg"><g opacity=".9" fill="#000"><path fill-rule="evenodd" clip-rule="evenodd" d="M176.562 136.226c0 25.868-20.851 46.848-46.56 46.848-25.708-.035-46.559-20.98-46.559-46.883V46.848C83.443 20.98 104.294 0 130.002 0c25.709 0 46.56 20.98 46.56 46.848v89.378ZM107.095 23.834c-5.851 5.887-9.468 13.987-9.468 23.014v89.343c0 9.026 3.582 17.125 9.468 23.048 5.885 5.887 13.936 9.526 22.906 9.526 8.97 0 17.019-3.602 22.906-9.526 5.851-5.922 9.468-14.021 9.468-23.048V46.848c0-8.991-3.581-17.092-9.468-23.014-5.885-5.887-13.936-9.526-22.906-9.526-8.97 0-17.021 3.604-22.906 9.526Z"/><path d="M61.458 175.652c-3.298-6.315-5.177-12.666-5.638-18.624l-.004.004c-.355-4.675-.568-11.953-.639-20.409-.142-8.348-.177-17.732-.177-26.296 0-8.108.03-15.507.06-20.617.021-3.925 3.231-7.073 7.155-7.033a7.1 7.1 0 0 1 7.027 7.146c-.043 6.59-.093 15.344-.093 20.506 0 8.563.036 17.875.143 26.117.107 8.243.319 15.45.639 19.446.248 3.675 1.56 8.312 4.041 13.094 2.483 4.782 6.17 9.704 11.064 14.093 9.822 8.778 24.539 15.665 45.673 15.699 5.177 0 12.021-.285 19.184-1.641 7.128-1.358 14.503-3.783 20.815-7.815 4.22-2.712 7.944-6.066 11.028-10.455 4.078-5.816 7.092-13.451 7.979-24.083.425-5.139.709-13.417.886-22.444.179-9.062.214-18.91.214-27.437 0-3.966-.028-10.181-.058-15.247-.022-3.917 3.125-7.121 7.042-7.16 3.919-.04 7.127 3.1 7.152 7.019.025 3.979.049 9.353.049 15.387 0 8.598-.036 18.517-.213 27.686-.179 9.205-.427 17.589-.923 23.405-1.064 12.774-4.894 23.121-10.531 31.149-5.638 8.028-12.978 13.63-20.638 17.447-12.447 6.173-25.637 7.85-35.602 8.314v32.825h56.976a7.136 7.136 0 0 1 0 14.272H65.898a7.136 7.136 0 0 1 0-14.272h57.047v-32.969c-14.716-1.105-27.02-5.279-36.879-11.274-11.559-7.03-19.68-16.378-24.608-25.833Z"/></g></svg>