<svg width="260" height="260" fill="none" xmlns="http://www.w3.org/2000/svg"><g opacity=".9" fill="#000"><path fill-rule="evenodd" clip-rule="evenodd" d="M164.06 121.317c0 18.85-15.288 34.138-34.138 34.138-18.85-.026-34.138-15.288-34.138-34.164V56.186c0-18.85 15.288-34.138 34.138-34.138 18.85 0 34.138 15.289 34.138 34.139v65.13Zm-50.934-81.9c-4.29 4.29-6.942 10.191-6.942 16.77v65.104c0 6.577 2.626 12.479 6.942 16.796 4.315 4.29 10.218 6.941 16.795 6.941 6.577 0 12.479-2.625 16.795-6.941 4.29-4.316 6.942-10.218 6.942-16.796V56.186a23.57 23.57 0 0 0-6.942-16.77c-4.315-4.29-10.218-6.941-16.795-6.941-6.577 0-12.48 2.626-16.795 6.941Z"/><path d="M79.664 150.047c-2.419-4.602-3.796-9.23-4.134-13.572l-.003.003c-.26-3.406-.416-8.71-.468-14.872-.105-6.083-.13-12.922-.13-19.162 0-10.997.078-20.201.078-20.201l10.4.104s-.025 2.263-.052 5.928c-.026 3.666-.052 8.71-.052 14.17 0 6.24.027 13.026.105 19.032.078 6.007.233 11.258.468 14.17.182 2.678 1.144 6.057 2.964 9.542 1.82 3.485 4.523 7.072 8.111 10.27 7.202 6.396 17.993 11.415 33.489 11.44 3.796 0 8.814-.208 14.066-1.196 5.227-.99 10.634-2.757 15.262-5.695 3.095-1.976 5.825-4.42 8.086-7.618 2.99-4.238 5.2-9.802 5.85-17.55.312-3.745.52-9.777.65-16.355.131-6.603.157-13.78.157-19.993 0-4.603-.027-8.685-.052-11.597 0-2.912-.025-4.68-.025-4.68l10.4-.104s.078 7.123.078 16.38c0 6.265-.027 13.493-.157 20.175-.131 6.707-.312 12.817-.676 17.055-.78 9.309-3.588 16.849-7.722 22.699-4.133 5.85-9.515 9.931-15.132 12.713-9.126 4.498-18.798 5.72-26.104 6.058v23.92h47.008v10.4H77.687v-10.4h47.06v-24.024c-10.79-.806-19.812-3.847-27.04-8.216-8.475-5.122-14.43-11.934-18.043-18.824Z"/></g></svg>