<svg width="260" height="260" viewBox="0 0 260 260" fill="none" xmlns="http://www.w3.org/2000/svg">
<path d="M251.007 53.3506C254.679 53.3507 257.657 56.3275 257.657 60C257.657 63.6727 254.679 66.6503 251.007 66.6504H198.463V127.657H136.852V186.852H77.6572V246.65H10C6.32731 246.65 3.34961 243.673 3.34961 240C3.34983 236.327 6.32744 233.351 10 233.351H64.3564V173.552H123.551V114.357H185.162V53.3506H251.007ZM75.9756 24.8213C77.9369 22.8602 81.1158 22.86 83.0771 24.8213C85.0383 26.7826 85.0382 29.9616 83.0771 31.9229L34.6123 80.3877L69.959 80.3887C72.7327 80.3887 74.9814 82.6374 74.9814 85.4111C74.9811 88.1844 72.7332 90.4323 69.96 90.4326H22.4883C21.0758 90.4326 19.8009 89.8471 18.8896 88.9102C17.9435 87.998 17.3517 86.7163 17.3516 85.2959V37.8242C17.3519 35.051 19.5998 32.8031 22.373 32.8027C25.1468 32.8028 27.3955 35.0514 27.3955 37.8252V73.3994L75.9756 24.8213Z" fill="black" stroke="black" stroke-width="1.3"/>
</svg>
