<svg width="260" height="260" viewBox="0 0 260 260" fill="none" xmlns="http://www.w3.org/2000/svg">
<path d="M10 53.3506C6.32751 53.3507 3.34982 56.3275 3.34961 60C3.34961 63.6727 6.32738 66.6503 10 66.6504H62.5439V127.657H124.155V186.852H183.35V246.65H251.007C254.68 246.65 257.657 243.673 257.657 240C257.657 236.327 254.679 233.351 251.007 233.351H196.65V173.552H137.456V114.357H75.8447V53.3506H10ZM185.031 24.8213C183.07 22.8602 179.891 22.86 177.93 24.8213C175.969 26.7826 175.969 29.9616 177.93 31.9229L226.395 80.3877L191.048 80.3887C188.274 80.3887 186.025 82.6374 186.025 85.4111C186.026 88.1844 188.274 90.4323 191.047 90.4326H238.519C239.931 90.4326 241.206 89.8471 242.117 88.9102C243.063 87.998 243.655 86.7163 243.655 85.2959V37.8242C243.655 35.051 241.407 32.8031 238.634 32.8027C235.86 32.8028 233.611 35.0514 233.611 37.8252V73.3994L185.031 24.8213Z" fill="black" stroke="black" stroke-width="1.3"/>
</svg>
