<svg width="260" height="260" viewBox="0 0 260 260" fill="none" xmlns="http://www.w3.org/2000/svg">
<path d="M251.007 53.999C254.32 53.9991 257.007 56.6854 257.007 59.999C257.007 63.3127 254.32 65.999 251.007 65.999H197.812V127.006H136.201V186.2H77.0068V245.999H10C6.68629 245.999 4 243.313 4 239.999C4 236.685 6.68629 233.999 10 233.999H65.0068V174.2H124.201V115.006H185.812V53.999H251.007Z" fill="black"/>
<path d="M19.2805 88.5011C17.5732 86.7937 17.5732 84.0256 19.2805 82.3181L68.8546 32.7439L31.9393 32.7433C29.5246 32.7432 27.5669 30.7856 27.5669 28.3708C27.5671 25.9563 29.5242 23.9992 31.9387 23.999H79.4101C80.6467 23.999 81.7623 24.5134 82.5575 25.3387C83.3827 26.1339 83.8972 27.2496 83.8972 28.4861V75.9576C83.8969 78.3719 81.9397 80.329 79.5254 80.3293C77.1107 80.3293 75.153 78.3716 75.153 75.9569L75.1523 38.8124L25.4635 88.5011C23.756 90.2084 20.9879 90.2086 19.2805 88.5011Z" fill="black"/>
<path d="M73.8525 75.957V41.9502L26.3828 89.4199C24.1677 91.6348 20.5765 91.6351 18.3613 89.4199C16.1465 87.2048 16.1465 83.6135 18.3613 81.3984L65.7158 34.043H31.9395C28.8068 34.0429 26.2668 31.5037 26.2666 28.3711C26.2669 25.2388 28.8061 22.6995 31.9385 22.6992L31.9387 23.999C29.5242 23.9992 27.5671 25.9563 27.5669 28.3708L27.5723 28.5957C27.6893 30.906 29.6 32.7432 31.9393 32.7433L68.8546 32.7439L19.2805 82.3181L19.125 82.4814C17.5748 84.1977 17.6268 86.8471 19.2805 88.5011C20.9346 90.1553 23.5844 90.207 25.3008 88.6562L25.4635 88.5011L75.1523 38.8124L75.153 75.9569L75.1582 76.1816C75.2752 78.492 77.1861 80.3293 79.5254 80.3293C81.8642 80.329 83.7742 78.4923 83.8916 76.1826L83.8972 75.9576V28.4861C83.8972 27.3269 83.4454 26.2736 82.709 25.4912L82.5575 25.3387C81.812 24.565 80.785 24.0645 79.6406 24.0049L79.4101 23.999L79.4102 22.6992C80.9977 22.6993 82.4318 23.3545 83.459 24.4023C84.5269 25.4317 85.1972 26.8812 85.1973 28.4863V75.958C85.1967 79.09 82.6574 81.6285 79.5254 81.6289C76.3927 81.6289 73.8526 79.0897 73.8525 75.957ZM79.4102 22.6992L79.4101 23.999H31.9387L31.9385 22.6992H79.4102Z" fill="black"/>
</svg>
