<svg width="260" height="260" fill="none" xmlns="http://www.w3.org/2000/svg"><path d="M230.481 78.5v72.502a36.931 36.931 0 0 1-10.819 26.114 36.928 36.928 0 0 1-26.116 10.812h-84.348l-53.72 39.335 8.997-39.335a36.911 36.911 0 0 1-36.906-36.926V78.5a35.487 35.487 0 0 1 35.407-35.517h131.949a35.5 35.5 0 0 1 32.854 21.913 35.48 35.48 0 0 1 2.702 13.604Z" fill="#fff"/><path d="M55.479 231.261a3.993 3.993 0 0 1-3.127-1.505 4.002 4.002 0 0 1-.772-3.383l7.927-34.747a40.987 40.987 0 0 1-35.986-40.624V78.5a39.525 39.525 0 0 1 39.455-39.515h131.949A39.534 39.534 0 0 1 234.41 78.47v72.502a40.984 40.984 0 0 1-40.864 40.954h-83.038l-52.67 38.565c-.685.5-1.511.77-2.36.77Zm7.497-184.28A31.518 31.518 0 0 0 31.498 78.47v72.502a32.99 32.99 0 0 0 32.947 32.957 4.002 4.002 0 0 1 3.899 3.111 3.998 3.998 0 0 1 0 1.777l-6.588 28.879 45.073-33.047a4.004 4.004 0 0 1 2.369-.77l84.358.05a32.984 32.984 0 0 0 32.927-32.927V78.5a31.519 31.519 0 0 0-31.488-31.518H62.975Z" fill="#000"/><path d="M72.692 132.179a15.326 15.326 0 0 1-15.029-18.317 15.32 15.32 0 0 1 12.046-12.038 15.329 15.329 0 0 1 15.73 6.525 15.323 15.323 0 0 1-12.747 23.83Zm0-22.641a7.325 7.325 0 0 0-1.43 14.513 7.322 7.322 0 0 0 7.523-3.115 7.329 7.329 0 0 0 1.234-4.071 7.335 7.335 0 0 0-7.327-7.327Zm112.626 22.641a15.326 15.326 0 0 1-15.04-18.311 15.324 15.324 0 0 1 30.355 2.997 15.338 15.338 0 0 1-15.315 15.314Zm0-22.641a7.326 7.326 0 0 0-5.194 12.504 7.33 7.33 0 0 0 7.986 1.593 7.326 7.326 0 0 0 4.526-6.77 7.337 7.337 0 0 0-7.318-7.327Zm-56.068 21.881a15.323 15.323 0 1 1 15.324-15.324 15.331 15.331 0 0 1-15.324 15.324Zm0-22.641a7.33 7.33 0 0 0-6.77 4.525 7.327 7.327 0 1 0 6.77-4.525Z" fill="#000"/></svg>