<svg width="260" height="260" viewBox="0 0 260 260" fill="none" xmlns="http://www.w3.org/2000/svg">
<path d="M230.481 78.4998V151.002C230.481 155.852 229.526 160.654 227.67 165.135C225.813 169.616 223.092 173.687 219.662 177.116C216.233 180.545 212.161 183.265 207.679 185.12C203.198 186.975 198.396 187.929 193.546 187.928H109.198L55.4786 227.263L64.4752 187.928C59.6269 187.928 54.8262 186.972 50.3473 185.117C45.8684 183.261 41.799 180.54 38.3717 177.111C34.9445 173.682 32.2264 169.611 30.3729 165.131C28.5194 160.651 27.5667 155.85 27.5693 151.002V78.4998C27.5614 69.0969 31.2856 60.0752 37.9242 53.416C44.5627 46.7568 53.5728 43.0046 62.9757 42.9834H194.925C199.593 42.9756 204.217 43.8885 208.532 45.6701C212.847 47.4517 216.768 50.0669 220.071 53.3659C223.373 56.665 225.993 60.5831 227.779 64.8959C229.566 69.2088 230.484 73.8316 230.481 78.4998Z" fill="white"/>
<path d="M55.4787 231.261C54.878 231.261 54.285 231.126 53.7438 230.865C53.2025 230.604 52.727 230.225 52.3524 229.756C51.9779 229.286 51.7139 228.738 51.5802 228.152C51.4466 227.567 51.4465 226.958 51.5802 226.373L59.5072 191.626C49.5869 190.407 40.454 185.605 33.8266 178.124C27.1992 170.642 23.5342 160.997 23.521 151.002V78.4997C23.5236 68.0309 27.6794 57.9908 35.0763 50.5826C42.4732 43.1744 52.5071 39.0034 62.9758 38.9849H194.925C205.393 38.9981 215.428 43.1623 222.83 50.5643C230.232 57.9663 234.397 68.0017 234.41 78.4697V150.972C234.402 161.816 230.097 172.214 222.438 179.89C214.778 187.566 204.389 191.894 193.546 191.926H110.508L57.8378 230.491C57.153 230.991 56.3268 231.261 55.4787 231.261ZM62.9758 46.9818C54.6289 46.9924 46.627 50.3136 40.7257 56.2167C34.8245 62.1198 31.5059 70.1227 31.4979 78.4697V150.972C31.5059 159.708 34.9793 168.085 41.1561 174.264C47.333 180.443 55.7086 183.919 64.4453 183.929C65.0467 183.929 65.6404 184.065 66.1821 184.326C66.7239 184.588 67.1996 184.968 67.5741 185.439C67.9476 185.908 68.2107 186.455 68.3439 187.04C68.4772 187.625 68.4771 188.232 68.3438 188.817L61.7563 217.696L106.829 184.649C107.517 184.147 108.347 183.877 109.198 183.879L193.556 183.929C202.284 183.913 210.65 180.439 216.821 174.267C222.993 168.096 226.467 159.73 226.483 151.002V78.4997C226.483 70.1458 223.166 62.1336 217.262 56.2238C211.358 50.3139 203.349 46.9897 194.995 46.9818H62.9758Z" fill="black"/>
<path d="M72.6923 132.179C69.661 132.179 66.6979 131.28 64.1776 129.596C61.6574 127.911 59.6932 125.518 58.5337 122.717C57.3741 119.916 57.0713 116.834 57.6634 113.862C58.2554 110.889 59.7159 108.158 61.86 106.016C64.0041 103.873 66.7356 102.414 69.7088 101.824C72.6821 101.234 75.7635 101.539 78.5635 102.7C81.3634 103.861 83.756 105.827 85.4387 108.349C87.1213 110.87 88.0184 113.834 88.0164 116.865C88.0137 120.927 86.3981 124.823 83.5245 127.694C80.651 130.566 76.7547 132.179 72.6923 132.179ZM72.6923 109.538C71.2431 109.538 69.8265 109.967 68.6215 110.773C67.4166 111.578 66.4774 112.722 65.9228 114.061C65.3683 115.4 65.2232 116.873 65.5059 118.294C65.7886 119.716 66.4865 121.021 67.5112 122.046C68.5359 123.071 69.8415 123.769 71.2628 124.051C72.6841 124.334 74.1574 124.189 75.4963 123.634C76.8351 123.08 77.9795 122.141 78.7846 120.936C79.5897 119.731 80.0195 118.314 80.0195 116.865C80.0168 114.922 79.244 113.06 77.8704 111.687C76.4969 110.313 74.6348 109.54 72.6923 109.538Z" fill="black"/>
<path d="M185.318 132.179C182.287 132.181 179.323 131.284 176.801 129.601C174.28 127.917 172.314 125.524 171.153 122.724C169.992 119.923 169.687 116.841 170.278 113.868C170.869 110.894 172.329 108.163 174.473 106.019C176.616 103.875 179.348 102.416 182.321 101.825C185.295 101.234 188.377 101.538 191.177 102.699C193.978 103.86 196.371 105.826 198.054 108.347C199.737 110.869 200.635 113.833 200.633 116.865C200.627 120.925 199.012 124.817 196.141 127.688C193.271 130.559 189.378 132.174 185.318 132.179ZM185.318 109.538C183.869 109.536 182.451 109.964 181.245 110.768C180.039 111.572 179.098 112.715 178.542 114.054C177.986 115.393 177.839 116.866 178.121 118.288C178.402 119.71 179.1 121.017 180.124 122.042C181.148 123.068 182.454 123.767 183.875 124.051C185.297 124.334 186.771 124.19 188.11 123.635C189.45 123.081 190.595 122.142 191.4 120.937C192.206 119.732 192.636 118.314 192.636 116.865C192.633 114.924 191.862 113.063 190.49 111.69C189.119 110.317 187.259 109.543 185.318 109.538Z" fill="black"/>
<path d="M129.25 131.419C126.22 131.419 123.257 130.52 120.737 128.837C118.217 127.153 116.253 124.76 115.093 121.959C113.933 119.159 113.629 116.078 114.221 113.106C114.812 110.133 116.271 107.402 118.415 105.259C120.558 103.116 123.288 101.657 126.261 101.065C129.233 100.474 132.315 100.778 135.115 101.937C137.915 103.097 140.308 105.061 141.992 107.581C143.676 110.102 144.574 113.064 144.574 116.095C144.572 120.159 142.956 124.055 140.083 126.928C137.21 129.801 133.314 131.417 129.25 131.419ZM129.25 108.778C127.801 108.778 126.384 109.208 125.179 110.013C123.973 110.819 123.034 111.964 122.48 113.303C121.926 114.643 121.781 116.117 122.065 117.538C122.348 118.96 123.047 120.265 124.073 121.29C125.099 122.314 126.405 123.011 127.827 123.293C129.249 123.574 130.723 123.428 132.061 122.872C133.4 122.316 134.544 121.375 135.348 120.169C136.151 118.962 136.58 117.545 136.578 116.095C136.575 114.154 135.802 112.292 134.428 110.92C133.054 109.549 131.192 108.778 129.25 108.778Z" fill="black"/>
</svg>
