<svg width="260" height="260" fill="none" xmlns="http://www.w3.org/2000/svg"><g opacity=".9" fill="#000"><path d="M176.826 98.175H79.508v10.4h97.318v-10.4Zm0 66.535H79.508v10.4h97.318v-10.4Zm-97.318-44.356h83.434v10.4H79.508v-10.4Zm92.118 22.178H79.508v10.4h92.118v-10.4ZM48.125 54.236a5.2 5.2 0 1 0 .001-10.399 5.2 5.2 0 0 0 0 10.4Zm20.67-5.2a5.2 5.2 0 1 1-10.399.001 5.2 5.2 0 0 1 10.4 0Zm10.27 5.2a5.2 5.2 0 1 0 .001-10.399 5.2 5.2 0 0 0 0 10.4Z"/><path fill-rule="evenodd" clip-rule="evenodd" d="M40.43 212.914H221.7c7.176-.026 12.974-5.824 13-13V43.186c-.025-7.177-5.823-12.974-13-13H40.43c-7.177.026-12.974 5.824-13 13v156.728c.026 7.176 5.824 12.973 13 13Zm183.118-11.179a2.65 2.65 0 0 1-1.82.78H40.43c-.702 0-1.327-.286-1.82-.78a2.654 2.654 0 0 1-.78-1.82V67.34H224.3v132.575c0 .702-.259 1.325-.753 1.82ZM38.61 41.367a2.651 2.651 0 0 1 1.82-.78H221.7c.702 0 1.326.286 1.82.78.495.493.755 1.118.78 1.82V56.94H37.83V43.187c0-.702.286-1.327.78-1.82Z"/></g></svg>