<svg width="260" height="260" viewBox="0 0 260 260" fill="none" xmlns="http://www.w3.org/2000/svg"><g opacity=".9" fill="#000"><path d="M32 69a7 7 0 1 0 0-14 7 7 0 0 0 0 14Zm31-7a7 7 0 1 1-14 0 7 7 0 0 1 14 0Zm17 7a7 7 0 1 0 0-14 7 7 0 0 0 0 14Zm-18 44a7 7 0 1 0 0 14h136a7 7 0 1 0 0-14H62Zm-7 39a7 7 0 0 1 7-7h96a7 7 0 1 1 0 14H62a7 7 0 0 1-7-7Zm7 25a7 7 0 1 0 0 14h136a7 7 0 1 0 0-14H62Z"/><path fill-rule="evenodd" clip-rule="evenodd" d="M0 45c0-5.523 4.477-10 10-10h240c5.523 0 10 4.477 10 10v170c0 5.523-4.477 10-10 10H10c-5.523 0-10-4.477-10-10V45Zm246 9v21H14V54a5 5 0 0 1 5-5h222a5 5 0 0 1 5 5ZM14 206V89h232v117a5 5 0 0 1-5 5H19a5 5 0 0 1-5-5Z"/></g></svg>