<svg width="260" height="260" viewBox="0 0 260 260" fill="none" xmlns="http://www.w3.org/2000/svg">
<path d="M200.001 139.941C208.194 139.161 213.164 135.688 213.164 122.961C213.164 110.399 204.41 105.526 193.321 105.526H143.713C143.713 93.6813 144.882 88.7739 153.052 70.3981C156.95 61.633 164.132 44.5361 160.639 34.9478C156.889 24.6524 155.417 21 146.049 21C128.541 21.0002 134.375 43.0459 120.954 55.288C115.856 59.9386 116.285 61.6802 105.78 70.3981C93.7028 80.4213 74.2656 118.312 74.2656 118.312L41 135.746M200.001 139.941C198.467 140.086 196.819 140.138 195.07 140.138C195.07 140.138 197.111 139.84 200.001 139.941ZM200.001 139.941C207.007 140.183 219 142.761 219 157.573C219 166.29 213.164 174.103 204.41 174.103H190.985C195.265 174.49 214.331 171.813 213.164 192.701C212.447 205.523 200.316 206.6 196.677 206.634M196.677 206.634C196.032 206.64 195.654 206.613 195.654 206.613M196.677 206.634C196.348 206.62 196.007 206.613 195.654 206.613M196.677 206.634C205.812 207.017 205.828 212.593 206.161 216.27C206.634 221.501 207.328 226.731 202.075 231.962C196.823 237.192 183.402 236.575 170.563 237.995C150.134 240.256 120.954 237.995 120.954 237.995C120.954 237.995 84.1869 226.73 64.9279 215.688H41M195.654 206.613H188.067" stroke="black" stroke-width="12" stroke-linecap="round" stroke-linejoin="round"/>
</svg>
