<svg width="260" height="260" viewBox="0 0 260 260" fill="none" xmlns="http://www.w3.org/2000/svg">
<path d="M59.9988 120.059C51.8055 120.839 46.836 124.312 46.8361 137.039C46.8362 149.601 55.5903 154.474 66.6789 154.474L116.287 154.474C116.287 166.319 115.118 171.226 106.948 189.602C103.05 198.367 95.8681 215.464 99.3607 225.052C103.111 235.348 104.583 239 113.951 239C131.459 239 125.625 216.954 139.046 204.712C144.144 200.061 143.715 198.32 154.22 189.602C166.297 179.579 185.734 141.688 185.734 141.688L219 124.254M59.9988 120.059C61.5333 119.914 63.1808 119.862 64.93 119.862C64.93 119.862 62.8888 120.16 59.9988 120.059ZM59.9988 120.059C52.9934 119.817 41 117.239 41 102.427C41 93.7099 46.8361 85.897 55.5902 85.897H69.0152C64.7354 85.5096 45.6689 88.1867 46.8361 67.2988C47.5526 54.4774 59.6839 53.4 63.3227 53.3663M63.3227 53.3663C63.9681 53.3604 64.3464 53.3872 64.3464 53.3872M63.3227 53.3663C63.6519 53.3801 63.993 53.3872 64.3464 53.3872M63.3227 53.3663C54.1878 52.9828 54.1724 47.4068 53.8394 43.7298C53.3656 38.4993 52.6722 33.2689 57.9246 28.0385C63.1771 22.808 76.598 23.4252 89.4373 22.0046C109.866 19.7443 139.046 22.0046 139.046 22.0046C139.046 22.0046 175.813 33.2697 195.072 44.3118H219M64.3464 53.3872H71.9333" stroke="black" stroke-width="12" stroke-linecap="round" stroke-linejoin="round"/>
</svg>
