<svg width="260" height="260" viewBox="0 0 260 260" fill="none" xmlns="http://www.w3.org/2000/svg"><g opacity=".9" fill="#000"><path d="M76 103a7 7 0 1 1 14 0v16a7 7 0 1 1-14 0v-16Zm7 31a7 7 0 0 0-7 7v16a7 7 0 1 0 14 0v-16a7 7 0 0 0-7-7Z"/><path fill-rule="evenodd" clip-rule="evenodd" d="M257 50H3a3 3 0 0 0-3 3v41a3 3 0 0 0 3 3h4c18.225 0 33 14.775 33 33s-14.775 33-33 33H3a3 3 0 0 0-3 3v41a3 3 0 0 0 3 3h254a3 3 0 0 0 3-3v-41a3 3 0 0 0-3-3h-4c-18.225 0-33-14.775-33-33s14.775-33 33-33h4a3 3 0 0 0 3-3V53a3 3 0 0 0-3-3Zm-11 33.518V64H90v16a7 7 0 1 1-14 0V64H14v19.518C36.637 86.898 54 106.42 54 130s-17.363 43.102-40 46.482V196h62v-16a7 7 0 1 1 14 0v16h156v-19.518c-22.637-3.38-40-22.903-40-46.482s17.363-43.102 40-46.482Z"/></g></svg>