<svg width="260" height="260" fill="none" xmlns="http://www.w3.org/2000/svg"><path d="m93.474 153.781-5.508-1.61a14.9 14.9 0 0 1-10.146-18.462 14.843 14.843 0 0 1 5.678-7.997" fill="#fff"/><path d="m93.474 153.781-5.508-1.61a14.9 14.9 0 0 1-10.146-18.462v0a14.843 14.843 0 0 1 5.678-7.997" stroke="#000" stroke-width="8" stroke-linecap="round" stroke-linejoin="round"/><path d="m99.961 133.349-15.124-4.499a15.84 15.84 0 0 1-11.251-13.561 15.855 15.855 0 0 1 .575-6.161 15.798 15.798 0 0 1 6.208-8.537" fill="#fff"/><path d="m99.961 133.349-15.124-4.499a15.84 15.84 0 0 1-11.251-13.561 15.855 15.855 0 0 1 .575-6.161v0a15.798 15.798 0 0 1 6.208-8.537" stroke="#000" stroke-width="8" stroke-linecap="round" stroke-linejoin="round"/><path d="m171.434 252.503 16.354-97.842-20.212-75.971a11.618 11.618 0 0 0-10.826-7.387H86.597a15.334 15.334 0 0 0-15.134 12.825v0a15.334 15.334 0 0 0 12.675 17.603l55.658 7.867" stroke="#000" stroke-width="8" stroke-linecap="round" stroke-linejoin="round"/><path d="M94.115 45.932h-1.95m63.116 0h-1.89" stroke="#fff" stroke-width="5" stroke-miterlimit="10"/><path d="M90.115 121.043a6.504 6.504 0 0 1-6.497-6.497V16.504h34.396l.61.37a9.696 9.696 0 0 0 10.266 0l.61-.37h34.437v98.042a6.507 6.507 0 0 1-6.498 6.497H90.115Z" fill="#fff"/><path d="M161.388 18.993v95.543a3.998 3.998 0 0 1-3.999 3.998H90.115a3.998 3.998 0 0 1-3.998-3.998V18.993h31.188a12.225 12.225 0 0 0 12.895 0h31.188Zm4.998-4.998H128.79l-1.209.74a7.197 7.197 0 0 1-7.647 0l-1.21-.74H81.119v100.551a8.995 8.995 0 0 0 8.996 8.996h67.274a8.994 8.994 0 0 0 8.997-8.996V13.995Z" fill="#fff"/><path d="M140.476 7.997a16.715 16.715 0 0 1-28.532 11.818 16.715 16.715 0 0 1-4.895-11.818H90.115v106.549h67.274V7.996h-16.913Z" fill="#fff" stroke="#000" stroke-width="8" stroke-linecap="round" stroke-linejoin="round"/><path d="M155.28 45.932h-8.996" stroke="#000" stroke-width="8" stroke-linecap="round" stroke-linejoin="round"/><path d="M131.249 45.932h-22.561" stroke="#000" stroke-width="8" stroke-linecap="round" stroke-linejoin="round" stroke-dasharray="15.05 15.05"/><path d="M101.171 45.932h-8.997" stroke="#000" stroke-width="8" stroke-linecap="round" stroke-linejoin="round"/><path d="m137.617 177.752-6.128-21.992 3.259-44.753a16.81 16.81 0 0 0-14.394-17.843 16.802 16.802 0 0 0-18.923 13.705l-15.234 85.797 6.587 59.837" fill="#fff"/><path d="m137.617 177.752-6.128-21.992 3.259-44.753a16.81 16.81 0 0 0-14.394-17.843 16.802 16.802 0 0 0-18.923 13.705l-15.234 85.797 6.587 59.837" stroke="#000" stroke-width="8" stroke-linecap="round" stroke-linejoin="round"/></svg>