<svg width="260" height="268" viewBox="0 0 260 268" fill="none" xmlns="http://www.w3.org/2000/svg">
<path d="M72 180C68.134 180 65 183.134 65 187C65 190.866 68.134 194 72 194H88C91.866 194 95 190.866 95 187C95 183.134 91.866 180 88 180H72Z" fill="black"/>
<path d="M72 180C68.134 180 65 183.134 65 187C65 190.866 68.134 194 72 194H88C91.866 194 95 190.866 95 187C95 183.134 91.866 180 88 180H72Z" fill="black" fill-opacity="0.2"/>
<path d="M165 187C165 183.134 168.134 180 172 180H188C191.866 180 195 183.134 195 187C195 190.866 191.866 194 188 194H172C168.134 194 165 190.866 165 187Z" fill="black"/>
<path d="M165 187C165 183.134 168.134 180 172 180H188C191.866 180 195 183.134 195 187C195 190.866 191.866 194 188 194H172C168.134 194 165 190.866 165 187Z" fill="black" fill-opacity="0.2"/>
<path fill-rule="evenodd" clip-rule="evenodd" d="M30 15C30 6.71573 36.7157 0 45 0H215C223.284 0 230 6.71573 230 15V205C230 213.284 223.284 220 215 220H192.164L221.466 256.627C223.881 259.646 223.392 264.051 220.373 266.466C217.354 268.881 212.949 268.392 210.534 265.373L195.246 246.263C194.69 246.417 194.105 246.5 193.5 246.5H64.5644L49.4661 265.373C47.051 268.392 42.646 268.881 39.6271 266.466C36.6083 264.051 36.1189 259.646 38.5339 256.627L67.8356 220H45C36.7157 220 30 213.284 30 205V15ZM74.9644 233.5H185.036L174.534 220.373C174.436 220.251 174.343 220.126 174.255 220H85.7449C85.6567 220.126 85.5638 220.251 85.4661 220.373L74.9644 233.5ZM216 18.6288V26H44V18.6288C44 15.8674 46.2386 13.6288 49 13.6288H211C213.761 13.6288 216 15.8674 216 18.6288ZM44 151V40H216V151H44ZM44 165V201.372C44 204.134 46.2386 206.372 49 206.372H211C213.761 206.372 216 204.134 216 201.372V165H44Z" fill="black"/>
<path fill-rule="evenodd" clip-rule="evenodd" d="M30 15C30 6.71573 36.7157 0 45 0H215C223.284 0 230 6.71573 230 15V205C230 213.284 223.284 220 215 220H192.164L221.466 256.627C223.881 259.646 223.392 264.051 220.373 266.466C217.354 268.881 212.949 268.392 210.534 265.373L195.246 246.263C194.69 246.417 194.105 246.5 193.5 246.5H64.5644L49.4661 265.373C47.051 268.392 42.646 268.881 39.6271 266.466C36.6083 264.051 36.1189 259.646 38.5339 256.627L67.8356 220H45C36.7157 220 30 213.284 30 205V15ZM74.9644 233.5H185.036L174.534 220.373C174.436 220.251 174.343 220.126 174.255 220H85.7449C85.6567 220.126 85.5638 220.251 85.4661 220.373L74.9644 233.5ZM216 18.6288V26H44V18.6288C44 15.8674 46.2386 13.6288 49 13.6288H211C213.761 13.6288 216 15.8674 216 18.6288ZM44 151V40H216V151H44ZM44 165V201.372C44 204.134 46.2386 206.372 49 206.372H211C213.761 206.372 216 204.134 216 201.372V165H44Z" fill="black" fill-opacity="0.2"/>
</svg>
