<svg width="260" height="260" viewBox="0 0 260 260" fill="none" xmlns="http://www.w3.org/2000/svg"><path d="M65 188a7 7 0 0 1 7-7h16a7 7 0 1 1 0 14H72a7 7 0 0 1-7-7Zm107-7a7 7 0 1 0 0 14h16a7 7 0 1 0 0-14h-16Z" fill="#000"/><path fill-rule="evenodd" clip-rule="evenodd" d="M45 0c-8.284 0-15 6.716-15 15v20H17C8.716 35 2 41.716 2 50v24c0 8.284 6.716 15 15 15h13v122c0 8.284 6.716 15 15 15h5v12c0 12.15 9.85 22 22 22s22-9.85 22-22v-12h72v12c0 12.15 9.85 22 22 22s22-9.85 22-22v-12h5c8.284 0 15-6.716 15-15V89h13c8.284 0 15-6.716 15-15V50c0-8.284-6.716-15-15-15h-13V15c0-8.284-6.716-15-15-15H45ZM30 75V49H19a3 3 0 0 0-3 3v20a3 3 0 0 0 3 3h11Zm211 0h-11V49h11a3 3 0 0 1 3 3v20a3 3 0 0 1-3 3Zm-61 151v12a8 8 0 0 0 16 0v-12h-16ZM64 238v-12h16v12a8 8 0 0 1-16 0ZM216 35V19a5 5 0 0 0-5-5H49a5 5 0 0 0-5 5v16h172ZM44 49v108h172V49H44Zm0 158v-36h172v36a5 5 0 0 1-5 5H49a5 5 0 0 1-5-5Z" fill="#000"/></svg>