<svg width="260" height="264" viewBox="0 0 260 264" fill="none" xmlns="http://www.w3.org/2000/svg">
<path d="M20 187H97.5V173H29C20.7157 173 14 166.284 14 158V29C14 20.7157 20.7157 14 29 14H127C135.284 14 142 20.7157 142 29V42H156V20C156 8.9543 147.046 0 136 0H20C8.9543 0 0 8.95431 0 20V167C0 178.046 8.9543 187 20 187Z" fill="black"/>
<path d="M0 43H140L135.105 57H0V43Z" fill="black"/>
<path d="M47 176V6H61V176H47Z" fill="black"/>
<path d="M95 182.5V4H109V144L95 182.5Z" fill="black"/>
<path d="M0 88H138V102H0V88Z" fill="black"/>
<path d="M0 131H108V145H0V131Z" fill="black"/>
<path d="M163.53 118C163.678 102.745 164.03 60.4503 164.03 56.0002C164.03 46.5 161.53 38.9999 148.53 39C137.723 39.0001 133.53 46.5001 133.53 56.0002V131.5M163.53 118C163.466 124.685 163.53 123.575 163.53 128.501M163.53 118C163.595 111.315 168.036 104.134 179.03 104.5C194.03 105 194.53 115.5 194.53 124.5V131M194.53 131V135.5M194.53 131C194.864 127.333 197.646 116.079 212.531 118C228.031 120 226.531 137 226.531 137M226.531 137C226.031 140 226.031 141.5 226.031 141.5M226.531 137C227.531 131 233.904 127.51 242.031 128.501C249.743 129.441 255.031 138.5 253.031 148.5C249.531 181.5 247.531 185 247.531 185C247.531 185 242.531 216.5 233.03 236.5C231.752 238.5 228.332 241.667 225.531 243L223 257.5M133.53 164V131.5M133.53 131.5H114.53C113.03 131.667 109.83 132.7 109.03 135.5C108.23 138.3 105.03 154.167 101.53 169C98.03 183.833 101.331 186.5 103.531 192C105.732 197.5 111.53 210.5 124.031 231C131.044 242.5 140.031 243 140.031 243L142.5 257.5" stroke="black" stroke-width="12" stroke-linecap="round" stroke-linejoin="round"/>
</svg>
