<svg width="260" height="260" viewBox="0 0 260 260" fill="none" xmlns="http://www.w3.org/2000/svg"><path fill-rule="evenodd" clip-rule="evenodd" d="M20 187h59.523c.178.586.41 1.159.698 1.712l34.291 65.904a9.971 9.971 0 0 0 8.852 5.384h100.343c3.536 0 6.769-.454 9.701-1.544 2.206-.818 4.23-2 5.923-3.515 2.568-2.272 4.351-5.121 5.621-8.12 1.268-3.029 2.115-6.301 2.84-9.875.997-4.999 2.206-12.603 3.505-21.571 1.934-13.421 4.019-29.841 5.681-44.443.816-7.301 1.541-14.148 2.086-19.965.513-5.816.877-10.572.936-13.875-.014-.258-.021-.671-.028-1.07a21.893 21.893 0 0 0-.032-1.051v-.004c-.091-2.756-.695-5.362-1.813-7.665-1.813-3.787-4.865-6.574-8.219-8.271-3.353-1.726-7.01-2.453-10.667-2.484-3.444 0-6.89.728-10.092 2.181-.302-1.272-.725-2.514-1.3-3.635-1.842-3.847-4.925-6.665-8.309-8.422-3.385-1.758-7.132-2.576-10.818-2.576-3.354 0-6.739.728-9.881 2.151-.302-1.152-.696-2.302-1.209-3.333-1.873-3.847-4.955-6.694-8.339-8.452-3.415-1.787-7.161-2.605-10.909-2.605-3.051 0-6.164.577-9.065 1.758V53.69c0-3.12-.665-6.06-1.904-8.604-1.873-3.847-4.955-6.694-8.341-8.482A22.175 22.175 0 0 0 156 35.28V20c0-11.046-8.954-20-20-20H20C8.954 0 0 8.954 0 20v147c0 11.046 8.954 20 20 20Zm-6-42v13c0 8.284 6.716 15 15 15h18v-28H14Zm47 0v28h22.073L95 146.093V145H61Zm34-14H61v-29h34v29Zm-48 0v-29H14v29h33Zm14-43h34V57H61v31Zm48 35.946V102h18.012v21.64h-15.553c-.842 0-1.666.105-2.459.306ZM109 88h18.012V57H109v31Zm-95 0h33V57H14v31Zm95-45h21.09a18.457 18.457 0 0 1 3.903-4.273c2.42-1.913 5.159-3.204 8.007-3.947V29c0-8.284-6.716-15-15-15h-18v29ZM95 14H61v29h34V14Zm-48 0v29H14V29c0-8.284 6.716-15 15-15h18Zm200.882 121.966v.849c-.09 3.665-.633 10.634-1.481 19.055-1.269 12.694-3.203 28.872-5.166 43.656-1.965 14.754-3.958 28.175-5.349 35.052-.544 2.787-1.148 5.09-1.842 6.877-.514 1.332-1.058 2.363-1.602 3.12-.846 1.152-1.602 1.758-2.81 2.333-1.239.545-3.113.969-5.923.969h-96.081c-1.865 0-3.541-1.038-4.402-2.692l-30.698-59.006a5 5 0 0 1-.136-4.334l19.101-43.088a5 5 0 0 1 4.571-2.974h10.949v36.372a6.042 6.042 0 0 0 6.044 6.042c3.338 0 6.043-2.646 6.043-5.983V53.689c0-1.424.273-2.455.695-3.303.605-1.273 1.602-2.243 3.082-3.03 1.451-.757 3.354-1.241 5.288-1.212 2.598 0 5.077.818 6.618 2.091.784.636 1.359 1.334 1.752 2.181.424.849.696 1.879.696 3.303v66.963a6.042 6.042 0 0 0 6.043 6.043 6.041 6.041 0 0 0 6.044-6.04v-9.108c0-1.424.272-2.453.695-3.302.604-1.272 1.602-2.241 3.082-3.029 1.45-.758 3.353-1.242 5.288-1.212 2.599 0 5.076.818 6.618 2.09.786.635 1.36 1.332 1.753 2.181.422.848.695 1.878.695 3.302v16.132a6.044 6.044 0 0 0 12.087.002v-4.016c0-1.363.273-2.363.695-3.181.605-1.212 1.631-2.212 3.113-2.999 1.481-.787 3.444-1.241 5.379-1.241 2.599 0 5.046.817 6.557 2.029.755.606 1.329 1.303 1.722 2.121.393.848.664 1.847.664 3.272v10.256a6.043 6.043 0 0 0 6.044 6.043h1.862a4.181 4.181 0 0 0 4.181-4.181c0-1.241.242-2.091.665-2.878.604-1.151 1.662-2.181 3.233-2.969 1.571-.788 3.596-1.272 5.59-1.241 2.568 0 4.986.787 6.375 1.938a5.752 5.752 0 0 1 1.631 1.999c.363.788.634 1.757.634 3.181v.091l.001.001Z" fill="#000"/></svg>