<svg width="260" height="260" fill="none" xmlns="http://www.w3.org/2000/svg"><path d="M151.953 9.996h-42.194V52.19h42.194V9.996Zm0 42.194h-42.194v42.194h42.194V52.19Zm0 42.194h-42.194v42.194h42.194V94.384Z" stroke="#000" stroke-width="7" stroke-linecap="round" stroke-linejoin="round"/><path d="m133.5 235.13 1.109-19.523c-20.262-14.424-22.991-29.938-25.99-46.332l-.37-2.069c-.169-1-.339-1.919-.519-2.899-2.07-11.266-4.219-26.54-2.749-35.376.19-1.11.759-4.469 13.495-23.271l.179-.27.08-.1a14.893 14.893 0 0 1 14.645-5.578l1.139-55.829a17.895 17.895 0 0 1 17.933-17.853 17.893 17.893 0 0 1 17.854 17.933l.699 45.533a19.364 19.364 0 0 1 20.752 4.718 18.313 18.313 0 0 1 10.886-3.558h.18a18.422 18.422 0 0 1 16.284 9.996 18.328 18.328 0 0 1 22.663 4.305 18.34 18.34 0 0 1 3.777 7.33l.08.29c1.919 7.567 1.999 7.807 2.579 12.645v.11c.13 1 .28 2.229.489 3.809a2.97 2.97 0 0 1 0 .499c2.909 46.463 1.51 69.354-14.684 89.096v16.384l-100.511.01Z" fill="#fff"/><path d="M152.462 28.849a15.465 15.465 0 0 1 15.395 15.134l.759 49.51a16.883 16.883 0 0 1 22.901 4.22 15.906 15.906 0 0 1 11.176-4.58h.16a15.995 15.995 0 0 1 15.144 11.237 15.85 15.85 0 0 1 14.943-2.57 15.856 15.856 0 0 1 10.268 11.156l.089.33c1.89 7.427 1.92 7.577 2.51 12.295.129 1 .289 2.29.509 3.939.005.09.005.18 0 .27 2.999 47.572 1.35 68.973-14.694 88.096v14.784h-95.473l.999-18.273c-20.992-14.454-23.261-29.888-26.3-46.902-.209-1.179-.419-2.379-.649-3.608-1.66-8.997-4.229-25.55-2.739-34.507.55-3.239 7.437-13.925 13.125-22.321.043-.069.09-.136.14-.2a12.424 12.424 0 0 1 14.334-4.049l.77.32 1.239-59.147a15.486 15.486 0 0 1 15.394-15.084v-.05Zm0-4.948a20.502 20.502 0 0 0-20.392 19.992l-1.079 53.07h-.37a17.365 17.365 0 0 0-13.815 6.817l-.06.08v.07c-.07.1-.17.23-.27.39-12.995 19.212-13.604 22.711-13.854 24.2-1.54 9.217.649 24.801 2.749 36.246.179 1 .349 1.93.509 2.859l.13.73.25 1.379c2.819 15.884 5.738 32.288 25.83 47.112l-.889 15.524-.3 5.278H236.67v-17.993c16.184-20.212 17.603-43.503 14.684-90.095v-.71c-.19-1.449-.339-2.599-.459-3.538v-.37c-.62-4.938-.69-5.298-2.629-12.895v-.09l-.08-.29a20.846 20.846 0 0 0-10.754-13.465 20.83 20.83 0 0 0-17.216-.76 20.987 20.987 0 0 0-17.273-9.286h-.2a20.832 20.832 0 0 0-10.616 2.879 21.99 21.99 0 0 0-14.224-5.268 22.612 22.612 0 0 0-4.359.43l-.639-42.274a20.493 20.493 0 0 0-20.393-20.072l-.05.05Z" fill="#fff"/><path d="M139.157 147.393v-32.937a8.505 8.505 0 0 0-5.488-7.997 8.478 8.478 0 0 0-9.736 2.759s-11.996 17.673-12.485 20.732c-1.19 7.117.44 20.722 2.719 33.127 3.488 18.993 4.258 34.127 27.119 49.171l-2.139 40.755" fill="#fff"/><path d="M139.157 147.393v-32.937a8.505 8.505 0 0 0-5.488-7.997v0a8.478 8.478 0 0 0-9.736 2.759s-11.996 17.673-12.485 20.732c-1.19 7.117.44 20.722 2.719 33.127 3.488 18.993 4.258 34.127 27.119 49.171l-2.139 40.755" stroke="#000" stroke-width="8" stroke-linecap="round" stroke-linejoin="round"/><path d="m227.713 253.003-.11-36.626c16.124-18.533 17.653-39.375 14.715-86.377-1.17-8.837-.63-6.737-2.939-15.774l-.08-.32a11.836 11.836 0 0 0-16.301-7.921 11.849 11.849 0 0 0-6.449 7.154 11.86 11.86 0 0 0-.521 4.896l-.34-.2-.57-5.478-.46-4.468a11.994 11.994 0 0 0-11.835-10.736 11.993 11.993 0 0 0-11.182 7.379 11.995 11.995 0 0 0-.924 4.616v6.807-8.336a12.885 12.885 0 0 0-12.865-12.855 12.886 12.886 0 0 0-12.895 12.895v8.296l-1.099-71.902a11.4 11.4 0 0 0-19.37-7.97 11.39 11.39 0 0 0-3.422 7.9l-1.909 94.284v9.096" fill="#fff"/><path d="m227.713 253.003-.11-36.626c16.124-18.533 17.653-39.375 14.715-86.377-1.17-8.837-.63-6.737-2.939-15.774l-.08-.32a11.836 11.836 0 0 0-11.486-8.946v0a11.854 11.854 0 0 0-11.785 13.075v0l-.34-.2-.57-5.478-.46-4.468a11.994 11.994 0 0 0-11.835-10.736v0a11.991 11.991 0 0 0-11.182 7.379 11.995 11.995 0 0 0-.924 4.616v6.807-8.336a12.885 12.885 0 0 0-12.865-12.855v0a12.886 12.886 0 0 0-12.895 12.895v8.296l-1.099-71.902a11.4 11.4 0 0 0-19.37-7.97 11.39 11.39 0 0 0-3.422 7.9l-1.909 94.284v9.096" stroke="#000" stroke-width="8" stroke-linecap="round" stroke-linejoin="round"/><path d="M67.565 9.996H25.37V52.19h42.194V9.996Zm42.194 0H67.565V52.19h42.194V9.996ZM67.565 52.19H25.37v42.194h42.194V52.19Zm42.194 0H67.565v42.194h42.194V52.19ZM67.565 94.384H25.37v42.194h42.194V94.384Zm42.194 0H67.565v42.194h42.194V94.384Z" stroke="#000" stroke-width="7" stroke-linecap="round" stroke-linejoin="round"/></svg>