<svg width="260" height="260" viewBox="0 0 260 260" fill="none" xmlns="http://www.w3.org/2000/svg"><path d="M129.998 201.74a7 7 0 0 1-7-7V82.241l-42.05 42.051a7.001 7.001 0 0 1-9.9-9.9l53.74-53.74a6.981 6.981 0 0 1 5.08-2.05 6.98 6.98 0 0 1 5.08 2.05l53.74 53.74a7 7 0 1 1-9.9 9.9l-41.79-41.79V194.74a7 7 0 0 1-7 7Z" fill="#000"/><path fill-rule="evenodd" clip-rule="evenodd" d="M0 130c0 71.797 58.203 130 130 130s130-58.203 130-130S201.797 0 130 0 0 58.203 0 130Zm14 0c0 64.065 51.935 116 116 116s116-51.935 116-116S194.065 14 130 14 14 65.935 14 130Z" fill="#000"/></svg>