<svg width="260" height="260" viewBox="0 0 260 260" fill="none" xmlns="http://www.w3.org/2000/svg">
<path d="M130.299 18.9927C131.571 18.9869 132.831 19.234 134.007 19.7197C135.182 20.2053 136.249 20.9198 137.146 21.8216L219.864 105.319C220.836 106.292 221.608 107.446 222.134 108.716C222.66 109.986 222.93 111.347 222.93 112.722C222.93 114.096 222.66 115.458 222.134 116.728C221.608 117.998 220.836 119.152 219.864 120.124C218.892 121.096 217.738 121.867 216.468 122.393C215.198 122.919 213.837 123.19 212.462 123.19C211.088 123.19 209.726 122.919 208.456 122.393C207.186 121.867 206.032 121.096 205.06 120.124L140.145 54.9788V231.181C140.145 233.8 139.105 236.312 137.252 238.165C135.4 240.017 132.888 241.057 130.269 241.057C127.65 241.057 125.137 240.017 123.285 238.165C121.433 236.312 120.393 233.8 120.393 231.181V54.9788L55.4176 120.144C53.4545 122.107 50.7918 123.21 48.0155 123.21C45.2391 123.21 42.5765 122.107 40.6133 120.144C38.6502 118.181 37.5473 115.518 37.5473 112.742C37.5473 109.965 38.6502 107.303 40.6133 105.339L123.531 21.8316C124.417 20.9362 125.471 20.2245 126.632 19.7374C127.793 19.2502 129.039 18.9971 130.299 18.9927ZM130.299 10.9958C127.973 10.99 125.669 11.4475 123.522 12.3417C121.375 13.2359 119.428 14.5488 117.794 16.2037L34.8755 99.6816C32.3014 102.268 30.5513 105.558 29.8461 109.138C29.141 112.718 29.5124 116.427 30.9135 119.796C32.3146 123.165 34.6825 126.044 37.7184 128.068C40.7542 130.092 44.3217 131.171 47.9705 131.17C50.3839 131.173 52.7742 130.699 55.0042 129.776C57.2342 128.853 59.26 127.499 60.9655 125.792L112.276 74.3014V231.161C112.276 233.508 112.738 235.832 113.636 238.001C114.534 240.169 115.851 242.14 117.511 243.799C119.17 245.459 121.141 246.775 123.309 247.674C125.478 248.572 127.802 249.034 130.149 249.034C132.496 249.034 134.82 248.572 136.989 247.674C139.157 246.775 141.127 245.459 142.787 243.799C144.447 242.14 145.763 240.169 146.662 238.001C147.56 235.832 148.022 233.508 148.022 231.161V74.3014L199.312 125.772C201.116 127.573 203.272 128.981 205.647 129.908C208.021 130.834 210.561 131.259 213.108 131.156C215.654 131.053 218.152 130.423 220.443 129.307C222.735 128.192 224.77 126.613 226.422 124.672C229.399 121.131 230.947 116.606 230.762 111.983C230.578 107.361 228.673 102.973 225.422 99.6816L142.814 16.1938C141.179 14.5385 139.229 13.2262 137.08 12.3336C134.931 11.4411 132.626 10.9862 130.299 10.9958Z" fill="black"/>
</svg>
