<svg width="260" height="260" fill="none" xmlns="http://www.w3.org/2000/svg"><path d="M130.299 18.993a9.597 9.597 0 0 1 6.847 2.829l82.718 83.497a10.467 10.467 0 0 1-3.396 17.074 10.468 10.468 0 0 1-11.408-2.269l-64.915-65.145V231.18a9.876 9.876 0 1 1-19.752 0V54.979l-64.975 65.165a10.469 10.469 0 0 1-14.805-14.805l82.918-83.507a9.573 9.573 0 0 1 6.768-2.84Zm0-7.997a17.514 17.514 0 0 0-12.505 5.208L34.876 99.682A18.463 18.463 0 0 0 47.97 131.17a18.333 18.333 0 0 0 12.995-5.378l51.31-51.49V231.16a17.88 17.88 0 0 0 5.235 12.638 17.878 17.878 0 0 0 12.638 5.235 17.88 17.88 0 0 0 12.638-5.235 17.878 17.878 0 0 0 5.235-12.638V74.301l51.29 51.471a18.471 18.471 0 0 0 13.796 5.384 18.455 18.455 0 0 0 13.314-6.484 18.565 18.565 0 0 0-1-24.99l-82.608-83.488a17.49 17.49 0 0 0-12.515-5.198Z" fill="#000"/></svg>