<svg width="260" height="260" viewBox="0 0 260 260" fill="none" xmlns="http://www.w3.org/2000/svg">
<path fill-rule="evenodd" clip-rule="evenodd" d="M130 260C58.203 260 0 201.797 0 130C0 58.203 58.203 0 130 0C201.797 0 260 58.203 260 130C260 201.797 201.797 260 130 260ZM130 246C65.935 246 14 194.065 14 130C14 65.935 65.935 14 130 14C194.065 14 246 65.935 246 130C246 194.065 194.065 246 130 246Z" fill="black"/>
<path d="M173 128C173 162.694 167.439 193.783 158.697 215.941C154.318 227.04 149.277 235.549 144.038 241.166C138.809 246.773 133.891 249 129.5 249C125.109 249 120.191 246.773 114.962 241.166C109.723 235.549 104.682 227.04 100.303 215.941C91.5606 193.783 86 162.694 86 128C86 93.3064 91.5606 62.2173 100.303 40.0593C104.682 28.9595 109.723 20.4506 114.962 14.8336C120.191 9.22725 125.109 7 129.5 7C133.891 7 138.809 9.22725 144.038 14.8336C149.277 20.4506 154.318 28.9595 158.697 40.0593C167.439 62.2173 173 93.3064 173 128Z" stroke="black" stroke-width="14"/>
<path d="M20 184H240M20 79.5H240" stroke="black" stroke-width="14"/>
</svg>
