<svg width="260" height="260" viewBox="0 0 260 260" fill="none" xmlns="http://www.w3.org/2000/svg">
<path fill-rule="evenodd" clip-rule="evenodd" d="M55.6262 108.959C55.6279 108.958 55.6297 108.956 50.1539 104.135L55.6298 108.955C55.6266 108.959 55.6234 108.963 55.6202 108.966C52.8819 112.065 48.1502 112.363 45.0446 109.63C41.9354 106.893 41.6336 102.154 44.3704 99.0445L50.0001 104C44.3704 99.0445 44.3725 99.0422 44.3747 99.0397L44.3796 99.0341L44.3917 99.0205L44.4243 98.9837C44.45 98.955 44.4832 98.9179 44.524 98.8727C44.6056 98.7823 44.7176 98.6595 44.8595 98.5065C45.1434 98.2005 45.5474 97.7732 46.0688 97.2421C47.1111 96.1803 48.625 94.7008 50.5875 92.9437C54.5076 89.4338 60.2472 84.7897 67.6231 80.1511C82.3552 70.8864 103.854 61.5 130.5 61.5C157.146 61.5 178.645 70.8864 193.377 80.1511C200.753 84.7897 206.493 89.4338 210.413 92.9437C212.375 94.7008 213.889 96.1803 214.931 97.2421C215.453 97.7732 215.857 98.2005 216.141 98.5065C216.283 98.6595 216.395 98.7823 216.476 98.8727C216.517 98.9179 216.55 98.955 216.576 98.9837L216.609 99.0205L216.621 99.0341L216.626 99.0397C216.628 99.0422 216.63 99.0445 211 104L216.63 99.0445C219.367 102.154 219.065 106.893 215.956 109.63C212.848 112.365 208.111 112.065 205.374 108.959L205.37 108.955M205.37 108.955L205.344 108.926C205.306 108.884 205.239 108.811 205.143 108.707C204.952 108.501 204.645 108.176 204.227 107.75C203.39 106.898 202.109 105.643 200.407 104.119C196.998 101.066 191.929 96.9603 185.392 92.8489C172.297 84.6136 153.545 76.5 130.5 76.5C107.455 76.5 88.7037 84.6136 75.6085 92.8489C69.0709 96.9603 64.0026 101.066 60.5933 104.119C58.891 105.643 57.6098 106.898 56.7731 107.75C56.355 108.176 56.0486 108.501 55.8569 108.707C55.7611 108.811 55.694 108.884 55.656 108.926L55.6234 108.963L55.6262 108.959" fill="black"/>
<path d="M77 129C77 129 95.8257 105 131.494 105C167.161 105 185 129 185 129" stroke="black" stroke-width="15" stroke-linecap="round"/>
<path fill-rule="evenodd" clip-rule="evenodd" d="M109.217 157.196C106.927 160.59 102.327 161.525 98.8907 159.274C95.4256 157.005 94.4563 152.356 96.7257 148.891L103 153C96.7257 148.891 96.7281 148.887 96.7304 148.884L96.7353 148.876L96.7457 148.86L96.7689 148.826C96.7854 148.801 96.8041 148.773 96.8249 148.743C96.8666 148.681 96.9169 148.609 96.9761 148.525C97.0944 148.359 97.2482 148.149 97.4388 147.902C97.8195 147.409 98.3489 146.765 99.0365 146.024C100.41 144.544 102.43 142.656 105.173 140.794C110.721 137.029 119.045 133.5 130.5 133.5C141.954 133.5 150.279 137.029 155.827 140.794C158.57 142.656 160.59 144.544 161.963 146.024C162.651 146.765 163.18 147.408 163.561 147.902C163.751 148.149 163.905 148.359 164.024 148.525C164.083 148.609 164.133 148.681 164.175 148.742C164.196 148.773 164.214 148.801 164.231 148.826L164.254 148.86L164.264 148.876L164.269 148.884C164.272 148.887 164.274 148.891 158 153L164.274 148.891C166.543 152.356 165.574 157.005 162.109 159.274C158.673 161.525 154.073 160.59 151.783 157.196C151.77 157.177 151.737 157.133 151.687 157.067C151.561 156.904 151.323 156.61 150.967 156.226C150.253 155.456 149.08 154.344 147.403 153.206C144.111 150.971 138.686 148.5 130.5 148.5C122.314 148.5 116.888 150.971 113.597 153.206C111.919 154.344 110.747 155.456 110.033 156.226C109.677 156.61 109.439 156.904 109.313 157.067C109.262 157.133 109.23 157.176 109.217 157.196ZM151.734 157.121C151.734 157.122 151.735 157.123 151.735 157.123ZM151.73 157.116C151.73 157.116 151.73 157.116 151.73 157.116L151.734 157.121L151.735 157.123L151.735 157.123" fill="black"/>
<path d="M142 180C142 186.075 137.075 191 131 191C124.925 191 120 186.075 120 180C120 173.925 124.925 169 131 169C137.075 169 142 173.925 142 180Z" fill="black"/>
</svg>
