<svg width="260" height="260" viewBox="0 0 260 260" fill="none" xmlns="http://www.w3.org/2000/svg"><g opacity=".9" fill="#000"><path d="M39 62a7 7 0 1 1-14 0 7 7 0 0 1 14 0Zm17 7a7 7 0 1 0 0-14 7 7 0 0 0 0 14Zm31-7a7 7 0 1 1-14 0 7 7 0 0 1 14 0Z"/><path fill-rule="evenodd" clip-rule="evenodd" d="M10 35C4.477 35 0 39.477 0 45v170c0 5.523 4.477 10 10 10h240c5.523 0 10-4.477 10-10V45c0-5.523-4.477-10-10-10H10Zm236 40V54a5 5 0 0 0-5-5H19a5 5 0 0 0-5 5v21h232ZM14 89v117a5 5 0 0 0 5 5h222a5 5 0 0 0 5-5V89H14Z"/></g></svg>