<svg width="260" height="260" fill="none" xmlns="http://www.w3.org/2000/svg"><g opacity=".9" fill="#000"><path d="M48.125 54.886a5.2 5.2 0 1 0 .001-10.399 5.2 5.2 0 0 0 0 10.4Zm20.67-5.2a5.2 5.2 0 1 1-10.399.001 5.2 5.2 0 0 1 10.4 0Zm10.27 5.2a5.2 5.2 0 1 0 .001-10.399 5.2 5.2 0 0 0 0 10.4Z"/><path fill-rule="evenodd" clip-rule="evenodd" d="M39.416 30.836h180.595c7.177.026 12.975 5.824 13 13v156.728c-.026 7.177-5.824 12.975-13 13H39.416c-7.175-.026-12.974-5.824-13-13V43.836a13.038 13.038 0 0 1 13-13Zm-.026 10.401a2.651 2.651 0 0 0-1.82.78 2.516 2.516 0 0 0-.755 1.82v13.755h185.77V43.837a2.639 2.639 0 0 0-.78-1.82c-.495-.494-1.118-.78-1.82-.78H39.39Zm180.62 161.927a2.64 2.64 0 0 0 1.82-.78c.495-.494.781-1.118.781-1.82V67.989H36.816v132.575c.026.702.286 1.326.78 1.82.494.495 1.118.78 1.82.78h180.595Z"/></g></svg>