<svg width="260" height="260" fill="none" xmlns="http://www.w3.org/2000/svg"><path d="m125.963 168.045-4.498 4.509a16.435 16.435 0 0 1-23.241-23.241l16.993-16.994" fill="#fff"/><path d="m125.963 168.045-4.498 4.509a16.435 16.435 0 0 1-23.241-23.241l16.993-16.994" stroke="#000" stroke-width="8" stroke-linecap="round" stroke-linejoin="round"/><path d="M131.051 77.36 83.21 107.62a14.58 14.58 0 0 1-11.004 1.916 14.583 14.583 0 0 1-9.129-6.435v0a14.583 14.583 0 0 1 2.65-18.703l44.622-39.594a10.998 10.998 0 0 1 12.355-1.57L191.788 78.5l36.986 120.893 6.467 36.256" stroke="#000" stroke-width="8" stroke-linecap="round" stroke-linejoin="round"/><path d="m116.057 142.945-11.565 11.566a16.436 16.436 0 0 1-23.242 0 16.456 16.456 0 0 1 0-23.241l16.994-16.994" fill="#fff"/><path d="m116.057 142.945-11.565 11.566a16.436 16.436 0 0 1-23.242 0v0a16.456 16.456 0 0 1 0-23.241l16.994-16.994" stroke="#000" stroke-width="8" stroke-linecap="round" stroke-linejoin="round"/><path d="M30.61 163.557a11.058 11.058 0 0 1-9.64-5.652 11.053 11.053 0 0 1 .213-11.171l13.605-22.262a6.444 6.444 0 0 1 2.08-2.109L195.925 21.702a15.635 15.635 0 0 1 21.552 4.838l7.317 11.565a15.625 15.625 0 0 1-4.848 21.552L60.888 160.328a6.298 6.298 0 0 1-2.999 1l-26.39 2.209c-.29.01-.59.02-.89.02Z" fill="#fff"/><path d="M204.263 21.782a13.138 13.138 0 0 1 11.106 6.097l7.317 11.566a13.134 13.134 0 0 1-4.068 18.103L59.558 158.219a3.996 3.996 0 0 1-1.809.6l-26.41 2.209h-.729a8.556 8.556 0 0 1-7.287-12.995l13.605-22.261c.32-.526.758-.971 1.28-1.3L197.265 23.811a12.993 12.993 0 0 1 6.997-2v-.03Zm0-4.968a17.992 17.992 0 0 0-9.676 2.809L35.528 120.254a8.88 8.88 0 0 0-2.879 2.939l-13.555 22.231a13.555 13.555 0 0 0 11.556 20.632c.377.003.754-.014 1.13-.05l26.42-2.209a8.947 8.947 0 0 0 4.058-1.349L221.287 61.776a18.125 18.125 0 0 0 5.617-24.99l-7.317-11.566a17.995 17.995 0 0 0-15.324-8.426v.02Z" fill="#fff"/><path d="m40.336 127.851 17.083 26.989" stroke="#000" stroke-width="8" stroke-linecap="round" stroke-linejoin="round"/><path d="m57.42 154.84 129.14-81.728 29.919-18.993a9.12 9.12 0 0 0 4.11-9.264 9.106 9.106 0 0 0-1.282-3.321l-7.287-11.546a9.124 9.124 0 0 0-12.595-2.828L40.336 127.85l-13.604 22.271a4.562 4.562 0 0 0 .003 4.777 4.551 4.551 0 0 0 4.265 2.15l26.42-2.209Z" fill="#fff" stroke="#000" stroke-width="8" stroke-linecap="round" stroke-linejoin="round"/><path d="m154.632 136.687-24.481-7.896-16.193-26.41a16.867 16.867 0 0 0-30.384 3.477 16.852 16.852 0 0 0 .885 12.806l31.598 63.806 47.751 53.179" fill="#fff"/><path d="m154.632 136.687-24.481-7.896-16.193-26.41a16.867 16.867 0 0 0-21.992-6.238v0a16.852 16.852 0 0 0-7.507 22.521l31.598 63.806 47.751 53.179" stroke="#000" stroke-width="8" stroke-linecap="round" stroke-linejoin="round"/></svg>