<svg width="1300" height="1000" viewBox="0 0 1300 1000" fill="none" xmlns="http://www.w3.org/2000/svg">
<path d="M303 149C314.046 149 323 157.954 323 169V227L322.993 227.517C322.719 238.324 313.873 247 303 247H120L119.483 246.993C108.676 246.719 100 237.873 100 227V169C100 158.127 108.676 149.281 119.483 149.007L120 149H303ZM120 156C112.82 156 107 161.82 107 169V227C107 234.18 112.82 240 120 240H164.5V156H120ZM171.5 240H303C310.18 240 316 234.18 316 227V169C316 161.82 310.18 156 303 156H171.5V240ZM136.198 170.508C140.808 170.615 144.525 171.78 147.398 173.733C150.274 175.689 152.161 178.338 153.258 181.178C155.405 186.737 154.591 193.189 152.168 197.27C149.363 201.993 143.445 210.519 139.941 215.5H151C152.381 215.5 153.5 216.619 153.5 218C153.5 219.381 152.381 220.5 151 220.5H119C117.619 220.5 116.5 219.381 116.5 218C116.5 216.619 117.619 215.5 119 215.5H130.354C127.015 210.615 121.398 202.262 118.545 197.225C116.044 192.809 115.699 186.111 118.283 180.549C120.983 174.74 126.808 170.29 136.198 170.508ZM136.082 175.507C128.614 175.334 124.652 178.708 122.817 182.655C120.868 186.85 121.241 191.84 122.896 194.761C125.836 199.952 131.938 208.974 135.137 213.636C138.485 208.89 144.967 199.601 147.868 194.716C149.511 191.949 150.187 187.103 148.594 182.979C147.82 180.978 146.529 179.189 144.587 177.868C142.642 176.546 139.902 175.595 136.082 175.507ZM135.5 181.5C139.918 181.5 143.5 185.082 143.5 189.5C143.5 193.918 139.918 197.5 135.5 197.5C131.082 197.5 127.5 193.918 127.5 189.5C127.5 185.082 131.082 181.5 135.5 181.5ZM135.5 186.5C133.843 186.5 132.5 187.843 132.5 189.5C132.5 191.157 133.843 192.5 135.5 192.5C137.157 192.5 138.5 191.157 138.5 189.5C138.5 187.843 137.157 186.5 135.5 186.5Z" fill="black"/>
</svg>
