<svg width="1300" height="1000" viewBox="0 0 1300 1000" fill="none" xmlns="http://www.w3.org/2000/svg">
<path fill-rule="evenodd" clip-rule="evenodd" d="M1180 171H635C627.82 171 622 176.82 622 184V480C622 487.18 627.82 493 635 493H1180C1187.18 493 1193 487.18 1193 480V184C1193 176.82 1187.18 171 1180 171ZM635 164C623.954 164 615 172.954 615 184V480C615 491.046 623.954 500 635 500H1180C1191.05 500 1200 491.046 1200 480V184C1200 172.954 1191.05 164 1180 164H635Z" fill="black"/>
<path fill-rule="evenodd" clip-rule="evenodd" d="M1018.59 275.392C1019.06 274.827 1019.76 274.5 1020.5 274.5H1148.5C1149.88 274.5 1151 275.619 1151 277C1151 278.381 1149.88 279.5 1148.5 279.5H1021.66L1001.41 303.608C1000.94 304.173 1000.24 304.5 999.5 304.5H664C662.619 304.5 661.5 303.381 661.5 302C661.5 300.619 662.619 299.5 664 299.5H998.335L1018.59 275.392Z" fill="black"/>
<path fill-rule="evenodd" clip-rule="evenodd" d="M712 299.5C713.381 299.5 714.5 300.619 714.5 302V337H1047.98C1048.68 337 1049.34 337.286 1049.81 337.79L1117.82 410.29C1118.26 410.753 1118.5 411.365 1118.5 412V466C1118.5 467.381 1117.38 468.5 1116 468.5C1114.62 468.5 1113.5 467.381 1113.5 466V412.989L1046.9 342H712C710.619 342 709.5 340.881 709.5 339.5V302C709.5 300.619 710.619 299.5 712 299.5Z" fill="black"/>
<path fill-rule="evenodd" clip-rule="evenodd" d="M927 192.5C928.381 192.5 929.5 193.619 929.5 195V230.5C929.5 231.013 929.342 231.513 929.048 231.934L908.5 261.288V466C908.5 467.381 907.381 468.5 906 468.5C904.619 468.5 903.5 467.381 903.5 466V260.5C903.5 259.987 903.658 259.487 903.952 259.066L924.5 229.712V195C924.5 193.619 925.619 192.5 927 192.5Z" fill="black"/>
<path fill-rule="evenodd" clip-rule="evenodd" d="M992.354 385.619C992.809 385.22 993.394 385 994 385H1165C1166.38 385 1167.5 386.119 1167.5 387.5C1167.5 388.881 1166.38 390 1165 390H994.939L979.646 403.381C979.191 403.78 978.606 404 978 404H777.422L754.124 423.901C753.074 424.798 751.496 424.674 750.599 423.624C749.702 422.574 749.826 420.996 750.876 420.099L774.876 399.599C775.329 399.212 775.905 399 776.5 399H977.061L992.354 385.619Z" fill="black"/>
<path d="M915 301C915 305.971 910.971 310 906 310C901.029 310 897 305.971 897 301C897 296.029 901.029 292 906 292C910.971 292 915 296.029 915 301Z" fill="white"/>
<path fill-rule="evenodd" clip-rule="evenodd" d="M906 306C908.761 306 911 303.761 911 301C911 298.239 908.761 296 906 296C903.239 296 901 298.239 901 301C901 303.761 903.239 306 906 306ZM906 310C910.971 310 915 305.971 915 301C915 296.029 910.971 292 906 292C901.029 292 897 296.029 897 301C897 305.971 901.029 310 906 310Z" fill="black"/>
<path d="M915 340C915 344.971 910.971 349 906 349C901.029 349 897 344.971 897 340C897 335.029 901.029 331 906 331C910.971 331 915 335.029 915 340Z" fill="white"/>
<path fill-rule="evenodd" clip-rule="evenodd" d="M906 345C908.761 345 911 342.761 911 340C911 337.239 908.761 335 906 335C903.239 335 901 337.239 901 340C901 342.761 903.239 345 906 345ZM906 349C910.971 349 915 344.971 915 340C915 335.029 910.971 331 906 331C901.029 331 897 335.029 897 340C897 344.971 901.029 349 906 349Z" fill="black"/>
<path d="M915 402C915 406.971 910.971 411 906 411C901.029 411 897 406.971 897 402C897 397.029 901.029 393 906 393C910.971 393 915 397.029 915 402Z" fill="white"/>
<path fill-rule="evenodd" clip-rule="evenodd" d="M906 407C908.761 407 911 404.761 911 402C911 399.239 908.761 397 906 397C903.239 397 901 399.239 901 402C901 404.761 903.239 407 906 407ZM906 411C910.971 411 915 406.971 915 402C915 397.029 910.971 393 906 393C901.029 393 897 397.029 897 402C897 406.971 901.029 411 906 411Z" fill="black"/>
<path d="M1102 388C1102 392.971 1097.97 397 1093 397C1088.03 397 1084 392.971 1084 388C1084 383.029 1088.03 379 1093 379C1097.97 379 1102 383.029 1102 388Z" fill="white"/>
<path fill-rule="evenodd" clip-rule="evenodd" d="M1093 393C1095.76 393 1098 390.761 1098 388C1098 385.239 1095.76 383 1093 383C1090.24 383 1088 385.239 1088 388C1088 390.761 1090.24 393 1093 393ZM1093 397C1097.97 397 1102 392.971 1102 388C1102 383.029 1097.97 379 1093 379C1088.03 379 1084 383.029 1084 388C1084 392.971 1088.03 397 1093 397Z" fill="black"/>
<path d="M721 301C721 305.971 716.971 310 712 310C707.029 310 703 305.971 703 301C703 296.029 707.029 292 712 292C716.971 292 721 296.029 721 301Z" fill="white"/>
<path fill-rule="evenodd" clip-rule="evenodd" d="M712 306C714.761 306 717 303.761 717 301C717 298.239 714.761 296 712 296C709.239 296 707 298.239 707 301C707 303.761 709.239 306 712 306ZM712 310C716.971 310 721 305.971 721 301C721 296.029 716.971 292 712 292C707.029 292 703 296.029 703 301C703 305.971 707.029 310 712 310Z" fill="black"/>
<path d="M670 301.5C670 304.538 667.538 307 664.5 307C661.462 307 659 304.538 659 301.5C659 298.462 661.462 296 664.5 296C667.538 296 670 298.462 670 301.5Z" fill="black"/>
<path d="M756 301.5C756 304.538 753.538 307 750.5 307C747.462 307 745 304.538 745 301.5C745 298.462 747.462 296 750.5 296C753.538 296 756 298.462 756 301.5Z" fill="black"/>
<path d="M717 339.5C717 342.538 714.538 345 711.5 345C708.462 345 706 342.538 706 339.5C706 336.462 708.462 334 711.5 334C714.538 334 717 336.462 717 339.5Z" fill="black"/>
<path d="M756 339.5C756 342.538 753.538 345 750.5 345C747.462 345 745 342.538 745 339.5C745 336.462 747.462 334 750.5 334C753.538 334 756 336.462 756 339.5Z" fill="black"/>
<path d="M782 401.5C782 404.538 779.538 407 776.5 407C773.462 407 771 404.538 771 401.5C771 398.462 773.462 396 776.5 396C779.538 396 782 398.462 782 401.5Z" fill="black"/>
<path d="M812 401.5C812 404.538 809.538 407 806.5 407C803.462 407 801 404.538 801 401.5C801 398.462 803.462 396 806.5 396C809.538 396 812 398.462 812 401.5Z" fill="black"/>
<path d="M845 401.5C845 404.538 842.538 407 839.5 407C836.462 407 834 404.538 834 401.5C834 398.462 836.462 396 839.5 396C842.538 396 845 398.462 845 401.5Z" fill="black"/>
<path d="M876 401.5C876 404.538 873.538 407 870.5 407C867.462 407 865 404.538 865 401.5C865 398.462 867.462 396 870.5 396C873.538 396 876 398.462 876 401.5Z" fill="black"/>
<path d="M942 401.5C942 404.538 939.538 407 936.5 407C933.462 407 931 404.538 931 401.5C931 398.462 933.462 396 936.5 396C939.538 396 942 398.462 942 401.5Z" fill="black"/>
<path d="M983 401.5C983 404.538 980.538 407 977.5 407C974.462 407 972 404.538 972 401.5C972 398.462 974.462 396 977.5 396C980.538 396 983 398.462 983 401.5Z" fill="black"/>
<path d="M1020 387.5C1020 390.538 1017.54 393 1014.5 393C1011.46 393 1009 390.538 1009 387.5C1009 384.462 1011.46 382 1014.5 382C1017.54 382 1020 384.462 1020 387.5Z" fill="black"/>
<path d="M1058 387.5C1058 390.538 1055.54 393 1052.5 393C1049.46 393 1047 390.538 1047 387.5C1047 384.462 1049.46 382 1052.5 382C1055.54 382 1058 384.462 1058 387.5Z" fill="black"/>
<path d="M1136 387.5C1136 390.538 1133.54 393 1130.5 393C1127.46 393 1125 390.538 1125 387.5C1125 384.462 1127.46 382 1130.5 382C1133.54 382 1136 384.462 1136 387.5Z" fill="black"/>
<path d="M1121 432.5C1121 435.538 1118.54 438 1115.5 438C1112.46 438 1110 435.538 1110 432.5C1110 429.462 1112.46 427 1115.5 427C1118.54 427 1121 429.462 1121 432.5Z" fill="black"/>
<path d="M1121 471.5C1121 474.538 1118.54 477 1115.5 477C1112.46 477 1110 474.538 1110 471.5C1110 468.462 1112.46 466 1115.5 466C1118.54 466 1121 468.462 1121 471.5Z" fill="black"/>
<path d="M1170 387.5C1170 390.538 1167.54 393 1164.5 393C1161.46 393 1159 390.538 1159 387.5C1159 384.462 1161.46 382 1164.5 382C1167.54 382 1170 384.462 1170 387.5Z" fill="black"/>
<path d="M759 421.5C759 424.538 756.538 427 753.5 427C750.462 427 748 424.538 748 421.5C748 418.462 750.462 416 753.5 416C756.538 416 759 418.462 759 421.5Z" fill="black"/>
<path d="M795 339.5C795 342.538 792.538 345 789.5 345C786.462 345 784 342.538 784 339.5C784 336.462 786.462 334 789.5 334C792.538 334 795 336.462 795 339.5Z" fill="black"/>
<path d="M835 339.5C835 342.538 832.538 345 829.5 345C826.462 345 824 342.538 824 339.5C824 336.462 826.462 334 829.5 334C832.538 334 835 336.462 835 339.5Z" fill="black"/>
<path d="M874 339.5C874 342.538 871.538 345 868.5 345C865.462 345 863 342.538 863 339.5C863 336.462 865.462 334 868.5 334C871.538 334 874 336.462 874 339.5Z" fill="black"/>
<path d="M947 339.5C947 342.538 944.538 345 941.5 345C938.462 345 936 342.538 936 339.5C936 336.462 938.462 334 941.5 334C944.538 334 947 336.462 947 339.5Z" fill="black"/>
<path d="M992 339.5C992 342.538 989.538 345 986.5 345C983.462 345 981 342.538 981 339.5C981 336.462 983.462 334 986.5 334C989.538 334 992 336.462 992 339.5Z" fill="black"/>
<path d="M1038 339.5C1038 342.538 1035.54 345 1032.5 345C1029.46 345 1027 342.538 1027 339.5C1027 336.462 1029.46 334 1032.5 334C1035.54 334 1038 336.462 1038 339.5Z" fill="black"/>
<path d="M1074 361.5C1074 364.538 1071.54 367 1068.5 367C1065.46 367 1063 364.538 1063 361.5C1063 358.462 1065.46 356 1068.5 356C1071.54 356 1074 358.462 1074 361.5Z" fill="black"/>
<path d="M795 301.5C795 304.538 792.538 307 789.5 307C786.462 307 784 304.538 784 301.5C784 298.462 786.462 296 789.5 296C792.538 296 795 298.462 795 301.5Z" fill="black"/>
<path d="M835 301.5C835 304.538 832.538 307 829.5 307C826.462 307 824 304.538 824 301.5C824 298.462 826.462 296 829.5 296C832.538 296 835 298.462 835 301.5Z" fill="black"/>
<path d="M874 301.5C874 304.538 871.538 307 868.5 307C865.462 307 863 304.538 863 301.5C863 298.462 865.462 296 868.5 296C871.538 296 874 298.462 874 301.5Z" fill="black"/>
<path d="M947 301.5C947 304.538 944.538 307 941.5 307C938.462 307 936 304.538 936 301.5C936 298.462 938.462 296 941.5 296C944.538 296 947 298.462 947 301.5Z" fill="black"/>
<path d="M911 372.5C911 375.538 908.538 378 905.5 378C902.462 378 900 375.538 900 372.5C900 369.462 902.462 367 905.5 367C908.538 367 911 369.462 911 372.5Z" fill="black"/>
<path d="M911 436.5C911 439.538 908.538 442 905.5 442C902.462 442 900 439.538 900 436.5C900 433.462 902.462 431 905.5 431C908.538 431 911 433.462 911 436.5Z" fill="black"/>
<path d="M911 471.5C911 474.538 908.538 477 905.5 477C902.462 477 900 474.538 900 471.5C900 468.462 902.462 466 905.5 466C908.538 466 911 468.462 911 471.5Z" fill="black"/>
<path d="M912 261.5C912 264.538 909.538 267 906.5 267C903.462 267 901 264.538 901 261.5C901 258.462 903.462 256 906.5 256C909.538 256 912 258.462 912 261.5Z" fill="black"/>
<path d="M932 232.5C932 235.538 929.538 238 926.5 238C923.462 238 921 235.538 921 232.5C921 229.462 923.462 227 926.5 227C929.538 227 932 229.462 932 232.5Z" fill="black"/>
<path d="M932 194.5C932 197.538 929.538 200 926.5 200C923.462 200 921 197.538 921 194.5C921 191.462 923.462 189 926.5 189C929.538 189 932 191.462 932 194.5Z" fill="black"/>
<path d="M1006 301.5C1006 304.538 1003.54 307 1000.5 307C997.462 307 995 304.538 995 301.5C995 298.462 997.462 296 1000.5 296C1003.54 296 1006 298.462 1006 301.5Z" fill="black"/>
<path d="M1026 276.5C1026 279.538 1023.54 282 1020.5 282C1017.46 282 1015 279.538 1015 276.5C1015 273.462 1017.46 271 1020.5 271C1023.54 271 1026 273.462 1026 276.5Z" fill="black"/>
<path d="M1068 276.5C1068 279.538 1065.54 282 1062.5 282C1059.46 282 1057 279.538 1057 276.5C1057 273.462 1059.46 271 1062.5 271C1065.54 271 1068 273.462 1068 276.5Z" fill="black"/>
<path d="M1110 276.5C1110 279.538 1107.54 282 1104.5 282C1101.46 282 1099 279.538 1099 276.5C1099 273.462 1101.46 271 1104.5 271C1107.54 271 1110 273.462 1110 276.5Z" fill="black"/>
<path d="M1154 276.5C1154 279.538 1151.54 282 1148.5 282C1145.46 282 1143 279.538 1143 276.5C1143 273.462 1145.46 271 1148.5 271C1151.54 271 1154 273.462 1154 276.5Z" fill="black"/>
</svg>
