<svg width="1300" height="1000" fill="none" xmlns="http://www.w3.org/2000/svg"><path d="M307.44 163.908a4.943 4.943 0 0 1 4.943 4.943v28.789a3.36 3.36 0 0 1-6.72 0v-27.194h-.217l-4.681 2.99c-1.728 1.105-3.994-.137-3.994-2.188 0-.883.449-1.706 1.193-2.184l6.805-4.372a4.941 4.941 0 0 1 2.671-.784Z" fill="#000"/><path fill-rule="evenodd" clip-rule="evenodd" d="M325.272 194.117a4.141 4.141 0 0 1-3.5-6.357l13.624-21.526a5.001 5.001 0 0 1 3.501-2.273v-.053h2.427v.119a5.001 5.001 0 0 1 3.911 4.881v19.685h1.984a2.763 2.763 0 0 1 0 5.524h-1.984v3.677a3.205 3.205 0 0 1-6.411 0v-3.677h-13.552Zm13.335-22.602h.29v17.078h-10.885v-.29l10.595-16.788Z" fill="#000"/><path fill-rule="evenodd" clip-rule="evenodd" d="M283 134a5 5 0 0 0-5 5v70a5 5 0 0 0 5 5h80a5 5 0 0 0 5-5v-70a5 5 0 0 0-5-5h-15v-3.5a3.5 3.5 0 1 0-7 0v3.5h-36v-3.5a3.5 3.5 0 1 0-7 0v3.5h-15Zm78 17v-10h-76v10h76Zm-76 7v49h76v-49h-76Zm-153 81a5 5 0 0 1 5-5h40a5 5 0 0 1 5 5v30a5 5 0 0 1-5 5h-40a5 5 0 0 1-5-5v-30Zm7 2h36v26h-36v-26Zm89-16.5a3.5 3.5 0 1 1 7 0v9.5h10a5 5 0 0 1 5 5v30a5 5 0 0 1-5 5h-40a5 5 0 0 1-5-5v-30a5 5 0 0 1 5-5h10v-4.5a3.5 3.5 0 1 1 7 0v4.5h6v-9.5ZM207 241h36v26h-36v-26Zm71-2a5 5 0 0 1 5-5h80a5 5 0 0 1 5 5v30a5 5 0 0 1-5 5h-80a5 5 0 0 1-5-5v-30Zm7 2h76v26h-76v-26Zm-148-52a5 5 0 0 0-5 5v15a5 5 0 0 0 5 5h110a5 5 0 0 0 5-5v-15a5 5 0 0 0-5-5h-2v-25a5 5 0 0 0-5-5h-25v-27a5 5 0 0 0-5-5h-66a5 5 0 0 0-5 5v57h-2Zm39 0h62v-23h-62v23Zm-2-30h34v-25h-62v55h23v-25a5 5 0 0 1 5-5Zm71 37H139v11h106v-11Z" fill="#000"/><path fill-rule="evenodd" clip-rule="evenodd" d="M281 100h109c5.523 0 10 4.477 10 10v180c0 5.523-4.477 10-10 10H110c-5.523 0-10-4.477-10-10V110c0-5.523 4.477-10 10-10h99l30.678-25.1a8.406 8.406 0 0 1 10.644 0L281 100Zm-37.249-19L220 100h50l-23.751-19a1.999 1.999 0 0 0-2.498 0ZM112 107a5 5 0 0 0-5 5v176a5 5 0 0 0 5 5h276a5 5 0 0 0 5-5V112a5 5 0 0 0-5-5H112Z" fill="#000"/></svg>