<svg width="1300" height="1000" viewBox="0 0 1300 1000" fill="none" xmlns="http://www.w3.org/2000/svg">
<path d="M723 332V339H410V332H723ZM726 329V71C726 69.3431 724.657 68 723 68H410C408.343 68 407 69.3431 407 71V329C407 330.657 408.343 332 410 332V339L409.485 338.987C404.372 338.728 400.272 334.628 400.013 329.515L400 329V71C400 65.4772 404.477 61 410 61H723C728.523 61 733 65.4772 733 71V329L732.987 329.515C732.728 334.628 728.628 338.728 723.515 338.987L723 339V332C724.657 332 726 330.657 726 329Z" fill="black"/>
<path d="M599.653 98.056L603.125 92.624H607.017L603.069 98.056H599.653ZM601.277 119.42C598.57 119.42 596.47 118.664 594.977 117.152C593.484 115.64 592.737 113.577 592.737 110.964V99.708H597.133V110.768C597.133 112.168 597.478 113.297 598.169 114.156C598.878 115.015 599.942 115.444 601.361 115.444C602.798 115.444 603.862 115.015 604.553 114.156C605.244 113.297 605.589 112.168 605.589 110.768V99.708H609.985V110.964C609.985 113.559 609.201 115.621 607.633 117.152C606.084 118.664 603.965 119.42 601.277 119.42Z" fill="black"/>
<path d="M581.14 111.384H581.364V99.708H585.648V119H583.52L573.356 107.688H573.132V119H568.82V99.708H571.004L581.14 111.384Z" fill="black"/>
<path d="M550.01 119V99.708H562.33V103.068H554.406V107.744H561.462V110.908H554.406V115.64H562.33V119H550.01Z" fill="black"/>
<path d="M522.232 99.708H524.416L532.368 110.488H532.592L540.544 99.708H542.728V119H538.528V108.612H538.276L532.648 116.088H532.284L526.684 108.612H526.432V119H522.232V99.708Z" fill="black"/>
<path d="M643 165.5V172.5H482V165.5H643Z" fill="black"/>
<path d="M643 222.5V229.5H482V222.5H643Z" fill="black"/>
<path d="M643 193.5V200.5H482V193.5H643Z" fill="black"/>
<path d="M643 251.5V258.5H482V251.5H643Z" fill="black"/>
<path d="M643 279.5V286.5H482V279.5H643Z" fill="black"/>
</svg>
