<svg width="1300" height="1000" viewBox="0 0 1300 1000" fill="none" xmlns="http://www.w3.org/2000/svg">
<path fill-rule="evenodd" clip-rule="evenodd" d="M652 332C652 330.343 653.343 329 655 329H1159.5C1161.16 329 1162.5 330.343 1162.5 332C1162.5 333.657 1161.16 335 1159.5 335H655C653.343 335 652 333.657 652 332Z" fill="black"/>
<path d="M1169 332C1169 336.971 1164.97 341 1160 341C1155.03 341 1151 336.971 1151 332C1151 327.029 1155.03 323 1160 323C1164.97 323 1169 327.029 1169 332Z" fill="white"/>
<path fill-rule="evenodd" clip-rule="evenodd" d="M1160 337C1162.76 337 1165 334.761 1165 332C1165 329.239 1162.76 327 1160 327C1157.24 327 1155 329.239 1155 332C1155 334.761 1157.24 337 1160 337ZM1160 341C1164.97 341 1169 336.971 1169 332C1169 327.029 1164.97 323 1160 323C1155.03 323 1151 327.029 1151 332C1151 336.971 1155.03 341 1160 341Z" fill="black"/>
<path d="M664 332C664 336.971 659.971 341 655 341C650.029 341 646 336.971 646 332C646 327.029 650.029 323 655 323C659.971 323 664 327.029 664 332Z" fill="white"/>
<path fill-rule="evenodd" clip-rule="evenodd" d="M655 337C657.761 337 660 334.761 660 332C660 329.239 657.761 327 655 327C652.239 327 650 329.239 650 332C650 334.761 652.239 337 655 337ZM655 341C659.971 341 664 336.971 664 332C664 327.029 659.971 323 655 323C650.029 323 646 327.029 646 332C646 336.971 650.029 341 655 341Z" fill="black"/>
<path d="M744 332C744 336.971 739.971 341 735 341C730.029 341 726 336.971 726 332C726 327.029 730.029 323 735 323C739.971 323 744 327.029 744 332Z" fill="white"/>
<path fill-rule="evenodd" clip-rule="evenodd" d="M735 337C737.761 337 740 334.761 740 332C740 329.239 737.761 327 735 327C732.239 327 730 329.239 730 332C730 334.761 732.239 337 735 337ZM735 341C739.971 341 744 336.971 744 332C744 327.029 739.971 323 735 323C730.029 323 726 327.029 726 332C726 336.971 730.029 341 735 341Z" fill="black"/>
<path d="M854 332C854 336.971 849.971 341 845 341C840.029 341 836 336.971 836 332C836 327.029 840.029 323 845 323C849.971 323 854 327.029 854 332Z" fill="white"/>
<path fill-rule="evenodd" clip-rule="evenodd" d="M845 337C847.761 337 850 334.761 850 332C850 329.239 847.761 327 845 327C842.239 327 840 329.239 840 332C840 334.761 842.239 337 845 337ZM845 341C849.971 341 854 336.971 854 332C854 327.029 849.971 323 845 323C840.029 323 836 327.029 836 332C836 336.971 840.029 341 845 341Z" fill="black"/>
<path d="M964 332C964 336.971 959.971 341 955 341C950.029 341 946 336.971 946 332C946 327.029 950.029 323 955 323C959.971 323 964 327.029 964 332Z" fill="white"/>
<path fill-rule="evenodd" clip-rule="evenodd" d="M955 337C957.761 337 960 334.761 960 332C960 329.239 957.761 327 955 327C952.239 327 950 329.239 950 332C950 334.761 952.239 337 955 337ZM955 341C959.971 341 964 336.971 964 332C964 327.029 959.971 323 955 323C950.029 323 946 327.029 946 332C946 336.971 950.029 341 955 341Z" fill="black"/>
<path d="M1100 332C1100 336.971 1095.97 341 1091 341C1086.03 341 1082 336.971 1082 332C1082 327.029 1086.03 323 1091 323C1095.97 323 1100 327.029 1100 332Z" fill="white"/>
<path fill-rule="evenodd" clip-rule="evenodd" d="M1091 337C1093.76 337 1096 334.761 1096 332C1096 329.239 1093.76 327 1091 327C1088.24 327 1086 329.239 1086 332C1086 334.761 1088.24 337 1091 337ZM1091 341C1095.97 341 1100 336.971 1100 332C1100 327.029 1095.97 323 1091 323C1086.03 323 1082 327.029 1082 332C1082 336.971 1086.03 341 1091 341Z" fill="black"/>
<path d="M686 332C686 335.314 683.314 338 680 338C676.686 338 674 335.314 674 332C674 328.686 676.686 326 680 326C683.314 326 686 328.686 686 332Z" fill="black"/>
<path d="M770 332C770 335.314 767.314 338 764 338C760.686 338 758 335.314 758 332C758 328.686 760.686 326 764 326C767.314 326 770 328.686 770 332Z" fill="black"/>
<path d="M880 332C880 335.314 877.314 338 874 338C870.686 338 868 335.314 868 332C868 328.686 870.686 326 874 326C877.314 326 880 328.686 880 332Z" fill="black"/>
<path d="M990 332C990 335.314 987.314 338 984 338C980.686 338 978 335.314 978 332C978 328.686 980.686 326 984 326C987.314 326 990 328.686 990 332Z" fill="black"/>
<path d="M712 332C712 335.314 709.314 338 706 338C702.686 338 700 335.314 700 332C700 328.686 702.686 326 706 326C709.314 326 712 328.686 712 332Z" fill="black"/>
<path d="M796 332C796 335.314 793.314 338 790 338C786.686 338 784 335.314 784 332C784 328.686 786.686 326 790 326C793.314 326 796 328.686 796 332Z" fill="black"/>
<path d="M906 332C906 335.314 903.314 338 900 338C896.686 338 894 335.314 894 332C894 328.686 896.686 326 900 326C903.314 326 906 328.686 906 332Z" fill="black"/>
<path d="M1016 332C1016 335.314 1013.31 338 1010 338C1006.69 338 1004 335.314 1004 332C1004 328.686 1006.69 326 1010 326C1013.31 326 1016 328.686 1016 332Z" fill="black"/>
<path d="M1068 332C1068 335.314 1065.31 338 1062 338C1058.69 338 1056 335.314 1056 332C1056 328.686 1058.69 326 1062 326C1065.31 326 1068 328.686 1068 332Z" fill="black"/>
<path d="M1143 332C1143 335.314 1140.31 338 1137 338C1133.69 338 1131 335.314 1131 332C1131 328.686 1133.69 326 1137 326C1140.31 326 1143 328.686 1143 332Z" fill="black"/>
<path d="M822 332C822 335.314 819.314 338 816 338C812.686 338 810 335.314 810 332C810 328.686 812.686 326 816 326C819.314 326 822 328.686 822 332Z" fill="black"/>
<path d="M932 332C932 335.314 929.314 338 926 338C922.686 338 920 335.314 920 332C920 328.686 922.686 326 926 326C929.314 326 932 328.686 932 332Z" fill="black"/>
<path d="M1042 332C1042 335.314 1039.31 338 1036 338C1032.69 338 1030 335.314 1030 332C1030 328.686 1032.69 326 1036 326C1039.31 326 1042 328.686 1042 332Z" fill="black"/>
<path d="M1120 332C1120 335.314 1117.31 338 1114 338C1110.69 338 1108 335.314 1108 332C1108 328.686 1110.69 326 1114 326C1117.31 326 1120 328.686 1120 332Z" fill="black"/>
<path fill-rule="evenodd" clip-rule="evenodd" d="M1180 171H635C627.82 171 622 176.82 622 184V480C622 487.18 627.82 493 635 493H1180C1187.18 493 1193 487.18 1193 480V184C1193 176.82 1187.18 171 1180 171ZM635 164C623.954 164 615 172.954 615 184V480C615 491.046 623.954 500 635 500H1180C1191.05 500 1200 491.046 1200 480V184C1200 172.954 1191.05 164 1180 164H635Z" fill="black"/>
</svg>
