<svg xmlns="http://www.w3.org/2000/svg" viewBox="0 0 1300 1000"><title>3-context-expand</title><g id="Capa_1" data-name="Capa 1"><rect y="900" width="1300" height="100"/></g><g id="Capa_2" data-name="Capa 2"><path d="M244.65,912.11H224.4a4,4,0,0,1-4-4V547.25a14.13,14.13,0,0,1,28.25,0V908.11A4,4,0,0,1,244.65,912.11Zm-16.25-8h12.25V547.25a6.13,6.13,0,0,0-12.25,0Z"/><path d="M639.3,912.11H619.06a4,4,0,0,1-4-4V547.25a14.12,14.12,0,0,1,28.24,0V908.11A4,4,0,0,1,639.3,912.11Zm-16.24-8H635.3V547.25a6.12,6.12,0,0,0-12.24,0Z"/><path d="M431.85,617.28c-67.16,0-132.36-10.61-188.55-30.7a4,4,0,0,1-2.65-3.77v-24a4,4,0,0,1,5.41-3.74c54.76,20.74,119,31.7,185.79,31.7s131-11,185.79-31.7a4,4,0,0,1,5.42,3.74v24a4,4,0,0,1-2.66,3.77C564.22,606.67,499,617.28,431.85,617.28ZM248.65,580c54.73,19.17,118,29.29,183.2,29.29S560.33,599.16,615.06,580V564.57c-54.44,19.78-117.64,30.21-183.21,30.21s-128.75-10.43-183.2-30.21Z"/><path d="M37.2,617.28c-18.17,0-36.35-.78-54-2.31a4,4,0,0,1-3.65-4v-22.6a4,4,0,0,1,1.3-3,4,4,0,0,1,3.06-1C1.36,586,19.3,586.78,37.2,586.78c66.8,0,131.05-11,185.79-31.7a4,4,0,0,1,5.42,3.74v24a4,4,0,0,1-2.66,3.77C169.57,606.67,104.37,617.28,37.2,617.28Zm-49.69-10c16.31,1.32,33,2,49.69,2,65.21,0,128.48-10.12,183.21-29.29V564.57C166,584.35,102.77,594.78,37.2,594.78c-16.66,0-33.35-.68-49.69-2Z"/></g></svg>