<svg width="1300" height="1000" viewBox="0 0 1300 1000" fill="none" xmlns="http://www.w3.org/2000/svg">
<g clip-path="url(#clip0_1482_526)">
<path fill-rule="evenodd" clip-rule="evenodd" d="M561.39 783.494L580.047 911.499H430.019L446.535 783.55L453.478 784.447L437.98 904.499H571.952L554.463 784.503L561.39 783.494Z" fill="black"/>
<path fill-rule="evenodd" clip-rule="evenodd" d="M448.5 778.999C460.078 788.09 477.268 794.499 503.361 794.499C529.444 794.499 546.858 788.108 558.72 778.999L569.341 778.999C556.004 792.223 535.42 801.499 503.361 801.499C471.345 801.499 450.972 792.232 437.971 778.999H448.5Z" fill="black"/>
<path fill-rule="evenodd" clip-rule="evenodd" d="M126 594V599H141.741V594H126ZM124 587C121.239 587 119 589.239 119 592V601C119 603.761 121.239 606 124 606H148.741V587H124Z" fill="black"/>
<path fill-rule="evenodd" clip-rule="evenodd" d="M147.391 783.495L166.047 911.5H16.0195L32.5365 783.552L39.4788 784.448L23.9813 904.5H157.953L140.464 784.505L147.391 783.495Z" fill="black"/>
<path fill-rule="evenodd" clip-rule="evenodd" d="M179.001 698H46.0009V712H179.001C182.867 712 186.001 708.866 186.001 705C186.001 701.134 182.867 698 179.001 698ZM46.0009 691L46.0009 719H179.001C186.733 719 193.001 712.732 193.001 705C193.001 697.268 186.733 691 179.001 691H46.0009Z" fill="black"/>
<path fill-rule="evenodd" clip-rule="evenodd" d="M163.222 769.633C150.708 787.499 128.736 801.5 89.3622 801.5C51.7829 801.5 30.369 788.742 18.0242 772H27.0218C38.3301 784.726 57.0884 794.5 89.3622 794.5C126.814 794.5 146.48 781.334 157.488 765.617C168.005 750.602 170.97 732.844 173.124 719.949C173.269 719.081 173.41 718.235 173.55 717.413L180.451 718.587C180.306 719.44 180.158 720.331 180.004 721.256C177.883 734.027 174.688 753.261 163.222 769.633Z" fill="black"/>
<path fill-rule="evenodd" clip-rule="evenodd" d="M165 573H46.0009V691H165V573ZM39.0004 566V698H172V566H39.0004Z" fill="black"/>
<path fill-rule="evenodd" clip-rule="evenodd" d="M157 555H46.0002V565H165V563C165 558.582 161.419 555 157 555ZM46.0002 548V572H172V563C172 554.716 165.285 548 157 548H46.0002Z" fill="black"/>
<path fill-rule="evenodd" clip-rule="evenodd" d="M1255.03 900.039L1270.54 783.537L1277.48 784.46L1261.97 900.962L1255.03 900.039Z" fill="black"/>
<path fill-rule="evenodd" clip-rule="evenodd" d="M1272.46 778.999C1279.41 784.457 1288.36 788.926 1300 791.64V798.814C1283.05 795.15 1270.78 787.926 1261.99 779H1261.99L1272.46 778.999Z" fill="black"/>
<path fill-rule="evenodd" clip-rule="evenodd" d="M685 191H325C320.582 191 317 194.582 317 199V764C317 768.418 320.582 772 325 772H685C689.418 772 693 768.418 693 764V199C693 194.582 689.418 191 685 191ZM325 184C316.716 184 310 190.716 310 199V764C310 772.284 316.716 779 325 779H685C693.284 779 700 772.284 700 764V199C700 190.716 693.284 184 685 184H325Z" fill="black"/>
<path fill-rule="evenodd" clip-rule="evenodd" d="M1099 191H739C734.582 191 731 194.582 731 199V764C731 768.418 734.582 772 739 772H1099C1103.42 772 1107 768.418 1107 764V199C1107 194.582 1103.42 191 1099 191ZM739 184C730.716 184 724 190.716 724 199V764C724 772.284 730.716 779 739 779H1099C1107.28 779 1114 772.284 1114 764V199C1114 190.716 1107.28 184 1099 184H739Z" fill="black"/>
<path fill-rule="evenodd" clip-rule="evenodd" d="M31 191H0V772H31C35.4183 772 39 768.418 39 764V199C39 194.582 35.4183 191 31 191ZM0 184V779H31C39.2843 779 46 772.284 46 764V199C46 190.716 39.2843 184 31 184H0Z" fill="black"/>
<path fill-rule="evenodd" clip-rule="evenodd" d="M1300 191H1153C1148.58 191 1145 194.582 1145 199V764C1145 768.418 1148.58 772 1153 772H1300V191ZM1153 184C1144.72 184 1138 190.716 1138 199V764C1138 772.284 1144.72 779 1153 779H1300V184H1153Z" fill="black"/>
<path fill-rule="evenodd" clip-rule="evenodd" d="M309.5 900V92.5H316.5V900H309.5Z" fill="black"/>
<path fill-rule="evenodd" clip-rule="evenodd" d="M693.5 900V92.5H700.5V900H693.5Z" fill="black"/>
<path fill-rule="evenodd" clip-rule="evenodd" d="M279.5 900V92.5H286.5V900H279.5Z" fill="black"/>
<path fill-rule="evenodd" clip-rule="evenodd" d="M1107.5 900V92.5H1114.5V900H1107.5Z" fill="black"/>
<path fill-rule="evenodd" clip-rule="evenodd" d="M723.5 900V92.5H730.5V900H723.5Z" fill="black"/>
<path fill-rule="evenodd" clip-rule="evenodd" d="M1137.5 900V92.5H1144.5V900H1137.5Z" fill="black"/>
<path fill-rule="evenodd" clip-rule="evenodd" d="M1300.5 92.5H0V85.5H1300.5V92.5Z" fill="black"/>
<path d="M657 493C659.761 493 662 495.239 662 498L662 554C662 556.761 659.761 559 657 559H645C642.239 559 640 556.761 640 554L640 498C640 495.239 642.239 493 645 493L657 493Z" fill="black"/>
<path d="M620 522C620 519.239 622.239 517 625 517H662V536H625C622.239 536 620 533.761 620 531V522Z" fill="white"/>
<path fill-rule="evenodd" clip-rule="evenodd" d="M627 524V529H655V524H627ZM625 517C622.239 517 620 519.239 620 522V531C620 533.761 622.239 536 625 536H662V517H625Z" fill="black"/>
<path d="M1042 493C1044.76 493 1047 495.239 1047 498V554C1047 556.761 1044.76 559 1042 559H1030C1027.24 559 1025 556.761 1025 554V498C1025 495.239 1027.24 493 1030 493L1042 493Z" fill="black"/>
<path d="M1005 522C1005 519.239 1007.24 517 1010 517H1047V536H1010C1007.24 536 1005 533.761 1005 531V522Z" fill="white"/>
<path fill-rule="evenodd" clip-rule="evenodd" d="M1012 524V529H1040V524H1012ZM1010 517C1007.24 517 1005 519.239 1005 522V531C1005 533.761 1007.24 536 1010 536H1047V517H1010Z" fill="black"/>
<path fill-rule="evenodd" clip-rule="evenodd" d="M904.574 793.84C908.894 794.272 913.508 794.499 918.44 794.499C923.551 794.499 928.329 794.254 932.797 793.791L932.642 800.841C928.177 801.273 923.449 801.499 918.44 801.499C913.595 801.499 909.016 801.288 904.691 800.882C904.687 800.882 904.694 800.882 904.694 800.882L904.574 793.84Z" fill="black"/>
<path d="M847.235 779.001L840.879 779.001L846.074 871.999L822.083 882.995C815.622 885.957 813.077 893.812 816.574 899.999H822.574C819.066 896.005 820.354 889.763 825.158 887.484L852.395 874.561L847.235 779.001Z" fill="black"/>
<path d="M894.475 899.999H899.574V881.999L902.081 880.071C904.593 878.139 906.04 875.131 905.983 871.963L904.292 779L898.145 779L899.724 873.232C899.774 876.161 897.404 878.558 894.475 878.541V899.999Z" fill="black"/>
<path d="M933.074 779L938.574 779L937.157 873.231C937.113 876.162 939.485 878.557 942.416 878.54V899.999L937.074 899.999V881.999L934.768 880.078C932.433 878.132 931.11 875.23 931.172 872.192L933.074 779Z" fill="black"/>
<path d="M1011.73 887.484C1016.54 889.763 1017.82 896.005 1014.32 899.999L1019.07 899.999C1023.56 895.013 1021.98 887.112 1015.92 884.24L990.074 871.999L995.14 779.001L989.574 779.001L984.496 874.561L1011.73 887.484Z" fill="black"/>
</g>
<defs>
<clipPath id="clip0_1482_526">
<rect width="1300" height="1000" fill="white"/>
</clipPath>
</defs>
</svg>
