<svg xmlns="http://www.w3.org/2000/svg" viewBox="0 0 1300 1000"><defs><style>.cls-1{fill:none;}.cls-1,.cls-2{stroke:#000;stroke-linejoin:round;stroke-width:8px;}.cls-2{fill:#fff;}</style></defs><title>bus-stop</title><g id="Capa_2" data-name="Capa 2"><path class="cls-1" d="M0,690.75H235.09a21.56,21.56,0,0,1,21.56,21.56v26.78H0"/><rect class="cls-1" x="240.3" y="739.09" width="16.34" height="159.91"/><path class="cls-2" d="M-2.52,146.23l315-33.26a4,4,0,0,0,3.86-4.06V84.58a4,4,0,0,0-3.86-4.06H0"/><rect x="419.59" y="970.11" width="880.4" height="29.89"/><path d="M0,899H476.28a0,0,0,0,1,0,0v101a0,0,0,0,1,0,0H8.87A8.87,8.87,0,0,1,0,991.13V899A0,0,0,0,1,0,899Z" transform="translate(476.27 1899) rotate(180)"/></g></svg>