<svg width="1300" height="1000" viewBox="0 0 1300 1000" fill="none" xmlns="http://www.w3.org/2000/svg"><path fill-rule="evenodd" clip-rule="evenodd" d="M539 860v40h607.52c29.7-13.362 49.6-44.285 46.98-79.03l-48.91-647c-3.15-41.725-37.93-73.97-79.77-73.97H0v7h1062.55c39.19 0 71.77 30.173 74.78 69.248l1.82 23.752H927c-11.046 0-20 8.954-20 20v164.026c-5.489-14.376-10.374-26.555-14-34.513-2.506-5.5-8.5-9.428-14.5-9.5-41.5-.5-54 13.5-72.5 46.999-17.528 36.034-30.715 83.36-31 84.998-8 45.999-17 103.498-17 103.498l-9.424 23.807c-4.675 11.81 3.731 24.694 16.423 25.173a.925.925 0 0 0 .789-.392l33.712-48.088-31 167.996L752.728 773H586V207h249c8.284 0 15 6.716 15 15v31.608c-3.593 1.843-6.107 3.821-9.251 7.257-3.743 4.091-5.453 6.947-7.238 12.161-1.737 5.076-2.187 8.269-1.74 13.601.188 2.242.985 5.678.985 5.678l6.183 23.705c.287 1.102.633 2.185 1.087 3.228 1.109 2.543 3.504 7.554 6.247 10.348 4.054 4.129 7.255 5.886 12.864 7.482 4.976 1.417 13.251.762 13.251.762 1.835-.165 8.802-1.278 12.434-3.009 4.345-2.07 8.287-5.681 10.881-9.598 1.871-2.826 3.555-8.377 4.348-11.251.334-1.209.551-2.445.694-3.691l2.768-24.167c.13-1.801.141-3.965-.016-5.762-.419-4.765-1.691-8.901-4.075-13.093-2.385-4.191-5.288-7.801-9.24-10.719-3.952-2.918-9.017-5.282-13.877-6.44-4.847-1.048-6.715-1.197-11.673-.931-3.07.294-5.259.692-7.632 1.47V220c0-11.046-8.954-20-20-20H559c-11.046 0-20 8.954-20 20v633H0v7h539Zm209.92-80H586v33h144.97l17.95-33Zm-21.758 40H586v33h123.212l17.95-33Zm-21.431 40H586v40h144l-32-17.999 10.5-15a6.833 6.833 0 0 1-2.769-7.001Zm86.769 40H850v-40h-67.151L774 876.001l8.372 4.751a20 20 0 0 1 10.128 17.394V900Zm-5.78-47H850v-33h-45.029l-18.251 33ZM800 813.993 763.5 879.5l14.627 7.501a10 10 0 0 1 5.392 7.95L784 900l-38-1-36-20.5 9.758-12.963a7.178 7.178 0 0 1-2.575-9.498L777 744l18.5-106.75L817 523.5s-5.5 44 44 123.5c2.802 4.5-22 97-22 97l-38.446 69H800v.993Zm8.842-.993H850v-33h-22.907l-18.251 33Zm22.122-40H850v-41.549l-3 12.553L830.964 773ZM857 702.163V853h31.474c3.057-18.993 10.746-36.437 21.871-51.136l-5.845-57.86-38.5-79.498-9 37.657Zm54.42 110.35C900.4 829.493 894 849.749 894 871.5c0 9.863 1.316 19.418 3.782 28.5H927l-1.5-7.5a6.636 6.636 0 0 1-6.603-5.969l-7.477-74.018ZM961 900h87.2c6.18-8.949 9.8-19.802 9.8-31.5 0-30.652-24.85-55.5-55.5-55.5-4.665 0-9.195.576-13.524 1.659L992 857.001l17.55 2.257c9.98 1.282 17.45 9.777 17.45 19.836v1.907L961 900Zm27.47-92.419A62.721 62.721 0 0 1 1002.5 806c34.52 0 62.5 27.982 62.5 62.5 0 11.487-3.1 22.251-8.51 31.5h50.73a108.874 108.874 0 0 0 3.78-28.5c0-59.923-48.58-108.5-108.5-108.5-5.825 0-11.542.459-17.119 1.343l3.089 43.238Zm-3.589-50.246A116.422 116.422 0 0 1 1002.5 756c57.49 0 105.17 42.005 114.03 97h65.08c4.18-10.349 6.1-21.811 5.18-33.752L1180.38 736H1140c-22.09 0-40-17.909-40-40s17.91-40 40-40h34.23l-9.69-126H959.141l.859 2.509 14.111 14.317c10.929 11.09 10.645 28.985-.63 39.723a.836.836 0 0 1-1.036.093l-42.392-27.94a5.016 5.016 0 0 1-1.651-1.804l-9.902-18.39 3.5 22 60 156.496 2.881 40.331ZM956.736 523H1164l-24.31-316H929c-8.284 0-15 6.716-15 15v180.649c16.335 44.041 35.271 98.669 42.736 120.351ZM579 900V207h-18c-8.284 0-15 6.716-15 15v678h33Zm278 0h33.543A115.702 115.702 0 0 1 887 871.5c0-3.881.191-7.717.565-11.5H857v40Zm260.43-40h60.93c-12.17 23.007-36.01 39.066-63.89 39.961 2.3-9.104 3.53-18.64 3.53-28.461 0-3.881-.19-7.717-.57-11.5Zm57.34-197H1140c-18.23 0-33 14.775-33 33s14.77 33 33 33h39.85l-5.08-66ZM871.778 330.857c1.479-.133 7.089-1.049 10.01-2.495 3.494-1.73 6.66-4.759 8.737-8.05 1.454-2.304 2.758-6.77 3.41-9.242.307-1.166.502-2.355.629-3.555l2.129-20.124c.099-1.517.101-3.34-.031-4.854-.353-4.016-1.392-7.504-3.327-11.043-1.935-3.538-4.286-6.589-7.48-9.06-3.194-2.471-7.284-4.478-11.204-5.47-3.909-.898-5.414-1.03-9.409-.822-3.709.357-5.82.918-9.227 2.453-4.388 1.976-6.779 3.662-9.981 7.323-3.003 3.434-4.372 5.835-5.793 10.221-1.384 4.271-1.736 6.959-1.359 11.453.159 1.889.813 4.786.813 4.786l5.009 19.794c.268 1.059.589 2.101 1.016 3.107.933 2.198 2.831 6.254 4.987 8.549 3.28 3.491 5.865 4.982 10.39 6.344 4.015 1.209 10.681.685 10.681.685Zm136.162 534.417-23.44-1.804L974 716.889l-60-157.087C899.433 412.238 887.621 366.8 881.517 352.84c-2.08-4.758-7.201-6.842-12.393-6.84-12.272.005-36.29 4.386-53.125 35.217C797.321 415.423 782 471.752 782 471.752l-17 104.559-10.365 26.618c-2.229 5.726 1.995 11.904 8.14 11.904a.437.437 0 0 0 .356-.183l27.369-38.339 20.5-59.534 35.645-98.078a1.484 1.484 0 0 1 2.821.91l-27.164 96.099a6.795 6.795 0 0 0-.269 2.149c.312 7.767 3.556 56.355 36.467 109.982 1.5 2.444 54.5 115.564 54.5 115.564l12.876 135.033a8.447 8.447 0 0 0 7.124 7.547L935.5 899l81.67-23.703v-.237c-.1-5.154-4.09-9.39-9.23-9.786ZM915 517c-4-82.5-27-166-27-166l43 117 22.5 66.485 19.034 22.783c4.975 5.955 4.255 14.8-1.618 19.873a.71.71 0 0 1-.868.046l-34.098-23.565S915.17 520.507 915 517Z" fill="#000"/><path fill-rule="evenodd" clip-rule="evenodd" d="M0 530v-7h212V207H0v-7h469c11.046 0 20 8.954 20 20v290c0 11.046-8.954 20-20 20H0Zm467-7H219V207h248c8.284 0 15 6.716 15 15v286c0 8.284-6.716 15-15 15Z" fill="#000"/></svg>