<svg width="1300" height="1000" viewBox="0 0 1300 1000" fill="none" xmlns="http://www.w3.org/2000/svg"><path fill-rule="evenodd" clip-rule="evenodd" d="M539 900v-40H0v-7h539V220c0-11.046 8.954-20 20-20h278c11.046 0 20 8.954 20 20v633h31.474c8.853-54.995 56.534-97 114.026-97 57.49 0 105.17 42.005 114.03 97h65.08c4.18-10.349 6.1-21.811 5.18-33.752L1180.38 736H1140c-22.09 0-40-17.909-40-40s17.91-40 40-40h34.23l-9.69-126H927c-11.046 0-20-8.954-20-20V220c0-11.046 8.954-20 20-20h212.15l-1.82-23.752c-3.01-39.075-35.59-69.248-74.78-69.248H0v-7h1064.82c41.84 0 76.62 32.245 79.77 73.97l48.91 647c2.62 34.745-17.28 65.668-46.98 79.03H539Zm568.22 0a108.874 108.874 0 0 0 3.78-28.5c0-59.923-48.58-108.5-108.5-108.5-59.923 0-108.5 48.577-108.5 108.5 0 9.863 1.316 19.418 3.782 28.5h50.725c-5.408-9.249-8.507-20.013-8.507-31.5 0-34.518 27.982-62.5 62.5-62.5 34.52 0 62.5 27.982 62.5 62.5 0 11.487-3.1 22.251-8.51 31.5h50.73Zm-59.02 0c6.18-8.949 9.8-19.802 9.8-31.5 0-30.652-24.85-55.5-55.5-55.5-30.652 0-55.5 24.848-55.5 55.5 0 11.698 3.619 22.551 9.799 31.5h91.401Zm-157.657 0A115.702 115.702 0 0 1 887 871.5c0-3.881.191-7.717.565-11.5H857v40h33.543ZM850 900v-40H586v40h264Zm-271 0h-33V222c0-8.284 6.716-15 15-15h18v693Zm539-28.5c0-3.881-.19-7.717-.57-11.5h60.93c-12.17 23.007-36.01 39.066-63.89 39.961 2.3-9.104 3.53-18.64 3.53-28.461Zm22-208.5h34.77l5.08 66H1140c-18.23 0-33-14.775-33-33s14.77-33 33-33Zm-.31-456H929c-8.284 0-15 6.716-15 15v286c0 8.284 6.716 15 15 15h235l-24.31-316ZM586 773V207h249c8.284 0 15 6.716 15 15v551H586Zm0 40v-33h264v33H586Zm0 40v-33h264v33H586Z" fill="#000"/><path fill-rule="evenodd" clip-rule="evenodd" d="M0 523v7h469c11.046 0 20-8.954 20-20V220c0-11.046-8.954-20-20-20H0v7h212v316H0Zm219 0h248c8.284 0 15-6.716 15-15V222c0-8.284-6.716-15-15-15H219v316Z" fill="#000"/></svg>