<svg xmlns="http://www.w3.org/2000/svg" viewBox="0 0 1300 1000"><title>3-context-expand</title><g id="Capa_2" data-name="Capa 2"><rect y="900" width="1300" height="100"/><path d="M1180.7,912.6H0v-8H1180.7a89.15,89.15,0,0,0,88.93-95.23l-45.56-665.56a71.83,71.83,0,0,0-71.46-66.72H0v-8H1152.61a79.85,79.85,0,0,1,79.44,74.18l45.56,665.55A97.15,97.15,0,0,1,1180.7,912.6Z"/><path d="M1273.83,815.13h-19.91a41.49,41.49,0,0,1-41.28-38.55l-2.42-35.37a50,50,0,0,1,49.92-53.45h5.44v8h-5.44a42,42,0,0,0-41.94,44.91l2.42,35.37a33.48,33.48,0,0,0,33.3,31.09h19.91Z"/><path d="M483.18,605.09H0v-8H483.18a17.59,17.59,0,0,0,17.56-17.57V230.08a17.58,17.58,0,0,0-17.56-17.56H0v-8H483.18a25.59,25.59,0,0,1,25.56,25.56V579.52A25.6,25.6,0,0,1,483.18,605.09Z"/><path d="M1262.75,605.09H986.13a25.59,25.59,0,0,1-25.56-25.57V230.08a25.58,25.58,0,0,1,25.56-25.56h246.44v8H986.13a17.58,17.58,0,0,0-17.56,17.56V579.52a17.58,17.58,0,0,0,17.56,17.57h276.62Z"/><path d="M1069.13,942.54a71.27,71.27,0,1,1,71.27-71.27A71.35,71.35,0,0,1,1069.13,942.54Zm0-134.54a63.27,63.27,0,1,0,63.27,63.27A63.34,63.34,0,0,0,1069.13,808Z"/><path d="M1069.13,986.84A115.57,115.57,0,1,1,1184.7,871.27,115.7,115.7,0,0,1,1069.13,986.84Zm0-223.14A107.57,107.57,0,1,0,1176.7,871.27,107.7,107.7,0,0,0,1069.13,763.7Z"/><rect x="-0.01" y="837.6" width="962.52" height="8"/><rect x="1176.7" y="837.6" width="93.42" height="8"/><rect x="214.06" y="208.52" width="8" height="392.57"/></g></svg>