<svg xmlns="http://www.w3.org/2000/svg" viewBox="0 0 1300 1000"><defs><style>.cls-1,.cls-2{fill:none;stroke:#000;stroke-linejoin:round;stroke-width:8px;}.cls-2{stroke-linecap:round;}</style></defs><title>hospital</title><g id="Capa_1" data-name="Capa 1"><rect y="900" width="1300" height="100"/></g><g id="Capa_2" data-name="Capa 2"><path class="cls-1" d="M0,207.33H369.59a4,4,0,0,1,4.05,4v188a4,4,0,0,1-4.05,4.05H0"/><rect class="cls-1" x="76.06" y="227.33" width="170.2" height="45.96" rx="4.05"/><path class="cls-1" d="M0,227.33H40.93a4,4,0,0,1,4,4v137a4,4,0,0,1-4,4.05H0"/><line class="cls-2" x1="76.06" y1="293.12" x2="143.6" y2="293.12"/><line class="cls-2" x1="76.06" y1="312.95" x2="143.6" y2="312.95"/><line class="cls-2" x1="76.06" y1="332.78" x2="143.6" y2="332.78"/><line class="cls-2" x1="76.06" y1="352.61" x2="143.6" y2="352.61"/><line class="cls-2" x1="76.06" y1="372.44" x2="143.6" y2="372.44"/><line class="cls-2" x1="174.68" y1="293.12" x2="242.21" y2="293.12"/><line class="cls-2" x1="174.68" y1="312.95" x2="242.21" y2="312.95"/><line class="cls-2" x1="174.68" y1="332.78" x2="242.21" y2="332.78"/><line class="cls-2" x1="174.68" y1="352.61" x2="242.21" y2="352.61"/><line class="cls-2" x1="174.68" y1="372.44" x2="242.21" y2="372.44"/><line class="cls-2" x1="273.3" y1="293.12" x2="340.83" y2="293.12"/><line class="cls-2" x1="273.3" y1="273.29" x2="340.83" y2="273.29"/><line class="cls-2" x1="273.3" y1="253.46" x2="340.83" y2="253.46"/><line class="cls-2" x1="273.3" y1="233.63" x2="340.83" y2="233.63"/><line class="cls-2" x1="273.3" y1="312.95" x2="340.83" y2="312.95"/><line class="cls-2" x1="273.3" y1="332.78" x2="340.83" y2="332.78"/><line class="cls-2" x1="273.3" y1="352.61" x2="340.83" y2="352.61"/><line class="cls-2" x1="273.3" y1="372.44" x2="340.83" y2="372.44"/><rect class="cls-1" x="270.12" y="689.61" width="215.48" height="61.67" rx="21.56"/><rect class="cls-1" x="54.27" y="689.61" width="215.48" height="61.67" rx="21.56"/><path class="cls-1" d="M0,689.61H32.71a21.56,21.56,0,0,1,21.56,21.56v18.55a21.56,21.56,0,0,1-21.56,21.56H0"/><path class="cls-1" d="M0,641.07H438.43a15.12,15.12,0,0,1,15.12,15.12v33.42"/><rect class="cls-1" x="437.21" y="751.28" width="16.34" height="148.72"/></g></svg>