<svg xmlns="http://www.w3.org/2000/svg" viewBox="0 0 1300 1000"><title>3-context-expand</title><g id="Capa_1" data-name="Capa 1"><rect y="900" width="1300" height="100"/></g><g id="Capa_2" data-name="Capa 2"><path d="M369.59,407.42H0v-8H369.59l.05-188L0,211.33v-8H369.59a8.06,8.06,0,0,1,8.05,8v188A8.06,8.06,0,0,1,369.59,407.42Z"/><path d="M464,755.28H208.15a25.58,25.58,0,0,1-25.56-25.56V711.17a25.59,25.59,0,0,1,25.56-25.56H464a25.59,25.59,0,0,1,25.56,25.56v18.55A25.58,25.58,0,0,1,464,755.28ZM208.15,693.61a17.58,17.58,0,0,0-17.56,17.56v18.55a17.58,17.58,0,0,0,17.56,17.56H464a17.57,17.57,0,0,0,17.56-17.56V711.17A17.58,17.58,0,0,0,464,693.61Z"/><path d="M165,755.28H0v-8H165a17.58,17.58,0,0,0,17.56-17.56V711.17A17.58,17.58,0,0,0,165,693.61H0v-8H165a25.59,25.59,0,0,1,25.56,25.56v18.55A25.59,25.59,0,0,1,165,755.28Z"/><path d="M457.55,689.61h-8V656.19a11.13,11.13,0,0,0-11.12-11.12H0v-8H438.43a19.15,19.15,0,0,1,19.12,19.12Z"/><path d="M453.55,904H437.21a4,4,0,0,1-4-4V751.28a4,4,0,0,1,4-4h16.34a4,4,0,0,1,4,4V900A4,4,0,0,1,453.55,904Zm-12.34-8h8.34V755.28h-8.34Z"/><path d="M242.21,277.29H80.11a8.06,8.06,0,0,1-8-8.05V231.38a8.07,8.07,0,0,1,8.06-8H242.21a8.06,8.06,0,0,1,8,8v37.86A8.06,8.06,0,0,1,242.21,277.29Zm-162.09-46-.06,37.91,162.15.05,0-.05V231.38Z"/><path d="M40.93,376.44H0v-8H40.93l0-137.06-41,0v-8H40.93a8.06,8.06,0,0,1,8,8v137A8.06,8.06,0,0,1,40.93,376.44Z"/><path d="M143.6,297.12H76.06a4,4,0,0,1,0-8H143.6a4,4,0,1,1,0,8Z"/><path d="M143.6,317H76.06a4,4,0,0,1,0-8H143.6a4,4,0,0,1,0,8Z"/><path d="M143.6,336.78H76.06a4,4,0,0,1,0-8H143.6a4,4,0,1,1,0,8Z"/><path d="M143.6,356.61H76.06a4,4,0,0,1,0-8H143.6a4,4,0,1,1,0,8Z"/><path d="M143.6,376.44H76.06a4,4,0,0,1,0-8H143.6a4,4,0,0,1,0,8Z"/><path d="M242.21,297.12H174.68a4,4,0,0,1,0-8h67.53a4,4,0,1,1,0,8Z"/><path d="M242.21,317H174.68a4,4,0,0,1,0-8h67.53a4,4,0,0,1,0,8Z"/><path d="M242.21,336.78H174.68a4,4,0,0,1,0-8h67.53a4,4,0,1,1,0,8Z"/><path d="M242.21,356.61H174.68a4,4,0,1,1,0-8h67.53a4,4,0,1,1,0,8Z"/><path d="M242.21,376.44H174.68a4,4,0,0,1,0-8h67.53a4,4,0,0,1,0,8Z"/><path d="M340.83,297.12H273.3a4,4,0,0,1,0-8h67.53a4,4,0,1,1,0,8Z"/><path d="M340.83,277.29H273.3a4,4,0,0,1,0-8h67.53a4,4,0,0,1,0,8Z"/><path d="M340.83,257.46H273.3a4,4,0,0,1,0-8h67.53a4,4,0,1,1,0,8Z"/><path d="M340.83,237.63H273.3a4,4,0,0,1,0-8h67.53a4,4,0,1,1,0,8Z"/><path d="M340.83,317H273.3a4,4,0,0,1,0-8h67.53a4,4,0,0,1,0,8Z"/><path d="M340.83,336.78H273.3a4,4,0,1,1,0-8h67.53a4,4,0,0,1,0,8Z"/><path d="M340.83,356.61H273.3a4,4,0,0,1,0-8h67.53a4,4,0,1,1,0,8Z"/><path d="M340.83,376.44H273.3a4,4,0,0,1,0-8h67.53a4,4,0,0,1,0,8Z"/></g></svg>