<svg width="1300" height="1000" viewBox="0 0 1300 1000" fill="none" xmlns="http://www.w3.org/2000/svg">
<path fill-rule="evenodd" clip-rule="evenodd" d="M805 653V592C805 580.954 813.954 572 825 572H1146C1157.05 572 1166 580.954 1166 592V653H1172C1183.05 653 1192 661.954 1192 673V838H1155V905H1122V838H851V905H818V838H781V673C781 661.954 789.954 653 801 653H805ZM812 653V592C812 584.82 817.82 579 825 579H1146C1153.18 579 1159 584.82 1159 592V653H1154C1142.95 653 1134 661.954 1134 673V697H839V673C839 661.954 830.046 653 819 653H812ZM801 660C793.82 660 788 665.82 788 673V794H1185V673C1185 665.82 1179.18 660 1172 660H1154C1146.82 660 1141 665.82 1141 673V740H832V673C832 665.82 826.18 660 819 660H801ZM839 704V733H1134V704H839ZM788 802H1185V831H788V802ZM825 838V898H844V838H825ZM1129 838V898H1148V838H1129Z" fill="black"/>
<path fill-rule="evenodd" clip-rule="evenodd" d="M295 653V592C295 580.954 303.954 572 315 572H636C647.046 572 656 580.954 656 592V653H662C673.046 653 682 661.954 682 673V838H645V905H612V838H341V905H308V838H271V673C271 661.954 279.954 653 291 653H295ZM302 653V592C302 584.82 307.82 579 315 579H636C643.18 579 649 584.82 649 592V653H644C632.954 653 624 661.954 624 673V697H329V673C329 661.954 320.046 653 309 653H302ZM291 660C283.82 660 278 665.82 278 673V794H675V673C675 665.82 669.18 660 662 660H644C636.82 660 631 665.82 631 673V740H322V673C322 665.82 316.18 660 309 660H291ZM329 704V733H624V704H329ZM278 802H675V831H278V802ZM315 838V898H334V838H315ZM619 838V898H638V838H619Z" fill="black"/>
<path d="M388 293V300H112V293H388ZM393 288V112C393 109.239 390.761 107 388 107H112C109.239 107 107 109.239 107 112V288C107 290.761 109.239 293 112 293V300C105.476 300 100.168 294.794 100.004 288.31L100 288V112C100 105.476 105.206 100.168 111.69 100.004L112 100H388L388.31 100.004C394.794 100.168 400 105.476 400 112V288L399.996 288.31C399.832 294.794 394.524 300 388 300V293C390.761 293 393 290.761 393 288Z" fill="black"/>
<path d="M124 277H376V123H124V277ZM383 279L382.993 279.257C382.859 281.899 380.675 284 378 284H122L121.743 283.993C119.186 283.864 117.136 281.814 117.007 279.257L117 279V121C117 118.325 119.101 116.141 121.743 116.007L122 116H378C380.761 116 383 118.239 383 121V279Z" fill="black"/>
<path d="M396.975 107.975L381.975 122.975L377.025 118.025L392.025 103.025L396.975 107.975Z" fill="black"/>
<path d="M396.975 292.025L381.975 277.025L377.025 281.975L392.025 296.975L396.975 292.025Z" fill="black"/>
<path d="M104.525 108.475L119.525 123.475L124.475 118.525L109.475 103.525L104.525 108.475Z" fill="black"/>
<path d="M104.525 291.525L119.525 276.525L124.475 281.475L109.475 296.475L104.525 291.525Z" fill="black"/>
<path d="M209 100H220L243.751 80.9995C244.481 80.4152 245.519 80.4152 246.249 80.9995L270 100H281L250.322 74.8997C248.82 73.6712 246.94 73 245 73C243.06 73 241.18 73.6712 239.678 74.8997L209 100Z" fill="black"/>
<path d="M1005.5 470.086C1001.73 471.494 994.69 471.996 992.848 472C992.848 472 984.547 471.931 979.713 470.086C974.264 468.007 971.229 465.977 967.55 461.511C965.061 458.489 963.112 453.288 962.229 450.658C961.867 449.579 961.617 448.47 961.427 447.348L957.334 423.194C957.334 423.194 956.84 419.702 956.848 417.452C956.867 412.101 957.593 408.959 959.767 404.054C961.999 399.016 963.951 396.319 968.037 392.57C972.392 388.574 975.532 386.828 981.172 384.945C985.551 383.483 988.223 383.038 992.848 383C997.811 383.167 999.659 383.478 1004.4 384.945C1009.14 386.522 1013.98 389.318 1017.66 392.57C1021.34 395.822 1023.92 399.671 1025.93 404.054C1027.94 408.437 1028.85 412.669 1028.85 417.452C1028.85 419.255 1028.65 421.411 1028.36 423.194L1023.5 447.027C1023.25 448.256 1022.92 449.468 1022.48 450.644C1021.44 453.437 1019.28 458.821 1017.17 461.473C1014.25 465.149 1010 468.402 1005.5 470.086Z" fill="black"/>
<path d="M1003.04 463.387C1000 464.573 994.332 464.996 992.848 465C992.848 465 986.161 464.942 982.267 463.387C977.878 461.635 975.433 459.925 972.469 456.161C970.521 453.687 968.984 449.481 968.246 447.21C967.908 446.171 967.679 445.105 967.504 444.026L964.24 423.871C964.24 423.871 963.841 420.928 963.848 419.032C963.864 414.523 964.448 411.876 966.199 407.742C967.997 403.496 969.57 401.224 972.861 398.065C976.37 394.697 978.899 393.226 983.442 391.639C986.97 390.407 989.122 390.032 992.848 390C996.846 390.141 998.334 390.403 1002.15 391.639C1005.97 392.968 1009.87 395.324 1012.83 398.065C1015.8 400.805 1017.88 404.048 1019.5 407.742C1021.12 411.436 1021.85 415.002 1021.85 419.032C1021.85 420.552 1021.69 422.369 1021.46 423.871L1017.58 443.733C1017.35 444.917 1017.05 446.084 1016.64 447.219C1015.78 449.626 1014.09 453.961 1012.44 456.129C1010.09 459.227 1006.67 461.968 1003.04 463.387Z" fill="white"/>
<path d="M887.348 605.5C887.348 603 894.824 544.035 912.351 508C927.4 478.825 951.412 474.455 989.531 474.021C1026.51 473.595 1056.57 479.537 1072.47 507.218C1086.85 543.5 1093.85 605.5 1093.85 605.5V666.5L1102.77 684.887C1109.16 698.067 1097.71 712.873 1083.35 710L1074.35 693L1062.85 871L1089.75 884.108C1095.81 887.059 1097.36 894.991 1092.85 900H1010.85V882L1008.55 880.085C1006.21 878.135 1004.89 875.227 1004.95 872.183L1008.35 717.5L992.351 704L976.848 717.5L978.791 872.501C978.827 875.362 977.636 878.102 975.519 880.026L973.348 882V900H890.348C886.85 893.812 889.395 885.957 895.856 882.996L919.848 872L909.848 693L899.848 710C887.675 713.043 876.914 701.493 880.811 689.565L888.348 666.5C888.348 666.5 887.348 649.5 887.348 605.5Z" fill="black"/>
<path d="M893.348 604.47C893.348 604.47 901.308 547.787 917.848 512.515C932.048 483.958 955.868 480.425 989.858 480.02C1023.85 479.615 1053.12 485.42 1068.13 512.515C1077.85 539.499 1087.85 604.47 1087.85 604.47V668.001L1097.67 685.844C1102.09 693.852 1097.06 703.79 1088 704.986C1087.31 705.077 1086.64 704.721 1086.33 704.1L1070.35 672L1054.35 601.09L1045.6 551.465C1045.45 550.63 1044.73 550.02 1043.88 550.02C1042.81 550.02 1041.99 550.973 1042.15 552.03L1051.85 616L1056.85 638.5L1062.85 662C1045.58 644.09 1015.34 652.392 1009.65 676.607L1008.85 680V711L996.777 699.981C995.536 698.848 993.916 698.22 992.236 698.22C990.534 698.22 988.895 698.865 987.649 700.024L975.848 711V680L974.66 675.126C968.888 651.442 939.257 643.44 922.348 661L927.838 638.5L932.438 616L939.633 551.934C939.747 550.914 938.949 550.02 937.922 550.02C937.069 550.02 936.345 550.645 936.219 551.488L928.838 601.09L922.368 636.545L914.788 672L895.109 704.802C894.989 705.003 894.754 705.104 894.526 705.054C888.26 703.683 884.531 697.221 886.479 691.11L893.848 668.001L893.348 604.47Z" fill="white"/>
<path d="M943.848 658C965.473 658 968.717 677.636 969.176 682.103C969.238 682.708 969.253 683.303 969.263 683.912L972.494 872.145C972.548 875.274 970.327 877.982 967.248 878.541V900H898.348C894.247 896.825 894.973 890.433 899.681 888.258L927.168 875.561L915.848 683.999C915.848 683.999 919.448 658 943.848 658Z" fill="white"/>
<path d="M1040.59 659C1019.33 659 1016.59 677.224 1016.24 681.911C1016.19 682.639 1016.18 683.364 1016.16 684.094L1011.02 871.619C1010.92 875.281 1013.57 878.446 1017.19 879V900H1087.09C1090.99 896.113 1089.87 889.535 1084.9 887.159L1056.35 873.5L1067.85 682.999C1067.85 682.999 1064.99 659 1040.59 659Z" fill="white"/>
</svg>
