<svg width="1300" height="1000" viewBox="0 0 1300 1000" fill="none" xmlns="http://www.w3.org/2000/svg">
<path d="M270 100L246.249 81C245.519 80.4156 244.481 80.4156 243.751 81L220 100H270ZM378.958 283.907C378.648 283.967 378.328 284 378 284H122L121.95 283.998L112.949 293H388C388.016 293 388.033 292.998 388.049 292.998L378.958 283.907ZM107.092 111.041C107.032 111.351 107 111.672 107 112V288C107 288.328 107.032 288.648 107.092 288.958L117.001 279.049L117 279V121C117 120.983 117.001 120.967 117.001 120.95L107.092 111.041ZM383 121.949V278.051L392.998 288.049C392.998 288.033 393 288.016 393 288V112C393 111.983 392.998 111.967 392.998 111.95L383 121.949ZM124 277H376V123H124V277ZM121.95 116.001L122 116H378C378.328 116 378.648 116.032 378.958 116.092L388.049 107.001C388.033 107.001 388.016 107 388 107H112.949L121.95 116.001ZM388.31 100.004C394.794 100.168 400 105.476 400 112V288L399.996 288.31C399.832 294.794 394.524 300 388 300H112C105.476 300 100.168 294.794 100.004 288.31L100 288V112C100 105.476 105.206 100.168 111.69 100.004L112 100H209L239.678 74.8994C241.179 73.6709 243.06 73 245 73C246.94 73 248.821 73.6709 250.322 74.8994L281 100H388L388.31 100.004Z" fill="black"/>
</svg>
