<svg width="1300" height="1000" viewBox="0 0 1300 1000" fill="none" xmlns="http://www.w3.org/2000/svg">
<path fill-rule="evenodd" clip-rule="evenodd" d="M295 653V592C295 580.954 303.954 572 315 572H636C647.046 572 656 580.954 656 592V653H662C673.046 653 682 661.954 682 673V838H645V905H612V838H341V905H308V838H271V673C271 661.954 279.954 653 291 653H295ZM302 653V592C302 584.82 307.82 579 315 579H636C643.18 579 649 584.82 649 592V653H644C632.954 653 624 661.954 624 673V697H329V673C329 661.954 320.046 653 309 653H302ZM291 660C283.82 660 278 665.82 278 673V794H675V673C675 665.82 669.18 660 662 660H644C636.82 660 631 665.82 631 673V740H322V673C322 665.82 316.18 660 309 660H291ZM329 704V733H624V704H329ZM278 802H675V831H278V802ZM315 838V898H334V838H315ZM619 838V898H638V838H619Z" fill="black"/>
<path d="M388 293V300H112V293H388ZM393 288V112C393 109.239 390.761 107 388 107H112C109.239 107 107 109.239 107 112V288C107 290.761 109.239 293 112 293V300C105.476 300 100.168 294.794 100.004 288.31L100 288V112C100 105.476 105.206 100.168 111.69 100.004L112 100H388L388.31 100.004C394.794 100.168 400 105.476 400 112V288L399.996 288.31C399.832 294.794 394.524 300 388 300V293C390.761 293 393 290.761 393 288Z" fill="black"/>
<path d="M124 277H376V123H124V277ZM383 279L382.993 279.257C382.859 281.899 380.675 284 378 284H122L121.743 283.993C119.186 283.864 117.136 281.814 117.007 279.257L117 279V121C117 118.325 119.101 116.141 121.743 116.007L122 116H378C380.761 116 383 118.239 383 121V279Z" fill="black"/>
<path d="M396.975 107.975L381.975 122.975L377.025 118.025L392.025 103.025L396.975 107.975Z" fill="black"/>
<path d="M396.975 292.025L381.975 277.025L377.025 281.975L392.025 296.975L396.975 292.025Z" fill="black"/>
<path d="M104.525 108.475L119.525 123.475L124.475 118.525L109.475 103.525L104.525 108.475Z" fill="black"/>
<path d="M104.525 291.525L119.525 276.525L124.475 281.475L109.475 296.475L104.525 291.525Z" fill="black"/>
<path d="M209 100H220L243.751 80.9995C244.481 80.4152 245.519 80.4152 246.249 80.9995L270 100H281L250.322 74.8997C248.82 73.6712 246.94 73 245 73C243.06 73 241.18 73.6712 239.678 74.8997L209 100Z" fill="black"/>
<path fill-rule="evenodd" clip-rule="evenodd" d="M810.595 482.262C819.814 461.975 832.993 447.29 851.74 448.578L851.26 455.561C837.258 454.599 825.978 465.331 816.968 485.159C808.066 504.748 802.12 531.752 798.217 559.925C796.284 573.873 794.862 588.036 793.823 601.624C794.917 596.736 796.142 591.99 797.519 587.434C802.012 572.563 808.2 559.405 816.924 549.92C825.747 540.327 837.104 534.571 851.5 534.571V541.571C839.233 541.571 829.693 546.377 822.076 554.659C814.359 563.049 808.564 575.08 804.22 589.458C796.033 616.557 793.304 650.911 791.769 682H819V729C819 734.974 816.38 740.336 812.228 744H835V771H816V906H763V771H741V744H763.772C759.62 740.336 757 734.974 757 729V682H784.32C784.263 679.277 784.22 675.901 784.209 671.971C783.587 657.159 781.737 638.852 776.601 622.163C769.421 598.834 756.222 579.767 732.037 576.539L732.963 569.6C761.225 573.372 775.813 595.806 783.291 620.103C783.489 620.748 783.681 621.395 783.87 622.043C783.055 604.627 781.339 587.759 777.792 572.658C773.814 555.72 767.609 541.375 758.093 531.082C748.67 520.89 735.78 514.425 717.833 513.566L718.167 506.574C737.82 507.515 752.48 514.699 763.232 526.33C773.891 537.858 780.485 553.508 784.606 571.057C785.935 576.716 787.014 582.611 787.89 588.676C788.796 578.852 789.913 568.857 791.283 558.965C795.214 530.597 801.268 502.787 810.595 482.262ZM770 899H809V772H770V899ZM748 764H828V751H748V764ZM764 729C764 736.18 769.82 742 777 742H799C806.18 742 812 736.18 812 729V689H764V729Z" fill="black"/>
</svg>
