<svg width="1300" height="1000" viewBox="0 0 1300 1000" fill="none" xmlns="http://www.w3.org/2000/svg">
<path fill-rule="evenodd" clip-rule="evenodd" d="M295 653V592C295 580.954 303.954 572 315 572H636C647.046 572 656 580.954 656 592V653H662C673.046 653 682 661.954 682 673V838H645V905H612V838H341V905H308V838H271V673C271 661.954 279.954 653 291 653H295ZM302 653V592C302 584.82 307.82 579 315 579H636C643.18 579 649 584.82 649 592V653H644C632.954 653 624 661.954 624 673V697H329V673C329 661.954 320.046 653 309 653H302ZM291 660C283.82 660 278 665.82 278 673V794H675V673C675 665.82 669.18 660 662 660H644C636.82 660 631 665.82 631 673V740H322V673C322 665.82 316.18 660 309 660H291ZM329 704V733H624V704H329ZM278 802H675V831H278V802ZM315 838V898H334V838H315ZM619 838V898H638V838H619Z" fill="black"/>
</svg>
