<svg width="1300" height="1000" viewBox="0 0 1300 1000" fill="none" xmlns="http://www.w3.org/2000/svg">
<path fill-rule="evenodd" clip-rule="evenodd" d="M245 143C246.94 143 248.821 143.671 250.322 144.899L281 170H388L388.31 170.004C394.794 170.168 400 175.476 400 182V358L399.996 358.31C399.832 364.794 394.524 370 388 370H112C105.476 370 100.168 364.794 100.004 358.31L100 358V182C100 175.476 105.206 170.168 111.69 170.004L112 170H209L239.678 144.899C241.179 143.671 243.06 143 245 143ZM378.958 353.907C378.648 353.967 378.328 354 378 354H122L121.95 353.998L112.949 363H388C388.016 363 388.033 362.998 388.049 362.998L378.958 353.907ZM107.092 181.041C107.032 181.351 107 181.672 107 182V358C107 358.328 107.032 358.648 107.092 358.958L117.001 349.049L117 349V191C117 190.983 117.001 190.967 117.001 190.95L107.092 181.041ZM383 191.949V348.051L392.998 358.049C392.998 358.033 393 358.016 393 358V182C393 181.983 392.998 181.967 392.998 181.95L383 191.949ZM124 347H376V193H124V347ZM121.95 186.001L122 186H378C378.328 186 378.648 186.032 378.958 186.092L388.049 177.001C388.033 177.001 388.016 177 388 177H112.949L121.95 186.001ZM246.249 151C245.519 150.416 244.481 150.416 243.751 151L220 170H270L246.249 151Z" fill="black"/>
<path fill-rule="evenodd" clip-rule="evenodd" d="M1106.31 170.004C1112.79 170.168 1118 175.476 1118 182V541L1118 541.31C1117.83 547.691 1112.69 552.834 1106.31 552.996L1106 553H617C610.373 553 605 547.627 605 541V182C605 175.373 610.373 170 617 170H826L856.678 144.899C858.179 143.671 860.06 143 862 143C863.94 143 865.821 143.671 867.322 144.899L898 170H1106L1106.31 170.004ZM887 170L863.249 151C862.519 150.416 861.481 150.416 860.751 151L837 170H887ZM1097.96 536.906C1097.73 536.951 1097.5 536.981 1097.26 536.993L1097 537H627.949L618.949 546H1106C1106.33 546 1106.65 545.967 1106.96 545.907L1097.96 536.906ZM612.092 181.041C612.032 181.351 612 181.672 612 182V541C612 541.611 612.111 542.197 612.312 542.738L622.093 532.957C622.049 532.729 622.019 532.495 622.007 532.257L622 532V192C622 191.672 622.032 191.351 622.092 191.041L612.092 181.041ZM1101.97 191.477C1101.99 191.649 1102 191.823 1102 192V531.051L1111 540.051V182.449L1101.97 191.477ZM629 530H1095V194H629V530ZM627.949 187H1096.55L1106.52 177.026C1106.35 177.008 1106.18 177 1106 177H617.949L627.949 187Z" fill="black"/>
</svg>
