<svg width="1300" height="1000" viewBox="0 0 1300 1000" fill="none" xmlns="http://www.w3.org/2000/svg">
<path d="M674 630H681V900H674V630Z" fill="black"/>
<path fill-rule="evenodd" clip-rule="evenodd" d="M672 590C660.954 590 652 598.954 652 610C652 621.046 660.954 630 672 630H1216C1227.05 630 1236 621.046 1236 610C1236 598.954 1227.05 590 1216 590H672ZM672 597C664.82 597 659 602.82 659 610C659 617.18 664.82 623 672 623H1216C1223.18 623 1229 617.18 1229 610C1229 602.82 1223.18 597 1216 597H672Z" fill="black"/>
<path d="M1206 630H1213V900H1206V630Z" fill="black"/>
<path d="M944 630H951V900H944V630Z" fill="black"/>
<path fill-rule="evenodd" clip-rule="evenodd" d="M901 434H743C738.582 434 735 437.582 735 442V548C735 552.418 738.582 556 743 556H901C905.418 556 909 552.418 909 548V442C909 437.582 905.418 434 901 434ZM743 427C734.716 427 728 433.716 728 442V548C728 556.284 734.716 563 743 563H901C909.284 563 916 556.284 916 548V442C916 433.716 909.284 427 901 427H743Z" fill="black"/>
<path fill-rule="evenodd" clip-rule="evenodd" d="M1150 434H992C987.582 434 984 437.582 984 442V548C984 552.418 987.582 556 992 556H1150C1154.42 556 1158 552.418 1158 548V442C1158 437.582 1154.42 434 1150 434ZM992 427C983.716 427 977 433.716 977 442V548C977 556.284 983.716 563 992 563H1150C1158.28 563 1165 556.284 1165 548V442C1165 433.716 1158.28 427 1150 427H992Z" fill="black"/>
<path fill-rule="evenodd" clip-rule="evenodd" d="M910.5 541.5H733V534.5H910.5V541.5Z" fill="black"/>
<path fill-rule="evenodd" clip-rule="evenodd" d="M1159.5 541.5H982V534.5H1159.5V541.5Z" fill="black"/>
<path fill-rule="evenodd" clip-rule="evenodd" d="M796.5 580V562.186H803.5V580H796.5Z" fill="black"/>
<path fill-rule="evenodd" clip-rule="evenodd" d="M840.797 580V562.186H847.797V580H840.797Z" fill="black"/>
<path fill-rule="evenodd" clip-rule="evenodd" d="M1045.5 580V562.186H1052.5V580H1045.5Z" fill="black"/>
<path fill-rule="evenodd" clip-rule="evenodd" d="M1089.8 580V562.186H1096.8V580H1089.8Z" fill="black"/>
<path fill-rule="evenodd" clip-rule="evenodd" d="M879 582H766C764.343 582 763 583.343 763 585V587C763 588.657 764.343 590 766 590H879C880.657 590 882 588.657 882 587V585C882 583.343 880.657 582 879 582ZM766 575C760.477 575 756 579.477 756 585V587C756 592.523 760.477 597 766 597H879C884.523 597 889 592.523 889 587V585C889 579.477 884.523 575 879 575H766Z" fill="black"/>
<path fill-rule="evenodd" clip-rule="evenodd" d="M1128 582H1015C1013.34 582 1012 583.343 1012 585V587C1012 588.657 1013.34 590 1015 590H1128C1129.66 590 1131 588.657 1131 587V585C1131 583.343 1129.66 582 1128 582ZM1015 575C1009.48 575 1005 579.477 1005 585V587C1005 592.523 1009.48 597 1015 597H1128C1133.52 597 1138 592.523 1138 587V585C1138 579.477 1133.52 575 1128 575H1015Z" fill="black"/>
<path fill-rule="evenodd" clip-rule="evenodd" d="M468.5 698C475.404 698 481 703.596 481 710.5C481 717.404 475.404 723 468.5 723H351C339.954 723 331 714.046 331 703V615.5C331 608.596 336.596 603 343.5 603C350.404 603 356 608.596 356 615.5V693C356 695.761 358.239 698 361 698H468.5ZM468.5 705C471.538 705 474 707.462 474 710.5C474 713.538 471.538 716 468.5 716H353C344.716 716 338 709.284 338 701V615.5C338 612.462 340.463 610 343.5 610C346.538 610 349 612.462 349 615.5V695C349 700.523 353.477 705 359 705H468.5Z" fill="black"/>
<path d="M461 717H454V900H461V717Z" fill="black"/>
<path d="M356 717H349V900H356V717Z" fill="black"/>
<path fill-rule="evenodd" clip-rule="evenodd" d="M115 69C106.716 69 100 75.7157 100 84V154C100 162.284 106.716 169 115 169H385C393.284 169 400 162.284 400 154V84C400 75.7157 393.284 69 385 69H115ZM117 76C111.477 76 107 80.4772 107 86V152C107 157.523 111.477 162 117 162H383C388.523 162 393 157.523 393 152V86C393 80.4772 388.523 76 383 76H117Z" fill="black"/>
<path d="M200 69H207V169H200V69Z" fill="black"/>
<path d="M130 0H137V76H130V0Z" fill="black"/>
<path d="M363 0H370V76H363V0Z" fill="black"/>
<path d="M128.5 114C128.5 114 137.484 103 154.063 103C170.642 103 180 114 180 114" stroke="black" stroke-width="7" stroke-linecap="round"/>
<path fill-rule="evenodd" clip-rule="evenodd" d="M143.813 125.082C142.674 126.623 140.503 126.961 138.948 125.835C137.382 124.701 137.032 122.513 138.165 120.947L141 123C138.165 120.947 138.166 120.946 138.168 120.944L138.17 120.941L138.175 120.934L138.186 120.919L138.213 120.883C138.234 120.855 138.259 120.822 138.289 120.784C138.348 120.707 138.427 120.609 138.525 120.493C138.72 120.26 138.993 119.953 139.346 119.597C140.05 118.887 141.083 117.974 142.464 117.071C145.247 115.25 149.403 113.5 155 113.5C160.597 113.5 164.754 115.25 167.537 117.071C168.918 117.974 169.95 118.887 170.655 119.597C171.008 119.953 171.281 120.26 171.476 120.492C171.574 120.609 171.652 120.707 171.712 120.784C171.742 120.822 171.767 120.855 171.787 120.883L171.815 120.919L171.826 120.934L171.831 120.941L171.833 120.944C171.834 120.946 171.835 120.947 169.059 122.958L171.835 120.947C172.969 122.513 172.619 124.701 171.053 125.835C169.497 126.961 167.327 126.623 166.187 125.082C166.187 125.082 166.187 125.082 166.186 125.081C166.178 125.07 166.153 125.04 166.114 124.992C166.033 124.897 165.891 124.735 165.686 124.528C165.274 124.113 164.617 123.526 163.705 122.929C161.902 121.75 159.058 120.5 155 120.5C150.942 120.5 148.098 121.75 146.295 122.929C145.383 123.526 144.726 124.113 144.314 124.528C144.109 124.735 143.967 124.896 143.887 124.992C143.847 125.039 143.823 125.07 143.814 125.081C143.814 125.082 143.814 125.082 143.813 125.082Z" fill="black"/>
<path d="M160 133C160 135.761 157.761 138 155 138C152.239 138 150 135.761 150 133C150 130.239 152.239 128 155 128C157.761 128 160 130.239 160 133Z" fill="black"/>
</svg>
