<svg width="1300" height="1000" viewBox="0 0 1300 1000" fill="none" xmlns="http://www.w3.org/2000/svg">
<path fill-rule="evenodd" clip-rule="evenodd" d="M295 653V592C295 580.954 303.954 572 315 572H636C647.046 572 656 580.954 656 592V653H662C673.046 653 682 661.954 682 673V838H645V905H612V838H341V905H308V838H271V673C271 661.954 279.954 653 291 653H295ZM302 653V592C302 584.82 307.82 579 315 579H636C643.18 579 649 584.82 649 592V653H644C632.954 653 624 661.954 624 673V697H329V673C329 661.954 320.046 653 309 653H302ZM291 660C283.82 660 278 665.82 278 673V794H675V673C675 665.82 669.18 660 662 660H644C636.82 660 631 665.82 631 673V740H322V673C322 665.82 316.18 660 309 660H291ZM329 704V733H624V704H329ZM278 802H675V831H278V802ZM315 838V898H334V838H315ZM619 838V898H638V838H619Z" fill="black"/>
<path fill-rule="evenodd" clip-rule="evenodd" d="M827 163H1148C1155.18 163 1161 168.82 1161 176V901H814V176C814 168.82 819.82 163 827 163ZM1148 156C1159.05 156 1168 164.954 1168 176V908H807V176C807 164.954 815.954 156 827 156H1148Z" fill="black"/>
<path fill-rule="evenodd" clip-rule="evenodd" d="M808.5 335.5H1164.5V342.5H808.5V335.5Z" fill="black"/>
<path fill-rule="evenodd" clip-rule="evenodd" d="M808.5 514.5H1164.5V521.5H808.5V514.5Z" fill="black"/>
<path fill-rule="evenodd" clip-rule="evenodd" d="M808.5 694.5H1164.5V701.5H808.5V694.5Z" fill="black"/>
<path fill-rule="evenodd" clip-rule="evenodd" d="M808.5 877.5H1164.5V884.5H808.5V877.5Z" fill="black"/>
<path fill-rule="evenodd" clip-rule="evenodd" d="M808.5 175.5H1164.5V182.5H808.5V175.5Z" fill="black"/>
<path fill-rule="evenodd" clip-rule="evenodd" d="M807.5 354.5H1163.5V361.5H807.5V354.5Z" fill="black"/>
<path fill-rule="evenodd" clip-rule="evenodd" d="M807.5 533.5H1163.5V540.5H807.5V533.5Z" fill="black"/>
<path fill-rule="evenodd" clip-rule="evenodd" d="M807.5 713.5H1163.5V720.5H807.5V713.5Z" fill="black"/>
<path fill-rule="evenodd" clip-rule="evenodd" d="M864 210H841V335H864V210ZM841 203C837.134 203 834 206.134 834 210V342H871V210C871 206.134 867.866 203 864 203H841Z" fill="black"/>
<path fill-rule="evenodd" clip-rule="evenodd" d="M952.554 394.586L932.123 390.952L910.903 510.248L931.334 513.882L952.554 394.586ZM933.349 384.06C929.543 383.383 925.908 385.92 925.231 389.726L904.011 509.022C903.334 512.828 905.87 516.463 909.677 517.14L930.108 520.774C933.914 521.451 937.549 518.914 938.226 515.108L959.446 395.812C960.123 392.006 957.587 388.371 953.78 387.694L933.349 384.06Z" fill="black"/>
<path fill-rule="evenodd" clip-rule="evenodd" d="M976.117 573.586L996.549 569.952L1017.77 689.248L997.338 692.882L976.117 573.586ZM995.323 563.06C999.129 562.383 1002.76 564.92 1003.44 568.726L1024.66 688.022C1025.34 691.828 1022.8 695.463 1019 696.14L998.564 699.774C994.757 700.451 991.123 697.914 990.446 694.108L969.226 574.812C968.549 571.006 971.085 567.371 974.892 566.694L995.323 563.06Z" fill="black"/>
<path fill-rule="evenodd" clip-rule="evenodd" d="M925 210H902V335H925V210ZM902 203C898.134 203 895 206.134 895 210V342H932V210C932 206.134 928.866 203 925 203H902Z" fill="black"/>
<path fill-rule="evenodd" clip-rule="evenodd" d="M1015 389H992V514H1015V389ZM992 382C988.134 382 985 385.134 985 389V521H1022V389C1022 385.134 1018.87 382 1015 382H992Z" fill="black"/>
<path fill-rule="evenodd" clip-rule="evenodd" d="M965 568H942V693H965V568ZM942 561C938.134 561 935 564.134 935 568V700H972V568C972 564.134 968.866 561 965 561H942Z" fill="black"/>
<path fill-rule="evenodd" clip-rule="evenodd" d="M1015 752H992V877H1015V752ZM992 745C988.134 745 985 748.134 985 752V884H1022V752C1022 748.134 1018.87 745 1015 745H992Z" fill="black"/>
<path fill-rule="evenodd" clip-rule="evenodd" d="M1016 220H993V335H1016V220ZM993 213C989.134 213 986 216.134 986 220V342H1023V220C1023 216.134 1019.87 213 1016 213H993Z" fill="black"/>
<path fill-rule="evenodd" clip-rule="evenodd" d="M1106 408H1083V514H1106V408ZM1083 401C1079.13 401 1076 404.134 1076 408V521H1113V408C1113 404.134 1109.87 401 1106 401H1083Z" fill="black"/>
<path fill-rule="evenodd" clip-rule="evenodd" d="M1083 587H1060V693H1083V587ZM1060 580C1056.13 580 1053 583.134 1053 587V700H1090V587C1090 583.134 1086.87 580 1083 580H1060Z" fill="black"/>
<path fill-rule="evenodd" clip-rule="evenodd" d="M1106 771H1083V877H1106V771ZM1083 764C1079.13 764 1076 767.134 1076 771V884H1113V771C1113 767.134 1109.87 764 1106 764H1083Z" fill="black"/>
<path fill-rule="evenodd" clip-rule="evenodd" d="M848.5 854.5V877.5H954.5V854.5H848.5ZM841.5 877.5C841.5 881.366 844.634 884.5 848.5 884.5H961.5V847.5H848.5C844.634 847.5 841.5 850.634 841.5 854.5V877.5Z" fill="black"/>
<path fill-rule="evenodd" clip-rule="evenodd" d="M871 824V847H955V824H871ZM864 847C864 850.866 867.134 854 871 854H962V817H871C867.134 817 864 820.134 864 824V847Z" fill="black"/>
<path fill-rule="evenodd" clip-rule="evenodd" d="M1113 622H1090V693H1113V622ZM1090 615C1086.13 615 1083 618.134 1083 622V700H1120V622C1120 618.134 1116.87 615 1113 615H1090Z" fill="black"/>
<path fill-rule="evenodd" clip-rule="evenodd" d="M1052 587H1029V693H1052V587ZM1029 580C1025.13 580 1022 583.134 1022 587V700H1059V587C1059 583.134 1055.87 580 1052 580H1029Z" fill="black"/>
<path fill-rule="evenodd" clip-rule="evenodd" d="M1075 771H1052V877H1075V771ZM1052 764C1048.13 764 1045 767.134 1045 771V884H1082V771C1082 767.134 1078.87 764 1075 764H1052Z" fill="black"/>
<path fill-rule="evenodd" clip-rule="evenodd" d="M1045 771H1022V877H1045V771ZM1022 764C1018.13 764 1015 767.134 1015 771V884H1052V771C1052 767.134 1048.87 764 1045 764H1022Z" fill="black"/>
<path fill-rule="evenodd" clip-rule="evenodd" d="M895 210H872V335H895V210ZM872 203C868.134 203 865 206.134 865 210V342H902V210C902 206.134 898.866 203 895 203H872Z" fill="black"/>
<path fill-rule="evenodd" clip-rule="evenodd" d="M985 389H962V514H985V389ZM962 382C958.134 382 955 385.134 955 389V521H992V389C992 385.134 988.866 382 985 382H962Z" fill="black"/>
<path fill-rule="evenodd" clip-rule="evenodd" d="M935 568H912V693H935V568ZM912 561C908.134 561 905 564.134 905 568V700H942V568C942 564.134 938.866 561 935 561H912Z" fill="black"/>
<path fill-rule="evenodd" clip-rule="evenodd" d="M985 752H962V877H985V752ZM962 745C958.134 745 955 748.134 955 752V884H992V752C992 748.134 988.866 745 985 745H962Z" fill="black"/>
<path fill-rule="evenodd" clip-rule="evenodd" d="M906 568H883V693H906V568ZM883 561C879.134 561 876 564.134 876 568V700H913V568C913 564.134 909.866 561 906 561H883Z" fill="black"/>
<path fill-rule="evenodd" clip-rule="evenodd" d="M986 239H963V335H986V239ZM963 232C959.134 232 956 235.134 956 239V342H993V239C993 235.134 989.866 232 986 232H963Z" fill="black"/>
<path fill-rule="evenodd" clip-rule="evenodd" d="M1076 408H1053V514H1076V408ZM1053 401C1049.13 401 1046 404.134 1046 408V521H1083V408C1083 404.134 1079.87 401 1076 401H1053Z" fill="black"/>
<path fill-rule="evenodd" clip-rule="evenodd" d="M956 229H933V335H956V229ZM933 222C929.134 222 926 225.134 926 229V342H963V229C963 225.134 959.866 222 956 222H933Z" fill="black"/>
<path fill-rule="evenodd" clip-rule="evenodd" d="M1046 408H1023V514H1046V408ZM1023 401C1019.13 401 1016 404.134 1016 408V521H1053V408C1053 404.134 1049.87 401 1046 401H1023Z" fill="black"/>
</svg>
