<svg width="1300" height="1000" viewBox="0 0 1300 1000" fill="none" xmlns="http://www.w3.org/2000/svg">
<path fill-rule="evenodd" clip-rule="evenodd" d="M843 163H1164C1171.18 163 1177 168.82 1177 176V901H830V176C830 168.82 835.82 163 843 163ZM1164 156C1175.05 156 1184 164.954 1184 176V908H823V176C823 164.954 831.954 156 843 156H1164Z" fill="black"/>
<path fill-rule="evenodd" clip-rule="evenodd" d="M489 163H810C817.18 163 823 168.82 823 176V901H476V176C476 168.82 481.82 163 489 163ZM810 156C821.046 156 830 164.954 830 176V908H469V176C469 164.954 477.954 156 489 156H810Z" fill="black"/>
<path fill-rule="evenodd" clip-rule="evenodd" d="M136 163H457C464.18 163 470 168.82 470 176V901H123V176C123 168.82 128.82 163 136 163ZM457 156C468.046 156 477 164.954 477 176V908H116V176C116 164.954 124.954 156 136 156H457Z" fill="black"/>
<path fill-rule="evenodd" clip-rule="evenodd" d="M824.5 335.5H1180.5V342.5H824.5V335.5Z" fill="black"/>
<path fill-rule="evenodd" clip-rule="evenodd" d="M470.5 335.5H826.5V342.5H470.5V335.5Z" fill="black"/>
<path fill-rule="evenodd" clip-rule="evenodd" d="M117.5 335.5H473.5V342.5H117.5V335.5Z" fill="black"/>
<path fill-rule="evenodd" clip-rule="evenodd" d="M824.5 514.5H1180.5V521.5H824.5V514.5Z" fill="black"/>
<path fill-rule="evenodd" clip-rule="evenodd" d="M470.5 514.5H826.5V521.5H470.5V514.5Z" fill="black"/>
<path fill-rule="evenodd" clip-rule="evenodd" d="M117.5 514.5H473.5V521.5H117.5V514.5Z" fill="black"/>
<path fill-rule="evenodd" clip-rule="evenodd" d="M824.5 694.5H1180.5V701.5H824.5V694.5Z" fill="black"/>
<path fill-rule="evenodd" clip-rule="evenodd" d="M470.5 694.5H826.5V701.5H470.5V694.5Z" fill="black"/>
<path fill-rule="evenodd" clip-rule="evenodd" d="M117.5 694.5H473.5V701.5H117.5V694.5Z" fill="black"/>
<path fill-rule="evenodd" clip-rule="evenodd" d="M824.5 877.5H1180.5V884.5H824.5V877.5Z" fill="black"/>
<path fill-rule="evenodd" clip-rule="evenodd" d="M470.5 877.5H826.5V884.5H470.5V877.5Z" fill="black"/>
<path fill-rule="evenodd" clip-rule="evenodd" d="M117.5 877.5H473.5V884.5H117.5V877.5Z" fill="black"/>
<path fill-rule="evenodd" clip-rule="evenodd" d="M824.5 175.5H1180.5V182.5H824.5V175.5Z" fill="black"/>
<path fill-rule="evenodd" clip-rule="evenodd" d="M470.5 175.5H826.5V182.5H470.5V175.5Z" fill="black"/>
<path fill-rule="evenodd" clip-rule="evenodd" d="M117.5 175.5H473.5V182.5H117.5V175.5Z" fill="black"/>
<path fill-rule="evenodd" clip-rule="evenodd" d="M823.5 354.5H1179.5V361.5H823.5V354.5Z" fill="black"/>
<path fill-rule="evenodd" clip-rule="evenodd" d="M469.5 354.5H825.5V361.5H469.5V354.5Z" fill="black"/>
<path fill-rule="evenodd" clip-rule="evenodd" d="M116.5 354.5H472.5V361.5H116.5V354.5Z" fill="black"/>
<path fill-rule="evenodd" clip-rule="evenodd" d="M823.5 533.5H1179.5V540.5H823.5V533.5Z" fill="black"/>
<path fill-rule="evenodd" clip-rule="evenodd" d="M469.5 533.5H825.5V540.5H469.5V533.5Z" fill="black"/>
<path fill-rule="evenodd" clip-rule="evenodd" d="M116.5 533.5H472.5V540.5H116.5V533.5Z" fill="black"/>
<path fill-rule="evenodd" clip-rule="evenodd" d="M823.5 713.5H1179.5V720.5H823.5V713.5Z" fill="black"/>
<path fill-rule="evenodd" clip-rule="evenodd" d="M469.5 713.5H825.5V720.5H469.5V713.5Z" fill="black"/>
<path fill-rule="evenodd" clip-rule="evenodd" d="M116.5 713.5H472.5V720.5H116.5V713.5Z" fill="black"/>
<path fill-rule="evenodd" clip-rule="evenodd" d="M897 210H874V335H897V210ZM874 203C870.134 203 867 206.134 867 210V342H904V210C904 206.134 900.866 203 897 203H874Z" fill="black"/>
<path fill-rule="evenodd" clip-rule="evenodd" d="M768 210H745V335H768V210ZM745 203C741.134 203 738 206.134 738 210V342H775V210C775 206.134 771.866 203 768 203H745Z" fill="black"/>
<path fill-rule="evenodd" clip-rule="evenodd" d="M968.554 394.586L948.123 390.952L926.903 510.248L947.334 513.882L968.554 394.586ZM949.349 384.06C945.543 383.383 941.908 385.92 941.231 389.726L920.011 509.022C919.334 512.828 921.87 516.463 925.677 517.14L946.108 520.774C949.914 521.451 953.549 518.914 954.226 515.108L975.446 395.812C976.123 392.006 973.587 388.371 969.78 387.694L949.349 384.06Z" fill="black"/>
<path fill-rule="evenodd" clip-rule="evenodd" d="M614.554 394.586L594.123 390.952L572.903 510.248L593.334 513.882L614.554 394.586ZM595.349 384.06C591.543 383.383 587.908 385.92 587.231 389.726L566.011 509.022C565.334 512.828 567.87 516.463 571.677 517.14L592.108 520.774C595.914 521.451 599.549 518.914 600.226 515.108L621.446 395.812C622.123 392.006 619.587 388.371 615.78 387.694L595.349 384.06Z" fill="black"/>
<path fill-rule="evenodd" clip-rule="evenodd" d="M377.769 214.752L357.338 211.118L336.117 330.414L356.549 334.048L377.769 214.752ZM358.564 204.226C354.757 203.549 351.123 206.086 350.446 209.892L329.226 329.188C328.549 332.994 331.085 336.629 334.892 337.306L355.323 340.94C359.129 341.617 362.764 339.08 363.441 335.274L384.661 215.978C385.338 212.172 382.801 208.537 378.995 207.86L358.564 204.226Z" fill="black"/>
<path fill-rule="evenodd" clip-rule="evenodd" d="M992.117 573.586L1012.55 569.952L1033.77 689.248L1013.34 692.882L992.117 573.586ZM1011.32 563.06C1015.13 562.383 1018.76 564.92 1019.44 568.726L1040.66 688.022C1041.34 691.828 1038.8 695.463 1035 696.14L1014.56 699.774C1010.76 700.451 1007.12 697.914 1006.45 694.108L985.226 574.812C984.549 571.006 987.085 567.371 990.892 566.694L1011.32 563.06Z" fill="black"/>
<path fill-rule="evenodd" clip-rule="evenodd" d="M638.117 573.586L658.549 569.952L679.769 689.248L659.338 692.882L638.117 573.586ZM657.323 563.06C661.129 562.383 664.764 564.92 665.441 568.726L686.661 688.022C687.338 691.828 684.801 695.463 680.995 696.14L660.564 699.774C656.757 700.451 653.123 697.914 652.446 694.108L631.226 574.812C630.549 571.006 633.085 567.371 636.892 566.694L657.323 563.06Z" fill="black"/>
<path fill-rule="evenodd" clip-rule="evenodd" d="M251.117 394.752L271.549 391.118L292.769 510.414L272.338 514.048L251.117 394.752ZM270.323 384.226C274.129 383.549 277.764 386.086 278.441 389.892L299.661 509.188C300.338 512.994 297.801 516.629 293.995 517.306L273.564 520.94C269.757 521.617 266.123 519.08 265.446 515.274L244.226 395.978C243.549 392.172 246.085 388.537 249.892 387.86L270.323 384.226Z" fill="black"/>
<path fill-rule="evenodd" clip-rule="evenodd" d="M956 210H933V335H956V210ZM933 203C929.134 203 926 206.134 926 210V342H963V210C963 206.134 959.866 203 956 203H933Z" fill="black"/>
<path fill-rule="evenodd" clip-rule="evenodd" d="M588 210H565V335H588V210ZM565 203C561.134 203 558 206.134 558 210V342H595V210C595 206.134 591.866 203 588 203H565Z" fill="black"/>
<path fill-rule="evenodd" clip-rule="evenodd" d="M235 210H212V335H235V210ZM212 203C208.134 203 205 206.134 205 210V342H242V210C242 206.134 238.866 203 235 203H212Z" fill="black"/>
<path fill-rule="evenodd" clip-rule="evenodd" d="M1031 389H1008V514H1031V389ZM1008 382C1004.13 382 1001 385.134 1001 389V521H1038V389C1038 385.134 1034.87 382 1031 382H1008Z" fill="black"/>
<path fill-rule="evenodd" clip-rule="evenodd" d="M677 389H654V514H677V389ZM654 382C650.134 382 647 385.134 647 389V521H684V389C684 385.134 680.866 382 677 382H654Z" fill="black"/>
<path fill-rule="evenodd" clip-rule="evenodd" d="M324 389H301V514H324V389ZM301 382C297.134 382 294 385.134 294 389V521H331V389C331 385.134 327.866 382 324 382H301Z" fill="black"/>
<path fill-rule="evenodd" clip-rule="evenodd" d="M354 389H331V514H354V389ZM331 382C327.134 382 324 385.134 324 389V521H361V389C361 385.134 357.866 382 354 382H331Z" fill="black"/>
<path fill-rule="evenodd" clip-rule="evenodd" d="M414 389H391V514H414V389ZM391 382C387.134 382 384 385.134 384 389V521H421V389C421 385.134 417.866 382 414 382H391Z" fill="black"/>
<path fill-rule="evenodd" clip-rule="evenodd" d="M241 389H218V514H241V389ZM218 382C214.134 382 211 385.134 211 389V521H248V389C248 385.134 244.866 382 241 382H218Z" fill="black"/>
<path fill-rule="evenodd" clip-rule="evenodd" d="M981 568H958V693H981V568ZM958 561C954.134 561 951 564.134 951 568V700H988V568C988 564.134 984.866 561 981 561H958Z" fill="black"/>
<path fill-rule="evenodd" clip-rule="evenodd" d="M627 568H604V693H627V568ZM604 561C600.134 561 597 564.134 597 568V700H634V568C634 564.134 630.866 561 627 561H604Z" fill="black"/>
<path fill-rule="evenodd" clip-rule="evenodd" d="M275 568H252V693H275V568ZM252 561C248.134 561 245 564.134 245 568V700H282V568C282 564.134 278.866 561 275 561H252Z" fill="black"/>
<path fill-rule="evenodd" clip-rule="evenodd" d="M1031 752H1008V877H1031V752ZM1008 745C1004.13 745 1001 748.134 1001 752V884H1038V752C1038 748.134 1034.87 745 1031 745H1008Z" fill="black"/>
<path fill-rule="evenodd" clip-rule="evenodd" d="M677 752H654V877H677V752ZM654 745C650.134 745 647 748.134 647 752V884H684V752C684 748.134 680.866 745 677 745H654Z" fill="black"/>
<path fill-rule="evenodd" clip-rule="evenodd" d="M1046 220H1023V335H1046V220ZM1023 213C1019.13 213 1016 216.134 1016 220V342H1053V220C1053 216.134 1049.87 213 1046 213H1023Z" fill="black"/>
<path fill-rule="evenodd" clip-rule="evenodd" d="M1076 220H1053V335H1076V220ZM1053 213C1049.13 213 1046 216.134 1046 220V342H1083V220C1083 216.134 1079.87 213 1076 213H1053Z" fill="black"/>
<path fill-rule="evenodd" clip-rule="evenodd" d="M1106 220H1083V335H1106V220ZM1083 213C1079.13 213 1076 216.134 1076 220V342H1113V220C1113 216.134 1109.87 213 1106 213H1083Z" fill="black"/>
<path fill-rule="evenodd" clip-rule="evenodd" d="M1136 220H1113V335H1136V220ZM1113 213C1109.13 213 1106 216.134 1106 220V342H1143V220C1143 216.134 1139.87 213 1136 213H1113Z" fill="black"/>
<path fill-rule="evenodd" clip-rule="evenodd" d="M678 220H655V335H678V220ZM655 213C651.134 213 648 216.134 648 220V342H685V220C685 216.134 681.866 213 678 213H655Z" fill="black"/>
<path fill-rule="evenodd" clip-rule="evenodd" d="M325 220H302V335H325V220ZM302 213C298.134 213 295 216.134 295 220V342H332V220C332 216.134 328.866 213 325 213H302Z" fill="black"/>
<path fill-rule="evenodd" clip-rule="evenodd" d="M1121 408H1098V514H1121V408ZM1098 401C1094.13 401 1091 404.134 1091 408V521H1128V408C1128 404.134 1124.87 401 1121 401H1098Z" fill="black"/>
<path fill-rule="evenodd" clip-rule="evenodd" d="M767 408H744V514H767V408ZM744 401C740.134 401 737 404.134 737 408V521H774V408C774 404.134 770.866 401 767 401H744Z" fill="black"/>
<path fill-rule="evenodd" clip-rule="evenodd" d="M384 408H361V514H384V408ZM361 401C357.134 401 354 404.134 354 408V521H391V408C391 404.134 387.866 401 384 401H361Z" fill="black"/>
<path fill-rule="evenodd" clip-rule="evenodd" d="M1098 587H1075V693H1098V587ZM1075 580C1071.13 580 1068 583.134 1068 587V700H1105V587C1105 583.134 1101.87 580 1098 580H1075Z" fill="black"/>
<path fill-rule="evenodd" clip-rule="evenodd" d="M744 587H721V693H744V587ZM721 580C717.134 580 714 583.134 714 587V700H751V587C751 583.134 747.866 580 744 580H721Z" fill="black"/>
<path fill-rule="evenodd" clip-rule="evenodd" d="M1121 771H1098V877H1121V771ZM1098 764C1094.13 764 1091 767.134 1091 771V884H1128V771C1128 767.134 1124.87 764 1121 764H1098Z" fill="black"/>
<path fill-rule="evenodd" clip-rule="evenodd" d="M767 771H744V877H767V771ZM744 764C740.134 764 737 767.134 737 771V884H774V771C774 767.134 770.866 764 767 764H744Z" fill="black"/>
<path fill-rule="evenodd" clip-rule="evenodd" d="M398 771H375V877H398V771ZM375 764C371.134 764 368 767.134 368 771V884H405V771C405 767.134 401.866 764 398 764H375Z" fill="black"/>
<path fill-rule="evenodd" clip-rule="evenodd" d="M428 771H405V877H428V771ZM405 764C401.134 764 398 767.134 398 771V884H435V771C435 767.134 431.866 764 428 764H405Z" fill="black"/>
<path fill-rule="evenodd" clip-rule="evenodd" d="M308 771H285V877H308V771ZM285 764C281.134 764 278 767.134 278 771V884H315V771C315 767.134 311.866 764 308 764H285Z" fill="black"/>
<path fill-rule="evenodd" clip-rule="evenodd" d="M218 771H195V877H218V771ZM195 764C191.134 764 188 767.134 188 771V884H225V771C225 767.134 221.866 764 218 764H195Z" fill="black"/>
<path fill-rule="evenodd" clip-rule="evenodd" d="M864.5 854.5V877.5H970.5V854.5H864.5ZM857.5 877.5C857.5 881.366 860.634 884.5 864.5 884.5H977.5V847.5H864.5C860.634 847.5 857.5 850.634 857.5 854.5V877.5Z" fill="black"/>
<path fill-rule="evenodd" clip-rule="evenodd" d="M887 824V847H971V824H887ZM880 847C880 850.866 883.134 854 887 854H978V817H887C883.134 817 880 820.134 880 824V847Z" fill="black"/>
<path fill-rule="evenodd" clip-rule="evenodd" d="M1128 622H1105V693H1128V622ZM1105 615C1101.13 615 1098 618.134 1098 622V700H1135V622C1135 618.134 1131.87 615 1128 615H1105Z" fill="black"/>
<path fill-rule="evenodd" clip-rule="evenodd" d="M774 622H751V693H774V622ZM751 615C747.134 615 744 618.134 744 622V700H781V622C781 618.134 777.866 615 774 615H751Z" fill="black"/>
<path fill-rule="evenodd" clip-rule="evenodd" d="M335 622H312V693H335V622ZM312 615C308.134 615 305 618.134 305 622V700H342V622C342 618.134 338.866 615 335 615H312Z" fill="black"/>
<path fill-rule="evenodd" clip-rule="evenodd" d="M365 622H342V693H365V622ZM342 615C338.134 615 335 618.134 335 622V700H372V622C372 618.134 368.866 615 365 615H342Z" fill="black"/>
<path fill-rule="evenodd" clip-rule="evenodd" d="M395 623H372V694H395V623ZM372 616C368.134 616 365 619.134 365 623V701H402V623C402 619.134 398.866 616 395 616H372Z" fill="black"/>
<path fill-rule="evenodd" clip-rule="evenodd" d="M1068 587H1045V693H1068V587ZM1045 580C1041.13 580 1038 583.134 1038 587V700H1075V587C1075 583.134 1071.87 580 1068 580H1045Z" fill="black"/>
<path fill-rule="evenodd" clip-rule="evenodd" d="M714 587H691V693H714V587ZM691 580C687.134 580 684 583.134 684 587V700H721V587C721 583.134 717.866 580 714 580H691Z" fill="black"/>
<path fill-rule="evenodd" clip-rule="evenodd" d="M305 587H282V693H305V587ZM282 580C278.134 580 275 583.134 275 587V700H312V587C312 583.134 308.866 580 305 580H282Z" fill="black"/>
<path fill-rule="evenodd" clip-rule="evenodd" d="M305 587H282V693H305V587ZM282 580C278.134 580 275 583.134 275 587V700H312V587C312 583.134 308.866 580 305 580H282Z" fill="black"/>
<path fill-rule="evenodd" clip-rule="evenodd" d="M425 587H402V693H425V587ZM402 580C398.134 580 395 583.134 395 587V700H432V587C432 583.134 428.866 580 425 580H402Z" fill="black"/>
<path fill-rule="evenodd" clip-rule="evenodd" d="M1091 771H1068V877H1091V771ZM1068 764C1064.13 764 1061 767.134 1061 771V884H1098V771C1098 767.134 1094.87 764 1091 764H1068Z" fill="black"/>
<path fill-rule="evenodd" clip-rule="evenodd" d="M737 771H714V877H737V771ZM714 764C710.134 764 707 767.134 707 771V884H744V771C744 767.134 740.866 764 737 764H714Z" fill="black"/>
<path fill-rule="evenodd" clip-rule="evenodd" d="M368 771H345V877H368V771ZM345 764C341.134 764 338 767.134 338 771V884H375V771C375 767.134 371.866 764 368 764H345Z" fill="black"/>
<path fill-rule="evenodd" clip-rule="evenodd" d="M278 771H255V877H278V771ZM255 764C251.134 764 248 767.134 248 771V884H285V771C285 767.134 281.866 764 278 764H255Z" fill="black"/>
<path fill-rule="evenodd" clip-rule="evenodd" d="M188 771H165V877H188V771ZM165 764C161.134 764 158 767.134 158 771V884H195V771C195 767.134 191.866 764 188 764H165Z" fill="black"/>
<path fill-rule="evenodd" clip-rule="evenodd" d="M1061 771H1038V877H1061V771ZM1038 764C1034.13 764 1031 767.134 1031 771V884H1068V771C1068 767.134 1064.87 764 1061 764H1038Z" fill="black"/>
<path fill-rule="evenodd" clip-rule="evenodd" d="M707 771H684V877H707V771ZM684 764C680.134 764 677 767.134 677 771V884H714V771C714 767.134 710.866 764 707 764H684Z" fill="black"/>
<path fill-rule="evenodd" clip-rule="evenodd" d="M338 771H315V877H338V771ZM315 764C311.134 764 308 767.134 308 771V884H345V771C345 767.134 341.866 764 338 764H315Z" fill="black"/>
<path fill-rule="evenodd" clip-rule="evenodd" d="M248 771H225V877H248V771ZM225 764C221.134 764 218 767.134 218 771V884H255V771C255 767.134 251.866 764 248 764H225Z" fill="black"/>
<path fill-rule="evenodd" clip-rule="evenodd" d="M926 210L903 210V335H926V210ZM903 203C899.134 203 896 206.134 896 210V342H933V210C933 206.134 929.866 203 926 203H903Z" fill="black"/>
<path fill-rule="evenodd" clip-rule="evenodd" d="M558 210L535 210V335H558V210ZM535 203C531.134 203 528 206.134 528 210V342H565V210C565 206.134 561.866 203 558 203H535Z" fill="black"/>
<path fill-rule="evenodd" clip-rule="evenodd" d="M205 210L182 210V335H205V210ZM182 203C178.134 203 175 206.134 175 210V342H212V210C212 206.134 208.866 203 205 203H182Z" fill="black"/>
<path fill-rule="evenodd" clip-rule="evenodd" d="M1001 389H978V514H1001V389ZM978 382C974.134 382 971 385.134 971 389V521H1008V389C1008 385.134 1004.87 382 1001 382H978Z" fill="black"/>
<path fill-rule="evenodd" clip-rule="evenodd" d="M917 389H894V514H917V389ZM894 382C890.134 382 887 385.134 887 389V521H924V389C924 385.134 920.866 382 917 382H894Z" fill="black"/>
<path fill-rule="evenodd" clip-rule="evenodd" d="M887 389H864V514H887V389ZM864 382C860.134 382 857 385.134 857 389V521H894V389C894 385.134 890.866 382 887 382H864Z" fill="black"/>
<path fill-rule="evenodd" clip-rule="evenodd" d="M647 389H624V514H647V389ZM624 382C620.134 382 617 385.134 617 389V521H654V389C654 385.134 650.866 382 647 382H624Z" fill="black"/>
<path fill-rule="evenodd" clip-rule="evenodd" d="M414 210H391V335H414V210ZM391 203C387.134 203 384 206.134 384 210V342H421V210C421 206.134 417.866 203 414 203H391Z" fill="black"/>
<path fill-rule="evenodd" clip-rule="evenodd" d="M951 568H928V693H951V568ZM928 561C924.134 561 921 564.134 921 568V700H958V568C958 564.134 954.866 561 951 561H928Z" fill="black"/>
<path fill-rule="evenodd" clip-rule="evenodd" d="M597 568H574V693H597V568ZM574 561C570.134 561 567 564.134 567 568V700H604V568C604 564.134 600.866 561 597 561H574Z" fill="black"/>
<path fill-rule="evenodd" clip-rule="evenodd" d="M245 568H222V693H245V568ZM222 561C218.134 561 215 564.134 215 568V700H252V568C252 564.134 248.866 561 245 561H222Z" fill="black"/>
<path fill-rule="evenodd" clip-rule="evenodd" d="M1001 752H978V877H1001V752ZM978 745C974.134 745 971 748.134 971 752V884H1008V752C1008 748.134 1004.87 745 1001 745H978Z" fill="black"/>
<path fill-rule="evenodd" clip-rule="evenodd" d="M647 752H624V877H647V752ZM624 745C620.134 745 617 748.134 617 752V884H654V752C654 748.134 650.866 745 647 745H624Z" fill="black"/>
<path fill-rule="evenodd" clip-rule="evenodd" d="M587 752H564V877H587V752ZM564 745C560.134 745 557 748.134 557 752V884H594V752C594 748.134 590.866 745 587 745H564Z" fill="black"/>
<path fill-rule="evenodd" clip-rule="evenodd" d="M617 752H594V877H617V752ZM594 745C590.134 745 587 748.134 587 752V884H624V752C624 748.134 620.866 745 617 745H594Z" fill="black"/>
<path fill-rule="evenodd" clip-rule="evenodd" d="M557 752H534V877H557V752ZM534 745C530.134 745 527 748.134 527 752V884H564V752C564 748.134 560.866 745 557 745H534Z" fill="black"/>
<path fill-rule="evenodd" clip-rule="evenodd" d="M922 568H899V693H922V568ZM899 561C895.134 561 892 564.134 892 568V700H929V568C929 564.134 925.866 561 922 561H899Z" fill="black"/>
<path fill-rule="evenodd" clip-rule="evenodd" d="M568 568H545V693H568V568ZM545 561C541.134 561 538 564.134 538 568V700H575V568C575 564.134 571.866 561 568 561H545Z" fill="black"/>
<path fill-rule="evenodd" clip-rule="evenodd" d="M216 568H193V693H216V568ZM193 561C189.134 561 186 564.134 186 568V700H223V568C223 564.134 219.866 561 216 561H193Z" fill="black"/>
<path fill-rule="evenodd" clip-rule="evenodd" d="M1016 239H993V335H1016V239ZM993 232C989.134 232 986 235.134 986 239V342H1023V239C1023 235.134 1019.87 232 1016 232H993Z" fill="black"/>
<path fill-rule="evenodd" clip-rule="evenodd" d="M648 239H625V335H648V239ZM625 232C621.134 232 618 235.134 618 239V342H655V239C655 235.134 651.866 232 648 232H625Z" fill="black"/>
<path fill-rule="evenodd" clip-rule="evenodd" d="M738 239H715V335H738V239ZM715 232C711.134 232 708 235.134 708 239V342H745V239C745 235.134 741.866 232 738 232H715Z" fill="black"/>
<path fill-rule="evenodd" clip-rule="evenodd" d="M295 239H272V335H295V239ZM272 232C268.134 232 265 235.134 265 239V342H302V239C302 235.134 298.866 232 295 232H272Z" fill="black"/>
<path fill-rule="evenodd" clip-rule="evenodd" d="M1091 408H1068V514H1091V408ZM1068 401C1064.13 401 1061 404.134 1061 408V521H1098V408C1098 404.134 1094.87 401 1091 401H1068Z" fill="black"/>
<path fill-rule="evenodd" clip-rule="evenodd" d="M737 408H714V514H737V408ZM714 401C710.134 401 707 404.134 707 408V521H744V408C744 404.134 740.866 401 737 401H714Z" fill="black"/>
<path fill-rule="evenodd" clip-rule="evenodd" d="M211 408H188V514H211V408ZM188 401C184.134 401 181 404.134 181 408V521H218V408C218 404.134 214.866 401 211 401H188Z" fill="black"/>
<path fill-rule="evenodd" clip-rule="evenodd" d="M986 229H963V335H986V229ZM963 222C959.134 222 956 225.134 956 229V342H993V229C993 225.134 989.866 222 986 222H963Z" fill="black"/>
<path fill-rule="evenodd" clip-rule="evenodd" d="M618 229H595V335H618V229ZM595 222C591.134 222 588 225.134 588 229V342H625V229C625 225.134 621.866 222 618 222H595Z" fill="black"/>
<path fill-rule="evenodd" clip-rule="evenodd" d="M528 229H505V335H528V229ZM505 222C501.134 222 498 225.134 498 229V342H535V229C535 225.134 531.866 222 528 222H505Z" fill="black"/>
<path fill-rule="evenodd" clip-rule="evenodd" d="M708 229H685V335H708V229ZM685 222C681.134 222 678 225.134 678 229V342H715V229C715 225.134 711.866 222 708 222H685Z" fill="black"/>
<path fill-rule="evenodd" clip-rule="evenodd" d="M265 229H242V335H265V229ZM242 222C238.134 222 235 225.134 235 229V342H272V229C272 225.134 268.866 222 265 222H242Z" fill="black"/>
<path fill-rule="evenodd" clip-rule="evenodd" d="M1061 408H1038V514H1061V408ZM1038 401C1034.13 401 1031 404.134 1031 408V521H1068V408C1068 404.134 1064.87 401 1061 401H1038Z" fill="black"/>
<path fill-rule="evenodd" clip-rule="evenodd" d="M707 408H684V514H707V408ZM684 401C680.134 401 677 404.134 677 408V521H714V408C714 404.134 710.866 401 707 401H684Z" fill="black"/>
<path fill-rule="evenodd" clip-rule="evenodd" d="M562 408H539V514H562V408ZM539 401C535.134 401 532 404.134 532 408V521H569V408C569 404.134 565.866 401 562 401H539Z" fill="black"/>
<path fill-rule="evenodd" clip-rule="evenodd" d="M181 408H158V514H181V408ZM158 401C154.134 401 151 404.134 151 408V521H188V408C188 404.134 184.866 401 181 401H158Z" fill="black"/>
</svg>
