<svg width="1300" height="1000" viewBox="0 0 1300 1000" fill="none" xmlns="http://www.w3.org/2000/svg">
<g clip-path="url(#clip0_1446_125)">
<path d="M644 630H651V900H644V630Z" fill="black"/>
<path d="M1162 630H1169V900H1162V630Z" fill="black"/>
<path d="M914 630H921V900H914V630Z" fill="black"/>
<path fill-rule="evenodd" clip-rule="evenodd" d="M862 434H704C699.582 434 696 437.582 696 442V548C696 552.418 699.582 556 704 556H862C866.418 556 870 552.418 870 548V442C870 437.582 866.418 434 862 434ZM704 427C695.716 427 689 433.716 689 442V548C689 556.284 695.716 563 704 563H862C870.284 563 877 556.284 877 548V442C877 433.716 870.284 427 862 427H704Z" fill="black"/>
<path fill-rule="evenodd" clip-rule="evenodd" d="M871.5 541.5H694V534.5H871.5V541.5Z" fill="black"/>
<path fill-rule="evenodd" clip-rule="evenodd" d="M757.5 580V562.186H764.5V580H757.5Z" fill="black"/>
<path fill-rule="evenodd" clip-rule="evenodd" d="M801.797 580V562.186H808.797V580H801.797Z" fill="black"/>
<path fill-rule="evenodd" clip-rule="evenodd" d="M840 582H727C725.343 582 724 583.343 724 585V587C724 588.657 725.343 590 727 590H840C841.657 590 843 588.657 843 587V585C843 583.343 841.657 582 840 582ZM727 575C721.477 575 717 579.477 717 585V587C717 592.523 721.477 597 727 597H840C845.523 597 850 592.523 850 587V585C850 579.477 845.523 575 840 575H727Z" fill="black"/>
<path fill-rule="evenodd" clip-rule="evenodd" d="M1121 434H963C958.582 434 955 437.582 955 442V548C955 552.418 958.582 556 963 556H1121C1125.42 556 1129 552.418 1129 548V442C1129 437.582 1125.42 434 1121 434ZM963 427C954.716 427 948 433.716 948 442V548C948 556.284 954.716 563 963 563H1121C1129.28 563 1136 556.284 1136 548V442C1136 433.716 1129.28 427 1121 427H963Z" fill="black"/>
<path fill-rule="evenodd" clip-rule="evenodd" d="M1130.5 541.5H953V534.5H1130.5V541.5Z" fill="black"/>
<path fill-rule="evenodd" clip-rule="evenodd" d="M1016.5 580V562.186H1023.5V580H1016.5Z" fill="black"/>
<path fill-rule="evenodd" clip-rule="evenodd" d="M1060.8 580V562.186H1067.8V580H1060.8Z" fill="black"/>
<path fill-rule="evenodd" clip-rule="evenodd" d="M1099 582H986C984.343 582 983 583.343 983 585V587C983 588.657 984.343 590 986 590H1099C1100.66 590 1102 588.657 1102 587V585C1102 583.343 1100.66 582 1099 582ZM986 575C980.477 575 976 579.477 976 585V587C976 592.523 980.477 597 986 597H1099C1104.52 597 1109 592.523 1109 587V585C1109 579.477 1104.52 575 1099 575H986Z" fill="black"/>
<path fill-rule="evenodd" clip-rule="evenodd" d="M1300 434H1214C1209.58 434 1206 437.582 1206 442V548C1206 552.418 1209.58 556 1214 556H1300V563V434ZM1214 427C1205.72 427 1199 433.716 1199 442V548C1199 556.284 1205.72 563 1214 563H1293H1300V434V427H1214Z" fill="black"/>
<path fill-rule="evenodd" clip-rule="evenodd" d="M1300 541.5H1204V534.5H1300V541.5Z" fill="black"/>
<path fill-rule="evenodd" clip-rule="evenodd" d="M1267.5 580V562.186H1274.5V580H1267.5Z" fill="black"/>
<path fill-rule="evenodd" clip-rule="evenodd" d="M1300 582H1237C1235.34 582 1234 583.343 1234 585V587C1234 588.657 1235.34 590 1237 590H1300C1300 590 1300 583.657 1300 582ZM1237 575C1231.48 575 1227 579.477 1227 585V587C1227 592.523 1231.48 597 1237 597H1300C1300 597 1300 587.523 1300 582C1300 576.477 1300 575 1300 575H1237Z" fill="black"/>
<path d="M575.688 717H568V900H575.688V717Z" fill="black"/>
<path d="M399.688 717H392V900H399.688V717Z" fill="black"/>
<path d="M1103 717H1095.31V900H1103V717Z" fill="black"/>
<path d="M987.688 717H980V900H987.688V717Z" fill="black"/>
<path d="M1235.69 717H1228V900H1235.69V717Z" fill="black"/>
<path fill-rule="evenodd" clip-rule="evenodd" d="M115 69C106.716 69 100 75.7157 100 84V154C100 162.284 106.716 169 115 169H385C393.284 169 400 162.284 400 154V84C400 75.7157 393.284 69 385 69H115ZM117 76C111.477 76 107 80.4772 107 86V152C107 157.523 111.477 162 117 162H383C388.523 162 393 157.523 393 152V86C393 80.4772 388.523 76 383 76H117Z" fill="black"/>
<path d="M200 69H207V169H200V69Z" fill="black"/>
<path d="M130 0H137V76H130V0Z" fill="black"/>
<path d="M363 0H370V76H363V0Z" fill="black"/>
<path d="M129 114C129 114 137.484 103 154.063 103C170.642 103 180 114 180 114" stroke="black" stroke-width="7" stroke-linecap="round"/>
<path d="M141 123C141 123 145.345 117 155 117C164.655 117 169 123 169 123" stroke="black" stroke-width="7" stroke-linecap="round"/>
<circle cx="155" cy="133" r="5" fill="black"/>
<path d="M382.5 701.5H584.5C589.471 701.5 593.5 705.529 593.5 710.5C593.5 715.471 589.471 719.5 584.5 719.5H382.5C377.529 719.5 373.5 715.471 373.5 710.5C373.5 705.529 377.529 701.5 382.5 701.5ZM969.5 701.5H1113.5C1118.47 701.5 1122.5 705.529 1122.5 710.5C1122.5 715.471 1118.47 719.5 1113.5 719.5H969.5C964.529 719.5 960.5 715.471 960.5 710.5C960.5 705.529 964.529 701.5 969.5 701.5ZM1307 719.5H1217.5C1212.53 719.5 1208.5 715.471 1208.5 710.5C1208.5 705.529 1212.53 701.5 1217.5 701.5H1289.5H1307C1311.97 701.5 1316 705.529 1316 710.5C1316 715.471 1311.97 719.5 1307 719.5ZM627 593.5H1299.5C1308.61 593.5 1316 600.887 1316 610C1316 619.113 1308.61 626.5 1299.5 626.5H627C617.887 626.5 610.5 619.113 610.5 610C610.5 600.887 617.887 593.5 627 593.5Z" stroke="black" stroke-width="7"/>
</g>
<defs>
<clipPath id="clip0_1446_125">
<rect width="1300" height="1000" fill="white"/>
</clipPath>
</defs>
</svg>
