<svg width="1300" height="1000" viewBox="0 0 1300 1000" fill="none" xmlns="http://www.w3.org/2000/svg">
<g clip-path="url(#clip0_1446_125)">
<path d="M644 630H651V900H644V630Z" fill="black"/>
<path d="M1162 630H1169V900H1162V630Z" fill="black"/>
<path d="M914 630H921V900H914V630Z" fill="black"/>
<path fill-rule="evenodd" clip-rule="evenodd" d="M862 434H704C699.582 434 696 437.582 696 442V548C696 552.418 699.582 556 704 556H862C866.418 556 870 552.418 870 548V442C870 437.582 866.418 434 862 434ZM704 427C695.716 427 689 433.716 689 442V548C689 556.284 695.716 563 704 563H862C870.284 563 877 556.284 877 548V442C877 433.716 870.284 427 862 427H704Z" fill="black"/>
<path fill-rule="evenodd" clip-rule="evenodd" d="M871.5 541.5H694V534.5H871.5V541.5Z" fill="black"/>
<path fill-rule="evenodd" clip-rule="evenodd" d="M757.5 580V562.186H764.5V580H757.5Z" fill="black"/>
<path fill-rule="evenodd" clip-rule="evenodd" d="M801.797 580V562.186H808.797V580H801.797Z" fill="black"/>
<path fill-rule="evenodd" clip-rule="evenodd" d="M840 582H727C725.343 582 724 583.343 724 585V587C724 588.657 725.343 590 727 590H840C841.657 590 843 588.657 843 587V585C843 583.343 841.657 582 840 582ZM727 575C721.477 575 717 579.477 717 585V587C717 592.523 721.477 597 727 597H840C845.523 597 850 592.523 850 587V585C850 579.477 845.523 575 840 575H727Z" fill="black"/>
<path fill-rule="evenodd" clip-rule="evenodd" d="M1121 434H963C958.582 434 955 437.582 955 442V548C955 552.418 958.582 556 963 556H1121C1125.42 556 1129 552.418 1129 548V442C1129 437.582 1125.42 434 1121 434ZM963 427C954.716 427 948 433.716 948 442V548C948 556.284 954.716 563 963 563H1121C1129.28 563 1136 556.284 1136 548V442C1136 433.716 1129.28 427 1121 427H963Z" fill="black"/>
<path fill-rule="evenodd" clip-rule="evenodd" d="M1130.5 541.5H953V534.5H1130.5V541.5Z" fill="black"/>
<path fill-rule="evenodd" clip-rule="evenodd" d="M1016.5 580V562.186H1023.5V580H1016.5Z" fill="black"/>
<path fill-rule="evenodd" clip-rule="evenodd" d="M1060.8 580V562.186H1067.8V580H1060.8Z" fill="black"/>
<path fill-rule="evenodd" clip-rule="evenodd" d="M1099 582H986C984.343 582 983 583.343 983 585V587C983 588.657 984.343 590 986 590H1099C1100.66 590 1102 588.657 1102 587V585C1102 583.343 1100.66 582 1099 582ZM986 575C980.477 575 976 579.477 976 585V587C976 592.523 980.477 597 986 597H1099C1104.52 597 1109 592.523 1109 587V585C1109 579.477 1104.52 575 1099 575H986Z" fill="black"/>
<path fill-rule="evenodd" clip-rule="evenodd" d="M1300 434H1214C1209.58 434 1206 437.582 1206 442V548C1206 552.418 1209.58 556 1214 556H1300V434ZM1214 427C1205.72 427 1199 433.716 1199 442V548C1199 556.284 1205.72 563 1214 563H1300V556V434V427H1214Z" fill="black"/>
<path fill-rule="evenodd" clip-rule="evenodd" d="M1300 541.5H1204V534.5H1300V541.5Z" fill="black"/>
<path fill-rule="evenodd" clip-rule="evenodd" d="M1267.5 580V562.186H1274.5V580H1267.5Z" fill="black"/>
<path fill-rule="evenodd" clip-rule="evenodd" d="M1300 582H1237C1235.34 582 1234 583.343 1234 585V587C1234 588.657 1235.34 590 1237 590H1300C1300 588.343 1300 582 1300 582ZM1237 575C1231.48 575 1227 579.477 1227 585V587C1227 592.523 1231.48 597 1237 597H1300C1300 597 1300 595.523 1300 590C1300 584.477 1300 575 1300 575H1237Z" fill="black"/>
<path d="M490 717H482.312V900H490V717Z" fill="black"/>
<path d="M374.688 717H367V900H374.688V717Z" fill="black"/>
<path d="M1103 717H1095.31V900H1103V717Z" fill="black"/>
<path d="M987.688 717H980V900H987.688V717Z" fill="black"/>
<path d="M1351 717H1343.31V900H1351V717Z" fill="black"/>
<path d="M1235.69 717H1228V900H1235.69V717Z" fill="black"/>
<path fill-rule="evenodd" clip-rule="evenodd" d="M115 69C106.716 69 100 75.7157 100 84V154C100 162.284 106.716 169 115 169H385C393.284 169 400 162.284 400 154V84C400 75.7157 393.284 69 385 69H115ZM117 76C111.477 76 107 80.4772 107 86V152C107 157.523 111.477 162 117 162H383C388.523 162 393 157.523 393 152V86C393 80.4772 388.523 76 383 76H117Z" fill="black"/>
<path d="M200 69H207V169H200V69Z" fill="black"/>
<path d="M130 0H137V76H130V0Z" fill="black"/>
<path d="M363 0H370V76H363V0Z" fill="black"/>
<path d="M0 900H1300V1000H0V900Z" fill="black"/>
<path fill-rule="evenodd" clip-rule="evenodd" d="M500.5 705H356.5C353.462 705 351 707.462 351 710.5C351 713.538 353.462 716 356.5 716H500.5C503.538 716 506 713.538 506 710.5C506 707.462 503.538 705 500.5 705ZM356.5 698C349.596 698 344 703.596 344 710.5C344 717.403 349.596 723 356.5 723H500.5C507.404 723 513 717.403 513 710.5C513 703.596 507.404 698 500.5 698H356.5Z" fill="black"/>
<path fill-rule="evenodd" clip-rule="evenodd" d="M1113.5 705H969.5C966.462 705 964 707.462 964 710.5C964 713.538 966.462 716 969.5 716H1113.5C1116.54 716 1119 713.538 1119 710.5C1119 707.462 1116.54 705 1113.5 705ZM969.5 698C962.596 698 957 703.596 957 710.5C957 717.403 962.596 723 969.5 723H1113.5C1120.4 723 1126 717.403 1126 710.5C1126 703.596 1120.4 698 1113.5 698H969.5Z" fill="black"/>
<path fill-rule="evenodd" clip-rule="evenodd" d="M1300.5 705H1217.5C1214.46 705 1212 707.462 1212 710.5C1212 713.538 1214.46 716 1217.5 716H1300.5C1303.54 716 1295 716 1300.5 716C1300.5 712.962 1300.5 705 1300.5 705ZM1217.5 698C1210.6 698 1205 703.596 1205 710.5C1205 717.403 1210.6 723 1217.5 723H1300.5C1300.5 716.096 1300.5 698 1300.5 698H1217.5Z" fill="black"/>
<path fill-rule="evenodd" clip-rule="evenodd" d="M1300 597H627C619.82 597 614 602.82 614 610C614 617.18 619.82 623 627 623H1300C1300 623 1300 604.18 1300 597ZM627 590C615.954 590 607 598.954 607 610C607 621.046 615.954 630 627 630H1300C1300 630 1300 608.046 1300 597V590H627Z" fill="black"/>
<path d="M129 114C129 114 137.484 103 154.063 103C170.642 103 180 114 180 114" stroke="black" stroke-width="7" stroke-linecap="round"/>
<path d="M141 123C141 123 145.345 117 155 117C164.655 117 169 123 169 123" stroke="black" stroke-width="7" stroke-linecap="round"/>
<circle cx="155" cy="133" r="5" fill="black"/>
</g>
<defs>
<clipPath id="clip0_1446_125">
<rect width="1300" height="1000" fill="white"/>
</clipPath>
</defs>
</svg>
