<svg xmlns="http://www.w3.org/2000/svg" viewBox="0 0 1300 1000"><title>3-context-expand</title><g id="Capa_2" data-name="Capa 2"><rect y="900" width="1300" height="100"/><path d="M344.81,571.12H49.91a4,4,0,0,1-4-4v-28A8.07,8.07,0,0,1,54,531H340.75a8.07,8.07,0,0,1,8.06,8.06v28A4,4,0,0,1,344.81,571.12Zm-290.89-8H340.81v-24L54,539Z"/><path d="M293.78,868.46H100.64a8.07,8.07,0,0,1-8-8.06v-217a8.06,8.06,0,0,1,8-8.05H293.78a8.06,8.06,0,0,1,8.05,8.05v217A8.07,8.07,0,0,1,293.78,868.46ZM100.64,643.3l0,217.1,193.19.06a.06.06,0,0,0,.05-.06v-217Z"/><rect x="123.04" y="719.07" width="8" height="54.64"/><rect x="67.91" y="567.12" width="8" height="333.08"/><rect x="318.81" y="567.12" width="8" height="333.08"/><path d="M285.22,535h-8V446.11a27.92,27.92,0,1,0-55.83,0h-8a35.92,35.92,0,1,1,71.83,0Z"/><rect x="211.15" y="450.93" width="11.48" height="8"/><path d="M1301,1001H-1V-1H1301ZM1,999H1299V1H1Z"/></g></svg>