<svg width="1300" height="1000" viewBox="0 0 1300 1000" fill="none" xmlns="http://www.w3.org/2000/svg"><path fill-rule="evenodd" clip-rule="evenodd" d="M839 0h-7v66c0 11.046 8.954 20 20 20h57.336C904.22 91.035 901 98.354 901 106.5c0 3.339.541 6.539 1.532 9.5H886c-11.046 0-20 8.954-20 20v764h7V138c0-8.284 6.716-15 15-15h17.998c4.561 6.679 11.823 11 20.002 11 8.179 0 15.441-4.321 20.002-11h49.996c4.562 6.679 11.822 11 20.002 11s15.44-4.321 20-11h50c4.56 6.679 11.82 11 20 11s15.44-4.321 20-11h50c4.56 6.679 11.82 11 20 11s15.44-4.321 20-11h12c8.28 0 15 6.716 15 15v762h7V136c0-11.046-8.95-20-20-20h-10.53a29.934 29.934 0 0 0 1.53-9.5c0-8.146-3.22-15.465-8.34-20.5H1300v-7H854c-8.284 0-15-6.716-15-15V0Zm340.34 86h-56.68c5.12 5.035 8.34 12.354 8.34 20.5 0 3.339-.54 6.539-1.53 9.5h43.06a29.934 29.934 0 0 1-1.53-9.5c0-8.146 3.22-15.465 8.34-20.5Zm5.98 37c2.98 2.514 6.68 4 10.68 4s7.7-1.486 10.68-4h-21.36Zm26.63-7h-31.9c-1.31-2.84-2.05-6.072-2.05-9.5 0-11.322 8.06-20.5 18-20.5s18 9.178 18 20.5c0 3.428-.74 6.66-2.05 9.5ZM1106 127c-4 0-7.7-1.486-10.68-4h21.36c-2.98 2.514-6.68 4-10.68 4Zm-15.95-11h31.9c1.31-2.84 2.05-6.072 2.05-9.5 0-11.322-8.06-20.5-18-20.5s-18 9.178-18 20.5c0 3.428.74 6.66 2.05 9.5Zm-9.05-9.5c0-8.146 3.22-15.465 8.34-20.5h-56.68c5.12 5.035 8.34 12.354 8.34 20.5 0 3.339-.54 6.539-1.53 9.5h43.06a29.934 29.934 0 0 1-1.53-9.5ZM999.336 86h-56.672C947.78 91.035 951 98.354 951 106.5c0 3.339-.541 6.539-1.532 9.5h43.064a29.907 29.907 0 0 1-1.532-9.5c0-8.146 3.22-15.465 8.336-20.5Zm5.984 37c2.98 2.514 6.68 4 10.68 4s7.7-1.486 10.68-4h-21.36Zm26.63-7h-31.9c-1.311-2.84-2.05-6.072-2.05-9.5 0-11.322 8.06-20.5 18-20.5s18 9.178 18 20.5c0 3.428-.74 6.66-2.05 9.5ZM926 127c-4 0-7.696-1.486-10.684-4h21.368c-2.988 2.514-6.684 4-10.684 4Zm-15.955-11h31.91c1.306-2.84 2.045-6.072 2.045-9.5 0-11.322-8.059-20.5-18-20.5s-18 9.178-18 20.5c0 3.428.739 6.66 2.045 9.5Z" fill="#000"/><path d="M92 714h30v7H92v-7Zm30-94H92v7h30v-7Z" fill="#000"/><path fill-rule="evenodd" clip-rule="evenodd" d="M129 449v5h7v-5c0-19.882 16.118-36 36-36s36 16.118 36 36v91h-73v-16h11v-7h-11v-5h-7v5h-11v7h11v16H55c-11.046 0-20 8.954-20 20s8.954 20 20 20v320h7v-92h196v92h7V580c11.046 0 20-8.954 20-20s-8.954-20-20-20h-50v-91c0-23.748-19.252-43-43-43s-43 19.252-43 43ZM42 560c0-7.18 5.82-13 13-13h210c7.18 0 13 5.82 13 13s-5.82 13-13 13H55c-7.18 0-13-5.82-13-13Zm216 241V674H62v127h196Zm0-134H62v-87h196v87Z" fill="#000"/></svg>