<svg xmlns="http://www.w3.org/2000/svg" viewBox="0 0 1300 1000"><defs><style>.cls-1{fill:#1e1e1c;}</style></defs><title>3-context-expand</title><g id="Capa_1" data-name="Capa 1"><rect class="cls-1" y="900" width="1300" height="100"/></g><g id="Capa_2" data-name="Capa 2"><path d="M908.18,525.56H745A25.59,25.59,0,0,1,719.39,500V206.71A25.59,25.59,0,0,1,745,181.15H908.18a25.59,25.59,0,0,1,25.56,25.56V500h0A25.59,25.59,0,0,1,908.18,525.56ZM745,189.15a17.58,17.58,0,0,0-17.56,17.56V500A17.58,17.58,0,0,0,745,517.56H908.18A17.58,17.58,0,0,0,925.74,500V206.71a17.58,17.58,0,0,0-17.56-17.56Z"/><path d="M1246.4,900h-8V125.65l-546.67-.06L691.68,900h-8V125.65a8.07,8.07,0,0,1,8.05-8.06h546.62a8.07,8.07,0,0,1,8.05,8.06Z"/><rect x="961.04" y="121.59" width="8" height="778.41"/><path d="M1185,525.56H1021.8A25.59,25.59,0,0,1,996.24,500V206.71a25.59,25.59,0,0,1,25.56-25.56H1185a25.59,25.59,0,0,1,25.56,25.56V500A25.59,25.59,0,0,1,1185,525.56ZM1021.8,189.15a17.58,17.58,0,0,0-17.56,17.56V500a17.58,17.58,0,0,0,17.56,17.56H1185A17.58,17.58,0,0,0,1202.59,500V206.71A17.58,17.58,0,0,0,1185,189.15Z"/><rect x="687.68" y="833.88" width="554.72" height="8"/></g></svg>