<svg xmlns="http://www.w3.org/2000/svg" viewBox="0 0 1300 1000"><defs><style>.cls-1{fill:#1e1e1c;}</style></defs><title>metro-door</title><g id="Capa_1" data-name="Capa 1"><rect class="cls-1" y="900" width="1300" height="100"/></g><g id="Capa_2" data-name="Capa 2"><path d="M936.19,525.56H788.73A25.59,25.59,0,0,1,763.17,500V206.71a25.59,25.59,0,0,1,25.56-25.56H936.19a25.59,25.59,0,0,1,25.56,25.56V500A25.59,25.59,0,0,1,936.19,525.56ZM788.73,189.15a17.58,17.58,0,0,0-17.56,17.56V500a17.58,17.58,0,0,0,17.56,17.56H936.19A17.58,17.58,0,0,0,953.75,500V206.71a17.58,17.58,0,0,0-17.56-17.56Z"/><path d="M1258.63,900h-8V125.65l-515.11-.06,0,774.41h-8V125.65a8.07,8.07,0,0,1,8-8.06h515.06a8.07,8.07,0,0,1,8.05,8.06Z"/><rect x="989.05" y="121.59" width="8" height="778.41"/><path d="M1197.26,525.56H1049.8A25.59,25.59,0,0,1,1024.24,500V206.71a25.59,25.59,0,0,1,25.56-25.56h147.46a25.59,25.59,0,0,1,25.56,25.56V500A25.59,25.59,0,0,1,1197.26,525.56ZM1049.8,189.15a17.58,17.58,0,0,0-17.56,17.56V500a17.58,17.58,0,0,0,17.56,17.56h147.46A17.58,17.58,0,0,0,1214.82,500V206.71a17.58,17.58,0,0,0-17.56-17.56Z"/><rect x="731.47" y="833.88" width="523.16" height="8"/><path d="M953.69,606.18H915.84c-4.51,0-8.05-2.93-8.05-6.66V549.38c0-3.73,3.54-6.66,8.05-6.66h37.85c4.52,0,8.06,2.93,8.06,6.66v50.14C961.75,603.25,958.21,606.18,953.69,606.18Zm-37.9-8h38V550.72h-38Z"/><path d="M934.77,588.73a14.28,14.28,0,1,1,14.28-14.28A14.29,14.29,0,0,1,934.77,588.73Zm0-20.56a6.28,6.28,0,1,0,6.28,6.28A6.29,6.29,0,0,0,934.77,568.17Z"/></g></svg>