<svg xmlns="http://www.w3.org/2000/svg" viewBox="0 0 1300 1000"><defs><style>.cls-1{fill:#1e1e1c;}</style></defs><title>3-context-expand</title><g id="Capa_1" data-name="Capa 1"><rect class="cls-1" y="900" width="1300" height="100"/></g><g id="Capa_2" data-name="Capa 2"><path d="M419.28,840.11H0v-8H419.28A11.13,11.13,0,0,0,430.4,821V552.25a11.13,11.13,0,0,0-11.12-11.12H0v-8H419.28a19.14,19.14,0,0,1,19.12,19.12V821A19.14,19.14,0,0,1,419.28,840.11Z"/><path d="M889.06,840.11H469.77A19.15,19.15,0,0,1,450.65,821V552.25a19.15,19.15,0,0,1,19.12-19.12H889.06v8H469.77a11.13,11.13,0,0,0-11.12,11.12V821a11.13,11.13,0,0,0,11.12,11.12H889.06Z"/><path d="M454.65,912.11H434.4a4,4,0,0,1-4-4V547.25a14.13,14.13,0,0,1,28.25,0V908.11A4,4,0,0,1,454.65,912.11Zm-16.25-8h12.25V547.25a6.13,6.13,0,0,0-12.25,0Z"/></g></svg>