<svg xmlns="http://www.w3.org/2000/svg" viewBox="0 0 1300 1000"><defs><style>.cls-1{fill:none;stroke-linejoin:round;stroke-width:8px;}.cls-1,.cls-2{stroke:#000;}.cls-2{font-size:51px;stroke-miterlimit:10;font-family:D-DINExp-Bold, D-DIN Exp;font-weight:700;letter-spacing:0.1em;}</style></defs><title>registro-civil</title><g id="Capa_2" data-name="Capa 2"><rect y="900" width="1300" height="100"/><rect class="cls-1" x="56.07" y="78.72" width="239.61" height="119.12" rx="15.12"/><line class="cls-1" x1="86.02" y1="78.72" x2="86.02" y2="0.15"/><line class="cls-1" x1="265.73" y1="78.72" x2="265.73" y2="0.15"/><rect class="cls-1" x="79.63" y="99.28" width="192.5" height="78" rx="4.05"/><text class="cls-2" transform="translate(120.97 153.84)">A 01</text><rect class="cls-1" x="270.12" y="689.61" width="215.48" height="61.67" rx="21.56"/><rect class="cls-1" x="54.27" y="689.61" width="215.48" height="61.67" rx="21.56"/><path class="cls-1" d="M0,689.61H32.71a21.56,21.56,0,0,1,21.56,21.56v18.55a21.56,21.56,0,0,1-21.56,21.56H0"/><path class="cls-1" d="M0,641.07H438.43a15.12,15.12,0,0,1,15.12,15.12v33.42"/><rect class="cls-1" x="437.21" y="751.28" width="16.34" height="148.72"/></g></svg>