<svg width="1300" height="1000" fill="none" xmlns="http://www.w3.org/2000/svg"><path fill-rule="evenodd" clip-rule="evenodd" d="m206.822 251.321-3.825 14.025a17.077 17.077 0 0 1-.452 3.579c.183.372.362.749.536 1.129 2.01 4.383 2.917 8.615 2.919 13.398 0 1.803-.2 3.959-.486 5.742l-4.864 23.833a24.233 24.233 0 0 1-1.013 3.617c-1.041 2.793-3.202 8.177-5.313 10.829-2.925 3.676-7.167 6.929-11.675 8.613-3.769 1.408-10.807 1.91-12.649 1.914 0 0-8.301-.069-13.135-1.914-5.448-2.079-8.483-4.109-12.162-8.575-2.49-3.022-4.438-8.223-5.322-10.853-.362-1.079-.611-2.188-.801-3.31l-4.093-24.154s-.495-3.492-.487-5.742c.02-5.351.746-8.493 2.919-13.398.178-.401.354-.788.529-1.161a16.988 16.988 0 0 1-.444-3.548l-3.825-14.024a4.999 4.999 0 0 1 2.988-5.966l31.998-12.631a5.005 5.005 0 0 1 3.671 0l31.998 12.631a5 5 0 0 1 2.988 5.966Zm-61.717 18.8c.22-.387.446-.759.68-1.121h48.339c.26.401.51.809.751 1.225A6.002 6.002 0 0 1 189 275h-38a6.002 6.002 0 0 1-5.895-4.879Zm-3.022 7.003c-.78 2.491-1.072 4.74-1.083 7.908-.007 1.896.392 4.839.392 4.839l3.265 20.155c.174 1.079.403 2.145.741 3.184.739 2.271 2.275 6.477 4.224 8.951 2.963 3.764 5.408 5.474 9.797 7.226C163.313 330.941 170 331 170 331c1.484-.004 7.153-.427 10.189-1.613 3.632-1.419 7.049-4.16 9.406-7.258 1.649-2.168 3.337-6.503 4.202-8.91.408-1.135.706-2.302.937-3.486l3.874-19.862c.231-1.503.392-3.319.392-4.839-.001-2.787-.351-5.351-1.102-7.89A16.943 16.943 0 0 1 186 282h-32c-4.642 0-8.849-1.86-11.917-4.876ZM200 251l-3 11h-54l-3-11 30-11 30 11ZM90.504 377.001c-17.528 36.035-23.43 90.5-23.43 92.163 0 43.837 3.646 103.207 3.646 103.207l-2.64 32.249c-1.006 12.304 10.559 21.844 22.447 18.515a.887.887 0 0 0 .613-.61l6.864-24.024-5.5 119.5 2 156.5-18.374 9.025a20 20 0 0 0-11.108 16.219l-.022.256h92.004l-1.5-18a9.999 9.999 0 0 0 4-8v-128l9-125 11.5 125-1.439 127.592a9.97 9.97 0 0 0 4.439 8.408l-1.5 18h90.5a16.76 16.76 0 0 0-9.477-17.842l-17.523-8.158 1.5-156-8-118.5 5.68 22.249a2.225 2.225 0 0 0 1.565 1.594c11.813 3.256 23.307-6.118 22.494-18.344l-2.144-32.259 1.807-106.336s-5.838-54.082-21.279-90.186c-15.902-27.68-43.969-34.623-80.944-34.197-38.119.434-60.13 5.804-75.18 34.979Zm5.476 3.514C79.44 415.786 73 472.47 73 472.47l4.44 101.022-1.537 33.755c-.25 5.486 4.408 9.925 9.875 9.413a.452.452 0 0 0 .397-.345l10.255-42.823 9.49-104.402 7.444-50.023a1.239 1.239 0 0 1 2.46.28L110.43 488l-3 30-8.84 199.02 2.16 161.02-20.179 9.77A13.544 13.544 0 0 0 72.93 900h77.89l-1.99-22.98a4.285 4.285 0 0 0 4.315-4.31l-.725-128.575 11.912-145.778a4.504 4.504 0 0 1 8.973-.045l13.38 145.808-1.197 127.82a5.002 5.002 0 0 0 5.032 5.05L188.43 900h77.832l-.064-3.852a10 10 0 0 0-6.052-9.021l-21.216-9.112 1.5-161.008-8.5-143.152-3-55.855-3-30.5-5.879-68.082a1.287 1.287 0 0 1 2.553-.315l7.866 48.977 9.177 105.412 9.388 42.229c.12.539.58.937 1.131.977 6.086.45 11.157-4.596 10.739-10.683l-2.208-32.16 2.593-104.085s-5.508-53.916-20.08-89.255c-15.006-27.095-39.378-31.912-74.27-31.495-35.971.425-56.759 2.937-70.96 31.495Z" fill="#000"/></svg>