<svg width="1300" height="1000" viewBox="0 0 1300 1000" fill="none" xmlns="http://www.w3.org/2000/svg"><path fill-rule="evenodd" clip-rule="evenodd" d="m206.82 251.321-3.825 14.025a17.124 17.124 0 0 1-.451 3.577c.183.373.362.75.537 1.131 2.01 4.383 2.917 8.615 2.919 13.398 0 1.803-.2 3.959-.486 5.742l-4.864 23.833a24.233 24.233 0 0 1-1.013 3.617c-1.041 2.793-3.202 8.177-5.313 10.829-2.925 3.676-7.167 6.929-11.675 8.613-3.769 1.408-10.807 1.91-12.649 1.914 0 0-8.301-.069-13.135-1.914-5.448-2.079-8.483-4.109-12.162-8.575-2.49-3.022-4.438-8.223-5.322-10.853-.362-1.079-.611-2.188-.801-3.31l-4.093-24.154s-.495-3.492-.487-5.742c.02-5.351.746-8.493 2.919-13.398.177-.4.353-.786.528-1.158a17.017 17.017 0 0 1-.445-3.551l-3.825-14.024a5 5 0 0 1 2.988-5.966l31.998-12.631a5.005 5.005 0 0 1 3.671 0l31.998 12.631a5 5 0 0 1 2.988 5.966Zm-61.717 18.802c.221-.387.447-.76.682-1.123h48.339c.259.4.509.808.75 1.222a6.003 6.003 0 0 1-5.876 4.778h-38a6.003 6.003 0 0 1-5.895-4.877Zm-3.02 7.002c-.78 2.491-1.072 4.74-1.083 7.907-.007 1.896.392 4.839.392 4.839l3.265 20.155c.174 1.079.403 2.145.741 3.184.739 2.271 2.275 6.477 4.224 8.951 2.963 3.764 5.408 5.474 9.797 7.226C163.313 330.941 170 331 170 331c1.484-.004 7.153-.427 10.189-1.613 3.632-1.419 7.049-4.16 9.406-7.258 1.649-2.168 3.337-6.503 4.202-8.91.408-1.135.706-2.302.937-3.486l3.874-19.862c.231-1.503.392-3.319.392-4.839-.001-2.787-.351-5.352-1.102-7.891a16.944 16.944 0 0 1-11.9 4.859h-32c-4.641 0-8.848-1.86-11.915-4.875ZM199.998 251l-3 11h-54l-3-11 30-11 30 11ZM67.074 469.164c0-1.663 5.902-56.128 23.43-92.163 15.049-29.175 37.06-34.545 75.179-34.979 36.975-.426 65.042 6.517 80.944 34.197 15.441 36.104 21.279 90.186 21.279 90.186l-1.766 103.916c19.997-4.248 38.686-9.324 54.86-15.172V543.5a3.5 3.5 0 1 1 7 0v13.863c53.968 19.552 96.032 30.418 161.2 30.418 36.293 0 107.967-5.619 157.8-29.998V543.5a3.5 3.5 0 1 1 7 0V900h-7V584.936c-49.933 22.99-121.638 28.355-157.8 28.355-64.802 0-106.954-9.997-161.2-28.941V900h-7V584.143c-15.756 5.489-33.857 10.233-53.199 14.207l.442 6.648c.813 12.227-10.681 21.602-22.495 18.346a2.227 2.227 0 0 1-1.565-1.592L239.5 603.5h-.5l7.504 114.501-1.5 156 17.523 8.158a16.76 16.76 0 0 1 9.477 17.842h-90.5l1.5-18a9.97 9.97 0 0 1-4.439-8.408l1.439-127.592-11.5-125-9 125v128a9.999 9.999 0 0 1-4 8l1.5 18H65l.022-.256a20 20 0 0 1 11.108-16.219l18.374-9.025-2-156.5L97.337 613H93.86l-2.721 9.525a.887.887 0 0 1-.613.61c-9.52 2.665-18.833-2.921-21.648-11.572-22.762-1.53-46.23-4.07-68.879-7.582v-6.096c22.337 3.656 45.496 6.341 68.021 7.984a18.4 18.4 0 0 1 .06-1.249l1.23-15.028c-22.897-1.527-46.518-4.076-69.311-7.611v-6.096c22.915 3.751 46.695 6.479 69.769 8.11l.95-11.624s-3.645-59.37-3.645-103.207ZM95.433 607.5h2.157l.414-8.999-2.571 8.999Zm171.95-15.445c19.528-4.193 37.779-9.18 53.617-14.906v-15.006c-16.148 5.626-34.758 10.468-54.642 14.501l1.025 15.411ZM73 472.47s6.44-56.684 22.98-91.955c14.201-28.558 34.989-31.07 70.96-31.495 34.892-.417 59.264 4.4 74.27 31.495 14.572 35.339 20.08 89.255 20.08 89.255l-2.593 104.085 2.208 32.16c.418 6.087-4.653 11.133-10.739 10.683a1.253 1.253 0 0 1-1.131-.977l-9.388-42.229-9.177-105.412-7.866-48.977a1.287 1.287 0 0 0-2.553.315l5.879 68.082 3 30.5 3 55.855 8.5 143.152-1.5 161.008 21.216 9.112a10 10 0 0 1 6.052 9.021l.064 3.852H188.43l2.09-23.01a5.002 5.002 0 0 1-5.032-5.05l1.197-127.82-13.38-145.808a4.503 4.503 0 0 0-8.973.045L152.42 744.135l.725 128.575a4.285 4.285 0 0 1-4.315 4.31l1.99 22.98H72.93c0-5.192 2.968-9.927 7.641-12.19l20.179-9.77-2.16-161.02L107.43 518l3-30 5.394-68.653a1.239 1.239 0 0 0-2.46-.28l-7.444 50.023-9.49 104.402-10.255 42.823a.452.452 0 0 1-.397.345c-5.467.512-10.125-3.927-9.875-9.413l1.537-33.755L73 472.47Zm416.2 120.821c36.162 0 107.867-5.365 157.8-28.355v12.847c-49.833 24.379-121.507 29.998-157.8 29.998-65.168 0-107.232-10.866-161.2-30.418V564.35c54.246 18.944 96.398 28.941 161.2 28.941Z" fill="#000"/></svg>