<svg width="1300" height="1000" viewBox="0 0 1300 1000" fill="none" xmlns="http://www.w3.org/2000/svg">
<path fill-rule="evenodd" clip-rule="evenodd" d="M90.5039 377.001C72.9763 413.036 67.0742 467.501 67.0742 469.164C67.0742 513.001 70.7196 572.371 70.7196 572.371L68.0807 604.62C67.0739 616.924 78.6388 626.463 90.5268 623.135C90.8232 623.052 91.0554 622.821 91.14 622.525L98.0039 598.501L92.5039 718.001L94.5039 874.501L76.13 883.526C69.8427 886.614 65.6291 892.766 65.0223 899.745L65 900.001H157.004L155.504 882.001C158.022 880.113 159.504 877.149 159.504 874.001V746.001L168.504 621.001L180.004 746.001L178.565 873.593C178.527 876.966 180.197 880.13 183.004 882.001L181.504 900.001H272.004C273.187 892.604 269.319 885.32 262.527 882.159L245.004 874.001L246.504 718.001L239 603.5H239.5L244.183 621.752C244.382 622.524 244.978 623.132 245.748 623.344C257.562 626.6 269.056 617.225 268.243 604.998L266.099 572.741L267.906 466.405C267.906 466.405 262.068 412.323 246.627 376.219C230.725 348.539 202.658 341.596 165.683 342.022C127.564 342.456 105.553 347.826 90.5039 377.001ZM95.9799 380.515C79.4399 415.786 72.9999 472.47 72.9999 472.47L77.4399 573.492L75.9027 607.247C75.6529 612.733 80.3107 617.173 85.7778 616.66C85.9704 616.642 86.1302 616.503 86.1753 616.315L96.4299 573.492L105.92 469.09L113.364 419.067C113.454 418.464 113.969 418.016 114.579 418.011C115.305 418.005 115.881 418.622 115.824 419.347L110.43 488L107.43 518L98.5899 717.02L100.75 878.04L80.571 887.81C75.8981 890.073 72.9299 894.808 72.9299 900H150.82L148.83 877.02C151.218 877.037 153.159 875.098 153.145 872.71L152.42 744.135L164.332 598.357C164.523 596.02 166.476 594.22 168.821 594.22C171.148 594.22 173.093 595.994 173.305 598.312L186.685 744.12L185.488 871.94C185.461 874.733 187.727 877.007 190.52 876.99L188.43 900H266.262L266.198 896.148C266.132 892.212 263.763 888.681 260.146 887.127L238.93 878.015L240.43 717.007L231.93 573.855L228.93 518L225.93 487.5L220.051 419.418C219.986 418.666 220.578 418.02 221.333 418.02C221.965 418.02 222.504 418.479 222.604 419.103L230.47 468.08L239.647 573.492L249.035 615.721C249.155 616.261 249.615 616.658 250.166 616.699C256.252 617.148 261.323 612.102 260.905 606.015L258.697 573.855L261.29 469.77C261.29 469.77 255.782 415.854 241.21 380.515C226.204 353.42 201.832 348.603 166.94 349.02C130.969 349.445 110.181 351.957 95.9799 380.515Z" fill="black"/>
<path d="M170 331C171.484 330.996 177.153 330.573 180.189 329.387C183.821 327.968 187.238 325.227 189.595 322.129C191.244 319.961 192.932 315.626 193.797 313.219C194.205 312.084 194.503 310.917 194.734 309.733L198.608 289.871C198.839 288.368 199 286.552 199 285.032C198.998 281.002 198.268 277.436 196.649 273.742C195.029 270.048 192.953 266.805 189.986 264.064C189.209 263.346 188.367 262.654 187.479 262H198.13C200.141 264.433 201.738 267.124 203.081 270.054C205.091 274.437 205.998 278.669 206 283.452C206 285.255 205.8 287.411 205.514 289.194L200.65 313.027C200.399 314.256 200.075 315.468 199.637 316.644C198.596 319.437 196.435 324.821 194.324 327.473C191.399 331.149 187.157 334.402 182.649 336.086C178.88 337.494 171.842 337.996 170 338C170 338 161.699 337.931 156.865 336.086C151.417 334.007 148.382 331.977 144.703 327.511C142.213 324.489 140.265 319.288 139.381 316.658C139.019 315.579 138.77 314.47 138.58 313.348L134.487 289.194C134.487 289.194 133.992 285.702 134 283.452C134.02 278.101 134.746 274.959 136.919 270.054C138.427 266.649 139.808 264.313 141.806 262H152.337C151.59 262.603 150.828 263.282 150.014 264.064C146.722 267.224 145.15 269.496 143.351 273.742C141.601 277.876 141.016 280.523 141 285.032C140.993 286.928 141.392 289.871 141.392 289.871L144.657 310.026C144.831 311.105 145.06 312.171 145.398 313.21C146.137 315.481 147.673 319.687 149.622 322.161C152.585 325.925 155.03 327.635 159.419 329.387C163.313 330.941 170 331 170 331Z" fill="black"/>
<path fill-rule="evenodd" clip-rule="evenodd" d="M202.995 265.346L206.82 251.321C207.491 248.861 206.203 246.291 203.832 245.355L171.834 232.724C170.655 232.259 169.342 232.259 168.163 232.724L136.165 245.355C133.794 246.291 132.506 248.861 133.177 251.321L137.002 265.345C137.185 274.575 144.725 282 153.998 282H185.998C195.272 282 202.811 274.575 202.995 265.346ZM196.998 262L199.998 251L169.998 240L139.998 251L142.998 262H196.998ZM144.998 269H194.998C194.998 272.314 192.312 275 188.998 275H150.998C147.685 275 144.998 272.314 144.998 269Z" fill="black"/>
</svg>
