<svg width="1300" height="1000" fill="none" xmlns="http://www.w3.org/2000/svg"><path fill-rule="evenodd" clip-rule="evenodd" d="M234.5 540a3.5 3.5 0 0 0-3.5 3.5v12.008c-54.459 19.46-136.793 30.272-201.8 30.272a656.22 656.22 0 0 1-29.2-.674v5.556c10.016.418 19.796.628 29.2.628 64.643 0 147.057-9.957 201.8-28.8v15.018c-54.459 19.46-136.793 30.272-201.8 30.272a656.22 656.22 0 0 1-29.2-.674v5.556c10.016.418 19.796.628 29.2.628 64.643 0 147.057-9.957 201.8-28.8V900h7V584.348c54.74 18.945 137.396 28.942 202.2 28.942 64.643 0 147.057-9.957 201.8-28.8V900h7V543.5a3.5 3.5 0 1 0-7 0v12.008c-54.459 19.46-136.794 30.272-201.8 30.272-65.17 0-147.735-10.866-202.2-30.419V543.5a3.5 3.5 0 0 0-3.5-3.5Zm205.7 67.78c-65.17 0-147.735-10.866-202.2-30.419v-15.013c54.74 18.945 137.396 28.942 202.2 28.942 64.643 0 147.057-9.957 201.8-28.8v15.018c-54.459 19.46-136.794 30.272-201.8 30.272Z" fill="#000"/></svg>