<svg id="Capa_1" data-name="Capa 1" xmlns="http://www.w3.org/2000/svg" viewBox="0 0 1300 1000"><defs><style>.cls-1{fill:#262626;}.cls-2,.cls-4,.cls-5{fill:#fff;}.cls-3{fill:none;}.cls-3,.cls-4,.cls-5{stroke:#262626;stroke-miterlimit:10;stroke-width:10px;}.cls-5{stroke-linecap:round;}</style></defs><title>sign-center--seat</title><rect class="cls-1" y="900" width="1300" height="100"/><rect class="cls-2" x="91.82" y="608.19" width="529.13" height="60" rx="20"/><rect class="cls-3" x="91.82" y="608.19" width="529.13" height="60" rx="20"/><path class="cls-4" d="M336.38,717.17H76.79a20.06,20.06,0,0,1-20-20.13V677.31a20.07,20.07,0,0,1,20-20.14H336.38a20.07,20.07,0,0,1,20,20.14V697A20.06,20.06,0,0,1,336.38,717.17Z"/><path class="cls-4" d="M636,717.17H376.38a20.07,20.07,0,0,1-20-20.13V677.31a20.08,20.08,0,0,1,20-20.14H636a20.07,20.07,0,0,1,20,20.14V697A20.06,20.06,0,0,1,636,717.17Z"/><rect class="cls-1" x="770.77" width="20" height="86"/><rect class="cls-1" x="514.3" width="20" height="86"/><rect class="cls-2" x="592.38" y="75.2" width="216" height="96" rx="15"/><rect class="cls-3" x="592.38" y="75.2" width="216" height="96" rx="15"/><rect class="cls-2" x="497.38" y="75.2" width="96" height="96" rx="15"/><rect class="cls-3" x="497.38" y="75.2" width="96" height="96" rx="15"/><polyline class="cls-5" points="547.01 102.79 567.51 123.17 547.01 143.78"/><line class="cls-5" x1="523.01" y1="123.28" x2="567.51" y2="123.17"/></svg>