<svg xmlns="http://www.w3.org/2000/svg" viewBox="0 0 1300 1000"><defs><style>.cls-1{fill:#1e1e1c;}</style></defs><title>3-context-expand</title><g id="Capa_1" data-name="Capa 1"><rect class="cls-1" y="900" width="1300" height="100"/></g><g id="Capa_2" data-name="Capa 2"><path d="M356.26,177.18h-188a19.14,19.14,0,0,1-19.12-19.12V93.69a19.15,19.15,0,0,1,19.12-19.12h188a19.15,19.15,0,0,1,19.12,19.12v64.37A19.14,19.14,0,0,1,356.26,177.18Zm-188-94.61a11.13,11.13,0,0,0-11.12,11.12v64.37a11.13,11.13,0,0,0,11.12,11.12h188a11.13,11.13,0,0,0,11.12-11.12V93.69a11.13,11.13,0,0,0-11.12-11.12Z"/><path d="M138,177.18H74.19a19.14,19.14,0,0,1-19.12-19.12V93.69A19.15,19.15,0,0,1,74.19,74.57H138a19.15,19.15,0,0,1,19.12,19.12v64.37A19.14,19.14,0,0,1,138,177.18ZM74.19,82.57A11.13,11.13,0,0,0,63.07,93.69v64.37a11.13,11.13,0,0,0,11.12,11.12H138a11.13,11.13,0,0,0,11.12-11.12V93.69A11.13,11.13,0,0,0,138,82.57Z"/><rect x="83.59" y="121.88" width="50.29" height="8"/><path d="M104.18,151.83l-23.4-23.14a4,4,0,0,1,0-5.65l23.4-23.67,5.69,5.63L89.25,125.82l20.56,20.32Z"/><rect x="85.03" width="8" height="78.57"/><rect x="337.43" width="8" height="78.57"/></g></svg>