<svg xmlns="http://www.w3.org/2000/svg" viewBox="0 0 1300 1000"><defs><style>.cls-1{fill:#1e1e1c;}</style></defs><title>3-context-expand</title><g id="Capa_1" data-name="Capa 1"><rect class="cls-1" y="900" width="1300" height="100"/></g><g id="Capa_2" data-name="Capa 2"><path d="M790.66,177.18h-188a19.13,19.13,0,0,1-19.12-19.12V93.69a19.14,19.14,0,0,1,19.12-19.12h188a19.15,19.15,0,0,1,19.12,19.12v64.37A19.14,19.14,0,0,1,790.66,177.18Zm-188-94.61a11.13,11.13,0,0,0-11.12,11.12v64.37a11.13,11.13,0,0,0,11.12,11.12h188a11.13,11.13,0,0,0,11.12-11.12V93.69a11.13,11.13,0,0,0-11.12-11.12Z"/><path d="M572.43,177.18H508.59a19.14,19.14,0,0,1-19.12-19.12V93.69a19.15,19.15,0,0,1,19.12-19.12h63.84a19.15,19.15,0,0,1,19.12,19.12v64.37A19.14,19.14,0,0,1,572.43,177.18ZM508.59,82.57a11.13,11.13,0,0,0-11.12,11.12v64.37a11.13,11.13,0,0,0,11.12,11.12h63.84a11.13,11.13,0,0,0,11.12-11.12V93.69a11.13,11.13,0,0,0-11.12-11.12Z"/><rect x="517.99" y="121.88" width="50.29" height="8"/><path d="M538.58,151.83l-23.4-23.14a3.94,3.94,0,0,1-1.19-2.82,4,4,0,0,1,1.15-2.83l23.41-23.67,5.69,5.63-20.59,20.82,20.56,20.32Z"/><rect x="519.42" width="8" height="78.57"/><rect x="771.83" width="8" height="78.57"/></g></svg>