<svg width="1300" height="1000" fill="none" xmlns="http://www.w3.org/2000/svg"><path d="M144.217 99.52a3.35 3.35 0 0 1 4.85.05l16.042 17.183a2.999 2.999 0 0 1 .023 4.07l-16.059 17.581a3.353 3.353 0 0 1-4.988-4.483l13.364-15.106-13.315-14.712a3.35 3.35 0 0 1 .083-4.584Z" fill="#000"/><path fill-rule="evenodd" clip-rule="evenodd" d="M137 0h-7v69h-15c-8.284 0-15 6.716-15 15v70c0 8.284 6.716 15 15 15h270c8.284 0 15-6.716 15-15V84c0-8.284-6.716-15-15-15h-15V0h-7v69H137V0Zm246 76c5.523 0 10 4.477 10 10v66c0 5.523-4.477 10-10 10H207V76h176Zm-266 0c-5.523 0-10 4.477-10 10v66c0 5.523 4.477 10 10 10h83V76h-83Z" fill="#000"/></svg>