<svg width="1300" height="1000" viewBox="0 0 1300 1000" fill="none" xmlns="http://www.w3.org/2000/svg">
<path fill-rule="evenodd" clip-rule="evenodd" d="M241.043 150C237.845 150 235.1 149.173 232.808 147.518C230.529 145.85 228.774 143.447 227.544 140.309C226.327 137.158 225.719 133.365 225.719 128.93C225.732 124.496 226.347 120.722 227.564 117.611C228.794 114.487 230.548 112.104 232.827 110.462C235.119 108.821 237.858 108 241.043 108C244.228 108 246.967 108.821 249.259 110.462C251.551 112.104 253.305 114.487 254.523 117.611C255.753 120.736 256.368 124.509 256.368 128.93C256.368 133.379 255.753 137.178 254.523 140.329C253.305 143.467 251.551 145.863 249.259 147.518C246.98 149.173 244.241 150 241.043 150ZM241.043 143.784C243.529 143.784 245.491 142.533 246.928 140.031C248.378 137.516 249.104 133.816 249.104 128.93C249.104 125.7 248.773 122.986 248.113 120.789C247.453 118.591 246.52 116.936 245.316 115.824C244.112 114.699 242.688 114.136 241.043 114.136C238.57 114.136 236.615 115.394 235.177 117.909C233.74 120.411 233.015 124.085 233.002 128.93C232.989 132.174 233.306 134.901 233.954 137.112C234.614 139.323 235.547 140.991 236.751 142.116C237.955 143.228 239.386 143.784 241.043 143.784Z" fill="black"/>
<path fill-rule="evenodd" clip-rule="evenodd" d="M179.508 146.736C179.021 148.221 177.634 149.226 176.071 149.226C173.587 149.226 171.842 146.779 172.651 144.431L183.555 112.762C184.422 110.246 186.791 108.556 189.453 108.556C192.114 108.556 194.482 110.244 195.349 112.76L206.269 144.43C207.079 146.778 205.334 149.226 202.85 149.226C201.287 149.226 199.901 148.222 199.414 146.738L196.936 139.197H181.981L179.508 146.736ZM189.607 116.896L194.991 133.279H183.922L189.296 116.896H189.607Z" fill="black"/>
<path d="M279 113.556C279 110.795 276.761 108.556 274 108.556H273.639C272.664 108.556 271.709 108.841 270.894 109.377L263.533 114.212C262.737 114.735 262.258 115.623 262.258 116.576C262.258 118.823 264.751 120.173 266.633 118.944L271.561 115.725H271.794V145.623C271.794 147.612 273.407 149.226 275.397 149.226C277.387 149.226 279 147.612 279 145.623V113.556Z" fill="black"/>
<path fill-rule="evenodd" clip-rule="evenodd" d="M137 0H130V69H115C106.716 69 100 75.7157 100 84V174C100 182.284 106.716 189 115 189H335C343.284 189 350 182.284 350 174V84C350 75.7157 343.284 69 335 69H320V0H313V69H137V0ZM333 76C338.523 76 343 80.4771 343 86V172C343 177.523 338.523 182 333 182H117C111.477 182 107 177.523 107 172V86C107 80.4771 111.477 76 117 76H333Z" fill="black"/>
<path fill-rule="evenodd" clip-rule="evenodd" d="M1078.37 335.822C1074.74 337.553 1067.77 338.666 1065.94 338.831C1065.94 338.831 1057.66 339.486 1052.69 338.069C1047.08 336.473 1043.88 334.716 1039.82 330.587C1037.08 327.793 1034.69 322.783 1033.58 320.239C1033.12 319.196 1032.78 318.113 1032.49 317.011L1026.31 293.306C1026.31 293.306 1025.51 289.87 1025.32 287.628C1024.87 282.296 1025.32 279.103 1027.06 274.027C1028.85 268.813 1030.56 265.957 1034.3 261.866C1038.29 257.505 1041.27 255.492 1046.72 253.125C1050.96 251.287 1053.58 250.61 1058.18 250.17C1063.14 249.904 1065.01 250.053 1069.85 251.101C1074.72 252.259 1079.78 254.623 1083.73 257.541C1087.68 260.459 1090.59 264.069 1092.97 268.26C1095.36 272.452 1096.63 276.588 1097.05 281.353C1097.2 283.15 1097.19 285.314 1097.06 287.115L1094.3 311.282C1094.15 312.528 1093.94 313.764 1093.6 314.973C1092.81 317.847 1091.12 323.398 1089.25 326.224C1086.66 330.141 1082.72 333.752 1078.37 335.822ZM1075.34 329.363C1072.42 330.809 1066.81 331.725 1065.33 331.858C1065.33 331.858 1058.66 332.382 1054.65 331.173C1050.12 329.811 1047.54 328.32 1044.26 324.829C1042.1 322.534 1040.2 318.478 1039.27 316.28C1038.84 315.274 1038.52 314.232 1038.25 313.173L1033.24 293.379C1033.24 293.379 1032.59 290.482 1032.43 288.593C1032.06 284.099 1032.41 281.411 1033.79 277.14C1035.21 272.754 1036.58 270.353 1039.58 266.919C1042.79 263.258 1045.18 261.572 1049.57 259.596C1052.97 258.061 1055.08 257.5 1058.79 257.143C1062.79 256.935 1064.29 257.067 1068.2 257.965C1072.12 258.957 1076.21 260.964 1079.41 263.435C1082.6 265.906 1084.95 268.957 1086.89 272.495C1088.82 276.034 1089.86 279.522 1090.21 283.538C1090.34 285.052 1090.34 286.875 1090.24 288.392L1088.11 308.516C1087.99 309.716 1087.79 310.905 1087.49 312.071C1086.83 314.543 1085.53 319.009 1084.08 321.313C1082 324.604 1078.83 327.633 1075.34 329.363Z" fill="black"/>
<path d="M1133.09 881.233L1119 875.001L1120 717.001C1120 717.001 1108.94 571.001 1108.5 560.001C1105 471.501 1093 364.001 1090.5 357.5C1088 350.999 1083.5 341.001 1072 340.001C1035.13 336.796 1016.38 359.501 1003 387.001C985.472 423.036 974 517.001 974 517.001L984 578.501L997.841 611.151C1001.27 619.244 1009.21 624.501 1018 624.501L1020.5 743.501L1003.75 877.965C1003.33 881.338 1005.65 884.442 1009 885.001V900.001L1016.5 900.001V876.978C1013.57 876.978 1011.31 874.422 1011.65 871.518L1027 743.414L1025 627.831L1016.12 518.236C1016.04 517.273 1016.15 516.304 1016.44 515.383L1046.22 420.226C1046.6 418.985 1045.68 417.723 1044.38 417.723C1043.55 417.723 1042.82 418.246 1042.55 419.025L1009 516.778L1014 576.812L1017.43 615.999C1017.47 616.448 1017.11 616.834 1016.66 616.834C1010.5 616.834 1004.94 613.152 1002.53 607.481L989.5 576.812L980 516.778C980 516.778 994.321 414.424 1013 380.217C1028.47 351.893 1050.86 346.326 1064.37 345.83C1071.88 345.554 1079.78 348.708 1082.17 355.842C1087.91 373.052 1096.1 421.99 1099.5 560.302L1070 878.978L1089.97 886.943C1094.05 888.567 1096.59 892.658 1096.24 897.03L1096 900.001L1103 900.001L1102.62 894.058C1102.24 888.23 1098.52 883.15 1093.07 881.039L1077.5 875.001L1092 717.001L1104 577.001L1113 717.001L1111 878.941L1130.88 886.941C1134.07 888.223 1136.37 891.051 1136.99 894.43L1138 900.001L1145 900.001V899.524C1145 891.607 1140.33 884.435 1133.09 881.233Z" fill="black"/>
<path fill-rule="evenodd" clip-rule="evenodd" d="M887.373 335.822C883.741 337.553 876.774 338.666 874.939 338.831C874.939 338.831 866.664 339.486 861.687 338.069C856.078 336.473 852.878 334.716 848.824 330.587C846.08 327.793 843.686 322.783 842.577 320.239C842.122 319.196 841.777 318.113 841.489 317.011L835.307 293.306C835.307 293.306 834.51 289.87 834.322 287.628C833.875 282.296 834.324 279.103 836.062 274.027C837.846 268.813 839.556 265.957 843.3 261.866C847.29 257.505 850.265 255.492 855.72 253.125C859.955 251.287 862.578 250.61 867.182 250.17C872.14 249.904 874.009 250.053 878.855 251.101C883.715 252.259 888.78 254.623 892.732 257.541C896.684 260.459 899.588 264.069 901.972 268.26C904.356 272.452 905.629 276.588 906.048 281.353C906.204 283.15 906.194 285.314 906.063 287.115L903.295 311.282C903.153 312.528 902.935 313.764 902.602 314.973C901.808 317.847 900.124 323.398 898.253 326.224C895.66 330.141 891.717 333.752 887.373 335.822ZM884.339 329.363C881.418 330.809 875.807 331.725 874.329 331.858C874.329 331.858 867.662 332.382 863.647 331.173C859.123 329.811 856.538 328.32 853.258 324.829C851.101 322.534 849.204 318.478 848.27 316.28C847.843 315.274 847.522 314.232 847.254 313.173L842.245 293.379C842.245 293.379 841.591 290.482 841.433 288.593C841.055 284.099 841.407 281.411 842.791 277.14C844.212 272.754 845.581 270.353 848.585 266.919C851.786 263.258 854.177 261.572 858.565 259.596C861.972 258.061 864.084 257.5 867.792 257.143C871.787 256.935 873.293 257.067 877.202 257.965C881.122 258.957 885.211 260.964 888.405 263.435C891.599 265.906 893.951 268.957 895.886 272.495C897.821 276.034 898.859 279.522 899.212 283.538C899.344 285.052 899.342 286.875 899.243 288.392L897.115 308.516C896.988 309.716 896.793 310.905 896.485 312.071C895.834 314.543 894.53 319.009 893.076 321.313C890.998 324.604 887.833 327.633 884.339 329.363Z" fill="black"/>
<path d="M942.09 881.233L928 875.001L929 717.001C929 717.001 917.935 571.001 917.5 560.001C914 471.501 902 364.001 899.5 357.5C897 350.999 892.5 341.001 881 340.001C844.128 336.796 825.376 359.501 812 387.001C794.472 423.036 783 517.001 783 517.001L793 578.501L806.841 611.151C810.272 619.244 818.21 624.501 827 624.501L829.5 743.501L812.752 877.965C812.332 881.338 814.647 884.442 818 885.001V900.001L825.5 900.001V876.978C822.574 876.978 820.306 874.422 820.654 871.518L836 743.414L834 627.831L825.118 518.236C825.04 517.273 825.148 516.304 825.437 515.383L855.216 420.226C855.604 418.985 854.677 417.723 853.376 417.723C852.553 417.723 851.82 418.246 851.553 419.025L818 516.778L823 576.812L826.427 615.999C826.466 616.448 826.113 616.834 825.662 616.834C819.501 616.834 813.936 613.152 811.527 607.481L798.5 576.812L789 516.778C789 516.778 803.321 414.424 821.999 380.217C837.465 351.893 859.861 346.326 873.367 345.83C880.883 345.554 888.783 348.708 891.166 355.842C896.915 373.052 905.098 421.99 908.5 560.302L879 878.978L898.974 886.943C903.048 888.567 905.589 892.658 905.238 897.03L905 900.001L912 900.001L911.617 894.058C911.241 888.23 907.516 883.15 902.071 881.039L886.5 875.001L901 717.001L913 577.001L922 717.001L920 878.941L939.881 886.941C943.067 888.223 945.373 891.051 945.987 894.43L947 900.001L954 900.001V899.524C954 891.607 949.33 884.435 942.09 881.233Z" fill="black"/>
<path fill-rule="evenodd" clip-rule="evenodd" d="M696.373 335.822C692.741 337.553 685.774 338.666 683.939 338.831C683.939 338.831 675.664 339.486 670.687 338.069C665.078 336.473 661.878 334.716 657.824 330.587C655.08 327.793 652.686 322.783 651.577 320.239C651.122 319.196 650.777 318.113 650.489 317.011L644.307 293.306C644.307 293.306 643.51 289.87 643.322 287.628C642.875 282.296 643.324 279.103 645.062 274.027C646.846 268.813 648.556 265.957 652.3 261.866C656.29 257.505 659.265 255.492 664.72 253.125C668.955 251.287 671.578 250.61 676.182 250.17C681.14 249.904 683.009 250.053 687.855 251.101C692.715 252.259 697.78 254.623 701.732 257.541C705.684 260.459 708.588 264.069 710.972 268.26C713.356 272.452 714.629 276.588 715.048 281.353C715.204 283.15 715.194 285.314 715.063 287.115L712.295 311.282C712.153 312.528 711.935 313.764 711.602 314.973C710.808 317.847 709.124 323.398 707.253 326.224C704.66 330.141 700.717 333.752 696.373 335.822ZM693.339 329.363C690.418 330.809 684.807 331.725 683.329 331.858C683.329 331.858 676.662 332.382 672.647 331.173C668.123 329.811 665.538 328.32 662.258 324.829C660.101 322.534 658.204 318.478 657.27 316.28C656.843 315.274 656.522 314.232 656.254 313.173L651.245 293.379C651.245 293.379 650.591 290.482 650.433 288.593C650.055 284.099 650.407 281.411 651.791 277.14C653.212 272.754 654.581 270.353 657.585 266.919C660.786 263.258 663.177 261.572 667.565 259.596C670.972 258.061 673.084 257.5 676.792 257.143C680.787 256.935 682.293 257.067 686.202 257.965C690.122 258.957 694.211 260.964 697.405 263.435C700.599 265.906 702.951 268.957 704.886 272.495C706.821 276.034 707.859 279.522 708.212 283.538C708.344 285.052 708.342 286.875 708.243 288.392L706.115 308.516C705.988 309.716 705.793 310.905 705.485 312.071C704.834 314.543 703.53 319.009 702.076 321.313C699.998 324.604 696.833 327.633 693.339 329.363Z" fill="black"/>
<path d="M751.09 881.233L737 875.001L738 717.001C738 717.001 726.935 571.001 726.5 560.001C723 471.501 711 364.001 708.5 357.5C706 350.999 701.5 341.001 690 340.001C653.128 336.796 634.376 359.501 621 387.001C603.472 423.036 592 517.001 592 517.001L602 578.501L615.841 611.151C619.272 619.244 627.21 624.501 636 624.501L638.5 743.501L621.752 877.965C621.332 881.338 623.647 884.442 627 885.001V900.001L634.5 900.001V876.978C631.574 876.978 629.306 874.422 629.654 871.518L645 743.414L643 627.831L634.118 518.236C634.04 517.273 634.148 516.304 634.437 515.383L664.216 420.226C664.604 418.985 663.677 417.723 662.376 417.723C661.553 417.723 660.82 418.246 660.553 419.025L627 516.778L632 576.812L635.427 615.999C635.466 616.448 635.113 616.834 634.662 616.834C628.501 616.834 622.936 613.152 620.527 607.481L607.5 576.812L598 516.778C598 516.778 612.321 414.424 630.999 380.217C646.465 351.893 668.861 346.326 682.367 345.83C689.883 345.554 697.783 348.708 700.166 355.842C705.915 373.052 714.098 421.99 717.5 560.302L688 878.978L707.974 886.943C712.048 888.567 714.589 892.658 714.238 897.03L714 900.001L721 900.001L720.617 894.058C720.241 888.23 716.516 883.15 711.071 881.039L695.5 875.001L710 717.001L722 577.001L731 717.001L729 878.941L748.881 886.941C752.067 888.223 754.373 891.051 754.987 894.43L756 900.001L763 900.001V899.524C763 891.607 758.33 884.435 751.09 881.233Z" fill="black"/>
</svg>
