<svg width="1300" height="1000" viewBox="0 0 1300 1000" fill="none" xmlns="http://www.w3.org/2000/svg"><path fill-rule="evenodd" clip-rule="evenodd" d="M115 69c-8.284 0-15 6.716-15 15v90c0 8.284 6.716 15 15 15h220c8.284 0 15-6.716 15-15V84c0-8.284-6.716-15-15-15H115Zm2 7c-5.523 0-10 4.477-10 10v86c0 5.523 4.477 10 10 10h216c5.523 0 10-4.477 10-10V86c0-5.523-4.477-10-10-10H117Z" fill="#000"/><path d="M130 0h7v76h-7V0Zm183 0h7v76h-7V0ZM179.508 146.736a3.618 3.618 0 1 1-6.857-2.305l10.904-31.669a6.24 6.24 0 0 1 11.794-.002l10.92 31.67c.81 2.348-.935 4.796-3.419 4.796a3.616 3.616 0 0 1-3.436-2.488l-9.807-29.842h-.311l-9.788 29.84Zm-.564-13.457h20.976v5.918h-20.976v-5.918ZM241.043 150c-3.198 0-5.943-.827-8.235-2.482-2.279-1.668-4.034-4.071-5.264-7.209-1.217-3.151-1.825-6.944-1.825-11.379.013-4.434.628-8.208 1.845-11.319 1.23-3.124 2.984-5.507 5.263-7.149 2.292-1.641 5.031-2.462 8.216-2.462 3.185 0 5.924.821 8.216 2.462 2.292 1.642 4.046 4.025 5.264 7.149 1.23 3.125 1.845 6.898 1.845 11.319 0 4.449-.615 8.248-1.845 11.399-1.218 3.138-2.972 5.534-5.264 7.189-2.279 1.655-5.018 2.482-8.216 2.482Zm0-6.216c2.486 0 4.448-1.251 5.885-3.753 1.45-2.515 2.176-6.215 2.176-11.101 0-3.23-.331-5.944-.991-8.141-.66-2.198-1.593-3.853-2.797-4.965-1.204-1.125-2.628-1.688-4.273-1.688-2.473 0-4.428 1.258-5.865 3.773-1.438 2.502-2.163 6.176-2.176 11.021-.013 3.244.304 5.971.952 8.182.66 2.211 1.593 3.879 2.797 5.004 1.204 1.112 2.635 1.668 4.292 1.668ZM274 108.556a5 5 0 0 1 5 5v32.067a3.603 3.603 0 0 1-7.206 0v-29.898h-.233l-4.928 3.219c-1.882 1.229-4.375-.121-4.375-2.368 0-.953.479-1.841 1.275-2.364l7.361-4.835a4.997 4.997 0 0 1 2.745-.821H274Z" fill="#000"/><path fill-rule="evenodd" clip-rule="evenodd" d="M1016.37 335.822c-3.63 1.731-10.6 2.844-12.43 3.009 0 0-8.276.655-13.253-.762-5.609-1.596-8.809-3.353-12.863-7.482-2.744-2.794-5.138-7.804-6.247-10.348-.455-1.043-.8-2.126-1.088-3.227l-6.182-23.706s-.797-3.436-.985-5.678c-.447-5.332.002-8.525 1.74-13.601 1.784-5.214 3.494-8.07 7.238-12.161 3.99-4.361 6.965-6.374 12.42-8.741 4.235-1.838 6.858-2.515 11.462-2.955 4.958-.266 6.828-.117 11.668.931 4.87 1.158 9.93 3.522 13.88 6.44 3.95 2.918 6.86 6.528 9.24 10.719 2.39 4.192 3.66 8.328 4.08 13.093.15 1.797.14 3.961.01 5.762l-2.76 24.167c-.15 1.246-.36 2.482-.7 3.691-.79 2.874-2.48 8.425-4.35 11.251-2.59 3.917-6.53 7.528-10.88 9.598Zm-3.03-6.459c-2.92 1.446-8.53 2.362-10.01 2.495 0 0-6.668.524-10.683-.685-4.524-1.362-7.109-2.853-10.389-6.344-2.157-2.295-4.054-6.351-4.988-8.549-.427-1.006-.748-2.048-1.016-3.107l-5.009-19.794s-.654-2.897-.812-4.786c-.378-4.494-.026-7.182 1.358-11.453 1.421-4.386 2.79-6.787 5.794-10.221 3.201-3.661 5.592-5.347 9.98-7.323 3.407-1.535 5.519-2.096 9.227-2.453 3.998-.208 5.498-.076 9.408.822 3.92.992 8.01 2.999 11.21 5.47 3.19 2.471 5.54 5.522 7.48 9.06 1.93 3.539 2.97 7.027 3.32 11.043.13 1.514.13 3.337.03 4.854l-2.13 20.124c-.12 1.2-.32 2.389-.62 3.555-.66 2.472-1.96 6.938-3.41 9.242-2.08 3.291-5.25 6.32-8.74 8.05Z" fill="#000"/><path d="m1071.09 881.233-14.09-6.232 1-158s-11.06-146-11.5-157c-3.5-88.5-15.5-196-18-202.501-2.5-6.501-7-16.499-18.5-17.499-36.872-3.205-55.624 19.5-69 47-17.528 36.035-29 130-29 130l10 61.5 13.841 32.65A21.896 21.896 0 0 0 956 624.501l2.5 119-16.748 134.464a6.339 6.339 0 0 0 5.248 7.036v15h7.5v-23.023a4.88 4.88 0 0 1-4.846-5.46L965 743.414l-2-115.583-8.882-109.595a7.506 7.506 0 0 1 .319-2.853l29.779-95.157a1.928 1.928 0 0 0-3.663-1.201L947 516.778l5 60.034 3.427 39.187a.768.768 0 0 1-.765.835 15.36 15.36 0 0 1-14.135-9.353L927.5 576.812l-9.5-60.034s14.321-102.354 32.999-136.561c15.466-28.324 37.862-33.891 51.371-34.387 7.51-.276 15.41 2.878 17.8 10.012 5.74 17.21 13.93 66.148 17.33 204.46L1008 878.978l19.97 7.965a9.997 9.997 0 0 1 6.27 10.087l-.24 2.971h7l-.38-5.943a15.002 15.002 0 0 0-9.55-13.019l-15.57-6.038 14.5-158 12-140 9 140-2 161.94 19.88 8a10.01 10.01 0 0 1 6.11 7.489l1.01 5.571h7v-.477a20 20 0 0 0-11.91-18.291Z" fill="#000"/><path fill-rule="evenodd" clip-rule="evenodd" d="M825.372 335.822c-3.631 1.731-10.598 2.844-12.433 3.009 0 0-8.275.655-13.252-.762-5.609-1.596-8.809-3.353-12.863-7.482-2.744-2.794-5.138-7.804-6.247-10.348-.455-1.043-.8-2.126-1.088-3.227l-6.182-23.706s-.797-3.436-.985-5.678c-.447-5.332.002-8.525 1.74-13.601 1.784-5.214 3.494-8.07 7.238-12.161 3.99-4.361 6.965-6.374 12.42-8.741 4.235-1.838 6.858-2.515 11.462-2.955 4.958-.266 6.827-.117 11.673.931 4.86 1.158 9.925 3.522 13.877 6.44 3.953 2.918 6.856 6.528 9.24 10.719 2.384 4.192 3.657 8.328 4.076 13.093.156 1.797.146 3.961.015 5.762l-2.768 24.167a24.201 24.201 0 0 1-.693 3.691c-.794 2.874-2.478 8.425-4.349 11.251-2.593 3.917-6.536 7.528-10.881 9.598Zm-3.033-6.459c-2.921 1.446-8.532 2.362-10.01 2.495 0 0-6.667.524-10.682-.685-4.524-1.362-7.109-2.853-10.389-6.344-2.157-2.295-4.054-6.351-4.988-8.549-.427-1.006-.748-2.048-1.016-3.107l-5.009-19.794s-.654-2.897-.812-4.786c-.378-4.494-.026-7.182 1.358-11.453 1.421-4.386 2.79-6.787 5.794-10.221 3.201-3.661 5.592-5.347 9.98-7.323 3.407-1.535 5.519-2.096 9.227-2.453 3.995-.208 5.501-.076 9.41.822 3.92.992 8.009 2.999 11.203 5.47 3.194 2.471 5.546 5.522 7.481 9.06 1.934 3.539 2.973 7.027 3.326 11.043.132 1.514.13 3.337.031 4.854l-2.128 20.124a23.629 23.629 0 0 1-.63 3.555c-.651 2.472-1.955 6.938-3.409 9.242-2.078 3.291-5.243 6.32-8.737 8.05Z" fill="#000"/><path d="M880.09 881.233 866 875.001l1-158s-11.065-146-11.5-157c-3.5-88.5-15.5-196-18-202.501-2.5-6.501-7-16.499-18.5-17.499-36.872-3.205-55.624 19.5-69 47-17.528 36.035-29 130-29 130l10 61.5 13.841 32.65A21.896 21.896 0 0 0 765 624.501l2.5 119-16.748 134.464a6.339 6.339 0 0 0 5.248 7.036v15h7.5v-23.023a4.88 4.88 0 0 1-4.846-5.46L774 743.414l-2-115.583-8.882-109.595a7.506 7.506 0 0 1 .319-2.853l29.779-95.157a1.928 1.928 0 0 0-3.663-1.201L756 516.778l5 60.034 3.427 39.187a.768.768 0 0 1-.765.835 15.36 15.36 0 0 1-14.135-9.353L736.5 576.812l-9.5-60.034s14.321-102.354 32.999-136.561c15.466-28.324 37.862-33.891 51.368-34.387 7.516-.276 15.416 2.878 17.799 10.012 5.749 17.21 13.932 66.148 17.334 204.46L817 878.978l19.974 7.965a9.998 9.998 0 0 1 6.264 10.087l-.238 2.971h7l-.383-5.943a15 15 0 0 0-9.546-13.019l-15.571-6.038 14.5-158 12-140 9 140-2 161.94 19.881 8a10 10 0 0 1 6.106 7.489l1.013 5.571h7v-.477a20 20 0 0 0-11.91-18.291Z" fill="#000"/><path fill-rule="evenodd" clip-rule="evenodd" d="M634.372 335.822c-3.631 1.731-10.598 2.844-12.433 3.009 0 0-8.275.655-13.252-.762-5.609-1.596-8.809-3.353-12.863-7.482-2.744-2.794-5.138-7.804-6.247-10.348-.455-1.043-.801-2.126-1.088-3.227l-6.182-23.706s-.797-3.436-.985-5.678c-.447-5.332.002-8.525 1.74-13.601 1.784-5.214 3.494-8.07 7.238-12.161 3.99-4.361 6.965-6.374 12.42-8.741 4.235-1.838 6.858-2.515 11.462-2.955 4.958-.266 6.827-.117 11.673.931 4.86 1.158 9.925 3.522 13.877 6.44 3.953 2.918 6.856 6.528 9.24 10.719 2.384 4.192 3.657 8.328 4.076 13.093.156 1.797.146 3.961.015 5.762l-2.768 24.167a24.201 24.201 0 0 1-.693 3.691c-.794 2.874-2.478 8.425-4.349 11.251-2.593 3.917-6.536 7.528-10.881 9.598Zm-3.033-6.459c-2.921 1.446-8.532 2.362-10.01 2.495 0 0-6.667.524-10.682-.685-4.524-1.362-7.109-2.853-10.389-6.344-2.157-2.295-4.055-6.351-4.988-8.549-.427-1.006-.748-2.048-1.016-3.107l-5.009-19.794s-.654-2.897-.812-4.786c-.378-4.494-.026-7.182 1.358-11.453 1.421-4.386 2.79-6.787 5.794-10.221 3.201-3.661 5.592-5.347 9.98-7.323 3.407-1.535 5.519-2.096 9.227-2.453 3.995-.208 5.501-.076 9.41.822 3.92.992 8.009 2.999 11.203 5.47 3.194 2.471 5.546 5.522 7.481 9.06 1.934 3.539 2.973 7.027 3.326 11.043.132 1.514.13 3.337.031 4.854l-2.128 20.124a23.629 23.629 0 0 1-.63 3.555c-.651 2.472-1.955 6.938-3.409 9.242-2.078 3.291-5.243 6.32-8.737 8.05Z" fill="#000"/><path d="M689.09 881.233 675 875.001l1-158s-11.065-146-11.5-157c-3.5-88.5-15.5-196-18-202.501-2.5-6.501-7-16.499-18.5-17.499-36.872-3.205-55.624 19.5-69 47-17.528 36.035-29 130-29 130l10 61.5 13.841 32.65A21.896 21.896 0 0 0 574 624.501l2.5 119-16.748 134.464a6.339 6.339 0 0 0 5.248 7.036v15h7.5v-23.023a4.88 4.88 0 0 1-4.846-5.46L583 743.414l-2-115.583-8.882-109.595a7.506 7.506 0 0 1 .319-2.853l29.779-95.157a1.928 1.928 0 0 0-3.663-1.201L565 516.778l5 60.034 3.427 39.187a.768.768 0 0 1-.765.835 15.36 15.36 0 0 1-14.135-9.353L545.5 576.812l-9.5-60.034s14.321-102.354 32.999-136.561c15.466-28.324 37.862-33.891 51.368-34.387 7.516-.276 15.416 2.878 17.799 10.012 5.749 17.21 13.932 66.148 17.334 204.46L626 878.978l19.974 7.965a9.998 9.998 0 0 1 6.264 10.087l-.238 2.971h7l-.383-5.943a15 15 0 0 0-9.546-13.019l-15.571-6.038 14.5-158 12-140 9 140-2 161.94 19.881 8a10 10 0 0 1 6.106 7.489l1.013 5.571h7v-.477a20 20 0 0 0-11.91-18.291Z" fill="#000"/></svg>