<svg width="1300" height="1000" viewBox="0 0 1300 1000" fill="none" xmlns="http://www.w3.org/2000/svg">
<path d="M159.934 99.5693C161.239 98.1709 163.449 98.1483 164.783 99.5195C166.016 100.786 166.051 102.793 164.865 104.104L151.551 118.815L164.914 133.921C166.087 135.246 166.028 137.255 164.779 138.509C163.429 139.865 161.219 139.817 159.928 138.404L143.868 120.823C142.813 119.668 142.823 117.896 143.891 116.753L159.934 99.5693Z" fill="black"/>
<path fill-rule="evenodd" clip-rule="evenodd" d="M137 69H363V0H370V69H385C393.284 69 400 75.7157 400 84V154C400 162.284 393.284 169 385 169H115C106.716 169 100 162.284 100 154V84C100 75.7157 106.716 69 115 69H130V0H137V69ZM117 76C111.477 76 107 80.4772 107 86V152C107 157.523 111.477 162 117 162H200V76H117ZM207 162H383C388.523 162 393 157.523 393 152V86C393 80.4772 388.523 76 383 76H207V162Z" fill="black"/>
</svg>
