<svg width="1300" height="1000" viewBox="0 0 1300 1000" fill="none" xmlns="http://www.w3.org/2000/svg"><path fill-rule="evenodd" clip-rule="evenodd" d="M241.043 150c-3.198 0-5.943-.827-8.235-2.482-2.279-1.668-4.034-4.071-5.264-7.209-1.217-3.151-1.825-6.944-1.825-11.379.013-4.434.628-8.208 1.845-11.319 1.23-3.124 2.984-5.507 5.263-7.149 2.292-1.641 5.031-2.462 8.216-2.462 3.185 0 5.924.821 8.216 2.462 2.292 1.642 4.046 4.025 5.264 7.149 1.23 3.125 1.845 6.898 1.845 11.319 0 4.449-.615 8.248-1.845 11.399-1.218 3.138-2.972 5.534-5.264 7.189-2.279 1.655-5.018 2.482-8.216 2.482Zm0-6.216c2.486 0 4.448-1.251 5.885-3.753 1.45-2.515 2.176-6.215 2.176-11.101 0-3.23-.331-5.944-.991-8.141-.66-2.198-1.593-3.853-2.797-4.965-1.204-1.125-2.628-1.688-4.273-1.688-2.473 0-4.428 1.258-5.866 3.773-1.437 2.502-2.162 6.176-2.175 11.021-.013 3.244.304 5.971.952 8.182.66 2.211 1.593 3.879 2.797 5.004 1.204 1.112 2.635 1.668 4.292 1.668Zm-61.535 2.952a3.618 3.618 0 1 1-6.857-2.305l10.904-31.669a6.24 6.24 0 0 1 11.794-.002l10.92 31.67c.81 2.348-.935 4.796-3.419 4.796a3.616 3.616 0 0 1-3.436-2.488l-2.478-7.541h-14.955l-2.473 7.539Zm10.099-29.84 5.384 16.383h-11.069l5.374-16.383h.311Z" fill="#000"/><path d="M279 113.556a5 5 0 0 0-5-5h-.361c-.975 0-1.93.285-2.745.821l-7.361 4.835a2.828 2.828 0 0 0-1.275 2.364c0 2.247 2.493 3.597 4.375 2.368l4.928-3.219h.233v29.898a3.603 3.603 0 0 0 7.206 0v-32.067Z" fill="#000"/><path fill-rule="evenodd" clip-rule="evenodd" d="M137 0h-7v69h-15c-8.284 0-15 6.716-15 15v90c0 8.284 6.716 15 15 15h220c8.284 0 15-6.716 15-15V84c0-8.284-6.716-15-15-15h-15V0h-7v69H137V0Zm196 76c5.523 0 10 4.477 10 10v86c0 5.523-4.477 10-10 10H117c-5.523 0-10-4.477-10-10V86c0-5.523 4.477-10 10-10h216Z" fill="#000"/></svg>