<svg width="1300" height="1000" viewBox="0 0 1300 1000" fill="none" xmlns="http://www.w3.org/2000/svg"><path fill-rule="evenodd" clip-rule="evenodd" d="M232.808 147.518c2.292 1.655 5.037 2.482 8.235 2.482 3.198 0 5.937-.827 8.216-2.482 2.292-1.655 4.046-4.051 5.264-7.189 1.23-3.151 1.845-6.95 1.845-11.399 0-4.421-.615-8.194-1.845-11.319-1.218-3.124-2.972-5.507-5.264-7.149-2.292-1.641-5.031-2.462-8.216-2.462-3.185 0-5.924.821-8.216 2.462-2.279 1.642-4.033 4.025-5.263 7.149-1.217 3.111-1.832 6.885-1.845 11.319 0 4.435.608 8.228 1.825 11.379 1.23 3.138 2.985 5.541 5.264 7.209Zm14.12-7.487c-1.437 2.502-3.399 3.753-5.885 3.753-1.657 0-3.088-.556-4.292-1.668-1.204-1.125-2.137-2.793-2.797-5.004-.648-2.211-.965-4.938-.952-8.182.013-4.845.738-8.519 2.175-11.021 1.438-2.515 3.393-3.773 5.866-3.773 1.645 0 3.069.563 4.273 1.688 1.204 1.112 2.137 2.767 2.797 4.965.66 2.197.991 4.911.991 8.141 0 4.886-.726 8.586-2.176 11.101Zm-70.857 9.195a3.618 3.618 0 0 0 3.437-2.49l2.473-7.539h14.955l2.478 7.541a3.616 3.616 0 0 0 3.436 2.488c2.484 0 4.229-2.448 3.419-4.796l-10.92-31.67a6.236 6.236 0 0 0-11.794.002l-10.904 31.669c-.809 2.348.936 4.795 3.42 4.795Zm18.92-15.947-5.384-16.383h-.311l-5.374 16.383h11.069Z" fill="#000"/><path d="M279 113.556a5 5 0 0 0-5-5h-.361c-.975 0-1.93.285-2.745.821l-7.361 4.835a2.828 2.828 0 0 0-1.275 2.364c0 2.247 2.493 3.597 4.375 2.368l4.928-3.219h.233v29.898a3.603 3.603 0 0 0 7.206 0v-32.067Z" fill="#000"/><path fill-rule="evenodd" clip-rule="evenodd" d="M130 0h7v69h176V0h7v69h15c8.284 0 15 6.716 15 15v90c0 8.284-6.716 15-15 15H115c-8.284 0-15-6.716-15-15V84c0-8.284 6.716-15 15-15h15V0Zm213 86c0-5.523-4.477-10-10-10H117c-5.523 0-10 4.477-10 10v86c0 5.523 4.477 10 10 10h216c5.523 0 10-4.477 10-10V86Zm722.94 252.831c1.83-.165 8.8-1.278 12.43-3.009 4.35-2.07 8.29-5.681 10.88-9.598 1.87-2.826 3.56-8.377 4.35-11.251.34-1.209.55-2.445.7-3.691l2.76-24.167c.13-1.801.14-3.965-.01-5.762-.42-4.765-1.69-8.901-4.08-13.093-2.38-4.191-5.29-7.801-9.24-10.719-3.95-2.918-9.01-5.282-13.88-6.44-4.84-1.048-6.71-1.197-11.67-.931-4.6.44-7.22 1.117-11.46 2.955-5.45 2.367-8.43 4.38-12.42 8.741-3.74 4.091-5.45 6.947-7.24 12.161-1.74 5.076-2.19 8.269-1.74 13.601.19 2.242.99 5.678.99 5.678l6.18 23.706c.29 1.101.63 2.184 1.09 3.227 1.11 2.544 3.5 7.554 6.24 10.348 4.06 4.129 7.26 5.886 12.87 7.482 4.97 1.417 13.25.762 13.25.762Zm-.61-6.973c1.48-.133 7.09-1.049 10.01-2.495 3.49-1.73 6.66-4.759 8.74-8.05 1.45-2.304 2.75-6.77 3.41-9.242.3-1.166.5-2.355.62-3.555l2.13-20.124c.1-1.517.1-3.34-.03-4.854-.35-4.016-1.39-7.504-3.32-11.043-1.94-3.538-4.29-6.589-7.48-9.06-3.2-2.471-7.29-4.478-11.21-5.47-3.91-.898-5.41-1.03-9.41-.822-3.71.357-5.82.918-9.22 2.453-4.39 1.976-6.78 3.662-9.99 7.323-3 3.434-4.37 5.835-5.79 10.221-1.38 4.271-1.73 6.959-1.36 11.453.16 1.889.81 4.786.81 4.786l5.01 19.794c.27 1.059.59 2.101 1.02 3.107.93 2.198 2.83 6.254 4.99 8.549 3.28 3.491 5.86 4.982 10.39 6.344 4.01 1.209 10.68.685 10.68.685Z" fill="#000"/><path d="m1119 875.001 14.09 6.232a20 20 0 0 1 11.91 18.291v.477h-7l-1.01-5.571a10.01 10.01 0 0 0-6.11-7.489l-19.88-8 2-161.94-9-140-12 140-14.5 158 15.57 6.038a15.002 15.002 0 0 1 9.55 13.019l.38 5.943h-7l.24-2.971a9.997 9.997 0 0 0-6.27-10.087l-19.97-7.965 29.5-318.676c-3.4-138.312-11.59-187.25-17.33-204.46-2.39-7.134-10.29-10.288-17.8-10.012-13.51.496-35.9 6.063-51.37 34.387-18.679 34.207-33 136.561-33 136.561l9.5 60.034 13.03 30.669a15.353 15.353 0 0 0 14.13 9.353c.45 0 .81-.386.77-.835l-3.43-39.187-5-60.034 33.55-97.753c.27-.779 1-1.302 1.83-1.302 1.3 0 2.22 1.262 1.84 2.503l-29.78 95.157c-.29.921-.4 1.89-.32 2.853l8.88 109.595 2 115.583-15.35 128.104c-.34 2.904 1.92 5.46 4.85 5.46v23.023h-7.5v-15a6.343 6.343 0 0 1-5.25-7.036l16.75-134.464-2.5-119c-8.79 0-16.73-5.257-20.159-13.35L984 578.501l-10-61.5s11.472-93.965 29-130c13.38-27.5 32.13-50.205 69-47 11.5 1 16 10.998 18.5 17.499 2.5 6.501 14.5 114.001 18 202.501.44 11 11.5 157 11.5 157l-1 158Z" fill="#000"/><path fill-rule="evenodd" clip-rule="evenodd" d="M887.372 335.822c-3.631 1.731-10.598 2.844-12.433 3.009 0 0-8.275.655-13.252-.762-5.609-1.596-8.809-3.353-12.863-7.482-2.744-2.794-5.138-7.804-6.247-10.348-.455-1.043-.801-2.126-1.088-3.227l-6.182-23.706s-.797-3.436-.985-5.678c-.447-5.332.002-8.525 1.74-13.601 1.784-5.214 3.494-8.07 7.238-12.161 3.99-4.361 6.965-6.374 12.42-8.741 4.235-1.838 6.858-2.515 11.462-2.955 4.958-.266 6.827-.117 11.673.931 4.86 1.158 9.925 3.522 13.877 6.44 3.952 2.918 6.856 6.528 9.24 10.719 2.384 4.192 3.657 8.328 4.076 13.093.156 1.797.145 3.961.015 5.762l-2.768 24.167a24.201 24.201 0 0 1-.693 3.691c-.794 2.874-2.478 8.425-4.349 11.251-2.593 3.917-6.536 7.528-10.881 9.598Zm-3.033-6.459c-2.921 1.446-8.532 2.362-10.01 2.495 0 0-6.667.524-10.682-.685-4.524-1.362-7.109-2.853-10.389-6.344-2.157-2.295-4.055-6.351-4.988-8.549-.427-1.006-.748-2.048-1.016-3.107l-5.009-19.794s-.654-2.897-.812-4.786c-.378-4.494-.026-7.182 1.358-11.453 1.421-4.386 2.79-6.787 5.794-10.221 3.201-3.661 5.592-5.347 9.98-7.323 3.407-1.535 5.519-2.096 9.227-2.453 3.995-.208 5.501-.076 9.41.822 3.92.992 8.009 2.999 11.203 5.47 3.194 2.471 5.546 5.522 7.481 9.06 1.934 3.539 2.973 7.027 3.326 11.043.132 1.514.13 3.337.031 4.854l-2.128 20.124a23.629 23.629 0 0 1-.63 3.555c-.651 2.472-1.955 6.938-3.409 9.242-2.078 3.291-5.243 6.32-8.737 8.05Z" fill="#000"/><path d="M942.09 881.233 928 875.001l1-158s-11.065-146-11.5-157c-3.5-88.5-15.5-196-18-202.501-2.5-6.501-7-16.499-18.5-17.499-36.872-3.205-55.624 19.5-69 47-17.528 36.035-29 130-29 130l10 61.5 13.841 32.65A21.896 21.896 0 0 0 827 624.501l2.5 119-16.748 134.464a6.339 6.339 0 0 0 5.248 7.036v15h7.5v-23.023a4.88 4.88 0 0 1-4.846-5.46L836 743.414l-2-115.583-8.882-109.595a7.506 7.506 0 0 1 .319-2.853l29.779-95.157a1.928 1.928 0 0 0-3.663-1.201L818 516.778l5 60.034 3.427 39.187a.768.768 0 0 1-.765.835 15.358 15.358 0 0 1-14.135-9.353L798.5 576.812l-9.5-60.034s14.321-102.354 32.999-136.561c15.466-28.324 37.862-33.891 51.368-34.387 7.516-.276 15.416 2.878 17.799 10.012 5.749 17.21 13.932 66.148 17.334 204.46L879 878.978l19.974 7.965a9.999 9.999 0 0 1 6.264 10.087l-.238 2.971h7l-.383-5.943a15 15 0 0 0-9.546-13.019l-15.571-6.038 14.5-158 12-140 9 140-2 161.94 19.881 8a10 10 0 0 1 6.106 7.489l1.013 5.571h7v-.477a20 20 0 0 0-11.91-18.291Z" fill="#000"/><path fill-rule="evenodd" clip-rule="evenodd" d="M683.939 338.831c1.835-.165 8.802-1.278 12.433-3.009 4.345-2.07 8.288-5.681 10.881-9.598 1.871-2.826 3.555-8.377 4.349-11.251.333-1.209.551-2.445.693-3.691l2.768-24.167c.13-1.801.141-3.965-.015-5.762-.419-4.765-1.692-8.901-4.076-13.093-2.384-4.191-5.288-7.801-9.24-10.719-3.952-2.918-9.017-5.282-13.877-6.44-4.846-1.048-6.715-1.197-11.673-.931-4.604.44-7.227 1.117-11.462 2.955-5.455 2.367-8.43 4.38-12.42 8.741-3.744 4.091-5.454 6.947-7.238 12.161-1.738 5.076-2.187 8.269-1.74 13.601.188 2.242.985 5.678.985 5.678l6.182 23.706c.287 1.101.633 2.184 1.088 3.227 1.109 2.544 3.503 7.554 6.247 10.348 4.054 4.129 7.254 5.886 12.863 7.482 4.977 1.417 13.252.762 13.252.762Zm-.61-6.973c1.478-.133 7.089-1.049 10.01-2.495 3.494-1.73 6.659-4.759 8.737-8.05 1.454-2.304 2.758-6.77 3.409-9.242.308-1.166.503-2.355.63-3.555l2.128-20.124c.099-1.517.101-3.34-.031-4.854-.353-4.016-1.392-7.504-3.326-11.043-1.935-3.538-4.287-6.589-7.481-9.06s-7.283-4.478-11.203-5.47c-3.909-.898-5.415-1.03-9.41-.822-3.708.357-5.82.918-9.227 2.453-4.388 1.976-6.779 3.662-9.98 7.323-3.004 3.434-4.373 5.835-5.794 10.221-1.384 4.271-1.736 6.959-1.358 11.453.158 1.889.812 4.786.812 4.786l5.009 19.794c.268 1.059.589 2.101 1.016 3.107.933 2.198 2.831 6.254 4.988 8.549 3.28 3.491 5.865 4.982 10.389 6.344 4.015 1.209 10.682.685 10.682.685Z" fill="#000"/><path d="m737 875.001 14.09 6.232A20 20 0 0 1 763 899.524v.477h-7l-1.013-5.571a10 10 0 0 0-6.106-7.489l-19.881-8 2-161.94-9-140-12 140-14.5 158 15.571 6.038a15 15 0 0 1 9.546 13.019l.383 5.943h-7l.238-2.971a9.999 9.999 0 0 0-6.264-10.087L688 878.978l29.5-318.676c-3.402-138.312-11.585-187.25-17.334-204.46-2.383-7.134-10.283-10.288-17.799-10.012-13.506.496-35.902 6.063-51.368 34.387C612.321 414.424 598 516.778 598 516.778l9.5 60.034 13.027 30.669a15.358 15.358 0 0 0 14.135 9.353.768.768 0 0 0 .765-.835L632 576.812l-5-60.034 33.553-97.753a1.927 1.927 0 0 1 3.663 1.201l-29.779 95.157a7.506 7.506 0 0 0-.319 2.853L643 627.831l2 115.583-15.346 128.104a4.88 4.88 0 0 0 4.846 5.46v23.023H627v-15a6.339 6.339 0 0 1-5.248-7.036L638.5 743.501l-2.5-119a21.896 21.896 0 0 1-20.159-13.35L602 578.501l-10-61.5s11.472-93.965 29-130c13.376-27.5 32.128-50.205 69-47 11.5 1 16 10.998 18.5 17.499 2.5 6.501 14.5 114.001 18 202.501.435 11 11.5 157 11.5 157l-1 158Z" fill="#000"/></svg>