<svg xmlns="http://www.w3.org/2000/svg" viewBox="0 0 1300 1000"><title>3-context-expand</title><g id="Capa_1" data-name="Capa 1"><rect y="900" width="1300" height="100" transform="translate(1300 1900) rotate(180)"/></g><g id="Capa_2" data-name="Capa 2"><path d="M494,755.28H238.15a25.59,25.59,0,0,1-25.56-25.56V711.17a25.59,25.59,0,0,1,25.56-25.56H494a25.59,25.59,0,0,1,25.56,25.56v18.55A25.59,25.59,0,0,1,494,755.28ZM238.15,693.61a17.58,17.58,0,0,0-17.56,17.56v18.55a17.58,17.58,0,0,0,17.56,17.56H494a17.58,17.58,0,0,0,17.56-17.56V711.17A17.58,17.58,0,0,0,494,693.61Z"/><path d="M195,755.28H0v-8H195a17.58,17.58,0,0,0,17.56-17.56V711.17A17.58,17.58,0,0,0,195,693.61H0v-8H195a25.59,25.59,0,0,1,25.56,25.56v18.55A25.59,25.59,0,0,1,195,755.28Z"/><path d="M791.54,177.18h-188a19.13,19.13,0,0,1-19.12-19.12V93.69a19.14,19.14,0,0,1,19.12-19.12h188a19.15,19.15,0,0,1,19.12,19.12v64.37A19.14,19.14,0,0,1,791.54,177.18Zm-188-94.61a11.13,11.13,0,0,0-11.12,11.12v64.37a11.12,11.12,0,0,0,11.12,11.12h188a11.13,11.13,0,0,0,11.12-11.12V93.69a11.13,11.13,0,0,0-11.12-11.12Z"/><path d="M487.55,689.61h-8V656.19a11.13,11.13,0,0,0-11.12-11.12H0v-8H468.43a19.15,19.15,0,0,1,19.12,19.12Z"/><path d="M573.31,177.18H509.47a19.14,19.14,0,0,1-19.12-19.12V93.69a19.15,19.15,0,0,1,19.12-19.12h63.84a19.15,19.15,0,0,1,19.12,19.12v64.37A19.14,19.14,0,0,1,573.31,177.18ZM509.47,82.57a11.13,11.13,0,0,0-11.12,11.12v64.37a11.13,11.13,0,0,0,11.12,11.12h63.84a11.13,11.13,0,0,0,11.12-11.12V93.69a11.13,11.13,0,0,0-11.12-11.12Z"/><rect x="518.87" y="121.88" width="50.29" height="8"/><path d="M539.46,151.83l-23.4-23.14a3.94,3.94,0,0,1-1.19-2.82A4,4,0,0,1,516,123l23.41-23.67,5.69,5.63-20.59,20.82,20.55,20.32Z"/><rect x="520.3" width="8" height="78.57"/><rect x="772.7" width="8" height="78.57"/><path d="M483.55,904H467.21a4,4,0,0,1-4-4V751.28a4,4,0,0,1,4-4h16.34a4,4,0,0,1,4,4V900A4,4,0,0,1,483.55,904Zm-12.34-8h8.34V755.28h-8.34Z"/></g></svg>