<svg width="1300" height="1000" fill="none" xmlns="http://www.w3.org/2000/svg"><path d="M144.217 99.52a3.35 3.35 0 0 1 4.85.05l16.042 17.183a2.999 2.999 0 0 1 .023 4.07l-16.059 17.581a3.353 3.353 0 0 1-4.988-4.483l13.364-15.106-13.315-14.712a3.35 3.35 0 0 1 .083-4.584Z" fill="#000"/><path fill-rule="evenodd" clip-rule="evenodd" d="M137 0h-7v69h-15c-8.284 0-15 6.716-15 15v70c0 8.284 6.716 15 15 15h270c8.284 0 15-6.716 15-15V84c0-8.284-6.716-15-15-15h-15V0h-7v69H137V0Zm246 76c5.523 0 10 4.477 10 10v66c0 5.523-4.477 10-10 10H207V76h176Zm-266 0c-5.523 0-10 4.477-10 10v66c0 5.523 4.477 10 10 10h83V76h-83Zm1183 31H674c-8.284 0-15 6.716-15 15v28h641v7H659v436h641v7H659v293h641v7H659v30c0 8.284 6.716 15 15 15h126v-10a5 5 0 0 1 5-5h397c2.76 0 5 2.239 5 5v10h93v7h-23v18c0 11.046-8.95 20-20 20h-52.68c-3.45 5.978-9.92 10-17.32 10H820c-7.403 0-13.866-4.022-17.324-10H750c-11.046 0-20-8.954-20-20v-18h-58c-11.046 0-20-8.954-20-20V120c0-11.046 8.954-20 20-20h628v7ZM737 952h63v28c0 1.02.076 2.021.224 3H752c-8.284 0-15-6.716-15-15v-16Zm533 0h-63v28c0 1.02-.08 2.021-.22 3H1255c8.28 0 15-6.716 15-15v-16Zm-70-15v41c0 8.284-6.72 15-15 15H822c-8.284 0-15-6.716-15-15v-41h393Z" fill="#000"/><path fill-rule="evenodd" clip-rule="evenodd" d="M742 800c22.091 0 40-17.909 40-40s-17.909-40-40-40-40 17.909-40 40 17.909 40 40 40Zm0-7c18.225 0 33-14.775 33-33s-14.775-33-33-33-33 14.775-33 33 14.775 33 33 33Zm140-33c0 22.091-17.909 40-40 40s-40-17.909-40-40 17.909-40 40-40 40 17.909 40 40Zm-7 0c0 18.225-14.775 33-33 33s-33-14.775-33-33 14.775-33 33-33 33 14.775 33 33Zm325 40c22.09 0 40-17.909 40-40s-17.91-40-40-40-40 17.909-40 40 17.91 40 40 40Zm0-7c18.23 0 33-14.775 33-33s-14.77-33-33-33-33 14.775-33 33 14.77 33 33 33Z" fill="#000"/><path d="M1260 760c0 22.091 17.91 40 40 40v-7c-18.23 0-33-14.775-33-33s14.77-33 33-33v-7c-22.09 0-40 17.909-40 40Z" fill="#000"/></svg>