<svg width="1300" height="1000" viewBox="0 0 1300 1000" fill="none" xmlns="http://www.w3.org/2000/svg"><g clip-path="url(#a)" fill="#000"><path d="M0 193v7l309.911-67.163A16.608 16.608 0 0 0 323 116.607c0-9.172-7.435-16.607-16.607-16.607H0v7h307.125a8.876 8.876 0 0 1 1.919 17.541L0 193Z"/><path fill-rule="evenodd" clip-rule="evenodd" d="M814 107h486v-7H812c-44.183 0-80 35.817-80 80v20h-19c-11.046 0-20 8.954-20 20v8h-21c-11.046 0-20 8.954-20 20v160c0 11.046 8.954 20 20 20h47c4.963 0 9.504-1.808 13-4.801V887c0 11.046 8.954 20 20 20h24v31c0 34.242 27.758 62 62 62 34.242 0 62-27.758 62-62v-31h338v31c0 34.242 27.76 62 62 62v-7c-30.38 0-55-24.624-55-55v-31h55v-7H754c-8.284 0-15-6.716-15-15v-13h561v-7H739V600h561v-7H739V207h561v-7H739v-18c0-41.421 33.579-75 75-75Zm-99 100h17v25.801A19.922 19.922 0 0 0 719 228h-19v-6c0-8.284 6.716-15 15-15Zm2 28c8.284 0 15 6.716 15 15v156c0 8.284-6.716 15-15 15h-43c-8.284 0-15-6.716-15-15V250c0-8.284 6.716-15 15-15h43Zm66 703v-31h110v31c0 30.376-24.624 55-55 55s-55-24.624-55-55Z"/><path fill-rule="evenodd" clip-rule="evenodd" d="M782 760c0-22.091 17.909-40 40-40h80c22.091 0 40 17.909 40 40s-17.909 40-40 40h-80c-22.091 0-40-17.909-40-40Zm7 0c0-18.225 14.775-33 33-33h80c18.225 0 33 14.775 33 33s-14.775 33-33 33h-80c-18.225 0-33-14.775-33-33Zm431 0c0-22.091 17.91-40 40-40h80c22.09 0 40 17.909 40 40s-17.91 40-40 40h-80c-22.09 0-40-17.909-40-40Zm7 0c0-18.225 14.77-33 33-33h80c18.23 0 33 14.775 33 33s-14.77 33-33 33h-80c-18.23 0-33-14.775-33-33Z"/></g><defs><clipPath id="a"><path fill="#fff" d="M0 0h1300v1000H0z"/></clipPath></defs></svg>