<svg width="1300" height="1000" viewBox="0 0 1300 1000" fill="none" xmlns="http://www.w3.org/2000/svg"><g clip-path="url(#a)" fill="#000"><path d="M708 951h7v17c0 8.284 6.716 15 15 15h55v7h-57c-11.046 0-20-8.954-20-20v-19Zm547 0h-7v17c0 8.284-6.72 15-15 15h-55v7h57c11.05 0 20-8.954 20-20v-19Z"/><path d="M652.238 107H1300v-7H650c-11.046 0-20 8.954-20 20v812c0 11.046 8.954 20 20 20h126.428v-7h-124.19c-8.285 0-15-6.716-15-15V122c0-8.284 6.715-15 15-15Z"/><path d="M630 150h670v7H630v-7Zm0 443h670v7H630v-7Z"/><path fill-rule="evenodd" clip-rule="evenodd" d="M720 800c22.091 0 40-17.909 40-40s-17.909-40-40-40-40 17.909-40 40 17.909 40 40 40Zm0-7c18.225 0 33-14.775 33-33s-14.775-33-33-33-33 14.775-33 33 14.775 33 33 33Zm100 7c22.091 0 40-17.909 40-40s-17.909-40-40-40-40 17.909-40 40 17.909 40 40 40Zm0-7c18.225 0 33-14.775 33-33s-14.775-33-33-33-33 14.775-33 33 14.775 33 33 33Zm358 7c22.09 0 40-17.909 40-40s-17.91-40-40-40-40 17.909-40 40 17.91 40 40 40Zm0-7c18.23 0 33-14.775 33-33s-14.77-33-33-33-33 14.775-33 33 14.77 33 33 33Z"/><path d="M630 893h678v7H630v-7Zm548 52h122v7h-122v-7Z"/><path fill-rule="evenodd" clip-rule="evenodd" d="M783 930a5 5 0 0 0-5 5v45c0 11.046 8.954 20 20 20h367c11.05 0 20-8.954 20-20v-45c0-2.761-2.24-5-5-5H783Zm395 7H785v41c0 8.284 6.716 15 15 15h363c8.28 0 15-6.716 15-15v-41ZM115 69c-8.284 0-15 6.716-15 15v70c0 8.284 6.716 15 15 15h270c8.284 0 15-6.716 15-15V84c0-8.284-6.716-15-15-15H115Zm2 7c-5.523 0-10 4.477-10 10v66c0 5.523 4.477 10 10 10h266c5.523 0 10-4.477 10-10V86c0-5.523-4.477-10-10-10H117Z"/><path d="M200 69h7v100h-7V69ZM130 0h7v76h-7V0Zm233 0h7v76h-7V0ZM149.067 99.57a3.35 3.35 0 0 0-4.933 4.533l13.315 14.712-13.364 15.106a3.352 3.352 0 0 0 4.988 4.483l16.059-17.581a2.999 2.999 0 0 0-.023-4.07l-16.042-17.184Z"/></g><defs><clipPath id="a"><path fill="#fff" d="M0 0h1300v1000H0z"/></clipPath></defs></svg>