<svg width="1300" height="1000" viewBox="0 0 1300 1000" fill="none" xmlns="http://www.w3.org/2000/svg">
<path d="M867 259.783C867 261.742 868.588 263.331 870.548 263.331H927.57L906.258 284.643C904.872 286.028 904.872 288.275 906.258 289.66C907.643 291.046 909.889 291.046 911.275 289.66L938.511 262.424C939.221 261.714 939.567 260.779 939.549 259.849C939.567 258.919 939.221 257.984 938.511 257.274L911.275 230.038C909.889 228.653 907.643 228.653 906.258 230.038C904.872 231.424 904.872 233.67 906.258 235.055L927.438 256.235H870.548C868.588 256.235 867 257.824 867 259.783Z" fill="black"/>
<path fill-rule="evenodd" clip-rule="evenodd" d="M898 176.5C892.334 176.5 887.717 180.987 887.507 186.602C853.519 193.74 828 223.89 828 260C828 296.108 853.516 326.255 887.5 333.396V900H894.5V334.524C897.29 334.838 900.126 335 903 335C905.531 335 908.033 334.875 910.5 334.63V900H917.5V333.599C951.982 326.845 978 296.461 978 260C978 223.533 951.974 193.145 917.483 186.397C917.171 180.879 912.597 176.5 907 176.5H898ZM903 185C900.252 185 897.539 185.148 894.868 185.436C895.443 184.288 896.629 183.5 898 183.5H907C908.328 183.5 909.483 184.24 910.076 185.329C907.747 185.111 905.386 185 903 185ZM903 328C940.555 328 971 297.555 971 260C971 222.445 940.555 192 903 192C865.445 192 835 222.445 835 260C835 297.555 865.445 328 903 328Z" fill="black"/>
<path fill-rule="evenodd" clip-rule="evenodd" d="M1023.5 655.5C1023.5 640.036 1036.04 627.5 1051.5 627.5H1114.5C1129.96 627.5 1142.5 640.036 1142.5 655.5C1142.5 670.964 1129.96 683.5 1114.5 683.5H1051.5C1036.04 683.5 1023.5 670.964 1023.5 655.5ZM1051.5 634.5C1039.9 634.5 1030.5 643.902 1030.5 655.5C1030.5 667.098 1039.9 676.5 1051.5 676.5H1114.5C1126.1 676.5 1135.5 667.098 1135.5 655.5C1135.5 643.902 1126.1 634.5 1114.5 634.5H1051.5Z" fill="black"/>
<path fill-rule="evenodd" clip-rule="evenodd" d="M986.5 900V727.5H1003.5V796C1003.5 836.593 1036.41 869.5 1077 869.5H1090C1130.59 869.5 1163.5 836.593 1163.5 796V727.5H1180.5V900C1180.5 901.933 1182.07 903.5 1184 903.5C1185.93 903.5 1187.5 901.933 1187.5 900V649.695H1184C1185.38 649.695 1186.21 649.694 1186.72 649.694C1187.5 649.693 1187.5 649.69 1187.5 649.69L1187.5 649.596L1187.5 649.529V649.527C1187.5 649.48 1187.5 649.424 1187.5 649.359C1187.49 649.155 1187.49 648.863 1187.47 648.487C1187.45 647.736 1187.4 646.652 1187.29 645.281C1187.09 642.54 1186.69 638.649 1185.88 633.989C1184.27 624.685 1181.04 612.229 1174.54 599.733C1168.04 587.221 1158.24 574.622 1143.49 565.162C1128.73 555.693 1109.21 549.5 1083.5 549.5C1057.79 549.5 1038.27 555.693 1023.51 565.162C1008.76 574.622 998.959 587.221 992.457 599.733C985.963 612.229 982.733 624.685 981.122 633.989C980.314 638.649 979.909 642.54 979.706 645.281C979.604 646.652 979.553 647.736 979.527 648.487C979.514 648.863 979.507 649.155 979.504 649.359C979.502 649.46 979.501 649.539 979.5 649.596L979.5 649.663L979.5 649.683V649.69C979.5 649.692 979.5 649.695 983 649.695H979.5V900C979.5 901.933 981.067 903.5 983 903.5C984.933 903.5 986.5 901.933 986.5 900ZM1180.5 720.5V649.691L1180.5 649.653C1180.5 649.617 1180.5 649.557 1180.5 649.476C1180.49 649.313 1180.49 649.062 1180.48 648.73C1180.45 648.065 1180.41 647.072 1180.31 645.799C1180.12 643.252 1179.74 639.589 1178.98 635.183C1177.45 626.357 1174.4 614.639 1168.33 602.961C1162.27 591.3 1153.23 579.725 1139.71 571.055C1126.21 562.394 1108.04 556.5 1083.5 556.5C1058.96 556.5 1040.79 562.394 1027.29 571.055C1013.77 579.725 1004.73 591.3 998.668 602.961C992.599 614.639 989.548 626.357 988.019 635.183C987.256 639.589 986.876 643.252 986.687 645.799C986.592 647.072 986.545 648.065 986.522 648.73C986.511 649.062 986.505 649.313 986.503 649.476C986.501 649.557 986.501 649.617 986.5 649.653L986.5 649.695V720.5H1003.5V652C1003.5 611.407 1036.41 578.5 1077 578.5H1090C1130.59 578.5 1163.5 611.407 1163.5 652V720.5H1180.5ZM1010.5 652C1010.5 615.273 1040.27 585.5 1077 585.5H1090C1126.73 585.5 1156.5 615.273 1156.5 652V796C1156.5 832.727 1126.73 862.5 1090 862.5H1077C1040.27 862.5 1010.5 832.727 1010.5 796V652Z" fill="black"/>
</svg>
