<svg width="1300" height="1000" viewBox="0 0 1300 1000" fill="none" xmlns="http://www.w3.org/2000/svg">
<path fill-rule="evenodd" clip-rule="evenodd" d="M724.753 50.8799C711.348 60.2013 702.165 71.1569 699.171 81.8449C698.203 85.3023 694.943 87.9602 691.073 87.7244C618.43 83.298 579.734 129.805 585.522 169.53C586.185 174.085 582.805 178.325 578.209 178.681C561.284 179.993 549.972 188.286 543.693 200.187C537.332 212.245 535.981 228.339 539.909 245.206C542.949 258.263 549.097 265.991 555.375 270.641C561.722 275.342 568.423 277.056 572.693 277.67C576.879 278.273 580.171 282.02 580.299 286.208C580.43 290.507 581.428 297.454 585.698 304.625C589.937 311.742 597.539 319.319 611.285 324.745C614.636 326.067 619.036 326.531 624.041 326.362C628.999 326.194 634.28 325.416 639.244 324.461C643.304 323.68 647.07 322.798 650.247 322.053C650.956 321.887 651.637 321.727 652.285 321.578C654.024 321.175 655.591 320.827 656.811 320.622C657.414 320.521 658.038 320.436 658.608 320.413C658.893 320.401 659.246 320.4 659.62 320.445C659.947 320.483 660.564 320.585 661.208 320.945C681.453 332.265 702.663 339.349 723.807 325.257C723.817 325.25 723.836 325.236 723.851 325.222C736.172 313.859 742.484 303.045 743.178 292.91C743.861 282.94 739.159 272.658 727.191 262.126L731.815 256.871C744.774 268.274 751.044 280.51 750.162 293.389C749.291 306.103 741.499 318.469 728.596 330.368C728.318 330.624 728.012 330.867 727.689 331.082C703.281 347.348 678.988 338.795 658.495 327.446C658.353 327.465 658.179 327.49 657.969 327.526C656.989 327.69 655.62 327.991 653.863 328.397C653.244 328.541 652.584 328.695 651.888 328.858C648.709 329.604 644.779 330.525 640.566 331.335C635.429 332.324 629.75 333.173 624.278 333.358C618.851 333.542 613.349 333.085 608.715 331.256C593.616 325.296 584.762 316.733 579.684 308.206C574.637 299.732 573.458 291.529 573.302 286.421C573.277 285.593 572.478 284.712 571.695 284.599C566.702 283.88 558.78 281.874 551.209 276.266C543.568 270.607 536.501 261.435 533.091 246.794C528.888 228.745 530.16 210.838 537.502 196.921C544.926 182.849 558.399 173.196 577.668 171.702C577.919 171.683 578.174 171.555 578.368 171.312C578.562 171.069 578.631 170.791 578.595 170.539C571.959 124.99 615.991 76.1364 691.499 80.7373C691.652 80.7467 691.832 80.7029 692.017 80.5648C692.208 80.4218 692.361 80.2061 692.431 79.957C696.041 67.0671 706.684 54.9189 720.756 45.1329C734.906 35.2934 752.917 27.5578 771.962 23.6718C809.971 15.9165 853.123 23.3921 877.439 61.6503C877.625 61.944 877.956 62.0588 878.192 62.0173C896.012 58.8859 921.509 59.4127 943.254 69.9197C965.271 80.5582 983.138 101.311 985.322 137.732C985.333 137.911 985.414 138.102 985.579 138.261C985.745 138.422 985.948 138.505 986.143 138.511C1003.99 139.136 1020.67 147.04 1031.95 158.706C1043.24 170.378 1049.37 186.122 1045.29 202.247C1044.65 204.78 1045.8 207.37 1047.79 208.392C1058.31 213.81 1070.39 223.008 1076.51 235.833C1082.79 248.977 1082.52 265.3 1069.43 283.929C1069.13 284.359 1068.78 284.787 1068.39 285.189C1061.58 292.072 1050.2 299.716 1036.66 301.905C1022.9 304.129 1007.25 300.653 992.453 285.803C991.379 284.726 989.633 284.151 987.59 284.361C985.541 284.571 983.654 285.535 982.532 286.899C978.299 292.044 972.337 296.723 964.548 298.613C956.707 300.515 947.445 299.485 936.861 293.959C935.459 293.227 933.719 293.25 932.29 294.042C923.503 298.909 910.167 303.32 896.838 303.603C883.479 303.888 869.542 300.001 860.653 287.53C854.998 279.597 851.034 271.803 850.614 263.551C850.187 255.152 853.451 246.935 860.834 238.234L866.172 242.763C859.555 250.562 857.295 257.095 857.605 263.195C857.923 269.443 860.96 275.9 866.353 283.467C873.417 293.377 884.669 296.861 896.689 296.605C908.739 296.348 920.972 292.309 928.898 287.918C932.339 286.013 936.57 285.91 940.101 287.754C949.465 292.643 956.993 293.242 962.898 291.81C968.853 290.366 973.592 286.747 977.127 282.451C979.581 279.469 983.26 277.768 986.875 277.397C990.495 277.026 994.513 277.954 997.412 280.863C1010.63 294.135 1024.03 296.855 1035.54 294.995C1047.26 293.1 1057.36 286.381 1063.41 280.266C1063.5 280.17 1063.61 280.049 1063.71 279.905C1075.53 263.074 1075.25 249.429 1070.2 238.85C1064.99 227.952 1054.41 219.673 1044.58 214.616C1039.37 211.933 1037.16 205.847 1038.5 200.53C1041.85 187.31 1036.96 173.957 1026.92 163.572C1016.87 153.18 1001.89 146.067 985.898 145.507C981.903 145.367 978.577 142.186 978.335 138.151C976.306 104.311 959.988 85.78 940.208 76.2225C920.156 66.5336 896.245 65.9522 879.404 68.9117C876.272 69.462 873.179 67.9973 871.531 65.4051C849.357 30.517 809.771 23.1015 773.362 30.5304C755.199 34.2365 738.081 41.612 724.753 50.8799Z" fill="black"/>
<path d="M89 742H96V900H89V742Z" fill="black"/>
<path d="M117 742H124V900H117V742Z" fill="black"/>
<path fill-rule="evenodd" clip-rule="evenodd" d="M79 704C75.4102 704 72.5 706.91 72.5 710.5V729.5C72.5 733.09 75.4101 736 79 736H626.5C630.09 736 633 733.09 633 729.5V710.5C633 706.91 630.09 704 626.5 704H79ZM65.5 710.5C65.5 703.044 71.5442 697 79 697H626.5C633.956 697 640 703.044 640 710.5V729.5C640 736.956 633.956 743 626.5 743H79C71.5442 743 65.5 736.956 65.5 729.5V710.5Z" fill="black"/>
<path fill-rule="evenodd" clip-rule="evenodd" d="M94 640.5C92.067 640.5 90.5 642.067 90.5 644V656C90.5 657.933 92.067 659.5 94 659.5H613C614.933 659.5 616.5 657.933 616.5 656V644C616.5 642.067 614.933 640.5 613 640.5H94ZM83.5 644C83.5 638.201 88.201 633.5 94 633.5H613C618.799 633.5 623.5 638.201 623.5 644V656C623.5 661.799 618.799 666.5 613 666.5H94C88.201 666.5 83.5 661.799 83.5 656V644Z" fill="black"/>
<path fill-rule="evenodd" clip-rule="evenodd" d="M94 585.5C92.067 585.5 90.5 587.067 90.5 589V601C90.5 602.933 92.067 604.5 94 604.5H613C614.933 604.5 616.5 602.933 616.5 601V589C616.5 587.067 614.933 585.5 613 585.5H94ZM83.5 589C83.5 583.201 88.201 578.5 94 578.5H613C618.799 578.5 623.5 583.201 623.5 589V601C623.5 606.799 618.799 611.5 613 611.5H94C88.201 611.5 83.5 606.799 83.5 601V589Z" fill="black"/>
<path fill-rule="evenodd" clip-rule="evenodd" d="M126.5 565C126.5 559.201 131.201 554.5 137 554.5H151C156.799 554.5 161.5 559.201 161.5 565V579H154.5V565C154.5 563.067 152.933 561.5 151 561.5H137C135.067 561.5 133.5 563.067 133.5 565V579H126.5V565ZM133.5 610.75V634.5H126.5V610.75H133.5ZM154.5 634.5V610.75H161.5V634.5H154.5ZM133.5 666.25V698H126.5V666.25H133.5ZM154.5 698V666.25H161.5V698H154.5Z" fill="black"/>
<path d="M581 742H588V900H581V742Z" fill="black"/>
<path d="M609 742H616V900H609V742Z" fill="black"/>
<path fill-rule="evenodd" clip-rule="evenodd" d="M541.5 565C541.5 559.201 546.201 554.5 552 554.5H566C571.799 554.5 576.5 559.201 576.5 565V579H569.5V565C569.5 563.067 567.933 561.5 566 561.5H552C550.067 561.5 548.5 563.067 548.5 565V579H541.5V565ZM548.5 610.75V634.5H541.5V610.75H548.5ZM569.5 634.5V610.75H576.5V634.5H569.5ZM548.5 666.25V698H541.5V666.25H548.5ZM569.5 698V666.25H576.5V698H569.5Z" fill="black"/>
<path fill-rule="evenodd" clip-rule="evenodd" d="M790.5 249V347.02C790.5 355.92 778.557 358.835 774.456 350.937L743.394 291.113L749.606 287.887L780.669 347.712C781.392 349.105 783.5 348.591 783.5 347.02V249H790.5ZM737.673 320.024L770.541 390.664C771.129 391.929 771.498 393.239 771.517 394.805C771.746 413.555 774.096 624.418 765.493 758.724C763.672 787.156 758.142 822.691 753.09 851.035C750.56 865.225 748.144 877.645 746.36 886.52C745.468 890.957 744.734 894.509 744.223 896.953C743.967 898.175 743.767 899.12 743.631 899.76C743.562 900.08 743.51 900.324 743.475 900.489L743.422 900.735L743.421 900.739C743.421 900.739 743.421 900.74 740 900C736.579 899.261 736.579 899.26 736.579 899.26L736.58 899.258L736.631 899.02C736.665 898.86 736.717 898.619 736.784 898.303C736.919 897.67 737.117 896.733 737.371 895.519C737.879 893.091 738.61 889.558 739.498 885.14C741.274 876.304 743.68 863.935 746.198 849.806C751.242 821.514 756.712 786.298 758.507 758.277C767.09 624.283 764.747 413.691 764.517 394.891C764.512 394.479 764.439 394.145 764.194 393.617L731.327 322.977L737.673 320.024Z" fill="black"/>
<path fill-rule="evenodd" clip-rule="evenodd" d="M864.618 286.015L834.834 329.249C833.708 330.884 833.001 332.724 832.984 334.925C832.785 360.162 830.933 624.867 839.507 758.724C841.328 787.156 846.858 822.691 851.91 851.035C854.44 865.225 856.856 877.645 858.64 886.52C859.532 890.957 860.266 894.509 860.777 896.953C861.033 898.175 861.233 899.12 861.369 899.76C861.437 900.08 861.49 900.324 861.525 900.489L861.579 900.739C861.579 900.739 861.579 900.74 865 900C868.421 899.261 868.421 899.26 868.421 899.26L868.42 899.258L868.369 899.02C868.335 898.86 868.283 898.619 868.216 898.303C868.081 897.67 867.883 896.733 867.629 895.519C867.121 893.091 866.39 889.558 865.502 885.14C863.726 876.304 861.32 863.935 858.802 849.806C853.758 821.514 848.288 786.298 846.493 758.277C837.938 624.726 839.785 360.307 839.984 334.98C839.989 334.386 840.14 333.886 840.599 333.22L870.382 289.986L864.618 286.015Z" fill="black"/>
<path fill-rule="evenodd" clip-rule="evenodd" d="M856.941 268.398L830.29 309.689C825.745 316.73 814.83 313.641 814.65 305.262L814.001 275.076L820.999 274.925L821.648 305.111C821.68 306.59 823.606 307.135 824.408 305.893L851.059 264.602L856.941 268.398Z" fill="black"/>
<path fill-rule="evenodd" clip-rule="evenodd" d="M1012.82 325.754C998.995 329.537 982.843 328.987 971.139 326.489C969.675 326.176 967.816 326.541 965.957 327.659C964.106 328.772 962.615 330.427 961.871 332.091C957.539 341.781 948.531 348.211 939.142 352.188C929.713 356.182 919.392 357.928 911.609 357.914C909.568 357.91 907.624 359.056 906.672 360.8C898.14 376.42 882.946 383.823 868.644 386.118C861.481 387.267 854.428 387.16 848.336 386.124C842.321 385.101 836.917 383.116 833.314 380.233L837.686 374.767C840.001 376.619 844.103 378.304 849.509 379.223C854.837 380.129 861.12 380.235 867.536 379.206C880.392 377.144 893.33 370.623 900.528 357.445C902.736 353.403 907.07 350.906 911.621 350.914C918.506 350.926 927.89 349.352 936.412 345.743C944.974 342.116 952.162 336.658 955.48 329.234C956.875 326.114 959.418 323.423 962.348 321.661C965.27 319.903 968.939 318.861 972.6 319.643C983.458 321.961 998.448 322.429 1010.97 319.002C1023.48 315.576 1032.59 308.608 1034.02 296.587L1040.98 297.414C1039.06 313.496 1026.64 321.968 1012.82 325.754Z" fill="black"/>
<path fill-rule="evenodd" clip-rule="evenodd" d="M760.17 231.107C753.995 221.178 751.809 209.676 753.576 201.279L760.426 202.721C759.099 209.025 760.7 218.704 766.114 227.411C771.45 235.99 780.322 243.349 793.246 245.428C798.595 246.288 802.432 250.594 803.925 255.12C806.612 263.266 814.949 270.338 824.734 272.667C834.297 274.943 844.807 272.591 852.167 262.445L857.833 266.556C848.585 279.304 835.03 282.314 823.113 279.477C811.419 276.693 800.861 268.176 797.278 257.313C796.39 254.622 794.29 252.686 792.135 252.339C776.944 249.896 766.424 241.164 760.17 231.107Z" fill="black"/>
</svg>
