<svg width="1300" height="1000" viewBox="0 0 1300 1000" fill="none" xmlns="http://www.w3.org/2000/svg">
<path fill-rule="evenodd" clip-rule="evenodd" d="M920.5 293V900H913.5V293H920.5ZM936.5 900V293H943.5V900H936.5Z" fill="black"/>
<path fill-rule="evenodd" clip-rule="evenodd" d="M996.975 269.492C996.02 270.448 994.471 270.448 993.515 269.492L974.732 250.709C974.243 250.22 974.004 249.575 974.016 248.934C974.004 248.292 974.243 247.647 974.732 247.158L993.515 228.375C994.471 227.42 996.02 227.42 996.975 228.375C997.931 229.331 997.931 230.88 996.975 231.835L982.006 246.804H1032.07L1017.09 231.83C1016.14 230.874 1016.14 229.325 1017.09 228.37C1018.05 227.414 1019.6 227.414 1020.55 228.37L1039.34 247.153C1039.83 247.642 1040.07 248.287 1040.05 248.929C1040.07 249.57 1039.83 250.215 1039.34 250.704L1020.55 269.487C1019.6 270.443 1018.05 270.443 1017.09 269.487C1016.14 268.532 1016.14 266.983 1017.09 266.027L1032.06 251.059H982.002L996.975 266.032C997.931 266.988 997.931 268.537 996.975 269.492Z" fill="black"/>
<path fill-rule="evenodd" clip-rule="evenodd" d="M973.016 248.934C973.004 248.038 973.341 247.135 974.025 246.451L992.808 227.668C994.154 226.322 996.336 226.322 997.682 227.668C999.028 229.014 999.028 231.196 997.682 232.542L984.42 245.804H1029.65L1016.39 232.537C1015.04 231.191 1015.04 229.009 1016.39 227.663C1017.73 226.317 1019.92 226.317 1021.26 227.663L1040.04 246.446C1040.73 247.13 1041.07 248.033 1041.05 248.929C1041.07 249.824 1040.73 250.727 1040.04 251.411L1021.26 270.194C1019.92 271.54 1017.73 271.54 1016.39 270.194C1015.04 268.848 1015.04 266.666 1016.39 265.32L1029.65 252.059H984.416L997.682 265.325C999.028 266.671 999.028 268.854 997.682 270.199C996.336 271.545 994.154 271.545 992.808 270.199L974.025 251.417C973.341 250.732 973.004 249.829 973.016 248.934ZM975.016 248.952C975.009 249.333 975.15 249.713 975.439 250.002L994.222 268.785C994.787 269.35 995.703 269.35 996.268 268.785C996.833 268.22 996.833 267.304 996.268 266.739L979.588 250.059H1034.48L1017.8 266.734C1017.24 267.299 1017.24 268.215 1017.8 268.78C1018.37 269.345 1019.28 269.345 1019.85 268.78L1038.63 249.997C1038.92 249.708 1039.06 249.328 1039.05 248.947L1039.05 248.929L1039.05 248.91C1039.06 248.529 1038.92 248.149 1038.63 247.86L1019.85 229.077C1019.28 228.512 1018.37 228.512 1017.8 229.077C1017.24 229.642 1017.24 230.558 1017.8 231.123L1034.48 247.804H979.592L996.268 231.128C996.833 230.563 996.833 229.647 996.268 229.082C995.703 228.517 994.787 228.517 994.222 229.082L975.439 247.865C975.15 248.155 975.009 248.534 975.016 248.915L975.016 248.934L975.016 248.952Z" fill="black"/>
<path fill-rule="evenodd" clip-rule="evenodd" d="M954.127 150.404C952.953 150.404 952 149.452 952 148.277C952 147.102 952.953 146.149 954.127 146.149H975.513L968.964 131.176C968.546 130.221 968.546 128.672 968.964 127.716C969.382 126.761 970.06 126.761 970.478 127.716L978.693 146.499C978.907 146.988 979.011 147.633 979.006 148.274C979.011 148.915 978.907 149.56 978.693 150.049L970.478 168.832C970.06 169.788 969.382 169.788 968.964 168.832C968.546 167.877 968.546 166.328 968.964 165.372L975.511 150.404H954.127Z" fill="black"/>
<path fill-rule="evenodd" clip-rule="evenodd" d="M954.127 151.404C952.4 151.404 951 150.004 951 148.277C951 146.549 952.4 145.149 954.127 145.149H973.984L968.048 131.577C967.768 130.937 967.651 130.165 967.651 129.446C967.651 128.727 967.768 127.955 968.048 127.315C968.295 126.75 968.817 125.999 969.721 125.999C970.625 125.999 971.146 126.75 971.394 127.315L979.609 146.098C979.894 146.75 980.011 147.54 980.006 148.274C980.011 149.008 979.894 149.798 979.609 150.45L971.394 169.233C971.146 169.799 970.625 170.549 969.721 170.549C968.817 170.549 968.295 169.799 968.048 169.233C967.768 168.593 967.651 167.822 967.651 167.102C967.651 166.383 967.768 165.611 968.048 164.971L973.982 151.404H954.127ZM953 148.277C953 148.899 953.505 149.404 954.127 149.404H977.04L969.88 165.773C969.742 166.089 969.651 166.569 969.651 167.102C969.651 167.434 969.686 167.745 969.746 168.009L977.776 149.649C977.918 149.324 978.01 148.828 978.006 148.282L978.006 148.274L978.006 148.266C978.01 147.72 977.918 147.224 977.776 146.9L969.746 128.539C969.686 128.803 969.651 129.115 969.651 129.446C969.651 129.979 969.742 130.459 969.88 130.775L977.042 147.149H954.127C953.505 147.149 953 147.654 953 148.277Z" fill="black"/>
<path fill-rule="evenodd" clip-rule="evenodd" d="M1056 207H721C716.582 207 713 210.582 713 215V282C713 286.418 716.582 290 721 290H1056C1060.42 290 1064 286.418 1064 282V215C1064 210.582 1060.42 207 1056 207ZM721 200C712.716 200 706 206.716 706 215V282C706 290.284 712.716 297 721 297H1056C1064.28 297 1071 290.284 1071 282V215C1071 206.716 1064.28 200 1056 200H721Z" fill="black"/>
<path fill-rule="evenodd" clip-rule="evenodd" d="M982 106H879C874.582 106 871 109.582 871 114V181C871 185.418 874.582 189 879 189H982C986.418 189 990 185.418 990 181V114C990 109.582 986.418 106 982 106ZM879 99C870.716 99 864 105.716 864 114V181C864 189.284 870.716 196 879 196H982C990.284 196 997 189.284 997 181V114C997 105.716 990.284 99 982 99H879Z" fill="black"/>
<path fill-rule="evenodd" clip-rule="evenodd" d="M936.5 292V102.5H943.5V292H936.5Z" fill="black"/>
<path fill-rule="evenodd" clip-rule="evenodd" d="M913.5 292.5V193H920.5V292.5H913.5Z" fill="black"/>
</svg>
