<svg id="Capa_1" data-name="Capa 1" xmlns="http://www.w3.org/2000/svg" viewBox="0 0 1300 1000"><defs><style>.cls-1,.cls-3{fill:#fff;}.cls-2{fill:none;}.cls-2,.cls-3{stroke:#262626;stroke-miterlimit:10;stroke-width:10px;}.cls-4{fill:#262626;}</style></defs><title>subway-window</title><rect class="cls-1" x="80.69" y="635.17" width="529.13" height="60" rx="20"/><rect class="cls-2" x="80.69" y="635.17" width="529.13" height="60" rx="20"/><path class="cls-3" d="M325.26,744.15H65.66a20.08,20.08,0,0,1-20-20.14V704.29a20.07,20.07,0,0,1,20-20.14h259.6a20.07,20.07,0,0,1,20,20.14V724A20.08,20.08,0,0,1,325.26,744.15Z"/><path class="cls-3" d="M624.85,744.15H365.26a20.07,20.07,0,0,1-20-20.14V704.29a20.06,20.06,0,0,1,20-20.14H624.85a20.07,20.07,0,0,1,20,20.14V724A20.08,20.08,0,0,1,624.85,744.15Z"/><rect class="cls-1" x="57.95" y="179.73" width="574.62" height="393.41" rx="20"/><path class="cls-4" d="M612.57,184.73a15,15,0,0,1,15,15V553.14a15,15,0,0,1-15,15H78a15,15,0,0,1-15-15V199.73a15,15,0,0,1,15-15H612.57m0-10H78a25.07,25.07,0,0,0-25,25V553.14a25.07,25.07,0,0,0,25,25H612.57a25.07,25.07,0,0,0,25-25V199.73a25.07,25.07,0,0,0-25-25Z"/><path class="cls-2" d="M474.82,91.5v29l23.69,37.74a3.43,3.43,0,0,1-2.91,5.26H453a3.2,3.2,0,0,1-2.7-4.92l24.52-38.39"/><path class="cls-2" d="M160.12,92.5v29l23.7,37.74a3.44,3.44,0,0,1-2.92,5.26H138.3a3.2,3.2,0,0,1-2.7-4.92l24.52-38.39"/><path class="cls-2" d="M316.64,92.5v29l23.69,37.74a3.43,3.43,0,0,1-2.91,5.26H294.81a3.19,3.19,0,0,1-2.69-4.92l24.52-38.39"/><path class="cls-2" d="M0,91.5H612.45a25.11,25.11,0,0,0,25-25L637.57,0"/><rect class="cls-4" y="900" width="1300" height="100" transform="translate(1300 1900) rotate(180)"/></svg>