<svg width="1300" height="1000" viewBox="0 0 1300 1000" fill="none" xmlns="http://www.w3.org/2000/svg">
<g clip-path="url(#clip0_1541_831)">
<path fill-rule="evenodd" clip-rule="evenodd" d="M1211 696.5H1094.5V689.5H1211C1221.22 689.5 1229.5 697.783 1229.5 708V739C1229.5 749.217 1221.22 757.5 1211 757.5H1094.5V750.5H1211C1217.35 750.5 1222.5 745.351 1222.5 739V708C1222.5 701.649 1217.35 696.5 1211 696.5Z" fill="black"/>
<path d="M1321.03 882.828L1304.65 874.193L1314.8 732.541C1316.17 713.46 1303.83 696.082 1285.37 691.077L1234.15 677.193C1234.15 664.924 1226.37 654.004 1214.78 649.996L1193.65 642.693C1193.65 591.026 1187.65 484.002 1160.65 479.193C1121.84 472.279 1099.65 495.193 1087.65 529.693C1082.81 543.628 1074.24 590.53 1069.19 619.5H1084.5L1094 627V715.42L1207.65 754.193L1192.65 866.693L1191.45 877.238C1191.02 880.944 1193.92 884.193 1197.65 884.193V902.193H1331.65L1331.69 901.259C1331.97 893.578 1327.83 886.413 1321.03 882.828Z" fill="black"/>
<path d="M1317.44 888.649L1296.65 880.133L1307.82 729.71C1308.88 715.368 1299.62 702.288 1285.74 698.531L1200.65 675.503L1271.41 723.49C1281.28 730.18 1286.25 742.077 1284.07 753.796L1261.15 877.193L1278.38 883.369C1284.01 885.387 1287.9 890.555 1288.29 896.523L1288.65 902.193H1323.65V897.903C1323.65 893.844 1321.2 890.188 1317.44 888.649Z" fill="white"/>
<path d="M1274.49 889.549L1254.15 882.202L1276.58 756.301C1278.65 744.673 1273.7 732.912 1263.95 726.257L1186.15 673.193L1095 652.739V708.168L1214.98 750.193L1197.91 873.754C1197.51 876.634 1199.74 879.202 1202.65 879.202V902.212H1281.15L1281.1 898.788C1281.03 894.636 1278.4 890.96 1274.49 889.549Z" fill="white"/>
<path d="M1158.44 485.603C1146.6 482.574 1117.29 479.679 1099.65 517.693C1089.97 538.561 1081.17 590.223 1076.71 619.693L1093 624.193L1095 645.788L1185.15 665.193L1225.36 675.601C1226.39 675.867 1227.33 674.931 1227.06 673.902C1224.63 664.459 1217.45 656.969 1208.12 654.144L1185.15 647.193L1120.15 624.193L1131.43 558.555C1131.56 557.821 1132.2 557.284 1132.94 557.284C1133.85 557.284 1134.56 558.078 1134.46 558.984L1127.65 619.693L1187.15 641.193C1187.15 539.833 1173.08 503.185 1166.72 491.789C1164.95 488.624 1161.96 486.501 1158.44 485.603Z" fill="white"/>
<path d="M1136.99 475.086C1140.76 476.494 1147.8 476.996 1149.64 477C1149.64 477 1157.94 476.931 1162.78 475.086C1168.23 473.007 1171.26 470.977 1174.94 466.511C1177.43 463.489 1179.38 458.288 1180.26 455.658C1180.62 454.579 1180.87 453.47 1181.06 452.348L1185.16 428.194C1185.16 428.194 1185.65 424.702 1185.64 422.452C1185.62 417.101 1184.9 413.959 1182.72 409.054C1180.49 404.016 1178.54 401.319 1174.45 397.57C1170.1 393.574 1166.96 391.828 1161.32 389.945C1156.94 388.483 1154.27 388.038 1149.64 388C1144.68 388.167 1142.83 388.478 1138.1 389.945C1133.35 391.522 1128.51 394.318 1124.83 397.57C1121.15 400.822 1118.57 404.671 1116.56 409.054C1114.55 413.437 1113.64 417.669 1113.64 422.452C1113.64 424.255 1113.84 426.411 1114.13 428.194L1118.99 452.027C1119.24 453.256 1119.57 454.468 1120.01 455.644C1121.05 458.437 1123.21 463.821 1125.32 466.473C1128.24 470.149 1132.49 473.402 1136.99 475.086Z" fill="black"/>
<path d="M1139.45 468.387C1142.49 469.573 1148.16 469.996 1149.64 470C1149.64 470 1156.33 469.942 1160.22 468.387C1164.61 466.635 1167.06 464.925 1170.02 461.161C1171.97 458.687 1173.51 454.481 1174.24 452.21C1174.58 451.171 1174.81 450.105 1174.99 449.026L1178.25 428.871C1178.25 428.871 1178.65 425.928 1178.64 424.032C1178.63 419.523 1178.04 416.876 1176.29 412.742C1174.49 408.496 1172.92 406.224 1169.63 403.065C1166.12 399.697 1163.59 398.226 1159.05 396.639C1155.52 395.407 1153.37 395.032 1149.64 395C1145.64 395.141 1144.16 395.403 1140.34 396.639C1136.52 397.968 1132.62 400.324 1129.66 403.065C1126.69 405.805 1124.61 409.048 1122.99 412.742C1121.37 416.436 1120.64 420.002 1120.64 424.032C1120.64 425.552 1120.8 427.369 1121.03 428.871L1124.91 448.733C1125.14 449.917 1125.44 451.084 1125.85 452.219C1126.71 454.626 1128.4 458.961 1130.05 461.129C1132.4 464.227 1135.82 466.968 1139.45 468.387Z" fill="white"/>
<path fill-rule="evenodd" clip-rule="evenodd" d="M369.661 623.5H348V616.5H369.661C380.04 616.5 388.388 625.036 388.157 635.412L386.859 693.578L379.861 693.422L381.158 635.256C381.302 628.806 376.113 623.5 369.661 623.5ZM329.713 898.5L327.09 780.922L320.092 781.078L322.867 905.5H382.132L384.907 781.078L377.909 780.922L375.286 898.5H329.713Z" fill="black"/>
<path fill-rule="evenodd" clip-rule="evenodd" d="M680.258 457.233C679.523 450.946 673.845 446.436 667.555 447.141L639.443 450.291C633.088 451.003 628.534 456.764 629.308 463.112L667.599 777H675.001L671.843 635.412C671.611 625.036 679.96 616.5 690.338 616.5H698.89L680.258 457.233ZM705.938 616.5L687.211 456.419C686.028 446.306 676.895 439.05 666.776 440.184L638.663 443.335C628.439 444.48 621.114 453.747 622.36 463.96L661.401 784H675.157L677.868 905.5H737.132L739.843 784H856.5V757.44C866.016 756.676 873.5 748.712 873.5 739V708C873.5 697.783 865.217 689.5 855 689.5H741.951L743.157 635.412C743.389 625.036 735.04 616.5 724.662 616.5H705.938ZM741.794 696.5L740.59 750.5H855C861.351 750.5 866.5 745.351 866.5 739V708C866.5 701.649 861.351 696.5 855 696.5H741.794ZM740.434 757.5H849.5V777H739.999L740.434 757.5ZM1036.26 457.233C1035.52 450.946 1029.85 446.436 1023.56 447.141L995.443 450.291C989.088 451.003 984.534 456.764 985.308 463.112L1023.6 777H1031L1027.84 635.412C1027.61 625.036 1035.96 616.5 1046.34 616.5H1054.89L1036.26 457.233ZM1061.94 616.5L1043.21 456.419C1042.03 446.306 1032.89 439.05 1022.78 440.184L994.663 443.335C984.439 444.48 977.114 453.747 978.36 463.96L1017.4 784H1031.16L1033.87 905.5H1093.13L1095.84 784H1210.07L1214.49 750.5H1096.59L1099.16 635.412C1099.39 625.036 1091.04 616.5 1080.66 616.5H1061.94ZM1096.43 757.5L1096 777H1203.93L1206.51 757.5H1096.43ZM325.194 457.295C324.486 450.984 318.796 446.441 312.485 447.148L284.443 450.291C278.088 451.003 273.534 456.764 274.308 463.112L312.599 777H494.5V757.5H358.871L325.194 457.295ZM365.129 750.5H501C507.351 750.5 512.5 745.351 512.5 739V708C512.5 701.649 507.351 696.5 501 696.5H359.072L365.129 750.5ZM358.286 689.5L332.15 456.515C331.011 446.362 321.858 439.054 311.705 440.192L283.663 443.335C273.439 444.48 266.114 453.747 267.36 463.96L306.401 784H501.5V757.493C511.486 757.228 519.5 749.05 519.5 739V708C519.5 697.783 511.217 689.5 501 689.5H358.286ZM15.6617 623.5H1.64531V616.5H15.6617C26.0404 616.5 34.3885 625.036 34.1571 635.412L32.9506 689.5H146C156.217 689.5 164.5 697.783 164.5 708V739C164.5 748.712 157.016 756.676 147.5 757.44V784H30.8427L28.1325 905.5H-1.5V898.5H21.2869L27.1588 635.256C27.3027 628.806 22.1133 623.5 15.6617 623.5ZM30.9988 777H140.5V757.5H31.4338L30.9988 777ZM31.5899 750.5H146C152.351 750.5 157.5 745.351 157.5 739V708C157.5 701.649 152.351 696.5 146 696.5H32.7945L31.5899 750.5ZM690.338 623.5C683.887 623.5 678.697 628.806 678.841 635.256L684.713 898.5H730.287L736.159 635.256C736.303 628.806 731.113 623.5 724.662 623.5H690.338ZM1046.34 623.5C1039.89 623.5 1034.7 628.806 1034.84 635.256L1040.71 898.5H1086.29L1092.16 635.256C1092.3 628.806 1087.11 623.5 1080.66 623.5H1046.34Z" fill="black"/>
</g>
<defs>
<clipPath id="clip0_1541_831">
<rect width="1300" height="1000" fill="white"/>
</clipPath>
</defs>
</svg>
