<svg width="1300" height="1000" viewBox="0 0 1300 1000" fill="none" xmlns="http://www.w3.org/2000/svg">
<g clip-path="url(#clip0_1541_276)">
<path fill-rule="evenodd" clip-rule="evenodd" d="M962.001 251.5C921.39 251.5 879.932 258.582 854.915 264.663C848.126 266.314 843.438 272.511 843.377 279.726L842.016 441.03L835.016 440.97L836.377 279.667C836.463 269.476 843.137 260.323 853.262 257.861C878.662 251.687 920.691 244.5 962.001 244.5C1003.88 244.5 1036.96 251.363 1061.48 257.846C1071.35 260.457 1078.17 269.282 1078.58 279.387L1085.05 440.86L1078.06 441.14L1071.58 279.667C1071.3 272.532 1066.49 266.414 1059.69 264.614C1035.54 258.227 1003.09 251.5 962.001 251.5ZM996.501 505.5H923.501V498.5H996.501V505.5Z" fill="black"/>
<path fill-rule="evenodd" clip-rule="evenodd" d="M343.001 251.5C302.391 251.5 260.933 258.582 235.916 264.663C229.127 266.314 224.439 272.511 224.378 279.726L223.008 442.03L216.008 441.97L217.378 279.667C217.464 269.476 224.138 260.323 234.263 257.861C259.663 251.687 301.691 244.5 343.001 244.5C384.882 244.5 417.962 251.363 442.476 257.846C452.349 260.457 459.173 269.282 459.578 279.387L466.093 441.86L459.098 442.14L452.583 279.667C452.297 272.532 447.493 266.414 440.686 264.614C416.539 258.227 384.088 251.5 343.001 251.5ZM377.501 505.5H304.001V498.5L377.501 498.5V505.5Z" fill="black"/>
<path fill-rule="evenodd" clip-rule="evenodd" d="M32.9987 251.5C22.7232 251.5 12.3862 251.953 2.2668 252.731L1.73054 245.751C12.0029 244.962 22.5204 244.5 32.9988 244.5C74.8796 244.5 107.959 251.363 132.473 257.846C142.347 260.457 149.17 269.282 149.575 279.387L156.07 441.36L149.076 441.64L142.581 279.667C142.295 272.532 137.491 266.414 130.683 264.614C106.536 258.227 74.0858 251.5 32.9987 251.5ZM67.4986 505.5H1.5V498.5H67.4986V505.5Z" fill="black"/>
<path fill-rule="evenodd" clip-rule="evenodd" d="M653.001 251.5C612.39 251.5 570.932 258.582 545.915 264.663C539.126 266.314 534.438 272.511 534.377 279.726L533.016 441.03L526.016 440.97L527.377 279.667C527.463 269.476 534.137 260.323 544.262 257.861C569.662 251.687 611.691 244.5 653.001 244.5C694.882 244.5 727.961 251.363 752.475 257.846C762.349 260.457 769.172 269.282 769.577 279.387L776.052 440.86L769.057 441.14L762.583 279.667C762.297 272.532 757.493 266.414 750.685 264.614C726.538 258.227 694.088 251.5 653.001 251.5ZM687 505.5H614.501V498.5H687V505.5Z" fill="black"/>
<path fill-rule="evenodd" clip-rule="evenodd" d="M1271 251.5C1230.39 251.5 1188.93 258.582 1163.92 264.663C1157.13 266.314 1152.44 272.511 1152.38 279.726L1151.02 441.03L1144.02 440.97L1145.38 279.667C1145.46 269.476 1152.14 260.323 1162.26 257.861C1187.66 251.687 1229.69 244.5 1271 244.5C1282.23 244.5 1292.83 244.993 1302.8 245.841L1302.2 252.816C1292.42 251.984 1282.02 251.5 1271 251.5ZM1303 505.5H1232V498.5L1303 498.5V505.5Z" fill="black"/>
<path fill-rule="evenodd" clip-rule="evenodd" d="M188 443.5C147.389 443.5 105.932 450.582 80.9147 456.663C74.1253 458.314 69.4374 464.511 69.3764 471.726L67.5297 690.5H306.357L297.582 471.667C297.296 464.532 292.492 458.414 285.685 456.614C261.537 450.227 229.087 443.5 188 443.5ZM79.2612 449.861C104.661 443.687 146.69 436.5 188 436.5C229.881 436.5 262.96 443.363 287.474 449.846C297.348 452.457 304.171 461.282 304.576 471.387L313.643 697.5H60.4703L62.3767 471.667C62.4627 461.476 69.1362 452.323 79.2612 449.861Z" fill="black"/>
<path fill-rule="evenodd" clip-rule="evenodd" d="M498 443.5C457.389 443.5 415.932 450.582 390.915 456.663C384.125 458.314 379.437 464.511 379.376 471.726L377.53 690.5H616.357L607.582 471.667C607.296 464.532 602.492 458.414 595.685 456.614C571.537 450.227 539.087 443.5 498 443.5ZM389.261 449.861C414.661 443.687 456.69 436.5 498 436.5C539.881 436.5 572.96 443.363 597.474 449.846C607.348 452.457 614.171 461.282 614.576 471.387L623.643 697.5H370.47L372.377 471.667C372.463 461.476 379.136 452.323 389.261 449.861Z" fill="black"/>
<path fill-rule="evenodd" clip-rule="evenodd" d="M807 443.5C766.389 443.5 724.932 450.582 699.915 456.663C693.125 458.314 688.437 464.511 688.376 471.726L686.53 690.5H925.357L916.582 471.667C916.296 464.532 911.492 458.414 904.685 456.614C880.537 450.227 848.087 443.5 807 443.5ZM698.261 449.861C723.661 443.687 765.69 436.5 807 436.5C848.881 436.5 881.96 443.363 906.474 449.846C916.348 452.457 923.171 461.282 923.576 471.387L932.643 697.5H679.47L681.377 471.667C681.463 461.476 688.136 452.323 698.261 449.861Z" fill="black"/>
<path fill-rule="evenodd" clip-rule="evenodd" d="M1115 443.5C1074.39 443.5 1032.93 450.582 1007.91 456.663C1001.13 458.314 996.437 464.511 996.376 471.726L994.53 690.5H1233.36L1224.58 471.667C1224.3 464.532 1219.49 458.414 1212.68 456.614C1188.54 450.227 1156.09 443.5 1115 443.5ZM1006.26 449.861C1031.66 443.687 1073.69 436.5 1115 436.5C1156.88 436.5 1189.96 443.363 1214.47 449.846C1224.35 452.457 1231.17 461.282 1231.58 471.387L1240.64 697.5H987.47L989.377 471.667C989.463 461.476 996.136 452.323 1006.26 449.861Z" fill="black"/>
<path fill-rule="evenodd" clip-rule="evenodd" d="M305.843 637.413C305.611 627.036 313.96 618.5 324.338 618.5H358.662C369.04 618.5 377.389 627.036 377.157 637.413L375.871 695.078L368.873 694.922L370.159 637.256C370.303 630.806 365.113 625.5 358.662 625.5H324.338C317.887 625.5 312.697 630.806 312.841 637.256L314.127 694.922L307.129 695.078L305.843 637.413ZM318.713 900.5L316.046 780.922L309.048 781.078L311.868 907.5H371.132L373.952 781.078L366.954 780.922L364.287 900.5H318.713Z" fill="black"/>
<path fill-rule="evenodd" clip-rule="evenodd" d="M614.843 637.413C614.611 627.036 622.96 618.5 633.338 618.5H667.662C678.04 618.5 686.388 627.036 686.157 637.413L684.871 695.078L677.872 694.922L679.159 637.256C679.303 630.806 674.113 625.5 667.662 625.5H633.338C626.887 625.5 621.697 630.806 621.841 637.256L623.127 694.922L616.129 695.078L614.843 637.413ZM627.713 900.5L625.046 780.922L618.047 781.078L620.867 907.5H680.132L682.952 781.078L675.954 780.922L673.287 900.5H627.713Z" fill="black"/>
<path fill-rule="evenodd" clip-rule="evenodd" d="M923.843 637.413C923.611 627.036 931.96 618.5 942.338 618.5H976.662C987.04 618.5 995.388 627.036 995.157 637.413L993.871 695.078L986.872 694.922L988.159 637.256C988.303 630.806 983.113 625.5 976.662 625.5H942.338C935.887 625.5 930.697 630.806 930.841 637.256L932.127 694.922L925.129 695.078L923.843 637.413ZM936.713 900.5L934.046 780.922L927.047 781.078L929.867 907.5H989.132L991.952 781.078L984.954 780.922L982.287 900.5H936.713Z" fill="black"/>
<path fill-rule="evenodd" clip-rule="evenodd" d="M-4.15708 637.413C-4.38853 627.036 3.95956 618.5 14.3383 618.5H48.6617C59.0404 618.5 67.3885 627.036 67.1571 637.413L65.8596 695.578L58.8614 695.422L60.1588 637.256C60.3027 630.806 55.1133 625.5 48.6617 625.5H14.3383C7.88665 625.5 2.69731 630.806 2.84118 637.256L8.71312 900.5H54.2869L56.9319 781.922L63.9302 782.078L61.1325 907.5H1.86752L-4.15708 637.413Z" fill="black"/>
<path fill-rule="evenodd" clip-rule="evenodd" d="M1232.84 637.413C1232.61 627.036 1240.96 618.5 1251.34 618.5H1285.66C1296.04 618.5 1304.39 627.036 1304.16 637.413L1298.13 907.5H1238.87L1236.08 782.578L1243.08 782.422L1245.71 900.5H1291.29L1297.16 637.256C1297.3 630.806 1292.11 625.5 1285.66 625.5H1251.34C1244.89 625.5 1239.7 630.806 1239.84 637.256L1241.12 694.422L1234.12 694.578L1232.84 637.413Z" fill="black"/>
<path fill-rule="evenodd" clip-rule="evenodd" d="M53.5 714C53.5 704.887 60.8873 697.5 70 697.5H303C312.113 697.5 319.5 704.887 319.5 714V754.5H53.5V714ZM46.5 714C46.5 701.021 57.0213 690.5 70 690.5H303C315.979 690.5 326.5 701.021 326.5 714V764C326.5 776.979 315.979 787.5 303 787.5H70C57.0213 787.5 46.5 776.979 46.5 764V714ZM53.5 761.5V764C53.5 773.113 60.8873 780.5 70 780.5H303C312.113 780.5 319.5 773.113 319.5 764V761.5H53.5Z" fill="black"/>
<path fill-rule="evenodd" clip-rule="evenodd" d="M364 714C364 704.887 371.387 697.5 380.5 697.5H613.5C622.613 697.5 630 704.887 630 714V754.5H364V714ZM357 714C357 701.021 367.521 690.5 380.5 690.5H613.5C626.479 690.5 637 701.021 637 714V764C637 776.979 626.479 787.5 613.5 787.5H380.5C367.521 787.5 357 776.979 357 764V714ZM364 761.5V764C364 773.113 371.387 780.5 380.5 780.5H613.5C622.613 780.5 630 773.113 630 764V761.5H364Z" fill="black"/>
<path fill-rule="evenodd" clip-rule="evenodd" d="M672 714C672 704.887 679.387 697.5 688.5 697.5H921.5C930.613 697.5 938 704.887 938 714V754.5H672V714ZM665 714C665 701.021 675.521 690.5 688.5 690.5H921.5C934.479 690.5 945 701.021 945 714V764C945 776.979 934.479 787.5 921.5 787.5H688.5C675.521 787.5 665 776.979 665 764V714ZM672 761.5V764C672 773.113 679.387 780.5 688.5 780.5H921.5C930.613 780.5 938 773.113 938 764V761.5H672Z" fill="black"/>
<path fill-rule="evenodd" clip-rule="evenodd" d="M981 714C981 704.887 988.387 697.5 997.5 697.5H1230.5C1239.61 697.5 1247 704.887 1247 714V754.5H981V714ZM974 714C974 701.021 984.521 690.5 997.5 690.5H1230.5C1243.48 690.5 1254 701.021 1254 714V764C1254 776.979 1243.48 787.5 1230.5 787.5H997.5C984.521 787.5 974 776.979 974 764V714ZM981 761.5V764C981 773.113 988.387 780.5 997.5 780.5H1230.5C1239.61 780.5 1247 773.113 1247 764V761.5H981Z" fill="black"/>
<path fill-rule="evenodd" clip-rule="evenodd" d="M374.5 570H305.5V563H374.5V570Z" fill="black"/>
<path fill-rule="evenodd" clip-rule="evenodd" d="M64 570H-5V563H64V570Z" fill="black"/>
<path fill-rule="evenodd" clip-rule="evenodd" d="M64 594.5H-5V587.5H64V594.5Z" fill="black"/>
<path fill-rule="evenodd" clip-rule="evenodd" d="M375 594.5H306V587.5H375V594.5Z" fill="black"/>
<path fill-rule="evenodd" clip-rule="evenodd" d="M685 594.5H616V587.5H685V594.5Z" fill="black"/>
<path fill-rule="evenodd" clip-rule="evenodd" d="M993 594.5H924V587.5H993V594.5Z" fill="black"/>
<path fill-rule="evenodd" clip-rule="evenodd" d="M1304 594.5H1235V587.5H1304V594.5Z" fill="black"/>
<path fill-rule="evenodd" clip-rule="evenodd" d="M684 570H615V563H684V570Z" fill="black"/>
<path fill-rule="evenodd" clip-rule="evenodd" d="M993 570H924V563H993V570Z" fill="black"/>
<path fill-rule="evenodd" clip-rule="evenodd" d="M1305 570H1236V563H1305V570Z" fill="black"/>
<path d="M1127.65 470.086C1123.88 471.494 1116.84 471.996 1115 472C1115 472 1106.7 471.931 1101.86 470.086C1096.42 468.007 1093.38 465.977 1089.7 461.511C1087.21 458.489 1085.26 453.288 1084.38 450.658C1084.02 449.579 1083.77 448.47 1083.58 447.348L1079.49 423.194C1079.49 423.194 1078.99 419.702 1079 417.452C1079.02 412.101 1079.75 408.959 1081.92 404.054C1084.15 399.016 1086.1 396.319 1090.19 392.57C1094.54 388.574 1097.68 386.828 1103.32 384.945C1107.7 383.483 1110.38 383.038 1115 383C1119.96 383.167 1121.81 383.478 1126.55 384.945C1131.29 386.522 1136.13 389.318 1139.81 392.57C1143.49 395.822 1146.07 399.671 1148.08 404.054C1150.09 408.437 1151 412.669 1151 417.452C1151 419.255 1150.8 421.411 1150.51 423.194L1145.65 447.027C1145.4 448.256 1145.07 449.468 1144.64 450.644C1143.6 453.437 1141.43 458.821 1139.32 461.473C1136.4 465.149 1132.16 468.402 1127.65 470.086Z" fill="black"/>
<path d="M1125.19 463.387C1122.15 464.573 1116.48 464.996 1115 465C1115 465 1108.31 464.942 1104.42 463.387C1100.03 461.635 1097.59 459.925 1094.62 456.161C1092.67 453.687 1091.14 449.481 1090.4 447.21C1090.06 446.171 1089.83 445.105 1089.66 444.026L1086.39 423.871C1086.39 423.871 1085.99 420.928 1086 419.032C1086.02 414.523 1086.6 411.876 1088.35 407.742C1090.15 403.496 1091.72 401.224 1095.01 398.065C1098.52 394.697 1101.05 393.226 1105.59 391.639C1109.12 390.407 1111.27 390.032 1115 390C1119 390.141 1120.49 390.403 1124.3 391.639C1128.12 392.968 1132.02 395.324 1134.99 398.065C1137.95 400.805 1140.03 404.048 1141.65 407.742C1143.27 411.436 1144 415.002 1144 419.032C1144 420.552 1143.84 422.369 1143.61 423.871L1139.73 443.733C1139.5 444.917 1139.2 446.084 1138.8 447.219C1137.93 449.626 1136.24 453.961 1134.59 456.129C1132.24 459.227 1128.82 461.968 1125.19 463.387Z" fill="white"/>
<path d="M818.649 470.086C814.88 471.494 807.842 471.996 806 472C806 472 797.699 471.931 792.865 470.086C787.417 468.007 784.382 465.977 780.703 461.511C778.213 458.489 776.265 453.288 775.381 450.658C775.019 449.579 774.77 448.47 774.58 447.348L770.487 423.194C770.487 423.194 769.992 419.702 770 417.452C770.02 412.101 770.746 408.959 772.919 404.054C775.151 399.016 777.103 396.319 781.189 392.57C785.545 388.574 788.684 386.828 794.324 384.945C798.704 383.483 801.376 383.038 806 383C810.963 383.167 812.811 383.478 817.548 384.945C822.288 386.522 827.128 389.318 830.811 392.57C834.493 395.822 837.071 399.671 839.081 404.054C841.091 408.437 841.998 412.669 842 417.452C842 419.255 841.8 421.411 841.514 423.194L836.65 447.027C836.399 448.256 836.075 449.468 835.637 450.644C834.596 453.437 832.435 458.821 830.324 461.473C827.399 465.149 823.157 468.402 818.649 470.086Z" fill="black"/>
<path d="M816.189 463.387C813.153 464.573 807.484 464.996 806 465C806 465 799.313 464.942 795.419 463.387C791.03 461.635 788.585 459.925 785.622 456.161C783.673 453.687 782.137 449.481 781.398 447.21C781.06 446.171 780.831 445.105 780.657 444.026L777.392 423.871C777.392 423.871 776.993 420.928 777 419.032C777.016 414.523 777.601 411.876 779.351 407.742C781.15 403.496 782.722 401.224 786.014 398.065C789.522 394.697 792.051 393.226 796.595 391.639C800.122 390.407 802.275 390.032 806 390C809.998 390.141 811.487 390.403 815.302 391.639C819.121 392.968 823.02 395.324 825.986 398.065C828.953 400.805 831.029 404.048 832.649 407.742C834.268 411.436 834.998 415.002 835 419.032C835 420.552 834.839 422.369 834.608 423.871L830.734 443.733C830.503 444.917 830.205 446.084 829.797 447.219C828.932 449.626 827.244 453.961 825.595 456.129C823.238 459.227 819.821 461.968 816.189 463.387Z" fill="white"/>
<path d="M700.5 605.5C700.5 603 707.976 544.035 725.504 508C740.553 478.825 764.564 474.455 802.683 474.021C839.658 473.595 869.725 479.537 885.627 507.218C900 543.5 907 605.5 907 605.5V666.5L915.92 684.887C922.315 698.067 910.865 712.873 896.5 710L887.5 693L876 871L902.905 884.108C908.963 887.059 910.508 894.991 906 900H824V882L821.701 880.085C819.362 878.135 818.039 875.227 818.106 872.183L821.5 717.5L805.504 704L790 717.5L791.944 872.501C791.979 875.362 790.788 878.102 788.671 880.026L786.5 882V900H703.5C700.003 893.812 702.547 885.957 709.009 882.996L733 872L723 693L713 710C700.827 713.043 690.067 701.493 693.964 689.565L701.5 666.5C701.5 666.5 700.5 649.5 700.5 605.5Z" fill="black"/>
<path d="M706.5 604.47C706.5 604.47 714.46 547.787 731 512.515C745.201 483.958 769.02 480.425 803.01 480.02C837 479.615 866.274 485.42 881.28 512.515C891 539.499 901 604.47 901 604.47V668.001L910.827 685.844C915.238 693.852 910.213 703.79 901.149 704.986C900.462 705.077 899.792 704.721 899.483 704.1L883.5 672L867.5 601.09L858.755 551.465C858.607 550.63 857.881 550.02 857.033 550.02C855.963 550.02 855.144 550.973 855.305 552.03L865 616L870 638.5L876 662C858.737 644.09 828.496 652.392 822.798 676.607L822 680V711L809.929 699.981C808.688 698.848 807.068 698.22 805.388 698.22C803.686 698.22 802.047 698.865 800.801 700.024L789 711V680L787.812 675.126C782.04 651.442 752.409 643.44 735.5 661L740.99 638.5L745.59 616L752.785 551.934C752.9 550.914 752.101 550.02 751.074 550.02C750.221 550.02 749.497 550.645 749.371 551.488L741.99 601.09L735.52 636.545L727.94 672L708.261 704.802C708.141 705.003 707.906 705.104 707.678 705.054C701.412 703.683 697.683 697.221 699.631 691.11L707 668.001L706.5 604.47Z" fill="white"/>
<path d="M757 658C778.625 658 781.87 677.636 782.328 682.103C782.39 682.708 782.405 683.303 782.416 683.912L785.647 872.145C785.7 875.274 783.479 877.982 780.4 878.541V900H711.5C707.399 896.825 708.125 890.433 712.833 888.258L740.32 875.561L729 683.999C729 683.999 732.6 658 757 658Z" fill="white"/>
<path d="M853.74 659C832.478 659 829.744 677.224 829.392 681.911C829.337 682.639 829.33 683.364 829.31 684.094L824.176 871.619C824.075 875.281 826.718 878.446 830.34 879V900H900.24C904.142 896.113 903.022 889.535 898.054 887.159L869.498 873.5L880.998 682.999C880.998 682.999 878.14 659 853.74 659Z" fill="white"/>
<path d="M1009.5 605.5C1009.5 603 1016.98 544.035 1034.5 508C1049.55 478.825 1073.56 474.455 1111.68 474.021C1148.66 473.595 1178.72 479.537 1194.63 507.218C1209 543.5 1216 605.5 1216 605.5V666.5L1224.92 684.887C1231.31 698.067 1219.86 712.873 1205.5 710L1196.5 693L1185 871L1211.91 884.108C1217.96 887.059 1219.51 894.991 1215 900H1133V882L1130.7 880.085C1128.36 878.135 1127.04 875.227 1127.11 872.183L1130.5 717.5L1114.5 704L1099 717.5L1100.94 872.501C1100.98 875.362 1099.79 878.102 1097.67 880.026L1095.5 882V900H1012.5C1009 893.812 1011.55 885.957 1018.01 882.996L1042 872L1032 693L1022 710C1009.83 713.043 999.067 701.493 1002.96 689.565L1010.5 666.5C1010.5 666.5 1009.5 649.5 1009.5 605.5Z" fill="black"/>
<path d="M1015.5 604.47C1015.5 604.47 1023.46 547.787 1040 512.515C1054.2 483.958 1078.02 480.425 1112.01 480.02C1146 479.615 1175.27 485.42 1190.28 512.515C1200 539.499 1210 604.47 1210 604.47V668.001L1219.83 685.844C1224.24 693.852 1219.21 703.79 1210.15 704.986C1209.46 705.077 1208.79 704.721 1208.48 704.1L1192.5 672L1176.5 601.09L1167.75 551.465C1167.61 550.63 1166.88 550.02 1166.03 550.02C1164.96 550.02 1164.14 550.973 1164.3 552.03L1174 616L1179 638.5L1185 662C1167.74 644.09 1137.5 652.392 1131.8 676.607L1131 680V711L1118.93 699.981C1117.69 698.848 1116.07 698.22 1114.39 698.22C1112.69 698.22 1111.05 698.865 1109.8 700.024L1098 711V680L1096.81 675.126C1091.04 651.442 1061.41 643.44 1044.5 661L1049.99 638.5L1054.59 616L1061.78 551.934C1061.9 550.914 1061.1 550.02 1060.07 550.02C1059.22 550.02 1058.5 550.645 1058.37 551.488L1050.99 601.09L1044.52 636.545L1036.94 672L1017.26 704.802C1017.14 705.003 1016.91 705.104 1016.68 705.054C1010.41 703.683 1006.68 697.221 1008.63 691.11L1016 668.001L1015.5 604.47Z" fill="white"/>
<path d="M1066 658C1087.62 658 1090.87 677.636 1091.33 682.103C1091.39 682.708 1091.41 683.303 1091.42 683.912L1094.65 872.145C1094.7 875.274 1092.48 877.982 1089.4 878.541V900H1020.5C1016.4 896.825 1017.13 890.433 1021.83 888.258L1049.32 875.561L1038 683.999C1038 683.999 1041.6 658 1066 658Z" fill="white"/>
<path d="M1162.74 659C1141.48 659 1138.74 677.224 1138.39 681.911C1138.34 682.639 1138.33 683.364 1138.31 684.094L1133.18 871.619C1133.08 875.281 1135.72 878.446 1139.34 879V900H1209.24C1213.14 896.113 1212.02 889.535 1207.05 887.159L1178.5 873.5L1190 682.999C1190 682.999 1187.14 659 1162.74 659Z" fill="white"/>
</g>
<defs>
<clipPath id="clip0_1541_276">
<rect width="1300" height="1000" fill="white"/>
</clipPath>
</defs>
</svg>
