<svg xmlns="http://www.w3.org/2000/svg" viewBox="0 0 1300 1000"><defs><style>.cls-1{fill:#1e1e1c;}</style></defs><title>train-window</title><g id="Capa_1" data-name="Capa 1"><rect class="cls-1" y="900" width="1300" height="100" transform="translate(1300 1900) rotate(180)"/></g><g id="Capa_2" data-name="Capa 2"><path d="M494,755.28H238.15a25.59,25.59,0,0,1-25.56-25.56V711.17a25.59,25.59,0,0,1,25.56-25.56H494a25.59,25.59,0,0,1,25.56,25.56v18.55A25.59,25.59,0,0,1,494,755.28ZM238.15,693.61a17.58,17.58,0,0,0-17.56,17.56v18.55a17.58,17.58,0,0,0,17.56,17.56H494a17.58,17.58,0,0,0,17.56-17.56h0V711.17A17.58,17.58,0,0,0,494,693.61Z"/><path d="M611.8,574H54a25.59,25.59,0,0,1-25.56-25.56V226.66A25.59,25.59,0,0,1,54,201.1H611.8a25.59,25.59,0,0,1,25.56,25.56V548.45A25.59,25.59,0,0,1,611.8,574ZM54,209.1a17.58,17.58,0,0,0-17.56,17.56V548.45A17.58,17.58,0,0,0,54,566H611.8a17.58,17.58,0,0,0,17.56-17.56V226.66A17.58,17.58,0,0,0,611.8,209.1Z"/><path d="M611.8,114.89H0v-8H611.8a17.58,17.58,0,0,0,17.56-17.56V0h8V89.33A25.58,25.58,0,0,1,611.8,114.89Z"/><path d="M195,755.28H0v-8H195a17.58,17.58,0,0,0,17.56-17.56V711.17A17.58,17.58,0,0,0,195,693.61H0v-8H195a25.59,25.59,0,0,1,25.56,25.56v18.55A25.59,25.59,0,0,1,195,755.28Z"/><path d="M487.55,689.61h-8V656.19a11.13,11.13,0,0,0-11.12-11.12H0v-8H468.43a19.14,19.14,0,0,1,19.12,19.12Z"/><path d="M181,190.46H138.44a7.34,7.34,0,0,1-6.24-11.22L153.48,145a7.3,7.3,0,0,1,6.24-3.46h0A7.3,7.3,0,0,1,166,145l21.28,34.25A7.34,7.34,0,0,1,181,190.46Zm-41.38-8h40.2l-20.1-32.35Zm19.54-33.25h0Z"/><rect x="155.72" y="110.89" width="8" height="34.63"/><path d="M337.52,190.46H295a7.34,7.34,0,0,1-6.23-11.22L310,145a7.35,7.35,0,0,1,12.47,0h0l21.28,34.25a7.33,7.33,0,0,1-6.23,11.22Zm-41.39-8h40.21l-20.1-32.35Zm19.55-33.24Z"/><rect x="312.24" y="110.89" width="8" height="34.63"/><path d="M494,190.46H451.47a7.34,7.34,0,0,1-6.24-11.22L466.51,145A7.36,7.36,0,0,1,479,145h0l21.28,34.25A7.34,7.34,0,0,1,494,190.46Zm-41.38-8h40.2l-20.1-32.35Zm19.54-33.24Z"/><rect x="468.75" y="110.89" width="8" height="34.63"/><path d="M483.55,904H467.21a4,4,0,0,1-4-4V751.28a4,4,0,0,1,4-4h16.34a4,4,0,0,1,4,4V900A4,4,0,0,1,483.55,904Zm-12.34-8h8.34V755.28h-8.34Z"/></g></svg>