<svg xmlns="http://www.w3.org/2000/svg" viewBox="0 0 1300 1000"><defs><style>.cls-1{fill:none;stroke:#000;stroke-linejoin:round;stroke-width:8px;}.cls-2{fill:#fff;}</style></defs><title>train-plataform</title><g id="Capa_2" data-name="Capa 2"><path class="cls-1" d="M0,690.75H193.3a21.56,21.56,0,0,1,21.56,21.56v26.78H0"/><rect class="cls-1" x="198.52" y="739.09" width="16.34" height="159.91"/><rect x="493.81" y="970.11" width="806.19" height="29.89"/><path d="M0,899H491.13a8.87,8.87,0,0,1,8.87,8.87V1000a0,0,0,0,1,0,0H0a0,0,0,0,1,0,0V899A0,0,0,0,1,0,899Z"/><polygon class="cls-2" points="327.51 981.2 327.51 990.57 308 1015.2 308 1005.82 327.51 981.2"/><polygon class="cls-2" points="327.51 957.48 327.51 966.85 308 991.48 308 982.1 327.51 957.48"/><polygon class="cls-2" points="327.51 933.75 327.51 943.12 308 967.75 308 958.37 327.51 933.75"/><polygon class="cls-2" points="327.51 910.03 327.51 919.4 308 944.03 308 934.65 327.51 910.03"/><polygon class="cls-2" points="327.51 886.31 327.51 895.68 308 920.31 308 910.93 327.51 886.31"/></g></svg>