<svg xmlns="http://www.w3.org/2000/svg" viewBox="0 0 1300 1000"><defs><style>.cls-1{fill:none;stroke:#000;stroke-linejoin:round;stroke-width:8px;}</style></defs><title>train-inside</title><g id="Capa_2" data-name="Capa 2"><rect y="900" width="1300" height="100" transform="translate(1300 1900) rotate(180)"/><path class="cls-1" d="M1300,751.28H1169.6A21.56,21.56,0,0,1,1148,729.72V711.17a21.56,21.56,0,0,1,21.56-21.56H1300"/><path class="cls-1" d="M1300,570H1149.6A21.56,21.56,0,0,1,1128,548.45V226.66a21.56,21.56,0,0,1,21.56-21.56H1300"/><path class="cls-1" d="M1148,0V89.33a21.56,21.56,0,0,0,21.56,21.56H1300"/><path class="cls-1" d="M1180.09,689.61V656.19a15.12,15.12,0,0,1,15.12-15.12H1300"/><path class="cls-1" d="M1207.72,142.51,1229,176.76a3.35,3.35,0,0,1-2.84,5.11H1183.6a3.34,3.34,0,0,1-2.84-5.11L1202,142.51A3.35,3.35,0,0,1,1207.72,142.51Z"/><line class="cls-1" x1="1204.88" y1="140.93" x2="1204.88" y2="110.9"/><rect class="cls-1" x="1180.09" y="751.28" width="16.34" height="148.72"/><rect class="cls-1" x="47.77" y="689.61" width="299.01" height="61.67" rx="21.56"/><path class="cls-1" d="M0,689.61H26.21a21.56,21.56,0,0,1,21.56,21.56v18.55a21.56,21.56,0,0,1-21.56,21.56H0"/><path class="cls-1" d="M0,205.1H345.21a21.56,21.56,0,0,1,21.56,21.56V548.45A21.56,21.56,0,0,1,345.21,570H0"/><path class="cls-1" d="M0,110.89H325.21a21.56,21.56,0,0,0,21.56-21.56V0"/><path class="cls-1" d="M0,641.07H299.61a15.12,15.12,0,0,1,15.12,15.12v33.42"/><path class="cls-1" d="M121.71,142.51,143,176.76a3.34,3.34,0,0,1-2.84,5.11H97.59a3.35,3.35,0,0,1-2.84-5.11L116,142.51A3.35,3.35,0,0,1,121.71,142.51Z"/><line class="cls-1" x1="118.87" y1="140.93" x2="118.87" y2="110.9"/><path class="cls-1" d="M292.78,142.51l21.28,34.25a3.35,3.35,0,0,1-2.84,5.11H268.65a3.35,3.35,0,0,1-2.84-5.11l21.29-34.25A3.35,3.35,0,0,1,292.78,142.51Z"/><line class="cls-1" x1="289.94" y1="140.93" x2="289.94" y2="110.9"/><rect class="cls-1" x="298.39" y="751.28" width="16.34" height="148.72"/></g></svg>