<svg xmlns="http://www.w3.org/2000/svg" viewBox="0 0 1300 1000"><defs><style>.cls-1{fill:#fff;}</style></defs><title>train-station-entrance</title><g id="Capa_2" data-name="Capa 2"><rect y="900" width="1300" height="100"/><path d="M303.82,840.87H0v-8H303.82a11.13,11.13,0,0,0,11.12-11.12V553a11.13,11.13,0,0,0-11.12-11.12H0v-8H303.82A19.14,19.14,0,0,1,322.94,553V821.75A19.14,19.14,0,0,1,303.82,840.87Z"/><path d="M339.19,912.87H318.94a4,4,0,0,1-4-4V548a14.13,14.13,0,1,1,28.25,0V908.87A4,4,0,0,1,339.19,912.87Zm-16.25-8h12.25V548a6.13,6.13,0,1,0-12.25,0Z"/><path d="M1300,840.87h-49.25a19.15,19.15,0,0,1-19.12-19.12V553a19.15,19.15,0,0,1,19.12-19.12H1300v8h-49.25A11.13,11.13,0,0,0,1239.63,553V821.75a11.13,11.13,0,0,0,11.12,11.12H1300Z"/><path d="M1235.63,912.87h-20.25a4,4,0,0,1-4-4V548a14.13,14.13,0,1,1,28.25,0V908.87A4,4,0,0,1,1235.63,912.87Zm-16.25-8h12.25V548a6.13,6.13,0,1,0-12.25,0Z"/><path class="cls-1" d="M207.89,260.91c0,.51-.09,1-.15,1.52l-.25,1.57c-.15.89-.35,1.78-.54,2.64s-.39,1.8-.54,2.7l-3.91,20.52-.16.57a18.2,18.2,0,0,1-12.27,12.46c-.79.23-1.69.43-2.3.56-.76.15-1.58.29-2.45.4a35.06,35.06,0,0,1-9,0c-.87-.11-1.7-.25-2.45-.4s-1.52-.33-2.3-.56a18.27,18.27,0,0,1-10.52-8.27,17.91,17.91,0,0,1-1.75-4.2l-.16-.51-3.91-20.56c-.15-.91-.35-1.83-.54-2.71s-.39-1.75-.54-2.64l-.25-1.56c-.07-.51-.12-1-.16-1.53a27.74,27.74,0,0,1,0-3c0-.41.07-.82.1-1.23.06-.64.1-1.24.2-1.81l.43-2.28c0-.13.07-.27.11-.42s.06-.17.09-.27a27,27,0,0,1,5.55-10.47,26.24,26.24,0,0,1,19-9l1.41,0h1.54a26.21,26.21,0,0,1,19.29,9A27.17,27.17,0,0,1,207,251.9c0,.1.06.19.08.27s.09.29.12.42l.43,2.26c.09.59.14,1.19.19,1.83,0,.41.07.82.11,1.18A26.18,26.18,0,0,1,207.89,260.91Z"/><path class="cls-1" d="M284.25,887l-.81,2.91-63.58-.42-3.63,0h-1.31l-.84-16.58c-.18-2.06-.31-4.12-.43-6.18-.1-1.66-.15-3.32-.23-5l-.08-3.43-.09-1.77-.05-1.09h0l-5.76-63.77-2.78-32.45-1.37-16.22L202,726.71c-.11-1.36-.18-2.72-.35-4.05l-.48-4-1-8.08-1.9-16.18L194.63,662c-2.35-21.58-4.71-43.16-6.72-64.79l-.27-2.81h-2.89l-4,0-4,0h-2.89l-.27,2.81c-2,21.63-4.37,43.21-6.72,64.79l-3.68,32.35-1.89,16.18-1,8.08-.48,4c-.17,1.33-.24,2.69-.35,4.05l-1.29,16.23-1.37,16.22-2.77,32.45-5.77,63.77h0l-.1,1.09v.24l0,1.53-.08,3.43c-.08,1.66-.13,3.32-.23,5q-.16,3.09-.43,6.18l-.84,16.58h-1.31l-3.63,0-63.58.42L77.31,887l30.87-12.42,1.15-.47.48-1,6.83-15.18,1.57-3.49-6.16-.1c.57-24.88,1.18-49.76,1.65-74.65l.78-38.57.2-9.65c.07-3.22.08-6.43.23-9.65l.76-19.27,2.91-77.08c.34-12.86,1.27-25.67,2-38.51.4-6.41.73-12.83,1.07-19.24l1-19,2.34-19.2,2.15-19.36,2.09-19.36,2.24-19.34,0-.32v-.23L131,454.1c-.16-5.59-.35-11.19-.48-16.77l-.39-16.76-.29-16.77,0-3.14h-8.62l-.3,2.87c-.4,4.31-.83,8.63-1.26,13s-.84,8.64-1.32,13l-2.76,25.9c-.11,1.09-.25,2.16-.36,3.26l-.27,3.28-.56,6.49-1.1,13-1.12,13-1.18,13c-1.59,17.28-3.1,34.57-4.81,51.85L103.61,585l-1.87,18.27H98L87.81,576.42,93,557.69l.84-3.07h-7l.37-37.42c0-.82,0-1.63,0-2.44.1-9.88.33-19.75.56-29.62l.4-18c.06-3,.14-6,.16-8.93s.28-5.8.61-8.67.82-5.72,1.44-8.56l.47-2.11.54-2.13c.39-1.48.67-2.94,1-4.4l3.89-17.56c2.59-11.72,5.29-23.42,7.94-35.12l2-8.79c.16-.77.32-1.34.48-2s.36-1.26.57-1.88a35.74,35.74,0,0,1,1.41-3.65,37.92,37.92,0,0,1,3.94-6.75c.77-1,1.6-2,2.47-3,.45-.48.88-.95,1.35-1.4l.7-.67.79-.73.77-.69.68-.58c.47-.4,1-.79,1.53-1.19,1.06-.8,2.18-1.55,3.34-2.29a70.09,70.09,0,0,1,7.23-4,89.19,89.19,0,0,1,15.71-5.69,113.11,113.11,0,0,1,27.62-3.54h11.24a112.76,112.76,0,0,1,28.18,3.54A89.19,89.19,0,0,1,230,342.05a70.09,70.09,0,0,1,7.23,4c1.16.74,2.28,1.49,3.34,2.29.53.4,1.06.79,1.53,1.19l.68.58.77.69.79.73.7.67c.48.45.9.92,1.35,1.4.87,1,1.7,2,2.47,3a37.92,37.92,0,0,1,3.94,6.75,35.74,35.74,0,0,1,1.41,3.65c.21.62.39,1.26.57,1.88s.32,1.23.48,2l2,8.79c2.65,11.7,5.35,23.4,7.94,35.12l3.89,17.56c.35,1.46.63,2.92,1,4.4l.54,2.13.47,2.11c.62,2.84,1.09,5.68,1.44,8.56s.54,5.76.61,8.67.1,6,.17,8.93l.39,18c.23,9.87.46,19.74.57,29.62v0l0,2.48.37,37.42h-6.95l.85,3.07,5.14,18.73L263.59,603.3h-3.77L258,585l-2.53-25.91c-1.71-17.28-3.22-34.57-4.81-51.85l-1.18-13-1.12-13-1.1-13-.56-6.49-.27-3.28c-.11-1.1-.25-2.17-.36-3.26l-2.76-25.9c-.48-4.32-.88-8.64-1.32-13s-.86-8.64-1.26-13l-.29-2.87h-8.62l-.06,3.14-.29,16.77L231,437.33c-.12,5.58-.32,11.18-.48,16.77l-.49,16.75v.23l0,.32,2.24,19.34,2.09,19.36,2.16,19.36,2.33,19.2,1,19q.5,9.61,1.07,19.24c.72,12.84,1.66,25.65,2,38.51l2.91,77.08.76,19.27c.15,3.22.16,6.43.23,9.65l.2,9.65.78,38.57c.47,24.89,1.08,49.77,1.65,74.65l-6.16.1,1.57,3.49L251.76,873l.47,1,1.15.47Z"/><path d="M215.27,256.59c0-.85-.06-1.74-.15-2.61l-.4-2.86a5.58,5.58,0,0,0-.16-.68l-.06-.27a34.89,34.89,0,0,0-25.91-26.33,33.8,33.8,0,0,0-22.88,2.66,34.87,34.87,0,0,0-12,9.73,35.25,35.25,0,0,0-6.56,13.93l-.07.28c-.06.23-.11.45-.15.69l-.4,2.85c-.09.87-.12,1.76-.15,2.61,0,.41,0,.81-.06,1.24a34.12,34.12,0,0,0,.26,3.86c.08.69.17,1.31.28,1.91l.37,1.8c.62,3.57,1.34,7.18,2,10.67l2.61,13.31.47,2.21.21.75A25.13,25.13,0,0,0,163.78,307a25.87,25.87,0,0,0,5.73,2.55c1.1.33,2.09.54,3,.73s1.91.35,2.91.48a41.91,41.91,0,0,0,10.81,0c1-.13,2-.29,2.92-.48s1.89-.4,3-.73a25.67,25.67,0,0,0,5.73-2.55,25.31,25.31,0,0,0,8.79-8.9,26.18,26.18,0,0,0,2.46-5.79l.22-.8,3.07-15.47c.69-3.49,1.41-7.1,2-10.65l.38-1.82c.1-.6.2-1.22.28-1.91a34.15,34.15,0,0,0,.25-3.89C215.3,257.4,215.29,257,215.27,256.59ZM179.22,232.4l1.41,0h1.54a26.21,26.21,0,0,1,19.29,9A27.17,27.17,0,0,1,207,251.9c0,.1.06.19.08.27s.09.29.12.42l.43,2.26c.09.59.14,1.19.19,1.83,0,.41.07.82.11,1.18a26.18,26.18,0,0,1-.05,3.05c0,.51-.09,1-.15,1.52l-.25,1.57c-.15.89-.35,1.78-.54,2.64s-.39,1.8-.54,2.7l-3.91,20.52-.16.57a18.2,18.2,0,0,1-12.27,12.46c-.79.23-1.69.43-2.3.56-.76.15-1.58.29-2.45.4a35.06,35.06,0,0,1-9,0c-.87-.11-1.7-.25-2.45-.4s-1.52-.33-2.3-.56a18.27,18.27,0,0,1-10.52-8.27,17.91,17.91,0,0,1-1.75-4.2l-.16-.51-3.91-20.56c-.15-.91-.35-1.83-.54-2.71s-.39-1.75-.54-2.64l-.25-1.56c-.07-.51-.12-1-.16-1.53a27.74,27.74,0,0,1,0-3c0-.41.07-.82.1-1.23.06-.64.1-1.24.2-1.81l.43-2.28c0-.13.07-.27.11-.42s.06-.17.09-.27a27,27,0,0,1,5.55-10.47,26.24,26.24,0,0,1,19-9Z"/><path d="M291.67,884.89v-2.34l-2.18-.84c-2.8-1.11-5.64-2.15-8.46-3.23l-8.47-3.2-16-6.06L250,858.41l2.23,0h1.66v-1.69l-.65-77.21-.38-38.61-.08-9.66c-.05-3.21,0-6.43-.15-9.64l-.54-19.31L251,663.74l-1.23-38.6-.3-9.66c-.07-1.61-.09-3.22-.17-4.82l-.29-4.82-1.14-19.29-2.3-38.45v-.2l-10.35-77v0L236.54,413l1.88,17,2.77,25.86c.11,1.08.25,2.16.34,3.23l.25,3.23.51,6.48,1,13q1,13,2,25.95l3.87,51.92,1.91,26,1.84,26,.17,2.39,2.44,0,11.06,0h2l.51-1.87,9.69-34.81.18-.69-.18-.69-4.65-16.35h2.17l2.1,0,.12-22.95c-.13-17.13-.1-34.27,0-51.4l.07-18c0-3,0-6,.06-9s-.14-6.13-.42-9.19-.7-6.12-1.28-9.13c-.28-1.49-.61-3-.95-4.47s-.59-2.93-.89-4.39l-3.44-17.63-6.92-35.25L263,369.32c-.13-.72-.32-1.52-.49-2.29s-.38-1.56-.61-2.31a42.26,42.26,0,0,0-1.58-4.51,45.09,45.09,0,0,0-4.54-8.4,46.59,46.59,0,0,0-2.91-3.8c-.53-.6-1-1.2-1.6-1.77l-.82-.87-.83-.79a51.22,51.22,0,0,0-7.37-6,85.58,85.58,0,0,0-8-4.78,98.3,98.3,0,0,0-17.15-7,128.76,128.76,0,0,0-36.34-5.22h0a128.74,128.74,0,0,0-36.33,5.22,98.62,98.62,0,0,0-17.15,7,85.58,85.58,0,0,0-8,4.78,51.22,51.22,0,0,0-7.37,6l-.83.79-.82.87c-.56.57-1.07,1.17-1.6,1.77a46.59,46.59,0,0,0-2.91,3.8,45.72,45.72,0,0,0-4.55,8.4,47.13,47.13,0,0,0-1.57,4.51c-.23.75-.42,1.54-.61,2.31s-.36,1.57-.49,2.29l-1.72,8.81-6.91,35.25L86.47,431c-.3,1.46-.56,2.95-.89,4.39s-.67,3-1,4.47c-.58,3-1,6.07-1.28,9.13s-.42,6.12-.42,9.19,0,6,.06,9l.07,18c.09,17.13.13,34.27,0,51.4l.12,22.95,2.1,0h2.17l-4.65,16.35-.18.69.18.69L92.48,612,93,613.9h2L106,614l2.42,0,.18-2.39,1.84-26,1.91-26,3.87-51.92q1-13,2-25.95l1-13,.52-6.48L120,459c.09-1.07.23-2.15.34-3.23L123.13,430,125,413l1.36,57.88v0L116,547.9v.2l-2.3,38.45-1.14,19.29-.29,4.82c-.08,1.6-.1,3.21-.16,4.82l-.31,9.66-1.23,38.6-1.08,38.59L109,721.64c-.12,3.21-.1,6.43-.15,9.64l-.09,9.66-.37,38.61-.65,77.21v1.69h1.66l2.23,0L105,869.22l.91-.35-1.59,1.45.68-1.1-16,6.06-8.46,3.2c-2.83,1.08-5.67,2.12-8.47,3.23l-2.17.84V900h3.42l77.6,0h3.48v-3.48l0-10,0-10,.06-19.84,0,.17,0-.28v.11l11.27-129.48c.13-1.35.21-2.7.38-4l.51-4,1-8.07L169.69,695l4.1-32.27,7-54.85,7,54.85,4.1,32.27,2,16.14,1,8.07.51,4c.17,1.34.25,2.69.38,4L207.11,856.8v-.11l0,.28,0-.17.06,19.84,0,10,0,10v3.48h3.48l77.6,0h3.42V884.89Zm-8.23,5-63.58-.42-3.63,0h-1.31l-.84-16.58c-.18-2.06-.31-4.12-.43-6.18-.1-1.66-.15-3.32-.23-5l-.08-3.43-.09-1.77-.05-1.09h0l-5.76-63.77-2.78-32.45-1.37-16.22L202,726.71c-.11-1.36-.18-2.72-.35-4.05l-.48-4-1-8.08-1.9-16.18L194.63,662c-2.35-21.58-4.71-43.16-6.72-64.79l-.27-2.81h-2.89l-4,0-4,0h-2.89l-.27,2.81c-2,21.63-4.37,43.21-6.72,64.79l-3.68,32.35-1.89,16.18-1,8.08-.48,4c-.17,1.33-.24,2.69-.35,4.05l-1.29,16.23-1.37,16.22-2.77,32.45-5.77,63.77h0l-.05,1.09-.09,1.77-.08,3.43c-.08,1.66-.13,3.32-.23,5q-.16,3.09-.43,6.18l-.84,16.58h-1.31l-3.63,0-63.58.42L77.31,887l30.87-12.42,1.15-.47.48-1,6.83-15.18,1.57-3.49-6.16-.1c.57-24.88,1.18-49.76,1.65-74.65l.78-38.57.2-9.65c.07-3.22.08-6.43.23-9.65l.76-19.27,2.91-77.08c.34-12.86,1.27-25.67,2-38.51.4-6.41.73-12.83,1.07-19.24l1-19v.13l0-.69,0,.56,2.34-19.2,2.15-19.36,2.09-19.36,2.24-19.34,0-.32v-.23L131,454.1c-.16-5.59-.35-11.19-.48-16.77l-.39-16.76-.29-16.77,0-3.14h-8.62l-.3,2.87c-.4,4.31-.83,8.63-1.26,13s-.84,8.64-1.32,13l-2.76,25.9c-.11,1.09-.25,2.16-.36,3.26l-.27,3.28-.56,6.49-1.1,13-1.12,13-1.18,13c-1.59,17.28-3.1,34.57-4.81,51.85L103.61,585l-1.87,18.27H98L87.81,576.42,93,557.69l.84-3.07h-7l.37-37.42,0-2.48v0c.1-9.88.33-19.75.56-29.62l.4-18c.06-3,.14-6,.16-8.93s.28-5.8.61-8.67.82-5.72,1.44-8.56l.47-2.11.54-2.13c.39-1.48.67-2.94,1-4.4l3.89-17.56c2.59-11.72,5.29-23.42,7.94-35.12l2-8.79c.16-.77.32-1.34.48-2s.36-1.26.57-1.88a35.74,35.74,0,0,1,1.41-3.65,37.92,37.92,0,0,1,3.94-6.75c.77-1,1.6-2,2.47-3,.45-.48.88-.95,1.35-1.4l.7-.67.79-.73.77-.69.68-.58c.47-.4,1-.79,1.53-1.19,1.06-.8,2.18-1.55,3.34-2.29a70.09,70.09,0,0,1,7.23-4,89.19,89.19,0,0,1,15.71-5.69,113.11,113.11,0,0,1,27.62-3.54h11.24a112.76,112.76,0,0,1,28.18,3.54A89.19,89.19,0,0,1,230,342.05a70.09,70.09,0,0,1,7.23,4c1.16.74,2.28,1.49,3.34,2.29.53.4,1.06.79,1.53,1.19l.68.58.77.69.79.73.7.67c.48.45.9.92,1.35,1.4.87,1,1.7,2,2.47,3a37.92,37.92,0,0,1,3.94,6.75,35.74,35.74,0,0,1,1.41,3.65c.21.62.39,1.26.57,1.88s.32,1.23.48,2l2,8.79c2.65,11.7,5.35,23.4,7.94,35.12l3.89,17.56c.35,1.46.63,2.92,1,4.4l.54,2.13.47,2.11c.62,2.84,1.09,5.68,1.44,8.56s.54,5.76.61,8.67.1,6,.17,8.93l.39,18c.23,9.87.46,19.74.57,29.62v0l0,2.48.37,37.42h-6.95l.85,3.07,5.14,18.73L263.59,603.3h-3.77L258,585l-2.53-25.91c-1.71-17.28-3.22-34.57-4.81-51.85l-1.18-13-1.12-13-1.1-13-.56-6.49-.27-3.28c-.11-1.1-.25-2.17-.36-3.26l-2.76-25.9c-.48-4.32-.88-8.64-1.32-13s-.86-8.64-1.26-13l-.29-2.87h-8.62l-.06,3.14-.29,16.77L231,437.33c-.12,5.58-.32,11.18-.48,16.77l-.49,16.75v.23l0,.32,2.24,19.34,2.09,19.36,2.16,19.36,2.33,19.2,0-.56.05.69,0-.13,1,19q.5,9.61,1.07,19.24c.72,12.84,1.66,25.65,2,38.51l2.91,77.08.76,19.27c.15,3.22.16,6.43.23,9.65l.2,9.65.78,38.57c.47,24.89,1.08,49.77,1.65,74.65l-6.16.1,1.57,3.49L251.76,873l.47,1,1.15.47L284.25,887Z"/><polygon class="cls-1" points="126.39 470.72 126.38 470.96 126.38 470.85 126.39 470.72"/><path d="M180.81,271a65.6,65.6,0,0,1-33-8.89l4-6.91a57.77,57.77,0,0,0,58.1-.07l4,6.9A65.62,65.62,0,0,1,180.81,271Z"/><path class="cls-1" d="M216.75,233a129.5,129.5,0,0,1-21.47-11.06,144.75,144.75,0,0,1-14.5-10.51,144.75,144.75,0,0,1-14.5,10.51A129.5,129.5,0,0,1,144.81,233l6.66,16.62h58.68Z"/><path d="M210.15,253.62H151.47a4,4,0,0,1-3.71-2.51l-6.66-16.62a4,4,0,0,1,2.29-5.22,127.83,127.83,0,0,0,20.73-10.7,143.85,143.85,0,0,0,14.06-10.18,4,4,0,0,1,5.21,0,144.38,144.38,0,0,0,14.05,10.17,127.69,127.69,0,0,0,20.74,10.7,4,4,0,0,1,2.29,5.21l-6.6,16.62A4,4,0,0,1,210.15,253.62Zm-56-8h53.26l4.14-10.44a136.51,136.51,0,0,1-18.47-9.88c-5.6-3.61-9.83-6.76-12.33-8.72-2.5,2-6.73,5.11-12.33,8.72A136.46,136.46,0,0,1,150,235.18Z"/></g></svg>