<svg xmlns="http://www.w3.org/2000/svg" viewBox="0 0 1300 1000"><defs><style>.cls-1{fill:#1e1e1c;}</style></defs><title>train-corridor</title><g id="Capa_1" data-name="Capa 1"><rect class="cls-1" y="900" width="1300" height="100" transform="translate(1300 1900) rotate(180)"/></g><g id="Capa_2" data-name="Capa 2"><path d="M494,755.28H238.15a25.54,25.54,0,0,1-25.56-25.56V473.84a25.56,25.56,0,1,1,51.12,0V685.61H494a25.59,25.59,0,0,1,25.56,25.56v18.55A25.59,25.59,0,0,1,494,755.28Zm-255.89-299a17.58,17.58,0,0,0-17.56,17.56V729.72a17.55,17.55,0,0,0,17.56,17.56H494a17.58,17.58,0,0,0,17.56-17.56V711.17A17.58,17.58,0,0,0,494,693.61H259.71a4,4,0,0,1-4-4V473.84A17.58,17.58,0,0,0,238.15,456.28Z"/><path d="M195,755.28H0v-8H195a17.55,17.55,0,0,0,17.56-17.56V473.84a17.56,17.56,0,1,0-35.12,0V689.61a4,4,0,0,1-4,4H0v-8H169.47V473.84a25.56,25.56,0,1,1,51.12,0V729.72A25.56,25.56,0,0,1,195,755.28Z"/><path d="M611.8,114.89H0v-8H611.8a17.58,17.58,0,0,0,17.56-17.56V0h8V89.33A25.59,25.59,0,0,1,611.8,114.89Z"/><path d="M181,190.46H138.44a7.34,7.34,0,0,1-6.24-11.22L153.48,145a7.3,7.3,0,0,1,6.24-3.46h0A7.3,7.3,0,0,1,166,145l21.28,34.25A7.34,7.34,0,0,1,181,190.46Zm-41.38-8h40.2l-20.1-32.35Z"/><rect x="155.72" y="110.89" width="8" height="34.63"/><path d="M337.52,190.46H295a7.33,7.33,0,0,1-6.23-11.22L310,145a7.35,7.35,0,0,1,12.47,0l21.28,34.25a7.33,7.33,0,0,1-6.23,11.22Zm-41.39-8h40.21l-20.1-32.35Zm19.55-33.24Z"/><rect x="312.24" y="110.89" width="8" height="34.63"/><path d="M494,190.46H451.47a7.34,7.34,0,0,1-6.24-11.22L466.51,145A7.36,7.36,0,0,1,479,145l21.28,34.25A7.34,7.34,0,0,1,494,190.46Zm-41.38-8h40.2l-20.1-32.35Zm19.54-33.24Z"/><rect x="468.75" y="110.89" width="8" height="34.63"/><path d="M483.55,904H467.21a4,4,0,0,1-4-4V751.28a4,4,0,0,1,4-4h16.34a4,4,0,0,1,4,4V900A4,4,0,0,1,483.55,904Zm-12.34-8h8.34V755.28h-8.34Z"/><path d="M1061.85,755.28H806a25.59,25.59,0,0,1-25.56-25.56V711.17A25.59,25.59,0,0,1,806,685.61h230.33V473.84a25.56,25.56,0,0,1,51.12,0V729.72a25.56,25.56,0,0,1-25.56,25.56ZM806,693.61a17.58,17.58,0,0,0-17.56,17.56v18.55A17.58,17.58,0,0,0,806,747.28h255.89a17.55,17.55,0,0,0,17.56-17.56V473.84a17.56,17.56,0,0,0-35.12,0V689.61a4,4,0,0,1-4,4Z"/><path d="M1300,755.28H1105a25.54,25.54,0,0,1-25.56-25.56V473.84a25.56,25.56,0,1,1,51.12,0V685.61H1300v8H1126.53a4,4,0,0,1-4-4V473.84a17.56,17.56,0,1,0-35.12,0V729.72A17.55,17.55,0,0,0,1105,747.28h195Z"/><path d="M832.79,904H816.45a4,4,0,0,1-4-4V751.28a4,4,0,0,1,4-4h16.34a4,4,0,0,1,4,4V900A4,4,0,0,1,832.79,904Zm-12.34-8h8.34V755.28h-8.34Z"/><path d="M952.24,574H347.76a25.59,25.59,0,0,1-25.56-25.56V226.66a25.59,25.59,0,0,1,25.56-25.56H952.24a25.59,25.59,0,0,1,25.56,25.56V548.45A25.59,25.59,0,0,1,952.24,574ZM347.76,209.1a17.58,17.58,0,0,0-17.56,17.56V548.45A17.58,17.58,0,0,0,347.76,566H952.24a17.58,17.58,0,0,0,17.56-17.56V226.66a17.58,17.58,0,0,0-17.56-17.56Z"/><path d="M1300,574h-85.42A25.59,25.59,0,0,1,1189,548.45V226.66a25.59,25.59,0,0,1,25.56-25.56H1300v8h-85.42A17.58,17.58,0,0,0,1197,226.66V548.45A17.58,17.58,0,0,0,1214.58,566H1300Z"/><path d="M85.42,574H0v-8H85.42A17.58,17.58,0,0,0,103,548.45V226.66A17.58,17.58,0,0,0,85.42,209.1H0v-8H85.42A25.59,25.59,0,0,1,111,226.66V548.45A25.59,25.59,0,0,1,85.42,574Z"/><path d="M1300,114.89H688.2a25.59,25.59,0,0,1-25.56-25.56V0h8V89.33a17.58,17.58,0,0,0,17.56,17.56H1300Z"/><path d="M1161.56,190.46H1119a7.34,7.34,0,0,1-6.24-11.22L1134,145a7.31,7.31,0,0,1,6.24-3.46h0a7.3,7.3,0,0,1,6.24,3.46l21.28,34.25a7.34,7.34,0,0,1-6.24,11.22Zm-41.38-8h40.2l-20.1-32.35Zm20.66-33.24Z"/><rect x="1136.28" y="110.89" width="8" height="34.63"/><path d="M1005.05,190.46H962.48a7.33,7.33,0,0,1-6.23-11.22L977.53,145A7.35,7.35,0,0,1,990,145l21.29,34.25a7.34,7.34,0,0,1-6.24,11.22Zm-41.38-8h40.2l-20.1-32.35Zm20.65-33.24Z"/><rect x="979.77" y="110.89" width="8" height="34.63"/><path d="M848.53,190.46H806a7.34,7.34,0,0,1-6.24-11.22L821,145h0a7.36,7.36,0,0,1,12.48,0l21.28,34.25a7.34,7.34,0,0,1-6.24,11.22Zm-41.38-8h40.2l-20.1-32.35Z"/><rect x="823.25" y="110.89" width="8" height="34.63"/></g></svg>