<svg xmlns="http://www.w3.org/2000/svg" viewBox="0 0 1300 1000"><title>3-context-expand</title><g id="Capa_2" data-name="Capa 2"><rect y="900" width="1300" height="100" transform="translate(1300 1900) rotate(180)"/><path d="M1300,755.28H1169.6A25.59,25.59,0,0,1,1144,729.72V711.17a25.59,25.59,0,0,1,25.56-25.56H1300v8H1169.6A17.58,17.58,0,0,0,1152,711.17v18.55a17.58,17.58,0,0,0,17.56,17.56H1300Z"/><path d="M1300,574H1149.6A25.59,25.59,0,0,1,1124,548.45V226.66a25.59,25.59,0,0,1,25.56-25.56H1300v8H1149.6A17.58,17.58,0,0,0,1132,226.66V548.45A17.58,17.58,0,0,0,1149.6,566H1300Z"/><path d="M1300,114.9H1169.6A25.59,25.59,0,0,1,1144,89.33V0h8V89.33a17.58,17.58,0,0,0,17.56,17.56H1300Z"/><path d="M1184.09,689.61h-8V656.19a19.14,19.14,0,0,1,19.12-19.12H1300v8H1195.21a11.13,11.13,0,0,0-11.12,11.12Z"/><path d="M1256.54,190.47H1214a7.35,7.35,0,0,1-6.23-11.22L1229,145a7.34,7.34,0,0,1,12.47,0l21.28,34.25a7.34,7.34,0,0,1-6.23,11.22Zm-41.39-8h40.21l-20.1-32.35Zm19.55-33.25Z"/><rect x="1231.26" y="110.9" width="8" height="34.63"/><path d="M1196.43,904h-16.34a4,4,0,0,1-4-4V751.28a4,4,0,0,1,4-4h16.34a4,4,0,0,1,4,4V900A4,4,0,0,1,1196.43,904Zm-12.34-8h8.34V755.28h-8.34Z"/><path d="M325.21,755.28H69.33a25.58,25.58,0,0,1-25.56-25.56V711.17a25.59,25.59,0,0,1,25.56-25.56H325.21a25.59,25.59,0,0,1,25.56,25.56v18.55A25.58,25.58,0,0,1,325.21,755.28ZM69.33,693.61a17.58,17.58,0,0,0-17.56,17.56v18.55a17.57,17.57,0,0,0,17.56,17.56H325.21a17.58,17.58,0,0,0,17.56-17.56V711.17a17.58,17.58,0,0,0-17.56-17.56Z"/><path d="M26.21,755.28H0v-8H26.21a17.58,17.58,0,0,0,17.56-17.56V711.17a17.58,17.58,0,0,0-17.56-17.56H0v-8H26.21a25.59,25.59,0,0,1,25.56,25.56v18.55A25.59,25.59,0,0,1,26.21,755.28Z"/><path d="M345.21,574H0v-8H345.21a17.58,17.58,0,0,0,17.56-17.56V226.66a17.58,17.58,0,0,0-17.56-17.56H0v-8H345.21a25.59,25.59,0,0,1,25.56,25.56V548.45A25.58,25.58,0,0,1,345.21,574Z"/><path d="M325.21,114.9H0v-8H325.21a17.58,17.58,0,0,0,17.56-17.56V0h8V89.34A25.59,25.59,0,0,1,325.21,114.9Z"/><path d="M318.73,689.61h-8V656.19a11.13,11.13,0,0,0-11.12-11.12H0v-8H299.61a19.15,19.15,0,0,1,19.12,19.12Z"/><path d="M78.49,190.47H35.92a7.35,7.35,0,0,1-6.23-11.22L51,145a7.31,7.31,0,0,1,6.24-3.47h0A7.3,7.3,0,0,1,63.44,145l21.29,34.25a7.35,7.35,0,0,1-6.24,11.22Zm-41.38-8h40.2l-20.1-32.35Zm19.54-33.25Z"/><rect x="53.21" y="110.9" width="8" height="34.63"/><path d="M225,190.47H182.44a7.35,7.35,0,0,1-6.24-11.22L197.48,145A7.35,7.35,0,0,1,210,145l21.28,34.25A7.35,7.35,0,0,1,225,190.47Zm-41.38-8h40.2l-20.1-32.35Zm19.54-33.25Z"/><rect x="199.72" y="110.9" width="8" height="34.63"/><path d="M314.73,904H298.39a4,4,0,0,1-4-4V751.28a4,4,0,0,1,4-4h16.34a4,4,0,0,1,4,4V900A4,4,0,0,1,314.73,904Zm-12.34-8h8.34V755.28h-8.34Z"/></g></svg>