<svg xmlns="http://www.w3.org/2000/svg" viewBox="0 0 1300 1000"><defs><style>.cls-1{fill:#1e1e1c;}</style></defs><title>train-window-door</title><g id="Capa_1" data-name="Capa 1"><rect class="cls-1" y="900" width="1300" height="100" transform="translate(1300 1900) rotate(180)"/></g><g id="Capa_2" data-name="Capa 2"><path d="M494,755.28H238.15a25.59,25.59,0,0,1-25.56-25.56V711.17a25.59,25.59,0,0,1,25.56-25.56H494a25.59,25.59,0,0,1,25.56,25.56v18.55A25.59,25.59,0,0,1,494,755.28ZM238.15,693.61a17.58,17.58,0,0,0-17.56,17.56v18.55a17.58,17.58,0,0,0,17.56,17.56H494a17.58,17.58,0,0,0,17.56-17.56h0V711.17A17.58,17.58,0,0,0,494,693.61Z"/><path d="M519.6,727.34h-8V473.84A17.58,17.58,0,0,0,494,456.28H238.15a17.58,17.58,0,0,0-17.56,17.56v18.55h-8V473.84a25.59,25.59,0,0,1,25.56-25.56H494a25.59,25.59,0,0,1,25.56,25.56Z"/><path d="M483.55,904H467.21a4,4,0,0,1-4-4V751.28a4,4,0,0,1,4-4h16.34a4,4,0,0,1,4,4V900A4,4,0,0,1,483.55,904Zm-12.34-8h8.34V755.28h-8.34Z"/><path d="M611.8,114.89H0v-8H611.8a17.58,17.58,0,0,0,17.56-17.56V0h8V89.33A25.59,25.59,0,0,1,611.8,114.89Z"/><path d="M181,190.46H138.44a7.34,7.34,0,0,1-6.24-11.22L153.48,145A7.36,7.36,0,0,1,166,145l21.28,34.25A7.34,7.34,0,0,1,181,190.46Zm-41.38-8h40.2l-20.1-32.35Zm19.54-33.24Z"/><rect x="155.72" y="110.89" width="8" height="34.63"/><path d="M337.52,190.46H295a7.34,7.34,0,0,1-6.24-11.22L310,145a7.35,7.35,0,0,1,12.47,0l21.28,34.25a7.33,7.33,0,0,1-6.23,11.22Zm-41.39-8h40.21l-20.11-32.35Zm19.55-33.24Z"/><rect x="312.23" y="110.89" width="8" height="34.63"/><path d="M494,190.46H451.47a7.34,7.34,0,0,1-6.24-11.22L466.51,145a7.3,7.3,0,0,1,6.24-3.46h0A7.3,7.3,0,0,1,479,145l21.28,34.25A7.34,7.34,0,0,1,494,190.46Zm-41.38-8h40.2l-20.1-32.35Z"/><rect x="468.75" y="110.89" width="8" height="34.63"/><path d="M195,755.28H0v-8H195a17.55,17.55,0,0,0,17.56-17.56V473.84a17.56,17.56,0,1,0-35.12,0V689.61a4,4,0,0,1-4,4H0v-8H169.47V473.84a25.56,25.56,0,1,1,51.12,0V729.72A25.56,25.56,0,0,1,195,755.28Z"/><path d="M85.42,574H0v-8H85.42A17.58,17.58,0,0,0,103,548.45V226.66A17.58,17.58,0,0,0,85.42,209.1H0v-8H85.42A25.59,25.59,0,0,1,111,226.66V548.45A25.59,25.59,0,0,1,85.42,574Z"/><path d="M936.19,525.56H788.73A25.59,25.59,0,0,1,763.17,500V206.71a25.59,25.59,0,0,1,25.56-25.56H936.19a25.59,25.59,0,0,1,25.56,25.56V500A25.59,25.59,0,0,1,936.19,525.56ZM788.73,189.15a17.58,17.58,0,0,0-17.56,17.56V500a17.58,17.58,0,0,0,17.56,17.56H936.19A17.58,17.58,0,0,0,953.75,500V206.71a17.58,17.58,0,0,0-17.56-17.56Z"/><path d="M1258.63,900h-8V125.65l-515.11-.06,0,774.41h-8V125.65a8.07,8.07,0,0,1,8-8.06h515.06a8.07,8.07,0,0,1,8.05,8.06Z"/><rect x="989.05" y="121.59" width="8" height="778.41"/><path d="M1197.26,525.56H1049.8A25.59,25.59,0,0,1,1024.24,500V206.71a25.59,25.59,0,0,1,25.56-25.56h147.46a25.59,25.59,0,0,1,25.56,25.56V500A25.59,25.59,0,0,1,1197.26,525.56ZM1049.8,189.15a17.58,17.58,0,0,0-17.56,17.56V500a17.58,17.58,0,0,0,17.56,17.56h147.46A17.58,17.58,0,0,0,1214.82,500V206.71a17.58,17.58,0,0,0-17.56-17.56Z"/><rect x="731.47" y="833.88" width="523.16" height="8"/><path d="M953.69,606.18H915.84c-4.51,0-8.05-2.93-8.05-6.66V549.38c0-3.73,3.54-6.66,8.05-6.66h37.85c4.52,0,8.06,2.93,8.06,6.66v50.14C961.75,603.25,958.21,606.18,953.69,606.18Zm-37.9-8h38V550.72h-38Z"/><path d="M934.77,588.73a14.28,14.28,0,1,1,14.28-14.28A14.29,14.29,0,0,1,934.77,588.73Zm0-20.56a6.28,6.28,0,1,0,6.28,6.28A6.29,6.29,0,0,0,934.77,568.17Z"/></g></svg>