<svg xmlns="http://www.w3.org/2000/svg" viewBox="0 0 1300 1000"><title>3-context-expand</title><g id="Capa_2" data-name="Capa 2"><rect y="900" width="1300" height="100" transform="translate(1300 1900) rotate(180)"/><rect y="904.6" width="1300" height="8"/><rect y="69.09" width="1300" height="8"/><path d="M336.18,605.09H0v-8H336.18a17.59,17.59,0,0,0,17.56-17.57V230.08a17.58,17.58,0,0,0-17.56-17.56H0v-8H336.18a25.58,25.58,0,0,1,25.56,25.56V579.52A25.59,25.59,0,0,1,336.18,605.09Z"/><path d="M1300,605.09H1167.15a25.6,25.6,0,0,1-25.56-25.57V230.08a25.59,25.59,0,0,1,25.56-25.56H1300v8H1167.15a17.58,17.58,0,0,0-17.56,17.56V579.52a17.59,17.59,0,0,0,17.56,17.57H1300Z"/><rect y="837.6" width="1300" height="8"/></g></svg>