<svg xmlns="http://www.w3.org/2000/svg" viewBox="0 0 1300 1000"><defs><style>.cls-1,.cls-3{fill:#fff;}.cls-2{fill:none;}.cls-2,.cls-3,.cls-4{stroke:#000;}.cls-2,.cls-3{stroke-linejoin:round;stroke-width:8px;}.cls-4{font-size:36px;stroke-miterlimit:10;font-family:D-DINExp-Bold, D-DIN Exp;font-weight:700;letter-spacing:0.1em;}</style></defs><title>train-plataform</title><g id="Capa_2" data-name="Capa 2"><polygon points="403.15 949.03 319.88 999.99 0 999.99 0 898.99 319.49 898.99 403.15 949.03"/><polygon points="410.85 944.31 335.07 898.99 484.9 898.99 410.85 944.31"/><polygon points="410.9 953.66 488.36 999.99 335.21 999.99 410.9 953.66"/><polygon points="500 899.14 500 997.64 418.6 948.95 500 899.14"/><rect class="cls-1" x="500" y="899" width="800" height="101" transform="translate(1800 1898.99) rotate(180)"/><rect class="cls-1" x="308" y="899" width="8" height="6"/><path class="cls-1" d="M316,981.19h-8v-12.7h8Zm0-25.4h-8V943.1h8Zm0-25.39h-8V917.7h8Z"/><rect class="cls-1" x="308" y="993.89" width="8" height="6"/><polygon class="cls-1" points="500 997.64 500 1000 488.38 1000 410.9 953.66 403.15 949.03 319.49 898.99 335.07 898.99 410.85 944.31 418.6 948.95 500 997.64"/><polygon class="cls-1" points="500 898.99 500 899.14 418.6 948.95 410.9 953.66 335.19 1000 319.86 1000 403.15 949.03 410.85 944.31 484.9 898.99 500 898.99"/><polygon class="cls-1" points="500 999.99 500 1000 488.38 1000 488.36 999.99 500 999.99"/><polygon class="cls-1" points="335.21 999.99 335.19 1000 319.86 1000 319.88 999.99 335.21 999.99"/><path class="cls-2" d="M274.86,712.31v26.78h-282V690.75H253.3A21.56,21.56,0,0,1,274.86,712.31Z"/><rect class="cls-2" x="258.52" y="739.09" width="16.34" height="159.91"/><path class="cls-3" d="M0,113H308.14a4,4,0,0,0,3.86-4.06V84.58a4,4,0,0,0-3.86-4.06H0"/><rect class="cls-3" x="119.5" y="112.97" width="192.5" height="66.93" rx="4.05"/><text class="cls-4" transform="translate(148.65 158.32)">ANDEN</text></g></svg>