<svg xmlns="http://www.w3.org/2000/svg" viewBox="0 0 1300 1000"><defs><style>.cls-1{fill:#1e1e1c;}.cls-2{stroke:#000;stroke-miterlimit:10;}</style></defs><title>3-context-expand</title><g id="Capa_1" data-name="Capa 1"><rect class="cls-1" y="900" width="1300" height="100"/></g><g id="Capa_2" data-name="Capa 2"><path d="M494,755.28H238.15a25.59,25.59,0,0,1-25.56-25.56V711.17a25.59,25.59,0,0,1,25.56-25.56H494a25.59,25.59,0,0,1,25.56,25.56v18.55A25.59,25.59,0,0,1,494,755.28ZM238.15,693.61a17.58,17.58,0,0,0-17.56,17.56v18.55a17.58,17.58,0,0,0,17.56,17.56H494a17.58,17.58,0,0,0,17.56-17.56h0V711.17A17.58,17.58,0,0,0,494,693.61Z"/><path d="M195,755.28H0v-8H195a17.58,17.58,0,0,0,17.56-17.56V711.17A17.58,17.58,0,0,0,195,693.61H0v-8H195a25.59,25.59,0,0,1,25.56,25.56v18.55A25.59,25.59,0,0,1,195,755.28Z"/><path d="M280.56,201.69H71.19a19.13,19.13,0,0,1-19.12-19.12V93.69A19.14,19.14,0,0,1,71.19,74.57H280.56a19.15,19.15,0,0,1,19.12,19.12v88.88A19.14,19.14,0,0,1,280.56,201.69ZM71.19,82.57A11.13,11.13,0,0,0,60.07,93.69v88.88a11.12,11.12,0,0,0,11.12,11.12H280.56a11.13,11.13,0,0,0,11.12-11.12V93.69a11.13,11.13,0,0,0-11.12-11.12Z"/><path d="M487.55,689.61h-8V656.19a11.13,11.13,0,0,0-11.12-11.12H0v-8H468.43a19.14,19.14,0,0,1,19.12,19.12Z"/><rect x="82.02" width="8" height="78.57"/><rect x="261.73" width="8" height="78.57"/><path d="M268.07,181.13H83.68a8.06,8.06,0,0,1-8.05-8v-69.9a8.06,8.06,0,0,1,8.05-8.05H268.07a8.06,8.06,0,0,1,8.05,8.05v69.9A8.06,8.06,0,0,1,268.07,181.13Zm-184.39-78-.05,70,184.44,0,.05,0v-69.9Z"/><path class="cls-2" d="M130.87,146.86l-2.55,6.83h-7.14l14.43-35.18h5.45l14.44,35.18h-7.14l-2.55-6.83ZM138.31,127,133,141.3h10.76Z"/><path class="cls-2" d="M180.39,130.44c0-4.11,1-7.23,3-9.33s4.94-3.16,8.82-3.16,6.9,1,8.87,3.16,3,5.22,3,9.33v10.91q0,6.38-3,9.64t-8.87,3.26q-11.83,0-11.83-12.9Zm17,10.35v-9.38q0-4-1.2-5.82a4.41,4.41,0,0,0-3.95-1.78,4.34,4.34,0,0,0-3.93,1.78q-1.17,1.78-1.17,5.82v9.38c0,2.69.39,4.63,1.17,5.84a5.22,5.22,0,0,0,7.9,0C197,145.42,197.37,143.48,197.37,140.79Z"/><path class="cls-2" d="M213.28,129.83v-6.89l7.5-4.43h6.68v35.18h-6.68v-28.2Z"/><path d="M483.55,904H467.21a4,4,0,0,1-4-4V751.28a4,4,0,0,1,4-4h16.34a4,4,0,0,1,4,4V900A4,4,0,0,1,483.55,904Zm-12.34-8h8.34V755.28h-8.34Z"/></g></svg>