<svg xmlns="http://www.w3.org/2000/svg" viewBox="0 0 1300 1000"><defs><style>.cls-1{fill:#1e1e1c;}.cls-2{stroke:#000;stroke-miterlimit:10;}</style></defs><title>3-context-expand</title><g id="Capa_1" data-name="Capa 1"><rect class="cls-1" y="900" width="1300" height="100"/></g><g id="Capa_2" data-name="Capa 2"><path d="M280.56,201.84H71.19a19.14,19.14,0,0,1-19.12-19.12V93.84A19.14,19.14,0,0,1,71.19,74.72H280.56a19.15,19.15,0,0,1,19.12,19.12v88.88A19.15,19.15,0,0,1,280.56,201.84ZM71.19,82.72A11.13,11.13,0,0,0,60.07,93.84v88.88a11.13,11.13,0,0,0,11.12,11.12H280.56a11.13,11.13,0,0,0,11.12-11.12V93.84a11.13,11.13,0,0,0-11.12-11.12Z"/><rect x="82.02" y="0.15" width="8" height="78.57"/><rect x="261.73" y="0.15" width="8" height="78.57"/><path d="M268.07,181.28H83.68a8.06,8.06,0,0,1-8.05-8.05v-69.9a8.06,8.06,0,0,1,8.05-8H268.07a8.06,8.06,0,0,1,8.05,8v69.9h0A8.06,8.06,0,0,1,268.07,181.28Zm-184.39-78-.05,69.95,184.44.05.05-.05v-69.9Z"/><path class="cls-2" d="M130.87,147l-2.55,6.84h-7.14l14.43-35.19h5.45l14.44,35.19h-7.14L145.81,147Zm7.44-19.88L133,141.45h10.76Z"/><path class="cls-2" d="M180.39,130.58q0-6.17,3-9.33t8.82-3.16q5.91,0,8.87,3.16t3,9.33V141.5q0,6.38-3,9.63t-8.87,3.27q-11.83,0-11.83-12.9Zm17,10.36v-9.39q0-4-1.2-5.81a4.42,4.42,0,0,0-3.95-1.79,4.35,4.35,0,0,0-3.93,1.79q-1.17,1.79-1.17,5.81v9.39c0,2.68.39,4.63,1.17,5.83a5.22,5.22,0,0,0,7.9,0C197,145.57,197.37,143.62,197.37,140.94Z"/><path class="cls-2" d="M213.28,130v-6.88l7.5-4.44h6.68v35.19h-6.68v-28.2Z"/></g></svg>