<svg id="Capa_1" data-name="Capa 1" xmlns="http://www.w3.org/2000/svg" viewBox="0 0 1300 1000"><defs><style>.cls-1,.cls-3{fill:#fff;}.cls-2{fill:none;}.cls-2,.cls-3{stroke:#262626;stroke-miterlimit:10;stroke-width:10px;}.cls-4{fill:#262626;}.cls-5{font-size:48px;fill:#010101;font-family:OpenSans-Extrabold, Open Sans;font-weight:800;}</style></defs><title>turn</title><rect class="cls-1" x="91.82" y="608.19" width="529.13" height="60" rx="20"/><rect class="cls-2" x="91.82" y="608.19" width="529.13" height="60" rx="20"/><path class="cls-3" d="M336.38,717.17H76.79a20.06,20.06,0,0,1-20-20.13V677.31a20.07,20.07,0,0,1,20-20.14H336.38a20.07,20.07,0,0,1,20,20.14V697A20.06,20.06,0,0,1,336.38,717.17Z"/><path class="cls-3" d="M636,717.17H376.38a20.07,20.07,0,0,1-20-20.13V677.31a20.08,20.08,0,0,1,20-20.14H636a20.07,20.07,0,0,1,20,20.14V697A20.06,20.06,0,0,1,636,717.17Z"/><rect class="cls-4" y="900" width="1300" height="100"/><rect class="cls-4" x="259.44" y="-0.73" width="20" height="86"/><rect class="cls-4" x="74.52" y="0.15" width="20" height="86"/><rect class="cls-3" x="56.52" y="75.02" width="238.74" height="128.41" rx="15"/><rect class="cls-3" x="78.52" y="96.05" width="193.92" height="87.7" rx="15"/><text class="cls-5" transform="translate(101.98 156.8)">01</text><text class="cls-5" transform="translate(214.85 156.8)">A</text></svg>