<svg xmlns="http://www.w3.org/2000/svg" viewBox="0 0 642.56 578.15"><defs><style>.cls-1{fill:#fff;}.cls-2{fill:#222;}.cls-3{fill:none;stroke:#222;stroke-miterlimit:10;stroke-width:10px;}</style></defs><title>Capa 3-Espacio y referentes_ventana metro</title><g id="Capa_2" data-name="Capa 2"><g id="Capa_1-2" data-name="Capa 1"><g id="_Grupo_" data-name="&lt;Grupo&gt;"><rect class="cls-1" x="57.94" y="179.73" width="574.62" height="393.41" rx="20" ry="20"/><path class="cls-2" d="M612.56,184.73a15,15,0,0,1,15,15V553.15a15,15,0,0,1-15,15H77.94a15,15,0,0,1-15-15V199.73a15,15,0,0,1,15-15H612.56m0-10H77.94a25.07,25.07,0,0,0-25,25V553.15a25.07,25.07,0,0,0,25,25H612.56a25.07,25.07,0,0,0,25-25V199.73a25.07,25.07,0,0,0-25-25Z"/></g><path id="_Trazado_" data-name="&lt;Trazado&gt;" class="cls-3" d="M474.81,91.51v29l23.7,37.73a3.44,3.44,0,0,1-2.91,5.27H453a3.21,3.21,0,0,1-2.7-4.93l24.52-38.39"/><path id="_Trazado_2" data-name="&lt;Trazado&gt;" class="cls-3" d="M160.12,92.51v29l23.69,37.73a3.44,3.44,0,0,1-2.91,5.27H138.29a3.21,3.21,0,0,1-2.7-4.93l24.53-38.39"/><path id="_Trazado_3" data-name="&lt;Trazado&gt;" class="cls-3" d="M316.63,92.51v29l23.69,37.73a3.44,3.44,0,0,1-2.91,5.27h-42.6a3.21,3.21,0,0,1-2.7-4.93l24.52-38.39"/><g id="_Grupo_2" data-name="&lt;Grupo&gt;"><path class="cls-3" d="M0,91.51H612.45a25.11,25.11,0,0,0,25-25L637.56,0"/></g></g></g></svg>