<svg id="Capa_1" data-name="Capa 1" xmlns="http://www.w3.org/2000/svg" viewBox="0 0 1300 1000"><defs><style>.cls-1,.cls-3,.cls-5{fill:#fff;}.cls-2{fill:#1d1d1b;}.cls-3,.cls-4,.cls-5{stroke:#1d1d1b;stroke-width:10px;}.cls-3{stroke-miterlimit:10;}.cls-4{fill:none;}.cls-4,.cls-5{stroke-linecap:round;stroke-linejoin:round;}</style></defs><title>Capa 2-Personajes y artefactos</title><path class="cls-1" d="M692.61,903l.26-31H680.15L661.63,614.86,640.5,871.92h-13l.21,31H553.09l0-12.91L575.54,872l-3.62,0L600,546.49H586.89L591,520l-38.41-86.47.29-1.54a259.31,259.31,0,0,1,22-62.34c21.46-41.73,50.87-64,85-64.41h.95c33.92,0,63.15,22.15,84.54,64.07a262.73,262.73,0,0,1,22,62.68l.29,1.5-38,89.48,3.67,23.47H720.28L748.4,872l-5.69,0,21.82,17.84L765.68,903ZM722.5,476.46l8.9-46-22.48-41.05Zm-124.15-3.73,12.81-82.46L589,430.42Z"/><path class="cls-2" d="M660.9,310.28C739,310.26,762.53,433,762.53,433L731.4,506.38,727.11,479l9.54-49.3-37.09-67.72,28,179.55H714.83L743,867l-14.18,0,31,25.32.49,5.59H697.66l.25-31h-13.1L662,549.83,635.89,866.92H622.45l.22,31H558.1v-5.52L589.64,867l-12.27,0L605.45,541.5H592.72l27.71-178.32-36.76,66.49,10.6,47.79-4.35,27.86L557.79,433S581.26,311.21,660,310.28h.89m0-10h-1c-36.13.43-67,23.64-89.41,67.13A264.87,264.87,0,0,0,548,431.08l-.59,3.09,1.28,2.86,32.13,72.34,5,11.36-3,19.22-1.79,11.52,11.66,0h1.85L567.41,866.13l-.56,6.42-15,12.09-3.72,3v10.29l0,10h84.66l-.07-10.07-.15-21H645.1l.76-9.18L661.3,679.88l13.53,187.83.67,9.27h12.33l-.17,20.88L687.57,908h83.57l-.95-10.88-.49-5.58-.37-4.2-3.27-2.67-12.42-10.16-.72-8.33L725.73,551.49h1.88l11.67,0-1.8-11.53-2.55-16.29,5.67-13.37,31.14-73.4,1.18-2.8-.57-3a268.16,268.16,0,0,0-22.46-64c-22.29-43.7-53.06-66.8-89-66.8ZM723,447.42l-4.76-30.51,7.88,14.39L723,447.42ZM594.25,431.19l7.64-13.81-4.41,28.36-3.23-14.55Z"/><path id="_Trazado_" data-name="&lt;Trazado&gt;" class="cls-3" d="M635.43,262.38c0,16.05,10.62,29.07,23.73,29.07s23.73-13,23.73-29.07-10.63-29.08-23.73-29.08S635.43,246.32,635.43,262.38Z"/><line class="cls-3" x1="598.19" y1="546.5" x2="718.44" y2="546.5"/><polyline class="cls-4" points="640.96 309.57 660.54 351.11 679.78 309.57"/><line class="cls-5" x1="660.54" y1="351.11" x2="660.54" y2="543.56"/><polygon class="cls-1" points="637.02 237.59 626.23 219.58 660.03 206.09 694.06 220.61 683.73 237.59 637.02 237.59"/><path class="cls-2" d="M660,211.5l26.82,11.44-5.87,9.65H639.85l-6.31-10.54L660,211.5m.13-10.82-3.84,1.53-26.43,10.55-10.9,4.35,6,10.07,6.31,10.55,2.91,4.86h52.36l2.92-4.8,5.87-9.65,6-9.87-10.62-4.53L663.89,202.3l-3.79-1.62Z"/><path class="cls-1" d="M660,257.38c-9.3,0-16.26-2.38-20.69-7.09a16.63,16.63,0,0,1-4.62-11.74l.28-4.71h50.64l.14,4.86a17,17,0,0,1-4.93,11.64C676.23,255,669.23,257.38,660,257.38Z"/><path class="cls-2" d="M680.7,238.84s.39,13.54-20.75,13.54-20.32-13.54-20.32-13.54H680.7m9.72-10H630.21l-.56,9.41a21.54,21.54,0,0,0,6,15.47c5.41,5.75,13.6,8.66,24.33,8.66s18.89-2.88,24.41-8.55a21.83,21.83,0,0,0,6.33-15.27l-.27-9.72Z"/></svg>