<svg id="Capa_1" data-name="Capa 1" xmlns="http://www.w3.org/2000/svg" viewBox="0 0 1300 1000"><defs><style>.cls-1{fill:#fff;}.cls-1,.cls-3{stroke:#262626;}.cls-1,.cls-2,.cls-3{stroke-miterlimit:10;stroke-width:10px;}.cls-2,.cls-3{fill:none;}.cls-2{stroke:#252626;}.cls-4{fill:#262626;}</style></defs><title>Capa 2-Personajes y artefactos</title><path id="_Trazado_" data-name="&lt;Trazado&gt;" class="cls-1" d="M1140.25,904.6H3.92V72.6H999.28a197,197,0,0,1,196.19,178.87l49.79,537.95A105.46,105.46,0,0,1,1140.25,904.6Z"/><rect id="_Rectángulo_" data-name="&lt;Rectángulo&gt;" class="cls-2" x="460.92" y="178.73" width="168" height="726.37" transform="translate(1089.83 1083.83) rotate(180)"/><path id="_Trazado_2" data-name="&lt;Trazado&gt;" class="cls-3" d="M1228.92,605.16l-262-1a24.8,24.8,0,0,1-25-24.6V235.2a24.8,24.8,0,0,1,25-24.6h223Z"/><path id="_Trazado_3" data-name="&lt;Trazado&gt;" class="cls-3" d="M4.64,604.66l113.28-.08a24.88,24.88,0,0,0,25-24.75V233.34a24.88,24.88,0,0,0-25-24.75L4.64,208.2Z"/><path id="_Trazado_4" data-name="&lt;Trazado&gt;" class="cls-1" d="M1238.81,778a50,50,0,1,1-8.71-99.62"/><path id="_Rectángulo_2" data-name="&lt;Rectángulo&gt;" class="cls-1" d="M626.92,178.73h196a0,0,0,0,1,0,0V903.64a0,0,0,0,1,0,0h-171a25,25,0,0,1-25-25V178.73A0,0,0,0,1,626.92,178.73Z" transform="translate(1449.81 1082.37) rotate(180)"/><rect id="_Rectángulo_3" data-name="&lt;Rectángulo&gt;" class="cls-1" x="626.21" y="842.14" width="195" height="64"/><path id="_Rectángulo_4" data-name="&lt;Rectángulo&gt;" class="cls-3" d="M696.89,210.6h125a0,0,0,0,1,0,0V604.22a0,0,0,0,1,0,0h-125a25,25,0,0,1-25-25V235.6A25,25,0,0,1,696.89,210.6Z"/><path id="_Rectángulo_5" data-name="&lt;Rectángulo&gt;" class="cls-1" d="M290.93,178.73h171a0,0,0,0,1,0,0V903.64a0,0,0,0,1,0,0h-196a0,0,0,0,1,0,0V203.73a25,25,0,0,1,25-25Z"/><rect id="_Rectángulo_6" data-name="&lt;Rectángulo&gt;" class="cls-1" x="267.61" y="842.14" width="195" height="64" transform="translate(730.21 1748.29) rotate(180)"/><path id="_Rectángulo_7" data-name="&lt;Rectángulo&gt;" class="cls-3" d="M290.93,209.6h125a0,0,0,0,1,0,0v395a0,0,0,0,1,0,0h-125a25,25,0,0,1-25-25v-345A25,25,0,0,1,290.93,209.6Z" transform="translate(681.86 814.21) rotate(180)"/><rect id="_Rectángulo_8" data-name="&lt;Rectángulo&gt;" class="cls-4" y="900" width="1300" height="100" transform="translate(1300 1900) rotate(180)"/></svg>