<svg id="Capa_1" data-name="Capa 1" xmlns="http://www.w3.org/2000/svg" viewBox="0 0 1300 1000"><defs><style>.cls-1,.cls-3,.cls-4,.cls-6{fill:#fff;}.cls-2{fill:#1d1d1b;}.cls-3,.cls-4,.cls-5,.cls-6{stroke:#1d1d1b;stroke-miterlimit:10;}.cls-3{stroke-width:9.94px;}.cls-4,.cls-5,.cls-6{stroke-width:10px;}.cls-5{fill:none;stroke-linecap:round;}.cls-6{stroke-linecap:square;}</style></defs><title>Capa 2-Personajes y artefactos</title><path class="cls-1" d="M698.94,901.25l.25-31H686.47L668,613.16,646.82,870.22h-13l.21,31H559.41l0-12.91,22.43-18.05-3.62,0L606.32,544.8H593.21l4.52-29.08L558.9,431.92l.3-1.58a259.08,259.08,0,0,1,22-62.34c21.45-41.73,50.86-64,85-64.41h1c33.92,0,63.15,22.16,84.54,64.08a262.21,262.21,0,0,1,22,62.68l.3,1.58L735.23,515.8l4.53,29H726.6l28.12,325.47-5.69,0,21.82,17.84L772,901.25ZM728.07,470l9.6-41.25-22.43-41Zm-123.14-.59,12.55-80.78L595.3,428.7Z"/><path class="cls-2" d="M667.22,308.58c78,0,101.63,122.7,101.63,122.7l-32.13,69.4-4.28-27.42L743,428l-37.09-67.72,28,179.55H721.15L749.27,865.3l-14.18.05,31,25.32.49,5.58H704l.25-31h-13.1L668.27,548.14,642.21,865.22H628.77l.22,31H564.42v-5.51L596,865.35l-12.27-.05,28.08-325.49H599l27.71-178.32L590,428l10.61,44.79-4.35,27.86-32.14-69.34s23.47-121.76,102.22-122.69h.89m0-10v0h-1c-36.14.43-67.06,23.64-89.42,67.12a265,265,0,0,0-22.51,63.68l-.61,3.17,1.36,2.93,32.13,69.33,5.38,11.62-3.39,21.82-1.79,11.52,11.66,0h1.85L573.73,864.44l-.56,6.42-15,12.09-3.72,3v10.29l0,10h84.66L639,896.18l-.15-21h12.58l.76-9.18,15.44-187.85L681.15,866l.67,9.28h12.33L694,896.17l-.08,10.08h83.56l-1-10.87L776,889.8l-.37-4.2-3.27-2.67L760,872.77l-.72-8.34L732.05,549.8h1.88l11.67,0-1.8-11.53-3.39-21.73,5.38-11.64,32.14-69.4,1.35-2.92-.61-3.16a268,268,0,0,0-22.46-64c-22.3-43.71-53.06-66.81-89-66.81ZM729,443.73l-4.45-28.51,7.78,14.2L729,443.73Zm-128.43-14.3,7.6-13.74-4.3,27.66-3.3-13.92Z"/><path id="_Trazado_" data-name="&lt;Trazado&gt;" class="cls-3" d="M642,259.68c0,16,10.52,29,23.5,29s23.5-13,23.5-29-10.52-29-23.5-29S642,243.67,642,259.68Z"/><line class="cls-4" x1="604.51" y1="544.81" x2="724.76" y2="544.81"/><polyline class="cls-5" points="645.28 307.88 664.86 349.42 684.1 307.88"/><g id="_Grupo_" data-name="&lt;Grupo&gt;"><line id="_Trazado_2" data-name="&lt;Trazado&gt;" class="cls-6" x1="687.17" y1="356.32" x2="687.17" y2="375.28"/><line id="_Trazado_3" data-name="&lt;Trazado&gt;" class="cls-6" x1="677.73" y1="365.83" x2="696.69" y2="365.83"/></g><line class="cls-4" x1="725.39" y1="399.5" x2="751.41" y2="376.25"/><line class="cls-4" x1="610.51" y1="393.7" x2="583.5" y2="370.46"/></svg>