<svg id="Capa_1" data-name="Capa 1" xmlns="http://www.w3.org/2000/svg" viewBox="0 0 1300 1000"><defs><style>.cls-1,.cls-3{fill:#fff;}.cls-2{fill:#1d1d1b;}.cls-3{stroke:#1d1d1b;stroke-miterlimit:10;stroke-width:9.94px;}</style></defs><title>Capa 2-Personajes y artefactos</title><path class="cls-1" d="M693.05,902.88l.25-31H680.59L662.06,614.78,640.93,871.84h-13l.22,31H553.53l0-12.92L576,871.91l-3.61,0,28.08-325.47H587.32L591.43,520,553,433.5l.3-1.54a258.3,258.3,0,0,1,22-62.34c21.46-41.73,50.86-64,85-64.41h.94c33.92,0,63.15,22.16,84.54,64.08a262.21,262.21,0,0,1,22,62.68l.29,1.49-37.95,89.49,3.66,23.47H720.71l28.13,325.47-5.69,0L765,889.75l1.16,13.13Zm29.89-426.5,8.89-46-22.48-41.05Zm-124.16-3.72L611.6,390.2l-22.2,40.15Z"/><path class="cls-2" d="M661.34,310.2c78,0,101.62,122.7,101.62,122.7l-31.13,73.4-4.28-27.42,9.54-49.29L700,361.87l28,179.54-12.77,0,28.13,325.48L729.2,867l31,25.32.49,5.59H698.09l.25-31h-13.1L662.39,549.76,636.32,866.84H622.89l.21,31H558.53v-5.52L590.07,867l-12.27-.06,28.09-325.48-12.73,0L620.87,363.1l-36.76,66.49,10.6,47.79-4.35,27.86L558.23,432.9S581.7,311.14,660.45,310.21h.89m0-10v0h-1c-36.14.43-67.06,23.64-89.42,67.12A264.23,264.23,0,0,0,548.41,431l-.6,3.08,1.28,2.87,32.13,72.34,5,11.35-3,19.23-1.8,11.52H595L567.84,866.05l-.55,6.43-15,12.09-3.72,3v20.31h84.65l-.07-10.07-.14-21h12.58l.75-9.18,15.44-187.85,13.54,187.82.66,9.28h12.33l-.17,20.87L688,907.88h83.56l-1-10.88-.49-5.58-.37-4.2-3.26-2.67-12.43-10.16-.72-8.34L726.16,551.42h13.55l-1.8-11.53-2.54-16.3L741,510.21l31.13-73.4,1.19-2.81-.58-3a267.72,267.72,0,0,0-22.45-64c-22.3-43.71-53.07-66.81-89-66.81Zm62.12,147.14-4.77-30.5,7.88,14.39-3.11,16.11ZM594.69,431.12l7.63-13.82-4.4,28.37-3.23-14.55Z"/><path id="_Trazado_" data-name="&lt;Trazado&gt;" class="cls-3" d="M636.1,261.34c0,16,10.52,29,23.5,29s23.5-13,23.5-29-10.53-29-23.5-29S636.1,245.32,636.1,261.34Z"/></svg>