<svg id="Capa_1" data-name="Capa 1" xmlns="http://www.w3.org/2000/svg" viewBox="0 0 1300 1000"><defs><style>.cls-1,.cls-3,.cls-4,.cls-6{fill:#fff;}.cls-2{fill:#1d1d1b;}.cls-3,.cls-4,.cls-5,.cls-6{stroke:#1d1d1b;stroke-width:10px;}.cls-3,.cls-5,.cls-6{stroke-linejoin:round;}.cls-4{stroke-miterlimit:10;}.cls-5{fill:none;}.cls-5,.cls-6{stroke-linecap:round;}</style></defs><title>Capa 2-Personajes y artefactos</title><path class="cls-1" d="M715.59,902l0-31.45-12.27,0L682.73,611.9,662.46,870.53H650.69L650.42,902H577.85l-.2-12.92,22.1-18.35h-5.61L622.64,545H609.35l21.74-150.56-19.94,47.65-23.71,93.56H559.09l16.43-92.62a272.46,272.46,0,0,1,19.81-67.68c20.49-45.63,50.78-70.79,87.59-72.76,21.76-1.16,95.7-7.67,112.54-9.16l29.8-104.62h25.88L825.71,323l-95.56,32.42,26.54,189.66-13.34,0,28.38,325.51-5.34,0L787.6,889l1.15,13Z"/><path class="cls-2" d="M845.11,193.84,821.35,319.17,724.63,352l26.31,188-13,0,28.38,325.55-13.22,0,29.74,25.88.49,5.56H720.6l0-31.44-12.65,0-25.31-317-24.85,317h-12.1L645.46,897H582.77l-.08-5.61,30.91-25.66h-14L628.09,540h-13l26.52-183.75-35.26,84.25-22.84,90.15H565.06l15.4-86.84S598,312.16,683.18,307.61c24.87-1.32,116.14-9.48,116.14-9.48L829,193.84h16.07m12.07-10H821.49l-2.07,7.26-27.83,97.68c-21.67,1.91-88.49,7.76-108.94,8.85-38.8,2.07-70.57,28.25-91.88,75.7a278.42,278.42,0,0,0-20.19,68.95l-15.37,86.66-2.08,11.74h38.2l1.91-7.54,22.66-89.43,4.62-11L605.23,538.6,603.58,550h13.6L589.63,864.86l-.73,8.38L576.3,883.7l-3.68,3.06.07,4.79.08,5.6.15,9.85h82.46l.08-9.92.18-21.55h11.44l.72-9.22,15-191,15.25,191,.73,9.18,9.21,0h2.67l0,21.44v10h83.62l-1-10.88-.49-5.56-.35-4-3-2.65L777,873.11l-.73-8.45L748.81,550h2.09l11.54,0-1.6-11.43L735.68,358.8l88.88-30.16,5.52-1.87,1.09-5.74,23.76-125.32,2.25-11.87Z"/><path id="_Trazado_" data-name="&lt;Trazado&gt;" class="cls-3" d="M660.28,259.67c0,16.05,10.63,29.07,23.73,29.07s23.73-13,23.73-29.07S697.12,230.59,684,230.59,660.28,243.61,660.28,259.67Z"/><line class="cls-4" x1="625.17" y1="543.97" x2="745.42" y2="543.97"/><polyline class="cls-5" points="664.64 307.82 684.22 349.36 704.46 304.82"/><line class="cls-6" x1="684.22" y1="349.36" x2="684.22" y2="541.81"/><polygon class="cls-1" points="661.2 235.62 650.42 217.6 684.22 204.12 718.24 218.63 707.91 235.62 661.2 235.62"/><path class="cls-2" d="M684.16,209.52,711,221l-5.87,9.66H664l-6.32-10.55,26.44-10.55m.12-10.81-3.83,1.53L654,210.78l-10.91,4.35,6,10.08,6.32,10.54,2.91,4.87h52.35l2.93-4.81,5.87-9.65,6-9.86-10.62-4.53-26.82-11.44-3.8-1.62Z"/><path class="cls-1" d="M684.14,255.4c-9.3,0-16.26-2.38-20.69-7.08a16.6,16.6,0,0,1-4.62-11.75l.28-4.7h50.63l.14,4.85A17,17,0,0,1,705,248.37C700.42,253,693.41,255.4,684.14,255.4Z"/><path class="cls-2" d="M704.88,236.87s.39,13.53-20.74,13.53-20.32-13.53-20.32-13.53h41.06m9.72-10H654.4l-.56,9.4a21.48,21.48,0,0,0,6,15.47c5.41,5.75,13.59,8.66,24.33,8.66s18.89-2.88,24.4-8.55a21.86,21.86,0,0,0,6.34-15.27l-.28-9.71Z"/></svg>