<svg id="Capa_1" data-name="Capa 1" xmlns="http://www.w3.org/2000/svg" viewBox="0 0 1300 1000"><defs><style>.cls-1,.cls-3,.cls-4{fill:#fff;}.cls-2{fill:#1d1d1b;}.cls-3,.cls-4,.cls-5,.cls-6,.cls-7{stroke:#1d1d1b;}.cls-3,.cls-4,.cls-5{stroke-miterlimit:10;}.cls-3{stroke-width:9.94px;}.cls-4,.cls-5,.cls-6,.cls-7{stroke-width:10px;}.cls-5,.cls-6,.cls-7{fill:none;}.cls-6{stroke-linecap:round;}.cls-6,.cls-7{stroke-linejoin:round;}</style></defs><title>Capa 2-Personajes y artefactos</title><path class="cls-1" d="M684.1,903.15l.71-30-12.71.32L650.18,612.12,630,873.44l-12.74-.33.71,30h-74.3l1.16-12.91L564.63,872h-3.88l28.87-305.9H576.23L589.72,465l-7.31,48L541.56,431.4l.34-1.69a254.09,254.09,0,0,1,22.6-62.24c22-41.58,51.93-63.56,86.69-63.56,36.48,0,78.56,31.47,125.06,93.52a759.93,759.93,0,0,1,58.51,92.22l2,3.92-18,12.37-72.31-81-48.15-50.1L725.91,566.1H712.46L741.32,872h-3.87l19.78,18.24,1.17,12.91ZM589.85,464,600,388l-21.45,39.94Z"/><path class="cls-2" d="M651.19,308.91c84,0,179.14,183,179.14,183l-10.74,7.38-69.44-77.77-59-61.37,29,200.91H707L735.83,867H724.65l27.78,25.61.5,5.54H689.22l.71-30.17-13.24.34L650,549.84,625.39,868.32,612.14,868l.72,30.17H549.15l.5-5.54L577.43,867H566.25l28.86-305.9H581.94l26.65-199.7-35.44,66,11.6,37-4.91,32.25-33-66S571,308.91,651.19,308.91m0-10c-36.74,0-68.24,22.9-91.11,66.22A260.44,260.44,0,0,0,537,428.74l-.66,3.36,1.53,3.07,33,66L578,515.27,572,559.77l-1.52,11.33h13.61l-27.83,295-.71,7.47-12.71,11.73L540,887.87l-.34,3.84-.5,5.55-1,10.89H623.1l-.24-10.24-.47-19.67,2.74.07,9.5.24.73-9.46,15-194.69,16.34,194.75.79,9.4,9.43-.24,2.75-.07-.47,19.67L679,908.15h84.89l-1-10.9-.5-5.54-.35-3.84-2.83-2.61-12.72-11.73-.7-7.47L718,571.1h13.73L730,559.67,705.49,389.53l37.32,38.83L812.13,506l5.86,6.57,7.26-5L836,500.2l7.29-5-4.08-7.85a750.22,750.22,0,0,0-59-92.9c-47.5-63.39-90.92-95.53-129.06-95.53ZM584,428.42l7.46-13.88L587.88,441,584,428.42Z"/><ellipse id="_Trazado_" data-name="&lt;Trazado&gt;" class="cls-3" cx="649.83" cy="262.45" rx="23.5" ry="29"/><line class="cls-4" x1="590.75" y1="566.09" x2="711" y2="566.09"/><polyline class="cls-5" points="629.64 308.3 649.22 349.84 668.45 308.3"/><path class="cls-2" d="M671.69,388.92h0a9,9,0,0,1-9-9h0a9,9,0,0,1,9-9h0a9,9,0,0,1,9,9h0A9,9,0,0,1,671.69,388.92Z"/><path class="cls-6" d="M621.24,406H614l0-21c0-11.61,6.59-21,18.2-21.05h0c11.61,0,18.22,9.39,18.24,21l0,21h-7.1"/><line class="cls-7" x1="621.19" y1="311.55" x2="630.17" y2="360.67"/><line class="cls-7" x1="678.81" y1="312.05" x2="672.79" y2="372.17"/><rect class="cls-1" x="635.54" y="496.22" width="27" height="64.88"/></svg>