<svg id="Capa_1" data-name="Capa 1" xmlns="http://www.w3.org/2000/svg" viewBox="0 0 1300 1000"><defs><style>.cls-1{fill:#fff;}.cls-1,.cls-2{stroke:#262626;stroke-miterlimit:10;stroke-width:10px;}.cls-2{fill:none;}.cls-3{fill:#262626;}</style></defs><title>Capa 2-Personajes y artefactos</title><path id="_Rectángulo_" data-name="&lt;Rectángulo&gt;" class="cls-1" d="M687.53,178.48h555a0,0,0,0,1,0,0v700a25,25,0,0,1-25,25h-505a25,25,0,0,1-25-25v-700A0,0,0,0,1,687.53,178.48Z" transform="translate(1930.06 1081.96) rotate(180)"/><rect id="_Rectángulo_2" data-name="&lt;Rectángulo&gt;" class="cls-2" x="1005.62" y="208.89" width="200" height="395.73" rx="25" ry="25" transform="translate(2211.23 813.51) rotate(180)"/><rect id="_Rectángulo_3" data-name="&lt;Rectángulo&gt;" class="cls-2" x="726.62" y="208.89" width="200" height="395.73" rx="25" ry="25" transform="translate(1653.23 813.51) rotate(180)"/><rect id="_Rectángulo_4" data-name="&lt;Rectángulo&gt;" class="cls-1" x="688.37" y="839.89" width="554" height="64" transform="translate(1930.73 1743.78) rotate(180)"/><line id="_Trazado_" data-name="&lt;Trazado&gt;" class="cls-2" x1="963.62" y1="179.39" x2="963.62" y2="904.39"/><rect id="_Rectángulo_5" data-name="&lt;Rectángulo&gt;" class="cls-3" y="900" width="1300" height="100" transform="translate(1300 1900) rotate(180)"/></svg>