<svg id="Capa_1" data-name="Capa 1" xmlns="http://www.w3.org/2000/svg" viewBox="0 0 1300 1000"><defs><style>.cls-1,.cls-2{fill:#fff;}.cls-1,.cls-4,.cls-5{stroke:#1d1d1b;stroke-miterlimit:10;}.cls-1{stroke-width:10.49px;}.cls-3{fill:#1d1d1b;}.cls-4,.cls-5{fill:none;stroke-width:10px;}.cls-5{stroke-linecap:round;}</style></defs><title>Capa 2-Personajes y artefactos</title><path id="_Trazado_" data-name="&lt;Trazado&gt;" class="cls-1" d="M665.62,262.34c0,16-10.52,29-23.5,29s-23.5-13-23.5-29,10.52-29,23.5-29S665.62,246.33,665.62,262.34Z"/><g id="_Grupo_" data-name="&lt;Grupo&gt;"><path class="cls-2" d="M676.7,903.7l-.22-31.65H663.81L642.3,611.82,621.52,872.06H608.65l0,31.65H533.59V891.15l24.21-19.1H551l29.29-325.5H566.52l5.07-31.36L531,433l.33-1.67a254,254,0,0,1,23.09-62.64c22.38-41.76,52.91-63.85,88.3-63.91.25,0,.73,0,1.42,0,9.52,0,57.78,3.37,95.52,68.24l58.12-56,19.66,13.19-74.83,99.22-51.43-53.13,27.68,170.24H705.09l29.27,325.5h-4.81l22.08,19,.18,12.6ZM580,463.41l12.08-74.63-23.48,40.78Z"/><path class="cls-3" d="M644.1,309.76c8.47,0,57.32,3.06,94.33,71.33l59.87-57.66,11.93,8L742.1,421.76l-58.45-60.38L713,541.56H699.62l29.27,325.5h-12.8l30.57,26.37.08,5.28H681.67l-.23-31.65h-13l-26.19-317-25.31,317H603.64l0,31.65H538.6v-5.12l33.63-26.53H556.44l29.29-325.5H572.39l29-178.95L563.11,429l13.32,39.55-6,33L536.2,432.33s24.71-122.54,106.62-122.54c0,0,.45,0,1.28,0m0-10c-.68,0-1.19,0-1.54,0-37.3.11-69.31,23.11-92.58,66.54a259.74,259.74,0,0,0-23.59,64l-.67,3.35,1.51,3.06L561.47,506l4.93,10-3.88,24-1.88,11.59h14.15l-28.31,314.6-.81,9.11-13.26,10.46-3.81,3v20h85.09v-10l0-21.64h12.49l.74-9.21,15.51-194.28,16.05,194.31.76,9.18h12.31l.16,21.72.07,9.93h85.15l-.15-10.14-.08-5.28-.06-4.49-3.41-2.94L739.57,874.1l-.72-7.94-28.29-314.6H724.7L722.82,540,698.64,391.24l36.28,37.48,8.12,8.39,7-9.33,68.13-90.33,6.36-8.44-8.77-5.89-11.92-8-6.7-4.49-5.81,5.59-50.7,48.83c-38.63-62-86.84-65.29-96.57-65.29ZM574,430.1,582.75,415l-4.49,27.71L574,430.1Z"/></g><line class="cls-4" x1="704.75" y1="546.56" x2="584.5" y2="546.56"/><polyline class="cls-5" points="663.85 309.81 644.27 351.35 625.03 309.81"/><line class="cls-5" x1="644.27" y1="351.35" x2="644.27" y2="543.8"/><rect class="cls-3" x="609.39" y="357.5" width="22.81" height="13.31" rx="2" ry="2" transform="translate(1241.6 728.31) rotate(180)"/></svg>