<svg id="Capa_1" data-name="Capa 1" xmlns="http://www.w3.org/2000/svg" viewBox="0 0 1300 1000"><defs><style>.cls-1,.cls-3,.cls-4,.cls-5{fill:#fff;}.cls-2{fill:#1d1d1b;}.cls-3,.cls-4,.cls-5{stroke:#1d1d1b;}.cls-3,.cls-4{stroke-miterlimit:10;}.cls-3{stroke-width:9.94px;}.cls-4,.cls-5{stroke-width:10px;}.cls-5{stroke-linecap:round;stroke-linejoin:round;}</style></defs><title>Capa 2-Personajes y artefactos</title><path class="cls-1" d="M716.17,905.32l0-31.45-12.27,0L683.3,615.23,663,873.86H651.26L651,905.32H578.42l-.2-12.92,22.1-18.34h-5.61l28.5-325.71H609.92L631.66,397.8l-19.94,47.65L588,539H559.67l16.42-92.62a272.46,272.46,0,0,1,19.81-67.68c20.49-45.64,50.78-70.8,87.59-72.76,21.77-1.16,95.71-7.67,112.54-9.17l29.81-104.61h25.88L826.29,326.29l-95.57,32.43,26.55,189.66-13.35,0L772.3,873.84H767l21.22,18.46,1.14,13Z"/><path class="cls-2" d="M845.68,197.17,821.92,322.5,725.2,355.31l26.31,188-13-.05,28.38,325.55-13.22,0,29.74,25.87.49,5.56H721.17l.05-31.43-12.66,0-25.3-317-24.85,317H646.3L646,900.32h-62.7l-.08-5.6,30.91-25.66h-14l28.5-325.71h-13L642.23,359.6,607,443.86,584.12,534H565.63L581,447.16s17.57-131.67,102.72-136.22c24.86-1.33,116.14-9.48,116.14-9.48l29.71-104.29h16.07m12.07-10H822.06L820,194.43l-27.83,97.68c-21.67,1.91-88.49,7.75-108.94,8.84-38.8,2.08-70.57,28.25-91.88,75.71a278.42,278.42,0,0,0-20.19,68.95l-15.36,86.65L553.7,544h38.2l1.92-7.55L616.48,447l4.61-11L605.8,541.93l-1.65,11.43h13.6L590.21,868.18l-.74,8.39L576.87,887l-3.68,3.06.07,4.78.09,5.61.15,9.84H656l.09-9.91.18-21.56h11.43l.73-9.22,15-191,15.25,191,.73,9.18,9.21,0h2.67l0,21.45v10h83.62l-.95-10.87-.49-5.56-.36-4-3-2.65-12.39-10.78-.74-8.45L749.38,553.35h2.1l11.54,0L761.42,542,736.25,362.12,825.13,332l5.53-1.88,1.08-5.73L855.51,199l2.24-11.86Z"/><ellipse id="_Trazado_" data-name="&lt;Trazado&gt;" class="cls-3" cx="686.16" cy="261.34" rx="23.5" ry="29"/><line class="cls-4" x1="624.24" y1="548.33" x2="744.49" y2="548.33"/><polyline class="cls-5" points="664.79 311.49 684.37 353.04 704.61 308.49"/><line class="cls-5" x1="684.37" y1="353.04" x2="684.37" y2="545.49"/><rect class="cls-2" x="696.43" y="359.18" width="22.81" height="13.31" rx="2" ry="2"/></svg>