<svg id="Capa_1" data-name="Capa 1" xmlns="http://www.w3.org/2000/svg" viewBox="0 0 1300 1000"><defs><style>.cls-1,.cls-2{fill:#fff;}.cls-1{stroke:#1d1d1b;stroke-miterlimit:10;stroke-width:10.49px;}.cls-3{fill:#1d1d1b;}</style></defs><title>Capa 2-Personajes y artefactos</title><path id="_Trazado_" data-name="&lt;Trazado&gt;" class="cls-1" d="M639.3,265c0,16,10.52,29,23.5,29s23.5-13,23.5-29-10.53-29-23.5-29S639.3,249,639.3,265Z"/><g id="_Grupo_" data-name="&lt;Grupo&gt;"><path class="cls-2" d="M696.24,906.35l0-31.65H683.39L662.61,614.46l-21.5,260.25H628.43l-.22,31.65H553.1l.18-12.6,22.09-19h-4.82l29.28-325.5H586.09L613.77,379l-51.43,53.12-74.83-99.21,19.66-13.2,58.12,56c37.74-64.87,86-68.24,95.52-68.24.7,0,1.18,0,1.42,0,35.39.06,65.92,22.15,88.3,63.9A253.94,253.94,0,0,1,773.62,434l.34,1.67-40.64,82.18,5.08,31.36H724.66l29.28,325.5h-6.83l24.2,19.1v12.55Zm28.7-440.29,11.4-33.86-23.47-40.77Z"/><path class="cls-3" d="M660.81,312.41c.84,0,1.28,0,1.28,0C744,312.44,768.72,435,768.72,435l-34.24,69.25-6-33,13.32-39.56-38.24-66.4,29,178.94H719.19L748.47,869.7H732.69l33.62,26.54v5.12H701.24l0-31.66H688l-25.3-317-26.2,317h-13l-.22,31.66H558.17l.08-5.28,30.58-26.38H576L605.3,544.21H592L621.26,364l-58.45,60.38-68.12-90.34,11.92-8,59.87,57.67c37-68.27,85.87-71.33,94.33-71.33m0-10c-9.72,0-57.94,3.3-96.57,65.29l-50.69-48.83-5.81-5.6-6.7,4.5-11.92,8-8.78,5.89,6.36,8.43,68.13,90.34,7,9.33,8.13-8.4,36.28-37.47L582.1,542.6l-1.89,11.6h14.15l-28.3,314.61-.71,7.93L551.72,888.5l-3.4,2.93-.07,4.49-.08,5.28L548,911.35h85.15l.07-9.93.15-21.72h12.31l.76-9.18,16.06-194.31L678,870.5l.73,9.21h12.49l0,21.64v10h85.1v-20l-3.8-3-13.26-10.46-.82-9.1L730.13,554.2h14.14l-1.87-11.6-3.89-24,4.93-10,34.24-69.24,1.51-3.07-.67-3.34a259.32,259.32,0,0,0-23.58-64c-23.28-43.43-55.29-66.44-92.59-66.54-.34,0-.86,0-1.54,0Zm65.84,142.91-4.48-27.72,8.71,15.15-4.23,12.57Z"/></g></svg>