<svg id="Capa_1" data-name="Capa 1" xmlns="http://www.w3.org/2000/svg" viewBox="0 0 1300 1000"><defs><style>.cls-1,.cls-3{fill:#fff;}.cls-2{fill:#1d1d1b;}.cls-3{stroke:#1d1d1b;stroke-miterlimit:10;stroke-width:9.94px;}</style></defs><title>Capa 2-Personajes y artefactos</title><path class="cls-1" d="M713.66,903.11l.05-31.45-12.27,0L680.8,613,660.53,871.64H648.76l-.27,31.47H575.92l-.2-12.92,22.1-18.35h-5.61l28.5-325.7H607.42l21.74-150.55-19.94,47.64L585.51,536.8H557.17l16.42-92.62A272.22,272.22,0,0,1,593.4,376.5c20.49-45.64,50.78-70.8,87.59-72.77,21.77-1.16,95.7-7.67,112.54-9.16L823.33,190h25.89L823.79,324.08,728.22,356.5l26.55,189.66-13.35,0L769.8,871.63h-5.34l21.22,18.46,1.14,13Z"/><path class="cls-2" d="M843.18,195,819.42,320.28,722.7,353.1l26.31,188-13,0,28.38,325.55-13.22,0,29.74,25.87.49,5.56H718.67l.05-31.43-12.66,0-25.31-317-24.85,317H643.8l-.27,31.48H580.84l-.08-5.6,30.91-25.67h-14l28.49-325.71h-13l26.53-183.75-35.27,84.26L581.62,531.8H563.13L578.53,445s17.58-131.68,102.72-136.22c24.87-1.33,116.14-9.48,116.14-9.48L827.11,195h16.07m12.07-10H819.56l-2.07,7.26-27.83,97.67c-21.67,1.92-88.49,7.76-108.94,8.85-38.8,2.07-70.57,28.25-91.88,75.71a278.3,278.3,0,0,0-20.19,68.95l-15.37,86.65L551.2,541.8h38.2l1.91-7.55L614,444.82l4.62-11L603.3,539.71l-1.65,11.44h13.6L587.7,866l-.73,8.38-12.6,10.46-3.68,3.06.07,4.79.08,5.6.16,9.85h82.45l.08-9.92.19-21.55h11.43l.72-9.23,15-191,15.25,191,.73,9.18,9.21,0h2.67l0,21.44v10h83.62l-1-10.88-.49-5.56-.35-4-3-2.65-12.39-10.77-.74-8.46L746.88,551.13H749l11.54.05-1.6-11.44L733.75,359.91l88.88-30.16,5.53-1.87,1.08-5.73L853,196.82,855.25,185Z"/><ellipse id="_Trazado_" data-name="&lt;Trazado&gt;" class="cls-3" cx="684.08" cy="261.78" rx="23.5" ry="29"/></svg>