<svg id="Capa_1" data-name="Capa 1" xmlns="http://www.w3.org/2000/svg" viewBox="0 0 1300 1000"><defs><style>.cls-1,.cls-3,.cls-4,.cls-6{fill:#fff;}.cls-2{fill:#1d1d1b;}.cls-3,.cls-4,.cls-5,.cls-6{stroke:#1d1d1b;stroke-miterlimit:10;}.cls-3{stroke-width:9.94px;}.cls-4,.cls-5,.cls-6{stroke-width:10px;}.cls-5{fill:none;stroke-linecap:round;}.cls-6{stroke-linecap:square;}</style></defs><title>Capa 2-Personajes y artefactos</title><path class="cls-1" d="M704.77,905.33l.08-31.61-12.92,0L670.39,613.07,649.32,873.68l-12.9.05.44,31.6H561.65l.16-12.8L584.1,873.7l-5.39,0L609,548.2H594.63l5.08-31.39-40.64-82.17.34-1.68a253.47,253.47,0,0,1,23.09-62.64c22.36-41.72,52.85-63.81,88.2-63.91.43,0,1.22-.08,2.34-.08,6.14,0,22.62,1.49,42.92,15.36,24.78,16.91,46.46,45.88,64.47,86.12l78.68,46.82-6.6,24.18-95.75-43.28-36.58-51.89,26.76,164.51-14.31.12,29.86,325.42h-6l22.63,18.51,1.19,13.12ZM608.09,465l12.07-74.62-23.47,40.77Z"/><path class="cls-2" d="M673,311.33c10.86,0,61.6,5.3,103.47,100L853.28,457l-4,14.86-89.17-40.3L711.76,363,741.07,543.2l-13.91.12L757,868.7l-14.48,0,31.82,26,.51,5.58H709.78l.09-31.6-13.34,0-26.2-317-25.62,317-13.36,0,.44,31.58H566.71l.07-5.45,31.07-26.25-13.65.07,30.33-325.51h-14l29-179-38.23,66.4,13.32,39.56-6,33L564.31,434S589,311.41,670.94,311.41c0,0,.73-.08,2.1-.08m0-10c-1.12,0-2,0-2.55.08-37.21.19-69.16,23.19-92.4,66.55a259,259,0,0,0-23.58,64l-.68,3.35,1.52,3.06,34.24,69.25,4.92,10-3.88,24-1.88,11.61h14.81L574.24,867.77l-.78,8.37-13.13,11.1-3.49,3-.06,4.56-.07,5.45-.13,10.13h85.35l-.14-10.14-.3-21.48h3.26l9.19,0,.74-9.15,15.76-195.06,16.12,195.07.76,9.16,9.18,0h3.34l-.06,21.59,0,10h86.06l-1-10.91-.51-5.58-.38-4.17L780.68,887l-12.92-10.56-.79-8.66L738.11,553.23l3,0,11.66-.1-1.87-11.5L728.6,404.26l23.28,33,1.57,2.23,2.49,1.12L845.11,481l10.68,4.82,3.08-11.3,4.06-14.86,2-7.34-6.53-3.89-74.06-44.07C766.08,364,744,334.79,718.78,317.56c-21.45-14.65-39.13-16.23-45.74-16.23Zm-70.9,130.39,8.72-15.14-4.48,27.71-4.24-12.57Z"/><ellipse id="_Trazado_" data-name="&lt;Trazado&gt;" class="cls-3" cx="671.38" cy="264.34" rx="23.5" ry="29"/><line class="cls-4" x1="611.21" y1="548.31" x2="731.46" y2="548.31"/><polyline class="cls-5" points="650.09 310.52 669.67 352.06 688.91 310.52"/><g id="_Grupo_" data-name="&lt;Grupo&gt;"><line id="_Trazado_2" data-name="&lt;Trazado&gt;" class="cls-6" x1="692.98" y1="359.88" x2="692.98" y2="378.85"/><line id="_Trazado_3" data-name="&lt;Trazado&gt;" class="cls-6" x1="683.53" y1="369.4" x2="702.5" y2="369.4"/></g><line class="cls-4" x1="736.81" y1="402.94" x2="762.83" y2="379.69"/><line class="cls-4" x1="608.94" y1="403.14" x2="581.92" y2="379.9"/></svg>