<svg id="Capa_1" data-name="Capa 1" xmlns="http://www.w3.org/2000/svg" viewBox="0 0 1300 1000"><defs><style>.cls-1,.cls-3,.cls-5,.cls-6{fill:#fff;}.cls-2{fill:#1d1d1b;}.cls-3,.cls-4,.cls-5,.cls-6{stroke:#1d1d1b;}.cls-3,.cls-6{stroke-miterlimit:10;}.cls-3,.cls-4,.cls-5{stroke-width:10px;}.cls-4{fill:none;}.cls-4,.cls-5{stroke-linecap:round;stroke-linejoin:round;}.cls-6{stroke-width:9.94px;}</style></defs><title>Capa 2-Personajes y artefactos</title><path class="cls-1" d="M654.26,902.06l.12-31.4-12.44,0L623,612.72l-21.37,258-12.62,0,.32,31.4H516.72V889.33l21.55-18.65H533.4l28.13-325.5H548.26v-.07l-25,.13,7.27-111.37c.07-1.29,2-32.55,13.84-64.46,16.07-43.43,42.78-66.6,77.22-67h.94c34.15,0,60.52,22.6,76.26,65.35,11.55,31.38,13.34,62.23,13.41,63.53L719.23,545l-23.62.14-1.78-9.41,1.48,9.44-13.28,0,28.13,325.48h-1.63l18.07,19,.42,12.34Z"/><path class="cls-2" d="M622.51,307.38c77.94,0,84.68,124.15,84.68,124.15L713.91,540l-14.16.09L679,429.89l-17.77-70.84,28.29,181.13-12.89,0,28.13,325.48H696.9l24.77,26.1.17,5.28H659.28l.12-31.41-12.81,0L623.31,548.53,597,865.68l-13.06,0,.32,31.41H521.72v-5.44l30-26-12.85,0L567,540.18H554.1l27.95-179.9-18.22,70.59L544.42,540.12l-15.84.08,6.92-106s7.38-125.86,86.13-126.79h.88m0-10h-1c-36.7.44-65,24.74-81.86,70.28-12,32.3-14,64-14.14,65.88l-6.92,106-.7,10.71,10.73-.06,13.8-.07v0h13.66L528.89,864.82l-.69,8-13,11.28-3.46,3v20h82.67l-.1-10.11-.22-21.28H597l9.23,0,.76-9.2,15.71-189.58,13.91,189.49.68,9.29,9.31,0h2.75L649.28,897l0,10h83l-.35-10.34-.18-5.27-.13-3.79-2.61-2.76-13.77-14.51-.48-5.57L687.48,550.18h2l11.66,0v0L714,550l10.58-.06-.65-10.55L717.17,431c-.09-1.76-2-33.11-13.71-65-16.52-44.89-44.51-68.62-80.94-68.62Z"/><line class="cls-3" x1="561.6" y1="545.19" x2="681.85" y2="545.19"/><polyline class="cls-4" points="602.37 308.26 621.95 349.8 641.19 308.26"/><line class="cls-5" x1="621.95" y1="349.8" x2="621.95" y2="542.25"/><path id="_Trazado_" data-name="&lt;Trazado&gt;" class="cls-6" d="M597.28,260.67c0,16,10.52,29,23.5,29s23.5-13,23.5-29-10.52-29-23.5-29S597.28,244.65,597.28,260.67Z"/><rect class="cls-2" x="630.42" y="355.81" width="22.81" height="13.31" rx="2" ry="2"/></svg>