<svg id="Capa_1" data-name="Capa 1" xmlns="http://www.w3.org/2000/svg" viewBox="0 0 1300 1000"><defs><style>.cls-1,.cls-3,.cls-4{fill:#fff;}.cls-2{fill:#1d1d1b;}.cls-3,.cls-4,.cls-5,.cls-6,.cls-7{stroke:#1d1d1b;}.cls-3,.cls-4,.cls-5{stroke-miterlimit:10;}.cls-3{stroke-width:9.94px;}.cls-4,.cls-5,.cls-6,.cls-7{stroke-width:10px;}.cls-5,.cls-6,.cls-7{fill:none;}.cls-5,.cls-6{stroke-linecap:round;}.cls-6,.cls-7{stroke-linejoin:round;}</style></defs><title>Capa 2-Personajes y artefactos</title><path class="cls-1" d="M713.91,903.74l.08-31.61-12.93,0L679.53,611.48,658.46,872.09l-12.9,0,.44,31.6H570.78l.17-12.8,22.29-18.83-5.42,0L618.15,566.6H603.89l10-71.15-4,21.91-41.69-84.32.34-1.68a253.47,253.47,0,0,1,23.09-62.64c22.35-41.72,52.85-63.81,88.2-63.91.43,0,1.22-.08,2.34-.08,6.14,0,22.62,1.49,42.92,15.35C749.88,337,771.56,366,789.57,406.22L868.25,453l-6.6,24.18L765.9,433.94l-37-52.52L756,566.56l-14.17.12L771.66,872.1h-6l22.63,18.51,1.19,13.12ZM618.05,465.88,629,388.3l-23.14,41.26Z"/><path class="cls-2" d="M682.18,309.74c10.85,0,61.6,5.3,103.47,100l76.77,45.68-4,14.86L769.2,429.94l-48.3-68.52,29.3,200.19-13.9.12,29.85,305.38-14.48,0,31.82,26,.5,5.58H718.92l.09-31.6-13.34,0-26.2-317-25.62,317-13.37,0,.45,31.58H575.85l.07-5.45L607,867l-13.64.07L623.67,561.6h-14l28-199-37.23,66.41,13.32,39.55-6,33-34.24-69.24s24.71-122.54,106.63-122.54c0,0,.73-.08,2.1-.08m0-10c-1.12,0-2,0-2.55.08-37.22.18-69.16,23.19-92.4,66.55a258.85,258.85,0,0,0-23.58,64l-.68,3.35,1.52,3.06L598.72,506l6.72,13.58-5.7,40.6-1.6,11.4h14.49L583.39,866.12l-.84,8.48-13.08,11L566,888.59l-.06,4.57-.07,5.44-.13,10.14h85.35l-.14-10.14-.3-21.48h3.26l9.19,0,.74-9.16,15.76-195L695.7,867.93l.76,9.16,9.18,0H709l-.06,21.59,0,10H795l-1-10.91-.5-5.58-.38-4.18-3.25-2.65L777,874.9l-.86-8.76L747.31,571.63l3,0,11.47-.1-1.66-11.35L736.87,401.43,761,435.71l1.57,2.22,2.49,1.13,89.17,40.3,10.68,4.83,3.08-11.3L872.07,458l2-7.34-6.53-3.89-74.06-44.07c-18.26-40.35-40.31-69.53-65.56-86.77-21.45-14.64-39.13-16.22-45.74-16.22ZM611.26,430.07l9-16.11L616,444.25l-4.78-14.18Z"/><path id="_Trazado_" data-name="&lt;Trazado&gt;" class="cls-3" d="M657,262.75c0,16,10.52,29,23.5,29s23.5-13,23.5-29-10.53-29-23.5-29S657,246.73,657,262.75Z"/><line class="cls-4" x1="620.34" y1="566.72" x2="740.59" y2="566.72"/><polyline class="cls-5" points="659.23 308.93 678.81 350.47 698.05 308.93"/><path class="cls-2" d="M701,392.46h0a9,9,0,0,1-9-9h0a9,9,0,0,1,9-9h0a9,9,0,0,1,9,9h0A9,9,0,0,1,701,392.46Z"/><path class="cls-6" d="M650.56,409.55h-7.27l0-21c0-11.61,6.59-21,18.2-21h0c11.61,0,18.23,9.39,18.24,21l0,21h-7.09"/><line class="cls-7" x1="650.52" y1="315.09" x2="659.49" y2="364.21"/><line class="cls-7" x1="708.14" y1="310.59" x2="702.11" y2="375.71"/><rect class="cls-1" x="667.02" y="496.9" width="27" height="64.88"/></svg>