<svg id="Capa_1" data-name="Capa 1" xmlns="http://www.w3.org/2000/svg" viewBox="0 0 1300 1000"><defs><style>.cls-1,.cls-3{fill:#fff;stroke:#262626;stroke-miterlimit:10;}.cls-1{stroke-width:10px;}.cls-2{fill:#262626;}.cls-3{stroke-width:8px;}</style></defs><title>Capa 2-Personajes y artefactos</title><path id="_Trazado_" data-name="&lt;Trazado&gt;" class="cls-1" d="M1026,587.48l185.1,86.31a9.28,9.28,0,0,0,12.34-4.49h0a9.3,9.3,0,0,0-4.49-12.34l-185.1-86.31Z"/><path id="_Trazado_2" data-name="&lt;Trazado&gt;" class="cls-1" d="M1034.34,565.64h204.23a9.53,9.53,0,0,0,9.28-9.76h0a9.52,9.52,0,0,0-9.28-9.75H1034.34Z"/><path id="_Rectángulo_" data-name="&lt;Rectángulo&gt;" class="cls-1" d="M886.45,534.8h129a19,19,0,0,1,19,19V904.26a0,0,0,0,1,0,0H867.42a0,0,0,0,1,0,0V553.83A19,19,0,0,1,886.45,534.8Z"/><rect id="_Rectángulo_2" data-name="&lt;Rectángulo&gt;" class="cls-1" x="897.13" y="556.33" width="111.4" height="65.87" rx="14.27" ry="14.27"/><path id="_Trazado_3" data-name="&lt;Trazado&gt;" class="cls-1" d="M622.09,589.38l185.1,86.31a9.28,9.28,0,0,0,12.34-4.49h0a9.29,9.29,0,0,0-4.5-12.34L629.94,572.55Z"/><path id="_Trazado_4" data-name="&lt;Trazado&gt;" class="cls-1" d="M630.45,566.54H834.68a9.53,9.53,0,0,0,9.28-9.76h0a9.53,9.53,0,0,0-9.28-9.76H630.45Z"/><path id="_Rectángulo_3" data-name="&lt;Rectángulo&gt;" class="cls-1" d="M482.73,534.85h129a19,19,0,0,1,19,19V905.16a0,0,0,0,1,0,0H463.7a0,0,0,0,1,0,0V553.88A19,19,0,0,1,482.73,534.85Z"/><rect id="_Rectángulo_4" data-name="&lt;Rectángulo&gt;" class="cls-1" x="493.24" y="556.48" width="111.4" height="65.72" rx="14.27" ry="14.27"/><path id="_Trazado_5" data-name="&lt;Trazado&gt;" class="cls-1" d="M.33,837.64l416,.48c15,0,27.25-10.6,27.25-23.67V558.84c0-13.07-12.2-23.66-27.25-23.66l-416-.49"/><path id="_Trazado_6" data-name="&lt;Trazado&gt;" class="cls-1" d="M500.83,535h92.84V491.06H547.25c-25.64,0-46.42,19.65-46.42,43.89Z"/><path id="_Trazado_7" data-name="&lt;Trazado&gt;" class="cls-1" d="M905.55,534.8h92.84V490.91H952c-25.63,0-46.42,19.65-46.42,43.89Z"/><rect id="_Rectángulo_5" data-name="&lt;Rectángulo&gt;" class="cls-2" y="900" width="1300" height="100" transform="translate(1300 1900) rotate(180)"/><path id="_Trazado_8" data-name="&lt;Trazado&gt;" class="cls-3" d="M443.54,903.22h20V543.79a9.73,9.73,0,0,0-10-9.45h0a9.74,9.74,0,0,0-10,9.45Z"/></svg>