<svg id="Capa_1" data-name="Capa 1" xmlns="http://www.w3.org/2000/svg" viewBox="0 0 1300 1000"><defs><style>.cls-1,.cls-3,.cls-5,.cls-6{fill:#fff;}.cls-2{fill:#1d1d1b;}.cls-3,.cls-4,.cls-5,.cls-6{stroke:#1d1d1b;stroke-width:10px;}.cls-3,.cls-4,.cls-5{stroke-miterlimit:10;}.cls-4{fill:none;}.cls-4,.cls-5{stroke-linecap:round;}.cls-6{stroke-linejoin:round;}</style></defs><title>Capa 2-Personajes y artefactos</title><path class="cls-1" d="M702,904.8l.09-31.6-12.93,0L667.57,612.54,646.51,873.16l-12.91.05L634,904.8H558.83L559,892l22.29-18.84-5.39,0,30.33-325.53H591.81l11-68-7,38.24-39.6-83.83.33-1.62a253,253,0,0,1,23.09-62.65c22.35-41.71,52.85-63.81,88.2-63.9.43,0,1.22-.09,2.34-.09,6.14,0,22.62,1.5,42.92,15.36,24.77,16.91,46.46,45.88,64.47,86.13l78.68,46.82-6.61,24.18L753.94,435l-36.57-51.89,26.75,164.52-14.3.12,29.86,325.41h-6l22.63,18.51,1.2,13.12ZM604.72,467.9l12.63-78-23.54,40.88Z"/><path class="cls-2" d="M670.23,310.8c10.85,0,61.59,5.31,103.47,100l76.77,45.69-4.06,14.86L757.24,431,709,362.48l29.3,180.19-13.91.12L754.2,868.17l-14.48,0,31.81,26,.51,5.58H707l.08-31.59-13.33,0-26.2-317-25.62,317-13.37.06L629,899.8H563.9l.07-5.45L595,868.1l-13.64.07,30.33-325.5h-14l29-179-38.24,66.4,11.33,38.56-6,33L561.5,433.43s24.71-122.54,106.62-122.54a19.47,19.47,0,0,1,2.11-.09m0-10c-1.12,0-2,0-2.55.09-37.22.18-69.16,23.18-92.4,66.54a259.59,259.59,0,0,0-23.59,64L551,434.7l1.42,3,32.23,68.24,6.56,13.89-3.43,21.25-1.88,11.6h14.8L571.43,867.25l-.78,8.37-13.13,11.1L554,889.66l-.06,4.56-.07,5.45-.13,10.13h85.34L639,899.66l-.3-21.47,3.27,0,9.18,0,.74-9.16,15.77-195.06L683.75,869l.76,9.15,9.18,0H697L697,899.77l0,10H783l-1-10.91-.51-5.57-.38-4.18-3.25-2.66L765,875.92l-.8-8.66L735.3,552.7l3,0,11.65-.09-1.87-11.51L725.79,403.74l23.28,33,1.57,2.23,2.48,1.12,89.17,40.31L853,485.26,856.06,474l4.06-14.86,2-7.34-6.54-3.89L781.53,403.8C763.26,363.45,741.21,334.26,716,317c-21.46-14.65-39.14-16.23-45.74-16.23Zm-71,130.6,8.84-15.35-4.74,29.29-4.1-13.94Z"/><line class="cls-3" x1="607.69" y1="547.75" x2="727.94" y2="547.75"/><line class="cls-3" x1="607.69" y1="548.73" x2="727.94" y2="548.73"/><polyline class="cls-4" points="647.46 312.8 667.04 354.34 686.28 312.8"/><line class="cls-5" x1="668.04" y1="352.34" x2="668.04" y2="544.79"/><path id="_Trazado_" data-name="&lt;Trazado&gt;" class="cls-6" d="M642.75,263.17c0,16.05,10.62,29.07,23.73,29.07s23.73-13,23.73-29.07-10.63-29.07-23.73-29.07S642.75,247.11,642.75,263.17Z"/><polygon class="cls-1" points="643.67 239.12 632.88 221.1 666.68 207.62 700.71 222.13 690.38 239.12 643.67 239.12"/><path class="cls-2" d="M666.62,213l26.82,11.44-5.87,9.65H646.5l-6.31-10.55L666.62,213m.13-10.82-3.83,1.53-26.44,10.54-10.9,4.35,6,10.08,6.31,10.54,2.91,4.87h52.36l2.92-4.81,5.87-9.65,6-9.86-10.62-4.53-26.81-11.44-3.8-1.62Z"/><path class="cls-1" d="M666.6,258.9c-9.3,0-16.26-2.38-20.69-7.08a16.65,16.65,0,0,1-4.62-11.75l.28-4.7h50.64l.14,4.85a16.94,16.94,0,0,1-4.93,11.65C682.88,256.54,675.88,258.9,666.6,258.9Z"/><path class="cls-2" d="M687.35,240.37s.39,13.53-20.75,13.53-20.32-13.53-20.32-13.53h41.07m9.72-10h-60.2l-.57,9.4a21.6,21.6,0,0,0,6,15.48c5.42,5.74,13.6,8.65,24.33,8.65S685.49,261,691,255.35a21.91,21.91,0,0,0,6.34-15.27l-.28-9.71Z"/></svg>