<svg id="Capa_1" data-name="Capa 1" xmlns="http://www.w3.org/2000/svg" viewBox="0 0 1300 1000"><defs><style>.cls-1,.cls-3{fill:#fff;}.cls-2{fill:#1d1d1b;}.cls-3{stroke:#1d1d1b;stroke-miterlimit:10;stroke-width:9.94px;}</style></defs><title>Capa 2-Personajes y artefactos</title><path class="cls-1" d="M682.47,902.73l.13-31.4-12.44,0-18.93-258-21.38,258-12.61,0,.32,31.4H544.94V890l21.55-18.65h-4.87l28.13-325.5H576.48v-.08l-25,.13,7.27-111.37c.07-1.28,2-32.55,13.83-64.46,16.08-43.43,42.78-66.6,77.23-67h.94c34.15,0,60.52,22.59,76.26,65.34,11.55,31.38,13.34,62.23,13.41,63.53l7.05,113.74-23.62.14-1.78-9.41,1.47,9.44-13.27,0,28.13,325.49h-1.63l18.07,19,.41,12.34Z"/><path class="cls-2" d="M650.73,308.06c77.94,0,84.68,124.14,84.68,124.14l6.72,108.51-14.16.08-20.8-110.23L689.4,359.72l28.28,181.13-12.88,0,28.13,325.48h-7.81l24.76,26.11.18,5.27H687.5l.12-31.41-12.81,0L651.53,549.21,625.25,866.35l-13.06,0,.32,31.41H549.94v-5.44l30-25.95H567.07l28.13-325.5H582.32L610.27,361l-18.22,70.59L572.63,540.79l-15.83.08,6.92-106S571.1,309,649.85,308.06h.88m0-10h-1c-36.69.44-65,24.74-81.86,70.28-12,32.3-14,64-14.13,65.88l-6.92,106-.7,10.71,10.73-.06,13.8-.07v0H584.3L557.11,865.49l-.69,8-13,11.28-3.45,3v20h82.67l-.1-10.11-.22-21.28h2.94l9.23,0,.76-9.2,15.7-189.58,13.92,189.49.68,9.29,9.31,0h2.75l-.08,21.35,0,10H760.4l-.34-10.34-.18-5.27-.13-3.79-2.61-2.76-13.77-14.51-.48-5.57L715.7,550.85h2l11.66,0v-.05l12.83-.07,10.58-.07-.66-10.55-6.72-108.46c-.1-1.76-2-33.11-13.71-65-16.52-44.89-44.51-68.61-80.94-68.61Z"/><path id="_Trazado_" data-name="&lt;Trazado&gt;" class="cls-3" d="M625.5,261.34c0,16,10.52,29,23.5,29s23.5-13,23.5-29-10.52-29-23.5-29S625.5,245.32,625.5,261.34Z"/></svg>