<svg id="Capa_1" data-name="Capa 1" xmlns="http://www.w3.org/2000/svg" viewBox="0 0 1300 1000"><defs><style>.cls-1{fill:none;}.cls-1,.cls-3{stroke:#262626;stroke-miterlimit:10;stroke-width:10px;}.cls-2{fill:#262626;}.cls-3{fill:#fff;}</style></defs><title>Capa 2-Personajes y artefactos</title><path id="_Rect치ngulo_" data-name="&lt;Rect치ngulo&gt;" class="cls-1" d="M691.44,178.67h555a0,0,0,0,1,0,0v700a25,25,0,0,1-25,25h-505a25,25,0,0,1-25-25v-700A0,0,0,0,1,691.44,178.67Z" transform="translate(1937.88 1082.34) rotate(180)"/><rect id="_Rect치ngulo_2" data-name="&lt;Rect치ngulo&gt;" class="cls-2" y="900" width="1300" height="100"/><path id="_Trazado_" data-name="&lt;Trazado&gt;" class="cls-3" d="M1241.54,676.81l-108.35.79a15,15,0,0,0-14.89,15v39.81a5,5,0,0,1-5,5h-85.58a15,15,0,0,0-15,15v39.71a5,5,0,0,1-5,5H918.09a15,15,0,0,0-15,15v31.57a5,5,0,0,1-5,5H801.54a15,15,0,0,0-15,15v40.12l455,.78"/></svg>