<svg id="Capa_1" data-name="Capa 1" xmlns="http://www.w3.org/2000/svg" viewBox="0 0 1300 1000"><defs><style>.cls-1,.cls-3,.cls-5,.cls-6,.cls-7{fill:#fff;}.cls-2{fill:#1d1d1b;}.cls-3,.cls-4,.cls-5,.cls-6{stroke:#1d1d1b;}.cls-3,.cls-6,.cls-7{stroke-miterlimit:10;}.cls-3,.cls-4,.cls-5,.cls-7{stroke-width:10px;}.cls-4{fill:none;}.cls-4,.cls-5{stroke-linecap:round;stroke-linejoin:round;}.cls-6{stroke-width:9.94px;}.cls-7{stroke:#262626;}.cls-8{fill:#262626;}</style></defs><title>Capa 2-Personajes y artefactos</title><path class="cls-1" d="M1183.84,976.43,1184,945l-12.44,0-18.94-258-21.37,258-12.62,0,.32,31.39H1046.3V963.71l21.56-18.65H1063l28.12-325.5h-13.27l0-.07-25,.13,7.26-111.37c.08-1.29,2-32.55,13.84-64.46,16.07-43.43,42.78-66.6,77.23-67h.93c34.15,0,60.52,22.6,76.26,65.35,11.56,31.38,13.35,62.23,13.42,63.53l7,113.74-23.63.14-1.77-9.41,1.47,9.43-13.27,0,28.12,325.48h-1.62l18.06,19.05.42,12.33Z"/><path class="cls-2" d="M1152.09,381.76c77.94,0,84.68,124.15,84.68,124.15l6.73,108.5-14.17.09-20.79-110.24-17.77-70.83,28.28,181.12-12.88,0,28.12,325.47h-7.8l24.76,26.1.18,5.27h-62.57L1189,940l-12.82,0-23.28-317.14-26.27,317.14-13.07,0,.32,31.4H1051.3V966l30-26h-12.85l28.12-325.49h-12.88l28-179.89-18.22,70.59L1074,614.5l-15.83.08,6.91-106s7.39-125.86,86.14-126.79h.87m0-10h-1c-36.7.43-65,24.73-81.86,70.27-12,32.31-14,64-14.14,65.89l-6.91,106-.7,10.71,10.73-.06,13.8-.07v0h13.65l-27.19,314.64-.68,8-13,11.28-3.46,3v20H1124l-.1-10.1-.22-21.28h2.95l9.22,0,.76-9.19,15.71-189.59,13.91,189.5.68,9.28,9.32,0H1179l-.09,21.34,0,10h83l-.35-10.33-.18-5.27-.12-3.8-2.62-2.75-13.76-14.51-.48-5.58-27.2-314.63h2l11.66,0v0l12.84-.08,10.57-.06-.65-10.56-6.72-108.46c-.1-1.74-2-33.1-13.71-64.95-16.53-44.89-44.52-68.62-80.94-68.62Z"/><line class="cls-3" x1="1091.19" y1="619.57" x2="1211.44" y2="619.57"/><polyline class="cls-4" points="1131.96 382.63 1151.54 424.18 1170.77 382.63"/><line class="cls-5" x1="1151.54" y1="424.18" x2="1151.54" y2="616.63"/><path id="_Trazado_" data-name="&lt;Trazado&gt;" class="cls-6" d="M1126.87,335.05c0,16,10.52,29,23.5,29s23.5-13,23.5-29-10.53-29-23.5-29S1126.87,319,1126.87,335.05Z"/><rect class="cls-2" x="1160.01" y="430.19" width="22.81" height="13.31" rx="2" ry="2"/><rect id="_Rectángulo_" data-name="&lt;Rectángulo&gt;" class="cls-7" x="836.65" y="505.61" width="458.41" height="400" transform="translate(2131.71 1411.21) rotate(180)"/><rect id="_Rectángulo_2" data-name="&lt;Rectángulo&gt;" class="cls-8" y="900" width="1300" height="100"/><path id="_Rectángulo_3" data-name="&lt;Rectángulo&gt;" class="cls-7" d="M813.65,493.34h481.41a0,0,0,0,1,0,0v67.25a0,0,0,0,1,0,0H813.65a25,25,0,0,1-25-25V518.34A25,25,0,0,1,813.65,493.34Z"/></svg>