<svg id="Capa_1" data-name="Capa 1" xmlns="http://www.w3.org/2000/svg" viewBox="0 0 1300 1000"><defs><style>.cls-1,.cls-3,.cls-4{fill:#fff;}.cls-2{fill:#1d1d1b;}.cls-3,.cls-4,.cls-5,.cls-6,.cls-7{stroke:#1d1d1b;}.cls-3,.cls-4,.cls-5{stroke-miterlimit:10;}.cls-3{stroke-width:9.94px;}.cls-4,.cls-5,.cls-6,.cls-7{stroke-width:10px;}.cls-5,.cls-6,.cls-7{fill:none;}.cls-5,.cls-6{stroke-linecap:round;}.cls-6,.cls-7{stroke-linejoin:round;}</style></defs><title>Capa 2-Personajes y artefactos</title><path class="cls-1" d="M692.77,901.5l.25-31H680.31L661.78,613.41,640.65,870.47h-13l.21,31H553.25l0-12.91,22.42-18.05-3.64,0,28.08-305.47H587.22l8.28-66.46-3,19.35-39.74-85.76.3-1.58a259.16,259.16,0,0,1,22-62.34c21.46-41.73,50.86-64,85-64.41h.95c33.91,0,63.15,22.16,84.53,64.08a262.49,262.49,0,0,1,22,62.68l.3,1.58L728.16,518l-7-44.68,10.33-44.38-23-42,25,178.14h-13l28.12,305.47-5.72,0,21.82,17.84,1.15,13.12ZM599,470.56l10.1-81.05-20,39.34Z"/><path class="cls-2" d="M661.06,308.83c78.05,0,101.63,122.7,101.63,122.7l-32.14,69.4-4.28-27.42,10.54-45.29L699.72,360.5l28,199.54-12.76,0,28.12,305.48-14.19.06,31,25.32.49,5.58H697.81l.25-31H685L662.11,548.39,636.05,865.47H622.61l.21,31H558.26V891L589.8,865.6l-12.27-.06,28.08-305.48-12.73,0,24.71-198.31-33.76,66.49L594.43,473l-4.35,27.87L558,431.53s23.47-121.76,102.22-122.69h.89m0-10v0h-1c-36.14.43-67.06,23.64-89.42,67.12a264.74,264.74,0,0,0-22.5,63.68l-.61,3.17,1.36,2.93L581,505.07l6.81,14.7-4.86,39L581.56,570h13.09L567.57,864.63l-.6,6.51L552,883.2l-3.72,3v10.28l0,10h84.65l-.07-10.07-.14-21h12.58l.75-9.18,15.45-187.85L675,866.26l.67,9.28H688l-.17,20.87-.08,10.08h83.56l-.95-10.87-.49-5.58-.37-4.2-3.26-2.67-12.38-10.12-.77-8.43L726,570.05h13.31l-1.6-11.38-5.31-37.79,7.28-15.73,32.13-69.4,1.36-2.92-.61-3.17a268,268,0,0,0-22.46-64c-22.3-43.71-53.07-66.81-89-66.81Zm61,148.71-4.81-34.24,9,16.37-4.15,17.87ZM594.4,429.48l6.19-12.18-3.13,25.09-3.06-12.91Z"/><path id="_Trazado_" data-name="&lt;Trazado&gt;" class="cls-3" d="M635.81,259.93c0,16,10.53,29,23.5,29s23.5-13,23.5-29-10.52-29-23.5-29S635.81,243.91,635.81,259.93Z"/><line class="cls-4" x1="598.35" y1="565.06" x2="718.6" y2="565.06"/><polyline class="cls-5" points="639.12 308.13 658.7 349.67 677.94 308.13"/><path class="cls-2" d="M680.85,389.28h0a9,9,0,0,1-9-9h0a9,9,0,0,1,9-9h0a9,9,0,0,1,9,9h0A9,9,0,0,1,680.85,389.28Z"/><path class="cls-6" d="M630.39,406.36h-7.27l0-21c0-11.61,6.59-21,18.2-21.05h0c11.61,0,18.23,9.39,18.24,21l0,21h-7.09"/><line class="cls-7" x1="630.35" y1="311.91" x2="639.32" y2="361.03"/><line class="cls-7" x1="687.97" y1="312.41" x2="681.94" y2="372.53"/><rect class="cls-1" x="648.82" y="495.14" width="27" height="64.88"/></svg>