<svg id="Capa_1" data-name="Capa 1" xmlns="http://www.w3.org/2000/svg" viewBox="0 0 1300 1000"><defs><style>.cls-1,.cls-3,.cls-5,.cls-6{fill:#fff;}.cls-2{fill:#1d1d1b;}.cls-3,.cls-4,.cls-5,.cls-6{stroke:#1d1d1b;stroke-width:10px;}.cls-3{stroke-miterlimit:10;}.cls-4{fill:none;}.cls-4,.cls-5{stroke-linecap:round;}.cls-4,.cls-5,.cls-6{stroke-linejoin:round;}</style></defs><title>Capa 2-Personajes y artefactos</title><g id="_Grupo_" data-name="&lt;Grupo&gt;"><path class="cls-1" d="M688.28,902.58l-.22-31.65H675.39L653.88,610.69,633.1,870.94H620.22l0,31.65H545.17V890l24.21-19.1h-6.84l29.28-325.5H578.09l5.08-31.36-40.64-82.18.34-1.67A253.94,253.94,0,0,1,566,367.57c22.38-41.75,52.91-63.84,88.3-63.9.25,0,.72,0,1.42,0,9.52,0,57.78,3.37,95.52,68.24l58.12-56L829,329.1l-74.83,99.21-51.43-53.12L730.4,545.43H716.66l29.28,325.5h-4.82L763.21,890l.18,12.6ZM591.55,462.29l12.08-74.63-23.48,40.78Z"/><path class="cls-2" d="M655.68,308.64c8.46,0,57.31,3.06,94.33,71.33l59.87-57.67,11.92,8-68.12,90.34-58.45-60.38,29.29,180.17H711.19l29.28,325.49H727.66l30.58,26.37.08,5.28H693.24L693,865.93H680l-26.2-317-25.3,317H615.22l0,31.65H550.17v-5.12l33.62-26.53H568L597.3,540.44H584l29-178.94L574.69,427.9,588,467.45l-6,33-34.24-69.24S572.48,308.67,654.4,308.67c0,0,.44,0,1.28,0m0-10c-.68,0-1.2,0-1.54,0-37.3.1-69.31,23.11-92.59,66.54a259.8,259.8,0,0,0-23.58,64l-.67,3.35,1.51,3.06,34.24,69.24,4.93,10-3.88,24-1.88,11.59h14.14L558.06,865l-.82,9.1L544,884.61l-3.8,3v20h85.1v-10l0-21.64h12.49l.73-9.21L654,672.45l16,194.31.76,9.18h12.31l.15,21.72.07,9.93h85.15l-.14-10.14-.08-5.28-.06-4.5-3.41-2.93L751.15,873l-.72-7.93-28.3-314.61h14.15l-1.89-11.6L710.21,390.12l36.28,37.47,8.13,8.4,7-9.33,68.13-90.33,6.36-8.44L827.38,322l-11.92-8-6.7-4.49L803,315.1l-50.7,48.83c-38.63-62-86.84-65.29-96.57-65.29ZM585.61,429l8.71-15.14-4.48,27.71L585.61,429Z"/></g><line class="cls-3" x1="716.33" y1="544.44" x2="596.08" y2="544.44"/><polyline class="cls-4" points="675.43 308.69 655.85 350.23 636.61 308.69"/><line class="cls-5" x1="655.85" y1="350.23" x2="655.85" y2="542.68"/><path id="_Trazado_" data-name="&lt;Trazado&gt;" class="cls-6" d="M679.27,260.17c0,16.06-10.63,29.07-23.73,29.07s-23.73-13-23.73-29.07,10.62-29.07,23.73-29.07S679.27,244.12,679.27,260.17Z"/><polygon class="cls-1" points="631.63 236.12 621.3 219.14 655.33 204.62 689.13 218.11 678.35 236.12 631.63 236.12"/><path class="cls-2" d="M655.39,210l26.44,10.55-6.32,10.54H634.45l-5.87-9.65L655.39,210m-.12-10.82-3.8,1.62-26.82,11.44L614,216.8l6,9.87,5.87,9.65,2.92,4.8h52.36l2.91-4.86,6.32-10.55,6-10.07-10.91-4.35L659.1,200.74l-3.83-1.53Z"/><path class="cls-1" d="M655.41,255.91c-9.27,0-16.28-2.37-20.82-7a17,17,0,0,1-4.92-11.64l.14-4.85h50.63l.28,4.7a16.58,16.58,0,0,1-4.62,11.74C671.67,253.53,664.71,255.91,655.41,255.91Z"/><path class="cls-2" d="M675.73,237.38s.81,13.53-20.32,13.53-20.74-13.53-20.74-13.53h41.06m9.42-10H625l-.28,9.71A21.86,21.86,0,0,0,631,252.36c5.51,5.67,13.72,8.55,24.4,8.55s18.92-2.91,24.33-8.66a21.49,21.49,0,0,0,6-15.47l-.56-9.4Z"/></svg>