<svg id="Capa_1" data-name="Capa 1" xmlns="http://www.w3.org/2000/svg" viewBox="0 0 1300 1000"><defs><style>.cls-1,.cls-2{fill:#fff;}.cls-1{stroke:#1d1d1b;stroke-miterlimit:10;stroke-width:10px;}.cls-3{fill:#262626;}</style></defs><title>Capa 2-Personajes y artefactos</title><path id="_Trazado_" data-name="&lt;Trazado&gt;" class="cls-1" d="M574.76,265c0,16,10.53,29,23.5,29s23.5-13,23.5-29-10.52-29-23.5-29S574.76,249,574.76,265Z"/><polygon class="cls-2" points="605.01 351.76 623.78 318.08 745.14 520.05 723.12 535.38 605.01 351.76"/><path class="cls-3" d="M624,328.06,738.44,518.62l-13.92,9.69L610.84,351.58,624,328.06m-.33-20-8.41,15.09L602.1,346.71l-2.92,5.23,3.25,5.05L716.11,533.72l5.61,8.72,8.51-5.92,13.92-9.69,7.68-5.34-4.82-8L632.52,322.91l-8.9-14.81Z"/><polygon class="cls-2" points="794.25 795.23 788.31 757 784.67 762.37 658.18 719.67 602.99 537.62 681.42 536.58 714.74 674.8 823.8 706.15 814.81 720.66 843.94 735.1 805.56 800.92 794.25 795.23"/><path class="cls-3" d="M677.49,541.63,710.56,678.8l105.51,30.33-8.41,13.57,29.26,14.5-33.31,57.14-4.82-2.42-7.49-48.23-8.64,12.73L662.21,715.76,609.7,542.53l67.79-.9m7.85-10.1-8,.1-67.79.9-13.3.18,3.86,12.72,52.52,173.23,1.49,4.93,4.88,1.65,120.45,40.65,5.44,1.84,4,25.72.79,5.09,4.6,2.31,4.82,2.42,8.4,4.23,4.73-8.12,33.31-57.14L851,733l-9.59-4.76L822,718.62l2.62-4.22,7-11.23-12.7-3.65L718.92,670.8,687.21,539.29l-1.87-7.76Z"/><path class="cls-2" d="M513.23,904.42V892.58l23.34-19.67-4.89,0L542,701.55l53.39-152.27-29.67.4-.4-4.62a810.4,810.4,0,0,1-1.74-88.9c2.38-65,12.69-112.14,30.64-140.24a20.17,20.17,0,0,1,17-9.51c9.47,0,17.38,6.43,21.17,17.22l76,226.1-32.43-.5L612.51,712,600.66,872.77l-11.8,0,.41,31.61Z"/><path class="cls-3" d="M611.21,311.41c6.39,0,13.06,4.21,16.45,13.88l73.71,219.33-28.83-.44-65,166.71L596,867.79l-12.22,0,.41,31.6h-66V894.9l32.13-27.08-13.37.09,9.94-165.36,55.53-158.37-32.18.44s-14-160.08,28.13-226a15.25,15.25,0,0,1,12.8-7.2m0-10A25.19,25.19,0,0,0,590,313.23c-18.43,28.86-29,76.89-31.42,142.74a799,799,0,0,0,1.76,89.52l.8,9.26,9.3-.13,17.86-.24L537.49,699.24l-.46,1.31L537,702,527,867.31l-.45,7.49-14.77,12.45-3.56,3v19.17h86.11l-.13-10.13-.28-21.5h2.12l9.26,0,.68-9.24,11.45-155.4,61.89-158.83,21.89.33,14.14.22-4.51-13.4L637.14,322.1l0-.06,0-.07c-4.46-12.68-14.37-20.56-25.89-20.56Z"/><path class="cls-2" d="M612.53,338.21c.15,58.25-28.88,106.33-28.88,106.33l-55.6,93-20-11.87,48.05-105.85S577.82,343.44,598,319.24"/><path class="cls-3" d="M612.53,338.21c.24,4.57.34,9.17.2,13.77s-.45,9.19-.89,13.78-1.11,9.16-1.89,13.71-1.73,9.08-2.81,13.58A233.5,233.5,0,0,1,599,419.6c-1.62,4.34-3.31,8.67-5.22,12.91s-3.9,8.43-6.13,12.59l-6.84,12c-2.28,4-4.53,8-6.84,11.91l-13.81,23.74c-4.6,7.91-9.2,15.82-13.87,23.7l-14,23.63-2.53,4.26-4.28-2.54-20-11.86-3.85-2.28,1.86-4.06c4-8.82,8-17.64,12.1-26.43L521.73,484l6.15-13.16,12.33-26.32,3.1-6.57,3.14-6.56,6.26-13.11-.19.53c1.37-4.43,2.79-8.76,4.24-13.11s3-8.66,4.56-13,3.18-8.6,4.83-12.87,3.33-8.54,5.14-12.75,3.62-8.42,5.55-12.58,3.91-8.3,6.07-12.35c1.06-2,2.17-4,3.3-6s2.31-4,3.54-5.91l1.9-2.87c.64-1,1.33-1.87,2-2.8s1.4-1.82,2.1-2.72,1.5-1.73,2.25-2.59c-.65.94-1.32,1.86-1.94,2.81s-1.23,1.92-1.8,2.9-1.14,2-1.69,3l-1.58,3L589.46,334,588,337.06c-.94,2.06-1.87,4.13-2.74,6.23s-1.73,4.2-2.58,6.3-1.67,4.22-2.46,6.35q-2.41,6.36-4.61,12.82l-2.18,6.45-2.13,6.47q-2.1,6.48-4.07,13c-1.32,4.34-2.56,8.71-3.84,13.07s-2.51,8.74-3.66,13.08l0,.21-.14.32-5.75,13.35-2.87,6.68L548,448.05l-11.7,26.61L530.46,488l-5.92,13.26c-3.94,8.86-7.94,17.68-11.93,26.51l-2-6.35,20,11.88-6.8,1.73L538,511.47q7.1-11.75,14.32-23.43l14.37-23.4c2.38-3.91,4.83-7.78,7.25-11.66l7.22-11.59c2.25-3.81,4.38-7.81,6.37-11.84s3.93-8.13,5.71-12.28,3.49-8.35,5.07-12.59,3-8.55,4.37-12.87,2.57-8.7,3.69-13.1c.52-2.21,1.08-4.41,1.53-6.64s.94-4.45,1.38-6.68c.83-4.48,1.54-9,2.06-13.51S612.22,342.79,612.53,338.21Z"/></svg>