<svg id="Capa_1" data-name="Capa 1" xmlns="http://www.w3.org/2000/svg" viewBox="0 0 1300 1000"><defs><style>.cls-1{fill:#fff;}.cls-1,.cls-2{stroke:#262626;stroke-miterlimit:10;stroke-width:10px;}.cls-2{fill:none;}.cls-3{fill:#262626;}</style></defs><title>Capa 2-Personajes y artefactos</title><path id="_Trazado_" data-name="&lt;Trazado&gt;" class="cls-1" d="M1148.39,904.68H4.75v-832H1105.17A83,83,0,0,1,1188,150.3l43.23,666A83,83,0,0,1,1148.39,904.68Z"/><path id="_Trazado_2" data-name="&lt;Trazado&gt;" class="cls-2" d="M1217,601.32H801.47c-9.62,0-17.42-8.32-17.42-18.58V208.51c0-10.26,7.8-18.58,17.42-18.58h389.65Z"/><path id="_Trazado_3" data-name="&lt;Trazado&gt;" class="cls-2" d="M2.75,189.31H310.68c9.68,0,17.52,8.29,17.52,18.52V582.17c0,10.23-7.84,18.53-17.52,18.53H2.75"/><path id="_Trazado_4" data-name="&lt;Trazado&gt;" class="cls-2" d="M1225.63,810.39a58.51,58.51,0,0,1-6.87-116.81"/><path id="_Trazado_5" data-name="&lt;Trazado&gt;" class="cls-2" d="M1187.12,189.84h35.51a45.72,45.72,0,0,1,45.73,45.73h0"/><line id="_Trazado_6" data-name="&lt;Trazado&gt;" class="cls-1" x1="1225.53" y1="842.62" y2="842.62"/><path id="_Rectángulo_" data-name="&lt;Rectángulo&gt;" class="cls-1" d="M414,187.73H696.42a15,15,0,0,1,15,15V898.2a0,0,0,0,1,0,0H399a0,0,0,0,1,0,0V202.73A15,15,0,0,1,414,187.73Z"/><rect id="_Rectángulo_2" data-name="&lt;Rectángulo&gt;" class="cls-2" x="429.72" y="218.57" width="250.96" height="392.58" rx="10" ry="10"/><path id="_Trazado_7" data-name="&lt;Trazado&gt;" class="cls-1" d="M888.67,984h0A110.57,110.57,0,0,1,778.09,873.39v-1.58A110.58,110.58,0,0,1,888.67,761.23h0A110.57,110.57,0,0,1,999.24,871.81v1.58A110.57,110.57,0,0,1,888.67,984Z"/><path id="_Trazado_8" data-name="&lt;Trazado&gt;" class="cls-1" d="M888.67,942.4h0a67.13,67.13,0,0,1-67.14-67.13h0a67.14,67.14,0,0,1,67.14-67.14h0a67.13,67.13,0,0,1,67.13,67.14h0A67.12,67.12,0,0,1,888.67,942.4Z"/><rect id="_Rectángulo_3" data-name="&lt;Rectángulo&gt;" class="cls-3" y="900" width="1300" height="100"/><rect id="_Rectángulo_4" data-name="&lt;Rectángulo&gt;" class="cls-1" x="1244.96" y="224.57" width="46.8" height="191.96" rx="15" ry="15"/></svg>