<svg id="Capa_1" data-name="Capa 1" xmlns="http://www.w3.org/2000/svg" viewBox="0 0 1300 1000"><defs><style>.cls-1{fill:#fff;}.cls-1,.cls-3{stroke:#262626;stroke-miterlimit:10;stroke-width:10px;}.cls-2{fill:#262626;}.cls-3{fill:none;}</style></defs><title>Capa 2-Personajes y artefactos</title><path id="_Rectángulo_" data-name="&lt;Rectángulo&gt;" class="cls-1" d="M559.51,764.1H660a0,0,0,0,1,0,0V950a43.36,43.36,0,0,1-43.36,43.36H602.87A43.36,43.36,0,0,1,559.51,950V764.1A0,0,0,0,1,559.51,764.1Z"/><path id="_Rectángulo_2" data-name="&lt;Rectángulo&gt;" class="cls-1" d="M1071.81,762.94H1172.3a0,0,0,0,1,0,0V948.86a43.36,43.36,0,0,1-43.36,43.36h-13.77a43.36,43.36,0,0,1-43.36-43.36V762.94A0,0,0,0,1,1071.81,762.94Z"/><rect id="_Rectángulo_3" data-name="&lt;Rectángulo&gt;" class="cls-2" y="899" width="500" height="101" transform="translate(500 1899) rotate(180)"/><rect id="_Rectángulo_4" data-name="&lt;Rectángulo&gt;" class="cls-1" x="511.79" y="73.94" width="709.13" height="821.09" rx="25" ry="25"/><rect id="_Rectángulo_5" data-name="&lt;Rectángulo&gt;" class="cls-1" x="541.09" y="190.58" width="650.54" height="408.96" rx="15" ry="15"/><rect id="_Rectángulo_6" data-name="&lt;Rectángulo&gt;" class="cls-1" x="440.09" y="223.92" width="71.84" height="190.09" rx="15" ry="15"/><path id="_Trazado_" data-name="&lt;Trazado&gt;" class="cls-3" d="M1218,190.46a39.08,39.08,0,0,1,39.08,39.08h0"/><path id="_Trazado_2" data-name="&lt;Trazado&gt;" class="cls-3" d="M515.16,189.56a39.07,39.07,0,0,0-39.07,39.08h0"/><g id="_Grupo_" data-name="&lt;Grupo&gt;"><path id="_Trazado_3" data-name="&lt;Trazado&gt;" class="cls-1" d="M667.85,753.67a57.94,57.94,0,1,1-57.94-57.93A57.94,57.94,0,0,1,667.85,753.67Z"/><path id="_Trazado_4" data-name="&lt;Trazado&gt;" class="cls-1" d="M1181.15,753.67a57.94,57.94,0,1,1-57.94-57.93A57.94,57.94,0,0,1,1181.15,753.67Z"/></g><line id="_Trazado_5" data-name="&lt;Trazado&gt;" class="cls-1" x1="1224.13" y1="842.98" x2="509.21" y2="842.98"/><rect id="_Rectángulo_7" data-name="&lt;Rectángulo&gt;" class="cls-1" x="1220.99" y="224.19" width="71.84" height="190.09" rx="15" ry="15"/></svg>