<svg id="Capa_1" data-name="Capa 1" xmlns="http://www.w3.org/2000/svg" viewBox="0 0 1300 1000"><defs><style>.cls-1,.cls-2{fill:#fff;}.cls-1{stroke:#1d1d1b;stroke-miterlimit:10;stroke-width:10px;}.cls-3{fill:#262626;}</style></defs><title>Capa 2-Personajes y artefactos</title><path id="_Trazado_" data-name="&lt;Trazado&gt;" class="cls-1" d="M625,265c0,16,10.52,29,23.5,29S672,281,672,265s-10.53-29-23.5-29S625,249,625,265Z"/><polygon class="cls-2" points="510.03 878.34 519.28 862.75 504.24 862.75 578.36 698.82 593.37 536.61 677.5 546.25 643.4 727.75 586.99 862.75 571.98 862.75 587.63 891.32 578.73 903.84 510.03 878.34"/><path class="cls-3" d="M597.88,542.16l73.71,8.44-33,175.7L583.66,857.75H563.53L581.74,891l-4.86,6.85-59.49-22.08,10.66-18H512l71.27-157.63,14.62-158m-9-11.1-1,10.18L573.45,697.53l-70.57,156.1-6.38,14.12h14l-1.71,2.89L502.67,881l11.24,4.17,59.49,22.07,7.19,2.67,4.44-6.25,4.86-6.84,3.63-5.11-3-5.49-10.09-18.42h9.9l2.56-6.14,54.93-131.45.4-1,.2-1,33-175.7,2-10.56-10.67-1.22L599,532.23l-10.15-1.17Z"/><polygon class="cls-2" points="517.34 518.73 638.55 316.99 657.31 350.64 539.35 534.04 517.34 518.73"/><path class="cls-3" d="M638.39,327l13.1,23.49L537.94,527,524,517.29,638.39,327m.33-20-8.9,14.81L515.46,512.14l-4.81,8,7.68,5.34,13.9,9.68,8.52,5.92,5.6-8.72L659.9,355.86l3.24-5-2.92-5.23L647.13,322.1,638.72,307Z"/><path class="cls-2" d="M719.77,904.83l.3-32.05-12.43.06L663.38,699.05,600.17,549H556.93l62.21-220.64c5.6-19.66,18.35-21.19,22.12-21.19a19.25,19.25,0,0,1,16.12,9.19c17.86,28,30.27,74.86,36.88,139.35,4.89,47.73,4.61,87.93,4.61,88.33l0,5H679l55.51,138.61,43.76,185.25h-7.14l21.59,18v13.94Z"/><path class="cls-3" d="M641.26,312.17a14.29,14.29,0,0,1,11.91,6.88c42,65.85,40.7,225,40.7,225H671.59l58.12,145.13,42.23,178.73H757.33l30.37,25.37v6.6H724.82l.29-32.08-13.59.07L668.13,697.46,603.48,544h-40L624,329.72c3.55-12.44,10.67-17.55,17.31-17.55m0-10A24.13,24.13,0,0,0,624.65,309c-4.67,4.32-8.14,10.39-10.32,18L553.91,541.29,550.32,554h46.53l61.78,146.65,43.21,169.64,1.92,7.57,7.82,0H715l-.2,21.93-.09,10.09h83V888.55l-3.59-3-9.61-8-2.83-12L739.44,686.83l-.17-.73-.28-.69L686.37,554h17.41l.09-9.91c0-1.65.28-40.88-4.64-88.89-6.69-65.28-19.35-112.89-37.63-141.53a24.23,24.23,0,0,0-20.34-11.5Z"/><path class="cls-2" d="M636.25,335.11c-.15,58.18,28.85,106.2,28.85,106.2l55.53,92.88,20-11.86-48-105.71s-21.66-76.29-41.81-100.46"/><path class="cls-3" d="M636.25,335.11c.31,4.57.61,9.13,1.22,13.65s1.23,9,2.06,13.49c.43,2.23.87,4.46,1.38,6.68s1,4.42,1.52,6.63c1.12,4.39,2.32,8.76,3.69,13.08s2.8,8.61,4.37,12.85,3.26,8.44,5.06,12.58,3.73,8.22,5.7,12.26,4.11,8,6.36,11.83l7.22,11.57c2.41,3.88,4.86,7.74,7.24,11.65l14.35,23.37c4.79,7.78,9.58,15.58,14.3,23.41l14.17,23.48-6.8-1.72L738,518.05l-2,6.34c-4-8.82-8-17.63-11.91-26.47l-5.92-13.25-5.85-13.28-11.68-26.57-2.91-6.65-2.87-6.67-5.73-13.33-.14-.32-.06-.21c-1.15-4.33-2.39-8.72-3.65-13.07s-2.52-8.71-3.84-13.05-2.67-8.68-4.06-13l-2.13-6.46-2.18-6.45c-1.47-4.29-3-8.57-4.6-12.81-.79-2.12-1.63-4.22-2.46-6.33s-1.68-4.22-2.57-6.3-1.8-4.16-2.74-6.22l-1.45-3.08-1.51-3.05-1.59-3c-.54-1-1.12-2-1.68-2.95s-1.2-1.93-1.8-2.9-1.29-1.87-1.94-2.81c.75.86,1.53,1.7,2.25,2.58s1.43,1.8,2.1,2.72,1.34,1.86,2,2.8l1.9,2.87q1.83,2.91,3.53,5.9c1.13,2,2.24,4,3.3,6,2.16,4.05,4.15,8.17,6.06,12.33s3.76,8.36,5.55,12.57,3.48,8.47,5.13,12.74,3.26,8.55,4.82,12.85,3.11,8.61,4.55,12.95,2.87,8.67,4.24,13.09l-.19-.52,6.26,13.09,3.13,6.55,3.09,6.56,12.32,26.29L727,480.71,733,493.88c4.06,8.78,8.06,17.59,12.08,26.39l1.86,4.06-3.85,2.29-20,11.84L718.89,541l-2.53-4.26-14-23.6q-7-11.81-13.85-23.67l-13.79-23.71c-2.31-3.95-4.56-7.93-6.83-11.9l-6.83-12c-2.23-4.16-4.24-8.33-6.13-12.58s-3.59-8.55-5.21-12.89a233,233,0,0,1-8.11-26.52c-1.08-4.49-2-9-2.8-13.56s-1.44-9.11-1.89-13.69-.8-9.17-.89-13.77S636,339.67,636.25,335.11Z"/></svg>