<svg id="Capa_1" data-name="Capa 1" xmlns="http://www.w3.org/2000/svg" viewBox="0 0 1300 1000"><defs><style>.cls-1,.cls-2{fill:#fff;}.cls-1{stroke:#1d1d1b;stroke-miterlimit:10;stroke-width:10px;}.cls-3{fill:#262626;}</style></defs><title>Capa 2-Personajes y artefactos</title><path id="_Trazado_" data-name="&lt;Trazado&gt;" class="cls-1" d="M623.77,265c0,16,10.52,29,23.5,29s23.5-13,23.5-29-10.53-29-23.5-29S623.77,249,623.77,265Z"/><polygon class="cls-2" points="608.07 905.84 613.81 874.32 602.34 874.27 614.55 681.87 610.42 528.55 685.76 528.55 679.75 708.47 669.94 874.36 668.9 874.36 682.85 887.23 682.85 905.84 608.07 905.84"/><path class="cls-3" d="M680.59,533.55l-5.83,174.63-9.53,161.18h-9.12l21.74,20.06v11.42H614.06l5.74-31.5-12.14-.05L619.56,682l-4-148.41h65m10.34-10H605.28l.28,10.27,4,148L597.68,868.66,597,879.25l10.61,0h.2l-3.6,19.76-2.15,11.79h85.78V885l-3.22-3L675,873.2l.19-3.25,9.53-161.18v-.26l5.84-174.63.34-10.33Z"/><path class="cls-2" d="M573.28,905.42l.6-31-13.12,0,28.22-170,10.59-155.77H559.89l59.37-225.71.07-.19c3.76-10.71,11.62-17.11,21-17.11A20.07,20.07,0,0,1,657.27,315c42.06,65.88,41.26,222,41.21,228.6l0,5H675.09l-16,148.76-29.71,177H626l17.78,17.08-.14,14Z"/><path class="cls-3" d="M640.36,310.54a15.11,15.11,0,0,1,12.7,7.15c41.75,65.37,40.42,225.86,40.42,225.86H670.6L654.09,696.63l-29,172.67h-11.5l25.17,24.19-.07,6.93H578.38l.6-31-12.33,0L594,704.9l11-161.35H566.37L624.05,324.3c3.36-9.58,10-13.76,16.31-13.76m0-10c-11.45,0-21.32,7.84-25.75,20.45l-.13.38-.1.39L556.7,541l-3.3,12.54h40.81L584,703.74l-27.21,164-1.93,11.61,11.77,0h2.15l-.4,20.83-.2,10.2h80.43l.1-9.9.07-6.93,0-4.32-3.11-3-11.47-11L635,871l29-172.66,0-.29,0-.3,15.55-144.15h23.81l.09-9.92c0-1.66.28-41.22-4.61-89.5-6.64-65.66-19.22-113.38-37.39-141.83a25,25,0,0,0-21.12-11.76Z"/><path class="cls-2" d="M630.69,345s-7.12,74-2.17,107,14,86,14,86l19.41-.83L654.7,454c1.41-82.29,1.73-78.76-1-103.32"/><path class="cls-3" d="M630.69,345l-.59,24.3c-.13,8.1-.32,16.18-.32,24.26v12.1c0,4,.09,8.06.2,12.09s.28,8,.44,12,.47,8,.85,11.94c.2,2,.42,3.93.69,5.88s.58,3.81.94,5.84L635,465.4l4.18,23.9,8.29,47.82L642.31,533l19.41-.81L657,537.56q-.9-10.39-1.71-20.79l-.83-10.4L653.65,496c-.52-6.93-1-13.87-1.52-20.81l-.73-10.4-.66-10.42,0-.3v-.11l.52-12.92c.18-4.31.34-8.62.55-12.92l1.27-25.83.68-12.9.29-6.45.23-6.44c.06-2.14.11-4.29.11-6.43s0-4.29-.12-6.44c-.1-4.3-.37-8.6-.54-12.92.38,2.13.75,4.25,1.1,6.38s.69,4.27,1,6.41.55,4.3.76,6.46.38,4.32.55,6.49c.3,4.32.44,8.65.6,13l.37,12.94.41,25.88c.06,4.31.06,8.62.09,12.93l.08,12.92,0-.41L659.81,464l1.08,10.38Q662,484.77,663,495.15l1,10.39,1,10.38q1,10.4,1.9,20.78l.45,5.17-5.19.23-19.4.84-4.41.19-.72-4.33c-1.33-8-2.69-16-4-24l-1.9-12-1.84-12q-1.83-12-3.51-24.06c-.57-4-1.12-8.05-1.62-12.06-.26-2-.52-4.11-.71-6.18s-.32-4.15-.43-6.21c-.39-8.25-.4-16.42-.06-24.57q.24-6.11.59-12.19c.25-4.06.49-8.12.84-12.17s.72-8.09,1.11-12.13.81-8.07,1.29-12.1,1-8.06,1.51-12.08S630,349,630.69,345Z"/></svg>