<svg id="Capa_1" data-name="Capa 1" xmlns="http://www.w3.org/2000/svg" viewBox="0 0 1300 1000"><defs><style>.cls-1,.cls-3{fill:#fff;}.cls-2{fill:#1d1d1b;}.cls-3{stroke:#1d1d1b;stroke-miterlimit:10;stroke-width:9.94px;}</style></defs><title>Capa 2-Personajes y artefactos</title><path class="cls-1" d="M706.83,902.77l.08-31.61-12.92,0L672.45,610.51,651.39,871.12l-12.91.06.44,31.59H563.71l.16-12.8,22.29-18.83-5.39,0,30.34-325.53H596.69l12.49-77.18-8.41,46.25-39.63-82.66.33-1.65a254,254,0,0,1,23.09-62.64c22.36-41.71,52.85-63.81,88.2-63.91.43,0,1.22-.08,2.34-.08,6.14,0,22.62,1.5,42.92,15.36C742.8,336,764.48,365,782.49,405.25l78.68,46.82-6.6,24.18L758.82,433l-36.57-51.89L749,545.59l-14.31.12,29.86,325.42h-6l22.63,18.51,1.19,13.12ZM609.7,465.21l12.52-77.36L598.7,428.71Z"/><path class="cls-2" d="M675.1,308.77c10.86,0,61.6,5.31,103.47,100l76.78,45.68-4.06,14.86L762.12,429l-48.29-68.53,29.3,180.19-13.91.12,29.85,325.38-14.48,0,31.82,26,.51,5.58H711.84l.09-31.59-13.34,0-26.2-317-25.62,317-13.36.06.44,31.57H568.77l.07-5.45,31.07-26.25-13.65.07,30.33-325.51h-14l29-179-38.23,66.4,11.32,37.56-6,33-32.24-67.25S591.08,308.85,673,308.85c0,0,.73-.08,2.1-.08m0-10c-1.12,0-2,0-2.55.09-37.21.18-69.16,23.18-92.4,66.54a258.85,258.85,0,0,0-23.58,64l-.66,3.28,1.45,3L589.59,503l6.68,13.94L592.69,539l-1.88,11.61h14.81L576.3,865.21l-.78,8.37-13.13,11.1-3.49,3,0,4.56-.08,5.45-.13,10.13H644l-.14-10.14-.3-21.48h3.26l9.19,0,.74-9.15L672.5,671.89,688.62,867l.76,9.16,9.19,0h3.33l-.06,21.59,0,10h86l-1-10.91-.51-5.57-.38-4.18-3.25-2.66-12.91-10.56-.8-8.66L740.17,550.67l3,0,11.66-.1L753,539,730.67,401.7l23.28,33,1.57,2.23,2.48,1.12,89.17,40.31,10.68,4.82,3.09-11.3,4-14.86,2-7.34-6.54-3.89L786.4,401.76c-18.26-40.34-40.31-69.53-65.56-86.76-21.45-14.65-39.13-16.23-45.74-16.23Zm-71,130.56L612.92,414l-4.69,29-4.12-13.68Z"/><ellipse id="_Trazado_" data-name="&lt;Trazado&gt;" class="cls-3" cx="672.44" cy="261.78" rx="23.5" ry="29"/></svg>