<svg id="Capa_1" data-name="Capa 1" xmlns="http://www.w3.org/2000/svg" viewBox="0 0 1300 1000"><defs><style>.cls-1,.cls-3,.cls-4{fill:#fff;}.cls-2{fill:#1d1d1b;}.cls-3,.cls-4,.cls-5,.cls-6,.cls-7{stroke:#1d1d1b;}.cls-3,.cls-4,.cls-5{stroke-miterlimit:10;}.cls-3{stroke-width:9.94px;}.cls-4,.cls-5,.cls-6,.cls-7{stroke-width:10px;}.cls-5,.cls-6,.cls-7{fill:none;}.cls-5,.cls-6{stroke-linecap:round;}.cls-6,.cls-7{stroke-linejoin:round;}</style></defs><title>Capa 2-Personajes y artefactos</title><path class="cls-1" d="M661.89,902.22l.13-31.4-12.44,0-18.94-258-21.37,258-12.61,0,.32,31.4H524.36V889.49l21.55-18.65H541l28.12-305.5H556l5.88-43.63-3.54,23.55-26.38.13L537.15,434c.08-1.31,2.28-32.57,14.34-64.48,16.42-43.41,43.29-66.57,77.72-67h.94c34.15,0,60.52,22.59,76.26,65.34,11.55,31.38,13.34,62.24,13.41,63.53l6,113.75-24.69.13-8.49-52.58,10.21,72.61-13.15,0,28.13,305.49h-1.66l18.07,19,.41,12.34Z"/><path class="cls-2" d="M630.15,307.55c77.94,0,84.68,124.14,84.68,124.14l5.72,108.51-15.16.08-17.8-110.23-18.77-70.84L697.1,560.34l-12.88,0,28.13,305.48h-7.81L729.3,892l.18,5.27H666.91l.13-31.41-12.81,0L631,548.7,604.67,865.84l-13.07,0,.33,31.41H529.36v-5.44l30-25.95H546.49l28.12-305.5H561.74l27-199.9L570.47,431,554.05,540.28l-16.83.08,4.92-106s8.38-125.85,87.13-126.79h.88m0-10h-1c-36.66.44-65.13,24.72-82.33,70.21-12.33,32.6-14.57,64.57-14.66,65.92v.2l-4.92,106-.49,10.52,10.53-.06,15.73-.07L551.83,559l-1.53,11.34h13.35L536.53,864.92l-.74,8.06-13,11.24-3.45,3v20H602l-.1-10.1-.22-21.29h2.94l9.22,0,.77-9.19,15.7-189.59,13.91,189.49.69,9.29,9.31,0H657l-.09,21.35,0,10h83l-.34-10.34-.18-5.27-.13-3.79-2.61-2.76-13.73-14.47-.52-5.67L695.18,570.34h1.94l11.48,0L707,559l-1.21-8.67,14.82-.08,10.48-.06-.55-10.47-5.73-108.5c-.07-1.35-1.9-32.92-13.71-65-16.52-44.9-44.51-68.62-80.94-68.62Z"/><ellipse id="_Trazado_" data-name="&lt;Trazado&gt;" class="cls-3" cx="630.5" cy="259.74" rx="23.5" ry="29"/><line class="cls-4" x1="571.21" y1="565.39" x2="691.46" y2="565.39"/><polyline class="cls-5" points="610.09 307.6 629.67 349.14 648.91 307.6"/><path class="cls-2" d="M650.79,389.17h0a9,9,0,0,1-9-9h0a9,9,0,0,1,9-9h0a9,9,0,0,1,9,9h0A9,9,0,0,1,650.79,389.17Z"/><path class="cls-6" d="M600.34,406.25h-7.27l0-21c0-11.61,6.59-21,18.2-21.05h0c11.61,0,18.23,9.4,18.24,21l0,21h-7.1"/><line class="cls-7" x1="600.29" y1="311.8" x2="609.27" y2="360.92"/><line class="cls-7" x1="657.91" y1="312.3" x2="651.89" y2="372.42"/><rect class="cls-1" x="615.92" y="495.25" width="27" height="64.88"/></svg>