<svg id="Capa_1" data-name="Capa 1" xmlns="http://www.w3.org/2000/svg" viewBox="0 0 1300 1000"><defs><style>.cls-1,.cls-3,.cls-4,.cls-6{fill:#fff;}.cls-2{fill:#1d1d1b;}.cls-3,.cls-4,.cls-5,.cls-6{stroke:#1d1d1b;stroke-miterlimit:10;}.cls-3{stroke-width:9.94px;}.cls-4,.cls-5,.cls-6{stroke-width:10px;}.cls-5{fill:none;stroke-linecap:round;}.cls-6{stroke-linecap:square;}</style></defs><title>Capa 2-Personajes y artefactos</title><path class="cls-1" d="M662.89,899.49l.13-31.4-12.44,0-18.93-258-21.38,258-12.61,0,.32,31.4H525.36V886.76l21.55-18.65H542l28.13-325.5H556.9v-.07l-23.93.12,5.17-111.38c.09-1.31,2.28-32.57,14.35-64.48,16.41-43.41,43.28-66.57,77.71-67h.94c34.15,0,60.52,22.59,76.26,65.34,11.55,31.38,13.34,62.24,13.41,63.53l6,113.75-22.88.12v0l-13.27,0L718.8,868.11h-1.63l18.07,19,.41,12.34Z"/><path class="cls-2" d="M631.15,304.82c77.94,0,84.68,124.14,84.68,124.14l5.72,108.51-15.16.08-17.8-110.23-18.77-70.84L698.1,537.61l-12.88,0,28.13,325.48h-7.81l24.76,26.11.18,5.27H667.91l.13-31.41-12.81,0L632,546,605.67,863.11l-13.06,0,.32,31.41H530.36v-5.44l30-25.95H547.49l28.13-325.5H562.74l28-179.9L571.47,428.3,555.05,537.55l-16.83.08,4.92-106s8.38-125.85,87.13-126.79h.88m0-10h-1c-36.66.44-65.13,24.72-82.33,70.21-12.32,32.6-14.57,64.57-14.66,65.92v.2l-4.92,106-.49,10.51,10.53,0,12.8-.06v0h13.65L537.53,862.25l-.69,8-13,11.28-3.45,3v20H603l-.1-10.11-.22-21.28h2.94l9.22,0,.77-9.2,15.7-189.58,13.92,189.49.68,9.29,9.31,0H658l-.09,21.35,0,10h83l-.35-10.34-.18-5.27-.13-3.79-2.61-2.76-13.77-14.51-.48-5.57L696.12,547.61h2l11.66,0v-.06l11.84-.06,10.48-.06-.55-10.47-5.73-108.5c-.07-1.35-1.9-32.93-13.71-65-16.52-44.9-44.51-68.62-80.94-68.62Z"/><ellipse id="_Trazado_" data-name="&lt;Trazado&gt;" class="cls-3" cx="631.5" cy="257.01" rx="23.5" ry="29"/><line class="cls-4" x1="572.21" y1="542.66" x2="692.46" y2="542.66"/><polyline class="cls-5" points="611.09 304.87 630.67 346.41 649.91 304.87"/><g id="_Grupo_" data-name="&lt;Grupo&gt;"><line id="_Trazado_2" data-name="&lt;Trazado&gt;" class="cls-6" x1="649.98" y1="354.23" x2="649.98" y2="373.2"/><line id="_Trazado_3" data-name="&lt;Trazado&gt;" class="cls-6" x1="640.54" y1="363.74" x2="659.5" y2="363.74"/></g><line class="cls-4" x1="546.29" y1="395.51" x2="579.49" y2="401.11"/><line class="cls-4" x1="713.41" y1="396.11" x2="680.2" y2="401.71"/></svg>