<svg id="Capa_1" data-name="Capa 1" xmlns="http://www.w3.org/2000/svg" viewBox="0 0 1300 1000"><defs><style>.cls-1,.cls-3,.cls-4,.cls-6{fill:#fff;}.cls-2{fill:#1d1d1b;}.cls-3,.cls-4,.cls-5,.cls-6{stroke:#1d1d1b;stroke-miterlimit:10;}.cls-3{stroke-width:9.94px;}.cls-4,.cls-5,.cls-6{stroke-width:10px;}.cls-5{fill:none;}.cls-5,.cls-6{stroke-linecap:round;}</style></defs><title>Capa 2-Personajes y artefactos</title><path class="cls-1" d="M706.54,902.42l.71-30-12.71.32L672.62,611.39,652.45,872.7l-12.74-.32.71,30h-74.3l1.16-12.91,19.79-18.25h-3.85l28.87-325.9H598.52l5.67-35.58L564,430.68l.34-1.7a254.23,254.23,0,0,1,22.6-62.25c21.95-41.58,51.93-63.55,86.69-63.55,36.48,0,78.56,31.46,125.06,93.52a759.39,759.39,0,0,1,58.51,92.21l2,3.93-18,12.37-72.31-81-47.86-49.79,27.38,170.93H734.87l28.86,325.9h-3.84l19.78,18.25,1.17,12.91ZM612.05,460.47l11.68-73.29L601,427.2Z"/><path class="cls-2" d="M673.63,308.18c84,0,179.13,183,179.13,183L842,498.6l-69.44-77.77-59-61.38,29,180.91H729.4l28.87,325.9H747.09l27.78,25.62.5,5.54H711.66l.71-30.17-13.24.33L672.41,549.11,647.83,867.58l-13.25-.33.72,30.17H571.59l.5-5.54,27.77-25.62H588.68l28.87-325.9H604.38L633,360.67l-37.43,66,12.6,38-4.91,32.24-34-67s24.19-121.78,104.39-121.78m0-10c-36.74,0-68.24,22.9-91.11,66.22A260,260,0,0,0,559.43,428l-.67,3.39,1.57,3.09,34,67L599,510.6l-4.5,28.19-1.84,11.57h14l-27.91,315-.65,7.38-12.76,11.76-2.84,2.62-.34,3.84-.5,5.54-1,10.9h84.89l-.24-10.24-.47-19.67,2.74.07,9.5.24.73-9.47,15-194.68,16.34,194.75.79,9.4,9.43-.24,2.75-.07-.47,19.67-.24,10.24h84.89l-1-10.9-.5-5.54-.35-3.84-2.83-2.62-12.77-11.76-.65-7.38-27.9-315h14l-1.86-11.58L728.52,389.41l36.73,38.21,69.32,77.64,5.86,6.56,7.26-5,10.74-7.38,7.29-5-4.08-7.85a750.75,750.75,0,0,0-58.95-92.91c-47.5-63.38-90.92-95.52-129.06-95.52ZM606.48,427.74l8-14-4.09,25.71-3.87-11.67Z"/><path id="_Trazado_" data-name="&lt;Trazado&gt;" class="cls-3" d="M647.77,260.72c0,16,10.52,29,23.5,29s23.5-13,23.5-29-10.52-29-23.5-29S647.77,244.7,647.77,260.72Z"/><line class="cls-4" x1="613.36" y1="545.33" x2="733.61" y2="545.33"/><polyline class="cls-5" points="654.13 308.4 673.71 349.94 692.95 308.4"/><line class="cls-6" x1="673.71" y1="349.94" x2="673.71" y2="542.39"/><polygon class="cls-1" points="648.34 236.37 637.55 218.36 671.36 204.87 705.38 219.38 695.05 236.37 648.34 236.37"/><path class="cls-2" d="M671.29,210.28l26.82,11.44-5.87,9.65H651.17l-6.31-10.55,26.43-10.54m.13-10.82L667.59,201l-26.44,10.55-10.9,4.35,6,10.07,6.31,10.55,2.91,4.86h52.36l2.92-4.8,5.87-9.65,6-9.87L702,212.52l-26.81-11.44-3.8-1.62Z"/><path class="cls-1" d="M671.28,256.16c-9.3,0-16.27-2.39-20.69-7.09A16.63,16.63,0,0,1,646,237.32l.29-4.7h50.63l.14,4.86a16.94,16.94,0,0,1-4.93,11.64C687.56,253.79,680.55,256.16,671.28,256.16Z"/><path class="cls-2" d="M692,237.62s.39,13.54-20.74,13.54S651,237.62,651,237.62H692m9.72-10h-60.2L641,237a21.57,21.57,0,0,0,6,15.48c5.41,5.74,13.59,8.66,24.33,8.66s18.88-2.88,24.4-8.56A21.9,21.9,0,0,0,702,237.34l-.28-9.72Z"/></svg>