<svg id="Capa_1" data-name="Capa 1" xmlns="http://www.w3.org/2000/svg" viewBox="0 0 500 500"><defs><style>.cls-1{fill:none;stroke:#1d1d1b;stroke-miterlimit:10;stroke-width:10px;}.cls-2{fill:#1d1d1b;}</style></defs><title>Íconos apoyo</title><path id="_Trazado_" data-name="&lt;Trazado&gt;" class="cls-1" d="M88,22.25h-59v84.22A127.62,127.62,0,0,0,156.55,234.09h0A127.62,127.62,0,0,0,284.17,106.47V22.25h-61.9"/><path id="_Trazado_2" data-name="&lt;Trazado&gt;" class="cls-1" d="M408.46,330.16v34.08a126,126,0,0,1-125.95,126h0a126,126,0,0,1-126-126V234.09"/><rect id="_Rectángulo_" data-name="&lt;Rectángulo&gt;" class="cls-1" x="347.4" y="207.29" width="121.21" height="121.21" rx="60.6" ry="60.6"/><rect id="_Rectángulo_2" data-name="&lt;Rectángulo&gt;" class="cls-2" x="61.3" y="3.8" width="36.89" height="36.89" rx="17.5" ry="17.5"/><path id="_Trazado_3" data-name="&lt;Trazado&gt;" class="cls-2" d="M230.12,40.69h0a18.45,18.45,0,0,1-18.45-18.44h0A18.45,18.45,0,0,1,230.12,3.8h0a18.44,18.44,0,0,1,18.44,18.45h0A18.44,18.44,0,0,1,230.12,40.69Z"/></svg>