<svg id="Capa_1" data-name="Capa 1" xmlns="http://www.w3.org/2000/svg" viewBox="0 0 500 500"><defs><style>.cls-1{fill:#1e1e1c;}</style></defs><title>Íconos apoyo</title><path id="_Trazado_" data-name="&lt;Trazado&gt;" class="cls-1" d="M453.83,307.51l-186.68,188a21.67,21.67,0,0,1-30.77,0l-186.23-188a23.57,23.57,0,0,1-1.26-31.91h0a23.56,23.56,0,0,1,34.58-1.43L229.71,420.9l0-396.73A22.23,22.23,0,0,1,252,1.94h0a22.24,22.24,0,0,1,22.24,22.23l0,396.73L420.51,274.17a23.56,23.56,0,0,1,34.58,1.43h0A23.57,23.57,0,0,1,453.83,307.51Z"/></svg>