<svg id="Capa_1" data-name="Capa 1" xmlns="http://www.w3.org/2000/svg" viewBox="0 0 500 500"><defs><style>.cls-1{fill:none;stroke:#1d1d1b;stroke-miterlimit:10;stroke-width:10px;}</style></defs><title>Íconos apoyo</title><path id="_Trazado_" data-name="&lt;Trazado&gt;" class="cls-1" d="M76.71,104H31.11c-11,0-20,8.48-20,18.94V388c0,10.46,9,18.94,20,18.94h440c11,0,20-8.48,20-18.94V122.92c0-10.46-9-18.94-20-18.94H76.71Z"/><circle id="_Trazado_2" data-name="&lt;Trazado&gt;" class="cls-1" cx="251.11" cy="255.48" r="107.5"/><path id="_Trazado_3" data-name="&lt;Trazado&gt;" class="cls-1" d="M85.61,103.65h0a75,75,0,0,1-75,75h0"/><path id="_Trazado_4" data-name="&lt;Trazado&gt;" class="cls-1" d="M85.61,406.65h0a75,75,0,0,0-75-75h0"/><path id="_Trazado_5" data-name="&lt;Trazado&gt;" class="cls-1" d="M490.61,331.65h0a75,75,0,0,0-75,75h0"/><path id="_Trazado_6" data-name="&lt;Trazado&gt;" class="cls-1" d="M490.61,178.65h0a75,75,0,0,1-75-75h0"/></svg>