<svg id="Capa_1" data-name="Capa 1" xmlns="http://www.w3.org/2000/svg" viewBox="0 0 500 500"><defs><style>.cls-1{fill:none;stroke:#1d1d1b;stroke-miterlimit:10;stroke-width:10px;}</style></defs><title>Íconos apoyo</title><g id="_Grupo_" data-name="&lt;Grupo&gt;"><line id="_Trazado_" data-name="&lt;Trazado&gt;" class="cls-1" x1="168.49" y1="383.98" x2="160.7" y2="491"/><path id="_Trazado_2" data-name="&lt;Trazado&gt;" class="cls-1" d="M153.67,197.9,184.13,43.29a25.78,25.78,0,0,1,30-20.24h0a25.78,25.78,0,0,1,20.63,30.08"/><path id="_Trazado_3" data-name="&lt;Trazado&gt;" class="cls-1" d="M209.25,177.8,238.64,32.11a25.58,25.58,0,0,1,29.82-20.46h0A25.57,25.57,0,0,1,288.94,41.5L264.23,173.8"/><path id="_Trazado_4" data-name="&lt;Trazado&gt;" class="cls-1" d="M285,62.24a26.7,26.7,0,0,1,31.13-21.38h0a24.62,24.62,0,0,1,19.7,28.72L314.55,183.15"/><path id="_Trazado_5" data-name="&lt;Trazado&gt;" class="cls-1" d="M328.36,108.77a26.7,26.7,0,0,1,31.13-21.38h0a24.65,24.65,0,0,1,19.73,28.73l-25,134.37s7.57,126.32-47,149.56"/><line id="_Trazado_6" data-name="&lt;Trazado&gt;" class="cls-1" x1="327.48" y1="383.98" x2="326.57" y2="491"/><path id="_Trazado_7" data-name="&lt;Trazado&gt;" class="cls-1" d="M197.12,403.08s-1.26-.44-3.49-1.35c-58.33-23.89-88.27-88.83-69-148.85l9.53-29.71a43.16,43.16,0,0,1,35.75-29.65l76.36-9.06A21.29,21.29,0,0,1,270,204.53h0a21.27,21.27,0,0,1-16.33,21.76l-46.45,11.07L189,269.69s62.65,14.15,70.73,62.66"/></g></svg>