<svg id="Capa_1" data-name="Capa 1" xmlns="http://www.w3.org/2000/svg" viewBox="0 0 500 500"><defs><style>.cls-1{fill:#1e1e1c;}</style></defs><title>Íconos apoyo</title><path id="_Trazado_" data-name="&lt;Trazado&gt;" class="cls-1" d="M305.58,50.8l188,186.69a21.66,21.66,0,0,1,0,30.76l-188,186.23a23.55,23.55,0,0,1-31.9,1.26h0a23.56,23.56,0,0,1-1.43-34.58L419,274.92l-396.73,0A22.24,22.24,0,0,1,0,252.64H0a22.23,22.23,0,0,1,22.23-22.23l396.73,0L272.25,84.12a23.56,23.56,0,0,1,1.43-34.58h0A23.55,23.55,0,0,1,305.58,50.8Z"/></svg>