<svg id="Capa_1" data-name="Capa 1" xmlns="http://www.w3.org/2000/svg" viewBox="0 0 500 500"><defs><style>.cls-1{fill:none;stroke:#1d1d1b;stroke-miterlimit:10;stroke-width:10px;}</style></defs><title>Íconos apoyo</title><path id="_Trazado_" data-name="&lt;Trazado&gt;" class="cls-1" d="M447.27,454.14V248.91A12.24,12.24,0,0,0,435,236.66H416.64a12.24,12.24,0,0,0-12.25,12.25V454.14l15.49,31.44a6.12,6.12,0,0,0,10.92.13Z"/><path id="_Trazado_2" data-name="&lt;Trazado&gt;" class="cls-1" d="M105.51,90.48l-36.23.22A15.32,15.32,0,0,0,54.05,106V473.68A15.32,15.32,0,0,0,69.37,489H345.06a15.32,15.32,0,0,0,15.31-15.32V106.2A15.32,15.32,0,0,0,345,90.88l-35.44.21"/><path id="_Trazado_3" data-name="&lt;Trazado&gt;" class="cls-1" d="M308.3,58v61.26a9.19,9.19,0,0,1-9.19,9.19H115.32a9.18,9.18,0,0,1-9.19-9.19V58a9.19,9.19,0,0,1,9.19-9.19H153a9.18,9.18,0,0,0,9.19-9.19V18.19A9.19,9.19,0,0,1,171.37,9h73.52a9.19,9.19,0,0,1,9.19,9.19V39.63a9.18,9.18,0,0,0,9.19,9.19h35.84A9.2,9.2,0,0,1,308.3,58Z"/><g id="_Grupo_" data-name="&lt;Grupo&gt;"><line id="_Trazado_4" data-name="&lt;Trazado&gt;" class="cls-1" x1="108.38" y1="223.59" x2="306.21" y2="223.59"/><line id="_Trazado_5" data-name="&lt;Trazado&gt;" class="cls-1" x1="108.6" y1="283.41" x2="306.43" y2="283.41"/><line id="_Trazado_6" data-name="&lt;Trazado&gt;" class="cls-1" x1="108.6" y1="342.48" x2="306.43" y2="342.48"/><line id="_Trazado_7" data-name="&lt;Trazado&gt;" class="cls-1" x1="108" y1="401.56" x2="219.5" y2="401.56"/></g></svg>