<svg id="Capa_1" data-name="Capa 1" xmlns="http://www.w3.org/2000/svg" viewBox="0 0 260.1 260.1"><defs><style>.cls-1{fill:none;}.cls-1,.cls-2{stroke:#1d1d1b;stroke-linecap:round;stroke-linejoin:round;stroke-width:8px;}.cls-2{fill:#fff;}</style></defs><title>fingerprint</title><path class="cls-1" d="M83,52.91a15,15,0,0,1-30.09,0"/><path class="cls-1" d="M52.87,36.49a15,15,0,1,1,30.09,0"/><path class="cls-1" d="M97.78,53.39a29.87,29.87,0,1,1-59.73,0"/><path class="cls-1" d="M38.05,36a29.87,29.87,0,1,1,59.73,0"/><line class="cls-1" x1="67.91" y1="36" x2="67.91" y2="52.91"/><path class="cls-1" d="M119.19,147.45V114.5a8.5,8.5,0,0,0-5.48-8h0a8.5,8.5,0,0,0-9.75,2.76S92,127,91.47,130.05c-1.18,7.12.45,20.73,2.73,33.14,3.49,19,4.25,34.14,27.13,49.19l-2.15,40.72"/><path class="cls-2" d="M170.82,116l0-8.34A12.89,12.89,0,0,0,157.9,94.8h0A12.9,12.9,0,0,0,145,107.7V116"/><path class="cls-2" d="M145,116l-1.1-71.93a11.39,11.39,0,0,0-11.4-11.22h0A11.41,11.41,0,0,0,121.1,44l-1.91,94.32v9.1"/><path class="cls-2" d="M195.76,117.9l-.57-5.48-.47-4.47a12,12,0,0,0-11.84-10.76h0a12,12,0,0,0-12.11,12V116"/><path class="cls-1" d="M207.79,253.1l-.12-36.64c16.14-18.54,17.67-39.39,14.72-86.41h0c-1.16-8.84-.63-6.74-2.93-15.78l-.08-.32A11.85,11.85,0,0,0,207.89,105h0A11.85,11.85,0,0,0,196.1,118.1h0"/></svg>