<svg id="Capa_1" data-name="Capa 1" xmlns="http://www.w3.org/2000/svg" viewBox="0 0 260.1 260.1"><defs><style>.cls-1{fill:#fff;}.cls-2{fill:#1d1d1b;}</style></defs><title>icon</title><path class="cls-1" d="M207.33,254.1l-.12-43.72c15.48-17.8,14-61.93,14-82v-18a11.79,11.79,0,0,0-11.79-11.81h0c-8,0-12.89,5.76-12.89,12.88l0,1.91-.05-14.79a11.89,11.89,0,0,0-11.89-11.81h0a12.89,12.89,0,0,0-12.88,12.89l0,13.71-.05-20.41a12.34,12.34,0,0,0-12.34-12.26h0A12.36,12.36,0,0,0,147,93.11l.05,20.24V45.2A12.34,12.34,0,0,0,134.7,32.86h0A12.33,12.33,0,0,0,122.36,45.2V112c-4.57,2-13,6.49-18.48,15.7-3.71,6.19-4.72,12.15-5.43,16.34a86.56,86.56,0,0,0-.28,17.91c2,21.12,13,38.48,26.32,48.48l-2.14,43.72"/><path class="cls-2" d="M122.36,258.1h-.2a4,4,0,0,1-3.8-4.2l2-41.64c-14.57-11.72-24.31-30.23-26.2-50a89.65,89.65,0,0,1,.3-18.84s0-.07,0-.11c.74-4.34,1.85-10.9,5.95-17.74a43.12,43.12,0,0,1,17.9-16.19V45.2a16.35,16.35,0,0,1,32.69,0V78.94a16.16,16.16,0,0,1,8.3-2.26,16.38,16.38,0,0,1,14.89,9.63,16.77,16.77,0,0,1,10.35-3.56A15.94,15.94,0,0,1,200.39,97a17.52,17.52,0,0,1,9.07-2.4,15.79,15.79,0,0,1,15.79,15.81v18c0,1.46,0,3,0,4.75.11,22.76.29,60.52-14.06,78.66l.12,42.28a4,4,0,0,1-4,4h0a4,4,0,0,1-4-4l-.12-43.72a4,4,0,0,1,1-2.64c13.37-15.36,13.18-53.87,13.08-74.56,0-1.71,0-3.31,0-4.79v-18a7.78,7.78,0,0,0-7.79-7.81c-6.56,0-8.89,4.78-8.89,8.88l0,2a4,4,0,0,1-4,3.9h-.05a4,4,0,0,1-3.95-4l-.05-14.78a7.91,7.91,0,0,0-7.89-7.83,8.89,8.89,0,0,0-8.88,8.82l0,13.77a4,4,0,0,1-4,4h0a4,4,0,0,1-4-4l0-13.71v-.09l0-6.61a8.34,8.34,0,0,0-16.64-.81v21.21a4,4,0,0,1-4,4h0a4,4,0,0,1-4-4L143,93.12c0-.46,0-.91.05-1.35V45.2a8.35,8.35,0,0,0-16.69,0v66.56a1.15,1.15,0,0,1,0,.19v36.5a4,4,0,0,1-8,0V118.58a34.08,34.08,0,0,0-11,11.13c-3.3,5.51-4.23,10.92-4.91,14.88a83.35,83.35,0,0,0-.25,16.93c1.75,18.3,11,35.37,24.74,45.65a4,4,0,0,1,1.6,3.4l-2.15,43.73A4,4,0,0,1,122.36,258.1Z"/><path class="cls-2" d="M67.91,72a19.06,19.06,0,0,1-19-19,4,4,0,0,1,8,0,11,11,0,0,0,22.09,0,4,4,0,0,1,8,0A19.06,19.06,0,0,1,67.91,72Z"/><path class="cls-2" d="M83,40.49a4,4,0,0,1-4-4,11,11,0,1,0-22.09,0,4,4,0,0,1-8,0,19,19,0,1,1,38.09,0A4,4,0,0,1,83,40.49Z"/><path class="cls-2" d="M67.91,87.26A33.9,33.9,0,0,1,34.05,53.39a4,4,0,0,1,8,0,25.87,25.87,0,1,0,51.73,0,4,4,0,0,1,8,0A33.9,33.9,0,0,1,67.91,87.26Z"/><path class="cls-2" d="M97.78,40a4,4,0,0,1-4-4,25.87,25.87,0,1,0-51.73,0,4,4,0,0,1-8,0,33.87,33.87,0,1,1,67.73,0A4,4,0,0,1,97.78,40Z"/><path class="cls-2" d="M67.91,56.91a4,4,0,0,1-4-4V36a4,4,0,0,1,8,0V52.91A4,4,0,0,1,67.91,56.91Z"/></svg>