<svg id="Capa_1" data-name="Capa 1" xmlns="http://www.w3.org/2000/svg" viewBox="0 0 500 500"><defs><style>.cls-1{fill:none;}.cls-1,.cls-2{stroke:#1d1d1b;stroke-miterlimit:10;stroke-width:10px;}.cls-2{fill:#fff;}</style></defs><title>Íconos apoyo</title><path id="_Trazado_" data-name="&lt;Trazado&gt;" class="cls-1" d="M184.56,115.38a54.83,54.83,0,0,1-54.84,54.83h0a54.83,54.83,0,0,1-54.83-54.83"/><path id="_Trazado_2" data-name="&lt;Trazado&gt;" class="cls-1" d="M74.89,63.81A54.83,54.83,0,0,1,129.72,9h0a54.83,54.83,0,0,1,54.84,54.83V84"/><path id="_Trazado_3" data-name="&lt;Trazado&gt;" class="cls-1" d="M104.42,106.69c0,17.29,8,31.3,25.3,31.3h0c17.29,0,25.3-14,25.3-31.3"/><path id="_Trazado_4" data-name="&lt;Trazado&gt;" class="cls-1" d="M104.42,72.14c0-17.28,8-31.3,25.3-31.3h0c17.29,0,25.3,14,25.3,31.3"/><line id="_Trazado_5" data-name="&lt;Trazado&gt;" class="cls-1" x1="129.72" y1="71.48" x2="129.72" y2="106.78"/><path id="_Trazado_6" data-name="&lt;Trazado&gt;" class="cls-2" d="M217.4,280.93l0-197.48A23.62,23.62,0,0,1,241,59.83h0a23.63,23.63,0,0,1,23.62,23.62V188.17"/><path id="_Trazado_7" data-name="&lt;Trazado&gt;" class="cls-1" d="M264.61,213.78l-.09-38.71a23.61,23.61,0,0,1,23.61-23.77h0a23.61,23.61,0,0,1,23.61,23.46l.09,39"/><path id="_Trazado_8" data-name="&lt;Trazado&gt;" class="cls-1" d="M311.59,187.56a24.64,24.64,0,0,1,24.64-24.64h0A22.73,22.73,0,0,1,359,185.5l.1,28.28"/><path id="_Trazado_9" data-name="&lt;Trazado&gt;" class="cls-1" d="M214.3,488l6.19-73.59,1-15C196,380.24,175,347,171.14,306.64c-2.71-28.27-.28-40.79,13-65.87A66.25,66.25,0,0,1,217.4,211.1"/><path id="_Trazado_10" data-name="&lt;Trazado&gt;" class="cls-1" d="M377.89,487.88l1-74.45.8-17.8c32.32-36.68,27.51-153,27.51-153l-.83-34.5a22.56,22.56,0,0,0-22.56-22.59h0c-15.33,0-24.64,11-24.64,24.64"/></svg>