<svg id="Capa_1" data-name="Capa 1" xmlns="http://www.w3.org/2000/svg" viewBox="0 0 260.1 260.1"><defs><style>.cls-1{fill:none;}.cls-1,.cls-4{stroke:#1d1d1b;stroke-linecap:round;stroke-linejoin:round;stroke-width:8px;}.cls-2,.cls-3,.cls-4{fill:#fff;}.cls-2{stroke:#fff;stroke-miterlimit:10;stroke-width:5px;}</style></defs><title>hand-over-card</title><line class="cls-1" x1="197.06" y1="194.23" x2="216.56" y2="250.41"/><path class="cls-1" d="M93.28,106.44,83.19,68a11.41,11.41,0,0,0-14.78-7.88h0A11.4,11.4,0,0,0,61,73.44c4.84,20.66,15.66,66.61,17.65,72.34,6.76,19.49,17.66,59.31,44.37,71.66l9.22,33"/><path class="cls-1" d="M121,105.73l-11.8-36L99.85,41.15a11.47,11.47,0,0,0-14.66-7.27h0a11.47,11.47,0,0,0-7.33,13.75L87.11,82.9l8.31,31.71"/><path class="cls-1" d="M143.92,88.86,119.08,21.13a12.25,12.25,0,0,0-15.52-7.35h0a12.25,12.25,0,0,0-7.63,15.39l13.79,42.1,9.59,29.31"/><path class="cls-1" d="M171.36,84,167.47,75,145.71,25.07A11.83,11.83,0,0,0,131,18.62h0a11.83,11.83,0,0,0-7.23,15.25l11.73,32,11.34,30.92"/><line class="cls-2" x1="170.35" y1="94.98" x2="167.42" y2="93.88"/><line class="cls-2" x1="43.49" y1="47.43" x2="41.11" y2="46.54"/><path class="cls-3" d="M145.09,160.52a12.29,12.29,0,0,1-4.33-.79L20.29,114.57a12.34,12.34,0,0,1-7.22-15.89L41.8,22a12.42,12.42,0,0,1,11.58-8,12.27,12.27,0,0,1,4.32.78L178.18,59.94a12.34,12.34,0,0,1,7.22,15.9l-28.74,76.67A12.4,12.4,0,0,1,145.09,160.52Z"/><path class="cls-3" d="M53.38,16.5a9.85,9.85,0,0,1,3.44.62L69.31,21.8l108,40.48A9.84,9.84,0,0,1,183.06,75l-28.74,76.67a9.86,9.86,0,0,1-9.23,6.39,9.68,9.68,0,0,1-3.44-.63L21.17,112.23a9.85,9.85,0,0,1-5.76-12.67L44.14,22.89a9.88,9.88,0,0,1,9.24-6.39m0-5h0a14.93,14.93,0,0,0-13.92,9.63L10.73,97.81a14.84,14.84,0,0,0,8.69,19.1L139.9,162.07a14.47,14.47,0,0,0,5.19,1A14.91,14.91,0,0,0,159,153.38l28.74-76.66a14.83,14.83,0,0,0-8.69-19.12l-108-40.48L58.58,12.44a14.71,14.71,0,0,0-5.2-.94Z"/><path class="cls-4" d="M67.9,25.55,55.42,20.87a5.85,5.85,0,0,0-7.53,3.42L19.15,101a5.86,5.86,0,0,0,3.43,7.53l120.47,45.16a5.85,5.85,0,0,0,7.53-3.43l28.74-76.66A5.85,5.85,0,0,0,175.89,66l-26.06-9.77Z"/><line class="cls-4" x1="41.12" y1="46.54" x2="170.35" y2="94.98"/><path class="cls-4" d="M178,135.42A43.07,43.07,0,0,0,181,119l-3.22-8.71-6-16.33,6,16.33-6-16.33a16.26,16.26,0,0,1,7.71-20.06h0a6.44,6.44,0,0,1,8.68,2.66L200,98.63l-9.71-18.11L200,98.63q4.23,9,8.45,17.93c2.9,6.73,2.62,8.22,2.86,13.18,2.17,45.36-2.24,54.07-22.38,67.3"/></svg>