<svg id="Capa_1" data-name="Capa 1" xmlns="http://www.w3.org/2000/svg" viewBox="0 0 260.1 260.1"><defs><style>.cls-1{fill:#1d1d1b;}.cls-2{fill:#fff;}</style></defs><title>icon</title><path class="cls-1" d="M236.35,249.74a4,4,0,0,1-3.78-2.69L213.05,190.8a4,4,0,0,1,7.56-2.63l19.52,56.26a4,4,0,0,1-2.46,5.09A4.06,4.06,0,0,1,236.35,249.74Z"/><path class="cls-1" d="M134.55,213.54a4,4,0,0,1-2.69-1C117.34,199.38,106,172.07,98.56,154c-.92-2.22-1.77-4.27-2.54-6.1L67.65,81a17.1,17.1,0,0,1,9.06-22.42,18.09,18.09,0,0,1,10.54-1.12l-2.39-5.6a17.09,17.09,0,0,1,9-22.42,18,18,0,0,1,11-1A17.62,17.62,0,0,1,115.28,8.81a17.64,17.64,0,0,1,21.6,6.55A17.6,17.6,0,0,1,145,8.44a17.79,17.79,0,0,1,23.1,9.13l31,70.87a4,4,0,0,1-7.33,3.2l-31-70.85a9.74,9.74,0,0,0-12.65-5A9.7,9.7,0,0,0,143,28.54L166.1,80.82a4,4,0,0,1-7.32,3.24L131,21.31a9.64,9.64,0,0,0-12.61-5.14,9.6,9.6,0,0,0-5.09,12.6l3.79,8.92c.24.45.46.92.66,1.39l21.69,51.16a4,4,0,0,1-7.36,3.13L109.9,41.18A10.2,10.2,0,0,0,97,36.8a9.09,9.09,0,0,0-4.82,11.93L100,67q.3.6.57,1.23l15.71,37a4,4,0,0,1-7.37,3.12h0L92.77,70.44a10.21,10.21,0,0,0-12.93-4.5A9.1,9.1,0,0,0,75,77.88l28.37,66.9c.79,1.85,1.65,3.92,2.58,6.17,6.76,16.34,18.08,43.7,31.27,55.62a4,4,0,0,1-2.68,7Z"/><path class="cls-1" d="M144.56,249.74a4,4,0,0,1-3.85-2.94l-10-36.2a4,4,0,0,1,7.71-2.13l10,36.2a4,4,0,0,1-3.86,5.07Z"/><path class="cls-2" d="M69.27,16.7,56.11,11.77a6,6,0,0,0-7.81,3.3L19.63,91.55a6,6,0,0,0,3.72,7.62l126.92,47.58a6,6,0,0,0,7.82-3.31L186.75,67A6,6,0,0,0,183,59.34L155.57,49.05Z"/><path class="cls-1" d="M152.54,151.16a10.36,10.36,0,0,1-3.67-.67L22,102.92a10.3,10.3,0,0,1-5.67-5.12,9.6,9.6,0,0,1-.39-7.66L44.55,13.67A10,10,0,0,1,57.52,8L184.44,55.6a10.3,10.3,0,0,1,5.67,5.12,9.58,9.58,0,0,1,.39,7.65l-28.67,76.48a9.58,9.58,0,0,1-5.32,5.51A10.31,10.31,0,0,1,152.54,151.16ZM53.84,15.36A1.85,1.85,0,0,0,52,16.48L23.38,93a1.7,1.7,0,0,0,.09,1.34,2.35,2.35,0,0,0,1.29,1.14L151.68,143a2.32,2.32,0,0,0,1.72,0,1.67,1.67,0,0,0,.94-1L183,65.56a1.68,1.68,0,0,0-.09-1.33,2.31,2.31,0,0,0-1.29-1.14L67.86,20.45h0L54.71,15.52A2.43,2.43,0,0,0,53.84,15.36Z"/><circle class="cls-2" cx="103.19" cy="79.26" r="33.12"/><path class="cls-1" d="M103.21,116.39A37.2,37.2,0,1,1,118.56,113,37.07,37.07,0,0,1,103.21,116.39Zm0-66.26A29.21,29.21,0,1,0,113.41,52,29.19,29.19,0,0,0,103.18,50.13Z"/><line class="cls-2" x1="131.88" y1="122.8" x2="146.69" y2="128.35"/><path class="cls-1" d="M146.69,132.35a3.85,3.85,0,0,1-1.4-.26l-14.82-5.55a4,4,0,1,1,2.81-7.49l14.82,5.55a4,4,0,0,1-1.41,7.75Z"/><line class="cls-2" x1="38.14" y1="87.66" x2="52.96" y2="93.21"/><path class="cls-1" d="M53,97.21A4.11,4.11,0,0,1,51.55,97L36.74,91.41a4,4,0,0,1,2.81-7.49l14.81,5.55A4,4,0,0,1,53,97.21Z"/><line class="cls-2" x1="74.51" y1="35.72" x2="59.69" y2="30.17"/><path class="cls-1" d="M74.51,39.72a4.11,4.11,0,0,1-1.41-.25L58.29,33.91a4,4,0,0,1,2.81-7.49L75.91,32a4,4,0,0,1-1.4,7.74Z"/><line class="cls-2" x1="168.24" y1="70.86" x2="153.43" y2="65.3"/><path class="cls-1" d="M168.24,74.86a4.07,4.07,0,0,1-1.4-.26L152,69.05a4,4,0,1,1,2.81-7.49l14.82,5.55a4,4,0,0,1-1.41,7.75Z"/><path class="cls-2" d="M215.18,191.49c18.46-21,19-50.7,6.94-77.63,0,0-6.73-13.34-12.56-24-.74-1.27-8.15-10.72-8.76-11.52l-9.67-12.54A11.31,11.31,0,0,0,172.48,78.5l16.07,35a67.2,67.2,0,0,0-9.83,38.41"/><path class="cls-1" d="M215.17,195.49a4,4,0,0,1-3-6.64c16.24-18.43,18.6-45.81,6.33-73.27-.57-1.12-6.92-13.69-12.41-23.77-.5-.78-3-4.11-7.52-9.88l-.95-1.22L188,68.2a7.32,7.32,0,0,0-12.06,8.24,3.72,3.72,0,0,1,.21.39l16.07,35a4,4,0,0,1-.22,3.75,63.37,63.37,0,0,0-9.25,36.14,4,4,0,1,1-8,.38A71.3,71.3,0,0,1,184,113.27L168.93,80.36a15.32,15.32,0,0,1,25.37-17L204,75.84l.91,1.18c6.19,8,7.67,10,8.14,10.79,5.85,10.73,12.6,24.12,12.67,24.26l.08.16c13.63,30.42,10.79,61-7.59,81.91A4,4,0,0,1,215.17,195.49Z"/></svg>