<svg id="Capa_1" data-name="Capa 1" xmlns="http://www.w3.org/2000/svg" viewBox="0 0 260.1 260.1"><defs><style>.cls-1{fill:#1d1d1b;}.cls-2{fill:#fff;}</style></defs><title>icon</title><path class="cls-1" d="M246.08,249.74a4,4,0,0,1-3.78-2.69l-17.81-51.32a4,4,0,1,1,7.56-2.63l17.81,51.33a4,4,0,0,1-3.78,5.31Z"/><path class="cls-1" d="M152.53,216.87a4,4,0,0,1-2.68-1c-13.42-12.13-23.84-37.31-30.73-54-.84-2-1.63-3.92-2.34-5.61L90.67,94.69a16.06,16.06,0,0,1,8.51-21.06,17.08,17.08,0,0,1,9.3-1.15l-2-4.61A16.06,16.06,0,0,1,115,46.81a17,17,0,0,1,9.82-1.05,16.53,16.53,0,0,1,29.84-12.19A16.52,16.52,0,0,1,162,27.49a16.7,16.7,0,0,1,21.68,8.56l28.5,65.23a4,4,0,1,1-7.33,3.2l-28.5-65.2a8.65,8.65,0,0,0-11.23-4.43,8.62,8.62,0,0,0-4.57,11.28l21.3,48.14a4,4,0,0,1-7.32,3.24L153.24,49.34v0L149,39.75a8.56,8.56,0,0,0-11.2-4.56,8.53,8.53,0,0,0-4.51,11.18l3.48,8.19c.22.42.43.86.62,1.3l20,47.08a4,4,0,1,1-7.36,3.13l-20.43-48a9.07,9.07,0,0,0-11.42-3.87,8,8,0,0,0-4.27,10.55L121,81.54q.28.55.54,1.14L136,116.76a4,4,0,1,1-7.36,3.13h0L113.79,85a9.06,9.06,0,0,0-11.48-4A8,8,0,0,0,98,91.56l26.12,61.58c.72,1.7,1.51,3.61,2.36,5.68,6.22,15,16.62,40.16,28.71,51.08a4,4,0,0,1-2.69,7Z"/><path class="cls-1" d="M161.63,249.74a4,4,0,0,1-3.86-2.94l-9.09-32.87a4,4,0,1,1,7.71-2.13l9.09,32.87a4,4,0,0,1-3.85,5.07Z"/><path class="cls-2" d="M14.57,177.28,142,225.05a7.58,7.58,0,0,0,9.74-4.43L215.44,50.69A7.56,7.56,0,0,0,211,41L123,8a7.56,7.56,0,0,0-5.76.18L63.11,32.57a7.61,7.61,0,0,0-4,4.24l-49,130.73A7.57,7.57,0,0,0,14.57,177.28Z"/><path class="cls-1" d="M144.67,229.53a11.43,11.43,0,0,1-4.06-.74L13.16,181h0a11.57,11.57,0,0,1-6.77-14.88l49-130.73a11.65,11.65,0,0,1,6.08-6.48L115.61,4.52a11.46,11.46,0,0,1,8.81-.29l88,33a11.56,11.56,0,0,1,6.77,14.89L155.49,222a11.46,11.46,0,0,1-6,6.47A11.6,11.6,0,0,1,144.67,229.53ZM16,173.53,143.42,221.3a3.55,3.55,0,0,0,4.58-2.08L211.69,49.29a3.54,3.54,0,0,0-2.08-4.58l-88-33a3.56,3.56,0,0,0-2.72.09L64.76,36.22a3.65,3.65,0,0,0-1.88,2L13.88,169A3.57,3.57,0,0,0,16,173.53Z"/><path class="cls-1" d="M169.35,104.28A3.81,3.81,0,0,1,168,104L74.49,69a4,4,0,1,1,2.8-7.49l93.46,35a4,4,0,0,1-1.4,7.75Z"/><path class="cls-1" d="M160.65,127.18a4,4,0,0,1-1.4-.25l-93.46-35a4,4,0,0,1,2.81-7.49l93.45,35a4,4,0,0,1-1.4,7.74Z"/><path class="cls-1" d="M152.16,149.84a3.9,3.9,0,0,1-1.41-.26l-93.46-35a4,4,0,1,1,2.81-7.49l93.46,35a4,4,0,0,1-1.4,7.75Z"/><path class="cls-1" d="M144,172.6a4,4,0,0,1-1.4-.25L89.87,152.6a4,4,0,1,1,2.81-7.49l52.67,19.75a4,4,0,0,1-1.4,7.74Z"/><path class="cls-1" d="M101.25,54a11.65,11.65,0,0,1-4.06-.74L58.92,39a4,4,0,0,1,2.81-7.5L100,45.81a3.58,3.58,0,0,0,4.59-2.09L118,7.89a4,4,0,1,1,7.49,2.81L112.07,46.53A11.57,11.57,0,0,1,101.25,54Z"/><path class="cls-2" d="M226.75,196.26c17-19.29,17.49-46.66,6.39-71.45,0,0-6.19-12.28-11.56-22.13-.68-1.18-7.5-9.88-8.06-10.61l-8.91-11.54a10.41,10.41,0,0,0-17.16,11.73l14.79,32.22a61.95,61.95,0,0,0-9.05,35.36"/><path class="cls-1" d="M226.74,200.26a4,4,0,0,1-3-6.64c14.86-16.87,17-41.94,5.77-67.09-.54-1.08-6.37-12.6-11.41-21.85-.48-.75-2.81-3.8-6.92-9.09-.44-.57-.75-1-.85-1.1L201.45,83a6.42,6.42,0,0,0-9.34-.88,6.41,6.41,0,0,0-1.24,8.1,3,3,0,0,1,.21.4l14.79,32.21a4,4,0,0,1-.22,3.76,58,58,0,0,0-8.47,33.08,4,4,0,0,1-8,.38,66,66,0,0,1,8.54-35.78L183.9,94.12a14.41,14.41,0,0,1,23.88-16l8.9,11.53c.12.15.41.52.82,1.06,5.73,7.35,7.1,9.24,7.54,10,5.39,9.88,11.61,22.21,11.67,22.33l.08.17c12.6,28.11,10,56.42-7,75.73A4,4,0,0,1,226.74,200.26Z"/></svg>