<svg id="Capa_1" data-name="Capa 1" xmlns="http://www.w3.org/2000/svg" viewBox="0 0 260.1 260.1"><defs><style>.cls-1{fill:#1d1d1b;}.cls-2{fill:#fff;}</style></defs><title>iconos-apoyos</title><path class="cls-1" d="M235.34,243.18a4,4,0,0,1-3.78-2.69l-17.15-49.42a4,4,0,1,1,7.56-2.62l17.15,49.41a4,4,0,0,1-2.47,5.09A4.06,4.06,0,0,1,235.34,243.18Z"/><path class="cls-1" d="M140.16,212.78a4,4,0,0,1-2.68-1c-13.81-12.47-24.53-38.39-31.63-55.54-.87-2.1-1.68-4-2.41-5.79L76.53,87a16.43,16.43,0,0,1,8.71-21.53A17.39,17.39,0,0,1,95,64.3l-2.11-5a16.4,16.4,0,0,1,8.69-21.53,17.38,17.38,0,0,1,10.21-1.05,16.91,16.91,0,0,1,30.61-12.49A16.83,16.83,0,0,1,150,17.9a17.07,17.07,0,0,1,22.17,8.76l29.37,67.2a4,4,0,1,1-7.33,3.2L164.83,29.88a9,9,0,0,0-16.56.3,8.9,8.9,0,0,0,.07,6.89l21.93,49.57A4,4,0,0,1,163,89.88L136.63,30.37a8.9,8.9,0,1,0-16.41,6.92l3.59,8.44c.23.43.44.88.63,1.33L145,95.57a4,4,0,1,1-7.36,3.13L116.6,49.22a9.48,9.48,0,0,0-11.93-4,8.42,8.42,0,0,0-4.45,11l7.37,17.32q.28.57.54,1.17L123,109.81a4,4,0,0,1-7.37,3.13l-15.3-36a9.49,9.49,0,0,0-12-4.17,8.42,8.42,0,0,0-4.46,11l26.9,63.44c.75,1.75,1.56,3.72,2.44,5.86,6.41,15.48,17.13,41.39,29.6,52.66a4,4,0,0,1-2.68,7Z"/><path class="cls-1" d="M151.14,252.47a4,4,0,0,1-3.85-2.93l-11-39.7a4,4,0,0,1,7.72-2.13l11,39.69a4,4,0,0,1-3.86,5.07Z"/><path class="cls-2" d="M65.56,41.47,53.09,36.8a5.69,5.69,0,0,0-7.41,3.13L18.5,112.45A5.68,5.68,0,0,0,22,119.68l120.35,45.11a5.69,5.69,0,0,0,7.41-3.13L177,89.14a5.7,5.7,0,0,0-3.53-7.23l-26-9.76Z"/><path class="cls-1" d="M144.53,169.18a10,10,0,0,1-3.56-.65L20.62,123.42a10,10,0,0,1-5.49-5,9.32,9.32,0,0,1-.38-7.42L41.93,38.52a9.33,9.33,0,0,1,5.17-5.34,10,10,0,0,1,7.4-.13L67,37.73h0L174.84,78.16a9.71,9.71,0,0,1,5.88,12.38l-27.19,72.52a9.28,9.28,0,0,1-5.16,5.34A9.84,9.84,0,0,1,144.53,169.18ZM50.94,40.41a1.84,1.84,0,0,0-.73.14,1.39,1.39,0,0,0-.79.78L22.24,113.85a1.38,1.38,0,0,0,.08,1.1,2,2,0,0,0,1.11,1L143.78,161a2,2,0,0,0,1.48,0,1.38,1.38,0,0,0,.78-.78l27.18-72.51A1.71,1.71,0,0,0,172,85.65L51.69,40.54A2.19,2.19,0,0,0,50.94,40.41Z"/><circle class="cls-2" cx="97.73" cy="100.79" r="31.4"/><path class="cls-1" d="M97.75,136.21A35.45,35.45,0,1,1,112.39,133,35.3,35.3,0,0,1,97.75,136.21Zm0-62.83a27.42,27.42,0,1,0,9.63,1.75A27.26,27.26,0,0,0,97.72,73.38Z"/><line class="cls-2" x1="124.93" y1="142.08" x2="138.98" y2="147.34"/><path class="cls-1" d="M139,151.34a4,4,0,0,1-1.4-.25l-14.05-5.27a4,4,0,1,1,2.81-7.49l14,5.27a4,4,0,0,1-1.41,7.74Z"/><line class="cls-2" x1="36.05" y1="108.76" x2="50.1" y2="114.03"/><path class="cls-1" d="M50.1,118a3.9,3.9,0,0,1-1.41-.26l-14-5.26a4,4,0,1,1,2.8-7.49l14,5.26A4,4,0,0,1,50.1,118Z"/><line class="cls-2" x1="70.53" y1="59.51" x2="56.49" y2="54.24"/><path class="cls-1" d="M70.53,63.51a3.85,3.85,0,0,1-1.4-.26L55.08,58a4,4,0,0,1,2.81-7.49l14,5.26a4,4,0,0,1-1.41,7.75Z"/><line class="cls-2" x1="159.42" y1="92.82" x2="145.37" y2="87.56"/><path class="cls-1" d="M159.42,96.83a4.13,4.13,0,0,1-1.41-.26L144,91.3a4,4,0,1,1,2.81-7.49l14,5.27a4,4,0,0,1-1.4,7.75Z"/><path class="cls-2" d="M206.14,201.1s.56-.38,1.53-1.12a61,61,0,0,0,14.22-81.49l-8.51-13.23a21.77,21.77,0,0,0-21.28-9.78l-34,4.91a10.73,10.73,0,0,0-9,12.87h0a10.74,10.74,0,0,0,10.79,8.47l22.69-.12,4.23,16.14"/><path class="cls-1" d="M206.15,205.09a4,4,0,0,1-2.26-7.3c.06,0,.55-.38,1.36-1,23.45-17.83,29.28-51.28,13.28-76.15L210,107.43a17.82,17.82,0,0,0-17.37-8l-34,4.9a6.73,6.73,0,0,0,1,13.39h.19l22.78-.12h0a4,4,0,0,1,3.87,3l4.23,16.14a4,4,0,0,1-7.74,2l-3.44-13.14-19.59.1h-.4a14.73,14.73,0,0,1-2-29.31l34-4.91a25.85,25.85,0,0,1,25.21,11.58l8.52,13.22a65,65,0,0,1-15.17,86.85c-1.07.81-1.69,1.23-1.69,1.23A4,4,0,0,1,206.15,205.09Z"/></svg>