<svg id="Capa_1" data-name="Capa 1" xmlns="http://www.w3.org/2000/svg" viewBox="0 0 260.1 260.1"><defs><style>.cls-1{fill:#1d1d1b;}.cls-2{fill:#fff;}</style></defs><title>iconos-apoyos</title><path class="cls-1" d="M235.34,243.18a4,4,0,0,1-3.78-2.69l-17.15-49.42a4,4,0,1,1,7.56-2.62l17.15,49.41a4,4,0,0,1-2.47,5.09A4.06,4.06,0,0,1,235.34,243.18Z"/><path class="cls-1" d="M140.16,212.78a4,4,0,0,1-2.68-1c-13.81-12.47-24.53-38.39-31.63-55.54-.87-2.11-1.68-4-2.41-5.79L76.53,87a16.43,16.43,0,0,1,8.71-21.53A17.39,17.39,0,0,1,95,64.3l-2.11-5a16.4,16.4,0,0,1,8.69-21.53,17.38,17.38,0,0,1,10.21-1.05,16.91,16.91,0,0,1,30.61-12.49A16.83,16.83,0,0,1,150,17.9a17.07,17.07,0,0,1,22.17,8.76l29.37,67.2a4,4,0,1,1-7.33,3.2L164.83,29.88a9,9,0,0,0-16.56.3,9,9,0,0,0,.06,6.89l21.94,49.57A4,4,0,0,1,163,89.88L136.62,30.37a8.9,8.9,0,1,0-16.4,6.92l3.6,8.45c.22.43.43.87.62,1.32L145,95.57a4,4,0,1,1-7.36,3.13h0l-21-49.47a9.47,9.47,0,0,0-11.93-4,8.42,8.42,0,0,0-4.45,11l7.37,17.31c.19.39.37.78.54,1.18L123,109.81a4,4,0,0,1-7.37,3.13l-15.3-36a9.49,9.49,0,0,0-12-4.17,8.42,8.42,0,0,0-4.46,11l26.9,63.44c.74,1.75,1.56,3.72,2.44,5.85,6.41,15.49,17.13,41.4,29.6,52.67a4,4,0,0,1-2.68,7Z"/><path class="cls-1" d="M151.14,252.47a4,4,0,0,1-3.85-2.93l-11-39.7a4,4,0,1,1,7.71-2.13l11,39.69a4,4,0,0,1-3.86,5.07Z"/><path class="cls-2" d="M69.55,40.11,57.32,34.8a5.85,5.85,0,0,0-7.7,3L17,112.92a5.84,5.84,0,0,0,3,7.69l118,51.3a5.85,5.85,0,0,0,7.7-3l32.64-75.09a5.84,5.84,0,0,0-3-7.69L149.78,75Z"/><path class="cls-1" d="M140.33,176.4a10,10,0,0,1-3.92-.82l-118-51.3a9.85,9.85,0,0,1-5.11-13L46,36.23a9.85,9.85,0,0,1,12.95-5.1l118,51.3A9.86,9.86,0,0,1,182,95.38l-32.64,75.09a9.88,9.88,0,0,1-9,5.93ZM55,38.31a1.85,1.85,0,0,0-1.7,1.12L20.65,114.51a1.84,1.84,0,0,0,0,1.41,1.85,1.85,0,0,0,1,1l118,51.3a1.85,1.85,0,0,0,2.43-1L174.67,92.2a1.85,1.85,0,0,0-1-2.44L68,43.78h0L55.72,38.47A1.73,1.73,0,0,0,55,38.31Z"/><line class="cls-2" x1="41.71" y1="59.7" x2="168.28" y2="114.72"/><path class="cls-1" d="M168.28,118.73a3.92,3.92,0,0,1-1.59-.34l-126.57-55A4,4,0,1,1,43.31,56l126.57,55a4,4,0,0,1-1.6,7.67Z"/><path class="cls-2" d="M206.14,201.1s.56-.38,1.53-1.12a61,61,0,0,0,14.22-81.49l-8.51-13.23a21.77,21.77,0,0,0-21.28-9.78l-34,4.91a10.73,10.73,0,0,0-9,12.87h0a10.74,10.74,0,0,0,10.79,8.47l22.69-.12,4.23,16.14"/><path class="cls-1" d="M206.15,205.09a4,4,0,0,1-2.26-7.3c.06,0,.55-.38,1.36-1,23.45-17.83,29.28-51.28,13.28-76.15L210,107.43a17.82,17.82,0,0,0-17.37-8l-34,4.9a6.73,6.73,0,0,0,1,13.39h.19l22.78-.12h0a4,4,0,0,1,3.87,3l4.23,16.14a4,4,0,0,1-7.74,2l-3.44-13.14-19.59.1h-.4a14.73,14.73,0,0,1-2-29.31l34-4.91a25.85,25.85,0,0,1,25.21,11.58l8.52,13.22a65,65,0,0,1-15.17,86.85c-1.07.81-1.69,1.23-1.69,1.23A4,4,0,0,1,206.15,205.09Z"/></svg>