<svg id="Capa_1" data-name="Capa 1" xmlns="http://www.w3.org/2000/svg" viewBox="0 0 260.1 260.1"><defs><style>.cls-1{fill:#1d1d1b;}.cls-2{fill:#fff;}</style></defs><title>iconos-apoyos</title><path class="cls-1" d="M235.34,243.88a4,4,0,0,1-3.78-2.69L215.7,195.51a4,4,0,1,1,7.56-2.63l15.86,45.68a4,4,0,0,1-2.47,5.09A3.81,3.81,0,0,1,235.34,243.88Z"/><path class="cls-1" d="M147.34,215.77a4,4,0,0,1-2.68-1c-12.82-11.58-22.75-35.58-29.32-51.46-.8-1.95-1.55-3.75-2.23-5.35L88.24,99.28A15.52,15.52,0,0,1,96.45,79a16.31,16.31,0,0,1,8.62-1.16l-1.74-4.08a15.47,15.47,0,0,1,8.2-20.3,16.39,16.39,0,0,1,9.19-1.07,15.93,15.93,0,0,1,28.66-11.7A15.9,15.9,0,0,1,156.3,35a16.09,16.09,0,0,1,20.9,8.26l27.15,62.13a4,4,0,1,1-7.33,3.2L169.87,46.5a8,8,0,0,0-10.45-4.11,8,8,0,0,0-4.24,10.51l20.28,45.83a4,4,0,0,1-7.32,3.24L143.8,47a7.94,7.94,0,0,0-10.41-4.25,7.92,7.92,0,0,0-4.2,10.4l3.32,7.8c.21.4.4.81.58,1.24l19,44.84a4,4,0,0,1-7.37,3.13L125.29,64.4a8.45,8.45,0,0,0-10.64-3.61,7.49,7.49,0,0,0-4,9.81l6.81,16c.18.36.36.72.51,1.09l13.77,32.47a4,4,0,0,1-7.36,3.13L110.27,90a8.43,8.43,0,0,0-10.7-3.7,7.48,7.48,0,0,0-4,9.81l24.87,58.66c.69,1.62,1.44,3.44,2.25,5.41,5.92,14.29,15.82,38.21,27.3,48.58a4,4,0,0,1-2.69,7Z"/><path class="cls-1" d="M157.49,252.47a4,4,0,0,1-3.85-2.93l-10.15-36.7a4,4,0,1,1,7.71-2.13l10.15,36.69a4,4,0,0,1-2.79,4.93A3.88,3.88,0,0,1,157.49,252.47Z"/><path class="cls-2" d="M29.52,211.77h136.1a7.55,7.55,0,0,0,7.56-7.56V22.74a7.55,7.55,0,0,0-7.56-7.56h-94a7.61,7.61,0,0,0-5.33,2.19L24.19,59.24A7.54,7.54,0,0,0,22,64.6V204.21A7.55,7.55,0,0,0,29.52,211.77Z"/><path class="cls-1" d="M165.62,215.77H29.52A11.57,11.57,0,0,1,18,204.21V64.6a11.61,11.61,0,0,1,3.41-8.2L63.51,14.54a11.46,11.46,0,0,1,8.14-3.36h94a11.57,11.57,0,0,1,11.56,11.56V204.21A11.57,11.57,0,0,1,165.62,215.77Zm-94-196.59a3.59,3.59,0,0,0-2.51,1L27,62.07A3.6,3.6,0,0,0,26,64.6V204.21a3.57,3.57,0,0,0,3.56,3.56h136.1a3.56,3.56,0,0,0,3.56-3.56V22.74a3.56,3.56,0,0,0-3.56-3.56Z"/><path class="cls-1" d="M147.43,89.35H47.62a4,4,0,0,1,0-8h99.81a4,4,0,0,1,0,8Z"/><path class="cls-1" d="M147.32,113.85H47.52a4,4,0,0,1,0-8h99.8a4,4,0,0,1,0,8Z"/><path class="cls-1" d="M147.32,138H47.52a4,4,0,0,1,0-8h99.8a4,4,0,0,1,0,8Z"/><path class="cls-1" d="M147.63,162.24H91.37a4,4,0,0,1,0-8h56.26a4,4,0,0,1,0,8Z"/><path class="cls-1" d="M63.37,66.68H22.51a4,4,0,1,1,0-8H63.37a3.57,3.57,0,0,0,3.56-3.56V16.86a4,4,0,0,1,8,0V55.12A11.57,11.57,0,0,1,63.37,66.68Z"/><path class="cls-2" d="M208.35,204.67s.51-.35,1.41-1a56.36,56.36,0,0,0,13.15-75.34L215,116.07a20.13,20.13,0,0,0-19.67-9l-31.46,4.54a9.93,9.93,0,0,0-8.28,11.9h0a9.93,9.93,0,0,0,10,7.84l21-.11,3.91,14.92"/><path class="cls-1" d="M208.35,208.67a4,4,0,0,1-2.26-7.3s.5-.35,1.25-.91a52.6,52.6,0,0,0,12.2-70l-7.87-12.23A16.15,16.15,0,0,0,195.91,111l-31.43,4.53a5.92,5.92,0,0,0-4.94,7.1,6,6,0,0,0,6,4.68l21.07-.12h0a4,4,0,0,1,3.87,3l3.91,14.93a4,4,0,1,1-7.74,2L183.5,135.2l-17.88.1a13.92,13.92,0,0,1-2.28-27.7l31.45-4.54a24.22,24.22,0,0,1,23.61,10.85l7.87,12.23c16.95,26.34,10.76,61.79-14.09,80.69-1,.76-1.58,1.15-1.58,1.15A4,4,0,0,1,208.35,208.67Z"/></svg>