<svg id="Capa_1" data-name="Capa 1" xmlns="http://www.w3.org/2000/svg" viewBox="0 0 260.1 260.1"><defs><style>.cls-1{fill:none;}.cls-1,.cls-4{stroke:#1d1d1b;stroke-linecap:round;stroke-linejoin:round;stroke-width:8px;}.cls-2,.cls-3,.cls-4{fill:#fff;}.cls-2{stroke:#fff;stroke-miterlimit:10;stroke-width:5px;}</style></defs><title>hand-over-money</title><line class="cls-1" x1="197.7" y1="194.23" x2="217.19" y2="250.41"/><path class="cls-1" d="M93.91,106.44,83.82,68a11.4,11.4,0,0,0-14.77-7.88h0a11.4,11.4,0,0,0-7.37,13.37c4.83,20.66,15.66,66.61,17.65,72.34,6.76,19.49,17.65,59.31,44.37,71.66l9.22,33"/><path class="cls-1" d="M121.64,105.73l-11.8-36-9.35-28.55a11.47,11.47,0,0,0-14.66-7.27h0A11.47,11.47,0,0,0,78.5,47.63L87.74,82.9l8.32,31.71"/><path class="cls-1" d="M144.56,88.86,119.72,21.13a12.26,12.26,0,0,0-15.53-7.35h0a12.25,12.25,0,0,0-7.62,15.39l13.78,42.1,9.6,29.31"/><path class="cls-1" d="M172,84,168.1,75,146.34,25.07a11.82,11.82,0,0,0-14.72-6.45h0a11.83,11.83,0,0,0-7.23,15.25l11.73,32,11.34,30.92"/><line class="cls-2" x1="130.88" y1="128.8" x2="145.69" y2="134.35"/><line class="cls-2" x1="37.14" y1="93.66" x2="51.96" y2="99.21"/><line class="cls-2" x1="73.51" y1="41.72" x2="58.69" y2="36.17"/><line class="cls-2" x1="167.24" y1="76.86" x2="152.43" y2="71.3"/><path class="cls-3" d="M151.54,159.66a12.94,12.94,0,0,1-4.55-.83L20.07,111.26a12.82,12.82,0,0,1-7-6.36,12,12,0,0,1-.48-9.64L41.21,18.79a12.44,12.44,0,0,1,11.65-7.93,12.89,12.89,0,0,1,4.54.83L184.31,59.26a12.76,12.76,0,0,1,7.05,6.37,12.08,12.08,0,0,1,.48,9.62l-28.66,76.48a12.11,12.11,0,0,1-6.7,6.93A12.64,12.64,0,0,1,151.54,159.66Z"/><path class="cls-3" d="M52.86,13.36a10.51,10.51,0,0,1,3.66.67L183.44,61.6a10.26,10.26,0,0,1,5.67,5.12,9.58,9.58,0,0,1,.39,7.65l-28.66,76.48a9.63,9.63,0,0,1-5.33,5.51,10.27,10.27,0,0,1-4,.8,10.44,10.44,0,0,1-3.67-.67L21,108.92a10.33,10.33,0,0,1-5.67-5.12,9.6,9.6,0,0,1-.39-7.66L43.56,19.67a9.85,9.85,0,0,1,9.3-6.31m0-5h0a14.93,14.93,0,0,0-14,9.56L10.2,94.39a14.56,14.56,0,0,0,.58,11.6,15.32,15.32,0,0,0,8.41,7.61l126.92,47.57a15.34,15.34,0,0,0,5.43,1,15.16,15.16,0,0,0,5.89-1.19,14.62,14.62,0,0,0,8.09-8.36l28.66-76.48a14.56,14.56,0,0,0-.58-11.6,15.25,15.25,0,0,0-8.4-7.61L58.27,9.35a15.2,15.2,0,0,0-5.41-1Z"/><path class="cls-4" d="M68.27,22.7,55.11,17.77a6,6,0,0,0-7.81,3.3L18.63,97.55a6,6,0,0,0,3.72,7.62l126.92,47.58a6,6,0,0,0,7.82-3.31L185.75,73A6,6,0,0,0,182,65.34L154.57,55.05Z"/><circle class="cls-4" cx="102.19" cy="85.26" r="33.12"/><line class="cls-4" x1="130.88" y1="128.8" x2="145.69" y2="134.35"/><line class="cls-4" x1="37.14" y1="93.66" x2="51.96" y2="99.21"/><line class="cls-4" x1="73.51" y1="41.72" x2="58.69" y2="36.17"/><line class="cls-4" x1="167.24" y1="76.86" x2="152.43" y2="71.3"/><path class="cls-4" d="M178.63,135.42A43.26,43.26,0,0,0,181.68,119l-3.22-8.71-6.05-16.33,6.05,16.33-6.05-16.33a16.27,16.27,0,0,1,7.72-20.06h0a6.45,6.45,0,0,1,8.68,2.66l11.85,22.09-9.72-18.11,9.72,18.11q4.22,9,8.45,17.93c2.9,6.73,2.62,8.22,2.85,13.18,2.18,45.36-2.23,54.07-22.37,67.3"/></svg>