<svg id="Capa_1" data-name="Capa 1" xmlns="http://www.w3.org/2000/svg" viewBox="0 0 260.1 260.1"><defs><style>.cls-1{fill:#1d1d1b;}.cls-2{fill:#fff;}</style></defs><title>icon</title><path class="cls-1" d="M226.35,249.74a4,4,0,0,1-3.78-2.69L203.05,190.8a4,4,0,0,1,7.56-2.63l19.52,56.26a4,4,0,0,1-2.46,5.09A4.06,4.06,0,0,1,226.35,249.74Z"/><path class="cls-1" d="M124.55,213.54a4,4,0,0,1-2.69-1C107.34,199.38,96,172.07,88.56,154c-.92-2.22-1.77-4.28-2.54-6.11L57.65,81a17.1,17.1,0,0,1,9.06-22.42,18.09,18.09,0,0,1,10.53-1.13l-2.38-5.59a17.09,17.09,0,0,1,9-22.42,18,18,0,0,1,11-1,17.61,17.61,0,0,1,32-13A17.6,17.6,0,0,1,135,8.44a17.79,17.79,0,0,1,23.1,9.13l31,70.87a4,4,0,0,1-7.33,3.2l-31-70.85a9.74,9.74,0,0,0-12.65-5A9.7,9.7,0,0,0,133,28.54L156.1,80.82a4,4,0,0,1-7.32,3.24L121,21.31a9.65,9.65,0,0,0-12.62-5.14,9.61,9.61,0,0,0-5.08,12.6l3.79,8.92c.24.45.46.92.66,1.39l21.69,51.16a4,4,0,0,1-7.36,3.13L99.9,41.18A10.21,10.21,0,0,0,87,36.8a9.09,9.09,0,0,0-4.82,11.93L90,67c.21.4.4.81.58,1.23l15.71,37a4,4,0,0,1-7.37,3.12L82.77,70.44a10.22,10.22,0,0,0-12.93-4.5A9.1,9.1,0,0,0,65,77.88l28.37,66.9C94.17,146.63,95,148.7,96,151c6.76,16.34,18.08,43.7,31.27,55.62a4,4,0,0,1-2.68,7Z"/><path class="cls-1" d="M134.56,249.74a4,4,0,0,1-3.85-2.94l-10-36.2a4,4,0,0,1,7.71-2.13l10,36.2a4,4,0,0,1-3.86,5.07Z"/><path class="cls-2" d="M60.2,34.71A17.55,17.55,0,1,1,47.88,67.58L41.64,84.23l104.8,39.28,24.8-66.15L66.44,18.08Z"/><path class="cls-1" d="M146.44,127.51a4,4,0,0,1-1.4-.25L40.24,88a4,4,0,0,1-2.34-5.15l6.24-16.65a4,4,0,0,1,5.15-2.34A13.56,13.56,0,1,0,58.8,38.45a4,4,0,0,1-2.34-5.15l6.23-16.63a4,4,0,0,1,5.15-2.34l104.8,39.28A4,4,0,0,1,175,58.76l-24.79,66.16A4,4,0,0,1,146.44,127.51ZM46.79,81.89l97.31,36.47,22-58.66L68.78,23.23l-3.56,9.48a21.65,21.65,0,0,1,8.49,9.53,21.32,21.32,0,0,1,.67,16.54,21.64,21.64,0,0,1-24,13.61Z"/><line class="cls-2" x1="102.99" y1="34.15" x2="79.73" y2="96.21"/><path class="cls-1" d="M99.84,46.57a4.07,4.07,0,0,1-1.41-.25,4,4,0,0,1-2.34-5.15l3.16-8.43a4,4,0,0,1,7.49,2.81L103.58,44A4,4,0,0,1,99.84,46.57Z"/><path class="cls-1" d="M88.54,76.71a4,4,0,0,1-3.74-5.4l5.64-15.07a4,4,0,0,1,7.49,2.81L92.29,74.11A4,4,0,0,1,88.54,76.71Z"/><path class="cls-1" d="M79.73,100.21a3.85,3.85,0,0,1-1.4-.26A4,4,0,0,1,76,94.8l3.16-8.43a4,4,0,0,1,7.49,2.81l-3.16,8.43A4,4,0,0,1,79.73,100.21Z"/><path class="cls-2" d="M205.18,191.49c18.46-21,19-50.7,6.94-77.63,0,0-6.73-13.34-12.56-24-.74-1.27-8.15-10.72-8.76-11.52l-9.67-12.54A11.31,11.31,0,0,0,162.48,78.5l16.07,35a67.2,67.2,0,0,0-9.83,38.41"/><path class="cls-1" d="M205.17,195.49a4,4,0,0,1-3-6.64c16.23-18.43,18.59-45.81,6.32-73.27-.57-1.12-6.92-13.69-12.41-23.77-.51-.79-3.05-4.13-7.56-9.93l-.91-1.17L178,68.2a7.32,7.32,0,0,0-12.06,8.24,3.72,3.72,0,0,1,.21.39l16.07,35a4,4,0,0,1-.22,3.75,63.37,63.37,0,0,0-9.25,36.14,4,4,0,1,1-8,.38A71.3,71.3,0,0,1,174,113.27L158.93,80.36a15.31,15.31,0,0,1,25.36-17L194,75.84l.87,1.13c6.19,8,7.72,10,8.18,10.84,5.85,10.73,12.6,24.12,12.67,24.26l.08.16c13.63,30.42,10.79,61-7.59,81.91A4,4,0,0,1,205.17,195.49Z"/></svg>