<svg id="Capa_1" data-name="Capa 1" xmlns="http://www.w3.org/2000/svg" viewBox="0 0 260.1 260.1"><defs><style>.cls-1{fill:#1d1d1b;}.cls-2{fill:#fff;}</style></defs><title>iconos-apoyos</title><path class="cls-1" d="M215.34,243.18a4,4,0,0,1-3.78-2.69l-17.15-49.42a4,4,0,1,1,7.56-2.62l17.14,49.41a4,4,0,0,1-2.46,5.09A4.06,4.06,0,0,1,215.34,243.18Z"/><path class="cls-1" d="M120.16,212.78a4,4,0,0,1-2.68-1C103.67,199.27,93,173.35,85.85,156.2c-.87-2.1-1.68-4-2.41-5.79L56.53,87a16.43,16.43,0,0,1,8.71-21.53A17.39,17.39,0,0,1,75,64.3l-2.11-5a16.4,16.4,0,0,1,8.69-21.53,17.37,17.37,0,0,1,10.21-1.05,16.91,16.91,0,0,1,30.61-12.49A16.83,16.83,0,0,1,130,17.9a17.07,17.07,0,0,1,22.17,8.76l29.37,67.2a4,4,0,1,1-7.33,3.2L144.83,29.88a9,9,0,0,0-16.56.3,8.9,8.9,0,0,0,.07,6.89l21.93,49.57A4,4,0,1,1,143,89.88L116.63,30.37a8.9,8.9,0,1,0-16.41,6.92l3.6,8.45c.22.43.43.87.62,1.32L125,95.57a4,4,0,1,1-7.36,3.13L96.6,49.22a9.48,9.48,0,0,0-11.93-4,8.42,8.42,0,0,0-4.45,11l7.37,17.32c.19.38.38.77.54,1.17L103,109.81a4,4,0,0,1-7.37,3.13L80.36,77a9.49,9.49,0,0,0-12-4.17,8.42,8.42,0,0,0-4.46,11l26.9,63.44c.75,1.75,1.56,3.72,2.44,5.86,6.41,15.48,17.13,41.39,29.6,52.66a4,4,0,0,1-2.68,7Z"/><path class="cls-1" d="M131.14,252.47a4,4,0,0,1-3.85-2.93l-11-39.7a4,4,0,0,1,7.72-2.13l11,39.69a4,4,0,0,1-3.86,5.07Z"/><path class="cls-2" d="M56.85,79.13a15.84,15.84,0,1,1-12.18,29.24L38.5,123.18,131.7,162l24.51-58.83L63,64.35Z"/><path class="cls-1" d="M131.69,166a4,4,0,0,1-1.53-.31L37,126.87a4,4,0,0,1-2.15-5.23L41,106.83a4,4,0,0,1,5.23-2.15,11.91,11.91,0,0,0,9.14,0,11.59,11.59,0,0,0,6.47-6.33,12.07,12.07,0,0,0-6.51-15.54,4.06,4.06,0,0,1-2.16-2.17,4,4,0,0,1,0-3.06l6.16-14.79a4,4,0,0,1,5.24-2.16l93.19,38.84a4,4,0,0,1,2.16,5.23l-24.52,58.83A4,4,0,0,1,131.69,166Zm-88-45,85.81,35.76L151,105.34,65.17,69.58l-3.24,7.77a19.81,19.81,0,0,1-15,35.88Z"/><line class="cls-2" x1="95.45" y1="80.03" x2="72.45" y2="135.22"/><path class="cls-1" d="M93,90a4,4,0,0,1-3.69-5.54l2.5-6a4,4,0,1,1,7.38,3.08l-2.5,6A4,4,0,0,1,93,90Z"/><path class="cls-1" d="M81,118.82a4,4,0,0,1-3.69-5.54l6-14.4A4,4,0,1,1,90.64,102l-6,14.4A4,4,0,0,1,81,118.82Z"/><path class="cls-1" d="M72.45,139.22a4,4,0,0,1-3.69-5.54l2.5-6a4,4,0,1,1,7.38,3.08l-2.5,6A4,4,0,0,1,72.45,139.22Z"/><path class="cls-2" d="M186.14,201.1s.56-.38,1.53-1.12a61,61,0,0,0,14.22-81.49l-8.51-13.23a21.77,21.77,0,0,0-21.28-9.78l-34,4.91a10.73,10.73,0,0,0-9,12.87h0a10.74,10.74,0,0,0,10.79,8.47l22.69-.12,4.23,16.14"/><path class="cls-1" d="M186.15,205.09a4,4,0,0,1-2.26-7.3c.06,0,.55-.38,1.36-1,23.45-17.83,29.28-51.28,13.28-76.15L190,107.43a17.82,17.82,0,0,0-17.37-8l-34,4.9a6.73,6.73,0,0,0,1,13.39h.19l22.78-.12h0a4,4,0,0,1,3.87,3l4.23,16.14a4,4,0,0,1-7.74,2l-3.44-13.14-19.59.1h-.4a14.73,14.73,0,0,1-2-29.31l34-4.91a25.85,25.85,0,0,1,25.21,11.58l8.52,13.22a65,65,0,0,1-15.17,86.85c-1.07.81-1.69,1.23-1.69,1.23A4,4,0,0,1,186.15,205.09Z"/></svg>