<svg id="Capa_1" data-name="Capa 1" xmlns="http://www.w3.org/2000/svg" viewBox="0 0 260.1 260.1"><defs><style>.cls-1,.cls-5{fill:none;}.cls-1,.cls-4,.cls-5{stroke:#1d1d1b;stroke-linecap:round;stroke-linejoin:round;stroke-width:8px;}.cls-2,.cls-3,.cls-4{fill:#fff;}.cls-2{stroke:#fff;stroke-miterlimit:10;stroke-width:5px;}.cls-5{stroke-dasharray:16.09 16.09;}</style></defs><title>hand-over-ticket</title><line class="cls-1" x1="198.2" y1="194.23" x2="217.69" y2="250.41"/><path class="cls-1" d="M94.41,106.44,84.32,68a11.4,11.4,0,0,0-14.77-7.88h0a11.4,11.4,0,0,0-7.37,13.37C67,94.1,77.84,140.05,79.82,145.78c6.77,19.49,17.66,59.31,44.38,71.66l9.22,33"/><path class="cls-1" d="M122.14,105.73l-11.8-36L101,41.15a11.47,11.47,0,0,0-14.66-7.27h0A11.49,11.49,0,0,0,79,47.63L88.24,82.9l8.32,31.71"/><path class="cls-1" d="M145.06,88.86,120.21,21.13a12.24,12.24,0,0,0-15.52-7.35h0a12.25,12.25,0,0,0-7.63,15.39l13.79,42.1,9.6,29.31"/><path class="cls-1" d="M172.5,84,168.6,75,146.84,25.07a11.82,11.82,0,0,0-14.72-6.45h0a11.83,11.83,0,0,0-7.23,15.25l11.73,32L148,96.77"/><line class="cls-2" x1="75.4" y1="102.48" x2="74.75" y2="104.21"/><line class="cls-2" x1="98.01" y1="42.14" x2="97.38" y2="43.82"/><path class="cls-3" d="M141.46,138a6.54,6.54,0,0,1-2.29-.41L34.38,98.32A6.53,6.53,0,0,1,30.56,90L36.81,73.3a6.5,6.5,0,0,1,6.08-4.22,6.22,6.22,0,0,1,2.3.43,11.2,11.2,0,0,0,3.89.7,11.49,11.49,0,0,0,4.66-1A10.82,10.82,0,0,0,59.2,54.65a11.19,11.19,0,0,0-6.26-5.85,6.53,6.53,0,0,1-3.82-8.37L55.36,23.8a6.56,6.56,0,0,1,6.09-4.22,6.45,6.45,0,0,1,2.29.42L168.52,59.27a6.51,6.51,0,0,1,3.82,8.36l-24.79,66.16a6.52,6.52,0,0,1-6.09,4.22Z"/><path class="cls-3" d="M61.45,22.08a4.13,4.13,0,0,1,1.41.26L167.65,61.61A4,4,0,0,1,170,66.76l-24.79,66.15a4,4,0,0,1-3.75,2.6,4,4,0,0,1-1.4-.25L35.26,96a4,4,0,0,1-2.35-5.15l6.25-16.65a4,4,0,0,1,3.73-2.6,4,4,0,0,1,1.41.26,13.64,13.64,0,0,0,4.78.87,14,14,0,0,0,5.68-1.22A13.31,13.31,0,0,0,61.47,53.6a13.67,13.67,0,0,0-7.65-7.14,4,4,0,0,1-2.35-5.16l6.24-16.62a4,4,0,0,1,3.74-2.6m0-5h0A9,9,0,0,0,53,22.92L46.78,39.54A9,9,0,0,0,52,51.13a8.79,8.79,0,0,1,4.89,4.56,8.32,8.32,0,0,1-4.22,11.24,9,9,0,0,1-3.63.78,8.77,8.77,0,0,1-3-.55,8.92,8.92,0,0,0-6.88.23,8.93,8.93,0,0,0-4.7,5L28.22,89.07a9,9,0,0,0,5.27,11.59L138.3,139.94a8.85,8.85,0,0,0,3.16.57,9,9,0,0,0,8.42-5.82l24.8-66.17a9,9,0,0,0-5.27-11.59L64.61,17.66a9,9,0,0,0-3.16-.58Z"/><path class="cls-4" d="M55.22,42.71A17.55,17.55,0,1,1,42.89,75.58L36.65,92.23l104.8,39.28,24.8-66.15L61.45,26.08Z"/><line class="cls-3" x1="98.01" y1="42.15" x2="74.75" y2="104.21"/><line class="cls-1" x1="98.01" y1="42.15" x2="94.85" y2="50.57"/><line class="cls-5" x1="89.2" y1="65.64" x2="80.73" y2="88.24"/><line class="cls-1" x1="77.91" y1="95.78" x2="74.75" y2="104.21"/><path class="cls-1" d="M172.91,93.94l6,16.33,3.23,8.71a43.08,43.08,0,0,1-3.06,16.44"/><path class="cls-1" d="M190.09,197c20.13-13.23,24.55-21.94,22.37-67.3-.23-5,0-6.45-2.85-13.18q-4.23-9-8.45-17.93l-9.72-18.11"/><path class="cls-1" d="M201.16,98.63,189.31,76.54a6.45,6.45,0,0,0-8.68-2.66h0a16.27,16.27,0,0,0-7.72,20.06l6,16.33"/></svg>