<svg id="Capa_1" data-name="Capa 1" xmlns="http://www.w3.org/2000/svg" viewBox="0 0 260.1 260.1"><defs><style>.cls-1{fill:none;}.cls-1,.cls-3{stroke:#1d1d1b;stroke-linecap:round;stroke-linejoin:round;stroke-width:8px;}.cls-2,.cls-3{fill:#fff;}</style></defs><title>hand-over-document</title><line class="cls-1" x1="220.57" y1="194.23" x2="240.07" y2="250.41"/><path class="cls-1" d="M116.79,106.44,106.7,68a11.41,11.41,0,0,0-14.78-7.88h0a11.4,11.4,0,0,0-7.37,13.37c4.84,20.66,15.66,66.61,17.65,72.34,6.76,19.49,17.66,59.31,44.37,71.66l9.22,33"/><path class="cls-1" d="M144.51,105.73l-11.8-36-9.35-28.55a11.47,11.47,0,0,0-14.66-7.27h0a11.47,11.47,0,0,0-7.33,13.75l9.25,35.27,8.31,31.71"/><path class="cls-1" d="M167.43,88.86,142.59,21.13a12.25,12.25,0,0,0-15.52-7.35h0a12.25,12.25,0,0,0-7.63,15.39l13.79,42.1,9.59,29.31"/><path class="cls-1" d="M194.87,84,191,75,169.22,25.07a11.83,11.83,0,0,0-14.73-6.45h0a11.83,11.83,0,0,0-7.23,15.25l11.73,32,11.34,30.92"/><path class="cls-2" d="M146.67,234a13.91,13.91,0,0,1-4.95-.9L14.29,185.36a14.14,14.14,0,0,1-9.13-13.17,13.92,13.92,0,0,1,.9-4.93l49-130.73a14.1,14.1,0,0,1,7.38-7.88L116.59,4.24a14,14,0,0,1,10.71-.35l88,33A14.07,14.07,0,0,1,223.53,55L159.83,224.9A14.06,14.06,0,0,1,146.67,234Z"/><path class="cls-2" d="M122.36,5.49a11.71,11.71,0,0,1,4.07.74l88,33a11.58,11.58,0,0,1,6.77,14.89L157.49,224a11.54,11.54,0,0,1-14.88,6.77L15.17,183A11.54,11.54,0,0,1,8.4,168.14l49-130.73a11.63,11.63,0,0,1,6.07-6.48L117.62,6.52a11.41,11.41,0,0,1,4.74-1m0-5h0A16.41,16.41,0,0,0,115.55,2L61.41,26.37a16.67,16.67,0,0,0-8.7,9.29l-49,130.73a16.44,16.44,0,0,0-1,5.8A16.64,16.64,0,0,0,13.41,187.7l127.44,47.77a16.56,16.56,0,0,0,21.32-9.7l63.7-169.91a16.59,16.59,0,0,0-9.69-21.33l-88-33A16.56,16.56,0,0,0,122.36.49Z"/><path class="cls-3" d="M16.57,179.28,144,227.05a7.58,7.58,0,0,0,9.74-4.43L217.44,52.69A7.56,7.56,0,0,0,213,43L125,10a7.56,7.56,0,0,0-5.76.18L65.11,34.57a7.61,7.61,0,0,0-4,4.24l-49,130.73A7.57,7.57,0,0,0,16.57,179.28Z"/><line class="cls-1" x1="171.35" y1="102.28" x2="77.89" y2="67.25"/><line class="cls-1" x1="162.65" y1="125.18" x2="69.19" y2="90.15"/><line class="cls-1" x1="154.16" y1="147.84" x2="60.7" y2="112.81"/><line class="cls-1" x1="145.95" y1="170.6" x2="93.27" y2="150.86"/><path class="cls-1" d="M62.33,37.21l38.26,14.34a7.55,7.55,0,0,0,9.73-4.42L123.75,11.3"/><path class="cls-3" d="M201.5,135.42A43.07,43.07,0,0,0,204.55,119l-3.22-8.71-6-16.33,6,16.33-6-16.33A16.26,16.26,0,0,1,203,73.88h0a6.44,6.44,0,0,1,8.68,2.66l11.85,22.09-9.71-18.11,9.71,18.11q4.23,9,8.45,17.93c2.9,6.73,2.62,8.22,2.86,13.18,2.17,45.36-2.24,54.07-22.38,67.3"/></svg>