<svg id="Capa_1" data-name="Capa 1" xmlns="http://www.w3.org/2000/svg" viewBox="0 0 260.1 260.1"><defs><style>.cls-1{fill:#1d1d1b;}.cls-2{fill:#fff;}</style></defs><title>icon</title><path class="cls-1" d="M236.35,249.74a4,4,0,0,1-3.78-2.69L213.05,190.8a4,4,0,0,1,7.56-2.63l19.52,56.26a4,4,0,0,1-3.78,5.31Z"/><path class="cls-1" d="M134.54,213.54a4,4,0,0,1-2.68-1C117.34,199.38,106,172.07,98.56,154c-.92-2.22-1.77-4.27-2.54-6.1L67.65,81a17.11,17.11,0,0,1,9.06-22.42,18.09,18.09,0,0,1,10.54-1.12l-2.39-5.6a17.09,17.09,0,0,1,9-22.42,18,18,0,0,1,11-1A17.62,17.62,0,0,1,115.28,8.81a17.64,17.64,0,0,1,21.6,6.55A17.6,17.6,0,0,1,145,8.44a17.79,17.79,0,0,1,23.1,9.13l31,70.87a4,4,0,0,1-7.33,3.2l-31-70.85a9.74,9.74,0,0,0-12.65-5A9.7,9.7,0,0,0,143,28.54L166.1,80.82a4,4,0,0,1-7.32,3.24L131,21.31a9.64,9.64,0,0,0-12.61-5.14,9.6,9.6,0,0,0-5.09,12.6l3.79,8.92c.24.45.46.92.66,1.39l21.69,51.16a4,4,0,0,1-7.36,3.13L109.9,41.18A10.2,10.2,0,0,0,97,36.8a9.09,9.09,0,0,0-4.82,11.93L100,67q.3.6.57,1.23l15.71,37a4,4,0,0,1-7.37,3.12h0L92.77,70.44a10.21,10.21,0,0,0-12.93-4.5A9.1,9.1,0,0,0,75,77.88l28.37,66.9c.79,1.84,1.65,3.92,2.57,6.16,6.77,16.35,18.09,43.71,31.28,55.63a4,4,0,0,1-2.69,7Z"/><path class="cls-1" d="M144.56,249.74a4,4,0,0,1-3.85-2.94l-10-36.2a4,4,0,0,1,7.71-2.13l10,36.2a4,4,0,0,1-3.86,5.07Z"/><path class="cls-2" d="M77.9,17.55,65.42,12.87a5.85,5.85,0,0,0-7.53,3.42L29.15,93a5.86,5.86,0,0,0,3.43,7.53l120.47,45.16a5.85,5.85,0,0,0,7.53-3.43l28.74-76.66A5.85,5.85,0,0,0,185.89,58l-26.06-9.77Z"/><path class="cls-1" d="M155.09,150a9.68,9.68,0,0,1-3.44-.63L31.17,104.23a9.85,9.85,0,0,1-5.76-12.67L54.15,14.89A9.84,9.84,0,0,1,66.82,9.13L79.31,13.8h0l108,40.48A9.84,9.84,0,0,1,193.06,67l-28.73,76.67A9.87,9.87,0,0,1,155.09,150ZM63.37,16.5a1.84,1.84,0,0,0-1.73,1.2L32.9,94.36A1.85,1.85,0,0,0,34,96.74L154.46,141.9a1.86,1.86,0,0,0,2.38-1.08l28.73-76.67a1.86,1.86,0,0,0-1.08-2.38L64,16.62A1.81,1.81,0,0,0,63.37,16.5Z"/><line class="cls-2" x1="51.12" y1="38.54" x2="180.35" y2="86.98"/><path class="cls-1" d="M180.35,91a4.11,4.11,0,0,1-1.41-.25L49.71,42.29a4,4,0,0,1,2.81-7.49L181.75,83.24a4,4,0,0,1-1.4,7.74Z"/><path class="cls-2" d="M215.18,191.49c18.46-21,19-50.7,6.94-77.63,0,0-6.73-13.34-12.56-24-.74-1.27-8.15-10.72-8.76-11.52l-9.67-12.54A11.31,11.31,0,0,0,172.48,78.5l16.07,35a67.2,67.2,0,0,0-9.83,38.41"/><path class="cls-1" d="M215.17,195.49a4,4,0,0,1-3-6.64c16.24-18.43,18.61-45.81,6.33-73.27-.57-1.12-6.92-13.69-12.41-23.77-.5-.78-3-4.11-7.52-9.88l-.95-1.22L188,68.2a7.32,7.32,0,0,0-12.06,8.24,3.72,3.72,0,0,1,.21.39l16.07,35a4,4,0,0,1-.22,3.75,63.37,63.37,0,0,0-9.25,36.14,4,4,0,1,1-8,.38A71.3,71.3,0,0,1,184,113.27L168.93,80.36a15.31,15.31,0,0,1,25.36-17L204,75.84l.91,1.18c6.19,8,7.67,10,8.14,10.79,5.85,10.73,12.6,24.12,12.67,24.26l.08.16c13.63,30.42,10.79,61-7.59,81.91A4,4,0,0,1,215.17,195.49Z"/></svg>