<svg id="Capa_1" data-name="Capa 1" xmlns="http://www.w3.org/2000/svg" viewBox="0 0 260.1 260.1"><defs><style>.cls-1{fill:#1d1d1b;}</style></defs><title>icon</title><path class="cls-1" d="M89.32,225.68h-.2a4,4,0,0,1-3.8-4.19l2.15-43.64-1.91-1.6c-3.78-3.14-9-7.45-12.53-12.87a84.74,84.74,0,0,1-12.27-28.85,79.77,79.77,0,0,1-1.18-24.83,4,4,0,0,1,8,.86,72.06,72.06,0,0,0,1.06,22.34A77.75,77.75,0,0,0,79.71,159c2.93,4.44,7.39,8.15,11,11.13,1.33,1.11,2.59,2.16,3.61,3.12a4,4,0,0,1,1.26,3.11l-2.24,45.56A4,4,0,0,1,89.32,225.68Z"/><path class="cls-1" d="M177.85,225.68a4,4,0,0,1-4-4l-.13-45.55a4,4,0,0,1,1-2.64c14-16,13.77-56.21,13.67-77.79,0-1.78,0-3.45,0-5V66.12a8.28,8.28,0,0,0-8.29-8.3c-6.95,0-9.42,5.07-9.42,9.42l0,9.46a4,4,0,0,1-4,4h0a4,4,0,0,1-4-4l-.05-22.86a8.4,8.4,0,0,0-8.39-8.31,9.44,9.44,0,0,0-9.42,9.42l0,21.74a4,4,0,0,1-4,4h0a4,4,0,0,1-4-4L136.72,48a8.87,8.87,0,0,0-17.73.13v5.13c0,.38,0,.76,0,1.14v22.3a4,4,0,0,1-4,4h0a4,4,0,0,1-4-4l0-23.13a8.86,8.86,0,0,0-17.68.82v55.74a4,4,0,0,1-8,0V54.38A16.85,16.85,0,0,1,112.5,41.06a17,17,0,0,1,3.39-4.89,16.86,16.86,0,0,1,27.42,5.15,17.32,17.32,0,0,1,10.84-3.8,16.44,16.44,0,0,1,16.32,14.92,18,18,0,0,1,9.59-2.62,16.29,16.29,0,0,1,16.29,16.3V90.73c0,1.52,0,3.17,0,4.94.11,23.71.3,63.06-14.65,81.9l.13,44.1a4,4,0,0,1-4,4Z"/><path class="cls-1" d="M89.32,78.45H15.82a4,4,0,0,1,0-8h73.5a4,4,0,0,1,0,8Z"/><path class="cls-1" d="M89.32,114.12H15.82a4,4,0,1,1,0-8h73.5a4,4,0,0,1,0,8Z"/><path class="cls-1" d="M249.18,78.45H192.39a4,4,0,0,1,0-8h56.79a4,4,0,0,1,0,8Z"/><path class="cls-1" d="M249.18,114.12H192.39a4,4,0,0,1,0-8h56.79a4,4,0,0,1,0,8Z"/></svg>