<svg id="Capa_1" data-name="Capa 1" xmlns="http://www.w3.org/2000/svg" viewBox="0 0 260.1 260.1"><defs><style>.cls-1{fill:none;}.cls-1,.cls-3{stroke:#1d1d1b;stroke-linecap:round;stroke-linejoin:round;stroke-width:8px;}.cls-2,.cls-3{fill:#fff;}</style></defs><title>hold</title><path class="cls-1" d="M63.56,110.12a76.1,76.1,0,0,0,1.11,23.58,81.07,81.07,0,0,0,11.7,27.47c4.41,6.68,11.61,11.61,15.18,15l-2.23,45.55"/><line class="cls-1" x1="15.82" y1="74.45" x2="90.02" y2="74.45"/><line class="cls-1" x1="15.82" y1="110.12" x2="89.24" y2="110.12"/><line class="cls-1" x1="191.24" y1="74.45" x2="249.18" y2="74.45"/><line class="cls-1" x1="192.39" y1="110.12" x2="249.18" y2="110.12"/><path class="cls-2" d="M167,171.13l-.72-.65c-10.55-9.6-30.94-28.2-48.91-45C82.8,93.15,82.84,91.58,82.88,89.93c.32-13,1.18-26,2.54-38.73a18.08,18.08,0,0,1,18-16.18,17.87,17.87,0,0,1,8.51,2.13,19.39,19.39,0,0,1,32,0,18.13,18.13,0,0,1,26.12,11.71,18.33,18.33,0,0,1,25.1,12.29l.08.29a118.93,118.93,0,0,1,3.67,29.09c2.46,39.51,1.79,61.47-8.7,79.37l-.72,1.24Z"/><path class="cls-2" d="M128,31.19a16.91,16.91,0,0,1,15.16,9.44A15.64,15.64,0,0,1,168,51.54l.13,1.26a15.85,15.85,0,0,1,24.61,9l.09.33a116.13,116.13,0,0,1,3.58,28.51c2.5,40,1.61,61-8.35,78H167.94C147.72,150.25,85.3,93.24,85.38,90c.32-12.86,1.16-25.77,2.53-38.52a15.6,15.6,0,0,1,24.88-10.82A16.89,16.89,0,0,1,128,31.19m0-5A21.74,21.74,0,0,0,111.16,34,20.63,20.63,0,0,0,82.93,50.94C81.56,63.7,80.7,76.8,80.38,89.87c-.06,2.44.48,3.84,11.5,14.75,5.62,5.56,13.61,13.18,23.75,22.67,18,16.83,38.38,35.44,48.94,45l1.43,1.3h24.94l1.45-2.47c10.8-18.45,11.53-40.74,9-80.72a121.18,121.18,0,0,0-3.74-29.58v-.08l-.08-.3a20.8,20.8,0,0,0-25.9-14.85,20.66,20.66,0,0,0-27-11.61A21.74,21.74,0,0,0,128,26.19Z"/><path class="cls-3" d="M140.85,76.68V48.1A12.91,12.91,0,0,0,128,35.19h0A12.91,12.91,0,0,0,115,48.1V76.68"/><path class="cls-3" d="M115,76.68V53.13a11.61,11.61,0,0,0-11.61-11.61h0A11.62,11.62,0,0,0,91.88,51.9h0a466.27,466.27,0,0,0-2.64,49.71v8.51"/><path class="cls-3" d="M166.62,76.68,164,52a11.65,11.65,0,0,0-11.58-10.44h0a11.65,11.65,0,0,0-11.65,11.65V76.68"/><path class="cls-3" d="M166.62,76.68l-1-9.77a11.86,11.86,0,0,1,11.79-13.09h0a11.85,11.85,0,0,1,11.49,8.93l.08.32a111.7,111.7,0,0,1,3.47,27.66h0c2.95,47,1.42,66.86-14.71,85.4l.13,45.55"/></svg>