<svg id="Capa_1" data-name="Capa 1" xmlns="http://www.w3.org/2000/svg" viewBox="0 0 500 500"><defs><style>.cls-1{fill:none;stroke:#1d1d1b;stroke-miterlimit:10;stroke-width:10px;}</style></defs><title>Íconos apoyo</title><g id="_Grupo_" data-name="&lt;Grupo&gt;"><path id="_Trazado_" data-name="&lt;Trazado&gt;" class="cls-1" d="M184.56,103.5H30.46a20,20,0,0,0-20,20V402.88a20,20,0,0,0,20,20H469.54a20,20,0,0,0,20-20V123.46a20,20,0,0,0-20-20h-135"/><g id="_Grupo_2" data-name="&lt;Grupo&gt;"><ellipse id="_Trazado_2" data-name="&lt;Trazado&gt;" class="cls-1" cx="148.56" cy="238.24" rx="26.67" ry="32.67"/><path id="_Trazado_3" data-name="&lt;Trazado&gt;" class="cls-1" d="M77.2,351.29S97.66,294.08,150,294.08c53.14,0,69.91,57.1,69.91,57.1"/><rect id="_Rectángulo_" data-name="&lt;Rectángulo&gt;" class="cls-1" x="58.56" y="173.17" width="180" height="180" rx="15" ry="15"/><g id="_Grupo_3" data-name="&lt;Grupo&gt;"><line id="_Trazado_4" data-name="&lt;Trazado&gt;" class="cls-1" x1="280.42" y1="204.59" x2="441.44" y2="204.59"/><line id="_Trazado_5" data-name="&lt;Trazado&gt;" class="cls-1" x1="279.6" y1="262.67" x2="440.63" y2="262.67"/><line id="_Trazado_6" data-name="&lt;Trazado&gt;" class="cls-1" x1="279.12" y1="321.75" x2="369.87" y2="321.75"/></g></g><rect id="_Rectángulo_2" data-name="&lt;Rectángulo&gt;" class="cls-1" x="182" y="61.25" width="150" height="60" rx="15" ry="15"/></g></svg>