<svg id="Capa_1" data-name="Capa 1" xmlns="http://www.w3.org/2000/svg" viewBox="0 0 260.1 260.1"><defs><style>.cls-1{fill:#1d1d1b;}</style></defs><title>iconos-apoyos</title><path d="M94.72,108.46a4,4,0,0,1-3.27-1.7c-2.25-3.19-8.9-6.62-18.18-6.62s-15.94,3.43-18.19,6.62a4,4,0,1,1-6.54-4.61c4.3-6.08,14-10,24.73-10s20.42,3.93,24.72,10a4,4,0,0,1-3.27,6.31Z"/><path d="M94.72,88.39a4,4,0,0,1-3.27-1.69C87.35,80.88,76.83,77,65.27,77S43.2,80.88,39.1,86.7a4,4,0,1,1-6.54-4.62C38.18,74.12,51,69,65.27,69S92.37,74.12,98,82.08a4,4,0,0,1-3.27,6.31Z"/><path d="M217.44,88.39a4,4,0,0,1-3.27-1.69C210.06,80.88,199.54,77,188,77s-22.07,3.91-26.17,9.73a4,4,0,0,1-6.54-4.62C160.9,74.12,173.74,69,188,69s27.09,5.15,32.72,13.11a4,4,0,0,1-3.27,6.31Z"/><circle class="cls-1" cx="73.69" cy="104.75" r="7.95"/><path d="M201.46,108.46a4,4,0,0,1-3.27-1.7c-2.26-3.19-8.91-6.62-18.19-6.62s-15.93,3.43-18.18,6.62a4,4,0,1,1-6.54-4.61c4.29-6.08,14-10,24.72-10s20.43,3.93,24.72,10a4,4,0,0,1-3.26,6.31Z"/><circle class="cls-1" cx="180.43" cy="104.75" r="7.95"/><path d="M86.52,218.45a4,4,0,1,1,0-8,41.75,41.75,0,0,0,16.83-3.76q1.32-.56,2.49-1.08c1.27-.55,2.47-1.08,3.57-1.5a15.82,15.82,0,0,1,5.11-1.18,7.64,7.64,0,0,1,3.36.67c.72.26,1.58.64,2.49,1s1.78.78,2.78,1.18a16.2,16.2,0,0,0,5.89,1.34,19.39,19.39,0,0,0,7.54-2l1.36-.59c.86-.37,1.63-.7,2.27-1a7.91,7.91,0,0,1,3.31-.67,16.16,16.16,0,0,1,5.11,1.17c1.18.43,2.47,1,3.84,1.6,4.79,2.12,10.76,4.75,19.1,4.75a4,4,0,0,1,0,8c-10,0-17.44-3.27-22.34-5.43-1.29-.58-2.4-1.07-3.35-1.41a10.48,10.48,0,0,0-2.42-.67l-.39.13c-.55.21-1.2.5-1.93.82l-1.42.61a26.88,26.88,0,0,1-10.65,2.68,23.76,23.76,0,0,1-8.83-1.89c-1.13-.44-2.17-.9-3.08-1.3s-1.54-.67-2.08-.87l-.46-.16a9,9,0,0,0-2.34.65c-.93.35-2,.82-3.22,1.36-.82.36-1.68.74-2.6,1.12A49.24,49.24,0,0,1,86.52,218.45Zm55.76-7.67Zm0,0h0Zm0,0Zm-26.18-.05Zm0,0Zm0,0h0Zm0,0Z"/><path d="M129.05,184.81c-10,0-18.55-6.31-20.23-15a4,4,0,0,1,7.85-1.52c.94,4.86,6.26,8.53,12.38,8.53s11.43-3.67,12.37-8.53a4,4,0,0,1,7.85,1.52C147.59,178.5,139.08,184.81,129.05,184.81Z"/></svg>