<svg id="Capa_1" data-name="Capa 1" xmlns="http://www.w3.org/2000/svg" viewBox="0 0 260.1 260.1"><defs><style>.cls-1{fill:#1d1d1b;}</style></defs><title>icon</title><path d="M219.85,88.39a4,4,0,0,1-3.27-1.69C212.48,80.88,202,77,190.4,77s-22.07,3.91-26.17,9.73a4,4,0,0,1-6.54-4.62c5.62-8,18.46-13.11,32.71-13.11s27.1,5.15,32.72,13.11a4,4,0,0,1-3.27,6.31Z"/><path d="M204.7,107.44a4,4,0,0,1-2.51-.88c-2.39-1.93-9.12-6.42-19.78-6.42-8.54,0-14.28,3.09-19.2,6.44a4,4,0,0,1-4.5-6.62c5.37-3.64,12.91-7.82,23.7-7.82,9.3,0,18.34,3,24.8,8.19a4,4,0,0,1-2.51,7.11Z"/><circle class="cls-1" cx="182.84" cy="104.75" r="7.95"/><path d="M97.13,88.39a4,4,0,0,1-3.27-1.69C89.76,80.88,79.24,77,67.69,77S45.62,80.88,41.51,86.7A4,4,0,0,1,35,82.08C40.6,74.12,53.44,69,67.69,69s27.09,5.15,32.71,13.11a4,4,0,0,1-3.27,6.31Z"/><path d="M53.39,107.44a4,4,0,0,1-2.51-7.11c6.46-5.21,15.5-8.19,24.8-8.19,10.79,0,18.33,4.18,23.7,7.82a4,4,0,1,1-4.5,6.62c-4.92-3.35-10.66-6.44-19.2-6.44-10.66,0-17.39,4.49-19.78,6.42A4,4,0,0,1,53.39,107.44Z"/><circle class="cls-1" cx="75.25" cy="104.75" r="7.95"/><path d="M129,230.5c-22,0-43.58-12.06-44.49-12.57a4,4,0,0,1,2-7.48,41.75,41.75,0,0,0,16.83-3.76c.88-.37,1.71-.73,2.5-1.08,1.26-.55,2.46-1.08,3.55-1.5a16,16,0,0,1,5.12-1.18,7.64,7.64,0,0,1,3.36.67c.72.26,1.58.64,2.49,1s1.78.79,2.78,1.18a16.2,16.2,0,0,0,5.89,1.34,19.39,19.39,0,0,0,7.54-2l1.36-.59c.86-.37,1.63-.7,2.27-1a7.93,7.93,0,0,1,3.31-.67,16.16,16.16,0,0,1,5.11,1.17c1.18.43,2.47,1,3.84,1.6,4.79,2.12,10.76,4.75,19.1,4.75a4,4,0,0,1,2,7.44C172.74,218.38,152.06,230.5,129,230.5Zm-28.76-14.15c7.74,3,18.33,6.15,28.76,6.15,10.91,0,21.43-3.12,29-6.11a76,76,0,0,1-8.82-3.4c-1.29-.57-2.4-1.07-3.35-1.41a10.61,10.61,0,0,0-2.42-.67l-.39.13c-.55.21-1.2.5-1.93.82l-1.43.61a26.83,26.83,0,0,1-10.64,2.68,23.8,23.8,0,0,1-8.83-1.89c-1.13-.44-2.17-.9-3.08-1.3s-1.54-.67-2.08-.87l-.46-.16a9.48,9.48,0,0,0-2.34.65c-.93.35-2,.82-3.22,1.36-.82.36-1.68.74-2.6,1.12A62.45,62.45,0,0,1,100.28,216.35Zm42-5.56Zm0,0Zm0,0Zm0,0h0Zm-26.2-.06Zm0,0Zm0,0Zm0,0Z"/><path d="M129.05,184.81c-10,0-18.55-6.31-20.23-15a4,4,0,0,1,7.85-1.52c.94,4.86,6.26,8.53,12.38,8.53s11.43-3.67,12.37-8.53a4,4,0,0,1,7.85,1.52C147.59,178.5,139.08,184.81,129.05,184.81Z"/></svg>