<svg id="Capa_1" data-name="Capa 1" xmlns="http://www.w3.org/2000/svg" viewBox="0 0 260.1 260.1"><defs><style>.cls-1{fill:#1d1d1b;}.cls-2{fill:#fff;}</style></defs><title>icon</title><path class="cls-1" d="M119.21,257.1H119a4,4,0,0,1-3.79-4.2l2-41.61c-11.09-8.53-22.34-19.69-30.75-41.18-3.72-9.53-10.55-35.9-5.32-44.62,2.89-4.82,10.36-15.31,14.76-19.93a9.62,9.62,0,0,1,16.59,6.65v24.22l2.68,2.31V92.11a16.34,16.34,0,0,1,28.63-10.78c.24-.28.5-.56.77-.82a16.2,16.2,0,0,1,11.59-4.83,16.41,16.41,0,0,1,14.9,9.63,16.77,16.77,0,0,1,10.35-3.56A15.94,15.94,0,0,1,197.24,96a17.55,17.55,0,0,1,9.07-2.4,15.79,15.79,0,0,1,15.8,15.81v18c0,1.46,0,3,0,4.75.11,22.76.3,60.52-14.05,78.66l.12,42.28a4,4,0,0,1-4,4h0a4,4,0,0,1-4-4l-.12-43.72a3.94,3.94,0,0,1,1-2.64c13.36-15.36,13.17-53.87,13.07-74.56,0-1.71,0-3.31,0-4.79v-18a7.78,7.78,0,0,0-7.8-7.81c-6.55,0-8.88,4.78-8.88,8.88l-.05,2a4,4,0,0,1-8-.09l0-14.78a7.9,7.9,0,0,0-7.88-7.83,8.9,8.9,0,0,0-8.89,8.82l0,13.77a4,4,0,0,1-4,4h0a4,4,0,0,1-4-4l0-13.71V92a8.35,8.35,0,0,0-16.67-.62c0,.26,0,.52,0,.78v20.24a4,4,0,0,1-4,4h0a4,4,0,0,1-4-4l0-20.24c0-.26,0-.51,0-.76a8.35,8.35,0,0,0-16.66.75v55.34a4,4,0,0,1-6.61,3l-10.68-9.19a4,4,0,0,1-1.39-3V112.21a1.63,1.63,0,0,0-2.8-1.14c-3.84,4.05-11,14.11-13.69,18.53-2.39,4,.87,24.71,5.91,37.6,7.66,19.57,17.45,29.73,29.79,39a4,4,0,0,1,1.6,3.4l-2.14,43.73A4,4,0,0,1,119.21,257.1Z"/><rect class="cls-2" x="108.54" y="19.87" width="10.68" height="118.4"/><path class="cls-1" d="M119.22,142.27H108.54a4,4,0,0,1-4-4V19.87a4,4,0,0,1,4-4h10.68a4,4,0,0,1,4,4v118.4A4,4,0,0,1,119.22,142.27Zm-6.68-8h2.68V23.87h-2.68Z"/><path class="cls-1" d="M133.73,84a4,4,0,0,1-4-4V12H113.88a4,4,0,0,1,0-8h19.85a4,4,0,0,1,4,4V80A4,4,0,0,1,133.73,84Z"/><path class="cls-1" d="M85.25,155.1H39.77a4,4,0,0,1-4-4V8a4,4,0,0,1,4-4h74.11a4,4,0,0,1,4,4V19.87a4,4,0,1,1-8,0V12H43.77V147.1H85.25a4,4,0,0,1,0,8Z"/><path class="cls-1" d="M95.55,54.17H53.68a3.5,3.5,0,0,1-3.5-3.5V21.44a3.5,3.5,0,0,1,3.5-3.5H95.55a3.5,3.5,0,0,1,3.5,3.5V50.67A3.5,3.5,0,0,1,95.55,54.17Zm-38.37-7H92.05V24.94H57.18Z"/></svg>