<svg id="Capa_1" data-name="Capa 1" xmlns="http://www.w3.org/2000/svg" viewBox="0 0 260.1 260.1"><defs><style>.cls-1,.cls-2{fill:none;}.cls-1,.cls-2,.cls-4,.cls-5{stroke:#1d1d1b;stroke-linecap:round;stroke-linejoin:round;}.cls-1,.cls-4,.cls-5{stroke-width:8px;}.cls-2{stroke-width:7px;}.cls-3,.cls-5{fill:#fff;}</style></defs><title>pay-with-card</title><polyline class="cls-1" points="135.04 79.96 135.04 8 113.88 8"/><polyline class="cls-1" points="85.25 151.1 39.77 151.1 39.77 8 113.88 8"/><rect class="cls-2" x="54.53" y="23.1" width="39.66" height="38.47"/><path class="cls-3" d="M113.66,237.51l1.23-21.81c-18.5-13-21.85-25.42-25.4-38.56L89,175.19c-.49-1.79-1.06-3.89-1.71-6.1-3.2-11-6.89-26-6.31-34.93.07-1.12.29-4.53,11.08-24.58l.15-.26a14.92,14.92,0,0,1,12.74-7.18l.74,0V23.1a6.51,6.51,0,0,1,6.5-6.5h7.07a6.51,6.51,0,0,1,6.5,6.5V59.84a18.59,18.59,0,0,1,24.16,16.91l.49,11.09a19.19,19.19,0,0,1,7.55-1.53,19.47,19.47,0,0,1,14,6,18.51,18.51,0,0,1,27.36,6.45,18.32,18.32,0,0,1,26.45,11.64l.12.47c1.87,7.33,1.95,7.62,2.54,12.48l.05.35c.12.95.27,2.11.46,3.56,0,.2,0,.35,0,.5,2.93,46.77,1.49,71.24-14.7,91.11l.07,18.69Z"/><path class="cls-3" d="M119.22,19.1a4,4,0,0,1,4,4V63.67a16.07,16.07,0,0,1,24.16,13.19L148.05,92a16.84,16.84,0,0,1,23.53,3.78,16,16,0,0,1,11.27-4.59h.08a16,16,0,0,1,15.15,11.25A15.83,15.83,0,0,1,223.27,111l.08.32c1.9,7.44,1.94,7.58,2.52,12.31.13,1,.29,2.29.51,3.94a2.45,2.45,0,0,1,0,.27c3,47.4,1.19,71.13-14.7,90.12l.06,17.08H116.3l1.16-20.57c-19.67-13.39-22.25-25.84-26.09-39.91-.52-1.92-1.08-4-1.72-6.15-2.57-8.83-6.8-25-6.22-34.06.21-3.28,6-14.62,10.79-23.55l.12-.21a12.4,12.4,0,0,1,13.81-5.49v-82a4,4,0,0,1,4-4h7.07m0-5h-7.07a9,9,0,0,0-9,9V99.73a17.37,17.37,0,0,0-13.06,8.19l0,.08,0,.08-.13.23,0,0,0,.05c-11,20.52-11.28,24.08-11.38,25.6-.59,9.32,3.16,24.6,6.41,35.78.64,2.17,1.19,4.18,1.7,6.06.18.66.35,1.3.52,1.95,3.6,13.32,7,25.93,25.24,39.14l-1,17.8L111,240H216.78l0-5,0-15.29c7.79-9.82,12.25-20.85,14.36-35.46,1.92-13.25,2-29.67.33-56.65,0-.27,0-.5-.05-.61v-.1c-.19-1.44-.34-2.59-.46-3.54l0-.37c-.61-5-.72-5.43-2.6-12.77l0-.15-.08-.29a20.82,20.82,0,0,0-27.88-14.27A20.92,20.92,0,0,0,183,86.2h-.12a21.06,21.06,0,0,0-10.7,2.89,21.89,21.89,0,0,0-19.43-4.66l-.34-7.79a21.07,21.07,0,0,0-24.16-19.93V23.1a9,9,0,0,0-9-9Z"/><polyline class="cls-4" points="119.22 138.27 119.22 23.1 112.15 23.1 112.15 138.27"/><path class="cls-5" d="M170.83,114v-8.34a12.89,12.89,0,0,0-12.9-12.87h0a12.9,12.9,0,0,0-12.9,12.9V114"/><path class="cls-5" d="M145,114l-1.64-37a12.08,12.08,0,0,0-12.07-11.56h0a12.09,12.09,0,0,0-12.09,12.09V147"/><path class="cls-5" d="M195.78,115.91l-.57-5.48-.47-4.47A12,12,0,0,0,182.9,95.2h0a12,12,0,0,0-12.11,12V114"/><path class="cls-1" d="M207.81,253.1l-.11-36.64c16.13-18.54,17.66-41.38,14.71-88.4h0c-1.16-8.84-.63-6.74-2.93-15.78l-.08-.32A11.86,11.86,0,0,0,207.91,103h0a11.87,11.87,0,0,0-11.8,13.09h0"/><path class="cls-1" d="M119.42,253.1l2.15-40.72c-22.88-15-22.68-26.59-28.07-45.12C90,155.15,87,141.78,87.42,134.58c.2-3.1,10.32-21.91,10.32-21.91a8.5,8.5,0,0,1,9.42-3.73h0c3.41.91,4.63,2.34,5,5.85v24.57l7.07,7.65"/></svg>