<svg id="Capa_1" data-name="Capa 1" xmlns="http://www.w3.org/2000/svg" viewBox="0 0 260.1 260.1"><defs><style>.cls-1{fill:#fff;}.cls-1,.cls-2{stroke:#1d1d1b;stroke-linecap:round;stroke-linejoin:round;stroke-width:8px;}.cls-2{fill:none;}</style></defs><title>point</title><path class="cls-1" d="M106.3,183.9l-4.51,4.5a16.43,16.43,0,0,1-23.24,0h0a16.43,16.43,0,0,1,0-23.24l17-17"/><path class="cls-2" d="M215.21,247.74l-6.47-36.27-37-120.94-53.5-43.32L77.38,12.74a14.57,14.57,0,0,0-18.89.08h0a14.59,14.59,0,0,0-1.58,20.56l68.51,72.2,1.21,9"/><path class="cls-2" d="M92.1,146.66,84,160.88a16.44,16.44,0,0,1-22.41,6.18h0a16.45,16.45,0,0,1-6.18-22.42l5.46-9.59,19.3-34a16.55,16.55,0,0,1,15.92-8.29l18.81,1.75"/><path class="cls-1" d="M143.72,247.74,96,194.54,64.79,122.25a9.91,9.91,0,0,1,4.61-12.77h0a22.14,22.14,0,0,1,29.79,9.75l10.91,21.61,24.49,7.9"/></svg>