<svg id="Capa_1" data-name="Capa 1" xmlns="http://www.w3.org/2000/svg" viewBox="0 0 260.1 260.1"><defs><style>.cls-1{fill:#fff;}.cls-2{fill:#1d1d1b;}</style></defs><title>icon</title><path class="cls-1" d="M106.3,183.9l-4.51,4.5a16.43,16.43,0,0,1-23.24,0h0a16.43,16.43,0,0,1,0-23.24l17-17"/><path class="cls-2" d="M90.17,197.21a20.43,20.43,0,0,1-14.45-34.88l17-17A4,4,0,1,1,98.38,151l-17,17A12.44,12.44,0,0,0,99,185.57l4.5-4.5a4,4,0,1,1,5.66,5.66l-4.51,4.5A20.39,20.39,0,0,1,90.17,197.21Z"/><path class="cls-2" d="M215.2,251.74a4,4,0,0,1-3.93-3.3l-6.43-36L168.32,92.87,115.76,50.32,74.8,15.8A10.58,10.58,0,0,0,59.89,30.7l68.43,72.13a4,4,0,0,1,1.06,2.22l1.21,9a4,4,0,1,1-7.93,1.07l-1-7.71L54,36.13,53.88,36A18.58,18.58,0,0,1,80,9.68l40.89,34.47L174.3,87.43a3.94,3.94,0,0,1,1.31,1.94L212.56,210.3a2.56,2.56,0,0,1,.11.46L219.14,247a4,4,0,0,1-3.23,4.64A4.34,4.34,0,0,1,215.2,251.74Z"/><path class="cls-2" d="M69.69,173.2A20.44,20.44,0,0,1,52,142.67L76.72,99.09A20.57,20.57,0,0,1,96.48,88.78l18.81,1.76a4,4,0,0,1-.74,8L95.74,96.75A12.56,12.56,0,0,0,83.67,103L58.91,146.62a12.46,12.46,0,0,0,4.67,17,12.45,12.45,0,0,0,17-4.67l8.08-14.23a4,4,0,0,1,7,3.95l-8.09,14.23A20.44,20.44,0,0,1,69.69,173.2Z"/><path class="cls-1" d="M134.59,148.74l-24.49-7.9L97.25,115.39a17.94,17.94,0,0,0-24.13-7.85h0a17.94,17.94,0,0,0-7.85,24.12l7.67,15.73,23,47.15,47.77,53.2"/><path class="cls-2" d="M143.72,251.74a4,4,0,0,1-3-1.33L93,197.21a4.24,4.24,0,0,1-.62-.92L61.67,133.41a21.94,21.94,0,0,1,39.14-19.83l12.11,24,22.89,7.39a4,4,0,1,1-2.45,7.61l-24.49-7.9a4,4,0,0,1-2.34-2L93.68,117.2a13.94,13.94,0,0,0-24.85,12.65L99.3,192.28l47.39,52.79a4,4,0,0,1-3,6.67Z"/></svg>