<svg id="Capa_1" data-name="Capa 1" xmlns="http://www.w3.org/2000/svg" viewBox="0 0 260.1 260.1"><defs><style>.cls-1{fill:#1d1d1b;}.cls-2{fill:#fff;}</style></defs><title>icon</title><path class="cls-1" d="M115.19,76.73a36.88,36.88,0,1,1,36.87-36.87A36.91,36.91,0,0,1,115.19,76.73Zm0-65.75a28.88,28.88,0,1,0,28.87,28.88A28.92,28.92,0,0,0,115.19,11Z"/><path class="cls-2" d="M187.82,254.1l-.12-43.72c15.48-17.8,14-61.93,14-82v-18a11.8,11.8,0,0,0-11.8-11.81h0c-8,0-12.88,5.76-12.88,12.88l-.05,1.91,0-14.79a11.89,11.89,0,0,0-11.88-11.81h0a12.89,12.89,0,0,0-12.89,12.89l0,13.71,0-20.41a12.35,12.35,0,0,0-12.35-12.26h0a12.34,12.34,0,0,0-12.34,12.43l0,20.24V45.2a12.34,12.34,0,0,0-12.34-12.34h0A12.34,12.34,0,0,0,102.84,45.2V112c-4.56,2-12.95,6.49-18.47,15.7-3.72,6.19-4.73,12.15-5.44,16.34a86.17,86.17,0,0,0-.27,17.91c2,21.12,13,38.48,26.32,48.48l-2.15,43.72"/><path class="cls-1" d="M102.84,258.1h-.2a4,4,0,0,1-3.8-4.2l2-41.64c-14.57-11.72-24.32-30.23-26.21-50a90.44,90.44,0,0,1,.3-18.84s0-.07,0-.11c.74-4.35,1.85-10.91,6-17.74a43.07,43.07,0,0,1,17.9-16.19V45.2a16.35,16.35,0,0,1,32.69,0V78.94a16.16,16.16,0,0,1,8.3-2.26,16.41,16.41,0,0,1,14.9,9.63,16.77,16.77,0,0,1,10.35-3.56A15.93,15.93,0,0,1,180.87,97a17.55,17.55,0,0,1,9.07-2.4,15.79,15.79,0,0,1,15.8,15.81v18c0,1.46,0,3,0,4.75.11,22.76.3,60.52-14.05,78.66l.12,42.28a4,4,0,0,1-4,4h0a4,4,0,0,1-4-4l-.12-43.72a3.94,3.94,0,0,1,1-2.64c13.36-15.36,13.17-53.87,13.07-74.56,0-1.71,0-3.31,0-4.79v-18a7.78,7.78,0,0,0-7.8-7.81c-6.55,0-8.88,4.78-8.88,8.88v.1l-.05,1.91a4,4,0,0,1-4,3.9h0a4,4,0,0,1-4-4l0-14.78a7.9,7.9,0,0,0-7.88-7.83,8.9,8.9,0,0,0-8.89,8.89l0,13.7a4,4,0,1,1-8,0l0-20.41a8.35,8.35,0,0,0-16.65-.8v21.2a4,4,0,0,1-4,4h0a4,4,0,0,1-4-4l0-20.24c0-.45,0-.9,0-1.34V45.2a8.35,8.35,0,0,0-16.69,0V148.45a4,4,0,0,1-8,0V118.58a33.89,33.89,0,0,0-11,11.13c-3.31,5.51-4.24,10.92-4.91,14.88a83.39,83.39,0,0,0-.25,16.93c1.75,18.3,11,35.37,24.73,45.65a4,4,0,0,1,1.6,3.4l-2.15,43.73A4,4,0,0,1,102.84,258.1Z"/></svg>