<svg id="Capa_1" data-name="Capa 1" xmlns="http://www.w3.org/2000/svg" viewBox="0 0 260.1 260.1"><defs><style>.cls-1{fill:none;}.cls-1,.cls-3{stroke:#1d1d1b;stroke-linecap:round;stroke-linejoin:round;stroke-width:8px;}.cls-2,.cls-3{fill:#fff;}</style></defs><title>push button</title><circle class="cls-1" cx="112.19" cy="39.86" r="32.87"/><path class="cls-2" d="M92.73,236.75l1.19-21.06c-20.28-14.43-23-29.94-25.95-46.35l-.37-2.06c-.17-1-.34-1.92-.52-2.91C65,153.1,62.86,137.83,64.33,129c.18-1.11.75-4.47,13.49-23.28l.19-.27.07-.1a14.9,14.9,0,0,1,14.66-5.58L93.87,43.9a17.9,17.9,0,0,1,35.8.08l.7,45.55a19.39,19.39,0,0,1,20.77,4.72A18.29,18.29,0,0,1,162,90.69h.18a18.43,18.43,0,0,1,16.29,10A18.34,18.34,0,0,1,205,112.34l.07.29c1.93,7.57,2,7.81,2.58,12.65l.05.39c.12,1,.27,2.09.46,3.53a4.57,4.57,0,0,1,0,.5c2.91,46.48,1.5,69.38-14.69,89.13l0,17.92Z"/><path class="cls-2" d="M111.77,28.86A15.47,15.47,0,0,1,127.17,44l.76,49.53a16.89,16.89,0,0,1,22.91,4.22A16,16,0,0,1,162,93.19h.15a16,16,0,0,1,15.15,11.24A15.86,15.86,0,0,1,202.52,113l.09.33c1.89,7.43,1.92,7.58,2.51,12.3.13,1,.29,2.29.51,3.94a2.45,2.45,0,0,1,0,.27c3,47.59,1.35,69-14.7,88.13l.05,16.32H95.37l1.12-19.81c-21-14.46-23.27-29.9-26.31-46.92-.21-1.18-.42-2.38-.65-3.61-1.66-9-4.23-25.56-2.74-34.52.55-3.24,7.44-13.93,13.13-22.33a2.43,2.43,0,0,1,.14-.2,12.43,12.43,0,0,1,14.34-4l.77.32L96.37,44a15.49,15.49,0,0,1,15.4-15.09m0-5a20.52,20.52,0,0,0-20.4,20L90.3,97h-.37A17.39,17.39,0,0,0,76.1,103.8l0,.08,0,.07c-.08.1-.17.23-.28.39-13,19.22-13.6,22.72-13.86,24.21-1.53,9.22.65,24.81,2.75,36.26.19,1,.36,1.95.53,2.89l.12.7.25,1.38c2.82,15.89,5.74,32.31,25.83,47.13l-1,17.06-.3,5.28H196l0-5,0-14.52c16.19-20.22,17.6-43.51,14.69-90.13a5.67,5.67,0,0,0-.05-.6v-.11c-.19-1.4-.33-2.52-.45-3.44l-.06-.47c-.61-4.94-.69-5.3-2.62-12.9V112l-.08-.29A20.84,20.84,0,0,0,187.16,96a21.1,21.1,0,0,0-7.66,1.46,20.94,20.94,0,0,0-17.28-9.29H162a20.81,20.81,0,0,0-10.62,2.88,22,22,0,0,0-14.24-5.27,22.51,22.51,0,0,0-4.35.43l-.65-42.29a20.49,20.49,0,0,0-20.4-20.08Z"/><path class="cls-1" d="M98.52,147.45V114.5a8.5,8.5,0,0,0-5.48-8h0a8.5,8.5,0,0,0-9.75,2.76S71.31,127,70.8,130.05c-1.19,7.12.44,20.73,2.72,33.14,3.49,19,4.26,34.14,27.14,49.19L98.51,253.1"/><path class="cls-3" d="M150.14,116v-8.34a12.89,12.89,0,0,0-12.9-12.87h0a12.9,12.9,0,0,0-12.9,12.9V116"/><path class="cls-3" d="M124.33,116l-1.1-71.93a11.4,11.4,0,0,0-11.4-11.22h0A11.4,11.4,0,0,0,100.43,44l-1.91,94.32v9.1"/><path class="cls-3" d="M175.09,117.9l-.57-5.48-.47-4.47a12,12,0,0,0-11.84-10.76h0a12,12,0,0,0-12.11,12V116"/><path class="cls-1" d="M187.11,253.1,187,216.46c16.13-18.54,17.67-39.39,14.72-86.41h0c-1.16-8.84-.63-6.74-2.93-15.78l-.08-.32A11.85,11.85,0,0,0,187.22,105h0a11.86,11.86,0,0,0-11.8,13.08h0"/></svg>