<svg id="Capa_1" data-name="Capa 1" xmlns="http://www.w3.org/2000/svg" viewBox="0 0 260.1 260.1"><defs><style>.cls-1{fill:none;stroke:#1d1d1b;stroke-linecap:round;stroke-linejoin:round;stroke-width:8px;}</style></defs><title>receive</title><line class="cls-1" x1="161.66" y1="208.49" x2="161.66" y2="250.31"/><path class="cls-1" d="M170.65,105.45l.36,17.41.19,9.29a43.14,43.14,0,0,1-8.28,14.52"/><path class="cls-1" d="M153.08,208.49c23.36-5.9,30.38-12.68,43.2-56.25,1.4-4.76,2.15-6.08,1.63-13.39q-1.07-9.84-2.11-19.7l-3.24-20.29"/><path class="cls-1" d="M92.4,91.53l3.08-39.67A11.41,11.41,0,0,0,84.1,39.57h0A11.4,11.4,0,0,0,72.76,49.79c-2.21,21.1-7.05,68.06-7.05,74.12,0,20.63-2.76,61.83,18.43,82.25l-2.71,44.15"/><path class="cls-1" d="M118.82,100,119.48,62,120,32a11.47,11.47,0,0,0-11.47-11.67h0A11.46,11.46,0,0,0,97.11,30.91L94.28,67.26,91.74,100"/><path class="cls-1" d="M146,91.53l-1.27-72.14a12.24,12.24,0,0,0-12.25-12h0a12.25,12.25,0,0,0-12.25,12l-.78,44.3-.54,30.84"/><path class="cls-1" d="M173.53,95.88l-.74-9.72L168.6,31.84a11.83,11.83,0,0,0-11.8-10.92h0A11.84,11.84,0,0,0,145,33l.6,34.06.58,32.93"/><path class="cls-1" d="M195.8,119.15l-4-24.76A6.44,6.44,0,0,0,184.52,89h0a16.28,16.28,0,0,0-13.87,16.42l.36,17.41"/></svg>