<svg id="Capa_1" data-name="Capa 1" xmlns="http://www.w3.org/2000/svg" viewBox="0 0 260.1 260.1"><defs><style>.cls-1{fill:#1d1d1b;}</style></defs><title>iconos-apoyos</title><path class="cls-1" d="M175.53,258.12a4,4,0,0,1-4-3.71l-3.92-53.82a4,4,0,0,1,8-.58l3.92,53.82a4,4,0,0,1-3.7,4.28Z"/><path class="cls-1" d="M99.29,210.81a4,4,0,0,1-1.43-.27C76.6,202.37,72,164.6,69,139.6c-.4-3.32-.78-6.46-1.16-9.13L58,60.06a16.82,16.82,0,0,1,14.31-19A17.78,17.78,0,0,1,82.41,42.6l-.81-5.73a16.81,16.81,0,0,1,14.3-19,17.73,17.73,0,0,1,10.55,1.74A17.33,17.33,0,0,1,121.31,3.78a17.33,17.33,0,0,1,18.8,11.58,17.29,17.29,0,0,1,9.36-4.42,17.48,17.48,0,0,1,19.62,14.54l11.36,74.81a4,4,0,0,1-7.91,1.2L161.19,26.7a9.45,9.45,0,0,0-10.6-7.84,9.41,9.41,0,0,0-8,10.63l8.65,55.27A4,4,0,0,1,143.32,86l-8.65-55.32h0l-1.73-11a9.31,9.31,0,1,0-18.44,2.56l1.33,9.38c.11.49.2,1,.27,1.49l7.57,53.83a4,4,0,1,1-7.92,1.12v0L108,33.11A9.89,9.89,0,0,0,97,25.79a8.81,8.81,0,0,0-7.49,10L92.25,55c.09.43.17.87.23,1.31l5.48,39A4,4,0,1,1,90,96.38v0L84.37,56.44a9.87,9.87,0,0,0-11-7.45,8.81,8.81,0,0,0-7.51,10l9.9,70.4c.39,2.75.78,5.93,1.18,9.29,2.62,21.69,7,58,23.77,64.43a4,4,0,0,1-1.44,7.74Z"/><path class="cls-1" d="M89.25,258.12a4,4,0,0,1-4-4l-.47-55.67a4,4,0,0,1,8-.07l.47,55.68a4,4,0,0,1-4,4Z"/><path class="cls-1" d="M156.6,212.38a4,4,0,0,1-1.33-7.77c.07,0,.65-.23,1.62-.63,28.19-11.54,43-43.4,33.61-72.51L185.55,116a18.53,18.53,0,0,0-15.29-12.68l-35.19-4.18a7.06,7.06,0,0,0-5.4,1.62,7,7,0,0,0-2.49,5,7.07,7.07,0,0,0,5.42,7.23l22.74,6a4,4,0,0,1,3,3.89l-.09,17.21a4,4,0,0,1-3.07,3.87,43.64,43.64,0,0,0-14.68,7.48,4,4,0,0,1-4.93-6.3,52.68,52.68,0,0,1,14.69-8l.07-11.18-19.65-5.15A15.07,15.07,0,0,1,136,91.22l35.22,4.18a26.57,26.57,0,0,1,21.94,18.17l5,15.46a66.9,66.9,0,0,1-38.2,82.35c-1.28.53-2,.78-2,.78A4,4,0,0,1,156.6,212.38Z"/></svg>