<svg id="Capa_1" data-name="Capa 1" xmlns="http://www.w3.org/2000/svg" viewBox="0 0 260.1 260.1"><defs><style>.cls-1{fill:#1d1d1b;}</style></defs><title>icon</title><path class="cls-1" d="M156.72,254.31a4,4,0,0,1-4-4V208.49a4,4,0,0,1,8,0v41.82A4,4,0,0,1,156.72,254.31Z"/><path class="cls-1" d="M71.21,254.31H71a4,4,0,0,1-3.74-4.23L70,204.56c-10.9-13.08-13.24-50.75-13.24-80.65V52.81A16.84,16.84,0,0,1,73.59,36a17.8,17.8,0,0,1,9.83,2.95v-5.8a16.8,16.8,0,0,1,16.8-16.82h0a17.7,17.7,0,0,1,10.21,3.19,17.32,17.32,0,0,1,33.93.48,17.25,17.25,0,0,1,9.88-3.07,17.48,17.48,0,0,1,17.41,17.13l.83,75.65a4,4,0,0,1-4,4h0a4,4,0,0,1-4-4l-.83-75.64a9.44,9.44,0,0,0-9.41-9.23,9.42,9.42,0,0,0-9.41,9.38l.87,56a4,4,0,0,1-3.94,4.06h-.06a4,4,0,0,1-4-3.94l-.87-56v0l-.17-11.11a9.31,9.31,0,1,0-18.62,0V32.7c0,.5.06,1,.06,1.51V88.57a4,4,0,0,1-4,4h0a4,4,0,0,1-4-4L110,33.09a9.87,9.87,0,0,0-9.83-8.77h0a8.81,8.81,0,0,0-8.8,8.81l0,19.42c0,.44,0,.89,0,1.33V93.24a4,4,0,0,1-4,4h0a4,4,0,0,1-4-4l0-40.34A9.91,9.91,0,0,0,73.59,44a8.83,8.83,0,0,0-8.82,8.82v71.1c0,40.53,4.53,69.05,12.1,76.3a4,4,0,0,1,1.23,3.14l-2.9,47.21A4,4,0,0,1,71.21,254.31Z"/><path class="cls-1" d="M149.76,213a4,4,0,0,1-1.28-7.79c20.84-7.07,27.54-11.46,43-64.07.89-3,.79-4.06.44-8-.1-1.11-.22-2.39-.33-3.95l-2.09-19.54L186.3,89.49a7.07,7.07,0,0,0-8.57-5.78,7.07,7.07,0,0,0-5.47,7.19l.63,31.16a4,4,0,0,1-.75,2.42c-1.42,2-2.76,4-4,6.14a72.89,72.89,0,0,0-4.42,8.95,4,4,0,0,1-7.4-3.06,83.66,83.66,0,0,1,4.9-9.91c1.13-1.94,2.35-3.85,3.63-5.69l-.61-29.76a15.07,15.07,0,0,1,29.94-2.93l3.24,20.3a1.2,1.2,0,0,1,0,.2l2.11,19.71a.66.66,0,0,1,0,.14c.11,1.52.23,2.78.33,3.87.39,4.29.58,6.45-.74,10.93-15.75,53.5-23.19,60.92-48.13,69.38A3.89,3.89,0,0,1,149.76,213Z"/></svg>