<svg id="Capa_1" data-name="Capa 1" xmlns="http://www.w3.org/2000/svg" viewBox="0 0 260.1 260.1"><defs><style>.cls-1{fill:#1d1d1b;}.cls-2{fill:#fff;}</style></defs><title>iconos-apoyos</title><path class="cls-1" d="M55.49,247.48a63.79,63.79,0,0,1-8.08-.52c-1.47-.19-2.94-.43-4.38-.72s-2.82-.59-4.55-1.11A39.31,39.31,0,0,1,12,218.19l-.31-1.08a3.18,3.18,0,0,1-.08-.33l-4.3-21.7c-1.06-5.32-2-10.13-2.84-15l-.52-2.49c-.17-.93-.31-1.85-.45-3a54.26,54.26,0,0,1-.38-5.92,1.77,1.77,0,0,1,0-.23c0-.48,0-1,.05-1.46v-.19c.05-1.31.1-2.61.24-3.93,0-.05,0-.09,0-.14l.57-4s0-.08,0-.11c.08-.45.18-.88.29-1.3l.08-.32A53.09,53.09,0,0,1,14.31,136a53.24,53.24,0,0,1,29.35-18.81,53.9,53.9,0,0,1,11.79-1.47h.12a53.69,53.69,0,0,1,11.75,1.47A53.13,53.13,0,0,1,96.69,136c4.62,5.93,6,12.07,7.36,18.58l.4,1.85c1.12,5.34,1.26,9,.44,11.05l-3.17,7.41c.1,1.86,2.18,6.85,3.45,9.9,2.89,6.92,4.59,11.36,3.91,14.77a4,4,0,0,1-1.8,2.61l-7,4.38c-1.09,14.59-2.28,23.07-3.52,25.22-4.21,7.22-24,13.31-24.23,13.37-1.74.53-3.26.86-4.54,1.12s-2.87.53-4.36.73A67.3,67.3,0,0,1,55.49,247.48ZM19.4,215.06l.27.95A31.46,31.46,0,0,0,40.8,237.47c1.4.42,2.65.69,3.82.93s2.54.46,3.8.63a55.92,55.92,0,0,0,14.16,0c1.28-.17,2.57-.38,3.8-.63s2.4-.5,3.81-.93c6.64-2,17.67-6.83,19.55-9.61.77-2.31,2-14.11,2.69-23.94a4,4,0,0,1,1.88-3.11l6.74-4.2a77.25,77.25,0,0,0-3.26-8.76c-2.85-6.83-4.54-11.23-4-14.62a3.4,3.4,0,0,1,.27-.89l3.3-7.72a31.7,31.7,0,0,0-.78-6.54l-.4-1.83c-1.31-6.07-2.35-10.87-5.86-15.36a45.19,45.19,0,0,0-24.92-15.95,45.17,45.17,0,0,0-9.94-1.25,45.45,45.45,0,0,0-10,1.25,45.25,45.25,0,0,0-24.9,15.93,45.46,45.46,0,0,0-8.47,18l-.11.46c-.06.25-.12.45-.15.64l-.54,3.87c-.11,1-.15,2.12-.19,3.31v.2l-.06,1.44a45.29,45.29,0,0,0,.32,4.91c.12,1,.23,1.73.36,2.42l.52,2.48s0,.09,0,.13c.83,4.77,1.76,9.54,2.82,14.83Zm85.76-16.3h0Z"/><path class="cls-2" d="M251.05,48.74V105.1a28.71,28.71,0,0,1-28.71,28.71l-65.58,0L122,171.37V133.81A28.7,28.7,0,0,1,93.28,105.1V48.74a27.58,27.58,0,0,1,27.58-27.58h102.6A27.59,27.59,0,0,1,251.05,48.74Z"/><path class="cls-1" d="M122,175.37a3.85,3.85,0,0,1-1.45-.28,4,4,0,0,1-2.55-3.72v-33.8A32.75,32.75,0,0,1,89.28,105.1V48.74a31.62,31.62,0,0,1,31.58-31.59h102.6a31.62,31.62,0,0,1,31.59,31.59V105.1a32.75,32.75,0,0,1-32.71,32.71l-63.83,0-33.6,36.31A4,4,0,0,1,122,175.37ZM120.86,25.15A23.62,23.62,0,0,0,97.28,48.74V105.1A24.73,24.73,0,0,0,122,129.81a4,4,0,0,1,4,4v27.34l27.86-30.1a4,4,0,0,1,2.93-1.28h0l65.57,0a24.74,24.74,0,0,0,24.71-24.71V48.74a23.62,23.62,0,0,0-23.59-23.59Z"/><path class="cls-1" d="M145.14,69.18A7.19,7.19,0,1,1,138,62,7.19,7.19,0,0,1,145.14,69.18Z"/><path class="cls-1" d="M216.69,69.18A7.19,7.19,0,1,1,209.5,62,7.19,7.19,0,0,1,216.69,69.18Z"/><path class="cls-1" d="M181.08,68.7a7.2,7.2,0,1,1-7.2-7.19A7.19,7.19,0,0,1,181.08,68.7Z"/></svg>