<svg id="Capa_1" data-name="Capa 1" xmlns="http://www.w3.org/2000/svg" viewBox="0 0 260.1 260.1"><defs><style>.cls-1{fill:#fff;}.cls-2{fill:#1d1d1b;}</style></defs><title>icon</title><path class="cls-1" d="M230.57,78.53v72.53A36.94,36.94,0,0,1,193.62,188L109.24,188,55.5,227.35l9-39.35a36.92,36.92,0,0,1-36.92-36.94V78.53A35.5,35.5,0,0,1,63,43h132A35.51,35.51,0,0,1,230.57,78.53Z"/><path class="cls-2" d="M55.5,231.35a4,4,0,0,1-3.9-4.89l7.93-34.76a41,41,0,0,1-36-40.64V78.53A39.54,39.54,0,0,1,63,39h132a39.55,39.55,0,0,1,39.5,39.5v72.53A41,41,0,0,1,193.62,192L110.55,192,57.86,230.58A4,4,0,0,1,55.5,231.35ZM63,47a31.53,31.53,0,0,0-31.49,31.5v72.53A33,33,0,0,0,64.47,184a4,4,0,0,1,3.13,1.51,4,4,0,0,1,.77,3.38l-6.59,28.89,45.09-33.06a4,4,0,0,1,2.37-.77h0l84.39.05a33,33,0,0,0,32.94-32.94V78.53A31.53,31.53,0,0,0,195.07,47Z"/><path d="M72.72,132.23a15.33,15.33,0,1,1,15.33-15.32A15.33,15.33,0,0,1,72.72,132.23Zm0-22.65a7.33,7.33,0,1,0,7.33,7.33A7.34,7.34,0,0,0,72.72,109.58Z"/><path d="M185.39,132.23a15.33,15.33,0,1,1,15.32-15.32A15.34,15.34,0,0,1,185.39,132.23Zm0-22.65a7.33,7.33,0,1,0,7.32,7.33A7.34,7.34,0,0,0,185.39,109.58Z"/><path d="M129.3,131.47a15.33,15.33,0,1,1,15.33-15.33A15.34,15.34,0,0,1,129.3,131.47Zm0-22.65a7.33,7.33,0,1,0,7.33,7.32A7.33,7.33,0,0,0,129.3,108.82Z"/></svg>