<svg id="Capa_1" data-name="Capa 1" xmlns="http://www.w3.org/2000/svg" viewBox="0 0 260.1 260.1"><defs><style>.cls-1{fill:#fff;}.cls-2{fill:#1d1d1b;}</style></defs><title>icon</title><path class="cls-1" d="M100,156.9l-5.77.34a14.9,14.9,0,0,1-15.76-14h0a14.9,14.9,0,0,1,14-15.76l21.77-1.3"/><path class="cls-2" d="M93.32,161.27a18.91,18.91,0,0,1-1.11-37.78l21.77-1.3a4,4,0,0,1,.47,8l-21.77,1.3A10.9,10.9,0,0,0,94,153.25l5.77-.35a4,4,0,1,1,.47,8l-5.76.34C94.08,161.26,93.7,161.27,93.32,161.27Z"/><path class="cls-1" d="M105.67,131.66l-15.77.94a15.86,15.86,0,0,1-16.78-14.89h0A15.87,15.87,0,0,1,88,100.93"/><path class="cls-2" d="M88.93,136.63a19.86,19.86,0,0,1-1.16-39.69,4,4,0,1,1,.48,8,11.87,11.87,0,1,0,1.42,23.69l15.76-.94a4,4,0,1,1,.47,8l-15.76.94C89.74,136.62,89.33,136.63,88.93,136.63Z"/><path class="cls-2" d="M171.5,256.6a3.68,3.68,0,0,1-.66-.06,4,4,0,0,1-3.29-4.6l16.23-97-19.94-75a7.58,7.58,0,0,0-7-4.66H86.63a11.34,11.34,0,0,0-1.82,22.54l55.6,7.86a4,4,0,0,1-1.12,7.92l-55.68-7.87a19.34,19.34,0,0,1,3-38.45h70.18a15.55,15.55,0,0,1,14.56,9.93c0,.14.1.29.14.43l20.22,76.05a4,4,0,0,1,.08,1.69l-16.37,97.88A4,4,0,0,1,171.5,256.6Z"/><path class="cls-1" d="M135.53,8a16.72,16.72,0,1,1-33.44,0H85.15V114.59h67.3V8Z"/><path class="cls-2" d="M152.45,118.59H85.15a4,4,0,0,1-4-4V8a4,4,0,0,1,4-4h16.94a4,4,0,0,1,4,4,12.72,12.72,0,1,0,25.44,0,4,4,0,0,1,4-4h16.92a4,4,0,0,1,4,4V114.59A4,4,0,0,1,152.45,118.59Zm-63.3-8h59.3V12h-9.3a20.69,20.69,0,0,1-40.68,0H89.15Z"/><line class="cls-1" x1="150.34" y1="45.95" x2="87.21" y2="45.95"/><path class="cls-2" d="M150.34,50h-9a4,4,0,0,1,0-8h9a4,4,0,0,1,0,8Z"/><path class="cls-2" d="M126.3,50h-15a4,4,0,0,1,0-8h15a4,4,0,1,1,0,8Z"/><path class="cls-2" d="M96.21,50h-9a4,4,0,0,1,0-8h9a4,4,0,0,1,0,8Z"/><path class="cls-1" d="M86.23,252.6V192.74l9.65-54.36,4.88-27.48a18.88,18.88,0,0,1,21.63-15.65h0A18.88,18.88,0,0,1,138,116.88l-6.5,39,6.13,22"/><path class="cls-2" d="M86.23,256.6a4,4,0,0,1-4-4V192.74a4.14,4.14,0,0,1,.06-.7L96.82,110.2A22.87,22.87,0,0,1,142,117.52l-6.34,38.1,5.89,21.13a4,4,0,0,1-7.71,2.15l-6.13-22a3.89,3.89,0,0,1-.09-1.73l6.49-39a14.88,14.88,0,0,0-12.34-17,14.89,14.89,0,0,0-17,12.33L90.23,193.09V252.6A4,4,0,0,1,86.23,256.6Z"/></svg>