<svg id="Capa_1" data-name="Capa 1" xmlns="http://www.w3.org/2000/svg" viewBox="0 0 260.1 260.1"><defs><style>.cls-1,.cls-4{fill:#fff;}.cls-1,.cls-2,.cls-5{stroke:#1d1d1b;stroke-linecap:round;stroke-linejoin:round;stroke-width:8px;}.cls-2,.cls-3,.cls-5{fill:none;}.cls-3{stroke:#fff;stroke-miterlimit:10;stroke-width:5px;}.cls-5{stroke-dasharray:15.05 15.05;}</style></defs><title>ticket-totem</title><path class="cls-1" d="M93.51,153.84,88,152.23a14.91,14.91,0,0,1-10.15-18.47h0a14.85,14.85,0,0,1,5.68-8"/><path class="cls-1" d="M100,133.4l-15.13-4.5a15.86,15.86,0,0,1-10.68-19.73h0a15.8,15.8,0,0,1,6.21-8.54"/><path class="cls-2" d="M171.5,252.6l16.36-97.88-20.22-76a11.62,11.62,0,0,0-10.83-7.39H86.63A15.34,15.34,0,0,0,71.49,84.16h0a15.34,15.34,0,0,0,12.68,17.61l55.68,7.87"/><line class="cls-3" x1="94.15" y1="45.95" x2="92.2" y2="45.95"/><line class="cls-3" x1="155.34" y1="45.95" x2="153.45" y2="45.95"/><path class="cls-4" d="M90.15,121.09a6.51,6.51,0,0,1-6.5-6.5V16.51h34.41l.61.37a9.7,9.7,0,0,0,10.27,0l.61-.37H164v98.08a6.51,6.51,0,0,1-6.5,6.5Z"/><path class="cls-4" d="M161.45,19v95.58a4,4,0,0,1-4,4H90.15a4,4,0,0,1-4-4V19h31.2a12.23,12.23,0,0,0,12.9,0h31.2m5-5H128.84l-1.21.74a7.2,7.2,0,0,1-7.65,0L118.77,14H81.15V114.59a9,9,0,0,0,9,9h67.3a9,9,0,0,0,9-9V14Z"/><path class="cls-1" d="M140.53,8a16.72,16.72,0,1,1-33.44,0H90.15V114.59h67.3V8Z"/><line class="cls-4" x1="155.34" y1="45.95" x2="92.21" y2="45.95"/><line class="cls-2" x1="155.34" y1="45.95" x2="146.34" y2="45.95"/><line class="cls-5" x1="131.3" y1="45.95" x2="108.73" y2="45.95"/><line class="cls-2" x1="101.21" y1="45.95" x2="92.21" y2="45.95"/><path class="cls-1" d="M137.67,177.82l-6.13-22h0l3.26-44.77A16.82,16.82,0,0,0,120.4,93.2h0a16.81,16.81,0,0,0-18.93,13.71L86.23,192.74l6.59,59.86"/></svg>