<svg id="Capa_1" data-name="Capa 1" xmlns="http://www.w3.org/2000/svg" viewBox="0 0 260.1 260.1"><defs><style>.cls-1{fill:#fff;}.cls-2{fill:#1d1d1b;}</style></defs><title>iconos-apoyos</title><path class="cls-1" d="M130,245.13a13.55,13.55,0,0,1-9.68-4L37.53,157.56a14.47,14.47,0,0,1,10.26-24.68A14.38,14.38,0,0,1,58,137.1l58.15,58.35,0-166.6a13.88,13.88,0,1,1,27.76,0l0,166.6,58.14-58.34a14.47,14.47,0,0,1,21.25.87,14.55,14.55,0,0,1-.78,19.59L139.62,241.1A13.5,13.5,0,0,1,130,245.13Z"/><path class="cls-2" d="M130.05,19a9.88,9.88,0,0,1,9.88,9.88l0,176.27,65-65.19a10.47,10.47,0,0,1,14.81,14.81l-82.95,83.54a9.6,9.6,0,0,1-13.66,0L40.37,154.74a10.47,10.47,0,0,1,14.81-14.81l65,65.19,0-176.27A9.88,9.88,0,0,1,130.05,19m0-8a17.9,17.9,0,0,0-17.88,17.88l0,156.92L60.84,134.28a18.47,18.47,0,0,0-27.12,1.1,18.57,18.57,0,0,0,1,25l82.72,83.51a17.61,17.61,0,0,0,25,0l82.95-83.54a18.47,18.47,0,0,0-13.1-31.5,18.34,18.34,0,0,0-13,5.38L148,185.77l0-156.92A17.9,17.9,0,0,0,130.05,11Z"/></svg>