<svg id="Capa_1" data-name="Capa 1" xmlns="http://www.w3.org/2000/svg" viewBox="0 0 260.1 260.1"><defs><style>.cls-1{fill:#fff;}.cls-2{fill:#1d1d1b;}</style></defs><title>iconos-apoyos</title><path class="cls-1" d="M112.75,226.78a14.39,14.39,0,0,1-10.22-4.22L19,139.62a13.62,13.62,0,0,1,0-19.35l83.53-82.74a14.48,14.48,0,0,1,19.58-.77A14.46,14.46,0,0,1,123,58L64.65,116.15l166.6,0a13.88,13.88,0,0,1,0,27.76l-166.6,0L123,202.09a14.47,14.47,0,0,1-10.24,24.69Z"/><path class="cls-2" d="M112.75,37.32a10.47,10.47,0,0,1,7.42,17.86L55,120.15l176.27,0a9.88,9.88,0,0,1,0,19.76L55,140l65.19,65a10.47,10.47,0,0,1-14.81,14.81L21.82,136.78a9.61,9.61,0,0,1,0-13.66l83.53-82.75a10.42,10.42,0,0,1,7.39-3m0-8h0a18.34,18.34,0,0,0-13,5.39L16.2,117.43a17.61,17.61,0,0,0,0,25l83.54,82.95a18.47,18.47,0,0,0,26.12-26.13L74.33,148l156.92,0a17.88,17.88,0,0,0,0-35.76l-156.92,0,51.49-51.31a18.47,18.47,0,0,0-13.07-31.52Z"/></svg>