<svg id="Capa_1" data-name="Capa 1" xmlns="http://www.w3.org/2000/svg" viewBox="0 0 260.1 260.1"><defs><style>.cls-1{fill:#fff;}.cls-2{fill:#1d1d1b;}</style></defs><title>iconos-apoyos</title><path class="cls-1" d="M147.35,226.78A14.47,14.47,0,0,1,137.1,202.1L195.45,144l-166.6,0a13.88,13.88,0,0,1,0-27.76l166.6,0L137.11,58a14.47,14.47,0,0,1,20.46-20.47l83.53,82.94a13.62,13.62,0,0,1,0,19.35l-83.53,82.74A14.4,14.4,0,0,1,147.35,226.78Z"/><path class="cls-2" d="M147.35,37.32a10.42,10.42,0,0,1,7.39,3l83.54,82.95a9.61,9.61,0,0,1,0,13.66l-83.53,82.75a10.47,10.47,0,0,1-14.81-14.81l65.19-65-176.27,0a9.88,9.88,0,0,1,0-19.76l176.27,0-65.19-65a10.47,10.47,0,0,1,7.42-17.86m0-8h0a18.47,18.47,0,0,0-13.09,31.5l51.51,51.33-156.92,0a17.88,17.88,0,0,0,0,35.76l156.92,0-51.49,51.31a18.47,18.47,0,0,0,26.11,26.13l83.51-82.72a17.61,17.61,0,0,0,0-25L160.38,34.69a18.37,18.37,0,0,0-13-5.37Z"/></svg>