<svg id="Capa_1" data-name="Capa 1" xmlns="http://www.w3.org/2000/svg" viewBox="0 0 260.1 260.1"><defs><style>.cls-1{fill:#fff;}.cls-2{fill:#1d1d1b;}</style></defs><title>icon</title><path class="cls-1" d="M130.05,245.13a13.9,13.9,0,0,1-13.88-13.88l0-166.6L58,123a14.47,14.47,0,0,1-21.25-.87,14.55,14.55,0,0,1,.78-19.59L120.48,19a13.62,13.62,0,0,1,19.35,0l82.74,83.53a14.47,14.47,0,0,1-10.26,24.68A14.38,14.38,0,0,1,202.1,123L144,64.65l0,166.6A13.9,13.9,0,0,1,130.05,245.13Z"/><path class="cls-2" d="M130.15,19A9.6,9.6,0,0,1,137,21.83l82.75,83.53a10.47,10.47,0,0,1-14.81,14.81L140,55l0,176.27a9.88,9.88,0,1,1-19.76,0l0-176.27-65,65.19a10.47,10.47,0,0,1-14.81-14.81l82.95-83.54A9.57,9.57,0,0,1,130.15,19m0-8h0a17.52,17.52,0,0,0-12.51,5.21L34.69,99.72a18.47,18.47,0,0,0,13.1,31.5,18.34,18.34,0,0,0,13-5.38l51.33-51.51,0,156.92a17.88,17.88,0,1,0,35.76,0l0-156.92,51.31,51.49a18.47,18.47,0,0,0,27.12-1.1,18.57,18.57,0,0,0-1-25L142.67,16.2A17.5,17.5,0,0,0,130.15,11Z"/></svg>