<svg id="Capa_1" data-name="Capa 1" xmlns="http://www.w3.org/2000/svg" viewBox="0 0 260.1 260.1"><defs><style>.cls-1{fill:#1d1d1b;}.cls-2{fill:#fff;}</style></defs><title>icon</title><path class="cls-1" d="M67.1,56.52h-43a3.5,3.5,0,0,1-3.5-3.5V10a3.5,3.5,0,0,1,3.5-3.5h43A3.5,3.5,0,0,1,70.6,10V53A3.5,3.5,0,0,1,67.1,56.52Zm-39.52-7h36v-36h-36Z"/><path class="cls-1" d="M110.12,56.52h-43A3.5,3.5,0,0,1,63.6,53V10a3.5,3.5,0,0,1,3.5-3.5h43a3.5,3.5,0,0,1,3.5,3.5V53A3.5,3.5,0,0,1,110.12,56.52Zm-39.52-7h36v-36h-36Z"/><path class="cls-1" d="M153.14,56.52h-43a3.5,3.5,0,0,1-3.5-3.5V10a3.5,3.5,0,0,1,3.5-3.5h43a3.5,3.5,0,0,1,3.5,3.5V53A3.5,3.5,0,0,1,153.14,56.52Zm-39.52-7h36v-36h-36Z"/><path class="cls-1" d="M67.1,99.54h-43a3.5,3.5,0,0,1-3.5-3.5V53a3.5,3.5,0,0,1,3.5-3.5h43A3.5,3.5,0,0,1,70.6,53V96A3.5,3.5,0,0,1,67.1,99.54Zm-39.52-7h36v-36h-36Z"/><path class="cls-1" d="M110.12,99.54h-43A3.5,3.5,0,0,1,63.6,96V53a3.5,3.5,0,0,1,3.5-3.5h43a3.5,3.5,0,0,1,3.5,3.5V96A3.49,3.49,0,0,1,110.12,99.54Zm-39.52-7h36v-36h-36Z"/><path class="cls-1" d="M153.14,99.54h-43a3.5,3.5,0,0,1-3.5-3.5V53a3.5,3.5,0,0,1,3.5-3.5h43a3.5,3.5,0,0,1,3.5,3.5V96A3.49,3.49,0,0,1,153.14,99.54Zm-39.52-7h36v-36h-36Z"/><path class="cls-1" d="M67.1,142.56h-43a3.5,3.5,0,0,1-3.5-3.5V96a3.5,3.5,0,0,1,3.5-3.5h43A3.5,3.5,0,0,1,70.6,96v43A3.5,3.5,0,0,1,67.1,142.56Zm-39.52-7h36v-36h-36Z"/><path class="cls-1" d="M110.12,142.56h-43a3.5,3.5,0,0,1-3.5-3.5V96a3.5,3.5,0,0,1,3.5-3.5h43a3.5,3.5,0,0,1,3.5,3.5v43A3.49,3.49,0,0,1,110.12,142.56Zm-39.52-7h36v-36h-36Z"/><path class="cls-1" d="M153.14,142.56h-43a3.5,3.5,0,0,1-3.5-3.5V96a3.5,3.5,0,0,1,3.5-3.5h43a3.5,3.5,0,0,1,3.5,3.5v43A3.49,3.49,0,0,1,153.14,142.56Zm-39.52-7h36v-36h-36Z"/><path class="cls-2" d="M225.33,254.1l-.12-43.72c15.48-17.8,14-61.93,14-82v-18a11.79,11.79,0,0,0-11.79-11.81h0c-8,0-12.89,5.76-12.89,12.88l0,1.91-.05-14.79a11.89,11.89,0,0,0-11.89-11.81h0a12.89,12.89,0,0,0-12.88,12.89l0,13.71-.05-20.41a12.34,12.34,0,0,0-12.34-12.26h0A12.36,12.36,0,0,0,165,93.11l.05,20.24V45.2A12.34,12.34,0,0,0,152.7,32.86h0A12.33,12.33,0,0,0,140.36,45.2V112c-4.57,2-13,6.49-18.48,15.7-3.71,6.19-4.72,12.15-5.43,16.34a86.56,86.56,0,0,0-.28,17.91c2,21.12,13,38.48,26.32,48.48l-2.14,43.72"/><path class="cls-1" d="M140.36,258.1h-.2a4,4,0,0,1-3.8-4.2l2-41.64c-14.58-11.72-24.32-30.23-26.21-50a89.65,89.65,0,0,1,.3-18.84s0-.07,0-.11c.74-4.35,1.85-10.91,5.95-17.74a43.12,43.12,0,0,1,17.9-16.19V45.2a16.35,16.35,0,0,1,32.69,0V78.94a16.14,16.14,0,0,1,8.3-2.26,16.38,16.38,0,0,1,14.89,9.63,16.77,16.77,0,0,1,10.35-3.56A16,16,0,0,1,218.39,97a17.52,17.52,0,0,1,9.07-2.4,15.79,15.79,0,0,1,15.79,15.81v18c0,1.46,0,3,0,4.75.11,22.76.29,60.52-14.06,78.66l.12,42.28a4,4,0,0,1-4,4h0a4,4,0,0,1-4-4l-.12-43.72a4,4,0,0,1,1-2.64c13.37-15.36,13.18-53.87,13.08-74.56,0-1.71,0-3.31,0-4.79v-18a7.78,7.78,0,0,0-7.79-7.81c-6.56,0-8.89,4.78-8.89,8.88v.1l0,1.91a4,4,0,0,1-4,3.9h-.05a4,4,0,0,1-3.95-4l-.05-14.78a7.91,7.91,0,0,0-7.89-7.83,8.89,8.89,0,0,0-8.88,8.89l0,13.7a4,4,0,1,1-8,0L185.69,93a8.34,8.34,0,0,0-14.26-5.81,8.25,8.25,0,0,0-2.38,5v21.2a4,4,0,0,1-4,4h0a4,4,0,0,1-4-4L161,93.12c0-.45,0-.9.05-1.34V45.2a8.35,8.35,0,0,0-16.69,0v66.56a1.15,1.15,0,0,1,0,.19v36.5a4,4,0,0,1-8,0V118.58a34.08,34.08,0,0,0-11,11.13c-3.3,5.51-4.23,10.92-4.91,14.88a83.39,83.39,0,0,0-.25,16.93c1.75,18.3,11,35.37,24.74,45.65a4,4,0,0,1,1.6,3.4l-2.15,43.73A4,4,0,0,1,140.36,258.1Z"/></svg>