<svg id="Capa_1" data-name="Capa 1" xmlns="http://www.w3.org/2000/svg" viewBox="0 0 260.1 260.1"><defs><style>.cls-1{fill:none;stroke-width:7px;}.cls-1,.cls-3{stroke:#1d1d1b;stroke-linecap:round;stroke-linejoin:round;}.cls-2,.cls-3{fill:#fff;}.cls-3{stroke-width:8px;}</style></defs><title>type</title><rect class="cls-1" x="25.08" y="10" width="42.21" height="42.21"/><rect class="cls-1" x="67.29" y="10" width="42.21" height="42.21"/><rect class="cls-1" x="109.5" y="10" width="42.21" height="42.21"/><rect class="cls-1" x="25.08" y="52.21" width="42.21" height="42.21"/><rect class="cls-1" x="67.29" y="52.21" width="42.21" height="42.21"/><rect class="cls-1" x="109.5" y="52.21" width="42.21" height="42.21"/><rect class="cls-1" x="25.08" y="94.42" width="42.21" height="42.21"/><rect class="cls-1" x="67.29" y="94.42" width="42.21" height="42.21"/><rect class="cls-1" x="109.5" y="94.42" width="42.21" height="42.21"/><path class="cls-2" d="M133.25,235.22l1.11-19.53c-20.27-14.43-23-29.95-26-46.35l-.37-2.07c-.17-1-.34-1.92-.52-2.9-2.07-11.27-4.22-26.55-2.75-35.39.19-1.11.76-4.47,13.5-23.28l.18-.27.08-.1a14.9,14.9,0,0,1,11.84-5.85,14.63,14.63,0,0,1,2.81.27l1.14-55.85a17.9,17.9,0,0,1,35.8.08l.7,45.55a19.37,19.37,0,0,1,20.76,4.72,18.32,18.32,0,0,1,10.89-3.56h.18a18.43,18.43,0,0,1,16.29,10,18.34,18.34,0,0,1,26.45,11.64l.08.29c1.92,7.57,2,7.81,2.58,12.65v.11c.13,1,.28,2.23.49,3.81a3.13,3.13,0,0,1,0,.5c2.91,46.48,1.51,69.38-14.69,89.13l0,16.39Z"/><path class="cls-2" d="M152.22,28.86A15.47,15.47,0,0,1,167.62,44l.76,49.53a16.89,16.89,0,0,1,22.91,4.22,15.91,15.91,0,0,1,11.18-4.58h.16a16,16,0,0,1,15.15,11.24A15.86,15.86,0,0,1,243,113l.09.33c1.89,7.43,1.92,7.58,2.51,12.3.13,1,.29,2.29.51,3.94a2.45,2.45,0,0,1,0,.27c3,47.59,1.35,69-14.7,88.13l0,14.79H135.9l1-18.28c-21-14.46-23.27-29.9-26.31-46.92-.21-1.18-.42-2.38-.65-3.61-1.66-9-4.23-25.56-2.74-34.52.55-3.24,7.44-13.93,13.13-22.33a2.43,2.43,0,0,1,.14-.2,12.43,12.43,0,0,1,9.86-4.88,12.59,12.59,0,0,1,4.48.83l.77.32L136.82,44a15.49,15.49,0,0,1,15.4-15.09m0-5a20.51,20.51,0,0,0-20.4,20L130.74,97h-.37a17.37,17.37,0,0,0-13.82,6.82l-.06.08,0,.07c-.07.1-.17.23-.27.39-13,19.22-13.61,22.72-13.86,24.21-1.54,9.22.65,24.81,2.75,36.26.18,1,.35,1.93.51,2.86l.13.73.25,1.38c2.82,15.89,5.74,32.3,25.84,47.13l-.89,15.53-.3,5.28H236.46v-5l0-13c16.19-20.22,17.61-43.52,14.69-90.13,0-.26,0-.47,0-.6v-.11c-.19-1.45-.34-2.6-.46-3.54l0-.37c-.62-4.94-.69-5.3-2.63-12.9V112l-.08-.29A20.84,20.84,0,0,0,220,97.48a21,21,0,0,0-17.28-9.29h-.2a20.84,20.84,0,0,0-10.62,2.88,22,22,0,0,0-14.23-5.27,22.62,22.62,0,0,0-4.36.43l-.64-42.29a20.5,20.5,0,0,0-20.4-20.08Z"/><path class="cls-3" d="M138.91,147.45V114.5a8.51,8.51,0,0,0-5.49-8h0a8.48,8.48,0,0,0-9.74,2.76s-12,17.68-12.49,20.74c-1.19,7.12.44,20.73,2.72,33.14,3.49,19,4.26,34.14,27.13,49.19L138.9,253.1"/><path class="cls-3" d="M227.5,253.1l-.11-36.64c16.13-18.54,17.66-39.39,14.72-86.41h0c-1.17-8.84-.63-6.74-2.94-15.78l-.08-.32A11.84,11.84,0,0,0,227.6,105h0a11.86,11.86,0,0,0-11.79,13.08h0l-.34-.2-.57-5.48-.46-4.47A12,12,0,0,0,202.6,97.19h0a12,12,0,0,0-12.11,12V116h0l0-8.34A12.89,12.89,0,0,0,177.62,94.8h0a12.89,12.89,0,0,0-12.9,12.9V116l-1.1-71.93a11.4,11.4,0,0,0-11.4-11.22h0A11.39,11.39,0,0,0,140.82,44l-1.91,94.32v9.1"/></svg>