<svg id="Capa_1" data-name="Capa 1" xmlns="http://www.w3.org/2000/svg" viewBox="0 0 260.1 260.1"><defs><style>.cls-1,.cls-3{fill:#fff;}.cls-1,.cls-2{stroke:#1d1d1b;stroke-linecap:round;stroke-linejoin:round;stroke-width:8px;}.cls-2{fill:none;}</style></defs><title>write</title><path class="cls-1" d="M125.91,168.11l-4.5,4.51a16.44,16.44,0,0,1-23.25,0h0a16.44,16.44,0,0,1,0-23.25l17-17"/><path class="cls-2" d="M131,77.39,83.14,107.66A14.58,14.58,0,0,1,63,103.14h0a14.59,14.59,0,0,1,2.65-18.71l44.64-39.61a11,11,0,0,1,12.36-1.57l69.11,35.28,37,120.94,6.47,36.27"/><path class="cls-1" d="M116,143l-11.57,11.57a16.44,16.44,0,0,1-23.25,0h0a16.46,16.46,0,0,1,0-23.25l17-17"/><path class="cls-3" d="M30.52,163.62a11.06,11.06,0,0,1-9.43-16.83L34.7,124.52a6.45,6.45,0,0,1,2.08-2.11L195.9,21.71a15.64,15.64,0,0,1,21.56,4.84l7.32,11.57a15.63,15.63,0,0,1-4.85,21.56L60.81,160.39a6.31,6.31,0,0,1-3,1l-26.4,2.21C31.12,163.61,30.82,163.62,30.52,163.62Z"/><path class="cls-3" d="M204.24,21.79a13.14,13.14,0,0,1,11.11,6.1l7.32,11.57a13.14,13.14,0,0,1-4.07,18.11L59.48,158.28a4,4,0,0,1-1.81.6l-26.42,2.21-.73,0a8.56,8.56,0,0,1-7.29-13l13.61-22.27a4,4,0,0,1,1.28-1.3L197.24,23.82a13,13,0,0,1,7-2m0-5h0a18,18,0,0,0-9.68,2.81L35.44,120.3a8.89,8.89,0,0,0-2.88,2.94L19,145.48a13.56,13.56,0,0,0,11.56,20.64,10.92,10.92,0,0,0,1.13-.05l26.43-2.21a8.94,8.94,0,0,0,4.06-1.35L221.27,61.8a18.13,18.13,0,0,0,5.62-25l-7.32-11.57a18,18,0,0,0-15.33-8.43Z"/><line class="cls-1" x1="40.25" y1="127.9" x2="57.34" y2="154.9"/><path class="cls-1" d="M57.34,154.9,186.53,73.14l29.93-19a9.12,9.12,0,0,0,2.83-12.59L212,30a9.13,9.13,0,0,0-12.6-2.83L40.25,127.9,26.64,150.18a4.56,4.56,0,0,0,4.27,6.93Z"/><path class="cls-1" d="M154.59,136.74l-24.49-7.9-16.2-26.42a16.87,16.87,0,0,0-22-6.24h0a16.86,16.86,0,0,0-7.51,22.53L116,182.54l47.77,53.2"/></svg>