<svg id="Capa_1" data-name="Capa 1" xmlns="http://www.w3.org/2000/svg" viewBox="0 0 260.1 260.1"><defs><style>.cls-1{fill:#fff;}.cls-2{fill:#1d1d1b;}</style></defs><title>icon</title><path class="cls-1" d="M125.91,168.11l-4.5,4.51a16.44,16.44,0,0,1-23.25,0h0a16.44,16.44,0,0,1,0-23.25l17-17"/><path class="cls-2" d="M109.79,181.43a20.44,20.44,0,0,1-14.45-34.89l17-17a4,4,0,0,1,5.66,5.65l-17,17a12.44,12.44,0,0,0,17.59,17.59l4.51-4.5a4,4,0,0,1,5.65,5.65l-4.5,4.51A20.29,20.29,0,0,1,109.79,181.43Z"/><path class="cls-2" d="M235.2,239.74a4,4,0,0,1-3.93-3.3l-6.43-36L188.45,81.33l-67.6-34.52a7,7,0,0,0-7.89,1L68.32,87.43A10.58,10.58,0,0,0,81,104.28L128.84,74a4,4,0,0,1,4.28,6.76L85.28,111A18.58,18.58,0,0,1,63,81.44l44.64-39.61a15,15,0,0,1,16.84-2.15L193.6,75a4,4,0,0,1,2,2.4L232.56,198.3a2.56,2.56,0,0,1,.11.46L239.14,235a4,4,0,0,1-3.23,4.64A4.34,4.34,0,0,1,235.2,239.74Z"/><path class="cls-1" d="M116,143l-11.57,11.57a16.44,16.44,0,0,1-23.25,0h0a16.46,16.46,0,0,1,0-23.25l17-17"/><path class="cls-2" d="M92.76,163.32a20.43,20.43,0,0,1-14.45-34.88l17-17a4,4,0,0,1,5.66,5.66l-17,17a12.44,12.44,0,0,0,17.59,17.59l11.57-11.57a4,4,0,1,1,5.66,5.66l-11.57,11.56A20.35,20.35,0,0,1,92.76,163.32Z"/><path class="cls-1" d="M57.34,154.9,186.53,73.14l29.93-19a9.12,9.12,0,0,0,2.83-12.59L212,30a9.13,9.13,0,0,0-12.6-2.83L40.25,127.9,26.64,150.18a4.56,4.56,0,0,0,4.27,6.93Z"/><path class="cls-2" d="M30.52,161.12a8.56,8.56,0,0,1-7.3-13l13.62-22.27a4.15,4.15,0,0,1,1.27-1.3L197.24,23.82a13.14,13.14,0,0,1,18.11,4.07l7.32,11.57a13.15,13.15,0,0,1-4.07,18.11L59.48,158.28a4,4,0,0,1-1.81.6l-26.43,2.21Q30.88,161.12,30.52,161.12Zm26.82-6.22h0ZM43.18,130.79,30.05,152.26a.53.53,0,0,0,0,.6.51.51,0,0,0,.53.26L56,151,214.32,50.81a5.12,5.12,0,0,0,1.59-7.07l-7.32-11.57a5.13,5.13,0,0,0-7.08-1.59Z"/><path class="cls-1" d="M163.72,235.74,116,182.54l-23-47.15-7.67-15.73a17.94,17.94,0,0,1,7.85-24.12h0a17.94,17.94,0,0,1,24.13,7.85l12.85,25.45,24.49,7.9"/><path class="cls-2" d="M163.72,239.74a4,4,0,0,1-3-1.33L113,185.21a4.24,4.24,0,0,1-.62-.92L81.67,121.41a21.94,21.94,0,0,1,39.14-19.83l12.11,24,22.89,7.39a4,4,0,1,1-2.45,7.61l-24.49-7.9a4,4,0,0,1-2.34-2L113.68,105.2a13.94,13.94,0,0,0-24.85,12.65l30.47,62.43,47.39,52.79a4,4,0,0,1-3,6.67Z"/><line class="cls-1" x1="40.25" y1="127.9" x2="57.34" y2="154.9"/><path class="cls-2" d="M57.34,158.9A4,4,0,0,1,54,157L36.87,130a4,4,0,1,1,6.76-4.27l17.09,27a4,4,0,0,1-3.38,6.14Z"/></svg>