<svg xmlns="http://www.w3.org/2000/svg" viewBox="0 0 609.19 118.98"><defs><style>.cls-1,.cls-3{fill:#fff;}.cls-2{fill:none;}.cls-2,.cls-3{stroke:#222;stroke-miterlimit:10;stroke-width:10px;}</style></defs><title>Capa 3-Espacio y referentes_asiento</title><g id="Capa_2" data-name="Capa 2"><g id="Capa_1-2" data-name="Capa 1"><g id="_Grupo_" data-name="&lt;Grupo&gt;"><g id="_Grupo_2" data-name="&lt;Grupo&gt;"><rect class="cls-1" x="40.03" y="5" width="529.13" height="60" rx="20" ry="20"/><rect class="cls-2" x="40.03" y="5" width="529.13" height="60" rx="20" ry="20"/></g><path id="_Trazado_" data-name="&lt;Trazado&gt;" class="cls-3" d="M284.59,114H25A20.07,20.07,0,0,1,5,93.84V74.12A20.08,20.08,0,0,1,25,54H284.59a20.07,20.07,0,0,1,20,20.14V93.84A20.06,20.06,0,0,1,284.59,114Z"/><path id="_Trazado_2" data-name="&lt;Trazado&gt;" class="cls-3" d="M584.19,114H324.59a20.07,20.07,0,0,1-20-20.14V74.12a20.08,20.08,0,0,1,20-20.14h259.6a20.08,20.08,0,0,1,20,20.14V93.84A20.07,20.07,0,0,1,584.19,114Z"/></g></g></g></svg>