<svg id="Capa_1" data-name="Capa 1" xmlns="http://www.w3.org/2000/svg" viewBox="0 0 1300 1000"><defs><style>.cls-1{fill:#fff;stroke:#262626;stroke-miterlimit:10;stroke-width:10px;}.cls-2{fill:#262626;}</style></defs><title>Capa 3-Espacio y referentes</title><path id="_Trazado_" data-name="&lt;Trazado&gt;" class="cls-1" d="M803,537.66l-322.75-1.29c-14.52,0-26.3,10.66-26.3,23.81V817.3c0,13.15,11.78,23.81,26.3,23.81L803,842.6Z"/><path id="_Trazado_2" data-name="&lt;Trazado&gt;" class="cls-1" d="M6,842.25l401.25.49c14.52,0,26.29-10.7,26.29-23.89V561c0-13.19-11.77-23.88-26.29-23.88L6,536.58Z"/><path id="_Trazado_3" data-name="&lt;Trazado&gt;" class="cls-1" d="M434.11,904.57h20V546a9.74,9.74,0,0,0-10-9.44h0a9.74,9.74,0,0,0-10,9.44Z"/><rect id="_Rectángulo_" data-name="&lt;Rectángulo&gt;" class="cls-2" y="900" width="1300" height="100"/></svg>