<svg id="Capa_1" data-name="Capa 1" xmlns="http://www.w3.org/2000/svg" viewBox="0 0 500 500"><defs><style>.cls-1{fill:none;stroke:#1d1d1b;stroke-miterlimit:10;stroke-width:10px;}</style></defs><title>Íconos apoyo</title><path id="_Trazado_" data-name="&lt;Trazado&gt;" class="cls-1" d="M185.28,402.67c-25.54-19.12-46.48-52.33-50.35-92.72-2.71-28.27-.28-40.79,13-65.87a66.29,66.29,0,0,1,33.22-29.67"/><path id="_Trazado_2" data-name="&lt;Trazado&gt;" class="cls-1" d="M181.19,284.24l0-197.48a23.62,23.62,0,0,1,23.61-23.62h0A23.63,23.63,0,0,1,228.4,86.76V191.48"/><path id="_Trazado_3" data-name="&lt;Trazado&gt;" class="cls-1" d="M228.4,217.09l-.09-38.71a23.61,23.61,0,0,1,23.61-23.77h0a23.61,23.61,0,0,1,23.61,23.46l.09,39"/><path id="_Trazado_4" data-name="&lt;Trazado&gt;" class="cls-1" d="M275.38,190.87A24.64,24.64,0,0,1,300,166.23h0a22.73,22.73,0,0,1,22.73,22.59l.1,28.27"/><path id="_Trazado_5" data-name="&lt;Trazado&gt;" class="cls-1" d="M343.46,398.94c32.32-36.68,27.51-153,27.51-153l-.83-34.5a22.56,22.56,0,0,0-22.56-22.59h0c-15.33,0-24.64,11-24.64,24.64"/><line id="_Trazado_6" data-name="&lt;Trazado&gt;" class="cls-1" x1="184.28" y1="398.67" x2="178.09" y2="491.26"/><line id="_Trazado_7" data-name="&lt;Trazado&gt;" class="cls-1" x1="344.66" y1="395.74" x2="341.69" y2="491.19"/><path class="cls-1" d="M228.4,137.8S266.75,127.35,269,77.16c1.58-35.77-29-64.83-64.83-64.83a64.82,64.82,0,0,0-64.83,64.83c0,35.8,25.88,57.14,41.86,60.64"/></svg>