<svg id="Capa_1" data-name="Capa 1" xmlns="http://www.w3.org/2000/svg" viewBox="0 0 500 500"><defs><style>.cls-1{fill:none;stroke:#1d1d1b;stroke-miterlimit:10;stroke-width:10px;}</style></defs><title>Íconos apoyo</title><path id="_Trazado_" data-name="&lt;Trazado&gt;" class="cls-1" d="M269.12,468.78,99.9,341.15V162.91L268.44,28.76a11.73,11.73,0,0,1,19.27,9V459.25A11.74,11.74,0,0,1,269.12,468.78Z"/><path id="_Rectángulo_" data-name="&lt;Rectángulo&gt;" class="cls-1" d="M21.87,162h78a0,0,0,0,1,0,0V338a0,0,0,0,1,0,0h-78a10,10,0,0,1-10-10V172A10,10,0,0,1,21.87,162Z"/><path id="_Trazado_2" data-name="&lt;Trazado&gt;" class="cls-1" d="M441.19,134.16h0a164.32,164.32,0,0,1,1.35,232.39h0"/><path id="_Trazado_3" data-name="&lt;Trazado&gt;" class="cls-1" d="M387.88,162.51h0a124.28,124.28,0,0,1,1,175.76h0"/><path id="_Trazado_4" data-name="&lt;Trazado&gt;" class="cls-1" d="M329.78,191.65h0A80.88,80.88,0,0,1,330.44,306h0"/></svg>