<svg id="Capa_1" data-name="Capa 1" xmlns="http://www.w3.org/2000/svg" viewBox="0 0 500 500"><defs><style>.cls-1{fill:none;}.cls-1,.cls-2{stroke:#1d1d1b;stroke-miterlimit:10;stroke-width:10px;}.cls-2{fill:#fff;}</style></defs><title>Íconos apoyo</title><g id="_Grupo_" data-name="&lt;Grupo&gt;"><path id="_Trazado_" data-name="&lt;Trazado&gt;" class="cls-1" d="M196.62,342.3l97.83,64.88a13.93,13.93,0,0,0,19.14-3.85l171-250.74a13.51,13.51,0,0,0-3.6-18.94L321.78,28.06a13.93,13.93,0,0,0-19.14,3.85l-37,54.25L165,232.71"/><line id="_Trazado_2" data-name="&lt;Trazado&gt;" class="cls-1" x1="249.67" y1="229.9" x2="365.75" y2="59.7"/></g><line id="_Trazado_3" data-name="&lt;Trazado&gt;" class="cls-2" x1="98.85" y1="302.99" x2="11" y2="327.06"/><path id="_Trazado_4" data-name="&lt;Trazado&gt;" class="cls-1" d="M417.92,251.36c12.48-2,27.27,8.25,29.35,20.51h0a22.59,22.59,0,0,1-18.85,25.94l-48.23,7.86"/><path id="_Trazado_5" data-name="&lt;Trazado&gt;" class="cls-1" d="M409.76,300.74a23.86,23.86,0,0,1,27.51,19.32h0A21.7,21.7,0,0,1,419.14,345l-74,12.06"/><path id="_Trazado_6" data-name="&lt;Trazado&gt;" class="cls-1" d="M383.91,350.66A23.86,23.86,0,0,1,411.42,370h0a21.73,21.73,0,0,1-18.13,25L272.6,414.76s-103.94,44.3-140.21,6.16"/><line id="_Trazado_7" data-name="&lt;Trazado&gt;" class="cls-2" x1="148.53" y1="432.5" x2="61.79" y2="464.26"/><path id="_Trazado_8" data-name="&lt;Trazado&gt;" class="cls-1" d="M96.11,330.71s0-1.18.07-3.29c2.24-55.45,47.71-99.77,104.1-101.92l27.91-1.06a38.77,38.77,0,0,1,35.89,20.65l31,60.44a18.6,18.6,0,0,1-9.61,25.69h0a19.22,19.22,0,0,1-23.31-7l-23.53-35.1-32.77-5.31s7.28,56.09-31.05,77.38"/></svg>