<svg id="Capa_1" data-name="Capa 1" xmlns="http://www.w3.org/2000/svg" viewBox="0 0 500 500"><defs><style>.cls-1{fill:none;stroke:#1d1d1b;stroke-miterlimit:10;stroke-width:10px;}</style></defs><title>Íconos apoyo</title><path id="_Trazado_" data-name="&lt;Trazado&gt;" class="cls-1" d="M251,490h0C118.45,490,11,382.55,11,250h0C11,117.45,118.45,10,251,10h0c132.55,0,240,107.45,240,240h0C491,382.55,383.55,490,251,490Z"/><path id="_Trazado_2" data-name="&lt;Trazado&gt;" class="cls-1" d="M310,187.07c0,41.63-27.55,75.38-61.54,75.38s-61.53-33.75-61.53-75.38,27.55-75.39,61.53-75.39S310,145.43,310,187.07Z"/><path id="_Trazado_3" data-name="&lt;Trazado&gt;" class="cls-1" d="M86.89,427.2S127.18,311.31,248,311.31c122.62,0,154.41,124.86,154.41,124.86"/></svg>