<svg id="Capa_1" data-name="Capa 1" xmlns="http://www.w3.org/2000/svg" viewBox="0 0 500 500"><defs><style>.cls-1{fill:none;}.cls-1,.cls-2{stroke:#1d1d1b;stroke-miterlimit:10;stroke-width:10px;}.cls-2{fill:#fff;}</style></defs><title>Íconos apoyo</title><g id="_Grupo_" data-name="&lt;Grupo&gt;"><path id="_Trazado_" data-name="&lt;Trazado&gt;" class="cls-1" d="M193.11,229.38,310,21.29l45.15,25.37c-13.78,24.53-5.25,56.27,19.28,70.05s56.12,4.58,69.91-19.95l45.1,25.35L329.76,406.38,204,333.11"/><line id="_Trazado_2" data-name="&lt;Trazado&gt;" class="cls-1" x1="259.19" y1="125.97" x2="282.88" y2="139.28"/><line id="_Trazado_3" data-name="&lt;Trazado&gt;" class="cls-1" x1="295.06" y1="146.12" x2="318.75" y2="159.43"/><line id="_Trazado_4" data-name="&lt;Trazado&gt;" class="cls-1" x1="331" y1="166.32" x2="354.69" y2="179.63"/><line id="_Trazado_5" data-name="&lt;Trazado&gt;" class="cls-1" x1="366.83" y1="186.45" x2="390.52" y2="199.75"/><line id="_Trazado_6" data-name="&lt;Trazado&gt;" class="cls-1" x1="403.25" y1="206.91" x2="426.94" y2="220.22"/></g><path id="_Trazado_7" data-name="&lt;Trazado&gt;" class="cls-1" d="M412,260.05l17.72-2.77a23.54,23.54,0,0,1,27.11,19.05h0A23.22,23.22,0,0,1,437.4,303L384,311.72"/><path id="_Trazado_8" data-name="&lt;Trazado&gt;" class="cls-1" d="M418.19,306a24.57,24.57,0,0,1,28.32,19.87h0a22.35,22.35,0,0,1-18.66,25.67l-74.09,12.07"/><path id="_Trazado_9" data-name="&lt;Trazado&gt;" class="cls-1" d="M391.59,357.41a24.55,24.55,0,0,1,28.31,19.87h0A22.36,22.36,0,0,1,401.25,403L277.06,423.36s-107,45.58-144.28,6.34"/><line id="_Trazado_10" data-name="&lt;Trazado&gt;" class="cls-2" x1="98.17" y1="309.38" x2="7.86" y2="333.11"/><line id="_Trazado_11" data-name="&lt;Trazado&gt;" class="cls-2" x1="150.27" y1="440.71" x2="60.13" y2="474.3"/><path id="_Trazado_12" data-name="&lt;Trazado&gt;" class="cls-1" d="M95.45,336.88s0-1.22.07-3.39c2.3-57.06,49.09-102.66,107.11-104.87l28.72-1.1a39.9,39.9,0,0,1,36.94,21.25L300.19,311a19.15,19.15,0,0,1-9.89,26.44h0a19.8,19.8,0,0,1-24-7.15L242.1,294.13l-33.72-5.46s7.49,57.71-32,79.62"/></svg>