<svg id="Capa_1" data-name="Capa 1" xmlns="http://www.w3.org/2000/svg" viewBox="0 0 500 500"><defs><style>.cls-1{fill:none;}.cls-1,.cls-2{stroke:#1d1d1b;stroke-miterlimit:10;stroke-width:10px;}.cls-2{fill:#fff;}</style></defs><title>Íconos apoyo</title><path id="_Trazado_" data-name="&lt;Trazado&gt;" class="cls-1" d="M200.76,348.82l117.7,64.84c6.44,3.55,14.7.91,18.44-5.89L486.13,136.89c3.75-6.8,1.56-15.19-4.88-18.74L318,28.24c-6.44-3.55-14.69-.91-18.44,5.89L267.3,92.73,191.64,230.08"/><path id="_Trazado_2" data-name="&lt;Trazado&gt;" class="cls-1" d="M243,227.81c-3.36-25.85,9.09-43.32,9.09-43.32a75.56,75.56,0,1,1,132.36,72.92s-28.6,51.84-89.36,35.42"/><path id="_Trazado_3" data-name="&lt;Trazado&gt;" class="cls-1" d="M355.83,373.86h0a52.72,52.72,0,0,0-71.61,20.74h0"/><path id="_Trazado_4" data-name="&lt;Trazado&gt;" class="cls-1" d="M446.68,98.71h0a52.71,52.71,0,0,0,20.73,71.61h0"/><path id="_Trazado_5" data-name="&lt;Trazado&gt;" class="cls-1" d="M281.09,67.7h0A52.72,52.72,0,0,0,352.71,47h0"/><path id="_Trazado_6" data-name="&lt;Trazado&gt;" class="cls-1" d="M418.56,259.54l15.23-2.39A23.53,23.53,0,0,1,460.9,276.2h0a23.21,23.21,0,0,1-19.39,26.68l-51.45,8.4"/><path id="_Trazado_7" data-name="&lt;Trazado&gt;" class="cls-1" d="M422.31,305.91a24.56,24.56,0,0,1,28.31,19.87h0A22.34,22.34,0,0,1,432,351.45l-70.35,11.47"/><path id="_Trazado_8" data-name="&lt;Trazado&gt;" class="cls-1" d="M395.7,357.28A24.56,24.56,0,0,1,424,377.15h0a22.37,22.37,0,0,1-18.66,25.69l-124.19,20.4s-107,45.57-144.28,6.33"/><text></text><line id="_Trazado_9" data-name="&lt;Trazado&gt;" class="cls-2" x1="102.29" y1="309.25" x2="11.98" y2="332.99"/><line id="_Trazado_10" data-name="&lt;Trazado&gt;" class="cls-2" x1="152.38" y1="441.58" x2="64.24" y2="474.17"/><path id="_Trazado_11" data-name="&lt;Trazado&gt;" class="cls-1" d="M99.56,336.75s0-1.21.07-3.39c2.31-57.06,49.09-102.66,107.12-104.87l28.72-1.1a39.89,39.89,0,0,1,36.93,21.25l31.9,62.19a19.15,19.15,0,0,1-9.89,26.44h0a19.78,19.78,0,0,1-24-7.15L246.22,294l-33.73-5.46s7.49,57.71-32,79.62"/></svg>