<svg id="Capa_1" data-name="Capa 1" xmlns="http://www.w3.org/2000/svg" viewBox="0 0 500 500"><defs><style>.cls-1{fill:none;stroke:#1d1d1b;stroke-miterlimit:10;stroke-width:10px;}</style></defs><title>Íconos apoyo</title><path id="_Rectángulo_" data-name="&lt;Rectángulo&gt;" class="cls-1" d="M23.93,162.08h78a0,0,0,0,1,0,0V338.15a0,0,0,0,1,0,0h-78a10,10,0,0,1-10-10V172.08A10,10,0,0,1,23.93,162.08Z"/><path id="_Trazado_" data-name="&lt;Trazado&gt;" class="cls-1" d="M271.19,469.78,102,338.15V163.91L270.5,29.76a11.73,11.73,0,0,1,19.27,9V460.25A11.73,11.73,0,0,1,271.19,469.78Z"/><g id="_Grupo_" data-name="&lt;Grupo&gt;"><line id="_Trazado_2" data-name="&lt;Trazado&gt;" class="cls-1" x1="332.28" y1="170.27" x2="491.38" y2="329.38"/><line id="_Trazado_3" data-name="&lt;Trazado&gt;" class="cls-1" x1="332.9" y1="329.29" x2="492" y2="170.19"/></g></svg>