<svg id="Capa_1" data-name="Capa 1" xmlns="http://www.w3.org/2000/svg" viewBox="0 0 500 500"><defs><style>.cls-1{fill:none;stroke:#1d1d1b;stroke-miterlimit:10;stroke-width:10px;}.cls-2{fill:#1e1e1c;}</style></defs><title>Íconos apoyo</title><path id="_Trazado_" data-name="&lt;Trazado&gt;" class="cls-1" d="M145.11,470.19h-65a13.94,13.94,0,0,1-13.94-13.94V23.18A13.94,13.94,0,0,1,80.08,9.24H425.25a13.94,13.94,0,0,1,13.94,13.94V456.25a13.94,13.94,0,0,1-13.94,13.94H365.51"/><rect id="_Rectángulo_" data-name="&lt;Rectángulo&gt;" class="cls-1" x="101.69" y="90.84" width="301.96" height="216.54" rx="26" ry="26" transform="translate(505.33 398.22) rotate(180)"/><path id="_Trazado_2" data-name="&lt;Trazado&gt;" class="cls-2" d="M154.68,369.55a26.8,26.8,0,1,1-26.8-26.8A26.8,26.8,0,0,1,154.68,369.55Z"/><path id="_Trazado_3" data-name="&lt;Trazado&gt;" class="cls-2" d="M403.49,369.55a26.8,26.8,0,1,1-26.8-26.8A26.8,26.8,0,0,1,403.49,369.55Z"/><rect id="_Rectángulo_2" data-name="&lt;Rectángulo&gt;" class="cls-1" x="147.7" y="447.25" width="214.39" height="42.27" rx="19.16" ry="19.16" transform="translate(509.8 936.78) rotate(180)"/></svg>