<svg id="Capa_1" data-name="Capa 1" xmlns="http://www.w3.org/2000/svg" viewBox="0 0 500 500"><defs><style>.cls-1{fill:#1e1e1c;}</style></defs><title>Íconos apoyo</title><path id="_Trazado_" data-name="&lt;Trazado&gt;" class="cls-1" d="M451.84,194.42,265.16,6.4a21.67,21.67,0,0,0-30.77,0l-186.23,188a23.55,23.55,0,0,0-1.26,31.9h0a23.56,23.56,0,0,0,34.58,1.43L227.72,81l.05,396.73A22.23,22.23,0,0,0,250,500h0a22.23,22.23,0,0,0,22.23-22.23l0-396.73L418.52,227.75a23.56,23.56,0,0,0,34.58-1.43h0A23.55,23.55,0,0,0,451.84,194.42Z"/></svg>