<svg id="Capa_1" data-name="Capa 1" xmlns="http://www.w3.org/2000/svg" viewBox="0 0 500 500"><defs><style>.cls-1{fill:none;stroke:#1d1d1b;stroke-miterlimit:10;stroke-width:10px;}</style></defs><title>Íconos apoyo</title><path id="_Rectángulo_" data-name="&lt;Rectángulo&gt;" class="cls-1" d="M107.33,207.65h46.08a0,0,0,0,1,0,0V319.82a0,0,0,0,1,0,0H107.33a10,10,0,0,1-10-10V217.65A10,10,0,0,1,107.33,207.65Z"/><path id="_Trazado_" data-name="&lt;Trazado&gt;" class="cls-1" d="M262.7,404.29,154.9,318.82V208.91L262.26,124a7.48,7.48,0,0,1,12.28,5.74V398.22A7.47,7.47,0,0,1,262.7,404.29Z"/><path id="_Trazado_2" data-name="&lt;Trazado&gt;" class="cls-1" d="M373.18,189.5h0a104.68,104.68,0,0,1,.86,148h0"/><path id="_Trazado_3" data-name="&lt;Trazado&gt;" class="cls-1" d="M339.22,208.39h0a79.16,79.16,0,0,1,.65,112h0"/><path id="_Trazado_4" data-name="&lt;Trazado&gt;" class="cls-1" d="M302.21,225.86h0a51.53,51.53,0,0,1,.42,72.86h0"/><rect id="_Rectángulo_2" data-name="&lt;Rectángulo&gt;" class="cls-1" x="10.61" y="11" width="480" height="480.05" rx="240" ry="240"/></svg>