<svg id="Capa_1" data-name="Capa 1" xmlns="http://www.w3.org/2000/svg" viewBox="0 0 500 500"><defs><style>.cls-1{fill:#231f20;}.cls-2{fill:none;stroke:#1d1d1b;stroke-miterlimit:10;stroke-width:10px;}</style></defs><title>Íconos apoyo</title><circle id="_Trazado_" data-name="&lt;Trazado&gt;" class="cls-1" cx="260.72" cy="430.92" r="30"/><path id="_Trazado_2" data-name="&lt;Trazado&gt;" class="cls-2" d="M420.71,76.46V31a20,20,0,0,0-20-20H121.33a20,20,0,0,0-20,20V470a20,20,0,0,0,20,20H400.75a20,20,0,0,0,20-20V76.46Z"/><path id="_Trazado_3" data-name="&lt;Trazado&gt;" class="cls-2" d="M372.81,122v241.1a12,12,0,0,1-12,12H161.25a12,12,0,0,1-12-12V67.68a12,12,0,0,1,12-12H360.83a12,12,0,0,1,12,12V122"/></svg>