<svg id="Capa_1" data-name="Capa 1" xmlns="http://www.w3.org/2000/svg" viewBox="0 0 1300 1000"><defs><style>.cls-1,.cls-3,.cls-4,.cls-6{fill:#fff;}.cls-2{fill:#1d1d1b;}.cls-3,.cls-4,.cls-5,.cls-6{stroke:#1d1d1b;stroke-width:10px;}.cls-3,.cls-5,.cls-6{stroke-linejoin:round;}.cls-4{stroke-miterlimit:10;}.cls-5{fill:none;}.cls-5,.cls-6{stroke-linecap:round;}</style></defs><title>Capa 2-Personajes y artefactos</title><path class="cls-1" d="M661.22,901.14l.13-31.39-12.44,0L630,611.81l-21.37,258-12.62,0,.33,31.39H523.69V888.42l21.55-18.66h-4.87l28.12-325.5H555.23v-.08l-25,.14,7.27-111.38c.07-1.28,2-32.54,13.83-64.45,16.08-43.43,42.78-66.6,77.23-67h.94c34.14,0,60.51,22.6,76.25,65.35,11.56,31.38,13.35,62.23,13.42,63.53l7.05,113.74-23.63.14-1.77-9.42,1.47,9.44-13.27,0,28.13,325.48H715.5l18.06,19,.42,12.33Z"/><path class="cls-2" d="M629.48,306.47c77.92,0,84.68,124.15,84.68,124.15l6.72,108.5-14.17.08L685.92,429l-17.77-70.83,28.28,181.12-12.88,0,28.13,325.47h-7.81l24.76,26.1.18,5.27H666.24l.13-31.4-12.81,0L630.27,547.62,604,864.76l-13.07,0,.32,31.4H528.69V890.7l30-26H545.82l28.12-325.49H561.06l28-179.89L570.8,430,551.38,539.21l-15.83.08,6.91-106s7.39-125.86,86.14-126.79h.88m0-10h-1c-36.7.43-65,24.73-81.86,70.27-12,32.3-14,64-14.14,65.89l-6.91,106-.7,10.7,10.73-.05,13.8-.07v0H563L535.86,863.9l-.69,8-13,11.27-3.45,3v20h82.67l-.11-10.1L601,874.76H604l9.22,0,.76-9.19L629.67,676l13.91,189.5.69,9.28,9.31,0h2.75l-.09,21.34,0,10h82.95l-.35-10.33-.17-5.28-.13-3.79L735.89,884l-13.77-14.51-.48-5.58L694.45,549.27h2l11.66,0v0l12.84-.08,10.58-.06-.66-10.56L724.14,430c-.1-1.72-2-33.09-13.72-65-16.53-44.89-44.52-68.62-80.94-68.62Z"/><path id="_Trazado_" data-name="&lt;Trazado&gt;" class="cls-3" d="M605.61,259.89c0,16.06,10.63,29.07,23.73,29.07s23.73-13,23.73-29.07-10.62-29.07-23.73-29.07S605.61,243.83,605.61,259.89Z"/><line class="cls-4" x1="568.57" y1="544.28" x2="688.82" y2="544.28"/><polyline class="cls-5" points="609.34 307.34 628.92 348.89 648.16 307.34"/><line class="cls-6" x1="628.92" y1="348.89" x2="628.92" y2="541.34"/><polygon class="cls-1" points="607.2 236.92 596.41 218.91 630.22 205.42 664.24 219.94 653.91 236.92 607.2 236.92"/><path class="cls-2" d="M630.15,210.83,657,222.27l-5.87,9.65H610l-6.31-10.54,26.43-10.55m.13-10.82-3.83,1.53L600,212.09l-10.9,4.35,6,10.07,6.31,10.55,2.91,4.86h52.36l2.92-4.8,5.87-9.65,6-9.87-10.62-4.53-26.82-11.44L630.28,200Z"/><path class="cls-1" d="M630.13,256.71c-9.3,0-16.26-2.38-20.69-7.09a16.65,16.65,0,0,1-4.62-11.75l.28-4.7h50.64l.14,4.86A16.94,16.94,0,0,1,651,249.67C646.41,254.34,639.41,256.71,630.13,256.71Z"/><path class="cls-2" d="M650.88,238.17s.39,13.54-20.75,13.54-20.32-13.54-20.32-13.54h41.07m9.71-10H600.4l-.57,9.41a21.54,21.54,0,0,0,6,15.47c5.41,5.75,13.6,8.66,24.33,8.66s18.89-2.88,24.41-8.55a21.85,21.85,0,0,0,6.33-15.27l-.28-9.72Z"/></svg>