<svg id="Capa_1" data-name="Capa 1" xmlns="http://www.w3.org/2000/svg" viewBox="0 0 1300 1000"><defs><style>.cls-1,.cls-3,.cls-4,.cls-6{fill:#fff;}.cls-2{fill:#1d1d1b;}.cls-3,.cls-4,.cls-5,.cls-6{stroke:#1d1d1b;stroke-miterlimit:10;}.cls-3{stroke-width:9.94px;}.cls-4,.cls-5,.cls-6{stroke-width:10px;}.cls-5{fill:none;stroke-linecap:round;}.cls-6{stroke-linecap:square;}</style></defs><title>Capa 2-Personajes y artefactos</title><path class="cls-1" d="M720.59,904.32l0-31.44-12.27,0L687.73,614.23,667.46,872.86H655.69l-.27,31.47H582.85l-.2-12.92,22.1-18.34h-5.61l28.5-325.71H614.35L636.09,396.8l-19.94,47.65L592.44,538H564.09l16.43-92.62a272.34,272.34,0,0,1,19.81-67.68c20.49-45.64,50.78-70.8,87.59-72.76,21.76-1.16,95.71-7.67,112.54-9.17l29.8-104.61h25.89L830.72,325.29l-95.57,32.43L761.7,547.38l-13.35,0,28.38,325.51h-5.34l21.22,18.46,1.14,13Z"/><path class="cls-2" d="M850.11,196.17,826.35,321.5l-96.72,32.81,26.31,188-13-.05,28.38,325.55-13.22,0,29.74,25.87.49,5.56H725.6l0-31.43-12.66,0-25.31-317-24.85,317h-12.1l-.27,31.47H587.77l-.08-5.6,30.91-25.66h-14l28.49-325.71h-13L646.66,358.6l-35.27,84.26L588.55,533H570.06l15.4-86.85S603,314.49,688.18,309.94c24.87-1.33,116.15-9.48,116.15-9.48L834,196.17h16.07m12.07-10H826.49l-2.07,7.26-27.83,97.68C774.92,293,708.1,298.86,687.65,300c-38.8,2.08-70.57,28.25-91.88,75.71a278.42,278.42,0,0,0-20.19,68.95l-15.37,86.65L558.13,543h38.2l1.91-7.54L620.9,446l4.62-11L610.23,540.93l-1.65,11.43h13.6L594.63,867.19l-.73,8.38L581.3,886l-3.68,3.06.07,4.79.09,5.6.15,9.84h82.45l.08-9.91.19-21.56h11.43l.72-9.22,15-191,15.25,191,.73,9.18,9.21,0h2.67l0,21.45v10h83.62l-1-10.87-.49-5.57-.35-4-3-2.65L782,875.44l-.74-8.45L753.81,552.35h2.1l11.54,0L765.85,541,740.68,361.12,829.56,331l5.52-1.88,1.09-5.73L859.93,198l2.25-11.86Z"/><ellipse id="_Trazado_" data-name="&lt;Trazado&gt;" class="cls-3" cx="689.01" cy="262.99" rx="23.5" ry="29"/><line class="cls-4" x1="629.69" y1="404.18" x2="602.67" y2="380.93"/><line class="cls-4" x1="630.83" y1="547.32" x2="751.08" y2="547.32"/><polyline class="cls-5" points="669.71 309.53 689.29 351.08 708.53 307.53"/><g id="_Grupo_" data-name="&lt;Grupo&gt;"><line id="_Trazado_2" data-name="&lt;Trazado&gt;" class="cls-6" x1="711.6" y1="358.89" x2="711.6" y2="377.86"/><line id="_Trazado_3" data-name="&lt;Trazado&gt;" class="cls-6" x1="702.16" y1="368.41" x2="721.13" y2="368.41"/></g><line class="cls-4" x1="769.71" y1="300.06" x2="776.21" y2="340.75"/></svg>