<svg id="Capa_1" data-name="Capa 1" xmlns="http://www.w3.org/2000/svg" viewBox="0 0 1300 1000"><defs><style>.cls-1,.cls-2{fill:#fff;}.cls-1{stroke:#1d1d1b;stroke-miterlimit:10;stroke-width:10px;}.cls-3{fill:#262626;}</style></defs><title>Capa 2-Personajes y artefactos</title><path id="_Trazado_" data-name="&lt;Trazado&gt;" class="cls-1" d="M637.76,265c0,16,10.52,29,23.5,29s23.5-13,23.5-29-10.53-29-23.5-29S637.76,249,637.76,265Z"/><polygon class="cls-2" points="515.28 519.6 636.23 318.29 654.96 351.89 537.25 534.88 515.28 519.6"/><path class="cls-3" d="M636.07,328.27l13.07,23.43L535.85,527.82,522,518.16,636.07,328.27m.33-20-8.9,14.81L513.41,513l-4.82,8,7.68,5.34L530.14,536l8.51,5.93,5.61-8.72L657.55,357.11l3.24-5-2.92-5.24L644.81,323.4l-8.41-15.09Z"/><polygon class="cls-2" points="516.24 906.13 523.66 873.87 510.55 873.92 571.59 706.29 582.22 533.6 659.69 541.96 635.11 726.15 578.55 873.87 573.52 873.91 593.32 891.51 593.32 906.13 516.24 906.13"/><path class="cls-3" d="M586.89,539.13l67.17,7.25L630.23,724.91l-55.13,144-14.61.12,27.83,24.75v7.37h-65.8L530,868.85l-12.25,0,58.83-161.57,10.36-168.19m-9.34-11.06-.64,10.45L566.64,705.26,508.3,865.47,503.4,879l14-.05-4.59,20L510,911.13h88.36V889.27l-3.35-3-11.81-10.49,1.28-3.32,55.13-144,.41-1.09.16-1.16L664,547.7l1.36-10.17-10.2-1.1L588,529.19l-10.41-1.12Z"/><path class="cls-2" d="M686.63,855.57l.67-30-11.63.31-18-133.62L586.73,550.92l-34.52-.13,75.65-226.14c3.8-10.82,11.69-17.24,21.13-17.24a20.12,20.12,0,0,1,17,9.49c17.89,28,28.16,75.19,30.53,140.26a815.59,815.59,0,0,1-1.73,89.09l-.39,4.55-23,.1,56.43,117.71,16.54,155.06H738l21.52,18v13.92Z"/><path class="cls-3" d="M649,312.41a15.18,15.18,0,0,1,12.76,7.18c42,65.69,28,226.23,28,226.23l-26.36.12L722.9,670l15.86,148.67H724.19L754.49,844v6.59H691.75l.66-30.14-12.39.33-17.56-130L589.82,545.94l-30.67-.12L632.6,326.24c3.38-9.64,10-13.83,16.39-13.83m0-10c-11.49,0-21.38,7.86-25.83,20.51l0,.07,0,.07L549.67,542.65l-4.39,13.11,13.83.06,24.52.09,69.14,137.85L670.11,822.1l1.2,8.9,9-.24,1.89,0-.43,19.64-.23,10.22h83V839.31l-3.59-3L749.7,827l-1-9.34L732.84,668.94l-.18-1.72-.75-1.55L679.27,555.86l10.56,0,9.13,0,.79-9.1A808.41,808.41,0,0,0,701.49,457c-2.41-66-12.94-114-31.31-142.77A25.14,25.14,0,0,0,649,302.41Z"/><path class="cls-2" d="M646,336.39c-.15,58.05,28.78,106,28.78,106L730.18,535l19.9-11.83L702.19,417.71s-21.61-76.11-41.71-100.23"/><path class="cls-3" d="M646,336.39c.31,4.56.61,9.11,1.22,13.62s1.23,9,2.06,13.46c.43,2.23.87,4.45,1.37,6.66s1,4.42,1.53,6.62c1.11,4.38,2.31,8.74,3.68,13.05s2.8,8.59,4.36,12.82,3.25,8.42,5,12.55,3.72,8.2,5.7,12.23,4.1,8,6.34,11.81l7.2,11.54c2.41,3.87,4.85,7.72,7.22,11.62L706,485.68q7.17,11.65,14.26,23.36l14.14,23.43-6.8-1.73,19.9-11.84-2,6.35c-4-8.8-8-17.59-11.88-26.41l-5.9-13.22-5.84-13.25-11.65-26.52-2.91-6.63-2.86-6.65-5.72-13.31-.14-.32,0-.2c-1.15-4.33-2.39-8.7-3.65-13s-2.51-8.7-3.83-13-2.66-8.65-4.05-13l-2.12-6.44-2.18-6.44q-2.19-6.42-4.58-12.77c-.79-2.12-1.63-4.22-2.46-6.33s-1.67-4.2-2.56-6.28-1.8-4.15-2.74-6.21L669,332.17l-1.5-3-1.58-3c-.54-1-1.12-2-1.68-2.95s-1.2-1.92-1.79-2.89-1.29-1.87-1.94-2.81c.75.86,1.52,1.7,2.25,2.58s1.42,1.79,2.09,2.71,1.34,1.85,2,2.8l1.89,2.86c1.22,1.93,2.39,3.9,3.52,5.89s2.24,4,3.3,6c2.15,4,4.14,8.15,6.05,12.31s3.75,8.33,5.53,12.54,3.48,8.44,5.12,12.7,3.26,8.53,4.81,12.82,3.11,8.59,4.55,12.92,2.86,8.66,4.22,13.07l-.19-.53,6.25,13.07,3.13,6.53,3.08,6.55,12.29,26.22,6.13,13.12,6.07,13.15c4.06,8.76,8.05,17.55,12.06,26.33l1.86,4.06-3.85,2.28-19.91,11.82-4.28,2.54-2.53-4.26L712,514q-7-11.77-13.82-23.62l-13.76-23.65c-2.31-3.94-4.55-7.91-6.82-11.87l-6.81-12c-2.23-4.14-4.23-8.31-6.12-12.55s-3.58-8.53-5.19-12.86A231.91,231.91,0,0,1,651.36,391c-1.08-4.48-2-9-2.8-13.53s-1.44-9.09-1.88-13.66-.8-9.15-.89-13.74S645.76,341,646,336.39Z"/></svg>