<svg width="219" height="65" viewBox="0 0 219 65" fill="none" xmlns="http://www.w3.org/2000/svg">
<g clip-path="url(#clip0_3_9)">
<rect width="219" height="65" rx="16" fill="#001446"/>
<path d="M53.3947 15H60.5935V51H53.3947V15Z" fill="white"/>
<path d="M114.585 22.2H121.783V51H114.585V22.2Z" fill="white"/>
<path d="M103.786 15H132.582V22.2H103.786V15Z" fill="white"/>
<path d="M100.933 42.7298C97.731 47.705 92.1449 51 85.7894 51C75.8499 51 67.7923 42.9411 67.7923 33C67.7923 23.0589 75.8499 15 85.7894 15C92.1449 15 97.731 18.295 100.933 23.2702L93.9252 25.8986C91.9457 23.6319 89.0347 22.2 85.7894 22.2C79.8257 22.2 74.9911 27.0353 74.9911 33C74.9911 38.9647 79.8257 43.8 85.7894 43.8C89.0347 43.8 91.9457 42.3681 93.9252 40.1014L100.933 42.7298Z" fill="white"/>
<path d="M172.175 33C172.175 42.9411 164.118 51 154.178 51C144.239 51 136.181 42.9411 136.181 33C136.181 23.0589 144.239 15 154.178 15C164.118 15 172.175 23.0589 172.175 33Z" fill="white"/>
<path d="M200.603 23.7727L203.115 17.884C196.387 13.9488 190.438 14.8373 187.154 15.9321C183.869 17.0268 181.424 21.0711 181.003 25.0127C180.331 31.2902 185.078 34.0311 188.393 35.1804C191.707 36.3297 197.013 37.0479 196.493 40.9925C196.092 44.0419 193.445 44.4634 190.334 44.5106C186.879 44.563 182.941 40.8083 182.941 40.8083L179.374 45.4632C184.245 52.0335 194.968 52.8362 200.528 47.443C203.121 44.9279 204.134 42.8594 203.986 39.2498C203.748 33.4573 196.827 30.4656 193.945 30.0183C191.062 29.5711 187.464 27.2902 188.393 24.327C189.129 21.9767 190.935 21.2735 193.945 21.3367C196.954 21.3999 200.603 23.7727 200.603 23.7727Z" fill="white"/>
<path fill-rule="evenodd" clip-rule="evenodd" d="M27.125 51.125V39.875H32.4375H32.5V39.8748C39.3403 39.8412 44.875 34.2857 44.875 27.4375C44.875 20.5893 39.3403 15.0338 32.5 15.0002V15H32.4375H27.125H20V27.4375V39.875V51.125H27.125Z" fill="white"/>
</g>
<defs>
<clipPath id="clip0_3_9">
<rect width="219" height="65" fill="white"/>
</clipPath>
</defs>
</svg>
