<svg id="Capa_1" data-name="Capa 1" xmlns="http://www.w3.org/2000/svg" viewBox="0 0 1300 1000"><defs><style>.cls-1{fill:#262626;}</style></defs><title>Capa1-Acciones del protagonista</title><path class="cls-1" d="M552.41,422.53S566.94,294,647.35,293.08,745.7,419.83,745.7,419.83l6.87,110.78-21.47.08L709.87,418.15l-22.14-67.32L725.6,530.75l-13.15,0,28.72,334.31h-8l25.28,24.65.18,10.38H688.78l.13-34.06-14.08,0-25.77-317.8-25.83,317.8-13.34,0,.33,34.06H541.34v-9.55L571,865.07l-12.12,0,28.72-335.33-13.15,1,32.54-178.67-19.61,67.07L567.51,530.69l-22.17.09Z"/><ellipse id="_Trazado_" data-name="&lt;Trazado&gt;" class="cls-1" cx="650" cy="250.63" rx="24" ry="30"/></svg>