<svg width="1300" height="1000" viewBox="0 0 1300 1000" fill="none" xmlns="http://www.w3.org/2000/svg">
<path d="M383.074 469.162C383.17 467.503 388.976 412.035 406.504 376C421.553 346.825 445.564 342.455 483.683 342.021C520.658 341.595 550.725 347.537 566.627 375.218C582.068 411.322 586.5 469.162 586.5 469.162L584.099 572.74L582.705 603.185C582.153 615.242 569.075 622.476 558.568 616.537V616.537C557.975 616.202 557.59 615.591 557.544 614.912L556.504 599.5L564.504 718L563.004 874L578.602 880.406C586.105 883.488 591.004 890.796 591.004 898.907V900H497.504L499.004 882V882C496.197 880.129 494.527 876.965 494.565 873.592L496.004 746L486.504 621L477.504 746V874C477.504 877.148 476.022 880.111 473.504 882V882L475.004 900H383V900C383 892.368 387.401 885.42 394.301 882.158L410.504 874.5L408.504 718L416 572.37L410.108 617.207C410.045 617.687 409.699 618.083 409.232 618.209V618.209C394.455 622.216 379.751 611.561 378.959 596.271L377.72 572.37C377.72 572.37 380.5 514 383.074 469.162Z" fill="white"/>
<path d="M389.07 472.47C389.07 472.47 394.51 415.787 411.05 380.515C425.251 351.958 448.039 348.445 484.01 348.02C518.902 347.604 547.274 353.42 562.28 380.515C576.102 414.035 580.545 466.698 580.966 472.031C580.991 472.347 580.997 472.629 580.99 472.946L578.768 573.855L577.409 599.466C577.049 606.252 571.462 611.582 564.667 611.622V611.622C563.883 611.627 563.21 611.064 563.076 610.291L556.718 573.493L546.54 468.08L539.655 419.119C539.566 418.489 539.027 418.02 538.391 418.02V418.02C537.643 418.02 537.055 418.661 537.12 419.406L543 487.5L546 518L549 573.855L558.5 717.008L557 878.015L578.216 887.127C581.833 888.681 584.202 892.212 584.268 896.149L584.332 900H503.5L505.59 877.99V877.99C502.797 878.007 500.531 875.733 500.557 872.94L501.755 744.12L489.223 596.836C489.097 595.357 487.859 594.22 486.375 594.22V594.22C484.886 594.22 483.647 595.363 483.526 596.846L471.49 744.135L471.248 873.71C471.244 876.104 469.293 878.037 466.9 878.02V878.02L468.891 900H389V900C389 894.808 391.968 890.073 396.641 887.811L416.82 878.04L414.66 717.02L422 573.5L424.5 518L427.5 488L432.895 419.336C432.952 418.617 432.381 418.005 431.661 418.011V418.011C431.047 418.016 430.532 418.474 430.453 419.082L423.99 469.09L408 573.855L404.083 610.769C404.036 611.214 403.662 611.552 403.215 611.554V611.554C393.856 611.597 386.111 604.285 385.616 594.939L384.5 573.855L389.06 472.47H389.07Z" fill="black"/>
<path d="M474.324 340C478.25 341.471 485.581 341.995 487.5 342C487.5 342 496.147 341.928 501.183 340C506.858 337.828 510.019 335.707 513.852 331.04C516.47 327.852 518.513 322.343 519.421 319.62C519.779 318.544 520.027 317.439 520.216 316.32L524.493 291C524.493 291 525.009 287.351 525 285C524.98 279.409 524.224 276.126 521.96 271C519.634 265.735 517.601 262.917 513.345 259C508.808 254.824 505.538 253 499.662 251.032C495.101 249.504 492.317 249.039 487.5 249C482.331 249.175 480.406 249.5 475.472 251.032C470.533 252.681 465.492 255.602 461.656 259C457.819 262.398 455.134 266.42 453.041 271C450.947 275.58 450.002 280.002 450 285C450.001 286.885 450.208 289.137 450.507 291L455.591 315.993C455.84 317.218 456.162 318.425 456.597 319.598C457.668 322.492 459.942 328.201 462.162 331C465.209 334.841 469.628 338.241 474.324 340Z" fill="white"/>
<path d="M476.433 334.258C479.73 335.539 485.888 335.996 487.5 336C487.5 336 494.763 335.937 498.993 334.258C503.761 332.366 506.416 330.519 509.635 326.454C511.785 323.74 513.474 319.094 514.26 316.672C514.6 315.627 514.832 314.554 515.008 313.47L518.574 291.581C518.574 291.581 519.007 288.403 519 286.355C518.983 281.485 518.348 278.626 516.446 274.161C514.493 269.576 512.785 267.122 509.21 263.71C505.398 260.073 502.652 258.484 497.716 256.77C493.885 255.439 491.546 255.034 487.5 255C483.158 255.152 481.541 255.435 477.396 256.77C473.248 258.206 469.013 260.75 465.791 263.71C462.568 266.669 460.313 270.172 458.554 274.161C456.795 278.151 456.002 282.002 456 286.355C456.001 287.996 456.175 289.958 456.426 291.581L460.661 313.165C460.894 314.355 461.196 315.528 461.606 316.669C462.53 319.239 464.395 324.039 466.216 326.419C468.776 329.765 472.488 332.726 476.433 334.258Z" fill="black"/>
<path d="M337.52 729.527L348.07 618.527C348.314 615.96 350.469 614 353.047 614H434.99C437.552 614 439.7 615.937 439.963 618.486L451.43 729.486C451.735 732.435 449.422 735 446.457 735H342.498C339.549 735 337.241 732.462 337.52 729.527Z" fill="white" stroke="black" stroke-width="7"/>
<path d="M372 614C372 604.706 372 579 393.5 579C417 579 417 604.706 417 614" stroke="black" stroke-width="7"/>
</svg>
