<svg id="Capa_1" data-name="Capa 1" xmlns="http://www.w3.org/2000/svg" viewBox="0 0 1300 1000"><defs><style>.cls-1{fill:#262626;}</style></defs><title>ease--second-quadrant</title><path class="cls-1" d="M589.66,901.23l-.18-10.38L564.2,866.19h8L543.45,531.88l13.15,0L518.73,351.93l22.14,67.32L562.1,531.8l21.47-.09L576.7,420.93s-18-127.7-98.35-126.75-94.94,129.46-94.94,129.46l-7.07,108.24,22.17-.08,19.82-111.55,19.61-67.07L405.4,531.86l13.15-1L389.83,866.19H402l-29.61,25.5v9.55h68.88l-.33-34.07,13.34,0,25.83-317.8,25.77,317.8,14.08,0-.13,34.07Z"/><ellipse class="cls-1" cx="481" cy="251.74" rx="24" ry="30"/></svg>