<svg id="Capa_3" data-name="Capa 3" xmlns="http://www.w3.org/2000/svg" viewBox="0 0 1300 1000"><defs><style>.cls-1{fill:#fff;}.cls-2{fill:#1e1e1c;}</style></defs><title>1-subject</title><polygon class="cls-1" points="553.91 860.94 553.91 860.93 517.03 860.93 517.02 860.85 516.51 854.49 537.74 853.27 559.01 854.49 559.09 860.94 553.91 860.94"/><polygon class="cls-1" points="415.88 557.48 415.48 562.6 415.48 562.64 413.65 562.64 394.19 562.63 394.19 562.6 390.25 562.6 390.25 557.51 396.15 556.91 403.07 556.2 413.75 557.26 415.88 557.48"/><polygon class="cls-1" points="583.49 562.6 579.53 562.6 579.54 562.63 560.9 562.64 558.52 562.64 558.51 562.6 558.11 557.51 560.82 557.24 571.25 556.2 577.52 556.84 583.49 557.45 583.49 562.6"/><path class="cls-1" d="M550.15,543.27H531.61l-89.51,0H423.86l1.07-7.68,4.47-.28c14.39-.9,57.52-3.48,57.52-3.48l57.41,3.49,4.78.29Z"/><polygon class="cls-1" points="436.56 853.27 415.27 854.49 415.21 860.94 420.34 860.94 420.34 860.93 457.24 860.93 457.75 854.49 436.56 853.27"/><path class="cls-2" d="M583.46,460.11l0,97.34-6-.61-6.27-.64-10.44,1-2.7.27-.72-9.08-1.26-15.67h0l-.57-7.19-5.21-65.44h0l-.2-2.5-2.52-23.43-2.18-20.29-1.24-11.57h-2.62l-.25,13.53L541,434.18l-.49,25.93-.19,10.12,8.31,61.7.49,3.66-4.78-.29-57.41-3.49s-43.13,2.58-57.52,3.48l-4.47.28.48-3.39,8.65-62-.19-10.11-.5-25.93L433,416.8l-.28-14.3h-2.61l-1.45,12.29-.27,2.3-2,17.09-2.77,23.43-.19,2.5-5.1,65.61h0l-.52,6.78-1.1,14.11-.1,1.29-.74,9.57-2.13-.21-10.68-1.07-6.92.71-5.9.6v-97.4h0c0-.83,0-1.66,0-2.5a96.75,96.75,0,0,1,2.86-23.43v0l2.76-13.79,11-54.9h.18c.27-1,.57-2,.91-3,.17-.5.35-1,.53-1.48h0a44.18,44.18,0,0,1,1.91-4.26c.47-.93,1-1.83,1.52-2.71s1.1-1.74,1.69-2.57a42.06,42.06,0,0,1,5-5.84c.18-.19.37-.37.55-.54l.56-.53h0l0,0,.06-.07.23-.21c.23-.22.58-.54,1.06-.95l.63-.54.75-.62.88-.68c.34-.27.72-.56,1.12-.85l.41-.3c1.49-1.07,3.3-2.29,5.42-3.57l1.66-1c2.29-1.31,4.91-2.66,7.86-4q2.26-1,4.82-2c1.27-.49,2.59-1,4-1.43.91-.31,1.84-.61,2.8-.9.72-.23,1.45-.44,2.2-.65q3.33-1,7-1.75c.95-.2,1.92-.39,2.91-.58,1.48-.28,3-.54,4.55-.76,1-.15,2.1-.3,3.17-.42l1.63-.19a129.29,129.29,0,0,1,13.89-.73c2.9,0,5.7.09,8.41.25,1.35.07,2.68.17,4,.29s2.58.25,3.83.39c2.51.29,4.92.65,7.23,1.06,1.3.23,2.58.47,3.81.74l1.23.27,1.61.37,1.58.38,1.15.3c.76.2,1.52.41,2.25.63l1.1.32c1,.28,1.91.58,2.83.89s1.82.61,2.69.93c1.52.55,3,1.12,4.36,1.69s2.7,1.16,3.94,1.76c.36.16.71.33,1.05.5.7.33,1.36.67,2,1,.33.16.64.33.95.5l1.8,1,.84.5.82.48.78.48.75.47c.25.15.48.3.71.46l.69.44c.45.29.86.59,1.26.87s.78.56,1.14.82.7.51,1,.76l.45.35.42.33c.13.12.26.22.39.32.89.72,1.5,1.28,1.86,1.62l.24.23.07.08a.11.11,0,0,1,0,0h0a43.4,43.4,0,0,1,7.15,8.49c.29.45.57.9.84,1.36s.61,1,.9,1.59h0c.52.95,1,1.93,1.43,2.92a42.84,42.84,0,0,1,2.61,7.83h0l0,.26.42,2.09s0,.06,0,.1l13.13,65.62v0a96.75,96.75,0,0,1,2.86,23.43C583.49,458.45,583.48,459.28,583.46,460.11Z"/><path class="cls-2" d="M453.9,262.62l.5,2.54C454.2,264.33,454,263.48,453.9,262.62Z"/><path class="cls-2" d="M519.89,262.51l0,.2,0-.2Z"/><polygon class="cls-2" points="559.02 854.49 559.01 854.49 537.74 853.27 516.51 854.49 506.17 725.99 490.79 598.49 490.79 598.48 482.96 598.47 482.96 598.48 467.83 725.99 457.75 854.49 436.56 853.27 415.27 854.49 416.3 726.88 419.68 612.4 422.24 565.3 422.38 562.59 423.15 548.37 423.21 547.93 423.87 543.25 442.1 543.25 531.61 543.27 550.15 543.27 550.84 548.37 550.84 548.41 551.63 562.59 554.41 612.4 554.41 612.41 557.7 726.88 559.02 854.49"/><polygon class="cls-2" points="415.48 562.64 413.26 591.21 412.98 594.85 411.62 612.4 400.06 612.4 390.25 577.16 391.23 573.53 394.19 562.63 413.65 562.64 415.48 562.64"/><polygon class="cls-2" points="583.49 577.16 573.67 612.4 562.48 612.4 561.5 600.15 561.5 600.14 558.52 562.64 560.9 562.64 579.54 562.63 583.49 577.16"/><path class="cls-2" d="M520.26,257.44a34,34,0,0,1-.38,5.07l0,.2-.44,2.27-5,25.78-.35,1.78A23.4,23.4,0,0,1,498,309.7h0a41.36,41.36,0,0,1-22.29,0h0a23.4,23.4,0,0,1-16.56-20.11l-4.78-24.43-.5-2.54,0-.08a34.2,34.2,0,0,1-.38-5.1,33.38,33.38,0,1,1,66.76,0Z"/><polygon class="cls-2" points="595.6 889.39 595.6 901.23 517.02 901.23 517.02 860.93 553.91 860.93 553.91 860.94 559.19 871.52 559.2 871.53 561.43 876 571.71 880.03 595.6 889.39"/><polygon class="cls-2" points="457.24 860.93 457.24 901.23 378.1 901.23 378.1 889.39 405.05 878.97 405.06 878.96 412.72 876 415.13 871.22 417.7 866.14 420.33 860.94 420.34 860.94 420.34 860.93 457.24 860.93"/></svg>