<svg id="Capa_3" data-name="Capa 3" xmlns="http://www.w3.org/2000/svg" viewBox="0 0 1300 1000"><defs><style>.cls-1{fill:#fff;}.cls-2{fill:#1e1e1c;}</style></defs><title>1-subject</title><polygon class="cls-1" points="554.56 860.94 554.56 860.93 517.68 860.93 517.67 860.85 517.16 854.49 538.39 853.27 559.67 854.49 559.74 860.94 554.56 860.94"/><polygon class="cls-1" points="416.53 557.48 416.13 562.6 416.13 562.64 414.3 562.64 394.84 562.63 394.84 562.6 390.9 562.6 390.9 557.51 396.8 556.91 403.72 556.2 414.4 557.26 416.53 557.48"/><polygon class="cls-1" points="584.14 562.6 580.18 562.6 580.19 562.63 561.55 562.64 559.17 562.64 559.16 562.6 558.76 557.51 561.47 557.24 571.9 556.2 578.17 556.84 584.14 557.45 584.14 562.6"/><path class="cls-1" d="M550.8,543.27H532.26l-89.51,0H424.52l1.06-7.68,4.47-.28c14.4-.9,57.52-3.48,57.52-3.48L545,535.3l4.78.29Z"/><polygon class="cls-1" points="437.21 853.27 415.92 854.49 415.86 860.94 420.99 860.94 420.99 860.93 457.89 860.93 458.4 854.49 437.21 853.27"/><path class="cls-2" d="M584.11,460.11l0,97.34-6-.61-6.27-.64-10.43,1-2.71.27-.72-9.08-1.26-15.67h0l-.57-7.19L551,460.12h0l-.2-2.5-2.52-23.43-2.18-20.29-1.24-11.57h-2.62L542,415.85l-.35,18.33-.49,25.93L541,470.23l8.31,61.7.49,3.66L545,535.3l-57.41-3.49s-43.12,2.58-57.52,3.48l-4.47.28.48-3.39,8.65-62-.19-10.11-.5-25.93-.34-17.38-.28-14.3h-2.61l-1.45,12.29-.27,2.3-2,17.09-2.77,23.43-.19,2.5L419,525.72h0l-.52,6.78-1.1,14.11-.1,1.29-.74,9.57-2.13-.21-10.68-1.07-6.92.71-5.9.6v-97.4h0c0-.83,0-1.66,0-2.5a96.75,96.75,0,0,1,2.86-23.43v0l2.76-13.79,11-54.9h.18c.27-1,.57-2,.91-3,.17-.5.35-1,.53-1.48h0a44.18,44.18,0,0,1,1.91-4.26c.47-.93,1-1.83,1.52-2.71s1.1-1.74,1.69-2.57a42.06,42.06,0,0,1,5-5.84c.18-.19.37-.37.55-.54l.56-.53h0l0,0,.06-.07.23-.21c.23-.22.58-.54,1.06-.95.19-.17.4-.35.64-.54l.74-.62.88-.68c.34-.27.72-.56,1.12-.85l.41-.3c1.49-1.07,3.3-2.29,5.42-3.57l1.66-1c2.29-1.31,4.91-2.66,7.86-4q2.26-1,4.82-2c1.27-.49,2.59-1,4-1.43.91-.31,1.84-.61,2.8-.9.72-.23,1.45-.44,2.2-.65q3.33-1,7-1.75c1-.2,1.92-.39,2.91-.58,1.48-.28,3-.54,4.56-.76,1-.15,2.09-.3,3.16-.42l1.63-.19a129.29,129.29,0,0,1,13.89-.73c2.9,0,5.7.09,8.41.25,1.35.07,2.68.17,4,.29s2.58.25,3.83.39c2.51.29,4.92.65,7.23,1.06,1.3.23,2.58.47,3.81.74l1.23.27,1.61.37,1.58.38,1.15.3c.76.2,1.52.41,2.25.63l1.1.32c1,.28,1.91.58,2.83.89s1.82.61,2.69.93c1.52.55,3,1.12,4.36,1.69s2.7,1.16,3.94,1.76c.36.16.71.33,1.05.5.7.33,1.36.67,2,1,.33.16.64.33.95.5l1.8,1,.84.5.82.48.78.48.75.47c.25.15.48.3.71.46l.69.44c.45.29.86.59,1.26.87s.78.56,1.14.82.7.51,1,.76l.45.35.42.33c.13.12.26.22.39.32.89.72,1.5,1.28,1.86,1.62l.24.23.07.08a.11.11,0,0,1,.05,0h0a43.4,43.4,0,0,1,7.15,8.49c.29.45.57.9.84,1.36s.61,1,.9,1.59h0c.52.95,1,1.93,1.43,2.92a42.84,42.84,0,0,1,2.61,7.83h0l.05.26.42,2.09s0,.06,0,.1l13.13,65.62v0a96.75,96.75,0,0,1,2.86,23.43C584.14,458.45,584.13,459.28,584.11,460.11Z"/><path class="cls-2" d="M454.55,262.62l.5,2.54C454.85,264.33,454.68,263.48,454.55,262.62Z"/><path class="cls-2" d="M520.54,262.51l0,.2,0-.2Z"/><polygon class="cls-2" points="559.67 854.49 559.67 854.49 538.39 853.27 517.16 854.49 506.82 725.99 491.44 598.49 491.44 598.48 483.61 598.47 483.61 598.48 468.48 725.99 458.4 854.49 437.21 853.27 415.92 854.49 416.95 726.88 420.33 612.4 422.88 565.3 423.03 562.59 423.8 548.37 423.86 547.93 424.51 543.25 442.75 543.25 532.26 543.27 550.8 543.27 551.49 548.37 551.49 548.41 552.28 562.59 555.06 612.4 555.06 612.41 558.35 726.88 559.67 854.49"/><polygon class="cls-2" points="416.13 562.64 413.91 591.21 413.63 594.85 412.27 612.4 400.71 612.4 390.9 577.16 391.88 573.53 394.84 562.63 414.3 562.64 416.13 562.64"/><polygon class="cls-2" points="584.14 577.16 574.32 612.4 563.13 612.4 562.15 600.15 562.15 600.14 559.17 562.64 561.55 562.64 580.19 562.63 584.14 577.16"/><path class="cls-2" d="M520.91,257.44a34,34,0,0,1-.38,5.07l0,.2-.44,2.27-5,25.78-.35,1.78a23.4,23.4,0,0,1-16.07,17.16h0a41.36,41.36,0,0,1-22.29,0h0a23.4,23.4,0,0,1-16.56-20.11l-4.78-24.43-.5-2.54,0-.08a34.2,34.2,0,0,1-.38-5.1,33.38,33.38,0,1,1,66.76,0Z"/><polygon class="cls-2" points="596.25 889.39 596.25 901.23 517.67 901.23 517.67 860.93 554.56 860.93 554.56 860.94 559.84 871.52 559.85 871.53 562.08 876 572.36 880.03 596.25 889.39"/><polygon class="cls-2" points="457.89 860.93 457.89 901.23 378.75 901.23 378.75 889.39 405.7 878.97 405.71 878.96 413.37 876 415.78 871.22 418.35 866.14 420.98 860.94 420.99 860.94 420.99 860.93 457.89 860.93"/></svg>