<svg id="Capa_1" data-name="Capa 1" xmlns="http://www.w3.org/2000/svg" viewBox="0 0 1300 1000"><defs><style>.cls-1{fill:#262626;}</style></defs><title>ease--fourth-quadrant</title><path class="cls-1" d="M1246.66,901.24l-.18-10.38-25.28-24.65h8L1200.45,531.9l13.15,0L1175.73,352l22.14,67.32,21.23,112.54,21.47-.08L1233.7,421s-18-127.7-98.35-126.75-94.94,129.45-94.94,129.45l-7.07,108.25,22.17-.08,19.82-111.55,19.61-67.07L1062.4,531.87l13.15-1-28.72,335.33,12.12,0-29.61,25.5v9.55h68.88l-.33-34.06,13.34,0,25.83-317.8,25.77,317.8,14.08,0-.13,34.06Z"/><ellipse class="cls-1" cx="1138" cy="251.75" rx="24" ry="30"/></svg>