<svg id="Capa_3" data-name="Capa 3" xmlns="http://www.w3.org/2000/svg" viewBox="0 0 1300 1000"><defs><style>.cls-1{fill:#fff;}</style></defs><title>ease--second-quadrant</title><polygon class="cls-1" points="550.91 862.71 550.91 862.7 514.27 862.7 514.03 859.86 513.28 850.45 537.74 849.04 561.99 850.42 562.12 862.71 550.91 862.71"/><path class="cls-1" d="M537.74,852,559,853.26l.06,6.45H517v-.08l-.51-6.35L537.74,852m0-6-.35,0-21.22,1.23-6.13.35.49,6.11.51,6.35v.13l.47,5.48h53.63l-.07-6.07-.06-6.45-.07-5.6-5.59-.32-21.28-1.22-.34,0Z"/><polygon class="cls-1" points="391.19 564.39 391.19 564.37 387.25 564.37 387.25 553.57 403.06 551.96 414.05 553.05 419.1 553.56 418.46 561.79 417.94 564.37 415.48 564.41 391.19 564.39"/><path class="cls-1" d="M403.07,555,413.75,556l2.13.21-.4,5.12v0H394.19v0h-3.94v-5.09l5.9-.6,6.92-.7m0-6-.6.06-6.92.7-5.9.6-5.39.55v16.51h5l5,0h26.26l.92-4.88.06-.32,0-.37.4-5.12.45-5.85-5.83-.59-2.13-.21L403.66,549l-.6-.06Z"/><polygon class="cls-1" points="556.03 564.41 555.54 561.81 555.52 561.61 554.89 553.59 571.25 551.96 586.49 553.51 586.49 564.37 583.17 564.37 579.54 564.4 560.9 564.41 556.03 564.41"/><path class="cls-1" d="M571.25,555l6.27.63,6,.61v5.15h-4v0h-21v0l-.4-5.09,2.71-.27,10.43-1m0-6-.61.06-10.43,1-2.7.27-5.85.58.46,5.86.4,5.09,0,.35.07.34,1,4.84,4.95,0H587.8v0h1.7V550.8l-5.39-.55-6-.6-6.27-.64-.6-.06Z"/><path class="cls-1" d="M531.61,545l-89.52,0H420.42l1.87-13.47,2.4-.19,4.53-.29c14.23-.89,57.08-3.46,57.52-3.49h.18l64.84,3.95L553.58,545Z"/><path class="cls-1" d="M486.92,530.58l57.41,3.49,4.78.29,1,7.68H531.61l-89.51,0H423.86l1.07-7.67,4.47-.29c14.39-.9,57.52-3.48,57.52-3.48m0-6-.36,0c-.43,0-43.3,2.59-57.53,3.48-2.82.17-4.1.26-4.58.3l-4.8.39-.66,4.76-1.07,7.67L417,548H442.1l89.51,0H557l-.92-6.8-1-7.68-.66-4.89-4.92-.3-4.79-.29-57.41-3.49-.36,0Z"/><polygon class="cls-1" points="412.18 862.71 412.3 850.42 436.56 849.04 460.98 850.45 460.02 862.7 423.34 862.7 420.34 862.71 412.18 862.71"/><path class="cls-1" d="M436.56,852l21.19,1.23-.51,6.43h-42l.06-6.45L436.56,852m0-6-.34,0-21.29,1.22-5.61.32-.05,5.61-.06,6.45-.06,6.06h53.64l.43-5.53.51-6.43.48-6.11-6.11-.35-21.19-1.23-.35,0Z"/><path d="M387.25,455.89a100,100,0,0,1,2.93-23.6l13.69-68.36v-2.7h.93c.1-.33.21-.65.32-1l.37-1.05h0l.2-.53a48.63,48.63,0,0,1,2-4.55c.48-1,1-1.9,1.62-2.9s1.17-1.84,1.81-2.75a46.45,46.45,0,0,1,5.34-6.25c.18-.17.37-.37.57-.55s.39-.38.59-.56l.21-.22.08-.05,0,0c.25-.23.63-.58,1.14-1l.72-.6.1-.09.66-.54.3-.24.64-.49c.33-.26.73-.57,1.16-.88l.42-.31c1.77-1.27,3.66-2.52,5.63-3.7.56-.34,1.14-.68,1.73-1,2.57-1.47,5.31-2.85,8.11-4.11,1.55-.7,3.23-1.39,5-2.06,1.28-.5,2.65-1,4.08-1.48.93-.32,1.89-.63,2.89-.93.73-.23,1.49-.45,2.26-.67,2.29-.66,4.72-1.26,7.19-1.79q1.45-.32,3-.6c1.48-.28,3.06-.55,4.67-.78,1.06-.15,2.15-.31,3.25-.43.52-.07,1.09-.13,1.67-.19a134.3,134.3,0,0,1,14.19-.75c2.9,0,5.79.09,8.59.25,1.37.08,2.73.19,4.06.3s2.64.26,3.92.4c2.54.3,5,.67,7.41,1.09,1.35.23,2.68.49,3.92.76l1.26.28,1.62.37,1.52.37,1.31.34c.77.2,1.55.42,2.31.64l1.11.33c1,.29,2,.6,2.93.92s1.88.62,2.78,1c1.48.53,3,1.12,4.48,1.74s2.75,1.18,4.07,1.81c.35.15.74.34,1.13.54.65.32,1.35.67,2,1l1,.52,1.82,1,.89.52c.29.16.57.33.85.5l.77.47.92.57c.25.16.5.31.74.48l.6.4c.48.31.93.62,1.36.93s.8.56,1.18.84.76.56,1.1.84l.39.3a7.4,7.4,0,0,1,.6.48l.3.24c.95.77,1.63,1.39,2,1.77l.37.36a46.68,46.68,0,0,1,7.61,9c.31.49.62,1,.9,1.47s.64,1.1,1,1.67l.36.67v0c.42.8.81,1.62,1.18,2.45a46.28,46.28,0,0,1,2.18,6H570v2.7l.33,1.69,0,.06.08.46,13.11,65.52a99.89,99.89,0,0,1,2.94,24.11c0,.87,0,1.73,0,2.59l0,100.57L571.25,558l-15.89,1.58-2.23-27.93-.56-7.07-5.41-68-3.07-28.57-.78,40.77,9.26,68.76-65.66-4c-3.06.19-43.57,2.62-57.32,3.48-2.37.14-3.95.24-4.41.28l-3.74.3,1-7.11,8.62-61.72-.83-42.74-3.61,30.6-5.81,74.84-1.2,15.4-1,12.64-5.19-.53-10.38-1-15.82,1.61Z"/><path class="cls-1" d="M486.77,321.11c2.9,0,5.7.09,8.41.25,1.35.08,2.68.18,4,.29s2.58.25,3.83.39c2.51.3,4.92.65,7.23,1.07,1.3.22,2.58.46,3.81.73l1.23.27,1.61.37c.53.12,1.06.26,1.58.39l1.15.3c.76.2,1.52.4,2.25.62l1.1.32c1,.29,1.91.59,2.83.89s1.82.61,2.69.93c1.52.55,3,1.12,4.36,1.7s2.7,1.16,3.94,1.75q.54.24,1.05.51c.7.33,1.36.66,2,1,.33.16.64.33.95.5l1.8,1,.84.5.82.48.78.48.75.47c.25.15.48.3.71.46l.69.44c.45.3.86.59,1.26.87s.78.56,1.14.82.7.51,1,.76l.45.35.42.33.39.33c.89.71,1.5,1.27,1.86,1.61l.24.23.07.08a.11.11,0,0,1,0,0h0a43.4,43.4,0,0,1,7.15,8.49c.29.45.57.9.84,1.36s.61,1.06.9,1.59h0c.52,1,1,1.93,1.43,2.92a42.84,42.84,0,0,1,2.61,7.83h0l0,.26.42,2.09s0,.06,0,.1l13.13,65.62v0a96.81,96.81,0,0,1,2.86,23.43c0,.84,0,1.68,0,2.51l0,97.33-6-.61-6.27-.63-10.43,1-2.71.27-.72-9.08-1.26-15.67h0l-.57-7.18-5.21-65.45h0l-.2-2.51L547.63,433l-2.18-20.29-1.24-11.57h-2.62l-.25,13.52L541,433l-.49,25.94L540.31,469l8.31,61.7.49,3.66-4.78-.29-57.41-3.49s-43.13,2.58-57.52,3.48l-4.47.29.48-3.4,8.65-62-.19-10.1-.5-25.94L433,415.57l-.28-14.3h-2.61l-1.45,12.3-.27,2.29-2,17.09-2.77,23.43-.19,2.51-5.1,65.61h0l-.52,6.78-1.1,14.11-.1,1.29-.74,9.57-2.13-.21L403.07,555l-6.92.7-5.9.6V458.89h0c0-.83,0-1.67,0-2.51A96.81,96.81,0,0,1,393.11,433v0l2.76-13.78,11-54.9h.18c.27-1,.57-2,.91-3,.17-.5.35-1,.53-1.47h0a44.18,44.18,0,0,1,1.91-4.26c.47-.92,1-1.82,1.52-2.71s1.1-1.74,1.69-2.57a42.06,42.06,0,0,1,5-5.84l.55-.54.56-.53h0l0,0,.06-.06L420,343c.23-.21.58-.54,1.06-1l.63-.54.75-.62.88-.68c.34-.27.72-.55,1.12-.85l.41-.3c1.49-1.07,3.3-2.29,5.42-3.56.54-.33,1.09-.65,1.66-1,2.29-1.31,4.91-2.66,7.86-4q2.26-1,4.82-2c1.27-.5,2.59-1,4-1.43.91-.32,1.84-.62,2.8-.91.72-.22,1.45-.44,2.2-.65q3.33-1,7-1.74c.95-.21,1.92-.4,2.91-.59,1.48-.28,3-.54,4.55-.76,1-.15,2.1-.3,3.17-.42l1.63-.19a129.29,129.29,0,0,1,13.89-.73m0-6a135.32,135.32,0,0,0-14.51.77c-.58.05-1.16.12-1.73.19-1,.12-2.06.26-3.32.45-1.64.23-3.27.5-4.81.8-1.09.2-2.1.41-3.06.61-2.51.54-5,1.16-7.37,1.84l-2.34.69q-1.53.46-3,1c-1.43.48-2.85,1-4.18,1.51-1.78.69-3.51,1.41-5.12,2.13-2.88,1.29-5.7,2.72-8.36,4.24-.6.34-1.2.68-1.78,1-2.05,1.23-4,2.53-5.84,3.85l-.49.35c-.42.31-.82.61-1.19.9l-.63.5-.27.21,0,0,0,0-.69.57-.11.09c-.3.24-.55.46-.8.67l-.89.8-.12.06-.49.5-.64.6-.61.6a49.53,49.53,0,0,0-5.67,6.64c-.68.95-1.33,1.95-1.93,2.93s-1.21,2.07-1.73,3.1a52.53,52.53,0,0,0-2.16,4.83l-.24.64h-1.78v5.41L390,418l-2.74,13.68a103.3,103.3,0,0,0-2.94,21.26h0v1.24c0,.75,0,1.5,0,2.25V562.92l6.6-.67,5.91-.6,6.32-.64,10.08,1,2.12.21,6.11.62.48-6.13.73-9.57.1-1.29.42-5.34,2.3-.18c.55-.05,3.41-.22,4.35-.28,13.53-.84,52.94-3.21,57.14-3.46L544,540.06l4.79.29,2.08.13.57,7.2.73,9.08.48,6.1,6.09-.61,2.71-.26,9.83-1,5.68.57,6,.61,6.61.67v-6.64l0-97.25c0-.78,0-1.62,0-2.59a103,103,0,0,0-3-24.78l-13.09-65.39c0-.12,0-.24-.08-.37l-.31-1.59v-5.4h-1.48c-.48-1.45-1-2.87-1.65-4.27-.29-.65-.6-1.31-.92-1.95v-.06l-.72-1.35c-.32-.59-.66-1.18-1-1.77s-.66-1.09-.94-1.54a49.76,49.76,0,0,0-8.08-9.62l-.06-.05c-.13-.14-.25-.25-.34-.33-.27-.26-.65-.61-1.14-1l-.26-.24h0l-.77-.64-.15-.11-.07-.07c-.27-.23-.53-.43-.73-.57l-.41-.33c-.34-.27-.72-.55-1.15-.87s-.81-.59-1.25-.89-.9-.63-1.4-1l-.29-.18-.31-.2c-.27-.19-.54-.36-.82-.53l-.09-.06-.7-.44-.09-.06-.09-.05-.34-.21-.41-.25-.87-.52-.32-.18-.48-.28-.07,0-.07,0-1.86-1-1.08-.57c-.8-.42-1.45-.74-2.08-1-.42-.22-.81-.41-1.19-.58-1.35-.64-2.74-1.26-4.15-1.84s-3.06-1.23-4.61-1.79c-.87-.32-1.81-.65-2.87-1s-2-.66-3-1l-1.11-.32c-.76-.22-1.57-.45-2.41-.67l-1.19-.31-1.7-.41-1.42-.33-.21-.05-1.33-.29c-1.28-.28-2.64-.54-4-.78-2.39-.43-4.94-.8-7.55-1.11-1.32-.15-2.67-.29-4-.41s-2.82-.22-4.16-.3c-2.84-.17-5.79-.26-8.75-.26Z"/><path d="M451.48,264.63c-.23-.94-.41-1.88-.55-2.79l5.91-1,.5,2.54Z"/><path class="cls-1" d="M453.9,261.39l.5,2.54c-.2-.83-.37-1.68-.5-2.54m5.89-1.16L448,262.29c.15,1,.35,2,.59,3l11.73-2.56-.5-2.54Z"/><polygon points="517.75 261.1 516.89 260.98 517.2 258.32 519.88 258.28 523.51 258.28 522.82 261.89 522.81 261.97 522.75 262.21 517.75 261.1"/><path class="cls-1" d="M519.89,261.28l0,.11s0-.08,0-.11h0m0,.11s0,.06,0,.09v-.09m7.29-6.11H514.5l-.59,5.35,0-.13,3.35.58,8.39,1.85c0-.15.07-.31.1-.48v0l1.37-7.13Z"/><polygon points="413.3 725.63 416.68 611.09 420.16 546.85 421.25 539.02 442.1 539.02 531.61 539.04 552.77 539.04 553.84 546.94 553.84 547.1 557.41 611.09 560.7 725.56 562.05 856.26 558.94 856.26 537.74 855.05 513.76 856.43 503.18 725.06 488.13 600.25 485.63 600.25 470.82 725.05 460.51 856.43 436.56 855.05 412.24 856.44 413.3 725.63"/><path class="cls-1" d="M442.1,542l89.51,0h18.54l.68,5.1v0l.8,14.19,2.78,49.81h0l3.29,114.47L559,853.26h0L537.74,852l-21.23,1.23L506.17,724.76l-15.38-127.5H483L467.83,724.76,457.75,853.27,436.56,852l-21.29,1.22,1-127.61,3.38-114.47,2.55-47.11.15-2.7.77-14.23.06-.44.65-4.68H442.1m0-6H418.64l-.72,5.17-.65,4.68-.06.44,0,.25v.26L416.39,561l-.15,2.71-2.55,47.1V611L410.3,725.47v.13l-1,127.61,0,6.4,6.39-.36,20.95-1.2,20.85,1.21,5.86.33.46-5.86L473.8,725.35l13.09-110.3L500.2,725.36l10.33,128.39.47,5.84,5.86-.33,20.88-1.21,20.93,1.2h6.41L565,853.2,563.7,725.59v-.11L560.41,611.1v-.26L557.62,561l-.79-14v-.23l-.05-.44-.68-5.1-.7-5.2H531.61l-89.51,0Z"/><polygon points="397.78 614.18 387.14 575.94 391.9 558.39 418.72 558.41 414.39 614.18 397.78 614.18"/><path class="cls-1" d="M394.19,561.4h21.29L413.26,590l-.28,3.64-1.36,17.56H400.06l-9.81-35.25,1-3.63,3-10.9m-4.58-6-1.21,4.43-3,10.91-1,3.63L384,576l.44,1.59,9.81,35.24,1.22,4.4h21.67l.43-5.54L419,594.09l.28-3.64,2.22-28.57.5-6.47H389.61Z"/><polygon points="559.71 614.18 555.27 558.41 560.9 558.41 581.83 558.39 586.6 575.94 575.95 614.18 559.71 614.18"/><path class="cls-1" d="M579.54,561.4l4,14.53-9.82,35.25H562.48l-1-12.25v0l-3-37.5h21m4.58-6H552l.51,6.48,3,37.26h0l0,.25,1,12.25.44,5.53h21.3l1.22-4.39,9.82-35.25.44-1.59-.43-1.6-3.95-14.53-1.21-4.43Z"/><path d="M486.88,316a43.23,43.23,0,0,1-12.05-1.67l-2.09-.67v-.06a26.24,26.24,0,0,1-16.53-21.81l-5.28-26.95a37.33,37.33,0,0,1-.43-5.64,36.38,36.38,0,1,1,72.35,5.46c0,.14,0,.28-.06.41l-5.39,28-.35,1.78a26.47,26.47,0,0,1-16,18.73v.05l-2.09.68A43.26,43.26,0,0,1,486.88,316Z"/><path class="cls-1" d="M486.88,225.82a33.38,33.38,0,0,1,33.38,33.39,34,34,0,0,1-.38,5.07l0,.2-.44,2.27-5,25.78-.35,1.78A23.4,23.4,0,0,1,498,311.47h0a41.36,41.36,0,0,1-22.29,0h0a23.4,23.4,0,0,1-16.56-20.1l-4.78-24.44-.5-2.54,0-.08a34.2,34.2,0,0,1-.38-5.1,33.39,33.39,0,0,1,33.38-33.39m0-6a39.43,39.43,0,0,0-39.38,39.39,40,40,0,0,0,.45,6v.09l0,.08v.17l.5,2.54,4.73,24.16a29.2,29.2,0,0,0,16.5,23.32v.28l4.18,1.35a46.09,46.09,0,0,0,13,1.81,45.52,45.52,0,0,0,13-1.82l4.18-1.33v-.29A29.42,29.42,0,0,0,520,295.65l0-.1,0-.09.35-1.78,5-25.79.42-2.2c0-.23.08-.44.11-.61a39.45,39.45,0,0,0-39-45.26Z"/><polygon points="598.6 886.11 598.6 900 514.02 900 514.02 856.7 556.91 856.7 556.91 859 561.67 868.53 563.6 872.4 598.6 886.11"/><path class="cls-1" d="M597.79,882.57l-23.89-9.36L565.77,870l-1.2-2.4-.43-.87h0l-4.22-8.45v-4.59H511V900h6V859.7h36.89l5.29,10.59,2.23,4.47,10.28,4,23.89,9.36V900h6V884.06Z"/><polygon points="460.25 856.7 460.25 900 375.1 900 375.1 886.1 403.33 875.19 403.98 874.93 410.56 872.39 417.34 858.98 417.34 856.71 420.34 856.7 460.25 856.7"/><path class="cls-1" d="M414.34,853.7v4.56l-2,4-2.57,5.07L408.4,870l-5.5,2.13-1.18.45h0l-25.78,10-3.84,1.49v16h6V888.16l26.95-10.42h0l7.66-3,2.41-4.78,2.57-5.08,2.63-5.2h36.92V900h6V853.7Z"/></svg>