<svg id="Capa_3" data-name="Capa 3" xmlns="http://www.w3.org/2000/svg" viewBox="0 0 1300 1000"><defs><style>.cls-1{fill:#fff;}.cls-2{fill:#1e1e1c;}</style></defs><title>1-subject</title><polygon class="cls-1" points="229.56 860.94 229.56 860.93 192.68 860.93 192.67 860.85 192.16 854.49 213.39 853.27 234.67 854.49 234.74 860.94 229.56 860.94"/><polygon class="cls-1" points="91.53 557.48 91.13 562.6 91.13 562.64 89.3 562.64 69.84 562.63 69.84 562.6 65.9 562.6 65.9 557.51 71.8 556.91 78.72 556.2 89.4 557.26 91.53 557.48"/><polygon class="cls-1" points="259.14 562.6 255.18 562.6 255.19 562.63 236.55 562.64 234.17 562.64 234.16 562.6 233.76 557.51 236.47 557.24 246.9 556.2 253.17 556.84 259.14 557.45 259.14 562.6"/><path class="cls-1" d="M225.8,543.27H207.26l-89.51,0H99.52l1.06-7.68,4.47-.28c14.4-.9,57.52-3.48,57.52-3.48L220,535.3l4.78.29Z"/><polygon class="cls-1" points="112.21 853.27 90.92 854.49 90.86 860.94 95.99 860.94 95.99 860.93 132.89 860.93 133.4 854.49 112.21 853.27"/><path class="cls-2" d="M259.11,460.11l0,97.34-6-.61-6.27-.64-10.43,1-2.71.27-.72-9.08-1.26-15.67h0l-.57-7.19L226,460.12h0l-.2-2.5-2.52-23.43-2.18-20.29-1.24-11.57h-2.62L217,415.85l-.35,18.33-.49,25.93L216,470.23l8.31,61.7.49,3.66L220,535.3l-57.41-3.49s-43.12,2.58-57.52,3.48l-4.47.28.48-3.39,8.65-62-.19-10.11-.5-25.93-.34-17.38-.28-14.3h-2.61l-1.45,12.29-.27,2.3-2,17.09-2.77,23.43-.19,2.5L94,525.72h0l-.52,6.78-1.1,14.11-.1,1.29-.74,9.57-2.13-.21L78.72,556.2l-6.92.71-5.9.6v-97.4h0c0-.83,0-1.66,0-2.5a96.75,96.75,0,0,1,2.86-23.43v0l2.76-13.79,11-54.9h.18c.27-1,.57-2,.91-3,.17-.5.35-1,.53-1.48h0a44.18,44.18,0,0,1,1.91-4.26c.47-.93,1-1.83,1.52-2.71s1.1-1.74,1.69-2.57a42.06,42.06,0,0,1,5-5.84c.18-.19.37-.37.55-.54l.56-.53h0l0,0,.06-.07.23-.21c.23-.22.58-.54,1.06-.95.19-.17.4-.35.64-.54l.74-.62.88-.68c.34-.27.72-.56,1.12-.85l.41-.3c1.49-1.07,3.3-2.29,5.42-3.57l1.66-1c2.29-1.31,4.91-2.66,7.86-4q2.26-1,4.82-2c1.27-.49,2.59-1,4-1.43.91-.31,1.84-.61,2.8-.9.72-.23,1.45-.44,2.2-.65q3.33-1,7-1.75c.95-.2,1.92-.39,2.91-.58,1.48-.28,3-.54,4.56-.76,1-.15,2.09-.3,3.16-.42l1.63-.19a129.29,129.29,0,0,1,13.89-.73c2.9,0,5.7.09,8.41.25,1.35.07,2.68.17,4,.29s2.58.25,3.83.39c2.51.29,4.92.65,7.23,1.06,1.3.23,2.58.47,3.81.74l1.23.27,1.61.37,1.58.38,1.15.3c.76.2,1.52.41,2.25.63l1.1.32c1,.28,1.91.58,2.83.89s1.82.61,2.69.93c1.52.55,3,1.12,4.36,1.69s2.7,1.16,3.94,1.76c.36.16.71.33,1.05.5.7.33,1.36.67,2,1,.33.16.64.33.95.5l1.8,1,.84.5.82.48.78.48.75.47c.25.15.48.3.71.46l.69.44c.45.29.86.59,1.26.87s.78.56,1.14.82.7.51,1,.76l.45.35.42.33c.13.12.26.22.39.32.89.72,1.5,1.28,1.86,1.62l.24.23.07.08a.11.11,0,0,1,0,0h0a43.4,43.4,0,0,1,7.15,8.49c.29.45.57.9.84,1.36s.61,1,.9,1.59h0c.52.95,1,1.93,1.43,2.92a42.84,42.84,0,0,1,2.61,7.83h0l0,.26.42,2.09s0,.06,0,.1l13.13,65.62v0a96.75,96.75,0,0,1,2.86,23.43C259.14,458.45,259.13,459.28,259.11,460.11Z"/><path class="cls-2" d="M129.55,262.62l.5,2.54C129.85,264.33,129.68,263.48,129.55,262.62Z"/><path class="cls-2" d="M195.54,262.51l0,.2,0-.2Z"/><polygon class="cls-2" points="234.67 854.49 234.67 854.49 213.39 853.27 192.16 854.49 181.82 725.99 166.44 598.49 166.44 598.48 158.61 598.47 158.61 598.48 143.48 725.99 133.4 854.49 112.21 853.27 90.92 854.49 91.95 726.88 95.33 612.4 97.89 565.3 98.03 562.59 98.8 548.37 98.86 547.93 99.52 543.25 117.75 543.25 207.26 543.27 225.8 543.27 226.49 548.37 226.49 548.41 227.28 562.59 230.06 612.4 230.06 612.41 233.35 726.88 234.67 854.49"/><polygon class="cls-2" points="91.13 562.64 88.91 591.21 88.63 594.85 87.27 612.4 75.71 612.4 65.9 577.16 66.88 573.53 69.84 562.63 89.3 562.64 91.13 562.64"/><polygon class="cls-2" points="259.14 577.16 249.32 612.4 238.13 612.4 237.15 600.15 237.15 600.14 234.17 562.64 236.55 562.64 255.19 562.63 259.14 577.16"/><path class="cls-2" d="M195.91,257.44a34,34,0,0,1-.38,5.07l0,.2-.44,2.27-5,25.78-.35,1.78a23.4,23.4,0,0,1-16.07,17.16h0a41.36,41.36,0,0,1-22.29,0h0a23.4,23.4,0,0,1-16.56-20.11l-4.78-24.43-.5-2.54,0-.08a34.2,34.2,0,0,1-.38-5.1,33.38,33.38,0,1,1,66.76,0Z"/><polygon class="cls-2" points="271.25 889.39 271.25 901.23 192.67 901.23 192.67 860.93 229.56 860.93 229.56 860.94 234.84 871.52 234.85 871.53 237.08 876 247.36 880.03 271.25 889.39"/><polygon class="cls-2" points="132.89 860.93 132.89 901.23 53.75 901.23 53.75 889.39 80.7 878.97 80.71 878.96 88.37 876 90.78 871.22 93.35 866.14 95.98 860.94 95.99 860.94 95.99 860.93 132.89 860.93"/></svg>