<svg id="Capa_3" data-name="Capa 3" xmlns="http://www.w3.org/2000/svg" viewBox="0 0 1300 1000"><defs><style>.cls-1{fill:#fff;}.cls-2{fill:#1e1e1c;}</style></defs><title>ease--third-quadrant</title><polygon class="cls-1" points="824.84 860.94 824.84 860.93 787.95 860.93 787.95 860.85 787.44 854.49 808.67 853.27 829.94 854.49 830.01 860.94 824.84 860.94"/><polygon class="cls-1" points="686.81 557.48 686.41 562.6 686.4 562.64 684.57 562.64 665.12 562.63 665.12 562.6 661.18 562.6 661.18 557.51 667.08 556.91 673.99 556.2 684.68 557.26 686.81 557.48"/><polygon class="cls-1" points="854.42 562.6 850.46 562.6 850.47 562.63 831.83 562.64 829.44 562.64 829.44 562.6 829.04 557.51 831.74 557.24 842.18 556.2 848.45 556.84 854.42 557.45 854.42 562.6"/><path class="cls-1" d="M821.08,543.27H802.54l-89.52,0H694.79l1.07-7.68,4.47-.28c14.39-.9,57.51-3.48,57.51-3.48l57.42,3.49,4.78.29Z"/><polygon class="cls-1" points="707.49 853.27 686.2 854.49 686.13 860.94 691.26 860.94 691.26 860.93 728.17 860.93 728.68 854.49 707.49 853.27"/><path class="cls-2" d="M854.39,460.11l0,97.34-6-.61-6.27-.64-10.44,1-2.7.27-.73-9.08-1.25-15.67h0l-.57-7.19-5.21-65.44h0l-.2-2.5-2.52-23.43-2.18-20.29-1.25-11.57h-2.61l-.25,13.53-.35,18.33-.49,25.93-.19,10.12,8.31,61.7.49,3.66-4.78-.29-57.42-3.49s-43.12,2.58-57.51,3.48l-4.47.28.48-3.39,8.65-62-.19-10.11-.5-25.93L704,416.8l-.28-14.3h-2.61l-1.46,12.29-.27,2.3-2,17.09-2.77,23.43-.19,2.5-5.1,65.61h0l-.52,6.78-1.1,14.11-.1,1.29-.74,9.57-2.13-.21L674,556.2l-6.91.71-5.9.6v-97.4h0c0-.83,0-1.66,0-2.5A96.75,96.75,0,0,1,664,434.18v0l2.76-13.79,11-54.9H678c.27-1,.57-2,.9-3l.54-1.48h0a41.86,41.86,0,0,1,1.91-4.26c.47-.93,1-1.83,1.51-2.71s1.1-1.74,1.7-2.57a42.06,42.06,0,0,1,5-5.84c.18-.19.36-.37.55-.54l.56-.53h0s0,0,0,0l.06-.07.22-.21c.23-.22.59-.54,1.06-.95.2-.17.4-.35.64-.54l.75-.62.88-.68c.34-.27.72-.56,1.12-.85l.41-.3c1.49-1.07,3.29-2.29,5.42-3.57.53-.32,1.09-.64,1.66-1,2.29-1.31,4.91-2.66,7.86-4q2.26-1,4.82-2c1.26-.49,2.59-1,4-1.43.91-.31,1.84-.61,2.8-.9.72-.23,1.45-.44,2.19-.65,2.23-.64,4.56-1.22,7-1.75,1-.2,1.92-.39,2.91-.58,1.48-.28,3-.54,4.55-.76,1-.15,2.1-.3,3.17-.42l1.62-.19a129.62,129.62,0,0,1,13.9-.73c2.9,0,5.7.09,8.41.25,1.34.07,2.67.17,4,.29s2.59.25,3.84.39c2.51.29,4.91.65,7.23,1.06,1.3.23,2.57.47,3.81.74l1.23.27,1.61.37,1.58.38,1.15.3q1.14.3,2.25.63l1.09.32c1,.28,1.92.58,2.83.89s1.83.61,2.69.93c1.53.55,3,1.12,4.37,1.69s2.69,1.16,3.94,1.76c.36.16.71.33,1,.5.69.33,1.36.67,2,1l1,.5,1.8,1,.84.5.82.48.78.48.75.47c.24.15.48.3.71.46l.69.44c.44.29.86.59,1.26.87l1.14.82c.36.26.7.51,1,.76s.31.24.46.35l.42.33c.13.12.26.22.39.32.89.72,1.5,1.28,1.85,1.62a2.8,2.8,0,0,1,.24.23l.08.08.05,0h0a43.4,43.4,0,0,1,7.15,8.49c.29.45.57.9.84,1.36s.61,1,.9,1.59h0c.51.95,1,1.93,1.43,2.92a43.62,43.62,0,0,1,2.61,7.83h0l.06.26.41,2.09a.29.29,0,0,1,0,.1l13.13,65.62v0a96.75,96.75,0,0,1,2.86,23.43C854.42,458.45,854.41,459.28,854.39,460.11Z"/><path class="cls-2" d="M724.83,262.62l.5,2.54C725.13,264.33,725,263.48,724.83,262.62Z"/><path class="cls-2" d="M790.81,262.51l0,.2a1.77,1.77,0,0,0,0-.2Z"/><polygon class="cls-2" points="829.95 854.49 829.94 854.49 808.67 853.27 787.44 854.49 777.1 725.99 761.72 598.49 761.72 598.48 753.89 598.47 753.89 598.48 738.76 725.99 728.68 854.49 707.49 853.27 686.2 854.49 687.23 726.88 690.61 612.4 693.16 565.3 693.31 562.59 694.08 548.37 694.14 547.93 694.79 543.25 713.02 543.25 802.54 543.27 821.08 543.27 821.76 548.37 821.76 548.41 822.55 562.59 825.34 612.4 825.34 612.41 828.63 726.88 829.95 854.49"/><polygon class="cls-2" points="686.4 562.64 684.19 591.21 683.9 594.85 682.54 612.4 670.99 612.4 661.18 577.16 662.16 573.53 665.12 562.63 684.57 562.64 686.4 562.64"/><polygon class="cls-2" points="854.42 577.16 844.6 612.4 833.4 612.4 832.43 600.15 832.43 600.14 829.44 562.64 831.83 562.64 850.47 562.63 854.42 577.16"/><path class="cls-2" d="M791.19,257.44a34,34,0,0,1-.38,5.07,1.77,1.77,0,0,1,0,.2l-.43,2.27-5,25.78-.35,1.78A23.41,23.41,0,0,1,769,309.7h0a41.32,41.32,0,0,1-22.28,0h0a23.4,23.4,0,0,1-16.56-20.11l-4.78-24.43-.5-2.54,0-.08a34.2,34.2,0,0,1-.38-5.1,33.38,33.38,0,1,1,66.76,0Z"/><polygon class="cls-2" points="866.53 889.39 866.53 901.23 787.95 901.23 787.95 860.93 824.84 860.93 824.84 860.94 830.12 871.52 830.13 871.53 832.36 876 842.64 880.03 866.53 889.39"/><polygon class="cls-2" points="728.17 860.93 728.17 901.23 649.03 901.23 649.03 889.39 675.98 878.97 675.99 878.96 683.64 876 686.06 871.22 688.63 866.14 691.26 860.94 691.26 860.94 691.26 860.93 728.17 860.93"/></svg>