<svg id="Capa_1" data-name="Capa 1" xmlns="http://www.w3.org/2000/svg" viewBox="0 0 1300 1000"><defs><style>.cls-1{fill:#262626;}</style></defs><title>ease--third-quadrant</title><path class="cls-1" d="M918.66,901.22l-.18-10.38L893.2,866.19h8L872.45,531.87l13.15,0L847.73,351.92l22.14,67.32L891.1,531.79l21.47-.08L905.7,420.92s-18-127.7-98.35-126.74-94.94,129.45-94.94,129.45l-7.07,108.25,22.17-.09,19.82-111.54,19.61-67.07L734.4,531.85l13.15-1L718.83,866.18H731l-29.61,25.5v9.55h68.88l-.33-34.07,13.34,0,25.83-317.8,25.77,317.8,14.08,0-.13,34.07Z"/><ellipse class="cls-1" cx="810" cy="251.73" rx="24" ry="30"/></svg>