<svg id="Capa_3" data-name="Capa 3" xmlns="http://www.w3.org/2000/svg" viewBox="0 0 1300 1000"><defs><style>.cls-1{fill:#fff;}.cls-2{fill:#1e1e1c;}</style></defs><title>1-subject</title><polygon class="cls-1" points="823.96 860.94 823.96 860.93 787.08 860.93 787.07 860.85 786.56 854.49 807.79 853.27 829.07 854.49 829.13 860.94 823.96 860.94"/><polygon class="cls-1" points="685.93 557.48 685.53 562.6 685.53 562.64 683.7 562.64 664.24 562.63 664.24 562.6 660.3 562.6 660.3 557.51 666.2 556.91 673.12 556.2 683.8 557.26 685.93 557.48"/><polygon class="cls-1" points="853.54 562.6 849.58 562.6 849.59 562.63 830.95 562.64 828.57 562.64 828.56 562.6 828.16 557.51 830.87 557.24 841.3 556.2 847.57 556.84 853.54 557.45 853.54 562.6"/><path class="cls-1" d="M820.2,543.27H801.66l-89.51,0H693.91l1.07-7.68,4.47-.28c14.39-.9,57.52-3.48,57.52-3.48l57.41,3.49,4.78.29Z"/><polygon class="cls-1" points="706.61 853.27 685.32 854.49 685.26 860.94 690.39 860.94 690.39 860.93 727.29 860.93 727.8 854.49 706.61 853.27"/><path class="cls-2" d="M853.51,460.11l0,97.34-6-.61-6.27-.64-10.43,1-2.71.27-.72-9.08-1.26-15.67h0l-.57-7.19-5.21-65.44h0l-.2-2.5-2.52-23.43-2.18-20.29-1.24-11.57h-2.62l-.25,13.53L811,434.18l-.49,25.93-.19,10.12,8.31,61.7.49,3.66-4.78-.29L757,531.81s-43.13,2.58-57.52,3.48l-4.47.28.48-3.39,8.65-62-.19-10.11-.5-25.93-.34-17.38-.28-14.3h-2.61l-1.45,12.29-.27,2.3-2,17.09-2.77,23.43-.19,2.5-5.1,65.61h0l-.52,6.78-1.1,14.11-.1,1.29-.74,9.57-2.13-.21-10.68-1.07-6.92.71-5.9.6v-97.4h0c0-.83,0-1.66,0-2.5a96.75,96.75,0,0,1,2.86-23.43v0l2.76-13.79,11-54.9h.18c.27-1,.57-2,.91-3,.17-.5.35-1,.53-1.48h0a44.18,44.18,0,0,1,1.91-4.26c.47-.93,1-1.83,1.52-2.71s1.1-1.74,1.69-2.57a42.06,42.06,0,0,1,5-5.84c.18-.19.37-.37.55-.54l.56-.53h0l0,0,.06-.07.23-.21c.23-.22.58-.54,1.06-.95.19-.17.4-.35.64-.54l.74-.62.88-.68c.34-.27.72-.56,1.12-.85l.41-.3c1.49-1.07,3.3-2.29,5.42-3.57l1.66-1c2.29-1.31,4.91-2.66,7.86-4q2.26-1,4.82-2c1.27-.49,2.59-1,4-1.43.91-.31,1.84-.61,2.8-.9.72-.23,1.45-.44,2.2-.65q3.33-1,7-1.75c1-.2,1.92-.39,2.91-.58,1.48-.28,3-.54,4.55-.76,1-.15,2.1-.3,3.17-.42l1.63-.19a129.29,129.29,0,0,1,13.89-.73c2.9,0,5.7.09,8.41.25,1.35.07,2.68.17,4,.29s2.58.25,3.83.39c2.51.29,4.92.65,7.23,1.06,1.3.23,2.58.47,3.81.74l1.23.27,1.61.37,1.58.38,1.15.3c.76.2,1.52.41,2.25.63l1.1.32c1,.28,1.91.58,2.83.89s1.82.61,2.69.93c1.52.55,3,1.12,4.36,1.69s2.7,1.16,3.94,1.76c.36.16.71.33,1,.5.7.33,1.36.67,2,1,.33.16.64.33,1,.5l1.8,1,.84.5.82.48.78.48.75.47c.25.15.48.3.71.46l.69.44c.45.29.86.59,1.26.87s.78.56,1.14.82.7.51,1,.76l.45.35.42.33c.13.12.26.22.39.32.89.72,1.5,1.28,1.86,1.62l.24.23.07.08a.11.11,0,0,1,.05,0h0a43.4,43.4,0,0,1,7.15,8.49c.29.45.57.9.84,1.36s.61,1,.9,1.59h0c.52.95,1,1.93,1.43,2.92a42.84,42.84,0,0,1,2.61,7.83h0l.05.26.42,2.09s0,.06,0,.1l13.13,65.62v0a96.75,96.75,0,0,1,2.86,23.43C853.54,458.45,853.53,459.28,853.51,460.11Z"/><path class="cls-2" d="M724,262.62l.5,2.54C724.25,264.33,724.08,263.48,724,262.62Z"/><path class="cls-2" d="M789.94,262.51l0,.2,0-.2Z"/><polygon class="cls-2" points="829.07 854.49 829.07 854.49 807.79 853.27 786.56 854.49 776.22 725.99 760.84 598.49 760.84 598.48 753.01 598.47 753.01 598.48 737.88 725.99 727.8 854.49 706.61 853.27 685.32 854.49 686.35 726.88 689.73 612.4 692.28 565.3 692.43 562.59 693.2 548.37 693.26 547.93 693.91 543.25 712.15 543.25 801.66 543.27 820.2 543.27 820.88 548.37 820.88 548.41 821.68 562.59 824.46 612.4 824.46 612.41 827.75 726.88 829.07 854.49"/><polygon class="cls-2" points="685.53 562.64 683.31 591.21 683.03 594.85 681.67 612.4 670.11 612.4 660.3 577.16 661.28 573.53 664.24 562.63 683.7 562.64 685.53 562.64"/><polygon class="cls-2" points="853.54 577.16 843.72 612.4 832.53 612.4 831.55 600.15 831.55 600.14 828.57 562.64 830.95 562.64 849.59 562.63 853.54 577.16"/><path class="cls-2" d="M790.31,257.44a34,34,0,0,1-.38,5.07l0,.2-.44,2.27-5,25.78-.35,1.78a23.4,23.4,0,0,1-16.07,17.16h0a41.36,41.36,0,0,1-22.29,0h0a23.4,23.4,0,0,1-16.56-20.11l-4.78-24.43-.5-2.54,0-.08a34.2,34.2,0,0,1-.38-5.1,33.38,33.38,0,1,1,66.76,0Z"/><polygon class="cls-2" points="865.65 889.39 865.65 901.23 787.07 901.23 787.07 860.93 823.96 860.93 823.96 860.94 829.24 871.52 829.25 871.53 831.48 876 841.76 880.03 865.65 889.39"/><polygon class="cls-2" points="727.29 860.93 727.29 901.23 648.15 901.23 648.15 889.39 675.1 878.97 675.11 878.96 682.77 876 685.18 871.22 687.75 866.14 690.38 860.94 690.39 860.94 690.39 860.93 727.29 860.93"/></svg>