<svg id="Capa_1" data-name="Capa 1" xmlns="http://www.w3.org/2000/svg" viewBox="0 0 1300 1000"><defs><style>.cls-1{fill:#262626;}</style></defs><title>ease--first-quadrant</title><path class="cls-1" d="M269.66,901.23l-.18-10.38L244.2,866.19h8L223.45,531.88l13.15,0L198.73,351.93l22.14,67.32L242.1,531.8l21.47-.09L256.7,420.93s-17.95-127.7-98.35-126.75S63.41,423.64,63.41,423.64L56.34,531.88l22.17-.08L98.33,420.25l19.61-67.07L85.4,531.86l13.15-1L69.83,866.19H82l-29.61,25.5v9.55h68.88l-.33-34.07,13.34,0,25.83-317.8,25.77,317.8,14.08,0-.13,34.07Z"/><ellipse class="cls-1" cx="161" cy="251.74" rx="24" ry="30"/></svg>