<svg width="1300" height="1000" viewBox="0 0 1300 1000" fill="none" xmlns="http://www.w3.org/2000/svg">
<path fill-rule="evenodd" clip-rule="evenodd" d="M523.413 588.037C525.95 581.87 531.478 575 542.067 575C546.548 575 550.39 575.825 553.519 577.647C556.709 579.505 558.718 582.145 559.946 585.008C561.137 587.783 561.611 590.799 561.822 593.619C562.007 596.091 562.003 598.685 561.999 601.067C561.998 601.397 561.998 601.723 561.998 602.044V900H552.032V602.044C552.032 601.705 552.033 601.371 552.033 601.041C552.036 598.617 552.039 596.396 551.881 594.293C551.703 591.908 551.336 590.032 550.721 588.596C550.142 587.248 549.379 586.359 548.319 585.742C547.197 585.088 545.309 584.489 542.067 584.489C537.209 584.489 534.433 587.266 532.693 591.498C531.82 593.618 531.336 595.885 531.114 597.809C531.004 598.762 530.964 599.586 530.966 600.214C530.967 600.707 530.993 600.977 531.001 601.06C531.004 601.095 531.005 601.097 530.998 601.066C531.565 603.63 529.841 606.147 527.148 606.687C524.456 607.226 521.813 605.585 521.246 603.021C520.916 601.527 520.933 599.16 521.208 596.775C521.5 594.236 522.147 591.116 523.413 588.037Z" fill="black"/>
<path fill-rule="evenodd" clip-rule="evenodd" d="M568.998 900H545.06V600.824C545.06 600.481 545.06 600.143 545.06 599.813L545.06 599.809C545.063 597.321 545.06 595.269 545.06 595.269C545.06 593.283 545.419 592.249 544.92 590.343C543.424 589.391 543.234 589.867 542.067 589.867C541.56 589.867 541.27 589.938 541.121 589.988C540.979 590.036 540.856 590.101 540.715 590.215C540.392 590.476 539.814 591.135 539.186 592.667C538.589 594.122 538.217 595.799 538.045 597.299C537.962 598.026 537.939 598.723 537.939 599.09C537.94 599.135 537.939 599.057 537.939 599.09C537.939 605.486 534.826 610.755 528.574 612.012L527.136 605.486C527.161 605.481 527.187 605.475 527.212 605.47C529.863 604.896 530.956 602.73 530.989 599.843C530.995 599.871 530.995 599.872 530.992 599.842C530.992 599.842 530.992 599.838 530.992 599.836C530.984 599.752 530.957 599.482 530.956 598.987C530.955 598.356 530.995 597.529 531.105 596.572C531.224 595.532 531.42 594.392 531.711 593.23C531.713 593.222 531.715 593.215 531.717 593.208C531.966 592.217 532.285 591.21 532.685 590.235C534.427 585.986 537.206 583.197 542.067 583.197C545.312 583.197 547.201 583.799 548.325 584.455C549.386 585.075 550.15 585.968 550.729 587.321C551.345 588.763 551.712 590.647 551.89 593.041C552.048 595.153 552.045 597.384 552.042 599.817C552.042 600.149 552.042 600.484 552.042 600.824V900H562.016V600.824C562.016 600.502 562.016 600.174 562.017 599.843C562.021 597.451 562.025 594.847 561.84 592.365C561.628 589.534 561.154 586.505 559.962 583.718C558.733 580.844 556.723 578.193 553.53 576.327C550.398 574.497 546.552 573.67 542.067 573.67C531.469 573.67 525.936 580.568 523.397 586.76C522.13 589.852 521.483 592.984 521.19 595.533C520.915 597.928 520.898 600.305 521.228 601.805C521.796 604.38 524.441 606.028 527.136 605.486L528.574 612.012C522.106 613.313 515.758 609.359 514.396 603.179C513.836 600.636 513.949 597.422 514.25 594.807C514.592 591.825 515.352 588.093 516.896 584.328C519.975 576.817 527.42 567 542.067 567C547.418 567 552.635 567.986 557.173 570.638C561.86 573.377 564.743 577.26 566.426 581.197C568.02 584.923 568.57 588.753 568.804 591.891C569.007 594.616 569.003 597.422 568.999 599.751L568.999 599.853C568.998 600.185 568.998 600.508 568.998 600.824V900Z" fill="white"/>
<path d="M480 874.998L494.09 881.23C501.33 884.433 506 891.604 506 899.521V899.998H371V883.998C367.309 883.998 364.476 880.724 365.008 877.071L388 718.998L379 624.498C368.965 624.498 359.869 618.594 355.784 609.427L342 578.498L329 512.998C329 512.998 354.475 463.499 377 428.499C409.5 377.999 432.5 362.041 460.5 365.498C477 367.536 491.198 378.43 505.5 397.499C522 419.499 500.5 496.999 500.5 496.999L501.5 538.999L510.5 559.499C510.5 559.499 520 570.499 527.5 585.499C532 594.499 528.5 606.999 522 608.999L484 576.999L475.5 559.069C472.5 566.499 472.5 567.999 472.5 567.999L485 716.998L480 874.998Z" fill="white"/>
<path d="M493.791 886.455L473 877.938L478 716.998L468 575.998L461.5 720.498L438.5 874.998L454.071 881.036C459.516 883.147 463.241 888.227 463.617 894.055L464 899.998H500V895.708C500 891.649 497.547 887.993 493.791 886.455Z" fill="black"/>
<path d="M452.211 887.015L431 876.976L455 718.896L464 570.998C497.5 498.999 500.487 471.76 504 445.998C507.513 420.236 506.5 406.676 500 398.498C488.5 384.03 469.793 367.909 453.5 369.998C439.5 369.998 417.076 381.998 401 403.998C363.5 455.316 336 513.776 336 513.776L348.5 576.809L360.453 604.95C363.513 612.153 370.582 616.831 378.409 616.831C378.991 616.831 379.443 616.325 379.378 615.747L375 576.809L368 516.776L427.486 428.483C427.807 428.006 428.345 427.72 428.92 427.72C430.269 427.72 431.098 429.197 430.395 430.349L375.107 520.961C374.39 522.137 374.089 523.52 374.254 524.887L380.5 576.802L386 627.828L395 718.896L372.792 871.533C372.374 874.403 374.6 876.976 377.5 876.976V899.998H458L457.931 895.886C457.868 892.082 455.65 888.642 452.211 887.015Z" fill="black"/>
<path d="M484.431 376.78C486.774 380.257 492.439 384.938 494 386.056C494 386.056 501.083 391.015 506.303 392.368C512.185 393.893 515.991 394 521.82 392.424C525.803 391.347 530.664 388.047 532.983 386.356C533.9 385.688 534.743 384.932 535.546 384.131L553.724 365.993C553.724 365.993 556.261 363.321 557.619 361.401C560.847 356.836 562.137 353.724 563.268 348.236C564.43 342.599 564.409 339.124 563.217 333.464C561.946 327.43 560.342 324.046 556.699 319.034C553.871 315.143 551.874 313.149 547.974 310.321C543.663 307.463 541.906 306.611 536.999 304.995C532.021 303.471 526.22 302.924 521.123 303.465C516.027 304.006 511.507 305.723 507.144 308.238C502.78 310.752 499.445 313.805 496.542 317.874C495.449 319.409 494.311 321.364 493.473 323.054L483.108 346.358C482.6 347.501 482.162 348.67 481.835 349.877C481.028 352.855 479.566 358.825 479.75 362.393C480.002 367.289 481.628 372.622 484.431 376.78Z" fill="white"/>
<path d="M489.489 373.322C491.431 376.279 496.18 380.225 497.491 381.164C497.491 381.164 503.442 385.328 507.861 386.416C512.841 387.642 516.076 387.679 521.057 386.237C524.383 385.274 528.454 382.471 530.501 380.955C531.383 380.301 532.195 379.561 532.968 378.781L548.576 363.025C548.576 363.025 550.773 360.689 551.955 359.017C554.768 355.041 555.91 352.344 556.952 347.605C558.023 342.737 558.056 339.747 557.125 334.893C556.132 329.72 554.817 326.832 551.793 322.572C549.445 319.264 547.776 317.578 544.5 315.201C540.876 312.805 539.395 312.097 535.245 310.779C531.034 309.54 526.108 309.155 521.766 309.695C517.425 310.235 513.555 311.778 509.808 314.006C506.06 316.234 503.179 318.91 500.651 322.454C499.699 323.791 498.702 325.489 497.965 326.956L488.886 346.992C488.386 348.096 487.951 349.226 487.623 350.393C486.884 353.023 485.617 358.014 485.719 361.01C485.861 365.219 487.166 369.785 489.489 373.322Z" fill="black"/>
<path d="M478 552.5L487.5 572.499L520.438 599.905C520.809 600.215 521.37 600.111 521.607 599.69C524.587 594.399 524.196 587.854 520.609 582.954L506 563L495.5 539V503.5C495.5 503.5 492.634 515.737 487.5 529C481.5 544.5 478 552.5 478 552.5Z" fill="black"/>
</svg>
