<svg width="1300" height="1000" viewBox="0 0 1300 1000" fill="none" xmlns="http://www.w3.org/2000/svg">
<path fill-rule="evenodd" clip-rule="evenodd" d="M523.413 587.037C525.95 580.87 531.478 574 542.067 574C546.548 574 550.39 574.825 553.519 576.647C556.709 578.505 558.718 581.145 559.946 584.008C561.137 586.783 561.611 589.799 561.822 592.619C562.007 595.091 562.003 597.685 561.999 600.067C561.998 600.397 561.998 600.723 561.998 601.044V899H552.032V601.044C552.032 600.705 552.033 600.371 552.033 600.041C552.036 597.617 552.039 595.396 551.881 593.293C551.703 590.908 551.336 589.032 550.721 587.596C550.142 586.248 549.379 585.359 548.319 584.742C547.197 584.088 545.309 583.489 542.067 583.489C537.209 583.489 534.433 586.266 532.693 590.498C531.82 592.618 531.336 594.885 531.114 596.809C531.004 597.762 530.964 598.586 530.966 599.214C530.967 599.707 530.993 599.977 531.001 600.06C531.004 600.095 531.005 600.097 530.998 600.066C531.565 602.63 529.841 605.147 527.148 605.687C524.456 606.226 521.813 604.585 521.246 602.021C520.916 600.527 520.933 598.16 521.208 595.775C521.5 593.236 522.147 590.116 523.413 587.037Z" fill="black"/>
<path fill-rule="evenodd" clip-rule="evenodd" d="M568.998 900H545.06V600.824C545.06 600.481 545.06 600.143 545.06 599.813L545.06 599.809C545.063 597.321 545.06 595.269 545.06 595.269C545.06 593.283 545.419 592.249 544.92 590.343C543.424 589.391 543.234 589.867 542.067 589.867C541.56 589.867 541.27 589.938 541.121 589.988C540.979 590.036 540.856 590.101 540.715 590.215C540.392 590.476 539.814 591.135 539.186 592.667C538.589 594.122 538.217 595.799 538.045 597.299C537.962 598.026 537.939 598.723 537.939 599.09C537.94 599.135 537.939 599.057 537.939 599.09C537.939 605.486 534.826 610.755 528.574 612.012L527.136 605.486C527.161 605.481 527.187 605.475 527.212 605.47C529.863 604.896 530.956 602.73 530.989 599.843C530.995 599.871 530.995 599.872 530.992 599.842C530.992 599.842 530.992 599.838 530.992 599.836C530.984 599.752 530.957 599.482 530.956 598.987C530.955 598.356 530.995 597.529 531.105 596.572C531.224 595.532 531.42 594.392 531.711 593.23C531.713 593.222 531.715 593.215 531.717 593.208C531.966 592.217 532.285 591.21 532.685 590.235C534.427 585.986 537.206 583.197 542.067 583.197C545.312 583.197 547.201 583.799 548.325 584.455C549.386 585.075 550.15 585.968 550.729 587.321C551.345 588.763 551.712 590.647 551.89 593.041C552.048 595.153 552.045 597.384 552.042 599.817C552.042 600.149 552.042 600.484 552.042 600.824V900H562.016V600.824C562.016 600.502 562.016 600.174 562.017 599.843C562.021 597.451 562.025 594.847 561.84 592.365C561.628 589.534 561.154 586.505 559.962 583.718C558.733 580.844 556.723 578.193 553.53 576.327C550.398 574.497 546.552 573.67 542.067 573.67C531.469 573.67 525.936 580.568 523.397 586.76C522.13 589.852 521.483 592.984 521.19 595.533C520.915 597.928 520.898 600.305 521.228 601.805C521.796 604.38 524.441 606.028 527.136 605.486L528.574 612.012C522.106 613.313 515.758 609.359 514.396 603.179C513.836 600.636 513.949 597.422 514.25 594.807C514.592 591.825 515.352 588.093 516.896 584.328C519.975 576.817 527.42 567 542.067 567C547.418 567 552.635 567.986 557.173 570.638C561.86 573.377 564.743 577.26 566.426 581.197C568.02 584.923 568.57 588.753 568.804 591.891C569.007 594.616 569.003 597.422 568.999 599.751L568.999 599.853C568.998 600.185 568.998 600.508 568.998 600.824V900Z" fill="white"/>
<path d="M480 875.998L494.09 882.23C501.33 885.433 506 892.604 506 900.521V900.998H371V884.998C367.309 884.998 364.476 881.724 365.008 878.071L388 719.998L379 625.498C368.965 625.498 359.869 619.594 355.784 610.427L342 579.498L329 513.998C329 513.998 354.475 464.499 377 429.499C409.5 378.999 432.5 363.041 460.5 366.498C477 368.536 491.198 379.43 505.5 398.499C522 420.499 500.5 497.999 500.5 497.999L501.5 539.999L510.5 560.499C510.5 560.499 520 571.499 527.5 586.499C532 595.499 528.5 607.999 522 609.999L484 577.999L475.5 560.069C472.5 567.499 472.5 568.999 472.5 568.999L485 717.998L480 875.998Z" fill="white"/>
<path d="M493.791 887.455L473 878.938L478 717.998L468 576.998L461.5 721.498L438.5 875.998L454.071 882.036C459.516 884.147 463.241 889.227 463.617 895.055L464 900.998H500V896.708C500 892.649 497.547 888.993 493.791 887.455Z" fill="black"/>
<path d="M452.211 888.015L431 877.976L455 719.896L464 571.998C497.5 499.999 500.487 472.76 504 446.998C507.513 421.236 506.5 407.676 500 399.498C488.5 385.03 469.793 368.909 453.5 370.998C439.5 370.998 417.076 382.998 401 404.998C363.5 456.316 336 514.776 336 514.776L348.5 577.809L360.453 605.95C363.513 613.153 370.582 617.831 378.409 617.831C378.991 617.831 379.443 617.325 379.378 616.747L375 577.809L368 517.776L427.486 429.483C427.807 429.006 428.345 428.72 428.92 428.72C430.269 428.72 431.098 430.197 430.395 431.349L375.107 521.961C374.39 523.137 374.089 524.52 374.254 525.887L380.5 577.802L386 628.828L395 719.896L372.792 872.533C372.374 875.403 374.6 877.976 377.5 877.976V900.998H458L457.931 896.886C457.868 893.082 455.65 889.642 452.211 888.015Z" fill="black"/>
<path d="M484.431 377.78C486.774 381.257 492.439 385.938 494 387.056C494 387.056 501.083 392.015 506.303 393.368C512.185 394.893 515.991 395 521.82 393.424C525.803 392.347 530.664 389.047 532.983 387.356C533.9 386.688 534.743 385.932 535.546 385.131L553.724 366.993C553.724 366.993 556.261 364.321 557.619 362.401C560.847 357.836 562.137 354.724 563.268 349.236C564.43 343.599 564.409 340.124 563.217 334.464C561.946 328.43 560.342 325.046 556.699 320.034C553.871 316.143 551.874 314.149 547.974 311.321C543.663 308.463 541.906 307.611 536.999 305.995C532.021 304.471 526.22 303.924 521.123 304.465C516.027 305.006 511.507 306.723 507.144 309.238C502.78 311.752 499.445 314.805 496.542 318.874C495.449 320.409 494.311 322.364 493.473 324.054L483.108 347.358C482.6 348.501 482.162 349.67 481.835 350.877C481.028 353.855 479.566 359.825 479.75 363.393C480.002 368.289 481.628 373.622 484.431 377.78Z" fill="white"/>
<path d="M489.489 374.322C491.431 377.279 496.18 381.225 497.491 382.164C497.491 382.164 503.442 386.328 507.861 387.416C512.841 388.642 516.076 388.679 521.057 387.237C524.383 386.274 528.454 383.471 530.501 381.955C531.383 381.301 532.195 380.561 532.968 379.781L548.576 364.025C548.576 364.025 550.773 361.689 551.955 360.017C554.768 356.041 555.91 353.344 556.952 348.605C558.023 343.737 558.056 340.747 557.125 335.893C556.132 330.72 554.817 327.832 551.793 323.572C549.445 320.264 547.776 318.578 544.5 316.201C540.876 313.805 539.395 313.097 535.245 311.779C531.034 310.54 526.108 310.155 521.766 310.695C517.425 311.235 513.555 312.778 509.808 315.006C506.06 317.234 503.179 319.91 500.651 323.454C499.699 324.791 498.702 326.489 497.965 327.956L488.886 347.992C488.386 349.096 487.951 350.226 487.623 351.393C486.884 354.023 485.617 359.014 485.719 362.01C485.861 366.219 487.166 370.785 489.489 374.322Z" fill="black"/>
<path d="M478 553.5L487.5 573.499L520.438 600.905C520.809 601.215 521.37 601.111 521.607 600.69C524.587 595.399 524.196 588.854 520.609 583.954L506 564L495.5 540V504.5C495.5 504.5 492.634 516.737 487.5 530C481.5 545.5 478 553.5 478 553.5Z" fill="black"/>
</svg>
