<svg width="1300" height="1000" viewBox="0 0 1300 1000" fill="none" xmlns="http://www.w3.org/2000/svg">
<path fill-rule="evenodd" clip-rule="evenodd" d="M599.413 587.037C601.95 580.87 607.478 574 618.067 574C622.548 574 626.39 574.825 629.519 576.647C632.709 578.505 634.718 581.145 635.946 584.008C637.137 586.783 637.611 589.799 637.822 592.619C638.007 595.091 638.003 597.685 637.999 600.067C637.998 600.397 637.998 600.723 637.998 601.044V899H628.032V601.044C628.032 600.705 628.033 600.371 628.033 600.041C628.036 597.617 628.039 595.396 627.881 593.293C627.703 590.908 627.336 589.032 626.721 587.596C626.142 586.248 625.379 585.359 624.319 584.742C623.197 584.088 621.309 583.489 618.067 583.489C613.209 583.489 610.433 586.266 608.693 590.498C607.82 592.618 607.336 594.885 607.114 596.809C607.004 597.762 606.964 598.586 606.966 599.214C606.967 599.707 606.993 599.977 607.001 600.06C607.004 600.095 607.005 600.097 606.998 600.066C607.565 602.63 605.841 605.147 603.148 605.687C600.456 606.226 597.813 604.585 597.246 602.021C596.916 600.527 596.933 598.16 597.208 595.775C597.5 593.236 598.147 590.116 599.413 587.037Z" fill="black"/>
<path fill-rule="evenodd" clip-rule="evenodd" d="M644.998 900H621.06V600.824C621.06 600.481 621.06 600.143 621.06 599.813L621.06 599.809C621.063 597.321 621.06 595.269 621.06 595.269C621.06 593.283 621.419 592.249 620.92 590.343C619.424 589.391 619.234 589.867 618.067 589.867C617.56 589.867 617.27 589.938 617.121 589.988C616.979 590.036 616.856 590.101 616.715 590.215C616.392 590.476 615.814 591.135 615.186 592.667C614.589 594.122 614.217 595.799 614.045 597.299C613.962 598.026 613.939 598.723 613.939 599.09C613.94 599.135 613.939 599.057 613.939 599.09C613.939 605.486 610.826 610.755 604.574 612.012L603.136 605.486C603.161 605.481 603.187 605.475 603.212 605.47C605.863 604.896 606.956 602.73 606.989 599.843C606.995 599.871 606.995 599.872 606.992 599.842C606.992 599.842 606.992 599.838 606.992 599.836C606.984 599.752 606.957 599.482 606.956 598.987C606.955 598.356 606.995 597.529 607.105 596.572C607.224 595.532 607.42 594.392 607.711 593.23C607.713 593.222 607.715 593.215 607.717 593.208C607.966 592.217 608.285 591.21 608.685 590.235C610.427 585.986 613.206 583.197 618.067 583.197C621.312 583.197 623.201 583.799 624.325 584.455C625.386 585.075 626.15 585.968 626.729 587.321C627.345 588.763 627.712 590.647 627.89 593.041C628.048 595.153 628.045 597.384 628.042 599.817C628.042 600.149 628.042 600.484 628.042 600.824V900H638.016V600.824C638.016 600.502 638.016 600.174 638.017 599.843C638.021 597.451 638.025 594.847 637.84 592.365C637.628 589.534 637.154 586.505 635.962 583.718C634.733 580.844 632.723 578.193 629.53 576.327C626.398 574.497 622.552 573.67 618.067 573.67C607.469 573.67 601.936 580.568 599.397 586.76C598.13 589.852 597.483 592.984 597.19 595.533C596.915 597.928 596.898 600.305 597.228 601.805C597.796 604.38 600.441 606.028 603.136 605.486L604.574 612.012C598.106 613.313 591.758 609.359 590.396 603.179C589.836 600.636 589.949 597.422 590.25 594.807C590.592 591.825 591.352 588.093 592.896 584.328C595.975 576.817 603.42 567 618.067 567C623.418 567 628.635 567.986 633.173 570.638C637.86 573.377 640.743 577.26 642.426 581.197C644.02 584.923 644.57 588.753 644.804 591.891C645.007 594.616 645.003 597.422 644.999 599.751L644.999 599.853C644.998 600.185 644.998 600.508 644.998 600.824V900Z" fill="white"/>
<path d="M557.513 376.18C559.606 379.813 564.927 384.882 566.405 386.107C566.405 386.107 573.121 391.553 578.232 393.27C583.992 395.206 587.781 395.581 593.707 394.42C597.755 393.626 602.837 390.677 605.27 389.154C606.231 388.552 607.125 387.857 607.983 387.115L627.394 370.303C627.394 370.303 630.114 367.816 631.603 365.997C635.145 361.671 636.651 358.657 638.166 353.262C639.722 347.722 639.946 344.254 639.156 338.524C638.313 332.415 636.951 328.927 633.671 323.671C631.124 319.589 629.273 317.459 625.582 314.364C621.483 311.209 619.791 310.235 615.01 308.278C610.151 306.407 604.403 305.453 599.281 305.633C594.16 305.813 589.53 307.207 585 309.408C580.47 311.609 576.928 314.419 573.746 318.274C572.547 319.728 571.274 321.597 570.319 323.225L558.338 345.74C557.75 346.844 557.231 347.98 556.819 349.161C555.805 352.075 553.926 357.927 553.858 361.498C553.764 366.4 555.01 371.834 557.513 376.18Z" fill="white"/>
<path d="M562.802 373.085C564.531 376.172 568.99 380.443 570.231 381.471C570.231 381.471 575.874 386.044 580.206 387.441C585.087 389.015 588.312 389.28 593.381 388.192C596.767 387.466 601.025 384.957 603.174 383.589C604.1 382.999 604.962 382.319 605.788 381.595L622.467 366.978C622.467 366.978 624.824 364.802 626.121 363.218C629.207 359.45 630.536 356.84 631.91 352.186C633.321 347.406 633.565 344.426 632.978 339.519C632.352 334.288 631.244 331.314 628.528 326.852C626.418 323.387 624.872 321.587 621.773 318.986C618.326 316.34 616.898 315.529 612.852 313.922C608.738 312.39 603.852 311.658 599.483 311.891C595.114 312.123 591.146 313.39 587.25 315.349C583.355 317.307 580.292 319.773 577.521 323.13C576.477 324.396 575.363 326.021 574.524 327.432L564.056 346.778C563.48 347.844 562.966 348.941 562.556 350.082C561.634 352.653 560.019 357.542 559.909 360.537C559.754 364.747 560.734 369.393 562.802 373.085Z" fill="black"/>
<path d="M409 471.499C409.443 469.897 458.286 395.875 505 371.999C527.5 360.499 542.852 354.943 573 388.999C585.394 403 587 408 587 423.5C587 439 584.5 464.5 584.5 464.5L580 524.5L587 553.749L603.088 577.73C608.721 586.125 606.068 597.535 597.311 602.585C597.123 602.693 596.889 602.675 596.721 602.539L558.637 571.918C557.895 571.32 557.338 570.523 557.033 569.62L551 551.748L540 573.003L561 645.002L580 717.001L591 856.997L609.481 859.307C619.489 860.558 627 869.066 627 879.153V880.997L561 899.996H527L525.5 892.497C522.099 892.497 519.256 889.909 518.937 886.523L505.5 744L481 664.502L467 744L394 875.997L402.372 880.748C408.632 884.301 412.5 890.944 412.5 898.142V899.996H350L318 881.997L328.5 866.997C325.659 865.008 324.781 861.194 326.466 858.164L390.5 743L405.5 658.002L418.358 589.269L423.5 566.003L395.112 606.598C395.039 606.703 394.939 606.787 394.823 606.841C382.549 612.55 369.806 599.887 375.439 587.577L376.5 585.258L386.5 558.758C386.5 558.758 396 518.499 409 471.499Z" fill="white"/>
<path d="M606.921 865.262L583.5 863.459L573 716.878L532 573.5C558.141 517.962 562.388 508.257 575.937 470.088C576.307 469.044 576.621 467.988 576.855 466.905C578.756 458.131 587.24 415.67 576.5 402.499C550 370 534 364.561 517 371.999C459.544 397.138 413.5 475.499 413.5 475.499L391 563L380.772 590.631C378.459 596.881 383.082 603.522 389.746 603.522C389.905 603.522 390.053 603.444 390.142 603.313L417.5 563L434.5 514.5L503.874 427.658C503.954 427.558 504.074 427.5 504.201 427.5C504.539 427.5 504.738 427.879 504.546 428.157L438.314 524.097C437.467 525.324 437.094 526.808 437.323 528.281C438.928 538.577 447.339 582.883 480.5 643.829C481.871 646.348 513 743.393 513 743.393L525.982 880.497C525.999 880.681 526.025 880.863 526.058 881.042C526.948 885.806 532.62 889.446 533.47 894.216L534.5 899.99L616.172 876.286L616.152 875.066C616.066 869.905 612.067 865.658 606.921 865.262Z" fill="black"/>
<path d="M399.384 886.759L384.5 879.499L458 743.999C458 743.999 477.302 654.774 475 649.999C430.889 558.5 435 535.999 435 535.999L397 743.999L334.842 857.796C334.81 857.855 334.778 857.914 334.748 857.974C332.323 862.74 334.4 870.025 331.407 874.456L328 879.499L365 899.999H405V895.747C405 891.924 402.82 888.435 399.384 886.759Z" fill="black"/>
<path d="M554 543L563.5 567.999L596.411 595.383C596.797 595.704 597.378 595.596 597.624 595.16C600.612 589.854 600.34 583.314 596.923 578.274L582.5 557L574.5 524.499L579.5 465.999C579.5 465.999 578.602 476.5 570 500.001C558.511 531.389 554 543 554 543Z" fill="black"/>
</svg>
