<svg id="Capa_1" data-name="Capa 1" xmlns="http://www.w3.org/2000/svg" viewBox="0 0 1300 1000"><defs><style>.cls-1{fill:#262626;}.cls-2{fill:#fff;}</style></defs><title>go-down--third-quadrant</title><ellipse class="cls-1" cx="736.73" cy="250.31" rx="24" ry="30"/><path class="cls-1" d="M707.44,528.45s-14.47-161.73,29.15-230c6.92-10.85,24-11,30.31,6.91l76.37,223.13L816.21,528l-67.48,177-13.17,162.1-13.34,0,.33,34.06H653.66v-9.55l29.61-25.5-12.11,0,12.08-169.93,54.31-167.91Z"/><path class="cls-1" d="M752.73,316.64c.16,60.36-29.93,110.18-29.93,110.18L661.19,528.18l-22.69-14.3L692.29,399.2S716.76,322.06,737.66,297"/><path class="cls-2" d="M752.73,316.64c.15,4.87.24,9.76,0,14.65,0,2.45-.28,4.89-.43,7.33s-.4,4.89-.72,7.32c-.51,4.87-1.32,9.71-2.21,14.54s-2,9.62-3.17,14.39-2.61,9.47-4.11,14.16-3.15,9.32-4.93,13.91-3.69,9.14-5.78,13.61-4.27,8.91-6.84,13.24c-5,8.4-9.85,16.83-14.87,25.19l-15,25.13-7.49,12.56-7.55,12.52-15.12,25-2.07,3.43-3.41-2.14-11.37-7.12-11.34-7.17-3-1.88,1.49-3.16,13.53-28.63,6.77-14.31L662,455l13.7-28.55c2.27-4.77,4.59-9.51,6.9-14.26l6.93-14.23-.14.36c1.51-4.48,3.08-8.89,4.68-13.31s3.28-8.79,5-13.17c3.42-8.74,6.93-17.45,10.75-26q2.86-6.43,5.91-12.79c2-4.24,4.13-8.44,6.39-12.56q1.68-3.1,3.45-6.15c1.18-2,2.4-4,3.66-6l2-2.94,2-2.87c.7-.94,1.44-1.86,2.15-2.79s1.52-1.79,2.27-2.68c-.68.95-1.38,1.89-2,2.85s-1.3,1.95-1.91,2.94l-1.79,3-1.7,3.05c-1.09,2.07-2.19,4.12-3.21,6.22s-2,4.19-3,6.31-1.91,4.25-2.84,6.39-1.86,4.28-2.74,6.44c-1.79,4.3-3.49,8.64-5.15,13l-2.46,6.55-2.41,6.57c-1.58,4.39-3.13,8.79-4.62,13.21s-2.95,8.85-4.41,13.28-2.88,8.88-4.22,13.31l0,.15-.09.22-6.52,14.43c-2.17,4.81-4.34,9.62-6.55,14.42l-13.2,28.78-6.6,14.39-6.68,14.35-13.37,28.71-1.48-5L652,517.65l11.33,7.18-5.48,1.29,15.26-24.95,7.64-12.47,7.7-12.43,15.41-24.86c5.12-8.3,10.35-16.52,15.52-24.79,2.53-4,4.79-8.24,7-12.53s4.21-8.67,6.15-13.09a260.26,260.26,0,0,0,10.09-27.17c1.42-4.62,2.75-9.28,3.9-14s2.18-9.44,3-14.22c.47-2.38.8-4.78,1.19-7.18s.68-4.81.91-7.23C752.2,326.38,752.49,321.52,752.73,316.64Z"/><polygon class="cls-1" points="782.35 637.64 821.82 536.49 857.31 666.98 963.9 703.76 956.07 715.42 985.5 732.86 950.25 791.75 942.04 786.86 934.68 749.4 929.1 758.79 804.48 710.64 782.35 637.64"/><polygon class="cls-1" points="871.46 513.36 885.89 503.32 791.22 352.07 826.71 453.46 871.46 513.36"/></svg>