<svg id="Capa_3" data-name="Capa 3" xmlns="http://www.w3.org/2000/svg" viewBox="0 0 1300 1000"><defs><style>.cls-1{fill:#be1823;}.cls-2{fill:#fff;}.cls-3{fill:#1e1e1c;}</style></defs><title>1-subject</title><path class="cls-1" d="M684.68,262.49l.49,2.55C685,264.21,684.81,263.35,684.68,262.49Z"/><path class="cls-1" d="M750.69,262.54c-.14.88-.31,1.74-.51,2.59Z"/><polygon class="cls-2" points="588.01 620.47 586.73 620.47 586.73 615.34 587.24 615.34 588.01 620.47"/><polygon class="cls-2" points="941.94 721.47 941.97 721.48 923.87 753.81 920.93 759.05 915.97 756.3 925.97 735.88 937.11 718.49 940.5 720.57 941.98 721.39 941.95 721.45 941.94 721.47"/><polygon class="cls-2" points="673.42 861.75 638.81 861.78 636.09 861.78 636.1 861.76 636.09 861.76 636.45 855.42 658.51 854.12 679.88 855.26 679.89 855.26 679.25 861.76 673.42 861.75"/><path class="cls-2" d="M798.78,524.44l-87,0H696.47l1.93-8.62,16.76-1L745.29,513,796,516.05l1.45.09Z"/><polygon class="cls-3" points="711.76 524.42 798.78 524.44 798.78 524.45 711.76 524.43 704.8 524.43 700.38 524.42 696.47 524.42 696.47 524.41 700.38 524.41 704.8 524.42 711.76 524.42"/><polygon class="cls-2" points="856.35 544.29 849.31 546.5 849.3 546.5 849.3 546.49 827.2 553.41 825.25 548.34 829.37 546.7 829.38 546.69 838.4 543.13 843.55 542.17 845.13 541.88 854.92 540.07 856.35 544.29"/><polygon class="cls-2" points="797.42 516.14 789.46 469.43 789.43 469.47 755.24 430.94 735.26 397.81 729.86 388.86 732.49 388.86 736.9 394.33 739.91 398.07 785.34 454.49 785.35 454.5 785.35 454.51 787.34 456.98 797.42 516.14"/><path class="cls-2" d="M698,475.14v.05l-6.22,11.91-3.37-55.91,1.2-46.89,7.29-30.3a36.91,36.91,0,0,0-.73,6.44c0,.32,0,.64,0,1q0,1.07.06,2.1a.15.15,0,0,0,0,.07Z"/><polygon class="cls-2" points="691.8 487.1 659.05 550.11 650.39 548.32 650.39 548.31 650.26 548.29 648.36 547.89 629.24 543.81 629.26 543.8 629.18 543.79 631.28 539.09 636.06 539.64 637.65 539.81 645.44 540.71 648.52 541.67 653.04 543.11 661.31 545.73 691.8 487.1"/><polygon class="cls-3" points="650.26 548.29 650.39 548.31 650.39 548.32 650.26 548.29"/><polygon class="cls-3" points="691.8 487.1 661.31 545.73 653.04 543.11 648.52 541.67 645.44 540.71 637.65 539.81 636.06 539.64 631.28 539.09 677.06 436.59 689.64 384.3 688.44 431.19 691.8 487.1"/><path class="cls-3" d="M854.92,540.07l-9.79,1.81-1.58.29-5.15,1-9,3.56h0l-4.12,1.63-32.49-84.66,0,0h0s0,0-.06,0h0L787.34,457l-2-2.47h0l-45.43-56.42-3-3.74-4.41-5.47h-2.63l5.4,8.95,20,33.13,34.19,38.53,0,0,8,46.71-1.45-.09L745.29,513l-30.13,1.81-16.76,1,.31-1.37-.11-5.21v-.36l0-1v-.15l-.51-32.63,0,.09v-.05l-1.77-111.57a.15.15,0,0,1,0-.07q-.06-1-.06-2.1c0-.32,0-.64,0-1a36.91,36.91,0,0,1,.73-6.44l.14-.61.34-1.41a37.32,37.32,0,0,1,47.87-25.89c.53.18,1.05.37,1.57.57h0c.72.27,1.41.57,2.1.88s1.35.66,2,1c.45.24.89.48,1.32.74a37.33,37.33,0,0,1,13.36,13.44v0l.31.54v0l.19.33,46.32,80.86,7.91,13.8.11.27h0a.06.06,0,0,0,0,0L822,442.2l0,.11Z"/><polygon class="cls-3" points="865.32 596.85 855.02 601.26 855.02 601.24 854.96 601.14 853.25 601.88 853.23 601.87 830.16 573.49 827.21 553.43 827.2 553.41 849.3 546.49 849.3 546.5 856.62 555.72 860.44 560.55 860.46 560.56 865.32 596.85"/><path class="cls-3" d="M937.11,718.49,926,735.88,916,756.3l-93.23-51.73L820,703l0,0a19.89,19.89,0,0,1-5-4.77l0,0c-.12-.16-.22-.31-.34-.46h0c-.1-.17-.2-.32-.3-.48l-54.62-78.35,23.85-31.1,22-36.6,49.51,117Z"/><polygon class="cls-2" points="638.81 861.78 673.42 861.75 673.42 901.16 594.84 901.16 594.84 889.33 629.01 875.94 636.09 861.78 638.81 861.78"/><path class="cls-2" d="M799.88,534.34c0,1.08,0,2.15-.12,3.22A44.39,44.39,0,0,1,793.12,558c-.06.08-.11.18-.17.26l-1.44,2.14-32.77,48.49-4.56,6.75-57.94,85.75-1.34,2-15,152-21.37-1.14-22.06,1.3,9.08-159.24,0-.52a.93.93,0,0,1,0-.24,19.29,19.29,0,0,1,.77-4.18.11.11,0,0,1,0-.07l.17-.53,41-126.68,8.88-39.54h15.29l87,0h0c.11.51.22,1,.31,1.54l.2,1.13A45.19,45.19,0,0,1,799.88,534.34Z"/><polygon class="cls-2" points="976.87 740.98 959.98 771.2 938.52 809.6 938.51 809.59 928.19 803.82 933.17 767.46 923.87 753.81 941.97 721.48 976.85 740.97 976.87 740.98"/><path class="cls-2" d="M645.58,695.42a1.79,1.79,0,0,0,0,.24l0-.24Z"/><polygon class="cls-2" points="941.98 721.47 941.97 721.48 941.94 721.47 941.95 721.45 941.98 721.47"/><path class="cls-2" d="M822.73,704.57A18.91,18.91,0,0,1,820,703Z"/><polygon class="cls-2" points="696.25 701.35 694.92 703.31 696.24 701.35 696.25 701.35"/><polyline class="cls-2" points="765.82 627.82 750.56 605.89 795.22 527.83 806.52 553.74"/><path class="cls-3" d="M799.88,534.34c0,1.08,0,2.15-.12,3.22A44.39,44.39,0,0,1,793.12,558c-.06.08-.11.18-.17.26l-1.44,2.14-32.77,48.49-4.56,6.75-57.94,85.75-1.34,2-15,152-21.37-1.14-22.06,1.3h0l9.09-159.25,0-.64a.49.49,0,0,1,0-.12,19.91,19.91,0,0,1,.77-4.18.29.29,0,0,0,0-.1l.16-.5,41-126.68,8.88-39.54h15.31l87,0h0c.11.51.22,1,.31,1.54l.2,1.13A45.19,45.19,0,0,1,799.88,534.34Z"/><path class="cls-3" d="M854.92,540.07l-9.79,1.81-1.58.29-5.15,1-9,3.56h0l-4.12,1.63h0l-32.5-84.68h0s0,0-.06,0h0L787.34,457l-2-2.47h0l-45.43-56.42-3-3.74-4.41-5.47h-2.63l5.4,8.95,20,33.13,34.19,38.53,0,0,8,46.71-1.45-.09L745.29,513l-30.13,1.81-16.76,1h0l.31-1.39-.1-5.19v-.36l0-1v-.15L698,475.19v-.05l-1.77-111.57a.15.15,0,0,1,0-.07q-.06-1-.06-2.1c0-.32,0-.64,0-1a37.26,37.26,0,0,1,49.08-34.35c.53.18,1.05.37,1.57.57h0c.72.27,1.41.57,2.1.88s1.35.65,2,1c.45.24.89.48,1.32.74a37.33,37.33,0,0,1,13.36,13.44l.32.56v0l.17.31,46.34,80.88,7.91,13.8.11.27h0a.06.06,0,0,0,0,0A18.24,18.24,0,0,1,822,442.2l0,.11Z"/><path class="cls-3" d="M937.11,718.49,926,735.88,916,756.3l-93.22-51.73L820,703l0,0-5-4.77,0,0h0l-.33-.46h0l-.32-.49-54.61-78.34h0l23.85-31.1,22-36.6,49.5,117h0Z"/><path class="cls-3" d="M751.08,257.41a34.17,34.17,0,0,1-.38,5.09v0l-.51,2.59-4.78,24.43a23.42,23.42,0,0,1-16.57,20.13h0a40.42,40.42,0,0,1-11.14,1.53,41.56,41.56,0,0,1-10.27-1.29h0l-.36-.1a2.7,2.7,0,0,1-.43-.12h-.06a23.44,23.44,0,0,1-16.08-17.18,1.05,1.05,0,0,1-.05-.19l-.27-1.42a.2.2,0,0,0,0-.07l-5-25.79-.49-2.55h0a32.72,32.72,0,0,1-.39-5.07,33.4,33.4,0,1,1,66.79,0Z"/><path d="M690.46,292.51h0l0-.19A1.05,1.05,0,0,0,690.46,292.51Z"/><path class="cls-1" d="M706.6,309.7a2.7,2.7,0,0,0,.43.12C706.81,309.77,706.67,309.72,706.6,309.7Z"/><polygon class="cls-3" points="673.42 861.75 673.42 901.16 594.82 901.16 594.82 889.32 629 875.93 636.08 861.75 636.08 861.78 638.81 861.78 673.42 861.75"/><polygon class="cls-3" points="976.85 740.97 959.97 771.19 938.51 809.59 928.19 803.82 928.17 803.81 933.15 767.45 923.87 753.81 941.97 721.48 976.85 740.97"/><polygon class="cls-3" points="865.31 596.82 855.02 601.24 854.96 601.14 854.96 601.11 853.23 601.87 830.16 573.49 830.14 573.47 827.19 553.41 827.2 553.41 849.3 546.49 849.3 546.5 849.31 546.5 856.62 555.72 860.44 560.55 865.31 596.82"/><polygon class="cls-3" points="691.8 487.1 661.31 545.73 653.04 543.11 648.52 541.67 645.44 540.71 637.65 539.81 636.06 539.64 631.28 539.09 631.26 539.09 677.04 436.57 689.67 383.18 689.64 384.3 688.44 431.19 691.8 487.1"/><polygon class="cls-3" points="650.39 548.31 650.39 548.32 646.84 572.89 623.81 601.34 613.53 596.88 613.58 596.75 611.85 596.01 616.65 559.73 629.21 543.83 634.01 544.84 648.36 547.89 650.26 548.29 650.39 548.31"/></svg>