<svg id="Capa_1" data-name="Capa 1" xmlns="http://www.w3.org/2000/svg" viewBox="0 0 1300 1000"><defs><style>.cls-1{fill:#262626;}.cls-2{fill:#fff;}</style></defs><title>go-down--second-quadrant</title><ellipse class="cls-1" cx="412.73" cy="250.31" rx="24" ry="30"/><path class="cls-1" d="M383.44,528.44S369,366.71,412.59,298.4c6.92-10.84,24-11,30.31,6.91l76.37,223.13L492.21,528l-67.48,177-13.17,162.1-13.34,0,.33,34.07H329.66v-9.56l29.61-25.49H347.16l12.08-169.93,54.31-167.91Z"/><path class="cls-1" d="M428.73,316.63c.16,60.36-29.93,110.18-29.93,110.18L337.19,528.17l-22.69-14.3,53.79-114.68S392.76,322.05,413.66,297"/><path class="cls-2" d="M428.73,316.63c.86,19.52-1.67,39.19-6.5,58.23a252.84,252.84,0,0,1-9,28.08c-1.78,4.59-3.69,9.13-5.78,13.61s-4.27,8.91-6.84,13.23c-9.85,16.83-19.85,33.57-29.84,50.32l-7.48,12.56-7.56,12.52-15.12,25-2.07,3.43-3.41-2.14-11.37-7.12-11.34-7.16-3-1.88,1.49-3.17,13.53-28.63,6.77-14.31L338,455l13.7-28.55c4.56-9.52,9.23-19,13.83-28.49l-.14.37c3-8.94,6.23-17.74,9.65-26.49s6.93-17.45,10.75-26q2.87-6.43,5.91-12.79c2-4.24,4.13-8.44,6.39-12.56,4.49-8.24,9.31-16.41,15.53-23.45a93,93,0,0,0-7.44,11.85c-2.22,4.11-4.28,8.29-6.22,12.53q-5.79,12.73-10.73,25.83c-3.31,8.72-6.5,17.49-9.49,26.33s-5.92,17.72-8.63,26.59l0,.15-.09.22c-4.36,9.61-8.66,19.25-13.07,28.85l-13.2,28.78-6.6,14.39-6.68,14.36-13.37,28.7-1.48-5L328,517.64l11.33,7.18-5.48,1.29,15.26-24.94,7.64-12.47,7.7-12.43c10.27-16.58,20.52-33.16,30.93-49.66,2.53-4,4.79-8.24,7-12.53s4.21-8.67,6.15-13.09a260.26,260.26,0,0,0,10.09-27.17A225.23,225.23,0,0,0,428.73,316.63Z"/><polygon class="cls-1" points="458.35 637.63 497.82 536.48 533.31 666.97 639.9 703.76 632.07 715.41 661.5 732.85 626.25 791.74 618.04 786.86 610.68 749.39 605.1 758.78 480.48 710.63 458.35 637.63"/><polygon class="cls-1" points="547.46 513.35 561.89 503.31 467.22 352.07 502.71 453.45 547.46 513.35"/></svg>