<svg id="Capa_1" data-name="Capa 1" xmlns="http://www.w3.org/2000/svg" viewBox="0 0 1300 1000"><defs><style>.cls-1{fill:#262626;}.cls-2{fill:#fff;}</style></defs><title>go-down--first-quadrant</title><ellipse class="cls-1" cx="106.73" cy="250.28" rx="24" ry="30"/><path class="cls-1" d="M77.44,528.41S63,366.69,106.59,298.37c6.92-10.84,24-11,30.31,6.92l76.37,223.12L186.21,528,118.73,705l-13.17,162.1-13.34,0,.33,34.06H23.66v-9.55l29.61-25.5-12.11,0L53.24,696.2l54.31-167.91Z"/><path class="cls-1" d="M122.73,316.61C122.89,377,92.8,426.79,92.8,426.79L31.19,528.14,8.5,513.85,62.29,399.17S86.76,322,107.66,297"/><path class="cls-2" d="M122.73,316.61c.15,4.87.24,9.76,0,14.65-.05,2.45-.28,4.89-.43,7.33s-.4,4.89-.72,7.31c-.51,4.88-1.32,9.72-2.21,14.55s-2,9.62-3.17,14.39-2.61,9.47-4.11,14.16-3.15,9.32-4.93,13.91-3.69,9.14-5.78,13.61-4.27,8.91-6.84,13.24c-5,8.39-9.85,16.83-14.87,25.19l-15,25.13-7.49,12.56-7.55,12.52-15.12,25-2.07,3.43-3.41-2.14-11.37-7.12L6.38,517.2l-3-1.88,1.49-3.16,13.53-28.63,6.77-14.32L32,454.94l13.7-28.56c2.27-4.76,4.59-9.5,6.9-14.25l6.93-14.23-.14.36c1.51-4.48,3.08-8.89,4.68-13.31s3.28-8.79,5-13.17c3.42-8.74,6.93-17.46,10.75-26q2.86-6.44,5.91-12.8c2-4.23,4.13-8.43,6.39-12.56q1.68-3.09,3.45-6.14c1.18-2,2.4-4,3.66-6l2-2.93,2-2.87c.7-.94,1.44-1.86,2.15-2.79s1.52-1.79,2.27-2.68c-.68.95-1.38,1.89-2,2.85s-1.3,1.95-1.91,2.94l-1.79,3-1.7,3.06C99.13,310.87,98,312.92,97,315s-2,4.2-3,6.32-1.91,4.25-2.84,6.39-1.86,4.28-2.74,6.43c-1.79,4.31-3.49,8.65-5.15,13l-2.46,6.55-2.41,6.57c-1.58,4.39-3.13,8.79-4.62,13.21s-3,8.85-4.41,13.28-2.88,8.88-4.22,13.31l-.05.15-.09.22-6.52,14.43c-2.17,4.81-4.34,9.62-6.55,14.41l-13.2,28.79-6.6,14.39-6.68,14.35L12.09,515.53l-1.48-5L22,517.62,33.3,524.8l-5.48,1.29,15.26-25,7.64-12.47,7.7-12.43,15.41-24.86c5.12-8.3,10.35-16.52,15.52-24.79,2.53-4,4.79-8.25,7-12.53s4.21-8.67,6.15-13.09a261.1,261.1,0,0,0,10.09-27.17c1.42-4.62,2.75-9.28,3.9-14s2.18-9.44,3-14.22c.47-2.38.8-4.79,1.19-7.18s.68-4.82.91-7.24C122.2,326.35,122.49,321.49,122.73,316.61Z"/><polygon class="cls-1" points="152.35 637.61 191.82 536.46 227.31 666.95 333.9 703.73 326.07 715.39 355.5 732.83 320.25 791.72 312.04 786.83 304.68 749.37 299.1 758.76 174.48 710.61 152.35 637.61"/><polygon class="cls-1" points="241.46 513.33 255.89 503.29 161.22 352.05 196.71 453.43 241.46 513.33"/></svg>