<svg id="Capa_3" data-name="Capa 3" xmlns="http://www.w3.org/2000/svg" viewBox="0 0 1300 1000"><defs><style>.cls-1{fill:#be1823;}.cls-2{fill:#fff;}.cls-3{fill:#1e1e1c;}</style></defs><title>1-subject</title><path class="cls-1" d="M90.14,262.49l.49,2.55C90.44,264.21,90.27,263.35,90.14,262.49Z"/><path class="cls-1" d="M156.16,262.54c-.14.88-.31,1.74-.51,2.59Z"/><polygon class="cls-2" points="347.4 721.47 347.43 721.48 329.34 753.81 326.4 759.05 321.44 756.3 331.44 735.88 342.57 718.49 345.96 720.57 347.44 721.39 347.41 721.45 347.4 721.47"/><polygon class="cls-2" points="78.89 861.75 44.28 861.78 41.55 861.78 41.56 861.76 41.55 861.76 41.91 855.42 63.97 854.12 85.34 855.26 85.36 855.26 84.72 861.76 78.89 861.75"/><path class="cls-2" d="M204.24,524.44l-87,0h-15.3l1.94-8.62,16.76-1L150.76,513l50.68,3.08,1.44.09Z"/><polygon class="cls-3" points="117.23 524.42 204.24 524.44 204.24 524.45 117.23 524.43 110.26 524.43 105.85 524.42 101.93 524.42 101.93 524.41 105.85 524.41 110.26 524.42 117.23 524.42"/><polygon class="cls-2" points="261.81 544.29 254.78 546.5 254.77 546.5 254.77 546.49 232.66 553.41 230.72 548.34 234.84 546.7 234.85 546.69 243.86 543.13 249.01 542.17 250.59 541.88 260.38 540.07 261.81 544.29"/><polygon class="cls-2" points="202.88 516.14 194.92 469.43 194.9 469.47 160.71 430.94 140.73 397.81 135.33 388.86 137.96 388.86 142.37 394.33 145.37 398.07 190.81 454.49 190.81 454.5 190.81 454.51 192.81 456.98 202.88 516.14"/><path class="cls-2" d="M103.49,475.14v.05L97.27,487.1l-3.36-55.91L95.1,384.3l7.29-30.3a36.91,36.91,0,0,0-.72,6.44c0,.32,0,.64,0,1,0,.71,0,1.41.07,2.1v.07Z"/><polygon class="cls-2" points="97.27 487.1 64.51 550.11 55.86 548.32 55.86 548.31 55.72 548.29 53.83 547.89 34.71 543.81 34.72 543.8 34.65 543.79 36.75 539.09 41.52 539.64 43.12 539.81 50.91 540.71 53.98 541.67 58.51 543.11 66.77 545.73 97.27 487.1"/><polygon class="cls-3" points="55.72 548.29 55.86 548.31 55.86 548.32 55.72 548.29"/><polygon class="cls-3" points="97.27 487.1 66.77 545.73 58.51 543.11 53.98 541.67 50.91 540.71 43.12 539.81 41.52 539.64 36.75 539.09 82.53 436.59 95.1 384.3 93.91 431.19 97.27 487.1"/><path class="cls-3" d="M260.38,540.07l-9.79,1.81-1.58.29-5.15,1-9,3.56h0l-4.12,1.63-32.49-84.66s0,0,0,0h0s0,0-.07,0h0L192.81,457l-2-2.47h0l-45.44-56.42-3-3.74L138,388.86h-2.63l5.4,8.95,20,33.13,34.19,38.53,0,0,8,46.71-1.44-.09L150.76,513l-30.13,1.81-16.76,1,.31-1.37-.11-5.21v-1.48l-.51-32.63-.05.09v-.05l-1.77-111.57v-.07c0-.69-.07-1.39-.07-2.1,0-.32,0-.64,0-1a36.91,36.91,0,0,1,.72-6.44l.15-.61.34-1.41a37.31,37.31,0,0,1,47.86-25.89c.53.18,1.06.37,1.58.57h0c.71.27,1.4.57,2.1.88s1.35.66,2,1c.44.24.88.48,1.31.74a37.33,37.33,0,0,1,13.36,13.44l0,0,.31.54v0l0,0,.18.33L218,424.53l7.91,13.8.1.27v0s0,0,0,0l1.4,3.55s0,.07,0,.11Z"/><polygon class="cls-3" points="270.79 596.85 260.49 601.26 260.48 601.24 260.43 601.14 258.71 601.88 258.7 601.87 235.62 573.49 232.67 553.43 232.66 553.41 254.77 546.49 254.77 546.5 262.08 555.72 265.9 560.55 265.92 560.56 270.79 596.85"/><path class="cls-3" d="M342.57,718.49l-11.13,17.39-10,20.42L228.2,704.57,225.45,703l0,0a19.72,19.72,0,0,1-5-4.77l0,0-.33-.46h0l-.31-.47-54.62-78.35,23.85-31.1,22-36.6,49.51,117Z"/><polygon class="cls-2" points="44.28 861.78 78.89 861.75 78.89 901.16 0.3 901.16 0.3 889.33 34.48 875.94 41.55 861.78 44.28 861.78"/><path class="cls-2" d="M205.34,534.34c0,1.08,0,2.15-.11,3.22A44.28,44.28,0,0,1,198.58,558c-.05.08-.11.18-.17.26L197,560.35l-32.76,48.49-4.57,6.75L101.7,701.34l-1.33,2-15,152L64,854.12l-22,1.3L51,696.18l0-.52a1.79,1.79,0,0,1,0-.24,19.29,19.29,0,0,1,.77-4.18.13.13,0,0,1,0-.07l.16-.53L93.06,564l8.87-39.54h15.3l87,0h0c.12.51.23,1,.32,1.54l.19,1.13A44.06,44.06,0,0,1,205.34,534.34Z"/><polygon class="cls-2" points="382.33 740.98 365.45 771.2 343.99 809.6 343.97 809.59 333.65 803.82 338.63 767.46 329.34 753.81 347.43 721.48 382.31 740.97 382.33 740.98"/><path class="cls-2" d="M51.05,695.42a.93.93,0,0,0,0,.24v-.24Z"/><polygon class="cls-2" points="347.44 721.47 347.43 721.48 347.4 721.47 347.41 721.45 347.44 721.47"/><path class="cls-2" d="M228.2,704.57a18.4,18.4,0,0,1-2.75-1.53Z"/><polygon class="cls-2" points="101.71 701.35 100.38 703.31 101.71 701.35 101.71 701.35"/><polyline class="cls-2" points="171.28 627.82 156.03 605.89 200.69 527.83 211.99 553.74"/><path class="cls-3" d="M205.34,534.34c0,1.08,0,2.15-.11,3.22A44.28,44.28,0,0,1,198.58,558c-.05.08-.11.18-.17.26L197,560.35l-32.76,48.49-4.57,6.75L101.7,701.34l-1.33,2-15,152L64,854.12l-22,1.3h0L51,696.17l0-.64a.49.49,0,0,1,0-.12,19.91,19.91,0,0,1,.77-4.18l0-.1.16-.5L93,564l8.88-39.54h15.31l87,0h0c.12.51.23,1,.32,1.54l.19,1.13A44.06,44.06,0,0,1,205.34,534.34Z"/><path class="cls-3" d="M260.38,540.07l-9.79,1.81-1.58.29-5.15,1-9,3.56h0l-4.12,1.63h0l-32.5-84.68h0s0,0-.07,0h0L192.81,457l-2-2.47h0l-45.44-56.42-3-3.74L138,388.86h-2.63l5.4,8.95,20,33.13,34.19,38.53,0,0,8,46.71-1.44-.09L150.76,513l-30.13,1.81-16.76,1h0l.32-1.39-.1-5.19v-1.48l-.56-32.54v-.05l-1.77-111.57v-.07c0-.69-.07-1.39-.07-2.1,0-.32,0-.64,0-1a37.25,37.25,0,0,1,49.07-34.35c.53.18,1.06.37,1.58.57h0c.71.27,1.4.57,2.1.88s1.35.65,2,1c.44.24.88.48,1.31.74a37.33,37.33,0,0,1,13.36,13.44l.33.56v0l0,0,.17.31L218,424.53l7.91,13.8.1.27v0s0,0,0,0a18.21,18.21,0,0,1,1.4,3.55s0,.07,0,.11Z"/><path class="cls-3" d="M342.57,718.49l-11.13,17.39-10,20.42-93.22-51.73L225.45,703l0,0-5-4.77,0,0h0c-.12-.16-.23-.31-.33-.46h0l-.32-.48-54.61-78.34h0l23.85-31.1,22-36.6,49.49,117h0Z"/><path class="cls-3" d="M156.55,257.41a32.88,32.88,0,0,1-.39,5.09v0l-.51,2.59-4.79,24.43a23.42,23.42,0,0,1-16.56,20.13h0a40.45,40.45,0,0,1-11.15,1.53,41.72,41.72,0,0,1-10.27-1.29h0l-.36-.1a3.45,3.45,0,0,1-.43-.12h0a23.43,23.43,0,0,1-16.09-17.18,1.06,1.06,0,0,1,0-.19l-.27-1.42a.64.64,0,0,1,0-.07l-5-25.79-.49-2.55h0a34,34,0,0,1-.38-5.07,33.4,33.4,0,1,1,66.79,0Z"/><path d="M95.92,292.51h0l0-.19A1.06,1.06,0,0,0,95.92,292.51Z"/><path class="cls-1" d="M112.06,309.7a3.45,3.45,0,0,0,.43.12Z"/><polygon class="cls-3" points="78.89 861.75 78.89 901.16 0.29 901.16 0.29 889.32 34.46 875.93 41.55 861.75 41.55 861.78 44.28 861.78 78.89 861.75"/><polygon class="cls-3" points="382.31 740.97 365.43 771.19 343.97 809.59 333.65 803.82 333.64 803.81 338.62 767.45 329.34 753.81 347.43 721.48 382.31 740.97"/><polygon class="cls-3" points="270.77 596.82 260.48 601.24 260.43 601.14 260.42 601.11 258.7 601.87 235.62 573.49 235.61 573.47 232.66 553.41 232.66 553.41 254.77 546.49 254.77 546.5 254.78 546.5 262.08 555.72 265.9 560.55 270.77 596.82"/><polygon class="cls-3" points="97.27 487.1 66.77 545.73 58.51 543.11 53.98 541.67 50.91 540.71 43.12 539.81 41.52 539.64 36.75 539.09 36.72 539.09 82.51 436.57 95.13 383.18 95.1 384.3 93.91 431.19 97.27 487.1"/><polygon class="cls-3" points="55.86 548.31 55.86 548.32 52.31 572.89 29.28 601.34 19 596.88 19.05 596.75 17.32 596.01 22.12 559.73 34.67 543.83 39.48 544.84 53.83 547.89 55.72 548.29 55.86 548.31"/></svg>