<svg id="Capa_3" data-name="Capa 3" xmlns="http://www.w3.org/2000/svg" viewBox="0 0 1300 1000"><defs><style>.cls-1{fill:#be1823;}.cls-2{fill:#fff;}.cls-3{fill:#1e1e1c;}</style></defs><title>1-subject</title><path class="cls-1" d="M1007.81,262.49l.49,2.55C1008.11,264.21,1007.94,263.35,1007.81,262.49Z"/><path class="cls-1" d="M1073.83,262.54c-.14.88-.31,1.74-.51,2.59Z"/><polygon class="cls-2" points="911.14 620.47 909.86 620.47 909.86 615.34 910.37 615.34 911.14 620.47"/><polygon class="cls-2" points="1265.07 721.47 1265.1 721.48 1247.01 753.81 1244.07 759.05 1239.11 756.3 1249.11 735.88 1260.24 718.49 1263.63 720.57 1265.11 721.39 1265.08 721.45 1265.07 721.47"/><polygon class="cls-2" points="996.56 861.75 961.95 861.78 959.22 861.78 959.23 861.76 959.22 861.76 959.59 855.42 981.64 854.12 1003.01 855.26 1003.03 855.26 1002.39 861.76 996.56 861.75"/><path class="cls-2" d="M1121.91,524.44l-87,0h-15.3l1.94-8.62,16.76-1,30.13-1.81,50.68,3.08,1.44.09Z"/><polygon class="cls-3" points="1034.9 524.42 1121.91 524.44 1121.91 524.45 1034.9 524.43 1027.93 524.43 1023.52 524.42 1019.6 524.42 1019.6 524.41 1023.52 524.41 1027.93 524.42 1034.9 524.42"/><polygon class="cls-2" points="1179.48 544.29 1172.44 546.5 1172.44 546.5 1172.44 546.49 1150.33 553.41 1148.39 548.34 1152.51 546.7 1152.52 546.69 1161.53 543.13 1166.68 542.17 1168.26 541.88 1178.05 540.07 1179.48 544.29"/><polygon class="cls-2" points="1120.55 516.14 1112.59 469.43 1112.57 469.47 1078.38 430.94 1058.4 397.81 1053 388.86 1055.63 388.86 1060.04 394.33 1063.04 398.07 1108.48 454.49 1108.48 454.5 1108.48 454.51 1110.47 456.98 1120.55 516.14"/><path class="cls-2" d="M1021.16,475.14v.05l-6.22,11.91-3.36-55.91,1.19-46.89,7.29-30.3a36.91,36.91,0,0,0-.72,6.44c0,.32,0,.64,0,1,0,.71,0,1.41.07,2.1v.07Z"/><polygon class="cls-2" points="1014.94 487.1 982.18 550.11 973.53 548.32 973.53 548.31 973.39 548.29 971.5 547.89 952.38 543.81 952.39 543.8 952.32 543.79 954.42 539.09 959.19 539.64 960.78 539.81 968.58 540.71 971.65 541.67 976.18 543.11 984.44 545.73 1014.94 487.1"/><polygon class="cls-3" points="973.39 548.29 973.53 548.31 973.53 548.32 973.39 548.29"/><polygon class="cls-3" points="1014.94 487.1 984.44 545.73 976.18 543.11 971.65 541.67 968.58 540.71 960.78 539.81 959.19 539.64 954.42 539.09 1000.2 436.59 1012.77 384.3 1011.58 431.19 1014.94 487.1"/><path class="cls-3" d="M1178.05,540.07l-9.79,1.81-1.58.29-5.15,1-9,3.56h0l-4.12,1.63-32.49-84.66,0,0h0s0,0-.06,0h0l-5.33-6.61-2-2.47h0L1063,398.07l-3-3.74-4.41-5.47H1053l5.4,8.95,20,33.13,34.19,38.53,0,0,8,46.71-1.44-.09L1068.43,513l-30.13,1.81-16.76,1,.31-1.37-.11-5.21v-1.48l-.51-32.63-.05.09v-.05l-1.77-111.57v-.07c0-.69-.07-1.39-.07-2.1,0-.32,0-.64,0-1a36.91,36.91,0,0,1,.72-6.44l.15-.61.34-1.41a37.31,37.31,0,0,1,47.86-25.89c.53.18,1,.37,1.58.57h0c.71.27,1.4.57,2.1.88s1.35.66,2,1c.44.24.88.48,1.31.74a37.33,37.33,0,0,1,13.36,13.44l0,0,.31.54v0l0,0,.18.33,46.33,80.86,7.91,13.8.1.27v0s0,0,0,0l1.4,3.55s0,.07,0,.11Z"/><polygon class="cls-3" points="1188.46 596.85 1178.16 601.26 1178.15 601.24 1178.1 601.14 1176.38 601.88 1176.37 601.87 1153.29 573.49 1150.34 553.43 1150.33 553.41 1172.44 546.49 1172.44 546.5 1179.75 555.72 1183.58 560.55 1183.59 560.56 1188.46 596.85"/><path class="cls-3" d="M1260.24,718.49l-11.13,17.39-10,20.42-93.24-51.73-2.75-1.53,0,0a19.84,19.84,0,0,1-5-4.77l0,0-.33-.46h0l-.31-.47-54.62-78.35,23.85-31.1,22-36.6,49.51,117Z"/><polygon class="cls-2" points="961.95 861.78 996.56 861.75 996.56 901.16 917.97 901.16 917.97 889.33 952.15 875.94 959.22 861.78 961.95 861.78"/><path class="cls-2" d="M1123,534.34c0,1.08,0,2.15-.11,3.22a44.28,44.28,0,0,1-6.65,20.39c0,.08-.11.18-.17.26l-1.44,2.14-32.76,48.49-4.57,6.75-57.94,85.75-1.33,2-15,152-21.37-1.14-22,1.3,9.08-159.24,0-.52a1.79,1.79,0,0,1,0-.24,19.29,19.29,0,0,1,.77-4.18.25.25,0,0,1,0-.07l.17-.53L1010.73,564l8.87-39.54h15.3l87,0h0c.12.51.23,1,.32,1.54l.19,1.13A45.19,45.19,0,0,1,1123,534.34Z"/><polygon class="cls-2" points="1300 740.98 1283.12 771.2 1261.66 809.6 1261.64 809.59 1251.32 803.82 1256.31 767.46 1247.01 753.81 1265.1 721.48 1299.98 740.97 1300 740.98"/><path class="cls-2" d="M968.72,695.42a.93.93,0,0,0,0,.24v-.24Z"/><polygon class="cls-2" points="1265.11 721.47 1265.1 721.48 1265.07 721.47 1265.08 721.45 1265.11 721.47"/><path class="cls-2" d="M1145.87,704.57a19,19,0,0,1-2.76-1.53Z"/><polygon class="cls-2" points="1019.38 701.35 1018.05 703.31 1019.38 701.35 1019.38 701.35"/><polyline class="cls-2" points="1088.95 627.82 1073.7 605.89 1118.36 527.83 1129.66 553.74"/><path class="cls-3" d="M1123,534.34c0,1.08,0,2.15-.11,3.22a44.28,44.28,0,0,1-6.65,20.39c0,.08-.11.18-.17.26l-1.44,2.14-32.76,48.49-4.57,6.75-57.94,85.75-1.33,2-15,152-21.37-1.14-22,1.3h0l9.08-159.25,0-.64a.49.49,0,0,1,0-.12,19.29,19.29,0,0,1,.77-4.18l0-.1.16-.5,41-126.68,8.88-39.54h15.31l87,0h0c.12.51.23,1,.32,1.54l.19,1.13A45.19,45.19,0,0,1,1123,534.34Z"/><path class="cls-3" d="M1178.05,540.07l-9.79,1.81-1.58.29-5.15,1-9,3.56h0l-4.12,1.63h0l-32.51-84.68h0s0,0-.06,0h0l-5.33-6.61-2-2.47h0L1063,398.07l-3-3.74-4.41-5.47H1053l5.4,8.95,20,33.13,34.19,38.53,0,0,8,46.71-1.44-.09L1068.43,513l-30.13,1.81-16.76,1h0l.32-1.39-.1-5.19v-1.48l-.56-32.54v-.05l-1.77-111.57v-.07c0-.69-.07-1.39-.07-2.1,0-.32,0-.64,0-1a37.25,37.25,0,0,1,49.07-34.35c.53.18,1,.37,1.58.57h0c.71.27,1.4.57,2.1.88s1.35.65,2,1c.44.24.88.48,1.31.74a37.33,37.33,0,0,1,13.36,13.44l.33.56v0l0,0,.17.31,46.34,80.88,7.91,13.8.1.27v0s0,0,0,0a18.21,18.21,0,0,1,1.4,3.55s0,.07,0,.11Z"/><path class="cls-3" d="M1260.24,718.49l-11.13,17.39-10,20.42-93.22-51.73-2.77-1.53,0,0-5-4.77,0,0h0c-.12-.16-.23-.31-.33-.46h0l-.33-.48-54.6-78.34h0l23.85-31.1,22-36.6,49.49,117h0Z"/><path class="cls-3" d="M1074.22,257.41a32.88,32.88,0,0,1-.39,5.09v0l-.51,2.59-4.79,24.43A23.42,23.42,0,0,1,1052,309.69h0a40.45,40.45,0,0,1-11.15,1.53,41.72,41.72,0,0,1-10.27-1.29h0l-.36-.1a3.45,3.45,0,0,1-.43-.12h0a23.43,23.43,0,0,1-16.09-17.18,1.06,1.06,0,0,1,0-.19l-.27-1.42a.64.64,0,0,1,0-.07l-5-25.79-.49-2.55h0a34,34,0,0,1-.38-5.07,33.4,33.4,0,1,1,66.79,0Z"/><path d="M1013.59,292.51h0l0-.19A1.06,1.06,0,0,0,1013.59,292.51Z"/><path class="cls-1" d="M1029.73,309.7a3.45,3.45,0,0,0,.43.12Z"/><polygon class="cls-3" points="996.56 861.75 996.56 901.16 917.96 901.16 917.96 889.32 952.13 875.93 959.22 861.75 959.22 861.78 961.95 861.78 996.56 861.75"/><polygon class="cls-3" points="1299.98 740.97 1283.1 771.19 1261.64 809.59 1251.32 803.82 1251.31 803.81 1256.29 767.45 1247.01 753.81 1265.1 721.48 1299.98 740.97"/><polygon class="cls-3" points="1188.44 596.82 1178.15 601.24 1178.1 601.14 1178.09 601.11 1176.37 601.87 1153.29 573.49 1153.28 573.47 1150.33 553.41 1150.33 553.41 1172.44 546.49 1172.44 546.5 1172.44 546.5 1179.75 555.72 1183.58 560.55 1188.44 596.82"/><polygon class="cls-3" points="1014.94 487.1 984.44 545.73 976.18 543.11 971.65 541.67 968.58 540.71 960.78 539.81 959.19 539.64 954.42 539.09 954.39 539.09 1000.18 436.57 1012.8 383.18 1012.77 384.3 1011.58 431.19 1014.94 487.1"/><polygon class="cls-3" points="973.53 548.31 973.53 548.32 969.98 572.89 946.95 601.34 936.66 596.88 936.72 596.75 934.99 596.01 939.79 559.73 952.34 543.83 957.15 544.84 971.5 547.89 973.39 548.29 973.53 548.31"/></svg>