<svg id="Capa_3" data-name="Capa 3" xmlns="http://www.w3.org/2000/svg" viewBox="0 0 1300 1000"><defs><style>.cls-1{fill:#be1823;}.cls-2{fill:#fff;}.cls-3{fill:#1e1e1c;}</style></defs><title>1-subject</title><path class="cls-1" d="M415.05,262.49l.5,2.55C415.35,264.21,415.18,263.35,415.05,262.49Z"/><path class="cls-1" d="M481.07,262.54c-.14.88-.31,1.74-.51,2.59Z"/><polygon class="cls-2" points="318.38 620.47 317.1 620.47 317.1 615.34 317.62 615.34 318.38 620.47"/><polygon class="cls-2" points="672.32 721.47 672.35 721.48 654.25 753.81 651.31 759.05 646.35 756.3 656.35 735.88 667.49 718.49 670.88 720.57 672.36 721.39 672.32 721.45 672.32 721.47"/><polygon class="cls-2" points="403.8 861.75 369.19 861.78 366.47 861.78 366.47 861.76 366.47 861.76 366.83 855.42 388.89 854.12 410.25 855.26 410.27 855.26 409.63 861.76 403.8 861.75"/><path class="cls-2" d="M529.16,524.44l-87,0h-15.3l1.94-8.62,16.76-1L475.67,513l50.68,3.08,1.44.09Z"/><polygon class="cls-3" points="442.14 524.42 529.16 524.44 529.16 524.45 442.14 524.43 435.17 524.43 430.76 524.42 426.84 524.42 426.84 524.41 430.76 524.41 435.17 524.42 442.14 524.42"/><polygon class="cls-2" points="586.73 544.29 579.69 546.5 579.68 546.5 579.68 546.49 557.58 553.41 555.63 548.34 559.75 546.7 559.76 546.69 568.77 543.13 573.93 542.17 575.5 541.88 585.29 540.07 586.73 544.29"/><polygon class="cls-2" points="527.79 516.14 519.83 469.43 519.81 469.47 485.62 430.94 465.64 397.81 460.24 388.86 462.87 388.86 467.28 394.33 470.29 398.07 515.72 454.49 515.73 454.5 515.73 454.51 517.72 456.98 527.79 516.14"/><path class="cls-2" d="M428.41,475.14v.05l-6.23,11.91-3.36-55.91L420,384.3l7.3-30.3a36.91,36.91,0,0,0-.73,6.44c0,.32,0,.64,0,1q0,1.07.06,2.1a.15.15,0,0,0,0,.07Z"/><polygon class="cls-2" points="422.18 487.1 389.43 550.11 380.77 548.32 380.77 548.31 380.63 548.29 378.74 547.89 359.62 543.81 359.64 543.8 359.56 543.79 361.66 539.09 366.44 539.64 368.03 539.81 375.82 540.71 378.9 541.67 383.42 543.11 391.69 545.73 422.18 487.1"/><polygon class="cls-3" points="380.63 548.29 380.77 548.31 380.77 548.32 380.63 548.29"/><polygon class="cls-3" points="422.18 487.1 391.69 545.73 383.42 543.11 378.9 541.67 375.82 540.71 368.03 539.81 366.44 539.64 361.66 539.09 407.44 436.59 420.01 384.3 418.82 431.19 422.18 487.1"/><path class="cls-3" d="M585.3,540.07l-9.8,1.81-1.57.29-5.16,1-9,3.56h0l-4.12,1.63-32.49-84.66,0,0h0s0,0-.06,0h0L517.72,457l-2-2.47h0l-45.43-56.42-3-3.74-4.41-5.47h-2.63l5.4,8.95,20,33.13,34.19,38.53,0,0,8,46.71-1.44-.09L475.67,513l-30.13,1.81-16.76,1,.31-1.37-.11-5.21v-1.48l-.51-32.63,0,.09v-.05l-1.77-111.57a.15.15,0,0,1,0-.07q-.06-1-.06-2.1c0-.32,0-.64,0-1a36.91,36.91,0,0,1,.73-6.44l.14-.61.34-1.41a37.31,37.31,0,0,1,47.86-25.89c.53.18,1.06.37,1.58.57h0c.71.27,1.41.57,2.1.88s1.35.66,2,1c.45.24.89.48,1.32.74A37.41,37.41,0,0,1,496,342.74v0l.31.54v0l.19.33,46.32,80.86,7.91,13.8.11.27v0s0,0,0,0l1.41,3.55,0,.11Z"/><polygon class="cls-3" points="595.7 596.85 585.4 601.26 585.39 601.24 585.34 601.14 583.63 601.88 583.61 601.87 560.54 573.49 557.58 553.43 557.58 553.41 579.68 546.49 579.68 546.5 587 555.72 590.82 560.55 590.83 560.56 595.7 596.85"/><path class="cls-3" d="M667.49,718.49l-11.14,17.39-10,20.42-93.24-51.73L550.36,703l0,0a19.72,19.72,0,0,1-5-4.77l0,0-.34-.46h0l-.31-.47L490,618.93l23.85-31.1,22-36.6,49.51,117Z"/><polygon class="cls-2" points="369.19 861.78 403.8 861.75 403.8 901.16 325.22 901.16 325.22 889.33 359.39 875.94 366.47 861.78 369.19 861.78"/><path class="cls-2" d="M530.26,534.34c0,1.08,0,2.15-.12,3.22A44.28,44.28,0,0,1,523.49,558c0,.08-.1.18-.16.26l-1.44,2.14-32.77,48.49-4.57,6.75-57.94,85.75-1.33,2-15,152-21.36-1.14-22.06,1.3,9.08-159.24,0-.52a.93.93,0,0,1,0-.24,19.28,19.28,0,0,1,.76-4.18.13.13,0,0,1,0-.07l.17-.53L418,564l8.87-39.54h15.3l87,0h0c.11.51.22,1,.31,1.54l.19,1.13A44.06,44.06,0,0,1,530.26,534.34Z"/><polygon class="cls-2" points="707.24 740.98 690.36 771.2 668.9 809.6 668.89 809.59 658.56 803.82 663.55 767.46 654.25 753.81 672.35 721.48 707.23 740.97 707.24 740.98"/><path class="cls-2" d="M376,695.42a1.79,1.79,0,0,0,0,.24v-.24Z"/><polygon class="cls-2" points="672.36 721.47 672.35 721.48 672.32 721.47 672.32 721.45 672.36 721.47"/><path class="cls-2" d="M553.11,704.57a18.91,18.91,0,0,1-2.75-1.53Z"/><polygon class="cls-2" points="426.63 701.35 425.3 703.31 426.62 701.35 426.63 701.35"/><polyline class="cls-2" points="496.19 627.82 480.94 605.89 525.6 527.83 536.9 553.74"/><path class="cls-3" d="M530.26,534.34c0,1.08,0,2.15-.12,3.22A44.28,44.28,0,0,1,523.49,558c0,.08-.1.18-.16.26l-1.44,2.14-32.77,48.49-4.57,6.75-57.94,85.75-1.33,2-15,152-21.36-1.14-22.06,1.3h0l9.08-159.25,0-.64a.49.49,0,0,1,0-.12,19.91,19.91,0,0,1,.77-4.18l0-.1.16-.5L418,564l8.88-39.54h15.31l87,0h0c.11.51.22,1,.31,1.54l.19,1.13A44.06,44.06,0,0,1,530.26,534.34Z"/><path class="cls-3" d="M585.3,540.07l-9.8,1.81-1.57.29-5.16,1-9,3.56h0l-4.12,1.63h0l-32.5-84.68h0s0,0-.06,0h0L517.72,457l-2-2.47h0l-45.43-56.42-3-3.74-4.41-5.47h-2.63l5.4,8.95,20,33.13,34.19,38.53,0,0,8,46.71-1.44-.09L475.67,513l-30.13,1.81-16.76,1h0l.31-1.39-.1-5.19v-1.48l-.55-32.54v-.05l-1.77-111.57a.15.15,0,0,1,0-.07q-.06-1-.06-2.1c0-.32,0-.64,0-1a37.25,37.25,0,0,1,49.07-34.35c.53.18,1.06.37,1.58.57h0c.71.27,1.41.57,2.1.88s1.35.65,2,1c.45.24.89.48,1.32.74A37.41,37.41,0,0,1,496,342.74l.32.56v0l.17.31,46.34,80.88,7.91,13.8.11.27v0s0,0,0,0a18.89,18.89,0,0,1,1.41,3.55l0,.11Z"/><path class="cls-3" d="M667.49,718.49l-11.14,17.39-10,20.42-93.22-51.73L550.36,703l0,0-5-4.77,0,0h0l-.33-.46h0l-.32-.48L490,618.93h0l23.85-31.1,22-36.6,49.49,117h0Z"/><path class="cls-3" d="M481.46,257.41a34.17,34.17,0,0,1-.38,5.09v0l-.51,2.59-4.78,24.43a23.42,23.42,0,0,1-16.57,20.13h0a40.45,40.45,0,0,1-11.15,1.53,41.54,41.54,0,0,1-10.26-1.29h0l-.37-.1a3.45,3.45,0,0,1-.43-.12h-.05a23.42,23.42,0,0,1-16.08-17.18.59.59,0,0,1,0-.19l-.27-1.42a.15.15,0,0,1,0-.07l-5-25.79-.5-2.55h0a34,34,0,0,1-.38-5.07,33.4,33.4,0,1,1,66.79,0Z"/><path d="M420.84,292.51h0l0-.19A.59.59,0,0,0,420.84,292.51Z"/><path class="cls-1" d="M437,309.7a3.45,3.45,0,0,0,.43.12Z"/><polygon class="cls-3" points="403.8 861.75 403.8 901.16 325.2 901.16 325.2 889.32 359.38 875.93 366.46 861.75 366.46 861.78 369.19 861.78 403.8 861.75"/><polygon class="cls-3" points="707.23 740.97 690.35 771.19 668.89 809.59 658.56 803.82 658.55 803.81 663.53 767.45 654.25 753.81 672.35 721.48 707.23 740.97"/><polygon class="cls-3" points="595.69 596.82 585.39 601.24 585.34 601.14 585.33 601.11 583.61 601.87 560.54 573.49 560.52 573.47 557.57 553.41 557.58 553.41 579.68 546.49 579.68 546.5 579.69 546.5 587 555.72 590.82 560.55 595.69 596.82"/><polygon class="cls-3" points="422.18 487.1 391.69 545.73 383.42 543.11 378.9 541.67 375.82 540.71 368.03 539.81 366.44 539.64 361.66 539.09 361.64 539.09 407.42 436.57 420.05 383.18 420.01 384.3 418.82 431.19 422.18 487.1"/><polygon class="cls-3" points="380.77 548.31 380.77 548.32 377.22 572.89 354.19 601.34 343.91 596.88 343.96 596.75 342.23 596.01 347.03 559.73 359.58 543.83 364.39 544.84 378.74 547.89 380.63 548.29 380.77 548.31"/></svg>