<svg id="Capa_1" data-name="Capa 1" xmlns="http://www.w3.org/2000/svg" viewBox="0 0 1300 1000"><defs><style>.cls-1{fill:#262626;}.cls-2{fill:#fff;}</style></defs><title>go-up--first-quadrant</title><path class="cls-1" d="M165.91,253.48c0,16.57,10.75,30,24,30s24-13.43,24-30-10.75-30-24-30S165.91,236.91,165.91,253.48Z"/><path class="cls-1" d="M219.2,530S233.69,368,190,299.58c-6.93-10.86-24.07-11-30.36,6.92L83.17,530l29.94.12,77.64,156,13.66,132,14.53-.12-.32,34H288.5l-.18-10.38L263,817h8L257.68,664.46,193.75,530.07Z"/><path class="cls-1" d="M173.08,317C172.92,377.4,203,427.22,203,427.22l61.61,101.36,22.7-14.3L233.52,399.6s-24.47-77.14-45.37-102.22"/><path class="cls-2" d="M173.08,317a225.23,225.23,0,0,0,10.17,57.19,262.54,262.54,0,0,0,10.09,27.17q2.91,6.63,6.15,13.09c2.18,4.29,4.44,8.55,7,12.54,10.41,16.49,20.66,33.07,30.93,49.65l7.71,12.43,7.63,12.47L268,526.52l-5.49-1.29,11.33-7.18,11.36-7.13-1.48,5-13.36-28.7-6.69-14.36-6.6-14.39-13.2-28.78c-4.4-9.6-8.71-19.24-13.06-28.85l-.1-.21-.05-.16C228,391.64,225,382.76,222,373.92s-6.18-17.61-9.5-26.33-6.86-17.34-10.73-25.83q-2.91-6.36-6.21-12.53a94.2,94.2,0,0,0-7.45-11.85c6.22,7,11,15.22,15.53,23.45,2.26,4.12,4.36,8.32,6.39,12.56s4,8.5,5.91,12.79c3.82,8.58,7.33,17.29,10.75,26s6.62,17.55,9.65,26.49l-.14-.37c4.61,9.5,9.27,19,13.83,28.49l13.7,28.55,6.84,14.28L277.38,484l13.53,28.63,1.5,3.17-3,1.88-11.34,7.16-11.36,7.12-3.42,2.14-2.07-3.43-15.12-25-7.55-12.52-7.49-12.56c-10-16.75-20-33.49-29.84-50.32-2.57-4.32-4.74-8.77-6.84-13.23s-4-9-5.78-13.61a250.71,250.71,0,0,1-9-28.08C174.75,356.23,172.22,336.56,173.08,317Z"/><polygon class="cls-1" points="56.35 511.76 41.93 501.72 136.59 350.48 101.1 451.86 56.35 511.76"/><polygon class="cls-1" points="107.11 536.94 165.91 656.47 157.1 720.48 99.28 866.39 85.32 866.53 109.61 890.84 109.79 901.22 39.91 901.22 47.4 866.13 35.93 865.4 97.7 699.6 107.11 536.94"/></svg>