<svg id="Capa_3" data-name="Capa 3" xmlns="http://www.w3.org/2000/svg" viewBox="0 0 1300 1000"><defs><style>.cls-1{fill:#fff;}.cls-2{fill:#1e1e1c;}</style></defs><title>1-subject</title><polygon class="cls-1" points="1069.39 566.5 1075.16 534.67 1131.21 593.02 1126.76 608.36 1069.39 566.5"/><path class="cls-1" d="M1182.43,422.3l-1.16,57.83-6.79-19.29v0l-2.33-119.35h0a37.64,37.64,0,0,0-1.7-9.84c.14.42.27.85.38,1.27.07.23.14.47.2.7l7.91,28.43Z"/><polygon class="cls-1" points="1226.03 518.34 1220.93 518.18 1220.27 518.16 1210.2 517.85 1207.91 518.23 1203.62 518.92 1195.38 520.27 1197.08 525.11 1205.36 524.55 1205.69 524.52 1205.36 524.55 1227.24 523.08 1227.23 523.07 1227.51 523.06 1226.03 518.34"/><path class="cls-1" d="M1175.4,508.4l-16.19-1-31.09-1.89s-34.56,2.07-52.11,3.15l-.74,0-1.29,7.57h0c0,.22-.07.45-.11.67h101.71Z"/><polygon class="cls-1" points="1047.52 851.05 1030.51 840.37 1009.77 830.46 1008.07 836.43 1013.58 839.55 1028.02 847.72 1045.35 856.63 1045.48 856.7 1047.52 851.05"/><polygon class="cls-1" points="1233.39 775.63 1211.95 774.49 1190.95 775.69 1190.58 782.14 1195.99 782.14 1195.99 782.14 1232.77 782.14 1233.39 775.63"/><polygon class="cls-1" points="1055.41 529.37 1053.9 533.97 1033.99 529.01 1032.19 528.53 1031.55 528.38 1031.54 528.37 1024.31 526.48 1025.64 521.83 1025.66 521.79 1035.57 523.33 1037.32 523.6 1040.99 524.16 1051.32 527.89 1051.62 528 1055.4 529.36 1055.41 529.37"/><polygon class="cls-1" points="1087.17 438.73 1087.17 438.72 1090.54 434.35 1132.27 379.98 1136.66 374.26 1139.28 374.26 1136.04 380.06 1116.83 414.48 1085.22 450.27 1086.93 440.26 1087.17 438.73"/><polyline class="cls-1" points="1083.87 443.03 1083.89 443.01 1083.89 443.01 1087.17 438.73"/><path class="cls-2" d="M1246.92,654.18c0-.22,0-.43,0-.63,0-.43-.07-.84-.11-1.25,0,0,0,0,0,0a19.87,19.87,0,0,0-.79-3.55c-.12-.4-.26-.77-.4-1.15s-.38-.92-.59-1.37c-.1-.21-.21-.43-.32-.63a1.19,1.19,0,0,1-.08-.16h0L1175.69,521.6l-.1-4.62H1073.86a44.72,44.72,0,0,0,1,18.91h0a44.53,44.53,0,0,0,10.48,18.63l0,0,1.79,1.71L1089,558l0,0,24.82,23.62v0L1130.05,597h0l67.5,64.06L1191,775.69h0l21-1.2,21.44,1.14,13.39-118.39a.28.28,0,0,0,0-.09c0-.39.08-.77.11-1.15s0-.79,0-1.19v-.31C1246.93,654.39,1246.93,654.28,1246.92,654.18Zm-46.31,5.93V660l.26,0Z"/><path class="cls-2" d="M1175.4,508.4l-16.19-1-31.09-1.89s-34.56,2.07-52.11,3.15l-.74,0h0l10-58.43v0l31.6-35.79L1136,380.06l3.24-5.8h-2.62l-4.39,5.72-41.73,54.37-3.37,4.37h0l-3.28,4.28h0l0,0v0l-28.47,86.31-3.78-1.36-.3-.11L1041,524.16l-3.67-.56-1.75-.27-9.91-1.54,0,0-.05.09,28.1-98.81v0h0l.08-.23,1.1-3.21.08-.23h0l.11-.31,46.09-91.7,0-.05A37.19,37.19,0,0,1,1135,305.7h.81c.27,0,.53,0,.79,0,.53,0,1.06.06,1.58.1l.78.07c.78.08,1.54.19,2.31.32l.77.14.75.15.75.17c.25.05.5.11.74.18.5.13,1,.26,1.48.41l.72.23.56.18a36.25,36.25,0,0,1,5.66,2.49c.22.11.43.23.65.36s.44.24.64.37c.47.28.93.56,1.39.86l.72.49c.48.34,1,.67,1.41,1l.47.36a35.25,35.25,0,0,1,2.84,2.48l.59.58.11.11c.38.38.75.78,1.12,1.19.2.22.39.43.57.65l.56.67c.19.22.37.45.55.69.4.51.8,1,1.17,1.59.28.39.54.79.8,1.19a.53.53,0,0,1,.06.1c.16.23.3.47.45.71s.3.5.44.75.3.51.43.77c.28.52.55,1,.81,1.57.39.79.74,1.6,1.07,2.42h0c.21.55.42,1.1.61,1.66.1.28.2.56.29.84a37.64,37.64,0,0,1,1.7,9.84h0l2.33,119.35v0l-.13-.35h0v0Z"/><path class="cls-2" d="M1128.06,603.88,1092,728l0,0,0,.12-1,2.85s0,0,0,0l-.16.49-43.3,119.54-17-10.68-20.74-9.92h0l33.08-116.22,29.4-163.61h0l27.25,29.29Z"/><path class="cls-2" d="M1174.94,239.87a32.49,32.49,0,0,1-.39,5.06v0l-.5,2.58-4.94,25.72h0l-.3,1.53a.35.35,0,0,1,0,.14,23.37,23.37,0,0,1-16.06,17.16h0a41.25,41.25,0,0,1-22.26,0h0a23.39,23.39,0,0,1-16.55-20.1l-4.74-24.24c-.21-.86-.38-1.74-.52-2.62l0-.17h0a32.88,32.88,0,0,1-.4-5.09,33.36,33.36,0,0,1,66.71,0Z"/><polygon class="cls-2" points="1053.9 533.97 1051.96 554.32 1030.28 583.75 1030.18 583.71 1028.54 583.12 1018.01 579.3 1018.01 579.29 1018 579.29 1021.13 542.88 1031.54 528.37 1031.55 528.38 1032.19 528.53 1033.99 529.01 1053.9 533.97"/><polygon class="cls-2" points="1226.03 518.34 1220.93 518.18 1220.27 518.16 1210.2 517.85 1207.91 518.23 1203.62 518.92 1195.38 520.27 1181.27 480.15 1181.27 480.13 1182.43 422.3 1178.92 362.03 1178.91 361.85 1188.98 398.2 1192.21 409.88 1226.03 518.34"/><polygon class="cls-2" points="1089.28 889.41 1089.28 901.25 1045.35 901.25 1000.52 878.84 1000.51 878.83 1013.58 839.55 1028.02 847.72 1045.35 856.63 1045.48 856.7 1055.15 876.05 1089.28 889.41"/><polygon class="cls-2" points="1274.49 810.71 1274.49 822.54 1195.99 822.54 1195.99 782.14 1232.66 782.14 1232.77 782.14 1240.36 797.34 1274.49 810.71"/><polygon class="cls-2" points="1237.11 540.07 1236.74 576.62 1236.16 576.79 1236.01 576.83 1234.95 577.13 1224.18 580.2 1224.17 580.2 1205.42 548.84 1205.41 548.83 1205.35 524.59 1205.36 524.59 1205.7 524.57 1227.24 523.08 1227.25 523.08 1237.11 540.07"/></svg>