<svg id="Capa_1" data-name="Capa 1" xmlns="http://www.w3.org/2000/svg" viewBox="0 0 1300 1000"><defs><style>.cls-1{fill:#262626;}.cls-2{fill:#fff;}</style></defs><title>go-up--fourth-quadrant</title><path class="cls-1" d="M1142.91,253.47c0,16.57,10.75,30,24,30s24-13.43,24-30-10.75-30-24-30S1142.91,236.91,1142.91,253.47Z"/><path class="cls-1" d="M1196.2,529.94s14.49-162-29.19-230.36c-6.93-10.86-24.07-11-30.36,6.92l-76.48,223.44,29.94.13,77.64,156,13.66,132,14.53-.12-.32,34h69.88l-.18-10.38L1240,817h8l-13.33-152.48-63.93-134.39Z"/><path class="cls-1" d="M1150.08,317c-.16,60.36,29.93,110.18,29.93,110.18l61.61,101.35,22.7-14.3-53.8-114.67s-24.47-77.14-45.37-102.22"/><path class="cls-2" d="M1150.08,317c.24,4.88.53,9.74,1.14,14.56.23,2.42.6,4.83.91,7.24s.72,4.8,1.19,7.18c.85,4.78,1.91,9.51,3,14.22s2.48,9.37,3.9,14a263.4,263.4,0,0,0,10.09,27.17q2.91,6.63,6.15,13.09c2.18,4.28,4.44,8.55,7,12.53,5.17,8.27,10.4,16.49,15.52,24.79l15.41,24.86,7.71,12.43,7.63,12.47L1245,526.52l-5.49-1.29,11.33-7.18,11.36-7.13-1.48,5-13.36-28.71-6.69-14.35-6.6-14.39-13.2-28.79c-2.21-4.79-4.37-9.6-6.55-14.41l-6.51-14.43-.1-.22,0-.15c-1.34-4.43-2.77-8.89-4.22-13.31s-2.9-8.87-4.4-13.28-3-8.82-4.63-13.21l-2.41-6.57-2.46-6.55q-2.47-6.54-5.15-13c-.88-2.16-1.81-4.3-2.73-6.44s-1.87-4.28-2.85-6.39-2-4.23-3-6.32-2.13-4.14-3.21-6.21l-1.71-3.05-1.79-3c-.61-1-1.27-2-1.9-2.94s-1.37-1.9-2-2.85c.76.89,1.54,1.77,2.27,2.68s1.45,1.85,2.15,2.79l2,2.87,2,2.93c1.26,2,2.49,4,3.66,6s2.34,4.08,3.45,6.14c2.26,4.13,4.36,8.33,6.39,12.56s4,8.51,5.91,12.8c3.82,8.58,7.33,17.29,10.75,26,1.69,4.38,3.38,8.76,5,13.17s3.17,8.83,4.68,13.31l-.14-.36,6.93,14.23c2.31,4.75,4.63,9.49,6.9,14.25l13.7,28.56,6.84,14.27,6.77,14.32,13.53,28.63,1.5,3.16-3,1.88-11.33,7.17-11.37,7.12-3.42,2.14-2.07-3.43-15.12-25-7.55-12.52-7.49-12.56-15-25.13c-5-8.36-9.91-16.79-14.87-25.19-2.57-4.33-4.74-8.77-6.84-13.24s-4-9-5.78-13.61-3.42-9.23-4.93-13.91-2.92-9.39-4.1-14.16-2.28-9.56-3.18-14.39-1.7-9.67-2.21-14.54c-.32-2.43-.48-4.88-.72-7.32s-.38-4.88-.42-7.33C1149.84,326.8,1149.93,321.91,1150.08,317Z"/><polygon class="cls-1" points="1033.35 511.76 1018.93 501.72 1113.59 350.47 1078.1 451.86 1033.35 511.76"/><polygon class="cls-1" points="1084.12 536.93 1142.91 656.47 1134.1 720.47 1076.29 866.39 1062.32 866.52 1086.61 890.84 1086.79 901.22 1016.91 901.22 1024.39 866.13 1012.93 865.4 1074.7 699.59 1084.12 536.93"/></svg>