<svg id="Capa_1" data-name="Capa 1" xmlns="http://www.w3.org/2000/svg" viewBox="0 0 1300 1000"><defs><style>.cls-1{fill:#262626;}.cls-2{fill:#fff;}</style></defs><title>go-up--third-quadrant</title><path class="cls-1" d="M813.94,253.52c0,16.57,10.75,30,24,30s24-13.43,24-30-10.74-30-24-30S813.94,237,813.94,253.52Z"/><path class="cls-1" d="M867.23,530S881.72,368,838,299.62c-6.93-10.86-24.06-11-30.35,6.92L731.2,530l29.94.12,77.64,156,13.66,132,14.53-.12-.32,34h69.88l-.18-10.38L911.07,817h8L905.71,664.5,841.78,530.11Z"/><path class="cls-1" d="M821.11,317.08C821,377.44,851,427.26,851,427.26l61.61,101.36,22.7-14.3L881.56,399.64s-24.48-77.14-45.38-102.22"/><path class="cls-2" d="M821.11,317.08c.24,4.88.54,9.74,1.14,14.57.24,2.42.61,4.82.91,7.23s.73,4.8,1.19,7.18c.85,4.78,1.91,9.52,3,14.23s2.47,9.36,3.9,14a258,258,0,0,0,10.09,27.17c1.93,4.42,4,8.78,6.15,13.09s4.43,8.55,7,12.53c5.17,8.27,10.41,16.49,15.52,24.79l15.41,24.86,7.71,12.43,7.63,12.48L916,526.56l-5.48-1.29,11.32-7.18L933.23,511l-1.48,5-13.36-28.7-6.68-14.36-6.61-14.39-13.2-28.78c-2.21-4.8-4.37-9.61-6.54-14.42l-6.52-14.43-.1-.22,0-.15c-1.34-4.43-2.77-8.88-4.21-13.31s-2.9-8.87-4.41-13.28-3-8.82-4.63-13.21l-2.4-6.57-2.46-6.55q-2.49-6.54-5.16-13c-.88-2.16-1.81-4.3-2.73-6.44s-1.87-4.27-2.85-6.39-2-4.23-3-6.31-2.13-4.15-3.21-6.22l-1.7-3-1.8-3c-.61-1-1.27-2-1.9-2.94s-1.36-1.89-2.05-2.85c.76.89,1.54,1.77,2.28,2.68s1.45,1.85,2.14,2.79l2,2.87,2,2.94c1.26,2,2.49,4,3.66,6s2.34,4.08,3.45,6.15c2.26,4.12,4.37,8.32,6.39,12.56s4,8.5,5.91,12.79c3.82,8.58,7.33,17.29,10.75,26,1.69,4.38,3.38,8.76,5,13.18s3.16,8.82,4.67,13.31l-.14-.37,6.93,14.24c2.31,4.74,4.63,9.48,6.9,14.25l13.7,28.55,6.85,14.28L925.41,484l13.53,28.63,1.5,3.17-3,1.88-11.33,7.16L914.76,532l-3.42,2.14-2.07-3.43-15.11-25-7.56-12.52-7.49-12.56-15-25.13c-5-8.36-9.9-16.79-14.86-25.19-2.58-4.33-4.74-8.77-6.85-13.23s-4-9-5.77-13.62-3.42-9.23-4.94-13.91-2.92-9.39-4.1-14.16-2.28-9.56-3.18-14.39-1.69-9.67-2.21-14.54c-.31-2.43-.48-4.88-.72-7.32s-.37-4.88-.42-7.33C820.87,326.84,821,322,821.11,317.08Z"/><polygon class="cls-1" points="704.39 511.8 689.96 501.76 784.63 350.52 749.13 451.9 704.39 511.8"/><polygon class="cls-1" points="755.15 536.98 813.94 656.51 805.13 720.51 747.32 866.43 733.35 866.57 757.64 890.88 757.82 901.26 687.94 901.26 695.43 866.17 683.96 865.44 745.73 699.64 755.15 536.98"/></svg>