<svg id="Capa_3" data-name="Capa 3" xmlns="http://www.w3.org/2000/svg" viewBox="0 0 1300 1000"><defs><style>.cls-1{fill:#fff;}.cls-2{fill:#1e1e1c;}</style></defs><title>1-subject</title><polygon class="cls-1" points="419.39 566.5 425.17 534.67 481.21 593.02 476.76 608.36 419.39 566.5"/><path class="cls-1" d="M532.43,422.3l-1.16,57.83-6.79-19.29v0l-2.33-119.35h0a37.64,37.64,0,0,0-1.7-9.84c.14.42.27.85.38,1.27.07.23.14.47.2.7L528.92,362Z"/><polygon class="cls-1" points="576.03 518.34 570.93 518.18 570.27 518.16 560.2 517.85 557.91 518.23 553.62 518.92 545.38 520.27 547.08 525.11 555.36 524.55 555.69 524.52 555.36 524.55 577.24 523.08 577.23 523.07 577.51 523.06 576.03 518.34"/><path class="cls-1" d="M525.4,508.4l-16.19-1-31.09-1.89s-34.56,2.07-52.11,3.15l-.74,0L424,516.29h0c0,.22-.07.45-.11.67H525.59Z"/><polygon class="cls-1" points="397.52 851.05 380.51 840.37 359.77 830.46 358.07 836.43 363.57 839.55 378.02 847.72 395.35 856.63 395.49 856.7 397.52 851.05"/><polygon class="cls-1" points="583.39 775.63 561.95 774.49 540.95 775.69 540.58 782.14 545.99 782.14 545.99 782.14 582.77 782.14 583.39 775.63"/><polygon class="cls-1" points="405.42 529.37 403.9 533.97 383.99 529.01 382.19 528.53 381.55 528.38 381.54 528.37 374.31 526.48 375.64 521.83 375.66 521.79 385.57 523.33 387.32 523.6 390.99 524.16 401.32 527.89 401.62 528 405.4 529.36 405.42 529.37"/><polygon class="cls-1" points="437.17 438.73 437.17 438.72 440.54 434.35 482.27 379.98 486.66 374.26 489.28 374.26 486.04 380.06 466.82 414.48 435.22 450.27 436.93 440.26 437.17 438.73"/><polyline class="cls-1" points="433.87 443.03 433.89 443.01 433.89 443.01 437.17 438.73"/><path class="cls-2" d="M596.92,654.18c0-.22,0-.43,0-.63,0-.43-.07-.84-.11-1.25,0,0,0,0,0,0a19.87,19.87,0,0,0-.79-3.55c-.12-.4-.26-.77-.4-1.15s-.38-.92-.59-1.37c-.1-.21-.21-.43-.32-.63a1.19,1.19,0,0,1-.08-.16h0L525.69,521.6l-.1-4.62H423.86a44.72,44.72,0,0,0,1,18.91h0a44.53,44.53,0,0,0,10.48,18.63l0,0,1.79,1.71L439,558l0,0,24.82,23.62v0L480.05,597h0l67.5,64.06L541,775.69h0l21-1.2,21.44,1.14,13.39-118.39a.28.28,0,0,0,0-.09c.05-.39.08-.77.11-1.15s0-.79,0-1.19v-.31C596.93,654.39,596.93,654.28,596.92,654.18Zm-46.31,5.93V660l.26,0Z"/><path class="cls-2" d="M525.4,508.4l-16.19-1-31.09-1.89s-34.56,2.07-52.11,3.15l-.74,0h0l9.95-58.43v0l31.6-35.79L486,380.06l3.24-5.8h-2.62L482.27,380l-41.73,54.37-3.37,4.37h0L433.89,443h0l0,0v0L405.4,529.36,401.62,528l-.3-.11L391,524.16l-3.67-.56-1.75-.27-9.91-1.54,0,0-.05.09,28.1-98.81v0h0l.08-.23,1.1-3.21.08-.23h0l.11-.31,46.09-91.7,0-.05A37.19,37.19,0,0,1,485,305.7h.81c.27,0,.53,0,.79,0,.53,0,1.06.06,1.58.1l.78.07c.78.08,1.54.19,2.31.32l.77.14.75.15.75.17c.25.05.5.11.74.18.5.13,1,.26,1.48.41l.72.23.56.18a36.25,36.25,0,0,1,5.66,2.49c.22.11.43.23.65.36s.44.24.64.37c.47.28.93.56,1.39.86l.72.49c.48.34.95.67,1.41,1l.47.36a35.25,35.25,0,0,1,2.84,2.48l.59.58.11.11c.38.38.75.78,1.12,1.19.2.22.39.43.57.65l.56.67c.19.22.37.45.55.69.4.51.8,1,1.17,1.59.28.39.54.79.8,1.19a.53.53,0,0,1,.06.1c.16.23.3.47.45.71s.3.5.44.75.3.51.43.77c.28.52.55,1,.81,1.57.39.79.74,1.6,1.07,2.42h0c.21.55.42,1.1.61,1.66.1.28.2.56.29.84a37.64,37.64,0,0,1,1.7,9.84h0l2.33,119.35v0l-.13-.35h0v0Z"/><path class="cls-2" d="M478.06,603.88,442,728l0,0,0,.12L441,731s0,0,0,0l-.16.49-43.3,119.54-17-10.68-20.74-9.92h0l33.08-116.22,29.4-163.61h0l27.25,29.29Z"/><path class="cls-2" d="M524.94,239.87a32.49,32.49,0,0,1-.39,5.06v0l-.5,2.58-4.94,25.72h0l-.3,1.53a.35.35,0,0,1,0,.14,23.37,23.37,0,0,1-16.06,17.16h0a41.25,41.25,0,0,1-22.26,0h0A23.39,23.39,0,0,1,463.91,272l-4.74-24.24c-.21-.86-.38-1.74-.52-2.62l0-.17h0a32.88,32.88,0,0,1-.4-5.09,33.36,33.36,0,0,1,66.71,0Z"/><polygon class="cls-2" points="403.9 533.97 401.96 554.32 380.28 583.75 380.18 583.71 378.54 583.12 368.01 579.3 368.01 579.29 368 579.29 371.13 542.88 381.54 528.37 381.55 528.38 382.19 528.53 383.99 529.01 403.9 533.97"/><polygon class="cls-2" points="576.03 518.34 570.93 518.18 570.27 518.16 560.2 517.85 557.91 518.23 553.62 518.92 545.38 520.27 531.27 480.15 531.27 480.13 532.43 422.3 528.92 362.03 528.91 361.85 538.98 398.2 542.21 409.88 576.03 518.34"/><polygon class="cls-2" points="439.28 889.41 439.28 901.25 395.35 901.25 350.52 878.84 350.51 878.83 363.57 839.55 378.02 847.72 395.35 856.63 395.49 856.7 405.15 876.05 439.28 889.41"/><polygon class="cls-2" points="624.49 810.71 624.49 822.54 545.99 822.54 545.99 782.14 582.66 782.14 582.77 782.14 590.36 797.34 624.49 810.71"/><polygon class="cls-2" points="587.11 540.07 586.74 576.62 586.16 576.79 586.01 576.83 584.95 577.13 574.18 580.2 574.17 580.2 555.42 548.84 555.41 548.83 555.35 524.59 555.36 524.59 555.7 524.57 577.24 523.08 577.25 523.08 587.11 540.07"/></svg>