<svg id="Capa_1" data-name="Capa 1" xmlns="http://www.w3.org/2000/svg" viewBox="0 0 1300 1000"><defs><style>.cls-1{fill:#262626;}.cls-2{fill:#fff;}</style></defs><title>go-up--second-quadrant</title><path class="cls-1" d="M489,253.41c0,16.57,10.74,30,24,30s24-13.43,24-30-10.75-30-24-30S489,236.85,489,253.41Z"/><path class="cls-1" d="M542.31,529.88s14.49-162-29.19-230.36c-6.93-10.86-24.07-11-30.36,6.92L406.28,529.88l29.94.13,77.64,156,13.66,132.06,14.53-.12-.32,34h69.88l-.19-10.38-25.28-24.66h8L580.79,664.4,516.86,530Z"/><path class="cls-1" d="M496.19,317c-.16,60.35,29.93,110.18,29.93,110.18l61.61,101.35,22.69-14.3L556.63,399.54s-24.47-77.14-45.37-102.22"/><path class="cls-2" d="M496.19,317a225.23,225.23,0,0,0,10.17,57.19,261.1,261.1,0,0,0,10.09,27.17q2.91,6.63,6.15,13.09c2.18,4.28,4.44,8.55,7,12.53C540,443.45,550.23,460,560.5,476.61L568.2,489l7.64,12.47,15.26,25-5.48-1.29L597,518l11.36-7.14-1.48,5-13.37-28.71-6.68-14.35-6.6-14.39L567,429.66c-4.41-9.59-8.71-19.23-13.07-28.85l-.09-.21-.05-.15c-2.71-8.88-5.65-17.76-8.63-26.59s-6.18-17.61-9.49-26.33-6.87-17.35-10.73-25.83c-1.94-4.24-4-8.42-6.22-12.53a91.61,91.61,0,0,0-7.44-11.85c6.22,7,11,15.21,15.53,23.44,2.26,4.13,4.36,8.33,6.39,12.56s4,8.5,5.91,12.79c3.82,8.58,7.33,17.29,10.75,26s6.62,17.55,9.65,26.48l-.14-.36c4.61,9.49,9.27,19,13.83,28.48l13.7,28.55,6.84,14.28,6.77,14.32L614,512.53l1.49,3.16-3,1.88-11.34,7.17-11.37,7.12L586.42,534l-2.07-3.42-15.12-25L561.67,493l-7.48-12.57c-10-16.75-20-33.48-29.84-50.31-2.57-4.33-4.74-8.77-6.84-13.24s-4-9-5.78-13.61a252.17,252.17,0,0,1-9-28.08C497.86,356.17,495.33,336.49,496.19,317Z"/><polygon class="cls-1" points="379.46 511.7 365.03 501.66 459.7 350.41 424.21 451.8 379.46 511.7"/><polygon class="cls-1" points="430.22 536.87 489.02 656.41 480.21 720.41 422.39 866.33 408.43 866.46 432.72 890.77 432.9 901.16 363.02 901.16 370.5 866.06 359.03 865.34 420.81 699.53 430.22 536.87"/></svg>