<svg id="Capa_3" data-name="Capa 3" xmlns="http://www.w3.org/2000/svg" viewBox="0 0 1300 1000"><defs><style>.cls-1{fill:#fff;}.cls-2{fill:#1e1e1c;}</style></defs><title>1-subject</title><polygon class="cls-1" points="93.83 566.5 99.61 534.67 155.66 593.02 151.21 608.36 93.83 566.5"/><path class="cls-1" d="M206.88,422.3l-1.17,57.83-6.79-19.29v0L196.6,341.47h0a37.23,37.23,0,0,0-1.71-9.84c.14.42.27.85.39,1.27.07.23.14.47.2.7l7.9,28.43Z"/><polygon class="cls-1" points="250.47 518.34 245.37 518.18 244.71 518.16 234.64 517.85 232.36 518.23 228.07 518.92 219.82 520.27 221.53 525.11 229.81 524.55 230.14 524.52 229.81 524.55 251.69 523.08 251.68 523.07 251.96 523.06 250.47 518.34"/><path class="cls-1" d="M199.84,508.4l-16.18-1-31.09-1.89s-34.57,2.07-52.11,3.15l-.74,0-1.29,7.57h0c0,.22-.08.45-.11.67H200Z"/><polygon class="cls-1" points="71.97 851.05 54.96 840.37 34.22 830.46 32.52 836.43 38.02 839.55 52.46 847.72 69.8 856.63 69.93 856.7 71.97 851.05"/><polygon class="cls-1" points="257.84 775.63 236.39 774.49 215.4 775.69 215.02 782.14 220.44 782.14 220.44 782.14 257.21 782.14 257.84 775.63"/><polygon class="cls-1" points="79.86 529.37 78.34 533.97 58.43 529.01 56.63 528.53 56 528.38 55.98 528.37 48.76 526.48 50.08 521.83 50.11 521.79 60.02 523.33 61.77 523.6 65.44 524.16 75.76 527.89 76.06 528 79.85 529.36 79.86 529.37"/><polygon class="cls-1" points="111.62 438.73 111.62 438.72 114.98 434.35 156.72 379.98 161.11 374.26 163.72 374.26 160.49 380.06 141.27 414.48 109.67 450.27 111.38 440.26 111.62 438.73"/><polyline class="cls-1" points="108.32 443.03 108.33 443.01 108.33 443.01 111.62 438.73"/><path class="cls-2" d="M271.37,654.18q0-.33,0-.63c0-.43-.07-.84-.12-1.25v0a19.87,19.87,0,0,0-.79-3.55c-.12-.4-.26-.77-.41-1.15a13.79,13.79,0,0,0-.59-1.37c-.1-.21-.2-.43-.31-.63l-.09-.16h0L200.14,521.6,200,517H98.31a44.72,44.72,0,0,0,1,18.91h0a44.53,44.53,0,0,0,10.48,18.63l0,0,1.79,1.71,1.82,1.72,0,0,24.81,23.62,0,0L154.5,597h0L222,661.1l-6.63,114.59h0l21-1.2,21.45,1.14,13.39-118.39a.28.28,0,0,0,0-.09c0-.39.07-.77.11-1.15s0-.79,0-1.19v-.31C271.38,654.39,271.38,654.28,271.37,654.18Zm-46.31,5.93V660l.26,0Z"/><path class="cls-2" d="M199.84,508.4l-16.18-1-31.09-1.89s-34.57,2.07-52.11,3.15l-.74,0h0l9.94-58.43,0,0,31.6-35.79,19.22-34.42,3.24-5.8h-2.62L156.72,380,115,434.35l-3.37,4.37h0L108.33,443h0v0L79.85,529.36,76.06,528l-.3-.11-10.32-3.73-3.67-.56L60,523.33l-9.91-1.54,0,0,0,.09,28.1-98.81v0h0l.08-.23,1.1-3.21.07-.23h0l.11-.31,46.09-91.7s0,0,0-.05a37.18,37.18,0,0,1,33.78-21.62h.82c.27,0,.53,0,.79,0,.53,0,1.06.06,1.58.1l.78.07c.77.08,1.54.19,2.31.32l.77.14.75.15.75.17c.25.05.5.11.74.18.5.13,1,.26,1.48.41l.72.23.56.18a36.14,36.14,0,0,1,5.65,2.49l.66.36.64.37c.47.28.93.56,1.38.86l.73.49c.48.34.95.67,1.41,1l.47.36a37.06,37.06,0,0,1,2.84,2.48l.59.58.11.11c.38.38.75.78,1.11,1.19l.58.65.56.67c.18.22.37.45.54.69.41.51.8,1,1.18,1.59.28.39.54.79.8,1.19a.53.53,0,0,1,.06.1l.45.71c.15.25.3.5.44.75l.43.77c.28.52.55,1,.81,1.57.38.79.74,1.6,1.07,2.42h0c.21.55.42,1.1.61,1.66.1.28.19.56.28.84a37.23,37.23,0,0,1,1.71,9.84h0l2.32,119.35v0l-.12-.35h0l0,0Z"/><path class="cls-2" d="M152.51,603.88,116.44,728a.09.09,0,0,1,0,0l0,.12-1,2.85s0,0,0,0l-.16.49L72,851.05,55,840.37l-20.74-9.92h0L67.29,714.23l29.4-163.61h0L124,579.92Z"/><path class="cls-2" d="M199.38,239.87a33.76,33.76,0,0,1-.38,5.06v0l-.5,2.58-4.95,25.72h0l-.29,1.53a.37.37,0,0,1,0,.14,23.34,23.34,0,0,1-16.05,17.16h0a41.25,41.25,0,0,1-22.26,0h0A23.37,23.37,0,0,1,138.36,272l-4.75-24.24c-.21-.86-.37-1.74-.51-2.62l0-.17h0a32.88,32.88,0,0,1-.4-5.09,33.35,33.35,0,1,1,66.7,0Z"/><polygon class="cls-2" points="78.34 533.97 76.41 554.32 54.73 583.75 54.63 583.71 52.99 583.12 42.45 579.3 42.45 579.29 42.45 579.29 45.57 542.88 55.98 528.37 56 528.38 56.63 528.53 58.43 529.01 78.34 533.97"/><polygon class="cls-2" points="250.47 518.34 245.37 518.18 244.71 518.16 234.64 517.85 232.36 518.23 228.07 518.92 219.82 520.27 205.71 480.15 205.71 480.13 206.88 422.3 203.36 362.03 203.35 361.85 213.43 398.2 216.66 409.88 250.47 518.34"/><polygon class="cls-2" points="113.73 889.41 113.73 901.25 69.79 901.25 24.97 878.84 24.96 878.83 38.02 839.55 52.46 847.72 69.8 856.63 69.93 856.7 79.6 876.05 113.73 889.41"/><polygon class="cls-2" points="298.94 810.71 298.94 822.54 220.44 822.54 220.44 782.14 257.1 782.14 257.21 782.14 264.81 797.34 298.94 810.71"/><polygon class="cls-2" points="261.56 540.07 261.19 576.62 260.61 576.79 260.46 576.83 259.4 577.13 248.62 580.2 248.62 580.2 229.87 548.84 229.86 548.83 229.8 524.59 229.81 524.59 230.15 524.57 251.69 523.08 251.7 523.08 261.56 540.07"/></svg>