<svg id="Capa_3" data-name="Capa 3" xmlns="http://www.w3.org/2000/svg" viewBox="0 0 1300 1000"><defs><style>.cls-1{fill:#fff;}</style></defs><title>handle-money--third-quadrant</title><polygon class="cls-1" points="661.63 544.8 659.82 535.21 676.2 533.54 690.76 534.99 691.51 544.59 688.83 544.7 671.6 544.78 671.6 544.79 669.1 544.8 661.63 544.8"/><path class="cls-1" d="M676.2,536.05l11.93,1.18.3,0,.38,4.83h0v.1l-19.72.09h-5.39l-.93-4.88,9.26-.95,4.16-.42m0-5-.5.05-4.16.43-9.26.94-5.42.56,1,5.35.92,4.88.77,4.07H674.1v0l14.74-.07,5.37,0-.4-5.26h0l0-.2-.37-4.83-.33-4.15-4.15-.43-.3,0-11.94-1.19-.5-.05Z"/><polygon class="cls-1" points="919.46 497.17 926.61 481.53 936.08 468.24 942.27 471.29 945.63 471.63 940.92 479.72 932.22 494.64 928.34 500.99 919.46 497.17"/><path class="cls-1" d="M936.88,471.42l4.52,2.23,0,.06.16,0-2.76,4.73-8.24,14.14-.46.78-2.72,4.45-4.55-1.95,2.15-4.7,1.1-2.39,2.75-6,4.56-6.41.41-.57,3.12-4.38m-1.6-6.36-2.47,3.46-3.12,4.38-.4.56-4.57,6.42-.28.39-.2.43-2.75,6-1.09,2.4-2.15,4.7-2.13,4.65,4.7,2,4.54,2,4,1.71,2.26-3.7,2.73-4.45,0-.05,0,0,.45-.78L943.08,481l2.75-4.72,2.27-3.88.47-.76h0l1.21-2.07-6.79-.68-3.88-1.91-3.81-1.88Z"/><polygon class="cls-1" points="783.01 857.22 784.35 857.22 783.85 850.94 807.55 849.58 831.52 850.95 831.64 862.22 821.63 862.22 785.52 862.24 783.01 857.22"/><path class="cls-1" d="M807.55,852.08,829,853.31l.07,6.41h-7.46l-34.59,0v0h0v-.09l-.5-6.34,21-1.21m0-5h-.28l-21,1.21-5.11.29.41,5.1.09,1H779l3.61,7.24,1.38,2.77h3.1l34.59,0h12.52l-.06-5.05-.07-6.41,0-4.67-4.66-.27-21.49-1.23Z"/><polygon class="cls-1" points="692.71 862.22 691.61 862.22 690.41 862.22 682.77 862.22 682.86 850.93 706.42 849.58 730.49 850.98 729.79 859.91 729.79 862.22 727.29 862.24 692.71 862.22"/><path class="cls-1" d="M706.42,852.08l21.38,1.25-.5,6.39h0v0l-34.58,0h-7.42l.05-6.43,21.08-1.21m0-5h-.29l-21.07,1.21-4.68.27,0,4.68-.05,6.43,0,5h12.49l34.55,0h5V860l.5-6.29.39-5.09-5.09-.29-21.38-1.25Z"/><path class="cls-1" d="M690.82,544.79l.65-3,1.35-9.64,2-.14c5-.35,61.21-3.72,61.77-3.75h.15l64.59,3.93,1.31,9.79.42,2.86Z"/><path class="cls-1" d="M756.76,530.71l62.38,3.8,1,7.67,0,.11H693.91l0-.11,1.08-7.71c5.07-.36,61.75-3.76,61.75-3.76m0-5h-.3c-2.31.14-56.76,3.41-61.8,3.76l-4,.28-.56,4-1,7.53-1.28,6H826l-.81-5.71,0-.1-1-7.63-.55-4.08-4.1-.25-62.38-3.8Z"/><path d="M756.93,315.72A43.17,43.17,0,0,1,745,314.08,25.89,25.89,0,0,1,726.78,292l-5.29-27v-.09a35.38,35.38,0,0,1-.42-5.49,35.88,35.88,0,0,1,71.75,0,35,35,0,0,1-.41,5.36v.09c-.13.9-.31,1.79-.53,2.75L787,293.09v.18l-.08.25-.24,1.24a3,3,0,0,1-.11.49,25.83,25.83,0,0,1-17.75,18.84,33.19,33.19,0,0,1-3.43.82A44.71,44.71,0,0,1,756.93,315.72Z"/><path class="cls-1" d="M756.93,226.07a33.37,33.37,0,0,1,33.38,33.37,32.62,32.62,0,0,1-.39,5.07h0c-.13.88-.3,1.74-.5,2.59l-4.95,25.74a.2.2,0,0,1,0,.07l-.27,1.42a.59.59,0,0,1-.05.19,23.35,23.35,0,0,1-16.06,17.16,30.79,30.79,0,0,1-3.19.76,42,42,0,0,1-8,.77,40.39,40.39,0,0,1-11.13-1.53,23.4,23.4,0,0,1-16.54-20v0l-4.8-24.5-.5-2.54v-.08a32.91,32.91,0,0,1-.39-5.1,33.37,33.37,0,0,1,33.37-33.37m0-5A38.44,38.44,0,0,0,719,265.24h0l0,.17,0,.17.5,2.54,4.75,24.25a28.41,28.41,0,0,0,20,24.1,45.88,45.88,0,0,0,12.59,1.74,47.54,47.54,0,0,0,8.92-.86,37.72,37.72,0,0,0,3.69-.88A28.35,28.35,0,0,0,789,295.9a6.74,6.74,0,0,0,.17-.71l.23-1.23.06-.34,4.9-25.46c.23-1,.41-2,.55-2.91l.06-.36h0a37.59,37.59,0,0,0,.39-5.45,38.42,38.42,0,0,0-38.38-38.37Z"/><polygon points="706.42 854.59 682.82 855.94 683.87 725.7 687.25 611.21 690.73 547.03 691.74 539.79 822.38 539.79 823.36 547.03 826.93 611.14 830.22 725.64 831.57 855.96 807.55 854.59 784.25 855.93 773.72 725.02 758.63 599.86 755.23 599.86 740.38 725.12 730.1 855.97 706.42 854.59"/><path class="cls-1" d="M820.2,542.29l.67,5,3.56,64,3.29,114.43L829,853.31l-21.49-1.23-21,1.21L776.22,724.82,760.84,597.36H753L737.89,724.82,727.8,853.33l-21.38-1.25-21.08,1.21,1-127.58,3.38-114.43,3.47-64,.69-5H820.2m4.37-5h-135l-.6,4.31-.69,5,0,.21V547l-3.47,64v.12l-3.39,114.44v.1l-1,127.58,0,5.34,5.33-.31,20.79-1.19,21.09,1.23,4.89.29.39-4.89,10.08-128.41,14.07-118.59,14.3,118.6,10.32,128.37.39,4.87,4.88-.28,20.72-1.19,21.21,1.22,5.34.3-.06-5.35-1.32-127.6v-.09l-3.29-114.43V611l-3.56-64v-.19l0-.19-.67-5-.58-4.33Z"/><polygon points="645.33 583.68 666.6 541.69 666.6 539.81 667.55 539.8 667.55 539.8 692.02 539.68 691.19 543.06 686.32 563.18 685.82 563.68 658.92 591.16 645.33 583.68"/><path class="cls-1" d="M688.82,542.2v0l0,.06,0,.19-.9,3.75-3.8,15.68h0l-25.58,26.13-9.8-5.39L669,542.47l.08-.17h0l19.72-.09h0m0-5h0l-19.74.09h-5v3.78L644.19,580.4,642,584.71l4.24,2.33,9.8,5.39,3.33,1.84,2.66-2.72,25.58-26.13,1-1,.33-1.34,3.8-15.69.9-3.74,0-.2v0l1.55-6.21-6.4,0Z"/><polygon points="729.8 857.22 729.8 900 645.69 900 645.69 886.45 681 872.8 687.91 859.12 687.91 857.22 690.42 857.22 692.73 857.23 724.91 857.24 727.3 857.22 729.8 857.22"/><path class="cls-1" d="M722.3,854.72v0H690.43l-5,0v3.82l-4.66,9.23-1.55,3.06-5.86,2.27-27,10.42-3.2,1.24V900h5V888.16l26.95-10.42,7.65-3,2.42-4.78,5.19-10.27h36.9V900h5V854.72Z"/><path d="M644.72,455.3l0-.15v0l-.06-.34-.19-.19s0-.89,0-.9l-.06-.45a21.43,21.43,0,0,1-.09-4.38c0-.25.05-.55.08-.85.07-.53.15-1.07.25-1.59h-.31l1.29-3.48.13-.35h0l30.42-83.29.12-.3a44.41,44.41,0,0,1,3.49-7.14c.39-.66.79-1.28,1.22-1.9l.5-.75c.18-.26.37-.51.55-.76s.39-.54.61-.82l2.08,1.4-2-1.52.14-.18c.48-.61,1-1.24,1.53-1.86a41.93,41.93,0,0,1,3.66-3.76l.13-.14,0,0,.56-.52c.12-.11.29-.27.51-.45s.43-.38.7-.61l.66-.54c.13-.11.31-.26.5-.4l1-.78.16-.12.37-.28,1-.74.32-.23c.54-.39,1.12-.79,1.73-1.19s1-.65,1.5-1l.78-.49,1.24-.76c.41-.25.87-.51,1.33-.77l1.38-.78c.72-.39,1.47-.8,2.24-1.19,1.61-.83,3.28-1.63,5-2.38l.9-.39c.89-.38,1.82-.77,2.77-1.15l.78-.3.42-.25h.23l2.13-.78c.49-.18,1-.35,1.48-.51.83-.29,1.72-.58,2.61-.85l.53-.17,1.2-.35,1.52-.43c.5-.15,1-.29,1.58-.42l1.55-.4,1.61-.38,1.65-.37,1.72-.35c1.63-.33,3.35-.64,5.1-.91l.29,0,1.69-.24,1.84-.24q.91-.12,1.86-.21l2-.2,1.92-.16c2-.16,4.07-.27,6.09-.32,1.34,0,2.76-.07,4.21-.07s2.95,0,4.35.07,2.6.09,3.87.16a3.91,3.91,0,0,1,.49,0c1.21.06,2.48.16,3.89.28l2,.19,1.93.21c.5.06,1,.11,1.44.18l1.37.18c.2,0,.48.06.75.11l.31.05h.23l.2.06c1,.14,2,.3,2.93.48a2.73,2.73,0,0,1,.39.07c1.1.2,2.18.4,3.24.62l1.65.36,1.65.38c.55.12,1.08.26,1.61.39l1.2.31,2.38.66,1.06.31.27.08,1.56.49c1.08.34,2.22.72,3.47,1.17,1,.36,2,.71,2.88,1.08l1,.38c.83.33,1.66.68,2.48,1l.74.33.21.09.83.38,1.46.7,1.08.52c2.33,1.16,4.59,2.42,6.71,3.73.68.41,1.33.84,1.95,1.25l.35.23c.73.49,1.47,1,2.13,1.49l.14.1h0l.94.72c.25.19.48.36.7.54l.38.3.25.2.07.06c.23.19.45.36.65.54l.57.49.49.44a5,5,0,0,1,.46.43l.36.34a43.75,43.75,0,0,1,3.67,3.8c.53.62,1,1.24,1.55,1.88s.9,1.2,1.37,1.88c.18.26.39.55.58.85s.41.61.6.91c.4.64.81,1.33,1.24,2.11.2.35.4.72.6,1.1s.52,1,.77,1.54.38.83.56,1.25l.24.52,33.36,69.9,1.71,3.57,4,8.33,64.58,31.79L931,484l-6.91,15.1L850.94,467.9c-.34-.15-.64-.3-.93-.44s-.63-.32-.91-.49-.62-.35-.91-.54-.53-.34-.82-.53q-.84-.58-1.62-1.23c-.56-.48-1-.94-1.51-1.4l-.64-.68a24.18,24.18,0,0,1-2.21-2.89l-.2-.31h-.06l-.7-1.37-8.28-16.24-15.34-30L814,406.35,812.85,469,822,537.19l-65.27-4c-3.25.19-56.7,3.4-61.57,3.74l-3.08.21L701.62,469l-.21-11.09-.09-4.47-.86-44.54-15.67,49.16.19,2.54,6.16,79.16h-2.83l-12.1-1.2-15.46,1.58Z"/><path class="cls-1" d="M756.82,321.33c1.45,0,2.87,0,4.27.07s2.61.09,3.87.16a2.11,2.11,0,0,1,.36,0c1.32.07,2.61.17,3.88.28l1.93.19,1.9.21c.46.05.92.1,1.38.17l1.36.18c.22,0,.43.05.65.09l.56.09h.08c1.05.16,2.08.33,3.1.51l.19,0q1.68.3,3.3.63l1.64.35,1.61.37,1.58.39,1.15.3,1.12.3,1.1.31,1.13.33c.61.19,1.2.36,1.78.56,1.18.36,2.31.75,3.41,1.14s1.89.69,2.8,1.05l.93.37c.83.33,1.63.67,2.42,1l.79.35.09,0,.86.39,1.25.59,1.22.6c2.47,1.23,4.64,2.45,6.51,3.62.67.4,1.3.81,1.89,1.2l.25.17c.78.52,1.49,1,2.13,1.48l.79.59h0c.34.25.65.49.94.72l.43.34.13.11c.26.2.5.4.71.58l.52.46a6,6,0,0,1,.5.44,4.38,4.38,0,0,1,.37.34l.14.14a.55.55,0,0,1,.11.1.23.23,0,0,1,.07.07h0l.05,0h0a42.85,42.85,0,0,1,3.5,3.63c.51.59,1,1.19,1.48,1.8s.87,1.15,1.28,1.75c.19.27.38.54.56.82s.38.56.55.84c.42.66.81,1.33,1.19,2,.19.34.38.68.55,1s.5,1,.74,1.48.38.8.55,1.21l.21.46h0v0l33.76,70.73h0l1.33,2.79h0l4.34,9.11h0l4.19,2.06,2.36,1.16,56.17,27.64-3.12,4.38-.41.57-4.56,6.41-2.75,6-1.1,2.39-2.15,4.7-70.24-30-.63-.27-.82-.39c-.27-.14-.53-.27-.79-.42s-.52-.3-.77-.46l-.75-.49c-.5-.35-1-.71-1.44-1.09s-.9-.8-1.33-1.23l-.55-.6a20.36,20.36,0,0,1-2-2.59h0c-.3-.47-.57-.95-.83-1.44h0l-6.42-12.6-1.86-3.64-1.8-3.52L819,410.66l-3.3-6.45h0l-1.49-2.9h-2.61l-.25,13.52,0,.73-.71,37.86-.11,6.06-.19,9.71,8.8,65.35-62.38-3.8s-56.68,3.4-61.75,3.76l9.12-65.32-.22-11.29-.09-4.47-.72-37.64-.28-14.29h-2.61l-3.54,11.1-7.8,24.49-3.65,11.45h0l-1.56,4.89-1.33,4.16-.07.22.22,2.92h0l6,76.57h0l-.3,0-11.93-1.18-4.16.42-9.26.95-15.59-82.51a.43.43,0,0,0,0-.05l-.25-1.31v0a.51.51,0,0,1,0-.13c0-.14,0-.28-.06-.42a19.73,19.73,0,0,1-.09-3.91c0-.25,0-.5.07-.75.07-.49.14-1,.23-1.47s.21-1,.34-1.43c.07-.24.14-.48.22-.71s.17-.52.27-.79h0l.09-.25,30.15-82.54.38-1a.85.85,0,0,1,.06-.17,42.37,42.37,0,0,1,3.32-6.8c.36-.61.74-1.2,1.14-1.78l.51-.75c.16-.24.35-.49.53-.73s.35-.49.53-.73l.2-.25c.49-.62,1-1.22,1.49-1.81a43.83,43.83,0,0,1,3.49-3.59h0l0,0,.06,0,.06-.06.51-.48.48-.43c.2-.18.42-.37.68-.58l.65-.53c.13-.12.27-.23.41-.34.31-.25.64-.5,1-.77.15-.12.3-.24.46-.35l1-.76.06,0c.58-.43,1.22-.86,1.9-1.32.46-.31.93-.62,1.44-.94l.77-.48c.39-.25.79-.49,1.21-.74s.84-.5,1.28-.74.89-.51,1.35-.76c.7-.39,1.43-.78,2.18-1.17,1.5-.77,3.1-1.55,4.83-2.31l.86-.38c.89-.38,1.8-.76,2.73-1.12l.94-.37,0,0,2.51-.92,1.42-.49c.83-.29,1.69-.56,2.56-.83l.52-.17,1.18-.34c.49-.15,1-.29,1.48-.42s1-.28,1.52-.41l1.55-.39,1.58-.38,1.62-.36,1.65-.34c1.64-.33,3.34-.63,5.09-.9h.1l1.74-.25,1.82-.24,1.85-.21,1.88-.19,1.92-.16c1.93-.15,3.91-.26,5.95-.31,1.35,0,2.74-.07,4.14-.07m0-5c-1.46,0-2.91,0-4.31.07-2,.05-4.13.16-6.18.33l-1.94.16h-.26l-1.69.17h-.07l-1.92.22-1.86.25-1.66.23a2.57,2.57,0,0,0-.4.06c-1.77.27-3.52.58-5.19.92l-1.69.35h-.07l-.69.16c-.32.07-.63.13-.94.21l-.09,0c-.53.12-1.07.24-1.59.38s-1.07.26-1.58.4-1.1.28-1.65.44-1,.28-1.54.44l-.59.17-.57.17h-.05l-.26.08-.25.08c-1,.32-1.91.61-2.73.89-.49.16-1,.33-1.5.52s-1.15.41-1.71.62h-.49l-.85.51-.55.22c-1,.39-2,.78-2.87,1.19l-.48.21-.37.15,0,0,0,0c-1.73.76-3.44,1.58-5.11,2.44-.82.42-1.62.86-2.28,1.22l-1.43.8c-.47.27-.93.53-1.38.81s-.87.52-1.29.79l-.77.48c-.48.3-1,.63-1.56,1s-1,.66-1.41,1h0l-.58.43-.1.06c-.37.28-.73.53-1.06.79l-.38.28-.12.09-1,.81c-.19.14-.37.29-.56.46s-.47.37-.68.55-.54.46-.76.66-.39.33-.55.49l-.4.37-.07,0-.28.28a50.35,50.35,0,0,0-3.81,3.92c-.56.66-1.1,1.32-1.61,2l-.15.19,0,.05-.05.07c-.22.29-.44.58-.65.88h0c-.2.26-.4.54-.58.81l-.54.78c-.44.66-.87,1.32-1.29,2a48.65,48.65,0,0,0-3.67,7.5c0,.13-.1.26-.14.39l-.34.92-29.86,81.73h0l-.32.91,0,.11-2.54,6.76h1.09a24,24,0,0,0,.12,4.63c0,.12,0,.23,0,.34v1.77l.38.37,15.56,82.33.85,4.51,4.57-.47,9.26-.94,3.66-.38,11.43,1.14.28,0,.26,0h5.66l-.21-2.69,1.73-.12c4.8-.33,56.93-3.46,61.4-3.73l62.08,3.78,6.07.37-.81-6-8.75-65,.18-9.33.11-6.05.7-37.13,11.79,23.05,1.8,3.51,1.85,3.64,6.42,12.6.29.56v.09l.21.33.89,1.75h.27a26.09,26.09,0,0,0,1.88,2.37c.22.24.44.48.66.7l0,0,0,0c.5.52,1,1,1.66,1.54s1.19.95,1.82,1.39c.33.22.64.43.95.62s.63.39,1,.58.63.35,1,.51l0,0,0,0,1,.46h0l0,0,.64.26,70.24,30,4.48,1.91,2-4.43,2.15-4.7,1.09-2.4,2.56-5.56,4.29-6,.4-.55,3.12-4.4,3.42-4.79-5.28-2.59-56.17-27.65-2.36-1.16-2.64-1.3-3.6-7.54-.38-.82h0l-.94-2-1.36-2.85h0l-32.33-67.76c-.08-.18-.16-.36-.25-.54-.17-.4-.36-.82-.59-1.31s-.53-1.07-.8-1.6l-.65-1.21c-.44-.78-.87-1.51-1.31-2.21l-.62-.93c-.2-.31-.41-.62-.63-.92-.49-.72-1-1.36-1.43-2s-1.08-1.35-1.62-2a49.61,49.61,0,0,0-3.84-4l-.17-.16-.12-.11-.06-.06a6.27,6.27,0,0,0-.53-.49,7,7,0,0,0-.55-.49l-.09-.08h0l-.25-.22-.18-.15c-.23-.21-.45-.38-.68-.57l-.13-.11-.31-.24-.1-.08-.24-.2-.73-.55-.26-.21-1.35-1h-.06L820,333.31l-.37-.25c-.75-.49-1.39-.9-2-1.28-2.15-1.34-4.48-2.63-6.89-3.83-.4-.21-.82-.41-1.26-.62l-1.29-.61h-.05l-.84-.38-.24-.11-.76-.34c-.82-.36-1.67-.72-2.54-1.06l-1-.4c-.82-.32-1.76-.68-2.92-1.09s-2.43-.85-3.57-1.2c-.53-.18-1.07-.34-1.62-.51l-.24-.07-1.14-.34h-.06l0,0h0l-.49-.14-.61-.17-.53-.15-.62-.17-.81-.21-.37-.09-1.7-.42-1.34-.3-.28-.07h-.08l-.71-.15-1-.2c-1-.21-2-.41-3.24-.63l-.5-.09c-1-.18-2-.35-3-.49l-.36-.05-.18,0-.15,0c-.28,0-.57-.09-.85-.12l-1.3-.18-1.48-.18-1.93-.21h-.06l-1.9-.18h-.06c-1.42-.12-2.71-.22-3.92-.28-.2,0-.4,0-.6,0-1.28-.07-2.59-.12-3.89-.16s-2.92-.07-4.42-.07Zm-66.6,132.94,3.41-10.7,4.63-14.51.56,29.43.09,4.48.21,10.88-7.06,50.55-4.58-59v-.14l-.15-1.94,1.1-3.45L690,450l.24-.74Z"/><polygon points="868.11 886.46 868.11 900 784.57 900 784.57 857.24 821.65 857.23 826.44 857.21 826.44 859.14 833.27 872.81 868.11 886.46"/><path class="cls-1" d="M867.43,883.51l-23.87-9.35-8.48-3.33-6.14-12.28v-3.84H782.07V900h5V859.74h36.87l5.28,10.57,2.24,4.48,10.28,4,23.87,9.35V900h5V884.75Z"/><polygon points="947.78 508.52 926.73 494.13 928.36 491.34 939.02 473.04 939.02 471.03 941.71 471.23 960.41 472.63 992.66 495.28 991.76 497.08 990.18 501.56 988.11 507.41 986.87 510.98 947.78 508.52"/><path class="cls-1" d="M941.52,473.72l18,1.35,29.93,21h0l-1.63,4.62-.72,2-1.36,3.84,0,.07-.6,1.72-36.5-2.3-18.57-12.68.46-.78,8.24-14.14,2.76-4.73h0m-5-5.39v4l-2.08,3.58-8.24,14.14-.45.77-2.35,4,3.84,2.63,18.56,12.69,1.14.78,1.37.08,36.5,2.3,3.79.24,1.25-3.58.6-1.72v-.09l1.34-3.8.72-2,1.53-4.34,1.78-3.57L992.34,492l-29.93-21-1.13-.79-1.37-.1-18-1.35-5.38-.41Z"/><rect class="cls-1" x="959.62" y="475.6" width="63.04" height="29.13" transform="translate(-56.3 844.41) rotate(-45)"/><path d="M949.59,501.22l30.49,30.49,52.62-52.61-30.5-30.5Zm74.14-23.05-44.58,44.58-20.6-20.6,44.58-44.58Z"/><path d="M1001.13,500a14.12,14.12,0,1,1,0-20A14.14,14.14,0,0,1,1001.13,500ZM985,483.93a8.63,8.63,0,1,0,12.2,0A8.64,8.64,0,0,0,985,483.93Z"/></svg>