<svg id="Capa_3" data-name="Capa 3" xmlns="http://www.w3.org/2000/svg" viewBox="0 0 1300 1000"><defs><style>.cls-1{fill:#fff;}.cls-2{fill:#1e1e1c;}</style></defs><title>1-subject</title><polygon class="cls-1" points="43.81 544.55 24.09 544.64 24.09 544.65 18.7 544.65 17.77 539.76 27.04 538.82 31.19 538.4 43.12 539.58 43.42 539.61 43.8 544.44 43.8 544.45 43.81 544.55"/><polygon class="cls-1" points="285.06 495.72 285.51 494.95 293.75 480.8 296.51 476.08 296.35 476.06 296.39 476 291.87 473.77 288.75 478.15 288.34 478.72 283.78 485.13 281.03 491.13 279.94 493.52 277.78 498.23 282.33 500.18 285.06 495.72"/><polygon class="cls-1" points="142.05 862.09 176.64 862.07 178.92 862.06 178.92 862.07 184.1 862.07 184.03 855.66 162.54 854.43 141.54 855.64 142.04 861.98 142.05 862.07 142.04 862.07 142.05 862.09"/><polygon class="cls-1" points="82.79 855.68 82.29 862.06 82.28 862.06 82.28 862.09 47.7 862.07 45.4 862.06 45.4 862.07 40.28 862.07 40.33 855.64 61.41 854.43 82.79 855.68"/><path class="cls-1" d="M175.18,544.64H48.9l0-.11L50,536.81c5.07-.35,61.75-3.75,61.75-3.75l62.38,3.8,1,7.67Z"/><path class="cls-2" d="M79,264l.5,2.53C79.25,265.68,79.08,264.84,79,264Z"/><path class="cls-2" d="M145.3,258.79a32.62,32.62,0,0,1-.39,5.07h0c-.13.88-.3,1.74-.5,2.59l-4.95,25.74a.2.2,0,0,1,0,.07l-.27,1.42a.59.59,0,0,1-.05.19A23.35,23.35,0,0,1,123.07,311a30.79,30.79,0,0,1-3.19.76,42,42,0,0,1-8,.77A40.39,40.39,0,0,1,100.79,311a23.4,23.4,0,0,1-16.54-20v0l-4.8-24.5L79,264v-.08a32.91,32.91,0,0,1-.39-5.1,33.38,33.38,0,0,1,66.75,0Z"/><path class="cls-2" d="M139.18,293.69l0,.19h0A1.05,1.05,0,0,0,139.18,293.69Z"/><polygon class="cls-2" points="184.03 855.66 162.54 854.43 141.54 855.64 131.21 727.17 115.83 599.71 108 599.7 108 599.71 92.88 727.17 82.79 855.68 61.41 854.43 40.33 855.64 41.36 728.06 44.74 613.63 48.21 549.62 48.9 544.64 175.19 544.64 175.86 549.62 179.42 613.63 182.71 728.06 184.03 855.66"/><polygon class="cls-2" points="43.81 544.55 43.81 544.58 43.79 544.64 43.74 544.83 42.84 548.57 39.04 564.26 39.03 564.27 13.45 590.4 3.65 585.01 24 544.82 24.08 544.65 24.09 544.65 24.09 544.64 43.81 544.55 43.81 544.55"/><polygon class="cls-2" points="82.29 862.06 82.29 902.35 3.18 902.35 3.18 890.51 30.13 880.09 37.78 877.13 40.19 872.35 45.39 862.07 45.4 862.07 45.4 862.06 47.7 862.07 82.28 862.09 82.28 862.06 82.29 862.06"/><path class="cls-2" d="M291.87,473.77l-3.12,4.38-.41.57-4.56,6.41-2.75,6-1.09,2.39-2.16,4.71-70.24-30-.63-.27-.82-.38-.79-.42c-.26-.15-.52-.3-.77-.46l-.75-.49c-.5-.35-1-.71-1.44-1.1s-.9-.8-1.33-1.23l-.55-.59a21.09,21.09,0,0,1-2-2.59h0c-.3-.46-.57-.94-.83-1.43h0l-6.42-12.6L189.37,443l-1.8-3.52L174,413l-3.3-6.45h0v0l-1.49-2.89h-2.61l-.25,13.52,0,.73-.71,37.86-.11,6.06-.19,9.7,8.8,65.36-62.38-3.8s-56.68,3.4-61.75,3.75l9.12-65.31-.22-11.29-.09-4.47-.72-37.64-.28-14.3h-2.6l-3.55,11.11-7.8,24.49-3.65,11.44h0l-1.56,4.89-1.33,4.16-.07.22.22,2.91h0l6,76.57h0l-.3,0L31.19,538.4l-4.15.42-9.27.95L2.18,457.26a.43.43,0,0,0,0-.05l-.25-1.31v0a.51.51,0,0,1,0-.13l-.06-.42a19.09,19.09,0,0,1-.08-3.92c0-.24,0-.5.06-.74.07-.49.14-1,.24-1.47s.2-1,.33-1.44c.07-.23.14-.47.22-.7s.18-.53.27-.79h0L3,446l30.15-82.54.38-1a1.77,1.77,0,0,1,.06-.17,42.68,42.68,0,0,1,3.32-6.79c.36-.61.74-1.2,1.14-1.78l.51-.75.53-.73.53-.73.2-.25c.49-.62,1-1.22,1.5-1.82a42.12,42.12,0,0,1,3.49-3.58h0l0,0,.06-.05.06-.06.51-.48.48-.43.68-.59.65-.53a4.71,4.71,0,0,1,.42-.33c.3-.25.63-.5,1-.77.15-.12.3-.24.47-.36l1-.75.06,0c.58-.43,1.22-.87,1.91-1.32.45-.31.93-.62,1.43-.94l.77-.48c.39-.25.79-.49,1.21-.74l1.28-.75,1.35-.76,2.18-1.16c1.5-.77,3.11-1.55,4.83-2.31l.87-.38c.88-.38,1.79-.76,2.72-1.13l.94-.37h0c.82-.31,1.65-.62,2.51-.92l1.42-.5c.83-.28,1.69-.56,2.56-.83l.52-.16,1.18-.34,1.48-.43,1.52-.4,1.55-.4,1.58-.37,1.62-.36,1.65-.34c1.64-.33,3.34-.63,5.09-.9l.1,0,1.74-.24c.6-.09,1.21-.16,1.82-.24l1.85-.22,1.88-.18,1.92-.16c1.93-.16,3.91-.26,6-.32,1.35,0,2.74-.07,4.14-.07s2.87,0,4.27.07,2.61.1,3.87.16a2.1,2.1,0,0,1,.36,0c1.32.07,2.61.17,3.88.28l1.93.19,1.9.2,1.38.17,1.36.19c.22,0,.43.05.65.09l.57.08h.07c1.06.16,2.09.33,3.1.51l.19,0q1.68.3,3.3.63l1.64.35,1.61.37c.53.12,1.05.25,1.58.39.38.1.77.19,1.15.3l1.12.3,1.1.31,1.13.33c.61.18,1.2.36,1.78.55,1.18.37,2.31.76,3.41,1.15s1.89.69,2.8,1.05l.93.37c.83.33,1.63.67,2.42,1l.79.35.09,0,.86.39,1.26.59,1.21.59c2.47,1.23,4.64,2.46,6.51,3.62.67.41,1.3.82,1.89,1.21a2.2,2.2,0,0,1,.25.17c.78.52,1.5,1,2.13,1.48l.79.59h0l.93.72.43.34.13.11c.26.2.5.4.71.58l.52.45a6,6,0,0,1,.5.45,4.38,4.38,0,0,1,.37.34l.14.14a.36.36,0,0,1,.11.1l.08.06h0l0,.05h0a42.73,42.73,0,0,1,3.5,3.62c.51.6,1,1.2,1.49,1.81s.86,1.15,1.27,1.74c.19.27.39.55.56.83s.38.56.56.84c.41.66.8,1.32,1.18,2,.19.34.38.68.55,1,.26.5.5,1,.74,1.49s.38.8.55,1.2l.21.47h0v0L223.46,431h0l1.33,2.79h0l4.34,9.11h0l4.19,2.06,2.36,1.16Z"/><polygon class="cls-2" points="220.6 890.51 220.6 902.35 142.05 902.35 142.05 862.09 176.64 862.07 178.92 862.06 178.92 862.07 184.21 872.65 186.45 877.13 196.72 881.16 220.6 890.51"/><polygon class="cls-2" points="344.45 498.44 344.45 498.45 342.82 503.07 342.1 505.08 340.74 508.92 340.72 508.99 340.12 510.71 303.62 508.41 285.06 495.72 285.51 494.95 293.75 480.8 296.51 476.08 296.51 476.08 296.51 476.07 314.52 477.42 344.45 498.44"/></svg>