<svg id="Capa_1" data-name="Capa 1" xmlns="http://www.w3.org/2000/svg" viewBox="0 0 1300 1000"><defs><style>.cls-1,.cls-2{fill:#fff;}.cls-1,.cls-2,.cls-3{stroke:#262626;stroke-miterlimit:10;}.cls-1,.cls-3{stroke-width:10px;}.cls-2{stroke-linecap:round;stroke-width:8px;}.cls-3{fill:none;}.cls-4{fill:#262626;}</style></defs><title>handle-document--third-quadrant</title><path class="cls-1" d="M1008.09,477.38l-74.27-11.72a4.34,4.34,0,0,1-3.61-5l15.68-99.37a4.34,4.34,0,0,1,5-3.61l51.27,8.09a4.36,4.36,0,0,1,2.83,1.72l19.39,26.54a4.35,4.35,0,0,1,.78,3.24l-12.07,76.47A4.34,4.34,0,0,1,1008.09,477.38Z"/><line class="cls-2" x1="953.85" y1="397.67" x2="1008.53" y2="406.3"/><line class="cls-2" x1="951.79" y1="411.13" x2="1006.47" y2="419.76"/><line class="cls-2" x1="949.69" y1="424.42" x2="1004.37" y2="433.05"/><line class="cls-2" x1="947.43" y1="437.68" x2="978.25" y2="442.54"/><path class="cls-3" d="M1023.67,395.24l-19.32-3.05a4.35,4.35,0,0,1-3.62-5l3.3-20.87"/><path class="cls-4" d="M951.75,459.85l7.15-17.21-78.57-46.76C832.06,286.77,772.28,293.66,772.28,293.66c-83.83,0-109.12,125.41-109.12,125.41l40.44,72.82-7.41,39h13.36L680.8,865.46h12.11L663.3,891v9.55h68.89l-.33-34.07,13.34,0,25.68-317.3,25.92,317.3,14.08,0-.13,34.07h69.88l-.18-10.38-25.28-24.66h8L834.42,531.15l13.15,0-32.5-177.67,43.42,65.14ZM710,458.3,693.7,415.68l36.14-62Z"/><ellipse class="cls-4" cx="772.37" cy="252.81" rx="24" ry="30"/></svg>