<svg id="Capa_3" data-name="Capa 3" xmlns="http://www.w3.org/2000/svg" viewBox="0 0 1300 1000"><defs><style>.cls-1{fill:#fff;}.cls-2{fill:#1e1e1c;}</style></defs><title>1-subject</title><polygon class="cls-1" points="688.82 543.15 669.1 543.24 669.1 543.25 663.71 543.25 662.78 538.37 672.04 537.42 676.2 537 688.13 538.19 688.43 538.22 688.81 543.04 688.81 543.05 688.82 543.15"/><polygon class="cls-1" points="930.06 494.33 930.52 493.55 938.76 479.41 941.52 474.68 941.36 474.67 941.4 474.61 936.88 472.38 933.76 476.76 933.35 477.33 928.79 483.74 926.04 489.74 924.95 492.13 922.79 496.83 927.34 498.79 930.06 494.33"/><polygon class="cls-1" points="787.06 860.69 821.65 860.68 823.93 860.67 823.93 860.68 829.11 860.68 829.04 854.27 807.55 853.04 786.55 854.24 787.05 860.59 787.06 860.68 787.05 860.68 787.06 860.69"/><polygon class="cls-1" points="727.8 854.28 727.3 860.67 727.29 860.67 727.29 860.69 692.71 860.68 690.41 860.67 690.41 860.68 685.29 860.68 685.34 854.24 706.42 853.04 727.8 854.28"/><path class="cls-1" d="M820.19,543.24H693.91l0-.1,1.08-7.72c5.07-.35,61.75-3.75,61.75-3.75l62.38,3.8,1,7.67Z"/><path class="cls-2" d="M724,262.58l.5,2.54C724.26,264.29,724.09,263.44,724,262.58Z"/><path class="cls-2" d="M790.31,257.4a32.62,32.62,0,0,1-.39,5.07h0c-.13.88-.3,1.74-.5,2.59l-4.95,25.74a.2.2,0,0,1,0,.07l-.27,1.42a.59.59,0,0,1-.05.19,23.35,23.35,0,0,1-16.06,17.16,30.79,30.79,0,0,1-3.19.76,42,42,0,0,1-8,.77,40.39,40.39,0,0,1-11.13-1.53,23.4,23.4,0,0,1-16.54-20v0l-4.8-24.5-.5-2.54v-.08a32.91,32.91,0,0,1-.39-5.1,33.38,33.38,0,0,1,66.75,0Z"/><path class="cls-2" d="M784.19,292.3l0,.19h0A1.05,1.05,0,0,0,784.19,292.3Z"/><polygon class="cls-2" points="829.04 854.27 807.55 853.04 786.55 854.24 776.22 725.78 760.84 598.32 753.01 598.31 753.01 598.32 737.89 725.78 727.8 854.28 706.42 853.04 685.34 854.24 686.37 726.67 689.75 612.24 693.22 548.22 693.91 543.24 820.2 543.24 820.87 548.22 824.43 612.24 827.72 726.67 829.04 854.27"/><polygon class="cls-2" points="688.82 543.15 688.82 543.18 688.8 543.24 688.75 543.44 687.85 547.18 684.05 562.87 684.04 562.87 658.46 589.01 648.65 583.61 669.01 543.42 669.09 543.25 669.1 543.25 669.1 543.24 688.82 543.15 688.82 543.15"/><polygon class="cls-2" points="727.3 860.67 727.3 900.95 648.19 900.95 648.19 889.12 675.13 878.69 682.79 875.74 685.2 870.95 690.4 860.68 690.41 860.68 690.41 860.67 692.71 860.68 727.29 860.69 727.29 860.67 727.3 860.67"/><path class="cls-2" d="M936.88,472.38l-3.12,4.38-.41.57-4.56,6.41-2.75,6-1.1,2.39-2.15,4.7-70.24-30-.63-.27-.82-.38-.79-.43c-.26-.14-.52-.3-.77-.46s-.5-.32-.75-.49c-.5-.35-1-.71-1.44-1.09s-.9-.8-1.33-1.23l-.55-.59a21.09,21.09,0,0,1-2-2.59h0c-.3-.46-.57-.95-.83-1.44h0l-6.42-12.6-1.86-3.64-1.8-3.52L819,411.62l-3.3-6.46h0v0l-1.49-2.9h-2.61l-.25,13.52,0,.73-.71,37.86-.11,6.06-.19,9.71,8.8,65.36-62.38-3.8s-56.68,3.4-61.75,3.75l9.12-65.32-.22-11.28-.09-4.48-.72-37.64-.28-14.29h-2.61l-3.54,11.11L688.87,438l-3.65,11.45h0l-1.56,4.88-1.33,4.16-.07.23.22,2.91h0l6,76.57h0l-.3,0L676.2,537l-4.16.43-9.26.94-15.59-82.5s0,0,0-.06l-.25-1.3v0a.59.59,0,0,1,0-.14c0-.13,0-.27-.06-.42a19.73,19.73,0,0,1-.09-3.91c0-.25,0-.5.07-.75.07-.49.14-1,.23-1.46s.21-1,.34-1.44c.07-.24.14-.48.22-.71s.17-.52.27-.78h0l.09-.25,30.15-82.54.38-1a1.15,1.15,0,0,1,.06-.17,42.27,42.27,0,0,1,3.32-6.79c.36-.61.74-1.2,1.14-1.79l.51-.74c.16-.25.35-.5.53-.73s.35-.5.53-.73l.2-.26c.49-.61,1-1.22,1.49-1.81a43.7,43.7,0,0,1,3.49-3.58h0l0,0,.06-.06.06-.06.51-.48.48-.43c.2-.17.42-.37.68-.58l.65-.53c.13-.12.27-.23.41-.34l1-.77c.15-.11.3-.24.46-.35l1-.75s0,0,.06,0c.58-.43,1.22-.87,1.9-1.32.46-.31.93-.63,1.44-.94l.77-.49c.39-.24.79-.49,1.21-.73s.84-.5,1.28-.75l1.35-.76c.7-.39,1.43-.78,2.18-1.16,1.5-.78,3.1-1.55,4.83-2.32l.86-.37c.89-.39,1.8-.76,2.73-1.13l.94-.37,0,0,2.51-.92,1.42-.49c.83-.28,1.69-.56,2.56-.83l.52-.16,1.18-.35,1.48-.42c.5-.15,1-.28,1.52-.41l1.55-.39,1.58-.38,1.62-.36,1.65-.34c1.64-.33,3.34-.63,5.09-.9h.1l1.74-.25,1.82-.23,1.85-.22,1.88-.18,1.92-.17c1.93-.15,3.91-.26,5.95-.31,1.35-.05,2.74-.07,4.14-.07s2.87,0,4.27.07,2.61.09,3.87.16l.36,0c1.32.07,2.61.17,3.88.29l1.93.18,1.9.21,1.38.17,1.36.18.65.1.56.08h.08c1.05.15,2.08.32,3.1.51a.58.58,0,0,1,.19,0q1.68.3,3.3.63l1.64.36,1.61.37,1.58.38,1.15.3,1.12.31,1.1.31c.38.1.75.21,1.13.33.61.18,1.2.36,1.78.55,1.18.37,2.31.75,3.41,1.14s1.89.7,2.8,1.06c.31.12.63.24.93.37.83.33,1.63.66,2.42,1l.79.35.09,0,.86.39,1.25.6,1.22.59c2.47,1.23,4.64,2.46,6.51,3.62.67.41,1.3.81,1.89,1.21l.25.16c.78.53,1.49,1,2.13,1.49l.79.58h0l.94.72c.15.12.29.24.43.34l.13.11.71.58c.18.17.36.31.52.46s.36.31.5.44l.37.34.14.14a.55.55,0,0,1,.11.1l.07.07h0l.05,0h0a42.85,42.85,0,0,1,3.5,3.63c.51.59,1,1.19,1.48,1.81s.87,1.15,1.28,1.74l.56.82c.19.28.38.56.55.85.42.65.81,1.32,1.19,2,.19.33.38.67.55,1s.5,1,.74,1.48.38.8.55,1.21l.21.47h0l33.76,70.74h0l1.33,2.79h0l4.34,9.11h0l4.19,2.06,2.36,1.16Z"/><polygon class="cls-2" points="865.61 889.12 865.61 900.95 787.06 900.95 787.06 860.69 821.65 860.68 823.93 860.67 823.93 860.68 829.22 871.25 831.46 875.74 841.73 879.76 865.61 889.12"/><polygon class="cls-2" points="989.46 497.04 989.46 497.06 987.83 501.68 987.11 503.68 985.75 507.53 985.73 507.6 985.13 509.32 948.63 507.02 930.06 494.33 930.52 493.55 938.76 479.41 941.52 474.68 941.52 474.68 941.52 474.68 959.53 476.03 989.46 497.04"/></svg>