<svg id="Capa_3" data-name="Capa 3" xmlns="http://www.w3.org/2000/svg" viewBox="0 0 1300 1000"><defs><style>.cls-1{fill:#fff;}.cls-2{fill:#1e1e1c;}.cls-3{fill:none;}</style></defs><title>1-subject</title><polygon class="cls-1" points="688.56 543.15 668.85 543.24 668.85 543.25 663.45 543.25 662.53 538.37 671.79 537.42 675.95 537 687.88 538.19 688.18 538.22 688.55 543.04 688.55 543.05 688.56 543.15"/><polygon class="cls-1" points="929.81 494.33 930.26 493.55 938.5 479.41 941.26 474.68 941.11 474.67 941.15 474.61 936.63 472.38 933.5 476.76 933.1 477.33 928.53 483.74 925.78 489.74 924.69 492.13 922.54 496.83 927.08 498.79 929.81 494.33"/><polygon class="cls-1" points="786.81 860.69 821.39 860.68 823.68 860.67 823.68 860.68 828.86 860.68 828.79 854.27 807.3 853.04 786.29 854.24 786.8 860.59 786.81 860.68 786.8 860.68 786.81 860.69"/><polygon class="cls-1" points="727.54 854.28 727.05 860.67 727.04 860.67 727.04 860.69 692.46 860.68 690.15 860.67 690.15 860.68 685.03 860.68 685.09 854.24 706.16 853.04 727.54 854.28"/><path class="cls-1" d="M819.93,543.24H693.66l0-.1,1.08-7.72c5.07-.35,61.75-3.75,61.75-3.75l62.38,3.8,1,7.67Z"/><path class="cls-2" d="M723.7,262.58l.5,2.54C724,264.29,723.83,263.44,723.7,262.58Z"/><path class="cls-2" d="M790.05,257.4a32.62,32.62,0,0,1-.39,5.07h0c-.13.88-.3,1.74-.5,2.59l-4.95,25.74a.2.2,0,0,1,0,.07l-.27,1.42a.59.59,0,0,1,0,.19,23.35,23.35,0,0,1-16.06,17.16,30.79,30.79,0,0,1-3.19.76,42,42,0,0,1-8,.77,40.39,40.39,0,0,1-11.13-1.53,23.4,23.4,0,0,1-16.54-20v0l-4.8-24.5-.5-2.54v-.08a32.91,32.91,0,0,1-.39-5.1,33.38,33.38,0,0,1,66.75,0Z"/><path class="cls-2" d="M783.93,292.3l0,.19h0A1.06,1.06,0,0,0,783.93,292.3Z"/><polygon class="cls-2" points="828.79 854.27 807.3 853.04 786.29 854.24 775.96 725.78 760.59 598.32 752.76 598.31 752.76 598.32 737.64 725.78 727.54 854.28 706.16 853.04 685.09 854.24 686.12 726.67 689.5 612.24 692.97 548.22 693.66 543.24 819.94 543.24 820.61 548.22 824.18 612.24 827.47 726.67 828.79 854.27"/><polygon class="cls-2" points="688.57 543.15 688.56 543.18 688.54 543.24 688.5 543.44 687.59 547.18 683.79 562.87 683.79 562.87 658.21 589.01 648.4 583.61 668.75 543.42 668.84 543.25 668.85 543.25 668.85 543.24 688.56 543.15 688.57 543.15"/><polygon class="cls-2" points="727.05 860.67 727.05 900.95 647.93 900.95 647.93 889.12 674.88 878.69 682.53 875.74 684.95 870.95 690.14 860.68 690.15 860.68 690.15 860.67 692.46 860.68 727.04 860.69 727.04 860.67 727.05 860.67"/><path class="cls-2" d="M936.63,472.38l-3.12,4.38-.41.57-4.57,6.41-2.75,6-1.09,2.39-2.15,4.7-70.25-30-.63-.27-.81-.38-.79-.43c-.27-.14-.53-.3-.78-.46s-.5-.32-.75-.49c-.5-.35-1-.71-1.43-1.09s-.91-.8-1.33-1.23c-.19-.19-.38-.39-.56-.59a21.09,21.09,0,0,1-2-2.59h0c-.29-.46-.57-.95-.82-1.44h0L836,445.24l-1.86-3.64-1.8-3.52-13.54-26.46-3.3-6.46h0v0l-1.49-2.9h-2.62l-.25,13.52,0,.73-.7,37.86-.12,6.06-.18,9.71,8.8,65.36-62.38-3.8s-56.68,3.4-61.75,3.75l9.11-65.32-.21-11.28-.1-4.48-.72-37.64-.28-14.29H700l-3.54,11.11L688.61,438,685,449.45h0l-1.56,4.88-1.33,4.16-.07.23.23,2.91h0l5.95,76.57h0l-.3,0L676,537l-4.16.43-9.26.94-15.6-82.5s0,0,0-.06l-.24-1.3a0,0,0,0,1,0,0,.61.61,0,0,1,0-.14c0-.13,0-.27-.07-.42a19,19,0,0,1-.08-3.91c0-.25,0-.5.07-.75.06-.49.14-1,.23-1.46s.21-1,.34-1.44l.21-.71.27-.78h0l.09-.25,30.16-82.54.37-1,.06-.17a42.31,42.31,0,0,1,3.33-6.79c.36-.61.73-1.2,1.13-1.79l.51-.74c.17-.25.35-.5.53-.73s.35-.5.54-.73l.2-.26c.48-.61,1-1.22,1.49-1.81a42.12,42.12,0,0,1,3.49-3.58h0l0,0,0-.06.06-.06.52-.48.47-.43.68-.58.65-.53a4.78,4.78,0,0,1,.42-.34l1-.77.47-.35c.32-.25.66-.49,1-.75,0,0,0,0,.06,0,.59-.43,1.23-.87,1.91-1.32.45-.31.93-.63,1.44-.94.25-.16.5-.33.77-.49l1.2-.73c.42-.26.85-.5,1.29-.75l1.35-.76c.7-.39,1.42-.78,2.17-1.16q2.25-1.17,4.83-2.32l.87-.37c.88-.39,1.79-.76,2.72-1.13l1-.37,0,0,2.5-.92,1.42-.49c.83-.28,1.69-.56,2.56-.83l.53-.16,1.17-.35,1.49-.42c.5-.15,1-.28,1.52-.41l1.54-.39,1.59-.38,1.62-.36,1.64-.34c1.65-.33,3.35-.63,5.09-.9h.1l1.75-.25,1.82-.23,1.84-.22,1.88-.18,1.93-.17c1.93-.15,3.91-.26,5.95-.31,1.35-.05,2.73-.07,4.13-.07s2.88,0,4.27.07,2.61.09,3.88.16l.35,0c1.32.07,2.61.17,3.88.29l1.93.18,1.9.21,1.38.17,1.36.18.65.1.57.08h.08q1.58.22,3.09.51a.69.69,0,0,1,.2,0c1.12.2,2.22.41,3.29.63l1.65.36,1.6.37,1.58.38,1.15.3,1.13.31,1.09.31c.38.1.76.21,1.13.33l1.79.55c1.17.37,2.3.75,3.4,1.14s1.89.7,2.8,1.06c.32.12.63.24.93.37.83.33,1.64.66,2.42,1l.79.35.1,0,.86.39,1.25.6,1.21.59c2.48,1.23,4.65,2.46,6.51,3.62.67.41,1.3.81,1.89,1.21l.26.16c.77.53,1.49,1,2.13,1.49l.78.58h0l.94.72c.14.12.28.24.42.34l.14.11.71.58c.18.17.36.31.52.46l.5.44.37.34a1.54,1.54,0,0,1,.13.14.55.55,0,0,1,.11.1l.08.07h0l.05,0h0a43,43,0,0,1,3.51,3.63c.5.59,1,1.19,1.48,1.81s.87,1.15,1.28,1.74l.56.82c.19.28.37.56.55.85.41.65.81,1.32,1.18,2,.2.33.38.67.56,1s.5,1,.73,1.48.38.8.55,1.21c.08.15.15.31.22.47h0l33.76,70.74h0l1.33,2.79h0l4.34,9.11h0l4.19,2.06,2.36,1.16Z"/><polygon class="cls-2" points="865.35 889.12 865.35 900.95 786.81 900.95 786.81 860.69 821.39 860.68 823.68 860.67 823.68 860.68 828.97 871.25 831.2 875.74 841.48 879.76 865.35 889.12"/><polygon class="cls-2" points="989.21 497.04 989.2 497.06 987.57 501.68 986.86 503.68 985.5 507.53 985.47 507.6 984.87 509.32 948.37 507.02 929.81 494.33 930.26 493.55 938.5 479.41 941.26 474.68 941.27 474.68 941.27 474.68 959.28 476.03 989.21 497.04"/><polygon class="cls-1" points="1037.29 461.75 1020.63 455.41 1026.97 438.75 1037.29 461.75"/><path class="cls-1" d="M1012.06,459.25l9.25-24.28-40.78-15.53-32.25,84.73,67.61,25.73,23-60.43Zm-23.39,49.18-24.23-9.22,2.53-6.65,24.23,9.23ZM1013,504.3l-44.07-16.78,2.53-6.65,44.07,16.78Zm4.43-11.64-44.07-16.77,2.53-6.65L1019.92,486Zm4.48-11.77L977.8,464.12l2.53-6.65,44.07,16.78Z"/><line class="cls-3" x1="965.71" y1="495.89" x2="989.93" y2="505.11"/><rect class="cls-2" x="974.26" y="487.54" width="7.11" height="25.92" transform="translate(162.2 1236.29) rotate(-69.16)"/><line class="cls-3" x1="970.16" y1="484.2" x2="1014.22" y2="500.97"/><rect class="cls-2" x="988.63" y="469.01" width="7.11" height="47.15" transform="translate(178.85 1244.63) rotate(-69.16)"/><line class="cls-3" x1="974.59" y1="472.56" x2="1018.65" y2="489.34"/><rect class="cls-2" x="993.06" y="457.37" width="7.11" height="47.15" transform="translate(192.58 1241.27) rotate(-69.16)"/><line class="cls-3" x1="979.07" y1="460.8" x2="1023.13" y2="477.57"/><rect class="cls-2" x="997.54" y="445.61" width="7.11" height="47.15" transform="translate(206.46 1237.87) rotate(-69.16)"/><path class="cls-2" d="M1046.93,467l-17.3-38.56-52.08-19.83L938.86,510.26l80,30.46L1046.94,467Zm-20-28.28,10.32,23-16.66-6.34Zm-11.08,91.16-67.61-25.73,32.25-84.73L1021.31,435l-9.25,24.28,26.84,10.22Z"/><polygon class="cls-2" points="1046.94 467.02 1046.94 467.03 1046.93 467.02 1046.94 467.02"/></svg>