<svg id="Capa_3" data-name="Capa 3" xmlns="http://www.w3.org/2000/svg" viewBox="0 0 1300 1000"><defs><style>.cls-1{fill:#fff;}.cls-2{fill:#1e1e1c;}</style></defs><title>handle--third-quadrant</title><polygon class="cls-1" points="689.41 542.45 669.69 542.54 669.69 542.55 664.3 542.55 663.38 537.67 672.64 536.72 676.79 536.3 688.72 537.48 689.02 537.51 689.4 542.34 689.4 542.35 689.41 542.45"/><polygon class="cls-1" points="930.66 493.63 931.11 492.85 939.35 478.71 942.11 473.98 941.96 473.96 941.99 473.9 937.47 471.67 934.35 476.05 933.95 476.62 929.38 483.03 926.63 489.04 925.54 491.43 923.38 496.13 927.93 498.08 930.66 493.63"/><polygon class="cls-1" points="787.65 859.99 822.24 859.97 824.52 859.97 824.52 859.97 829.71 859.97 829.64 853.56 808.14 852.33 787.14 853.54 787.65 859.88 787.65 859.97 787.65 859.97 787.65 859.99"/><polygon class="cls-1" points="728.39 853.58 727.89 859.97 727.89 859.97 727.89 859.99 693.3 859.97 691 859.97 691 859.97 685.88 859.97 685.93 853.54 707.01 852.33 728.39 853.58"/><path class="cls-1" d="M820.78,542.54H694.5l0-.11,1.07-7.71c5.08-.36,61.75-3.76,61.75-3.76l62.39,3.8,1,7.67Z"/><path class="cls-2" d="M724.55,261.88l.5,2.53C724.85,263.58,724.68,262.74,724.55,261.88Z"/><path class="cls-2" d="M790.9,256.69a32.62,32.62,0,0,1-.39,5.07h0c-.13.88-.3,1.74-.5,2.59l-5,25.74a.2.2,0,0,1,0,.07l-.27,1.42a.59.59,0,0,1,0,.19,23.35,23.35,0,0,1-16.06,17.16,30.79,30.79,0,0,1-3.19.76,42,42,0,0,1-8,.77,40.39,40.39,0,0,1-11.13-1.53,23.4,23.4,0,0,1-16.54-20v0l-4.8-24.5-.5-2.54v-.08a32.91,32.91,0,0,1-.39-5.1,33.38,33.38,0,0,1,66.75,0Z"/><path class="cls-2" d="M784.78,291.59l0,.19h0A.59.59,0,0,0,784.78,291.59Z"/><polygon class="cls-2" points="829.64 853.56 808.14 852.33 787.14 853.54 776.81 725.07 761.44 597.61 753.6 597.61 753.6 597.61 738.49 725.07 728.39 853.58 707.01 852.33 685.93 853.54 686.96 725.97 690.35 611.53 693.81 547.52 694.5 542.54 820.79 542.54 821.46 547.52 825.02 611.53 828.31 725.97 829.64 853.56"/><polygon class="cls-2" points="689.42 542.45 689.41 542.48 689.39 542.54 689.35 542.73 688.44 546.48 684.64 562.16 684.63 562.17 659.05 588.3 649.25 582.91 669.6 542.72 669.68 542.55 669.69 542.55 669.69 542.54 689.41 542.45 689.42 542.45"/><polygon class="cls-2" points="727.89 859.97 727.89 900.25 648.78 900.25 648.78 888.41 675.73 877.99 683.38 875.03 685.8 870.25 690.99 859.97 691 859.97 691 859.97 693.3 859.97 727.89 859.99 727.89 859.97 727.89 859.97"/><path class="cls-2" d="M937.47,471.67l-3.12,4.38-.4.57L929.38,483l-2.75,6-1.09,2.39-2.16,4.7-70.24-30-.63-.27-.81-.39-.8-.42c-.26-.15-.52-.3-.77-.46l-.75-.49c-.5-.35-1-.71-1.44-1.09s-.9-.8-1.33-1.23l-.55-.6a20.36,20.36,0,0,1-2-2.59h0c-.29-.47-.57-.95-.82-1.44h0l-6.42-12.6L835,440.9l-1.8-3.52-13.54-26.47-3.3-6.45h0l-1.5-2.9h-2.61L812,415.05l0,.73-.7,37.86-.12,6.06-.18,9.71,8.8,65.35L757.35,531s-56.67,3.4-61.75,3.76l9.12-65.32-.22-11.29-.09-4.47L703.69,416l-.28-14.29h-2.6l-3.55,11.1-7.8,24.49-3.65,11.45h0l-1.56,4.89-1.33,4.16-.07.22.22,2.92h0l6,76.57h0l-.3,0L676.8,536.3l-4.16.42-9.26.95-15.6-82.51a.43.43,0,0,0,0-.05l-.24-1.31s0,0,0,0a.51.51,0,0,1,0-.13l-.06-.42a19,19,0,0,1-.08-3.91c0-.25,0-.5.07-.75.06-.49.13-1,.23-1.47a13.53,13.53,0,0,1,.34-1.43c.06-.24.13-.48.21-.71s.18-.52.27-.79h0l.09-.25,30.15-82.54.38-1,.06-.17a42.37,42.37,0,0,1,3.32-6.8c.36-.61.74-1.2,1.14-1.78l.51-.75.53-.73c.17-.24.35-.49.54-.73l.2-.25c.48-.62,1-1.22,1.49-1.81a42.25,42.25,0,0,1,3.49-3.59h0l0,0,.05,0,.06-.06.52-.48c.13-.13.29-.27.47-.43s.42-.37.68-.58l.65-.53a4.78,4.78,0,0,1,.42-.34c.3-.25.63-.5,1-.77l.47-.35c.32-.25.66-.5,1-.76l.06,0c.59-.43,1.22-.86,1.91-1.32.45-.31.93-.62,1.43-.94l.77-.48,1.21-.74,1.28-.74c.44-.26.9-.51,1.36-.76.7-.39,1.42-.78,2.17-1.17,1.5-.77,3.11-1.55,4.83-2.31l.87-.38c.88-.38,1.79-.76,2.72-1.12l.94-.37,0,0,2.51-.92,1.42-.49c.83-.29,1.69-.56,2.56-.83l.52-.17,1.18-.34c.49-.15,1-.29,1.48-.42s1-.28,1.53-.41l1.54-.39,1.58-.38,1.63-.36,1.64-.34c1.65-.33,3.34-.63,5.09-.9h.1l1.74-.25,1.82-.24c.61-.08,1.23-.14,1.85-.21l1.88-.19,1.92-.16c1.93-.15,3.92-.26,5.95-.31,1.36,0,2.74-.07,4.14-.07s2.87,0,4.27.07,2.61.09,3.88.16a2.06,2.06,0,0,1,.35,0c1.32.07,2.61.17,3.88.28l1.93.19,1.9.21c.46.05.92.1,1.38.17l1.36.18c.22,0,.43.05.65.09l.57.09h.07c1.06.16,2.09.33,3.1.51l.19,0q1.69.3,3.3.63l1.65.35,1.6.37,1.58.39,1.15.3,1.12.3,1.1.31,1.13.33c.61.19,1.2.36,1.79.56,1.17.36,2.3.75,3.4,1.14s1.89.69,2.8,1.05l.93.37c.83.33,1.64.67,2.42,1l.79.35.09,0,.86.39,1.26.59,1.21.6c2.48,1.23,4.64,2.45,6.51,3.62.67.4,1.3.81,1.89,1.2l.26.17c.77.52,1.49,1,2.13,1.49l.78.58h0l.93.72.43.34.14.11.7.58.53.46.5.44c.14.12.26.24.36.34a.92.92,0,0,1,.14.14.55.55,0,0,1,.11.1l.08.07h0l0,0h0a41.35,41.35,0,0,1,3.5,3.63c.51.59,1,1.19,1.49,1.8s.87,1.15,1.27,1.75c.19.27.39.54.56.82s.38.56.56.84c.41.66.8,1.33,1.18,2,.19.34.38.68.55,1s.5,1,.74,1.48.38.8.55,1.21l.21.46h0v0l33.76,70.73h0l1.33,2.79h0l4.35,9.11h0l4.19,2.06L881.3,444Z"/><polygon class="cls-2" points="866.2 888.41 866.2 900.25 787.65 900.25 787.65 859.99 822.24 859.97 824.52 859.97 824.52 859.97 829.81 870.55 832.05 875.03 842.33 879.06 866.2 888.41"/><polygon class="cls-2" points="990.05 496.34 990.05 496.35 988.42 500.97 987.7 502.98 986.34 506.82 986.32 506.89 985.72 508.61 949.22 506.31 930.66 493.63 931.11 492.85 939.35 478.71 942.11 473.98 942.12 473.98 942.12 473.97 960.13 475.32 990.05 496.34"/></svg>