<svg id="Capa_3" data-name="Capa 3" xmlns="http://www.w3.org/2000/svg" viewBox="0 0 1300 1000"><defs><style>.cls-1{fill:#fff;}.cls-2{fill:#1e1e1c;}</style></defs><title>1-subject</title><polygon class="cls-1" points="672.67 542.45 652.96 542.54 652.96 542.55 647.56 542.55 646.64 537.67 655.9 536.72 660.06 536.3 671.99 537.48 672.29 537.51 672.66 542.34 672.66 542.35 672.67 542.45"/><polygon class="cls-1" points="913.92 493.63 914.37 492.85 922.61 478.71 925.37 473.98 925.22 473.96 925.26 473.9 920.74 471.67 917.62 476.05 917.21 476.62 912.64 483.03 909.89 489.04 908.8 491.43 906.65 496.13 911.19 498.08 913.92 493.63"/><polygon class="cls-1" points="770.92 859.99 805.51 859.97 807.79 859.97 807.79 859.97 812.97 859.97 812.9 853.56 791.41 852.33 770.4 853.54 770.91 859.88 770.92 859.97 770.91 859.97 770.92 859.99"/><polygon class="cls-1" points="711.66 853.58 711.16 859.97 711.15 859.97 711.15 859.99 676.57 859.97 674.26 859.97 674.26 859.97 669.14 859.97 669.2 853.54 690.27 852.33 711.66 853.58"/><path class="cls-1" d="M804.05,542.54H677.77l0-.11,1.08-7.71c5.07-.36,61.75-3.76,61.75-3.76l62.38,3.8,1,7.67Z"/><path class="cls-2" d="M707.81,261.88l.5,2.53C708.11,263.58,708,262.74,707.81,261.88Z"/><path class="cls-2" d="M774.16,256.69a32.62,32.62,0,0,1-.39,5.07h0c-.13.88-.3,1.74-.5,2.59l-4.95,25.74a.2.2,0,0,1,0,.07l-.27,1.42a.59.59,0,0,1,0,.19,23.35,23.35,0,0,1-16.06,17.16,30.79,30.79,0,0,1-3.19.76,42,42,0,0,1-8,.77,40.39,40.39,0,0,1-11.13-1.53,23.4,23.4,0,0,1-16.54-20v0l-4.8-24.5-.5-2.54v-.08a32.91,32.91,0,0,1-.39-5.1,33.38,33.38,0,0,1,66.75,0Z"/><path class="cls-2" d="M768,291.59l0,.19h0A.58.58,0,0,0,768,291.59Z"/><polygon class="cls-2" points="812.9 853.56 791.41 852.33 770.4 853.54 760.07 725.07 744.7 597.61 736.87 597.61 736.87 597.61 721.75 725.07 711.66 853.58 690.27 852.33 669.2 853.54 670.23 725.97 673.61 611.53 677.08 547.52 677.77 542.54 804.05 542.54 804.72 547.52 808.29 611.53 811.58 725.97 812.9 853.56"/><polygon class="cls-2" points="672.68 542.45 672.67 542.48 672.66 542.54 672.61 542.73 671.7 546.48 667.91 562.16 667.9 562.17 642.32 588.3 632.51 582.91 652.87 542.72 652.95 542.55 652.96 542.55 652.96 542.54 672.67 542.45 672.68 542.45"/><polygon class="cls-2" points="711.16 859.97 711.16 900.25 632.04 900.25 632.04 888.41 658.99 877.99 666.65 875.03 669.06 870.25 674.26 859.97 674.26 859.97 674.26 859.97 676.57 859.97 711.15 859.99 711.15 859.97 711.16 859.97"/><path class="cls-2" d="M920.74,471.67l-3.12,4.38-.41.57L912.64,483l-2.75,6-1.09,2.39-2.15,4.7-70.25-30-.63-.27-.81-.39c-.27-.14-.53-.27-.79-.42l-.78-.46c-.25-.16-.5-.32-.74-.49-.5-.35-1-.71-1.44-1.09s-.91-.8-1.33-1.23c-.19-.2-.38-.4-.55-.6a19.54,19.54,0,0,1-2-2.59h0c-.29-.47-.57-.95-.82-1.44h0l-6.42-12.6-1.86-3.64-1.79-3.52-13.55-26.47-3.29-6.45h0l-1.49-2.9h-2.61l-.26,13.52v.73l-.71,37.86-.12,6.06-.18,9.71,8.8,65.35L740.62,531s-56.68,3.4-61.75,3.76L688,469.4l-.21-11.29-.09-4.47L687,416l-.27-14.29h-2.61l-3.54,11.1-7.8,24.49-3.65,11.45h0l-1.56,4.89-1.33,4.16-.07.22.22,2.92h0l6,76.57h0l-.3,0-11.93-1.18-4.16.42-9.26.95L631,455.16v-.05l-.25-1.31s0,0,0,0,0-.08,0-.13a3,3,0,0,1-.06-.42,18.33,18.33,0,0,1-.09-3.91c0-.25,0-.5.07-.75.06-.49.14-1,.23-1.47s.21-1,.34-1.43l.21-.71.27-.79h0l.1-.25L662,361.37l.38-1a.49.49,0,0,1,.06-.17,41.55,41.55,0,0,1,3.32-6.8c.36-.61.74-1.2,1.14-1.78.16-.25.33-.5.5-.75l.53-.73c.17-.24.36-.49.54-.73l.2-.25c.48-.62,1-1.22,1.49-1.81a42.25,42.25,0,0,1,3.49-3.59h0l0,0,.05,0,.06-.06.52-.48c.14-.13.29-.27.48-.43l.67-.58.66-.53c.13-.12.27-.23.41-.34l1-.77.47-.35c.32-.25.66-.5,1-.76l.07,0c.58-.43,1.22-.86,1.9-1.32.46-.31.93-.62,1.44-.94l.77-.48,1.2-.74c.42-.25.85-.5,1.29-.74s.89-.51,1.35-.76c.7-.39,1.42-.78,2.18-1.17,1.49-.77,3.1-1.55,4.82-2.31l.87-.38c.89-.38,1.79-.76,2.72-1.12l1-.37,0,0c.81-.31,1.65-.61,2.5-.92l1.43-.49c.83-.29,1.69-.56,2.56-.83l.52-.17,1.17-.34c.5-.15,1-.29,1.49-.42s1-.28,1.52-.41l1.54-.39,1.59-.38,1.62-.36,1.64-.34c1.65-.33,3.35-.63,5.09-.9h.1l1.75-.25,1.82-.24c.61-.08,1.22-.14,1.84-.21l1.89-.19,1.92-.16c1.93-.15,3.91-.26,5.95-.31,1.35,0,2.73-.07,4.13-.07s2.88,0,4.28.07,2.6.09,3.87.16a2,2,0,0,1,.35,0c1.33.07,2.62.17,3.89.28l1.92.19,1.9.21c.46.05.93.1,1.39.17l1.36.18c.21,0,.43.05.64.09l.57.09h.08c1.05.16,2.08.33,3.1.51l.19,0q1.68.3,3.3.63l1.64.35,1.61.37,1.57.39,1.16.3,1.12.3,1.1.31,1.13.33c.6.19,1.2.36,1.78.56,1.18.36,2.31.75,3.4,1.14s1.9.69,2.8,1.05l.93.37c.83.33,1.64.67,2.42,1l.8.35.09,0,.86.39,1.25.59,1.22.6c2.47,1.23,4.64,2.45,6.51,3.62.66.4,1.3.81,1.89,1.2l.25.17c.78.52,1.49,1,2.13,1.49.27.19.53.39.78.58h0l.94.72.42.34.14.11.71.58.52.46.5.44a4.38,4.38,0,0,1,.37.34l.14.14a.94.94,0,0,1,.1.1.19.19,0,0,1,.08.07h0l0,0h0a41.47,41.47,0,0,1,3.51,3.63c.5.59,1,1.19,1.48,1.8s.87,1.15,1.28,1.75c.19.27.38.54.56.82s.37.56.55.84c.42.66.81,1.33,1.19,2,.19.34.37.68.55,1s.5,1,.74,1.48.37.8.54,1.21c.08.15.15.3.22.46h0v0l33.75,70.73h0l1.33,2.79h0L858,440.8h0l4.19,2.06,2.36,1.16Z"/><polygon class="cls-2" points="849.46 888.41 849.46 900.25 770.92 900.25 770.92 859.99 805.51 859.97 807.79 859.97 807.79 859.97 813.08 870.55 815.31 875.03 825.59 879.06 849.46 888.41"/><polygon class="cls-2" points="973.32 496.34 973.31 496.35 971.68 500.97 970.97 502.98 969.61 506.82 969.58 506.89 968.99 508.61 932.48 506.31 913.92 493.63 914.37 492.85 922.61 478.71 925.37 473.98 925.38 473.98 925.38 473.97 943.39 475.32 973.32 496.34"/><rect class="cls-1" x="943.48" y="474.89" width="63.04" height="29.13" transform="translate(-60.53 832.79) rotate(-45)"/><path class="cls-2" d="M933.44,500.51l30.5,30.5,52.62-52.62-30.5-30.49Zm74.14-23L963,522l-20.6-20.59L987,456.87Z"/><path class="cls-2" d="M985,499.32a14.13,14.13,0,1,1,0-20A14.14,14.14,0,0,1,985,499.32ZM968.9,483.23a8.63,8.63,0,1,0,12.2,0A8.64,8.64,0,0,0,968.9,483.23Z"/></svg>