<svg id="Capa_3" data-name="Capa 3" xmlns="http://www.w3.org/2000/svg" viewBox="0 0 1300 1000"><defs><style>.cls-1{fill:#fff;}</style></defs><title>handle-card--third-quadrant</title><polygon class="cls-1" points="661.38 544.8 659.57 535.21 675.94 533.54 688.44 534.78 690.51 534.99 691.26 544.59 688.57 544.7 671.35 544.78 671.35 544.79 668.85 544.8 661.38 544.8"/><path class="cls-1" d="M676,536.05l11.93,1.18.3,0,.37,4.83h0v.1l-19.71.09h-5.4l-.92-4.88,9.26-.95,4.16-.42m0-5-.5.05-4.16.43-9.26.94-5.42.56,1,5.35.93,4.88.77,4.07h14.54v0l14.73-.07,5.38,0-.41-5.26h0v-.2l-.38-4.83-.32-4.15-4.15-.43-.3,0-11.95-1.19-.5-.05Z"/><polygon class="cls-1" points="919.2 497.17 923.51 487.75 926.36 481.53 935.82 468.24 942.01 471.29 945.38 471.62 940.66 479.72 931.97 494.64 928.08 500.98 919.2 497.17"/><path class="cls-1" d="M936.63,471.42l4.52,2.23,0,.06.15,0-2.76,4.73-8.24,14.14-.45.78-2.73,4.45-4.54-1.95,2.15-4.7,1.09-2.39,2.75-6,4.57-6.41.41-.57,3.12-4.38M935,465.06l-2.47,3.46-3.12,4.38-.4.56-4.57,6.42-.28.39-.19.43-2.75,6-1.1,2.4L918,493.8l-2.13,4.65,4.7,2,4.55,2,4,1.71,2.26-3.7,2.73-4.45,0-.05,0,0,.45-.78L942.82,481l2.76-4.72,2.26-3.88.48-.76h0l1.21-2.07-6.79-.68-3.87-1.91L935,465.06Z"/><polygon class="cls-1" points="782.75 857.22 784.1 857.22 783.6 850.94 807.3 849.58 831.26 850.95 831.38 862.22 821.38 862.22 785.26 862.24 782.75 857.22"/><path class="cls-1" d="M807.3,852.08l21.49,1.23.07,6.41h-7.47l-34.58,0v0h0v-.09l-.51-6.34,21-1.21m0-5H807l-21,1.21-5.1.29.41,5.1.08,1h-2.7l3.64,7.25,1.39,2.76h3.09l34.59,0h12.51l0-5.05-.07-6.41,0-4.67-4.67-.27-21.49-1.23Z"/><polygon class="cls-1" points="691.35 862.22 682.51 862.22 682.61 850.93 706.16 849.58 730.24 850.98 729.54 859.91 729.54 862.22 727.04 862.24 691.35 862.22"/><path class="cls-1" d="M706.16,852.08l21.39,1.25-.5,6.39h0v0l-34.58,0H685l.06-6.43,21.07-1.21m0-5h-.28L684.8,848.3l-4.67.27,0,4.68-.06,6.43,0,5h12.49l34.56,0h5V860l.49-6.29.4-5.09-5.09-.29-21.39-1.25Z"/><path class="cls-1" d="M690.55,544.79l.67-3,1.34-9.63,2-.14c5-.35,61.21-3.72,61.78-3.75h.15l64.58,3.93,1.32,9.79.41,2.86Z"/><path class="cls-1" d="M756.51,530.71l62.38,3.8,1,7.67v.11H693.66l0-.11,1.08-7.71c5.07-.36,61.75-3.76,61.75-3.76m0-5h-.3c-2.32.14-56.76,3.41-61.8,3.76l-4,.28-.56,4-1,7.53-1.28,6H825.7l-.82-5.71v-.1l-1-7.63-.54-4.08-4.11-.25-62.38-3.8Z"/><path d="M756.67,315.72a43.26,43.26,0,0,1-11.89-1.64A25.89,25.89,0,0,1,726.52,292l-5.29-27v-.08a35.88,35.88,0,1,1,71.33-5.5,35,35,0,0,1-.4,5.36l0,.09c-.13.9-.3,1.79-.52,2.75l-4.9,25.45v.16l-.07.25-.24,1.27a4.19,4.19,0,0,1-.12.48,25.82,25.82,0,0,1-17.74,18.84,31.6,31.6,0,0,1-3.44.82A44.71,44.71,0,0,1,756.67,315.72Z"/><path class="cls-1" d="M756.67,226.07a33.37,33.37,0,0,1,33.38,33.37,32.62,32.62,0,0,1-.39,5.07h0c-.13.88-.3,1.74-.5,2.59l-4.95,25.74a.2.2,0,0,1,0,.07l-.27,1.42a.59.59,0,0,1,0,.19,23.35,23.35,0,0,1-16.06,17.16,30.79,30.79,0,0,1-3.19.76,42,42,0,0,1-8,.77,40.39,40.39,0,0,1-11.13-1.53,23.4,23.4,0,0,1-16.54-20v0l-4.8-24.5-.5-2.54v-.08a32.91,32.91,0,0,1-.39-5.1,33.37,33.37,0,0,1,33.37-33.37m0-5a38.38,38.38,0,0,0-37.93,44.17h0l0,.17,0,.17.5,2.54,4.75,24.25a28.38,28.38,0,0,0,20,24.1,46,46,0,0,0,12.59,1.74,47.54,47.54,0,0,0,8.92-.86,36.11,36.11,0,0,0,3.69-.88A28.36,28.36,0,0,0,788.7,295.9a6.22,6.22,0,0,0,.16-.71l.23-1.23a3.4,3.4,0,0,0,.07-.34l4.89-25.46c.24-1,.42-2,.56-2.91l0-.36h0a37.59,37.59,0,0,0,.39-5.45,38.42,38.42,0,0,0-38.38-38.37Z"/><polygon points="706.16 854.59 682.57 855.94 683.62 725.69 687 611.21 690.47 547.03 691.48 539.79 822.13 539.79 823.1 547.03 826.67 611.14 829.97 725.64 831.32 855.96 807.3 854.59 784 855.93 773.47 725.02 758.37 599.86 754.98 599.86 740.12 725.12 729.85 855.97 706.16 854.59"/><path class="cls-1" d="M819.94,542.29l.67,5,3.57,64,3.29,114.43,1.32,127.6-21.49-1.23-21,1.21L776,724.82,760.59,597.36h-7.83L737.64,724.82,727.55,853.33l-21.39-1.25-21.07,1.21,1-127.58,3.38-114.43,3.46-64,.7-5H819.94m4.37-5h-135l-.6,4.31-.69,5,0,.21V547l-3.46,64v.12l-3.38,114.44v.1l-1,127.58-.05,5.34,5.33-.31,20.79-1.19,21.09,1.23,4.9.29.38-4.89,10.08-128.41,14.07-118.59L771,725.32l10.33,128.37.39,4.87,4.88-.28,20.72-1.19,21.2,1.22,5.34.3-.05-5.35-1.32-127.6v-.09l-3.29-114.43V611l-3.57-64v-.19l0-.19-.67-5-.59-4.33Z"/><polygon points="645.08 583.68 666.35 541.69 666.35 539.81 667.29 539.8 667.29 539.8 691.79 539.68 690.93 543.06 686.07 563.14 685.62 563.62 658.67 591.16 645.08 583.68"/><path class="cls-1" d="M688.57,542.2v.09l0,.19-.91,3.75-3.79,15.68h0l-25.58,26.13-9.81-5.39,20.35-40.19.09-.17h0l19.71-.09h0m0-5h0l-19.74.09h-5v3.78L643.94,580.4l-2.18,4.31L646,587l9.81,5.39,3.32,1.84,2.66-2.72,25.58-26.13,1-1,.33-1.34,3.8-15.69.91-3.74,0-.18v0l1.56-6.22-6.4,0Z"/><polygon points="729.55 859.72 729.55 900 645.44 900 645.44 886.45 680.74 872.8 687.66 859.11 687.66 857.22 692.47 857.22 724.66 857.24 727.04 857.22 729.54 857.22 729.55 859.72"/><path class="cls-1" d="M722,854.72v0l-29.58,0h-2.29l-5,0v3.82l-4.67,9.22-1.55,3.07-5.86,2.27-27,10.42-3.19,1.24V900h5V888.16l26.94-10.42,7.66-3L685,870l5.2-10.28h2.31l34.58,0v0h0V900h5V854.72Z"/><path d="M644.46,455.3l0-.15v0l-.06-.29-.19-.19v-.94c0-.16,0-.31-.06-.46a21.43,21.43,0,0,1-.09-4.38c0-.25,0-.55.08-.85.06-.53.15-1.07.25-1.59H644l1.3-3.47.14-.42h0l30.41-83.23c0-.11.08-.22.12-.33a44.52,44.52,0,0,1,3.49-7.11c.39-.66.79-1.28,1.21-1.9.15-.23.31-.47.48-.71s.4-.55.58-.8.39-.54.6-.82l2.08,1.41-2-1.53.15-.19c.47-.6,1-1.23,1.52-1.85a44.34,44.34,0,0,1,3.64-3.74l.14-.15.06,0c.14-.14.32-.31.55-.51l.5-.45.7-.61.62-.5,0,0,.49-.4,1-.78.15-.12.38-.28c.27-.21.63-.47,1-.74l.33-.25h0c.53-.38,1.09-.77,1.69-1.16s1-.65,1.5-1l.77-.49,1.25-.76c.41-.25.87-.51,1.33-.77l1.37-.77c.73-.4,1.47-.81,2.25-1.2,1.6-.83,3.27-1.63,4.95-2.37l.91-.4c.88-.38,1.81-.77,2.77-1.15l.75-.29.43-.26H714l2.12-.77,1.48-.52c.84-.28,1.72-.57,2.61-.84l.54-.17,1.2-.35,1.52-.43c.49-.15,1-.29,1.57-.42l1.55-.4,1.55-.37,1.72-.38,1.72-.35c1.62-.33,3.35-.64,5.1-.91l.28,0,1.7-.24,1.84-.24,1.87-.22,1.92-.19,2-.16c2-.16,4.06-.27,6.09-.32,1.36,0,2.78-.07,4.2-.07s2.94,0,4.36.07,2.6.09,3.87.16a3.91,3.91,0,0,1,.49,0c1.2.06,2.48.16,3.89.28l1.94.19,1.94.21,1.44.18,1.36.18c.2,0,.48.06.75.11l.31.05h.23l.2.06c1,.14,2,.3,2.94.48a2.63,2.63,0,0,1,.38.07c1.1.2,2.18.4,3.24.62l1.94.42,1.37.32,1.62.39L790,323l2.23.62,1.21.35.22.07,1.61.5c1.07.34,2.22.72,3.46,1.17,1,.35,2,.71,2.89,1.08l1,.38c.83.33,1.67.68,2.48,1l.61.27h0l.34.16.8.37,1.27.6,1.27.62c2.34,1.16,4.6,2.42,6.71,3.73.68.41,1.34.84,1.95,1.25l.35.23c.73.49,1.48,1,2.14,1.49l.13.1h0l.92.7.73.56.37.3.26.2.11.1c.22.17.42.33.6.49l.57.5c.15.12.33.28.5.44s.33.3.46.43l.35.33a45.33,45.33,0,0,1,3.67,3.81c.53.62,1,1.24,1.55,1.89s.9,1.18,1.37,1.87c.2.27.41.58.61.89s.37.55.57.88c.4.62.81,1.32,1.25,2.1.2.35.4.72.59,1.1s.52,1,.77,1.54.39.83.57,1.25c.08.17.16.34.23.52l33.32,69.82.42.86,1.13,2.37.2.42,4,8.33,64.59,31.79L930.71,484l-2.66,5.79-4.25,9.31L850.68,467.9c-.34-.15-.63-.3-.93-.44s-.63-.33-.91-.49-.61-.35-.9-.53-.54-.35-.82-.54c-.58-.4-1.11-.81-1.62-1.23s-1.07-.95-1.52-1.4c-.24-.26-.45-.47-.64-.69a24.3,24.3,0,0,1-2.21-2.88l-.2-.31h0l-.71-1.37L830.1,438.26,816.56,411.8l-2.79-5.45L812.59,469l9.18,68.18-65.26-4c-3.26.19-56.71,3.4-61.58,3.74l-3.08.21L701.37,469l-.21-11.09-.1-4.47-.85-44.54-14.42,45.25-1.26,3.91.2,2.54,6.16,79.16h-2.84l-12.1-1.2-15.45,1.58Z"/><path class="cls-1" d="M756.56,321.33c1.45,0,2.88,0,4.27.07s2.61.09,3.88.16a2,2,0,0,1,.35,0c1.32.07,2.62.17,3.88.28l1.93.19,1.9.21c.46.05.92.1,1.38.17l1.36.18c.22,0,.44.05.65.09l.57.09h.08q1.58.24,3.09.51l.2,0c1.12.2,2.22.41,3.29.63l1.65.35,1.6.37,1.58.39,1.15.3,1.13.3,1.09.31,1.13.33c.61.19,1.2.36,1.79.56,1.17.36,2.3.75,3.4,1.14s1.89.69,2.8,1.05l.93.37c.83.33,1.64.67,2.42,1l.79.35.1,0,.86.39,1.25.59,1.21.6a74.12,74.12,0,0,1,6.51,3.62c.67.4,1.3.81,1.89,1.2l.26.17c.77.52,1.49,1,2.13,1.49.27.19.53.39.78.58h0l.94.72.42.34.14.11.71.58.52.46.5.44.37.34a.83.83,0,0,1,.13.14.55.55,0,0,1,.11.1.27.27,0,0,1,.08.07h0l.05,0h0a43,43,0,0,1,3.51,3.63c.5.59,1,1.19,1.48,1.8s.87,1.15,1.28,1.75c.19.27.38.54.56.82s.37.56.55.84c.41.66.81,1.33,1.18,2,.2.34.38.68.56,1s.5,1,.73,1.48.38.8.55,1.21c.08.15.15.3.22.46h0v0l33.76,70.73h0l1.33,2.79h0l4.34,9.11h0l4.19,2.06,2.36,1.16,56.17,27.64-3.12,4.38-.41.57-4.57,6.41-2.75,6-1.09,2.39-2.15,4.7-70.25-30-.63-.27-.81-.39c-.27-.14-.53-.27-.79-.42s-.53-.3-.78-.46l-.75-.49c-.5-.35-1-.71-1.43-1.09s-.91-.8-1.33-1.23l-.56-.6a20.36,20.36,0,0,1-2-2.59h0c-.29-.47-.57-.95-.82-1.44h0L836,444.29l-1.86-3.64-1.8-3.52-13.54-26.47-3.3-6.45h0l-1.49-2.9h-2.62l-.25,13.52,0,.73-.7,37.86-.12,6.06-.18,9.71,8.8,65.35-62.38-3.8s-56.68,3.4-61.75,3.76l9.11-65.32-.21-11.29-.1-4.47-.72-37.64-.28-14.29H700l-3.54,11.1-7.81,24.49L685,448.5h0l-1.56,4.89-1.33,4.16-.07.22.23,2.92h0l5.95,76.57h0l-.3,0L676,536.05l-4.16.42-9.26.95-15.6-82.51a.43.43,0,0,0,0-.05l-.24-1.31s0,0,0,0a.53.53,0,0,1,0-.13c0-.14,0-.28-.07-.42a19,19,0,0,1-.08-3.91c0-.25,0-.5.07-.75.06-.49.14-1,.23-1.47s.21-1,.34-1.43l.21-.71.27-.79h0l.09-.25,30.16-82.54.37-1,.06-.17a42.42,42.42,0,0,1,3.33-6.8c.36-.61.73-1.2,1.13-1.78l.51-.75.53-.73c.17-.24.35-.49.54-.73l.2-.25c.48-.62,1-1.22,1.49-1.81a42.25,42.25,0,0,1,3.49-3.59h0l0,0,0,0,.06-.06.52-.48.47-.43.68-.58.65-.53a4.78,4.78,0,0,1,.42-.34l1-.77.47-.35c.32-.25.66-.5,1-.76l.06,0c.59-.43,1.23-.86,1.91-1.32.45-.31.93-.62,1.44-.94l.77-.48,1.2-.74c.42-.25.85-.5,1.29-.74s.89-.51,1.35-.76c.7-.39,1.42-.78,2.17-1.17,1.5-.77,3.11-1.55,4.83-2.31l.87-.38c.88-.38,1.79-.76,2.72-1.12l1-.37,0,0c.81-.31,1.65-.61,2.5-.92l1.42-.49c.83-.29,1.69-.56,2.56-.83l.53-.17,1.17-.34c.49-.15,1-.29,1.49-.42s1-.28,1.52-.41l1.54-.39,1.59-.38,1.62-.36,1.64-.34c1.65-.33,3.35-.63,5.09-.9h.1l1.75-.25,1.82-.24,1.84-.21,1.88-.19,1.93-.16c1.93-.15,3.91-.26,5.95-.31,1.35,0,2.73-.07,4.13-.07m0-5c-1.46,0-2.91,0-4.31.07-2,.05-4.12.16-6.17.33l-2,.16h-.06l-1.89.18h-.06l-1.92.22-1.87.25-1.66.23-.4.06c-1.77.27-3.52.58-5.18.92l-1.7.35h-.06l-.7.16c-.32.07-.63.13-.94.21h-.07c-.54.13-1.08.25-1.61.39l-1.58.4c-.54.13-1.1.28-1.64.44s-1,.28-1.54.44l-1.16.34H720l-.25.08-.26.08c-1,.32-1.91.61-2.73.89-.48.16-1,.33-1.5.52l-1.71.62h-.49l-.84.51-.56.22c-1,.39-1.94.78-2.87,1.19l-.48.21L708,326l0,0,0,0c-1.72.76-3.44,1.58-5.11,2.44-.81.42-1.61.85-2.28,1.22l-1.42.8c-.47.27-.94.53-1.39.81s-.86.52-1.28.79c-.25.14-.51.31-.78.48-.49.31-1,.63-1.56,1l-1.41,1h0l-.58.43-.09.06c-.38.27-.73.53-1.07.79l-.37.28-.12.09c-.39.29-.73.56-1,.81s-.37.29-.56.46-.47.37-.68.55-.54.46-.76.66l-.55.49-.64.6,0,0a49.91,49.91,0,0,0-3.86,4c-.57.66-1.1,1.32-1.62,2l-.15.19,0,.05-.05.07c-.26.33-.46.61-.65.88s-.4.53-.59.81l-.53.78c-.45.66-.87,1.32-1.29,2a46.9,46.9,0,0,0-3.67,7.5c-.06.13-.1.26-.15.39l-.34.92-29.85,81.74h0l-.32.9,0,.11-2.54,6.76h1.1a24,24,0,0,0,.12,4.63c0,.12,0,.23,0,.34v1.75l.38.38,15.56,82.34.86,4.51,4.56-.47,9.27-.94,3.65-.38,11.43,1.14.29,0,.25,0h5.66l-.2-2.69,1.72-.12c4.8-.33,56.93-3.46,61.4-3.73l62.08,3.78,6.08.37-.82-6-8.75-65,.18-9.33.12-6.05.69-37.13,11.79,23.05,1.8,3.51,1.86,3.64,6.42,12.6.28.56v.09l.22.33.89,1.75h.26a24.55,24.55,0,0,0,1.89,2.37l.65.7,0,0,0,0c.51.51,1,1,1.66,1.54s1.21,1,1.83,1.39c.32.22.63.43.95.62s.63.39,1,.58.62.35.94.51l.05,0,0,0,1,.46h0l0,0,.63.26,70.24,30,4.49,1.91,2-4.43,2.16-4.7,1.09-2.4,2.55-5.56,4.29-6,.4-.55,3.13-4.4,3.41-4.79-5.28-2.59-56.17-27.65-2.36-1.16-2.63-1.3-3.6-7.54-.39-.81h0l-.95-2-1.36-2.85h0L839,355.88l-.24-.54c-.17-.4-.37-.82-.6-1.31s-.52-1.07-.8-1.6-.42-.8-.65-1.21c-.43-.77-.86-1.5-1.3-2.18-.2-.33-.41-.65-.62-1s-.42-.62-.63-.92c-.5-.72-1-1.36-1.44-2s-1.08-1.34-1.62-2a47.8,47.8,0,0,0-3.83-4l-.17-.16L827,339l-.06-.06-.53-.49-.55-.49-.09-.08h0l-.26-.22-.17-.15-.68-.57-.15-.12-.29-.23-.11-.08-.24-.19c-.23-.19-.47-.37-.73-.57l-.26-.2-1.34-1h-.07c-.48-.35-1-.72-1.71-1.18l-.37-.25c-.75-.49-1.39-.9-2-1.28-2.15-1.34-4.48-2.63-6.89-3.83l-1.27-.62-1.28-.61h-.06l-.83-.38-.25-.11-.75-.34c-.83-.36-1.68-.72-2.55-1.06l-1-.39c-.82-.33-1.76-.69-2.91-1.1s-2.44-.85-3.57-1.21l-1.62-.5-.24-.07L793,321.2l0,0h-.07l-.49-.14-.61-.17-.53-.15-.62-.17-.81-.21-.36-.09h-.06l-1.65-.4-1.34-.31-.28-.06h-.08l-.71-.15-1-.2c-1-.21-2-.41-3.23-.62a4.13,4.13,0,0,0-.51-.1c-1-.18-2-.35-3-.49l-.36-.05-.17,0-.16,0c-.28,0-.56-.09-.85-.12l-1.29-.18-1.47-.18-2-.21h-.06l-1.9-.18h-.05c-1.43-.12-2.71-.22-3.92-.28-.2,0-.4,0-.6,0-1.28-.07-2.6-.12-3.9-.16s-2.92-.07-4.42-.07ZM690,449.27l3.42-10.7L698,424.06l.57,29.43.09,4.48.21,10.88-7.06,50.55-4.59-59v-.14l-.15-1.94,1.11-3.45,1.56-4.89.23-.74Z"/><polygon points="867.86 886.46 867.86 900 784.31 900 784.31 857.24 821.4 857.22 826.18 857.21 826.18 859.13 833.01 872.8 867.86 886.46"/><path class="cls-1" d="M867.18,883.51l-23.87-9.36-8.49-3.32-1.38-2.76-4.76-9.53v-3.83h-7.3l-34.57,0h-5V900h5V859.74l34.59,0h2.28L829,870.3l2.24,4.48,10.27,4,23.88,9.35V900h5V884.75Z"/><polygon points="947.53 508.52 926.48 494.12 938.77 473.04 938.77 471.03 941.46 471.23 960.15 472.63 992.45 495.31 991.5 497.11 989.93 501.56 987.85 507.41 986.61 510.98 947.53 508.52"/><path class="cls-1" d="M941.27,473.72l18,1.35,29.93,21h0l-1.63,4.62-.71,2-1.36,3.84,0,.07-.6,1.72-36.5-2.3-18.56-12.68.45-.78,8.24-14.14,2.76-4.73h0m-5-5.39v4l-2.09,3.58-8.24,14.14-.45.77-2.35,4L927,497.5l18.56,12.69,1.13.78,1.38.08,36.5,2.3,3.79.24,1.24-3.58.6-1.72v-.09l1.35-3.8.71-2,1.53-4.34,1.79-3.57L992.08,492l-29.93-21-1.13-.79-1.37-.1-18-1.35-5.37-.41Z"/><path class="cls-1" d="M994.67,522.53l-.55-.57-1.11-1.1L984.15,512,976,503.82l-4.35-4.36a.54.54,0,0,1,0-.73l1-1,35.49-35.42,2.63-2.63h0a.11.11,0,0,1,.07-.06.28.28,0,0,1,.16-.06.51.51,0,0,1,.35.07s0,0,0,0l0,0,.06.05,18.68,18.68,4.35,4.37a.44.44,0,0,1,0,.65l-1,1L999.15,519l-3.63,3.63h0a.27.27,0,0,1-.1.06.33.33,0,0,1-.19.08.58.58,0,0,1-.41-.1Z"/><path d="M1038.78,478.84l-4.51-4.52-18.89-18.89-.27-.25c-.18-.16-.39-.29-.59-.44a7.67,7.67,0,0,0-5.61-1.3,8.07,8.07,0,0,0-2.76,1,7.3,7.3,0,0,0-1.18.89l-.26.24-1.63,1.64-35.42,35.49,0,0a7.6,7.6,0,0,0-.13,10.56l4.51,4.51,8.16,8.14,8.88,8.86,1.66,1.67.22.2.27.24c.17.16.38.3.57.45a7.64,7.64,0,0,0,8.27.27,7.72,7.72,0,0,0,1.17-.87l.26-.25,2.63-2.63,34.58-34.45a7.67,7.67,0,0,0,.1-10.61ZM984.36,512.2l-.21-.22L976,503.83l-4.35-4.37a.53.53,0,0,1,0-.73l1-1,35.49-35.42,2.63-2.63h0a.11.11,0,0,1,.07-.06.28.28,0,0,1,.16-.06.51.51,0,0,1,.35.07s0,0,0,0l0,0,.06.05,12.67,12.67Zm50.17-28.78-1,1L999.15,519l-3.63,3.63h0a.18.18,0,0,1-.09.06.33.33,0,0,1-.19.08.58.58,0,0,1-.41-.1l-.13-.1-.55-.57-1.11-1.1L991.1,519l39.82-39.81,3.62,3.63A.45.45,0,0,1,1034.53,483.42Z"/></svg>