<svg id="Capa_3" data-name="Capa 3" xmlns="http://www.w3.org/2000/svg" viewBox="0 0 1300 1000"><defs><style>.cls-1{fill:#fff;}.cls-2{fill:#1e1e1c;}</style></defs><title>1-subject</title><polygon class="cls-1" points="418.77 543.3 399.05 543.39 399.05 543.4 393.65 543.4 392.73 538.52 402 537.58 406.15 537.15 418.08 538.34 418.38 538.37 418.76 543.19 418.76 543.2 418.77 543.3"/><polygon class="cls-1" points="660.01 494.48 660.47 493.7 668.71 479.56 671.47 474.83 671.31 474.82 671.35 474.76 666.83 472.53 663.71 476.91 663.3 477.48 658.74 483.89 655.99 489.89 654.89 492.28 652.74 496.98 657.28 498.94 660.01 494.48"/><polygon class="cls-1" points="517.01 860.84 551.6 860.83 553.88 860.82 553.88 860.83 559.06 860.83 558.99 854.42 537.5 853.19 516.5 854.39 517 860.74 517.01 860.83 517 860.83 517.01 860.84"/><polygon class="cls-1" points="457.75 854.43 457.25 860.82 457.24 860.82 457.24 860.84 422.66 860.83 420.36 860.82 420.36 860.83 415.24 860.83 415.29 854.39 436.37 853.19 457.75 854.43"/><path class="cls-1" d="M550.14,543.39H423.86l0-.1,1.08-7.72c5.07-.35,61.75-3.75,61.75-3.75l62.38,3.8,1,7.67Z"/><path class="cls-2" d="M453.91,262.73l.5,2.54C454.21,264.44,454,263.59,453.91,262.73Z"/><path class="cls-2" d="M520.26,257.55a32.62,32.62,0,0,1-.39,5.07h0c-.13.88-.3,1.74-.5,2.59l-5,25.74a.2.2,0,0,1,0,.07l-.27,1.42a.59.59,0,0,1,0,.19A23.35,23.35,0,0,1,498,309.8a30.79,30.79,0,0,1-3.19.76,42,42,0,0,1-8,.77,40.39,40.39,0,0,1-11.13-1.53,23.4,23.4,0,0,1-16.54-20v0l-4.8-24.5-.5-2.54v-.08a32.91,32.91,0,0,1-.39-5.1,33.38,33.38,0,0,1,66.75,0Z"/><path class="cls-2" d="M514.14,292.45l0,.19h0A1.05,1.05,0,0,0,514.14,292.45Z"/><polygon class="cls-2" points="558.99 854.42 537.5 853.19 516.5 854.39 506.17 725.93 490.79 598.47 482.96 598.46 482.96 598.47 467.84 725.93 457.75 854.43 436.37 853.19 415.29 854.39 416.32 726.82 419.7 612.38 423.17 548.37 423.86 543.39 550.15 543.39 550.82 548.37 554.38 612.38 557.67 726.82 558.99 854.42"/><polygon class="cls-2" points="418.77 543.3 418.77 543.33 418.75 543.39 418.7 543.59 417.8 547.33 414 563.02 413.99 563.02 388.41 589.16 378.61 583.76 398.96 543.57 399.04 543.4 399.05 543.4 399.05 543.39 418.77 543.3 418.77 543.3"/><polygon class="cls-2" points="457.25 860.82 457.25 901.1 378.14 901.1 378.14 889.27 405.08 878.84 412.74 875.88 415.15 871.1 420.35 860.83 420.36 860.83 420.36 860.82 422.66 860.83 457.24 860.84 457.24 860.82 457.25 860.82"/><path class="cls-2" d="M666.83,472.53l-3.12,4.38-.41.57-4.56,6.41-2.75,6-1.1,2.39-2.15,4.7L582.5,467l-.63-.27-.82-.38-.79-.43c-.26-.14-.52-.3-.77-.46s-.5-.32-.75-.49c-.5-.35-1-.71-1.44-1.09s-.9-.8-1.33-1.23l-.55-.59a21.09,21.09,0,0,1-2-2.59h0c-.3-.46-.57-.95-.83-1.44h0l-6.42-12.6-1.86-3.64-1.8-3.52L549,411.77l-3.3-6.46h0v0l-1.49-2.9h-2.61l-.25,13.52,0,.73-.71,37.86-.11,6.06-.19,9.71,8.8,65.36-62.38-3.8S430,535.22,425,535.57l9.12-65.32L433.86,459l-.09-4.48-.72-37.63-.28-14.3h-2.61l-3.54,11.11-7.8,24.48-3.65,11.45h0l-1.56,4.88-1.33,4.16-.07.23.22,2.91h0l6,76.57h0l-.3,0-11.93-1.19-4.16.43-9.26.94L377.14,456s0,0,0-.06l-.25-1.3v0a.59.59,0,0,1,0-.14c0-.13-.05-.27-.06-.42a19.73,19.73,0,0,1-.09-3.91c0-.25,0-.5.07-.75.07-.49.14-1,.23-1.46s.21-1,.34-1.44c.07-.24.14-.48.22-.71s.17-.52.27-.78h0l.09-.25,30.15-82.54.38-1a1.15,1.15,0,0,1,.06-.17,42.68,42.68,0,0,1,3.32-6.79c.36-.61.74-1.2,1.14-1.79l.51-.74c.16-.25.35-.5.53-.73s.35-.5.53-.73l.2-.26c.49-.61,1-1.22,1.49-1.81a43.7,43.7,0,0,1,3.49-3.58h0l0,0,.06-.06.06-.06.51-.48.48-.43c.2-.17.42-.37.68-.58l.65-.53c.13-.12.27-.23.41-.34l1-.77c.15-.11.3-.24.46-.35l1-.75s0,0,.06,0c.58-.43,1.22-.87,1.9-1.32.46-.31.93-.63,1.44-.94l.77-.49c.39-.24.79-.49,1.21-.73s.84-.5,1.28-.75l1.35-.76c.7-.39,1.43-.78,2.18-1.16,1.5-.78,3.1-1.55,4.83-2.31l.86-.38c.89-.39,1.8-.76,2.73-1.13l.94-.37,0,0,2.51-.92,1.42-.49c.83-.28,1.69-.56,2.56-.83l.52-.16,1.18-.35,1.48-.42c.5-.15,1-.28,1.52-.41l1.55-.39,1.58-.38,1.62-.36,1.65-.34c1.64-.33,3.34-.63,5.09-.9h.1l1.74-.25,1.82-.23,1.85-.22,1.88-.18,1.92-.17c1.93-.15,3.91-.26,5.95-.31,1.35-.05,2.74-.07,4.14-.07s2.87,0,4.27.07,2.61.09,3.87.16l.36,0c1.32.07,2.61.17,3.88.29l1.93.18,1.9.21,1.38.17,1.36.18.65.1.56.08H507c1.05.15,2.08.32,3.1.51a.58.58,0,0,1,.19,0q1.68.3,3.3.63l1.64.36,1.61.37,1.58.38,1.15.3,1.12.31,1.1.31c.38.1.75.21,1.13.33.61.18,1.2.36,1.78.55,1.18.37,2.31.75,3.41,1.14s1.89.7,2.8,1.06c.31.12.63.24.93.37.83.33,1.63.67,2.42,1l.79.35.09,0,.86.4c.42.2.85.39,1.25.59l1.22.59c2.47,1.23,4.64,2.46,6.51,3.62.67.41,1.3.81,1.89,1.21l.25.16c.78.53,1.49,1,2.13,1.49l.79.58h0l.94.72.42.34.14.11c.26.21.5.4.71.59s.36.3.52.45.36.31.5.44l.37.34a1.84,1.84,0,0,1,.14.14.55.55,0,0,1,.11.1l.07.07h0l0,0h0a42.85,42.85,0,0,1,3.5,3.63c.51.59,1,1.19,1.48,1.81s.87,1.15,1.28,1.74l.56.82c.19.28.38.56.55.85.42.65.81,1.32,1.19,2,.19.33.38.67.55,1s.5,1,.74,1.48.38.8.55,1.21l.21.47h0l33.76,70.74h0l1.33,2.79h0l4.34,9.11h0l4.19,2.06,2.36,1.16Z"/><polygon class="cls-2" points="595.56 889.27 595.56 901.1 517.01 901.1 517.01 860.84 551.6 860.83 553.88 860.82 553.88 860.83 559.17 871.4 561.41 875.88 571.68 879.91 595.56 889.27"/><polygon class="cls-2" points="719.41 497.19 719.4 497.21 717.78 501.83 717.06 503.83 715.7 507.68 715.68 507.75 715.08 509.47 678.58 507.17 660.01 494.48 660.47 493.7 668.71 479.56 671.47 474.83 671.47 474.83 671.47 474.82 689.48 476.18 719.41 497.19"/></svg>