<svg width="1300" height="1000" viewBox="0 0 1300 1000" fill="none" xmlns="http://www.w3.org/2000/svg">
<path d="M382.074 469.162C382.074 467.5 387.976 412.035 405.504 376C420.553 346.825 444.564 342.455 482.683 342.021C519.658 341.595 549.725 347.537 565.627 375.218C581.068 411.322 595.906 464.404 595.906 464.404L638.5 499L666.273 506.849C675.674 509.506 680.258 520.131 675.739 528.793C673.748 532.608 669.802 535 665.498 535H632L550 492.5L563.504 718L562.004 874L577.602 880.406C585.105 883.488 590.004 890.796 590.004 898.907V900H496.504L498.004 882C495.197 880.129 493.527 876.965 493.565 873.592L495.004 746L485.504 621L476.504 746V874C476.504 877.148 475.022 880.111 472.504 882L474.004 900H382C382 892.368 386.401 885.42 393.301 882.158L409.504 874.5L407.504 718L414.004 599.5L408.135 622.486C408.054 622.804 407.809 623.055 407.493 623.143C395.437 626.519 383.612 617.103 384.201 604.597L385.72 572.37C385.72 572.37 382.074 513 382.074 469.162Z" fill="white"/>
<path d="M388.07 472.47C388.07 472.47 393.51 415.787 410.05 380.515C424.251 351.958 447.039 348.445 483.01 348.02C517.902 347.604 546.274 353.42 561.28 380.515C575.852 415.854 589.5 467.5 589.5 467.5L637 505L661.662 512.056C665.356 513.113 667.806 516.612 667.535 520.445C667.233 524.701 663.693 528 659.426 528H632L556.5 487.5L538.76 419.025C538.607 418.434 538.073 418.02 537.462 418.02C536.676 418.02 536.058 418.694 536.126 419.477L542 487.5L545 518L548 573.855L557.5 717.008L556 878.015L577.216 887.127C580.833 888.681 583.202 892.212 583.268 896.149L583.332 900H502.5L504.59 877.99C501.797 878.007 499.531 875.733 499.557 872.94L500.755 744.12L488.223 596.836C488.097 595.357 486.859 594.22 485.374 594.22C483.886 594.22 482.647 595.363 482.525 596.846L470.49 744.135L470.248 873.71C470.244 876.104 468.293 878.037 465.9 878.02L467.891 900H388C388 894.808 390.968 890.073 395.641 887.811L415.82 878.04L413.66 717.02L421 573.5L423.5 518L426.5 488L431.895 419.336C431.951 418.617 431.381 418.005 430.66 418.011C430.047 418.016 429.531 418.474 429.453 419.082L422.99 469.09L413.5 573.493L403.284 617.144C403.217 617.429 402.963 617.63 402.671 617.63C395.496 617.63 389.773 611.641 390.099 604.473L391.51 573.493L388.06 472.47H388.07Z" fill="black"/>
<path d="M472.324 340C476.25 341.471 483.581 341.995 485.5 342C485.5 342 494.146 341.928 499.182 340C504.858 337.828 508.019 335.707 511.851 331.04C514.47 327.852 516.513 322.343 517.421 319.62C517.779 318.544 518.027 317.439 518.216 316.32L522.493 291C522.493 291 523.009 287.351 523 285C522.98 279.409 522.223 276.126 519.959 271C517.634 265.735 515.601 262.917 511.345 259C506.808 254.824 503.538 253 497.662 251.032C493.101 249.504 490.317 249.039 485.5 249C480.33 249.175 478.405 249.5 473.471 251.032C468.533 252.681 463.492 255.602 459.655 259C455.819 262.398 453.134 266.42 451.041 271C448.947 275.58 448.002 280.002 448 285C448.001 286.885 448.208 289.137 448.507 291L453.591 315.993C453.84 317.218 454.162 318.425 454.596 319.598C455.668 322.492 457.942 328.201 460.162 331C463.209 334.841 467.628 338.241 472.324 340Z" fill="white"/>
<path d="M474.432 334.258C477.73 335.539 483.888 335.996 485.5 336C485.5 336 492.763 335.937 496.993 334.258C501.76 332.366 504.416 330.519 507.635 326.454C509.785 323.74 511.474 319.094 512.26 316.672C512.599 315.627 512.832 314.554 513.008 313.47L516.574 291.581C516.574 291.581 517.007 288.403 517 286.355C516.983 281.485 516.348 278.626 514.446 274.161C512.493 269.576 510.784 267.122 507.209 263.71C503.398 260.073 500.651 258.484 495.716 256.77C491.884 255.439 489.546 255.034 485.5 255C481.158 255.152 479.541 255.435 475.396 256.77C471.248 258.206 467.013 260.75 463.791 263.71C460.568 266.669 458.313 270.172 456.554 274.161C454.795 278.151 454.002 282.002 454 286.355C454 287.996 454.175 289.958 454.426 291.581L458.66 313.165C458.894 314.355 459.195 315.528 459.606 316.669C460.53 319.239 462.395 324.039 464.216 326.419C466.776 329.765 470.488 332.726 474.432 334.258Z" fill="black"/>
<path d="M620.157 459.322C618.944 456.21 623.391 449.984 625.766 447.26L687.541 433.508C701.497 456.852 728.756 503.733 726.141 504.509C723.527 505.284 723.37 516.004 723.619 521.267L657.622 536.121C645.639 511.818 621.369 462.434 620.157 459.322Z" fill="white"/>
<path fill-rule="evenodd" clip-rule="evenodd" d="M687.121 438.387C686.79 437.81 686.118 437.52 685.471 437.675L631.777 450.507L666.635 517.442L724.428 503.459L687.121 438.387ZM722.444 511.141L666.011 524.795C664.135 525.775 662.221 527.356 660.967 528.966C660.307 529.813 659.948 530.517 659.803 531.003C659.751 531.179 659.737 531.287 659.734 531.344L659.803 531.847L660.032 532.304L660.033 532.309C660.043 532.353 660.067 532.444 660.11 532.562C660.202 532.811 660.348 533.096 660.561 533.335C660.786 533.587 661.576 534.433 664.332 533.863C668.046 533.096 682.861 529.381 696.89 525.819C703.872 524.046 710.618 522.322 715.617 521.042C717.832 520.474 719.704 519.994 721.102 519.635C721.144 517.464 721.478 515.243 721.935 513.189C722.089 512.499 722.26 511.814 722.444 511.141ZM725.613 525.703L725.611 525.704L723.36 526.283C721.92 526.652 719.856 527.182 717.354 527.823C712.352 529.104 705.601 530.829 698.612 532.604C684.696 536.137 669.661 539.91 665.748 540.718C660.878 541.725 657.436 540.351 655.334 537.99C654.384 536.924 653.843 535.803 653.539 534.974C653.408 534.617 653.315 534.299 653.25 534.041C650.237 528.16 646.531 520.967 642.654 513.44C632.072 492.897 620.207 469.863 617.613 464.21C616.554 461.901 616.878 459.41 617.403 457.517C617.952 455.536 618.897 453.58 619.828 451.933C620.773 450.262 621.78 448.774 622.544 447.712C622.928 447.178 623.256 446.744 623.491 446.439C623.609 446.286 623.704 446.166 623.771 446.08C623.805 446.038 623.832 446.004 623.851 445.98L623.875 445.95L623.883 445.941L623.887 445.936L623.888 445.935L624.636 445.017L683.844 430.866C687.512 429.99 691.318 431.634 693.194 434.906L731.854 502.338C733.122 504.551 732.478 507.223 730.643 508.685C729.944 510.41 729.254 512.528 728.768 514.711C728.171 517.392 727.94 519.911 728.208 521.83L728.64 524.924L725.613 525.703ZM626.184 454.922C626.096 455.072 626.009 455.224 625.922 455.378C625.127 456.784 624.483 458.18 624.149 459.386C623.79 460.68 623.938 461.209 623.975 461.29C626.498 466.787 638.179 489.465 648.717 509.923C651.249 514.839 653.715 519.626 655.972 524.017C657.164 522.617 658.616 521.301 660.174 520.191L626.184 454.922ZM659.735 531.392C659.735 531.392 659.734 531.387 659.733 531.376C659.735 531.387 659.735 531.392 659.735 531.392Z" fill="black"/>
</svg>
