<svg id="Capa_1" data-name="Capa 1" xmlns="http://www.w3.org/2000/svg" viewBox="0 0 1300 1000"><defs><style>.cls-1{fill:#262626;}</style></defs><title>handle--third-quadrant</title><path class="cls-1" d="M951.75,459.85l7.15-17.21-78.57-46.76C832.06,286.77,772.28,293.66,772.28,293.66c-83.83,0-109.12,125.41-109.12,125.41l40.44,72.82-7.41,39h13.36L680.8,865.46h12.11L663.3,891v9.55h68.89l-.33-34.07,13.34,0,25.68-317.3,25.92,317.3,14.08,0-.13,34.07h69.88l-.18-10.38-25.28-24.66h8L834.42,531.15l13.15,0-32.5-177.67,43.42,65.14ZM710,458.3,693.7,415.68l36.14-62Z"/><ellipse class="cls-1" cx="772.37" cy="252.81" rx="24" ry="30"/></svg>