<svg id="Capa_3" data-name="Capa 3" xmlns="http://www.w3.org/2000/svg" viewBox="0 0 1300 1000"><defs><style>.cls-1{fill:#fff;}.cls-2{fill:#1e1e1c;}</style></defs><title>1-subject</title><polygon class="cls-1" points="363.23 542.45 343.52 542.54 343.52 542.55 338.12 542.55 337.2 537.67 346.46 536.72 350.62 536.3 362.55 537.48 362.85 537.51 363.23 542.34 363.23 542.35 363.23 542.45"/><polygon class="cls-1" points="604.48 493.63 604.93 492.85 613.17 478.71 615.93 473.98 615.78 473.96 615.82 473.9 611.3 471.67 608.18 476.05 607.77 476.62 603.21 483.03 600.45 489.04 599.36 491.43 597.21 496.13 601.75 498.08 604.48 493.63"/><polygon class="cls-1" points="461.48 859.99 496.07 859.97 498.35 859.97 498.35 859.97 503.53 859.97 503.46 853.56 481.97 852.33 460.96 853.54 461.47 859.88 461.48 859.97 461.47 859.97 461.48 859.99"/><polygon class="cls-1" points="402.22 853.58 401.72 859.97 401.71 859.97 401.71 859.99 367.13 859.97 364.82 859.97 364.82 859.97 359.71 859.97 359.76 853.54 380.84 852.33 402.22 853.58"/><path class="cls-1" d="M494.61,542.54H368.33l0-.11,1.08-7.71c5.07-.36,61.75-3.76,61.75-3.76l62.38,3.8,1,7.67Z"/><path class="cls-2" d="M398.38,261.88l.5,2.53C398.68,263.58,398.51,262.74,398.38,261.88Z"/><path class="cls-2" d="M464.73,256.69a32.62,32.62,0,0,1-.39,5.07h0c-.13.88-.3,1.74-.5,2.59l-4.95,25.74a.2.2,0,0,1,0,.07l-.27,1.42a.59.59,0,0,1-.05.19,23.35,23.35,0,0,1-16.06,17.16,30.79,30.79,0,0,1-3.19.76,42,42,0,0,1-8,.77,40.39,40.39,0,0,1-11.13-1.53,23.4,23.4,0,0,1-16.54-20v0l-4.8-24.5-.5-2.54v-.08a32.91,32.91,0,0,1-.39-5.1,33.38,33.38,0,0,1,66.75,0Z"/><path class="cls-2" d="M458.61,291.59l0,.19h0A1.05,1.05,0,0,0,458.61,291.59Z"/><polygon class="cls-2" points="503.46 853.56 481.97 852.33 460.96 853.54 450.63 725.07 435.26 597.61 427.43 597.61 427.43 597.61 412.31 725.07 402.22 853.58 380.84 852.33 359.76 853.54 360.79 725.97 364.17 611.53 367.64 547.52 368.33 542.54 494.62 542.54 495.28 547.52 498.85 611.53 502.14 725.97 503.46 853.56"/><polygon class="cls-2" points="363.24 542.45 363.23 542.48 363.22 542.54 363.17 542.73 362.27 546.48 358.47 562.16 358.46 562.17 332.88 588.3 323.07 582.91 343.43 542.72 343.51 542.55 343.52 542.55 343.52 542.54 363.23 542.45 363.24 542.45"/><polygon class="cls-2" points="401.72 859.97 401.72 900.25 322.61 900.25 322.61 888.41 349.55 877.99 357.21 875.03 359.62 870.25 364.82 859.97 364.82 859.97 364.82 859.97 367.13 859.97 401.71 859.99 401.71 859.97 401.72 859.97"/><path class="cls-2" d="M611.3,471.67l-3.12,4.38-.41.57L603.21,483l-2.76,6-1.09,2.39-2.15,4.7-70.24-30-.63-.27-.82-.39c-.27-.14-.53-.27-.79-.42l-.78-.46c-.25-.16-.5-.32-.74-.49-.5-.35-1-.71-1.44-1.09s-.91-.8-1.33-1.23c-.18-.2-.38-.4-.55-.6a19.54,19.54,0,0,1-2-2.59h0c-.29-.47-.56-.95-.82-1.44h0l-6.41-12.6-1.86-3.64-1.8-3.52-13.55-26.47-3.29-6.45h0l-1.49-2.9H486l-.26,13.52v.73l-.71,37.86L485,459.7l-.19,9.71,8.8,65.35L431.18,531s-56.68,3.4-61.75,3.76l9.12-65.32-.22-11.29-.09-4.47L377.52,416l-.28-14.29h-2.61l-3.54,11.1-7.8,24.49-3.65,11.45h0l-1.56,4.89-1.33,4.16-.07.22.22,2.92h0l6,76.57h0l-.3,0-11.93-1.18-4.16.42-9.26.95-15.59-82.51a.43.43,0,0,0,0-.05l-.25-1.31s0,0,0,0,0-.08,0-.13-.05-.28-.06-.42a19.73,19.73,0,0,1-.09-3.91c0-.25,0-.5.07-.75.06-.49.14-1,.23-1.47s.21-1,.34-1.43c.07-.24.14-.48.22-.71s.17-.52.26-.79h0l.1-.25,30.15-82.54.38-1a.85.85,0,0,1,.06-.17,42.37,42.37,0,0,1,3.32-6.8c.36-.61.74-1.2,1.14-1.78l.5-.75.53-.73c.17-.24.36-.49.54-.73l.2-.25c.49-.62,1-1.22,1.49-1.81a42.25,42.25,0,0,1,3.49-3.59h0l0,0,.05,0,.07-.06c.1-.11.28-.27.51-.48s.29-.27.48-.43l.67-.58.66-.53c.13-.12.27-.23.41-.34l1-.77.47-.35c.33-.25.66-.5,1-.76l.06,0c.58-.43,1.22-.86,1.9-1.32.46-.31.93-.62,1.44-.94l.77-.48c.39-.25.79-.49,1.21-.74s.84-.5,1.28-.74.89-.51,1.35-.76c.7-.39,1.42-.78,2.18-1.17,1.5-.77,3.1-1.55,4.82-2.31.3-.12.58-.25.87-.38.89-.38,1.79-.76,2.72-1.12l.95-.37,0,0c.81-.31,1.65-.61,2.51-.92.46-.17.93-.33,1.42-.49.83-.29,1.69-.56,2.56-.83l.52-.17,1.18-.34c.49-.15,1-.29,1.48-.42s1-.28,1.52-.41l1.55-.39,1.58-.38,1.62-.36,1.65-.34c1.64-.33,3.34-.63,5.08-.9h.1l1.75-.25,1.82-.24c.61-.08,1.22-.14,1.85-.21l1.88-.19,1.92-.16c1.93-.15,3.91-.26,6-.31,1.35,0,2.74-.07,4.13-.07s2.88,0,4.28.07,2.6.09,3.87.16a2.17,2.17,0,0,1,.36,0c1.32.07,2.61.17,3.88.28l1.93.19,1.89.21c.47.05.93.1,1.39.17l1.36.18c.21,0,.43.05.64.09l.57.09h.08c1,.16,2.08.33,3.1.51l.19,0q1.68.3,3.3.63l1.64.35,1.61.37,1.57.39,1.16.3,1.12.3,1.1.31,1.13.33c.61.19,1.2.36,1.78.56,1.18.36,2.31.75,3.41,1.14s1.89.69,2.79,1.05l.93.37q1.24.49,2.43,1l.79.35.09,0,.86.39,1.25.59,1.22.6c2.47,1.23,4.64,2.45,6.51,3.62.67.4,1.3.81,1.89,1.2l.25.17c.78.52,1.49,1,2.13,1.49l.79.58h0l.94.72.42.34.14.11c.26.2.49.4.71.58l.52.46.5.44a4.38,4.38,0,0,1,.37.34,1.85,1.85,0,0,1,.14.14l.11.1a.23.23,0,0,1,.07.07h0l.05,0h0a41.47,41.47,0,0,1,3.51,3.63c.51.59,1,1.19,1.48,1.8s.87,1.15,1.28,1.75c.19.27.38.54.56.82s.38.56.55.84c.42.66.81,1.33,1.19,2,.19.34.37.68.55,1s.5,1,.74,1.48.37.8.54,1.21c.08.15.15.3.22.46h0v0l33.75,70.73h0l1.33,2.79h0l4.34,9.11h0l4.19,2.06,2.36,1.16Z"/><polygon class="cls-2" points="540.02 888.41 540.02 900.25 461.48 900.25 461.48 859.99 496.07 859.97 498.35 859.97 498.35 859.97 503.64 870.55 505.88 875.03 516.15 879.06 540.02 888.41"/><polygon class="cls-2" points="663.88 496.34 663.87 496.35 662.24 500.97 661.53 502.98 660.17 506.82 660.15 506.89 659.55 508.61 623.04 506.31 604.48 493.63 604.93 492.85 613.17 478.71 615.93 473.98 615.94 473.98 615.94 473.97 633.95 475.32 663.88 496.34"/></svg>