<svg width="1300" height="1000" viewBox="0 0 1300 1000" fill="none" xmlns="http://www.w3.org/2000/svg">
<path d="M383.074 469.162C383.074 467.5 388.976 412.035 406.504 376C421.553 346.825 445.564 342.455 483.683 342.021C520.658 341.595 550.725 347.537 566.627 375.218C582.068 411.322 596.906 464.404 596.906 464.404L648.5 502.5L672.102 508.832C681.337 511.31 686.306 521.325 682.693 530.177C680.78 534.863 676.116 537.829 671.062 537.574L630 535.5L551 492.5L564.504 718L563.004 874L578.602 880.406C586.105 883.488 591.004 890.796 591.004 898.907V900H497.504L499.004 882C496.197 880.129 494.527 876.965 494.565 873.592L496.004 746L486.504 621L477.504 746V874C477.504 877.148 476.022 880.111 473.504 882L475.004 900H383C383 892.368 387.401 885.42 394.301 882.158L410.504 874.5L408.504 718L415.004 599.5L409.135 622.486C409.054 622.804 408.809 623.055 408.493 623.143C396.437 626.519 384.612 617.103 385.201 604.597L386.72 572.37C386.72 572.37 383.074 513 383.074 469.162Z" fill="white"/>
<path d="M389.07 472.47C389.07 472.47 394.51 415.787 411.05 380.515C425.251 351.958 448.039 348.445 484.01 348.02C518.902 347.604 547.274 353.42 562.28 380.515C576.852 415.854 590.5 467.5 590.5 467.5L645.5 508L672.224 515.738C675.773 516.766 678.121 520.133 677.86 523.818C677.555 528.133 673.81 531.384 669.495 531.081L632.718 528.493L557.5 487.5L539.76 419.025C539.607 418.434 539.073 418.02 538.462 418.02C537.676 418.02 537.058 418.694 537.126 419.477L543 487.5L546 518L549 573.855L558.5 717.008L557 878.015L578.216 887.127C581.833 888.681 584.202 892.212 584.268 896.149L584.332 900H503.5L505.59 877.99C502.797 878.007 500.531 875.733 500.557 872.94L501.755 744.12L489.223 596.836C489.097 595.357 487.859 594.22 486.374 594.22C484.886 594.22 483.647 595.363 483.525 596.846L471.49 744.135L471.248 873.71C471.244 876.104 469.293 878.037 466.9 878.02L468.891 900H389C389 894.808 391.968 890.073 396.641 887.811L416.82 878.04L414.66 717.02L422 573.5L424.5 518L427.5 488L432.895 419.336C432.951 418.617 432.381 418.005 431.66 418.011C431.047 418.016 430.531 418.474 430.453 419.082L423.99 469.09L414.5 573.493L404.284 617.144C404.217 617.429 403.963 617.63 403.671 617.63C396.496 617.63 390.773 611.641 391.099 604.473L392.51 573.493L389.06 472.47H389.07Z" fill="black"/>
<path d="M473.324 340C477.25 341.471 484.581 341.995 486.5 342C486.5 342 495.146 341.928 500.182 340C505.858 337.828 509.019 335.707 512.851 331.04C516.428 326.684 518.932 318 518.932 318L523.493 291C523.493 291 524.009 287.351 524 285C523.98 279.409 523.223 276.126 520.959 271C518.634 265.735 516.601 262.917 512.345 259C507.808 254.824 504.538 253 498.662 251.032C494.101 249.504 491.317 249.039 486.5 249C481.33 249.175 479.405 249.5 474.471 251.032C469.533 252.681 464.492 255.602 460.655 259C456.819 262.398 454.134 266.42 452.041 271C449.947 275.58 449.002 280.002 449 285C449.001 286.885 449.208 289.137 449.507 291L454.965 317.833C454.965 317.833 458.115 327.159 461.162 331C464.209 334.841 468.628 338.241 473.324 340Z" fill="white"/>
<path d="M475.432 334.258C478.73 335.539 484.888 335.996 486.5 336C486.5 336 493.763 335.937 497.993 334.258C502.76 332.366 505.416 330.519 508.635 326.454C511.639 322.661 513.743 315.097 513.743 315.097L517.574 291.581C517.574 291.581 518.007 288.403 518 286.355C517.983 281.485 517.348 278.626 515.446 274.161C513.493 269.576 511.784 267.122 508.209 263.71C504.398 260.073 501.651 258.484 496.716 256.77C492.884 255.439 490.546 255.034 486.5 255C482.158 255.152 480.541 255.435 476.396 256.77C472.248 258.206 468.013 260.75 464.791 263.71C461.568 266.669 459.313 270.172 457.554 274.161C455.795 278.151 455.002 282.002 455 286.355C455 287.996 455.175 289.958 455.426 291.581L460.011 314.951C460.011 314.951 462.657 323.074 465.216 326.419C467.776 329.765 471.488 332.726 475.432 334.258Z" fill="black"/>
<path d="M726.931 505.755L675.952 535.456L656.684 502.385L707.662 472.684L726.931 505.755Z" fill="white" stroke="black" stroke-width="7"/>
</svg>
