<svg id="Capa_3" data-name="Capa 3" xmlns="http://www.w3.org/2000/svg" viewBox="0 0 1300 1000"><defs><style>.cls-1{fill:#fff;}.cls-2{fill:#1e1e1c;}</style></defs><title>1-subject</title><polygon class="cls-1" points="999.35 542.45 979.64 542.54 979.64 542.55 974.24 542.55 973.32 537.67 982.58 536.72 986.74 536.3 998.67 537.48 998.97 537.51 999.35 542.34 999.35 542.35 999.35 542.45"/><polygon class="cls-1" points="1240.6 493.63 1241.05 492.85 1249.29 478.71 1252.05 473.98 1251.9 473.96 1251.94 473.9 1247.42 471.67 1244.3 476.05 1243.89 476.62 1239.33 483.03 1236.57 489.04 1235.48 491.43 1233.33 496.13 1237.87 498.08 1240.6 493.63"/><polygon class="cls-1" points="1097.6 859.99 1132.19 859.97 1134.47 859.97 1134.47 859.97 1139.65 859.97 1139.58 853.56 1118.09 852.33 1097.08 853.54 1097.59 859.88 1097.6 859.97 1097.59 859.97 1097.6 859.99"/><polygon class="cls-1" points="1038.34 853.58 1037.84 859.97 1037.83 859.97 1037.83 859.99 1003.25 859.97 1000.94 859.97 1000.94 859.97 995.83 859.97 995.88 853.54 1016.95 852.33 1038.34 853.58"/><path class="cls-1" d="M1130.73,542.54H1004.45l0-.11,1.08-7.71c5.07-.36,61.75-3.76,61.75-3.76l62.38,3.8,1,7.67Z"/><path class="cls-2" d="M1034.49,261.88l.5,2.53C1034.79,263.58,1034.63,262.74,1034.49,261.88Z"/><path class="cls-2" d="M1100.84,256.69a32.62,32.62,0,0,1-.39,5.07h0c-.13.88-.3,1.74-.5,2.59l-5,25.74a.2.2,0,0,1,0,.07l-.27,1.42a.59.59,0,0,1,0,.19,23.35,23.35,0,0,1-16.06,17.16,30.79,30.79,0,0,1-3.19.76,42,42,0,0,1-8,.77,40.39,40.39,0,0,1-11.13-1.53,23.4,23.4,0,0,1-16.54-20v0l-4.8-24.5-.5-2.54v-.08a32.91,32.91,0,0,1-.39-5.1,33.38,33.38,0,0,1,66.75,0Z"/><path class="cls-2" d="M1094.72,291.59l0,.19h0A.58.58,0,0,0,1094.72,291.59Z"/><polygon class="cls-2" points="1139.58 853.56 1118.09 852.33 1097.08 853.54 1086.75 725.07 1071.38 597.61 1063.55 597.61 1063.55 597.61 1048.43 725.07 1038.34 853.58 1016.95 852.33 995.88 853.54 996.91 725.97 1000.29 611.53 1003.76 547.52 1004.45 542.54 1130.73 542.54 1131.4 547.52 1134.97 611.53 1138.26 725.97 1139.58 853.56"/><polygon class="cls-2" points="999.36 542.45 999.35 542.48 999.34 542.54 999.29 542.73 998.38 546.48 994.59 562.16 994.58 562.17 969 588.3 959.19 582.91 979.55 542.72 979.63 542.55 979.64 542.55 979.64 542.54 999.35 542.45 999.36 542.45"/><polygon class="cls-2" points="1037.84 859.97 1037.84 900.25 958.72 900.25 958.72 888.41 985.67 877.99 993.33 875.03 995.74 870.25 1000.94 859.97 1000.94 859.97 1000.94 859.97 1003.25 859.97 1037.83 859.99 1037.83 859.97 1037.84 859.97"/><path class="cls-2" d="M1247.42,471.67l-3.12,4.38-.41.57-4.57,6.41-2.75,6-1.09,2.39-2.15,4.7-70.24-30-.64-.27-.81-.39c-.27-.14-.53-.27-.79-.42l-.78-.46c-.25-.16-.5-.32-.74-.49-.5-.35-1-.71-1.44-1.09s-.91-.8-1.33-1.23c-.18-.2-.38-.4-.55-.6a19.54,19.54,0,0,1-2-2.59h0c-.29-.47-.57-.95-.82-1.44h0l-6.41-12.6-1.87-3.64-1.79-3.52-13.55-26.47-3.29-6.45h0l-1.49-2.9h-2.61l-.26,13.52v.73l-.71,37.86-.12,6.06-.18,9.71,8.8,65.35L1067.3,531s-56.68,3.4-61.75,3.76l9.11-65.32-.21-11.29-.09-4.47-.73-37.64-.27-14.29h-2.61l-3.54,11.1-7.8,24.49-3.65,11.45h0l-1.56,4.89-1.33,4.16-.07.22.22,2.92h0l6,76.57h0l-.3,0-11.93-1.18-4.16.42-9.26.95-15.6-82.51v-.05l-.25-1.31s0,0,0,0,0-.08,0-.13a3,3,0,0,1-.06-.42,18.33,18.33,0,0,1-.09-3.91c0-.25,0-.5.07-.75.06-.49.14-1,.23-1.47s.21-1,.34-1.43l.21-.71.27-.79h0l.1-.25,30.15-82.54.38-1a.49.49,0,0,1,.06-.17,41.55,41.55,0,0,1,3.32-6.8c.36-.61.74-1.2,1.14-1.78.16-.25.33-.5.5-.75l.53-.73c.17-.24.36-.49.54-.73l.2-.25c.49-.62,1-1.22,1.49-1.81a42.25,42.25,0,0,1,3.49-3.59h0l0,0,0,0,.07-.06c.1-.11.28-.27.51-.48s.29-.27.48-.43l.67-.58.66-.53c.13-.12.27-.23.41-.34l1-.77.47-.35c.32-.25.66-.5,1-.76l.07,0c.58-.43,1.22-.86,1.9-1.32.46-.31.93-.62,1.44-.94l.77-.48,1.2-.74c.42-.25.85-.5,1.29-.74s.89-.51,1.35-.76c.7-.39,1.42-.78,2.18-1.17,1.49-.77,3.1-1.55,4.82-2.31.3-.12.58-.25.87-.38.89-.38,1.79-.76,2.72-1.12l1-.37,0,0c.81-.31,1.65-.61,2.5-.92l1.43-.49c.83-.29,1.69-.56,2.56-.83l.52-.17,1.17-.34c.5-.15,1-.29,1.49-.42s1-.28,1.52-.41L1038,325l1.59-.38,1.62-.36,1.64-.34c1.65-.33,3.35-.63,5.09-.9h.1l1.75-.25,1.82-.24c.61-.08,1.22-.14,1.84-.21l1.89-.19,1.92-.16c1.93-.15,3.91-.26,6-.31,1.35,0,2.73-.07,4.13-.07s2.88,0,4.28.07,2.6.09,3.87.16a2,2,0,0,1,.35,0c1.33.07,2.62.17,3.89.28l1.92.19,1.9.21c.46.05.93.1,1.39.17l1.36.18c.21,0,.43.05.64.09l.57.09h.08c1.05.16,2.08.33,3.1.51l.19,0q1.68.3,3.3.63l1.64.35,1.61.37,1.57.39,1.16.3,1.12.3,1.1.31,1.13.33c.6.19,1.2.36,1.78.56,1.18.36,2.31.75,3.41,1.14s1.89.69,2.79,1.05l.93.37c.83.33,1.64.67,2.42,1l.8.35.09,0,.86.39,1.25.59,1.22.6c2.47,1.23,4.64,2.45,6.51,3.62.66.4,1.3.81,1.89,1.2l.25.17c.78.52,1.49,1,2.13,1.49.27.19.53.39.78.58h0l.94.72.42.34.14.11.71.58.52.46.5.44a4.38,4.38,0,0,1,.37.34l.14.14a.94.94,0,0,1,.1.1.19.19,0,0,1,.08.07h0l0,0h0a41.47,41.47,0,0,1,3.51,3.63c.51.59,1,1.19,1.48,1.8s.87,1.15,1.28,1.75c.19.27.38.54.56.82s.37.56.55.84c.42.66.81,1.33,1.19,2,.19.34.37.68.55,1s.5,1,.74,1.48.37.8.54,1.21c.08.15.15.3.22.46h0v0L1179,428.88h0l1.33,2.79h0l4.34,9.11h0l4.19,2.06,2.36,1.16Z"/><polygon class="cls-2" points="1176.14 888.41 1176.14 900.25 1097.6 900.25 1097.6 859.99 1132.19 859.97 1134.47 859.97 1134.47 859.97 1139.76 870.55 1141.99 875.03 1152.27 879.06 1176.14 888.41"/><polygon class="cls-2" points="1300 496.34 1299.99 496.35 1298.36 500.97 1297.65 502.98 1296.29 506.82 1296.27 506.89 1295.66 508.61 1259.16 506.31 1240.6 493.63 1241.05 492.85 1249.29 478.71 1252.05 473.98 1252.06 473.98 1252.06 473.97 1270.07 475.32 1300 496.34"/></svg>