<svg id="Capa_1" data-name="Capa 1" xmlns="http://www.w3.org/2000/svg" viewBox="0 0 1300 1000"><defs><style>.cls-1{fill:#262626;}</style></defs><title>handle--first-quadrant</title><path class="cls-1" d="M303.75,459.85l7.15-17.21-78.57-46.76c-48.27-109.11-108-102.22-108-102.22-83.83,0-109.12,125.41-109.12,125.41L55.6,491.89l-7.41,39H61.55L32.8,865.46H44.91L15.3,891v9.55H84.19l-.33-34.07,13.34,0,25.68-317.3,25.92,317.3,14.08,0-.13,34.07h69.88l-.18-10.38-25.28-24.66h8L186.42,531.15l13.15,0-32.5-177.67,43.42,65.14ZM62,458.3,45.7,415.68l36.13-62Z"/><ellipse class="cls-1" cx="124.37" cy="252.81" rx="24" ry="30"/></svg>