<svg id="Capa_1" data-name="Capa 1" xmlns="http://www.w3.org/2000/svg" viewBox="0 0 1300 1000"><defs><style>.cls-1{fill:#262626;}</style></defs><title>handle--fourth-quadrant</title><path class="cls-1" d="M1278.75,459.85l7.15-17.21-78.57-46.76c-48.27-109.11-108-102.22-108-102.22-83.83,0-109.12,125.41-109.12,125.41l40.44,72.82-7.41,39h13.36L1007.8,865.46h12.11L990.3,891v9.55h68.89l-.33-34.07,13.34,0,25.68-317.3,25.92,317.3,14.08,0-.13,34.07h69.88l-.18-10.38-25.28-24.66h8l-28.71-334.31,13.15,0-32.5-177.67,43.42,65.14ZM1037,458.3l-16.28-42.62,36.14-62Z"/><ellipse class="cls-1" cx="1099.37" cy="252.81" rx="24" ry="30"/></svg>