<svg id="Capa_3" data-name="Capa 3" xmlns="http://www.w3.org/2000/svg" viewBox="0 0 1300 1000"><defs><style>.cls-1{fill:#fff;}.cls-2{fill:#1e1e1c;}</style></defs><title>1-subject</title><polygon class="cls-1" points="690.42 499.26 692.5 500.68 700.43 506.1 703.61 509.38 709.89 515.85 706.05 519.11 700.3 514.38 686.74 503 686.82 502.93 690.42 499.26"/><polygon class="cls-1" points="921.34 538.31 921.65 538.28 933.36 537.12 937.74 537.56 946.99 538.51 946.99 538.56 946.08 543.36 921 543.45 920.98 543.36 920.95 543.27 921.34 538.31"/><path class="cls-1" d="M789.53,543.36H915.86l0-.11-1.07-7.7c-3.3-.25-62-3.77-62-3.77l-62.18,3.78-1,7.69Z"/><polygon class="cls-1" points="780.68 854.48 801.96 853.27 823.19 854.49 822.68 860.9 822.68 860.93 822.67 860.93 788.08 860.91 785.79 860.9 780.61 860.9 780.68 854.48"/><polygon class="cls-1" points="881.96 854.49 882.46 860.9 882.46 860.93 917.05 860.91 919.36 860.9 924.49 860.9 924.44 854.48 903.14 853.27 881.96 854.49"/><path class="cls-2" d="M690.42,499.26l2.08,1.42,7.93,5.42,3.18,3.28,6.28,6.47,63.18-53.49v0l.7-.59h0c.3-.26.58-.54.86-.82s.54-.56.8-.86.43-.5.62-.76l.15-.18c.23-.31.46-.62.67-.93A18.82,18.82,0,0,0,779,454l0-.09,0-.06.35-1.11v0l12.73-40h0l1.73-5.43v0l1.57-4.91h2.61l.25,13.53.73,38.61.11,6.06.19,9.71-8.8,65.36,62.18-3.78s58.69,3.52,62,3.77h0l-9.12-65.36.21-11.29.09-4.47.73-37.65.27-14.31h2.62l3.54,11.12,11.46,36,1.55,4.88,1.33,4.16.07.22-.22,2.9h0l-5.95,76.59.31,0,11.71-1.16,4.38.44,9.25,1v0l3.07-16.29,12.5-66.13a.15.15,0,0,0,0-.06l.31-1.65c0-.14,0-.28.06-.42a19.13,19.13,0,0,0-1-9.07l-.09-.25-30.17-82.57-.38-1a.58.58,0,0,0-.06-.17c-.15-.4-.3-.79-.47-1.18l-.5-1.16-.54-1.14c-.19-.38-.38-.76-.57-1.12-.39-.75-.81-1.48-1.24-2.2a40.47,40.47,0,0,0-2.45-3.63c-.19-.26-.38-.51-.58-.76s-.38-.48-.58-.72-.47-.58-.71-.85c-.51-.59-1-1.16-1.56-1.72l-.38-.38c-.24-.25-.48-.49-.73-.72s-.6-.58-.91-.87h0l-.3-.28-.16-.15a52,52,0,0,0-4.67-3.78l-.75-.53c-.47-.33-1-.68-1.5-1l-.82-.54c-.28-.18-.56-.37-.86-.54l-.9-.57c-1.72-1.06-3.68-2.16-5.85-3.27l-1-.52-1.07-.51-1.08-.52-.25-.11c-.53-.24-1.07-.49-1.63-.73l-.1,0L898,330.9c-.28-.13-.56-.24-.83-.35s-.81-.33-1.23-.49c-1.1-.45-2.26-.88-3.45-1.29-.44-.16-.89-.32-1.35-.47s-1.09-.37-1.64-.54l-1.68-.52c-.53-.16-1.06-.33-1.61-.48s-1.25-.35-1.88-.51l-1.07-.28-1.08-.27-1.1-.26-1.11-.26c-1.19-.26-2.39-.51-3.64-.75l-1-.18-2.41-.4-1.22-.19c-1-.15-2.1-.3-3.16-.42l-1.53-.18-1.69-.17c-.33,0-.66-.06-1-.09l-1.64-.13c-.63-.05-1.25-.09-1.89-.12s-1.27-.08-1.9-.1-1.3-.06-2-.07c-1.31,0-2.64-.06-4-.06h-2.12l-1.6,0c-1.9.05-3.75.13-5.55.26l-1.1.07-2.12.17h0l-2,.2h-.06l-1.56.18a117,117,0,0,0-19.9,4.05l-1.23.38c-.36.1-.72.21-1.07.34s-.68.21-1,.33c-1,.32-1.95.67-2.88,1l-.63.23c-.73.27-1.43.55-2.13.83-.5.2-1,.4-1.47.61-1,.4-1.89.82-2.78,1.23s-1.75.82-2.57,1.24-1.62.82-2.38,1.24-1.48.81-2.17,1.21l-1,.59c-1,.61-1.94,1.2-2.8,1.77l-.74.5-.76.52-.42.3c-1.24.89-2.25,1.68-3,2.33l-.57.48-.26.22-.19.17c-.45.41-.77.7-.94.87l-.07.07-.09.09c-.31.28-.62.57-.92.88-.62.6-1.22,1.22-1.8,1.85-.29.32-.58.63-.85,1a43.05,43.05,0,0,0-3.14,4.12c-.48.71-.94,1.44-1.38,2.2-.18.31-.37.63-.54.94s-.27.5-.4.76-.3.57-.45.87a.39.39,0,0,0-.06.11c-.13.25-.25.51-.37.77-.38.78-.72,1.58-1.05,2.4-.16.4-.32.81-.46,1.22l-.34,1L751,427.46l-1.5,4.3-4,11.35h0l-4,4h0L732.89,456Zm100.69-95.54,0-.22a1.55,1.55,0,0,0,0,.22Z"/><polygon class="cls-2" points="780.68 854.48 801.96 853.27 823.19 854.49 833.53 725.96 848.91 598.45 856.73 598.45 871.87 725.96 881.95 854.49 881.96 854.49 903.14 853.27 924.44 854.48 923.41 726.85 920.02 612.38 916.55 548.34 915.86 543.36 789.53 543.36 788.86 548.34 785.29 612.38 782 726.85 780.68 854.48"/><polygon class="cls-2" points="744.11 889.36 744.11 901.2 822.68 901.2 822.68 860.93 822.67 860.93 788.08 860.91 785.79 860.9 780.5 871.49 778.27 875.98 767.99 880 744.11 889.36"/><path class="cls-2" d="M819.43,257.41a33.79,33.79,0,0,0,.39,5.07v0l.5,2.58,4.95,25.75a.19.19,0,0,0,0,.07l.27,1.42a.58.58,0,0,0,0,.19,23.41,23.41,0,0,0,16.07,17.17h0a41.32,41.32,0,0,0,22.28,0h0a23.39,23.39,0,0,0,16.56-20s0,0,0,0l4.77-24.37c.2-.83.35-1.68.49-2.53l0-.22a32.9,32.9,0,0,0,.41-5.1,33.39,33.39,0,0,0-66.78,0Z"/><polygon class="cls-2" points="920.98 543.45 925.73 562.99 951.32 589.14 961.13 583.75 940.67 543.37 921 543.45 920.98 543.45"/><polygon class="cls-2" points="661.91 551.97 671.44 557.85 700.3 514.38 686.74 503 672.03 516.81 672.03 516.82 661.91 551.97"/><polygon class="cls-2" points="882.45 860.93 882.45 901.2 961.6 901.2 961.6 889.36 934.65 878.93 926.99 875.98 924.58 871.19 919.37 860.9 919.36 860.9 917.05 860.91 882.46 860.93 882.45 860.93"/><path class="cls-1" d="M661.38,563.27l.55-.57,1.1-1.1,8.86-8.88,8.15-8.16,4.35-4.36a.53.53,0,0,0,0-.73l-1-1-35.49-35.42-2.63-2.63,0,0a.18.18,0,0,0-.07,0,.44.44,0,0,0-.17-.07.56.56,0,0,0-.34.08s0,0,0,0l0,0s0,0-.07,0l-18.68,18.68-4.35,4.37a.46.46,0,0,0,0,.65l1,1,34.4,34.54,3.63,3.63h0l.09.06a.36.36,0,0,0,.19.08.56.56,0,0,0,.41-.1A.5.5,0,0,0,661.38,563.27Z"/><path class="cls-2" d="M615.19,525a7.67,7.67,0,0,0,2.17,5.24L652,564.64l2.63,2.63.26.25a7.72,7.72,0,0,0,1.17.87,7.64,7.64,0,0,0,8.27-.27c.19-.15.39-.29.57-.45l.27-.24.22-.2,1.66-1.67,8.88-8.86,8.16-8.14,4.51-4.51a7.6,7.6,0,0,0-.13-10.56l0,0L653,498l-1.63-1.64-.26-.24a7.3,7.3,0,0,0-1.18-.89,8.07,8.07,0,0,0-2.76-1,7.67,7.67,0,0,0-5.61,1.3c-.2.15-.41.28-.59.44l-.27.25-18.89,18.89-4.52,4.52A7.61,7.61,0,0,0,615.19,525Zm16.67-11.82,12.68-12.67.06,0,0,0s0,0,0,0a.51.51,0,0,1,.35-.07.28.28,0,0,1,.16.06.11.11,0,0,1,.07.06h0l2.63,2.63,35.49,35.42,1,1a.53.53,0,0,1,0,.73L680,544.57l-8.14,8.15-.21.22Zm-10.35,10.38,3.62-3.63L665,559.69,663,561.6l-1.12,1.1-.54.57-.13.1a.58.58,0,0,1-.41.1.33.33,0,0,1-.19-.08.18.18,0,0,1-.09-.06h0l-3.63-3.63-34.4-34.54-1-1A.46.46,0,0,1,621.51,523.51Z"/></svg>