<svg id="Capa_1" data-name="Capa 1" xmlns="http://www.w3.org/2000/svg" viewBox="0 0 1300 1000"><defs><style>.cls-1{fill:#fff;stroke:#262626;stroke-miterlimit:10;stroke-width:10px;}.cls-2{fill:#262626;}</style></defs><title>hold-card--third-quadrant</title><path class="cls-1" d="M625.73,470.44l33,39.37a5,5,0,0,0,7.05.62l6.56-5.51,13.86-11.63a5,5,0,0,0,.62-7l-33-39.38a5,5,0,0,0-7-.62L634.3,456.72l-2,1.68-5.95,5A5,5,0,0,0,625.73,470.44Z"/><line class="cls-1" x1="679.94" y1="497.03" x2="643.19" y2="453.24"/><path class="cls-2" d="M681.66,493.52l-15-11.66s97-187.58,182.61-187.58c81.75,0,108.45,124.8,108.45,124.8L918,495.87l6.93,36.36H911.51l29.42,334H929.54l28.31,26.25.51,8.75h-70l.73-34-13.5.35-25.06-319.2-27.24,319.2-13.5-.35.73,34h-70l.51-8.68,28.31-26.32H757.87l29.42-334H773.86L807.49,354l-55,59.83Zm229.26-34.9,14.82-42.91-35.1-63.53Z"/><ellipse class="cls-2" cx="851.23" cy="251.83" rx="24" ry="30"/></svg>