<svg width="1300" height="1000" viewBox="0 0 1300 1000" fill="none" xmlns="http://www.w3.org/2000/svg">
<path d="M177.555 579.353C177.555 579.353 181.816 536.84 194.771 510.386C205.895 488.968 223.744 486.334 251.919 486.015C279.249 485.703 301.473 490.065 313.227 510.386C324.641 536.891 328.955 577.328 328.955 577.328L326.141 655.391L326.502 681.322C326.608 688.99 319.659 694.829 312.124 693.404C311.54 693.294 311.074 692.852 310.933 692.274L301.87 655.12L297.884 615.59L293.898 576.06L295.347 539.45C295.367 538.94 294.959 538.515 294.448 538.515C293.906 538.515 293.487 538.992 293.556 539.529L300.125 590.625L302.475 613.5L304.825 655.391L312.266 762.756L311.091 880.511L324.326 886.848C327.458 888.347 329.587 891.363 329.952 894.816L330.5 900H261.186L263 888.515C260.209 886.674 258.547 883.538 258.59 880.195L259.819 785.09L251.324 667.489C251.176 665.43 253.249 663.937 255.154 664.731C256.256 665.19 256.94 666.304 256.852 667.494L248.113 785.102L247.927 880.243C247.921 883.555 246.26 886.659 243.518 888.515L245.077 900H177.5C177.2 894 180.696 888.457 186.24 886.143L197.291 881.53L195.599 762.765L201.348 655.125L203.306 613.5L205.656 591L210.941 539.725C210.956 539.582 210.909 539.439 210.813 539.332C210.522 539.01 209.988 539.175 209.93 539.605L204.907 576.818L203.474 661.12L195.479 693.826C195.42 694.068 195.226 694.253 194.981 694.299C187.077 695.809 179.778 689.687 179.887 681.641L180.249 655.12L177.547 579.353H177.555Z" fill="white"/>
<path d="M181.552 582.451C181.552 582.451 185.59 540.349 197.868 514.151C208.41 492.94 225.326 490.331 252.028 490.015C277.929 489.706 298.991 494.026 310.13 514.151C320.947 540.399 325.036 580.445 325.036 580.445L322.369 657.755L323.437 681.097C323.664 686.07 319.71 690.234 314.731 690.264C314.222 690.267 313.778 689.919 313.659 689.423L306.001 657.486L298.446 579.19L293.334 542.823C293.269 542.356 292.869 542.008 292.397 542.008C291.841 542.008 291.405 542.483 291.453 543.036L295.818 593.614L298.045 616.268L300.272 657.755L307.324 764.082L306.211 883.671L320.43 889.781C324.046 891.335 326.414 894.866 326.48 898.802L326.5 900H266.496L268.048 883.652C265.974 883.665 264.292 881.977 264.312 879.904L265.201 784.22L255.898 674.823C255.804 673.725 254.886 672.881 253.783 672.881C252.679 672.881 251.759 673.729 251.669 674.83L242.734 784.231L242.555 880.475C242.551 882.252 241.104 883.687 239.327 883.675L240.805 900H181.5C181.5 896.144 183.704 892.626 187.175 890.945L202.151 883.689L200.548 764.091L205.997 657.491L207.853 616.268L210.079 593.986L214.084 542.984C214.126 542.451 213.703 541.997 213.168 542.001C212.713 542.005 212.33 542.344 212.271 542.796L207.474 579.94L200.429 657.486L192.845 689.908C192.796 690.119 192.608 690.269 192.391 690.269C187.064 690.269 182.816 685.823 183.058 680.502L184.106 657.486L181.545 582.451H181.552Z" fill="black"/>
<path d="M242.405 484.258C245.86 485.539 252.311 485.996 254 486C254 486 261.609 485.937 266.04 484.258C271.035 482.366 273.817 480.519 277.189 476.454C280.336 472.661 282.54 465.097 282.54 465.097L286.554 441.581C286.554 441.581 287.007 438.403 287 436.355C286.982 431.485 286.316 428.626 284.324 424.161C282.278 419.576 280.488 417.122 276.743 413.71C272.751 410.073 269.873 408.484 264.703 406.77C260.688 405.439 258.239 405.034 254 405C249.451 405.152 247.757 405.435 243.415 406.77C239.069 408.206 234.633 410.75 231.257 413.71C227.881 416.669 225.518 420.172 223.676 424.161C221.833 428.151 221.002 432.002 221 436.355C221 437.996 221.183 439.958 221.446 441.581L226.249 464.951C226.249 464.951 229.021 473.074 231.703 476.419C234.384 479.765 238.273 482.726 242.405 484.258Z" fill="white"/>
<path d="M244.838 478.516C247.717 479.607 253.093 479.997 254.5 480C254.5 480 260.841 479.946 264.534 478.516C268.696 476.904 271.014 475.331 273.824 471.868C276.447 468.637 278.284 462.194 278.284 462.194L281.628 442.161C281.628 442.161 282.006 439.454 282 437.71C281.985 433.561 281.43 431.126 279.77 427.323C278.065 423.417 276.574 421.326 273.453 418.419C270.126 415.321 267.727 413.968 263.419 412.508C260.074 411.374 258.032 411.029 254.5 411C250.709 411.13 249.297 411.371 245.679 412.508C242.058 413.731 238.36 415.898 235.547 418.419C232.734 420.94 230.765 423.924 229.23 427.323C227.694 430.721 227.001 434.001 227 437.71C227 439.108 227.153 440.779 227.372 442.161L231.375 462.07C231.375 462.07 233.685 468.989 235.919 471.839C238.153 474.689 241.394 477.211 244.838 478.516Z" fill="black"/>
<path d="M383.074 469.162C383.074 467.5 388.976 412.035 406.504 376C421.553 346.825 445.564 342.455 483.683 342.021C520.658 341.595 550.725 347.537 566.627 375.218C582.068 411.322 596.906 464.404 596.906 464.404L648.5 502.5L672.102 508.832C681.337 511.31 686.306 521.325 682.693 530.177C680.78 534.863 676.116 537.829 671.062 537.574L630 535.5L551 492.5L564.504 718L563.004 874L578.602 880.406C586.105 883.488 591.004 890.796 591.004 898.907V900H497.504L499.004 882C496.197 880.129 494.527 876.965 494.565 873.592L496.004 746L486.504 621L477.504 746V874C477.504 877.148 476.022 880.111 473.504 882L475.004 900H383C383 892.368 387.401 885.42 394.301 882.158L410.504 874.5L408.504 718L415.004 599.5L409.135 622.486C409.054 622.804 408.809 623.055 408.493 623.143C396.437 626.519 384.612 617.103 385.201 604.597L386.72 572.37C386.72 572.37 383.074 513 383.074 469.162Z" fill="white"/>
<path d="M389.07 472.47C389.07 472.47 394.51 415.787 411.05 380.515C425.251 351.958 448.039 348.445 484.01 348.02C518.902 347.604 547.274 353.42 562.28 380.515C576.852 415.854 590.5 467.5 590.5 467.5L645.5 508L672.224 515.738C675.773 516.766 678.121 520.133 677.86 523.818C677.555 528.133 673.81 531.384 669.495 531.081L632.718 528.493L557.5 487.5L539.76 419.025C539.607 418.434 539.073 418.02 538.462 418.02C537.676 418.02 537.058 418.694 537.126 419.477L543 487.5L546 518L549 573.855L558.5 717.008L557 878.015L578.216 887.127C581.833 888.681 584.202 892.212 584.268 896.149L584.332 900H503.5L505.59 877.99C502.797 878.007 500.531 875.733 500.557 872.94L501.755 744.12L489.223 596.836C489.097 595.357 487.859 594.22 486.374 594.22C484.886 594.22 483.647 595.363 483.525 596.846L471.49 744.135L471.248 873.71C471.244 876.104 469.293 878.037 466.9 878.02L468.891 900H389C389 894.808 391.968 890.073 396.641 887.811L416.82 878.04L414.66 717.02L422 573.5L424.5 518L427.5 488L432.895 419.336C432.951 418.617 432.381 418.005 431.66 418.011C431.047 418.016 430.531 418.474 430.453 419.082L423.99 469.09L414.5 573.493L404.284 617.144C404.217 617.429 403.963 617.63 403.671 617.63C396.496 617.63 390.773 611.641 391.099 604.473L392.51 573.493L389.06 472.47H389.07Z" fill="black"/>
<path d="M473.324 340C477.25 341.471 484.581 341.995 486.5 342C486.5 342 495.146 341.928 500.182 340C505.858 337.828 509.019 335.707 512.851 331.04C516.428 326.684 518.932 318 518.932 318L523.493 291C523.493 291 524.009 287.351 524 285C523.98 279.409 523.223 276.126 520.959 271C518.634 265.735 516.601 262.917 512.345 259C507.808 254.824 504.538 253 498.662 251.032C494.101 249.504 491.317 249.039 486.5 249C481.33 249.175 479.405 249.5 474.471 251.032C469.533 252.681 464.492 255.602 460.655 259C456.819 262.398 454.134 266.42 452.041 271C449.947 275.58 449.002 280.002 449 285C449.001 286.885 449.208 289.137 449.507 291L454.965 317.833C454.965 317.833 458.115 327.159 461.162 331C464.209 334.841 468.628 338.241 473.324 340Z" fill="white"/>
<path d="M475.432 334.258C478.73 335.539 484.888 335.996 486.5 336C486.5 336 493.763 335.937 497.993 334.258C502.76 332.366 505.416 330.519 508.635 326.454C511.639 322.661 513.743 315.097 513.743 315.097L517.574 291.581C517.574 291.581 518.007 288.403 518 286.355C517.983 281.485 517.348 278.626 515.446 274.161C513.493 269.576 511.784 267.122 508.209 263.71C504.398 260.073 501.651 258.484 496.716 256.77C492.884 255.439 490.546 255.034 486.5 255C482.158 255.152 480.541 255.435 476.396 256.77C472.248 258.206 468.013 260.75 464.791 263.71C461.568 266.669 459.313 270.172 457.554 274.161C455.795 278.151 455.002 282.002 455 286.355C455 287.996 455.175 289.958 455.426 291.581L460.011 314.951C460.011 314.951 462.657 323.074 465.216 326.419C467.776 329.765 471.488 332.726 475.432 334.258Z" fill="black"/>
<path d="M770.799 498.646L685.689 547.763L646.781 480.343L731.892 431.227L770.799 498.646Z" fill="white" stroke="black" stroke-width="7"/>
</svg>
