<svg width="1300" height="1000" viewBox="0 0 1300 1000" fill="none" xmlns="http://www.w3.org/2000/svg">
<path d="M121.5 605.5C121.5 603 128.976 544.035 146.504 508C161.553 478.825 185.564 474.455 223.683 474.021C260.658 473.595 290.725 479.537 306.627 507.218C321 543.5 328 605.5 328 605.5V666.5L336.92 684.887C343.315 698.067 331.865 712.873 317.5 710L308.5 693L298.5 872L316.964 883.078C322.943 886.666 324.165 894.817 319.5 900H245V882L242.701 880.085C240.363 878.135 239.039 875.227 239.106 872.183L242.5 717.5L226.504 704L211 717.5L212.944 872.501C212.979 875.362 211.788 878.102 209.671 880.026L207.5 882V900H133C129.383 893.601 131.524 885.485 137.827 881.704L154 872L144 693L134 710C121.827 713.043 111.067 701.493 114.964 689.565L122.5 666.5C122.5 666.5 121.5 649.5 121.5 605.5Z" fill="white"/>
<path d="M129.07 604.47C129.07 604.47 134.51 547.787 151.05 512.515C165.251 483.958 188.039 480.445 224.01 480.02C258.902 479.604 287.274 485.42 302.28 512.515C313 541 321 605 321 605V665.855L331.283 688.324C334.613 695.599 329.924 704.015 321.986 705.014C321.39 705.089 320.807 704.796 320.511 704.272L302.28 672L287 601.09L279.659 551.102C279.568 550.481 279.035 550.02 278.407 550.02C277.655 550.02 277.069 550.672 277.148 551.419L284 616L290 638.5L297 662C279.241 641.596 245.69 652.33 243.073 679.253L243 680V711L230.929 699.981C229.688 698.848 228.068 698.22 226.388 698.22C224.686 698.22 223.047 698.865 221.801 700.024L210 711V680C207.538 652.731 173.69 641.536 155.5 662L161.99 638.5L166.59 616L172.868 551.356C172.939 550.631 172.366 550.005 171.638 550.012C171.035 550.017 170.525 550.46 170.436 551.057L162.99 601.09L150.05 672L130.352 704.835C130.242 705.017 130.032 705.112 129.823 705.074C123.803 703.971 120.103 697.853 121.923 692.01L130.07 665.855L129.06 604.47H129.07Z" fill="black"/>
<path d="M213.324 472C217.25 473.471 224.581 473.995 226.5 474C226.5 474 235.146 473.928 240.182 472C245.858 469.828 249.019 467.707 252.851 463.04C255.47 459.852 257.513 454.343 258.421 451.62C258.779 450.544 259.027 449.439 259.216 448.32L263.493 423C263.493 423 264.009 419.351 264 417C263.98 411.409 263.223 408.126 260.959 403C258.634 397.735 256.601 394.917 252.345 391C247.808 386.824 244.538 385 238.662 383.032C234.101 381.504 231.317 381.039 226.5 381C221.33 381.175 219.405 381.5 214.471 383.032C209.533 384.681 204.492 387.602 200.655 391C196.819 394.398 194.134 398.42 192.041 403C189.947 407.58 189.002 412.002 189 417C189.001 418.885 189.208 421.137 189.507 423L194.591 447.993C194.84 449.218 195.162 450.425 195.597 451.598C196.668 454.492 198.942 460.201 201.162 463C204.209 466.841 208.628 470.241 213.324 472Z" fill="white"/>
<path d="M215.432 466.258C218.73 467.539 224.888 467.996 226.5 468C226.5 468 233.763 467.937 237.993 466.258C242.76 464.366 245.416 462.519 248.635 458.454C250.785 455.74 252.474 451.094 253.26 448.672C253.599 447.627 253.832 446.554 254.008 445.47L257.574 423.581C257.574 423.581 258.007 420.403 258 418.355C257.983 413.485 257.348 410.626 255.446 406.161C253.493 401.576 251.784 399.122 248.209 395.71C244.398 392.073 241.652 390.484 236.716 388.77C232.884 387.439 230.546 387.034 226.5 387C222.158 387.152 220.541 387.435 216.396 388.77C212.248 390.206 208.013 392.75 204.791 395.71C201.568 398.669 199.313 402.172 197.554 406.161C195.795 410.151 195.002 414.002 195 418.355C195 419.996 195.175 421.958 195.426 423.581L199.66 445.165C199.894 446.355 200.195 447.528 200.606 448.669C201.53 451.239 203.395 456.039 205.216 458.419C207.776 461.765 211.488 464.726 215.432 466.258Z" fill="black"/>
<path d="M178 658C197.65 658 202.772 674.213 204.022 680.526C204.347 682.168 204.414 683.836 204.443 685.51L207.649 873.232C207.699 876.161 205.329 878.558 202.4 878.541V900H138C134.36 895.856 135.374 889.425 140.112 886.602L160.32 874.561L150 683.999C150 683.999 153.6 658 178 658Z" fill="black"/>
<path d="M475.378 527.838C478.99 529.16 485.734 529.632 487.5 529.636C487.5 529.636 495.455 529.571 500.088 527.838C505.309 525.884 508.218 523.977 511.743 519.78C514.09 516.986 515.935 512.212 516.8 509.704C517.178 508.609 517.437 507.481 517.634 506.34L521.534 483.771C521.534 483.771 522.008 480.49 522 478.375C521.981 473.347 521.285 470.395 519.203 465.785C517.063 461.05 515.193 458.516 511.277 454.993C507.103 451.238 504.094 449.597 498.689 447.828C494.492 446.454 491.932 446.035 487.5 446C482.744 446.157 480.973 446.45 476.434 447.828C471.891 449.31 467.252 451.937 463.723 454.993C460.194 458.049 457.724 461.666 455.797 465.785C453.871 469.904 453.002 473.881 453 478.375C453.001 480.07 453.192 482.096 453.466 483.771L458.098 506.027C458.358 507.276 458.693 508.506 459.148 509.698C460.163 512.357 462.2 517.292 464.189 519.744C466.992 523.198 471.058 526.255 475.378 527.838Z" fill="white"/>
<path d="M477.582 521.835C480.537 522.959 486.055 523.36 487.5 523.364C487.5 523.364 494.008 523.308 497.799 521.835C502.071 520.174 504.451 518.553 507.335 514.986C509.198 512.682 510.674 508.795 511.407 506.618C511.764 505.557 512.005 504.464 512.188 503.36L515.346 484.378C515.346 484.378 515.734 481.589 515.727 479.792C515.712 475.518 515.143 473.008 513.439 469.09C511.688 465.066 510.158 462.911 506.954 459.917C503.539 456.725 501.077 455.33 496.655 453.826C493.221 452.658 491.126 452.303 487.5 452.273C483.609 452.406 482.16 452.655 478.446 453.826C474.729 455.086 470.934 457.32 468.046 459.917C465.159 462.514 463.138 465.589 461.561 469.09C459.985 472.591 459.274 475.971 459.273 479.792C459.273 481.233 459.429 482.954 459.654 484.378L463.399 503.073C463.641 504.283 463.955 505.479 464.384 506.636C465.239 508.939 466.851 512.937 468.428 514.955C470.721 517.891 474.047 520.49 477.582 521.835Z" fill="black"/>
<path d="M405.778 627.594C405.778 625.694 411.459 580.888 424.778 553.505C436.214 531.336 454.46 528.015 483.426 527.685C511.522 527.362 534.37 531.877 546.453 552.911C557.375 580.481 562.694 627.594 562.694 627.594V673.947L569.473 687.919C574.332 697.934 565.631 709.185 554.716 707.002L547.877 694.084L540 830.5L551.084 847.276C555.451 853.886 554.8 862.612 549.5 868.5L494.5 847L498 833.623C496.354 833.623 495.031 832.269 495.068 830.624L497.724 712.701L485.569 702.443L473.788 712.701L475.936 830.124C475.971 832.046 474.423 833.623 472.5 833.623L476 847L420 868.5C414.714 862.627 414.118 853.906 418.554 847.368L430 830.5L422.876 694.084L415.277 707.002C406.027 709.315 397.85 700.537 400.811 691.474L406.538 673.947C406.538 673.947 405.778 661.029 405.778 627.594Z" fill="white"/>
<path d="M411.53 626.812C411.53 626.812 415.664 583.739 428.233 556.936C439.024 535.236 456.34 532.567 483.674 532.244C510.187 531.928 531.747 536.347 543.15 556.936C551.296 578.582 557.375 627.214 557.375 627.214V673.457L565.189 690.531C567.719 696.059 564.156 702.454 558.124 703.213C557.671 703.27 557.228 703.047 557.004 702.65L543.15 678.126L531.539 624.243L525.96 586.258C525.891 585.786 525.486 585.436 525.009 585.436C524.438 585.436 523.993 585.931 524.053 586.499L529.259 635.573L533.818 652.67L539.138 670.528C525.643 655.023 500.148 663.18 498.159 683.638L498.104 684.206V707.762L488.931 699.389C487.988 698.528 486.758 698.051 485.481 698.051C484.187 698.051 482.942 698.541 481.995 699.421L473.028 707.762V684.206C471.157 663.484 445.437 654.977 431.614 670.528L436.546 652.67L440.041 635.573L444.812 586.451C444.865 585.9 444.43 585.425 443.877 585.429C443.418 585.433 443.031 585.77 442.963 586.224L437.306 624.243L427.473 678.126L412.504 703.077C412.421 703.215 412.261 703.288 412.102 703.259C407.528 702.421 404.717 697.771 406.1 693.332L412.29 673.457L411.523 626.812H411.53Z" fill="black"/>
<path d="M448.712 667C463.084 667.001 467.229 678.415 468.366 683.547C468.725 685.167 468.787 686.827 468.817 688.486L471.251 826.625C471.286 828.602 469.937 830.335 468.013 830.787L471.311 844.512L422.319 863.568C419.176 859.99 418.808 854.754 421.418 850.771L434.5 830.809L427.435 686.757C427.435 686.757 430.171 667 448.712 667Z" fill="black"/>
<path d="M521.599 667C507.227 667.001 503.082 678.415 501.945 683.547C501.586 685.167 501.523 686.827 501.494 688.486L499.06 826.625C499.025 828.602 500.373 830.335 502.298 830.787L499 844.512L547.991 863.568C551.134 859.99 551.503 854.754 548.893 850.771L535.81 830.809L542.876 686.757C542.876 686.757 540.14 667 521.599 667Z" fill="black"/>
<path d="M274.74 658C255.09 658 249.968 674.213 248.718 680.526C248.393 682.168 248.326 683.836 248.297 685.51L245.091 873.232C245.041 876.161 247.411 878.558 250.34 878.541V900H314.74C318.38 895.856 317.367 889.425 312.628 886.602L292.42 874.561L302.74 683.999C302.74 683.999 299.14 658 274.74 658Z" fill="black"/>
</svg>
