<svg width="1300" height="1000" viewBox="0 0 1300 1000" fill="none" xmlns="http://www.w3.org/2000/svg"><path d="M121.5 605.5c0-2.5 7.476-61.465 25.004-97.5 15.049-29.175 39.06-33.545 77.179-33.979 36.975-.426 67.042 5.516 82.944 33.197C321 543.5 328 605.5 328 605.5v61l8.92 18.387c6.395 13.18-5.055 27.986-19.42 25.113l-9-17-10 179 18.464 11.078c5.979 3.588 7.201 11.739 2.536 16.922H245v-18l-2.299-1.915a10.004 10.004 0 0 1-3.595-7.902L242.5 717.5 226.504 704 211 717.5l1.944 155.001a10.003 10.003 0 0 1-3.273 7.525L207.5 882v18H133c-3.617-6.399-1.476-14.515 4.827-18.296L154 872l-10-179-10 17c-12.173 3.043-22.933-8.507-19.036-20.435L122.5 666.5s-1-17-1-61Z" fill="#fff"/><path d="M129.07 604.47s5.44-56.683 21.98-91.955c14.201-28.557 36.989-32.07 72.96-32.495 34.892-.416 63.264 5.4 78.27 32.495C313 541 321 605 321 605v60.855l10.283 22.469c3.33 7.275-1.359 15.691-9.297 16.69a1.482 1.482 0 0 1-1.475-.742L302.28 672 287 601.09l-7.341-49.988a1.266 1.266 0 0 0-2.511.317L284 616l6 22.5 7 23.5c-17.759-20.404-51.31-9.67-53.927 17.253L243 680v31l-12.071-11.019a6.735 6.735 0 0 0-9.128.043L210 711v-31c-2.462-27.269-36.31-38.464-54.5-18l6.49-23.5 4.6-22.5 6.278-64.644a1.226 1.226 0 0 0-2.432-.299l-7.446 50.033L150.05 672l-19.698 32.835a.51.51 0 0 1-.529.239c-6.02-1.103-9.72-7.221-7.9-13.064l8.147-26.155-1.01-61.385h.01Z" fill="#000"/><path d="M213.324 472c3.926 1.471 11.257 1.995 13.176 2 0 0 8.646-.072 13.682-2 5.676-2.172 8.837-4.293 12.669-8.96 2.619-3.188 4.662-8.697 5.57-11.42.358-1.076.606-2.181.795-3.3l4.277-25.32s.516-3.649.507-6c-.02-5.591-.777-8.874-3.041-14-2.325-5.265-4.358-8.083-8.614-12-4.537-4.176-7.807-6-13.683-7.968-4.561-1.528-7.345-1.993-12.162-2.032-5.17.175-7.095.5-12.029 2.032-4.938 1.649-9.979 4.57-13.816 7.968-3.836 3.398-6.521 7.42-8.614 12-2.094 4.58-3.039 9.002-3.041 14 .001 1.885.208 4.137.507 6l5.084 24.993a24.213 24.213 0 0 0 1.006 3.605c1.071 2.894 3.345 8.603 5.565 11.402 3.047 3.841 7.466 7.241 12.162 9Z" fill="#fff"/><path d="M215.432 466.258c3.298 1.281 9.456 1.738 11.068 1.742 0 0 7.263-.063 11.493-1.742 4.767-1.892 7.423-3.739 10.642-7.804 2.15-2.714 3.839-7.36 4.625-9.782.339-1.045.572-2.118.748-3.202l3.566-21.889s.433-3.178.426-5.226c-.017-4.87-.652-7.729-2.554-12.194-1.953-4.585-3.662-7.039-7.237-10.451-3.811-3.637-6.557-5.226-11.493-6.94-3.832-1.331-6.17-1.736-10.216-1.77-4.342.152-5.959.435-10.104 1.77-4.148 1.436-8.383 3.98-11.605 6.94-3.223 2.959-5.478 6.462-7.237 10.451-1.759 3.99-2.552 7.841-2.554 12.194 0 1.641.175 3.603.426 5.226l4.234 21.584c.234 1.19.535 2.363.946 3.504.924 2.57 2.789 7.37 4.61 9.75 2.56 3.346 6.272 6.307 10.216 7.839ZM178 658c19.65 0 24.772 16.213 26.022 22.526.325 1.642.392 3.31.421 4.984l3.206 187.722a5.22 5.22 0 0 1-5.249 5.309V900H138c-3.64-4.144-2.626-10.575 2.112-13.398l20.208-12.041L150 683.999S153.6 658 178 658Z" fill="#000"/><path d="M475.378 527.838c3.612 1.322 10.356 1.794 12.122 1.798 0 0 7.955-.065 12.588-1.798 5.221-1.954 8.13-3.861 11.655-8.058 2.347-2.794 4.192-7.568 5.057-10.076.378-1.095.637-2.223.834-3.364l3.9-22.569s.474-3.281.466-5.396c-.019-5.028-.715-7.98-2.797-12.59-2.14-4.735-4.01-7.269-7.926-10.792-4.174-3.755-7.183-5.396-12.588-7.165-4.197-1.374-6.757-1.793-11.189-1.828-4.756.157-6.527.45-11.066 1.828-4.543 1.482-9.182 4.109-12.711 7.165s-5.999 6.673-7.926 10.792c-1.926 4.119-2.795 8.096-2.797 12.59 0 1.695.192 3.721.466 5.396l4.632 22.256c.26 1.249.595 2.479 1.05 3.671 1.015 2.659 3.052 7.594 5.041 10.046 2.803 3.454 6.869 6.511 11.189 8.094Z" fill="#fff"/><path d="M477.582 521.835c2.955 1.124 8.473 1.525 9.918 1.529 0 0 6.508-.056 10.299-1.529 4.272-1.661 6.652-3.282 9.536-6.849 1.863-2.304 3.339-6.191 4.072-8.368.357-1.061.598-2.154.781-3.258l3.158-18.982s.388-2.789.381-4.586c-.015-4.274-.584-6.784-2.288-10.702-1.751-4.024-3.281-6.179-6.485-9.173-3.415-3.192-5.877-4.587-10.299-6.091-3.434-1.168-5.529-1.523-9.155-1.553-3.891.133-5.34.382-9.054 1.553-3.717 1.26-7.512 3.494-10.4 6.091-2.887 2.597-4.908 5.672-6.485 9.173-1.576 3.501-2.287 6.881-2.288 10.702 0 1.441.156 3.162.381 4.586l3.745 18.695c.242 1.21.556 2.406.985 3.563.855 2.303 2.467 6.301 4.044 8.319 2.293 2.936 5.619 5.535 9.154 6.88Z" fill="#000"/><path d="M405.778 627.594c0-1.9 5.681-46.706 19-74.089 11.436-22.169 29.682-25.49 58.648-25.82 28.096-.323 50.944 4.192 63.027 25.226 10.922 27.57 16.241 74.683 16.241 74.683v46.353l6.779 13.972c4.859 10.015-3.842 21.266-14.757 19.083l-6.839-12.918L540 830.5l11.084 16.776A17.393 17.393 0 0 1 549.5 868.5l-55-21.5 3.5-13.377a2.933 2.933 0 0 1-2.932-2.999l2.656-117.923-12.155-10.258-11.781 10.258 2.148 117.423a3.436 3.436 0 0 1-3.436 3.499L476 847l-56 21.5a17.174 17.174 0 0 1-1.446-21.132L430 830.5l-7.124-136.416-7.599 12.918c-9.25 2.313-17.427-6.465-14.466-15.528l5.727-17.527s-.76-12.918-.76-46.353Z" fill="#fff"/><path d="M411.53 626.812s4.134-43.073 16.703-69.876c10.791-21.7 28.107-24.369 55.441-24.692 26.513-.316 48.073 4.103 59.476 24.692 8.146 21.646 14.225 70.278 14.225 70.278v46.243l7.814 17.074c2.53 5.528-1.033 11.923-7.065 12.682a1.125 1.125 0 0 1-1.12-.563l-13.854-24.524-11.611-53.883-5.579-37.985a.961.961 0 0 0-1.907.241l5.206 49.074 4.559 17.097 5.32 17.858c-13.495-15.505-38.99-7.348-40.979 13.11l-.055.568v23.556l-9.173-8.373a5.115 5.115 0 0 0-6.936.032l-8.967 8.341v-23.556c-1.871-20.722-27.591-29.229-41.414-13.678l4.932-17.858 3.495-17.097 4.771-49.122a.932.932 0 0 0-1.849-.227l-5.657 38.019-9.833 53.883-14.969 24.951a.388.388 0 0 1-.402.182c-4.574-.838-7.385-5.488-6.002-9.927l6.19-19.875-.767-46.645h.007Z" fill="#000"/><path d="M448.712 667c14.372.001 18.517 11.415 19.654 16.547.359 1.62.421 3.28.451 4.939l2.434 138.139a4.2 4.2 0 0 1-3.238 4.162l3.298 13.725-48.992 19.056a10.593 10.593 0 0 1-.901-12.797l13.082-19.962-7.065-144.052S430.171 667 448.712 667Zm72.887 0c-14.372.001-18.517 11.415-19.654 16.547-.359 1.62-.422 3.28-.451 4.939l-2.434 138.139a4.198 4.198 0 0 0 3.238 4.162L499 844.512l48.991 19.056a10.594 10.594 0 0 0 .902-12.797l-13.083-19.962 7.066-144.052S540.14 667 521.599 667Zm-246.859-9c-19.65 0-24.772 16.213-26.022 22.526-.325 1.642-.392 3.31-.421 4.984l-3.206 187.722a5.22 5.22 0 0 0 5.249 5.309V900h64.4c3.64-4.144 2.627-10.575-2.112-13.398l-20.208-12.041 10.32-190.562s-3.6-25.999-28-25.999Z" fill="#000"/><path d="M121.5 605.5c0-2.5 7.476-61.465 25.004-97.5 15.049-29.175 39.06-33.545 77.179-33.979 36.975-.426 67.042 5.516 82.944 33.197C321 543.5 328 605.5 328 605.5v61l8.92 18.387c6.395 13.18-5.055 27.986-19.42 25.113l-9-17-10 179 18.464 11.078c5.979 3.588 7.201 11.739 2.536 16.922H245v-18l-2.299-1.915a10.004 10.004 0 0 1-3.595-7.902L242.5 717.5 226.504 704 211 717.5l1.944 155.001a10.003 10.003 0 0 1-3.273 7.525L207.5 882v18H133c-3.617-6.399-1.476-14.515 4.827-18.296L154 872l-10-179-10 17c-12.173 3.043-22.933-8.507-19.036-20.435L122.5 666.5s-1-17-1-61Z" stroke="#000"/><path d="M129.07 604.47s5.44-56.683 21.98-91.955c14.201-28.557 36.989-32.07 72.96-32.495 34.892-.416 63.264 5.4 78.27 32.495C313 541 321 605 321 605v60.855l10.283 22.469c3.33 7.275-1.359 15.691-9.297 16.69a1.482 1.482 0 0 1-1.475-.742L302.28 672 287 601.09l-7.341-49.988a1.266 1.266 0 0 0-2.511.317L284 616l6 22.5 7 23.5c-17.759-20.404-51.31-9.67-53.927 17.253L243 680v31l-12.071-11.019a6.735 6.735 0 0 0-9.128.043L210 711v-31c-2.462-27.269-36.31-38.464-54.5-18l6.49-23.5 4.6-22.5 6.278-64.644a1.226 1.226 0 0 0-2.432-.299l-7.446 50.033L150.05 672l-19.698 32.835a.51.51 0 0 1-.529.239c-6.02-1.103-9.72-7.221-7.9-13.064l8.147-26.155-1.01-61.385h.01ZM213.324 472c3.926 1.471 11.257 1.995 13.176 2 0 0 8.646-.072 13.682-2 5.676-2.172 8.837-4.293 12.669-8.96 2.619-3.188 4.662-8.697 5.57-11.42.358-1.076.606-2.181.795-3.3l4.277-25.32s.516-3.649.507-6c-.02-5.591-.777-8.874-3.041-14-2.325-5.265-4.358-8.083-8.614-12-4.537-4.176-7.807-6-13.683-7.968-4.561-1.528-7.345-1.993-12.162-2.032-5.17.175-7.095.5-12.029 2.032-4.938 1.649-9.979 4.57-13.816 7.968-3.836 3.398-6.521 7.42-8.614 12-2.094 4.58-3.039 9.002-3.041 14 .001 1.885.208 4.137.507 6l5.084 24.993a24.213 24.213 0 0 0 1.006 3.605c1.071 2.894 3.345 8.603 5.565 11.402 3.047 3.841 7.466 7.241 12.162 9Z" stroke="#000"/><path d="M215.432 466.258c3.298 1.281 9.456 1.738 11.068 1.742 0 0 7.263-.063 11.493-1.742 4.767-1.892 7.423-3.739 10.642-7.804 2.15-2.714 3.839-7.36 4.625-9.782.339-1.045.572-2.118.748-3.202l3.566-21.889s.433-3.178.426-5.226c-.017-4.87-.652-7.729-2.554-12.194-1.953-4.585-3.662-7.039-7.237-10.451-3.811-3.637-6.557-5.226-11.493-6.94-3.832-1.331-6.17-1.736-10.216-1.77-4.342.152-5.959.435-10.104 1.77-4.148 1.436-8.383 3.98-11.605 6.94-3.223 2.959-5.478 6.462-7.237 10.451-1.759 3.99-2.552 7.841-2.554 12.194 0 1.641.175 3.603.426 5.226l4.234 21.584c.234 1.19.535 2.363.946 3.504.924 2.57 2.789 7.37 4.61 9.75 2.56 3.346 6.272 6.307 10.216 7.839ZM178 658c19.65 0 24.772 16.213 26.022 22.526.325 1.642.392 3.31.421 4.984l3.206 187.722a5.22 5.22 0 0 1-5.249 5.309V900H138c-3.64-4.144-2.626-10.575 2.112-13.398l20.208-12.041L150 683.999S153.6 658 178 658Zm297.378-130.162c3.612 1.322 10.356 1.794 12.122 1.798 0 0 7.955-.065 12.588-1.798 5.221-1.954 8.13-3.861 11.655-8.058 2.347-2.794 4.192-7.568 5.057-10.076.378-1.095.637-2.223.834-3.364l3.9-22.569s.474-3.281.466-5.396c-.019-5.028-.715-7.98-2.797-12.59-2.14-4.735-4.01-7.269-7.926-10.792-4.174-3.755-7.183-5.396-12.588-7.165-4.197-1.374-6.757-1.793-11.189-1.828-4.756.157-6.527.45-11.066 1.828-4.543 1.482-9.182 4.109-12.711 7.165s-5.999 6.673-7.926 10.792c-1.926 4.119-2.795 8.096-2.797 12.59 0 1.695.192 3.721.466 5.396l4.632 22.256c.26 1.249.595 2.479 1.05 3.671 1.015 2.659 3.052 7.594 5.041 10.046 2.803 3.454 6.869 6.511 11.189 8.094Z" stroke="#000"/><path d="M477.582 521.835c2.955 1.124 8.473 1.525 9.918 1.529 0 0 6.508-.056 10.299-1.529 4.272-1.661 6.652-3.282 9.536-6.849 1.863-2.304 3.339-6.191 4.072-8.368.357-1.061.598-2.154.781-3.258l3.158-18.982s.388-2.789.381-4.586c-.015-4.274-.584-6.784-2.288-10.702-1.751-4.024-3.281-6.179-6.485-9.173-3.415-3.192-5.877-4.587-10.299-6.091-3.434-1.168-5.529-1.523-9.155-1.553-3.891.133-5.34.382-9.054 1.553-3.717 1.26-7.512 3.494-10.4 6.091-2.887 2.597-4.908 5.672-6.485 9.173-1.576 3.501-2.287 6.881-2.288 10.702 0 1.441.156 3.162.381 4.586l3.745 18.695c.242 1.21.556 2.406.985 3.563.855 2.303 2.467 6.301 4.044 8.319 2.293 2.936 5.619 5.535 9.154 6.88Zm-71.804 105.759c0-1.9 5.681-46.706 19-74.089 11.436-22.169 29.682-25.49 58.648-25.82 28.096-.323 50.944 4.192 63.027 25.226 10.922 27.57 16.241 74.683 16.241 74.683v46.353l6.779 13.972c4.859 10.015-3.842 21.266-14.757 19.083l-6.839-12.918L540 830.5l11.084 16.776A17.393 17.393 0 0 1 549.5 868.5l-55-21.5 3.5-13.377a2.933 2.933 0 0 1-2.932-2.999l2.656-117.923-12.155-10.258-11.781 10.258 2.148 117.423a3.436 3.436 0 0 1-3.436 3.499L476 847l-56 21.5a17.174 17.174 0 0 1-1.446-21.132L430 830.5l-7.124-136.416-7.599 12.918c-9.25 2.313-17.427-6.465-14.466-15.528l5.727-17.527s-.76-12.918-.76-46.353Z" stroke="#000"/><path d="M411.53 626.812s4.134-43.073 16.703-69.876c10.791-21.7 28.107-24.369 55.441-24.692 26.513-.316 48.073 4.103 59.476 24.692 8.146 21.646 14.225 70.278 14.225 70.278v46.243l7.814 17.074c2.53 5.528-1.033 11.923-7.065 12.682a1.125 1.125 0 0 1-1.12-.563l-13.854-24.524-11.611-53.883-5.579-37.985a.961.961 0 0 0-1.907.241l5.206 49.074 4.559 17.097 5.32 17.858c-13.495-15.505-38.99-7.348-40.979 13.11l-.055.568v23.556l-9.173-8.373a5.115 5.115 0 0 0-6.936.032l-8.967 8.341v-23.556c-1.871-20.722-27.591-29.229-41.414-13.678l4.932-17.858 3.495-17.097 4.771-49.122a.932.932 0 0 0-1.849-.227l-5.657 38.019-9.833 53.883-14.969 24.951a.388.388 0 0 1-.402.182c-4.574-.838-7.385-5.488-6.002-9.927l6.19-19.875-.767-46.645h.007Z" stroke="#000"/><path d="M448.712 667c14.372.001 18.517 11.415 19.654 16.547.359 1.62.421 3.28.451 4.939l2.434 138.139a4.2 4.2 0 0 1-3.238 4.162l3.298 13.725-48.992 19.056a10.593 10.593 0 0 1-.901-12.797l13.082-19.962-7.065-144.052S430.171 667 448.712 667Zm72.887 0c-14.372.001-18.517 11.415-19.654 16.547-.359 1.62-.422 3.28-.451 4.939l-2.434 138.139a4.198 4.198 0 0 0 3.238 4.162L499 844.512l48.991 19.056a10.594 10.594 0 0 0 .902-12.797l-13.083-19.962 7.066-144.052S540.14 667 521.599 667Zm-246.859-9c-19.65 0-24.772 16.213-26.022 22.526-.325 1.642-.392 3.31-.421 4.984l-3.206 187.722a5.22 5.22 0 0 0 5.249 5.309V900h64.4c3.64-4.144 2.627-10.575-2.112-13.398l-20.208-12.041 10.32-190.562s-3.6-25.999-28-25.999Z" stroke="#000"/></svg>
