<svg width="1300" height="1000" viewBox="0 0 1300 1000" fill="none" xmlns="http://www.w3.org/2000/svg"><path d="M177.555 579.353s4.261-42.513 17.216-68.967c11.124-21.418 28.973-24.052 57.148-24.371 27.33-.312 49.554 4.05 61.308 24.371 11.414 26.505 15.728 66.942 15.728 66.942l-2.814 78.063.361 25.931c.106 7.668-6.843 13.507-14.378 12.082a1.515 1.515 0 0 1-1.191-1.13l-9.063-37.154-7.972-79.06 1.449-36.61a.9.9 0 1 0-1.791.079l6.569 51.096 2.35 22.875 2.35 41.891 7.441 107.365-1.175 117.755 13.235 6.337a9.997 9.997 0 0 1 5.626 7.968L330.5 900h-69.314L263 888.515a9.817 9.817 0 0 1-4.41-8.32l1.229-95.105-8.495-117.601c-.148-2.059 1.925-3.552 3.83-2.758a2.772 2.772 0 0 1 1.698 2.763l-8.739 117.608-.186 95.141a10.031 10.031 0 0 1-4.409 8.272L245.077 900H177.5c-.3-6 3.196-11.543 8.74-13.857l11.051-4.613-1.692-118.765 5.749-107.64 1.958-41.625 2.35-22.5 5.285-51.275a.51.51 0 0 0-1.011-.12l-5.023 37.213-1.433 84.302-7.995 32.706a.633.633 0 0 1-.498.473c-7.904 1.51-15.203-4.612-15.094-12.658l.362-26.521-2.702-75.767h.008Z" fill="#fff"/><path d="M181.552 582.451s4.038-42.102 16.316-68.3c10.542-21.211 27.458-23.82 54.16-24.136 25.901-.309 46.963 4.011 58.102 24.136 10.817 26.248 14.906 66.294 14.906 66.294l-2.667 77.31 1.068 23.342c.227 4.973-3.727 9.137-8.706 9.167a1.096 1.096 0 0 1-1.072-.841l-7.658-31.937-7.555-78.296-5.112-36.367a.946.946 0 0 0-1.881.213l4.365 50.578 2.227 22.654 2.227 41.487 7.052 106.327-1.113 119.589 14.219 6.11a10 10 0 0 1 6.05 9.021l.02 1.198h-60.004l1.552-16.348a3.713 3.713 0 0 1-3.736-3.748l.889-95.684-9.303-109.397a2.123 2.123 0 0 0-4.229.007l-8.935 109.401-.179 96.244a3.206 3.206 0 0 1-3.228 3.2L240.805 900H181.5c0-3.856 2.204-7.374 5.675-9.055l14.976-7.256-1.603-119.598 5.449-106.6 1.856-41.223 2.227-22.282 4.004-51.002a.911.911 0 0 0-1.813-.188l-4.797 37.144-7.045 77.546-7.584 32.422a.466.466 0 0 1-.454.361c-5.327 0-9.575-4.446-9.333-9.767l1.048-23.016-2.561-75.035h.007Z" fill="#000"/><path d="M242.405 484.258c3.455 1.281 9.906 1.738 11.595 1.742 0 0 7.609-.063 12.04-1.742 4.995-1.892 7.777-3.739 11.149-7.804 2.234-2.693 3.993-7.285 4.825-9.723.371-1.084.623-2.2.816-3.329l3.724-21.821s.453-3.178.446-5.226c-.018-4.87-.684-7.729-2.676-12.194-2.046-4.585-3.836-7.039-7.581-10.451-3.992-3.637-6.87-5.226-12.04-6.94-4.015-1.331-6.464-1.736-10.703-1.77-4.549.152-6.243.435-10.585 1.77-4.346 1.436-8.782 3.98-12.158 6.94-3.376 2.959-5.739 6.462-7.581 10.451-1.843 3.99-2.674 7.841-2.676 12.194 0 1.641.183 3.603.446 5.226l4.422 21.514a23.806 23.806 0 0 0 1.027 3.634c.976 2.585 2.915 7.328 4.808 9.69 2.681 3.346 6.57 6.307 10.702 7.839Z" fill="#fff"/><path d="M244.838 478.516c2.879 1.091 8.255 1.481 9.662 1.484 0 0 6.341-.054 10.034-1.484 4.162-1.612 6.48-3.185 9.29-6.648 1.8-2.217 3.229-5.946 3.949-8.069.361-1.063.603-2.161.788-3.268l3.067-18.37s.378-2.707.372-4.451c-.015-4.149-.57-6.584-2.23-10.387-1.705-3.906-3.196-5.997-6.317-8.904-3.327-3.098-5.726-4.451-10.034-5.911-3.345-1.134-5.387-1.479-8.919-1.508-3.791.13-5.203.371-8.821 1.508-3.621 1.223-7.319 3.39-10.132 5.911-2.813 2.521-4.782 5.505-6.317 8.904-1.536 3.398-2.229 6.678-2.23 10.387 0 1.398.153 3.069.372 4.451l3.636 18.086c.244 1.214.559 2.412.992 3.572.838 2.244 2.396 6.077 3.919 8.02 2.234 2.85 5.475 5.372 8.919 6.677Z" fill="#000"/><path d="M383.074 469.162c0-1.662 5.902-57.127 23.43-93.162 15.049-29.175 39.06-33.545 77.179-33.979 36.975-.426 67.042 5.516 82.944 33.197 15.441 36.104 30.279 89.186 30.279 89.186L648.5 502.5l23.602 6.332c9.235 2.478 14.204 12.493 10.591 21.345a11.915 11.915 0 0 1-11.631 7.397L630 535.5l-79-43L564.504 718l-1.5 156 15.598 6.406a20.001 20.001 0 0 1 12.402 18.501V900h-93.5l1.5-18a9.97 9.97 0 0 1-4.439-8.408L496.004 746l-9.5-125-9 125v128a10 10 0 0 1-4 8l1.5 18H383c0-7.632 4.401-14.58 11.301-17.842l16.203-7.658-2-156.5 6.5-118.5-5.869 22.986a.917.917 0 0 1-.642.657c-12.056 3.376-23.881-6.04-23.292-18.546l1.519-32.227s-3.646-59.37-3.646-103.208Z" fill="#fff"/><path d="M389.07 472.47s5.44-56.683 21.98-91.955c14.201-28.557 36.989-32.07 72.96-32.495 34.892-.416 63.264 5.4 78.27 32.495 14.572 35.339 28.22 86.985 28.22 86.985l55 40.5 26.724 7.738a7.835 7.835 0 0 1-2.729 15.343l-36.777-2.588L557.5 487.5l-17.74-68.475a1.342 1.342 0 0 0-2.634.452L543 487.5l3 30.5 3 55.855 9.5 143.153-1.5 161.007 21.216 9.112a10.001 10.001 0 0 1 6.052 9.022l.064 3.851H503.5l2.09-22.01a5.003 5.003 0 0 1-5.033-5.05l1.198-128.82-12.532-147.284a2.86 2.86 0 0 0-5.698.01L471.49 744.135l-.242 129.575a4.317 4.317 0 0 1-4.348 4.31l1.991 21.98H389c0-5.192 2.968-9.927 7.641-12.189l20.179-9.771-2.16-161.02L422 573.5l2.5-55.5 3-30 5.395-68.664a1.228 1.228 0 0 0-2.442-.254l-6.463 50.008-9.49 104.403-10.216 43.651a.63.63 0 0 1-.613.486c-7.175 0-12.898-5.989-12.572-13.157l1.411-30.98-3.45-101.023h.01Z" fill="#000"/><path d="M473.324 340c3.926 1.471 11.257 1.995 13.176 2 0 0 8.646-.072 13.682-2 5.676-2.172 8.837-4.293 12.669-8.96 2.619-3.188 4.662-8.697 5.57-11.42.358-1.076.606-2.181.795-3.3l4.277-25.32s.516-3.649.507-6c-.02-5.591-.777-8.874-3.041-14-2.325-5.265-4.358-8.083-8.614-12-4.537-4.176-7.807-6-13.683-7.968-4.561-1.528-7.345-1.993-12.162-2.032-5.17.175-7.095.5-12.029 2.032-4.938 1.649-9.979 4.57-13.816 7.968-3.836 3.398-6.521 7.42-8.614 12-2.094 4.58-3.039 9.002-3.041 14 .001 1.885.208 4.137.507 6l5.084 24.993a24.33 24.33 0 0 0 1.005 3.605c1.072 2.894 3.346 8.603 5.566 11.402 3.047 3.841 7.466 7.241 12.162 9Z" fill="#fff"/><path d="M475.432 334.258c3.298 1.281 9.456 1.738 11.068 1.742 0 0 7.263-.063 11.493-1.742 4.767-1.892 7.423-3.739 10.642-7.804 2.15-2.714 3.839-7.36 4.625-9.782.339-1.045.572-2.118.748-3.202l3.566-21.889s.433-3.178.426-5.226c-.017-4.87-.652-7.729-2.554-12.194-1.953-4.585-3.662-7.039-7.237-10.451-3.811-3.637-6.558-5.226-11.493-6.94-3.832-1.331-6.17-1.736-10.216-1.77-4.342.152-5.96.435-10.104 1.77-4.148 1.436-8.383 3.98-11.605 6.94-3.223 2.959-5.478 6.462-7.237 10.451-1.759 3.99-2.552 7.841-2.554 12.194 0 1.641.175 3.603.426 5.226l4.234 21.584c.234 1.19.535 2.363.946 3.504.924 2.57 2.789 7.37 4.61 9.75 2.56 3.346 6.272 6.307 10.216 7.839Z" fill="#000"/></svg>