<svg width="1300" height="1000" viewBox="0 0 1300 1000" fill="none" xmlns="http://www.w3.org/2000/svg"><path d="M157.638 585.885c.21-1.202 9.91-35.936 22.803-62.382 13.608-24.586 19.802-34.861 50.328-34.494 4.413.053 10.423 3.143 12.666 6.972C254.33 514.581 280.5 556 280.5 556l46.5 36.5 20.533 4.31c8.768 1.84 12.16 12.556 6.046 19.105a.34.34 0 0 1-.193.105l-27.227 4.694a4.998 4.998 0 0 1-3.153-.489L259 587l6.766 63.836L299.9 765.694l7.355 102.747 11.55 1.482c8.116 1.041 14.195 7.95 14.195 16.132l-48.547 13.944h-25.009l-1.104-5.504a4.881 4.881 0 0 1-4.857-4.391l-10.589-104.595-18.32-58.346-13.975 58.346-53.696 96.877 4.986 2.824a16.996 16.996 0 0 1 8.622 14.789h-45.973L101 886.789l7.723-11.009a5.01 5.01 0 0 1-1.53-6.507l45.664-83.764 22.803-123.297-24.798 35.294a.675.675 0 0 1-.579.287c-9.333-.351-15.511-9.829-12.067-18.51l6.918-17.438s6.62-42.2 12.504-75.96Z" fill="#fff"/><path d="m317.611 874.539-16.235-1.25-8.408-107.177-33.14-114.128c-10.315-117.02-19.422-146.981-23.427-154.652-1.079-2.066-3.307-2.9-5.632-3.052-8.318-.544-29.721.742-43.329 25.663-13.657 25.011-24.86 66.929-24.86 66.929l-12.43 76.451-7.478 20.204c-1.692 4.569 1.689 9.426 6.562 9.426a.35.35 0 0 0 .289-.154l20.004-29.476 15.72-43.529 25.342-71.721a1.06 1.06 0 0 1 2.011.67l-21.942 70.115a5.059 5.059 0 0 0-.225 1.912c.497 6.232 4.27 41.427 28.083 80.23 1.097 1.787 31.312 84.499 31.312 84.499l9.492 100.248c.356 3.759 4.883 6.71 5.546 10.428l.682 3.824 52.379-15.201c4.332-1.257 7.587-6.01 3.95-8.68a8.267 8.267 0 0 0-4.266-1.579Z" fill="#000"/><path d="m159.89 889.583-9.374-4.573 53.742-99.075s18.866-69.097 16.817-72.387c-36.193-58.129-32.902-89.57-32.902-89.57l-28.517 161.957-45.449 83.207c-1.913 3.503-.359 8.995-2.594 12.303l-2.408 3.565L136.258 900h29.248v-1.43a10 10 0 0 0-5.616-8.987Zm97.609-310.029c-11.04-68.215-16.09-77.853-16.476-78.515l-.024-.039.024.039L276 558.5l49.499 39 21.316 3.911c5.119.939 7.235 7.119 3.766 10.998a.33.33 0 0 1-.202.108L325.499 616s-67.59-33.912-68-36.446Z" fill="#000"/><path d="M209.405 487.258c3.455 1.281 9.906 1.738 11.595 1.742 0 0 7.609-.063 12.04-1.742 4.995-1.892 7.777-3.739 11.149-7.804 2.234-2.693 3.993-7.285 4.825-9.723.371-1.084.623-2.2.816-3.329l3.724-21.821s.453-3.178.446-5.226c-.018-4.87-.684-7.729-2.676-12.194-2.046-4.585-3.836-7.039-7.581-10.451-3.992-3.637-6.87-5.226-12.04-6.94-4.015-1.331-6.464-1.736-10.703-1.77-4.549.152-6.243.435-10.585 1.77-4.346 1.436-8.782 3.98-12.158 6.94-3.376 2.959-5.739 6.462-7.581 10.451-1.843 3.99-2.674 7.841-2.676 12.194 0 1.641.183 3.603.446 5.226l4.422 21.514a23.806 23.806 0 0 0 1.027 3.634c.976 2.585 2.915 7.328 4.808 9.69 2.681 3.346 6.57 6.307 10.702 7.839Z" fill="#fff"/><path d="M211.838 481.516c2.879 1.091 8.255 1.481 9.662 1.484 0 0 6.341-.054 10.034-1.484 4.162-1.612 6.48-3.185 9.29-6.648 1.8-2.217 3.229-5.946 3.949-8.069.361-1.063.603-2.161.788-3.268l3.067-18.37s.378-2.707.372-4.451c-.015-4.149-.57-6.584-2.23-10.387-1.705-3.906-3.196-5.997-6.317-8.904-3.327-3.098-5.726-4.451-10.034-5.911-3.345-1.134-5.387-1.479-8.919-1.508-3.791.13-5.203.371-8.821 1.508-3.621 1.223-7.319 3.39-10.132 5.911-2.813 2.521-4.782 5.505-6.317 8.904-1.536 3.398-2.229 6.678-2.23 10.387 0 1.398.153 3.069.372 4.451l3.636 18.086c.244 1.214.559 2.412.992 3.572.838 2.244 2.396 6.077 3.919 8.02 2.234 2.85 5.475 5.372 8.919 6.677Z" fill="#000"/><path d="M381 472.01c.428-1.606 19.472-48.964 37-84.998 18.5-33.499 32-47.499 73.5-46.999 6 .072 11.994 4 14.5 9.5 18 39.499 67 182.996 67 182.996l14.111 14.317c10.929 11.09 10.645 28.985-.63 39.723a.836.836 0 0 1-1.036.093l-42.392-27.94a5.016 5.016 0 0 1-1.651-1.804l-9.902-18.39 3.5 22 60 156.496 10 139.997 17.55 2.257c9.978 1.282 17.45 9.777 17.45 19.836v1.907L574 900h-34l-1.5-7.5a6.636 6.636 0 0 1-6.603-5.969L517.5 744.004 479 664.506l-9 79.498-59 131.997 8.372 4.751a20 20 0 0 1 10.128 17.394V900H367l-32-17.999 10.5-15a7.52 7.52 0 0 1-2.604-9.113L391.5 744.004l30-228.504 6-24.5-7 22-30.5 69.508-37.268 38.757a.742.742 0 0 1-.566.228c-11.078-.452-17.786-12.427-12.386-22.109L357 568.508s10-44.008 24-96.498Z" fill="#fff"/><path d="M620.921 865.273 597.5 863.47 586 716.889l-59-156.087c-14.676-166.492-27.563-204.128-32.668-212.635-1.199-1.999-3.466-2.737-5.787-2.948-10.284-.933-41.184-.461-60.546 34.998C409.321 414.423 388 471.752 388 471.752l-26 100.559-17.082 29.553c-3.074 5.318.764 11.969 6.906 11.969a.4.4 0 0 0 .295-.13l32.381-35.392L415 510l30.878-86.933a.518.518 0 0 1 .996.276l-18.623 92.194a7.092 7.092 0 0 0-.075 2.478c1.242 8.247 9.629 56.549 42.324 109.824 1.5 2.444 56.5 115.564 56.5 115.564l12.982 137.104c.017.185.043.367.076.546.89 4.763 6.562 8.404 7.412 13.174L548.5 900l81.672-23.703-.02-1.221a10 10 0 0 0-9.231-9.803Z" fill="#000"/><path d="M468.324 340c3.926 1.471 11.257 1.995 13.176 2 0 0 8.646-.072 13.682-2 5.676-2.172 8.837-4.293 12.669-8.96 2.619-3.188 4.662-8.697 5.57-11.42.358-1.076.606-2.181.795-3.3l4.277-25.32s.516-3.649.507-6c-.02-5.591-.777-8.874-3.041-14-2.325-5.265-4.358-8.083-8.614-12-4.537-4.176-7.807-6-13.683-7.968-4.561-1.528-7.345-1.993-12.162-2.032-5.17.175-7.095.5-12.029 2.032-4.938 1.649-9.979 4.57-13.816 7.968-3.836 3.398-6.521 7.42-8.614 12-2.094 4.58-3.039 9.002-3.041 14 .001 1.885.208 4.137.507 6l5.084 24.993a24.33 24.33 0 0 0 1.005 3.605c1.072 2.894 3.346 8.603 5.566 11.402 3.047 3.841 7.466 7.241 12.162 9Z" fill="#fff"/><path d="M470.432 334.258c3.298 1.281 9.456 1.738 11.068 1.742 0 0 7.263-.063 11.493-1.742 4.767-1.892 7.423-3.739 10.642-7.804 2.15-2.714 3.839-7.36 4.625-9.782.339-1.045.572-2.118.748-3.202l3.566-21.889s.433-3.178.426-5.226c-.017-4.87-.652-7.729-2.554-12.194-1.953-4.585-3.662-7.039-7.237-10.451-3.811-3.637-6.558-5.226-11.493-6.94-3.832-1.331-6.17-1.736-10.216-1.77-4.343.152-5.96.435-10.104 1.77-4.148 1.436-8.383 3.98-11.605 6.94-3.223 2.959-5.478 6.462-7.237 10.451-1.759 3.99-2.552 7.841-2.554 12.194 0 1.641.175 3.603.426 5.226l4.234 21.584c.234 1.19.535 2.363.946 3.504.924 2.57 2.789 7.37 4.61 9.75 2.56 3.346 6.272 6.307 10.216 7.839Zm-54.048 552.503L401.5 879.5 461 744s15.802-94.5 13-99c-49.5-79.5-47-122.5-47-122.5L400 744l-48.665 113.551a7.343 7.343 0 0 0-.174.446c-1.792 5.038.239 12.03-2.754 16.461L345 879.5l37 20.5h40v-4.252a10 10 0 0 0-5.616-8.987ZM501 351s23 83.5 27 166c.17 3.507 20.95 36.622 20.95 36.622l34.098 23.565a.71.71 0 0 0 .868-.046c5.873-5.073 6.593-13.918 1.618-19.873L566.5 534.485 544 468l-43-117Z" fill="#000"/></svg>