<svg width="1300" height="1000" viewBox="0 0 1300 1000" fill="none" xmlns="http://www.w3.org/2000/svg">
<path d="M121.5 605.5C121.5 603 128.976 544.035 146.504 508C161.553 478.825 185.564 474.455 223.683 474.021C260.658 473.595 290.725 479.537 306.627 507.218C321 543.5 328 605.5 328 605.5V666.5L336.92 684.887C343.315 698.067 331.865 712.873 317.5 710V710L308.5 693L302.5 867L323.651 881.436C329.526 885.446 331.406 893.256 328 899.5V899.5H296H243.5L244.5 878L243.428 877.047C241.252 875.113 240.027 872.325 240.073 869.414L242.5 717.5L226.504 704L211 717.5L212.946 868.783C212.98 871.479 211.925 874.075 210.018 875.982L209 877L210 898.5H157.5H123.5V898.5C120.355 892.21 122.371 884.563 128.208 880.641L150 866L144 693L134 710V710C121.827 713.043 111.067 701.493 114.964 689.565L122.5 666.5C122.5 666.5 121.5 649.5 121.5 605.5Z" fill="white"/>
<path d="M129.07 604.47C129.07 604.47 134.51 547.787 151.05 512.515C165.251 483.958 188.039 480.445 224.01 480.02C258.902 479.604 287.274 485.42 302.28 512.515C313 541 321 605 321 605V665.855L331.283 688.324C334.613 695.599 329.924 704.015 321.986 705.014V705.014C321.389 705.089 320.807 704.796 320.511 704.272L302.28 672L287 601.09L279.659 551.102C279.568 550.481 279.035 550.02 278.407 550.02V550.02C277.655 550.02 277.069 550.672 277.148 551.419L284 616L290 638.5L297 662V662C279.241 641.596 245.69 652.33 243.073 679.253L243 680V711L230.929 699.981C229.688 698.848 228.068 698.22 226.388 698.22V698.22C224.686 698.22 223.047 698.865 221.801 700.024L210 711V680V680C207.538 652.731 173.69 641.536 155.5 662V662L161.99 638.5L166.59 616L172.868 551.356C172.939 550.631 172.366 550.005 171.638 550.012V550.012C171.034 550.017 170.525 550.46 170.436 551.057L162.99 601.09L156.52 636.545L150.05 672L130.352 704.835C130.242 705.017 130.032 705.112 129.823 705.074V705.074C123.803 703.971 120.103 697.853 121.923 692.01L130.07 665.855L129.06 604.47H129.07Z" fill="black"/>
<path d="M213.324 472C217.25 473.471 224.581 473.995 226.5 474C226.5 474 235.146 473.928 240.182 472C245.858 469.828 249.019 467.707 252.851 463.04C255.47 459.852 257.513 454.343 258.421 451.62C258.779 450.544 259.027 449.439 259.216 448.32L263.493 423C263.493 423 264.009 419.351 264 417C263.98 411.409 263.223 408.126 260.959 403C258.634 397.735 256.601 394.917 252.345 391C247.808 386.824 244.538 385 238.662 383.032C234.101 381.504 231.317 381.039 226.5 381C221.33 381.175 219.405 381.5 214.471 383.032C209.533 384.681 204.492 387.602 200.655 391C196.819 394.398 194.134 398.42 192.041 403C189.947 407.58 189.002 412.002 189 417C189.001 418.885 189.208 421.137 189.507 423L194.591 447.993C194.84 449.218 195.162 450.425 195.596 451.598C196.668 454.492 198.942 460.201 201.162 463C204.209 466.841 208.628 470.241 213.324 472Z" fill="white"/>
<path d="M215.432 466.258C218.73 467.539 224.888 467.996 226.5 468C226.5 468 233.763 467.937 237.993 466.258C242.76 464.366 245.416 462.519 248.635 458.454C250.785 455.74 252.474 451.094 253.26 448.672C253.599 447.627 253.832 446.554 254.008 445.47L257.574 423.581C257.574 423.581 258.007 420.403 258 418.355C257.983 413.485 257.348 410.626 255.446 406.161C253.493 401.576 251.784 399.122 248.209 395.71C244.398 392.073 241.651 390.484 236.716 388.77C232.884 387.439 230.546 387.034 226.5 387C222.158 387.152 220.541 387.435 216.396 388.77C212.248 390.206 208.013 392.75 204.791 395.71C201.568 398.669 199.313 402.172 197.554 406.161C195.795 410.151 195.002 414.002 195 418.355C195 419.996 195.175 421.958 195.426 423.581L199.66 445.165C199.894 446.355 200.195 447.528 200.606 448.669C201.53 451.239 203.395 456.039 205.216 458.419C207.776 461.765 211.488 464.726 215.432 466.258Z" fill="black"/>
<path d="M178 658C197.668 658 202.782 674.243 204.025 680.543C204.347 682.173 204.415 683.83 204.444 685.492L207.664 869.232C207.706 871.611 205.78 873.558 203.4 873.541L204.391 895.521L152.5 899H131.5C127.787 894.773 128.628 888.246 133.293 885.098L156.32 869.561L150 683.999C150 683.999 153.6 658 178 658Z" fill="black"/>
<path d="M178 658C197.668 658 202.782 674.243 204.025 680.543C204.347 682.173 204.415 683.83 204.444 685.492L207.664 869.232C207.706 871.611 205.78 873.558 203.4 873.541L204.391 895.521L152.5 899H131.5C127.787 894.773 128.628 888.246 133.293 885.098L156.32 869.561L150 683.999C150 683.999 153.6 658 178 658Z" stroke="black"/>
<path d="M274.738 658C255.071 658 249.957 674.243 248.713 680.543C248.391 682.173 248.324 683.83 248.295 685.492L245.074 869.232C245.033 871.611 246.959 873.558 249.338 873.541L248.348 895.521L300.238 899H321.238C324.952 894.773 324.11 888.246 319.446 885.098L296.418 869.561L302.738 683.999C302.738 683.999 299.138 658 274.738 658Z" fill="black"/>
<path d="M274.738 658C255.071 658 249.957 674.243 248.713 680.543C248.391 682.173 248.324 683.83 248.295 685.492L245.074 869.232C245.033 871.611 246.959 873.558 249.338 873.541L248.348 895.521L300.238 899H321.238C324.952 894.773 324.11 888.246 319.446 885.098L296.418 869.561L302.738 683.999C302.738 683.999 299.138 658 274.738 658Z" stroke="black"/>
<path d="M475.378 513.838C478.99 515.16 485.734 515.632 487.5 515.636C487.5 515.636 495.455 515.571 500.088 513.838C505.309 511.884 508.218 509.977 511.743 505.78C514.09 502.986 515.935 498.212 516.8 495.704C517.178 494.609 517.437 493.481 517.634 492.34L521.534 469.771C521.534 469.771 522.008 466.49 522 464.375C521.981 459.347 521.285 456.395 519.203 451.785C517.063 447.05 515.193 444.516 511.277 440.993C507.103 437.238 504.094 435.597 498.689 433.828C494.492 432.454 491.932 432.035 487.5 432C482.744 432.157 480.973 432.45 476.434 433.828C471.89 435.31 467.252 437.937 463.723 440.993C460.194 444.049 457.724 447.666 455.797 451.785C453.871 455.904 453.002 459.881 453 464.375C453 466.07 453.192 468.096 453.466 469.771L458.098 492.027C458.358 493.276 458.693 494.506 459.148 495.698C460.163 498.357 462.2 503.292 464.189 505.744C466.992 509.198 471.058 512.255 475.378 513.838Z" fill="white"/>
<path d="M477.582 507.836C480.537 508.96 486.055 509.361 487.5 509.364C487.5 509.364 494.008 509.309 497.799 507.836C502.071 506.175 504.451 504.554 507.335 500.986C509.198 498.683 510.674 494.796 511.407 492.619C511.764 491.558 512.005 490.465 512.188 489.361L515.346 470.379C515.346 470.379 515.734 467.59 515.727 465.793C515.712 461.518 515.143 459.009 513.439 455.091C511.688 451.066 510.158 448.912 506.954 445.918C503.539 442.726 501.077 441.331 496.655 439.827C493.221 438.659 491.126 438.304 487.5 438.273C483.609 438.407 482.16 438.656 478.446 439.827C474.729 441.087 470.934 443.32 468.046 445.918C465.159 448.515 463.137 451.589 461.561 455.091C459.985 458.592 459.274 461.972 459.273 465.793C459.273 467.233 459.429 468.955 459.654 470.379L463.399 489.074C463.641 490.284 463.955 491.479 464.384 492.637C465.239 494.94 466.851 498.938 468.428 500.956C470.721 503.892 474.047 506.491 477.582 507.836Z" fill="black"/>
<path d="M405.778 613.595C405.778 611.695 411.459 566.888 424.778 539.506C436.214 517.336 454.46 514.016 483.426 513.686C511.522 513.362 534.37 517.878 546.453 538.912C557.375 566.482 562.694 613.595 562.694 613.595V659.948L569.473 673.919C574.332 683.935 565.631 695.186 554.716 693.003V693.003L547.877 680.085L543.317 812.304L558.646 822.455C564.405 826.268 565.51 834.27 561 839.501V839.501L499 837.241L499.244 820.663V820.663C497.219 820.048 495.847 818.166 495.881 816.05L497.724 698.702L485.569 688.443L473.788 698.702L474.968 816.449C474.987 818.345 473.792 820.042 472 820.663V820.663L473.028 837.241L410.5 839.501V839.501C405.775 834.325 406.794 826.152 412.645 822.295L427.435 812.545L422.876 680.085L415.277 693.003V693.003C406.027 695.315 397.85 686.538 400.811 677.475L406.538 659.948C406.538 659.948 405.778 647.03 405.778 613.595Z" fill="white"/>
<path d="M411.53 612.812C411.53 612.812 415.664 569.739 428.233 542.936C439.024 521.236 456.34 518.567 483.674 518.244C510.187 517.927 531.747 522.347 543.15 542.936C551.296 564.581 557.375 613.214 557.375 613.214V659.457L565.189 676.53C567.719 682.059 564.156 688.454 558.124 689.213V689.213C557.671 689.27 557.228 689.047 557.003 688.65L543.15 664.126L531.539 610.243L525.96 572.258C525.891 571.786 525.486 571.436 525.009 571.436V571.436C524.438 571.436 523.992 571.931 524.053 572.499L529.259 621.573L533.818 638.67L539.138 656.527V656.527C525.643 641.023 500.148 649.18 498.159 669.638L498.104 670.205V693.762L488.931 685.389C487.988 684.528 486.758 684.051 485.481 684.051V684.051C484.187 684.051 482.942 684.54 481.995 685.421L473.028 693.762V670.205V670.205C471.157 649.484 445.437 640.977 431.614 656.527V656.527L436.546 638.67L440.041 621.573L444.812 572.451C444.865 571.9 444.43 571.424 443.877 571.429V571.429C443.418 571.433 443.031 571.77 442.963 572.224L437.306 610.243L432.389 637.185L427.473 664.126L412.504 689.077C412.421 689.215 412.261 689.288 412.102 689.259V689.259C407.528 688.421 404.717 683.771 406.1 679.331L412.29 659.457L411.523 612.812H411.53Z" fill="black"/>
<path d="M448.711 653.488C463.08 653.489 467.226 664.897 468.365 670.032C468.725 671.654 468.787 673.316 468.816 674.977L471.253 814C471.284 815.808 469.821 817.287 468.013 817.275L468.765 833.977L413.377 836.62C410.555 833.408 411.195 828.448 414.739 826.057L432.237 814.25L427.435 673.244C427.435 673.244 430.17 653.488 448.711 653.488Z" fill="black"/>
<path d="M448.711 653.488C463.08 653.489 467.226 664.897 468.365 670.032C468.725 671.654 468.787 673.316 468.816 674.977L471.253 814C471.284 815.808 469.821 817.287 468.013 817.275L468.765 833.977L413.377 836.62C410.555 833.408 411.195 828.448 414.739 826.057L432.237 814.25L427.435 673.244C427.435 673.244 430.17 653.488 448.711 653.488Z" stroke="black"/>
<path d="M522.221 653.488C507.852 653.489 503.706 664.897 502.568 670.032C502.208 671.654 502.146 673.316 502.117 674.977L499.68 814C499.648 815.808 501.112 817.287 502.92 817.275L502.167 833.977L557.556 836.62C560.378 833.408 559.738 828.448 556.194 826.057L538.696 814.25L543.498 673.244C543.498 673.244 540.762 653.488 522.221 653.488Z" fill="black"/>
<path d="M522.221 653.488C507.852 653.489 503.706 664.897 502.568 670.032C502.208 671.654 502.146 673.316 502.117 674.977L499.68 814C499.648 815.808 501.112 817.287 502.92 817.275L502.167 833.977L557.556 836.62C560.378 833.408 559.738 828.448 556.194 826.057L538.696 814.25L543.498 673.244C543.498 673.244 540.762 653.488 522.221 653.488Z" stroke="black"/>
</svg>
