<svg id="Capa_1" data-name="Capa 1" xmlns="http://www.w3.org/2000/svg" viewBox="0 0 1300 1000"><defs><style>.cls-1{fill:#262626;}</style></defs><title>Capa1-Acciones del protagonista</title><path class="cls-1" d="M650.88,549.16,625.2,866.46l-13.34,0,.33,34.07H543.3V891l29.61-25.5H560.8l28.75-334.59H576.19l33.65-177.16-36.14,62,16.59,43.44-6.14,33.77-41-73.82s25.29-125.41,109.12-125.41c0,0,59.78-6.89,108.05,102.22l78.57,46.76-7.15,17.21L738.49,418.6l-43.42-65.14,32.5,177.67-13.15,0,28.71,334.31h-8l25.28,24.66.18,10.38H690.75l.13-34.07-14.08,0Z"/><ellipse id="_Trazado_" data-name="&lt;Trazado&gt;" class="cls-1" cx="652.37" cy="252.81" rx="24" ry="30"/></svg>