<svg id="Capa_3" data-name="Capa 3" xmlns="http://www.w3.org/2000/svg" viewBox="0 0 1300 1000"><defs><style>.cls-1{fill:#fff;}.cls-2{fill:#1e1e1c;}</style></defs><title>push--fourth-quadrant</title><polygon class="cls-1" points="1231.07 499.26 1228.99 500.68 1221.06 506.1 1217.88 509.38 1211.6 515.85 1215.44 519.11 1221.19 514.38 1234.75 503 1234.67 502.93 1231.07 499.26"/><polygon class="cls-1" points="1000.15 538.31 999.84 538.28 988.13 537.12 983.75 537.56 974.5 538.51 974.5 538.56 975.41 543.36 1000.49 543.45 1000.51 543.36 1000.54 543.27 1000.15 538.31"/><path class="cls-1" d="M1132,543.36H1005.63l0-.11,1.07-7.7c3.29-.25,62-3.77,62-3.77l62.19,3.78,1,7.69Z"/><polygon class="cls-1" points="1140.81 854.48 1119.53 853.27 1098.3 854.49 1098.81 860.9 1098.81 860.93 1098.82 860.93 1133.41 860.91 1135.69 860.9 1140.88 860.9 1140.81 854.48"/><polygon class="cls-1" points="1039.53 854.49 1039.03 860.9 1039.03 860.93 1004.43 860.91 1002.13 860.9 997 860.9 997.05 854.48 1018.35 853.27 1039.53 854.49"/><path class="cls-2" d="M1188.59,456l-8.65-8.81h0l-4-4h0l-4-11.35-1.5-4.3-22.88-65.56-.34-1c-.14-.41-.3-.82-.47-1.22-.32-.82-.66-1.62-1-2.4-.12-.26-.24-.52-.37-.77l-.06-.11c-.15-.3-.29-.58-.45-.87l-.4-.76c-.17-.31-.36-.63-.54-.94-.44-.76-.9-1.49-1.38-2.2a43.05,43.05,0,0,0-3.14-4.12c-.27-.33-.56-.64-.85-1-.58-.63-1.18-1.25-1.8-1.85-.3-.31-.61-.6-.92-.88l-.09-.09-.07-.07c-.17-.17-.49-.46-.94-.87l-.19-.17a2.35,2.35,0,0,1-.26-.22l-.57-.48c-.79-.65-1.8-1.44-3-2.33l-.42-.3-.77-.52c-.23-.17-.48-.33-.73-.5-.86-.57-1.79-1.16-2.8-1.77l-1-.59c-.69-.4-1.41-.81-2.17-1.21s-1.55-.83-2.38-1.24-1.68-.83-2.57-1.24-1.82-.83-2.79-1.23c-.47-.21-1-.41-1.46-.61-.7-.28-1.4-.56-2.13-.83l-.63-.23c-.93-.34-1.89-.69-2.88-1-.33-.12-.67-.23-1-.33s-.71-.24-1.07-.34l-1.23-.38a117,117,0,0,0-19.9-4.05l-1.56-.18h-.06l-2.05-.2h0l-2.12-.17-1.1-.07c-1.8-.13-3.66-.21-5.55-.26l-1.6,0h-2.12c-1.34,0-2.67,0-4,.06-.66,0-1.3,0-1.95.07s-1.27.06-1.9.1-1.27.07-1.89.12l-1.64.13c-.34,0-.67.05-1,.09l-1.69.17-1.53.18c-1.07.12-2.13.27-3.16.42l-1.22.19-2.41.4-1,.18c-1.25.24-2.45.49-3.64.75l-1.11.26-1.1.26-1.08.27-1.07.28c-.64.16-1.27.33-1.88.51s-1.09.32-1.62.48l-1.67.52c-.56.17-1.1.35-1.64.54s-.91.31-1.35.47c-1.2.41-2.35.84-3.46,1.29l-1.22.49c-.28.11-.55.22-.83.35l-1.08.46-.09,0-1.64.73-.24.11-1.09.52-1.06.51-1,.52c-2.18,1.11-4.13,2.21-5.85,3.27l-.9.57c-.3.17-.58.36-.86.54l-.82.54c-.53.35-1,.7-1.5,1l-.75.53a52,52,0,0,0-4.67,3.78l-.16.15-.3.28h0c-.3.29-.6.57-.9.87s-.49.47-.73.72l-.38.38c-.54.56-1,1.13-1.56,1.72-.24.27-.49.56-.72.85s-.39.48-.57.72-.39.5-.58.76a40.47,40.47,0,0,0-2.45,3.63c-.43.72-.85,1.45-1.24,2.2-.19.36-.38.74-.57,1.12l-.54,1.14c-.17.39-.34.77-.5,1.16s-.32.78-.47,1.18a1.22,1.22,0,0,0-.07.17l-.37,1-30.17,82.57-.09.25a19.13,19.13,0,0,0-1,9.07,3,3,0,0,0,.06.42l.31,1.65a.15.15,0,0,0,0,.06l12.49,66.13,3.08,16.29v0l9.25-1,4.38-.44,11.71,1.16.31,0-5.95-76.59h0l-.22-2.9.07-.22,1.33-4.16,1.55-4.88,11.46-36,3.54-11.12h2.62l.27,14.31.72,37.65.1,4.47.21,11.29-9.12,65.36h0c3.29-.25,62-3.77,62-3.77l62.19,3.78-8.8-65.36.18-9.71.12-6.06.73-38.61.25-13.53H1126l1.57,4.91v0l1.73,5.43h0l12.73,40v0l.35,1.11,0,.06,0,.09a18.82,18.82,0,0,0,2.16,4.24c.21.31.43.62.67.93l.15.18c.19.26.41.51.62.76s.52.58.8.86.56.56.85.82h0l.69.59,0,0,63.18,53.49,6.27-6.47,3.19-3.28,7.93-5.42,2.08-1.42Zm-58.22-52.27a1.55,1.55,0,0,0,0-.22l0,.22Z"/><polygon class="cls-2" points="1140.81 854.48 1119.53 853.27 1098.3 854.49 1087.96 725.96 1072.58 598.45 1064.76 598.45 1049.62 725.96 1039.54 854.49 1039.53 854.49 1018.35 853.27 997.05 854.48 998.08 726.85 1001.47 612.38 1004.94 548.34 1005.63 543.36 1131.96 543.36 1132.63 548.34 1136.2 612.38 1139.48 726.85 1140.81 854.48"/><polygon class="cls-2" points="1177.38 889.36 1177.38 901.2 1098.81 901.2 1098.81 860.93 1098.82 860.93 1133.41 860.91 1135.69 860.9 1140.98 871.49 1143.22 875.98 1153.5 880 1177.38 889.36"/><path class="cls-2" d="M1102.05,257.41a33.8,33.8,0,0,1-.38,5.07v0l-.5,2.58-5,25.75a.19.19,0,0,1,0,.07l-.27,1.42a.58.58,0,0,1,0,.19,23.41,23.41,0,0,1-16.07,17.17h0a41.36,41.36,0,0,1-22.29,0h0a23.39,23.39,0,0,1-16.55-20s0,0,0,0l-4.77-24.37c-.2-.83-.36-1.68-.49-2.53l0-.22h0a34.19,34.19,0,0,1-.4-5.1,33.39,33.39,0,0,1,66.77,0Z"/><polygon class="cls-2" points="1000.51 543.45 995.76 562.99 970.17 589.14 960.36 583.75 980.82 543.37 1000.49 543.45 1000.51 543.45"/><polygon class="cls-2" points="1259.58 551.97 1250.05 557.85 1221.19 514.38 1234.75 503 1249.46 516.81 1249.46 516.82 1259.58 551.97"/><polygon class="cls-2" points="1039.04 860.93 1039.04 901.2 959.89 901.2 959.89 889.36 986.84 878.93 994.5 875.98 996.91 871.19 1002.12 860.9 1002.13 860.9 1004.43 860.91 1039.03 860.93 1039.04 860.93"/></svg>