<svg width="1300" height="1000" fill="none" xmlns="http://www.w3.org/2000/svg"><path d="M383.074 469.162c0-1.662 5.902-57.127 23.43-93.162 15.049-29.175 39.06-33.545 77.179-33.979 36.975-.426 67.042 5.516 82.944 33.197C581 411.5 597.5 486 597.5 486l27.5 63 25.423 21.186a15.784 15.784 0 0 1-17.34 26.152L598.5 578.5 550 491l14.504 227-1.5 156 15.598 6.406a20.001 20.001 0 0 1 12.402 18.501V900h-93.5l1.5-18a9.97 9.97 0 0 1-4.439-8.408L496.004 746l-9.5-125-9 125v128a10 10 0 0 1-4 8l1.5 18H383c0-7.632 4.401-14.58 11.301-17.842l16.203-7.658-2-156.5 6.5-118.5-5.869 22.986a.917.917 0 0 1-.642.657c-12.056 3.376-23.881-6.04-23.292-18.546l1.519-32.227s-3.646-59.37-3.646-103.208Z" fill="#fff"/><path d="M389.07 472.47s5.44-56.683 21.98-91.955c14.201-28.557 36.989-32.07 72.96-32.495 34.892-.416 63.264 5.4 78.27 32.495C573 409 592.36 489.77 592.36 489.77L621 554l25.391 20.958a9.3 9.3 0 0 1-10.254 15.4l-32.687-17.221-47.91-86.057-15.802-68.033a1.326 1.326 0 0 0-2.614.414L543 487.5l3 30.5 3 55.855 9.5 143.153-1.5 161.007 21.216 9.112a10.001 10.001 0 0 1 6.052 9.022l.064 3.851H503.5l2.09-22.01a5.003 5.003 0 0 1-5.033-5.05l1.198-128.82-12.532-147.284a2.86 2.86 0 0 0-5.698.01L471.49 744.135l-.242 129.575a4.317 4.317 0 0 1-4.348 4.31l1.991 21.98H389c0-5.192 2.968-9.927 7.641-12.189l20.179-9.771-2.16-161.02L422 573.5l2.5-55.5 3-30 5.395-68.664a1.228 1.228 0 0 0-2.442-.254l-6.463 50.008-9.49 104.403-10.216 43.651a.63.63 0 0 1-.613.486c-7.175 0-12.898-5.989-12.572-13.157l1.411-30.98-3.45-101.023h.01Z" fill="#000"/><path d="M473.324 340c3.926 1.471 11.257 1.995 13.176 2 0 0 8.646-.072 13.682-2 5.676-2.172 8.837-4.293 12.669-8.96 2.619-3.188 4.662-8.697 5.57-11.42.358-1.076.606-2.181.795-3.3l4.277-25.32s.516-3.649.507-6c-.02-5.591-.777-8.874-3.041-14-2.325-5.265-4.358-8.083-8.614-12-4.537-4.176-7.807-6-13.683-7.968-4.561-1.528-7.345-1.993-12.162-2.032-5.17.175-7.095.5-12.029 2.032-4.938 1.649-9.979 4.57-13.816 7.968-3.836 3.398-6.521 7.42-8.614 12-2.094 4.58-3.039 9.002-3.041 14 .001 1.885.208 4.137.507 6l5.084 24.993a24.33 24.33 0 0 0 1.005 3.605c1.072 2.894 3.346 8.603 5.566 11.402 3.047 3.841 7.466 7.241 12.162 9Z" fill="#fff"/><path d="M475.432 334.258c3.298 1.281 9.456 1.738 11.068 1.742 0 0 7.263-.063 11.493-1.742 4.767-1.892 7.423-3.739 10.642-7.804 2.15-2.714 3.839-7.36 4.625-9.782.339-1.045.572-2.118.748-3.202l3.566-21.889s.433-3.178.426-5.226c-.017-4.87-.652-7.729-2.554-12.194-1.953-4.585-3.662-7.039-7.237-10.451-3.811-3.637-6.558-5.226-11.493-6.94-3.832-1.331-6.17-1.736-10.216-1.77-4.342.152-5.959.435-10.104 1.77-4.148 1.436-8.383 3.98-11.605 6.94-3.223 2.959-5.478 6.462-7.237 10.451-1.759 3.99-2.552 7.841-2.554 12.194 0 1.641.175 3.603.426 5.226l4.234 21.584c.234 1.19.535 2.363.946 3.504.924 2.57 2.789 7.37 4.61 9.75 2.56 3.346 6.272 6.307 10.216 7.839Z" fill="#000"/></svg>