<svg id="Capa_3" data-name="Capa 3" xmlns="http://www.w3.org/2000/svg" viewBox="0 0 1300 1000"><defs><style>.cls-1{fill:#fff;}.cls-2{fill:#1e1e1c;}</style></defs><title>1-subject</title><polygon class="cls-1" points="919.07 499.26 917 500.68 909.06 506.1 905.88 509.38 899.6 515.85 903.44 519.11 909.19 514.38 922.75 503 922.67 502.93 919.07 499.26"/><polygon class="cls-1" points="688.15 538.31 687.84 538.28 676.13 537.12 671.75 537.56 662.5 538.51 662.5 538.56 663.41 543.36 688.49 543.45 688.52 543.36 688.54 543.27 688.15 538.31"/><path class="cls-1" d="M820,543.36H693.64l0-.11,1.08-7.7c3.29-.25,62-3.77,62-3.77l62.19,3.78,1,7.69Z"/><polygon class="cls-1" points="828.81 854.48 807.53 853.27 786.3 854.49 786.81 860.9 786.81 860.93 786.82 860.93 821.41 860.91 823.7 860.9 828.88 860.9 828.81 854.48"/><polygon class="cls-1" points="727.53 854.49 727.03 860.9 727.03 860.93 692.44 860.91 690.13 860.9 685 860.9 685.06 854.48 706.35 853.27 727.53 854.49"/><path class="cls-2" d="M876.6,456l-8.66-8.81h0l-4-4h0l-4-11.35-1.5-4.3L835.62,361.9l-.34-1c-.15-.41-.31-.82-.47-1.22q-.48-1.23-1-2.4c-.11-.26-.24-.52-.37-.77a.39.39,0,0,0-.06-.11c-.14-.3-.29-.58-.44-.87l-.4-.76-.55-.94c-.44-.76-.9-1.49-1.38-2.2a43,43,0,0,0-3.13-4.12c-.28-.33-.56-.64-.86-1-.58-.63-1.18-1.25-1.8-1.85-.3-.31-.6-.6-.92-.88l-.09-.09-.07-.07c-.17-.17-.48-.46-.94-.87l-.19-.17a2.32,2.32,0,0,1-.25-.22l-.58-.48c-.79-.65-1.8-1.44-3-2.33l-.42-.3-.76-.52-.74-.5c-.85-.57-1.78-1.16-2.8-1.77l-1-.59c-.69-.4-1.41-.81-2.17-1.21s-1.54-.83-2.37-1.24-1.69-.83-2.58-1.24-1.82-.83-2.78-1.23c-.48-.21-1-.41-1.47-.61-.69-.28-1.4-.56-2.13-.83l-.62-.23c-.93-.34-1.9-.69-2.89-1-.33-.12-.67-.23-1-.33s-.72-.24-1.08-.34l-1.22-.38a117.09,117.09,0,0,0-19.91-4.05l-1.56-.18h-.06l-2-.2h0l-2.11-.17-1.11-.07c-1.8-.13-3.65-.21-5.54-.26l-1.61,0h-2.12c-1.34,0-2.67,0-4,.06-.65,0-1.3,0-1.94.07s-1.28.06-1.91.1-1.26.07-1.88.12l-1.65.13c-.34,0-.67.05-1,.09l-1.68.17-1.53.18c-1.07.12-2.13.27-3.16.42l-1.23.19-2.4.4-1,.18q-1.86.36-3.63.75l-1.12.26-1.1.26-1.08.27-1.06.28q-1,.24-1.89.51c-.54.15-1.08.32-1.61.48l-1.68.52c-.55.17-1.1.35-1.64.54s-.9.31-1.35.47c-1.19.41-2.35.84-3.45,1.29-.42.16-.83.32-1.22.49s-.56.22-.84.35l-1.07.46-.09,0c-.57.24-1.11.49-1.64.73l-.25.11-1.08.52-1.06.51-1,.52c-2.17,1.11-4.12,2.21-5.85,3.27l-.9.57c-.3.17-.58.36-.86.54l-.81.54c-.53.35-1,.7-1.51,1l-.75.53a49.88,49.88,0,0,0-4.66,3.78,1.17,1.17,0,0,0-.16.15l-.3.28h0c-.31.29-.61.57-.91.87s-.49.47-.73.72l-.38.38c-.54.56-1,1.13-1.56,1.72-.24.27-.48.56-.71.85l-.58.72c-.2.25-.39.5-.58.76a40.47,40.47,0,0,0-2.45,3.63c-.43.72-.84,1.45-1.24,2.2-.19.36-.38.74-.57,1.12s-.36.76-.53,1.14l-.51,1.16c-.16.39-.32.78-.47,1.18a1.15,1.15,0,0,0-.06.17l-.38,1-30.16,82.57a2.6,2.6,0,0,1-.1.25,19.39,19.39,0,0,0-1,9.07c0,.14,0,.28.06.42l.32,1.65v.06l12.5,66.13,3.07,16.29v0l9.25-1,4.38-.44,11.71,1.16.31,0-5.95-76.59h0l-.22-2.9.07-.22,1.33-4.16,1.55-4.88,11.46-36,3.54-11.12h2.62l.28,14.31.72,37.65.09,4.47.22,11.29-9.13,65.36h0c3.29-.25,62-3.77,62-3.77l62.19,3.78L810.1,470.2l.19-9.71.11-6.06.73-38.61.26-13.53H814l1.57,4.91v0l1.73,5.43h0l12.73,40v0l.35,1.11,0,.06,0,.09a18.82,18.82,0,0,0,2.16,4.24c.21.31.44.62.68.93,0,.05.09.11.14.18.19.26.41.51.62.76s.53.58.8.86.57.56.86.82h0l.69.59v0l63.18,53.49,6.28-6.47,3.18-3.28,7.94-5.42,2.07-1.42Zm-58.22-52.27a1.5,1.5,0,0,0,0-.22l0,.22Z"/><polygon class="cls-2" points="828.81 854.48 807.53 853.27 786.3 854.49 775.96 725.96 760.59 598.45 752.76 598.45 737.63 725.96 727.54 854.49 727.53 854.49 706.35 853.27 685.06 854.48 686.09 726.85 689.47 612.38 692.95 548.34 693.64 543.36 819.96 543.36 820.63 548.34 824.21 612.38 827.49 726.85 828.81 854.48"/><polygon class="cls-2" points="865.39 889.36 865.39 901.2 786.81 901.2 786.81 860.93 786.82 860.93 821.41 860.91 823.7 860.9 828.99 871.49 831.23 875.98 841.5 880 865.39 889.36"/><path class="cls-2" d="M790.06,257.41a32.53,32.53,0,0,1-.39,5.07v0l-.5,2.58-4.95,25.75s0,.05,0,.07l-.27,1.42a1.05,1.05,0,0,1-.05.19,23.39,23.39,0,0,1-16.07,17.17h0a41.32,41.32,0,0,1-22.28,0h0a23.4,23.4,0,0,1-16.56-20v0l-4.76-24.37c-.2-.83-.36-1.68-.5-2.53l0-.22h0a32.91,32.91,0,0,1-.4-5.1,33.39,33.39,0,0,1,66.77,0Z"/><polygon class="cls-2" points="688.52 543.45 683.76 562.99 658.17 589.14 648.36 583.75 668.82 543.37 688.49 543.45 688.52 543.45"/><polygon class="cls-2" points="947.58 551.97 938.05 557.85 909.19 514.38 922.75 503 937.47 516.81 937.47 516.82 947.58 551.97"/><polygon class="cls-2" points="727.04 860.93 727.04 901.2 647.89 901.2 647.89 889.36 674.85 878.93 682.5 875.98 684.92 871.19 690.12 860.9 690.13 860.9 692.44 860.91 727.03 860.93 727.04 860.93"/></svg>