<svg id="Capa_3" data-name="Capa 3" xmlns="http://www.w3.org/2000/svg" viewBox="0 0 1300 1000"><defs><style>.cls-1{fill:#fff;}</style></defs><title>push--second-quadrant</title><polygon class="cls-1" points="626.15 514.82 637.65 502.98 649.59 494.81 654.65 499.95 656.75 501.88 641 515.09 633.62 521.17 626.15 514.82"/><path class="cls-1" d="M649.28,498.05l3.6,3.67.08.08L639.4,513.18l-5.75,4.73-3.84-3.26,6.27-6.47,3.19-3.28,7.93-5.42,2.08-1.43m.63-6.49-3.46,2.37-2.07,1.42-7.93,5.42-.42.28-.35.37-3.19,3.28-6.27,6.47L622.5,515l4.07,3.46,3.84,3.26,3.18,2.7,3.23-2.65,5.75-4.73,13.6-11.41,4.39-3.68-4.21-3.83-3.5-3.57-2.94-3Z"/><polygon class="cls-1" points="391.54 544.65 390.21 537.6 390.21 535.1 392.45 534.82 406.33 533.4 420.69 534.82 421.27 542.28 420.66 544.67 418.69 544.75 391.54 544.65"/><path class="cls-1" d="M406.33,535.92,418,537.08l.32,0,.38,5,0,.09,0,.09-25.08-.09-.91-4.8v-.05l9.25-.95,4.37-.44m0-5-.5.05-4.38.45-9.25.94-4.49.46v5l.09.46.9,4.8.77,4,4.13,0,25.08.09,3.91,0,1-3.8,0-.09,0-.1.2-.79-.06-.81-.39-5-.32-4.18-4.17-.41-.32,0-11.7-1.16-.5-.05Z"/><path class="cls-1" d="M420.79,544.66l.61-3,1.34-9.62,2-.16c3.27-.25,59.63-3.62,62-3.77h.15L551.31,532,553,544.66Z"/><path class="cls-1" d="M486.92,530.58l62.19,3.78,1,7.68,0,.12H423.84l0-.12,1.07-7.69c3.29-.26,62-3.77,62-3.77m0-5-.31,0c-2.39.14-58.77,3.52-62.06,3.77l-4,.31-.56,4-1.06,7.55-1.19,6H555.88l-.76-5.66v-.12l-1-7.69-.55-4.07-4.1-.25-62.19-3.78-.3,0Z"/><polygon class="cls-1" points="514.52 862.22 514.52 859.8 513.82 850.94 537.74 849.56 561.49 850.92 561.61 862.2 553.9 862.2 551.63 862.21 517.03 862.22 514.52 862.22"/><path class="cls-1" d="M537.74,852.07,559,853.28l.06,6.42H517v0l-.51-6.41,21.23-1.22m0-5h-.29l-21.23,1.23-5.1.29.41,5.09.49,6.22v4.8l5,0h47.12l-.06-5.05-.06-6.42,0-4.67-4.67-.27L538,847.07Z"/><polygon class="cls-1" points="422.64 862.21 420.33 862.2 412.69 862.2 412.78 850.92 436.56 849.56 460.43 850.94 459.74 859.8 459.74 862.2 457.24 862.22 422.64 862.21"/><path class="cls-1" d="M436.56,852.07l21.18,1.22-.5,6.41v0h-42l.05-6.42,21.3-1.21m0-5h-.28L415,848.29l-4.68.27,0,4.68-.05,6.42,0,5h52.08V859.9l.48-6.22.4-5.09-5.1-.29-21.17-1.23Z"/><path d="M417.8,539.56l-11.46-1.13L393,539.79l-.22-2.22-2.49.25-15.54-82.26-.07-.22v-.2l-.28-1.44c0-.25-.07-.44-.09-.63a21.5,21.5,0,0,1,1.19-10.2l30.61-83.78c0-.1.07-.2.11-.3.15-.41.31-.81.48-1.21l.52-1.2c.21-.44.39-.84.58-1.23s.4-.8.6-1.18c.4-.76.84-1.54,1.31-2.33a41.32,41.32,0,0,1,2.61-3.85c.17-.24.38-.52.6-.79s.41-.53.63-.79.44-.54.69-.83c.7-.8,1.21-1.36,1.71-1.87l.4-.41.78-.78c.29-.28.6-.58.93-.88l.27-.25.23-.22a52.85,52.85,0,0,1,4.86-3.92l.77-.55c.49-.35,1-.71,1.56-1.07l.85-.56c.28-.19.61-.4.95-.6l.05,0,.83-.52c1.88-1.16,3.91-2.3,6-3.36l1.05-.54.29-.14.81-.39.28-.13c.27-.13.55-.27.83-.39l.25-.12,1.62-.72.05,0,.11,0,1.08-.47c.28-.12.59-.25.91-.37l1.22-.49c1.09-.44,2.29-.89,3.53-1.33l1.39-.48c.54-.18,1.12-.38,1.7-.55s1.09-.35,1.69-.53l1.65-.49c.62-.18,1.26-.35,1.92-.52l2.17-.56,1.16-.27,1.12-.26c1.21-.27,2.44-.52,3.72-.77l.92-.16c.89-.17,1.71-.3,2.54-.43l1.25-.19c1.06-.16,2.15-.31,3.24-.44l1.56-.18,1.74-.17.68-.07.3,0,1.7-.14c.63,0,1.27-.09,1.93-.12s1.28-.08,1.94-.1,1.31-.06,2-.07c1.31,0,2.67-.07,4-.07l2.14,0,1.65,0c1.92,0,3.82.13,5.64.26l1.15.08c.65,0,1.33.1,2,.16h.14l2,.19h.15l1.6.18a120,120,0,0,1,20.33,4.14l1.23.38c.39.11.79.24,1.17.37l1,.33c1,.32,2,.68,2.93,1l.62.22c.76.28,1.49.57,2.21.87.51.2,1,.41,1.52.63,1,.39,1.92.82,2.84,1.25s1.8.84,2.65,1.27,1.65.85,2.44,1.28,1.51.83,2.23,1.24l1,.61c1,.6,2,1.21,2.91,1.84l.12.08c.23.15.46.3.68.46l.06,0,.71.49.38.27c1.18.84,2.24,1.66,3.21,2.45l.19.17.34.28.08.06.47.41.92.85.21.16.1.13.94.91c.6.58,1.23,1.23,1.84,1.89.34.37.64.71.94,1.07a43.8,43.8,0,0,1,3.29,4.32c.55.82,1,1.58,1.47,2.34.18.32.38.65.56,1l.42.78c.16.31.31.59.45.88a1.24,1.24,0,0,1,.1.2,8.48,8.48,0,0,1,.41.86c.36.73.73,1.59,1.09,2.48.17.43.34.87.5,1.32l28.5,81.67,4.31,4.38h0l7.94,8.09,44.56,45.39-4.54,3.11-7.72,5.28L630,518.06l-65-55h0l-.72-.64c-.33-.29-.65-.6-1-.91s-.62-.66-.92-1-.47-.55-.68-.84l-.19-.23c-.26-.34-.51-.68-.75-1a22,22,0,0,1-2.45-4.8l-.48-1.5v0L545.68,414l-.56-1.74L544,408.56l-1.14,60.29L552,537l-65.08-4c-3.31.2-58.63,3.52-61.79,3.76h-3.06l.39-2.85,9.1-65.16-.21-11.09-.1-4.47-.85-44.59L416,454l-1.26,3.92,6.37,82Z"/><path class="cls-1" d="M486.77,321.11l2.11,0c.54,0,1.08,0,1.61,0,1.89,0,3.75.13,5.54.25l1.11.08,2.12.17h0c.69.06,1.37.12,2,.2h.05q.8.08,1.56.18a115.92,115.92,0,0,1,19.91,4c.42.12.82.24,1.22.38s.73.21,1.08.33l1,.33q1.49.5,2.88,1l.62.23c.73.27,1.44.55,2.13.83.5.2,1,.4,1.47.61q1.44.6,2.79,1.23c.89.41,1.75.82,2.57,1.24s1.62.82,2.38,1.23,1.47.82,2.17,1.22l1,.59q1.52.92,2.79,1.77l.74.5c.26.18.52.34.76.52l.43.3c1.23.89,2.25,1.68,3,2.32.21.18.4.35.58.49l.25.22.2.17c.45.41.77.7.93.87a.15.15,0,0,1,.07.07l.1.08c.31.29.62.58.92.89.61.6,1.21,1.21,1.8,1.84.29.33.57.64.85,1a41.84,41.84,0,0,1,3.14,4.12q.72,1.07,1.38,2.19l.54,1c.13.25.26.5.4.75l.45.87.06.12c.13.25.25.51.37.77.37.78.72,1.58,1,2.4.16.4.33.8.47,1.22l.34,1,22.88,65.55,1.5,4.3,4,11.36h0l4,4.05h0l8.65,8.81,42.48,43.26-2.08,1.43-7.93,5.42-3.19,3.28-6.27,6.47-63.18-53.5h0l-.69-.59h0c-.29-.26-.57-.54-.85-.82s-.54-.57-.8-.87a8.94,8.94,0,0,1-.62-.76,1.19,1.19,0,0,1-.15-.18c-.24-.3-.46-.61-.68-.93a19.38,19.38,0,0,1-2.16-4.23l0-.09,0-.07-.35-1.1v0l-12.73-40h0L545.77,406v0l-1.57-4.9h-2.61l-.25,13.52-.73,38.62-.12,6.06-.18,9.71,8.8,65.36-62.19-3.78s-58.69,3.51-62,3.77h0L434.06,469l-.21-11.29-.1-4.47L433,415.57l-.28-14.31h-2.61l-3.55,11.12-11.45,36-1.56,4.89-1.33,4.16-.06.22.22,2.9h0l5.95,76.59-.32,0-11.71-1.16-4.37.44-9.25.95v.05l-3.08-16.29-12.49-66.14a.09.09,0,0,1,0-.05l-.31-1.65c0-.14-.05-.28-.07-.43a19.24,19.24,0,0,1,1.05-9.06l.09-.26,30.17-82.56.37-1,.06-.17c.16-.4.31-.79.47-1.18l.51-1.16c.18-.38.35-.77.54-1.15s.38-.75.57-1.12c.39-.74.81-1.47,1.24-2.19a38.6,38.6,0,0,1,2.45-3.64c.18-.25.38-.5.58-.75s.37-.48.57-.72.48-.58.72-.86c.51-.58,1-1.16,1.56-1.71l.38-.39c.23-.24.48-.49.73-.72l.9-.86h0l.3-.28.16-.16a50.66,50.66,0,0,1,4.67-3.77c.24-.17.48-.35.75-.53.46-.33,1-.68,1.5-1,.26-.18.53-.36.82-.54s.56-.37.86-.55l.9-.56c1.72-1.06,3.67-2.17,5.85-3.27l1-.52c.35-.17.7-.35,1.06-.51l1.09-.52.24-.12,1.64-.73.09,0,1.08-.47.83-.34,1.22-.49c1.11-.45,2.26-.88,3.46-1.3.44-.16.89-.31,1.35-.46s1.08-.37,1.64-.54,1.1-.36,1.67-.53l1.62-.47c.61-.18,1.24-.35,1.88-.52l1.07-.27c.35-.1.71-.18,1.08-.27s.73-.18,1.1-.26l1.11-.26c1.18-.27,2.39-.51,3.64-.75l1-.18,2.41-.41,1.22-.18c1-.15,2.09-.3,3.16-.42l1.53-.18,1.69-.17c.33,0,.66-.06,1-.09l1.65-.13,1.88-.13,1.91-.1c.65,0,1.29-.05,2-.06,1.3,0,2.63-.07,4-.07m61.8,81.26a.76.76,0,0,1,0,.15h0l0-.15v0m-61.8-86.26c-1.33,0-2.68,0-4.13.07-.66,0-1.33,0-2,.07s-1.32.06-2,.1-1.32.08-2,.13l-1.68.13-.33,0-.75.07c-.59.05-1.18.12-1.75.18l-1.52.18h-.06c-1,.12-2.08.26-3.3.44l-.43.07-.81.12c-.89.14-1.73.28-2.56.43l-.06,0-.84.15h-.11c-1.43.27-2.67.53-3.81.79l-1.12.25-1.22.29-.45.11-.65.17-1.07.28-2,.54-1.69.5-1.75.54c-.58.18-1.16.38-1.73.57l-1.41.49c-1.26.44-2.47.9-3.62,1.36q-.65.24-1.26.51c-.31.12-.63.25-.94.39l-1,.44-.2.08-1.5.67-.14.06-.22.11-.05,0-.91.43-.26.13-.86.41-.24.12-1.1.56c-2.14,1.08-4.22,2.25-6.17,3.45l-.82.51-.09.06c-.39.23-.73.45-1,.63l-.87.57-1.59,1.09-.47.34-.28.2,0,0h0c-1.84,1.34-3.2,2.46-4.13,3.26h0l-.3.28-.65.59a2.66,2.66,0,0,0-.24.23l-.14.13-.11.1c-.33.3-.65.61-1,.92s-.58.56-.86.85l-.18.18-.14.15,0,0,0,0c-.53.54-1.07,1.14-1.75,1.92h0l0,0c-.26.3-.52.61-.77.93s-.44.53-.65.8l-.65.85a48,48,0,0,0-2.73,4.06c-.49.81-.95,1.63-1.37,2.43-.22.42-.43.83-.63,1.25s-.39.82-.58,1.23l0,0,0,.06c-.17.39-.34.79-.52,1.19v.05c-.17.41-.34.83-.5,1.26l-.15.39-.34.92L373.2,441.77l-.05.13,0,.13a24,24,0,0,0-1.31,11.35c0,.23.06.45.09.67v.11l.29,1.5a2.93,2.93,0,0,0,.05.29L384.72,522l3.08,16.29,5-.47.46,4.46,9.25-.94,3.87-.4,11.21,1.11.32,0,5.94.58-.26-3.31h1.58l.2,0c3.09-.24,57-3.47,61.59-3.74l61.89,3.76,6.07.37-.81-6-8.76-65,.18-9.33.12-6.06.56-29.58,9.22,29h0l.09.31.36,1.11,0,.11,0,.09h0l0,.06,0,.06a24.65,24.65,0,0,0,2.72,5.34c.28.4.55.77.83,1.14l.24.3c.27.35.53.66.76.92s.64.71,1,1.06l0,0,0,0c.41.4.73.71,1.06,1l1.42,1.28h.08l62.5,52.91,3.56,3,3.26-3.35,6.27-6.47,2.83-2.92,7.52-5.13,2.08-1.43,4.92-3.37-4.17-4.26-42.48-43.26-7.22-7.36h0l-1.44-1.47-2.54-2.58v0l-.66-.66-3.59-10.27-1.5-4.3-22.88-65.56-.34-1c-.18-.53-.37-1-.55-1.45-.35-.89-.74-1.78-1.14-2.62q-.19-.42-.42-.87l-.14-.28-.43-.83,0,0,0,0-.23-.43-.14-.28,0-.05,0,0c-.19-.35-.39-.69-.59-1-.46-.79-1-1.59-1.53-2.45a48.83,48.83,0,0,0-3.49-4.58c-.31-.37-.63-.72-1-1.08l0,0,0,0c-.62-.67-1.27-1.34-1.93-2-.32-.33-.66-.65-1-1l-.18-.18-1-.92,0,0h0l-.06-.06-.12-.1-.1-.09,0,0-.05,0-.14-.13-.15-.12-.26-.21-.16-.14,0,0,0,0c-1-.83-2.12-1.68-3.31-2.53l-.45-.32-.7-.48-.1-.07-.68-.46-.12-.08c-1-.65-2-1.29-3-1.9l-.23-.14-.83-.49c-.66-.38-1.46-.84-2.31-1.29s-1.72-.92-2.51-1.31-1.82-.89-2.73-1.31-2-.89-2.9-1.28c-.51-.22-1-.44-1.57-.65-.74-.31-1.49-.6-2.26-.88l-.3-.12-.31-.11c-1.18-.44-2.11-.77-3-1.06l-1-.34c-.42-.14-.82-.27-1.21-.38l-1.25-.39a122.26,122.26,0,0,0-20.74-4.22c-.54-.06-1.08-.13-1.63-.18l-.26,0h0c-.62-.07-1.25-.12-1.88-.18l-.22,0h0l-2-.16-1.1-.07h-.06c-1.84-.12-3.77-.21-5.74-.26l-1.66,0-2.18,0ZM417.25,458.2l1.1-3.45,1.55-4.89,8.29-26,.56,29.47.1,4.48.2,10.89L422,519.28l-4.58-59,0-.16-.14-1.93Z"/><polygon points="537.74 854.57 514.21 855.92 503.68 724.96 488.57 599.75 485.18 599.75 470.31 725.05 460.06 855.79 457.67 855.79 436.56 854.57 412.74 855.93 413.79 725.63 417.18 611.1 420.66 546.9 421.67 539.66 552.35 539.66 553.33 546.9 556.91 611.04 560.19 725.58 561.54 855.93 537.74 854.57"/><path class="cls-1" d="M550.17,542.16l.66,5,3.58,64,3.28,114.47L559,853.28l-21.28-1.21-21.23,1.22L506.17,724.76,490.79,597.25H483L467.83,724.76,457.74,853.29h0l-21.18-1.22-21.3,1.21,1-127.63,3.38-114.47,3.48-64,.69-5H550.17m4.37-5h-135l-.6,4.31-.69,5,0,.21v.21l-3.48,64V611L411.29,725.5v.11l-1,127.63,0,5.34,5.33-.31,21-1.2,20.89,1.21h4.91l.37-4.61,10.08-128.43,14.07-118.62,14.31,118.63,10.34,128.43.39,4.87,4.88-.28,20.94-1.21,21,1.2,5.34.31-.05-5.35L562.69,725.6v-.09L559.41,611v-.13l-3.57-64v-.19l0-.19-.67-5-.58-4.33Z"/><polygon points="598.1 886.45 598.1 900 514.52 900 514.52 857.22 551.62 857.21 555.45 857.2 563.24 872.79 598.1 886.45"/><path class="cls-1" d="M597.42,883.5l-23.88-9.36-8.49-3.32-1.38-2.77-5.29-10.59L557,854.69H512V900h5V859.72h36.89l5.29,10.59,2.23,4.48,10.28,4,23.89,9.36V900h5V884.75Z"/><path d="M486.88,315.51a42.54,42.54,0,0,1-11.9-1.65l-1.74-.55v0a25.74,25.74,0,0,1-16.52-21.4l-.29-1.2.05-.05-4.5-23c-.19-.79-.36-1.64-.52-2.67l-.62-3.11h.25c-.07-.88-.1-1.75-.1-2.6a35.89,35.89,0,1,1,71.77,0,36.66,36.66,0,0,1-.38,5.25v.06l-5.45,28.35V293l-.09.27-.23,1.21a3.78,3.78,0,0,1-.1.46,25.91,25.91,0,0,1-16,18.28v0l-1.74.56A42.66,42.66,0,0,1,486.88,315.51Z"/><path class="cls-1" d="M486.88,225.82a33.38,33.38,0,0,1,33.38,33.39,34,34,0,0,1-.38,5.07h0l-.5,2.59-5,25.75a.25.25,0,0,1,0,.07l-.27,1.42a1.06,1.06,0,0,1,0,.19A23.4,23.4,0,0,1,498,311.47h0a41.36,41.36,0,0,1-22.29,0h0a23.38,23.38,0,0,1-16.55-20s0,0,0,0l-4.77-24.37c-.2-.83-.36-1.68-.49-2.53l-.05-.22h0a34.19,34.19,0,0,1-.4-5.1,33.39,33.39,0,0,1,33.39-33.39m0-5a38.43,38.43,0,0,0-38.39,38.39v.1h-.66l1.15,5.95,0,.14c.17,1,.34,1.9.53,2.72l4.24,21.65-.09.09.57,2.43a28.24,28.24,0,0,0,16.49,22.65v.18l3.48,1.12a46.2,46.2,0,0,0,25.33,0l3.48-1.11v-.2a28.42,28.42,0,0,0,15.9-19.32,5.18,5.18,0,0,0,.14-.66l.22-1.16c0-.12.05-.24.07-.35l4.93-25.62.5-2.58.09-.47v-.13a39.21,39.21,0,0,0,.38-5.43,38.43,38.43,0,0,0-38.38-38.39Z"/><polygon points="375.25 583.57 397.5 539.66 421.88 539.76 421.15 542.84 416.24 563.05 388.84 591.05 375.25 583.57"/><path class="cls-1" d="M399,542.17l19.67.08h0L414,561.79l-25.59,26.15-9.81-5.4L399,542.17m-3.07-5-1.39,2.76-20.46,40.37-2.19,4.31,4.24,2.33,9.81,5.4,3.33,1.83,2.65-2.71,25.59-26.15,1-1,.33-1.33,4.75-19.54,1.5-6.18h-6.36l-19.67-.08-3.09,0Z"/><polygon points="636.08 512.7 653.05 498.46 670.17 514.53 670.17 515.26 680.72 551.9 667.51 560.04 636.08 512.7"/><path class="cls-1" d="M653,501.8l14.71,13.81h0l10.12,35.15-9.54,5.87L639.4,513.18,653,501.8m.19-6.68-3.4,2.85-13.57,11.38-3.42,2.87,2.47,3.72,28.86,43.47,2.67,4,4.12-2.54,9.53-5.87,3.23-2-1-3.65-9.92-34.48v-1.46L671.09,512l-14.71-13.81-3.23-3Z"/><polygon points="459.75 859.72 459.75 900 375.6 900 375.6 886.44 410.91 872.79 418.8 857.2 422.65 857.21 459.74 857.22 459.75 859.72"/><path class="cls-1" d="M457.25,854.72h-40l-1.39,2.74-5.2,10.29-1.55,3.07-5.87,2.27L376.3,883.49l-3.2,1.24V900h5V888.16l26.95-10.43,7.66-3,2.42-4.78,5.2-10.29h36.92V900h5V854.72Z"/></svg>