<svg id="Capa_3" data-name="Capa 3" xmlns="http://www.w3.org/2000/svg" viewBox="0 0 1300 1000"><defs><style>.cls-1{fill:#fff;}.cls-2{fill:#1e1e1c;}</style></defs><title>1-subject</title><polygon class="cls-1" points="934.58 499.26 932.5 500.68 924.57 506.1 921.39 509.38 915.11 515.85 918.95 519.11 924.7 514.38 938.26 503 938.18 502.93 934.58 499.26"/><polygon class="cls-1" points="703.66 538.31 703.35 538.28 691.64 537.12 687.26 537.56 678.01 538.51 678.01 538.56 678.92 543.36 704 543.45 704.02 543.36 704.05 543.27 703.66 538.31"/><path class="cls-1" d="M835.47,543.36H709.14l0-.11,1.07-7.7c3.3-.25,62-3.77,62-3.77l62.18,3.78,1,7.69Z"/><polygon class="cls-1" points="844.32 854.48 823.04 853.27 801.81 854.49 802.32 860.9 802.32 860.93 802.33 860.93 836.92 860.91 839.21 860.9 844.39 860.9 844.32 854.48"/><polygon class="cls-1" points="743.04 854.49 742.54 860.9 742.54 860.93 707.95 860.91 705.64 860.9 700.51 860.9 700.56 854.48 721.86 853.27 743.04 854.49"/><path class="cls-2" d="M892.11,456l-8.66-8.81h0l-4-4h0l-4-11.35-1.5-4.3L851.12,361.9l-.34-1c-.14-.41-.3-.82-.46-1.22-.33-.82-.67-1.62-1.05-2.4-.12-.26-.24-.52-.37-.77a.39.39,0,0,0-.06-.11c-.15-.3-.29-.58-.45-.87s-.27-.51-.4-.76-.36-.63-.54-.94c-.44-.76-.9-1.49-1.38-2.2a43.05,43.05,0,0,0-3.14-4.12c-.27-.33-.56-.64-.85-1-.58-.63-1.18-1.25-1.8-1.85-.3-.31-.61-.6-.92-.88l-.09-.09-.07-.07c-.17-.17-.49-.46-.94-.87l-.19-.17-.26-.22-.57-.48c-.79-.65-1.8-1.44-3-2.33l-.42-.3-.76-.52-.74-.5c-.86-.57-1.79-1.16-2.8-1.77l-1-.59c-.69-.4-1.41-.81-2.17-1.21s-1.54-.83-2.38-1.24-1.68-.83-2.57-1.24-1.82-.83-2.78-1.23c-.48-.21-1-.41-1.47-.61-.7-.28-1.4-.56-2.13-.83l-.63-.23c-.93-.34-1.89-.69-2.88-1-.33-.12-.67-.23-1-.33s-.71-.24-1.07-.34l-1.23-.38a117,117,0,0,0-19.9-4.05l-1.56-.18h-.06l-2-.2h0l-2.12-.17-1.1-.07c-1.8-.13-3.65-.21-5.55-.26l-1.6,0h-2.12c-1.34,0-2.67,0-4,.06-.65,0-1.3,0-2,.07s-1.27.06-1.9.1-1.26.07-1.89.12l-1.64.13c-.34,0-.67.05-1,.09l-1.69.17-1.53.18c-1.06.12-2.13.27-3.16.42l-1.22.19-2.41.4-1,.18c-1.25.24-2.45.49-3.64.75l-1.11.26-1.1.26-1.08.27-1.07.28c-.63.16-1.27.33-1.88.51s-1.08.32-1.61.48l-1.68.52c-.55.17-1.1.35-1.64.54s-.91.31-1.35.47c-1.19.41-2.35.84-3.45,1.29-.42.16-.83.32-1.23.49s-.55.22-.83.35l-1.07.46-.1,0c-.56.24-1.1.49-1.63.73l-.25.11-1.08.52-1.07.51-1,.52c-2.17,1.11-4.13,2.21-5.85,3.27l-.9.57c-.3.17-.58.36-.86.54l-.82.54c-.53.35-1,.7-1.5,1l-.75.53a52,52,0,0,0-4.67,3.78l-.16.15-.3.28h0c-.31.29-.61.57-.91.87s-.49.47-.73.72l-.38.38c-.54.56-1,1.13-1.56,1.72-.24.27-.48.56-.71.85s-.4.48-.58.72-.39.5-.58.76a40.47,40.47,0,0,0-2.45,3.63c-.43.72-.85,1.45-1.24,2.2-.19.36-.38.74-.57,1.12l-.54,1.14-.5,1.16c-.17.39-.32.78-.47,1.18a.58.58,0,0,0-.06.17l-.38,1-30.17,82.57-.09.25a19.13,19.13,0,0,0-1,9.07c0,.14,0,.28.06.42l.31,1.65a.15.15,0,0,0,0,.06l12.5,66.13L678,538.56v0l9.25-1,4.38-.44,11.71,1.16.31,0-5.95-76.59h0l-.22-2.9.07-.22,1.33-4.16,1.55-4.88,11.46-36,3.54-11.12h2.62l.27,14.31.73,37.65.09,4.47.21,11.29-9.12,65.36h0c3.3-.25,62-3.77,62-3.77l62.18,3.78-8.8-65.36.19-9.71.11-6.06.73-38.61.25-13.53h2.61l1.57,4.91v0l1.73,5.43h0l12.73,40v0l.35,1.11,0,.06,0,.09a18.82,18.82,0,0,0,2.16,4.24c.21.31.44.62.67.93l.15.18c.19.26.41.51.62.76s.53.58.8.86.56.56.86.82h0l.7.59v0l63.18,53.49,6.28-6.47,3.18-3.28,7.93-5.42,2.08-1.42Zm-58.23-52.27a1.55,1.55,0,0,0,0-.22l0,.22Z"/><polygon class="cls-2" points="844.32 854.48 823.04 853.27 801.81 854.49 791.47 725.96 776.09 598.45 768.27 598.45 753.13 725.96 743.05 854.49 743.04 854.49 721.86 853.27 700.56 854.48 701.59 726.85 704.98 612.38 708.45 548.34 709.14 543.36 835.47 543.36 836.14 548.34 839.71 612.38 843 726.85 844.32 854.48"/><polygon class="cls-2" points="880.89 889.36 880.89 901.2 802.32 901.2 802.32 860.93 802.33 860.93 836.92 860.91 839.21 860.9 844.5 871.49 846.73 875.98 857.01 880 880.89 889.36"/><path class="cls-2" d="M805.57,257.41a33.79,33.79,0,0,1-.39,5.07v0l-.5,2.58-4.95,25.75a.19.19,0,0,1,0,.07l-.27,1.42a.58.58,0,0,1,0,.19,23.41,23.41,0,0,1-16.07,17.17h0a41.32,41.32,0,0,1-22.28,0h0a23.39,23.39,0,0,1-16.56-20s0,0,0,0l-4.77-24.37c-.2-.83-.35-1.68-.49-2.53l0-.22h0a32.9,32.9,0,0,1-.41-5.1,33.39,33.39,0,0,1,66.78,0Z"/><polygon class="cls-2" points="704.02 543.45 699.27 562.99 673.68 589.14 663.87 583.75 684.33 543.37 704 543.45 704.02 543.45"/><polygon class="cls-2" points="963.09 551.97 953.56 557.85 924.7 514.38 938.26 503 952.97 516.81 952.97 516.82 963.09 551.97"/><polygon class="cls-2" points="742.55 860.93 742.55 901.2 663.4 901.2 663.4 889.36 690.35 878.93 698.01 875.98 700.42 871.19 705.63 860.9 705.64 860.9 707.95 860.91 742.54 860.93 742.55 860.93"/></svg>