<svg id="Capa_3" data-name="Capa 3" xmlns="http://www.w3.org/2000/svg" viewBox="0 0 1300 1000"><defs><style>.cls-1{fill:#fff;}.cls-2{fill:#1e1e1c;}</style></defs><title>1-subject</title><polygon class="cls-1" points="1259.58 499.26 1257.5 500.68 1249.57 506.1 1246.39 509.38 1240.11 515.85 1243.95 519.11 1249.7 514.38 1263.26 503 1263.18 502.93 1259.58 499.26"/><polygon class="cls-1" points="1028.66 538.31 1028.35 538.28 1016.64 537.12 1012.26 537.56 1003.01 538.51 1003.01 538.56 1003.92 543.36 1029 543.45 1029.02 543.36 1029.05 543.27 1028.66 538.31"/><path class="cls-1" d="M1160.47,543.36H1034.14l0-.11,1.07-7.7c3.3-.25,62-3.77,62-3.77l62.18,3.78,1,7.69Z"/><polygon class="cls-1" points="1169.32 854.48 1148.04 853.27 1126.81 854.49 1127.32 860.9 1127.32 860.93 1127.33 860.93 1161.92 860.91 1164.2 860.9 1169.39 860.9 1169.32 854.48"/><polygon class="cls-1" points="1068.04 854.49 1067.54 860.9 1067.54 860.93 1032.94 860.91 1030.64 860.9 1025.51 860.9 1025.56 854.48 1046.86 853.27 1068.04 854.49"/><path class="cls-2" d="M1217.11,456l-8.66-8.81h0l-4-4h0l-4-11.35-1.5-4.3-22.89-65.56-.34-1c-.14-.41-.3-.82-.46-1.22-.33-.82-.67-1.62-1-2.4-.12-.26-.24-.52-.37-.77a.39.39,0,0,0-.06-.11c-.15-.3-.29-.58-.45-.87s-.27-.51-.4-.76-.36-.63-.54-.94c-.44-.76-.9-1.49-1.38-2.2a43.05,43.05,0,0,0-3.14-4.12c-.27-.33-.56-.64-.85-1-.58-.63-1.18-1.25-1.8-1.85-.3-.31-.61-.6-.92-.88l-.09-.09-.07-.07c-.17-.17-.49-.46-.94-.87l-.19-.17-.26-.22-.57-.48c-.79-.65-1.8-1.44-3-2.33l-.42-.3-.76-.52-.74-.5c-.86-.57-1.79-1.16-2.8-1.77l-1-.59c-.69-.4-1.41-.81-2.17-1.21s-1.54-.83-2.38-1.24-1.68-.83-2.57-1.24-1.82-.83-2.78-1.23c-.48-.21-1-.41-1.47-.61-.7-.28-1.4-.56-2.13-.83l-.63-.23c-.93-.34-1.89-.69-2.88-1-.33-.12-.67-.23-1-.33s-.71-.24-1.07-.34l-1.23-.38a117,117,0,0,0-19.9-4.05l-1.56-.18h-.06l-2.05-.2h0l-2.12-.17-1.1-.07c-1.8-.13-3.65-.21-5.55-.26l-1.6,0h-2.12c-1.34,0-2.67,0-4,.06-.65,0-1.3,0-1.95.07s-1.27.06-1.9.1-1.26.07-1.89.12l-1.64.13c-.34,0-.67.05-1,.09l-1.69.17-1.53.18c-1.06.12-2.13.27-3.16.42l-1.22.19-2.41.4-1,.18c-1.25.24-2.45.49-3.64.75l-1.11.26-1.1.26-1.08.27-1.07.28c-.63.16-1.27.33-1.88.51s-1.08.32-1.61.48l-1.68.52c-.55.17-1.1.35-1.64.54s-.91.31-1.35.47c-1.19.41-2.35.84-3.45,1.29-.42.16-.83.32-1.23.49s-.55.22-.83.35l-1.07.46-.1,0c-.56.24-1.1.49-1.63.73l-.25.11-1.08.52-1.07.51-1,.52c-2.17,1.11-4.13,2.21-5.85,3.27l-.9.57c-.3.17-.58.36-.86.54l-.82.54c-.53.35-1,.7-1.5,1l-.75.53a52,52,0,0,0-4.67,3.78l-.16.15-.3.28h0c-.31.29-.61.57-.91.87s-.49.47-.73.72-.25.25-.38.38c-.54.56-1,1.13-1.56,1.72-.24.27-.48.56-.71.85s-.4.48-.58.72-.39.5-.58.76a40.47,40.47,0,0,0-2.45,3.63c-.43.72-.85,1.45-1.24,2.2-.19.36-.38.74-.57,1.12l-.54,1.14-.5,1.16c-.17.39-.32.78-.47,1.18a.58.58,0,0,0-.06.17l-.38,1-30.17,82.57-.09.25a19.13,19.13,0,0,0-1,9.07c0,.14,0,.28.06.42l.31,1.65a.15.15,0,0,0,0,.06l12.5,66.13,3.07,16.29v0l9.25-1,4.38-.44,11.71,1.16.31,0-6-76.59h0l-.22-2.9.07-.22,1.33-4.16,1.55-4.88,11.46-36,3.54-11.12h2.62l.27,14.31.73,37.65.09,4.47.21,11.29-9.12,65.36h0c3.3-.25,62-3.77,62-3.77l62.18,3.78-8.8-65.36.19-9.71.11-6.06.73-38.61.25-13.53h2.61l1.57,4.91v0l1.73,5.43h0l12.73,40v0l.35,1.11,0,.06,0,.09a18.82,18.82,0,0,0,2.16,4.24c.21.31.44.62.67.93,0,.05.1.11.15.18.19.26.41.51.62.76s.53.58.8.86.56.56.86.82h0l.7.59v0l63.18,53.49,6.28-6.47,3.18-3.28,7.93-5.42,2.08-1.42Zm-58.23-52.27a1.55,1.55,0,0,0,0-.22l0,.22Z"/><polygon class="cls-2" points="1169.32 854.48 1148.04 853.27 1126.81 854.49 1116.47 725.96 1101.09 598.45 1093.27 598.45 1078.13 725.96 1068.05 854.49 1068.04 854.49 1046.86 853.27 1025.56 854.48 1026.59 726.85 1029.98 612.38 1033.45 548.34 1034.14 543.36 1160.47 543.36 1161.14 548.34 1164.71 612.38 1168 726.85 1169.32 854.48"/><polygon class="cls-2" points="1205.89 889.36 1205.89 901.2 1127.32 901.2 1127.32 860.93 1127.33 860.93 1161.92 860.91 1164.2 860.9 1169.49 871.49 1171.73 875.98 1182.01 880 1205.89 889.36"/><path class="cls-2" d="M1130.57,257.41a33.79,33.79,0,0,1-.39,5.07v0l-.5,2.58-5,25.75a.19.19,0,0,1,0,.07l-.27,1.42a.58.58,0,0,1,0,.19,23.41,23.41,0,0,1-16.07,17.17h0a41.32,41.32,0,0,1-22.28,0h0a23.39,23.39,0,0,1-16.56-20s0,0,0,0l-4.77-24.37c-.2-.83-.35-1.68-.49-2.53l0-.22h0a32.9,32.9,0,0,1-.41-5.1,33.39,33.39,0,0,1,66.78,0Z"/><polygon class="cls-2" points="1029.02 543.45 1024.27 562.99 998.68 589.14 988.87 583.75 1009.33 543.37 1029 543.45 1029.02 543.45"/><polygon class="cls-2" points="1288.09 551.97 1278.56 557.85 1249.7 514.38 1263.26 503 1277.97 516.81 1277.97 516.82 1288.09 551.97"/><polygon class="cls-2" points="1067.55 860.93 1067.55 901.2 988.4 901.2 988.4 889.36 1015.35 878.93 1023.01 875.98 1025.42 871.19 1030.63 860.9 1030.64 860.9 1032.94 860.91 1067.54 860.93 1067.55 860.93"/></svg>