<svg id="Capa_1" data-name="Capa 1" xmlns="http://www.w3.org/2000/svg" viewBox="0 0 1300 1000"><defs><style>.cls-1{fill:#262626;}</style></defs><title>push--third-quadrant</title><path class="cls-1" d="M942.55,493.53l15-11.66S860.55,294.29,775,294.29c-81.75,0-108.45,124.8-108.45,124.8l39.68,76.79-6.92,36.35H712.7l-29.43,334h11.4l-28.32,26.25-.51,8.75h70l-.73-34,13.5.34,25.05-319.19L801,867.56l13.5-.34-.73,34h70l-.51-8.68-28.32-26.32h11.4l-29.43-334h13.43L816.72,354l55,59.82Zm-229.26-34.9-14.82-42.91,35.1-63.53Z"/><ellipse class="cls-1" cx="772.98" cy="251.84" rx="24" ry="30"/></svg>