<svg id="Capa_1" data-name="Capa 1" xmlns="http://www.w3.org/2000/svg" viewBox="0 0 1300 1000"><defs><style>.cls-1{fill:#262626;}</style></defs><title>Capa1-Acciones del protagonista</title><path class="cls-1" d="M652.71,547.16,627.66,866.35l-13.5-.34.73,34h-70l.51-8.75L573.67,865h-11.4L591.7,531H578.27l34.3-180-35.1,63.53,14.87,43.07-5,41.24-41.83-80.94s26.7-124.8,108.45-124.8c85.59,0,182.61,187.58,182.61,187.58l-15,11.66-70.79-79.7-55-59.82L729.34,531H715.91l29.43,334h-11.4l28.32,26.32.51,8.68h-70l.73-34-13.5.34Z"/><ellipse id="_Trazado_" data-name="&lt;Trazado&gt;" class="cls-1" cx="651.98" cy="250.63" rx="24" ry="30"/></svg>