<svg id="Capa_3" data-name="Capa 3" xmlns="http://www.w3.org/2000/svg" viewBox="0 0 1300 1000"><defs><style>.cls-1{fill:#fff;}.cls-2{fill:#1e1e1c;}</style></defs><title>1-subject</title><polygon class="cls-1" points="649.28 499.26 647.2 500.68 639.27 506.1 636.08 509.38 629.81 515.85 633.65 519.11 639.4 514.38 652.96 503 652.88 502.93 649.28 499.26"/><polygon class="cls-1" points="418.36 538.31 418.04 538.28 406.33 537.12 401.96 537.56 392.71 538.51 392.71 538.56 393.62 543.36 418.7 543.45 418.72 543.36 418.74 543.27 418.36 538.31"/><path class="cls-1" d="M550.17,543.36H423.84l0-.11,1.07-7.7c3.29-.25,62-3.77,62-3.77l62.19,3.78,1,7.69Z"/><polygon class="cls-1" points="559.02 854.48 537.74 853.27 516.51 854.49 517.02 860.9 517.02 860.93 517.03 860.93 551.62 860.91 553.9 860.9 559.09 860.9 559.02 854.48"/><polygon class="cls-1" points="457.74 854.49 457.24 860.9 457.24 860.93 422.64 860.91 420.34 860.9 415.21 860.9 415.26 854.48 436.56 853.27 457.74 854.49"/><path class="cls-2" d="M606.8,456l-8.65-8.81h0l-4-4h0l-4-11.35-1.5-4.3L565.82,361.9l-.34-1c-.14-.41-.31-.82-.47-1.22-.32-.82-.67-1.62-1-2.4-.12-.26-.24-.52-.37-.77l-.06-.11-.45-.87-.4-.76-.54-.94c-.44-.76-.9-1.49-1.38-2.2a43.05,43.05,0,0,0-3.14-4.12c-.28-.33-.56-.64-.85-1-.59-.63-1.19-1.25-1.8-1.85-.3-.31-.61-.6-.92-.88l-.1-.09-.07-.07c-.16-.17-.48-.46-.93-.87a2.61,2.61,0,0,1-.2-.17c-.07-.06-.16-.13-.25-.22l-.58-.48c-.78-.65-1.8-1.44-3-2.33l-.43-.3-.76-.52-.74-.5q-1.28-.85-2.79-1.77l-1-.59c-.7-.4-1.41-.81-2.17-1.21s-1.55-.83-2.38-1.24-1.68-.83-2.57-1.24-1.83-.83-2.79-1.23c-.47-.21-1-.41-1.47-.61-.69-.28-1.4-.56-2.13-.83l-.62-.23c-.93-.34-1.89-.69-2.88-1-.33-.12-.67-.23-1-.33s-.71-.24-1.08-.34-.8-.26-1.22-.38A116.89,116.89,0,0,0,503,323.24l-1.56-.18h-.05l-2-.2h0l-2.12-.17-1.11-.07c-1.79-.13-3.65-.21-5.54-.26l-1.61,0h-2.11c-1.35,0-2.68,0-4,.06-.66,0-1.3,0-2,.07s-1.28.06-1.91.1-1.26.07-1.88.12l-1.65.13-1,.09-1.69.17-1.53.18c-1.07.12-2.13.27-3.16.42l-1.22.19-2.41.4-1,.18c-1.25.24-2.46.49-3.64.75l-1.11.26-1.1.26-1.08.27-1.07.28c-.64.16-1.27.33-1.88.51s-1.09.32-1.62.48l-1.67.52c-.56.17-1.1.35-1.64.54s-.91.31-1.35.47c-1.2.41-2.35.84-3.46,1.29l-1.22.49c-.28.11-.55.22-.83.35l-1.08.46-.09,0-1.64.73-.24.11-1.09.52-1.06.51-1,.52c-2.18,1.11-4.13,2.21-5.85,3.27l-.9.57c-.3.17-.59.36-.86.54l-.82.54c-.53.35-1,.7-1.5,1-.27.18-.51.36-.75.53a52,52,0,0,0-4.67,3.78l-.16.15-.3.28h0l-.9.87c-.25.23-.5.47-.73.72l-.38.38c-.54.56-1.05,1.13-1.56,1.72-.24.27-.49.56-.72.85s-.39.48-.57.72-.4.5-.58.76a38.45,38.45,0,0,0-2.45,3.63c-.43.72-.85,1.45-1.24,2.2-.19.36-.39.74-.57,1.12s-.36.76-.54,1.14l-.51,1.16c-.16.39-.31.78-.47,1.18l-.06.17-.37,1-30.17,82.57-.09.25a19.26,19.26,0,0,0-1.05,9.07c0,.14,0,.28.07.42l.31,1.65a.15.15,0,0,0,0,.06l12.49,66.13,3.08,16.29v0l9.25-1,4.37-.44L418,538.28l.32,0-5.95-76.59h0l-.22-2.9.06-.22,1.33-4.16,1.56-4.88,11.45-36,3.55-11.12h2.61l.28,14.31.72,37.65.1,4.47.21,11.29-9.13,65.36h0c3.29-.25,62-3.77,62-3.77l62.19,3.78-8.8-65.36.18-9.71.12-6.06.73-38.61.25-13.53h2.61l1.57,4.91v0l1.73,5.43h0l12.73,40v0l.35,1.11,0,.06,0,.09a19.69,19.69,0,0,0,2.16,4.24c.22.31.44.62.68.93l.15.18c.19.26.4.51.62.76s.52.58.8.86.56.56.85.82h0l.69.59,0,0,63.18,53.49,6.27-6.47,3.19-3.28,7.93-5.42,2.08-1.42Zm-58.22-52.27c0-.08,0-.15,0-.22l0,.22Z"/><polygon class="cls-2" points="559.02 854.48 537.74 853.27 516.51 854.49 506.17 725.96 490.79 598.45 482.96 598.45 467.83 725.96 457.74 854.49 457.74 854.49 436.56 853.27 415.26 854.48 416.29 726.85 419.68 612.38 423.15 548.34 423.84 543.36 550.17 543.36 550.84 548.34 554.41 612.38 557.69 726.85 559.02 854.48"/><polygon class="cls-2" points="595.59 889.36 595.59 901.2 517.02 901.2 517.02 860.93 517.03 860.93 551.62 860.91 553.9 860.9 559.19 871.49 561.43 875.98 571.71 880 595.59 889.36"/><path class="cls-2" d="M520.26,257.41a33.8,33.8,0,0,1-.38,5.07v0l-.5,2.58-5,25.75a.19.19,0,0,1,0,.07l-.27,1.42a1.06,1.06,0,0,1,0,.19A23.41,23.41,0,0,1,498,309.68h0a41.36,41.36,0,0,1-22.29,0h0a23.39,23.39,0,0,1-16.55-20s0,0,0,0l-4.77-24.37c-.2-.83-.36-1.68-.49-2.53l-.05-.22h0a34.19,34.19,0,0,1-.4-5.1,33.39,33.39,0,0,1,66.77,0Z"/><polygon class="cls-2" points="418.72 543.45 413.97 562.99 388.38 589.14 378.57 583.75 399.03 543.37 418.7 543.45 418.72 543.45"/><polygon class="cls-2" points="677.79 551.97 668.25 557.85 639.4 514.38 652.96 503 667.67 516.81 667.67 516.82 677.79 551.97"/><polygon class="cls-2" points="457.24 860.93 457.24 901.2 378.1 901.2 378.1 889.36 405.05 878.93 412.71 875.98 415.12 871.19 420.33 860.9 420.34 860.9 422.64 860.91 457.24 860.93 457.24 860.93"/></svg>