<svg id="Capa_3" data-name="Capa 3" xmlns="http://www.w3.org/2000/svg" viewBox="0 0 1300 1000"><defs><style>.cls-1{fill:#fff;}.cls-2{fill:#1e1e1c;}</style></defs><title>push--third-quadrant</title><polygon class="cls-1" points="919.93 499.26 917.86 500.68 909.92 506.1 906.74 509.38 900.46 515.85 904.3 519.11 910.05 514.38 923.61 503 923.53 502.93 919.93 499.26"/><polygon class="cls-1" points="689.01 538.31 688.7 538.28 676.99 537.12 672.61 537.56 663.36 538.51 663.36 538.56 664.27 543.36 689.35 543.45 689.38 543.36 689.4 543.27 689.01 538.31"/><path class="cls-1" d="M820.82,543.36H694.5l0-.11,1.08-7.7c3.29-.25,62-3.77,62-3.77l62.19,3.78,1,7.69Z"/><polygon class="cls-1" points="829.67 854.48 808.39 853.27 787.16 854.49 787.67 860.9 787.67 860.93 787.68 860.93 822.27 860.91 824.56 860.9 829.74 860.9 829.67 854.48"/><polygon class="cls-1" points="728.39 854.49 727.89 860.9 727.89 860.93 693.3 860.91 690.99 860.9 685.86 860.9 685.91 854.48 707.21 853.27 728.39 854.49"/><path class="cls-2" d="M877.46,456l-8.66-8.81h0l-4-4h0l-4-11.35-1.5-4.3L836.47,361.9l-.33-1c-.15-.41-.31-.82-.47-1.22-.33-.82-.67-1.62-1-2.4-.11-.26-.24-.52-.37-.77a.39.39,0,0,0-.06-.11c-.15-.3-.29-.58-.45-.87s-.26-.51-.4-.76-.36-.63-.54-.94c-.44-.76-.9-1.49-1.38-2.2a43,43,0,0,0-3.13-4.12c-.28-.33-.57-.64-.86-1-.58-.63-1.18-1.25-1.8-1.85-.3-.31-.6-.6-.92-.88l-.09-.09-.07-.07c-.17-.17-.49-.46-.94-.87l-.19-.17-.26-.22-.57-.48c-.79-.65-1.8-1.44-3-2.33l-.42-.3-.76-.52-.74-.5c-.85-.57-1.79-1.16-2.8-1.77l-1-.59c-.69-.4-1.41-.81-2.17-1.21s-1.54-.83-2.37-1.24-1.69-.83-2.58-1.24-1.82-.83-2.78-1.23c-.48-.21-1-.41-1.47-.61-.69-.28-1.4-.56-2.13-.83l-.62-.23c-.93-.34-1.9-.69-2.89-1-.33-.12-.67-.23-1-.33s-.71-.24-1.07-.34l-1.22-.38a117.09,117.09,0,0,0-19.91-4.05l-1.56-.18H772l-2-.2h0l-2.11-.17-1.11-.07c-1.8-.13-3.65-.21-5.55-.26l-1.6,0h-2.12c-1.34,0-2.67,0-4,.06-.65,0-1.3,0-2,.07s-1.27.06-1.9.1-1.26.07-1.89.12l-1.64.13c-.34,0-.67.05-1,.09l-1.68.17-1.53.18c-1.07.12-2.13.27-3.17.42l-1.22.19-2.4.4-1,.18c-1.24.24-2.45.49-3.64.75l-1.11.26-1.1.26-1.08.27-1.07.28c-.63.16-1.26.33-1.88.51s-1.08.32-1.61.48l-1.68.52c-.55.17-1.1.35-1.64.54s-.9.31-1.35.47c-1.19.41-2.35.84-3.45,1.29-.42.16-.83.32-1.23.49s-.55.22-.83.35l-1.07.46-.1,0c-.56.24-1.1.49-1.63.73l-.25.11-1.08.52-1.06.51-1,.52c-2.17,1.11-4.13,2.21-5.85,3.27l-.9.57c-.3.17-.58.36-.86.54l-.81.54c-.53.35-1,.7-1.51,1l-.75.53a49.88,49.88,0,0,0-4.66,3.78,1.29,1.29,0,0,0-.17.15l-.3.28h0c-.31.29-.61.57-.91.87s-.49.47-.73.72l-.38.38c-.54.56-1.05,1.13-1.56,1.72-.24.27-.48.56-.71.85s-.4.48-.58.72-.39.5-.58.76a40.47,40.47,0,0,0-2.45,3.63c-.43.72-.85,1.45-1.24,2.2-.19.36-.38.74-.57,1.12s-.36.76-.53,1.14l-.51,1.16c-.16.39-.32.78-.47,1.18a1.15,1.15,0,0,0-.06.17l-.38,1-30.16,82.57-.1.25a19.39,19.39,0,0,0-1,9.07c0,.14,0,.28.06.42l.31,1.65a.15.15,0,0,0,0,.06l12.5,66.13,3.07,16.29v0l9.25-1,4.38-.44,11.71,1.16.31,0-6-76.59h0l-.22-2.9.07-.22,1.33-4.16,1.55-4.88,11.46-36,3.54-11.12h2.62l.27,14.31.73,37.65.09,4.47.21,11.29-9.12,65.36h0c3.29-.25,62-3.77,62-3.77l62.19,3.78L811,470.2l.19-9.71.11-6.06.73-38.61.26-13.53h2.6l1.57,4.91v0l1.73,5.43h0l12.73,40v0l.35,1.11,0,.06,0,.09a18.82,18.82,0,0,0,2.16,4.24c.21.31.44.62.67.93,0,.05.1.11.15.18.19.26.41.51.62.76s.53.58.8.86.56.56.86.82h0l.7.59v0l63.18,53.49,6.28-6.47,3.18-3.28,7.94-5.42,2.07-1.42Zm-58.22-52.27a1.5,1.5,0,0,0,0-.22l0,.22Z"/><polygon class="cls-2" points="829.67 854.48 808.39 853.27 787.16 854.49 776.82 725.96 761.45 598.45 753.62 598.45 738.49 725.96 728.4 854.49 728.39 854.49 707.21 853.27 685.91 854.48 686.95 726.85 690.33 612.38 693.8 548.34 694.5 543.36 820.82 543.36 821.49 548.34 825.06 612.38 828.35 726.85 829.67 854.48"/><polygon class="cls-2" points="866.25 889.36 866.25 901.2 787.67 901.2 787.67 860.93 787.68 860.93 822.27 860.91 824.56 860.9 829.85 871.49 832.08 875.98 842.36 880 866.25 889.36"/><path class="cls-2" d="M790.92,257.41a32.53,32.53,0,0,1-.39,5.07v0l-.5,2.58-4.95,25.75s0,.05,0,.07l-.27,1.42a1.05,1.05,0,0,1,0,.19,23.41,23.41,0,0,1-16.07,17.17h0a41.32,41.32,0,0,1-22.28,0h0a23.4,23.4,0,0,1-16.56-20s0,0,0,0l-4.76-24.37c-.21-.83-.36-1.68-.5-2.53l0-.22h0a32.9,32.9,0,0,1-.41-5.1,33.39,33.39,0,0,1,66.78,0Z"/><polygon class="cls-2" points="689.38 543.45 684.62 562.99 659.03 589.14 649.22 583.75 669.68 543.37 689.35 543.45 689.38 543.45"/><polygon class="cls-2" points="948.44 551.97 938.91 557.85 910.05 514.38 923.61 503 938.32 516.81 938.32 516.82 948.44 551.97"/><polygon class="cls-2" points="727.9 860.93 727.9 901.2 648.75 901.2 648.75 889.36 675.7 878.93 683.36 875.98 685.78 871.19 690.98 860.9 690.99 860.9 693.3 860.91 727.89 860.93 727.9 860.93"/></svg>