<svg id="Capa_1" data-name="Capa 1" xmlns="http://www.w3.org/2000/svg" viewBox="0 0 1300 1000"><defs><style>.cls-1{fill:#262626;}</style></defs><title>push--second-quadrant</title><path class="cls-1" d="M620.55,493.52l15-11.66S538.55,294.28,453,294.28c-81.75,0-108.45,124.8-108.45,124.8l39.68,76.79-6.92,36.36H390.7l-29.43,334h11.4l-28.32,26.25-.51,8.75h70.05l-.73-34,13.5.35,25-319.2L479,867.56l13.5-.35-.73,34h70l-.51-8.68L532.94,866.2h11.4l-29.43-334h13.43L494.72,354l55,59.83Zm-229.26-34.9-14.82-42.91,35.1-63.53Z"/><ellipse class="cls-1" cx="450.98" cy="251.83" rx="24" ry="30"/></svg>