<svg id="Capa_1" data-name="Capa 1" xmlns="http://www.w3.org/2000/svg" viewBox="0 0 1300 1000"><defs><style>.cls-1{fill:#fff;}.cls-2{fill:#262626;}</style></defs><title>put-bottle--third-quadrant</title><path class="cls-1" d="M919.22,290.26l0-.15c-.21-.87-4.8-20.08,9.39-32.74l-8-25,23.94-7.65,8,25.07c6.89.85,21.34,4.66,26.67,21.38,5.12,16.09,24.56,77,24.56,77l1.52,4.76L945.32,372Z"/><path class="cls-2" d="M941.27,231l7.52,23.53h.2c2.07,0,19.82.52,25.43,18.15,5.13,16.09,24.57,77,24.57,77l-50.43,16.1L924,288.89s-4.78-19.11,10.35-29.76l-7.51-23.53,14.4-4.6m6.49-12.57-9.53,3-14.41,4.6-9.52,3,3,9.53L922.87,256a36.22,36.22,0,0,0-9.27,20.9,43.61,43.61,0,0,0,.73,14.45l.08.31.1.3L939,368.78l3,9.52,9.53-3L1002,359.17l9.53-3-3-9.53s-19.43-60.87-24.56-77a34.51,34.51,0,0,0-19.6-21.83,40.15,40.15,0,0,0-8-2.48L950.8,228l-3-9.53Z"/><path class="cls-2" d="M780.74,549.16,755,867l-14.08,0L741,901H671.13l.18-10.38L696.59,866h-8l28.72-334.31-13.15,0L741.5,353.86l-40.13,62L720,458.31l-6.14,31.77-42-70.87S697.11,293.8,781,293.8c0,0,56.23-3.78,97.85,73l61.28-59L952.28,318,879.56,412.4l-56.83-58.79,32.67,178H842.25L871,866H858.85l29.61,25.5V901H819.57l.33-34.07-13.34,0Z"/><ellipse class="cls-2" cx="782.79" cy="253.11" rx="24" ry="30"/></svg>