<svg width="1300" height="1000" fill="none" xmlns="http://www.w3.org/2000/svg"><path d="M383.074 469.773c0-1.66 5.891-57.046 23.387-93.03 15.021-29.133 40.482-34.834 77.038-36.927 35.252-2.018 87.157-3.016 87.157-3.016l48.911-84.88v-34.018a14.999 14.999 0 0 1 11.594-14.608l4.98-1.161a4.999 4.999 0 0 1 6.002 3.723l10.648 45.222a2.998 2.998 0 0 1-.11 1.738l-47.608 127.281a5.003 5.003 0 0 1-3.748 3.16L543 394.362l6 93.932 2 29.979 4 55.96 9.172 144.025-1.497 155.779 15.55 6.389a20 20 0 0 1 12.399 18.499V900h-93.329l1.497-17.974a9.955 9.955 0 0 1-4.431-8.395l1.436-127.413-9.482-124.823-8.984 124.823v127.82a9.985 9.985 0 0 1-3.993 7.988L474.836 900H383c0-7.622 4.394-14.56 11.284-17.818l16.17-7.646-1.997-156.278 6.488-118.332-5.858 22.954a.915.915 0 0 1-.64.655c-12.034 3.371-23.839-6.026-23.251-18.51l1.517-32.191s-3.639-59.285-3.639-103.061Z" fill="#fff"/><path d="M389.07 472.779s5.44-56.643 21.98-91.889c14.201-28.537 33.819-32.689 72.96-35.469 42.49-3.019 89.99-3.019 89.99-3.019l52-90.934-1.448-32.195c-.301-6.687 5.04-12.273 11.734-12.273.704 0 1.31.501 1.442 1.193l8.112 42.437a3.01 3.01 0 0 1-.145 1.635l-47.096 123.059a2.999 2.999 0 0 1-2.246 1.876L537 388.39l6 99.407 3 30.478 3 55.816 9.5 144.049-1.5 159.891 21.214 9.105a10 10 0 0 1 6.054 9.022l.064 3.842H503.5l2.09-21.994a5.002 5.002 0 0 1-5.032-5.05l1.197-127.724-12.534-148.16a2.857 2.857 0 0 0-5.694.009L471.49 745.246l-.242 128.48a4.317 4.317 0 0 1-4.348 4.31L468.891 900H389c0-5.188 2.967-9.919 7.637-12.178l20.183-9.766-2.16-159.905L422 573.735l2.5-55.46 3-29.978 5.395-68.614a1.228 1.228 0 0 0-2.442-.254l-6.463 49.972-9.49 104.327-10.216 43.62a.63.63 0 0 1-.613.486c-7.175 0-12.898-5.99-12.571-13.158l1.41-30.948-3.45-100.949h.01Z" fill="#000"/><path d="M473.324 340c3.926 1.471 11.257 1.995 13.176 2 0 0 8.646-.072 13.682-2 5.676-2.172 8.837-4.293 12.669-8.96 2.619-3.188 4.662-8.697 5.57-11.42.358-1.076.606-2.181.795-3.3l4.277-25.32s.516-3.649.507-6c-.02-5.591-.777-8.874-3.041-14-2.325-5.265-4.358-8.083-8.614-12-4.537-4.176-7.807-6-13.683-7.968-4.561-1.528-7.345-1.993-12.162-2.032-5.17.175-7.095.5-12.029 2.032-4.938 1.649-9.979 4.57-13.816 7.968-3.836 3.398-6.521 7.42-8.614 12-2.094 4.58-3.039 9.002-3.041 14 .001 1.885.208 4.137.507 6l5.084 24.993a24.33 24.33 0 0 0 1.005 3.605c1.072 2.894 3.346 8.603 5.566 11.402 3.047 3.841 7.466 7.241 12.162 9Z" fill="#fff"/><path d="M475.432 334.258c3.298 1.281 9.456 1.738 11.068 1.742 0 0 7.263-.063 11.493-1.742 4.767-1.892 7.423-3.739 10.642-7.804 2.15-2.714 3.839-7.36 4.625-9.782.339-1.045.572-2.118.748-3.202l3.566-21.889s.433-3.178.426-5.226c-.017-4.87-.652-7.729-2.554-12.194-1.953-4.585-3.662-7.039-7.237-10.451-3.811-3.637-6.558-5.226-11.493-6.94-3.832-1.331-6.17-1.736-10.216-1.77-4.342.152-5.959.435-10.104 1.77-4.148 1.436-8.383 3.98-11.605 6.94-3.223 2.959-5.478 6.462-7.237 10.451-1.759 3.99-2.552 7.841-2.554 12.194 0 1.641.175 3.603.426 5.226l4.234 21.584c.234 1.19.535 2.363.946 3.504.924 2.57 2.789 7.37 4.61 9.75 2.56 3.346 6.272 6.307 10.216 7.839Z" fill="#000"/></svg>