<svg id="Capa_1" data-name="Capa 1" xmlns="http://www.w3.org/2000/svg" viewBox="0 0 1300 1000"><defs><style>.cls-1{fill:#262626;}</style></defs><title>show--first-quadrant</title><path class="cls-1" d="M132.47,549.82,113.4,868.09l-14.08.27.85,34L30.3,903.89l0-10.39L55,868.32l-8,.17L68.72,533.65l-13.15.25L89.13,355.39,50.31,418.18l19.53,42.08-5.47,31.9-43.53-70S43.49,296.27,127.31,294.51c0,0,56.14-5,99.36,70.9l60-60.3L299.1,315l-70.71,96-58-57.58,36.41,177.3L193.6,531l35.75,333.65-12.11.24,30.14,24.87.2,9.55-68.87,1.45-.39-34.07L165,867Z"/><ellipse class="cls-1" cx="128.29" cy="253.79" rx="24" ry="30" transform="translate(-5.32 2.76) rotate(-1.21)"/></svg>