<svg id="Capa_3" data-name="Capa 3" xmlns="http://www.w3.org/2000/svg" viewBox="0 0 1300 1000"><defs><style>.cls-1{fill:#fff;}.cls-2{fill:#1e1e1c;}</style></defs><title>1-subject</title><polygon class="cls-1" points="457.49 854.49 456.98 860.91 456.98 860.93 422.38 860.91 420.07 860.9 420.07 860.91 414.95 860.91 415.01 854.48 436.29 853.27 457.49 854.49"/><polygon class="cls-1" points="516.76 860.93 551.36 860.91 553.65 860.9 553.65 860.91 558.82 860.91 558.75 854.48 537.47 853.27 516.25 854.49 516.75 860.82 516.76 860.91 516.75 860.91 516.76 860.93"/><path class="cls-1" d="M549.9,543.36H423.58l0-.11,1.08-7.7c3.46-.27,62-3.77,62-3.77l62.2,3.78,1,7.69Z"/><polygon class="cls-1" points="418.47 543.17 418.47 543.16 418.1 538.31 417.79 538.29 406.06 537.12 401.7 537.56 392.45 538.51 393.35 543.37 398.76 543.37 398.77 543.37 418.47 543.38 418.47 543.37 418.48 543.31 418.48 543.3 418.47 543.17"/><polygon class="cls-1" points="644.64 376.63 644.65 376.62 628.64 361.78 625.42 365.48 628.83 369.3 629.38 369.92 633.74 374.79 639.18 378.94 641.38 380.62 644.81 383.23 647.61 379.38 644.64 376.63"/><path class="cls-2" d="M520,257.41a32.53,32.53,0,0,1-.39,5.07v0l-.5,2.59-4.93,25.65-.35,1.77a23.43,23.43,0,0,1-16.08,17.17h0a41.32,41.32,0,0,1-22.28,0h0a23.41,23.41,0,0,1-16.56-20.11l-4.78-24.44-.5-2.53,0-.09a34.2,34.2,0,0,1-.38-5.1,33.39,33.39,0,0,1,66.77,0Z"/><path class="cls-2" d="M453.64,262.6l.5,2.53C453.94,264.3,453.77,263.46,453.64,262.6Z"/><path class="cls-2" d="M519.62,262.5c-.13.87-.3,1.73-.5,2.59Z"/><polygon class="cls-2" points="558.76 854.48 558.75 854.48 537.47 853.27 516.25 854.49 505.91 725.96 490.53 598.46 490.53 598.45 482.7 598.45 482.7 598.45 480.91 613.58 467.58 725.96 457.49 854.49 436.29 853.27 415.01 854.48 416.04 726.85 419.42 612.38 422.7 551.82 422.89 548.34 423.58 543.36 549.91 543.36 550.58 548.34 554.15 612.38 557.44 726.85 557.44 726.86 558.76 854.48"/><polygon class="cls-2" points="456.98 860.93 456.98 901.2 377.84 901.2 377.84 889.36 404.8 878.93 412.45 875.98 414.87 871.2 414.87 871.19 420.06 860.91 420.07 860.91 420.07 860.9 422.38 860.91 456.98 860.93"/><polygon class="cls-2" points="418.52 543.38 414.08 561.45 413.71 562.99 388.12 589.14 378.31 583.75 393.27 554.22 398.77 543.37 418.47 543.38 418.52 543.38"/><polygon class="cls-2" points="595.34 889.36 595.34 901.2 516.76 901.2 516.76 860.93 551.36 860.91 553.65 860.9 553.65 860.91 558.94 871.49 558.94 871.5 561.17 875.98 571.46 880 595.34 889.36"/><path class="cls-2" d="M641.38,380.61l-2.2-1.67-5.44-4.15-4.36-4.87-.55-.62-3.41-3.82h0L588,408.31l-24-50.37,0-.12-.57-1.18-.08-.17c-.09-.18-.18-.37-.28-.55s-.19-.37-.29-.56-.33-.61-.5-.91-.29-.52-.45-.77-.26-.45-.4-.66-.36-.59-.55-.87a43.3,43.3,0,0,0-7-8.3h0v0l-.13-.11a2.68,2.68,0,0,0-.24-.24c-.09-.09-.2-.2-.34-.32-.39-.36-1-.86-1.7-1.45l-.2-.16a4.35,4.35,0,0,0-.42-.33l-.46-.36c-.62-.49-1.34-1-2.14-1.57q-.6-.44-1.26-.87l-.69-.45c-.23-.16-.47-.31-.71-.46l-.75-.47-.78-.48-.82-.48-.84-.49q-.87-.49-1.8-1l-1-.5-1-.51c-.33-.17-.67-.34-1-.5s-.69-.35-1-.51l-1-.44c-.71-.34-1.44-.66-2.2-1l-.79-.33c-1.38-.58-2.84-1.15-4.37-1.69-.86-.33-1.76-.63-2.69-.93s-1.86-.61-2.83-.9-2.13-.62-3.23-.91c-.93-.25-1.87-.49-2.84-.72l-1.61-.36-1.23-.27c-1.24-.27-2.51-.52-3.81-.74-2.32-.42-4.72-.77-7.23-1.06-1.25-.15-2.53-.28-3.84-.4s-2.63-.21-4-.29q-4.07-.24-8.41-.24h-1.83l-1.8,0-2,.07c-2,.08-3.92.2-5.79.37-.83.07-1.66.15-2.48.24-1.06.1-2.1.24-3.14.37l-1.53.22-1.51.23-1.48.25-2,.35h0c-.57.1-1.13.22-1.69.33s-1.31.27-1.95.42l-1.58.37-1.14.28c-.76.18-1.5.38-2.23.58l-.82.22c-.81.23-1.6.47-2.39.71-1,.3-1.89.6-2.8.91l-1.36.47-1.32.47c-.86.32-1.72.65-2.54,1l-.74.31-.83.34c-.69.28-1.35.57-2,.87a87.64,87.64,0,0,0-10.42,5.49c-.22.13-.42.26-.62.4s-.5.3-.74.46l-.69.45c-.22.15-.44.29-.66.45l-.63.43-.6.42c-.2.13-.39.28-.58.42s-.58.41-.85.62l-.68.51-.75.59a1.27,1.27,0,0,0-.12.1c-.27.21-.52.41-.75.61s-.44.37-.64.54l-.5.45-.4.35h0l-.16.14-.22.22-.09.08-.46.43c-.15.14-.3.28-.45.44-.3.29-.6.58-.89.88a42.62,42.62,0,0,0-4,4.77c-.25.33-.49.67-.73,1-.47.69-.92,1.39-1.36,2.11s-.82,1.4-1.2,2.13a.67.67,0,0,0-.08.17,42.42,42.42,0,0,0-2,4.5l-.06.17-.38,1L377.63,444.7l-.09.24h0q-.15.39-.27.78c-.17.53-.33,1.08-.45,1.63s-.22,1.1-.3,1.65c0,.15,0,.3,0,.45a19.25,19.25,0,0,0,0,4.55l.06.42a.19.19,0,0,0,0,.08l.3,1.58,15.58,82.42,9.25-1,4.36-.44,11.73,1.17.31,0-6-76.58-.23-2.92.07-.22,1.33-4.16,1.56-4.9,3.5-11,8-25,3.54-11.11h2.61l.28,14.3.72,37.65.09,4.47.22,11.29h0l-9.13,65.35h0c3.46-.27,62-3.77,62-3.77l62.2,3.78h0l-8.81-65.35h0l.18-9.71.12-6.06.73-38.61.25-13.52h2.61l1.5,2.66,3.65,6.51,17.73,31.6.18.32h0a19.32,19.32,0,0,0,19,9.91l1-.13c.65-.11,1.29-.25,1.91-.41.31-.08.62-.17.92-.27s.61-.2.9-.31c.56-.22,1.11-.45,1.64-.7l.94-.49.81-.48a19.62,19.62,0,0,0,4.84-4.28l.07-.1,1-1.39,44.74-61.5Zm-93,23.11a1.5,1.5,0,0,0,0-.22l0,.22Z"/><polygon class="cls-2" points="675.23 327.98 675.23 327.98 662.47 362.27 655.64 367.77 655.17 368.15 644.65 376.63 644.65 376.62 628.65 361.79 635.94 342.87 635.95 342.86 664.73 320.29 664.74 320.28 675.23 327.98"/></svg>