<svg id="Capa_3" data-name="Capa 3" xmlns="http://www.w3.org/2000/svg" viewBox="0 0 1300 1000"><defs><style>.cls-1{fill:#fff;}</style></defs><title>show--third-quadrant</title><polygon class="cls-1" points="691.32 862.21 682.48 862.21 682.58 850.92 706.34 849.56 730.23 850.94 729.53 859.81 729.53 862.21 727.03 862.22 691.32 862.21"/><path class="cls-1" d="M706.34,852.07l21.2,1.22-.51,6.42H685l.06-6.43,21.28-1.21m0-5h-.29l-21.28,1.22-4.67.27,0,4.68-.06,6.43,0,5H732v-4.82l.49-6.23.4-5.09-5.09-.29-21.2-1.23Z"/><polygon class="cls-1" points="782.76 857.21 784.1 857.21 783.6 850.94 807.52 849.56 831.28 850.92 831.4 862.21 821.39 862.21 785.27 862.23 782.76 857.21"/><path class="cls-1" d="M807.52,852.07l21.28,1.21.07,6.43H786.81v-.09l-.51-6.33,21.22-1.22m0-5h-.29L786,848.3l-5.11.29.41,5.1.09,1h-2.73l3.68,7.26,1.39,2.74h50.19l-.06-5.05-.07-6.43,0-4.67-4.66-.27-21.29-1.22Z"/><path class="cls-1" d="M690.54,544.66l.65-3,1.34-9.61,2-.16c3.45-.26,59.63-3.62,62-3.77h.15L821.1,532l1.33,9.81.41,2.86Z"/><path class="cls-1" d="M756.7,530.58l62.2,3.78,1,7.69v.11H693.63l0-.11,1.08-7.7c3.46-.27,62-3.77,62-3.77m0-5-.3,0c-2.39.14-58.59,3.5-62.06,3.77l-4,.31-.55,4-1,7.53-1.28,6H825.72l-.82-5.71v-.11l-1-7.65-.55-4.07-4.1-.25L757,525.59l-.31,0Z"/><polygon class="cls-1" points="668.82 544.67 661.33 544.67 659.54 535.1 676.11 533.4 688.09 534.6 690.47 534.78 691.03 542.02 691.03 542.41 691.02 542.48 691.02 544.67 688.51 544.68 668.82 544.67"/><path class="cls-1" d="M676.11,535.92l11.73,1.16.31,0,.37,4.85h0v.13h0v.06H663.4l-.9-4.86,9.25-.95,4.36-.44m0-5-.5.05-4.37.45-9.25.94-5.41.56,1,5.33.91,4.86.76,4.09h34.27v-5.62l-.38-4.85-.33-4.27-4.27-.33-.25,0-11.67-1.16-.5-.05Z"/><polygon class="cls-1" points="902.08 375.43 892.13 364.29 898.49 356.99 918.37 375.42 918.36 375.42 920.99 377.86 915.38 385.56 902.08 375.43"/><path class="cls-1" d="M898.69,360.57l16,14.85h0l3,2.75-2.8,3.85-3.43-2.62-2.2-1.67-5.44-4.16-4.36-4.86-.55-.63-3.41-3.82,3.22-3.7m-.39-7.17-3.39,3.89L891.7,361l-2.9,3.33,2.94,3.28,3.41,3.82.55.62,4.36,4.88.32.35.37.29,5.45,4.15,2.2,1.68,3.43,2.61,4.06,3.1,3-4.13,2.8-3.85,2.61-3.59-2.38-2.21h0l-3.83-3.56-16-14.85-3.79-3.51Z"/><path d="M756.67,315.51a42.63,42.63,0,0,1-11.9-1.65l-1.74-.55v-.05a25.73,25.73,0,0,1-16.54-21.53l-5.28-27a35.89,35.89,0,1,1,71.35-5.56,35.28,35.28,0,0,1-.39,5.25v.06L786.69,293l-.35,1.78a25.91,25.91,0,0,1-16,18.47v0l-1.74.56A42.54,42.54,0,0,1,756.67,315.51Z"/><path class="cls-1" d="M756.67,225.82a33.39,33.39,0,0,1,33.39,33.39,32.72,32.72,0,0,1-.39,5.07h0l-.5,2.59-4.93,25.65-.35,1.78a23.41,23.41,0,0,1-16.08,17.16h0a41.32,41.32,0,0,1-22.28,0h0A23.4,23.4,0,0,1,729,291.37l-4.78-24.44-.5-2.54,0-.08a34.2,34.2,0,0,1-.38-5.1,33.38,33.38,0,0,1,33.38-33.39m0-5a38.43,38.43,0,0,0-38.38,38.39,37.84,37.84,0,0,0,.44,5.85v.14l0,.08v.08l.5,2.54L724,292.1a28.23,28.23,0,0,0,16.51,22.84v.18l3.48,1.12A45.06,45.06,0,0,0,756.67,318a45.61,45.61,0,0,0,12.67-1.77l3.47-1.11v-.2a28.43,28.43,0,0,0,16-19.51v-.07l0-.08.34-1.78,4.94-25.66.5-2.59.09-.47v-.13a37.73,37.73,0,0,0,.39-5.43,38.43,38.43,0,0,0-38.39-38.39Z"/><polygon points="683.59 725.63 686.97 611.1 690.26 550.48 690.45 546.9 691.45 539.66 822.15 539.66 823.12 546.9 826.69 611.04 829.99 725.58 831.34 855.78 828.74 855.78 807.52 854.57 784 855.93 773.46 724.96 758.36 599.75 754.97 599.75 740.11 725.05 729.84 855.93 706.34 854.57 682.53 855.93 683.59 725.63"/><path class="cls-1" d="M820,542.16l.67,5,3.57,64,3.29,114.47h0l1.32,127.62h0l-21.28-1.21-21.22,1.22L776,724.76l-15.38-127.5h-7.83L751,612.38,737.63,724.76,727.54,853.29l-21.2-1.22-21.28,1.21,1-127.63,3.38-114.47,3.28-60.56.19-3.48.69-5H820m4.37-5H689.28l-.6,4.31-.7,5,0,.21,0,.22-.18,3.47-3.28,60.56V611L681.09,725.5v.11l-1,127.63,0,5.34,5.33-.31,21-1.2,20.91,1.21,4.89.28.38-4.88L742.6,725.25,755.92,613l.75-6.32L771,725.26l10.33,128.43.4,4.87,4.88-.28,20.93-1.21,21,1.2h5.33l0-5-1.32-127.6v-.12L829.19,611v-.13l-3.57-64v-.19l0-.19-.66-5-.59-4.33Z"/><polygon points="729.53 857.23 729.53 900 645.39 900 645.39 886.45 680.71 872.78 687.63 859.1 687.63 857.21 692.44 857.21 729.53 857.23"/><path class="cls-1" d="M727,854.73l-34.6,0h-2.3l-5,0v3.82l-4.67,9.23-.54,1.06h0l-1,2-5.86,2.26-27,10.43-3.2,1.24V900h5V888.16l27-10.42,7.66-3,2.41-4.78h0l5.2-10.28h2.31l34.6,0V900h5V854.73Z"/><polygon points="645.03 583.57 667.28 539.66 691.7 539.68 691 542.78 686.02 563.05 658.63 591.04 645.03 583.57"/><path class="cls-1" d="M668.82,542.17h19.75l-4.44,18.06-.37,1.55-25.59,26.15-9.81-5.4,15-29.52,5.5-10.85m-3.07-5-1.39,2.75-5.5,10.85-15,29.52-2.19,4.31,4.24,2.33,9.81,5.4,3.32,1.83,2.66-2.71,25.59-26.15,1-1,.32-1.34.38-1.54,4.44-18.06,1.52-6.19h-29.2Z"/><polygon points="867.89 886.46 867.89 900 784.32 900 784.32 857.23 821.42 857.21 826.2 857.2 826.2 859.12 833.04 872.8 867.89 886.46"/><path class="cls-1" d="M867.22,883.51l-23.89-9.36-8.49-3.33-.85-1.7-.53-1.06-4.76-9.53V854.7h-7.3l-34.59,0h-5V900h5V859.73l34.6,0h2.28L829,870.29h0l2.24,4.48,10.28,4,23.88,9.35V900h5V884.75Z"/><path d="M644.2,454l-.08-.23v-.25c0-.14,0-.27-.05-.41a21.65,21.65,0,0,1,0-5.09c0-.17,0-.37.07-.56.06-.39.12-.79.2-1.18H644l1.29-3.46.15-.44h0l30.41-83.24c0-.1.07-.2.11-.29a43.89,43.89,0,0,1,2.1-4.65,2.48,2.48,0,0,1,.17-.32c.38-.73.79-1.47,1.24-2.2s1-1.55,1.44-2.23c.25-.37.5-.72.76-1.08a46.08,46.08,0,0,1,4.25-5l.94-.93c.11-.12.29-.29.47-.45l.15-.14v-1.42H689l.21-.19c.24-.21.45-.39.68-.57l.73-.61.22-.17.78-.61.72-.54.85-.63.12-.09c.17-.12.33-.24.51-.35l.56-.4.67-.45c.17-.13.4-.28.63-.43l.09-.06.65-.43.09-.06.73-.46.62-.39a92.21,92.21,0,0,1,10.7-5.64c.67-.3,1.36-.61,2.08-.9l.85-.35c.19-.09.47-.2.75-.31.83-.33,1.7-.67,2.59-1l1.36-.49,1.24-.43.13,0c.94-.32,1.89-.62,2.87-.93.8-.25,1.61-.49,2.44-.72l.69-.19.15,0,2.3-.61,1.14-.27c.54-.14,1.09-.27,1.66-.39l2-.42,1.38-.27.23-.12h.37l1.79-.32,1.53-.25,1.52-.24,1.56-.22c1.07-.14,2.14-.27,3.23-.38.83-.09,1.67-.18,2.52-.25,1.89-.17,3.89-.29,5.9-.37.66,0,1.35-.06,2-.07l1.8,0,1.89,0c2.89,0,5.78.09,8.56.25,1.36.08,2.72.18,4,.3s2.63.25,3.91.4c2.53.3,5,.66,7.38,1.08,1.17.21,2.41.45,3.89.76l1.26.27,1.62.38c1,.23,2,.48,2.92.73,1.31.35,2.37.65,3.33.94s1.95.6,2.89.91,1.87.63,2.77,1c1.46.52,2.92,1.09,4.45,1.73l.59.24.21.09c.79.34,1.54.67,2.28,1l1,.46c.35.16.73.34,1.12.54l1,.5,1,.52c.31.15.65.34,1,.52l1.82,1,.88.52,1.61,1,.8.51c.33.2.58.36.82.53l.63.41c.47.3.91.61,1.34.92.85.59,1.6,1.14,2.24,1.65.09.06.45.35.45.35a5.35,5.35,0,0,1,.53.42l.11.09c.83.66,1.46,1.21,1.83,1.56l.42.39.34.33a46,46,0,0,1,7.4,8.75c.18.27.39.6.59.93.11.17.25.41.39.64s.34.58.5.87.36.63.54,1l.31.58c.07.13.18.34.28.55l.12.25.61,1.28,22.39,46.92,36.63-42,1.94,1.95,8.21,9.19,12.83,9.78-47.27,65-.07.08a22,22,0,0,1-5.46,4.83l-.89.53-1,.54c-.63.3-1.22.56-1.88.81-.37.14-.72.26-1.08.37s-.64.2-1,.29a21.35,21.35,0,0,1-2.15.46l-.17,0c-.32,0-.63.09-1,.12a21.83,21.83,0,0,1-20.74-9.89h0l-.91-1.58-20.91-37.26-1.19,63,9.17,68h-2.94l-62.13-3.78c-3.31.2-58.46,3.5-61.78,3.76h-3.06l.38-2.85,9.1-65.15-.21-11.1-.09-4.47-.86-44.56L684.5,457.9l6.36,81.92-3.21-.24-11.53-1.15L660.47,540Z"/><path class="cls-1" d="M756.56,321.11c2.9,0,5.7.09,8.41.25,1.34.08,2.67.18,4,.29s2.59.25,3.84.39c2.51.3,4.91.65,7.23,1.06,1.3.23,2.57.48,3.81.74l1.23.27,1.61.37c1,.23,1.91.47,2.84.72,1.1.29,2.19.59,3.23.91s1.92.59,2.83.89,1.83.61,2.69.93q2.29.82,4.37,1.7c.27.1.53.22.79.33.76.32,1.49.64,2.2,1l.95.45q.54.24,1.05.51c.35.16.69.33,1,.5l1,.5.95.5,1.8,1,.84.5.82.48.78.48.75.47c.24.15.48.3.71.46l.69.44,1.26.87c.8.56,1.52,1.09,2.14,1.58.16.11.31.24.46.35l.42.33.2.17c.74.59,1.31,1.09,1.7,1.45.14.12.25.23.34.32a2.8,2.8,0,0,1,.24.23l.13.12h0a43.37,43.37,0,0,1,7,8.31c.19.28.38.57.55.87s.27.43.4.66.3.5.45.77.34.6.5.91l.29.55.28.56.08.17.57,1.18,0,.12,24,50.37,37.37-42.85h0l3.41,3.82.55.63,4.36,4.86,5.44,4.16,2.2,1.67,3.43,2.62-44.74,61.49-1,1.4L869,445a19.66,19.66,0,0,1-4.84,4.29c-.27.17-.54.32-.81.47s-.62.34-.94.5c-.53.25-1.08.48-1.64.7-.29.1-.59.21-.9.3s-.61.2-.92.28c-.62.16-1.26.3-1.91.41l-1,.13a19.24,19.24,0,0,1-19-9.91h0l-.18-.33-17.73-31.6-3.65-6.5-1.5-2.66h-2.61l-.25,13.52-.73,38.61-.12,6.06L810.1,469h0l8.81,65.36h0l-62.2-3.78s-58.51,3.5-62,3.77h0L703.85,469h0l-.22-11.29-.09-4.47-.72-37.66-.28-14.3h-2.61l-3.54,11.12-8,25-3.5,11-1.56,4.9L682,457.39l-.07.22.23,2.91,5.95,76.59-.31,0-11.73-1.16-4.36.44-9.25.95-15.58-82.42-.3-1.58a.19.19,0,0,1,0-.08l-.06-.43a19.16,19.16,0,0,1,0-4.54c0-.15,0-.31.05-.45q.12-.84.3-1.65c.12-.55.28-1.1.45-1.63q.12-.39.27-.78h0l.09-.25,30.16-82.57.38-1,.06-.17a42.58,42.58,0,0,1,2-4.51.8.8,0,0,1,.08-.16q.57-1.1,1.2-2.13c.44-.72.89-1.42,1.36-2.11.24-.35.48-.69.73-1a43.43,43.43,0,0,1,4-4.76c.29-.3.59-.6.89-.89l.45-.43.46-.43.09-.08c0-.06.13-.13.22-.22l.16-.14h0c.12-.11.24-.23.4-.36l.5-.44c.2-.17.4-.36.64-.54l.75-.62.12-.1.75-.58c.22-.17.44-.35.68-.52l.85-.62c.19-.14.38-.28.58-.41l.6-.43c.21-.13.42-.28.63-.43l.66-.44.69-.46.74-.46.62-.39a89.05,89.05,0,0,1,10.42-5.5c.65-.29,1.31-.58,2-.86.27-.12.55-.24.83-.34l.74-.31c.82-.33,1.68-.66,2.54-1l1.32-.48,1.36-.46c.91-.31,1.84-.61,2.8-.91.79-.25,1.58-.48,2.39-.71l.82-.22c.73-.2,1.47-.4,2.23-.59l1.14-.27c.52-.13,1-.26,1.58-.37l1.95-.43,1.69-.33h0c.64-.13,1.29-.24,2-.36.49-.08,1-.17,1.48-.24l1.51-.23,1.54-.22c1-.14,2.07-.27,3.13-.38l2.48-.23c1.87-.17,3.81-.3,5.79-.37.66,0,1.33-.06,2-.07l1.8,0,1.83,0m61.81,81.26c0,.05,0,.1,0,.15h0v-.15s0-.05,0-.08v.08m-61.81-86.26-1.89,0h-.06l-.86,0-1,0-2.1.07c-2,.08-4.06.21-6,.39-.83.07-1.7.15-2.54.24s-2,.23-3.29.4l-1.62.22-1.52.23-1.56.26-1.59.29h-.76l-.46.23-.36.07-.63.13h-.07l-2,.44c-.59.12-1.15.25-1.72.4l-.42.1-.69.17c-.8.19-1.59.4-2.36.61l-.17.05-.54.15-.09,0-.08,0c-.85.25-1.68.49-2.51.75-1,.32-2,.63-2.9.94h0l-1.37.48-1.39.5c-.85.31-1.75.66-2.67,1l-.79.32-.88.37c-.77.31-1.49.63-2.1.91a92.76,92.76,0,0,0-11,5.8l-.48.3-.15.09-.77.49,0,0-.07,0-.58.39,0,0,0,0-.78.52-.22.15-.32.22-.05,0-.06,0-.16.12-.4.28-.54.38-.12.09c-.3.21-.61.44-.91.67s-.5.37-.73.56-.53.4-.77.6l-.25.19,0,0c-.26.2-.5.4-.73.6l-.22.18H685v2.86c-.3.29-.58.56-.85.85a48.07,48.07,0,0,0-4.49,5.32c-.27.37-.53.74-.79,1.12-.5.72-1,1.49-1.52,2.36s-.89,1.51-1.29,2.28c-.08.14-.16.28-.23.43a47.1,47.1,0,0,0-2.17,4.82c-.06.14-.1.27-.15.4l-.34.92L643.27,441h0l-.3.86,0,.11-2.54,6.76h1.08a25.8,25.8,0,0,0,.12,4.65c0,.17,0,.34.08.51s.05.32.08.48l.28,1.44,15.57,82.42.86,4.51,4.56-.47,9.25-.94,3.87-.4,11.22,1.12h.12l.31,0,5.81.45-.24-3.19h1.57l.21,0c3.25-.25,57-3.47,61.58-3.74l61.9,3.76h6l-.76-5.67-8.76-65,.18-9.34.11-6.06.73-38.23,16.39,29.21.2.36,1.44,2.52h.17a24.3,24.3,0,0,0,19.65,10,23.76,23.76,0,0,0,2.67-.15l1-.13.12,0h.14c.76-.13,1.55-.3,2.34-.5h.06l1.1-.32c.41-.13.79-.27,1.13-.39h0l0,0c.73-.27,1.38-.55,2-.85l.06,0,.06,0c.36-.19.72-.37,1.06-.56l0,0,0,0c.33-.19.66-.38,1-.59a24.38,24.38,0,0,0,6.07-5.36L873,448l.11-.16,0-.05,1-1.34L918.9,385l2.88-4-3.89-3-3.43-2.61-2.2-1.68-5.06-3.86-4-4.52-.54-.61-3.42-3.83-.11-.12-.12-.11L895.19,357l-3.5,4-32.36,37.11-20.76-43.51,0-.07v-.05l-.55-1.14-.06-.13,0-.08,0-.08-.32-.62c-.1-.2-.21-.39-.31-.58-.2-.4-.39-.74-.58-1.07s-.32-.56-.49-.84l-.45-.75c-.2-.33-.41-.66-.63-1a48.21,48.21,0,0,0-7.74-9.16l-.1-.1-.29-.27-.43-.41c-.57-.52-1.24-1.09-1.93-1.65l-.11-.08c-.24-.21-.45-.36-.61-.48l-.43-.34c-.67-.52-1.43-1.08-2.33-1.71-.42-.3-.88-.62-1.39-1l-.3-.19-.32-.21c-.25-.17-.51-.34-.78-.5l-.09-.06-.72-.45-.07-.05-.07,0-.36-.22-.39-.24-.05,0-.82-.49-.32-.19-.49-.28,0,0-.06,0L813,329l-1.06-.56-1-.5-1.1-.55-1.17-.56-.31-.14-.53-.25,0,0,0,0-2.35-1-.2-.08-.64-.27c-1.56-.65-3-1.23-4.56-1.77-.85-.31-1.78-.63-2.83-1s-2-.65-3-.94-2.06-.6-3.4-1c-.94-.25-1.94-.5-2.95-.74l-1.52-.35-.13,0-.74-.16-.52-.12h-.06c-1.5-.32-2.77-.56-4-.77-2.37-.43-4.9-.8-7.49-1.1-1.31-.16-2.65-.29-4-.41s-2.8-.23-4.13-.3c-2.82-.17-5.75-.26-8.69-.26ZM687,458.2l1.1-3.45,1.57-4.9,3.5-11,4.78-15,.56,29.45.09,4.48.21,10.9-7.06,50.58-4.6-59.14L687,458.2Z"/><polygon points="913.05 377.3 895.76 361.27 903.84 340.31 904.3 339.82 933.12 317.21 934.53 315.8 936.27 317.06 947.78 325.51 947.78 327.22 934.62 362.58 914.64 378.69 913.05 377.3"/><path class="cls-1" d="M934.79,319.08l10.49,7.69h0l-12.76,34.29-6.83,5.5-.47.38-10.52,8.48h0l-16-14.83L906,341.67h0l28.78-22.58h0m-.58-6.63-2.8,2.92-28.5,22.35-.26.21-.24.24-.71.74-.37,1L894,358.79,892.82,362l2.48,2.31L911.24,379l3.13,3.07,3.47-2.79,10.52-8.48.46-.37,6.84-5.51,1.07-.86.48-1.29L950,328.52l.31-.84v-3.43l-2-1.51L937.75,315l-3.54-2.59Z"/></svg>