<svg id="Capa_3" data-name="Capa 3" xmlns="http://www.w3.org/2000/svg" viewBox="0 0 1300 1000"><defs><style>.cls-1{fill:#fff;}.cls-2{fill:#1e1e1c;}</style></defs><title>1-subject</title><polygon class="cls-1" points="419.2 854.29 418.69 860.71 418.69 860.72 384.09 860.71 381.78 860.7 381.78 860.71 376.66 860.71 376.72 854.28 398 853.07 419.2 854.29"/><polygon class="cls-1" points="478.47 860.72 513.07 860.71 515.36 860.7 515.36 860.71 520.53 860.71 520.46 854.28 499.18 853.07 477.96 854.29 478.47 860.62 478.47 860.71 478.47 860.71 478.47 860.72"/><path class="cls-1" d="M511.61,543.16H385.29l0-.11,1.08-7.7c3.46-.27,62-3.77,62-3.77l62.2,3.78,1,7.69Z"/><polygon class="cls-1" points="380.18 542.97 380.18 542.96 379.81 538.11 379.5 538.08 367.77 536.91 363.41 537.36 354.16 538.31 355.06 543.17 360.47 543.17 360.48 543.17 380.18 543.18 380.18 543.17 380.19 543.11 380.19 543.1 380.18 542.97"/><polygon class="cls-1" points="606.35 376.43 606.36 376.42 590.35 361.57 587.13 365.27 590.54 369.09 591.1 369.72 595.45 374.58 600.89 378.74 603.09 380.41 606.52 383.03 609.32 379.18 606.35 376.43"/><path class="cls-2" d="M481.72,257.21a32.72,32.72,0,0,1-.39,5.07h0l-.5,2.59-4.93,25.65-.35,1.78a23.39,23.39,0,0,1-16.08,17.16h0a41.32,41.32,0,0,1-22.28,0h0a23.4,23.4,0,0,1-16.56-20.1l-4.78-24.44-.5-2.54,0-.08a34.2,34.2,0,0,1-.38-5.1,33.39,33.39,0,1,1,66.77,0Z"/><path class="cls-2" d="M415.35,262.39l.5,2.54C415.65,264.1,415.48,263.25,415.35,262.39Z"/><path class="cls-2" d="M481.33,262.29c-.13.88-.3,1.74-.5,2.59Z"/><polygon class="cls-2" points="520.47 854.28 520.46 854.28 499.18 853.07 477.96 854.29 467.62 725.76 452.24 598.26 452.24 598.25 444.41 598.24 444.41 598.25 442.62 613.38 429.29 725.76 419.2 854.29 398 853.07 376.72 854.28 377.75 726.65 381.13 612.18 384.41 551.62 384.6 548.14 385.29 543.16 511.62 543.16 512.29 548.14 515.86 612.18 519.15 726.65 519.15 726.66 520.47 854.28"/><polygon class="cls-2" points="418.69 860.72 418.69 901 339.55 901 339.55 889.16 366.51 878.73 374.16 875.77 376.58 871 376.58 870.99 381.78 860.71 381.78 860.71 381.78 860.7 384.09 860.71 418.69 860.72"/><polygon class="cls-2" points="380.23 543.18 375.79 561.24 375.42 562.79 349.83 588.94 340.02 583.54 354.98 554.01 360.48 543.17 380.18 543.18 380.23 543.18"/><polygon class="cls-2" points="557.05 889.16 557.05 901 478.47 901 478.47 860.72 513.07 860.71 515.36 860.7 515.36 860.71 520.65 871.29 520.65 871.3 522.89 875.77 533.17 879.8 557.05 889.16"/><path class="cls-2" d="M603.09,380.41l-2.2-1.67-5.44-4.16-4.35-4.86-.56-.63-3.41-3.82h0l-37.37,42.85-24-50.37-.06-.12-.57-1.18-.07-.17-.29-.56-.29-.55c-.16-.31-.32-.61-.5-.91s-.29-.52-.45-.77-.26-.45-.4-.66-.36-.59-.55-.87a43,43,0,0,0-7-8.31h0l-.13-.12c0-.06-.14-.14-.23-.23l-.35-.32c-.39-.36-1-.86-1.7-1.45l-.2-.17-.42-.33-.46-.35c-.62-.49-1.33-1-2.14-1.58l-1.26-.87-.69-.44c-.23-.16-.47-.31-.71-.46l-.75-.47-.78-.48-.82-.48-.84-.5-1.8-1-1-.5-1-.5c-.33-.17-.67-.34-1-.5s-.69-.35-1-.51l-1-.45c-.71-.33-1.44-.65-2.2-1-.26-.11-.52-.23-.79-.33-1.38-.58-2.83-1.15-4.37-1.7-.86-.32-1.76-.63-2.69-.93s-1.86-.6-2.83-.89-2.13-.62-3.23-.91c-.93-.25-1.87-.49-2.84-.72l-1.61-.37-1.23-.27c-1.24-.26-2.51-.51-3.81-.74-2.32-.41-4.72-.76-7.23-1.06q-1.87-.21-3.84-.39c-1.3-.11-2.63-.21-4-.29-2.71-.16-5.51-.25-8.41-.25l-1.83,0-1.8,0c-.67,0-1.34,0-2,.07-2,.07-3.91.2-5.79.37-.83.06-1.66.15-2.48.23-1.06.11-2.1.24-3.13.38l-1.54.22-1.51.23c-.5.07-1,.16-1.48.24-.66.12-1.32.23-2,.36h0l-1.69.33-2,.43c-.54.11-1.06.24-1.58.37l-1.14.27-2.23.59-.82.22c-.81.23-1.6.46-2.39.71-1,.3-1.89.6-2.8.91l-1.36.46-1.32.48c-.86.32-1.71.65-2.54,1l-.74.31c-.28.1-.56.22-.83.34-.69.28-1.35.57-2,.86a88.46,88.46,0,0,0-10.43,5.5l-.62.39-.73.46-.7.46-.66.44c-.21.15-.42.3-.63.43l-.6.43c-.2.13-.39.27-.58.41l-.85.62c-.24.17-.46.35-.67.52l-.76.58-.12.1-.75.62c-.24.18-.44.37-.64.54l-.5.44a4.87,4.87,0,0,0-.39.36h0l-.16.14-.22.22-.09.08-.46.43-.45.43-.89.89a43.43,43.43,0,0,0-4,4.76c-.25.34-.49.68-.72,1-.48.69-.93,1.39-1.37,2.11s-.82,1.4-1.2,2.13a.8.8,0,0,0-.08.16,42.58,42.58,0,0,0-2,4.51l-.06.17-.38,1-30.16,82.57-.09.25h0c-.09.26-.19.52-.27.78-.17.53-.32,1.08-.45,1.63s-.22,1.09-.3,1.65c0,.14,0,.3-.05.45a19.16,19.16,0,0,0,0,4.54l.06.43a.19.19,0,0,0,0,.08l.3,1.58,15.58,82.42,9.25-.95,4.36-.44,11.73,1.16.31,0-5.95-76.59-.23-2.91.07-.22,1.33-4.16,1.56-4.9,3.5-11,8-25,3.54-11.12h2.61l.28,14.3.72,37.66.09,4.47.22,11.29h0l-9.13,65.35h0c3.46-.27,62-3.77,62-3.77l62.2,3.78h0L501.76,470h0l.18-9.71.12-6.06.73-38.61L503,402.1h2.61l1.5,2.66,3.65,6.5,17.73,31.6.18.33h0a19.32,19.32,0,0,0,19,9.91l1-.13c.65-.11,1.29-.25,1.91-.41.31-.08.62-.18.92-.28s.61-.2.9-.3c.56-.22,1.11-.45,1.64-.7.32-.16.63-.33.94-.5s.54-.3.81-.47A19.66,19.66,0,0,0,560.7,446l.07-.09,1-1.4L606.52,383ZM510,403.52a1.64,1.64,0,0,0,0-.23l0,.23Z"/><polygon class="cls-2" points="636.95 327.77 636.95 327.78 624.18 362.07 617.35 367.57 616.88 367.95 606.37 376.43 606.36 376.42 590.37 361.59 597.65 342.67 597.66 342.66 626.44 320.08 626.45 320.08 636.95 327.77"/></svg>