<svg id="Capa_3" data-name="Capa 3" xmlns="http://www.w3.org/2000/svg" viewBox="0 0 1300 1000"><defs><style>.cls-1{fill:#fff;}.cls-2{fill:#1e1e1c;}</style></defs><title>show--third-quadrant</title><polygon class="cls-1" points="728.39 854.29 727.88 860.71 727.88 860.72 693.28 860.71 690.97 860.7 690.97 860.71 685.85 860.71 685.9 854.28 707.19 853.07 728.39 854.29"/><polygon class="cls-1" points="787.66 860.72 822.26 860.71 824.54 860.7 824.54 860.71 829.72 860.71 829.65 854.28 808.37 853.07 787.14 854.29 787.65 860.62 787.66 860.71 787.65 860.71 787.66 860.72"/><path class="cls-1" d="M820.8,543.16H694.48l0-.11,1.08-7.7c3.46-.27,62-3.77,62-3.77l62.2,3.78,1,7.69Z"/><polygon class="cls-1" points="689.37 542.97 689.37 542.96 689 538.11 688.69 538.08 676.96 536.91 672.59 537.36 663.34 538.31 664.25 543.17 669.66 543.17 669.66 543.17 689.36 543.18 689.36 543.17 689.38 543.11 689.38 543.1 689.37 542.97"/><polygon class="cls-1" points="915.54 376.43 915.54 376.42 899.53 361.57 896.32 365.27 899.73 369.09 900.28 369.72 904.63 374.58 910.08 378.74 912.28 380.41 915.71 383.03 918.5 379.18 915.54 376.43"/><path class="cls-2" d="M790.91,257.21a34,34,0,0,1-.39,5.07h0l-.5,2.59-4.94,25.65-.34,1.78a23.41,23.41,0,0,1-16.08,17.16h0a41.32,41.32,0,0,1-22.28,0h0a23.38,23.38,0,0,1-16.56-20.1L725,264.93l-.5-2.54v-.08a32.91,32.91,0,0,1-.39-5.1,33.39,33.39,0,1,1,66.78,0Z"/><path class="cls-2" d="M724.53,262.39l.5,2.54C724.83,264.1,724.66,263.25,724.53,262.39Z"/><path class="cls-2" d="M790.52,262.29c-.13.88-.3,1.74-.5,2.59Z"/><polygon class="cls-2" points="829.66 854.28 829.65 854.28 808.37 853.07 787.14 854.29 776.8 725.76 761.42 598.26 761.42 598.25 753.6 598.24 753.6 598.25 751.81 613.38 738.47 725.76 728.39 854.29 707.19 853.07 685.9 854.28 686.93 726.65 690.32 612.18 693.6 551.62 693.78 548.14 694.48 543.16 820.81 543.16 821.48 548.14 825.04 612.18 828.34 726.65 828.34 726.66 829.66 854.28"/><polygon class="cls-2" points="727.88 860.72 727.88 901 648.74 901 648.74 889.16 675.69 878.73 683.35 875.77 685.76 871 685.76 870.99 690.96 860.71 690.97 860.71 690.97 860.7 693.28 860.71 727.88 860.72"/><polygon class="cls-2" points="689.42 543.18 684.98 561.24 684.6 562.79 659.01 588.94 649.2 583.54 664.17 554.01 669.66 543.17 689.36 543.18 689.42 543.18"/><polygon class="cls-2" points="866.24 889.16 866.24 901 787.66 901 787.66 860.72 822.26 860.71 824.54 860.7 824.54 860.71 829.84 871.29 829.84 871.3 832.07 875.77 842.35 879.8 866.24 889.16"/><path class="cls-2" d="M912.28,380.41l-2.2-1.67-5.45-4.16-4.35-4.86-.55-.63-3.42-3.82h0l-37.37,42.85-24-50.37,0-.12-.57-1.18-.08-.17-.28-.56-.29-.55-.5-.91c-.15-.27-.3-.52-.45-.77s-.26-.45-.4-.66-.36-.59-.55-.87a43.73,43.73,0,0,0-7-8.31h0l-.12-.12a2.8,2.8,0,0,0-.24-.23L824,343c-.4-.36-1-.86-1.7-1.45l-.2-.17c-.13-.11-.28-.22-.43-.33l-.45-.35c-.62-.49-1.34-1-2.15-1.58q-.59-.42-1.26-.87l-.68-.44c-.23-.16-.47-.31-.72-.46l-.74-.47-.79-.48-.81-.48-.85-.5-1.8-1c-.3-.17-.62-.34-.94-.5l-1-.5c-.33-.17-.66-.34-1-.5s-.69-.35-1.05-.51l-.95-.45c-.71-.33-1.45-.65-2.21-1-.25-.11-.51-.23-.78-.33q-2.07-.87-4.37-1.7c-.87-.32-1.77-.63-2.69-.93s-1.86-.6-2.83-.89-2.13-.62-3.24-.91c-.92-.25-1.86-.49-2.83-.72l-1.61-.37-1.23-.27c-1.24-.26-2.51-.51-3.81-.74q-3.48-.62-7.23-1.06c-1.26-.14-2.53-.27-3.84-.39s-2.63-.21-4-.29c-2.71-.16-5.52-.25-8.42-.25l-1.82,0-1.81,0c-.66,0-1.33,0-2,.07-2,.07-3.92.2-5.79.37-.83.06-1.67.15-2.48.23-1.06.11-2.11.24-3.14.38l-1.54.22-1.5.23c-.5.07-1,.16-1.49.24-.66.12-1.31.23-2,.36h0l-1.68.33-1.95.43c-.54.11-1.06.24-1.59.37l-1.13.27c-.76.19-1.5.39-2.23.59l-.83.22c-.8.23-1.6.46-2.38.71-1,.3-1.89.6-2.81.91l-1.35.46-1.32.48c-.86.32-1.72.65-2.54,1l-.75.31c-.27.1-.55.22-.83.34-.68.28-1.34.57-2,.86A89.05,89.05,0,0,0,700,337l-.63.39-.73.46-.69.46c-.22.14-.45.29-.66.44s-.42.3-.63.43l-.6.43-.59.41-.84.62c-.24.17-.46.35-.68.52l-.75.58-.12.1c-.27.22-.53.42-.75.62s-.45.37-.64.54l-.51.44-.39.36h0l-.15.14c-.09.09-.17.16-.22.22s-.09.07-.09.08l-.46.43c-.15.14-.31.28-.45.43l-.89.89a43.52,43.52,0,0,0-4,4.76l-.72,1c-.47.69-.92,1.39-1.36,2.11s-.82,1.4-1.2,2.13a.8.8,0,0,0-.08.16,42.58,42.58,0,0,0-2,4.51.85.85,0,0,0-.06.17l-.38,1-30.16,82.57-.1.25h0c-.09.26-.18.52-.26.78-.17.53-.33,1.08-.45,1.63s-.22,1.09-.3,1.65c0,.14,0,.3,0,.45a19.16,19.16,0,0,0,0,4.54c0,.15,0,.29.06.43a.19.19,0,0,0,0,.08l.3,1.58,15.57,82.42,9.25-.95,4.37-.44,11.73,1.16.3,0-6-76.59-.22-2.91.07-.22,1.33-4.16,1.56-4.9,3.5-11,8-25,3.54-11.12h2.61l.28,14.3.72,37.66.09,4.47L704.7,470h0l-9.13,65.35h0c3.46-.27,62-3.77,62-3.77l62.2,3.78h0L810.94,470h0l.19-9.71.11-6.06.73-38.61.26-13.52h2.61l1.49,2.66,3.66,6.5,17.73,31.6.18.33h0a19.31,19.31,0,0,0,19,9.91l1-.13c.65-.11,1.28-.25,1.91-.41.31-.08.61-.18.92-.28s.61-.2.9-.3c.56-.22,1.11-.45,1.64-.7l.94-.5c.26-.15.53-.3.8-.47a19.52,19.52,0,0,0,4.85-4.29l.07-.09,1-1.4L915.71,383Zm-93.06,23.11a1.69,1.69,0,0,0,0-.23l0,.23Z"/><polygon class="cls-2" points="946.13 327.77 946.13 327.78 933.37 362.07 926.54 367.57 926.07 367.95 915.55 376.43 915.54 376.42 899.55 361.59 906.84 342.67 906.85 342.66 935.63 320.08 935.64 320.08 946.13 327.77"/></svg>