<svg id="Capa_3" data-name="Capa 3" xmlns="http://www.w3.org/2000/svg" viewBox="0 0 1300 1000"><defs><style>.cls-1{fill:#fff;}.cls-2{fill:#1e1e1c;}</style></defs><title>1-subject</title><polygon class="cls-1" points="744.2 854.29 743.69 860.71 743.69 860.72 709.09 860.71 706.78 860.7 706.78 860.71 701.66 860.71 701.72 854.28 723 853.07 744.2 854.29"/><polygon class="cls-1" points="803.47 860.72 838.07 860.71 840.36 860.7 840.36 860.71 845.53 860.71 845.46 854.28 824.18 853.07 802.96 854.29 803.47 860.62 803.47 860.71 803.47 860.71 803.47 860.72"/><path class="cls-1" d="M836.61,543.16H710.29l0-.11,1.08-7.7c3.46-.27,62-3.77,62-3.77l62.2,3.78,1,7.69Z"/><polygon class="cls-1" points="705.18 542.97 705.18 542.96 704.81 538.11 704.5 538.08 692.77 536.91 688.41 537.36 679.16 538.31 680.06 543.17 685.47 543.17 685.48 543.17 705.18 543.18 705.18 543.17 705.19 543.11 705.19 543.1 705.18 542.97"/><polygon class="cls-1" points="931.35 376.43 931.36 376.42 915.35 361.57 912.13 365.27 915.54 369.09 916.1 369.72 920.45 374.58 925.89 378.74 928.09 380.41 931.52 383.03 934.32 379.18 931.35 376.43"/><path class="cls-2" d="M806.72,257.21a32.72,32.72,0,0,1-.39,5.07h0l-.5,2.59-4.93,25.65-.35,1.78a23.39,23.39,0,0,1-16.08,17.16h0a41.32,41.32,0,0,1-22.28,0h0a23.4,23.4,0,0,1-16.56-20.1l-4.78-24.44-.5-2.54,0-.08a34.2,34.2,0,0,1-.38-5.1,33.39,33.39,0,1,1,66.77,0Z"/><path class="cls-2" d="M740.35,262.39l.5,2.54C740.65,264.1,740.48,263.25,740.35,262.39Z"/><path class="cls-2" d="M806.33,262.29c-.13.88-.3,1.74-.5,2.59Z"/><polygon class="cls-2" points="845.47 854.28 845.46 854.28 824.18 853.07 802.96 854.29 792.62 725.76 777.24 598.26 777.24 598.25 769.41 598.24 769.41 598.25 767.62 613.38 754.29 725.76 744.2 854.29 723 853.07 701.72 854.28 702.75 726.65 706.13 612.18 709.41 551.62 709.6 548.14 710.29 543.16 836.62 543.16 837.29 548.14 840.86 612.18 844.15 726.65 844.15 726.66 845.47 854.28"/><polygon class="cls-2" points="743.69 860.72 743.69 901 664.55 901 664.55 889.16 691.51 878.73 699.16 875.77 701.58 871 701.58 870.99 706.78 860.71 706.78 860.71 706.78 860.7 709.09 860.71 743.69 860.72"/><polygon class="cls-2" points="705.23 543.18 700.79 561.24 700.42 562.79 674.83 588.94 665.02 583.54 679.98 554.01 685.48 543.17 705.18 543.18 705.23 543.18"/><polygon class="cls-2" points="882.05 889.16 882.05 901 803.47 901 803.47 860.72 838.07 860.71 840.36 860.7 840.36 860.71 845.65 871.29 845.65 871.3 847.89 875.77 858.17 879.8 882.05 889.16"/><path class="cls-2" d="M928.09,380.41l-2.2-1.67-5.44-4.16-4.35-4.86-.56-.63-3.41-3.82h0l-37.37,42.85-24-50.37-.06-.12-.57-1.18-.07-.17-.29-.56-.29-.55c-.16-.31-.32-.61-.5-.91s-.29-.52-.45-.77-.26-.45-.4-.66-.36-.59-.55-.87a43,43,0,0,0-7-8.31h0l-.13-.12c0-.06-.14-.14-.23-.23l-.35-.32c-.39-.36-1-.86-1.7-1.45l-.2-.17-.42-.33-.46-.35c-.62-.49-1.33-1-2.14-1.58l-1.26-.87-.69-.44c-.23-.16-.47-.31-.71-.46l-.75-.47-.78-.48-.82-.48-.84-.5-1.8-1-1-.5-1-.5c-.33-.17-.67-.34-1-.5s-.69-.35-1-.51l-1-.45c-.71-.33-1.44-.65-2.2-1-.26-.11-.52-.23-.79-.33-1.38-.58-2.83-1.15-4.37-1.7-.86-.32-1.76-.63-2.69-.93s-1.86-.6-2.83-.89-2.13-.62-3.23-.91c-.93-.25-1.87-.49-2.84-.72l-1.61-.37-1.23-.27c-1.24-.26-2.51-.51-3.81-.74-2.32-.41-4.72-.76-7.23-1.06q-1.87-.21-3.84-.39c-1.3-.11-2.63-.21-4-.29-2.71-.16-5.51-.25-8.41-.25l-1.83,0-1.8,0c-.67,0-1.34,0-2,.07-2,.07-3.91.2-5.79.37-.83.06-1.66.15-2.48.23-1.06.11-2.1.24-3.13.38l-1.54.22-1.51.23c-.5.07-1,.16-1.48.24-.66.12-1.32.23-2,.36h0l-1.69.33-2,.43c-.54.11-1.06.24-1.58.37l-1.14.27-2.23.59-.82.22c-.81.23-1.6.46-2.39.71-1,.3-1.89.6-2.8.91l-1.36.46-1.32.48c-.86.32-1.71.65-2.54,1l-.74.31c-.28.1-.56.22-.83.34-.69.28-1.35.57-2,.86a88.46,88.46,0,0,0-10.43,5.5l-.62.39-.73.46-.7.46-.66.44c-.21.15-.42.3-.63.43l-.6.43c-.2.13-.39.27-.58.41l-.85.62c-.24.17-.46.35-.67.52l-.76.58-.12.1-.75.62c-.24.18-.44.37-.64.54l-.5.44a4.87,4.87,0,0,0-.39.36h0l-.16.14c-.09.09-.17.16-.22.22l-.09.08-.46.43-.45.43-.89.89a43.43,43.43,0,0,0-4,4.76c-.25.34-.49.68-.72,1-.48.69-.93,1.39-1.37,2.11s-.82,1.4-1.2,2.13a.8.8,0,0,0-.08.16,42.58,42.58,0,0,0-2,4.51l-.06.17-.38,1-30.16,82.57-.09.25h0c-.09.26-.19.52-.27.78-.17.53-.32,1.08-.45,1.63s-.22,1.09-.3,1.65c0,.14,0,.3-.05.45a19.16,19.16,0,0,0,0,4.54l.06.43a.19.19,0,0,0,0,.08l.3,1.58,15.58,82.42,9.25-.95,4.36-.44,11.73,1.16.31,0-5.95-76.59-.23-2.91.07-.22,1.33-4.16,1.56-4.9,3.5-11,8-25,3.54-11.12h2.61l.28,14.3.72,37.66.09,4.47.22,11.29h0l-9.13,65.35h0c3.46-.27,62-3.77,62-3.77l62.2,3.78h0L826.76,470h0l.18-9.71.12-6.06.73-38.61L828,402.1h2.61l1.5,2.66,3.65,6.5,17.73,31.6.18.33h0a19.32,19.32,0,0,0,19,9.91l1-.13c.65-.11,1.29-.25,1.91-.41.31-.08.62-.18.92-.28s.61-.2.9-.3c.56-.22,1.11-.45,1.64-.7.32-.16.63-.33.94-.5s.54-.3.81-.47A19.66,19.66,0,0,0,885.7,446l.07-.09,1-1.4L931.52,383ZM835,403.52a1.64,1.64,0,0,0,0-.23l0,.23Z"/><polygon class="cls-2" points="961.95 327.77 961.95 327.78 949.18 362.07 942.35 367.57 941.88 367.95 931.37 376.43 931.36 376.42 915.37 361.59 922.65 342.67 922.66 342.66 951.44 320.08 951.45 320.08 961.95 327.77"/></svg>