<svg id="Capa_1" data-name="Capa 1" xmlns="http://www.w3.org/2000/svg" viewBox="0 0 1300 1000"><defs><style>.cls-1{fill:#262626;}</style></defs><title>show--third-quadrant</title><path class="cls-1" d="M780.74,549.16,755,867l-14.08,0L741,901H671.13l.18-10.38L696.59,866h-8l28.72-334.31-13.15,0L741.5,353.86l-40.13,62L720,458.31l-6.14,31.77-42-70.87S697.11,293.8,781,293.8c0,0,56.23-3.78,97.85,73l61.28-59L952.28,318,879.56,412.4l-56.83-58.79,32.67,178H842.25L871,866H858.85l29.61,25.5V901H819.57l.33-34.07-13.34,0Z"/><ellipse class="cls-1" cx="782.79" cy="253.11" rx="24" ry="30"/></svg>