<svg id="Capa_3" data-name="Capa 3" xmlns="http://www.w3.org/2000/svg" viewBox="0 0 1300 1000"><defs><style>.cls-1{fill:#fff;}.cls-2{fill:#1e1e1c;}</style></defs><title>1-subject</title><polygon class="cls-1" points="727.54 854.49 727.03 860.91 727.03 860.93 692.43 860.91 690.12 860.9 690.12 860.91 685 860.91 685.06 854.48 706.34 853.27 727.54 854.49"/><polygon class="cls-1" points="786.81 860.93 821.41 860.91 823.7 860.9 823.7 860.91 828.87 860.91 828.8 854.48 807.52 853.27 786.3 854.49 786.8 860.82 786.81 860.91 786.8 860.91 786.81 860.93"/><path class="cls-1" d="M820,543.36H693.63l0-.11,1.08-7.7c3.46-.27,62-3.77,62-3.77l62.2,3.78,1,7.69Z"/><polygon class="cls-1" points="688.52 543.17 688.52 543.16 688.15 538.31 687.84 538.29 676.11 537.12 671.75 537.56 662.5 538.51 663.4 543.37 668.81 543.37 668.82 543.37 688.52 543.38 688.52 543.37 688.53 543.31 688.53 543.3 688.52 543.17"/><polygon class="cls-1" points="914.69 376.63 914.7 376.62 898.69 361.78 895.47 365.48 898.88 369.3 899.43 369.92 903.79 374.79 909.23 378.94 911.43 380.62 914.86 383.23 917.66 379.38 914.69 376.63"/><path class="cls-2" d="M790.06,257.41a32.53,32.53,0,0,1-.39,5.07v0l-.5,2.59-4.93,25.65-.35,1.77a23.43,23.43,0,0,1-16.08,17.17h0a41.32,41.32,0,0,1-22.28,0h0A23.41,23.41,0,0,1,729,289.57l-4.78-24.44-.5-2.53,0-.09a34.2,34.2,0,0,1-.38-5.1,33.39,33.39,0,0,1,66.77,0Z"/><path class="cls-2" d="M723.69,262.6l.5,2.53C724,264.3,723.82,263.46,723.69,262.6Z"/><path class="cls-2" d="M789.67,262.5c-.13.87-.3,1.73-.5,2.59Z"/><polygon class="cls-2" points="828.81 854.48 828.8 854.48 807.52 853.27 786.3 854.49 775.96 725.96 760.58 598.46 760.58 598.45 752.75 598.45 752.75 598.45 750.96 613.58 737.63 725.96 727.54 854.49 706.34 853.27 685.06 854.48 686.09 726.85 689.47 612.38 692.75 551.82 692.94 548.34 693.63 543.36 819.96 543.36 820.63 548.34 824.2 612.38 827.49 726.85 827.49 726.86 828.81 854.48"/><polygon class="cls-2" points="727.03 860.93 727.03 901.2 647.89 901.2 647.89 889.36 674.85 878.93 682.5 875.98 684.92 871.2 684.92 871.19 690.12 860.91 690.12 860.91 690.12 860.9 692.43 860.91 727.03 860.93"/><polygon class="cls-2" points="688.57 543.38 684.13 561.45 683.76 562.99 658.17 589.14 648.36 583.75 663.32 554.22 668.82 543.37 688.52 543.38 688.57 543.38"/><polygon class="cls-2" points="865.39 889.36 865.39 901.2 786.81 901.2 786.81 860.93 821.41 860.91 823.7 860.9 823.7 860.91 828.99 871.49 828.99 871.5 831.23 875.98 841.5 880 865.39 889.36"/><path class="cls-2" d="M911.43,380.61l-2.2-1.67-5.44-4.15-4.36-4.87-.55-.62-3.41-3.82h0l-37.37,42.84-24-50.37,0-.12-.57-1.18-.08-.17c-.09-.18-.18-.37-.28-.55s-.19-.37-.29-.56-.33-.61-.5-.91-.29-.52-.45-.77-.26-.45-.4-.66-.36-.59-.55-.87a43.3,43.3,0,0,0-7-8.3h0v0l-.13-.11a2.68,2.68,0,0,0-.24-.24c-.09-.09-.2-.2-.34-.32-.39-.36-1-.86-1.7-1.45l-.2-.16a4.35,4.35,0,0,0-.42-.33l-.46-.36c-.62-.49-1.34-1-2.14-1.57q-.6-.44-1.26-.87l-.69-.45c-.23-.16-.47-.31-.71-.46l-.75-.47-.78-.48-.82-.48-.84-.49q-.87-.49-1.8-1l-.95-.5-1-.51c-.33-.17-.67-.34-1-.5s-.69-.35-1.05-.51l-.95-.44c-.71-.34-1.44-.66-2.2-1l-.79-.33c-1.38-.58-2.84-1.15-4.37-1.69-.86-.33-1.76-.63-2.69-.93s-1.86-.61-2.83-.9-2.13-.62-3.23-.91c-.93-.25-1.87-.49-2.84-.72l-1.61-.36-1.23-.27c-1.24-.27-2.51-.52-3.81-.74-2.32-.42-4.72-.77-7.23-1.06-1.25-.15-2.53-.28-3.84-.4s-2.63-.21-4-.29q-4.07-.24-8.41-.24h-1.83l-1.8,0-2,.07c-2,.08-3.92.2-5.79.37-.83.07-1.66.15-2.48.24-1.06.1-2.1.24-3.13.37l-1.54.22-1.51.23-1.48.25-2,.35h0c-.57.1-1.13.22-1.69.33s-1.31.27-1.95.42l-1.58.37-1.14.28c-.76.18-1.5.38-2.23.58l-.82.22c-.81.23-1.6.47-2.39.71-1,.3-1.89.6-2.8.91l-1.36.47-1.32.47c-.86.32-1.72.65-2.54,1l-.74.31-.83.34c-.69.28-1.35.57-2,.87a87.64,87.64,0,0,0-10.42,5.49c-.22.13-.42.26-.62.4s-.5.3-.74.46l-.69.45-.66.45-.63.43-.6.42c-.2.13-.39.28-.58.42s-.58.41-.85.62l-.68.51-.75.59a1.27,1.27,0,0,0-.12.1c-.27.21-.52.41-.75.61s-.44.37-.64.54l-.5.45-.4.35h0l-.16.14-.22.22-.09.08-.46.43c-.15.14-.3.28-.45.44-.3.29-.6.58-.89.88a42.62,42.62,0,0,0-4,4.77c-.25.33-.49.67-.73,1-.47.69-.92,1.39-1.36,2.11s-.82,1.4-1.2,2.13a.67.67,0,0,0-.08.17,42.42,42.42,0,0,0-2,4.5l-.06.17-.38,1L647.68,444.7l-.09.24h0q-.15.39-.27.78c-.17.53-.33,1.08-.45,1.63s-.22,1.1-.3,1.65c0,.15,0,.3-.05.45a19.25,19.25,0,0,0,0,4.55l.06.42a.19.19,0,0,0,0,.08l.3,1.58,15.58,82.42,9.25-1,4.36-.44,11.73,1.17.31,0-5.95-76.58-.23-2.92.07-.22,1.33-4.16,1.56-4.9,3.5-11,8-25,3.54-11.11h2.61l.28,14.3.72,37.65.09,4.47.22,11.29h0l-9.13,65.35h0c3.46-.27,62-3.77,62-3.77l62.2,3.78h0l-8.81-65.35h0l.18-9.71.12-6.06.73-38.61.25-13.52H814l1.5,2.66,3.65,6.51,17.73,31.6.18.32h0a19.32,19.32,0,0,0,19,9.91l1-.13c.65-.11,1.29-.25,1.91-.41.31-.08.62-.17.92-.27s.61-.2.9-.31c.56-.22,1.11-.45,1.64-.7l.94-.49.81-.48a19.62,19.62,0,0,0,4.84-4.28l.07-.1,1-1.39,44.74-61.5Zm-93,23.11a1.5,1.5,0,0,0,0-.22l0,.22Z"/><polygon class="cls-2" points="945.28 327.98 945.28 327.98 932.52 362.27 925.69 367.77 925.22 368.15 914.71 376.63 914.7 376.62 898.7 361.79 905.99 342.87 906 342.86 934.78 320.29 934.79 320.28 945.28 327.98"/></svg>