<svg width="1300" height="1000" viewBox="0 0 1300 1000" fill="none" xmlns="http://www.w3.org/2000/svg">
<path d="M592.5 869.192L608.876 877.827C615.676 881.412 619.819 888.577 619.535 896.259L619.5 897.192H485.5V879.192C481.77 879.192 478.871 875.944 479.295 872.238L480.5 861.692L495.5 749.192L391.585 713.741C375.388 708.216 364.5 692.998 364.5 675.884V641.692L353 638.192C353 638.192 368.325 545.32 375.5 524.692C387.5 490.192 409.684 467.278 448.5 474.192C457.543 475.803 463.813 492.049 469.125 505.5C469.877 507.404 503 545.5 503 545.5L556 505.5L572 478.499C572 478.499 580.5 468.263 590.5 472.999C600 477.499 597 487.5 597 487.5C594.541 497.827 583.376 522.741 584.912 522.056C584.944 522.035 584.973 522.016 585 522C584.967 522.026 584.938 522.044 584.912 522.056C579.263 525.795 502.5 598.5 502.5 598.5L479.404 579.5C480.943 601.065 481.5 621.949 481.5 637.692L502.625 644.995C514.221 649.003 522 659.923 522 672.192L573.215 686.076C591.679 691.081 604.014 708.459 602.647 727.541L592.5 869.192Z" fill="white"/>
<path d="M606.291 883.65L585.5 875.134L597.537 724.563C598.678 710.289 589.571 697.198 575.791 693.303L484.5 667.504L559.321 718.481C569.153 725.18 574.098 737.055 571.925 748.752L549 872.193L566.227 878.369C571.856 880.387 575.749 885.556 576.134 891.524L576.5 897.193H612.5V892.904C612.5 888.845 610.047 885.188 606.291 883.65Z" fill="black"/>
<path d="M565.209 884.235L544 874.203L566.385 751.123C568.483 739.588 563.669 727.887 554.06 721.169L474 665.194L371.5 642.194V677.914C371.5 690.66 379.554 702.014 391.583 706.228L502.828 745.193L485.753 868.754C485.355 871.634 487.593 874.203 490.5 874.203V897.212H571L570.932 893.107C570.868 889.302 568.65 885.862 565.209 884.235Z" fill="black"/>
<path d="M387.499 512.693C373.592 542.67 361.5 636.194 361.5 636.194L473 660.194L514.181 670.607C515.226 670.871 516.173 669.921 515.904 668.877C513.474 659.427 506.362 651.887 497.071 648.908L473 641.194L410 617.193L419.311 553.578C419.42 552.835 420.057 552.285 420.808 552.285C421.71 552.285 422.411 553.069 422.311 553.966L415.5 614.694L476 636.194C476 536.452 461.797 498.212 455.019 485.642C453.001 481.898 449.464 479.435 445.285 478.642C432.855 476.285 404.655 475.715 387.499 512.693Z" fill="black"/>
<path d="M426.384 471.713C430.359 473.046 437.703 473.314 439.621 473.252C439.621 473.252 448.26 472.878 453.226 470.776C458.821 468.407 461.907 466.176 465.574 461.379C468.079 458.101 469.93 452.525 470.741 449.772C471.062 448.683 471.271 447.571 471.421 446.446L474.812 420.992C474.812 420.992 475.2 417.327 475.109 414.978C474.894 409.391 474.023 406.136 471.582 401.092C469.074 395.912 466.944 393.167 462.553 389.4C457.873 385.385 454.542 383.676 448.601 381.915C443.989 380.547 441.191 380.18 436.376 380.308C431.215 380.664 429.303 381.056 424.425 382.759C419.548 384.579 414.611 387.675 410.896 391.204C407.181 394.734 404.638 398.847 402.705 403.498C400.772 408.148 399.982 412.6 400.155 417.595C400.221 419.479 400.507 421.722 400.871 423.574L406.824 448.374C407.116 449.59 407.48 450.785 407.955 451.942C409.126 454.796 411.599 460.423 413.915 463.143C417.094 466.875 421.629 470.118 426.384 471.713Z" fill="white"/>
<path d="M428.291 465.901C431.632 467.066 437.802 467.308 439.413 467.256C439.413 467.256 446.669 466.939 450.839 465.114C455.537 463.056 458.126 461.117 461.202 456.943C463.255 454.155 464.781 449.454 465.483 447.005C465.785 445.949 465.98 444.868 466.118 443.779L468.918 421.779C468.918 421.779 469.24 418.588 469.161 416.541C468.974 411.675 468.24 408.84 466.183 404.444C464.071 399.93 462.278 397.537 458.586 394.252C454.651 390.75 451.85 389.258 446.858 387.717C442.982 386.521 440.631 386.198 436.586 386.305C432.252 386.609 430.646 386.948 426.55 388.426C422.455 390.006 418.311 392.697 415.194 395.767C412.077 398.837 409.945 402.417 408.327 406.465C406.708 410.513 406.049 414.39 406.2 418.74C406.257 420.381 406.5 422.335 406.808 423.948L411.793 445.372C412.068 446.552 412.41 447.714 412.86 448.84C413.873 451.377 415.905 456.108 417.808 458.424C420.483 461.678 424.296 464.507 428.291 465.901Z" fill="black"/>
<path d="M470.04 512.897L470 512.85C470.013 512.863 470.026 512.879 470.04 512.897L502.5 550.85L560 508.5L574 484C575.5 481.667 580 474.35 587.5 476.35C596.5 478.75 593 487.684 591.5 492.35L581.5 517.85L502.5 591.85L479 571.85C477.347 554.328 471.693 515.098 470.04 512.897Z" fill="black"/>
<path d="M646.404 476.324C648.258 477.021 648.94 479.292 647.776 480.895L593.094 556.239C592.242 557.413 590.673 557.809 589.366 557.181L545.539 536.121L516.265 506.085C515.245 505.038 515.128 503.409 515.986 502.227L566.313 432.959C567.349 431.534 569.385 431.304 570.713 432.463L601.708 459.518L646.404 476.324Z" fill="white"/>
<path fill-rule="evenodd" clip-rule="evenodd" d="M600.812 466.659L639.029 481.03L589.389 549.426L552.959 531.921L600.812 466.659ZM594.908 462.873L569.405 440.613L523.632 503.614L547.259 527.857L594.908 462.873ZM516.265 506.085C515.245 505.038 515.128 503.409 515.986 502.227L566.313 432.959C567.349 431.534 569.385 431.304 570.713 432.463L601.708 459.518L646.404 476.324C648.258 477.021 648.94 479.292 647.776 480.895L593.094 556.239C592.242 557.413 590.673 557.809 589.366 557.181L545.539 536.121L516.265 506.085Z" fill="black"/>
</svg>
