<svg width="1300" height="1000" viewBox="0 0 1300 1000" fill="none" xmlns="http://www.w3.org/2000/svg"><path d="M608.376 881.634 592 872.999l10.493-168.31c1.171-18.787-10.914-35.848-29.025-40.976L521.5 648.999a28.133 28.133 0 0 0-19.514-26.78L478 614.499l-2.5-59.999L498 575l84.5-78 11-34.5s1.833-10.501-7.5-14.5c-10.5-4.5-17 3.999-17 3.999L546 485l-47 33.5s-32.067-36.217-32.5-38c-2.425-10-10.45-26.724-18.5-28.501-38.5-8.5-59 16-71 50.5-7.175 20.628-21.5 113.5-21.5 113.5l11.5 3.5-1.331 31.668a40 40 0 0 0 24.531 38.581L496 733.999l-16 131.5-1.205 10.545c-.424 3.706 2.475 6.955 6.205 6.955v18h134l.035-.934a20 20 0 0 0-10.659-18.431Z" fill="#fff"/><path d="M605.791 887.456 585 878.94l12.328-177.823c.976-14.077-7.99-26.932-21.538-30.878L484 643.5l75.337 51.328a30.002 30.002 0 0 1 12.752 29.4L548.5 876l17.227 6.176a15 15 0 0 1 9.907 13.154L576 901h36v-4.29a10 10 0 0 0-6.209-9.254Z" fill="#000"/><path d="M564.709 888.041 543.5 878.009l23.012-152.361a30.002 30.002 0 0 0-12.767-29.27L472.5 641 371 619v36.899a30.001 30.001 0 0 0 18.591 27.746L502.328 730l-17.17 142.549a4.876 4.876 0 0 0 4.842 5.46v23.01h80.5l-.068-4.105a10.001 10.001 0 0 0-5.723-8.873ZM386.999 489.5C373.092 519.477 361 613 361 613l111.5 24 41.181 10.414a1.42 1.42 0 0 0 1.723-1.73 28.396 28.396 0 0 0-18.833-19.969L472.5 618l-63-24 9.311-63.615a1.513 1.513 0 0 1 3 .388L415 591.5l58.5 22.5c0-97.46-12.453-136.753-18.83-150.485-2.057-4.428-6.043-7.423-10.856-8.241-12.876-2.187-40.092-1.819-56.815 34.226Z" fill="#000"/><path d="M425.885 451.523c3.975 1.333 11.32 1.602 13.238 1.539 0 0 8.638-.374 13.604-2.476 5.596-2.369 8.682-4.599 12.349-9.397 2.505-3.278 4.355-8.854 5.167-11.607.321-1.088.53-2.201.68-3.325l3.391-25.455s.387-3.664.297-6.014c-.216-5.587-1.086-8.841-3.528-13.885-2.507-5.18-4.638-7.926-9.028-11.692-4.68-4.015-8.012-5.724-13.952-7.486-4.612-1.367-7.41-1.735-12.226-1.606-5.16.355-7.073.747-11.95 2.451-4.878 1.819-9.815 4.915-13.53 8.445-3.715 3.53-6.258 7.643-8.191 12.293-1.932 4.651-2.722 9.103-2.55 14.098.067 1.883.353 4.127.716 5.979l5.953 24.799a24.336 24.336 0 0 0 1.131 3.569c1.172 2.854 3.644 8.481 5.96 11.2 3.18 3.733 7.715 6.976 12.469 8.57Z" fill="#fff"/><path d="M427.791 445.712c3.341 1.165 9.511 1.407 11.122 1.354 0 0 7.256-.316 11.426-2.142 4.698-2.057 7.287-3.996 10.363-8.17 2.053-2.788 3.579-7.49 4.281-9.938.302-1.056.497-2.137.635-3.226l2.8-22.001s.322-3.191.243-5.237c-.187-4.866-.921-7.702-2.978-12.097-2.112-4.514-3.905-6.908-7.597-10.193-3.935-3.502-6.736-4.994-11.728-6.534-3.876-1.196-6.227-1.519-10.272-1.412-4.334.303-5.94.643-10.036 2.121-4.095 1.58-8.239 4.27-11.356 7.341-3.117 3.07-5.249 6.649-6.867 10.697-1.619 4.049-2.278 7.925-2.127 12.276.057 1.64.3 3.594.608 5.207l4.985 21.424a23.97 23.97 0 0 0 1.067 3.469c1.013 2.536 3.045 7.267 4.948 9.583 2.675 3.254 6.488 6.084 10.483 7.478Zm39.256 42.844-.047-.057a.493.493 0 0 1 .047.057l31.453 37.943 51-37 22-32.5c1.5-2.334 6-6.6 12-5 6 1.6 4.5 11.333 3 16l-9 25.5-79 74-23.5-20c-1.651-17.496-6.309-56.634-7.953-58.943Z" fill="#000"/></svg>