<svg id="Capa_3" data-name="Capa 3" xmlns="http://www.w3.org/2000/svg" viewBox="0 0 1300 1000"><defs><style>.cls-1{fill:#1e1e1c;}.cls-2{fill:#fff;}</style></defs><title>1-subject</title><polygon class="cls-1" points="549.5 862.29 546.94 862.29 546.94 862.29 549.5 862.29"/><polygon class="cls-1" points="549.51 862.29 549.5 862.29 549.5 862.28 549.51 862.29"/><polygon class="cls-1" points="525.19 862.29 512.33 862.29 512.33 862.29 525.19 862.29"/><polygon class="cls-1" points="546.94 862.29 546.94 862.29 533.41 862.29 533.42 862.27 546.94 862.29"/><polygon class="cls-1" points="525.19 862.29 506.35 862.29 506.35 862.28 512.33 862.29 525.19 862.29"/><polygon class="cls-1" points="549.5 862.29 533.41 862.29 533.42 862.27 546.94 862.29 549.5 862.29"/><polygon class="cls-1" points="568.17 698.76 565.99 707.59 565.59 709.25 562.69 721.03 562.66 721.02 565.57 709.25 565.98 707.6 568.17 698.76"/><polygon class="cls-1" points="568.71 696.55 568.39 697.84 568.39 697.81 568.71 696.55"/><polygon class="cls-1" points="568.17 698.76 565.99 707.59 565.59 709.25 562.69 721.03 562.66 721.02 565.57 709.25 565.98 707.6 568.17 698.76"/><polygon class="cls-1" points="505.82 659.1 473.07 655.77 464.93 654.94 464.93 654.93 473.07 655.76 505.82 659.1"/><polygon class="cls-1" points="507.8 649.14 506.34 656.47 505.82 659.1 506.33 656.47 507.78 649.13 507.8 649.14"/><path class="cls-1" d="M557.26,670.59l-.51-.19h0Z"/><path class="cls-1" d="M571.61,670.78l-1.76-.65A15.44,15.44,0,0,1,571.61,670.78Z"/><path class="cls-1" d="M557.26,670.59l-.51-.19h0Z"/><path class="cls-1" d="M568.17,698.76,566,707.59l-.4,1.66h0l.41-1.65Z"/><polygon class="cls-1" points="568.71 696.55 568.39 697.84 568.39 697.81 568.71 696.55"/><path class="cls-1" d="M569.31,694.09h0v0Z"/><polygon class="cls-2" points="507.8 649.14 506.34 656.47 506.33 656.47 507.78 649.13 507.8 649.14"/><path class="cls-2" d="M557.26,670.59l-.51-.19h0Z"/><polygon class="cls-2" points="568.17 698.76 565.99 707.59 565.59 709.25 562.69 721.03 562.66 721.02 565.57 709.25 565.98 707.6 568.17 698.76"/><polygon class="cls-2" points="568.71 696.55 568.39 697.84 568.39 697.81 568.71 696.55"/><polygon class="cls-1" points="473.07 655.76 473.07 655.77 464.93 654.94 464.93 654.93 473.07 655.76"/><polygon class="cls-1" points="525.19 862.29 490.58 862.29 490.58 862.27 506.35 862.28 512.33 862.29 525.19 862.29"/><path class="cls-2" d="M557.26,670.59l-.51-.19h0Z"/><path class="cls-2" d="M568.17,698.76,566,707.59h0Z"/><polygon class="cls-2" points="568.71 696.55 568.39 697.84 568.39 697.81 568.71 696.55"/><path class="cls-2" d="M569.31,694.09h0v0Z"/><polygon class="cls-1" points="525.19 862.29 484.77 862.29 484.77 862.27 490.58 862.27 506.35 862.28 512.33 862.29 525.19 862.29"/><polygon class="cls-1" points="568.17 698.76 565.99 707.59 565.59 709.25 562.69 721.03 562.66 721.02 565.57 709.25 565.98 707.6 568.17 698.76"/><polygon class="cls-1" points="568.71 696.55 568.39 697.84 568.39 697.81 568.71 696.55"/><polygon class="cls-1" points="505.82 659.1 473.07 655.77 464.93 654.94 464.93 654.93 473.07 655.76 505.82 659.1"/><polygon class="cls-1" points="507.8 649.14 506.34 656.47 505.82 659.1 506.33 656.47 507.78 649.13 507.8 649.14"/><path class="cls-1" d="M557.26,670.59l-.51-.19h0Z"/><path class="cls-2" d="M578.05,692.77l0,.14c-.1.45-.21.89-.35,1.34a.15.15,0,0,1,0,.06l0,.05a.28.28,0,0,1,0,.12.53.53,0,0,1,0,.12.39.39,0,0,1,0,.11l-3,11.47L535.37,854.87l15.45.83-1.32,6.58h-2.56l-13.52,0v0l-.22.87,8.69,8.49,5.06,2.4,28.77,13.62V902h-6.58v-11.8l-22.19-8.7-12-4.69-7.21-14.53h-43l1.2-6.44,21-1.2.6,0,21.75,1.17L562.66,721h0l2.9-11.78.4-1.66,2.18-8.83.22-.92.32-1.29v0l.59-2.44v0a19.72,19.72,0,0,0,.41-7.43,20,20,0,0,0-10-14.84c-.47-.27-1-.52-1.44-.74l-1-.43-.1,0-.47-.2h0l-4.72-2-39.3-17.05-1.28,6.65-1.23,6.37-38.15-2.65L448.16,660l-.19-8.31,0-1.79-.86.59L437.79,638l-1.11-1.5H385.31l.75-7.73,4.33-.28c7.9-.49,23.19-1.41,35.91-2.18l2.66-.16-2.4-3.23L415.9,608.67l-24.7-33.14,5.67-58.64-2.52,44.5a1.27,1.27,0,0,0,0,.2c0,.39,0,.78,0,1.18A18,18,0,0,0,397.47,573v0l24.66,34.25,5.06,7,8.27,11.48,2.23,3.07v0l5.51,7.66,5.48,7.61,4.67-3.95.23-.2,4.07-3.46,2.11-1.78,5.76-3.32.63-.36.76-.44.95-.56,4.73-2.72-.49-.76-41.66-66.66,12.2-52.63h2.61l-6.18,52.76L478,626.32l0,.64.36,6.26-3.07-1.54h0l-1.11.77-1.85,1.29-.2.14-1.87,1.3-2,1.36-11.51,8-2.61,1.81,0,.19.5,5.58.17,1.77,10.07,1h0l8.14.83,32.75,3.33.52-2.63,1.46-7.33h0l.2-1-7-3.54,7.22,2.69,5,1.85,43.35,16.08h0l8.71,3.84.28.12.28.11a20.55,20.55,0,0,1,5.54,3.49h0A20.89,20.89,0,0,1,578.05,692.77Z"/><path class="cls-1" d="M473.21,366.86a34,34,0,0,1-.38,5.07l0,.2-.44,2.27-5,25.79-.35,1.77A23.39,23.39,0,0,1,451,419.13h0a41.32,41.32,0,0,1-22.28,0h0A23.39,23.39,0,0,1,412.12,399l-4.78-24.44-.5-2.54,0-.08a34.2,34.2,0,0,1-.38-5.1,33.39,33.39,0,1,1,66.77,0Z"/><polygon class="cls-1" points="590.92 890.16 590.92 902.01 575.71 902.01 575.71 887.67 546.94 874.05 541.88 871.65 533.19 863.15 533.41 862.29 549.51 862.29 556.75 876.78 590.92 890.16"/><path class="cls-1" d="M583.49,692.77c-.06.32-.13.64-.19,1l-32.48,162-15.45-.83,39.15-148.69,3-11.47a.39.39,0,0,0,0-.11.53.53,0,0,0,0-.12.28.28,0,0,0,0-.12l0-.05a.15.15,0,0,0,0-.06c.14-.45.25-.89.35-1.34l0-.14a20.89,20.89,0,0,0-6.68-20h0a20.55,20.55,0,0,0-5.54-3.49l-.08,0-.2-.07-.19-.08-.09,0-8.71-3.84,13.13,4.87.16.06,1.76.65A20.08,20.08,0,0,1,583.49,692.77Z"/><path class="cls-1" d="M472.11,626.6l.49.76-4.73,2.72-.95.56-.76.44-.63.36-5.76,3.32-2.11,1.78L453.59,640l-.23.2-4.67,3.95-5.48-7.61-5.51-7.66v0l-2.23-3.07L427.2,614.3l-5.06-7L397.48,573v0a18,18,0,0,1-3.17-10.24c0-.4,0-.79,0-1.18a1.27,1.27,0,0,1,0-.2l2.52-44.5,1.33-23.66,1.55-27.32,0-.77a34.47,34.47,0,0,1,68.81.83h0L478,626.32l-38.88-66.25,6.18-52.76h-2.61l-12.2,52.63Z"/><path class="cls-1" d="M429,626.18l-2.66.16c-12.72.77-28,1.69-35.91,2.18l-4.33.28,5.14-53.27,24.7,33.14L426.56,623Z"/><polygon class="cls-1" points="569.13 890.21 569.13 902.01 490.58 902.01 490.58 862.29 527.75 862.29 534.96 876.82 546.94 881.51 569.13 890.21"/><path class="cls-1" d="M569.3,694.09h0l-.59,2.44v0l-.32,1.26v0l-.22.92L566,707.6l-.41,1.65L562.66,721,529.34,855.84l-21.75-1.17-.6,0-21,1.2,27.21-144.58L491.81,707h0l-70.62-11.65h0a44.6,44.6,0,0,1-37.08-44c0-1.33.06-2.65.18-3.95v0l.08-.84,1-10.06h51.37l1.11,1.5,9.28,12.45.86-.59,0,1.79.19,8.31,23.94,1.66,38.15,2.65,1.23-6.37,1.28-6.65,39.3,17.05,4.72,2h0l.51.19.1,0,1,.43c.49.22,1,.47,1.44.74a20,20,0,0,1,10,14.84,19.72,19.72,0,0,1-.41,7.43Z"/><polygon class="cls-1" points="507.98 648.11 507.78 649.13 506.33 656.47 505.82 659.1 473.07 655.76 464.93 654.93 454.86 653.91 454.69 652.14 454.19 646.56 454.17 646.37 456.78 644.56 468.29 636.54 470.25 635.18 472.12 633.88 472.32 633.74 474.17 632.45 475.28 631.67 475.29 631.67 478.36 633.22 478.87 633.48 484.97 636.54 484.98 636.54 496.79 642.49 500.95 644.57 507.98 648.11"/></svg>