<svg id="Capa_3" data-name="Capa 3" xmlns="http://www.w3.org/2000/svg" viewBox="0 0 1300 1000"><defs><style>.cls-1{fill:#fff;}.cls-2{fill:none;stroke:#000;stroke-linejoin:round;stroke-width:8px;}</style></defs><title>sit-side-left-up--third-quadrant</title><polygon class="cls-1" points="954.43 548.57 951.03 550.6 951.05 550.62 935.07 560.21 933.03 561.43 933 561.4 930.04 557.24 932.23 555.62 940.64 549.37 946.36 546.69 951.79 544.15 954.43 548.57"/><path class="cls-1" d="M919.48,561.33H901l-89.52,0H793.2l1.07-7.67c.47,0,2.07-.14,4.47-.28,14.39-.9,57.51-3.49,57.51-3.49l57.41,3.49,4.79.3Z"/><path d="M823.23,296.36l.5,2.54C823.53,298.07,823.36,297.22,823.23,296.36Z"/><path d="M889.22,296.25l0,.2a.69.69,0,0,0,0-.2Z"/><polygon points="961.91 561.06 971.6 596.34 961.99 602.09 954.86 592.09 954.85 592.07 933.03 561.43 935.07 560.21 951.05 550.62 961.91 561.06"/><polygon class="cls-1" points="758.58 548.57 761.98 550.6 761.96 550.62 777.95 560.21 779.99 561.43 780.02 561.4 782.98 557.24 780.79 555.62 772.37 549.37 766.66 546.69 761.23 544.15 758.58 548.57"/><path d="M952.82,491.35c0,.84,0,1.67,0,2.51l-1,50.29-5.43,2.54-5.71,2.68-8.42,6.25L930,557.24l-10.36-63.38-.2-2.51L917,467.92l-2.18-20.29-1.24-11.57h-2.62l-.25,13.53-.35,18.33-.49,25.94L909.64,504,918,550l.49,3.66-4.78-.29-57.41-3.49s-43.12,2.58-57.52,3.48l-4.47.29.48-3.4L803.39,504l-.19-10.1-.5-25.94-.34-17.38-.28-14.3h-2.61l-.21,1.8-1,9.59-2.18,20.29-2.52,23.43-.2,2.51L783,557.24l-2.18-1.62-8.42-6.25-5.71-2.68-5.43-2.54-1-50.29c0-.84,0-1.67,0-2.51a96.75,96.75,0,0,1,2.86-23.43v0L776.2,399.2h.18c.27-1,.57-2,.91-3,.17-.5.35-1,.54-1.48a41.8,41.8,0,0,1,1.9-4.26c.47-.93,1-1.82,1.52-2.71s1.1-1.74,1.69-2.57a42.06,42.06,0,0,1,5-5.84c.18-.19.37-.37.55-.54l.56-.53h0l0,0,.06-.06.23-.22c.23-.21.58-.54,1.06-.95.19-.17.4-.35.64-.54l.74-.62.88-.68c.34-.27.72-.55,1.12-.85l.41-.3c1.49-1.07,3.3-2.29,5.42-3.56.54-.33,1.09-.65,1.66-1,2.29-1.31,4.91-2.66,7.86-4q2.26-1,4.82-2c1.27-.49,2.59-1,4-1.43.91-.31,1.84-.61,2.81-.9.71-.23,1.44-.44,2.19-.65q3.33-1,7-1.74c.95-.21,1.92-.4,2.91-.59,1.48-.28,3-.54,4.56-.76,1-.15,2.09-.3,3.16-.42l1.63-.19a129.43,129.43,0,0,1,13.89-.73c2.9,0,5.7.09,8.41.25,1.35.08,2.68.18,4,.29s2.58.25,3.83.39q3.76.45,7.23,1.06c1.3.23,2.58.47,3.81.74l1.24.27,1.6.37,1.58.38,1.15.3c.76.2,1.52.41,2.25.63l1.1.32c1,.29,1.91.58,2.83.89s1.82.61,2.69.93c1.52.55,3,1.12,4.36,1.69s2.7,1.17,3.94,1.76c.36.16.71.33,1,.5.7.34,1.36.67,2,1,.33.16.64.33,1,.5l1.8,1,.84.5.82.48.78.48.75.47c.25.15.48.3.71.46l.69.44c.45.3.86.59,1.26.87s.78.56,1.14.82.7.51,1,.76l.45.35.42.33.39.33c.89.71,1.5,1.27,1.86,1.61l.24.23.07.08a.11.11,0,0,1,0,0h0a43.8,43.8,0,0,1,7.16,8.49c.28.45.56.9.83,1.36s.61,1.05.9,1.59h0c.52.95,1,1.93,1.43,2.92a42.84,42.84,0,0,1,2.61,7.83h0l0,.26.42,2.09s0,.06,0,.1L950,467.89v0A96.75,96.75,0,0,1,952.82,491.35Z"/><polygon points="751.11 561.06 741.42 596.34 751.03 602.09 758.16 592.09 758.16 592.07 779.99 561.43 777.95 560.21 761.96 550.62 751.11 561.06"/><path d="M889.6,291.18a32.72,32.72,0,0,1-.39,5.07.69.69,0,0,1,0,.2l-.44,2.27-5,25.78-.34,1.78a23.41,23.41,0,0,1-16.08,17.16h0a41.32,41.32,0,0,1-22.28,0h0a23.38,23.38,0,0,1-16.56-20.1l-4.79-24.44-.5-2.54v-.08a32.91,32.91,0,0,1-.39-5.1,33.39,33.39,0,1,1,66.77,0Z"/><polygon class="cls-1" points="762.64 783.84 762.64 783.83 799.52 783.83 799.53 783.75 800.04 777.4 778.81 776.18 757.53 777.39 757.47 783.84 762.64 783.84"/><path d="M955.15,777.4h0l-21.27-1.22-21.23,1.22L902.3,641.69l-42.18-25.62h-7.57l-42.17,25.62L800,777.4l-21.23-1.22-21.28,1.22h0l1.29-148.72A18.83,18.83,0,0,1,761,620l14.14-29.53,18.06-29.14H919.48l18,29.14L951.68,620a19.08,19.08,0,0,1,2.19,8.7Z"/><polygon points="919.48 561.28 919.48 561.3 900.94 561.3 856.34 561.29 901.25 561.28 919.48 561.28"/><polygon points="720.06 824.35 725.08 835.56 799.53 824.13 799.53 783.83 762.64 783.83 762.64 783.84 757.36 794.43 757.35 794.44 755.12 798.9 720.06 824.35"/><polygon class="cls-1" points="950.04 783.84 950.04 783.83 913.16 783.83 913.15 783.75 912.64 777.4 933.87 776.18 955.15 777.39 955.22 783.84 950.04 783.84"/><polygon points="856.34 561.29 811.73 561.3 793.2 561.3 793.2 561.28 811.43 561.28 856.34 561.29"/><polygon points="992.62 824.35 987.61 835.56 913.15 824.13 913.15 783.83 950.04 783.83 950.04 783.84 955.33 794.43 955.33 794.44 957.56 798.9 992.62 824.35"/><line class="cls-2" x1="989.64" y1="648.4" x2="989.64" y2="900.21"/><line class="cls-2" x1="477.98" y1="648.4" x2="477.98" y2="900.21"/><rect class="cls-2" x="614.02" y="616.32" width="403.48" height="32.08" rx="4.05"/><path class="cls-2" d="M610.69,648.4,457.54,577.83a4.05,4.05,0,0,1-2-5.38l10-21.77a4.07,4.07,0,0,1,5.38-2L618,616.46"/><path class="cls-2" d="M764.78,857.47c-2.24,0-4-1.47-4-3.28V826.66c0-1.81,1.81-3.28,4-3.28H947.53c2.24,0,4.05,1.47,4.05,3.28v27.53c0,1.81-1.81,3.28-4.05,3.28Z"/><line class="cls-2" x1="944.13" y1="857.47" x2="944.13" y2="900.21"/><line class="cls-2" x1="924.34" y1="857.47" x2="924.34" y2="900.21"/><line class="cls-2" x1="788.17" y1="857.47" x2="788.17" y2="900.21"/><line class="cls-2" x1="768.39" y1="857.47" x2="768.39" y2="900.21"/><polyline class="cls-2" points="576.96 632.86 457.54 632.86 457.54 648.4"/><path class="cls-2" d="M457.54,900.21V648.4H1006a4.05,4.05,0,0,1,4.05,4.06V900.21"/><line class="cls-2" x1="614.02" y1="616.32" x2="598.75" y2="642.9"/></svg>