<svg id="Capa_3" data-name="Capa 3" xmlns="http://www.w3.org/2000/svg" viewBox="0 0 1300 1000"><defs><style>.cls-1{fill:#1e1e1c;}.cls-2{fill:#fff;}</style></defs><title>1-subject</title><polygon class="cls-1" points="747.43 760.29 749.99 760.29 749.99 760.29 747.43 760.29"/><polygon class="cls-1" points="747.41 760.29 747.43 760.29 747.43 760.28 747.41 760.29"/><polygon class="cls-1" points="771.74 760.29 784.59 760.29 784.59 760.29 771.74 760.29"/><polygon class="cls-1" points="749.99 760.29 749.99 760.29 763.51 760.29 763.51 760.27 749.99 760.29"/><polygon class="cls-1" points="771.74 760.29 790.58 760.29 790.58 760.28 784.59 760.29 771.74 760.29"/><polygon class="cls-1" points="747.43 760.29 763.51 760.29 763.51 760.27 749.99 760.29 747.43 760.29"/><polygon class="cls-1" points="728.75 596.76 730.93 605.59 731.34 607.25 734.24 619.03 734.26 619.02 731.35 607.25 730.95 605.6 728.75 596.76"/><polygon class="cls-1" points="728.22 594.55 728.53 595.84 728.53 595.81 728.22 594.55"/><polygon class="cls-1" points="728.75 596.76 730.93 605.59 731.34 607.25 734.24 619.03 734.26 619.02 731.35 607.25 730.95 605.6 728.75 596.76"/><polygon class="cls-1" points="791.11 557.1 823.85 553.77 831.99 552.94 831.99 552.93 823.85 553.76 791.11 557.1"/><polygon class="cls-1" points="789.12 547.14 790.58 554.47 791.11 557.1 790.59 554.47 789.14 547.13 789.12 547.14"/><path class="cls-1" d="M739.67,568.59l.5-.19h0Z"/><path class="cls-1" d="M725.32,568.78l1.76-.65A15.44,15.44,0,0,0,725.32,568.78Z"/><path class="cls-1" d="M739.67,568.59l.5-.19h0Z"/><path class="cls-1" d="M728.75,596.76l2.18,8.83.41,1.66h0l-.4-1.65Z"/><polygon class="cls-1" points="728.22 594.55 728.53 595.84 728.53 595.81 728.22 594.55"/><path class="cls-1" d="M727.61,592.09h0v0Z"/><polygon class="cls-2" points="789.12 547.14 790.58 554.47 790.59 554.47 789.14 547.13 789.12 547.14"/><path class="cls-2" d="M739.67,568.59l.5-.19h0Z"/><polygon class="cls-2" points="728.75 596.76 730.93 605.59 731.34 607.25 734.24 619.03 734.26 619.02 731.35 607.25 730.95 605.6 728.75 596.76"/><polygon class="cls-2" points="728.22 594.55 728.53 595.84 728.53 595.81 728.22 594.55"/><polygon class="cls-1" points="823.85 553.76 823.85 553.77 831.99 552.94 831.99 552.93 823.85 553.76"/><polygon class="cls-1" points="771.74 760.29 806.35 760.29 806.35 760.27 790.58 760.28 784.59 760.29 771.74 760.29"/><path class="cls-2" d="M739.67,568.59l.5-.19h0Z"/><path class="cls-2" d="M728.75,596.76l2.18,8.83h0Z"/><polygon class="cls-2" points="728.22 594.55 728.53 595.84 728.53 595.81 728.22 594.55"/><path class="cls-2" d="M727.61,592.09h0v0Z"/><polygon class="cls-1" points="771.74 760.29 812.15 760.29 812.15 760.27 806.35 760.27 790.58 760.28 784.59 760.29 771.74 760.29"/><polygon class="cls-1" points="728.75 596.76 730.93 605.59 731.34 607.25 734.24 619.03 734.26 619.02 731.35 607.25 730.95 605.6 728.75 596.76"/><polygon class="cls-1" points="728.22 594.55 728.53 595.84 728.53 595.81 728.22 594.55"/><polygon class="cls-1" points="791.11 557.1 823.85 553.77 831.99 552.94 831.99 552.93 823.85 553.76 791.11 557.1"/><polygon class="cls-1" points="789.12 547.14 790.58 554.47 791.11 557.1 790.59 554.47 789.14 547.13 789.12 547.14"/><path class="cls-1" d="M739.67,568.59l.5-.19h0Z"/><path class="cls-2" d="M718.87,590.77a.7.7,0,0,1,0,.14c.1.45.21.89.35,1.34,0,0,0,0,0,.06a.09.09,0,0,0,0,.05.56.56,0,0,0,0,.12l0,.12,0,.11,3,11.47,39.15,148.69-15.45.83,1.33,6.58H750l13.52,0v0l.23.87-8.69,8.49-5.06,2.4-28.77,13.62V800h6.57v-11.8l22.2-8.7,12-4.69,7.2-14.53h43l-1.21-6.44-21-1.2-.6,0-21.75,1.17L734.26,619h0l-2.9-11.78-.41-1.66-2.18-8.83-.22-.92-.31-1.29v0l-.6-2.44v0a19.73,19.73,0,0,1-.42-7.43,20.08,20.08,0,0,1,10-14.84,13.93,13.93,0,0,1,1.44-.74l1-.43.1,0,.47-.2h0l4.73-2,39.29-17.05,1.29,6.65,1.23,6.37,38.14-2.65L848.76,558l.19-8.31,0-1.79.85.59L859.13,536l1.12-1.49h51.36l-.75-7.73-4.33-.28c-7.9-.49-23.19-1.41-35.91-2.18l-2.65-.16,2.4-3.23L881,506.67l24.69-33.14-5.67-58.64,2.52,44.5a1.27,1.27,0,0,1,0,.2c0,.39,0,.78,0,1.18A18,18,0,0,1,899.45,471v0l-24.66,34.25-5.06,7-8.26,11.48-2.23,3.07v0l-5.52,7.66-5.47,7.61-4.67-3.95-.24-.2-4.07-3.46-2.11-1.78-5.76-3.32-.63-.36-.76-.44-1-.56-4.72-2.72.48-.76,41.67-66.66-12.21-52.63h-2.6l6.17,52.76L819,524.32l0,.64-.36,6.26,3.08-1.54h0l1.11.77,1.85,1.29.2.14,1.87,1.3,2,1.36,11.52,8,2.6,1.81v.19l-.51,5.58-.16,1.77-10.08,1h0l-8.14.83-32.74,3.33-.53-2.63-1.46-7.33h0l-.2-1,7-3.54-7.22,2.69-5,1.85-43.35,16.08h0L731.65,567l-.28.12-.28.11a20.49,20.49,0,0,0-5.53,3.49h0A20.87,20.87,0,0,0,718.87,590.77Z"/><path class="cls-1" d="M823.71,264.86a32.72,32.72,0,0,0,.39,5.07.64.64,0,0,0,0,.2l.44,2.27,5,25.79.34,1.77A23.41,23.41,0,0,0,846,317.13h0a41.36,41.36,0,0,0,22.29,0h0A23.4,23.4,0,0,0,884.8,297l4.79-24.44.5-2.54V270a34.2,34.2,0,0,0,.38-5.1,33.39,33.39,0,1,0-66.77,0Z"/><polygon class="cls-1" points="706.01 788.16 706.01 800.01 721.22 800.01 721.22 785.67 749.99 772.05 755.05 769.65 763.74 761.15 763.51 760.29 747.41 760.29 740.17 774.78 706.01 788.16"/><path class="cls-1" d="M713.44,590.77c0,.32.12.64.19,1l32.47,162,15.45-.83L722.4,604.18l-3-11.47,0-.11,0-.12a.56.56,0,0,1,0-.12.09.09,0,0,1,0-.05s0,0,0-.06c-.14-.45-.25-.89-.35-1.34a.7.7,0,0,0,0-.14,20.87,20.87,0,0,1,6.69-20h0a20.49,20.49,0,0,1,5.53-3.49l.09,0,.19-.07.19-.08.09,0,8.72-3.84-13.14,4.87-.15.06-1.76.65A20.06,20.06,0,0,0,713.44,590.77Z"/><path class="cls-1" d="M824.81,524.6l-.48.76,4.72,2.72,1,.56.76.44.63.36,5.76,3.32,2.11,1.78,4.07,3.46.24.2,4.67,3.95,5.47-7.61,5.52-7.66v0l2.23-3.07,8.26-11.48,5.06-7L899.44,471v0a18,18,0,0,0,3.18-10.24c0-.4,0-.79,0-1.18a1.27,1.27,0,0,0,0-.2l-2.52-44.5-1.33-23.66-1.54-27.32,0-.77a34.46,34.46,0,0,0-68.8.83h0L819,524.32l38.88-66.25-6.17-52.76h2.6l12.21,52.63Z"/><path class="cls-1" d="M868,524.18l2.65.16c12.72.77,28,1.69,35.91,2.18l4.33.28-5.14-53.27L881,506.67,870.37,521Z"/><polygon class="cls-1" points="727.79 788.21 727.79 800.01 806.35 800.01 806.35 760.29 769.17 760.29 761.97 774.82 749.99 779.51 727.79 788.21"/><path class="cls-1" d="M727.62,592.09h0l.6,2.44v0l.31,1.26v0l.22.92,2.2,8.84.4,1.65L734.26,619l33.32,134.82,21.75-1.17.6,0,21,1.2L783.73,609.25,805.11,605h0l70.61-11.65h0a44.6,44.6,0,0,0,37.08-44c0-1.33-.06-2.65-.18-3.95v0l-.08-.84-1-10.06H860.25L859.13,536l-9.28,12.46-.85-.59,0,1.79-.19,8.31-23.94,1.66-38.14,2.65-1.23-6.37-1.29-6.65-39.29,17.05-4.73,2h0l-.5.19-.1,0-1,.43a13.93,13.93,0,0,0-1.44.74,20.08,20.08,0,0,0-10,14.84,19.73,19.73,0,0,0,.42,7.43Z"/><polygon class="cls-1" points="788.95 546.11 789.14 547.13 790.59 554.47 791.11 557.1 823.85 553.76 831.99 552.93 842.07 551.91 842.23 550.14 842.74 544.55 842.75 544.37 840.15 542.56 828.63 534.54 826.67 533.18 824.8 531.88 824.6 531.74 822.75 530.45 821.64 529.67 821.64 529.67 818.56 531.22 818.05 531.48 811.95 534.54 811.95 534.54 800.13 540.49 795.97 542.57 788.95 546.11"/></svg>