<svg width="1300" height="1000" viewBox="0 0 1300 1000" fill="none" xmlns="http://www.w3.org/2000/svg">
<path d="M592.5 872.192L608.876 880.827C615.676 884.412 619.819 891.577 619.535 899.259L619.5 900.192H485.5V882.192C481.77 882.192 478.871 878.944 479.295 875.238L480.5 864.692L495.5 752.192L391.585 716.741C375.388 711.216 364.5 695.998 364.5 678.884V644.692L353 641.192C353 641.192 368.325 548.32 375.5 527.692C387.5 493.192 409.684 470.278 448.5 477.192C457.543 478.803 463.813 495.049 469.125 508.5C469.877 510.404 503 548.5 503 548.5L556 508.5L572 481.499C572 481.499 580.5 471.263 590.5 475.999C600 480.499 597 490.5 597 490.5C594.541 500.827 583.376 525.741 584.912 525.056C584.944 525.035 584.973 525.016 585 525C584.967 525.026 584.938 525.044 584.912 525.056C579.263 528.795 502.5 601.5 502.5 601.5L479.404 582.5C480.943 604.065 481.5 624.949 481.5 640.692L502.625 647.995C514.221 652.003 522 662.923 522 675.192L573.215 689.076C591.679 694.081 604.014 711.459 602.647 730.541L592.5 872.192Z" fill="white"/>
<path d="M606.291 886.65L585.5 878.134L597.537 727.563C598.678 713.289 589.571 700.198 575.791 696.303L484.5 670.504L559.321 721.481C569.153 728.18 574.098 740.055 571.925 751.752L549 875.193L566.227 881.369C571.856 883.387 575.749 888.556 576.134 894.524L576.5 900.193H612.5V895.904C612.5 891.845 610.047 888.188 606.291 886.65Z" fill="black"/>
<path d="M565.209 887.235L544 877.203L566.385 754.123C568.483 742.588 563.669 730.887 554.06 724.169L474 668.194L371.5 645.194V680.914C371.5 693.66 379.554 705.014 391.583 709.228L502.828 748.193L485.753 871.754C485.355 874.634 487.593 877.203 490.5 877.203V900.212H571L570.932 896.107C570.868 892.302 568.65 888.862 565.209 887.235Z" fill="black"/>
<path d="M387.499 515.693C373.592 545.67 361.5 639.194 361.5 639.194L473 663.194L514.181 673.607C515.226 673.871 516.173 672.921 515.904 671.877C513.474 662.427 506.362 654.887 497.071 651.908L473 644.194L410 620.193L419.311 556.578C419.42 555.835 420.057 555.285 420.808 555.285C421.71 555.285 422.411 556.069 422.311 556.966L415.5 617.694L476 639.194C476 539.452 461.797 501.212 455.019 488.642C453.001 484.898 449.464 482.435 445.285 481.642C432.855 479.285 404.655 478.715 387.499 515.693Z" fill="black"/>
<path d="M426.384 474.713C430.359 476.046 437.703 476.314 439.621 476.252C439.621 476.252 448.26 475.878 453.226 473.776C458.821 471.407 461.907 469.176 465.574 464.379C468.079 461.101 469.93 455.525 470.741 452.772C471.062 451.683 471.271 450.571 471.421 449.446L474.812 423.992C474.812 423.992 475.2 420.327 475.109 417.978C474.894 412.391 474.023 409.136 471.582 404.092C469.074 398.912 466.944 396.167 462.553 392.4C457.873 388.385 454.542 386.676 448.601 384.915C443.989 383.547 441.191 383.18 436.376 383.308C431.215 383.664 429.303 384.056 424.425 385.759C419.548 387.579 414.611 390.675 410.896 394.204C407.181 397.734 404.638 401.847 402.705 406.498C400.772 411.148 399.982 415.6 400.155 420.595C400.221 422.479 400.507 424.722 400.871 426.574L406.824 451.374C407.116 452.59 407.48 453.785 407.955 454.942C409.126 457.796 411.599 463.423 413.915 466.143C417.094 469.875 421.629 473.118 426.384 474.713Z" fill="white"/>
<path d="M428.291 468.901C431.632 470.066 437.802 470.308 439.413 470.256C439.413 470.256 446.669 469.939 450.839 468.114C455.537 466.056 458.126 464.117 461.202 459.943C463.255 457.155 464.781 452.454 465.483 450.005C465.785 448.949 465.98 447.868 466.118 446.779L468.918 424.779C468.918 424.779 469.24 421.588 469.161 419.541C468.974 414.675 468.24 411.84 466.183 407.444C464.071 402.93 462.278 400.537 458.586 397.252C454.651 393.75 451.85 392.258 446.858 390.717C442.982 389.521 440.631 389.198 436.586 389.305C432.252 389.609 430.646 389.948 426.55 391.426C422.455 393.006 418.311 395.697 415.194 398.767C412.077 401.837 409.945 405.417 408.327 409.465C406.708 413.513 406.049 417.39 406.2 421.74C406.257 423.381 406.5 425.335 406.808 426.948L411.793 448.372C412.068 449.552 412.41 450.714 412.86 451.84C413.873 454.377 415.905 459.108 417.808 461.424C420.483 464.678 424.296 467.507 428.291 468.901Z" fill="black"/>
<path d="M470.04 515.897L470 515.85C470.013 515.863 470.026 515.879 470.04 515.897L502.5 553.85L560 511.5L574 487C575.5 484.667 580 477.35 587.5 479.35C596.5 481.75 593 490.684 591.5 495.35L581.5 520.85L502.5 594.85L479 574.85C477.347 557.328 471.693 518.098 470.04 515.897Z" fill="black"/>
<path d="M646.404 477.324C648.258 478.021 648.94 480.292 647.776 481.895L593.094 557.239C592.242 558.413 590.673 558.809 589.366 558.181L545.539 537.121L516.265 507.085C515.245 506.038 515.128 504.409 515.986 503.227L566.313 433.959C567.349 432.534 569.385 432.304 570.713 433.463L601.708 460.518L646.404 477.324Z" fill="white"/>
<path fill-rule="evenodd" clip-rule="evenodd" d="M600.812 467.659L639.029 482.03L589.389 550.426L552.959 532.921L600.812 467.659ZM594.908 463.873L569.405 441.613L523.632 504.614L547.259 528.857L594.908 463.873ZM516.265 507.085C515.245 506.038 515.128 504.409 515.986 503.227L566.313 433.959C567.349 432.534 569.385 432.304 570.713 433.463L601.708 460.518L646.404 477.324C648.258 478.021 648.94 480.292 647.776 481.895L593.094 557.239C592.242 558.413 590.673 558.809 589.366 558.181L545.539 537.121L516.265 507.085Z" fill="black"/>
</svg>
