<svg xmlns="http://www.w3.org/2000/svg" viewBox="0 0 1300 1000"><defs><style>.cls-1{fill:#1e1e1c;}.cls-2{fill:#fff;}.cls-3{fill:none;stroke:#1d1d1b;stroke-miterlimit:10;stroke-width:2px;}</style></defs><title>1-subject</title><g id="Capa_3" data-name="Capa 3"><polygon class="cls-1" points="647.25 780.29 649.81 780.29 649.81 780.29 647.25 780.29"/><polygon class="cls-1" points="647.24 780.29 647.25 780.29 647.25 780.28 647.24 780.29"/><polygon class="cls-1" points="671.56 780.29 684.42 780.29 684.42 780.29 671.56 780.29"/><polygon class="cls-1" points="649.81 780.29 649.81 780.29 663.34 780.29 663.33 780.27 649.81 780.29"/><polygon class="cls-1" points="671.56 780.29 690.4 780.29 690.4 780.28 684.42 780.29 671.56 780.29"/><polygon class="cls-1" points="647.25 780.29 663.34 780.29 663.33 780.27 649.81 780.29 647.25 780.29"/><polygon class="cls-1" points="628.58 616.76 630.76 625.59 631.16 627.25 634.06 639.03 634.09 639.02 631.18 627.25 630.77 625.6 628.58 616.76"/><polygon class="cls-1" points="628.04 614.55 628.36 615.84 628.36 615.81 628.04 614.55"/><polygon class="cls-1" points="628.58 616.76 630.76 625.59 631.16 627.25 634.06 639.03 634.09 639.02 631.18 627.25 630.77 625.6 628.58 616.76"/><polygon class="cls-1" points="690.93 577.1 723.67 573.77 731.82 572.94 731.82 572.93 723.67 573.76 690.93 577.1"/><polygon class="cls-1" points="688.95 567.14 690.41 574.47 690.93 577.1 690.42 574.47 688.97 567.13 688.95 567.14"/><path class="cls-1" d="M639.49,588.59l.51-.19h0Z"/><path class="cls-1" d="M625.14,588.78l1.76-.65A15.44,15.44,0,0,0,625.14,588.78Z"/><path class="cls-1" d="M639.49,588.59l.51-.19h0Z"/><path class="cls-1" d="M628.58,616.76l2.18,8.83.4,1.66h0l-.41-1.65Z"/><polygon class="cls-1" points="628.04 614.55 628.36 615.84 628.36 615.81 628.04 614.55"/><path class="cls-1" d="M627.43,612.09h0v0Z"/><polygon class="cls-2" points="688.95 567.14 690.41 574.47 690.42 574.47 688.97 567.13 688.95 567.14"/><path class="cls-2" d="M639.49,588.59l.51-.19h0Z"/><polygon class="cls-2" points="628.58 616.76 630.76 625.59 631.16 627.25 634.06 639.03 634.09 639.02 631.18 627.25 630.77 625.6 628.58 616.76"/><polygon class="cls-2" points="628.04 614.55 628.36 615.84 628.36 615.81 628.04 614.55"/><polygon class="cls-1" points="723.67 573.76 723.67 573.77 731.82 572.94 731.82 572.93 723.67 573.76"/><polygon class="cls-1" points="671.56 780.29 706.17 780.29 706.17 780.27 690.4 780.28 684.42 780.29 671.56 780.29"/><path class="cls-2" d="M639.49,588.59l.51-.19h0Z"/><path class="cls-2" d="M628.58,616.76l2.18,8.83h0Z"/><polygon class="cls-2" points="628.04 614.55 628.36 615.84 628.36 615.81 628.04 614.55"/><path class="cls-2" d="M627.43,612.09h0v0Z"/><polygon class="cls-1" points="671.56 780.29 711.98 780.29 711.98 780.27 706.17 780.27 690.4 780.28 684.42 780.29 671.56 780.29"/><polygon class="cls-1" points="628.58 616.76 630.76 625.59 631.16 627.25 634.06 639.03 634.09 639.02 631.18 627.25 630.77 625.6 628.58 616.76"/><polygon class="cls-1" points="628.04 614.55 628.36 615.84 628.36 615.81 628.04 614.55"/><polygon class="cls-1" points="690.93 577.1 723.67 573.77 731.82 572.94 731.82 572.93 723.67 573.76 690.93 577.1"/><polygon class="cls-1" points="688.95 567.14 690.41 574.47 690.93 577.1 690.42 574.47 688.97 567.13 688.95 567.14"/><path class="cls-1" d="M639.49,588.59l.51-.19h0Z"/><path class="cls-2" d="M618.7,610.77l0,.14c.1.45.21.89.34,1.34,0,0,0,0,0,.06l0,.05a.53.53,0,0,0,0,.12.53.53,0,0,1,0,.12.7.7,0,0,0,0,.11l3,11.47,39.15,148.69-15.45.83,1.32,6.58h2.56l13.52,0v0l.22.87-8.69,8.49-5.06,2.4L621,805.67V820h6.58v-11.8l22.19-8.7,12-4.69L669,780.29h43l-1.21-6.44-21-1.2-.6,0-21.74,1.17L634.09,639h0l-2.9-11.78-.4-1.66-2.18-8.83-.22-.92-.32-1.29v0l-.6-2.44v0a19.72,19.72,0,0,1-.41-7.43,20,20,0,0,1,10-14.84,15,15,0,0,1,1.44-.74l1-.43.1,0,.47-.2h0l4.72-2L684,569.29l1.28,6.65,1.23,6.37,38.14-2.65L748.58,578l.2-8.31,0-1.79.86.59L759,556l1.11-1.49h51.36l-.74-7.73-4.33-.28-35.91-2.18-2.66-.16,2.4-3.23,10.66-14.28,24.69-33.14-5.66-58.64,2.52,44.5a1.27,1.27,0,0,1,0,.2c0,.39,0,.78,0,1.18A18,18,0,0,1,799.28,491v0l-24.66,34.25-5.06,7-8.27,11.48-2.23,3.07v0l-5.51,7.66-5.48,7.61-4.67-3.95-.24-.2-4.06-3.46L737,552.76l-5.76-3.32-.63-.36-.76-.44-1-.56-4.72-2.72.49-.76,41.66-66.66-12.2-52.63h-2.61l6.18,52.76-38.89,66.25,0,.64-.37,6.26,3.08-1.54h0l1.11.77,1.85,1.29.2.14,1.87,1.3,2,1.36,11.51,8,2.61,1.81,0,.19-.51,5.58-.16,1.77-10.07,1h0l-8.14.83-32.75,3.33-.52-2.63L689,567.14h0l-.2-1,7-3.54-7.22,2.69-5,1.85-43.35,16.08h0L631.48,587l-.29.12-.27.11a20.55,20.55,0,0,0-5.54,3.49h0A20.89,20.89,0,0,0,618.7,610.77Z"/><path class="cls-1" d="M723.54,284.86a34,34,0,0,0,.38,5.07l0,.2.44,2.27,5,25.79.35,1.77a23.39,23.39,0,0,0,16.08,17.17h0a41.32,41.32,0,0,0,22.28,0h0A23.39,23.39,0,0,0,784.63,317l4.78-24.44.5-2.54V290a32.91,32.91,0,0,0,.39-5.1,33.39,33.39,0,1,0-66.77,0Z"/><polygon class="cls-1" points="605.83 808.16 605.83 820.01 621.04 820.01 621.04 805.67 649.81 792.05 654.87 789.65 663.56 781.15 663.34 780.29 647.24 780.29 640 794.78 605.83 808.16"/><path class="cls-1" d="M613.26,610.77c0,.32.12.64.19,1l32.48,162,15.45-.83L622.23,624.18l-3-11.47a.7.7,0,0,1,0-.11.53.53,0,0,0,0-.12.53.53,0,0,1,0-.12l0-.05s0,0,0-.06c-.13-.45-.24-.89-.34-1.34l0-.14a20.89,20.89,0,0,1,6.68-20h0a20.55,20.55,0,0,1,5.54-3.49l.08,0,.19-.07.2-.08.09,0,8.71-3.84-13.13,4.87-.16.06-1.76.65A20.08,20.08,0,0,0,613.26,610.77Z"/><path class="cls-1" d="M724.64,544.6l-.49.76,4.72,2.72,1,.56.76.44.63.36,5.76,3.32,2.11,1.78,4.06,3.46.24.2,4.67,3.95,5.48-7.61,5.51-7.66v0l2.23-3.07,8.27-11.48,5.06-7L799.27,491v0a18,18,0,0,0,3.17-10.24c0-.4,0-.79,0-1.18a1.27,1.27,0,0,0,0-.2l-2.52-44.5-1.33-23.66L797,383.91l0-.77a34.46,34.46,0,0,0-68.8.83h0l-9.33,160.35,38.89-66.25-6.18-52.76h2.61l12.2,52.63Z"/><path class="cls-1" d="M767.79,544.18l2.66.16,35.91,2.18,4.33.28-5.15-53.27-24.69,33.14L770.19,541Z"/><polygon class="cls-1" points="627.62 808.21 627.62 820.01 706.17 820.01 706.17 780.29 669 780.29 661.79 794.82 649.81 799.51 627.62 808.21"/><path class="cls-1" d="M627.45,612.09h0l.6,2.44v0l.32,1.26v0l.22.92,2.19,8.84.41,1.65L634.09,639l33.32,134.82,21.74-1.17.6,0,21,1.2-27.2-144.58L704.93,625h0l70.61-11.65h0a44.6,44.6,0,0,0,37.09-44c0-1.33-.07-2.65-.18-3.95v0l-.09-.84-1-10.06H760.07L759,556l-9.28,12.46-.86-.59,0,1.79-.2,8.31-23.94,1.66-38.14,2.65-1.23-6.37L684,569.29l-39.3,17.05-4.72,2h0l-.51.19-.1,0-1,.43a15,15,0,0,0-1.44.74,20,20,0,0,0-10,14.84,19.72,19.72,0,0,0,.41,7.43Z"/><polygon class="cls-1" points="688.77 566.11 688.97 567.13 690.42 574.47 690.93 577.1 723.67 573.76 731.82 572.93 741.89 571.91 742.05 570.14 742.56 564.55 742.58 564.37 739.97 562.56 728.46 554.54 726.5 553.18 724.63 551.88 724.43 551.74 722.58 550.45 721.47 549.67 721.46 549.67 718.38 551.22 717.88 551.48 711.78 554.54 711.77 554.54 699.96 560.49 695.8 562.57 688.77 566.11"/></g><g id="Capa_5" data-name="Capa 5"><rect class="cls-3" width="1300" height="1000"/></g></svg>