<svg width="1300" height="1000" viewBox="0 0 1300 1000" fill="none" xmlns="http://www.w3.org/2000/svg"><path d="m591.5 872.192 16.376 8.635a20 20 0 0 1 10.659 18.432l-.035.933h-134v-18c-3.73 0-6.629-3.248-6.205-6.954l1.205-10.546 15-112.5-103.915-35.451c-16.197-5.525-27.085-20.743-27.085-37.857v-34.192l-11.5-3.5s15.325-92.872 22.5-113.5c12-34.5 34.184-57.414 73-50.5 9.043 1.611 15.313 17.857 20.625 31.308.752 1.904 33.875 40 33.875 40l53-40 16-27.001s8.5-10.236 18.5-5.5c9.5 4.5 6.5 14.501 6.5 14.501-2.459 10.327-13.624 35.241-12.088 34.556L584 525a.448.448 0 0 1-.088.056C578.263 528.795 501.5 601.5 501.5 601.5l-23.096-19c1.539 21.565 2.096 42.449 2.096 58.192l21.125 7.303A28.776 28.776 0 0 1 521 675.192l51.215 13.884c18.464 5.005 30.799 22.383 29.432 41.465L591.5 872.192Z" fill="#fff"/><path d="m605.291 886.65-20.791-8.516 12.037-150.571c1.141-14.274-7.966-27.365-21.746-31.26L483.5 670.504l74.821 50.977a30 30 0 0 1 12.604 30.271L548 875.193l17.227 6.176a15 15 0 0 1 9.907 13.155l.366 5.669h36v-4.289a10 10 0 0 0-6.209-9.254Z" fill="#000"/><path d="M564.209 887.235 543 877.203l22.385-123.08a29.999 29.999 0 0 0-12.325-29.954L473 668.194l-102.5-23v35.72c0 12.746 8.054 24.1 20.083 28.314l111.245 38.965-17.075 123.561a4.793 4.793 0 0 0 4.747 5.449v23.009H570l-.068-4.105a10 10 0 0 0-5.723-8.872Zm-177.71-371.542C372.592 545.67 360.5 639.194 360.5 639.194l111.5 24 41.181 10.413a1.42 1.42 0 0 0 1.723-1.73 28.398 28.398 0 0 0-18.833-19.969L472 644.194l-63-24.001 9.311-63.615a1.512 1.512 0 0 1 3 .388l-6.811 60.728 60.5 21.5c0-99.742-14.203-137.982-20.981-150.552-2.018-3.744-5.555-6.207-9.734-7-12.43-2.357-40.63-2.927-57.786 34.051Z" fill="#000"/><path d="M425.384 474.713c3.975 1.333 11.319 1.601 13.237 1.539 0 0 8.639-.374 13.605-2.476 5.595-2.369 8.681-4.6 12.348-9.397 2.505-3.278 4.356-8.854 5.167-11.607.321-1.089.53-2.201.68-3.326l3.391-25.454s.388-3.665.297-6.014c-.215-5.587-1.086-8.842-3.527-13.886-2.508-5.18-4.638-7.925-9.029-11.692-4.68-4.015-8.011-5.724-13.952-7.485-4.612-1.368-7.41-1.735-12.225-1.607-5.161.356-7.073.748-11.951 2.451-4.877 1.82-9.814 4.916-13.529 8.445-3.715 3.53-6.258 7.643-8.191 12.294-1.933 4.65-2.723 9.102-2.55 14.097.066 1.884.352 4.127.716 5.979l5.953 24.8a24.324 24.324 0 0 0 1.131 3.568c1.171 2.854 3.644 8.481 5.96 11.201 3.179 3.732 7.714 6.975 12.469 8.57Z" fill="#fff"/><path d="M427.291 468.901c3.341 1.165 9.511 1.407 11.122 1.355 0 0 7.256-.317 11.426-2.142 4.698-2.058 7.287-3.997 10.363-8.171 2.053-2.788 3.579-7.489 4.281-9.938.302-1.056.497-2.137.635-3.226l2.8-22s.322-3.191.243-5.238c-.187-4.866-.921-7.701-2.978-12.097-2.112-4.514-3.905-6.907-7.597-10.192-3.935-3.502-6.736-4.994-11.728-6.535-3.876-1.196-6.227-1.519-10.272-1.412-4.334.304-5.94.643-10.036 2.121-4.095 1.58-8.239 4.271-11.356 7.341-3.117 3.07-5.249 6.65-6.867 10.698-1.619 4.048-2.278 7.925-2.127 12.275.057 1.641.3 3.595.608 5.208l4.985 21.424c.275 1.18.617 2.342 1.067 3.468 1.013 2.537 3.045 7.268 4.948 9.584 2.675 3.254 6.488 6.083 10.483 7.477Zm41.749 46.996-.04-.047a.511.511 0 0 1 .04.047l32.46 37.953L559 511.5l14-24.5c1.5-2.333 6-9.65 13.5-7.65 9 2.4 5.5 11.334 4 16l-10 25.5-79 74-23.5-20c-1.653-17.522-7.307-56.752-8.96-58.953Z" fill="#000"/><rect x="567.367" y="443" width="45" height="77" rx="5" transform="rotate(4.744 567.367 443)" fill="#000"/><rect x="571.937" y="448.396" width="35" height="67" rx="2" transform="rotate(4.744 571.937 448.396)" fill="#fff"/><path fill="#000" d="m574.43 454.623 28.9 2.398-4.217 50.825-28.9-2.398z"/></svg>