<svg id="Capa_3" data-name="Capa 3" xmlns="http://www.w3.org/2000/svg" viewBox="0 0 1300 1000"><defs><style>.cls-1{fill:#1e1e1c;}.cls-2{fill:#fff;}</style></defs><title>1-subject</title><polygon class="cls-1" points="1006.25 862.29 1008.81 862.29 1008.81 862.29 1006.25 862.29"/><polygon class="cls-1" points="1006.24 862.29 1006.25 862.29 1006.25 862.28 1006.24 862.29"/><polygon class="cls-1" points="1030.56 862.29 1043.42 862.29 1043.42 862.29 1030.56 862.29"/><polygon class="cls-1" points="1008.81 862.29 1008.81 862.29 1022.34 862.29 1022.33 862.27 1008.81 862.29"/><polygon class="cls-1" points="1030.56 862.29 1049.4 862.29 1049.4 862.28 1043.42 862.29 1030.56 862.29"/><polygon class="cls-1" points="1006.25 862.29 1022.34 862.29 1022.33 862.27 1008.81 862.29 1006.25 862.29"/><polygon class="cls-1" points="987.58 698.76 989.76 707.59 990.17 709.25 993.07 721.03 993.09 721.02 990.18 709.25 989.77 707.6 987.58 698.76"/><polygon class="cls-1" points="987.04 696.55 987.36 697.84 987.36 697.81 987.04 696.55"/><polygon class="cls-1" points="987.58 698.76 989.76 707.59 990.17 709.25 993.07 721.03 993.09 721.02 990.18 709.25 989.77 707.6 987.58 698.76"/><polygon class="cls-1" points="1049.93 659.1 1082.68 655.77 1090.82 654.94 1090.82 654.93 1082.68 655.76 1049.93 659.1"/><polygon class="cls-1" points="1047.95 649.14 1049.41 656.47 1049.93 659.1 1049.42 656.47 1047.97 649.13 1047.95 649.14"/><path class="cls-1" d="M998.49,670.59l.51-.19h0Z"/><path class="cls-1" d="M984.14,670.78l1.77-.65A15.6,15.6,0,0,0,984.14,670.78Z"/><path class="cls-1" d="M998.49,670.59l.51-.19h0Z"/><path class="cls-1" d="M987.58,698.76l2.18,8.83.41,1.66h0l-.41-1.65Z"/><polygon class="cls-1" points="987.04 696.55 987.36 697.84 987.36 697.81 987.04 696.55"/><path class="cls-1" d="M986.44,694.09h0v0Z"/><polygon class="cls-2" points="1047.95 649.14 1049.41 656.47 1049.42 656.47 1047.97 649.13 1047.95 649.14"/><path class="cls-2" d="M998.49,670.59l.51-.19h0Z"/><polygon class="cls-2" points="987.58 698.76 989.76 707.59 990.17 709.25 993.07 721.03 993.09 721.02 990.18 709.25 989.77 707.6 987.58 698.76"/><polygon class="cls-2" points="987.04 696.55 987.36 697.84 987.36 697.81 987.04 696.55"/><polygon class="cls-1" points="1082.68 655.76 1082.68 655.77 1090.82 654.94 1090.82 654.93 1082.68 655.76"/><polygon class="cls-1" points="1030.56 862.29 1065.17 862.29 1065.17 862.27 1049.4 862.28 1043.42 862.29 1030.56 862.29"/><path class="cls-2" d="M998.49,670.59l.51-.19h0Z"/><path class="cls-2" d="M987.58,698.76l2.18,8.83h0Z"/><polygon class="cls-2" points="987.04 696.55 987.36 697.84 987.36 697.81 987.04 696.55"/><path class="cls-2" d="M986.44,694.09h0v0Z"/><polygon class="cls-1" points="1030.56 862.29 1070.98 862.29 1070.98 862.27 1065.17 862.27 1049.4 862.28 1043.42 862.29 1030.56 862.29"/><polygon class="cls-1" points="987.58 698.76 989.76 707.59 990.17 709.25 993.07 721.03 993.09 721.02 990.18 709.25 989.77 707.6 987.58 698.76"/><polygon class="cls-1" points="987.04 696.55 987.36 697.84 987.36 697.81 987.04 696.55"/><polygon class="cls-1" points="1049.93 659.1 1082.68 655.77 1090.82 654.94 1090.82 654.93 1082.68 655.76 1049.93 659.1"/><polygon class="cls-1" points="1047.95 649.14 1049.41 656.47 1049.93 659.1 1049.42 656.47 1047.97 649.13 1047.95 649.14"/><path class="cls-1" d="M998.49,670.59l.51-.19h0Z"/><path class="cls-2" d="M977.7,692.77l0,.14c.1.45.21.89.35,1.34a.15.15,0,0,0,0,.06l0,.05a.56.56,0,0,0,0,.12.53.53,0,0,0,0,.12.39.39,0,0,0,0,.11l3,11.47,39.15,148.69-15.45.83,1.32,6.58h2.56l13.52,0v0l.22.87-8.69,8.49-5.06,2.4-28.76,13.62V902h6.57v-11.8l22.19-8.7,12-4.69,7.2-14.53h43l-1.2-6.44-21-1.2-.6,0-21.75,1.17L993.09,721h0l-2.89-11.78-.41-1.66-2.18-8.83-.22-.92-.32-1.29v0l-.6-2.44v0A20.12,20.12,0,0,1,996,671.8c.47-.27,1-.52,1.44-.74l1-.43.1,0,.47-.2h0l4.72-2,39.3-17.05,1.28,6.65,1.23,6.37,38.15-2.65,23.94-1.66.19-8.31,0-1.79.86.59L1118,638l1.11-1.5h51.37l-.75-7.73-4.33-.28c-7.9-.49-23.19-1.41-35.91-2.18l-2.65-.16,2.39-3.23,10.66-14.28,24.7-33.14-5.67-58.64,2.52,44.5a1.27,1.27,0,0,1,0,.2c0,.39,0,.78,0,1.18a18,18,0,0,1-3.17,10.24v0l-24.66,34.25-5.06,7-8.27,11.48-2.23,3.07v0l-5.51,7.66-5.48,7.61-4.67-3.95-.23-.2-4.07-3.46-2.11-1.78-5.76-3.32-.63-.36-.76-.44-.95-.56-4.73-2.72.49-.76,41.66-66.66-12.2-52.63h-2.61l6.18,52.76-38.88,66.25,0,.64-.36,6.26,3.07-1.54h0l1.11.77,1.85,1.29.2.14,1.87,1.3,2,1.36,11.51,8,2.61,1.81,0,.19-.5,5.58-.16,1.77-10.08,1h0l-8.14.83-32.75,3.33-.52-2.63-1.46-7.33h0l-.2-1,7-3.54-7.22,2.69-5,1.85-43.35,16.08h0L990.48,669l-.28.12-.28.11a20.7,20.7,0,0,0-5.54,3.49h0A20.89,20.89,0,0,0,977.7,692.77Z"/><path class="cls-1" d="M1082.54,366.86a34,34,0,0,0,.38,5.07l0,.2.44,2.27,5,25.79.35,1.77a23.41,23.41,0,0,0,16.08,17.17h0a41.32,41.32,0,0,0,22.28,0h0A23.39,23.39,0,0,0,1143.63,399l4.78-24.44.5-2.54,0-.08a34.2,34.2,0,0,0,.38-5.1,33.39,33.39,0,1,0-66.77,0Z"/><polygon class="cls-1" points="964.83 890.16 964.83 902.01 980.04 902.01 980.04 887.67 1008.81 874.05 1013.87 871.65 1022.56 863.15 1022.34 862.29 1006.24 862.29 999 876.78 964.83 890.16"/><path class="cls-1" d="M972.26,692.77c.06.32.13.64.2,1l32.47,162,15.45-.83L981.23,706.18l-3-11.47a.39.39,0,0,1,0-.11.53.53,0,0,1,0-.12.56.56,0,0,1,0-.12l0-.05a.15.15,0,0,1,0-.06c-.14-.45-.25-.89-.35-1.34l0-.14a20.89,20.89,0,0,1,6.68-20h0a20.7,20.7,0,0,1,5.54-3.49l.08,0,.2-.07.19-.08.09,0,8.71-3.84-13.13,4.87-.15.06-1.77.65A20.08,20.08,0,0,0,972.26,692.77Z"/><path class="cls-1" d="M1083.64,626.6l-.49.76,4.73,2.72.95.56.76.44.63.36,5.76,3.32,2.11,1.78,4.07,3.46.23.2,4.67,3.95,5.48-7.61,5.51-7.66v0l2.23-3.07,8.27-11.48,5.06-7L1158.27,573v0a18,18,0,0,0,3.17-10.24c0-.4,0-.79,0-1.18a1.27,1.27,0,0,0,0-.2l-2.52-44.5-1.33-23.66L1156,465.91l0-.77a34.47,34.47,0,0,0-68.81.83h0l-9.32,160.35,38.88-66.25-6.18-52.76h2.61l12.2,52.63Z"/><path class="cls-1" d="M1126.8,626.18l2.65.16c12.72.77,28,1.69,35.91,2.18l4.33.28-5.14-53.27-24.7,33.14L1129.19,623Z"/><polygon class="cls-1" points="986.62 890.21 986.62 902.01 1065.17 902.01 1065.17 862.29 1028 862.29 1020.79 876.82 1008.81 881.51 986.62 890.21"/><path class="cls-1" d="M986.45,694.09h0l.6,2.44v0l.32,1.26v0l.22.92,2.19,8.84.41,1.65L993.09,721l33.32,134.82,21.75-1.17.6,0,21,1.2-27.21-144.58,21.38-4.22h0l70.61-11.65h0a44.6,44.6,0,0,0,37.08-44c0-1.33-.06-2.65-.18-3.95v0l-.08-.84-1-10.06h-51.37L1118,638l-9.28,12.45-.86-.59,0,1.79-.19,8.31-23.94,1.66-38.15,2.65-1.23-6.37-1.28-6.65-39.3,17.05-4.72,2h0l-.51.19-.1,0-1,.43c-.49.22-1,.47-1.44.74a20.12,20.12,0,0,0-9.55,22.27Z"/><polygon class="cls-1" points="1047.77 648.11 1047.97 649.13 1049.42 656.47 1049.93 659.1 1082.68 655.76 1090.82 654.93 1100.89 653.91 1101.06 652.14 1101.56 646.56 1101.58 646.37 1098.97 644.56 1087.46 636.54 1085.5 635.18 1083.63 633.88 1083.43 633.74 1081.58 632.45 1080.47 631.67 1080.46 631.67 1077.39 633.22 1076.88 633.48 1070.78 636.54 1070.77 636.54 1058.96 642.49 1054.8 644.57 1047.77 648.11"/></svg>