<svg xmlns="http://www.w3.org/2000/svg" viewBox="0 0 1300 1000"><defs><style>.cls-1{fill:#1e1e1c;}.cls-2{fill:#fff;}.cls-3{fill:none;stroke:#1d1d1b;stroke-miterlimit:10;stroke-width:2px;}</style></defs><title>1-subject</title><g id="Capa_3" data-name="Capa 3"><polygon class="cls-1" points="377.2 862.29 379.76 862.29 379.76 862.29 377.2 862.29"/><polygon class="cls-1" points="377.19 862.29 377.2 862.29 377.2 862.28 377.19 862.29"/><polygon class="cls-1" points="401.51 862.29 414.37 862.29 414.37 862.29 401.51 862.29"/><polygon class="cls-1" points="379.76 862.29 379.76 862.29 393.29 862.29 393.28 862.27 379.76 862.29"/><polygon class="cls-1" points="401.51 862.29 420.35 862.29 420.35 862.28 414.37 862.29 401.51 862.29"/><polygon class="cls-1" points="377.2 862.29 393.29 862.29 393.28 862.27 379.76 862.29 377.2 862.29"/><polygon class="cls-1" points="358.53 698.76 360.71 707.59 361.11 709.25 364.01 721.03 364.04 721.02 361.13 709.25 360.72 707.6 358.53 698.76"/><polygon class="cls-1" points="357.99 696.55 358.31 697.84 358.31 697.81 357.99 696.55"/><polygon class="cls-1" points="358.53 698.76 360.71 707.59 361.11 709.25 364.01 721.03 364.04 721.02 361.13 709.25 360.72 707.6 358.53 698.76"/><polygon class="cls-1" points="420.88 659.1 453.63 655.77 461.77 654.94 461.77 654.93 453.63 655.76 420.88 659.1"/><polygon class="cls-1" points="418.9 649.14 420.36 656.47 420.88 659.1 420.37 656.47 418.92 649.13 418.9 649.14"/><path class="cls-1" d="M369.44,670.59l.51-.19h0Z"/><path class="cls-1" d="M355.09,670.78l1.76-.65A15.44,15.44,0,0,0,355.09,670.78Z"/><path class="cls-1" d="M369.44,670.59l.51-.19h0Z"/><path class="cls-1" d="M358.53,698.76l2.18,8.83.4,1.66h0l-.41-1.65Z"/><polygon class="cls-1" points="357.99 696.55 358.31 697.84 358.31 697.81 357.99 696.55"/><path class="cls-1" d="M357.38,694.09h0v0Z"/><polygon class="cls-2" points="418.9 649.14 420.36 656.47 420.37 656.47 418.92 649.13 418.9 649.14"/><path class="cls-2" d="M369.44,670.59l.51-.19h0Z"/><polygon class="cls-2" points="358.53 698.76 360.71 707.59 361.11 709.25 364.01 721.03 364.04 721.02 361.13 709.25 360.72 707.6 358.53 698.76"/><polygon class="cls-2" points="357.99 696.55 358.31 697.84 358.31 697.81 357.99 696.55"/><polygon class="cls-1" points="453.63 655.76 453.63 655.77 461.77 654.94 461.77 654.93 453.63 655.76"/><polygon class="cls-1" points="401.51 862.29 436.12 862.29 436.12 862.27 420.35 862.28 414.37 862.29 401.51 862.29"/><path class="cls-2" d="M369.44,670.59l.51-.19h0Z"/><path class="cls-2" d="M358.53,698.76l2.18,8.83h0Z"/><polygon class="cls-2" points="357.99 696.55 358.31 697.84 358.31 697.81 357.99 696.55"/><path class="cls-2" d="M357.38,694.09h0v0Z"/><polygon class="cls-1" points="401.51 862.29 441.93 862.29 441.93 862.27 436.12 862.27 420.35 862.28 414.37 862.29 401.51 862.29"/><polygon class="cls-1" points="358.53 698.76 360.71 707.59 361.11 709.25 364.01 721.03 364.04 721.02 361.13 709.25 360.72 707.6 358.53 698.76"/><polygon class="cls-1" points="357.99 696.55 358.31 697.84 358.31 697.81 357.99 696.55"/><polygon class="cls-1" points="420.88 659.1 453.63 655.77 461.77 654.94 461.77 654.93 453.63 655.76 420.88 659.1"/><polygon class="cls-1" points="418.9 649.14 420.36 656.47 420.88 659.1 420.37 656.47 418.92 649.13 418.9 649.14"/><path class="cls-1" d="M369.44,670.59l.51-.19h0Z"/><path class="cls-2" d="M348.65,692.77l0,.14c.1.45.21.89.34,1.34,0,0,0,0,0,.06l0,.05a.53.53,0,0,0,0,.12.53.53,0,0,1,0,.12.7.7,0,0,0,0,.11l3,11.47,39.15,148.69-15.45.83,1.32,6.58h2.56l13.52,0v0l.22.87-8.69,8.49-5.06,2.4L351,887.67V902h6.58v-11.8l22.19-8.7,12-4.69L399,862.29h43l-1.21-6.44-21-1.2-.6,0-21.74,1.17L364,721h0l-2.9-11.78-.4-1.66-2.18-8.83-.22-.92-.32-1.29v0l-.6-2.44v0a19.72,19.72,0,0,1-.41-7.43,20,20,0,0,1,10-14.84,15,15,0,0,1,1.44-.74l1-.43.1,0,.47-.2h0l4.72-2,39.3-17.05,1.28,6.65,1.23,6.37,38.14-2.65L478.53,660l.2-8.31,0-1.79.86.59L488.91,638l1.11-1.5h51.36l-.74-7.73-4.33-.28-35.91-2.18-2.66-.16,2.4-3.23,10.66-14.28,24.69-33.14-5.66-58.64,2.52,44.5a1.27,1.27,0,0,1,0,.2c0,.39,0,.78,0,1.18A18,18,0,0,1,529.23,573v0l-24.66,34.25-5.06,7-8.27,11.48L489,628.85v0l-5.51,7.66L478,644.15l-4.67-3.95-.24-.2L469,636.54l-2.11-1.78-5.76-3.32-.63-.36-.76-.44-1-.56-4.72-2.72.49-.76,41.66-66.66-12.2-52.63h-2.61l6.18,52.76-38.89,66.25,0,.64-.37,6.26,3.08-1.54h0l1.11.77,1.85,1.29.2.14,1.87,1.3,2,1.36,11.51,8,2.61,1.81,0,.19-.51,5.58-.16,1.77-10.07,1h0l-8.14.83-32.75,3.33-.52-2.63-1.46-7.33h0l-.2-1,7-3.54-7.22,2.69-5,1.85-43.35,16.08h0L361.43,669l-.29.12-.27.11a20.55,20.55,0,0,0-5.54,3.49h0A20.89,20.89,0,0,0,348.65,692.77Z"/><path class="cls-1" d="M453.49,366.86a34,34,0,0,0,.38,5.07l0,.2.44,2.27,5,25.79.35,1.77a23.39,23.39,0,0,0,16.08,17.17h0a41.32,41.32,0,0,0,22.28,0h0A23.39,23.39,0,0,0,514.58,399l4.78-24.44.5-2.54V372a32.91,32.91,0,0,0,.39-5.1,33.39,33.39,0,1,0-66.77,0Z"/><polygon class="cls-1" points="335.78 890.16 335.78 902.01 350.99 902.01 350.99 887.67 379.76 874.05 384.82 871.65 393.51 863.15 393.29 862.29 377.19 862.29 369.95 876.78 335.78 890.16"/><path class="cls-1" d="M343.21,692.77c.05.32.12.64.19,1l32.48,162,15.45-.83L352.18,706.18l-3-11.47a.7.7,0,0,1,0-.11.53.53,0,0,0,0-.12.53.53,0,0,1,0-.12l0-.05s0,0,0-.06c-.13-.45-.24-.89-.34-1.34l0-.14a20.89,20.89,0,0,1,6.68-20h0a20.55,20.55,0,0,1,5.54-3.49l.08,0,.19-.07.2-.08.09,0,8.71-3.84L357,670.07l-.16.06-1.76.65A20.08,20.08,0,0,0,343.21,692.77Z"/><path class="cls-1" d="M454.59,626.6l-.49.76,4.72,2.72,1,.56.76.44.63.36,5.76,3.32,2.11,1.78L473.1,640l.24.2,4.67,3.95,5.48-7.61,5.51-7.66v0l2.23-3.07,8.27-11.48,5.06-7L529.22,573v0a18,18,0,0,0,3.17-10.24c0-.4,0-.79,0-1.18a1.27,1.27,0,0,0,0-.2l-2.52-44.5-1.33-23.66L527,465.91l-.05-.77a34.46,34.46,0,0,0-68.8.83h0l-9.33,160.35,38.89-66.25-6.18-52.76h2.61l12.2,52.63Z"/><path class="cls-1" d="M497.74,626.18l2.66.16,35.91,2.18,4.33.28-5.15-53.27L510.8,608.67,500.14,623Z"/><polygon class="cls-1" points="357.57 890.21 357.57 902.01 436.12 902.01 436.12 862.29 398.95 862.29 391.74 876.82 379.76 881.51 357.57 890.21"/><path class="cls-1" d="M357.4,694.09h0l.6,2.44v0l.32,1.26v0l.22.92,2.19,8.84.41,1.65L364,721l33.32,134.82,21.74-1.17.6,0,21,1.2-27.2-144.58L434.88,707h0l70.61-11.65h0a44.59,44.59,0,0,0,37.08-44c0-1.33-.06-2.65-.17-3.95v0l-.09-.84-1-10.06H490l-1.11,1.5-9.28,12.45-.86-.59,0,1.79-.2,8.31-23.94,1.66-38.14,2.65-1.23-6.37-1.28-6.65-39.3,17.05-4.72,2h0l-.51.19-.1,0-1,.43a15,15,0,0,0-1.44.74,20,20,0,0,0-10,14.84,19.72,19.72,0,0,0,.41,7.43Z"/><polygon class="cls-1" points="418.72 648.11 418.92 649.13 420.37 656.47 420.88 659.1 453.63 655.76 461.77 654.93 471.84 653.91 472 652.14 472.51 646.56 472.53 646.37 469.92 644.56 458.41 636.54 456.45 635.18 454.58 633.88 454.38 633.74 452.52 632.45 451.42 631.67 451.41 631.67 448.33 633.22 447.83 633.48 441.73 636.54 441.72 636.54 429.91 642.49 425.75 644.57 418.72 648.11"/></g><g id="Capa_5" data-name="Capa 5"><rect class="cls-3" width="1300" height="1000"/></g></svg>