<svg id="Capa_3" data-name="Capa 3" xmlns="http://www.w3.org/2000/svg" viewBox="0 0 1300 1000"><defs><style>.cls-1{fill:#fff;}</style></defs><title>sit-side-left--second-quadrant</title><polygon class="cls-1" points="236.71 638.64 232.25 632.37 245.02 622.89 258.44 616.6 263.53 625.1 260.64 626.83 258 628.44 238.21 640.31 236.71 638.64"/><path class="cls-1" d="M257.45,619.82l2.65,4.42-3.4,2h0l-16,9.59-2.05,1.23,0,0-3-4.16,2.18-1.62,8.42-6.26,5.71-2.67,5.43-2.55m2-6.44-4.09,1.92-5.43,2.54-5.71,2.68-.46.21-.4.3-8.42,6.25-2.18,1.62-3.94,2.92,2.84,4,3,4.17.16.23.2.21,2.75,3.07,3.56-2.09,2.05-1.23,16-9.59,5.89-3.53h0L267,626l-2.57-4.28-2.65-4.42-2.32-3.88Z"/><polygon class="cls-1" points="84.37 639.25 63.39 626.67 63.4 626.65 60.82 625.1 65.91 616.6 79.33 622.89 92.1 632.37 87.64 638.64 86.16 640.28 84.37 639.25"/><path class="cls-1" d="M66.9,619.82l5.43,2.55L78,625l8.42,6.26,2.18,1.62-3,4.16,0,0-2-1.23-16-9.59h0l-3.4-2,2.65-4.42m-2-6.44-2.32,3.88L60,621.68,57.39,626l2.94,1.77,4.73,2.85,16,9.59,2,1.23,3.53,2.11,2.75-3.06.2-.21.19-.26,3-4.17,2.83-4-3.93-2.92-2.18-1.62L81,621l-.41-.3-.45-.21-5.71-2.68L69,615.3l-4.09-1.92Z"/><polygon class="cls-1" points="253.21 862.02 253.21 862.01 216.53 862.01 216.32 859.62 215.61 850.73 239.54 849.35 263.29 850.7 263.41 862.02 253.21 862.02"/><path class="cls-1" d="M239.54,851.85l21.27,1.22.07,6.45H218.82v-.08l-.51-6.36,21.23-1.22m0-5-.29,0L218,848.08l-5.1.3.41,5.09.5,6.35V860l.41,4.56h51.69l-.06-5.06-.07-6.45-.05-4.67-4.66-.27-21.28-1.21-.28,0Z"/><path class="cls-1" d="M206.61,639.5l-89.52,0H96L97.73,627l2-.17c.47,0,2.09-.14,4.52-.28,14.23-.89,57.08-3.46,57.52-3.49h.15L226.31,627,228,639.5Z"/><path class="cls-1" d="M161.92,625.54,219.33,629l4.78.29,1,7.68H206.61l-89.51,0H98.86l1.07-7.67,4.47-.29c14.39-.9,57.52-3.48,57.52-3.48m0-5-.3,0c-.44,0-43.3,2.59-57.53,3.48-2.76.17-4.09.25-4.56.29l-4,.33-.55,4-1.07,7.67L93.12,642h24l89.51,0h24.26l-.76-5.67-1-7.68-.55-4.07-4.1-.25-4.79-.29-57.41-3.49-.3,0Z"/><polygon points="235.09 636.35 257.07 623.17 269.8 635.41 280.17 673.18 266.96 681.1 235.09 636.35"/><path class="cls-1" d="M256.72,626.29l10.86,10.44L277.26,672l-9.6,5.75-7.14-10h0l-21.83-30.64,2.05-1.23,16-9.59m.71-6.25-3.28,2-16,9.59-2,1.22-4.64,2.78,3.14,4.41,21.7,30.47h0l.13.18,7.13,10,2.68,3.76,4-2.37,9.61-5.75,3.26-2-1-3.66-9.68-35.28-.37-1.33-1-1-10.86-10.44L257.43,620Z"/><path d="M76.75,627.2l-5.48-2.57-6.84-3.2-1-51.84c0-.85,0-1.7,0-2.56a99.83,99.83,0,0,1,2.93-24l13.08-68.35v-2.26h.79c.14-.45.28-.89.43-1.33s.38-1,.58-1.57a44.5,44.5,0,0,1,2-4.5c.44-.88.95-1.79,1.6-2.86.53-.88,1.14-1.8,1.79-2.72a44.85,44.85,0,0,1,5.25-6.15c.2-.21.41-.41.61-.6l.17-.17.44-.41.64-.63h.06l.74-.65c.18-.16.42-.37.71-.59l.79-.66.88-.68.88-.68L98,448l.46-.34c1.79-1.29,3.68-2.53,5.59-3.67.54-.33,1.12-.67,1.72-1,2.52-1.45,5.23-2.82,8.06-4.09,1.51-.68,3.18-1.37,4.93-2.06,1.19-.45,2.48-.92,4.06-1.46.94-.32,1.9-.63,2.9-.93.69-.22,1.45-.44,2.24-.66,2.24-.65,4.65-1.25,7.16-1.78,1-.21,1.94-.4,3-.6,1.68-.32,3.2-.57,4.68-.78,1-.15,2.13-.31,3.23-.43.51-.07,1.07-.13,1.64-.19a133.62,133.62,0,0,1,14.16-.74c2.82,0,5.7.08,8.56.25,1.37.08,2.72.18,4,.29l3.9.4c2.63.32,5.11.68,7.39,1.08,1.59.29,2.79.52,3.91.76l1.24.27,1.61.38c.55.12,1.1.26,1.64.39l1.14.3c.82.22,1.61.43,2.37.66l1.11.33c1,.29,1.95.59,2.9.91s1.85.62,2.75,1c1.45.52,3,1.11,4.45,1.72s2.72,1.18,4.06,1.82c.34.15.73.33,1.1.52.7.34,1.39.68,2.05,1,.29.13.63.32,1,.51l1.9,1.05.31.18.51.31.82.48.58.35,1,.64c.22.13.48.3.74.48l.65.41c.45.3.82.56,1.17.81l.18.13c.29.19.58.4.86.61l.31.23q.58.41,1.08.81l.4.31.56.44a1.79,1.79,0,0,0,.23.19l.15.14c.66.52,1.29,1.07,1.9,1.63l.14,0,.39.46a46.51,46.51,0,0,1,7.45,8.87l.89,1.45c.32.54.63,1.1.94,1.67l.3.56h0c.4.77.8,1.6,1.21,2.53a45.36,45.36,0,0,1,2.28,6.35h.55v2.26l.39,1.94,0,.06,0,.22L258.06,543A99.83,99.83,0,0,1,261,567c0,.86,0,1.71,0,2.57l-1,51.83-6.84,3.2-5.48,2.57-13.7,10.17-11-67.53-.21-2.62-3.92-36.47-.93,48.69,8.29,45.89L227,632l-65.07-4c-2.82.17-43.56,2.61-57.36,3.47l-4.42.29-3.13.26.94-6.61,8.61-46-.19-9.85-.75-38.86-3.93,36.57-.21,2.55-11,67.53Z"/><path class="cls-1" d="M161.77,431.76c2.9,0,5.7.09,8.41.25,1.35.08,2.68.18,4,.29s2.58.25,3.83.39q3.76.45,7.23,1.06c1.3.23,2.58.47,3.81.74l1.24.27,1.6.37,1.58.38,1.15.3c.76.2,1.52.41,2.25.63l1.1.32c1,.29,1.91.58,2.83.89s1.82.61,2.69.93c1.52.55,3,1.12,4.36,1.69s2.7,1.17,3.94,1.76c.36.16.71.33,1,.5.7.34,1.36.67,2,1,.33.16.64.33,1,.5l1.8,1,.84.5.82.48.78.48.75.47c.25.15.48.3.71.46l.69.44c.45.3.86.59,1.26.87s.78.56,1.14.82.7.51,1,.76l.45.35.42.33.39.33c.89.71,1.5,1.27,1.86,1.61l.24.23.07.08a.11.11,0,0,1,.05,0h0a43.8,43.8,0,0,1,7.16,8.49c.28.45.56.9.83,1.36s.61,1.05.9,1.59h0c.52.95,1,1.93,1.43,2.92a42.84,42.84,0,0,1,2.61,7.83h0l.05.26.42,2.09s0,.06,0,.1l13.13,65.62v0A96.75,96.75,0,0,1,258.49,567c0,.84,0,1.67,0,2.51l-1,50.28L252,622.36,246.31,625l-8.42,6.25-2.18,1.62-10.36-63.37-.2-2.51-2.52-23.43-2.18-20.29-1.24-11.57h-2.62l-.25,13.53L216,543.6l-.49,25.94-.19,10.11,8.31,46,.49,3.66-4.78-.29-57.41-3.49S118.8,628.12,104.4,629l-4.47.29.48-3.4,8.65-46.27-.19-10.1-.5-25.94L108,526.22l-.28-14.3h-2.61l-.21,1.8-1,9.59-2.18,20.29L99.2,567l-.2,2.51L88.64,632.91l-2.18-1.62L78,625l-5.71-2.68-5.43-2.54-1-50.28c0-.84,0-1.67,0-2.51a96.75,96.75,0,0,1,2.86-23.43v0l13.14-68.69h.18c.27-1,.57-2,.91-3,.17-.5.35-1,.54-1.48a41.8,41.8,0,0,1,1.9-4.26c.47-.93,1-1.82,1.52-2.71s1.1-1.74,1.69-2.57a42.06,42.06,0,0,1,5-5.84c.18-.19.37-.37.55-.54l.56-.53h0l0,0,.06-.06.23-.22c.23-.21.58-.54,1.06-.95.19-.17.4-.35.64-.54l.74-.62.88-.68c.34-.27.72-.55,1.12-.85l.41-.3c1.49-1.07,3.3-2.29,5.42-3.56.54-.33,1.09-.65,1.66-1,2.29-1.31,4.91-2.66,7.86-4q2.27-1,4.82-2c1.27-.49,2.59-1,4-1.43.91-.31,1.84-.61,2.81-.9.71-.23,1.44-.44,2.19-.65q3.33-1,7-1.74c.95-.21,1.92-.4,2.91-.59,1.48-.28,3-.54,4.56-.76,1-.15,2.09-.3,3.16-.42l1.63-.19a129.43,129.43,0,0,1,13.89-.73m0-5a136.21,136.21,0,0,0-14.43.75l-1.69.2c-1.17.13-2.3.3-3.28.44-1.5.21-3.06.47-4.77.79-.93.18-2,.39-3.06.62-2.52.54-5,1.15-7.32,1.82-.7.2-1.48.42-2.29.68-1,.29-1.92.6-2.93.94-1.64.56-3,1-4.15,1.5-1.8.7-3.51,1.41-5.07,2.12a90.46,90.46,0,0,0-8.29,4.2c-.62.34-1.21.69-1.79,1-1.93,1.16-3.87,2.43-5.73,3.76l-.51.38-.21.16c-.33.25-.65.48-1,.72l-.49.38-.33.25-.08.07-.08.06-.51.42-.23.2c-.26.2-.51.42-.77.65h-.13l-1.3,1.29h0c-.18.15-.34.31-.51.47l-.16.15-.66.66A46.32,46.32,0,0,0,84.53,458c-.69,1-1.32,1.93-1.89,2.88-.68,1.11-1.22,2.07-1.7,3a48.37,48.37,0,0,0-2.11,4.72c-.17.44-.33.87-.47,1.29H76.87v4.53l-13,68.05a102.23,102.23,0,0,0-3,24.58c0,.88,0,1.74,0,2.62l1,50.27L62,623l2.82,1.31,5.43,2.54,5.25,2.47,8,5.95,2.18,1.62,6.59,4.9,1.32-8.11,10.32-63.1.16,8.6L95.49,625l0,.11v.11l-.48,3.4-.88,6.21,6.25-.53c.42,0,2.25-.15,4.36-.28,13.6-.85,53.34-3.23,57.21-3.46L219,634l4.78.29,6.06.37-.8-6-.49-3.66,0-.11,0-.11-8.22-45.53.16-8.51,10.3,63,1.32,8.11,6.59-4.9,2.18-1.62,8-5.95,5.25-2.47,5.43-2.54,2.82-1.31.06-3.12,1-50.28c0-.87,0-1.73,0-2.61a102,102,0,0,0-3-24.61L247.4,477a1.89,1.89,0,0,0-.05-.23L247,475V470.5h-1.2a49.08,49.08,0,0,0-1.85-4.86c-.34-.76-.67-1.47-1-2.12v0l-.59-1.12c-.33-.6-.67-1.2-1-1.78s-.58-1-.88-1.44l0,0,0,0a49.17,49.17,0,0,0-7.87-9.36l-.07-.07h0l-.39-.37c-.65-.61-1.34-1.21-2.1-1.82l-.11-.09-.07-.06-.08-.07-.05,0c-.21-.18-.45-.37-.7-.55l-.05,0-.28-.22c-.39-.31-.79-.6-1.15-.87l-.3-.21c-.29-.22-.6-.44-.92-.66l-.15-.1c-.37-.27-.76-.54-1.19-.82l0,0,0,0-.23-.15-.39-.25c-.27-.19-.55-.36-.82-.53l-.77-.48-.23-.14-.62-.39-.8-.47-.54-.31-.28-.17-.08-.05-.09-.05-1.82-1c-.35-.19-.71-.39-1.08-.57-.61-.32-1.27-.65-2.06-1-.38-.19-.77-.38-1.17-.56-1.38-.65-2.73-1.25-4.1-1.83-1.55-.64-3.09-1.23-4.59-1.78-.87-.32-1.84-.65-2.84-1s-2.13-.68-3-.92c-.2-.07-.43-.13-.67-.2l-.43-.13c-.71-.21-1.5-.43-2.41-.67l-.1,0-1.08-.28-1.71-.41-.77-.18-.84-.19h-.06l-1.23-.27c-1.12-.25-2.35-.49-4-.78-2.33-.41-4.85-.78-7.51-1.1-1.3-.15-2.63-.28-4-.4-1.52-.13-2.86-.23-4.15-.31-2.9-.17-5.83-.25-8.7-.25Z"/><polygon points="44.17 673.18 54.54 635.41 67.27 623.17 89.26 636.35 57.39 681.1 44.17 673.18"/><path class="cls-1" d="M67.63,626.29l16,9.59,2,1.23L63.83,667.75h0l-7.13,10L47.09,672l9.68-35.29,10.86-10.44M66.92,620l-2.76,2.65L53.31,633.13l-1,1L52,635.41l-9.68,35.28-1,3.66,3.26,2,9.6,5.75,4,2.37,2.68-3.76,7.13-10,.13-.17h0L89.73,640l3.14-4.41-4.65-2.78-2-1.23L70.2,622l-3.28-2Z"/><path d="M161.88,426.16a43.06,43.06,0,0,1-11.9-1.65l-1.74-.56v0a25.77,25.77,0,0,1-16.54-21.53l-5.28-27a36.91,36.91,0,0,1-.42-5.54,35.88,35.88,0,1,1,71.36,5.4l-.06.38-5.4,28-.34,1.78a26,26,0,0,1-16,18.48v0l-1.74.57A43,43,0,0,1,161.88,426.16Z"/><path class="cls-1" d="M161.88,336.47a33.38,33.38,0,0,1,33.38,33.38,33.8,33.8,0,0,1-.38,5.07l0,.2-.44,2.28-5,25.78L189.1,405A23.4,23.4,0,0,1,173,422.12h0a41.36,41.36,0,0,1-22.29,0h0A23.4,23.4,0,0,1,134.18,402l-4.78-24.44-.5-2.53,0-.09a34.2,34.2,0,0,1-.38-5.1,33.39,33.39,0,0,1,33.38-33.38m0-5a38.42,38.42,0,0,0-38.38,38.38,39.35,39.35,0,0,0,.44,5.86v.13l0,.09V376l.5,2.54,4.74,24.21a28.22,28.22,0,0,0,16.51,22.83v.19l3.48,1.12a46.2,46.2,0,0,0,25.33,0l3.48-1.12v-.2A28.4,28.4,0,0,0,194,406.07l0-.08v-.08l.35-1.78,5-25.79.42-2.2a3.45,3.45,0,0,0,.09-.55,37.85,37.85,0,0,0,.43-5.74,38.43,38.43,0,0,0-38.38-38.38Z"/><polygon class="cls-1" points="60.6 862.02 60.73 850.7 84.48 849.35 108.4 850.73 107.68 859.73 107.48 862.01 70.81 862.01 68.31 862.02 60.6 862.02"/><path class="cls-1" d="M84.48,851.85l21.23,1.22-.51,6.36v.08H63.13l.07-6.45,21.28-1.22m0-5-.29,0-21.27,1.21-4.67.27,0,4.67-.07,6.45-.05,5.06h51.69l.4-4.56v-.09l.51-6.39.41-5.09-5.11-.3-21.23-1.22-.28,0Z"/><path d="M205.57,718.83l-40.5-24.59h-6.13l-40.5,24.59L108,855.71l-23.54-1.36-21.21,1.22H60.68v-2.52L62,704.33a21.34,21.34,0,0,1,2.46-9.8l14.17-29.61,17.76-28.64v-1.79H227.65v1.8l17.75,28.64,14.2,29.65a21.47,21.47,0,0,1,2.44,9.76l1.3,151.24h-2.6l-21.2-1.22L216,855.71Z"/><path class="cls-1" d="M162,637h63.14l18,29.14,14.15,29.52a19.08,19.08,0,0,1,2.19,8.7l1.28,148.72h0l-21.27-1.22-21.23,1.22L208,717.36l-42.18-25.61h-7.57l-42.17,25.61L105.71,853.07l-21.23-1.22L63.2,853.07h0l1.29-148.72a18.83,18.83,0,0,1,2.19-8.7l14.14-29.52L98.87,637H162m0-5H93.87v3.58L76.56,663.49l-.14.23-.12.25L62.2,693.41a23.94,23.94,0,0,0-2.72,10.91L58.19,853l0,5h5.34l21-1.2,20.94,1.2,4.9.28.38-4.89L120.84,720.3l38.8-23.56h4.73l38.81,23.56,10.14,133.15.38,4.89,4.9-.28,20.94-1.2,21,1.2h5.33l0-5-1.28-148.72a24.29,24.29,0,0,0-2.72-10.9L247.71,664l-.12-.24-.14-.23-17.3-27.93V632H162Z"/><polygon points="107.69 857.01 107.69 900 103.95 900 30.74 911.23 25.73 900.02 25.76 900 22.98 900 22.62 899.19 58.82 872.91 60.96 868.63 60.97 868.62 65.8 858.93 65.8 857.02 68.3 857.01 107.69 857.01"/><path class="cls-1" d="M63.3,854.51v3.83l-4.41,8.84-.35.7-1.68,3.37L22.79,896l-3.29,2.39.74,1.64h5.52l35-25.42L63,870.11h0l5.28-10.58h36.89v40.3L104,900h6.24V854.51Z"/><polygon points="301.03 900 298.25 900 298.28 900.02 293.27 911.23 220.05 900 216.31 900 216.31 857.01 258.21 857.01 258.21 858.93 263.05 868.63 263.23 869 265.19 872.91 301.39 899.19 301.03 900"/><path class="cls-1" d="M301.22,896l-34.07-24.72-1.68-3.37-.36-.72h0l-4.39-8.81v-3.82h-46.9V900h6.24l-1.24-.19v-40.3h36.9L261,870.1h0l2.23,4.47,35,25.42h5.52l.73-1.64Z"/><polygon points="25.76 900 103.95 900 30.74 911.23 25.73 900.02 25.76 900"/><polygon points="298.28 900.02 293.27 911.23 220.05 900 298.25 900 298.28 900.02"/></svg>