<svg width="1300" height="1000" viewBox="0 0 1300 1000" fill="none" xmlns="http://www.w3.org/2000/svg">
<path d="M592.5 869.193L608.876 877.828C615.676 881.413 619.819 888.578 619.535 896.26L619.5 897.193H485.5V889.716C485.5 883.904 478.635 878.012 479.295 872.239V872.239L480.5 861.693L495.5 749.193L391.585 713.742C375.388 708.217 364.5 692.999 364.5 675.885V641.693L353 638.193C353 638.193 368.325 545.321 375.5 524.693C387.5 490.193 409.684 467.279 448.5 474.193C457.543 475.804 463.813 492.05 469.125 505.501C469.877 507.405 503 545.501 503 545.501L556 505.501L572 478.5C572 478.5 580.5 468.264 590.5 473C600 477.5 597 487.501 597 487.501C594.541 497.828 583.376 522.742 584.912 522.057C584.944 522.036 584.973 522.017 585 522.001C584.967 522.027 584.938 522.045 584.912 522.057C579.263 525.796 502.5 598.501 502.5 598.501L479.404 579.501C480.943 601.066 481.5 621.95 481.5 637.693L502.625 644.996C506.727 646.414 510.352 648.697 513.323 651.599C523.015 661.063 531.077 674.654 544.151 678.198L573.215 686.077C591.679 691.082 604.014 708.46 602.647 727.541L592.5 869.193Z" fill="white"/>
<path d="M606.29 883.649L585.5 875.133L597.537 724.563C598.678 710.288 589.571 697.197 575.791 693.303L484.5 667.503L559.321 718.481C569.153 725.179 574.098 737.054 571.925 748.751L549 872.193L566.227 878.369C571.856 880.387 575.749 885.555 576.134 891.523L576.5 897.193H612.5V892.903C612.5 888.844 610.047 885.188 606.29 883.649Z" fill="black"/>
<path d="M565.209 884.234L544 874.202L566.385 751.123C568.483 739.587 563.669 727.887 554.06 721.168L474 665.193L371.5 642.193V677.914C371.5 690.66 379.554 702.014 391.583 706.228L502.828 745.193L485.753 868.754V868.754C485.134 873.233 490.5 877.868 490.5 882.389V897.212H571L570.932 893.107C570.868 889.301 568.65 885.862 565.209 884.234Z" fill="black"/>
<path d="M387.499 512.693C373.592 542.67 361.5 636.193 361.5 636.193L473 660.193L514.181 670.607C515.226 670.871 516.173 669.921 515.904 668.877C513.474 659.427 506.362 651.886 497.071 648.908L473 641.193L410 617.193L419.311 553.578C419.42 552.835 420.057 552.284 420.808 552.284C421.71 552.284 422.411 553.069 422.311 553.966L415.5 614.693L476 636.193C476 536.452 461.797 498.212 455.019 485.642C453.001 481.898 449.464 479.434 445.285 478.642C432.855 476.284 404.655 475.715 387.499 512.693Z" fill="black"/>
<path d="M426.384 471.714C430.359 473.047 437.703 473.315 439.621 473.253C439.621 473.253 448.26 472.878 453.226 470.776C458.821 468.407 461.907 466.177 465.574 461.38C468.079 458.102 469.93 452.525 470.741 449.772C471.062 448.684 471.271 447.572 471.421 446.447L474.812 420.993C474.812 420.993 475.2 417.328 475.109 414.979C474.894 409.391 474.023 406.137 471.582 401.093C469.074 395.913 466.944 393.168 462.553 389.401C457.873 385.386 454.542 383.677 448.601 381.916C443.989 380.548 441.191 380.18 436.376 380.309C431.215 380.664 429.303 381.056 424.425 382.76C419.548 384.58 414.611 387.675 410.896 391.205C407.181 394.735 404.638 398.848 402.705 403.498C400.772 408.149 399.982 412.601 400.155 417.596C400.221 419.48 400.507 421.723 400.871 423.575L406.824 448.375C407.116 449.591 407.48 450.786 407.955 451.943C409.126 454.797 411.599 460.424 413.915 463.143C417.094 466.876 421.629 470.119 426.384 471.714Z" fill="white"/>
<path d="M428.291 465.902C431.632 467.067 437.802 467.309 439.413 467.256C439.413 467.256 446.669 466.94 450.839 465.114C455.537 463.057 458.126 461.118 461.202 456.944C463.255 454.156 464.781 449.454 465.483 447.006C465.785 445.95 465.98 444.869 466.118 443.78L468.918 421.78C468.918 421.78 469.24 418.589 469.161 416.542C468.974 411.676 468.24 408.841 466.183 404.445C464.071 399.931 462.278 397.538 458.586 394.252C454.651 390.751 451.85 389.258 446.858 387.718C442.982 386.522 440.631 386.199 436.586 386.306C432.252 386.609 430.646 386.949 426.55 388.427C422.455 390.007 418.311 392.698 415.194 395.768C412.077 398.838 409.945 402.417 408.327 406.466C406.708 410.514 406.049 414.39 406.2 418.741C406.257 420.381 406.5 422.336 406.808 423.949L411.793 445.372C412.068 446.553 412.41 447.715 412.86 448.841C413.873 451.377 415.905 456.109 417.808 458.424C420.483 461.678 424.296 464.508 428.291 465.902Z" fill="black"/>
<path d="M470.04 512.898L470 512.851C470.013 512.864 470.026 512.88 470.04 512.898L502.5 550.851L560 508.501L574 484.001C575.5 481.667 580 474.351 587.5 476.351C596.5 478.751 593 487.684 591.5 492.351L581.5 517.851L502.5 591.851L479 571.851C477.347 554.329 471.693 515.099 470.04 512.898Z" fill="black"/>
<path d="M567.954 444.983C568.182 442.231 570.598 440.186 573.35 440.414L608.23 443.308C610.982 443.537 613.028 445.953 612.8 448.705L607.259 515.475C607.031 518.227 604.615 520.273 601.863 520.044L566.982 517.15C564.231 516.922 562.185 514.506 562.413 511.754L567.954 444.983Z" fill="black"/>
<path d="M572.771 447.39C572.863 446.289 573.829 445.471 574.93 445.562L605.824 448.126C606.924 448.217 607.743 449.183 607.651 450.284L602.441 513.068C602.35 514.169 601.384 514.988 600.283 514.896L569.389 512.333C568.288 512.241 567.47 511.275 567.561 510.174L572.771 447.39Z" fill="white"/>
<path d="M575.43 451.624L604.331 454.022L600.113 504.848L571.213 502.45L575.43 451.624Z" fill="black"/>
</svg>
