<svg id="Capa_3" data-name="Capa 3" xmlns="http://www.w3.org/2000/svg" viewBox="0 0 1300 1000"><defs><style>.cls-1{fill:#fff;}</style></defs><title>sit-side-left--second-quadrant</title><polygon class="cls-1" points="260.1 624.24 256.7 626.28 256.72 626.29 240.74 635.88 238.69 637.11 238.66 637.08 235.71 632.92 237.89 631.3 246.31 625.04 252.02 622.37 257.45 619.83 260.1 624.24"/><path class="cls-1" d="M225.15,637H206.61l-89.51,0H98.86l1.07-7.67,4.47-.29c14.39-.9,57.52-3.48,57.52-3.48L219.33,629l4.78.29Z"/><path d="M128.9,372l.5,2.53C129.2,373.74,129,372.9,128.9,372Z"/><path d="M194.89,371.92l0,.2,0-.2Z"/><polygon points="267.58 636.73 277.26 672.02 267.65 677.77 260.52 667.76 260.52 667.75 238.69 637.11 240.74 635.88 256.72 626.29 267.58 636.73"/><polygon class="cls-1" points="64.25 624.24 67.65 626.28 67.63 626.29 83.61 635.88 85.66 637.11 85.68 637.08 88.64 632.92 86.46 631.3 78.04 625.04 72.33 622.37 66.9 619.83 64.25 624.24"/><path d="M258.49,567c0,.84,0,1.67,0,2.51l-1,50.28L252,622.36,246.31,625l-8.42,6.25-2.18,1.62-10.36-63.37-.2-2.51-2.52-23.43-2.18-20.29-1.24-11.57h-2.62l-.25,13.53L216,543.6l-.49,25.94-.19,10.11,8.31,46,.49,3.66-4.78-.29-57.41-3.49S118.8,628.12,104.4,629l-4.47.29.48-3.4,8.65-46.27-.19-10.1-.5-25.94L108,526.22l-.28-14.3h-2.61l-.21,1.8-1,9.59-2.18,20.29L99.2,567l-.2,2.51L88.64,632.91l-2.18-1.62L78,625l-5.71-2.68-5.43-2.54-1-50.28c0-.84,0-1.67,0-2.51a96.75,96.75,0,0,1,2.86-23.43v0l13.14-68.69h.18c.27-1,.57-2,.91-3,.17-.5.35-1,.54-1.48a41.8,41.8,0,0,1,1.9-4.26c.47-.93,1-1.82,1.52-2.71s1.1-1.74,1.69-2.57a42.06,42.06,0,0,1,5-5.84c.18-.19.37-.37.55-.54l.56-.53h0l0,0,.06-.06.23-.22c.23-.21.58-.54,1.06-.95.19-.17.4-.35.64-.54l.74-.62.88-.68c.34-.27.72-.55,1.12-.85l.41-.3c1.49-1.07,3.3-2.29,5.42-3.56.54-.33,1.09-.65,1.66-1,2.29-1.31,4.91-2.66,7.86-4q2.27-1,4.82-2c1.27-.49,2.59-1,4-1.43.91-.31,1.84-.61,2.81-.9.71-.23,1.44-.44,2.19-.65q3.33-1,7-1.74c.95-.21,1.92-.4,2.91-.59,1.48-.28,3-.54,4.56-.76,1-.15,2.09-.3,3.16-.42l1.63-.19a129.43,129.43,0,0,1,13.89-.73c2.9,0,5.7.09,8.41.25,1.35.08,2.68.18,4,.29s2.58.25,3.83.39q3.76.45,7.23,1.06c1.3.23,2.58.47,3.81.74l1.24.27,1.6.37,1.58.38,1.15.3c.76.2,1.52.41,2.25.63l1.1.32c1,.29,1.91.58,2.83.89s1.82.61,2.69.93c1.52.55,3,1.12,4.36,1.69s2.7,1.17,3.94,1.76c.36.16.71.33,1,.5.7.34,1.36.67,2,1,.33.16.64.33,1,.5l1.8,1,.84.5.82.48.78.48.75.47c.25.15.48.3.71.46l.69.44c.45.3.86.59,1.26.87s.78.56,1.14.82.7.51,1,.76l.45.35.42.33.39.33c.89.71,1.5,1.27,1.86,1.61l.24.23.07.08a.11.11,0,0,1,.05,0h0a43.8,43.8,0,0,1,7.16,8.49c.28.45.56.9.83,1.36s.61,1.05.9,1.59h0c.52.95,1,1.93,1.43,2.92a42.84,42.84,0,0,1,2.61,7.83h0l.05.26.42,2.09s0,.06,0,.1l13.13,65.62v0A96.75,96.75,0,0,1,258.49,567Z"/><polygon points="56.77 636.73 47.09 672.02 56.69 677.77 63.82 667.76 63.83 667.75 85.66 637.11 83.61 635.88 67.63 626.29 56.77 636.73"/><path d="M195.26,366.85a33.8,33.8,0,0,1-.38,5.07l0,.2-.44,2.28-5,25.78L189.1,402A23.4,23.4,0,0,1,173,419.12h0a41.36,41.36,0,0,1-22.29,0h0A23.4,23.4,0,0,1,134.18,399l-4.78-24.44-.5-2.53,0-.09a34.2,34.2,0,0,1-.38-5.1,33.38,33.38,0,0,1,66.76,0Z"/><polygon class="cls-1" points="68.31 859.52 68.31 859.51 105.19 859.51 105.2 859.42 105.71 853.07 84.48 851.85 63.2 853.07 63.13 859.52 68.31 859.52"/><path d="M260.82,853.07h0l-21.27-1.22-21.23,1.22L208,717.36l-42.18-25.61h-7.57l-42.17,25.61L105.71,853.07l-21.23-1.22L63.2,853.07h0l1.29-148.72a18.83,18.83,0,0,1,2.19-8.7l14.14-29.52L98.87,637H225.15l18,29.14,14.15,29.52a19.08,19.08,0,0,1,2.19,8.7Z"/><polygon points="225.15 636.96 225.15 636.98 206.61 636.98 162.01 636.97 206.92 636.96 225.15 636.96"/><polygon points="25.73 900.02 30.74 911.23 105.2 899.81 105.2 859.51 68.31 859.51 68.31 859.52 63.02 870.11 63.02 870.11 60.79 874.58 25.73 900.02"/><polygon class="cls-1" points="255.71 859.52 255.71 859.51 218.82 859.51 218.82 859.42 218.31 853.07 239.54 851.85 260.81 853.07 260.88 859.52 255.71 859.52"/><polygon points="162.01 636.97 117.4 636.98 98.87 636.98 98.87 636.96 117.1 636.96 162.01 636.97"/><polygon points="298.29 900.02 293.27 911.23 218.82 899.81 218.82 859.51 255.71 859.51 255.71 859.52 260.99 870.11 261 870.11 263.23 874.58 298.29 900.02"/></svg>