<svg width="1300" height="1000" viewBox="0 0 1300 1000" fill="none" xmlns="http://www.w3.org/2000/svg">
<path d="M608.376 881.635L592 873L602.493 704.69C603.664 685.903 591.579 668.842 573.468 663.714L543.327 655.18C530.414 651.524 522.523 637.985 512.839 628.693C509.827 625.803 506.146 623.559 501.986 622.22L478 614.5L475.5 554.501L498 575.001L582.5 497.001L593.5 462.501C593.5 462.501 595.333 452 586 448.001C575.5 443.501 569 452 569 452L546 485.001L499 518.501C499 518.501 466.933 482.284 466.5 480.501C464.075 470.501 456.05 453.777 448 452C409.5 443.5 389 468 377 502.5C369.825 523.128 355.5 616 355.5 616L367 619.5L365.669 651.168C364.967 667.894 374.755 683.289 390.2 689.749L496 734L480 865.5L478.795 876.045V876.045C478.135 881.819 485 887.711 485 893.522V901H619L619.035 900.066C619.319 892.385 615.176 885.22 608.376 881.635Z" fill="white"/>
<path d="M605.79 887.456L585 878.94L597.328 701.117C598.304 687.04 589.338 674.185 575.79 670.239L484 643.5L559.337 694.828C568.904 701.347 573.867 712.789 572.089 724.228L548.5 876L565.727 882.176C571.356 884.194 575.249 889.363 575.634 895.33L576 901H612V896.71C612 892.651 609.547 888.995 605.79 887.456Z" fill="black"/>
<path d="M564.709 888.041L543.5 878.009L566.512 725.647C568.233 714.248 563.271 702.871 553.745 696.378L472.5 641L371 619V655.898C371 668.061 378.343 679.019 389.591 683.644L502.328 730L485.158 872.548V872.548C484.613 877.07 490 881.701 490 886.256V901.018H570.5L570.432 896.914C570.368 893.108 568.15 889.669 564.709 888.041Z" fill="black"/>
<path d="M386.999 489.5C373.092 519.477 361 613 361 613L472.5 637L513.681 647.414C514.726 647.678 515.673 646.727 515.404 645.684C512.974 636.234 505.862 628.693 496.571 625.715L472.5 618L409.5 594L418.811 530.385C418.92 529.642 419.557 529.091 420.308 529.091C421.21 529.091 421.911 529.876 421.811 530.772L415 591.5L473.5 614C473.5 516.539 461.047 477.246 454.67 463.515C452.613 459.087 448.627 456.092 443.814 455.274C430.938 453.086 403.722 453.455 386.999 489.5Z" fill="black"/>
<path d="M425.885 451.524C429.86 452.857 437.205 453.126 439.123 453.063C439.123 453.063 447.761 452.689 452.727 450.587C458.323 448.218 461.409 445.988 465.076 441.19C467.581 437.912 469.431 432.336 470.243 429.583C470.564 428.495 470.773 427.382 470.923 426.257L474.314 400.803C474.314 400.803 474.701 397.139 474.611 394.789C474.395 389.202 473.525 385.948 471.083 380.904C468.576 375.723 466.445 372.978 462.055 369.212C457.375 365.197 454.043 363.488 448.103 361.726C443.491 360.359 440.693 359.991 435.877 360.12C430.717 360.475 428.804 360.867 423.927 362.57C419.049 364.39 414.112 367.486 410.397 371.016C406.682 374.545 404.139 378.659 402.206 383.309C400.274 387.96 399.484 392.412 399.656 397.407C399.723 399.29 400.009 401.534 400.372 403.385L406.325 428.185C406.617 429.401 406.981 430.596 407.456 431.753C408.628 434.608 411.1 440.235 413.416 442.954C416.596 446.687 421.131 449.93 425.885 451.524Z" fill="white"/>
<path d="M427.791 445.712C431.132 446.877 437.302 447.119 438.913 447.067C438.913 447.067 446.169 446.75 450.339 444.925C455.037 442.868 457.626 440.929 460.702 436.754C462.755 433.966 464.281 429.265 464.983 426.816C465.285 425.76 465.48 424.679 465.618 423.59L468.418 401.59C468.418 401.59 468.74 398.399 468.661 396.352C468.474 391.486 467.74 388.651 465.683 384.255C463.571 379.741 461.778 377.348 458.086 374.063C454.151 370.561 451.35 369.069 446.358 367.528C442.482 366.332 440.131 366.009 436.086 366.116C431.752 366.42 430.146 366.759 426.05 368.237C421.955 369.817 417.811 372.508 414.694 375.578C411.577 378.648 409.445 382.228 407.827 386.276C406.208 390.324 405.549 394.201 405.7 398.551C405.757 400.192 406 402.146 406.308 403.759L411.293 425.183C411.568 426.363 411.91 427.525 412.36 428.651C413.373 431.188 415.405 435.919 417.308 438.235C419.983 441.489 423.796 444.318 427.791 445.712Z" fill="black"/>
<path d="M467.047 488.557L467 488.5C467.015 488.516 467.031 488.535 467.047 488.557L498.5 526.5L549.5 489.5L571.5 457C573 454.667 577.5 450.4 583.5 452C589.5 453.6 588 463.334 586.5 468L577.5 493.5L498.5 567.5L475 547.5C473.349 530.004 468.691 490.866 467.047 488.557Z" fill="black"/>
<path d="M567.954 416.983C568.182 414.231 570.598 412.186 573.35 412.414L608.23 415.308C610.982 415.537 613.028 417.953 612.8 420.705L607.259 487.475C607.031 490.227 604.615 492.273 601.863 492.044L566.983 489.15C564.231 488.922 562.185 486.506 562.413 483.754L567.954 416.983Z" fill="black"/>
<path d="M572.771 419.39C572.863 418.289 573.829 417.471 574.93 417.562L605.824 420.126C606.924 420.217 607.743 421.183 607.651 422.284L602.442 485.068C602.35 486.169 601.384 486.988 600.283 486.896L569.389 484.333C568.288 484.241 567.47 483.275 567.561 482.174L572.771 419.39Z" fill="white"/>
<path d="M575.43 423.624L604.331 426.022L600.113 476.848L571.213 474.45L575.43 423.624Z" fill="black"/>
</svg>
