<svg id="Capa_3" data-name="Capa 3" xmlns="http://www.w3.org/2000/svg" viewBox="0 0 1300 1000"><defs><style>.cls-1{fill:#1e1e1c;}.cls-2{fill:#fff;}</style></defs><title>1-subject</title><polygon class="cls-1" points="223.72 862.29 221.16 862.29 221.16 862.29 223.72 862.29"/><polygon class="cls-1" points="223.74 862.29 223.72 862.29 223.72 862.28 223.74 862.29"/><polygon class="cls-1" points="199.41 862.29 186.56 862.29 186.56 862.29 199.41 862.29"/><polygon class="cls-1" points="221.16 862.29 221.16 862.29 207.63 862.29 207.64 862.27 221.16 862.29"/><polygon class="cls-1" points="199.41 862.29 180.57 862.29 180.57 862.28 186.56 862.29 199.41 862.29"/><polygon class="cls-1" points="223.72 862.29 207.63 862.29 207.64 862.27 221.16 862.29 223.72 862.29"/><polygon class="cls-1" points="242.39 698.76 240.22 707.59 239.81 709.25 236.91 721.03 236.89 721.02 239.79 709.25 240.2 707.6 242.39 698.76"/><polygon class="cls-1" points="242.93 696.55 242.62 697.84 242.62 697.81 242.93 696.55"/><polygon class="cls-1" points="242.39 698.76 240.22 707.59 239.81 709.25 236.91 721.03 236.89 721.02 239.79 709.25 240.2 707.6 242.39 698.76"/><polygon class="cls-1" points="180.04 659.1 147.3 655.77 139.15 654.94 139.15 654.93 147.3 655.76 180.04 659.1"/><polygon class="cls-1" points="182.03 649.14 180.56 656.47 180.04 659.1 180.56 656.47 182 649.13 182.03 649.14"/><path class="cls-1" d="M231.48,670.59l-.51-.19h0Z"/><path class="cls-1" d="M245.83,670.78l-1.76-.65A15.44,15.44,0,0,1,245.83,670.78Z"/><path class="cls-1" d="M231.48,670.59l-.51-.19h0Z"/><path class="cls-1" d="M242.39,698.76l-2.17,8.83-.41,1.66h0l.41-1.65Z"/><polygon class="cls-1" points="242.93 696.55 242.62 697.84 242.62 697.81 242.93 696.55"/><path class="cls-1" d="M243.54,694.09h0v0Z"/><polygon class="cls-2" points="182.03 649.14 180.56 656.47 180.56 656.47 182 649.13 182.03 649.14"/><path class="cls-2" d="M231.48,670.59l-.51-.19h0Z"/><polygon class="cls-2" points="242.39 698.76 240.22 707.59 239.81 709.25 236.91 721.03 236.89 721.02 239.79 709.25 240.2 707.6 242.39 698.76"/><polygon class="cls-2" points="242.93 696.55 242.62 697.84 242.62 697.81 242.93 696.55"/><polygon class="cls-1" points="147.3 655.76 147.3 655.77 139.15 654.94 139.15 654.93 147.3 655.76"/><polygon class="cls-1" points="199.41 862.29 164.8 862.29 164.8 862.27 180.57 862.28 186.56 862.29 199.41 862.29"/><path class="cls-2" d="M231.48,670.59l-.51-.19h0Z"/><path class="cls-2" d="M242.39,698.76l-2.17,8.83h0Z"/><polygon class="cls-2" points="242.93 696.55 242.62 697.84 242.62 697.81 242.93 696.55"/><path class="cls-2" d="M243.54,694.09h0v0Z"/><polygon class="cls-1" points="199.41 862.29 158.99 862.29 158.99 862.27 164.8 862.27 180.57 862.28 186.56 862.29 199.41 862.29"/><polygon class="cls-1" points="242.39 698.76 240.22 707.59 239.81 709.25 236.91 721.03 236.89 721.02 239.79 709.25 240.2 707.6 242.39 698.76"/><polygon class="cls-1" points="242.93 696.55 242.62 697.84 242.62 697.81 242.93 696.55"/><polygon class="cls-1" points="180.04 659.1 147.3 655.77 139.15 654.94 139.15 654.93 147.3 655.76 180.04 659.1"/><polygon class="cls-1" points="182.03 649.14 180.56 656.47 180.04 659.1 180.56 656.47 182 649.13 182.03 649.14"/><path class="cls-1" d="M231.48,670.59l-.51-.19h0Z"/><path class="cls-2" d="M252.27,692.77a.7.7,0,0,1,0,.14c-.1.45-.2.89-.34,1.34,0,0,0,0,0,.06a.09.09,0,0,1,0,.05l0,.12,0,.12,0,.11-3,11.47L209.59,854.87l15.45.83-1.32,6.58h-2.56l-13.52,0v0l-.22.87,8.69,8.49,5.06,2.4,28.77,13.62V902h-6.58v-11.8l-22.19-8.7-12-4.69L202,862.29H159l1.21-6.44,21-1.2.6,0,21.75,1.17L236.89,721h0l2.9-11.78.41-1.66,2.17-8.83.23-.92.31-1.29v0l.6-2.44v0A20.07,20.07,0,0,0,234,671.8a15,15,0,0,0-1.44-.74l-1-.43-.1,0-.47-.2h0l-4.72-2L187,651.29l-1.29,6.65-1.23,6.37-38.14-2.65L122.39,660l-.19-8.31,0-1.79-.85.59L112,638l-1.12-1.5H59.54l.74-7.73,4.33-.28,35.92-2.18,2.65-.16-2.4-3.23L90.12,608.67,65.43,575.53l5.67-58.64-2.53,44.5v.2c0,.39,0,.78,0,1.18A18,18,0,0,0,71.7,573v0l24.67,34.25,5.06,7,8.26,11.48,2.23,3.07v0l5.52,7.66,5.47,7.61,4.67-3.95.24-.2,4.07-3.46,2.1-1.78,5.76-3.32.63-.36.77-.44.95-.56,4.72-2.72-.48-.76-41.67-66.66,12.21-52.63h2.6l-6.17,52.76,38.88,66.25,0,.64.36,6.26-3.08-1.54h0l-1.1.77-1.86,1.29-.2.14-1.87,1.3-2,1.36-11.51,8-2.6,1.81v.19l.51,5.58.16,1.77,10.07,1h0l8.15.83L180,659.1l.52-2.63,1.47-7.33h0l.2-1-7-3.54,7.22,2.69,5,1.85,43.35,16.08h0l8.71,3.84.29.12.28.11a20.49,20.49,0,0,1,5.53,3.49h0A20.87,20.87,0,0,1,252.27,692.77Z"/><path class="cls-1" d="M147.44,366.86a32.72,32.72,0,0,1-.39,5.07,1.2,1.2,0,0,1,0,.2l-.44,2.27-5,25.79-.34,1.77a23.43,23.43,0,0,1-16.08,17.17h0a41.36,41.36,0,0,1-22.29,0h0A23.38,23.38,0,0,1,86.35,399l-4.79-24.44-.5-2.54V372a32.91,32.91,0,0,1-.39-5.1,33.39,33.39,0,0,1,66.78,0Z"/><polygon class="cls-1" points="265.14 890.16 265.14 902.01 249.93 902.01 249.93 887.67 221.16 874.05 216.1 871.65 207.41 863.15 207.63 862.29 223.74 862.29 230.97 876.78 265.14 890.16"/><path class="cls-1" d="M257.71,692.77c0,.32-.12.64-.19,1L225,855.7l-15.45-.83,39.16-148.69,3-11.47,0-.11,0-.12,0-.12a.09.09,0,0,0,0-.05s0,0,0-.06c.14-.45.24-.89.34-1.34a.7.7,0,0,0,0-.14,20.87,20.87,0,0,0-6.68-20h0a20.49,20.49,0,0,0-5.53-3.49l-.09,0-.19-.07-.19-.08-.1,0-8.71-3.84,13.14,4.87.15.06,1.76.65A20.06,20.06,0,0,1,257.71,692.77Z"/><path class="cls-1" d="M146.34,626.6l.48.76-4.72,2.72-.95.56-.77.44-.63.36L134,634.76l-2.1,1.78L127.82,640l-.24.2-4.67,3.95-5.47-7.61-5.52-7.66v0l-2.23-3.07-8.26-11.48-5.06-7L71.7,573v0a18,18,0,0,1-3.18-10.24c0-.4,0-.79,0-1.18v-.2l2.53-44.5,1.33-23.66L74,465.91l0-.77a34.46,34.46,0,0,1,68.8.83h0l9.33,160.35-38.88-66.25,6.17-52.76h-2.6l-12.21,52.63Z"/><path class="cls-1" d="M103.18,626.18l-2.65.16-35.92,2.18-4.33.28,5.15-53.27,24.69,33.14L100.78,623Z"/><polygon class="cls-1" points="243.35 890.21 243.35 902.01 164.8 902.01 164.8 862.29 201.97 862.29 209.18 876.82 221.16 881.51 243.35 890.21"/><path class="cls-1" d="M243.52,694.09h0l-.6,2.44v0l-.31,1.26v0l-.23.92-2.19,8.84-.41,1.65L236.89,721,203.57,855.84l-21.75-1.17-.6,0-21,1.2,27.21-144.58L166,707h0L95.39,695.37h0a44.59,44.59,0,0,1-37.08-44c0-1.33.06-2.65.17-3.95v0l.09-.84,1-10.06H110.9L112,638l9.28,12.45.85-.59,0,1.79.19,8.31,23.94,1.66,38.14,2.65,1.23-6.37,1.29-6.65,39.29,17.05,4.72,2h0l.51.19.1,0,1,.43a15,15,0,0,1,1.44.74,20.07,20.07,0,0,1,9.55,22.27Z"/><polygon class="cls-1" points="182.2 648.11 182 649.13 180.56 656.47 180.04 659.1 147.3 655.76 139.15 654.93 129.08 653.91 128.92 652.14 128.41 646.56 128.4 646.37 131 644.56 142.51 636.54 144.47 635.18 146.34 633.88 146.54 633.74 148.4 632.45 149.5 631.67 149.51 631.67 152.59 633.22 153.1 633.48 159.19 636.54 159.2 636.54 171.01 642.49 175.17 644.57 182.2 648.11"/></svg>