<svg width="1300" height="1000" viewBox="0 0 1300 1000" fill="none" xmlns="http://www.w3.org/2000/svg">
<path d="M592.5 872.194L608.876 880.829C615.676 884.414 619.819 891.579 619.535 899.261L619.5 900.194H485.5V882.194C481.77 882.194 478.871 878.946 479.295 875.24L480.5 864.694L495.5 752.194L391.585 716.743C375.388 711.218 364.5 696 364.5 678.886V644.694L353 641.194C353 641.194 368.325 548.322 375.5 527.694C387.5 493.194 409.684 470.28 448.5 477.194C457.543 478.805 463.813 495.051 469.125 508.502C469.877 510.406 503 548.502 503 548.502L556 508.502L572 481.501C572 481.501 580.5 471.265 590.5 476.001C600 480.501 597 490.502 597 490.502C594.541 500.829 583.376 525.743 584.912 525.058C584.944 525.037 584.973 525.018 585 525.002C584.967 525.028 584.938 525.046 584.912 525.058C579.263 528.797 502.5 601.502 502.5 601.502L479.404 582.502C480.943 604.067 481.5 624.951 481.5 640.694L502.625 647.997C514.221 652.005 522 662.925 522 675.194L573.215 689.078C591.679 694.083 604.014 711.461 602.647 730.542L592.5 872.194Z" fill="white"/>
<path d="M606.291 886.65L585.5 878.134L597.537 727.563C598.678 713.289 589.571 700.198 575.791 696.303L484.5 670.504L559.321 721.481C569.153 728.18 574.098 740.055 571.925 751.752L549 875.193L566.227 881.369C571.856 883.387 575.749 888.556 576.134 894.524L576.5 900.193H612.5V895.904C612.5 891.845 610.047 888.188 606.291 886.65Z" fill="black"/>
<path d="M565.209 887.233L544 877.201L566.385 754.121C568.483 742.586 563.669 730.885 554.06 724.167L474 668.192L371.5 645.192V680.912C371.5 693.658 379.554 705.012 391.583 709.226L502.828 748.192L485.753 871.752C485.355 874.633 487.593 877.201 490.5 877.201V900.21H571L570.932 896.105C570.868 892.3 568.65 888.86 565.209 887.233Z" fill="black"/>
<path d="M387.499 515.692C373.592 545.668 361.5 639.192 361.5 639.192L473 663.192L514.181 673.605C515.226 673.87 516.173 672.919 515.904 671.875C513.474 662.425 506.362 654.885 497.071 651.906L473 644.192L410 620.191L419.311 556.576C419.42 555.834 420.057 555.283 420.808 555.283C421.71 555.283 422.411 556.067 422.311 556.964L415.5 617.692L476 639.192C476 539.45 461.797 501.211 455.019 488.64C453.001 484.896 449.464 482.433 445.285 481.64C432.855 479.283 404.655 478.713 387.499 515.692Z" fill="black"/>
<path d="M426.384 474.713C430.359 476.046 437.703 476.314 439.621 476.252C439.621 476.252 448.26 475.878 453.226 473.776C458.821 471.407 461.907 469.176 465.574 464.379C468.996 459.901 471.196 451.134 471.196 451.134L474.812 423.992C474.812 423.992 475.2 420.327 475.109 417.978C474.894 412.391 474.023 409.136 471.582 404.092C469.074 398.912 466.944 396.167 462.553 392.4C457.873 388.385 454.542 386.676 448.601 384.915C443.989 383.547 441.191 383.18 436.376 383.308C431.215 383.664 429.303 384.056 424.425 385.759C419.548 387.579 414.611 390.675 410.896 394.204C407.181 397.734 404.638 401.847 402.705 406.498C400.772 411.148 399.982 415.6 400.155 420.595C400.221 422.479 400.507 424.722 400.871 426.574L407.262 453.2C407.262 453.2 410.736 462.41 413.915 466.143C417.094 469.875 421.629 473.118 426.384 474.713Z" fill="white"/>
<path d="M428.291 468.903C431.632 470.068 437.802 470.31 439.413 470.258C439.413 470.258 446.669 469.941 450.839 468.116C455.537 466.058 458.126 464.119 461.202 459.945C464.072 456.049 465.91 448.416 465.91 448.416L468.918 424.781C468.918 424.781 469.24 421.59 469.161 419.543C468.974 414.677 468.24 411.842 466.183 407.446C464.071 402.932 462.278 400.539 458.586 397.254C454.651 393.752 451.85 392.26 446.858 390.719C442.982 389.523 440.631 389.2 436.586 389.307C432.252 389.611 430.646 389.95 426.55 391.428C422.455 393.008 418.311 395.699 415.194 398.769C412.077 401.839 409.945 405.419 408.327 409.467C406.708 413.515 406.049 417.391 406.2 421.742C406.257 423.383 406.5 425.337 406.808 426.95L412.206 450.146C412.206 450.146 415.133 458.171 417.808 461.426C420.483 464.68 424.296 467.509 428.291 468.903Z" fill="black"/>
<path d="M470.04 515.897L470 515.85C470.013 515.863 470.026 515.879 470.04 515.897L502.5 553.85L560 511.5L574 487C575.5 484.667 580 477.35 587.5 479.35C596.5 481.75 593 490.684 591.5 495.35L581.5 520.85L502.5 594.85L479 574.85C477.347 557.328 471.693 518.098 470.04 515.897Z" fill="black"/>
<path d="M681.552 450.46L611.693 519.567L556.95 464.229L626.809 395.121L681.552 450.46Z" fill="white" stroke="black" stroke-width="7"/>
</svg>
