<svg id="Capa_3" data-name="Capa 3" xmlns="http://www.w3.org/2000/svg" viewBox="0 0 1300 1000"><defs><style>.cls-1{fill:#1e1e1c;}.cls-2{fill:#fff;}</style></defs><title>sit-side-left--third-quadrant</title><polygon class="cls-1" points="750.5 862.29 753.06 862.29 753.06 862.29 750.5 862.29"/><polygon class="cls-1" points="750.49 862.29 750.5 862.29 750.5 862.28 750.49 862.29"/><polygon class="cls-1" points="774.81 862.29 787.67 862.29 787.67 862.29 774.81 862.29"/><polygon class="cls-1" points="753.06 862.29 753.06 862.29 766.59 862.29 766.58 862.27 753.06 862.29"/><polygon class="cls-1" points="774.81 862.29 793.65 862.29 793.65 862.28 787.67 862.29 774.81 862.29"/><polygon class="cls-1" points="750.5 862.29 766.59 862.29 766.58 862.27 753.06 862.29 750.5 862.29"/><polygon class="cls-1" points="731.83 698.76 734.01 707.59 734.41 709.25 737.31 721.03 737.34 721.02 734.43 709.25 734.02 707.6 731.83 698.76"/><polygon class="cls-1" points="731.29 696.55 731.61 697.84 731.61 697.81 731.29 696.55"/><polygon class="cls-1" points="731.83 698.76 734.01 707.59 734.41 709.25 737.31 721.03 737.34 721.02 734.43 709.25 734.02 707.6 731.83 698.76"/><polygon class="cls-1" points="794.18 659.1 826.93 655.77 835.07 654.94 835.07 654.93 826.93 655.76 794.18 659.1"/><polygon class="cls-1" points="792.2 649.14 793.66 656.47 794.18 659.1 793.67 656.47 792.22 649.13 792.2 649.14"/><path class="cls-1" d="M742.74,670.59l.51-.19h0Z"/><path class="cls-1" d="M728.39,670.78l1.76-.65A15.44,15.44,0,0,0,728.39,670.78Z"/><path class="cls-1" d="M742.74,670.59l.51-.19h0Z"/><path class="cls-1" d="M731.83,698.76l2.18,8.83.4,1.66h0L734,707.6Z"/><polygon class="cls-1" points="731.29 696.55 731.61 697.84 731.61 697.81 731.29 696.55"/><path class="cls-1" d="M730.69,694.09h0v0Z"/><polygon class="cls-2" points="792.2 649.14 793.66 656.47 793.67 656.47 792.22 649.13 792.2 649.14"/><path class="cls-2" d="M742.74,670.59l.51-.19h0Z"/><polygon class="cls-2" points="731.83 698.76 734.01 707.59 734.41 709.25 737.31 721.03 737.34 721.02 734.43 709.25 734.02 707.6 731.83 698.76"/><polygon class="cls-2" points="731.29 696.55 731.61 697.84 731.61 697.81 731.29 696.55"/><polygon class="cls-1" points="826.93 655.76 826.93 655.77 835.07 654.94 835.07 654.93 826.93 655.76"/><polygon class="cls-1" points="774.81 862.29 809.42 862.29 809.42 862.27 793.65 862.28 787.67 862.29 774.81 862.29"/><path class="cls-2" d="M742.74,670.59l.51-.19h0Z"/><path class="cls-2" d="M731.83,698.76l2.18,8.83h0Z"/><polygon class="cls-2" points="731.29 696.55 731.61 697.84 731.61 697.81 731.29 696.55"/><path class="cls-2" d="M730.69,694.09h0v0Z"/><polygon class="cls-1" points="774.81 862.29 815.23 862.29 815.23 862.27 809.42 862.27 793.65 862.28 787.67 862.29 774.81 862.29"/><polygon class="cls-1" points="731.83 698.76 734.01 707.59 734.41 709.25 737.31 721.03 737.34 721.02 734.43 709.25 734.02 707.6 731.83 698.76"/><polygon class="cls-1" points="731.29 696.55 731.61 697.84 731.61 697.81 731.29 696.55"/><polygon class="cls-1" points="794.18 659.1 826.93 655.77 835.07 654.94 835.07 654.93 826.93 655.76 794.18 659.1"/><polygon class="cls-1" points="792.2 649.14 793.66 656.47 794.18 659.1 793.67 656.47 792.22 649.13 792.2 649.14"/><path class="cls-1" d="M742.74,670.59l.51-.19h0Z"/><path class="cls-2" d="M722,692.77l0,.14c.1.45.21.89.35,1.34a.15.15,0,0,0,0,.06l0,.05a.28.28,0,0,0,0,.12.53.53,0,0,0,0,.12.39.39,0,0,0,0,.11l3,11.47,39.15,148.69-15.45.83,1.32,6.58h2.56l13.52,0v0l.22.87-8.69,8.49-5.06,2.4-28.77,13.62V902h6.58v-11.8l22.19-8.7,12-4.69,7.21-14.53h43l-1.2-6.44-21-1.2-.6,0-21.75,1.17L737.34,721h0l-2.9-11.78-.4-1.66-2.18-8.83-.22-.92-.32-1.29v0l-.59-2.44v0a19.72,19.72,0,0,1-.41-7.43,20,20,0,0,1,10-14.84c.47-.27,1-.52,1.44-.74l1-.43.1,0,.47-.2h0l4.72-2,39.3-17.05,1.28,6.65,1.23,6.37,38.15-2.65L851.84,660l.19-8.31,0-1.79.86.59L862.21,638l1.11-1.5h51.37l-.75-7.73-4.33-.28c-7.9-.49-23.19-1.41-35.91-2.18l-2.66-.16,2.4-3.23,10.66-14.28,24.7-33.14-5.67-58.64,2.52,44.5a1.27,1.27,0,0,1,0,.2c0,.39,0,.78,0,1.18A18,18,0,0,1,902.53,573v0l-24.66,34.25-5.06,7-8.27,11.48-2.23,3.07v0l-5.51,7.66-5.48,7.61-4.67-3.95-.23-.2-4.07-3.46-2.11-1.78-5.76-3.32-.63-.36-.76-.44-1-.56-4.73-2.72.49-.76,41.66-66.66-12.2-52.63h-2.61l6.18,52.76L822,626.32l0,.64-.36,6.26,3.07-1.54h0l1.11.77,1.85,1.29.2.14,1.87,1.3,2,1.36,11.51,8,2.61,1.81,0,.19-.5,5.58-.17,1.77-10.07,1h0l-8.14.83-32.75,3.33-.52-2.63-1.46-7.33h0l-.2-1,7-3.54-7.22,2.69-5,1.85-43.35,16.08h0L734.73,669l-.28.12-.28.11a20.55,20.55,0,0,0-5.54,3.49h0A20.89,20.89,0,0,0,722,692.77Z"/><path class="cls-1" d="M826.79,366.86a34,34,0,0,0,.38,5.07l0,.2.44,2.27,5,25.79L833,402A23.39,23.39,0,0,0,849,419.13h0a41.32,41.32,0,0,0,22.28,0h0A23.39,23.39,0,0,0,887.88,399l4.78-24.44.5-2.54,0-.08a34.2,34.2,0,0,0,.38-5.1,33.39,33.39,0,1,0-66.77,0Z"/><polygon class="cls-1" points="709.08 890.16 709.08 902.01 724.29 902.01 724.29 887.67 753.06 874.05 758.12 871.65 766.81 863.15 766.59 862.29 750.49 862.29 743.25 876.78 709.08 890.16"/><path class="cls-1" d="M716.51,692.77c.06.32.13.64.19,1l32.48,162,15.45-.83L725.48,706.18l-3-11.47a.39.39,0,0,1,0-.11.53.53,0,0,1,0-.12.28.28,0,0,1,0-.12l0-.05a.15.15,0,0,1,0-.06c-.14-.45-.25-.89-.35-1.34l0-.14a20.89,20.89,0,0,1,6.68-20h0a20.55,20.55,0,0,1,5.54-3.49l.08,0,.2-.07.19-.08.09,0,8.71-3.84-13.13,4.87-.16.06-1.76.65A20.08,20.08,0,0,0,716.51,692.77Z"/><path class="cls-1" d="M827.89,626.6l-.49.76,4.73,2.72,1,.56.76.44.63.36,5.76,3.32,2.11,1.78,4.07,3.46.23.2,4.67,3.95,5.48-7.61,5.51-7.66v0l2.23-3.07,8.27-11.48,5.06-7L902.52,573v0a18,18,0,0,0,3.17-10.24c0-.4,0-.79,0-1.18a1.27,1.27,0,0,0,0-.2l-2.52-44.5-1.33-23.66-1.55-27.32,0-.77a34.47,34.47,0,0,0-68.81.83h0L822,626.32l38.88-66.25-6.18-52.76h2.61l12.2,52.63Z"/><path class="cls-1" d="M871,626.18l2.66.16c12.72.77,28,1.69,35.91,2.18l4.33.28-5.14-53.27-24.7,33.14L873.44,623Z"/><polygon class="cls-1" points="730.87 890.21 730.87 902.01 809.42 902.01 809.42 862.29 772.25 862.29 765.04 876.82 753.06 881.51 730.87 890.21"/><path class="cls-1" d="M730.7,694.09h0l.59,2.44v0l.32,1.26v0l.22.92L734,707.6l.41,1.65L737.34,721l33.32,134.82,21.75-1.17.6,0,21,1.2L786.81,711.25,808.19,707h0l70.62-11.65h0a44.6,44.6,0,0,0,37.08-44c0-1.33-.06-2.65-.18-3.95v0l-.08-.84-1-10.06H863.32l-1.11,1.5-9.28,12.45-.86-.59,0,1.79-.19,8.31-23.94,1.66-38.15,2.65-1.23-6.37-1.28-6.65-39.3,17.05-4.72,2h0l-.51.19-.1,0-1,.43c-.49.22-1,.47-1.44.74a20,20,0,0,0-10,14.84,19.72,19.72,0,0,0,.41,7.43Z"/><polygon class="cls-1" points="792.02 648.11 792.22 649.13 793.67 656.47 794.18 659.1 826.93 655.76 835.07 654.93 845.14 653.91 845.31 652.14 845.81 646.56 845.83 646.37 843.22 644.56 831.71 636.54 829.75 635.18 827.88 633.88 827.68 633.74 825.83 632.45 824.72 631.67 824.71 631.67 821.64 633.22 821.13 633.48 815.03 636.54 815.02 636.54 803.21 642.49 799.05 644.57 792.02 648.11"/></svg>