<svg id="Capa_3" data-name="Capa 3" xmlns="http://www.w3.org/2000/svg" viewBox="0 0 1300 1000"><defs><style>.cls-1{fill:#1e1e1c;}.cls-2{fill:#fff;}</style></defs><title>sit-side-left-up--third-quadrant</title><polygon class="cls-1" points="677.97 780.29 680.53 780.29 680.53 780.29 677.97 780.29"/><polygon class="cls-1" points="677.96 780.29 677.97 780.29 677.97 780.28 677.96 780.29"/><polygon class="cls-1" points="702.28 780.29 715.14 780.29 715.14 780.29 702.28 780.29"/><polygon class="cls-1" points="680.53 780.29 680.53 780.29 694.06 780.29 694.05 780.27 680.53 780.29"/><polygon class="cls-1" points="702.28 780.29 721.12 780.29 721.12 780.28 715.14 780.29 702.28 780.29"/><polygon class="cls-1" points="677.97 780.29 694.06 780.29 694.05 780.27 680.53 780.29 677.97 780.29"/><polygon class="cls-1" points="659.3 616.76 661.48 625.59 661.88 627.25 664.78 639.03 664.81 639.02 661.9 627.25 661.49 625.6 659.3 616.76"/><polygon class="cls-1" points="658.76 614.55 659.08 615.84 659.08 615.81 658.76 614.55"/><polygon class="cls-1" points="659.3 616.76 661.48 625.59 661.88 627.25 664.78 639.03 664.81 639.02 661.9 627.25 661.49 625.6 659.3 616.76"/><polygon class="cls-1" points="721.65 577.1 754.4 573.77 762.54 572.94 762.54 572.93 754.4 573.76 721.65 577.1"/><polygon class="cls-1" points="719.67 567.14 721.13 574.47 721.65 577.1 721.14 574.47 719.69 567.13 719.67 567.14"/><path class="cls-1" d="M670.21,588.59l.51-.19h0Z"/><path class="cls-1" d="M655.86,588.78l1.76-.65A15.44,15.44,0,0,0,655.86,588.78Z"/><path class="cls-1" d="M670.21,588.59l.51-.19h0Z"/><path class="cls-1" d="M659.3,616.76l2.18,8.83.4,1.66h0l-.41-1.65Z"/><polygon class="cls-1" points="658.76 614.55 659.08 615.84 659.08 615.81 658.76 614.55"/><path class="cls-1" d="M658.15,612.09h0v0Z"/><polygon class="cls-2" points="719.67 567.14 721.13 574.47 721.14 574.47 719.69 567.13 719.67 567.14"/><path class="cls-2" d="M670.21,588.59l.51-.19h0Z"/><polygon class="cls-2" points="659.3 616.76 661.48 625.59 661.88 627.25 664.78 639.03 664.81 639.02 661.9 627.25 661.49 625.6 659.3 616.76"/><polygon class="cls-2" points="658.76 614.55 659.08 615.84 659.08 615.81 658.76 614.55"/><polygon class="cls-1" points="754.4 573.76 754.4 573.77 762.54 572.94 762.54 572.93 754.4 573.76"/><polygon class="cls-1" points="702.28 780.29 736.89 780.29 736.89 780.27 721.12 780.28 715.14 780.29 702.28 780.29"/><path class="cls-2" d="M670.21,588.59l.51-.19h0Z"/><path class="cls-2" d="M659.3,616.76l2.18,8.83h0Z"/><polygon class="cls-2" points="658.76 614.55 659.08 615.84 659.08 615.81 658.76 614.55"/><path class="cls-2" d="M658.15,612.09h0v0Z"/><polygon class="cls-1" points="702.28 780.29 742.7 780.29 742.7 780.27 736.89 780.27 721.12 780.28 715.14 780.29 702.28 780.29"/><polygon class="cls-1" points="659.3 616.76 661.48 625.59 661.88 627.25 664.78 639.03 664.81 639.02 661.9 627.25 661.49 625.6 659.3 616.76"/><polygon class="cls-1" points="658.76 614.55 659.08 615.84 659.08 615.81 658.76 614.55"/><polygon class="cls-1" points="721.65 577.1 754.4 573.77 762.54 572.94 762.54 572.93 754.4 573.76 721.65 577.1"/><polygon class="cls-1" points="719.67 567.14 721.13 574.47 721.65 577.1 721.14 574.47 719.69 567.13 719.67 567.14"/><path class="cls-1" d="M670.21,588.59l.51-.19h0Z"/><path class="cls-2" d="M649.42,610.77l0,.14c.1.45.21.89.34,1.34,0,0,0,0,0,.06l0,.05a.53.53,0,0,0,0,.12.53.53,0,0,1,0,.12.7.7,0,0,0,0,.11l3,11.47L692.1,772.87l-15.45.83,1.32,6.58h2.56l13.52,0v0l.22.87-8.69,8.49-5.06,2.4-28.77,13.62V820h6.58v-11.8l22.19-8.7,12-4.69,7.21-14.53h43l-1.21-6.44-21-1.2-.6,0-21.74,1.17L664.81,639h0l-2.9-11.78-.4-1.66-2.18-8.83-.22-.92-.32-1.29v0l-.6-2.44v0a19.72,19.72,0,0,1-.41-7.43,20,20,0,0,1,10-14.84,15,15,0,0,1,1.44-.74l1-.43.1,0,.47-.2h0l4.72-2,39.3-17.05,1.28,6.65,1.23,6.37,38.14-2.65L779.3,578l.2-8.31,0-1.79.86.59L789.68,556l1.11-1.49h51.37l-.75-7.73-4.33-.28-35.91-2.18-2.66-.16,2.4-3.23,10.66-14.28,24.69-33.14-5.66-58.64,2.52,44.5a1.27,1.27,0,0,1,0,.2c0,.39,0,.78,0,1.18A18,18,0,0,1,830,491v0l-24.66,34.25-5.06,7L792,543.78l-2.23,3.07v0l-5.51,7.66-5.48,7.61-4.67-3.95-.24-.2-4.06-3.46-2.11-1.78-5.76-3.32-.63-.36-.76-.44-1-.56-4.72-2.72.49-.76L797,477.94l-12.2-52.63h-2.61l6.18,52.76L749.5,544.32l0,.64-.37,6.26,3.08-1.54h0l1.11.77,1.85,1.29.2.14,1.87,1.3,2,1.36,11.51,8,2.61,1.81,0,.19-.5,5.58-.17,1.77-10.07,1h0l-8.14.83-32.75,3.33-.52-2.63-1.46-7.33h0l-.2-1,7-3.54-7.22,2.69-5,1.85-43.35,16.08h0L662.2,587l-.29.12-.27.11a20.55,20.55,0,0,0-5.54,3.49h0A20.89,20.89,0,0,0,649.42,610.77Z"/><path class="cls-1" d="M754.26,284.86a34,34,0,0,0,.38,5.07l0,.2.44,2.27,5,25.79.35,1.77a23.39,23.39,0,0,0,16.08,17.17h0a41.32,41.32,0,0,0,22.28,0h0A23.39,23.39,0,0,0,815.35,317l4.78-24.44.5-2.54,0-.08a34.2,34.2,0,0,0,.38-5.1,33.39,33.39,0,1,0-66.77,0Z"/><polygon class="cls-1" points="636.55 808.16 636.55 820.01 651.76 820.01 651.76 805.67 680.53 792.05 685.59 789.65 694.28 781.15 694.06 780.29 677.96 780.29 670.72 794.78 636.55 808.16"/><path class="cls-1" d="M644,610.77c0,.32.12.64.19,1l32.48,162,15.45-.83L653,624.18l-3-11.47a.7.7,0,0,1,0-.11.53.53,0,0,0,0-.12.53.53,0,0,1,0-.12l0-.05s0,0,0-.06c-.13-.45-.24-.89-.34-1.34l0-.14a20.89,20.89,0,0,1,6.68-20h0a20.55,20.55,0,0,1,5.54-3.49l.08,0,.19-.07.2-.08.09,0,8.71-3.84-13.13,4.87-.16.06-1.76.65A20.08,20.08,0,0,0,644,610.77Z"/><path class="cls-1" d="M755.36,544.6l-.49.76,4.72,2.72,1,.56.76.44.63.36,5.76,3.32,2.11,1.78,4.06,3.46.24.2,4.67,3.95,5.48-7.61,5.51-7.66v0l2.23-3.07,8.27-11.48,5.06-7L830,491v0a18,18,0,0,0,3.17-10.24c0-.4,0-.79,0-1.18a1.27,1.27,0,0,0,0-.2l-2.52-44.5-1.33-23.66-1.55-27.32-.05-.77a34.46,34.46,0,0,0-68.8.83h0L749.5,544.32l38.89-66.25-6.18-52.76h2.61L797,477.94Z"/><path class="cls-1" d="M798.51,544.18l2.66.16,35.91,2.18,4.33.28-5.15-53.27-24.69,33.14L800.91,541Z"/><polygon class="cls-1" points="658.34 808.21 658.34 820.01 736.89 820.01 736.89 780.29 699.72 780.29 692.51 794.82 680.53 799.51 658.34 808.21"/><path class="cls-1" d="M658.17,612.09h0l.6,2.44v0l.32,1.26v0l.22.92,2.19,8.84.41,1.65L664.81,639l33.32,134.82,21.74-1.17.6,0,21,1.2-27.2-144.58L735.65,625h0l70.61-11.65h0a44.6,44.6,0,0,0,37.09-44c0-1.33-.07-2.65-.18-3.95v0l-.09-.84-1-10.06H790.79L789.68,556l-9.28,12.46-.86-.59,0,1.79-.2,8.31-23.94,1.66-38.14,2.65L716,575.94l-1.28-6.65-39.3,17.05-4.72,2h0l-.51.19-.1,0-1,.43a15,15,0,0,0-1.44.74,20,20,0,0,0-10,14.84,19.72,19.72,0,0,0,.41,7.43Z"/><polygon class="cls-1" points="719.49 566.11 719.69 567.13 721.14 574.47 721.65 577.1 754.4 573.76 762.54 572.93 772.61 571.91 772.77 570.14 773.28 564.55 773.3 564.37 770.69 562.56 759.18 554.54 757.22 553.18 755.35 551.88 755.15 551.74 753.3 550.45 752.19 549.67 752.18 549.67 749.11 551.22 748.6 551.48 742.5 554.54 742.49 554.54 730.68 560.49 726.52 562.57 719.49 566.11"/></svg>