<svg width="1300" height="1000" viewBox="0 0 1300 1000" fill="none" xmlns="http://www.w3.org/2000/svg"><path d="m607.876 880.828-16.376-8.635 10.147-141.652c1.367-19.081-10.968-36.459-29.432-41.464l-29.064-7.879c-13.074-3.544-21.136-17.136-30.828-26.6a28.727 28.727 0 0 0-10.698-6.602l-21.125-7.303c0-51.667-6-158.691-33-163.5-38.816-6.914-61 16-73 50.5-7.175 20.628-22.5 113.5-22.5 113.5l11.5 3.5v34.192c0 17.113 10.888 32.331 27.085 37.857L494.5 752.193l-15 112.5-1.205 10.545c-.66 5.774 6.205 11.666 6.205 17.477v7.478h134l.035-.934a20 20 0 0 0-10.659-18.431Z" fill="#fff"/><path d="m605.29 886.649-20.79-8.516 12.037-150.57c1.141-14.275-7.966-27.366-21.746-31.26l-91.291-25.8 74.821 50.978a29.997 29.997 0 0 1 12.604 30.27L548 875.193l17.227 6.176a15 15 0 0 1 9.907 13.154l.366 5.67h36v-4.29a10 10 0 0 0-6.21-9.254Z" fill="#000"/><path d="M564.209 887.234 543 877.202l22.385-123.079a30 30 0 0 0-12.325-29.955L473 668.193l-102.5-23v35.721c0 12.746 8.054 24.1 20.083 28.314l111.245 38.965-17.075 123.561c-.619 4.479 4.747 9.114 4.747 13.635v14.823H570l-.068-4.105a10.001 10.001 0 0 0-5.723-8.873Zm-177.71-371.541c-13.907 29.977-25.999 123.5-25.999 123.5l111.5 24 41.181 10.414a1.42 1.42 0 0 0 1.723-1.73 28.396 28.396 0 0 0-18.833-19.969L472 644.193l-63-24 9.311-63.615a1.513 1.513 0 0 1 3 .388l-6.811 60.727 60.5 21.5c0-99.741-14.203-137.981-20.981-150.551-2.018-3.744-5.555-6.208-9.734-7-12.43-2.358-40.63-2.927-57.786 34.051Z" fill="#000"/><path d="M425.384 474.714c3.975 1.333 11.319 1.601 13.237 1.539 0 0 8.639-.375 13.605-2.477 5.595-2.369 8.681-4.599 12.348-9.396 2.505-3.278 4.356-8.855 5.167-11.608.321-1.088.53-2.2.68-3.325l3.391-25.454s.388-3.665.297-6.014c-.215-5.588-1.086-8.842-3.527-13.886-2.508-5.18-4.638-7.925-9.029-11.692-4.68-4.015-8.011-5.724-13.952-7.485-4.612-1.368-7.41-1.736-12.225-1.607-5.161.355-7.073.747-11.951 2.451-4.877 1.82-9.814 4.915-13.529 8.445-3.715 3.53-6.258 7.643-8.191 12.293-1.933 4.651-2.723 9.103-2.55 14.098.066 1.884.352 4.127.716 5.979l5.953 24.8a24.324 24.324 0 0 0 1.131 3.568c1.171 2.854 3.644 8.481 5.96 11.2 3.179 3.733 7.714 6.976 12.469 8.571Z" fill="#fff"/><path d="M427.291 468.902c3.341 1.165 9.511 1.407 11.122 1.354 0 0 7.256-.316 11.426-2.142 4.698-2.057 7.287-3.996 10.363-8.17 2.053-2.788 3.579-7.49 4.281-9.938.302-1.056.497-2.137.635-3.226l2.8-22s.322-3.191.243-5.238c-.187-4.866-.921-7.701-2.978-12.097-2.112-4.514-3.905-6.907-7.597-10.193-3.935-3.501-6.736-4.994-11.728-6.534-3.876-1.196-6.227-1.519-10.272-1.412-4.334.303-5.94.643-10.036 2.121-4.095 1.58-8.239 4.271-11.356 7.341-3.117 3.07-5.249 6.649-6.867 10.698-1.619 4.048-2.278 7.924-2.127 12.275.057 1.64.3 3.595.608 5.208l4.985 21.423a23.97 23.97 0 0 0 1.067 3.469c1.013 2.536 3.045 7.268 4.948 9.583 2.675 3.254 6.488 6.084 10.483 7.478Z" fill="#000"/></svg>