<svg id="Capa_3" data-name="Capa 3" xmlns="http://www.w3.org/2000/svg" viewBox="0 0 1300 1000"><defs><style>.cls-1{fill:none;stroke:#000;stroke-linejoin:round;stroke-width:8px;}.cls-2{fill:#fff;}</style></defs><title>sit-side-left-up--third-quadrant</title><line class="cls-1" x1="989.64" y1="648.4" x2="989.64" y2="900.21"/><line class="cls-1" x1="477.98" y1="648.4" x2="477.98" y2="900.21"/><rect class="cls-1" x="614.02" y="616.32" width="403.48" height="32.08" rx="4.05"/><path class="cls-1" d="M610.69,648.4,457.54,577.83a4.05,4.05,0,0,1-2-5.38l10-21.77a4.07,4.07,0,0,1,5.38-2L618,616.46"/><path class="cls-1" d="M768.78,857.47c-2.24,0-4-1.47-4-3.28V826.66c0-1.81,1.81-3.28,4-3.28H951.53c2.24,0,4.05,1.47,4.05,3.28v27.53c0,1.81-1.81,3.28-4.05,3.28Z"/><line class="cls-1" x1="948.13" y1="857.47" x2="948.13" y2="900.21"/><line class="cls-1" x1="928.34" y1="857.47" x2="928.34" y2="900.21"/><line class="cls-1" x1="792.17" y1="857.47" x2="792.17" y2="900.21"/><line class="cls-1" x1="772.39" y1="857.47" x2="772.39" y2="900.21"/><polyline class="cls-1" points="576.96 632.86 457.54 632.86 457.54 648.4"/><path class="cls-1" d="M457.54,900.21V648.4H1006a4.05,4.05,0,0,1,4.05,4.06V900.21"/><line class="cls-1" x1="614.02" y1="616.32" x2="598.75" y2="642.9"/><polygon class="cls-2" points="935.05 562.97 930.59 556.69 943.36 547.21 956.77 540.93 961.86 549.43 958.93 551.18 956.34 552.76 936.54 564.63 935.05 562.97"/><path class="cls-2" d="M955.79,544.15l2.64,4.42-3.39,2v0l-16,9.59-2,1.22,0,0-3-4.16,2.19-1.62,8.41-6.25,5.71-2.68,5.44-2.54m2-6.44-4.1,1.91-5.43,2.55-5.71,2.67-.45.21-.41.3-8.42,6.26-2.18,1.62-3.93,2.92,2.84,4,2.95,4.16.17.23.19.21,2.75,3.07,3.57-2.09,2-1.22,16-9.59,5.87-3.53h0l1.8-1.08L962.72,546l-2.64-4.42-2.32-3.87Z"/><path class="cls-2" d="M905,563.83l-89.52,0h-21.1l1.74-12.5,2-.16,4.51-.29c14.23-.89,57.09-3.46,57.52-3.48h.15l64.4,3.92,1.7,12.55Z"/><path class="cls-2" d="M860.25,549.86l57.41,3.49,4.79.3,1,7.68H905l-89.52,0H797.2l1.07-7.67c.47,0,2.07-.14,4.47-.28,14.39-.9,57.51-3.49,57.51-3.49m0-5-.3,0c-.43,0-43.29,2.6-57.53,3.49-2.77.16-4.09.25-4.56.29l-4,.32-.55,4-1.07,7.67-.8,5.69h24l89.52,0h24.26l-.77-5.67-1-7.68-.55-4.07-4.1-.26-4.78-.29-57.42-3.49-.3,0Z"/><path d="M825.3,299.48c-.22-.92-.4-1.84-.54-2.74l4.93-.86.5,2.54Z"/><path class="cls-2" d="M827.23,296.36l.5,2.54c-.2-.83-.37-1.68-.5-2.54m4.91-1-9.85,1.71c.15,1,.34,2,.58,3l9.77-2.14-.5-2.53Z"/><polygon points="891.13 296.06 890.73 296 890.73 295.97 891 293.82 893.21 293.75 896.24 293.75 895.65 296.85 895.61 297.04 891.13 296.06"/><path class="cls-2" d="M893.22,296.25l0,.11s0-.08,0-.11h0m0,.11s0,.06,0,.09l0-.09m6.08-5.11H888.72l-.48,4.46v-.09l2.48.42,7.3,1.62a2.59,2.59,0,0,0,.09-.42v-.05l1.15-5.94Z"/><polygon points="933.42 560.68 955.41 547.49 968.14 559.73 978.51 597.51 965.29 605.42 933.42 560.68"/><path class="cls-2" d="M955.05,550.62l10.86,10.44,9.68,35.28-9.6,5.75-7.13-10v0L937,561.43l2-1.22,16-9.59m.71-6.26-3.28,2-16,9.59-2,1.22-4.65,2.78,3.14,4.41,21.71,30.48h0l.13.18,7.13,10,2.68,3.76,4-2.37,9.6-5.75,3.26-2-1-3.66-9.69-35.29-.36-1.32-1-1L958.52,547l-2.76-2.65Z"/><polygon class="cls-2" points="782.71 563.58 761.77 551.02 761.78 551 759.15 549.43 764.25 540.93 777.66 547.21 790.43 556.69 785.97 562.97 784.5 564.61 782.71 563.58"/><path class="cls-2" d="M765.23,544.15l5.43,2.54,5.71,2.68,8.42,6.25,2.18,1.62-3,4.16,0,0-2-1.22-16-9.59,0,0-3.4-2,2.65-4.42m-2-6.44-2.32,3.87L758.29,546l-2.56,4.29,2.94,1.76,4.72,2.86,16,9.59,2,1.22,3.54,2.12,2.75-3.07.19-.21.19-.26,3-4.16,2.84-4L790,553.23l-2.19-1.62-8.42-6.26-.4-.3-.46-.21-5.71-2.67-5.43-2.55-4.09-1.91Z"/><path d="M921.2,494.16l-.21-2.61-3.92-36.47-.92,48.69,8.28,45.88.89,6.67-65.07-4c-2.82.16-43.55,2.6-57.36,3.47-2.37.14-3.95.24-4.41.28l-3.13.27.94-6.62,8.6-46-.19-9.84L804,455,800,491.62l-.2,2.54-11,67.54-13.69-10.17L769.6,549l-6.83-3.2-1-51.84c0-.85,0-1.7,0-2.56a99.19,99.19,0,0,1,2.94-24L777.7,399V396.7h.8c.14-.45.28-.89.43-1.33s.37-1.05.57-1.57a43.71,43.71,0,0,1,2-4.51c.45-.87,1-1.79,1.61-2.86.53-.88,1.13-1.8,1.79-2.72a44.62,44.62,0,0,1,5.28-6.18c.14-.16.37-.37.58-.57l.17-.17.4-.37.61-.67h.13c.2-.19.44-.41.73-.65s.43-.38.72-.6l.79-.66c.12-.09.69-.55.87-.68l.9-.68.22-.17.47-.34c1.78-1.28,3.66-2.52,5.58-3.67.55-.33,1.12-.66,1.72-1,2.53-1.45,5.25-2.82,8.06-4.08,1.51-.68,3.18-1.38,4.94-2.06,1.19-.46,2.48-.92,4-1.47,1-.32,1.91-.63,2.91-.93.69-.22,1.45-.44,2.23-.66,2.24-.64,4.66-1.24,7.16-1.78,1-.21,2-.4,3-.6,1.68-.31,3.21-.57,4.69-.78,1-.15,2.13-.3,3.23-.42l1.63-.2a133.9,133.9,0,0,1,14.16-.74c2.83,0,5.71.09,8.56.25q2.05.14,4.05.3c1.33.12,2.63.25,3.89.4,2.63.31,5.11.67,7.39,1.08,1.6.28,2.81.52,3.91.76l1.24.27,1.61.37c.56.13,1.11.26,1.64.4l1.18.3c.79.21,1.58.43,2.33.66l1.12.32c1,.29,2,.59,2.89.91s1.86.62,2.76.95c1.45.53,3,1.11,4.45,1.73s2.69,1.16,4.06,1.81l1.09.52c.7.34,1.39.69,2.06,1,.28.14.63.33,1,.52l1.9,1,.32.19.51.31c.28.15.54.31.81.47l.58.35,1,.64c.23.14.49.31.75.49l.64.41c.46.3.84.57,1.21.83l.15.1.88.63.29.22c.38.27.74.54,1.07.8l.4.31c.21.15.39.3.56.44s.18.15.22.2l.17.13c.65.52,1.29,1.07,1.89,1.63l.13.05.39.45a46.62,46.62,0,0,1,7.46,8.88c.34.53.62,1,.89,1.45s.64,1.1,1,1.68l.29.55h0c.41.77.81,1.61,1.22,2.54a46,46,0,0,1,2.27,6.34h.55v2.27l.39,1.95,0,.05,0,.2,13.11,65.54a99.25,99.25,0,0,1,2.93,24c0,.86,0,1.71,0,2.57l-1,51.83-6.84,3.2-5.48,2.58L932.24,561.7Z"/><path class="cls-2" d="M860.1,356.08c2.9,0,5.7.09,8.41.25,1.35.08,2.68.18,4,.29s2.58.25,3.83.39q3.76.45,7.23,1.06c1.3.23,2.58.47,3.81.74l1.24.27,1.6.37,1.58.38,1.15.3c.76.2,1.52.41,2.25.63l1.1.32c1,.29,1.91.58,2.83.89s1.82.61,2.69.93c1.52.55,3,1.12,4.36,1.69s2.7,1.17,3.94,1.76c.36.16.71.33,1,.5.7.34,1.36.67,2,1,.33.16.64.33,1,.5l1.8,1,.84.5.82.48.78.48.75.47c.25.15.48.3.71.46l.69.44c.45.3.86.59,1.26.87s.78.56,1.14.82.7.51,1,.76l.45.35.42.33.39.33c.89.71,1.5,1.27,1.86,1.61l.24.23.07.08a.11.11,0,0,1,0,0h0a43.8,43.8,0,0,1,7.16,8.49c.28.45.56.9.83,1.36s.61,1.05.9,1.59h0c.52.95,1,1.93,1.43,2.92a42.84,42.84,0,0,1,2.61,7.83h0l0,.26.42,2.09s0,.06,0,.1L954,467.89v0a96.75,96.75,0,0,1,2.86,23.43c0,.84,0,1.67,0,2.51l-1,50.29-5.43,2.54-5.71,2.68-8.42,6.25L934,557.24l-10.36-63.38-.2-2.51L921,467.92l-2.18-20.29-1.24-11.57h-2.62l-.25,13.53-.35,18.33-.49,25.94L913.64,504,922,550l.49,3.66-4.78-.29-57.41-3.49s-43.12,2.58-57.52,3.48l-4.47.29.48-3.4L807.39,504l-.19-10.1-.5-25.94-.34-17.38-.28-14.3h-2.61l-.21,1.8-1,9.59-2.18,20.29-2.52,23.43-.2,2.51L787,557.24l-2.18-1.62-8.42-6.25-5.71-2.68-5.43-2.54-1-50.29c0-.84,0-1.67,0-2.51a96.75,96.75,0,0,1,2.86-23.43v0L780.2,399.2h.18c.27-1,.57-2,.91-3,.17-.5.35-1,.54-1.48a41.8,41.8,0,0,1,1.9-4.26c.47-.93,1-1.82,1.52-2.71s1.1-1.74,1.69-2.57a42.06,42.06,0,0,1,5-5.84c.18-.19.37-.37.55-.54l.56-.53h0l0,0,.06-.06.23-.22c.23-.21.58-.54,1.06-.95.19-.17.4-.35.64-.54l.74-.62.88-.68c.34-.27.72-.55,1.12-.85l.41-.3c1.49-1.07,3.3-2.29,5.42-3.56.54-.33,1.09-.65,1.66-1,2.29-1.31,4.91-2.66,7.86-4q2.26-1,4.82-2c1.27-.49,2.59-1,4-1.43.91-.31,1.84-.61,2.81-.9.71-.23,1.44-.44,2.19-.65q3.33-1,7-1.74c.95-.21,1.92-.4,2.91-.59,1.48-.28,3-.54,4.56-.76,1-.15,2.09-.3,3.16-.42l1.63-.19a129.43,129.43,0,0,1,13.89-.73m0-5a136,136,0,0,0-14.42.76c-.58.06-1.14.12-1.7.2-1.16.13-2.3.29-3.28.43-1.49.21-3.06.47-4.77.8-.93.18-2,.38-3,.62-2.53.53-5,1.15-7.32,1.82-.7.19-1.49.42-2.29.68-1,.29-1.93.59-2.94.94-1.63.56-3,1-4.15,1.5-1.8.7-3.5,1.41-5.07,2.11-2.89,1.29-5.68,2.71-8.29,4.2-.62.35-1.21.69-1.78,1-1.94,1.16-3.88,2.44-5.73,3.77l-.52.38-.2.15c-.34.25-.66.49-1,.72l-.5.39-.33.25-.08.06-.08.07-.5.42-.24.2c-.25.2-.5.41-.76.64H791l-1.3,1.29h0l-.51.48-.15.15c-.22.2-.45.42-.67.65a47.6,47.6,0,0,0-5.52,6.47c-.68,1-1.32,1.94-1.89,2.88-.67,1.11-1.21,2.08-1.7,3a45.34,45.34,0,0,0-2.1,4.73c-.17.44-.33.86-.48,1.28H775.2v4.54l-13,68a101.8,101.8,0,0,0-3,24.58c0,.88,0,1.75,0,2.63l1,50.27.06,3.11,2.82,1.32,5.43,2.54,5.25,2.46,8,6,2.18,1.62,6.59,4.9,1.33-8.1,10.31-63.11.17,8.6-8.56,45.77,0,.11,0,.11-.48,3.4-.87,6.22,6.25-.54,4.36-.28c13.59-.85,53.33-3.23,57.2-3.46l57.11,3.47,4.78.29,6.07.37-.81-6-.49-3.66v-.11l0-.12-8.22-45.52.16-8.52,10.3,63,1.32,8.1,6.6-4.9,2.18-1.62,8-6,5.26-2.46,5.42-2.54,2.82-1.32.06-3.11,1-50.29q0-1.29,0-2.61a101.4,101.4,0,0,0-3-24.6l-13.09-65.42a1.57,1.57,0,0,0,0-.23l-.36-1.77v-4.51h-1.19a47.82,47.82,0,0,0-1.86-4.87c-.33-.76-.66-1.46-1-2.12v0l-.59-1.11c-.32-.6-.66-1.2-1-1.79s-.58-.95-.88-1.44l0,0,0,0a48.61,48.61,0,0,0-7.88-9.36.23.23,0,0,0-.07-.07v0c-.09-.09-.22-.22-.38-.36-.66-.62-1.35-1.22-2.11-1.82l-.1-.09-.08-.06-.07-.07,0,0c-.22-.19-.45-.37-.7-.55l-.06-.05-.28-.22c-.39-.31-.78-.6-1.15-.86l-.29-.22c-.3-.21-.6-.44-.93-.66l-.14-.1-1.19-.82,0,0,0,0-.24-.15-.38-.25c-.28-.19-.55-.36-.83-.53l-.77-.48-.22-.14-.63-.38-.8-.47-.53-.32-.28-.16-.09-.06-.09,0-1.81-1-1.08-.58c-.61-.32-1.27-.65-2.07-1l-1.16-.55c-1.39-.66-2.73-1.26-4.11-1.83-1.54-.64-3.08-1.24-4.58-1.78-.88-.32-1.84-.66-2.85-1s-2.12-.68-2.94-.93l-.68-.2-.43-.12c-.7-.21-1.49-.44-2.4-.68l-.11,0L893,355l-1.71-.42-.77-.17-.83-.2h-.06l-1.24-.27c-1.11-.24-2.35-.48-4-.77-2.33-.42-4.86-.79-7.51-1.1-1.31-.15-2.63-.29-4-.41-1.52-.13-2.86-.23-4.14-.3-2.91-.17-5.83-.26-8.71-.26Z"/><polygon points="742.51 597.51 752.88 559.73 765.61 547.49 787.6 560.68 755.72 605.42 742.51 597.51"/><path class="cls-2" d="M766,550.62l16,9.59,2,1.22-21.82,30.64v0l-7.13,10-9.61-5.75,9.69-35.28L766,550.62m-.7-6.26L762.5,547l-10.86,10.44-1,1-.37,1.32L740.6,595l-1,3.66,3.25,2,9.61,5.75,4,2.37L759.1,605l7.13-10,.12-.17h0l21.7-30.48,3.14-4.41-4.64-2.78-2-1.22-16-9.59-3.28-2Z"/><path d="M860.21,350.48a42.6,42.6,0,0,1-11.89-1.65l-1.74-.55v0A25.71,25.71,0,0,1,830,326.7l-5.28-27a35.89,35.89,0,1,1,70.93-.14,2.2,2.2,0,0,1-.06.37l-5.39,28-.35,1.78a25.91,25.91,0,0,1-16,18.47v0l-1.74.56A42.57,42.57,0,0,1,860.21,350.48Z"/><path class="cls-2" d="M860.21,260.79a33.39,33.39,0,0,1,33.39,33.39,32.72,32.72,0,0,1-.39,5.07.69.69,0,0,1,0,.2l-.44,2.27-5,25.78-.34,1.78a23.41,23.41,0,0,1-16.08,17.16h0a41.32,41.32,0,0,1-22.28,0h0a23.38,23.38,0,0,1-16.56-20.1l-4.79-24.44-.5-2.54v-.08a32.91,32.91,0,0,1-.39-5.1,33.39,33.39,0,0,1,33.38-33.39m0-5a38.43,38.43,0,0,0-38.38,38.39,38,38,0,0,0,.45,5.85v.3l.5,2.54,4.73,24.2a28.23,28.23,0,0,0,16.52,22.83v.19l3.48,1.12a46.16,46.16,0,0,0,25.32,0l3.48-1.11v-.2a28.39,28.39,0,0,0,15.95-19.51l0-.08,0-.07.34-1.78,5-25.79.43-2.21c0-.21.07-.39.09-.55a39.05,39.05,0,0,0,.43-5.73,38.43,38.43,0,0,0-38.39-38.39Z"/><polygon class="cls-2" points="758.94 786.34 759.06 775.03 782.81 773.67 806.74 775.05 806.01 784.06 805.81 786.33 769.14 786.33 766.64 786.34 758.94 786.34"/><path class="cls-2" d="M782.81,776.18,804,777.4l-.51,6.35v.08H761.47l.07-6.45,21.27-1.21m0-5h-.28l-21.28,1.22-4.66.27-.05,4.67-.07,6.45-.06,5.05H808.1l.41-4.55v-.09l.51-6.39.41-5.1-5.1-.29-21.23-1.23Z"/><path d="M903.91,643.16l-40.5-24.6h-6.14l-40.49,24.6L806.35,780l-23.54-1.35-21.2,1.22H759v-2.53l1.29-148.72a21.59,21.59,0,0,1,2.46-9.8L777,589.25,794.7,560.6v-1.79H926v1.8l17.75,28.65,14.21,29.65a21.55,21.55,0,0,1,2.43,9.75l1.31,151.25h-2.61l-21.2-1.22L914.34,780Z"/><path class="cls-2" d="M860.34,561.29h63.14l18,29.14L955.68,620a19.08,19.08,0,0,1,2.19,8.7l1.28,148.72h0l-21.27-1.22-21.23,1.22L906.3,641.69l-42.18-25.62h-7.57l-42.17,25.62L804,777.4l-21.23-1.22-21.28,1.22h0l1.29-148.72A18.83,18.83,0,0,1,765,620l14.14-29.53,18.06-29.14h63.14m0-5H792.2v3.59l-17.31,27.93-.14.23-.12.24-14.09,29.44a24,24,0,0,0-2.73,10.91l-1.29,148.71,0,5h5.34l21-1.21,21,1.21,4.9.28.37-4.89,10.14-133.15L858,621.06h4.74l38.8,23.57,10.15,133.15.37,4.89,4.9-.28,20.94-1.21,21,1.21h5.33l0-5-1.28-148.72a24.07,24.07,0,0,0-2.71-10.89L946,588.29l-.11-.24-.15-.23-17.3-27.93v-3.58H860.35Z"/><polygon points="720.95 823.51 757.16 797.24 759.3 792.96 759.3 792.95 764.14 783.25 764.14 781.34 766.64 781.33 806.03 781.33 806.03 826.28 727.57 838.32 720.95 823.51"/><path class="cls-2" d="M803.53,783.83v40.3l-74.45,11.43-5-11.21,35.06-25.44,2.23-4.47h0l5.28-10.59h36.89m5-5H761.64v3.83l-4.4,8.83-.36.71-1.69,3.38L721.13,820.3l-3.29,2.38,1.66,3.71,5,11.21,1.56,3.48,3.77-.58,74.45-11.42,4.24-.66V778.83Z"/><polygon class="cls-2" points="951.54 786.34 951.54 786.33 914.87 786.33 914.66 783.95 913.95 775.05 937.87 773.67 961.62 775.03 961.75 786.34 951.54 786.34"/><path class="cls-2" d="M937.87,776.18l21.28,1.21.07,6.45H917.16v-.08l-.51-6.35,21.23-1.22m0-5h-.28l-21.23,1.23-5.11.29.41,5.1.51,6.35v.13l.4,4.55h51.69l0-5.05-.07-6.45,0-4.67-4.67-.27-21.27-1.22Z"/><polygon points="914.65 826.28 914.65 781.33 956.54 781.33 956.54 783.25 961.37 792.92 961.57 793.32 963.53 797.24 999.73 823.51 993.11 838.32 914.65 826.28"/><path class="cls-2" d="M954,783.83h0l5.29,10.59h0l2.23,4.47,35.06,25.44-5,11.21-74.46-11.43v-40.3H954m0-5H912.15v49.59l4.24.66,74.46,11.42,3.76.58,1.56-3.48,5-11.21,1.66-3.71-3.28-2.38-34.07-24.72-1.68-3.38-.37-.73h0l-4.39-8.8v-3.82Z"/></svg>