<svg width="1300" height="1000" viewBox="0 0 1300 1000" fill="none" xmlns="http://www.w3.org/2000/svg">
<path d="M380.5 605.5C380.5 603 387.976 544.035 405.504 508C420.553 478.825 444.564 474.455 482.683 474.021C519.658 473.595 549.725 479.537 565.627 507.218C580 543.5 587 605.5 587 605.5V666.5L595.92 684.887C602.315 698.067 590.865 712.873 576.5 710V710L567.5 693L556 871L582.905 884.108C588.964 887.059 590.508 894.991 586 900V900H504V882L501.701 880.085C499.362 878.135 498.039 875.227 498.106 872.183L501.5 717.5L485.504 704L470 717.5L471.944 872.501C471.979 875.362 470.788 878.102 468.671 880.026L466.5 882V900H383.5V900C380.003 893.813 382.547 885.957 389.009 882.996L413 872L403 693L393 710V710C380.827 713.043 370.067 701.493 373.964 689.565L381.5 666.5C381.5 666.5 380.5 649.5 380.5 605.5Z" fill="white"/>
<path d="M388.07 604.47C388.07 604.47 393.51 547.787 410.05 512.515C424.251 483.958 447.039 480.445 483.01 480.02C517.902 479.604 546.274 485.42 561.28 512.515C572 541 580 605 580 605V665.855L590.283 688.324C593.613 695.599 588.924 704.015 580.986 705.014V705.014C580.389 705.089 579.807 704.796 579.511 704.272L561.28 672L546 601.09L538.659 551.102C538.568 550.481 538.035 550.02 537.407 550.02V550.02C536.655 550.02 536.069 550.672 536.148 551.419L543 616L549 638.5L556 662V662C538.241 641.596 504.69 652.33 502.073 679.253L502 680V711L489.929 699.981C488.688 698.848 487.068 698.22 485.388 698.22V698.22C483.686 698.22 482.047 698.865 480.801 700.024L469 711V680V680C466.538 652.731 432.69 641.536 414.5 662V662L420.99 638.5L425.59 616L431.868 551.356C431.939 550.631 431.366 550.005 430.638 550.012V550.012C430.034 550.017 429.525 550.46 429.436 551.057L421.99 601.09L415.52 636.545L409.05 672L389.352 704.835C389.242 705.017 389.032 705.112 388.823 705.074V705.074C382.803 703.971 379.103 697.853 380.923 692.01L389.07 665.855L388.06 604.47H388.07Z" fill="black"/>
<path d="M472.324 472C476.25 473.471 483.581 473.995 485.5 474C485.5 474 494.146 473.928 499.182 472C504.858 469.828 508.019 467.707 511.851 463.04C514.47 459.852 516.513 454.343 517.421 451.62C517.779 450.544 518.027 449.439 518.216 448.32L522.493 423C522.493 423 523.009 419.351 523 417C522.98 411.409 522.223 408.126 519.959 403C517.634 397.735 515.601 394.917 511.345 391C506.808 386.824 503.538 385 497.662 383.032C493.101 381.504 490.317 381.039 485.5 381C480.33 381.175 478.405 381.5 473.471 383.032C468.533 384.681 463.492 387.602 459.655 391C455.819 394.398 453.134 398.42 451.041 403C448.947 407.58 448.002 412.002 448 417C448.001 418.885 448.208 421.137 448.507 423L453.591 447.993C453.84 449.218 454.162 450.425 454.596 451.598C455.668 454.492 457.942 460.201 460.162 463C463.209 466.841 467.628 470.241 472.324 472Z" fill="white"/>
<path d="M474.432 466.258C477.73 467.539 483.888 467.996 485.5 468C485.5 468 492.763 467.937 496.993 466.258C501.76 464.366 504.416 462.519 507.635 458.454C509.785 455.74 511.474 451.094 512.26 448.672C512.599 447.627 512.832 446.554 513.008 445.47L516.574 423.581C516.574 423.581 517.007 420.403 517 418.355C516.983 413.485 516.348 410.626 514.446 406.161C512.493 401.576 510.784 399.122 507.209 395.71C503.398 392.073 500.651 390.484 495.716 388.77C491.884 387.439 489.546 387.034 485.5 387C481.158 387.152 479.541 387.435 475.396 388.77C471.248 390.206 467.013 392.75 463.791 395.71C460.568 398.669 458.313 402.172 456.554 406.161C454.795 410.151 454.002 414.002 454 418.355C454 419.996 454.175 421.958 454.426 423.581L458.66 445.165C458.894 446.355 459.195 447.528 459.606 448.669C460.53 451.239 462.395 456.039 464.216 458.419C466.776 461.765 470.488 464.726 474.432 466.258Z" fill="black"/>
<path d="M437 658C456.65 658 461.772 674.213 463.022 680.526C463.347 682.168 463.414 683.836 463.443 685.51L466.649 873.232C466.699 876.161 464.329 878.558 461.4 878.541V900H411.5H389.5C385.991 896.006 387.279 889.763 392.083 887.484L419.32 874.561L409 683.999C409 683.999 412.6 658 437 658Z" fill="black"/>
<path d="M437 658C456.65 658 461.772 674.213 463.022 680.526C463.347 682.168 463.414 683.836 463.443 685.51L466.649 873.232C466.699 876.161 464.329 878.558 461.4 878.541V900H411.5H389.5C385.991 896.006 387.279 889.763 392.083 887.484L419.32 874.561L409 683.999C409 683.999 412.6 658 437 658Z" stroke="black"/>
<path d="M533.74 658C514.09 658 508.968 674.213 507.718 680.526C507.393 682.168 507.326 683.836 507.297 685.51L504.091 873.232C504.041 876.161 506.411 878.558 509.34 878.541V900H559.24H581.24C584.749 896.006 583.461 889.763 578.657 887.484L551.42 874.561L561.74 683.999C561.74 683.999 558.14 658 533.74 658Z" fill="black"/>
<path d="M533.74 658C514.09 658 508.968 674.213 507.718 680.526C507.393 682.168 507.326 683.836 507.297 685.51L504.091 873.232C504.041 876.161 506.411 878.558 509.34 878.541V900H559.24H581.24C584.749 896.006 583.461 889.763 578.657 887.484L551.42 874.561L561.74 683.999C561.74 683.999 558.14 658 533.74 658Z" stroke="black"/>
</svg>
