<svg width="1300" height="1000" fill="none" xmlns="http://www.w3.org/2000/svg"><path d="M381.5 583.5c-.116-2.497 7.476-61.465 25.004-97.5 15.049-29.175 39.06-33.545 77.179-33.979 36.975-.426 67.042 5.516 82.944 33.197C581 521.5 587 583.5 587 583.5l-2 60 8.674 23.272c4.881 13.094-7.262 26.149-20.674 22.228l11.504 29-1.5 146 16.579 12.73a20 20 0 0 1 6.727 22.383l-.306.887H563.5l-47-5 2.504-23a9.97 9.97 0 0 1-4.439-8.408L516.004 736l-29.5-65-29 65v128a10 10 0 0 1-4 8l1.996 23-50 5H368a18.564 18.564 0 0 1 5.328-21.136l17.176-14.364-2-146.5L398 691c-14.517 3.202-26.736-11.082-21.324-24.928L385.5 643.5s-2-17-4-60Z" fill="#fff"/><path d="M389.07 582.47s5.44-56.683 21.98-91.955c14.201-28.557 36.989-32.07 72.96-32.495 34.892-.416 63.264 5.4 78.27 32.495C573 519 580 583 580 583v61l8.243 26.883c1.868 6.092-2.689 12.254-9.061 12.254-.422 0-.812-.224-1.024-.59L559.28 650 546 579.09l-6.359-49.961a1.27 1.27 0 0 0-2.522.269L543 597.5l3 30.5 3 15.855 29.5 73.153-1.5 151.007 20.998 16.75a10 10 0 0 1 2.822 12.055l-1.488 3.18-75.832-10 2.09-22.01a5.003 5.003 0 0 1-5.033-5.05l1.198-128.82-31.643-67.526a4.123 4.123 0 0 0-7.477.022l-31.145 67.519-.242 129.575a4.317 4.317 0 0 1-4.348 4.31l1.991 21.98L374 900a11.67 11.67 0 0 1 2.531-14.843l20.289-17.117-2.16-151.02L422 643.5l2.5-15.5 3-30 5.395-68.664a1.228 1.228 0 0 0-2.442-.254l-6.463 50.008L411.05 650l-18.738 32.887a.494.494 0 0 1-.43.25c-6.655 0-11.417-6.433-9.472-12.798l8.09-26.484-1.44-61.385h.01Z" fill="#000"/><path d="M473.324 450c3.926 1.471 11.257 1.995 13.176 2 0 0 8.646-.072 13.682-2 5.676-2.172 8.837-4.293 12.669-8.96 2.619-3.188 4.662-8.697 5.57-11.42.358-1.076.606-2.181.795-3.3l4.277-25.32s.516-3.649.507-6c-.02-5.591-.777-8.874-3.041-14-2.325-5.265-4.358-8.083-8.614-12-4.537-4.176-7.807-6-13.683-7.968-4.561-1.528-7.345-1.993-12.162-2.032-5.17.175-7.095.5-12.029 2.032-4.938 1.649-9.979 4.57-13.816 7.968-3.836 3.398-6.521 7.42-8.614 12-2.094 4.58-3.039 9.002-3.041 14 .001 1.885.208 4.137.507 6l5.084 24.993a24.33 24.33 0 0 0 1.005 3.605c1.072 2.894 3.346 8.603 5.566 11.402 3.047 3.841 7.466 7.241 12.162 9Z" fill="#fff"/><path d="M475.432 444.258c3.298 1.281 9.456 1.738 11.068 1.742 0 0 7.263-.063 11.493-1.742 4.767-1.892 7.423-3.739 10.642-7.804 2.15-2.714 3.839-7.36 4.625-9.782.339-1.045.572-2.118.748-3.202l3.566-21.889s.433-3.178.426-5.226c-.017-4.87-.652-7.729-2.554-12.194-1.953-4.585-3.662-7.039-7.237-10.451-3.811-3.637-6.558-5.226-11.493-6.94-3.832-1.331-6.17-1.736-10.216-1.77-4.342.152-5.959.435-10.104 1.77-4.148 1.436-8.383 3.98-11.605 6.94-3.223 2.959-5.478 6.462-7.237 10.451-1.759 3.99-2.552 7.841-2.554 12.194 0 1.641.175 3.603.426 5.226l4.234 21.584c.234 1.19.535 2.363.946 3.504.924 2.57 2.789 7.37 4.61 9.75 2.56 3.346 6.272 6.307 10.216 7.839Z" fill="#000"/></svg>