<svg width="1300" height="1000" viewBox="0 0 1300 1000" fill="none" xmlns="http://www.w3.org/2000/svg"><path d="M380.5 605.5c0-2.5 7.476-61.465 25.004-97.5 15.049-29.175 39.06-33.545 77.179-33.979 36.975-.426 67.042 5.516 82.944 33.197C580 543.5 587 605.5 587 605.5v61l8.92 18.387c6.395 13.18-5.055 27.986-19.42 25.113l-9-17-6 174 21.151 14.436A13.844 13.844 0 0 1 587 899.5h-84.5l1-21.5-1.072-.953a10.002 10.002 0 0 1-3.355-7.633L501.5 717.5 485.504 704 470 717.5l1.946 151.283a10.002 10.002 0 0 1-2.928 7.199L468 877l1 21.5h-86.5a13.982 13.982 0 0 1 4.708-17.859L409 866l-6-173-10 17c-12.173 3.043-22.933-8.507-19.036-20.435L381.5 666.5s-1-17-1-61Z" fill="#fff"/><path d="M388.07 604.47s5.44-56.683 21.98-91.955c14.201-28.557 36.989-32.07 72.96-32.495 34.892-.416 63.264 5.4 78.27 32.495C572 541 580 605 580 605v60.855l10.283 22.469c3.33 7.275-1.359 15.691-9.297 16.69a1.481 1.481 0 0 1-1.475-.742L561.28 672 546 601.09l-7.341-49.988a1.266 1.266 0 0 0-2.511.317L543 616l6 22.5 7 23.5c-17.759-20.404-51.31-9.67-53.927 17.253L502 680v31l-12.071-11.019a6.735 6.735 0 0 0-9.128.043L469 711v-31c-2.462-27.269-36.31-38.464-54.5-18l6.49-23.5 4.6-22.5 6.278-64.644a1.226 1.226 0 0 0-2.432-.299l-7.446 50.033-6.47 35.455L409.05 672l-19.698 32.835a.51.51 0 0 1-.529.239c-6.02-1.103-9.72-7.221-7.9-13.064l8.147-26.155-1.01-61.385h.01Z" fill="#000"/><path d="M472.324 472c3.926 1.471 11.257 1.995 13.176 2 0 0 8.646-.072 13.682-2 5.676-2.172 8.837-4.293 12.669-8.96 2.619-3.188 4.662-8.697 5.57-11.42.358-1.076.606-2.181.795-3.3l4.277-25.32s.516-3.649.507-6c-.02-5.591-.777-8.874-3.041-14-2.325-5.265-4.358-8.083-8.614-12-4.537-4.176-7.807-6-13.683-7.968-4.561-1.528-7.345-1.993-12.162-2.032-5.17.175-7.095.5-12.029 2.032-4.938 1.649-9.979 4.57-13.816 7.968-3.836 3.398-6.521 7.42-8.614 12-2.094 4.58-3.039 9.002-3.041 14 .001 1.885.208 4.137.507 6l5.084 24.993a24.33 24.33 0 0 0 1.005 3.605c1.072 2.894 3.346 8.603 5.566 11.402 3.047 3.841 7.466 7.241 12.162 9Z" fill="#fff"/><path d="M474.432 466.258c3.298 1.281 9.456 1.738 11.068 1.742 0 0 7.263-.063 11.493-1.742 4.767-1.892 7.423-3.739 10.642-7.804 2.15-2.714 3.839-7.36 4.625-9.782.339-1.045.572-2.118.748-3.202l3.566-21.889s.433-3.178.426-5.226c-.017-4.87-.652-7.729-2.554-12.194-1.953-4.585-3.662-7.039-7.237-10.451-3.811-3.637-6.558-5.226-11.493-6.94-3.832-1.331-6.17-1.736-10.216-1.77-4.342.152-5.959.435-10.104 1.77-4.148 1.436-8.383 3.98-11.605 6.94-3.223 2.959-5.478 6.462-7.237 10.451-1.759 3.99-2.552 7.841-2.554 12.194 0 1.641.175 3.603.426 5.226l4.234 21.584c.234 1.19.535 2.363.946 3.504.924 2.57 2.789 7.37 4.61 9.75 2.56 3.346 6.272 6.307 10.216 7.839ZM437 658c19.668 0 24.782 16.243 26.025 22.543.322 1.63.39 3.287.419 4.949l3.22 183.74a4.234 4.234 0 0 1-4.264 4.309l.991 21.98L411.5 899h-21c-3.713-4.227-2.872-10.754 1.793-13.902l23.027-15.537L409 683.999S412.6 658 437 658Z" fill="#000"/><path d="M437 658c19.668 0 24.782 16.243 26.025 22.543.322 1.63.39 3.287.419 4.949l3.22 183.74a4.234 4.234 0 0 1-4.264 4.309l.991 21.98L411.5 899h-21c-3.713-4.227-2.872-10.754 1.793-13.902l23.027-15.537L409 683.999S412.6 658 437 658Z" stroke="#000"/><path d="M533.738 658c-19.667 0-24.781 16.243-26.025 22.543-.322 1.63-.389 3.287-.418 4.949l-3.221 183.74a4.236 4.236 0 0 0 4.264 4.309l-.99 21.98 51.89 3.479h21c3.714-4.227 2.872-10.754-1.792-13.902l-23.028-15.537 6.32-185.562s-3.6-25.999-28-25.999Z" fill="#000"/><path d="M533.738 658c-19.667 0-24.781 16.243-26.025 22.543-.322 1.63-.389 3.287-.418 4.949l-3.221 183.74a4.236 4.236 0 0 0 4.264 4.309l-.99 21.98 51.89 3.479h21c3.714-4.227 2.872-10.754-1.792-13.902l-23.028-15.537 6.32-185.562s-3.6-25.999-28-25.999Z" stroke="#000"/></svg>