<svg width="1300" height="1000" viewBox="0 0 1300 1000" fill="none" xmlns="http://www.w3.org/2000/svg">
<path d="M596.954 365.983C597.182 363.231 599.598 361.185 602.35 361.413L637.23 364.308C639.982 364.536 642.028 366.952 641.8 369.704L636.259 436.475C636.031 439.227 633.615 441.272 630.863 441.044L595.983 438.15C593.231 437.921 591.185 435.505 591.413 432.753L596.954 365.983Z" fill="black"/>
<path d="M601.771 368.389C601.863 367.289 602.829 366.47 603.93 366.562L634.824 369.125C635.924 369.217 636.743 370.183 636.651 371.284L631.441 434.068C631.35 435.169 630.384 435.987 629.283 435.896L598.389 433.332C597.288 433.241 596.47 432.274 596.561 431.174L601.771 368.389Z" fill="white"/>
<path d="M604.43 372.624L633.331 375.022L629.113 425.847L600.213 423.449L604.43 372.624Z" fill="black"/>
<path d="M316.074 468.162C316.074 466.5 321.976 411.035 339.504 375C354.553 345.825 376.5 340 419.504 340C465.821 339.471 473.873 347.783 499.5 375.001C514 402.5 531.5 447 531.5 447L578 418L591.272 402.147C594.167 398.689 598.774 397.173 603.157 398.238C610.187 399.946 614.061 407.5 611.344 414.205L601.5 438.5L521.194 506.523C518.774 508.574 515.08 507.88 513.567 505.091L478 439.5L482 486L485 516.5L497.504 717L496.004 873L511.602 879.406C519.105 882.488 524.004 889.796 524.004 897.907V899H430.504L432.004 881C429.197 879.129 427.527 875.965 427.565 872.592L429.004 745L419.504 620L410.504 745V873C410.504 876.147 409.022 879.111 406.504 881L408.004 899H316C316 891.368 320.401 884.42 327.301 881.158L343.504 873.5L341.504 717L348.004 598.5L342.135 621.486C342.054 621.804 341.809 622.055 341.493 622.143C329.437 625.519 317.612 616.104 318.201 603.598L319.72 571.37C319.72 571.37 316.074 512 316.074 468.162Z" fill="white"/>
<path d="M322.07 471.471C322.07 471.471 327.51 414.787 344.05 379.515C358.251 350.958 381.036 347.02 417.01 347.021C449.5 347.021 471.22 350 493 379.515C512 421 528 457.5 528 457.5L581.5 422.5L595.124 406.239C596.313 404.82 598.07 404 599.921 404C604.437 404 607.466 408.637 605.653 412.772L597 432.5L521.747 497.14C520.321 498.366 518.131 497.992 517.193 496.362L471.759 417.471C471.599 417.192 471.302 417.021 470.98 417.021C470.453 417.021 470.039 417.472 470.084 417.997L476 486.5L479 517L482 572.856L491.5 716.008L490 877.015L511.216 886.128C514.833 887.681 517.202 891.213 517.268 895.149L517.332 899H436.5L438.59 876.991C435.797 877.007 433.531 874.734 433.557 871.941L434.755 743.121L422.223 595.837C422.097 594.357 420.859 593.221 419.374 593.221C417.886 593.221 416.647 594.363 416.525 595.846L404.49 743.136L404.248 872.711C404.244 875.104 402.293 877.037 399.9 877.021L401.891 899H322C322 893.808 324.968 889.073 329.641 886.811L349.82 877.041L347.66 716.02L355 572.5L357.5 517L360.5 487L365.895 418.336C365.951 417.618 365.381 417.005 364.66 417.012C364.047 417.017 363.531 417.474 363.453 418.082L356.99 468.091L347.5 572.493L337.284 616.145C337.217 616.429 336.963 616.631 336.671 616.631C329.496 616.631 323.773 610.641 324.099 603.473L325.51 572.493L322.06 471.471H322.07Z" fill="black"/>
<path d="M406.324 339C410.25 340.471 417.581 340.995 419.5 341C419.5 341 428.146 340.928 433.182 339C438.858 336.828 442.019 334.707 445.851 330.04C448.47 326.852 450.513 321.343 451.421 318.62C451.779 317.544 452.027 316.439 452.216 315.32L456.493 290C456.493 290 457.009 286.351 457 284C456.98 278.409 456.223 275.126 453.959 270C451.634 264.735 449.601 261.917 445.345 258C440.808 253.824 437.538 252 431.662 250.032C427.101 248.504 424.317 248.039 419.5 248C414.33 248.175 412.405 248.5 407.471 250.032C402.533 251.681 397.492 254.602 393.655 258C389.819 261.398 387.134 265.42 385.041 270C382.947 274.58 382.002 279.002 382 284C382.001 285.885 382.208 288.137 382.507 290L387.591 314.993C387.84 316.218 388.162 317.425 388.596 318.598C389.668 321.492 391.942 327.201 394.162 330C397.209 333.841 401.628 337.241 406.324 339Z" fill="white"/>
<path d="M408.432 333.258C411.73 334.539 417.888 334.996 419.5 335C419.5 335 426.763 334.937 430.993 333.258C435.76 331.366 438.416 329.519 441.635 325.454C443.785 322.74 445.474 318.094 446.26 315.672C446.599 314.627 446.832 313.554 447.008 312.47L450.574 290.581C450.574 290.581 451.007 287.403 451 285.355C450.983 280.485 450.348 277.626 448.446 273.161C446.493 268.576 444.784 266.122 441.209 262.71C437.398 259.073 434.651 257.484 429.716 255.77C425.884 254.439 423.546 254.034 419.5 254C415.158 254.152 413.541 254.435 409.396 255.77C405.248 257.206 401.013 259.75 397.791 262.71C394.568 265.669 392.313 269.172 390.554 273.161C388.795 277.151 388.002 281.002 388 285.355C388 286.996 388.175 288.958 388.426 290.581L392.66 312.165C392.894 313.355 393.195 314.528 393.606 315.669C394.53 318.239 396.395 323.039 398.216 325.419C400.776 328.765 404.488 331.726 408.432 333.258Z" fill="black"/>
</svg>
