<svg width="1300" height="1000" viewBox="0 0 1300 1000" fill="none" xmlns="http://www.w3.org/2000/svg">
<path d="M596.954 387.983C597.182 385.231 599.598 383.185 602.35 383.413L637.23 386.308C639.982 386.536 642.028 388.952 641.8 391.704L636.259 458.475C636.031 461.227 633.615 463.272 630.863 463.044L595.983 460.15C593.231 459.921 591.185 457.505 591.413 454.753L596.954 387.983Z" fill="black"/>
<path d="M601.771 390.389C601.863 389.289 602.829 388.47 603.93 388.562L634.824 391.125C635.924 391.217 636.743 392.183 636.651 393.284L631.441 456.068C631.35 457.169 630.384 457.987 629.283 457.896L598.389 455.332C597.288 455.241 596.47 454.274 596.561 453.174L601.771 390.389Z" fill="white"/>
<path d="M604.43 394.624L633.331 397.022L629.113 447.847L600.213 445.449L604.43 394.624Z" fill="black"/>
<path d="M316.074 490.162C316.074 488.5 321.976 433.035 339.504 397C354.553 367.825 376.5 362 419.504 362C465.821 361.471 473.873 369.783 499.5 397.001C514 424.5 531.5 469 531.5 469L578 440L591.272 424.147C594.167 420.689 598.774 419.173 603.157 420.238C610.187 421.946 614.061 429.5 611.344 436.205L601.5 460.5L521.194 528.523C518.774 530.574 515.08 529.88 513.567 527.091L478 461.5L482 508L485 538.5L497.504 739L496.004 895L511.602 901.406C519.105 904.488 524.004 911.796 524.004 919.907V921H430.504L432.004 903C429.197 901.129 427.527 897.965 427.565 894.592L429.004 767L419.504 642L410.504 767V895C410.504 898.147 409.022 901.111 406.504 903L408.004 921H316C316 913.368 320.401 906.42 327.301 903.158L343.504 895.5L341.504 739L348.004 620.5L342.135 643.486C342.054 643.804 341.809 644.055 341.493 644.143C329.437 647.519 317.612 638.104 318.201 625.598L319.72 593.37C319.72 593.37 316.074 534 316.074 490.162Z" fill="white"/>
<path d="M322.07 493.471C322.07 493.471 327.51 436.787 344.05 401.515C358.251 372.958 381.036 369.02 417.01 369.021C449.5 369.021 471.22 372 493 401.515C512 443 528 479.5 528 479.5L581.5 444.5L595.124 428.239C596.313 426.82 598.07 426 599.921 426C604.437 426 607.466 430.637 605.653 434.772L597 454.5L521.747 519.14C520.321 520.366 518.131 519.992 517.193 518.362L471.759 439.471C471.599 439.192 471.302 439.021 470.98 439.021C470.453 439.021 470.039 439.472 470.084 439.997L476 508.5L479 539L482 594.856L491.5 738.008L490 899.015L511.216 908.128C514.833 909.681 517.202 913.213 517.268 917.149L517.332 921H436.5L438.59 898.991C435.797 899.007 433.531 896.734 433.557 893.941L434.755 765.121L422.223 617.837C422.097 616.357 420.859 615.221 419.374 615.221C417.886 615.221 416.647 616.363 416.525 617.846L404.49 765.136L404.248 894.711C404.244 897.104 402.293 899.037 399.9 899.021L401.891 921H322C322 915.808 324.968 911.073 329.641 908.811L349.82 899.041L347.66 738.02L355 594.5L357.5 539L360.5 509L365.895 440.336C365.951 439.618 365.381 439.005 364.66 439.012C364.047 439.017 363.531 439.474 363.453 440.082L356.99 490.091L347.5 594.493L337.284 638.145C337.217 638.429 336.963 638.631 336.671 638.631C329.496 638.631 323.773 632.641 324.099 625.473L325.51 594.493L322.06 493.471H322.07Z" fill="black"/>
<path d="M406.324 361C410.25 362.471 417.581 362.995 419.5 363C419.5 363 428.146 362.928 433.182 361C438.858 358.828 442.019 356.707 445.851 352.04C448.47 348.852 450.513 343.343 451.421 340.62C451.779 339.544 452.027 338.439 452.216 337.32L456.493 312C456.493 312 457.009 308.351 457 306C456.98 300.409 456.223 297.126 453.959 292C451.634 286.735 449.601 283.917 445.345 280C440.808 275.824 437.538 274 431.662 272.032C427.101 270.504 424.317 270.039 419.5 270C414.33 270.175 412.405 270.5 407.471 272.032C402.533 273.681 397.492 276.602 393.655 280C389.819 283.398 387.134 287.42 385.041 292C382.947 296.58 382.002 301.002 382 306C382.001 307.885 382.208 310.137 382.507 312L387.591 336.993C387.84 338.218 388.162 339.425 388.596 340.598C389.668 343.492 391.942 349.201 394.162 352C397.209 355.841 401.628 359.241 406.324 361Z" fill="white"/>
<path d="M408.432 355.258C411.73 356.539 417.888 356.996 419.5 357C419.5 357 426.763 356.937 430.993 355.258C435.76 353.366 438.416 351.519 441.635 347.454C443.785 344.74 445.474 340.094 446.26 337.672C446.599 336.627 446.832 335.554 447.008 334.47L450.574 312.581C450.574 312.581 451.007 309.403 451 307.355C450.983 302.485 450.348 299.626 448.446 295.161C446.493 290.576 444.784 288.122 441.209 284.71C437.398 281.073 434.651 279.484 429.716 277.77C425.884 276.439 423.546 276.034 419.5 276C415.158 276.152 413.541 276.435 409.396 277.77C405.248 279.206 401.013 281.75 397.791 284.71C394.568 287.669 392.313 291.172 390.554 295.161C388.795 299.151 388.002 303.002 388 307.355C388 308.996 388.175 310.958 388.426 312.581L392.66 334.165C392.894 335.355 393.195 336.528 393.606 337.669C394.53 340.239 396.395 345.039 398.216 347.419C400.776 350.765 404.488 353.726 408.432 355.258Z" fill="black"/>
</svg>
