<svg width="1300" height="1000" viewBox="0 0 1300 1000" fill="none" xmlns="http://www.w3.org/2000/svg"><path d="M662.954 365.983a5 5 0 0 1 5.396-4.57l34.88 2.895a5 5 0 0 1 4.57 5.396l-5.541 66.771a5 5 0 0 1-5.396 4.569l-34.88-2.894a5.002 5.002 0 0 1-4.57-5.397l5.541-66.77Z" fill="#000"/><path d="M667.771 368.389a2 2 0 0 1 2.159-1.827l30.894 2.563a2 2 0 0 1 1.827 2.159l-5.21 62.784a2 2 0 0 1-2.158 1.828l-30.894-2.564a2 2 0 0 1-1.828-2.158l5.21-62.785Z" fill="#fff"/><path d="m670.43 372.624 28.901 2.398-4.218 50.825-28.9-2.398 4.217-50.825Z" fill="#000"/><path d="M382.074 468.162c0-1.662 5.902-57.127 23.43-93.162 15.049-29.175 36.996-35 80-35 46.317-.529 54.369 7.783 79.996 35.001C580 402.5 597.5 447 597.5 447l46.5-29 13.272-15.853a11.851 11.851 0 0 1 11.885-3.909c7.03 1.708 10.904 9.262 8.187 15.967L667.5 438.5l-80.306 68.023c-2.42 2.051-6.114 1.357-7.627-1.432L544 439.5l4 46.5 3 30.5L563.504 717l-1.5 156 15.598 6.406a20.001 20.001 0 0 1 12.402 18.501V899h-93.5l1.5-18a9.97 9.97 0 0 1-4.439-8.408L495.004 745l-9.5-125-9 125v128c0 3.147-1.482 6.111-4 8l1.5 18H382c0-7.632 4.401-14.58 11.301-17.842l16.203-7.658-2-156.5 6.5-118.5-5.869 22.986a.917.917 0 0 1-.642.657c-12.056 3.376-23.881-6.039-23.292-18.545l1.519-32.228s-3.646-59.37-3.646-103.208Z" fill="#fff"/><path d="M388.07 471.471s5.44-56.684 21.98-91.956c14.201-28.557 36.986-32.495 72.96-32.494 32.49 0 54.21 2.979 75.99 32.494C578 421 594 457.5 594 457.5l53.5-35 13.624-16.261a6.26 6.26 0 0 1 4.797-2.239c4.516 0 7.545 4.637 5.732 8.772L663 432.5l-75.253 64.64a2.999 2.999 0 0 1-4.554-.778l-45.434-78.891a.9.9 0 0 0-1.675.526L542 486.5l3 30.5 3 55.856 9.5 143.152-1.5 161.007 21.216 9.113a10 10 0 0 1 6.052 9.021l.064 3.851H502.5l2.09-22.009a5.004 5.004 0 0 1-5.033-5.05l1.198-128.82-12.532-147.284a2.859 2.859 0 0 0-5.698.009l-12.035 147.29-.242 129.575a4.319 4.319 0 0 1-4.348 4.31L467.891 899H388c0-5.192 2.968-9.927 7.641-12.189l20.179-9.77-2.16-161.021L421 572.5l2.5-55.5 3-30 5.395-68.664a1.228 1.228 0 0 0-2.442-.254l-6.463 50.009-9.49 104.402-10.216 43.652a.63.63 0 0 1-.613.486c-7.175 0-12.898-5.99-12.572-13.158l1.411-30.98-3.45-101.022h.01Z" fill="#000"/><path d="M472.324 339c3.926 1.471 11.257 1.995 13.176 2 0 0 8.646-.072 13.682-2 5.676-2.172 8.837-4.293 12.669-8.96 2.619-3.188 4.662-8.697 5.57-11.42.358-1.076.606-2.181.795-3.3l4.277-25.32s.516-3.649.507-6c-.02-5.591-.777-8.874-3.041-14-2.325-5.265-4.358-8.083-8.614-12-4.537-4.176-7.807-6-13.683-7.968-4.561-1.528-7.345-1.993-12.162-2.032-5.17.175-7.095.5-12.029 2.032-4.938 1.649-9.979 4.57-13.816 7.968-3.836 3.398-6.521 7.42-8.614 12-2.094 4.58-3.039 9.002-3.041 14 .001 1.885.208 4.137.507 6l5.084 24.993a24.33 24.33 0 0 0 1.005 3.605c1.072 2.894 3.346 8.603 5.566 11.402 3.047 3.841 7.466 7.241 12.162 9Z" fill="#fff"/><path d="M474.432 333.258c3.298 1.281 9.456 1.738 11.068 1.742 0 0 7.263-.063 11.493-1.742 4.767-1.892 7.423-3.739 10.642-7.804 2.15-2.714 3.839-7.36 4.625-9.782.339-1.045.572-2.118.748-3.202l3.566-21.889s.433-3.178.426-5.226c-.017-4.87-.652-7.729-2.554-12.194-1.953-4.585-3.662-7.039-7.237-10.451-3.811-3.637-6.558-5.226-11.493-6.94-3.832-1.331-6.17-1.736-10.216-1.77-4.342.152-5.959.435-10.104 1.77-4.148 1.436-8.383 3.98-11.605 6.94-3.223 2.959-5.478 6.462-7.237 10.451-1.759 3.99-2.552 7.841-2.554 12.194 0 1.641.175 3.603.426 5.226l4.234 21.584c.234 1.19.535 2.363.946 3.504.924 2.57 2.789 7.37 4.61 9.75 2.56 3.346 6.272 6.307 10.216 7.839Z" fill="#000"/></svg>