<svg width="1300" height="1000" viewBox="0 0 1300 1000" fill="none" xmlns="http://www.w3.org/2000/svg">
<path d="M596.954 346.983C597.182 344.231 599.598 342.185 602.35 342.413L637.23 345.308C639.982 345.536 642.028 347.952 641.8 350.704L636.259 417.475C636.031 420.227 633.615 422.272 630.863 422.044L595.983 419.15C593.231 418.921 591.185 416.505 591.413 413.753L596.954 346.983Z" fill="black"/>
<path d="M601.771 349.389C601.863 348.289 602.829 347.47 603.93 347.562L634.824 350.125C635.924 350.217 636.743 351.183 636.651 352.284L631.441 415.068C631.35 416.169 630.384 416.987 629.283 416.896L598.389 414.332C597.288 414.241 596.47 413.274 596.561 412.174L601.771 349.389Z" fill="white"/>
<path d="M604.43 353.624L633.331 356.022L629.113 406.847L600.213 404.449L604.43 353.624Z" fill="black"/>
<path d="M316.074 449.162C316.074 447.5 321.976 392.035 339.504 356C354.553 326.825 376.5 321 419.504 321C465.821 320.471 473.873 328.783 499.5 356.001C514 383.5 531.5 428 531.5 428L578 399L591.272 383.147C594.167 379.689 598.774 378.173 603.157 379.238C610.187 380.946 614.061 388.5 611.344 395.205L601.5 419.5L521.194 487.523C518.774 489.574 515.08 488.88 513.567 486.091L478 420.5L482 467L485 497.5L497.504 698L496.004 854L511.602 860.406C519.105 863.488 524.004 870.796 524.004 878.907V880H430.504L432.004 862C429.197 860.129 427.527 856.965 427.565 853.592L429.004 726L419.504 601L410.504 726V854C410.504 857.147 409.022 860.111 406.504 862L408.004 880H316C316 872.368 320.401 865.42 327.301 862.158L343.504 854.5L341.504 698L348.004 579.5L342.135 602.486C342.054 602.804 341.809 603.055 341.493 603.143C329.437 606.519 317.612 597.104 318.201 584.598L319.72 552.37C319.72 552.37 316.074 493 316.074 449.162Z" fill="white"/>
<path d="M322.07 452.471C322.07 452.471 327.51 395.787 344.05 360.515C358.251 331.958 381.036 328.02 417.01 328.021C449.5 328.021 471.22 331 493 360.515C512 402 528 438.5 528 438.5L581.5 403.5L595.124 387.239C596.313 385.82 598.07 385 599.921 385C604.437 385 607.466 389.637 605.653 393.772L597 413.5L521.747 478.14C520.321 479.366 518.131 478.992 517.193 477.362L471.759 398.471C471.599 398.192 471.302 398.021 470.98 398.021C470.453 398.021 470.039 398.472 470.084 398.997L476 467.5L479 498L482 553.856L491.5 697.008L490 858.015L511.216 867.128C514.833 868.681 517.202 872.213 517.268 876.149L517.332 880H436.5L438.59 857.991C435.797 858.007 433.531 855.734 433.557 852.941L434.755 724.121L422.223 576.837C422.097 575.357 420.859 574.221 419.374 574.221C417.886 574.221 416.647 575.363 416.525 576.846L404.49 724.136L404.248 853.711C404.244 856.104 402.293 858.037 399.9 858.021L401.891 880H322C322 874.808 324.968 870.073 329.641 867.811L349.82 858.041L347.66 697.02L355 553.5L357.5 498L360.5 468L365.895 399.336C365.951 398.618 365.381 398.005 364.66 398.012C364.047 398.017 363.531 398.474 363.453 399.082L356.99 449.091L347.5 553.493L337.284 597.145C337.217 597.429 336.963 597.631 336.671 597.631C329.496 597.631 323.773 591.641 324.099 584.473L325.51 553.493L322.06 452.471H322.07Z" fill="black"/>
<path d="M406.324 320C410.25 321.471 417.581 321.995 419.5 322C419.5 322 428.146 321.928 433.182 320C438.858 317.828 442.019 315.707 445.851 311.04C448.47 307.852 450.513 302.343 451.421 299.62C451.779 298.544 452.027 297.439 452.216 296.32L456.493 271C456.493 271 457.009 267.351 457 265C456.98 259.409 456.223 256.126 453.959 251C451.634 245.735 449.601 242.917 445.345 239C440.808 234.824 437.538 233 431.662 231.032C427.101 229.504 424.317 229.039 419.5 229C414.33 229.175 412.405 229.5 407.471 231.032C402.533 232.681 397.492 235.602 393.655 239C389.819 242.398 387.134 246.42 385.041 251C382.947 255.58 382.002 260.002 382 265C382.001 266.885 382.208 269.137 382.507 271L387.591 295.993C387.84 297.218 388.162 298.425 388.596 299.598C389.668 302.492 391.942 308.201 394.162 311C397.209 314.841 401.628 318.241 406.324 320Z" fill="white"/>
<path d="M408.432 314.258C411.73 315.539 417.888 315.996 419.5 316C419.5 316 426.763 315.937 430.993 314.258C435.76 312.366 438.416 310.519 441.635 306.454C443.785 303.74 445.474 299.094 446.26 296.672C446.599 295.627 446.832 294.554 447.008 293.47L450.574 271.581C450.574 271.581 451.007 268.403 451 266.355C450.983 261.485 450.348 258.626 448.446 254.161C446.493 249.576 444.784 247.122 441.209 243.71C437.398 240.073 434.651 238.484 429.716 236.77C425.884 235.439 423.546 235.034 419.5 235C415.158 235.152 413.541 235.435 409.396 236.77C405.248 238.206 401.013 240.75 397.791 243.71C394.568 246.669 392.313 250.172 390.554 254.161C388.795 258.151 388.002 262.002 388 266.355C388 267.996 388.175 269.958 388.426 271.581L392.66 293.165C392.894 294.355 393.195 295.528 393.606 296.669C394.53 299.239 396.395 304.039 398.216 306.419C400.776 309.765 404.488 312.726 408.432 314.258Z" fill="black"/>
</svg>
