<svg id="Capa_3" data-name="Capa 3" xmlns="http://www.w3.org/2000/svg" viewBox="0 0 1300 1000"><defs><style>.cls-1{fill:#fff;}.cls-2{fill:#1e1e1c;}</style></defs><title>1-subject</title><polygon class="cls-1" points="760.91 854.5 760.41 860.92 760.41 860.95 760.4 860.95 725.8 860.93 723.5 860.92 718.37 860.92 718.43 854.51 739.84 853.29 760.91 854.5"/><polygon class="cls-1" points="898.78 901.21 898.78 901.22 820.19 901.22 820.19 860.92 820.2 860.92 820.19 860.83 819.68 854.51 840.92 853.29 862.2 854.5 862.27 860.92 857.09 860.92 854.8 860.93 820.21 860.95 820.2 860.95 820.2 901.21 898.78 901.21"/><path class="cls-1" d="M853.34,543.33H727l0-.1,1.08-7.7c3.63-.28,62-3.77,62-3.77l62.22,3.78,1,7.69Z"/><polygon class="cls-1" points="721.9 543.27 721.9 543.27 721.89 543.34 702.19 543.33 702.18 543.34 696.78 543.34 695.87 538.49 705.11 537.54 709.47 537.1 721.22 538.27 721.52 538.3 721.9 543.12 721.9 543.14 721.9 543.27"/><polygon class="cls-1" points="936.48 243.51 936.46 243.51 915.77 240.16 912.01 239.55 911.15 244.39 918.88 246.39 920.56 246.83 924.87 247.95 932.37 248.43 935.62 248.64 939.33 248.88 939.63 244.03 936.48 243.51"/><path class="cls-2" d="M939.33,248.88,938.52,262l-4.33,70.75-.09,1.34a2,2,0,0,1,0,.24c0,.22-.05.45-.08.67s-.09.55-.14.82l0,.17-.15.64a5.66,5.66,0,0,1-.15.59,2,2,0,0,1-.09.33.32.32,0,0,1,0,.09c0,.11-.07.21-.1.33a9.94,9.94,0,0,1-.4,1.16c-.07.18-.14.37-.22.55a.11.11,0,0,1,0,.06c-.06.14-.11.27-.18.41l0,.08-.13.28c-.09.2-.19.4-.29.6s-.29.54-.46.81a5.51,5.51,0,0,1-.37.61c-.06.1-.12.2-.19.3l0,0c-.32.47-.65.93-1,1.37a18.58,18.58,0,0,1-2.71,2.76c-.22.19-.44.37-.67.54h0l-.45.33-.69.48-.71.44-.24.14c-.27.16-.54.31-.82.45s-.63.31-.95.45-.65.28-1,.4a5.65,5.65,0,0,1-.61.22l-.63.21-.47.14-.23.06h-.07l-4.87,1.47-.19.05-44.53,13.43-22.31,6.72-2.52.76h0l-.8,42.42-.73,38.62-.12,6.06-.18,9.71,8.81,65.38h0l-62.22-3.78s-58.34,3.49-62,3.77h0l9.13-65.37h0L737,458.87l-.1-4.48-.72-37.66-.28-14.3H733.3l-3.54,11.11-1.83,5.74-9.63,30.21h0l-1.56,4.89-1.33,4.16-.07.22.23,2.91h0l6,76.61h0l-.3,0-11.75-1.17-4.36.44-9.24,1L680.28,456l0-.09a.07.07,0,0,1,0-.05l-.25-1.33s0,0,0,0,0-.08,0-.13a2.83,2.83,0,0,1-.06-.42,18.19,18.19,0,0,1-.14-2.84c0-.14,0-.27,0-.41,0-.3,0-.59.06-.88,0-.57.13-1.13.23-1.69a7.63,7.63,0,0,1,.17-.83q.07-.37.18-.75c.09-.31.18-.62.28-.93s.16-.49.24-.73h0l0-.12,30.06-82.27c0-.1.07-.21.11-.31l.45-1.24,0-.08c.12-.3.23-.59.36-.88l.3-.73c.43-1,.91-2,1.43-3q.3-.57.6-1.11l.6-1c.47-.79,1-1.55,1.48-2.29.16-.24.32-.47.5-.7s.49-.7.76-1,.51-.67.77-1c.38-.49.79-1,1.21-1.43.18-.22.37-.42.57-.63s.34-.37.52-.55.45-.48.69-.71c.46-.48.95-.93,1.43-1.38h0l0,0,.05-.05.07-.07.1-.09a.65.65,0,0,1,.12-.11c.32-.31.87-.8,1.64-1.44l.44-.37c1.19-1,2.83-2.21,4.91-3.61l1.21-.78,1.4-.89.72-.43.6-.35.31-.18c.82-.48,1.69-1,2.6-1.45l.91-.48c.31-.17.62-.33,1-.49s.65-.33,1-.49l1-.47.49-.23c.52-.25,1.07-.49,1.61-.74l1.15-.51,1.12-.47,1.15-.47c1.17-.48,2.39-.94,3.65-1.39l1.26-.44,1.31-.44c.44-.15.88-.29,1.33-.42s.7-.23,1.07-.33c1.09-.34,2.2-.66,3.35-1,.41-.1.82-.22,1.25-.32l.15,0c.88-.22,1.77-.44,2.67-.64l1.11-.25q2.58-.57,5.34-1l1.42-.23a.58.58,0,0,1,.19,0c.29-.05.58-.1.88-.13,1.06-.17,2.14-.3,3.23-.43.53-.07,1-.13,1.59-.18q3.28-.36,6.78-.54l2.28-.11,113.1-5.16,12.79-72.78,7.73,2,1.68.44,4.31,1.12,7.5.48,3.25.21Z"/><path class="cls-2" d="M680,454.39c0,.05,0,.09,0,.13l0-.13Z"/><path class="cls-2" d="M823.06,262.43c-.13.88-.3,1.74-.5,2.59Z"/><path class="cls-2" d="M817.31,292.3l0,.15h0A.28.28,0,0,0,817.31,292.3Z"/><polygon class="cls-2" points="862.2 854.5 840.92 853.29 819.68 854.51 809.35 725.96 793.97 598.43 786.13 598.43 786.13 598.43 771 725.96 760.91 854.5 739.84 853.29 718.43 854.51 719.46 726.84 722.84 612.36 726.31 548.32 727 543.34 853.35 543.34 854.02 548.32 857.59 612.36 860.88 726.84 862.2 854.5"/><path class="cls-2" d="M823.44,257.35a33.9,33.9,0,0,1-.38,5.07h0l-.5,2.59-4.95,25.74h0l-.3,1.53a.28.28,0,0,1,0,.15,23.36,23.36,0,0,1-16.07,17.17h0a41.36,41.36,0,0,1-22.29,0h0a23.39,23.39,0,0,1-16.55-20v0l-4.79-24.47c-.21-.86-.38-1.73-.52-2.61v-.05a32.88,32.88,0,0,1-.39-5.09,33.39,33.39,0,0,1,66.78,0Z"/><path class="cls-1" d="M851.77,403.68h0a3.42,3.42,0,0,0,0-.46Z"/><polygon class="cls-2" points="721.94 543.34 717.13 562.96 691.53 589.12 681.72 583.72 702.18 543.34 702.19 543.33 721.89 543.34 721.94 543.34"/><polygon class="cls-2" points="760.41 860.95 760.41 901.21 681.25 901.21 681.25 889.37 708.22 878.95 715.87 875.99 718.29 871.21 718.29 871.21 723.49 860.92 723.5 860.92 725.8 860.93 760.4 860.95 760.41 860.95"/><polygon class="cls-2" points="898.78 889.37 898.78 901.21 820.2 901.21 820.2 860.95 820.21 860.95 854.8 860.93 857.09 860.92 862.38 871.5 862.38 871.51 864.61 875.99 874.9 880.01 874.9 880.02 898.78 889.37"/><polygon class="cls-2" points="945.23 222.09 943.06 227.39 936.48 243.51 936.46 243.51 915.77 240.16 912.62 217.93 912.62 217.92 926.9 184.24 926.9 184.23 937.86 185.64 938.01 185.67 939.12 185.8 939.82 185.89 939.82 185.9 945.23 222.09"/></svg>