<svg id="Capa_3" data-name="Capa 3" xmlns="http://www.w3.org/2000/svg" viewBox="0 0 1300 1000"><defs><style>.cls-1{fill:#fff;}</style></defs><title>stand--second-quadrant</title><polygon class="cls-1" points="132.74 854.5 132.24 860.92 132.24 860.95 132.23 860.95 97.63 860.93 95.32 860.92 90.2 860.92 90.26 854.51 111.67 853.29 132.74 854.5"/><polygon class="cls-1" points="270.61 901.21 270.61 901.22 192.02 901.22 192.02 860.92 192.03 860.92 192.02 860.83 191.51 854.51 212.75 853.29 234.03 854.5 234.1 860.92 228.91 860.92 226.63 860.93 192.03 860.95 192.03 860.95 192.03 901.21 270.61 901.21"/><path class="cls-1" d="M225.17,543.33H98.83l0-.1,1.08-7.7c3.63-.28,62-3.77,62-3.77l62.22,3.78,1,7.69Z"/><polygon class="cls-1" points="93.73 543.27 93.73 543.27 93.72 543.34 74.02 543.33 74.01 543.34 68.61 543.34 67.69 538.49 76.94 537.54 81.3 537.1 93.05 538.27 93.35 538.3 93.72 543.12 93.72 543.14 93.73 543.27"/><polygon class="cls-1" points="293.86 240.68 293.84 240.68 273.1 237.61 269.33 237.05 268.55 241.91 276.3 243.8 277.98 244.22 282.31 245.27 289.82 245.66 293.07 245.82 296.78 246.01 297.02 241.15 293.86 240.68"/><path d="M296.78,246l-.63,13.14-3.65,76.5-.06,1.35,0,.24c0,.22,0,.44-.08.67s-.07.54-.12.82l0,.17c0,.22-.09.42-.14.64a5.63,5.63,0,0,1-.14.59c0,.11,0,.22-.08.33l0,.09c0,.11-.07.22-.1.33-.11.4-.24.79-.38,1.17-.07.19-.14.37-.22.56a.08.08,0,0,1,0,.05c-.05.14-.11.27-.17.41a.79.79,0,0,0,0,.09c0,.09-.08.18-.13.27s-.18.41-.28.61-.29.55-.44.82l-.36.61c-.06.1-.12.2-.19.3l0,0c-.3.48-.64.94-1,1.39a19.58,19.58,0,0,1-2.67,2.8c-.22.19-.44.38-.67.55h0l-.45.33c-.22.17-.45.33-.68.49s-.46.3-.7.45L283,352l-.81.45c-.31.17-.63.33-1,.47s-.64.28-1,.41-.41.16-.61.23l-.63.21-.47.15-.22.07h-.07l-4.86,1.53-.18.06-31.39,9.93-22.22,7-2.51.8h0l-.8,42.42-.73,38.62-.12,6.06-.18,9.71,8.8,65.38h0l-62.22-3.78s-58.34,3.49-62,3.77h0l9.13-65.37h0l-.21-11.28-.1-4.48L108,416.73l-.28-14.3h-2.61l-3.54,11.11-1.83,5.74-9.63,30.21h0l-1.57,4.89-1.32,4.16-.07.22.23,2.91h0l6,76.61h0l-.3,0L81.3,537.1l-4.36.44-9.25,1L52.11,456l0-.09a.07.07,0,0,1,0-.05l-.25-1.33s0,0,0,0a.53.53,0,0,1,0-.13c0-.14-.05-.27-.07-.42a19.48,19.48,0,0,1-.13-2.84v-.41c0-.3,0-.59.07-.88,0-.57.13-1.13.23-1.69a7.63,7.63,0,0,1,.17-.83q.08-.37.18-.75c.08-.31.18-.62.28-.93s.16-.49.24-.73h0l0-.12,30.06-82.27c0-.1.07-.21.11-.31l.45-1.24,0-.08c.12-.3.23-.59.36-.88s.2-.49.3-.73c.43-1,.91-2,1.43-3q.3-.57.6-1.11c.2-.35.39-.69.6-1,.47-.79,1-1.55,1.48-2.29.16-.24.32-.47.5-.7s.49-.7.76-1,.51-.67.77-1c.38-.49.79-1,1.21-1.43.18-.22.37-.42.57-.63s.34-.37.52-.55.45-.48.69-.71c.46-.48,1-.93,1.43-1.38h0l0,0,.05-.05.06-.07.1-.09.13-.11c.32-.31.87-.8,1.64-1.44.13-.12.28-.24.44-.37,1.19-1,2.83-2.21,4.91-3.61l1.21-.78,1.4-.89.72-.43.6-.35.31-.18c.82-.48,1.69-1,2.59-1.45l.92-.48c.31-.17.62-.33,1-.49l1-.49,1-.47.49-.23c.52-.25,1.06-.49,1.61-.74l1.15-.51,1.12-.47,1.15-.47c1.17-.48,2.39-.94,3.65-1.39l1.26-.44,1.31-.44c.43-.15.88-.29,1.33-.42s.7-.23,1.07-.33c1.09-.34,2.2-.66,3.35-1l1.24-.32.16,0c.87-.22,1.77-.44,2.67-.64l1.11-.25q2.58-.57,5.34-1l1.42-.23a.58.58,0,0,1,.19,0c.29-.05.58-.1.88-.13,1.06-.17,2.14-.3,3.23-.43.53-.07,1.05-.13,1.59-.18q3.28-.36,6.78-.54l2.28-.11,99.67-3.61,11.79-76.81,7.75,1.89,1.68.42,4.33,1.05,7.51.39,3.25.16Z"/><path d="M51.81,454.39a.53.53,0,0,0,0,.13l0-.13Z"/><path d="M194.89,262.43c-.13.88-.3,1.74-.5,2.59Z"/><path d="M189.14,292.3l0,.15h0A.42.42,0,0,0,189.14,292.3Z"/><polygon points="234.03 854.5 212.75 853.29 191.51 854.51 181.18 725.96 165.79 598.43 157.96 598.43 157.96 598.43 142.83 725.96 132.74 854.5 111.67 853.29 90.26 854.51 91.29 726.84 94.67 612.36 98.14 548.32 98.83 543.34 225.18 543.34 225.85 548.32 229.41 612.36 232.71 726.84 234.03 854.5"/><path d="M195.27,257.35a33.9,33.9,0,0,1-.38,5.07h0l-.5,2.59-5,25.74h0l-.29,1.53a.42.42,0,0,1,0,.15A23.38,23.38,0,0,1,173,309.62h0a41.36,41.36,0,0,1-22.29,0h0a23.39,23.39,0,0,1-16.55-20v0L129.4,265.1c-.21-.86-.38-1.73-.52-2.61v-.05a32.88,32.88,0,0,1-.39-5.09,33.39,33.39,0,0,1,66.78,0Z"/><path class="cls-1" d="M223.6,403.68h0c0-.16,0-.31,0-.46Z"/><polygon points="93.77 543.34 88.96 562.96 63.36 589.12 53.55 583.72 74.01 543.34 74.02 543.33 93.72 543.34 93.77 543.34"/><polygon points="132.24 860.95 132.24 901.21 53.08 901.21 53.08 889.37 80.04 878.95 87.7 875.99 90.12 871.21 90.12 871.21 95.32 860.92 95.32 860.92 97.63 860.93 132.23 860.95 132.24 860.95"/><polygon points="270.61 889.37 270.61 901.21 192.03 901.21 192.03 860.95 192.03 860.95 226.63 860.93 228.91 860.92 234.21 871.5 234.21 871.51 236.44 875.99 246.72 880.01 246.72 880.02 270.61 889.37"/><polygon points="302.31 219.14 300.22 224.47 293.86 240.68 293.84 240.68 273.1 237.61 269.66 215.42 269.66 215.41 283.48 181.54 283.48 181.53 294.45 182.8 294.61 182.82 295.72 182.94 296.42 183.02 296.42 183.03 302.31 219.14"/></svg>