<svg id="Capa_3" data-name="Capa 3" xmlns="http://www.w3.org/2000/svg" viewBox="0 0 1300 1000"><defs><style>.cls-1{fill:#fff;}</style></defs><title>stand--second-quadrant</title><polygon class="cls-1" points="97.63 862.22 95.32 862.21 87.68 862.21 87.78 850.94 111.67 849.57 135.44 850.94 134.74 859.81 134.74 862.21 132.24 862.24 97.63 862.22"/><path class="cls-1" d="M111.67,852.08l21.07,1.21-.5,6.42v0h0l-34.6,0H90.2l.06-6.41,21.41-1.22m0-5h-.29L90,848.31l-4.67.26,0,4.69-.06,6.41,0,5H97.61l34.62,0h5v-4.83l.49-6.22.4-5.1-5.1-.29L112,847.08Z"/><polygon class="cls-1" points="236.62 862.21 228.91 862.21 226.64 862.22 194.52 862.23 194.52 864.74 189.52 864.74 189.52 859.72 188.81 850.95 212.75 849.57 236.5 850.93 236.62 862.21"/><path class="cls-1" d="M239.09,859.66l-.06-6.42-.06-4.67-4.66-.27L213,847.08h-.57l-21.24,1.23-5.11.29.41,5.1.5,6.12v4.92h52.13Zm-47.06.08h0v-.12l-.51-6.32,21.24-1.22L234,853.29l.06,6.42h-7.46Z"/><path class="cls-1" d="M95.76,544.62l.63-3L97.73,532l2-.15c3.61-.28,59.62-3.63,62-3.78h.15L226.32,532l1.32,9.8.42,2.86Z"/><path class="cls-1" d="M161.9,530.55l62.22,3.78,1,7.69,0,.1H98.83l0-.1,1.08-7.7c3.63-.28,62-3.77,62-3.77m0-5-.3,0c-2.39.14-58.42,3.5-62,3.77l-4,.31-.56,4-1,7.52-1.27,6H230.94l-.82-5.7,0-.11-1-7.65-.55-4.07-4.1-.25-62.22-3.78-.3,0Z"/><polygon class="cls-1" points="75.47 544.62 74.01 544.63 66.54 544.63 64.73 535.07 81.29 533.37 93.6 534.6 95.68 534.81 96.22 541.81 96.23 542.05 96.23 542.33 95.74 544.56 93.72 544.63 75.47 544.62"/><path class="cls-1" d="M81.3,535.89l11.75,1.17.3,0,.37,4.82v.14h0v.07H68.61l-.92-4.85,9.25-.95,4.36-.44m0-5-.5,0-4.36.45-9.25.94-5.41.56,1,5.35.92,4.85.76,4.07H97.73l.87-3.91v-.07l.12-.54v-1.09l-.38-4.82L98,532.54l-4.15-.43-.3,0-11.77-1.17-.5,0Z"/><polygon class="cls-1" points="292.94 247.1 281.94 246.55 277.39 245.43 275.7 245.02 265.71 242.58 267.26 233.01 294.23 237 299.62 237.8 299.16 247.43 292.94 247.1"/><path class="cls-1" d="M269.33,235.84l3.77.56,20.74,3.07h0l3.16.47-.24,4.86-3.71-.19-3.25-.17-7.51-.38L278,243l-1.68-.42-7.75-1.89.78-4.86m-4.14-5.67L264.4,235l-.79,4.85-.74,4.57,4.49,1.09,7.76,1.9,1.66.41,4.34,1.06.46.11.47,0,7.51.38,3.26.16,3.7.2,5,.26.25-5,.23-4.86.22-4.52-4.47-.66-3.16-.48-.41-.06h0l-20.33-3-3.77-.56-4.88-.72Z"/><path d="M49.61,455l-.09-.44-.19-.18v-.94c0-.15,0-.31-.06-.47a20.71,20.71,0,0,1-.15-3.15c0-.13,0-.32,0-.5s0-.61.06-.93c.07-.66.15-1.3.26-1.93l.06-.31h-.32l1.3-3.48.12-.34h0l29.93-81.92.56-1.55.07-.16c.13-.35.24-.63.36-.91s.21-.52.33-.78c.43-1,.94-2.08,1.49-3.14.22-.41.43-.8.66-1.19s.41-.72.63-1.09c.47-.79,1-1.61,1.55-2.41.17-.24.34-.49.54-.74s.53-.75.82-1.12l.8-1c.38-.48.82-1,1.26-1.49.18-.2.38-.43.59-.65l.52-.56c.28-.29.54-.56.81-.82.43-.44.93-.92,1.44-1.39l.15-.15h0l.25-.23c.28-.27.84-.79,1.72-1.52l.47-.38c1.53-1.25,3.25-2.51,5.09-3.75l1.25-.81,1.43-.9.78-.47.64-.38.29-.17c.82-.48,1.72-1,2.66-1.48l.93-.49,1-.51c.3-.16.65-.33,1-.5l1.47-.71c.54-.26,1.1-.51,1.66-.76l1.17-.52,1.14-.48,1.17-.48q1.84-.75,3.78-1.44l1.28-.45,1.34-.45c.46-.15.94-.31,1.41-.44l1.06-.33c1-.31,2.13-.64,3.42-1l.32-.09.94-.24.24-.06c.88-.22,1.76-.44,2.67-.64l1.16-.26c1.84-.4,3.63-.75,5.43-1l1.37-.22L142,320l.89-.13c1-.15,2.12-.3,3.24-.43l.15,0,1.49-.16c2.16-.24,4.49-.42,6.9-.55l2.29-.11,97.64-3.54,11.88-77.46,10.41,2.54,1.68.42,4.09,1,10.53.53,6.2.33L294.93,336c0,.1,0,.2,0,.3,0,.27-.05.51-.09.75s-.07.52-.12.83c0,.11,0,.23-.07.36s-.07.35-.12.57a4.74,4.74,0,0,1-.16.65,3.48,3.48,0,0,1-.1.41l0,.16,0,.11,0,.17c-.15.52-.3,1-.47,1.41l0,.09v.54l-.38.42-.1.19c0,.1-.09.2-.14.31s-.18.39-.29.61-.35.68-.53,1-.26.45-.42.7l-.13.23-.09.14c-.34.52-.71,1-1.1,1.55a23.31,23.31,0,0,1-2.82,3v1.33h-1.67l-.55.39c-.25.17-.51.33-.77.49s-.23.15-.35.22c-.29.17-.59.34-.9.5s-.71.37-1.08.53-.69.31-1.06.45c-.2.09-.44.18-.68.26s-.45.16-.68.23l-.18.06-.24.26-.71,0-4.74,1.5-31.37,9.92-23,7.28-1.79,94.84,9.16,68h-2.93l-62.16-3.78c-3.3.2-58.29,3.5-61.77,3.76H97.06l.39-2.85,9.1-65.18-.21-11.09-.1-4.47-.85-44.58-12.76,40-.12.38-1.57,4.89-1.24,3.91.2,2.53,6.16,79.21H93.23L81.3,538.4,65.66,540Z"/><path class="cls-1" d="M268.55,240.7l7.75,1.89L278,243l4.33,1.05,7.51.38,3.25.17,3.71.19L296.15,258l-3.65,76.5-.06,1.35,0,.23c0,.23,0,.45-.08.67s-.07.55-.12.83l0,.17c0,.21-.09.42-.14.64a5.63,5.63,0,0,1-.14.59c0,.11,0,.22-.08.33l0,.09c0,.11-.07.22-.1.33a11.41,11.41,0,0,1-.38,1.17c-.07.18-.14.37-.22.55a.11.11,0,0,1,0,.06c-.05.14-.11.27-.17.41l0,.08a2.39,2.39,0,0,1-.13.28l-.28.61c-.14.28-.29.55-.44.82l-.36.61c-.06.1-.12.2-.19.3l0,0c-.3.47-.64.94-1,1.39a20.12,20.12,0,0,1-2.67,2.8l-.67.55h0l-.45.34c-.22.17-.45.33-.68.49s-.46.3-.7.44a1.2,1.2,0,0,1-.24.15c-.27.16-.54.32-.81.46s-.63.32-1,.47-.64.28-1,.41a5.65,5.65,0,0,1-.61.22,5.93,5.93,0,0,1-.63.22l-.47.15-.22.07h-.07l-4.86,1.54-.18.05-31.39,9.94-22.22,7-2.51.8h0l-.8,42.42-.73,38.62-.12,6.06-.18,9.71,8.8,65.38h0l-62.22-3.78s-58.34,3.49-62,3.77h0l9.13-65.38h0l-.21-11.28-.1-4.48L108,415.52l-.28-14.3v0h-2.6v0l-3.54,11.11-1.83,5.74-9.63,30.2v0l-1.57,4.89-1.32,4.15-.07.23.23,2.91h0l6,76.61h0l-.3,0L81.3,535.89l-4.36.44-9.25.95L52.11,454.81l0-.09a.09.09,0,0,1,0-.05l-.25-1.33s0,0,0,0a.53.53,0,0,1,0-.13c0-.14-.05-.28-.07-.42a19.48,19.48,0,0,1-.13-2.84v-.41c0-.3,0-.59.07-.88,0-.57.13-1.13.23-1.69a7.63,7.63,0,0,1,.17-.83q.08-.37.18-.75c.08-.32.18-.62.28-.93s.16-.49.24-.73h0l0-.12L82.89,361.3c0-.1.07-.21.11-.31l.45-1.24,0-.08c.12-.3.23-.59.35-.88s.21-.49.31-.73c.43-1,.91-2,1.43-3l.6-1.1c.2-.35.39-.7.6-1,.47-.79,1-1.55,1.48-2.3.16-.23.32-.46.5-.7s.49-.69.76-1,.51-.66.77-1c.38-.49.79-1,1.21-1.43q.27-.33.57-.63c.16-.19.34-.37.52-.56s.45-.47.69-.7c.46-.48,1-.94,1.43-1.38h0l0,0,.05-.06.06-.06L95,343a.69.69,0,0,1,.13-.11c.32-.31.87-.8,1.64-1.44.13-.12.28-.24.44-.37,1.19-1,2.83-2.22,4.91-3.61l1.21-.78c.45-.3.92-.59,1.4-.89l.72-.43c.2-.12.39-.24.6-.35l.31-.19c.82-.47,1.69-1,2.59-1.44l.92-.49,1-.48,1-.49,1-.47.49-.23c.52-.25,1.06-.49,1.61-.74L116,330l1.12-.48,1.15-.46c1.17-.48,2.39-.94,3.65-1.39l1.26-.44,1.31-.44c.43-.15.88-.3,1.33-.43l1.07-.33c1.09-.33,2.2-.65,3.35-1l1.24-.32.16,0,2.67-.65,1.11-.24q2.58-.57,5.34-1l1.42-.23.19,0,.88-.13c1.06-.16,2.14-.3,3.23-.43l1.59-.17q3.28-.36,6.78-.54l2.28-.11,99.67-3.62,11.79-76.8m-4.12-6.16-.82,5.4-11.16,72.72-95.54,3.46h-.06l-2.27.1c-2.49.13-4.86.32-7.09.57-.48,0-1,.1-1.5.16l-.13,0c-1.32.15-2.38.3-3.35.44l-.89.13-.4.07-1.31.21c-1.83.3-3.65.65-5.57,1.07q-.61.12-1.2.27c-.88.2-1.77.41-2.64.63l-.33.08-.95.25-.3.08c-1.33.35-2.48.68-3.53,1l-1.09.34-1.44.45-1.32.45-.09,0c-.42.15-.85.29-1.27.45-1.32.47-2.61,1-3.84,1.46h0l-1,.41-.06,0-.06,0,0,0-.43.18-.73.31-1.19.53-1.7.77-.32.16-.18.08,0,0,0,0-.61.3-.3.14c-.36.18-.72.35-1.07.54l-1,.51-1,.51c-.94.5-1.86,1-2.72,1.51l-.21.13-.07,0-.7.41-.75.45-1.51,1c-.43.27-.85.55-1.25.82-1.94,1.3-3.72,2.6-5.31,3.9-.16.12-.3.24-.44.36l-.06.05-.74.63h0l-.19.17c-.37.32-.66.59-.86.78l-.09.08-.09.06-.31.32c-.48.44-1,.91-1.49,1.43q-.41.39-.78.81c-.2.2-.39.41-.58.61s-.43.47-.65.72c-.52.58-.94,1.08-1.32,1.57s-.59.72-.85,1.08-.57.74-.85,1.14-.44.6-.59.83c-.55.8-1.1,1.65-1.61,2.51-.24.38-.46.77-.68,1.16s-.45.8-.67,1.22c-.59,1.12-1.12,2.24-1.59,3.35l-.35.81c-.13.31-.25.63-.38.95l-.08.21h0l-.44,1.21c0,.11-.08.21-.11.32v0l0,0L48.46,441h0l-.29.81,0,.08,0,.08-2.53,6.76h1.09c0,.19,0,.38,0,.57s0,.38,0,.6a23.79,23.79,0,0,0,.17,3.46c0,.12,0,.24,0,.35v1.7l.26.27v.27l.23.44,15.47,81.86.85,4.51,4.57-.47,9.25-.94,3.85-.4L92.55,542l.29,0,.25,0h5.66l-.21-2.77h1.57l.2,0c3.41-.26,57-3.47,61.58-3.74l61.92,3.76h6l-.75-5.66-8.76-65,.18-9.33.12-6.06.73-38.62.73-38.85,21.3-6.73,31.4-9.94.14,0,4.19-1.33h1.4l.57-.6.31-.12c.28-.09.54-.19.81-.3.42-.17.8-.33,1.15-.49s.76-.36,1.21-.6l1-.54a4.44,4.44,0,0,0,.44-.27l.78-.5h.47l1.25-1.27.54-.45h0l0,0a25.23,25.23,0,0,0,3.36-3.51c.44-.58.85-1.15,1.22-1.73l.15-.22v0l.05-.07v0a.41.41,0,0,1,.07-.11c.16-.27.32-.53.46-.79s.36-.65.53-1l0-.05,0-.05c.11-.22.22-.45.32-.67s.09-.21.14-.31l.09-.2c.05-.1.09-.2.13-.3s.14-.34.2-.52.11-.27.16-.4c.18-.49.35-1,.52-1.58v-.14a1.42,1.42,0,0,0,.07-.22c.06-.19.11-.39.16-.58s.12-.49.17-.72.09-.42.13-.64.06-.3.08-.43c.05-.3.1-.6.14-.9l.09-.77c0-.16,0-.29,0-.37V336l.07-1.35,3.65-76.5.63-13.15.23-5-5-.26-3.7-.2-3.27-.16-7-.36-3.86-.94-1.67-.41-7.77-1.9-5.3-1.3ZM95.13,449.05l8.05-25.24.56,29.47.1,4.48.2,10.88L97,519.23l-4.59-59v-.13l-.15-1.95,1.1-3.44,1.56-4.88.24-.75v0Z"/><path d="M191.93,263.33l.5-2.58,4.93.84c-.14.92-.32,1.86-.54,2.79Z"/><path class="cls-1" d="M194.89,261.22c-.13.88-.3,1.74-.5,2.59l.5-2.59m-4.91-1-.5,2.59,9.77,2.1c.24-1,.43-2,.58-3L190,260.27Z"/><path d="M185.12,293.74l1.73-3.59,1.48.71.2.05,3.08.57a1.5,1.5,0,0,1-.06.29l-.4,1.93-2,0Z"/><path class="cls-1" d="M189.14,291.09a.52.52,0,0,1,0,.11l0-.11m0,.11v0h0l0,0m-4.5-2.19L181,296.24h12.12l.83-3.9c0-.18.07-.33.09-.44l-4.81-.9-1.26-.34L184.62,289Z"/><polygon points="88.79 725.61 92.17 611.07 95.65 546.87 96.65 539.62 227.36 539.62 228.34 546.87 231.91 611.01 235.21 725.56 236.56 855.94 212.75 854.58 189.22 855.93 178.68 724.95 163.58 599.71 160.18 599.71 145.31 725.04 135.04 855.93 111.67 854.58 87.73 855.95 88.79 725.61"/><path class="cls-1" d="M225.18,542.12l.67,5,3.56,64,3.3,114.48L234,853.29l-21.28-1.21-21.24,1.22L181.18,724.75,165.8,597.21H158L142.83,724.75,132.74,853.29l-21.07-1.21L90.26,853.3l1-127.67,3.38-114.48,3.47-64,.69-5H225.18m4.37-5H94.48l-.6,4.32-.69,5,0,.21v.21l-3.47,64V611L86.29,725.48v.11l-1,127.67-.05,5.33,5.33-.3,21.12-1.21,20.8,1.2,4.88.28.39-4.88,10.08-128.44,14.08-118.68L176.2,725.25,186.53,853.7l.39,4.87,4.88-.28,20.95-1.21,21,1.2,5.34.31-.05-5.35-1.32-127.66v-.09L234.41,611v-.13l-3.57-64v-.2l0-.19-.67-5-.58-4.34Z"/><path d="M161.88,315.45A43.06,43.06,0,0,1,150,313.8l-1.74-.56v0a25.75,25.75,0,0,1-16.53-21.5L127,267.42c-.21-.89-.39-1.79-.54-2.76a36.64,36.64,0,0,1-.42-5.52,35.89,35.89,0,0,1,71.78,0,36.66,36.66,0,0,1-.38,5.25v.06l-5.79,30.11s0,.18-.09.38a25.88,25.88,0,0,1-16,18.26v0l-1.74.57A43.09,43.09,0,0,1,161.88,315.45Z"/><path class="cls-1" d="M161.88,225.75a33.39,33.39,0,0,1,33.39,33.39,34,34,0,0,1-.38,5.07h0l-.5,2.59-5,25.74h0l-.29,1.53a.42.42,0,0,1,0,.15A23.38,23.38,0,0,1,173,311.41h0a41.36,41.36,0,0,1-22.29,0h0a23.39,23.39,0,0,1-16.55-20v0l-4.79-24.47c-.21-.86-.38-1.73-.52-2.61v0a32.88,32.88,0,0,1-.39-5.09,33.39,33.39,0,0,1,33.39-33.39m0-5a38.43,38.43,0,0,0-38.39,38.39,39.32,39.32,0,0,0,.44,5.85v.08c.15,1,.34,1.95.56,2.88l4.72,24.13a28.24,28.24,0,0,0,16.51,22.79v.19l3.48,1.12a46.2,46.2,0,0,0,25.33,0l3.48-1.11v-.2a28.41,28.41,0,0,0,15.9-19.29c.07-.27.11-.48.14-.61l.28-1.47.08-.47h0l4.87-25.28.5-2.58.09-.47v-.13a39.32,39.32,0,0,0,.38-5.43,38.43,38.43,0,0,0-38.39-38.39Z"/><path class="cls-1" d="M221.22,405l-.12-2.37c0-.07,0-.32,0-.32l5-.52.34,3.21Z"/><path class="cls-1" d="M223.55,402a1,1,0,0,1,0,.17l0-.17m0,.17,0,.28h0a2.64,2.64,0,0,0,0-.28m5-.71-9.94,1.06,0,.15v0l.28,4.7,4.71,0h5.55l-.57-5.52,0-.28,0-.19Z"/><polygon points="50.23 583.54 72.47 539.63 74.02 539.62 96.9 539.63 96.2 542.73 91.23 563.01 63.82 591.01 50.23 583.54"/><path class="cls-1" d="M74,542.12H93.77L89,561.75l-25.6,26.16-9.81-5.4L74,542.13h0m-3.08-5-1.39,2.77h0L49.09,580.25l-2.18,4.31,4.23,2.33,9.81,5.4,3.33,1.83,2.66-2.71,25.6-26.17.95-1,.33-1.33,4.81-19.62,1.51-6.19H70.93Z"/><polygon points="134.73 857.24 134.73 900 50.58 900 50.58 886.44 85.9 872.79 93.78 857.21 97.64 857.22 134.73 857.24"/><path class="cls-1" d="M132.23,854.74l-34.6,0H92.24l-1.39,2.75-5.2,10.28-.54,1.06h0l-1,2-5.86,2.26-27,10.42-3.2,1.24V900h5V888.16l27-10.42,7.66-3L90.11,870h0l5.2-10.28h2.32l34.6,0V900h5V854.74Z"/><polygon points="273.11 886.45 273.11 900 189.52 900 189.52 857.24 226.63 857.22 230.45 857.21 236.7 869.7 236.7 869.71 238.25 872.8 249.22 877.09 249.22 877.1 273.11 886.45"/><path class="cls-1" d="M272.43,883.5l-20.71-8.11-3.18-1.25-8.49-3.32-.85-1.7-.53-1.06-5.29-10.58L232,854.7h-5.39l-34.58,0h-5V900h5V859.74h0l34.6,0h2.28l5.29,10.58h0l2.24,4.48,10.28,4h0l23.89,9.35V900h5V884.75Z"/><polygon points="293.66 241.97 270.92 238.6 267.16 214.4 267.16 213.72 280.98 179.84 280.98 177.52 283.76 177.84 294.74 179.1 294.95 179.13 298.92 179.56 298.92 181.61 304.89 218.2 295.56 241.97 293.66 241.97"/><path class="cls-1" d="M283.48,180.32l11,1.27.16,0,1.11.12.7.08h0l5.9,36.12-2.1,5.33-6.36,16.21h0L273.1,236.4l-3.44-22.19h0l13.82-33.87h0m-5.09-5.62.07,4.68L265,212.31l-.39.94,0,1v.35l.06.36,3.44,22.18.57,3.64,3.64.54,20.74,3.07.4.06h.41l3.35-.06,1.24-3.12,6.36-16.2,2.1-5.34.5-1.27-.22-1.36-5.84-35.75-.06-4.06-4.4-.48-.7-.07-1-.11-.09,0H295l-11-1.27-5.66-.65Z"/></svg>