<svg id="Capa_3" data-name="Capa 3" xmlns="http://www.w3.org/2000/svg" viewBox="0 0 1300 1000"><defs><style>.cls-1{fill:#fff;}.cls-2{fill:#1e1e1c;}</style></defs><title>1-subject</title><polygon class="cls-1" points="457.74 854.5 457.23 860.92 457.23 860.95 457.23 860.95 422.63 860.93 420.32 860.92 415.2 860.92 415.25 854.51 436.66 853.29 457.74 854.5"/><polygon class="cls-1" points="595.61 901.21 595.61 901.22 517.01 901.22 517.01 860.92 517.02 860.92 517.01 860.83 516.51 854.51 537.75 853.29 559.02 854.5 559.09 860.92 553.91 860.92 551.63 860.93 517.03 860.95 517.02 860.95 517.02 901.21 595.61 901.21"/><path class="cls-1" d="M550.17,543.33H423.83l0-.1,1.08-7.7c3.63-.28,62-3.77,62-3.77l62.22,3.78,1,7.69Z"/><polygon class="cls-1" points="418.73 543.27 418.73 543.27 418.71 543.34 399.01 543.33 399 543.34 393.61 543.34 392.69 538.49 401.93 537.54 406.29 537.1 418.04 538.27 418.34 538.3 418.72 543.12 418.72 543.14 418.73 543.27"/><polygon class="cls-1" points="633.3 243.51 633.29 243.51 612.59 240.16 608.83 239.55 607.98 244.39 615.71 246.39 617.38 246.83 621.69 247.95 629.2 248.43 632.45 248.64 636.15 248.88 636.46 244.03 633.3 243.51"/><path class="cls-2" d="M636.16,248.88,635.35,262,631,332.77l-.08,1.34,0,.24c0,.22,0,.45-.09.67s-.08.55-.14.82a1,1,0,0,1,0,.17c0,.22-.09.43-.14.64a5.69,5.69,0,0,1-.16.59,1.32,1.32,0,0,1-.08.33l0,.09c0,.11-.07.21-.1.33-.12.39-.25.78-.4,1.16-.07.18-.15.37-.23.55s0,0,0,.06a3.65,3.65,0,0,1-.18.41s0,.05,0,.08a2.28,2.28,0,0,1-.13.28c-.09.2-.19.4-.29.6s-.29.54-.45.81-.24.41-.37.61-.12.2-.19.3l0,0c-.31.47-.65.93-1,1.37a19.09,19.09,0,0,1-2.71,2.76c-.22.19-.45.37-.68.54h0l-.46.33c-.22.17-.45.32-.68.48l-.71.44a2,2,0,0,1-.25.14c-.27.16-.53.31-.81.45s-.63.31-1,.45-.65.28-1,.4a5.11,5.11,0,0,1-.62.22l-.63.21-.47.14-.22.06h-.07l-4.88,1.47-.18.05L567,365.86l-22.31,6.72-2.53.76h0l-.79,42.42-.74,38.62-.11,6.06-.19,9.71,8.81,65.38h0l-62.22-3.78s-58.33,3.49-62,3.77h0l9.13-65.37h0l-.22-11.28-.09-4.48L433,416.73l-.28-14.3h-2.62l-3.53,11.11-1.83,5.74-9.63,30.21h0l-1.57,4.89-1.32,4.16-.07.22.22,2.91h0l6,76.61h0l-.3,0-11.75-1.17-4.36.44-9.24,1L377.1,456v-.09a.07.07,0,0,1,0-.05l-.25-1.33s0,0,0,0a.51.51,0,0,1,0-.13c0-.14,0-.27-.06-.42a21,21,0,0,1-.14-2.84c0-.14,0-.27,0-.41l.06-.88c.06-.57.13-1.13.23-1.69.05-.28.1-.56.17-.83s.12-.5.19-.75.17-.62.27-.93.16-.49.25-.73h0l.05-.12,30.06-82.27c0-.1.06-.21.1-.31l.46-1.24a.41.41,0,0,1,0-.08c.11-.3.23-.59.35-.88s.2-.49.31-.73c.43-1,.91-2,1.42-3,.2-.38.4-.75.61-1.11s.39-.69.6-1c.47-.79,1-1.55,1.48-2.29.16-.24.32-.47.5-.7a12.4,12.4,0,0,1,.76-1c.24-.33.5-.67.77-1,.38-.49.79-1,1.2-1.43l.57-.63c.17-.19.35-.37.52-.55s.46-.48.7-.71c.46-.48.94-.93,1.43-1.38h0l0,0,.05-.05.06-.07.1-.09.12-.11c.33-.31.87-.8,1.64-1.44l.45-.37c1.19-1,2.83-2.21,4.9-3.61l1.21-.78,1.41-.89.71-.43.6-.35.32-.18c.81-.48,1.68-1,2.59-1.45l.92-.48c.3-.17.62-.33.94-.49s.66-.33,1-.49l1-.47.48-.23c.52-.25,1.07-.49,1.62-.74l1.14-.51,1.13-.47,1.15-.47c1.17-.48,2.38-.94,3.64-1.39l1.26-.44,1.31-.44c.44-.15.89-.29,1.33-.42s.71-.23,1.07-.33c1.09-.34,2.21-.66,3.35-1l1.25-.32.15,0c.88-.22,1.77-.44,2.68-.64l1.11-.25q2.58-.57,5.33-1l1.43-.23.18,0c.29-.05.59-.1.89-.13,1.06-.17,2.13-.3,3.23-.43.53-.07,1.05-.13,1.59-.18q3.29-.36,6.78-.54l2.28-.11,113.09-5.16L608,244.39l7.73,2,1.67.44,4.31,1.12,7.51.48,3.25.21Z"/><path class="cls-2" d="M376.8,454.39a.51.51,0,0,0,0,.13l0-.13Z"/><path class="cls-2" d="M519.88,262.43c-.13.88-.3,1.74-.5,2.59Z"/><path class="cls-2" d="M514.14,292.3l0,.15h0A.83.83,0,0,0,514.14,292.3Z"/><polygon class="cls-2" points="559.02 854.5 537.75 853.29 516.51 854.51 506.17 725.96 490.79 598.43 482.95 598.43 482.95 598.43 467.83 725.96 457.74 854.5 436.66 853.29 415.25 854.51 416.28 726.84 419.67 612.36 423.13 548.32 423.83 543.34 550.17 543.34 550.84 548.32 554.41 612.36 557.7 726.84 559.02 854.5"/><path class="cls-2" d="M520.27,257.35a32.62,32.62,0,0,1-.39,5.07h0l-.5,2.59-5,25.74h0l-.29,1.53a.83.83,0,0,1,0,.15A23.39,23.39,0,0,1,498,309.62h0a41.39,41.39,0,0,1-22.3,0h0a23.39,23.39,0,0,1-16.54-20v0l-4.8-24.47q-.3-1.29-.51-2.61v-.05a34.17,34.17,0,0,1-.38-5.09,33.39,33.39,0,0,1,66.78,0Z"/><path class="cls-1" d="M548.6,403.68h0c0-.16,0-.31,0-.46Z"/><polygon class="cls-2" points="418.77 543.34 413.96 562.96 388.36 589.12 378.55 583.72 399 543.34 399.01 543.33 418.71 543.34 418.77 543.34"/><polygon class="cls-2" points="457.23 860.95 457.23 901.21 378.08 901.21 378.08 889.37 405.04 878.95 412.7 875.99 415.11 871.21 415.11 871.21 420.31 860.92 420.32 860.92 422.63 860.93 457.23 860.95 457.23 860.95"/><polygon class="cls-2" points="595.61 889.37 595.61 901.21 517.02 901.21 517.02 860.95 517.03 860.95 551.63 860.93 553.91 860.92 559.2 871.5 559.2 871.51 561.44 875.99 571.72 880.01 571.72 880.02 595.61 889.37"/><polygon class="cls-2" points="642.05 222.09 639.88 227.39 633.3 243.51 633.29 243.51 612.59 240.16 609.45 217.93 609.45 217.92 623.73 184.24 623.73 184.23 634.69 185.64 634.84 185.67 635.95 185.8 636.65 185.89 636.65 185.9 642.05 222.09"/></svg>