<svg id="Capa_1" data-name="Capa 1" xmlns="http://www.w3.org/2000/svg" viewBox="0 0 1300 1000"><defs><style>.cls-1{fill:#262626;}</style></defs><title>stand--third-quadrant</title><path class="cls-1" d="M953.64,176.58H933.19L906.78,283.31s-93.42,8.35-118.87,9.7c-87.14,4.66-105.13,139.42-105.13,139.42L667,521.31h18.92l23.38-92.26,35.09-76.23L713.26,530.88h13.27L697.37,867.22H708.7l-28.64,23.27.09,10.73h69.16l.27-34.22H762l25.16-317.23L812.3,867l14,0,0,34.17h71.16l-.5-10.69-26.44-23.48L883,867,849.91,530.83l13.35,0L830.33,342.43l99-31.59Z"/><ellipse class="cls-1" cx="790.07" cy="252.81" rx="24" ry="30"/></svg>