<svg id="Capa_1" data-name="Capa 1" xmlns="http://www.w3.org/2000/svg" viewBox="0 0 1300 1000"><defs><style>.cls-1{fill:#262626;}</style></defs><title>stand--fourth-quadrant</title><path class="cls-1" d="M1281.64,176.58h-20.45l-26.41,106.73s-93.42,8.35-118.87,9.7c-87.14,4.66-105.13,139.42-105.13,139.42L995,521.31h18.92l23.38-92.26,35.09-76.23-31.15,178.06h13.27l-29.16,336.35h11.33l-28.64,23.27.09,10.73h69.16l.27-34.22H1090l25.16-317.23L1140.3,867l14,0,0,34.17h71.16l-.5-10.69-26.44-23.48,12.53,0-33-336.18,13.35,0-32.93-188.45,99-31.59Z"/><ellipse class="cls-1" cx="1118.07" cy="252.81" rx="24" ry="30"/></svg>