<svg id="Capa_3" data-name="Capa 3" xmlns="http://www.w3.org/2000/svg" viewBox="0 0 1300 1000"><defs><style>.cls-1{fill:#fff;}.cls-2{fill:#1e1e1c;}</style></defs><title>1-subject</title><polygon class="cls-1" points="435.92 854.5 435.41 860.92 435.41 860.95 435.4 860.95 400.8 860.93 398.5 860.92 393.37 860.92 393.43 854.51 414.84 853.29 435.92 854.5"/><polygon class="cls-1" points="573.78 901.21 573.78 901.22 495.19 901.22 495.19 860.92 495.2 860.92 495.19 860.83 494.68 854.51 515.92 853.29 537.2 854.5 537.27 860.92 532.09 860.92 529.8 860.93 495.2 860.95 495.2 860.95 495.2 901.21 573.78 901.21"/><path class="cls-1" d="M528.34,543.33H402l0-.1,1.08-7.7c3.63-.28,62-3.77,62-3.77l62.22,3.78,1,7.69Z"/><polygon class="cls-1" points="396.9 543.27 396.9 543.27 396.89 543.34 377.19 543.33 377.18 543.34 371.78 543.34 370.87 538.49 380.11 537.54 384.47 537.1 396.22 538.27 396.52 538.3 396.9 543.12 396.9 543.14 396.9 543.27"/><polygon class="cls-1" points="611.48 243.51 611.46 243.51 590.77 240.16 587.01 239.55 586.15 244.39 593.88 246.39 595.56 246.83 599.87 247.95 607.37 248.43 610.62 248.64 614.33 248.88 614.63 244.03 611.48 243.51"/><path class="cls-2" d="M614.33,248.88,613.52,262l-4.33,70.75-.09,1.34a2,2,0,0,1,0,.24c0,.22-.05.45-.08.67s-.09.55-.14.82l0,.17-.15.64a5.66,5.66,0,0,1-.15.59,2,2,0,0,1-.09.33.32.32,0,0,1,0,.09c0,.11-.07.21-.1.33a9.94,9.94,0,0,1-.4,1.16c-.07.18-.14.37-.22.55a.11.11,0,0,1,0,.06c-.06.14-.11.27-.18.41l0,.08-.13.28c-.09.2-.19.4-.29.6s-.29.54-.46.81a5.51,5.51,0,0,1-.37.61c-.06.1-.12.2-.19.3l0,0c-.32.47-.65.93-1,1.37a18.58,18.58,0,0,1-2.71,2.76c-.22.19-.44.37-.67.54h0l-.45.33-.69.48-.71.44-.24.14c-.27.16-.54.31-.82.45s-.63.31-.95.45-.65.28-1,.4a5.65,5.65,0,0,1-.61.22l-.63.21-.47.14-.23.06h-.07l-4.87,1.47-.19.05-44.53,13.43-22.31,6.72-2.52.76h0l-.8,42.42-.73,38.62-.12,6.06-.18,9.71,8.81,65.38h0l-62.22-3.78s-58.34,3.49-62,3.77h0l9.13-65.37h0L412,458.87l-.1-4.48-.72-37.66-.28-14.3H408.3l-3.54,11.11-1.83,5.74-9.63,30.21h0l-1.56,4.89-1.33,4.16-.07.22.23,2.91h0l6,76.61h0l-.3,0-11.75-1.17-4.36.44-9.24,1L355.28,456l0-.09a.07.07,0,0,1,0-.05l-.25-1.33s0,0,0,0,0-.08,0-.13a2.83,2.83,0,0,1-.06-.42,18.19,18.19,0,0,1-.14-2.84c0-.14,0-.27,0-.41,0-.3,0-.59.06-.88,0-.57.13-1.13.23-1.69a7.63,7.63,0,0,1,.17-.83q.08-.37.18-.75c.09-.31.18-.62.28-.93s.16-.49.24-.73h0l.05-.12,30.06-82.27c0-.1.07-.21.11-.31l.45-1.24,0-.08c.12-.3.23-.59.36-.88l.3-.73c.43-1,.91-2,1.43-3q.3-.57.6-1.11l.6-1c.47-.79,1-1.55,1.48-2.29.16-.24.32-.47.5-.7s.49-.7.76-1,.51-.67.77-1c.38-.49.79-1,1.21-1.43.18-.22.37-.42.57-.63s.34-.37.52-.55.45-.48.69-.71c.46-.48.95-.93,1.43-1.38h0l0,0,0-.05.07-.07.1-.09a.65.65,0,0,1,.12-.11c.32-.31.87-.8,1.64-1.44l.44-.37c1.19-1,2.83-2.21,4.91-3.61l1.21-.78,1.4-.89.72-.43.6-.35.31-.18c.82-.48,1.69-1,2.6-1.45l.91-.48c.31-.17.62-.33.95-.49s.65-.33,1-.49l1-.47.49-.23c.52-.25,1.07-.49,1.61-.74l1.15-.51,1.12-.47,1.15-.47c1.17-.48,2.39-.94,3.65-1.39l1.26-.44,1.31-.44c.44-.15.88-.29,1.33-.42s.7-.23,1.07-.33c1.09-.34,2.2-.66,3.35-1,.41-.1.82-.22,1.25-.32l.15,0c.88-.22,1.77-.44,2.67-.64l1.11-.25q2.58-.57,5.34-1l1.42-.23a.58.58,0,0,1,.19,0c.29-.05.58-.1.88-.13,1.06-.17,2.14-.3,3.23-.43.53-.07,1.05-.13,1.59-.18q3.29-.36,6.78-.54l2.28-.11,113.1-5.16,12.79-72.78,7.73,2,1.68.44,4.31,1.12,7.5.48,3.25.21Z"/><path class="cls-2" d="M355,454.39c0,.05,0,.09,0,.13l0-.13Z"/><path class="cls-2" d="M498.06,262.43c-.13.88-.3,1.74-.5,2.59Z"/><path class="cls-2" d="M492.31,292.3l0,.15h0A.28.28,0,0,0,492.31,292.3Z"/><polygon class="cls-2" points="537.2 854.5 515.92 853.29 494.68 854.51 484.35 725.96 468.97 598.43 461.13 598.43 461.13 598.43 446 725.96 435.92 854.5 414.84 853.29 393.43 854.51 394.46 726.84 397.84 612.36 401.31 548.32 402 543.34 528.35 543.34 529.02 548.32 532.59 612.36 535.88 726.84 537.2 854.5"/><path class="cls-2" d="M498.44,257.35a33.9,33.9,0,0,1-.38,5.07h0l-.5,2.59-4.95,25.74h0l-.3,1.53a.28.28,0,0,1,0,.15,23.36,23.36,0,0,1-16.07,17.17h0a41.36,41.36,0,0,1-22.29,0h0a23.39,23.39,0,0,1-16.55-20v0l-4.79-24.47c-.21-.86-.38-1.73-.52-2.61v-.05a32.88,32.88,0,0,1-.39-5.09,33.39,33.39,0,0,1,66.78,0Z"/><path class="cls-1" d="M526.77,403.68h0a3.42,3.42,0,0,0,0-.46Z"/><polygon class="cls-2" points="396.94 543.34 392.13 562.96 366.54 589.12 356.72 583.72 377.18 543.34 377.19 543.33 396.89 543.34 396.94 543.34"/><polygon class="cls-2" points="435.41 860.95 435.41 901.21 356.25 901.21 356.25 889.37 383.21 878.95 390.87 875.99 393.29 871.21 393.29 871.21 398.49 860.92 398.5 860.92 400.8 860.93 435.4 860.95 435.41 860.95"/><polygon class="cls-2" points="573.78 889.37 573.78 901.21 495.2 901.21 495.2 860.95 495.2 860.95 529.8 860.93 532.09 860.92 537.38 871.5 537.38 871.51 539.61 875.99 549.9 880.01 549.9 880.02 573.78 889.37"/><polygon class="cls-2" points="620.23 222.09 618.06 227.39 611.48 243.51 611.46 243.51 590.77 240.16 587.62 217.93 587.62 217.92 601.9 184.24 601.9 184.23 612.86 185.64 613.01 185.67 614.12 185.8 614.82 185.89 614.82 185.9 620.23 222.09"/></svg>