<svg id="Capa_3" data-name="Capa 3" xmlns="http://www.w3.org/2000/svg" viewBox="0 0 1300 1000"><defs><style>.cls-1{fill:#fff;}.cls-2{fill:#1e1e1c;}</style></defs><title>stand--third-quadrant</title><polygon class="cls-1" points="728.39 854.5 727.89 860.92 727.89 860.95 727.88 860.95 693.28 860.93 690.97 860.92 685.85 860.92 685.91 854.51 707.32 853.29 728.39 854.5"/><polygon class="cls-1" points="866.26 901.21 866.26 901.22 787.67 901.22 787.67 860.92 787.68 860.92 787.67 860.83 787.16 854.51 808.4 853.29 829.68 854.5 829.75 860.92 824.57 860.92 822.28 860.93 787.68 860.95 787.68 860.95 787.68 901.21 866.26 901.21"/><path class="cls-1" d="M820.82,543.33H694.48l0-.1,1.08-7.7c3.63-.28,62-3.77,62-3.77l62.22,3.78,1,7.69Z"/><polygon class="cls-1" points="689.38 543.27 689.38 543.27 689.37 543.34 669.66 543.33 669.66 543.34 664.26 543.34 663.34 538.49 672.59 537.54 676.95 537.1 688.7 538.27 689 538.3 689.37 543.12 689.37 543.14 689.38 543.27"/><polygon class="cls-1" points="903.96 243.51 903.94 243.51 883.25 240.16 879.49 239.55 878.63 244.39 886.36 246.39 888.04 246.83 892.34 247.95 899.85 248.43 903.1 248.64 906.81 248.88 907.11 244.03 903.96 243.51"/><path class="cls-2" d="M906.81,248.88,906,262l-4.34,70.75-.08,1.34,0,.24c0,.22,0,.45-.09.67s-.08.55-.13.82l0,.17-.15.64a5.66,5.66,0,0,1-.15.59,2,2,0,0,1-.09.33.32.32,0,0,1,0,.09c0,.11-.07.21-.1.33-.12.39-.25.78-.4,1.16l-.22.55a.07.07,0,0,1,0,.06,3.56,3.56,0,0,1-.17.41s0,.05,0,.08-.09.18-.13.28-.19.4-.29.6-.3.54-.46.81-.24.41-.37.61-.12.2-.19.3l0,0c-.32.47-.66.93-1,1.37a18.58,18.58,0,0,1-2.71,2.76c-.22.19-.44.37-.67.54h0l-.45.33-.69.48-.71.44L892,349c-.27.16-.54.31-.82.45s-.63.31-.95.45-.65.28-1,.4a5.11,5.11,0,0,1-.62.22c-.2.08-.42.14-.63.21l-.46.14-.23.06h-.07l-4.87,1.47-.19.05-44.53,13.43-22.31,6.72-2.52.76h0l-.8,42.42-.73,38.62-.12,6.06-.18,9.71,8.8,65.38h0l-62.22-3.78s-58.34,3.49-62,3.77h0l9.13-65.37h0l-.21-11.28-.1-4.48-.72-37.66-.28-14.3h-2.61l-3.54,11.11-1.83,5.74-9.63,30.21h0l-1.57,4.89-1.32,4.16-.07.22.23,2.91h0l6,76.61h0l-.3,0L677,537.1l-4.36.44-9.25,1L647.76,456l0-.09a.07.07,0,0,1,0-.05l-.25-1.33s0,0,0,0a.53.53,0,0,1,0-.13c0-.14-.05-.27-.07-.42a19.48,19.48,0,0,1-.13-2.84v-.41c0-.3,0-.59.07-.88,0-.57.13-1.13.23-1.69a7.63,7.63,0,0,1,.17-.83q.07-.37.18-.75c.08-.31.18-.62.28-.93s.16-.49.24-.73h0l.05-.12,30.06-82.27c0-.1.07-.21.11-.31l.45-1.24,0-.08c.12-.3.23-.59.36-.88l.3-.73c.43-1,.91-2,1.43-3q.3-.57.6-1.11l.6-1c.47-.79,1-1.55,1.48-2.29.16-.24.32-.47.5-.7s.49-.7.76-1,.51-.67.77-1c.38-.49.79-1,1.21-1.43.18-.22.37-.42.57-.63s.34-.37.52-.55.45-.48.69-.71c.46-.48,1-.93,1.43-1.38h0l0,0,.05-.05.07-.07.09-.09.13-.11c.32-.31.87-.8,1.64-1.44.13-.12.28-.24.44-.37,1.19-1,2.83-2.21,4.91-3.61l1.21-.78,1.4-.89.72-.43.6-.35L702,336c.82-.48,1.69-1,2.59-1.45l.92-.48c.31-.17.62-.33.95-.49l1-.49,1-.47.49-.23c.52-.25,1.06-.49,1.61-.74l1.15-.51,1.12-.47,1.15-.47c1.17-.48,2.39-.94,3.65-1.39l1.26-.44,1.31-.44c.43-.15.88-.29,1.33-.42s.7-.23,1.07-.33c1.09-.34,2.2-.66,3.35-1l1.24-.32.16,0c.87-.22,1.77-.44,2.67-.64L731,325q2.58-.57,5.34-1l1.42-.23a.58.58,0,0,1,.19,0c.29-.05.58-.1.88-.13,1.06-.17,2.14-.3,3.23-.43.53-.07,1-.13,1.59-.18q3.29-.36,6.78-.54l2.28-.11,113.1-5.16,12.79-72.78,7.73,2,1.68.44,4.3,1.12,7.51.48,3.25.21Z"/><path class="cls-2" d="M647.46,454.39a.53.53,0,0,0,0,.13l0-.13Z"/><path class="cls-2" d="M790.54,262.43c-.13.88-.3,1.74-.5,2.59Z"/><path class="cls-2" d="M784.79,292.3l0,.15h0A.42.42,0,0,0,784.79,292.3Z"/><polygon class="cls-2" points="829.68 854.5 808.4 853.29 787.16 854.51 776.83 725.96 761.45 598.43 753.61 598.43 753.61 598.43 738.48 725.96 728.39 854.5 707.32 853.29 685.91 854.51 686.94 726.84 690.32 612.36 693.79 548.32 694.48 543.34 820.83 543.34 821.5 548.32 825.07 612.36 828.36 726.84 829.68 854.5"/><path class="cls-2" d="M790.92,257.35a33.9,33.9,0,0,1-.38,5.07h0L790,265l-5,25.74h0l-.29,1.53a.42.42,0,0,1,0,.15,23.38,23.38,0,0,1-16.07,17.17h0a41.36,41.36,0,0,1-22.29,0h0a23.39,23.39,0,0,1-16.55-20v0l-4.79-24.47c-.21-.86-.38-1.73-.52-2.61v-.05a32.88,32.88,0,0,1-.39-5.09,33.39,33.39,0,1,1,66.78,0Z"/><path class="cls-1" d="M819.25,403.68h0c0-.16,0-.31,0-.46Z"/><polygon class="cls-2" points="689.42 543.34 684.61 562.96 659.01 589.12 649.2 583.72 669.66 543.34 669.66 543.33 689.37 543.34 689.42 543.34"/><polygon class="cls-2" points="727.89 860.95 727.89 901.21 648.73 901.21 648.73 889.37 675.69 878.95 683.35 875.99 685.77 871.21 685.77 871.21 690.97 860.92 690.97 860.92 693.28 860.93 727.88 860.95 727.89 860.95"/><polygon class="cls-2" points="866.26 889.37 866.26 901.21 787.68 901.21 787.68 860.95 787.68 860.95 822.28 860.93 824.57 860.92 829.86 871.5 829.86 871.51 832.09 875.99 842.38 880.01 842.38 880.02 866.26 889.37"/><polygon class="cls-2" points="912.71 222.09 910.54 227.39 903.96 243.51 903.94 243.51 883.25 240.16 880.1 217.93 880.1 217.92 894.38 184.24 894.38 184.23 905.34 185.64 905.49 185.67 906.6 185.8 907.3 185.89 907.3 185.9 912.71 222.09"/></svg>