<svg id="Capa_3" data-name="Capa 3" xmlns="http://www.w3.org/2000/svg" viewBox="0 0 1300 1000"><defs><style>.cls-1{fill:#fff;}.cls-2{fill:#1e1e1c;}</style></defs><title>1-subject</title><polygon class="cls-1" points="727.79 854.5 727.28 860.92 727.28 860.95 727.27 860.95 692.68 860.93 690.37 860.92 685.25 860.92 685.3 854.51 706.71 853.29 727.79 854.5"/><polygon class="cls-1" points="865.66 901.21 865.66 901.22 787.06 901.22 787.06 860.92 787.07 860.92 787.06 860.83 786.56 854.51 807.8 853.29 829.08 854.5 829.14 860.92 823.96 860.92 821.68 860.93 787.08 860.95 787.07 860.95 787.07 901.21 865.66 901.21"/><path class="cls-1" d="M820.22,543.33H693.88l0-.1,1.08-7.7c3.63-.28,62-3.77,62-3.77l62.22,3.78,1,7.69Z"/><polygon class="cls-1" points="688.78 543.27 688.78 543.27 688.76 543.34 669.06 543.33 669.05 543.34 663.65 543.34 662.74 538.49 671.98 537.54 676.34 537.1 688.09 538.27 688.39 538.3 688.77 543.12 688.77 543.14 688.78 543.27"/><polygon class="cls-1" points="903.35 243.51 903.34 243.51 882.64 240.16 878.88 239.55 878.03 244.39 885.76 246.39 887.43 246.83 891.74 247.95 899.25 248.43 902.5 248.64 906.21 248.88 906.5 244.03 903.35 243.51"/><path class="cls-2" d="M906.21,248.88,905.4,262l-4.34,70.75-.08,1.34,0,.24c0,.22-.05.45-.09.67s-.08.55-.14.82a1,1,0,0,1,0,.17c0,.22-.09.43-.14.64a5.69,5.69,0,0,1-.16.59,1.32,1.32,0,0,1-.08.33l0,.09c0,.11-.07.21-.1.33-.12.39-.25.78-.4,1.16-.07.18-.15.37-.23.55s0,0,0,.06a3.65,3.65,0,0,1-.18.41s0,.05,0,.08a2.28,2.28,0,0,1-.13.28c-.09.2-.19.4-.29.6s-.29.54-.45.81-.24.41-.37.61-.12.2-.19.3l0,0c-.31.47-.65.93-1,1.37a19.09,19.09,0,0,1-2.71,2.76c-.22.19-.45.37-.68.54h0l-.46.33c-.22.17-.45.32-.68.48l-.71.44a2,2,0,0,1-.25.14c-.27.16-.53.31-.81.45s-.63.31-.95.45-.65.28-1,.4a5.11,5.11,0,0,1-.62.22l-.63.21-.47.14-.22.06h-.07l-4.88,1.47-.18.05L837,365.86l-22.31,6.72-2.53.76h0l-.79,42.42-.74,38.62-.11,6.06-.19,9.71,8.81,65.38h0l-62.22-3.78s-58.33,3.49-62,3.77h0l9.13-65.37h0l-.22-11.28-.09-4.48-.72-37.66-.28-14.3h-2.62l-3.53,11.11-1.83,5.74-9.63,30.21h0l-1.57,4.89-1.32,4.16-.07.22.22,2.91h0l6,76.61h0l-.3,0-11.75-1.17-4.36.44-9.24,1L647.15,456v-.09a.07.07,0,0,1,0-.05l-.25-1.33s0,0,0,0a.51.51,0,0,1,0-.13c0-.14,0-.27-.06-.42a21,21,0,0,1-.14-2.84c0-.14,0-.27,0-.41l.06-.88c.06-.57.13-1.13.23-1.69,0-.28.1-.56.17-.83s.12-.5.19-.75.17-.62.27-.93.16-.49.25-.73h0l0-.12,30.06-82.27c0-.1.06-.21.1-.31l.46-1.24a.41.41,0,0,1,0-.08c.11-.3.23-.59.35-.88s.2-.49.31-.73c.43-1,.91-2,1.42-3,.2-.38.4-.75.61-1.11s.39-.69.6-1c.47-.79,1-1.55,1.48-2.29.16-.24.32-.47.5-.7a12.4,12.4,0,0,1,.76-1c.24-.33.5-.67.77-1,.38-.49.79-1,1.2-1.43l.57-.63c.17-.19.35-.37.52-.55s.46-.48.7-.71c.46-.48.94-.93,1.43-1.38h0l0,0,.05-.05.06-.07.1-.09.12-.11c.33-.31.87-.8,1.64-1.44l.45-.37c1.19-1,2.83-2.21,4.9-3.61l1.21-.78,1.41-.89.71-.43.6-.35.32-.18c.81-.48,1.68-1,2.59-1.45l.92-.48c.3-.17.62-.33.94-.49s.66-.33,1-.49l1-.47.48-.23c.52-.25,1.07-.49,1.62-.74l1.14-.51,1.13-.47,1.15-.47c1.17-.48,2.38-.94,3.64-1.39l1.26-.44,1.31-.44c.44-.15.89-.29,1.33-.42s.71-.23,1.07-.33c1.09-.34,2.21-.66,3.35-1l1.25-.32.15,0c.88-.22,1.77-.44,2.68-.64l1.11-.25q2.58-.57,5.33-1l1.43-.23.18,0c.29-.05.59-.1.89-.13,1.06-.17,2.13-.3,3.23-.43.53-.07,1-.13,1.59-.18q3.28-.36,6.78-.54l2.28-.11,113.09-5.16L878,244.39l7.73,2,1.67.44,4.31,1.12,7.51.48,3.25.21Z"/><path class="cls-2" d="M646.85,454.39a.51.51,0,0,0,0,.13l0-.13Z"/><path class="cls-2" d="M789.93,262.43c-.13.88-.3,1.74-.5,2.59Z"/><path class="cls-2" d="M784.19,292.3l0,.15h0A.83.83,0,0,0,784.19,292.3Z"/><polygon class="cls-2" points="829.08 854.5 807.8 853.29 786.56 854.51 776.22 725.96 760.84 598.43 753 598.43 753 598.43 737.88 725.96 727.79 854.5 706.71 853.29 685.3 854.51 686.33 726.84 689.72 612.36 693.18 548.32 693.88 543.34 820.22 543.34 820.89 548.32 824.46 612.36 827.75 726.84 829.08 854.5"/><path class="cls-2" d="M790.32,257.35a32.62,32.62,0,0,1-.39,5.07h0l-.5,2.59-4.95,25.74h0l-.29,1.53a.83.83,0,0,1,0,.15,23.39,23.39,0,0,1-16.07,17.17h0a41.39,41.39,0,0,1-22.3,0h0a23.39,23.39,0,0,1-16.54-20v0l-4.8-24.47q-.3-1.29-.51-2.61v-.05a34.17,34.17,0,0,1-.38-5.09,33.39,33.39,0,0,1,66.78,0Z"/><path class="cls-1" d="M818.65,403.68h0c0-.16,0-.31,0-.46Z"/><polygon class="cls-2" points="688.82 543.34 684.01 562.96 658.41 589.12 648.6 583.72 669.05 543.34 669.06 543.33 688.76 543.34 688.82 543.34"/><polygon class="cls-2" points="727.28 860.95 727.28 901.21 648.13 901.21 648.13 889.37 675.09 878.95 682.75 875.99 685.16 871.21 685.16 871.21 690.36 860.92 690.37 860.92 692.68 860.93 727.27 860.95 727.28 860.95"/><polygon class="cls-2" points="865.66 889.37 865.66 901.21 787.07 901.21 787.07 860.95 787.08 860.95 821.68 860.93 823.96 860.92 829.25 871.5 829.25 871.51 831.49 875.99 841.77 880.01 841.77 880.02 865.66 889.37"/><polygon class="cls-2" points="912.1 222.09 909.93 227.39 903.35 243.51 903.34 243.51 882.64 240.16 879.5 217.93 879.5 217.92 893.78 184.24 893.78 184.23 904.74 185.64 904.89 185.67 906 185.8 906.7 185.89 906.7 185.9 912.1 222.09"/></svg>