<svg id="Capa_1" data-name="Capa 1" xmlns="http://www.w3.org/2000/svg" viewBox="0 0 1300 1000"><defs><style>.cls-1{fill:#262626;}</style></defs><title>stand--first-quadrant</title><path class="cls-1" d="M307.64,176.58H287.19L260.78,283.31s-93.42,8.35-118.87,9.7C54.77,297.67,36.78,432.43,36.78,432.43L21,521.31H39.94l23.38-92.26,35.09-76.23L67.26,530.88H80.53L51.37,867.22H62.7L34.06,890.49l.09,10.73h69.16l.27-34.22H116l25.16-317.23L166.3,867l13.95,0,0,34.17h71.16l-.5-10.69-26.44-23.48L237,867,203.91,530.83l13.35,0L184.33,342.43l99-31.59Z"/><ellipse class="cls-1" cx="144.07" cy="252.81" rx="24" ry="30"/></svg>