<svg id="Capa_1" data-name="Capa 1" xmlns="http://www.w3.org/2000/svg" viewBox="0 0 1300 1000"><defs><style>.cls-1{fill:#262626;}</style></defs><title>wait--fourth-quadrant</title><path class="cls-1" d="M1247.14,901.22l-.5-11.72-25.56-24h8l-29.37-334h13.07L1206,495.67l36.48-77.33s-24.32-126.53-104.92-125.57S1033,418.34,1033,418.34l36.47,74.2-6.73,37.86h13L1047,866.55l12.56.05-30.27,25v9.64h69.08l-.22-33.75h12.75l26-318.82,25,317.87,14.83-.1-.68,34.79ZM1073.88,467.54l.42-2.68L1062.45,415l31.63-61.05ZM1213,415l-11.76,53.45,1.83,11.73-24-127.49Z"/><ellipse class="cls-1" cx="1138.21" cy="250.63" rx="24" ry="30"/></svg>