<svg id="Capa_3" data-name="Capa 3" xmlns="http://www.w3.org/2000/svg" viewBox="0 0 1300 1000"><defs><style>.cls-1{fill:#fff;}</style></defs><title>wait--third-quadrant</title><path class="cls-1" d="M690.88,545.18l.66-3,1.34-9.6,2-.15c3.43-.26,59.53-3.61,61.92-3.75H757l64.31,3.91,1.33,9.8.4,2.85Z"/><path class="cls-1" d="M757,531.12l62.11,3.78,1,7.67v.11H694l0-.11,1.07-7.69c3.45-.27,61.88-3.76,61.88-3.76m0-5-.3,0c-2.39.14-58.51,3.5-62,3.76l-4,.3-.56,4-1,7.51-1.29,6h138.1l-.82-5.71v-.11l-1-7.63-.55-4.07-4.1-.25-62.12-3.78-.3,0Z"/><polygon class="cls-1" points="822.78 862.27 822.77 862.27 784.74 862.27 784.53 859.87 783.82 850.98 807.71 849.62 831.43 850.97 831.57 862.27 822.78 862.27"/><path class="cls-1" d="M807.71,852.12,829,853.33l.08,6.45H787v-.09l-.5-6.35,21.19-1.21m0-5-.29,0-21.19,1.21-5.1.29.4,5.1.51,6.34v.12l.39,4.58H834.1l-.06-5.06-.08-6.45-.05-4.66-4.66-.27L808,847.13l-.28,0Z"/><polygon class="cls-1" points="661.74 545.18 659.93 535.62 676.49 533.93 688.75 535.14 690.84 535.34 691.39 542.54 691.39 542.92 690.85 545.12 688.88 545.18 661.74 545.18"/><path class="cls-1" d="M676.49,536.44l11.7,1.16.32,0,.37,4.85h0v.13h0v.06H663.81l-.92-4.85,9.23-.94,4.37-.45m0-5-.5.05-4.37.44-9.23,1-5.42.55,1,5.35.91,4.85.77,4.07h33.12l1-3.78v-.07l.15-.59v-1.15l-.38-4.85-.32-4.18-4.18-.41-.32,0L677,531.47l-.5-.05Z"/><polygon class="cls-1" points="823.35 545.18 822.75 543.02 822.73 542.6 822.73 542.5 823.3 535.47 825.64 535.22 838.22 533.93 854.06 535.5 852.44 545.18 823.35 545.18"/><path class="cls-1" d="M838.22,536.44l3.73.37,9.2.91-.83,5H825.25l0-.08v0l.39-4.84.29,0,12.31-1.26m0-5-.5.05-12.31,1.26-.32,0-4.11.45-.33,4.12-.39,4.84,0,.2v.86l.17.67,0,.09,1,3.69h33.12l.7-4.17.83-5,.88-5.27-5.32-.53-9.19-.92-3.74-.36-.5-.05Z"/><polygon class="cls-1" points="726.29 862.27 691.5 862.27 690.46 862.27 682.85 862.27 682.94 850.97 706.67 849.62 730.52 850.98 729.41 865.38 726.29 862.27"/><path class="cls-1" d="M706.67,852.12l21.17,1.21-.5,6.45h-42l0-6.45,21.25-1.21m0-5-.29,0-21.25,1.21-4.68.27,0,4.68,0,6.44,0,5h44.92l6.22,6.26.85-10.87.5-6.44.39-5.09-5.09-.29L707,847.13l-.28,0Z"/><path d="M838.23,539l-12.47,1.28h-2.85l.21-2.7,6.45-79-15.65-49.26-1.14,60.2,9.18,68.1-65-4c-3.31.19-58.39,3.49-61.69,3.74h-3.06l.38-2.85,9.09-65.07-.22-11.07-.09-4.47-.85-44.47-15.65,49.09,6.36,81.86-3.28-.31L676.5,539,663,540.33h-2.2l-16-84.55,0-.15v0l-.07-.38-.18-.19v-.93c0-.12,0-.25,0-.37a21.35,21.35,0,0,1,.23-6.82h-.28l1.22-3.36,30.25-82.8c.12-.35.27-.76.44-1.17s.34-.88.54-1.34h0l.22-.5.57-1.24v0l.25-.52c.27-.55.55-1.09.84-1.64.47-.87,1-1.71,1.46-2.5h0l.4-.63c.67-1,1.37-2,2.1-3a47.85,47.85,0,0,1,3.55-4.1c.29-.3.61-.61.93-.93s.62-.6.94-.88l.14-.13.11-.17.28-.19.44-.41.89-.77.79-.65.83-.67,1.43-1.08.81-.58c.37-.27.79-.57,1.25-.88l.62-.42c.53-.36,1-.69,1.57-1l.24-.16,1.38-.85c.24-.15.55-.34.86-.51l.69-.4a2.43,2.43,0,0,1,.35-.2c.52-.31,1.08-.61,1.64-.92,1-.54,2-1.07,3.12-1.62l.3-.14.8-.39,1.1-.52c.76-.35,1.53-.7,2.33-1.05l1.21-.5c.43-.18.85-.36,1.27-.52l1.28-.51,1.32-.49c.92-.35,1.82-.67,2.75-1l1.39-.47,1.45-.45,1.44-.44c1-.3,2-.58,3.12-.86l1.57-.4c.53-.13,1.09-.27,1.66-.39,1.06-.25,2.17-.49,3.31-.71.83-.17,1.7-.34,2.59-.49l1.83-.31.16-.15h.88c1.51-.22,2.76-.39,3.92-.53l1.44-.16,1.91-.19,1.44-.12c3.48-.28,7.1-.43,10.76-.43,2.76,0,5.5.08,8.14.22l.32,0c1.42.08,2.9.19,4.66.35,1.53.14,3.05.31,4.52.5l.51.06c1.65.21,3.36.47,5,.76l1.29.23,2.26.44,1.09.22.37.08,1.45.32.18,0c1.06.25,2.1.5,3.12.77s2.13.56,3.34.92l.82.25.25.07c1,.29,1.87.59,2.77.89l1.3.44c.88.31,1.69.6,2.48.9s1.55.6,2.3.91l1.48.61c2.25,1,4.43,2,6.49,3.07l.79.41,1.61.89.16.09h1.84V334c.56.33,1.07.65,1.54.95l.64.41.7.46H820V337l.45.32A50.32,50.32,0,0,1,825,341h0l.7.7a45.72,45.72,0,0,1,4.63,4.92c.53.66,1.07,1.37,1.64,2.16a45.82,45.82,0,0,1,2.91,4.64c.45.82.87,1.64,1.25,2.45.14.31.29.63.43,1,.27.61.54,1.25.79,1.89l.19.49,0,0,.46,1.35L859.23,422l7.35,21.35,0,.1.06.22c.13.35.25.69.36,1l.11.35v0l.21.78.08.31v0c.06.3.13.61.19.92l0,.23c0,.22.07.46.1.69l.05.35a22,22,0,0,1-.06,5.84c0,.11,0,.28-.07.45l-.09.5-14.38,85.25Z"/><path class="cls-1" d="M756.81,322c2.77,0,5.46.08,8.05.22l.22,0c1.57.08,3.12.21,4.62.34s3,.3,4.43.49l.46.05c1.71.22,3.37.48,5,.75l1.26.23c.75.13,1.49.28,2.21.43.49.09,1,.2,1.45.3l1.57.35h0c1,.24,2,.48,3,.74s2.2.59,3.26.91l1.06.31h0l2.71.87,1.32.45c.8.28,1.59.57,2.36.86s1.51.58,2.24.88l1.44.6h0c2.3,1,4.4,2,6.31,3,.27.13.54.28.8.42.53.27,1,.56,1.53.84.25.13.49.27.73.41h0c1,.55,1.86,1.09,2.69,1.62l.61.39c.45.29.89.58,1.31.87h0l1.51,1.05a45.3,45.3,0,0,1,4.93,4l0,.05v0h0a42.56,42.56,0,0,1,4.4,4.7c.54.66,1.06,1.34,1.55,2a43.69,43.69,0,0,1,2.76,4.38c.42.76.81,1.53,1.18,2.31.13.29.27.59.4.89.26.59.52,1.2.75,1.81.12.3.24.61.35.92h0l.24.68c.07.23.15.46.23.69l.08.23,20.9,60.69,7.4,21.5a.16.16,0,0,1,0,.09h0q.19.49.36,1h0c.1.35.2.7.29,1.05h0c.08.35.16.72.23,1.08h0c.05.26.09.53.13.81,0,.1,0,.2,0,.3a19.41,19.41,0,0,1-.06,5.17c0,.13,0,.26,0,.39s0,.25-.07.37a.28.28,0,0,0,0,.09l-14,83-9.2-.91-3.73-.37-12.31,1.26-.29,0h0l6-74,.45-5.51-1-3.21-.37-1.17L827.89,445l-10.43-32.81-3.29-10.35h-2.61l-.26,13.5-.73,38.55-.11,6.05-.19,9.7,8.8,65.28L757,531.12s-58.43,3.49-61.88,3.76h0l9.11-65.27L704,458.34l-.09-4.47-.72-37.6L702.87,402h-2.6l-3.54,11.11L685.29,449h0l-1.56,4.88L682.4,458l-.06.22.22,2.91,5.71,73.44.24,3-.32,0-11.7-1.16-4.37.45-9.23.94h0L647.3,455.39a.43.43,0,0,0,0-.05l-.24-1.31s0,0,0,0a.36.36,0,0,0,0-.1v0c0-.14,0-.27-.06-.42a19.18,19.18,0,0,1,1-9.05h0l30.25-82.8c.12-.37.26-.73.41-1.09.22-.59.46-1.18.72-1.75h0c.26-.58.52-1.14.79-1.71h0c.25-.52.51-1,.79-1.54.55-1,1.13-2,1.76-3h0c.62-1,1.28-1.89,2-2.8a42.87,42.87,0,0,1,3.36-3.88L689,345c.3-.29.6-.58.91-.86l.1-.08,0-.05.1-.1.07-.07.06-.06c.09-.07.18-.16.29-.26l.22-.2.25-.22.29-.25.35-.3.69-.57.81-.65c.17-.13.34-.27.53-.4s.57-.44.89-.68l.73-.52c.39-.29.8-.57,1.23-.87.23-.14.45-.3.67-.45l1.44-.94.25-.16c.42-.27.86-.54,1.31-.81L701,336l.78-.45a1.22,1.22,0,0,1,.19-.12l1.66-.92c1-.53,2-1.05,3-1.57l1.06-.52,1.08-.51,2.28-1,1.19-.5,1.22-.5,1.25-.49,1.29-.48c.87-.33,1.75-.65,2.66-.95l1.39-.46,1.42-.44,1.4-.43c1-.3,2-.57,3.05-.84l1.54-.39,1.58-.38c1.07-.25,2.15-.48,3.27-.7.83-.17,1.67-.33,2.53-.47s1.72-.3,2.6-.43h0c1.32-.2,2.67-.4,4-.56l1.39-.15c.62-.07,1.25-.13,1.88-.18l1.43-.13c3.36-.27,6.88-.42,10.55-.42m61.72,81.12a1,1,0,0,1,0,.17h0l0-.17v0M756.81,317c-3.72,0-7.41.15-11,.44l-1.48.13c-.65.05-1.3.12-2,.19-.46,0-.91.1-1.37.15H741c-1.15.13-2.37.3-3.82.51h-1.81l-.32.34-1,.17c-.8.14-1.69.31-2.65.5s-2.06.42-3.35.72c-.63.13-1.22.28-1.73.41l-1.56.4c-1.27.33-2.29.61-3.22.89l-1.47.44-1.49.47-1.41.47c-.92.3-1.86.63-2.83,1l-.88.33-.42.16-1.38.54-1.25.51-.42.18-.75.32h0l0,0c-.81.35-1.61.71-2.38,1.06l-1.18.56-.8.39-.27.14c-1.13.55-2.23,1.12-3.26,1.68l-1.62.9-.44.26c-.22.12-.43.25-.64.38s-.67.39-.94.56c-.48.28-1,.57-1.39.85l-.25.16c-.54.34-1.07.68-1.57,1l-.07,0-.52.36,0,0,0,0-1.31.92-.79.57,0,0,0,0-.26.2-.65.49-.46.36-.09.07c-.31.23-.62.48-.91.72l-.77.64,0,0,0,0-.09.08-.3.26-.1.09-.06,0-.34.29-.26.24,0,0,0,0-.18.16-.21.21-.06,0-.17.17,0,0c-.35.31-.69.64-1,1s-.68.66-1,1a47.92,47.92,0,0,0-3.72,4.31c-.77,1-1.51,2-2.22,3.12l-.8,1.25v0c-.39.65-.78,1.32-1.15,2s-.63,1.19-.9,1.75l-.5,1v.05c-.12.25-.23.5-.34.76l-.45,1v.06c-.13.31-.26.63-.38,1s-.34.86-.47,1.25L643.3,442.68l-2.45,6.72h1A24,24,0,0,0,642,454a1.64,1.64,0,0,0,0,.22v.1l0,.09v1.64l.37.38L658,538.76l.77,4.07h4.4l.26,0,9.23-.95,3.87-.39,11.2,1.11.33,0,5.93.57-.26-3.3h1.55l.21,0c3.24-.24,56.95-3.46,61.49-3.73l61.82,3.76,1.64.1-.22,2.74h5.69l.28,0,.28,0,11.79-1.2,3.23.32,9.2.91,4.64.46.78-4.6,14-82.83v-.07l0-.18,0-.15,0-.14v-.07c0-.2.07-.39.09-.58a24.85,24.85,0,0,0,.06-6.45V448c0-.11,0-.2,0-.29s0-.35-.08-.54v0l0-.24,0-.11,0-.12c0-.24-.09-.48-.14-.72v-.08l-.16-.63c0-.16-.09-.33-.13-.49v0l-.22-.72c-.12-.41-.25-.78-.37-1.1l-.12-.34-7.35-21.36-20.9-60.69,0-.11,0-.05s0-.07,0-.11l-.15-.46-.05-.14c0-.15-.1-.3-.16-.45a2.25,2.25,0,0,0-.08-.24l-.35-1.05-.08-.08h0v0c-.26-.66-.54-1.33-.83-2l-.47-1c-.39-.83-.83-1.7-1.3-2.56a48.78,48.78,0,0,0-3.08-4.9c-.6-.84-1.17-1.59-1.74-2.29a47.54,47.54,0,0,0-4.81-5.14l-1.39-1.4H826c-.83-.72-2-1.66-3.46-2.75V333.3H819l-.11-.07-.66-.42-.35-.23v-2.16h-3.69l-1.26-.69-.31-.15c-.17-.1-.35-.19-.53-.28-2.11-1.11-4.34-2.16-6.63-3.14l-.94-.4h0l-.44-.19-.09,0c-.71-.29-1.54-.63-2.41-.95l-2.44-.89h0l0,0c-.46-.16-.92-.32-1.39-.46l-2.78-.9-.72-.22h0l-.4-.11c-1.23-.37-2.35-.68-3.42-1s-2-.51-3.16-.77l-.55-.13h0l-1.08-.24-.43-.09-1.12-.23-2.27-.44L781,319l-.54-.1h-.05c-1.7-.3-3.43-.56-5.14-.78l-.58-.07c-1.48-.19-3-.36-4.54-.5-1.77-.16-3.26-.27-4.7-.35l-.41,0c-2.68-.15-5.45-.23-8.24-.23Zm58.47,152.38.18-9.31.11-6,.56-29.48,7,22,2.83,8.89.36,1.16.73,2.27-.37,4.53-4.6,56.35-6.79-50.37Zm-125-19.57,8-25.15.56,29.36.1,4.47.2,10.87-7,50.43-4.59-59-.15-1.93,1.11-3.44,1.55-4.89.24-.74Z"/><path d="M722.06,265.43a27.6,27.6,0,0,1-.54-2.74l4.92-.86.5,2.54Z"/><path class="cls-1" d="M724,262.32l.5,2.53c-.2-.83-.37-1.67-.5-2.53m4.9-1L719,263.07c.15,1,.35,2,.59,2.95l9.76-2.14-.5-2.53Z"/><path d="M786.93,264.3l.5-2.56,4.92.85c-.12.84-.3,1.74-.52,2.74Z"/><path class="cls-1" d="M789.88,262.22c-.13.86-.3,1.71-.49,2.55l.49-2.55m-4.91-1-.49,2.56,9.78,2.05c.25-1.06.43-2,.57-2.92L785,261.27Z"/><path d="M756.93,316.37a44.45,44.45,0,0,1-10.57-1.29h-.26l-.31-.14-.29-.09h-.25l-.37-.18a25.76,25.76,0,0,1-18.08-22l-5.29-27a37.31,37.31,0,0,1-.42-5.54,35.84,35.84,0,0,1,71.67,0,35.41,35.41,0,0,1-.38,5.26v.05L786.9,294l0,.18,0,.06-.23,1.2a3.41,3.41,0,0,1-.1.46A25.85,25.85,0,0,1,769,314.66l-.34.18h-.18l-.24.23h-.74A43.69,43.69,0,0,1,756.93,316.37Z"/><path class="cls-1" d="M756.93,226.81a33.33,33.33,0,0,1,33.33,33.33,33.9,33.9,0,0,1-.38,5.07h0l-.49,2.55-4.95,25.74s0,.05,0,.08l-.27,1.41a1.06,1.06,0,0,1,0,.19,23.39,23.39,0,0,1-16.06,17.15h0a3.45,3.45,0,0,1-.43.12l-.36.1h0a41.37,41.37,0,0,1-20.5,0h0l-.37-.1-.43-.12h-.05a23.39,23.39,0,0,1-16.52-20v0l-4.79-24.47-.5-2.53,0-.09a34.07,34.07,0,0,1-.38-5.09,33.33,33.33,0,0,1,33.34-33.33m0-5a38.38,38.38,0,0,0-38.34,38.33A39.32,39.32,0,0,0,719,266v.13l0,.09v.07l.5,2.54L724.32,293a28.25,28.25,0,0,0,19.92,24.06l.31.09.32.09.61.3H746a47,47,0,0,0,10.89,1.29,46.37,46.37,0,0,0,10.87-1.29h1.46l.56-.56a28.34,28.34,0,0,0,19.12-20.53,5.18,5.18,0,0,0,.14-.66l.19-1,0-.08.06-.39,4.94-25.68.49-2.56.09-.47v-.11a38,38,0,0,0,.38-5.44,38.37,38.37,0,0,0-38.33-38.33Z"/><polygon points="807.71 854.62 786.59 855.83 784.21 855.83 784.02 853.53 773.69 725.21 758.62 600.19 755.23 600.19 740.39 725.31 730.14 855.97 706.67 854.62 685.49 855.83 682.9 855.83 682.91 853.31 683.94 725.88 687.32 611.52 690.79 547.41 691.8 540.18 822.31 540.18 823.28 547.41 826.85 611.45 830.14 725.83 831.49 855.98 807.71 854.62"/><path class="cls-1" d="M820.12,542.68l.67,5,.2,3.57,3.36,60.37,3.29,114.31L829,853.33l-21.25-1.21-21.19,1.21h0L776.18,725,762.69,613l-1.86-15.34H753L737.91,725,727.84,853.33l-21.17-1.21-21.25,1.21h0l1-127.43,3.38-114.31,3.46-63.94.7-5H820.12m4.38-5H689.62L689,542l-.69,5,0,.21v.21l-3.46,63.94v.13l-3.37,114.3v.11l-1,127.43,0,5h5.34l21-1.2,20.88,1.2,4.89.28.38-4.89L742.89,725.5l14-118.41.79,6.55,13.49,111.87,10.32,128.22.37,4.6h4.9l20.91-1.2,21,1.2,5.34.3-.06-5.35-1.32-127.43v-.09l-3.29-114.31v-.14L826,550.94l-.2-3.57v-.19l0-.19-.67-5-.58-4.33Z"/><polygon points="867.99 886.47 867.99 900 784.53 900 784.53 857.27 824.94 857.27 825.93 858.32 826.1 858.66 833.18 872.84 842.55 876.5 867.99 886.47"/><path class="cls-1" d="M867.31,883.52l-23.84-9.35L835,870.86l-1.37-2.75-5.28-10.57-.33-.67-.51-.54L826,854.77H782V900h5V859.77h36.84l5.27,10.57,2.24,4.47,10.26,4,23.85,9.34V900h5V884.76Z"/><polygon points="647.22 585.01 645.75 583.44 646.54 581.87 667.67 540.18 692.07 540.18 686.62 562.58 686.62 563.3 685.91 564.03 659.02 591.5 647.22 585.01"/><path class="cls-1" d="M688.88,542.68l-3.78,15.58-1,4h0l-25.56,26.1L648.78,583h0l12.28-24.23.48-.95,7.68-15.14h19.67m6.37-5H666.14l-1.39,2.74-7.68,15.14-.48,1-12.28,24.22L642.66,584l2.58,2.56.5.49.63.35,9.79,5.38,3.32,1.83,2.66-2.71,25.56-26.11,1.42-1.45v-1.45l.84-3.44,3.78-15.58,1.51-6.18Z"/><polygon points="827.73 563.53 822.08 540.18 846.48 540.18 868.67 584.03 855.09 591.5 827.73 563.53"/><path class="cls-1" d="M844.94,542.68l11,21.8L865.35,583l-9.8,5.39L830,562.28l-4.74-19.6h19.68m3.07-5h-29.1l1.49,6.18,4.74,19.59.32,1.34,1,1L852,591.89l2.65,2.71,3.33-1.83,9.8-5.39,4.23-2.33-2.18-4.31-9.38-18.52-11-21.79L848,537.68Z"/><polygon points="729.83 857.27 729.83 900 645.8 900 645.8 886.46 681.07 872.83 688.41 858.29 689.43 857.27 729.83 857.27"/><path class="cls-1" d="M688.39,854.77l-1.47,1.47-.56.57-.36.71-5.18,10.27-1.55,3.05-5.85,2.27-26.92,10.4-3.2,1.24V900h5V888.17l26.92-10.4,7.65-3,2.41-4.77,5.18-10.27h36.87V900h5V854.77Z"/></svg>