<svg id="Capa_1" data-name="Capa 1" xmlns="http://www.w3.org/2000/svg" viewBox="0 0 1300 1000"><defs><style>.cls-1{fill:#262626;}.cls-2{fill:#fff;}</style></defs><title>wait-side--second-quadrant</title><ellipse class="cls-1" cx="498.1" cy="251.65" rx="24" ry="30"/><path class="cls-1" d="M549.88,533.26s1.38-166.53-41.94-234.37c-6.87-10.77-23.87-10.9-30.1,6.86L418,533.26h35L442.6,700.69,414.84,867.15l14.09,0-.13,34.07h69.87l-.18-10.39-25.28-24.65h8l27.83-174,17.14-158.85Z"/><path class="cls-1" d="M484.73,327.25s-11.39,76.76-6.25,111S493,527.46,493,527.46l24.14-.86-7.5-86.28c1.46-85.38,1.79-81.72-1-107.21"/><path class="cls-2" d="M484.73,327.25c-1.64,16.76-3.09,33.51-4.06,50.27-.48,8.38-.88,16.76-1,25.12-.07,4.18-.06,8.36,0,12.53s.22,8.33.5,12.45c.17,2.06.35,4.12.6,6.15s.55,4,.91,6.11l2.07,12.43,4.22,24.86,8.51,49.71L492.89,524l12.06-.45,12.07-.39-3.32,3.75-1.81-21.57c-.6-7.2-1.21-14.39-1.75-21.59l-1.66-21.58-.84-10.8-.77-10.8v-.28l.91-26.82,1-26.81c.38-8.93.74-17.86.89-26.78s-.44-17.82-1.06-26.76c.66,4.43,1.35,8.85,1.91,13.3s.9,8.94,1.14,13.42c.43,9,.52,17.92.65,26.87l.14,26.84,0,26.83v-.29l1.11,10.77,1,10.78,2.08,21.55c.71,7.18,1.35,14.37,2,21.56l1.94,21.56.33,3.62-3.65.14-12.07.46-12.06.41-3.05.1-.5-3-4.12-24.9c-1.36-8.3-2.7-16.61-4-24.93l-3.77-25c-.62-4.17-1.22-8.33-1.78-12.51-.29-2.05-.56-4.25-.75-6.39s-.32-4.29-.42-6.42c-.32-8.54-.12-17,.4-25.46s1.24-16.85,2.17-25.23C479.24,360.48,481.62,343.8,484.73,327.25Z"/><polygon class="cls-1" points="532.16 538.14 516.34 692.14 487.59 870.35 507.82 889.14 507.96 901.19 541.42 901.06 541.24 890.68 515.96 866.03 523.93 866.02 537.9 693.47 532.16 538.14"/></svg>