<svg id="Capa_3" data-name="Capa 3" xmlns="http://www.w3.org/2000/svg" viewBox="0 0 1300 1000"><defs><style>.cls-1{fill:#fff;}.cls-2{fill:#1e1e1c;}</style></defs><title>1-subject</title><path class="cls-1" d="M876.6,542.91H750.45l0-.11,1.07-7.69c3.45-.26,61.88-3.76,61.88-3.76l62.11,3.78,1,7.67Z"/><polygon class="cls-1" points="885.43 853.57 864.18 852.35 842.99 853.57 843.5 859.91 843.5 860 880.33 860 880.34 860.01 885.51 860.01 885.43 853.57"/><polygon class="cls-1" points="745.36 542.85 745.36 542.86 745.35 542.92 725.68 542.92 725.67 542.92 720.28 542.92 719.37 538.06 728.6 537.12 732.96 536.67 744.66 537.83 744.98 537.87 745.36 542.71 745.36 542.72 745.36 542.85"/><polygon class="cls-1" points="906.79 542.92 881.73 542.92 881.73 542.92 881.7 542.83 881.7 542.8 882.09 537.97 882.38 537.93 894.69 536.67 898.42 537.04 907.62 537.96 906.79 542.92"/><polygon class="cls-1" points="783.81 860.01 783.8 860 746.94 860 746.93 860.01 741.84 860.01 741.89 853.57 763.15 852.35 784.31 853.57 783.81 860.01"/><path class="cls-2" d="M921.82,448.93c0-.1,0-.2,0-.3,0-.27-.08-.54-.13-.8h0c-.07-.37-.15-.73-.23-1.08h0c-.09-.36-.18-.71-.29-1.05h0c-.11-.35-.23-.69-.36-1h0a.13.13,0,0,0,0-.08L913.34,423l-20.9-60.69c0-.07-.05-.15-.08-.23-.08-.23-.16-.46-.23-.69l-.24-.68h0c-.11-.3-.23-.61-.34-.92-.24-.61-.49-1.21-.76-1.8-.13-.3-.26-.6-.4-.89-.37-.79-.76-1.56-1.18-2.32a44.77,44.77,0,0,0-2.75-4.38c-.5-.7-1-1.38-1.55-2a43.53,43.53,0,0,0-4.41-4.69h0v0l-.05,0a42.59,42.59,0,0,0-4.93-4.05l-1.5-1s0,0,0,0c-.42-.28-.85-.58-1.31-.87l-.61-.39c-.83-.53-1.73-1.07-2.69-1.62h0l-.73-.41c-.49-.28-1-.56-1.52-.84l-.81-.42c-1.9-1-4-2-6.31-3h0l-1.44-.6c-.72-.3-1.47-.6-2.24-.88s-1.56-.58-2.36-.86c-.44-.15-.88-.31-1.31-.44-.89-.3-1.79-.59-2.72-.87h0l-1-.32c-1.06-.31-2.15-.62-3.27-.9s-2-.51-3-.75h0L841,325l-1.44-.3-2.22-.43-1.26-.22c-1.61-.28-3.28-.53-5-.76l-.47-.05c-1.44-.18-2.91-.34-4.43-.48s-3-.26-4.62-.35h-.22q-3.89-.23-8.05-.23c-3.67,0-7.18.15-10.55.43-.47,0-1,.07-1.43.12-.63,0-1.26.11-1.88.18l-1.39.16c-1.38.16-2.73.35-4,.55h0c-.89.13-1.75.28-2.61.43s-1.7.31-2.53.48c-1.11.21-2.2.45-3.26.69l-1.59.38-1.54.39c-1,.27-2.06.55-3.05.85-.47.13-.93.27-1.4.42l-1.41.44-1.39.46c-.92.3-1.8.62-2.67.95l-1.29.48-1.25.49-1.22.5-1.18.5c-.79.34-1.55.69-2.28,1l-1.09.52-1.06.51c-1.06.52-2.07,1.05-3,1.58-.57.3-1.13.61-1.66.92a1.18,1.18,0,0,0-.19.11c-.26.15-.52.3-.77.46s-.56.32-.83.49l-1.32.8-.25.16-1.44.94L753,339l-1.24.87-.73.52-.89.68-.53.41c-.29.22-.56.43-.81.64l-.69.57-.35.31-.28.24-.26.23-.22.19-.28.27a.13.13,0,0,0-.07.06l-.07.06-.1.1-.05.05-.1.09c-.31.27-.61.57-.91.86s-.6.58-.89.88a47.66,47.66,0,0,0-3.36,3.88c-.7.91-1.36,1.85-2,2.81h0c-.63,1-1.21,2-1.76,3-.27.52-.53,1-.79,1.54h0c-.27.57-.53,1.14-.79,1.71h0c-.26.58-.5,1.16-.72,1.75-.15.36-.28.72-.41,1.09l-30.25,82.8h0a19.05,19.05,0,0,0-1,9.05,3,3,0,0,0,.06.43v0s0,.08,0,.11a0,0,0,0,0,0,0l.25,1.3v.06l15.59,82.43h0l9.23-.94,4.36-.45,11.71,1.16.31,0-.24-3L739,461.39l-.22-2.91.07-.22,1.32-4.15,1.56-4.89h0l11.44-35.89,3.54-11.1h2.61l.27,14.28.72,37.6.1,4.46.21,11.28-9.11,65.26h0c3.45-.26,61.88-3.76,61.88-3.76l62.11,3.78-8.8-65.28.19-9.69.11-6.05.73-38.55.26-13.51h2.61l3.29,10.34,10.43,32.81,2.82,8.9.37,1.16,1,3.21-.45,5.52-6,74h0l.29,0,12.31-1.26,3.73.37,9.2.92,14-83a.22.22,0,0,1,0-.08c0-.13.05-.26.07-.38l.06-.38A19.93,19.93,0,0,0,921.82,448.93ZM875,403.47a1.48,1.48,0,0,0,0-.21l0,.21Z"/><path class="cls-2" d="M780.46,262.55l.5,2.53C780.76,264.25,780.59,263.41,780.46,262.55Z"/><path class="cls-2" d="M846.35,262.45c-.13.87-.3,1.71-.49,2.56Z"/><path class="cls-2" d="M846.74,257.37a32.62,32.62,0,0,1-.39,5.07h0l-.49,2.56-5,25.73s0,.06,0,.08l-.27,1.41a.58.58,0,0,1,0,.19,23.37,23.37,0,0,1-16.06,17.15h0l-.43.13-.36.1h0a41.37,41.37,0,0,1-20.5,0h0l-.36-.1-.43-.13h-.06a23.38,23.38,0,0,1-16.52-20v0L781,265.08l-.5-2.53,0-.09a34,34,0,0,1-.38-5.09,33.34,33.34,0,0,1,66.68,0Z"/><path class="cls-2" d="M840.62,292.23l0,.19h0A.58.58,0,0,0,840.62,292.23Z"/><polygon class="cls-2" points="885.43 853.57 864.18 852.35 842.99 853.57 842.98 853.57 832.65 725.25 819.16 613.28 817.31 597.93 817.31 597.92 809.48 597.92 794.38 725.25 784.31 853.57 763.15 852.35 741.89 853.57 741.89 853.57 742.91 726.14 746.29 611.83 749.76 547.88 750.45 542.91 876.6 542.91 877.26 547.88 877.46 551.46 880.83 611.83 884.11 726.14 885.43 853.57"/><polygon class="cls-2" points="921.96 888.41 921.96 900.23 843.5 900.23 843.5 860 880.33 860 880.34 860.01 885.61 870.57 887.84 875.05 898.11 879.07 921.96 888.41"/><path class="cls-2" d="M824,309.71l.43-.13Z"/><polygon class="cls-2" points="745.36 542.92 741.57 558.5 740.6 562.51 740.6 562.52 715.04 588.62 705.25 583.24 705.24 583.23 717.52 559 718 558.06 725.68 542.92 745.36 542.92"/><polygon class="cls-2" points="921.82 583.23 912.02 588.62 886.47 562.51 881.73 542.92 901.41 542.92 912.44 564.72 921.82 583.23"/><polygon class="cls-2" points="783.8 860 783.8 900.23 704.77 900.23 704.77 888.41 731.69 878 739.34 875.05 741.75 870.27 746.93 860.01 746.94 860 783.8 860"/></svg>