<svg id="Capa_3" data-name="Capa 3" xmlns="http://www.w3.org/2000/svg" viewBox="0 0 1300 1000"><defs><style>.cls-1{fill:#fff;}.cls-2{fill:#1e1e1c;}</style></defs><title>1-subject</title><path class="cls-1" d="M542.1,901.2H517.44V889.37l-19.27-7.55L483.31,876l-7.57-15.16H433.13l.41-5.73.09-.7L455,853.19l3.3.17,18.72,1h0L494,722.28l1.92-15s0,0,0,0c.09-.41.15-.82.2-1.24h-.08v0h.08c.05-.35.09-.71.11-1.08,0,0,0,0,0,0s0,0,0,0l3.7-21.42,23.57-136.55h0l.57-3.19v.54L523,593.72l-14.58,91.12-3.41,21.35,0,.23-.4,2.49-2.08,14.51-18.66,130,17.37.95-.77,6.57-.07-.13H482.81l7.41,10,7.95,3.76L524,886.83V901.2Z"/><path class="cls-1" d="M453.55,557.76l7.36,19.66-5.57,15.13-9.19,25-12.42.18-.62-5.21h9.31l9.81-35.22-5.3-19.56h-28.1l-.1-5.15,7-.63h.12l3.32-.29,3.8-.34,9,.82.37,0,.62,0,4.16.38h0l.4-9.14h0l.05-1.3.38-8.62.07-1.52L451,464.68l.05-1.07,4.14-9.32,25.29-57h2.62l-23.5,67.1-4.45,68.7L473.29,532l50.5,3.07.29,8.38H454.47l-.22,3.34Z"/><polygon class="cls-1" points="433.09 612.53 433.09 612.54 431.24 612.54 433.09 612.53"/><path class="cls-2" d="M521,686.74l-.3,13.68a.08.08,0,0,0,0,0,20.65,20.65,0,0,1,.22,3c0,.11,0,.21,0,.31a20.71,20.71,0,0,1-.35,3.47.08.08,0,0,1,0,0L501.44,852.86l-.2,1.54-17.37-.95,18.66-130,2.08-14.51.4-2.49,0-.23,3.41-21.35L523,593.72l.05-.3Z"/><polygon class="cls-2" points="542.1 889.37 542.1 901.2 524.01 901.2 524.01 886.83 498.17 874.59 490.22 870.83 482.81 860.84 500.4 860.84 500.47 860.98 507.97 876 542.1 889.37"/><polygon class="cls-2" points="517.44 889.37 517.44 901.2 438.94 901.2 438.94 860.84 475.74 860.84 483.31 876 498.17 881.82 517.44 889.37"/><path class="cls-2" d="M453.92,262.51l.5,2.58C454.22,264.25,454.05,263.39,453.92,262.51Z"/><path class="cls-2" d="M519.85,262.46c-.13.86-.3,1.71-.5,2.55Z"/><path class="cls-2" d="M514.12,292.25l0,.19h0A1.05,1.05,0,0,0,514.12,292.25Z"/><path class="cls-2" d="M520.23,257.38a33.76,33.76,0,0,1-.38,5.06v0l-.5,2.55-5,25.75a.64.64,0,0,1,0,.07l-.26,1.42a1.05,1.05,0,0,1,0,.19A23.37,23.37,0,0,1,498,309.59l-.05,0-.43.12-.36.1h0a42,42,0,0,1-10.26,1.29,40.3,40.3,0,0,1-11.13-1.53h0a23.36,23.36,0,0,1-16.53-20v0l-4.8-24.48-.5-2.58v0a32.88,32.88,0,0,1-.39-5.09,33.36,33.36,0,0,1,66.71,0Z"/><path class="cls-2" d="M497.53,309.73l.43-.12Z"/><path class="cls-2" d="M524.09,543.64l-.57,3.19h0L500,683.38l-3.7,21.42s0,0,0,0,0,0,0,0c0,.37-.06.73-.11,1.08h-.08v0h.08c-.05.42-.11.83-.2,1.24,0,0,0,0,0,0l-1.92,15-16.94,132.1h0l-18.72-1-3.3-.17-21.39,1.22-.09.7.67-9.58L444.08,705l0-.44-8.19-68.38-2.21-18.46h0l12.42-.18,9.19-25,5.57-15.13-7.36-19.66.7-10.93.22-3.34h69.64Z"/><path class="cls-2" d="M523.82,535.11h0L473.29,532l-18.15,1.09,4.45-68.7,23.5-67.1h-2.62l-25.29,57L451,463.61l-.05,1.07L448.05,532l-.07,1.52-.38,8.62-.05,1.3h0l-.4,9.14h0l-4.16-.38-.62,0-.37,0-9-.82-3.8.34-3.32.29h-.12l-7,.63h0l-.19-9.13-.17-8.11-.84-41-.16-7.35-.69-33.75v-.36h0v-.36a19.13,19.13,0,0,1,.84-5.63v-.05l30.66-97.95,0-.16A35.43,35.43,0,0,1,517.56,356h.1Z"/><polygon class="cls-2" points="452.23 577.31 442.42 612.52 429.17 612.52 420.06 579.99 420.04 579.95 419.4 577.67 419.4 577.66 419.31 577.33 424.6 557.76 426.52 557.76 442.15 557.75 446.93 557.75 452.23 577.31"/></svg>