<svg id="Capa_3" data-name="Capa 3" xmlns="http://www.w3.org/2000/svg" viewBox="0 0 1300 1000"><defs><style>.cls-1{fill:#fff;}</style></defs><title>wait-side--second-quadrant</title><polygon class="cls-1" points="526.6 543.04 525.54 592.75 510.93 684.04 507.08 708.11 486.73 849.91 504.04 850.85 503 859.64 500.49 859.64 500.47 859.78 500.4 859.64 430.63 859.64 431.05 853.67 431.42 850.84 455.02 849.49 474.89 850.57 493.29 707.02 493.06 707 493.58 704.44 492.72 703.52 493.93 702.39 497.5 681.76 520.57 548.14 520.55 548.14 521.06 545.2 525.91 517.94 526.6 543.04"/><path class="cls-1" d="M529.09,542.31l-1.34-49-8.58,48.24-.57,3.19-1.05,5.88h.05L495,681.33l-3.44,19.9-2.35,2.37,1.57,1.62-.94,3.95.62.06-1.44,11.22L472.7,848l-14.11-.77-3.3-.18-.27,0-.28,0-21.39,1.22-4.14.24-.54,4.11-.09.7,0,.15v.14l-.41,5.73,0,.35h5l.41-5.72.09-.71L455,852l3.3.18,18.72,1h0L494,721.08l1.93-15s0,0,0,0c.09-.4.15-.82.2-1.23h-.08v0h.07a9.81,9.81,0,0,0,.11-1.09h0a0,0,0,0,0,0,0l3.7-21.42,23.57-136.55h0l.57-3.2V543L523,592.53l-14.58,91.11L505.05,705l0,.22-.39,2.5-2.09,14.51-18.66,130,17.37,1-.75,6.43h5l.69-5.85.62-5.29-5.31-.29-11.93-.65,17.89-124.62,2.08-14.47L510,706l0-.19v-.06l3.41-21.36L528,593.32l0-.34v-.35l1.06-49.53v-.79Z"/><polygon class="cls-1" points="430.29 608.83 440.52 608.83 449.64 576.11 445.01 559.05 422.13 559.06 422.13 559.05 416.39 559.05 416.18 549.13 425.48 548.29 425.69 548.27 428.91 547.98 432.94 547.62 442.18 548.47 444.76 548.7 448.56 461.83 478.85 393.63 486.62 393.63 462.06 463.73 457.82 529.27 473.29 528.34 526.21 531.56 526.67 544.8 456.81 544.8 456.08 556.19 463.57 576.22 447.9 618.84 431.51 619.08 430.29 608.83"/><path class="cls-1" d="M483.09,396.13l-23.5,67.1-4.44,68.7,18.14-1.09,50.5,3.08.29,8.38H454.47l-.22,3.34-.7,10.92,7.36,19.67-5.57,15.12-9.19,25-12.42.19-.62-5.22h9.31l9.81-35.21-5.3-19.57h-28.1l-.1-5.14,7-.63h.12l3.32-.3,3.8-.34,9,.82.37,0,.62.06,4.16.37h0l.4-9.13v0l.05-1.3.38-8.62.07-1.52L451,463.48l.05-1.06,4.14-9.32,25.29-57h2.62m7.05-5H477.22l-1.32,3-25.29,57-4.14,9.32-.39.86,0,.95-.05,1.07-2.94,67.36-.07,1.51-.37,8.62-.06,1.31v.11h0l-.17,3.78-9-.82-.45,0-.44,0-3.81.34-3.24.29h-.2l-7,.63-4.65.42.1,4.66.11,5.15.1,4.89H443.1l3.95,14.55-8.43,30.23H427.47l.67,5.59.62,5.22.54,4.47,4.5-.06,12.42-.19,3.44-.05,1.18-3.22,9.2-25L465.6,578l.64-1.74-.65-1.74-7-18.66.55-8.51h70.1l-.18-5.18-.3-8.38-.15-4.54-4.54-.27-50.5-3.08-.3,0-.3,0-12.49.75,4-62.36,23.27-66.45,2.33-6.66Z"/><polygon class="cls-1" points="431.24 613.84 431.23 608.84 435.59 608.82 435.59 613.83 433.09 613.84 431.24 613.84"/><path class="cls-1" d="M433.09,611.33h0m5-5h-6.87l0,10h6.85v-10Z"/><path d="M481,854.6l21.14-147.24L506,683.25l14.63-91.4,5,.43-2.34,106.78a24.49,24.49,0,0,1,.22,3.17c0,.14,0,.28,0,.41a23,23,0,0,1-.25,3l.22.44-.41.76-19.3,146.7-.3,2.3Z"/><path class="cls-1" d="M523.09,592.23,521,685.55l-.3,13.67a.06.06,0,0,0,0,0,20.87,20.87,0,0,1,.22,3c0,.11,0,.22,0,.32a20.7,20.7,0,0,1-.35,3.46.06.06,0,0,1,0,0L501.44,851.67l-.2,1.53-17.37-1,18.66-130,2.08-14.51.4-2.5,0-.22,3.41-21.36L523,592.53l.05-.3m-4.94-.76,0,.3-14.58,91.08-3.4,21.33,0,.19v.06l-.4,2.5V707l-2.08,14.51-18.66,130-.78,5.41,5.45.29,17.38,1,4.63.25.6-4.6.2-1.54,19-144.68.82-1.51-.46-.92c.1-.83.15-1.65.17-2.48,0-.16,0-.32,0-.49a24.75,24.75,0,0,0-.22-3.31l.29-13.26,2.05-93.32-9.94-.87Z"/><polygon points="544.6 886.47 544.6 900 521.51 900 521.51 887.22 519.94 886.48 519.94 886.47 519.86 886.44 488.59 871.63 488.46 871.45 484.67 866.35 477.84 857.14 501.94 857.14 502.7 858.66 509.78 872.83 544.6 886.47"/><path class="cls-1" d="M543.92,883.52l-32.33-12.67-6.65-13.3-.07-.15-1.39-2.76H472.87l1.85,2.5,4.07,5.48,3.75,5.06,3.66,4.93.68.91.07.1,1.13.54,7.95,3.76,23,10.88V900h5V885.64l-1.57-.74-1.65-.79L498.17,873.4l-7.95-3.76-7.41-10H500.4l.07.14,7.5,15,34.13,13.36V900h5V884.76Z"/><polygon points="519.94 886.47 519.94 900 436.44 900 436.44 857.14 477.29 857.14 482.54 867.68 485.11 872.83 486.88 873.52 519.86 886.44 519.94 886.47"/><path class="cls-1" d="M520.79,884.11l-1.52-.59L500,876l-11.53-4.52-1.54-.6-2.25-4.5-4.46-8.94-.13-.27-1.25-2.5H433.94V900h5V859.64h36.8l7.57,15.17,14.86,5.82,19.27,7.54V900h5V884.76Z"/><path d="M452,264.47c-.21-.9-.4-1.83-.54-2.76l4.92-.88.51,2.59Z"/><path class="cls-1" d="M453.92,261.32l.5,2.58c-.2-.85-.37-1.71-.5-2.58m4.9-1L449,262.09c.15,1,.35,2,.58,3l9.77-2.12-.51-2.58Z"/><path d="M516.9,263.34l.49-2.55,4.93.85c-.13.87-.31,1.76-.53,2.73Z"/><path class="cls-1" d="M519.85,261.26c-.13.86-.3,1.71-.5,2.55l.5-2.55m-4.91-.94-.5,2.55,9.79,2.06c.23-1,.42-2,.56-2.92l-9.85-1.69Z"/><path d="M510.47,293.74l1.26-3.37.92.34,4,.62a2.61,2.61,0,0,1-.08.42l-.38,1.94-2.06.05Z"/><path class="cls-1" d="M514.12,291.05l0,.14,0-.14m0,.14v.05h0l0-.05m-4.71-1.68-2.48,6.73h11.27l.8-3.95c0-.23.09-.46.12-.7l-6.47-1-3.33-.82.09-.27Z"/><path d="M486.88,315.43A42.51,42.51,0,0,1,475,313.78l-1.74-.55v0a25.73,25.73,0,0,1-16.51-21.48l-5.3-27a36.51,36.51,0,0,1-.42-5.51,35.86,35.86,0,0,1,71.71,0,36.66,36.66,0,0,1-.38,5.25v.06L516.86,293l0,.16,0,.05-.23,1.22a2.42,2.42,0,0,1-.1.45A25.82,25.82,0,0,1,499,313.72l-.34.18h-.27l-.28.08-.29.15h-.31A45,45,0,0,1,486.88,315.43Z"/><path class="cls-1" d="M486.88,225.83a33.35,33.35,0,0,1,33.35,33.35,33.8,33.8,0,0,1-.38,5.07h0l-.5,2.55-5,25.75s0,.05,0,.08l-.26,1.41a1.05,1.05,0,0,1,0,.19A23.37,23.37,0,0,1,498,311.4H498a3,3,0,0,1-.43.12l-.36.1h0a41.54,41.54,0,0,1-10.26,1.29,40.3,40.3,0,0,1-11.13-1.53h0a23.37,23.37,0,0,1-16.53-20v0l-4.8-24.47-.5-2.58v-.05a32.88,32.88,0,0,1-.39-5.09,33.36,33.36,0,0,1,33.36-33.35m0-5A38.34,38.34,0,0,0,449,265v.14l0,.11.51,2.58,4.74,24.23a28.21,28.21,0,0,0,16.49,22.77v.19l3.48,1.12a45.69,45.69,0,0,0,12.65,1.76,46.47,46.47,0,0,0,10.88-1.29h.61l.63-.32.23-.07a2.64,2.64,0,0,0,.4-.12,28.32,28.32,0,0,0,19.27-20.59q.09-.33.15-.66l.18-1,0-.09.06-.37,4.94-25.7.5-2.55.09-.47v-.13a39.21,39.21,0,0,0,.38-5.43,38.4,38.4,0,0,0-38.35-38.35Z"/><path d="M433.67,854l-2.63-.27L441.6,703.45l-10.71-89.4h2.82l10.69-.16,13.84-37.66L451,556.94l1.1-17.14H527l-.47,3-.32,1.76-.24,1.47L502.42,682.61l-3.49,20.22.75.81-.92,1v.07l-.1.09,0,.31c0,.19-.05.38-.08.57l.21.45-.4.73L479.27,855.69H477l-22-1.2-21.26,1.22Z"/><path class="cls-1" d="M524.11,542.3l0,.14-.57,3.2h0L500,682.18l-3.7,21.43a0,0,0,0,1,0,0s0,0,0,0c0,.37-.06.73-.11,1.09h-.08v0h.08c-.05.41-.11.82-.2,1.23,0,0,0,0,0,0l-1.92,15L477.07,853.19h0l-18.72-1L455,852l-21.39,1.22,0-.07.62-8.81,9.87-140.51,0-.44L435.92,635l-2.21-18.45h0l12.42-.19,9.19-25,5.57-15.12-7.36-19.67.7-10.92.22-3.34h69.64m5.84-5H449.78l-.3,4.68-.22,3.34-.7,10.92-.07,1.07.37,1,6.71,17.93-4.92,13.39-8,21.78-8.95.14h-5.6l.65,5.59L431,635.6l8.14,67.91L429.23,844l-.68,9.59,5.13.51.23,4.12L455,857l3,.16,18.71,1h4.68l.59-4.37L499,721.72l1.81-14.08.81-1.47-.26-.53,1.93-1.94L501.61,702l3.28-19,23.57-136.55.5-2.89,0-.28v-.17l.43-2.51h0l.52-3.34Z"/><path d="M446.75,553.9l-4.63-.42-9.19-.84-6.88.62h-.21l-7,.64h-2.56l-.08-2.45-2.06-100.09a21.7,21.7,0,0,1,.9-6.21l.06-.21,30.7-98.09a37.94,37.94,0,0,1,74,5.49H520l.18,2.41,6.24,181.66h-2.66l-50.45-3.07-20.82,1.25,4.65-71.87,13-37.13L453.51,463l-4,91.47Z"/><path class="cls-1" d="M482.23,322a35.42,35.42,0,0,1,35.33,32.84h.1l6.16,179.07h0l-50.5-3.08-18.14,1.09,4.44-68.7,23.5-67.1h-2.62l-25.29,57L451,462.42l-.05,1.06-2.94,67.36-.07,1.52L447.6,541l-.05,1.3v0l-.4,9.13h0l-4.16-.37-.62-.06-.37,0-9-.82-3.8.34-3.32.3h-.12l-7,.63h0l-.19-9.14-.17-8.11-.84-41-.16-7.35-.69-33.74v-.74a19.18,19.18,0,0,1,.84-5.63v-.05l30.66-97.95,0-.15a35.44,35.44,0,0,1,34-25.58m0-5a40.6,40.6,0,0,0-38.83,29.16l0,.11L412.72,444.2l-.1.32,0,.08a24.13,24.13,0,0,0-1,6.77v.84l.7,33.75.15,7.35.84,40.95.17,8.12.19,9.13.1,4.9h5.12l.26,0,6.89-.63h.21l3.31-.3,3.34-.3,8.57.78.33,0h.07l.62.06,3.88.35,5.45,1.07.29-5.8.4-9.14v-.13l.05-1.19.18-4.1,2.67-.16,17.84-1.08,50.19,3.06H529l-.15-5.18-6.16-179.07-.16-4.82h-.55A40.59,40.59,0,0,0,482.23,317Z"/><polygon points="427.27 613.83 417.69 579.6 417.63 579.43 416.72 576.15 422.68 554.06 448.84 554.05 454.83 576.13 444.31 613.83 427.27 613.83"/><path class="cls-1" d="M446.93,556.55l5.3,19.57-9.81,35.21H429.17l-9.11-32.54,0,0-.64-2.28h0l-.09-.33,5.29-19.57h22.33m3.82-5h-30l-1,3.7-5.29,19.57-.35,1.33.27,1h0l.19.67.64,2.28.07.26v0l9,32.28,1,3.65h20.84l1-3.66,9.82-35.21.37-1.32-.36-1.33-5.31-19.57-1-3.69Z"/><polygon class="cls-1" points="500.49 859.64 500.47 859.78 500.4 859.64 500.49 859.64"/></svg>