<svg id="Capa_3" data-name="Capa 3" xmlns="http://www.w3.org/2000/svg" viewBox="0 0 1300 1000"><defs><style>.cls-1{fill:#fff;}.cls-2{fill:#1e1e1c;}</style></defs><title>1-subject</title><path class="cls-1" d="M226.22,542.91H100.08l0-.11,1.08-7.69c3.45-.26,61.87-3.76,61.87-3.76l62.12,3.78,1,7.67Z"/><polygon class="cls-1" points="235.06 853.57 213.81 852.35 192.62 853.57 193.12 859.91 193.13 860 229.95 860 229.96 860.01 235.14 860.01 235.06 853.57"/><polygon class="cls-1" points="94.99 542.85 94.99 542.86 94.97 542.92 75.3 542.92 75.3 542.92 69.91 542.92 68.99 538.06 78.22 537.12 82.59 536.67 94.29 537.83 94.61 537.87 94.98 542.71 94.98 542.72 94.99 542.85"/><polygon class="cls-1" points="256.42 542.92 231.36 542.92 231.35 542.92 231.33 542.83 231.33 542.8 231.72 537.97 232 537.93 244.32 536.67 248.05 537.04 257.25 537.96 256.42 542.92"/><polygon class="cls-1" points="133.43 860.01 133.43 860 96.56 860 96.56 860.01 91.47 860.01 91.52 853.57 112.77 852.35 133.93 853.57 133.43 860.01"/><path class="cls-2" d="M271.44,448.93l0-.3c0-.27-.08-.54-.13-.8h0c-.07-.37-.15-.73-.23-1.08h0c-.1-.36-.19-.71-.3-1.05h0c-.1-.35-.23-.69-.35-1h0l0-.08L263,423l-20.9-60.69-.09-.23c-.07-.23-.15-.46-.23-.69s-.16-.45-.23-.68h0c-.11-.3-.23-.61-.35-.92q-.36-.92-.75-1.8c-.13-.3-.27-.6-.41-.89-.37-.79-.76-1.56-1.17-2.32a44.85,44.85,0,0,0-2.76-4.38c-.5-.7-1-1.38-1.55-2a41.62,41.62,0,0,0-4.41-4.69h0v0l-.05,0a43,43,0,0,0-4.92-4.05c-.47-.33-1-.68-1.51-1,0,0,0,0,0,0-.41-.28-.85-.58-1.3-.87l-.62-.39c-.83-.53-1.72-1.07-2.68-1.62h0l-.73-.41q-.73-.42-1.53-.84l-.8-.42c-1.91-1-4-2-6.32-3h0l-1.44-.6c-.73-.3-1.47-.6-2.24-.88s-1.56-.58-2.37-.86c-.43-.15-.87-.31-1.31-.44-.88-.3-1.78-.59-2.71-.87h0l-1.05-.32c-1.06-.31-2.15-.62-3.26-.9s-2-.51-3-.75h0L190.6,325c-.48-.1-1-.21-1.45-.3l-2.22-.43-1.26-.22c-1.61-.28-3.27-.53-5-.76l-.46-.05c-1.44-.18-2.92-.34-4.43-.48s-3.05-.26-4.62-.35H171c-2.59-.15-5.28-.23-8.05-.23-3.67,0-7.19.15-10.55.43q-.72,0-1.44.12c-.63,0-1.26.11-1.88.18l-1.39.16c-1.37.16-2.72.35-4,.55h0c-.88.13-1.75.28-2.6.43s-1.71.31-2.54.48c-1.11.21-2.19.45-3.26.69l-1.58.38-1.54.39c-1,.27-2.06.55-3,.85-.48.13-.94.27-1.41.42l-1.41.44-1.39.46c-.91.3-1.8.62-2.66.95l-1.29.48-1.25.49-1.23.5-1.18.5-2.28,1c-.37.17-.73.34-1.08.52l-1.06.51c-1.07.52-2.07,1.05-3,1.58-.57.3-1.13.61-1.66.92a1.18,1.18,0,0,0-.19.11c-.26.15-.53.3-.78.46s-.56.32-.83.49c-.45.27-.89.53-1.31.8l-.25.16c-.5.32-1,.63-1.44.94l-.67.45c-.44.3-.84.59-1.23.87l-.73.52c-.32.24-.62.46-.89.68l-.53.41c-.3.22-.56.43-.81.64l-.69.57c-.12.11-.25.21-.35.31l-.29.24-.25.23a1.44,1.44,0,0,0-.22.19l-.29.27-.06.06-.07.06-.11.1,0,.05-.1.09c-.31.27-.62.57-.92.86s-.6.58-.88.88A44.05,44.05,0,0,0,90.8,350c-.7.91-1.36,1.85-2,2.81h0c-.63,1-1.22,2-1.76,3-.28.52-.54,1-.79,1.54h0c-.27.57-.53,1.14-.79,1.71h0c-.26.58-.5,1.16-.72,1.75-.15.36-.29.72-.41,1.09L54.1,444.63h0a19.31,19.31,0,0,0-1,9.05l.06.43v0a.52.52,0,0,1,0,.11,0,0,0,0,0,0,0l.24,1.3s0,0,0,.06L69,538.06h0l9.23-.94,4.37-.45,11.7,1.16.32,0-.24-3-5.71-73.44-.23-2.91.07-.22,1.33-4.15,1.56-4.89h0l11.44-35.89,3.54-11.1H109l.28,14.28.72,37.6.09,4.46.22,11.28-9.12,65.26h0c3.45-.26,61.87-3.76,61.87-3.76l62.12,3.78-8.8-65.28.18-9.69.12-6.05.73-38.55.25-13.51h2.61l3.3,10.34L234,445.21l2.83,8.9.37,1.16,1,3.21-.45,5.52-6,74h0l.28,0,12.32-1.26,3.73.37,9.2.92,14-83s0-.05,0-.08,0-.26.07-.38,0-.26.05-.38A19.09,19.09,0,0,0,271.44,448.93Zm-46.8-45.46a1.49,1.49,0,0,0,0-.21l0,.21Z"/><path class="cls-2" d="M130.09,262.55l.5,2.53C130.39,264.25,130.22,263.41,130.09,262.55Z"/><path class="cls-2" d="M196,262.45c-.13.87-.3,1.71-.49,2.56Z"/><path class="cls-2" d="M196.36,257.37a33.9,33.9,0,0,1-.38,5.07h0l-.49,2.56-5,25.73a.19.19,0,0,1,0,.08l-.27,1.41a.59.59,0,0,1-.05.19,23.36,23.36,0,0,1-16,17.15h-.05l-.43.13-.37.1h0a41.37,41.37,0,0,1-20.5,0h0l-.36-.1-.43-.13h0a23.38,23.38,0,0,1-16.52-20v0l-4.79-24.47-.5-2.53,0-.09a34,34,0,0,1-.38-5.09,33.34,33.34,0,0,1,66.67,0Z"/><path class="cls-2" d="M190.25,292.23l0,.19h0A.59.59,0,0,0,190.25,292.23Z"/><polygon class="cls-2" points="235.06 853.57 213.81 852.35 192.62 853.57 192.61 853.57 182.28 725.25 168.78 613.28 166.93 597.93 166.93 597.92 159.11 597.92 144.01 725.25 133.93 853.57 112.77 852.35 91.52 853.57 91.51 853.57 92.54 726.14 95.92 611.83 99.38 547.88 100.07 542.91 226.22 542.91 226.89 547.88 227.09 551.46 230.45 611.83 233.74 726.14 235.06 853.57"/><polygon class="cls-2" points="271.58 888.41 271.58 900.23 193.12 900.23 193.12 860 229.95 860 229.96 860.01 235.24 870.57 237.47 875.05 247.74 879.07 271.58 888.41"/><path class="cls-2" d="M173.67,309.71l.43-.13Z"/><polygon class="cls-2" points="94.98 542.92 91.2 558.5 90.22 562.51 90.22 562.52 64.66 588.62 54.87 583.24 54.87 583.23 67.15 559 67.63 558.06 75.3 542.92 94.98 542.92"/><polygon class="cls-2" points="271.44 583.23 261.65 588.62 236.09 562.51 231.36 542.92 251.04 542.92 262.07 564.72 271.44 583.23"/><polygon class="cls-2" points="133.43 860 133.43 900.23 54.4 900.23 54.4 888.41 81.31 878 88.96 875.05 91.37 870.27 96.56 860.01 96.56 860 133.43 860"/></svg>