<svg id="Capa_3" data-name="Capa 3" xmlns="http://www.w3.org/2000/svg" viewBox="0 0 1300 1000"><defs><style>.cls-1{fill:#fff;}.cls-2{fill:#1e1e1c;}</style></defs><title>1-subject</title><path class="cls-1" d="M1201.47,542.91H1075.33l0-.11,1.08-7.69c3.44-.26,61.87-3.76,61.87-3.76l62.12,3.78,1,7.67Z"/><polygon class="cls-1" points="1210.31 853.57 1189.05 852.35 1167.86 853.57 1168.37 859.91 1168.38 860 1205.2 860 1205.21 860.01 1210.38 860.01 1210.31 853.57"/><polygon class="cls-1" points="1070.24 542.85 1070.24 542.86 1070.22 542.92 1050.55 542.92 1050.54 542.92 1045.15 542.92 1044.24 538.06 1053.47 537.12 1057.84 536.67 1069.54 537.83 1069.85 537.87 1070.23 542.71 1070.23 542.72 1070.24 542.85"/><polygon class="cls-1" points="1231.67 542.92 1206.61 542.92 1206.6 542.92 1206.58 542.83 1206.58 542.8 1206.97 537.97 1207.25 537.93 1219.57 536.67 1223.3 537.04 1232.5 537.96 1231.67 542.92"/><polygon class="cls-1" points="1108.68 860.01 1108.67 860 1071.81 860 1071.8 860.01 1066.71 860.01 1066.77 853.57 1088.02 852.35 1109.18 853.57 1108.68 860.01"/><path class="cls-2" d="M1246.69,448.93c0-.1,0-.2,0-.3a7,7,0,0,0-.13-.8h0c-.07-.37-.14-.73-.23-1.08h0c-.09-.36-.18-.71-.29-1.05h0c-.11-.35-.23-.69-.35-1h0l0-.08-7.4-21.51-20.9-60.69-.09-.23c-.07-.23-.15-.46-.23-.69s-.16-.45-.24-.68h0c-.11-.3-.23-.61-.35-.92q-.36-.92-.75-1.8c-.13-.3-.27-.6-.41-.89-.37-.79-.76-1.56-1.17-2.32a44.85,44.85,0,0,0-2.76-4.38c-.5-.7-1-1.38-1.55-2a42.55,42.55,0,0,0-4.41-4.69h0v0l0,0a42.59,42.59,0,0,0-4.93-4.05c-.46-.33-1-.68-1.5-1,0,0,0,0,0,0-.41-.28-.85-.58-1.3-.87l-.62-.39c-.83-.53-1.73-1.07-2.69-1.62h0l-.73-.41q-.73-.42-1.53-.84l-.81-.42q-2.85-1.5-6.31-3h0l-1.43-.6c-.73-.3-1.48-.6-2.24-.88s-1.56-.58-2.37-.86c-.44-.15-.87-.31-1.31-.44-.88-.3-1.78-.59-2.71-.87h0l-1-.32c-1.06-.31-2.15-.62-3.26-.9s-2-.51-3-.75h0l-1.58-.35-1.44-.3-2.22-.43-1.26-.22c-1.61-.28-3.28-.53-5-.76l-.46-.05c-1.45-.18-2.92-.34-4.43-.48s-3-.26-4.62-.35h-.23c-2.58-.15-5.27-.23-8-.23-3.67,0-7.19.15-10.55.43l-1.44.12c-.63,0-1.26.11-1.88.18l-1.39.16c-1.37.16-2.72.35-4.05.55h0c-.88.13-1.75.28-2.6.43s-1.71.31-2.54.48c-1.11.21-2.19.45-3.26.69l-1.58.38-1.55.39c-1,.27-2,.55-3,.85-.48.13-.94.27-1.41.42l-1.41.44-1.39.46c-.91.3-1.8.62-2.67.95l-1.29.48-1.25.49-1.22.5-1.18.5-2.28,1c-.37.17-.73.34-1.08.52l-1.06.51c-1.07.52-2.08,1.05-3,1.58-.56.3-1.12.61-1.65.92l-.2.11c-.26.15-.52.3-.77.46s-.56.32-.83.49c-.45.27-.89.53-1.31.8l-.26.16c-.5.32-1,.63-1.43.94l-.67.45-1.24.87-.73.52-.89.68-.53.41c-.29.22-.56.43-.8.64s-.49.39-.69.57l-.36.31-.28.24-.25.23a2.33,2.33,0,0,0-.23.19l-.28.27a.12.12,0,0,0-.06.06l-.07.06-.11.1,0,.05-.1.09c-.31.27-.62.57-.92.86s-.6.58-.88.88a44.05,44.05,0,0,0-3.36,3.88c-.7.91-1.36,1.85-2,2.81h0c-.62,1-1.21,2-1.75,3-.28.52-.54,1-.79,1.54h0l-.8,1.71h0c-.26.58-.49,1.16-.72,1.75-.14.36-.28.72-.4,1.09l-30.25,82.8h0a19.31,19.31,0,0,0-1,9.05c0,.15,0,.29.06.43v0a.52.52,0,0,1,0,.11v0l.25,1.3s0,0,0,.06l15.58,82.43h0l9.23-.94,4.37-.45,11.7,1.16.31,0-.23-3-5.72-73.44-.22-2.91.07-.22,1.33-4.15,1.56-4.89h0l11.44-35.89,3.54-11.1h2.6l.28,14.28.72,37.6.09,4.46.21,11.28-9.11,65.26h0c3.44-.26,61.87-3.76,61.87-3.76l62.12,3.78-8.8-65.28.18-9.69.12-6.05.73-38.55.25-13.51h2.61l3.3,10.34,10.42,32.81,2.83,8.9.37,1.16,1,3.21L1213,464l-6,74h0l.28,0,12.32-1.26,3.73.37,9.2.92,14-83s0-.05,0-.08l.06-.38c0-.13,0-.26.06-.38A19.5,19.5,0,0,0,1246.69,448.93Zm-46.8-45.46a1.49,1.49,0,0,0,0-.21l0,.21Z"/><path class="cls-2" d="M1105.33,262.55l.5,2.53C1105.63,264.25,1105.46,263.41,1105.33,262.55Z"/><path class="cls-2" d="M1171.23,262.45c-.13.87-.3,1.71-.5,2.56Z"/><path class="cls-2" d="M1171.61,257.37a33.9,33.9,0,0,1-.38,5.07h0l-.5,2.56-5,25.73a.25.25,0,0,0,0,.08l-.27,1.41a1.05,1.05,0,0,1,0,.19,23.36,23.36,0,0,1-16,17.15h-.06a4.38,4.38,0,0,1-.43.13l-.36.1h0a41.37,41.37,0,0,1-20.5,0h0l-.36-.1-.43-.13h0a23.4,23.4,0,0,1-16.53-20v0l-4.79-24.47-.5-2.53v-.09a34,34,0,0,1-.39-5.09,33.34,33.34,0,0,1,66.68,0Z"/><path class="cls-2" d="M1165.5,292.23l0,.19h0A1.05,1.05,0,0,0,1165.5,292.23Z"/><polygon class="cls-2" points="1210.31 853.57 1189.05 852.35 1167.86 853.57 1167.86 853.57 1157.53 725.25 1144.03 613.28 1142.18 597.93 1142.18 597.92 1134.36 597.92 1119.25 725.25 1109.18 853.57 1088.02 852.35 1066.77 853.57 1066.76 853.57 1067.79 726.14 1071.17 611.83 1074.63 547.88 1075.32 542.91 1201.47 542.91 1202.14 547.88 1202.34 551.46 1205.7 611.83 1208.99 726.14 1210.31 853.57"/><polygon class="cls-2" points="1246.83 888.41 1246.83 900.23 1168.37 900.23 1168.37 860 1205.2 860 1205.21 860.01 1210.48 870.57 1212.72 875.05 1222.98 879.07 1246.83 888.41"/><path class="cls-2" d="M1148.91,309.71a4.38,4.38,0,0,0,.43-.13Z"/><polygon class="cls-2" points="1070.23 542.92 1066.44 558.5 1065.47 562.51 1065.47 562.52 1039.91 588.62 1030.12 583.24 1030.11 583.23 1042.4 559 1042.87 558.06 1050.55 542.92 1070.23 542.92"/><polygon class="cls-2" points="1246.69 583.23 1236.89 588.62 1211.34 562.51 1206.61 542.92 1226.28 542.92 1237.32 564.72 1246.69 583.23"/><polygon class="cls-2" points="1108.67 860 1108.67 900.23 1029.64 900.23 1029.64 888.41 1056.56 878 1064.21 875.05 1066.62 870.27 1071.8 860.01 1071.81 860 1108.67 860"/></svg>