<svg id="Capa_3" data-name="Capa 3" xmlns="http://www.w3.org/2000/svg" viewBox="0 0 1300 1000"><defs><style>.cls-1{fill:#fff;}.cls-2{fill:#1e1e1c;}</style></defs><title>wait--third-quadrant</title><path class="cls-1" d="M820.72,542.91H694.58l0-.11,1.07-7.69c3.45-.26,61.88-3.76,61.88-3.76l62.11,3.78,1,7.67Z"/><polygon class="cls-1" points="829.55 853.57 808.3 852.35 787.11 853.57 787.62 859.91 787.63 860 824.45 860 824.46 860.01 829.63 860.01 829.55 853.57"/><polygon class="cls-1" points="689.49 542.85 689.49 542.86 689.47 542.92 669.8 542.92 669.79 542.92 664.4 542.92 663.49 538.06 672.72 537.12 677.09 536.67 688.79 537.83 689.1 537.87 689.48 542.71 689.48 542.72 689.49 542.85"/><polygon class="cls-1" points="850.91 542.92 825.85 542.92 825.85 542.92 825.82 542.83 825.82 542.8 826.21 537.97 826.5 537.93 838.81 536.67 842.54 537.04 851.74 537.96 850.91 542.92"/><polygon class="cls-1" points="727.93 860.01 727.92 860 691.06 860 691.05 860.01 685.96 860.01 686.01 853.57 707.27 852.35 728.43 853.57 727.93 860.01"/><path class="cls-2" d="M865.94,448.93c0-.1,0-.2,0-.3,0-.27-.08-.54-.13-.8h0c-.07-.37-.15-.73-.23-1.08h0c-.09-.36-.18-.71-.29-1.05h0c-.11-.35-.23-.69-.35-1h0a.3.3,0,0,0,0-.08L857.46,423l-20.9-60.69c0-.07,0-.15-.08-.23-.08-.23-.15-.46-.23-.69l-.24-.68h0c-.1-.3-.23-.61-.34-.92-.24-.61-.49-1.21-.76-1.8-.13-.3-.26-.6-.4-.89-.37-.79-.76-1.56-1.18-2.32a43,43,0,0,0-2.75-4.38c-.5-.7-1-1.38-1.55-2a43.53,43.53,0,0,0-4.41-4.69h0v0l-.05,0a42.59,42.59,0,0,0-4.93-4.05l-1.5-1s0,0,0,0c-.42-.28-.85-.58-1.31-.87l-.61-.39c-.83-.53-1.73-1.07-2.69-1.62h0c-.23-.14-.48-.27-.73-.41-.49-.28-1-.56-1.52-.84l-.81-.42c-1.9-1-4-2-6.31-3h0l-1.43-.6c-.73-.3-1.48-.6-2.25-.88s-1.56-.58-2.36-.86c-.44-.15-.88-.31-1.31-.44-.89-.3-1.79-.59-2.71-.87h0l-1-.32c-1.06-.31-2.15-.62-3.27-.9s-2-.51-3-.75h0l-1.57-.35-1.44-.3-2.22-.43-1.26-.22c-1.61-.28-3.28-.53-5-.76l-.46-.05c-1.45-.18-2.92-.34-4.43-.48s-3-.26-4.63-.35h-.22q-3.88-.23-8.05-.23c-3.67,0-7.18.15-10.55.43-.47,0-1,.07-1.43.12-.63,0-1.26.11-1.88.18l-1.39.16c-1.38.16-2.73.35-4,.55h0c-.89.13-1.75.28-2.61.43s-1.7.31-2.53.48c-1.11.21-2.2.45-3.26.69l-1.58.38-1.55.39c-1,.27-2.06.55-3,.85-.47.13-.93.27-1.4.42l-1.41.44-1.39.46c-.92.3-1.8.62-2.67.95l-1.29.48-1.25.49-1.22.5-1.18.5c-.79.34-1.55.69-2.28,1l-1.09.52-1.06.51c-1.06.52-2.07,1.05-3,1.58-.57.3-1.13.61-1.66.92a1.18,1.18,0,0,0-.19.11c-.26.15-.52.3-.77.46s-.56.32-.83.49l-1.32.8-.25.16-1.44.94-.66.45-1.24.87-.73.52-.89.68-.53.41c-.29.22-.56.43-.81.64l-.69.57-.35.31-.28.24-.26.23-.22.19-.28.27a.13.13,0,0,0-.07.06l-.06.06-.11.1-.05.05-.1.09c-.3.27-.61.57-.91.86s-.6.58-.88.88a45.9,45.9,0,0,0-3.37,3.88c-.7.91-1.36,1.85-2,2.81h0c-.63,1-1.21,2-1.76,3-.27.52-.53,1-.79,1.54h0c-.27.57-.53,1.14-.79,1.71h0c-.26.58-.5,1.16-.72,1.75-.15.36-.28.72-.41,1.09l-30.25,82.8h0a19.05,19.05,0,0,0-1,9.05,3,3,0,0,0,.06.43v0s0,.08,0,.11a0,0,0,0,0,0,0l.25,1.3v.06l15.59,82.43h0l9.23-.94,4.36-.45,11.71,1.16.31,0-.24-3-5.71-73.44-.22-2.91.07-.22,1.33-4.15,1.55-4.89h0l11.44-35.89,3.54-11.1h2.61l.27,14.28.72,37.6.1,4.46.21,11.28-9.11,65.26h0c3.45-.26,61.88-3.76,61.88-3.76l62.11,3.78-8.79-65.28.18-9.69.11-6.05.73-38.55.26-13.51h2.61l3.29,10.34,10.43,32.81,2.82,8.9.37,1.16,1,3.21-.45,5.52-6,74h0l.29,0,12.31-1.26,3.73.37,9.2.92,14-83a.22.22,0,0,0,0-.08c0-.13,0-.26.07-.38l.06-.38A19.93,19.93,0,0,0,865.94,448.93Zm-46.81-45.46a1.48,1.48,0,0,0,0-.21l0,.21Z"/><path class="cls-2" d="M724.58,262.55l.5,2.53C724.88,264.25,724.71,263.41,724.58,262.55Z"/><path class="cls-2" d="M790.47,262.45c-.13.87-.3,1.71-.49,2.56Z"/><path class="cls-2" d="M790.86,257.37a32.62,32.62,0,0,1-.39,5.07h0L790,265l-5,25.73s0,.06,0,.08l-.26,1.41a1.05,1.05,0,0,1,0,.19,23.37,23.37,0,0,1-16.06,17.15h0l-.43.13-.36.1h0a41.37,41.37,0,0,1-20.5,0h0l-.36-.1-.43-.13h-.06a23.38,23.38,0,0,1-16.52-20v0l-4.79-24.47-.5-2.53v-.09a32.69,32.69,0,0,1-.39-5.09,33.34,33.34,0,0,1,66.68,0Z"/><path class="cls-2" d="M784.75,292.23l0,.19h0A1.05,1.05,0,0,0,784.75,292.23Z"/><polygon class="cls-2" points="829.55 853.57 808.3 852.35 787.11 853.57 787.1 853.57 776.77 725.25 763.28 613.28 761.43 597.93 761.43 597.92 753.6 597.92 738.5 725.25 728.43 853.57 707.27 852.35 686.01 853.57 686.01 853.57 687.04 726.14 690.41 611.83 693.88 547.88 694.57 542.91 820.72 542.91 821.38 547.88 821.58 551.46 824.95 611.83 828.23 726.14 829.55 853.57"/><polygon class="cls-2" points="866.08 888.41 866.08 900.23 787.62 900.23 787.62 860 824.45 860 824.46 860.01 829.73 870.57 831.97 875.05 842.23 879.07 866.08 888.41"/><path class="cls-2" d="M768.16,309.71l.43-.13Z"/><polygon class="cls-2" points="689.48 542.92 685.69 558.5 684.72 562.51 684.72 562.52 659.16 588.62 649.37 583.24 649.36 583.23 661.64 559 662.12 558.06 669.8 542.92 689.48 542.92"/><polygon class="cls-2" points="865.94 583.23 856.14 588.62 830.59 562.51 825.85 542.92 845.53 542.92 856.57 564.72 865.94 583.23"/><polygon class="cls-2" points="727.92 860 727.92 900.23 648.89 900.23 648.89 888.41 675.81 878 683.46 875.05 685.87 870.27 691.05 860.01 691.06 860 727.92 860"/></svg>