<svg id="Capa_1" data-name="Capa 1" xmlns="http://www.w3.org/2000/svg" viewBox="0 0 1300 1000"><defs><style>.cls-1{fill:#262626;}.cls-2{fill:#fff;}</style></defs><title>wait-side--first-quadrant</title><ellipse class="cls-1" cx="178.1" cy="251.67" rx="24" ry="30"/><path class="cls-1" d="M229.88,533.28s1.38-166.54-41.94-234.38c-6.87-10.76-23.87-10.89-30.1,6.87L98,533.28h35L122.6,700.71,94.84,867.16l14.09,0-.13,34.06h69.87l-.18-10.38-25.28-24.65h8l27.83-174,17.14-158.85Z"/><path class="cls-1" d="M164.73,327.27s-11.39,76.75-6.25,111S173,527.48,173,527.48l24.14-.86-7.5-86.28c1.46-85.38,1.79-81.72-1-107.21"/><path class="cls-2" d="M164.73,327.27q-.64,6.28-1.19,12.56t-1.09,12.57c-.66,8.38-1.32,16.75-1.78,25.14-.22,4.19-.47,8.37-.64,12.56s-.3,8.38-.38,12.56c-.11,8.36-.11,16.72.48,25,.16,2.06.34,4.12.59,6.15s.55,4,.91,6.11l2.07,12.43,4.22,24.85,8.51,49.71L172.89,524l12.06-.45,12.07-.4-3.32,3.76-1.8-21.58L191,494.56l-.84-10.8-1.67-21.59-.84-10.79-.77-10.8v-.29l.91-26.81,1-26.81.52-13.4c.18-4.46.26-8.92.36-13.38,0-2.23,0-4.46,0-6.69s-.11-4.45-.22-6.68c-.21-4.46-.53-8.93-.83-13.39.66,4.43,1.35,8.85,1.91,13.3.27,2.22.5,4.46.69,6.7s.32,4.47.45,6.72c.24,4.48.34,9,.44,13.44l.21,13.43.14,26.84,0,26.83v-.29l1.11,10.77,1,10.78,2.08,21.55,1,10.77,1,10.79,1.94,21.56.33,3.61-3.65.15-12.07.46-12.06.4-3,.11-.5-3-4.11-24.9c-1.37-8.3-2.71-16.61-4-24.93l-3.77-25c-.62-4.16-1.23-8.33-1.78-12.5-.29-2.05-.56-4.26-.75-6.39s-.31-4.29-.42-6.43c-.31-8.54-.12-17,.4-25.45.27-4.22.57-8.44.94-12.64s.75-8.4,1.23-12.59,1-8.38,1.5-12.56,1.11-8.35,1.73-12.51,1.26-8.33,1.94-12.48S164,331.41,164.73,327.27Z"/><polygon class="cls-1" points="212.16 538.16 196.34 692.16 167.59 870.37 187.82 889.16 187.97 901.2 221.42 901.08 221.24 890.7 195.96 866.04 203.93 866.04 217.9 693.49 212.16 538.16"/></svg>