<svg id="Capa_3" data-name="Capa 3" xmlns="http://www.w3.org/2000/svg" viewBox="0 0 1300 1000"><defs><style>.cls-1{fill:#fff;}.cls-2{fill:#1e1e1c;}</style></defs><title>1-subject</title><path class="cls-1" d="M550.07,542.91H423.93l0-.11,1.07-7.69c3.45-.26,61.88-3.76,61.88-3.76L549,535.13l1,7.67Z"/><polygon class="cls-1" points="558.91 853.57 537.66 852.35 516.47 853.57 516.97 859.91 516.98 860 553.8 860 553.81 860.01 558.99 860.01 558.91 853.57"/><polygon class="cls-1" points="418.84 542.85 418.84 542.86 418.83 542.92 399.16 542.92 399.15 542.92 393.76 542.92 392.85 538.06 402.07 537.12 406.44 536.67 418.14 537.83 418.46 537.87 418.83 542.71 418.83 542.72 418.84 542.85"/><polygon class="cls-1" points="580.27 542.92 555.21 542.92 555.2 542.92 555.18 542.83 555.18 542.8 555.57 537.97 555.86 537.93 568.17 536.67 571.9 537.04 581.1 537.96 580.27 542.92"/><polygon class="cls-1" points="457.29 860.01 457.28 860 420.42 860 420.41 860.01 415.32 860.01 415.37 853.57 436.63 852.35 457.79 853.57 457.29 860.01"/><path class="cls-2" d="M595.3,448.93c0-.1,0-.2,0-.3,0-.27-.08-.54-.13-.8h0c-.07-.37-.15-.73-.23-1.08h0c-.09-.36-.19-.71-.29-1.05h0c-.11-.35-.23-.69-.36-1h0a.13.13,0,0,0,0-.08L586.82,423l-20.9-60.69c0-.07,0-.15-.08-.23-.08-.23-.16-.46-.23-.69s-.17-.45-.24-.68h0c-.11-.3-.23-.61-.35-.92-.23-.61-.49-1.21-.75-1.8-.13-.3-.27-.6-.4-.89-.37-.79-.76-1.56-1.18-2.32a44.85,44.85,0,0,0-2.76-4.38c-.49-.7-1-1.38-1.55-2a42.46,42.46,0,0,0-4.4-4.69h0v0l0,0a44.73,44.73,0,0,0-4.93-4.05c-.47-.33-1-.68-1.51-1h0l-1.31-.87-.61-.39c-.83-.53-1.73-1.07-2.69-1.62h0l-.73-.41q-.74-.42-1.53-.84l-.8-.42q-2.87-1.5-6.31-3h0l-1.44-.6c-.73-.3-1.47-.6-2.24-.88s-1.56-.58-2.36-.86c-.44-.15-.88-.31-1.32-.44-.88-.3-1.78-.59-2.71-.87h0l-1.06-.32c-1.06-.31-2.15-.62-3.26-.9s-2-.51-3-.75h0l-1.57-.35c-.48-.1-1-.21-1.45-.3l-2.21-.43-1.26-.22c-1.62-.28-3.28-.53-5-.76l-.46-.05c-1.44-.18-2.91-.34-4.43-.48s-3-.26-4.62-.35h-.22c-2.59-.15-5.28-.23-8.05-.23-3.67,0-7.19.15-10.55.43-.47,0-1,.07-1.43.12q-.94.07-1.89.18l-1.38.16c-1.38.16-2.73.35-4.05.55h0c-.88.13-1.75.28-2.6.43s-1.7.31-2.53.48c-1.12.21-2.2.45-3.27.69l-1.58.38-1.54.39c-1,.27-2.06.55-3.05.85-.47.13-.94.27-1.4.42l-1.42.44-1.39.46c-.91.3-1.79.62-2.66.95l-1.29.48-1.25.49-1.22.5-1.19.5-2.28,1-1.08.52-1.06.51c-1.06.52-2.07,1.05-3,1.58-.57.3-1.13.61-1.66.92a1.18,1.18,0,0,0-.19.11l-.78.46c-.28.15-.56.32-.83.49-.45.27-.89.53-1.31.8l-.25.16-1.44.94c-.22.15-.44.31-.67.45l-1.23.87-.73.52c-.32.24-.62.46-.89.68l-.53.41c-.29.22-.56.43-.81.64l-.69.57-.35.31c-.1.08-.19.17-.29.24l-.25.23-.22.19-.29.27-.06.06-.07.06-.1.1,0,.05-.1.09c-.31.27-.61.57-.91.86s-.6.58-.89.88a45.78,45.78,0,0,0-3.36,3.88c-.7.91-1.36,1.85-2,2.81h0c-.63,1-1.21,2-1.76,3-.28.52-.54,1-.79,1.54h0c-.27.57-.53,1.14-.79,1.71h0c-.26.58-.5,1.16-.72,1.75-.15.36-.29.72-.41,1.09L378,444.63h0a19.18,19.18,0,0,0-1,9.05l.06.43v0a.52.52,0,0,1,0,.11,0,0,0,0,0,0,0l.24,1.3s0,0,0,.06l15.59,82.43h0l9.23-.94,4.37-.45,11.7,1.16.32,0-.24-3-5.71-73.44-.22-2.91.06-.22,1.33-4.15,1.56-4.89h0l11.44-35.89,3.54-11.1h2.6l.28,14.28.72,37.6.09,4.46.22,11.28L425,535.11h0c3.45-.26,61.88-3.76,61.88-3.76L549,535.13l-8.8-65.28.19-9.69.11-6.05.73-38.55.26-13.51h2.61l3.29,10.34,10.43,32.81,2.82,8.9.37,1.16,1,3.21L561.6,464l-6,74h0l.29,0,12.31-1.26,3.73.37,9.2.92,14-83a.22.22,0,0,1,0-.08c0-.13,0-.26.07-.38s0-.26,0-.38A19.49,19.49,0,0,0,595.3,448.93Zm-46.81-45.46c0-.07,0-.14,0-.21l0,.21Z"/><path class="cls-2" d="M453.94,262.55l.5,2.53C454.24,264.25,454.07,263.41,453.94,262.55Z"/><path class="cls-2" d="M519.83,262.45c-.13.87-.3,1.71-.49,2.56Z"/><path class="cls-2" d="M520.21,257.37a33.9,33.9,0,0,1-.38,5.07h0l-.49,2.56-5,25.73s0,.06,0,.08l-.27,1.41a1.06,1.06,0,0,1,0,.19A23.39,23.39,0,0,1,498,309.57H498l-.43.13-.36.1h0a41.37,41.37,0,0,1-20.5,0h0l-.37-.1-.43-.13h-.05a23.38,23.38,0,0,1-16.52-20v0l-4.79-24.47-.5-2.53,0-.09a34,34,0,0,1-.38-5.09,33.34,33.34,0,0,1,66.67,0Z"/><path class="cls-2" d="M514.1,292.23l0,.19h0A1.06,1.06,0,0,0,514.1,292.23Z"/><polygon class="cls-2" points="558.91 853.57 537.66 852.35 516.47 853.57 516.46 853.57 506.13 725.25 492.63 613.28 490.79 597.93 490.79 597.92 482.96 597.92 467.86 725.25 457.79 853.57 436.63 852.35 415.37 853.57 415.36 853.57 416.39 726.14 419.77 611.83 423.23 547.88 423.93 542.91 550.07 542.91 550.74 547.88 550.94 551.46 554.3 611.83 557.59 726.14 558.91 853.57"/><polygon class="cls-2" points="595.43 888.41 595.43 900.23 516.97 900.23 516.97 860 553.8 860 553.81 860.01 559.09 870.57 561.32 875.05 571.59 879.07 595.43 888.41"/><path class="cls-2" d="M497.52,309.71l.43-.13Z"/><polygon class="cls-2" points="418.83 542.92 415.05 558.5 414.07 562.51 414.07 562.52 388.51 588.62 378.73 583.24 378.72 583.23 391 559 391.48 558.06 399.16 542.92 418.83 542.92"/><polygon class="cls-2" points="595.3 583.23 585.5 588.62 559.95 562.51 555.21 542.92 574.89 542.92 585.92 564.72 595.3 583.23"/><polygon class="cls-2" points="457.28 860 457.28 900.23 378.25 900.23 378.25 888.41 405.17 878 412.81 875.05 415.23 870.27 420.41 860.01 420.42 860 457.28 860"/></svg>