<svg id="Capa_1" data-name="Capa 1" xmlns="http://www.w3.org/2000/svg" viewBox="0 0 1300 1000"><defs><style>.cls-1{fill:#262626;}</style></defs><title>wait--second-quadrant</title><path class="cls-1" d="M596.14,901.22l-.5-11.72-25.56-24h8l-29.37-334h13.07L555,495.67l36.48-77.33S567.18,291.81,486.58,292.77,382,418.34,382,418.34l36.47,74.2-6.73,37.86h13L396,866.53l12.56.06-30.27,25v9.65H447.4l-.26-34.76,12.79,1,26-318.8,25,317.87,14.83-.1-.68,34.79ZM422.88,467.54l.42-2.68L411.45,415l31.63-61.05ZM562,415,550.26,468.4l1.83,11.73-24-127.49Z"/><ellipse class="cls-1" cx="487.21" cy="250.63" rx="24" ry="30"/></svg>