<svg id="Capa_3" data-name="Capa 3" xmlns="http://www.w3.org/2000/svg" viewBox="0 0 1300 1000"><defs><style>.cls-1{fill:#fff;}.cls-2{fill:#1e1e1c;}</style></defs><title>1-subject</title><path class="cls-1" d="M812.15,901.2H787.49V889.37l-19.27-7.55L753.36,876l-7.57-15.16H703.18l.41-5.73.09-.7,21.39-1.22,3.3.17,18.72,1h0l16.94-132.1,1.92-15s0,0,0,0c.09-.41.15-.82.2-1.24h-.08v0h.08c0-.35.09-.71.11-1.08,0,0,0,0,0,0s0,0,0,0l3.7-21.42,23.57-136.55h0l.57-3.19v.54l-1.06,49.54-14.58,91.12-3.41,21.35,0,.23-.4,2.49-2.08,14.51-18.66,130,17.37.95-.77,6.57-.07-.13H752.86l7.41,10,8,3.76,25.84,12.24V901.2Z"/><path class="cls-1" d="M723.6,557.76,731,577.42l-5.57,15.13-9.19,25-12.42.18-.62-5.21h9.31l9.81-35.22L717,557.75h-28.1l-.1-5.15,7-.63h.12l3.32-.29,3.8-.34,9,.82.37,0,.62,0,4.16.38h0l.4-9.14h0l0-1.3.38-8.62.07-1.52L721,464.68l.05-1.07,4.14-9.32,25.29-57h2.62l-23.5,67.1-4.44,68.7L743.34,532l50.5,3.07.29,8.38H724.52l-.22,3.34Z"/><polygon class="cls-1" points="703.14 612.53 703.14 612.54 701.29 612.54 703.14 612.53"/><path class="cls-2" d="M791.09,686.74l-.3,13.68a.08.08,0,0,0,0,0,20.65,20.65,0,0,1,.22,3c0,.11,0,.21,0,.31a20.71,20.71,0,0,1-.35,3.47.08.08,0,0,1,0,0L771.49,852.86l-.2,1.54-17.37-.95,18.66-130,2.08-14.51.4-2.49,0-.23,3.41-21.35,14.58-91.12,0-.3Z"/><polygon class="cls-2" points="812.15 889.37 812.15 901.2 794.06 901.2 794.06 886.83 768.22 874.59 760.27 870.83 752.86 860.84 770.45 860.84 770.52 860.98 778.02 876 812.15 889.37"/><polygon class="cls-2" points="787.49 889.37 787.49 901.2 708.99 901.2 708.99 860.84 745.79 860.84 753.36 876 768.22 881.82 787.49 889.37"/><path class="cls-2" d="M724,262.51l.5,2.58C724.27,264.25,724.1,263.39,724,262.51Z"/><path class="cls-2" d="M789.9,262.46c-.13.86-.3,1.71-.5,2.55Z"/><path class="cls-2" d="M784.17,292.25l0,.19h0A1.05,1.05,0,0,0,784.17,292.25Z"/><path class="cls-2" d="M790.28,257.38a33.76,33.76,0,0,1-.38,5.06v0l-.5,2.55-4.95,25.75a.64.64,0,0,1,0,.07l-.26,1.42a1.05,1.05,0,0,1,0,.19,23.38,23.38,0,0,1-16,17.15l-.06,0-.43.12-.36.1h0a42,42,0,0,1-10.26,1.29,40.3,40.3,0,0,1-11.13-1.53h0a23.36,23.36,0,0,1-16.53-20v0l-4.8-24.48-.5-2.58v0a32.88,32.88,0,0,1-.39-5.09,33.36,33.36,0,0,1,66.71,0Z"/><path class="cls-2" d="M767.58,309.73l.43-.12Z"/><path class="cls-2" d="M794.14,543.64l-.57,3.19h0L770,683.38l-3.7,21.42s0,0,0,0,0,0,0,0c0,.37-.06.73-.11,1.08h-.08v0h.08c-.05.42-.11.83-.2,1.24,0,0,0,0,0,0l-1.92,15-16.94,132.1h0l-18.72-1-3.3-.17-21.39,1.22-.09.7.67-9.58L714.13,705l0-.44L706,636.2l-2.21-18.46h0l12.42-.18,9.19-25L731,577.42l-7.36-19.66.7-10.93.22-3.34h69.64Z"/><path class="cls-2" d="M793.87,535.11h0L743.34,532l-18.14,1.09,4.44-68.7,23.5-67.1h-2.62l-25.29,57-4.14,9.32-.05,1.07L718.1,532l-.07,1.52-.38,8.62,0,1.3h0l-.4,9.14h0l-4.16-.38-.62,0-.37,0-9-.82-3.8.34-3.32.29h-.12l-7,.63h0l-.19-9.13-.17-8.11-.84-41-.16-7.35-.69-33.75v-.36h0v-.36a19.13,19.13,0,0,1,.84-5.63v-.05l30.66-97.95,0-.16A35.43,35.43,0,0,1,787.61,356h.1Z"/><polygon class="cls-2" points="722.28 577.31 712.47 612.52 699.22 612.52 690.11 579.99 690.09 579.95 689.45 577.67 689.45 577.66 689.36 577.33 694.65 557.76 696.57 557.76 712.2 557.75 716.98 557.75 722.28 577.31"/></svg>