<svg id="Capa_3" data-name="Capa 3" xmlns="http://www.w3.org/2000/svg" viewBox="0 0 1300 1000"><defs><style>.cls-1{fill:#fff;}.cls-2{fill:#1e1e1c;}</style></defs><title>1-subject</title><path class="cls-1" d="M820.12,542.91H694l0-.11,1.07-7.69c3.45-.26,61.88-3.76,61.88-3.76l62.11,3.78,1,7.67Z"/><polygon class="cls-1" points="828.96 853.57 807.71 852.35 786.52 853.57 787.02 859.91 787.03 860 823.86 860 823.86 860.01 829.04 860.01 828.96 853.57"/><polygon class="cls-1" points="688.89 542.85 688.89 542.86 688.88 542.92 669.21 542.92 669.2 542.92 663.81 542.92 662.89 538.06 672.12 537.12 676.49 536.67 688.19 537.83 688.51 537.87 688.88 542.71 688.88 542.72 688.89 542.85"/><polygon class="cls-1" points="850.32 542.92 825.26 542.92 825.25 542.92 825.23 542.83 825.23 542.8 825.62 537.97 825.9 537.93 838.22 536.67 841.95 537.04 851.15 537.96 850.32 542.92"/><polygon class="cls-1" points="727.34 860.01 727.33 860 690.47 860 690.46 860.01 685.37 860.01 685.42 853.57 706.67 852.35 727.84 853.57 727.34 860.01"/><path class="cls-2" d="M865.35,448.93c0-.1,0-.2,0-.3,0-.27-.08-.54-.13-.8h0c-.07-.37-.15-.73-.23-1.08h0c-.09-.36-.19-.71-.29-1.05h0c-.11-.35-.23-.69-.36-1h0a.13.13,0,0,0,0-.08L856.87,423,836,362.35c0-.07-.05-.15-.08-.23-.08-.23-.16-.46-.23-.69s-.17-.45-.24-.68h0c-.11-.3-.23-.61-.35-.92-.23-.61-.49-1.21-.75-1.8-.13-.3-.27-.6-.4-.89-.37-.79-.76-1.56-1.18-2.32a44.85,44.85,0,0,0-2.76-4.38c-.49-.7-1-1.38-1.55-2a42.46,42.46,0,0,0-4.4-4.69h0v0l0,0a44.73,44.73,0,0,0-4.93-4.05c-.47-.33-1-.68-1.51-1h0l-1.31-.87-.61-.39c-.83-.53-1.73-1.07-2.69-1.62h0l-.73-.41q-.74-.42-1.53-.84l-.8-.42q-2.87-1.5-6.31-3h0l-1.44-.6c-.73-.3-1.47-.6-2.24-.88s-1.56-.58-2.36-.86c-.44-.15-.88-.31-1.32-.44-.88-.3-1.78-.59-2.71-.87h0l-1.06-.32c-1.06-.31-2.15-.62-3.26-.9s-2-.51-3-.75h0L784.5,325c-.48-.1-1-.21-1.45-.3l-2.21-.43-1.26-.22c-1.62-.28-3.28-.53-5-.76l-.46-.05c-1.44-.18-2.91-.34-4.43-.48s-3.05-.26-4.62-.35h-.22c-2.59-.15-5.28-.23-8.05-.23-3.67,0-7.19.15-10.55.43-.47,0-1,.07-1.43.12-.63,0-1.26.11-1.88.18l-1.39.16c-1.38.16-2.73.35-4,.55h0c-.88.13-1.75.28-2.6.43s-1.7.31-2.53.48c-1.12.21-2.2.45-3.27.69l-1.58.38L726,326c-1,.27-2.06.55-3.05.85-.47.13-.94.27-1.4.42l-1.42.44-1.39.46c-.91.3-1.79.62-2.66.95l-1.29.48-1.25.49-1.22.5-1.19.5-2.28,1-1.08.52-1.06.51c-1.06.52-2.07,1.05-3,1.58-.57.3-1.13.61-1.66.92a1.18,1.18,0,0,0-.19.11l-.78.46c-.28.15-.56.32-.83.49-.45.27-.89.53-1.31.8l-.25.16-1.44.94c-.22.15-.44.31-.67.45l-1.23.87-.73.52c-.32.24-.62.46-.89.68l-.53.41c-.29.22-.56.43-.81.64l-.69.57-.35.31c-.1.08-.19.17-.29.24l-.25.23-.22.19-.29.27-.06.06-.07.06-.1.1,0,.05-.1.09c-.31.27-.61.57-.91.86s-.6.58-.89.88A45.78,45.78,0,0,0,684.7,350c-.7.91-1.36,1.85-2,2.81h0c-.63,1-1.21,2-1.76,3-.28.52-.54,1-.79,1.54h0c-.27.57-.53,1.14-.79,1.71h0c-.26.58-.5,1.16-.72,1.75-.15.36-.29.72-.41,1.09L648,444.63h0a19.18,19.18,0,0,0-1,9.05l.06.43v0a.52.52,0,0,1,0,.11,0,0,0,0,0,0,0l.24,1.3s0,0,0,.06l15.59,82.43h0l9.23-.94,4.37-.45,11.7,1.16.32,0-.24-3-5.71-73.44-.22-2.91.06-.22,1.33-4.15,1.56-4.89h0l11.44-35.89,3.54-11.1h2.6l.28,14.28.72,37.6.09,4.46.22,11.28-9.11,65.26h0c3.45-.26,61.88-3.76,61.88-3.76l62.11,3.78-8.8-65.28.19-9.69.11-6.05.73-38.55.26-13.51h2.61l3.29,10.34,10.43,32.81,2.82,8.9.37,1.16,1,3.21-.45,5.52-6,74h0l.29,0,12.31-1.26L842,537l9.2.92,14-83a.22.22,0,0,1,0-.08c0-.13.05-.26.07-.38s0-.26,0-.38A19.49,19.49,0,0,0,865.35,448.93Zm-46.81-45.46c0-.07,0-.14,0-.21l0,.21Z"/><path class="cls-2" d="M724,262.55l.5,2.53C724.29,264.25,724.12,263.41,724,262.55Z"/><path class="cls-2" d="M789.88,262.45c-.13.87-.3,1.71-.49,2.56Z"/><path class="cls-2" d="M790.26,257.37a33.9,33.9,0,0,1-.38,5.07h0l-.49,2.56-4.95,25.73s0,.06,0,.08l-.27,1.41a1.06,1.06,0,0,1,0,.19,23.39,23.39,0,0,1-16.06,17.15h0l-.43.13-.36.1h0a41.37,41.37,0,0,1-20.5,0h0l-.37-.1-.43-.13h-.05a23.38,23.38,0,0,1-16.52-20v0l-4.79-24.47-.5-2.53,0-.09a34,34,0,0,1-.38-5.09,33.34,33.34,0,0,1,66.67,0Z"/><path class="cls-2" d="M784.15,292.23l0,.19h0A1.06,1.06,0,0,0,784.15,292.23Z"/><polygon class="cls-2" points="828.96 853.57 807.71 852.35 786.52 853.57 786.51 853.57 776.18 725.25 762.68 613.28 760.84 597.93 760.84 597.92 753.01 597.92 737.91 725.25 727.84 853.57 706.67 852.35 685.42 853.57 685.41 853.57 686.44 726.14 689.82 611.83 693.28 547.88 693.98 542.91 820.12 542.91 820.79 547.88 820.99 551.46 824.35 611.83 827.64 726.14 828.96 853.57"/><polygon class="cls-2" points="865.49 888.41 865.49 900.23 787.02 900.23 787.02 860 823.86 860 823.86 860.01 829.14 870.57 831.37 875.05 841.64 879.07 865.49 888.41"/><path class="cls-2" d="M767.57,309.71l.43-.13Z"/><polygon class="cls-2" points="688.88 542.92 685.1 558.5 684.12 562.51 684.12 562.52 658.56 588.62 648.77 583.24 648.77 583.23 661.05 559 661.53 558.06 669.21 542.92 688.88 542.92"/><polygon class="cls-2" points="865.35 583.23 855.55 588.62 830 562.51 825.26 542.92 844.94 542.92 855.97 564.72 865.35 583.23"/><polygon class="cls-2" points="727.33 860 727.33 900.23 648.3 900.23 648.3 888.41 675.22 878 682.87 875.05 685.28 870.27 690.46 860.01 690.47 860 727.33 860"/></svg>