<svg id="Capa_3" data-name="Capa 3" xmlns="http://www.w3.org/2000/svg" viewBox="0 0 1300 1000"><defs><style>.cls-1{fill:#fff;}</style></defs><title>wait-trasnport</title><polygon class="cls-1" points="201.6 543.04 200.54 592.75 185.93 684.04 182.08 708.11 161.73 849.91 179.04 850.85 177.41 864.64 175.11 864.64 173.86 862.14 162.77 862.14 164.62 864.64 150.44 864.64 149.19 862.14 105.45 862.14 106.05 853.67 106.42 850.83 130.02 849.49 133.45 849.67 149.88 850.57 168.29 707.02 168.05 707 168.59 704.35 167.82 703.42 168.93 702.38 172.5 681.76 195.57 548.14 195.55 548.14 196.06 545.2 200.91 517.94 201.6 543.04"/><path class="cls-1" d="M204.09,542.31l-1.35-48.93-8.58,48.19-.56,3.19-1,5.88h0L170,681.33l-3.44,19.89-2.35,2.35,1.57,1.63-1,4,.64.06-1.43,11.21L147.7,847.94l-14.11-.77-3.3-.17-.28,0-.27,0-21.4,1.22-4.13.24-.54,4.1-.09.71,0,.15v.14l-.41,5.73-.38,5.35h50.48l-2.5-5H108.13l.41-5.72.09-.71L130,852l3.3.18,18.72,1h0L169,721.08l1.92-15s0,0,0,0c.09-.41.15-.82.2-1.23h-.08v0h.08a9.81,9.81,0,0,0,.11-1.09h0a0,0,0,0,0,0,0l3.7-21.43,23.57-136.54h0l.57-3.2V543L198,592.53l-14.58,91.11L180.05,705l0,.22-.4,2.5-2.08,14.51-18.66,130,17.37,1-.77,6.58-.07-.14H157.81l3.71,5h18.41l.5-4.27.78-6.58.62-5.29-5.31-.29-11.93-.65,17.89-124.62,2.08-14.47L185,706l0-.2v-.05l3.41-21.36L203,593.32,203,593v-.35l1.06-49.53v-.79Z"/><polygon class="cls-1" points="105.29 608.83 115.52 608.83 124.64 576.11 120.02 559.05 97.13 559.06 97.13 559.05 91.39 559.05 91.18 549.13 100.48 548.29 100.69 548.27 103.91 547.98 107.94 547.62 117.19 548.47 119.77 548.7 123.56 461.83 153.85 393.63 161.62 393.63 137.07 463.74 132.83 529.27 148.29 528.34 201.21 531.56 201.67 544.8 131.82 544.8 131.08 556.19 138.58 576.22 122.91 618.84 106.52 619.08 105.29 608.83"/><path class="cls-1" d="M158.09,396.13l-23.49,67.1-4.45,68.7,18.14-1.09,50.5,3.08.29,8.38H129.47l-.21,3.34-.71,10.92,7.36,19.67-5.56,15.12-9.2,25-12.42.19-.62-5.22h9.31l9.82-35.21-5.31-19.57H93.84l-.11-5.14,7-.63h.12l3.31-.3,3.8-.34,9,.82.38,0,.62.06,4.15.37h0l.4-9.13v0l.06-1.3.37-8.62.07-1.52L126,463.48l.05-1.06,4.14-9.32,25.29-57h2.62m7-5H152.22l-1.32,3-25.29,57-4.14,9.32-.39.86,0,.95,0,1.07-2.94,67.36-.07,1.51-.38,8.62,0,1.32v.1h0l-.16,3.78-9-.82-.45,0-.45,0-3.8.34-3.25.29h-.19l-7,.63-4.65.42.1,4.66.11,5.15.1,4.89h29.17l3.94,14.55-8.43,30.23H102.48l.67,5.59.62,5.22.53,4.47,4.51-.06,12.42-.19,3.43-.05,1.19-3.22,9.19-25L140.6,578l.64-1.74-.65-1.74-7-18.66.55-8.51h70.1l-.18-5.18-.29-8.38-.16-4.54-4.54-.27-50.49-3.08-.31,0-.3,0-12.49.75,4-62.36,23.27-66.45,2.33-6.66Z"/><polygon class="cls-1" points="106.24 613.84 106.23 608.84 110.59 608.82 110.59 613.83 108.09 613.84 106.24 613.84"/><path class="cls-1" d="M108.09,611.33h0m5-5h-6.87l0,10h6.85v-10Z"/><path d="M156,854.6l21.13-147.24L181,683.25l14.62-91.4,5,.43-2.34,106.78a22.83,22.83,0,0,1,.22,3.17c0,.14,0,.28,0,.41a21.41,21.41,0,0,1-.25,3l.22.44-.41.76-19.3,146.7-.29,2.3Z"/><path class="cls-1" d="M198.09,592.23l-2,93.32-.3,13.67a.06.06,0,0,0,0,0,22.45,22.45,0,0,1,.21,3c0,.11,0,.22,0,.32a18.79,18.79,0,0,1-.35,3.46s0,0,0,0L176.44,851.67l-.19,1.53-17.38-1,18.67-130,2.08-14.51.4-2.5,0-.22,3.41-21.36,14.58-91.11,0-.3m-4.94-.76-.05.29-14.57,91.09-3.41,21.33,0,.19v.06l-.4,2.5V707l-2.08,14.51-18.67,130-.78,5.41,5.46.29,17.37,1,4.64.25.59-4.6.2-1.54,19-144.68.82-1.51-.47-.93a22.77,22.77,0,0,0,.17-2.47c0-.16,0-.32,0-.49a26.51,26.51,0,0,0-.21-3.31l.29-13.26,2-93.32-9.94-.87Z"/><polygon points="219.6 886.46 219.6 900 196.51 900 196.51 887.22 194.94 886.48 194.74 886.38 163.58 871.63 163.44 871.45 159.69 866.38 152.84 857.14 176.94 857.14 177.7 858.66 184.78 872.83 219.6 886.46"/><path class="cls-1" d="M218.92,883.52l-32.34-12.67-6.64-13.3-.08-.15-1.38-2.76H147.87l1.85,2.5,4.07,5.48,3.75,5.06,3.66,4.93.68.91.07.1,1.13.53,7.95,3.77,23,10.88V900h5V885.64l-1.57-.74-1.69-.8-22.58-10.7-7.95-3.77-7.41-10H175.4l.07.14,7.5,15,34.13,13.37V900h5V884.76Z"/><polygon points="194.94 886.46 194.94 900 111.44 900 111.44 857.14 152.29 857.14 157.54 867.68 160.11 872.83 161.88 873.52 194.74 886.38 194.94 886.46"/><path class="cls-1" d="M195.75,884.1l-1.49-.59L175,876l-11.55-4.52-1.52-.6-2.23-4.47-4.48-9-.13-.27-1.25-2.5H108.94V900h5V859.64h36.8l7.57,15.16,14.86,5.83,19.27,7.54V900h5V884.76Z"/><path d="M161.88,315.43A42.4,42.4,0,0,1,150,313.78l-1.74-.55v0a25.73,25.73,0,0,1-16.52-21.48l-5.29-27a36.51,36.51,0,0,1-.42-5.51,35.85,35.85,0,0,1,71.7,0,36.66,36.66,0,0,1-.38,5.25v.06L191.86,293l0,.18,0,.05-.22,1.2c0,.15-.06.3-.1.45A25.86,25.86,0,0,1,174,313.72l-.33.18h-.27l-.28.08-.3.15h-.3A45.06,45.06,0,0,1,161.88,315.43Z"/><path class="cls-1" d="M161.88,225.83a33.35,33.35,0,0,1,33.35,33.35,33.8,33.8,0,0,1-.38,5.07h0l-.49,2.55-5,25.75a.22.22,0,0,1,0,.08l-.27,1.41a.59.59,0,0,1-.05.19,23.34,23.34,0,0,1-16,17.16H173a3.17,3.17,0,0,1-.44.12l-.36.1h0a41.54,41.54,0,0,1-10.26,1.29,40.27,40.27,0,0,1-11.12-1.53h0a23.38,23.38,0,0,1-16.54-20v0l-4.79-24.47-.51-2.58v-.05a34.17,34.17,0,0,1-.38-5.09,33.35,33.35,0,0,1,33.35-33.35m0-5a38.4,38.4,0,0,0-38.35,38.35A39.32,39.32,0,0,0,124,265v.15l0,.1.51,2.58,4.74,24.23a28.22,28.22,0,0,0,16.5,22.77v.19l3.47,1.12a45.77,45.77,0,0,0,12.65,1.76,46.49,46.49,0,0,0,10.89-1.29h.58l.63-.32.26-.07a2.91,2.91,0,0,0,.39-.12,28.35,28.35,0,0,0,19.28-20.59,5.18,5.18,0,0,0,.14-.66l.18-1,0-.08.06-.38,5-25.7.49-2.55.09-.47v-.13a39.21,39.21,0,0,0,.38-5.43,38.4,38.4,0,0,0-38.35-38.35Z"/><path d="M108.68,854l-2.63-.27L116.6,703.45l-10.71-89.4h2.82l10.69-.16,13.84-37.66L126,556.94l1.11-17.14H202l-.48,3-.31,1.76-.25,1.47L177.43,682.61l-3.51,20.31.77.93-1,1,0,.28c0,.19-.05.38-.08.57l.22.45-.4.73L154.27,855.69H152l-18.82-1L130,854.5l-21.25,1.21Z"/><path class="cls-1" d="M199.11,542.3l0,.14-.57,3.2h0L175,682.18l-3.7,21.43a0,0,0,0,1,0,0s0,0,0,0a9.81,9.81,0,0,1-.11,1.09h-.07v0h.08c0,.41-.11.82-.2,1.23,0,0,0,0,0,0l-1.93,15L152.07,853.19h0l-18.72-1L130,852l-21.4,1.22-.09.71.68-9.59,9.86-140.51,0-.44L110.92,635l-2.21-18.45h0l12.42-.19,9.2-25,5.56-15.12-7.36-19.67.71-10.92.21-3.34h69.64m5.85-5H124.78l-.3,4.68-.21,3.34-.71,10.92-.07,1.07.38,1,6.71,17.93-4.92,13.38-8,21.79-9,.14h-5.6l.65,5.59L106,635.6l8.13,67.91L104.23,844l-.68,9.59,5.13.51.24,4.12L130,857l3,.16,18.72,1h4.67l.59-4.37L174,721.72l1.8-14.08.81-1.44-.26-.54,1.92-1.93L176.61,702l3.28-19,23.57-136.55.5-2.89,0-.28v-.16l.43-2.52h0l.53-3.34Z"/><path d="M121.75,553.9l-4.63-.42-9.18-.84-6.89.62h-.21l-7,.64H91.28l-.08-2.45L89.14,451.37a21.59,21.59,0,0,1,.91-6.2l.06-.22,30.69-98.09a37.94,37.94,0,0,1,74,5.49H195l.18,2.41,6.25,181.66h-2.67l-50.45-3.07-20.82,1.25,4.65-71.87,13-37.13L128.52,463l-4,91.47Z"/><path class="cls-1" d="M157.23,322a35.43,35.43,0,0,1,35.34,32.84h.09l6.16,179.07h0l-50.5-3.08-18.14,1.09,4.45-68.7,23.49-67.1h-2.62l-25.29,57L126,462.42l-.05,1.06-2.94,67.36-.07,1.52-.37,8.62-.06,1.3v0l-.4,9.13h0l-4.15-.37-.62-.06-.38,0-9-.82-3.8.34-3.31.3h-.12l-7,.63h0l-.18-9.14-.17-8.11-.85-41-.15-7.35-.69-33.74v-.74a18.86,18.86,0,0,1,.85-5.63v-.05l30.66-97.95,0-.15a35.43,35.43,0,0,1,34-25.58m0-5a40.6,40.6,0,0,0-38.83,29.16l0,.1L87.72,444.2l-.1.32v.08a24.14,24.14,0,0,0-1,6.77v.84L87.35,486l.15,7.35.85,41,.17,8.11.18,9.13.1,4.9h5.13l.25,0,6.9-.63h.2l3.31-.3,3.35-.3,8.54.78.35,0h.08l.62.06,3.88.35,5.45,1.07.29-5.8.4-9.14v-.13l0-1.19.18-4.1,2.67-.16,17.84-1.08,50.2,3.06H204l-.15-5.18-6.16-179.07-.17-4.82H197A40.61,40.61,0,0,0,157.23,317Z"/><polygon points="102.27 613.83 92.69 579.6 92.64 579.43 91.72 576.15 97.69 554.06 123.84 554.05 129.83 576.13 119.32 613.83 102.27 613.83"/><path class="cls-1" d="M121.93,556.55l5.31,19.57-9.82,35.21H104.17l-9.11-32.54,0,0-.63-2.28h0l-.1-.33,5.29-19.57h22.33m3.82-5h-30l-1,3.7-5.28,19.57-.36,1.33.28,1h0l.18.67.64,2.28.07.25,0,0,9,32.29,1,3.65h20.84l1-3.66,9.81-35.21.37-1.32-.36-1.33-5.31-19.57-1-3.69Z"/></svg>