<svg id="Capa_3" data-name="Capa 3" xmlns="http://www.w3.org/2000/svg" viewBox="0 0 1300 1000"><defs><style>.cls-1{fill:#fff;}.cls-2{fill:#1e1e1c;}</style></defs><title>1-subject</title><path class="cls-1" d="M1200.23,901.2h-24.66V889.37l-19.27-7.55L1141.44,876l-7.57-15.16h-42.61l.41-5.73.09-.7,21.39-1.22,3.3.17,18.72,1h0l16.94-132.1,1.93-15s0,0,0,0c.09-.41.15-.82.2-1.24h-.08v0h.07a9.4,9.4,0,0,0,.11-1.08s0,0,0,0,0,0,0,0l3.7-21.42,23.57-136.55h0l.57-3.19v.54l-1.06,49.54-14.58,91.12-3.41,21.35,0,.23-.39,2.49-2.09,14.51-18.66,130,17.37.95-.77,6.57-.07-.13h-17.59l7.41,10,8,3.76,25.84,12.24V901.2Z"/><path class="cls-1" d="M1111.68,557.76l7.36,19.66-5.56,15.13-9.2,25-12.42.18-.62-5.21h9.31l9.82-35.22-5.31-19.56H1077l-.11-5.15,7-.63h.13l3.31-.29,3.8-.34,9,.82.37,0,.63,0,4.15.38h0l.4-9.14h0l0-1.3.38-8.62.07-1.52,2.94-67.36.05-1.07,4.14-9.32,25.29-57h2.62l-23.5,67.1-4.44,68.7,18.14-1.09,50.5,3.07.29,8.38H1112.6l-.21,3.34Z"/><polygon class="cls-1" points="1091.22 612.53 1091.22 612.54 1089.37 612.54 1091.22 612.53"/><path class="cls-2" d="M1179.18,686.74l-.3,13.68v0a20.65,20.65,0,0,1,.22,3c0,.11,0,.21,0,.31a19.72,19.72,0,0,1-.35,3.47s0,0,0,0l-19.16,145.61-.2,1.54-17.37-.95,18.66-130,2.09-14.51.39-2.49,0-.23,3.41-21.35,14.58-91.12,0-.3Z"/><polygon class="cls-2" points="1200.23 889.37 1200.23 901.2 1182.14 901.2 1182.14 886.83 1156.3 874.59 1148.35 870.83 1140.94 860.84 1158.53 860.84 1158.6 860.98 1166.1 876 1200.23 889.37"/><polygon class="cls-2" points="1175.57 889.37 1175.57 901.2 1097.07 901.2 1097.07 860.84 1133.87 860.84 1141.44 876 1156.3 881.82 1175.57 889.37"/><path class="cls-2" d="M1112.05,262.51l.5,2.58C1112.35,264.25,1112.19,263.39,1112.05,262.51Z"/><path class="cls-2" d="M1178,262.46c-.13.86-.3,1.71-.49,2.55Z"/><path class="cls-2" d="M1172.25,292.25l0,.19h0A1.05,1.05,0,0,0,1172.25,292.25Z"/><path class="cls-2" d="M1178.36,257.38a33.76,33.76,0,0,1-.38,5.06v0l-.49,2.55-5,25.75a.2.2,0,0,0,0,.07l-.27,1.42a1.05,1.05,0,0,1,0,.19,23.38,23.38,0,0,1-16,17.15l-.06,0-.43.12-.36.1h0a42,42,0,0,1-10.26,1.29,40.18,40.18,0,0,1-11.12-1.53h0a23.35,23.35,0,0,1-16.54-20v0l-4.8-24.48-.5-2.58v0a34.17,34.17,0,0,1-.38-5.09,33.35,33.35,0,1,1,66.7,0Z"/><path class="cls-2" d="M1155.66,309.73l.43-.12Z"/><path class="cls-2" d="M1182.22,543.64l-.57,3.19h0l-23.57,136.55-3.7,21.42s0,0,0,0,0,0,0,0a9.4,9.4,0,0,1-.11,1.08h-.07v0h.08c0,.42-.11.83-.2,1.24,0,0,0,0,0,0l-1.93,15-16.94,132.1h0l-18.72-1-3.3-.17-21.39,1.22-.09.7.67-9.58L1102.21,705l0-.44-8.19-68.38-2.21-18.46h0l12.42-.18,9.2-25,5.56-15.13-7.36-19.66.71-10.93.21-3.34h69.64Z"/><path class="cls-2" d="M1182,535.11h0l-50.5-3.07-18.14,1.09,4.44-68.7,23.5-67.1h-2.62l-25.29,57-4.14,9.32-.05,1.07L1106.18,532l-.07,1.52-.38,8.62,0,1.3h0l-.4,9.14h0l-4.15-.38-.63,0-.37,0-9-.82-3.8.34L1084,552h-.13l-7,.63h0l-.19-9.13-.17-8.11-.84-41-.15-7.35-.7-33.75v-.36h0v-.36a19.13,19.13,0,0,1,.84-5.63v-.05l30.66-97.95,0-.16A35.44,35.44,0,0,1,1175.7,356h.09Z"/><polygon class="cls-2" points="1110.37 577.31 1100.55 612.52 1087.3 612.52 1078.19 579.99 1078.17 579.95 1077.54 577.67 1077.54 577.66 1077.44 577.33 1082.73 557.76 1084.65 557.76 1100.28 557.75 1105.06 557.75 1110.37 577.31"/></svg>