<svg id="Capa_1" data-name="Capa 1" xmlns="http://www.w3.org/2000/svg" viewBox="0 0 1300 1000"><defs><style>.cls-1{fill:#262626;}.cls-2{fill:#fff;}</style></defs><title>Capa1-Acciones del protagonista</title><ellipse id="_Trazado_" data-name="&lt;Trazado&gt;" class="cls-1" cx="644.1" cy="245.53" rx="24" ry="30"/><path class="cls-1" d="M695.88,527.13s1.38-166.53-41.94-234.37c-6.87-10.77-23.87-10.9-30.1,6.86L564,527.13h35L588.6,694.56,560.84,861l14.09,0-.13,34.07h69.87l-.18-10.38L619.21,860h8L655,686l17.14-158.85Z"/><path class="cls-1" d="M630.73,321.13s-11.39,76.75-6.25,111S639,521.33,639,521.33l24.14-.86-7.5-86.28c1.46-85.38,1.79-81.72-1-107.2"/><path class="cls-2" d="M630.73,321.13q-.65,6.27-1.19,12.56t-1.09,12.56c-.66,8.38-1.32,16.76-1.78,25.14-.22,4.19-.47,8.38-.64,12.57s-.3,8.37-.38,12.55c-.11,8.37-.11,16.73.48,25,.16,2.05.34,4.11.59,6.14s.55,4,.91,6.11l2.07,12.43L633.92,471l8.51,49.71-3.54-2.88,12.06-.46L663,517l-3.32,3.75-1.8-21.57L657,488.41l-.84-10.79L654.48,456l-.84-10.79-.77-10.8v-.29l.91-26.82,1-26.81.52-13.4c.18-4.46.26-8.92.36-13.38,0-2.23,0-4.46,0-6.68s-.11-4.46-.22-6.69c-.21-4.46-.53-8.92-.83-13.39.66,4.43,1.35,8.85,1.91,13.3q.4,3.35.69,6.7c.19,2.24.32,4.48.45,6.72.24,4.48.34,9,.44,13.44l.21,13.43.14,26.84,0,26.83V434l1.11,10.77,1,10.78,2.08,21.55,1,10.78,1,10.78,1.94,21.56.33,3.62-3.65.14-12.07.47-12.06.4-3,.1-.5-3L631.48,497c-1.37-8.3-2.71-16.61-4-24.93l-3.77-25c-.62-4.17-1.23-8.34-1.78-12.5-.29-2.05-.56-4.26-.75-6.4s-.31-4.28-.42-6.42c-.31-8.54-.12-17,.4-25.46.27-4.22.57-8.43.94-12.63s.75-8.41,1.23-12.6,1-8.37,1.5-12.55,1.11-8.35,1.73-12.52,1.26-8.33,1.94-12.48S630,325.26,630.73,321.13Z"/><polygon class="cls-1" points="678.16 532.02 662.34 686.02 633.59 864.22 653.83 883.02 653.97 895.06 687.42 894.93 687.24 884.55 661.96 859.9 669.93 859.89 683.9 687.34 678.16 532.02"/></svg>