<svg width="1300" height="1000" viewBox="0 0 1300 1000" fill="none" xmlns="http://www.w3.org/2000/svg"><path d="M494.09 881.232 480 875l1-158s-11.065-146-11.5-157c-3.5-88.5-16-197.5-17.5-203.5s-7.5-15.5-19-15.5c-41.503 0-54.165 15.5-69 46-17.528 36.035-29 130-29 130l10 61.5 13.841 32.65A21.896 21.896 0 0 0 379 624.5l2.5 119-16.635 133.554c-.459 3.689 2.418 6.946 6.135 6.946v16h135v-.477a20 20 0 0 0-11.91-18.291Z" fill="#fff"/><path d="M493.791 886.456 473 877.94 475 717l-10-141-12 141-14.5 158 15.571 6.038a15 15 0 0 1 9.546 13.019L464 900h36v-4.29a10 10 0 0 0-6.209-9.254Z" fill="#000"/><path d="M452.211 887.016 431 876.978l16-160.08 13.5-156.596c-3.497-142.189-12.048-190.328-17.812-206.533-2.269-6.38-9.33-8.959-16.098-8.737-13.597.447-37.553 5.812-53.591 35.185C354.321 414.423 341 516.777 341 516.777l9.5 60.034 11.953 28.141a19.51 19.51 0 0 0 17.956 11.881.975.975 0 0 0 .969-1.084L377 576.811l-7-60.034 34.658-98.088a1.452 1.452 0 0 1 2.752.917l-29.973 95.776a7.508 7.508 0 0 0-.319 2.853L386 627.83l2 115.583-15.346 128.104a4.88 4.88 0 0 0 4.846 5.461V900H458l-.069-4.112a10 10 0 0 0-5.72-8.872Z" fill="#000"/><path d="M414.252 340.974c4.039 1.123 11.388 1.007 13.3.844 0 0 8.607-.826 13.456-3.185 5.465-2.658 8.429-5.047 11.84-10.03 2.33-3.404 3.886-9.07 4.553-11.861.263-1.104.414-2.226.505-3.357l2.054-25.597s.195-3.68-.018-6.021c-.508-5.569-1.547-8.773-4.25-13.682-2.775-5.042-5.046-7.672-9.627-11.203-4.884-3.765-8.301-5.297-14.325-6.746-4.678-1.124-7.491-1.345-12.293-.964-5.135.625-7.024 1.117-11.806 3.073-4.776 2.072-9.544 5.422-13.069 9.142-3.525 3.719-5.85 7.96-7.536 12.705-1.687 4.745-2.243 9.232-1.809 14.211.165 1.878.568 4.104 1.028 5.933l7.243 24.455a24.306 24.306 0 0 0 1.316 3.504c1.319 2.789 4.083 8.279 6.538 10.873 3.37 3.561 8.069 6.563 12.9 7.906Z" fill="#fff"/><path d="M415.852 335.061c3.397.989 9.571.907 11.177.77 0 0 7.23-.695 11.298-2.737 4.584-2.3 7.069-4.372 9.921-8.701 1.905-2.892 3.183-7.667 3.755-10.149.247-1.07.385-2.159.466-3.255l1.645-22.116s.154-3.204-.031-5.243c-.442-4.85-1.324-7.643-3.607-11.925-2.346-4.397-4.261-6.693-8.12-9.781-4.114-3.291-6.989-4.634-12.055-5.912-3.933-.991-6.297-1.191-10.331-.872-4.313.53-5.899.953-9.911 2.644-4.008 1.791-8.005 4.695-10.957 7.924s-4.894 6.916-6.298 11.043c-1.404 4.127-1.859 8.033-1.481 12.37.143 1.635.488 3.574.879 5.168l6.1 21.134a23.955 23.955 0 0 0 1.247 3.408c1.145 2.48 3.421 7.098 5.443 9.311 2.841 3.11 6.797 5.736 10.86 6.919Z" fill="#000"/></svg>