<svg id="Capa_1" data-name="Capa 1" xmlns="http://www.w3.org/2000/svg" viewBox="0 0 1300 1000"><defs><style>.cls-1{fill:#262626;}</style></defs><title>Capa1-Acciones del protagonista</title><path class="cls-1" d="M590,418.34s24-124.61,104.61-125.57S799.5,418.34,799.5,418.34l-36.86,78.12-4.38-28.06L770,415l-34-62.31L769.75,531.4H756.68l29.37,334h-8l25.56,24,.5,11.72h-71l.68-34.79-14.83.1-25-317.87-26.05,317.8H655.14l.22,33.76H586.28v-9.65l30.27-25L604,865.53l28.74-335.12h-13l31.37-176.5L619.45,415l11.85,49.91-4.45,28.51Z"/><ellipse id="_Trazado_" data-name="&lt;Trazado&gt;" class="cls-1" cx="695.21" cy="250.63" rx="24" ry="30"/></svg>