<svg id="Capa_3" data-name="Capa 3" xmlns="http://www.w3.org/2000/svg" viewBox="0 0 1300 1000"><defs><style>.cls-1{fill:#fff;}.cls-2{fill:#1e1e1c;}</style></defs><title>1-subject</title><path class="cls-1" d="M218.21,901.2H193.55V889.37l-19.27-7.55L159.41,876l-7.56-15.16H109.24l.41-5.73.09-.7,21.39-1.22,3.3.17,18.72,1h0l16.94-132.1,1.92-15s0,0,0,0c.09-.41.15-.82.2-1.24h-.08v0h.08c.05-.35.09-.71.11-1.08,0,0,0,0,0,0s0,0,0,0l3.7-21.42,23.57-136.55h0l.57-3.19v.54l-1.06,49.54-14.58,91.12-3.41,21.35,0,.23-.4,2.49-2.08,14.51L160,853.45l17.37.95-.77,6.57-.07-.13H158.92l7.41,10,7.95,3.76,25.84,12.24V901.2Z"/><path class="cls-1" d="M129.66,557.76,137,577.42l-5.57,15.13-9.19,25-12.42.18-.62-5.21h9.31l9.81-35.22L123,557.75H94.94l-.1-5.15,7-.63h.12l3.31-.29,3.81-.34,9,.82.37,0,.62,0,4.16.38h0l.4-9.14h0l0-1.3.38-8.62.07-1.52,2.94-67.36,0-1.07,4.15-9.32,25.29-57h2.62l-23.5,67.1-4.45,68.7L149.4,532l50.5,3.07.29,8.38H130.58l-.22,3.34Z"/><polygon class="cls-1" points="109.2 612.53 109.2 612.54 107.35 612.54 109.2 612.53"/><path class="cls-2" d="M197.15,686.74l-.3,13.68a.08.08,0,0,0,0,0,20.65,20.65,0,0,1,.22,3c0,.11,0,.21,0,.31a20.71,20.71,0,0,1-.35,3.47.08.08,0,0,1,0,0L177.55,852.86l-.2,1.54L160,853.45l18.66-130,2.08-14.51.4-2.49,0-.23,3.41-21.35,14.58-91.12,0-.3Z"/><polygon class="cls-2" points="218.21 889.37 218.21 901.2 200.12 901.2 200.12 886.83 174.28 874.59 166.33 870.83 158.91 860.84 176.51 860.84 176.57 860.98 184.08 876 218.21 889.37"/><polygon class="cls-2" points="193.55 889.37 193.55 901.2 115.05 901.2 115.05 860.84 151.85 860.84 159.41 876 174.28 881.82 193.55 889.37"/><path class="cls-2" d="M130,262.51l.5,2.58C130.33,264.25,130.16,263.39,130,262.51Z"/><path class="cls-2" d="M196,262.46c-.14.86-.3,1.71-.5,2.55Z"/><path class="cls-2" d="M190.22,292.25l0,.19h0A.58.58,0,0,0,190.22,292.25Z"/><path class="cls-2" d="M196.34,257.38a33.76,33.76,0,0,1-.38,5.06v0l-.5,2.55-5,25.75a.64.64,0,0,1,0,.07l-.27,1.42a.58.58,0,0,1,0,.19,23.37,23.37,0,0,1-16.06,17.15l-.05,0-.43.12-.36.1h0A42,42,0,0,1,163,311.13a40.3,40.3,0,0,1-11.13-1.53h0a23.36,23.36,0,0,1-16.53-20v0l-4.8-24.48-.5-2.58v0a32.88,32.88,0,0,1-.39-5.09,33.36,33.36,0,0,1,66.71,0Z"/><path class="cls-2" d="M173.64,309.73l.43-.12Z"/><path class="cls-2" d="M200.2,543.64l-.57,3.19h0L176.07,683.38l-3.7,21.42s0,0,0,0,0,0,0,0c0,.37-.06.73-.11,1.08h-.08v0h.08c-.05.42-.11.83-.2,1.24,0,0,0,0,0,0l-1.92,15-16.94,132.1h0l-18.72-1-3.3-.17-21.39,1.22-.09.7.67-9.58L120.19,705l0-.44L112,636.2l-2.21-18.46h0l12.42-.18,9.19-25L137,577.42l-7.36-19.66.7-10.93.22-3.34h69.64Z"/><path class="cls-2" d="M199.93,535.11h0L149.4,532l-18.15,1.09,4.45-68.7,23.5-67.1h-2.62l-25.29,57-4.15,9.32,0,1.07L124.16,532l-.07,1.52-.38,8.62,0,1.3h0l-.4,9.14h0l-4.16-.38-.62,0-.37,0-9-.82-3.81.34-3.31.29h-.12l-7,.63h0l-.19-9.13-.17-8.11-.84-41-.16-7.35-.69-33.75v-.36h0v-.36a19.13,19.13,0,0,1,.84-5.63v-.05l30.66-97.95,0-.16A35.43,35.43,0,0,1,193.67,356h.1Z"/><polygon class="cls-2" points="128.34 577.31 118.53 612.52 105.28 612.52 96.17 579.99 96.15 579.95 95.51 577.67 95.51 577.66 95.42 577.33 100.7 557.76 102.63 557.76 118.26 557.75 123.03 557.75 128.34 577.31"/></svg>