<svg id="Capa_3" data-name="Capa 3" xmlns="http://www.w3.org/2000/svg" viewBox="0 0 1300 1000"><defs><style>.cls-1{fill:#fff;}.cls-2{fill:#1e1e1c;}</style></defs><title>wait-side--third-quadrant</title><path class="cls-1" d="M812.75,901.2H788.1V889.37l-19.28-7.55L754,876l-7.57-15.16H703.78l.41-5.73.09-.7,21.4-1.22,3.29.17,18.72,1h0l16.94-132.1,1.93-15a.08.08,0,0,0,0,0c.08-.41.14-.82.19-1.24h-.08v0h.07a9.4,9.4,0,0,0,.11-1.08s0,0,0,0,0,0,0,0l3.7-21.42,23.58-136.55h0l.57-3.19,0,.54-1.06,49.54-14.58,91.12-3.41,21.35,0,.23-.4,2.49-2.08,14.51-18.67,130,17.38.95-.78,6.57-.07-.13H753.46l7.41,10,8,3.76,25.84,12.24V901.2Z"/><path class="cls-1" d="M724.2,557.76l7.36,19.66L726,592.55l-9.2,25-12.42.18-.62-5.21h9.31l9.82-35.22-5.31-19.56H689.49l-.11-5.15,7-.63h.12l3.31-.29,3.8-.34,9,.82.38,0,.62,0,4.15.38h0l.4-9.14h0l.06-1.3.37-8.62.07-1.52,2.94-67.36.05-1.07,4.14-9.32,25.29-57h2.62l-23.49,67.1-4.45,68.7L743.94,532l50.5,3.07.29,8.38H725.12l-.21,3.34Z"/><polygon class="cls-1" points="703.74 612.53 703.74 612.54 701.89 612.54 703.74 612.53"/><path class="cls-2" d="M791.7,686.74l-.3,13.68a.08.08,0,0,0,0,0,22.21,22.21,0,0,1,.21,3c0,.11,0,.21,0,.31a18.81,18.81,0,0,1-.35,3.47s0,0,0,0L772.09,852.86l-.19,1.54-17.38-.95,18.67-130,2.08-14.51.4-2.49,0-.23,3.41-21.35,14.58-91.12,0-.3Z"/><polygon class="cls-2" points="812.75 889.37 812.75 901.2 794.66 901.2 794.66 886.83 768.82 874.59 760.87 870.83 753.46 860.84 771.05 860.84 771.12 860.98 778.62 876 812.75 889.37"/><polygon class="cls-2" points="788.1 889.37 788.1 901.2 709.59 901.2 709.59 860.84 746.39 860.84 753.96 876 768.82 881.82 788.1 889.37"/><path class="cls-2" d="M724.57,262.51l.51,2.58Q724.78,263.83,724.57,262.51Z"/><path class="cls-2" d="M790.5,262.46c-.13.86-.3,1.71-.49,2.55Z"/><path class="cls-2" d="M784.77,292.25l0,.19h0A.59.59,0,0,0,784.77,292.25Z"/><path class="cls-2" d="M790.88,257.38a33.76,33.76,0,0,1-.38,5.06v0L790,265l-5,25.75a.15.15,0,0,1,0,.07l-.27,1.42a.59.59,0,0,1,0,.19,23.34,23.34,0,0,1-16.05,17.15l0,0-.43.12-.37.1h0a42,42,0,0,1-10.26,1.29,40.27,40.27,0,0,1-11.12-1.53h0a23.37,23.37,0,0,1-16.54-20v0l-4.79-24.48-.51-2.58v0a34.17,34.17,0,0,1-.38-5.09,33.35,33.35,0,1,1,66.7,0Z"/><path class="cls-2" d="M768.19,309.73l.43-.12Z"/><path class="cls-2" d="M794.74,543.64l-.57,3.19h0L770.61,683.38l-3.7,21.42s0,0,0,0,0,0,0,0a9.4,9.4,0,0,1-.11,1.08h-.07v0h.08c0,.42-.11.83-.19,1.24a.08.08,0,0,1,0,0l-1.93,15-16.94,132.1h0l-18.72-1-3.29-.17-21.4,1.22-.09.7.68-9.58L714.73,705l0-.44-8.19-68.38-2.21-18.46h0l12.42-.18,9.2-25,5.56-15.13-7.36-19.66.71-10.93.21-3.34h69.64Z"/><path class="cls-2" d="M794.47,535.11h0L743.94,532l-18.14,1.09,4.45-68.7,23.49-67.1h-2.62l-25.29,57-4.14,9.32-.05,1.07L718.7,532l-.07,1.52-.37,8.62-.06,1.3h0l-.4,9.14h0l-4.15-.38-.62,0-.38,0-9-.82-3.8.34-3.31.29h-.12l-7,.63h0l-.18-9.13-.17-8.11-.85-41-.15-7.35-.69-33.75v-.36h0v-.36a18.82,18.82,0,0,1,.85-5.63v-.05l30.66-97.95.05-.16A35.43,35.43,0,0,1,788.22,356h.09Z"/><polygon class="cls-2" points="722.89 577.31 713.07 612.52 699.82 612.52 690.71 579.99 690.69 579.95 690.06 577.67 690.06 577.66 689.97 577.33 695.25 557.76 697.17 557.76 712.8 557.75 717.58 557.75 722.89 577.31"/></svg>