<svg id="Capa_3" data-name="Capa 3" xmlns="http://www.w3.org/2000/svg" viewBox="0 0 1300 1000"><defs><style>.cls-1{fill:#fff;}</style></defs><title>wait-trasnport</title><path class="cls-1" d="M217.1,901.13H192.45V889.3l-19.28-7.54-14.86-5.83-7.57-15.16H108.13l.41-5.72.09-.71,21.4-1.22,3.29.18,18.72,1h0L169,722.21l1.93-15s0,0,0,0c.09-.41.15-.82.2-1.23h-.08v0h.07a9.81,9.81,0,0,0,.11-1.09s0,0,0,0a0,0,0,0,0,0,0l3.7-21.43,23.58-136.54h0l.57-3.2v.55l-1,49.54-14.58,91.11-3.41,21.36,0,.22-.4,2.5-2.08,14.51-18.67,130,17.38,1-.78,6.58-.07-.14H157.81l7.41,10,7.95,3.77L199,886.77v14.36Z"/><path class="cls-1" d="M128.55,557.69l7.36,19.67-5.56,15.12-9.2,25-12.42.19-.62-5.22h9.31l9.82-35.21-5.31-19.57H93.84l-.11-5.14,7-.63h.12l3.31-.3,3.8-.34,9,.82.38,0,.62.06,4.15.37h0l.4-9.13v0l.06-1.3.37-8.62.07-1.52L126,464.61l.05-1.06,4.14-9.32,25.29-57h2.62l-23.49,67.1-4.45,68.7L148.29,532l50.5,3.08.29,8.38H129.47l-.21,3.34Z"/><polygon class="cls-1" points="108.09 612.46 108.09 612.47 106.24 612.47 108.09 612.46"/><path d="M196.05,686.68l-.3,13.67a.06.06,0,0,0,0,0,22.45,22.45,0,0,1,.21,3c0,.11,0,.22,0,.32a18.79,18.79,0,0,1-.35,3.46s0,0,0,0L176.44,852.8l-.19,1.53-17.38-1,18.67-130,2.08-14.51.4-2.5,0-.22,3.41-21.36,14.58-91.11,0-.3Z"/><polygon points="217.1 889.3 217.1 901.13 199.01 901.13 199.01 886.76 173.17 874.53 165.22 870.76 157.81 860.77 175.4 860.77 175.47 860.91 182.97 875.93 217.1 889.3"/><polygon points="192.44 889.3 192.44 901.13 113.94 901.13 113.94 860.77 150.74 860.77 158.31 875.93 173.17 881.76 192.44 889.3"/><path d="M128.92,262.45l.51,2.58Q129.13,263.76,128.92,262.45Z"/><path d="M194.85,262.39c-.13.86-.3,1.71-.49,2.55Z"/><path d="M189.12,292.18l0,.19h0A.59.59,0,0,0,189.12,292.18Z"/><path d="M195.23,257.31a33.8,33.8,0,0,1-.38,5.07h0l-.49,2.55-5,25.75a.22.22,0,0,1,0,.08l-.27,1.41a.59.59,0,0,1-.05.19,23.34,23.34,0,0,1-16,17.16H173a3.17,3.17,0,0,1-.44.12l-.36.1h0a41.54,41.54,0,0,1-10.26,1.29,40.27,40.27,0,0,1-11.12-1.53h0a23.38,23.38,0,0,1-16.54-20v0L129.43,265l-.51-2.58v-.05a34.17,34.17,0,0,1-.38-5.09,33.35,33.35,0,0,1,66.7,0Z"/><path d="M172.53,309.66a3.17,3.17,0,0,0,.44-.12Z"/><path d="M199.09,543.57l-.57,3.2h0L175,683.31l-3.7,21.43a0,0,0,0,1,0,0s0,0,0,0a9.81,9.81,0,0,1-.11,1.09h-.07v0h.08c0,.41-.11.82-.2,1.23,0,0,0,0,0,0l-1.93,15L152.07,854.32h0l-18.72-1-3.29-.18-21.4,1.22-.09.71.68-9.59L119.08,705l0-.44-8.19-68.38-2.21-18.45h0l12.42-.19,9.2-25,5.56-15.12-7.36-19.67.71-10.92.21-3.34h69.64Z"/><path d="M198.82,535.05h0L148.29,532l-18.14,1.09,4.45-68.7,23.49-67.1h-2.62l-25.29,57L126,463.55l-.05,1.06L123.05,532l-.07,1.52-.37,8.62-.06,1.3v0l-.4,9.13h0l-4.15-.37-.62-.06-.38,0-9-.82-3.8.34-3.31.3h-.12l-7,.63h0l-.18-9.14-.17-8.11-.85-41L92.35,487l-.69-33.74v-.74a18.86,18.86,0,0,1,.85-5.63v-.05l30.66-97.95,0-.15A35.43,35.43,0,0,1,192.57,356h.09Z"/><polygon points="127.24 577.25 117.42 612.46 104.17 612.46 95.06 579.92 95.04 579.88 94.41 577.6 94.41 577.59 94.31 577.26 99.6 557.69 101.52 557.69 117.15 557.68 121.93 557.68 127.24 577.25"/></svg>