<svg id="Capa_1" data-name="Capa 1" xmlns="http://www.w3.org/2000/svg" viewBox="0 0 1300 1000"><defs><style>.cls-1{fill:#262626;}</style></defs><title>wait--first-quadrant</title><path class="cls-1" d="M272.14,901.22l-.5-11.72-25.56-24h8l-29.37-334h13.07L231,495.67l36.48-77.33S243.18,291.81,162.58,292.77,58,418.34,58,418.34l36.47,74.2L87.71,530.4h13L72,866.53l12.56.06-30.27,25v9.65h69.08l-.22-33.76h12.75l26-318.8,25,317.87,14.83-.1-.68,34.79ZM98.88,467.54l.42-2.68L87.45,415l31.63-61.05ZM238,415,226.26,468.4l1.83,11.73-24-127.49Z"/><ellipse class="cls-1" cx="163.21" cy="250.63" rx="24" ry="30"/></svg>