<svg id="Capa_3" data-name="Capa 3" xmlns="http://www.w3.org/2000/svg" viewBox="0 0 1300 1000"><defs><style>.cls-1{fill:#fff;}.cls-2{fill:#1e1e1c;}</style></defs><title>1-subject</title><path class="cls-1" d="M550.23,901.2H525.57V889.37l-19.27-7.55L491.44,876l-7.57-15.16H441.26l.41-5.73.09-.7,21.39-1.22,3.3.17,18.72,1h0l16.94-132.1,1.93-15s0,0,0,0c.09-.41.15-.82.2-1.24h-.08v0h.07a9.4,9.4,0,0,0,.11-1.08s0,0,0,0,0,0,0,0l3.7-21.42,23.57-136.55h0l.57-3.19v.54l-1.06,49.54-14.58,91.12-3.41,21.35,0,.23-.39,2.49-2.09,14.51L492,853.45l17.37.95L508.6,861l-.07-.13H490.94l7.41,10,7.95,3.76,25.84,12.24V901.2Z"/><path class="cls-1" d="M461.68,557.76,469,577.42l-5.56,15.13-9.2,25-12.42.18-.62-5.21h9.31l9.82-35.22-5.31-19.56H427l-.11-5.15,7-.63H434l3.31-.29,3.8-.34,9,.82.37,0,.63,0,4.15.38h0l.4-9.14h0l.05-1.3.38-8.62.07-1.52,2.94-67.36.05-1.07,4.14-9.32,25.29-57h2.62l-23.5,67.1-4.44,68.7L481.42,532l50.5,3.07.29,8.38H462.6l-.21,3.34Z"/><polygon class="cls-1" points="441.22 612.53 441.22 612.54 439.37 612.54 441.22 612.53"/><path class="cls-2" d="M529.18,686.74l-.3,13.68v0a20.65,20.65,0,0,1,.22,3c0,.11,0,.21,0,.31a19.72,19.72,0,0,1-.35,3.47s0,0,0,0L509.57,852.86l-.2,1.54L492,853.45l18.66-130,2.09-14.51.39-2.49,0-.23,3.41-21.35,14.58-91.12.05-.3Z"/><polygon class="cls-2" points="550.23 889.37 550.23 901.2 532.14 901.2 532.14 886.83 506.3 874.59 498.35 870.83 490.94 860.84 508.53 860.84 508.6 860.98 516.1 876 550.23 889.37"/><polygon class="cls-2" points="525.57 889.37 525.57 901.2 447.07 901.2 447.07 860.84 483.87 860.84 491.44 876 506.3 881.82 525.57 889.37"/><path class="cls-2" d="M462.05,262.51l.5,2.58C462.35,264.25,462.19,263.39,462.05,262.51Z"/><path class="cls-2" d="M528,262.46c-.13.86-.3,1.71-.49,2.55Z"/><path class="cls-2" d="M522.25,292.25l0,.19h0A1.05,1.05,0,0,0,522.25,292.25Z"/><path class="cls-2" d="M528.36,257.38a33.76,33.76,0,0,1-.38,5.06v0l-.49,2.55-5,25.75a.2.2,0,0,0,0,.07l-.27,1.42a1.05,1.05,0,0,1,0,.19,23.38,23.38,0,0,1-16.05,17.15.11.11,0,0,1-.06,0l-.43.12-.36.1h0A42,42,0,0,1,495,311.13a40.18,40.18,0,0,1-11.12-1.53h0a23.35,23.35,0,0,1-16.54-20v0l-4.8-24.48-.5-2.58v0a34.17,34.17,0,0,1-.38-5.09,33.35,33.35,0,0,1,66.7,0Z"/><path class="cls-2" d="M505.66,309.73l.43-.12Z"/><path class="cls-2" d="M532.22,543.64l-.57,3.19h0L508.09,683.38l-3.7,21.42s0,0,0,0,0,0,0,0a9.4,9.4,0,0,1-.11,1.08h-.07v0h.08c0,.42-.11.83-.2,1.24,0,0,0,0,0,0l-1.93,15L485.2,854.38h0l-18.72-1-3.3-.17-21.39,1.22-.09.7.67-9.58L452.21,705l0-.44-8.19-68.38-2.21-18.46h0l12.42-.18,9.2-25L469,577.42l-7.36-19.66.71-10.93.21-3.34h69.64Z"/><path class="cls-2" d="M532,535.11h0L481.42,532l-18.14,1.09,4.44-68.7,23.5-67.1H488.6l-25.29,57-4.14,9.32-.05,1.07L456.18,532l-.07,1.52-.38,8.62-.05,1.3h0l-.4,9.14h0l-4.15-.38-.63,0-.37,0-9-.82-3.8.34L434,552h-.13l-7,.63h0l-.19-9.13-.17-8.11-.84-41-.15-7.35-.7-33.75v-.36h0v-.36a19.13,19.13,0,0,1,.84-5.63v-.05l30.66-97.95,0-.16A35.44,35.44,0,0,1,525.7,356h.09Z"/><polygon class="cls-2" points="460.37 577.31 450.55 612.52 437.3 612.52 428.19 579.99 428.17 579.95 427.54 577.67 427.54 577.66 427.44 577.33 432.73 557.76 434.65 557.76 450.28 557.75 455.06 557.75 460.37 577.31"/></svg>