<svg width="1300" height="1000" viewBox="0 0 1300 1000" fill="none" xmlns="http://www.w3.org/2000/svg"><path d="M400 472.01c.285-1.638 13.472-48.964 31-84.998 18.5-33.499 31-47.499 72.5-46.999 6 .072 11.994 4 14.5 9.5 18 39.499 67 182.996 67 182.996l14.111 14.317c10.929 11.09 10.645 28.985-.63 39.723a.836.836 0 0 1-1.036.093l-42.392-27.94a5.016 5.016 0 0 1-1.651-1.804l-9.902-18.39 3.5 22 60 156.496 10 139.997 17.55 2.257c9.978 1.282 17.45 9.777 17.45 19.836v1.907L586 900h-34l-1.5-7.5a6.636 6.636 0 0 1-6.603-5.969L529.5 744.004 491 664.506l-19 79.498-73 131.997 8.372 4.751a20 20 0 0 1 10.128 17.394V900H355l-32-17.999 10.5-15a6.831 6.831 0 0 1-2.084-8.861L393.5 744.004l31-167.996-33.712 48.088a.925.925 0 0 1-.789.392c-12.692-.479-21.098-13.363-16.423-25.173L383 575.508s9-57.499 17-103.498Z" fill="#fff"/><path d="M632.921 865.273 609.5 863.47 598 716.889l-59-156.087c-14.676-166.492-27.563-204.128-32.668-212.635-1.199-1.999-3.466-2.737-5.787-2.948-10.284-.933-41.184-.461-60.546 34.998C421.321 414.423 406 471.752 406 471.752l-17 104.559-10.228 27.63c-2.313 6.25 2.31 12.892 8.974 12.892a.476.476 0 0 0 .396-.21l27.358-40.312 21.5-59.534 34.658-98.088a1.452 1.452 0 0 1 2.752.917l-30.01 95.892a6.938 6.938 0 0 0-.308 2.615c.68 8.523 5.84 56.657 38.408 109.726 1.5 2.444 56.5 115.564 56.5 115.564l12.982 137.104a6.045 6.045 0 0 0 6.018 5.476L560.5 900l81.672-23.703-.02-1.221a10 10 0 0 0-9.231-9.803Z" fill="#000"/><path d="M480.324 340c3.926 1.471 11.257 1.995 13.176 2 0 0 8.646-.072 13.682-2 5.676-2.172 8.837-4.293 12.669-8.96 2.619-3.188 4.662-8.697 5.57-11.42.358-1.076.606-2.181.795-3.3l4.277-25.32s.516-3.649.507-6c-.02-5.591-.777-8.874-3.041-14-2.325-5.265-4.358-8.083-8.614-12-4.537-4.176-7.807-6-13.683-7.968-4.561-1.528-7.345-1.993-12.162-2.032-5.17.175-7.095.5-12.029 2.032-4.938 1.649-9.979 4.57-13.816 7.968-3.836 3.398-6.521 7.42-8.614 12-2.094 4.58-3.039 9.002-3.041 14 .001 1.885.208 4.137.507 6l5.084 24.993a24.33 24.33 0 0 0 1.005 3.605c1.072 2.894 3.346 8.603 5.566 11.402 3.047 3.841 7.466 7.241 12.162 9Z" fill="#fff"/><path d="M482.432 334.258c3.298 1.281 9.456 1.738 11.068 1.742 0 0 7.263-.063 11.493-1.742 4.767-1.892 7.423-3.739 10.642-7.804 2.15-2.714 3.839-7.36 4.625-9.782.339-1.045.572-2.118.748-3.202l3.566-21.889s.433-3.178.426-5.226c-.017-4.87-.652-7.729-2.554-12.194-1.953-4.585-3.662-7.039-7.237-10.451-3.811-3.637-6.558-5.226-11.493-6.94-3.832-1.331-6.17-1.736-10.216-1.77-4.342.152-5.959.435-10.104 1.77-4.148 1.436-8.383 3.98-11.605 6.94-3.223 2.959-5.478 6.462-7.237 10.451-1.759 3.99-2.552 7.841-2.554 12.194 0 1.641.175 3.603.426 5.226l4.234 21.584c.234 1.19.535 2.363.946 3.504.924 2.57 2.789 7.37 4.61 9.75 2.56 3.346 6.272 6.307 10.216 7.839Zm-78.048 552.503L389.5 879.5 463 744s25.802-94.5 23-99c-49.5-79.5-45-122.5-45-122.5L402 744l-62.158 113.797a6.817 6.817 0 0 0 1.916 8.74L333 879.5l37 20.5h40v-4.252a10 10 0 0 0-5.616-8.987ZM513 351s23 83.5 27 166c.17 3.507 20.95 36.622 20.95 36.622l34.098 23.565a.71.71 0 0 0 .868-.046c5.873-5.073 6.593-13.918 1.618-19.873L578.5 534.485 556 468l-43-117Z" fill="#000"/></svg>