<svg id="Capa_3" data-name="Capa 3" xmlns="http://www.w3.org/2000/svg" viewBox="0 0 1300 1000"><defs><style>.cls-1{fill:#fff;}.cls-2{fill:#1e1e1c;}</style></defs><title>1-subject</title><polygon class="cls-1" points="677.17 856.76 677.16 856.78 676.99 857.15 676.99 856.39 677.16 856.74 677.17 856.76"/><polygon class="cls-1" points="679.69 851.4 677.16 856.74 676.99 856.39 676.99 856.42 676.97 856.39 676.97 856.65 645.41 838.9 632.13 878.79 645.39 838.89 639.71 835.6 642.21 829.76 662.49 840.04 679.69 851.4"/><polygon class="cls-1" points="677.16 856.74 677.15 856.75 676.99 856.42 676.99 856.39 677.16 856.74"/><path class="cls-1" d="M923.81,851.36l-34.4,8,9.22,41.8-9.23-41.8-7.49,1.69L846.49,727.83l-68.14-104.9-3,7.65-23.83-33-23.21-40.27,3.11-12.93a44.21,44.21,0,0,0,5,13.94h0l2.07,3.19.83,1.29h0l33.73,52,.69,1.06,1.91,2.94,70.76,108.93h0L880.28,855l21-6.17,21.2-3.75,1.35,6.29,0,0Z"/><polygon class="cls-1" points="712.82 547.7 711.35 552.16 689 546.56 689 546.55 681.76 544.66 711.15 441.3 711.16 441.25 711.17 441.25 711.15 441.3 683.06 540.09 693 541.63 694.62 541.88 698.29 542.45 708.72 546.22 709.15 546.37 712.82 547.7"/><path class="cls-1" d="M831.45,526.59H731.87c-.07.3-.14.61-.2.92l1.58-9,1.32-.08c16.44-1,54.69-3.3,54.69-3.3l26.07,1.72,16,1.06Z"/><polygon class="cls-1" points="862.83 542.74 862.87 567.02 862.81 542.73 854.53 543.29 852.93 538.73 861.18 537.38 865.23 536.72 869.42 536.04 877.65 536.29 878.38 536.31 883.21 536.46 884.69 541.25 884.7 541.26 862.83 542.74"/><path class="cls-1" d="M839.18,440.77l-1.69,54.05-6.66-18.91.07.15-1.3-113.52v0l0-2.88,0-.92v0a36.4,36.4,0,0,0-1.09-6.89l7.66,27.52v0Z"/><polygon class="cls-1" points="796.74 392.45 793.51 398.25 774.29 432.67 742.06 468.75 743.76 459.11 744 457.75 744 457.74 748 452.55 789.74 398.17 794.12 392.45 796.74 392.45"/><polygon class="cls-1" points="677.17 856.76 677.16 856.78 676.99 857.15 676.99 856.39 677.16 856.74 677.17 856.76"/><path class="cls-2" d="M922.46,845l-21.2,3.75-21,6.17L846.51,727.84h0L775.75,618.9,773.84,616l-.69-1.06-33.73-52h0l-.83-1.29-2.07-3.19h0a44.21,44.21,0,0,1-5-13.94c0-.09,0-.19,0-.29s-.08-.46-.12-.68c-.11-.65-.19-1.31-.26-2,0-.33-.17-1.75-.18-2.05-.07-1-.1-2-.1-3a43.45,43.45,0,0,1,.53-6.88h0l.3-1.75.07-.34c.06-.31.13-.62.2-.92h99.59l.16,13.2,63.13,175.67h0c.1.28.2.56.28.85s.14.43.19.65a2,2,0,0,1,.09.33c.06.22.11.45.16.67l.15.73,0,.19c0,.28.09.57.12.85a.29.29,0,0,1,0,.09c0,.17,0,.34.05.52l0,.37v0Z"/><polygon class="cls-2" points="883.22 536.46 883.21 536.46 878.38 536.31 877.65 536.29 869.42 536.04 865.23 536.72 861.18 537.38 852.93 538.73 847.05 522.02 845.95 518.89 837.49 494.83 837.49 494.82 839.18 440.77 836.13 379.34 836.12 379.31 836.11 379.09 849.68 428.07 883.22 536.46"/><path class="cls-2" d="M775.4,630.58l-2.88,7.49L738,727.8l0,0,0,.09v0l-1,2.35-.06.14a.08.08,0,0,1,0,0L679.69,851.4,662.49,840l-20.28-10.28,46.88-109.31,39.27-163.1,23.21,40.27Z"/><path class="cls-2" d="M832.4,258.06a33.76,33.76,0,0,1-.38,5.06v0l-.49,2.55-5,25.75a.2.2,0,0,0,0,.07l-.27,1.42a1.05,1.05,0,0,1,0,.19,23.38,23.38,0,0,1-16,17.15l-.06,0-.79.22h0a41.51,41.51,0,0,1-10.25,1.29,40.3,40.3,0,0,1-11.13-1.53h0a23.35,23.35,0,0,1-16.53-20s0,0,0,0l-4.8-24.48-.5-2.58v0a32.88,32.88,0,0,1-.39-5.09,33.36,33.36,0,0,1,66.71,0Z"/><polygon class="cls-2" points="711.36 552.17 709.43 572.51 687.75 601.94 687.74 601.94 687.5 601.85 685.98 601.3 685.98 601.29 675.46 597.48 678.59 561.07 689 546.56 711.35 552.16 711.36 552.17"/><polygon class="cls-2" points="720.9 889.37 720.9 901.21 676.97 901.21 632.13 878.79 645.41 838.9 676.97 856.65 676.99 856.66 677.15 856.75 677.17 856.76 686.77 876.01 720.9 889.37"/><polygon class="cls-2" points="975.29 884.27 932.39 893.75 898.63 901.21 889.41 859.41 923.81 851.36 923.84 851.36 936.53 867.03 972.73 872.72 972.74 872.72 975.29 884.27"/><path class="cls-2" d="M831.35,517.92h0l-16-1.06-26.07-1.72s-38.25,2.29-54.69,3.3l-1.32.08,8.81-49.77,32.23-36.08,19.22-34.42,3.23-5.8h-2.62l-4.38,5.72L748,452.55l-4,5.19h0l-2.65,3.45h0v0L712.82,547.7l-3.67-1.33-.43-.15-10.43-3.77-3.67-.57-1.63-.25-9.93-1.54,28.09-98.79,0-.05h0l1.25-3.67h0l.11-.31,22.37-44.52,23.74-47.22h0c.18-.4.37-.79.57-1.19s.3-.58.46-.87l.37-.68c.36-.63.73-1.25,1.12-1.86.24-.37.48-.73.73-1.08s.39-.55.59-.81.36-.5.55-.73.39-.51.59-.76l.67-.79c.22-.26.45-.5.67-.75s.32-.35.49-.52a31.43,31.43,0,0,1,2.64-2.52c.28-.26.57-.5.87-.74s.68-.55,1-.81l.86-.62.67-.47.79-.52c.26-.18.52-.34.79-.5l.5-.3c.6-.36,1.23-.7,1.86-1l.28-.15,1.45-.69c.52-.23,1-.45,1.57-.66l.85-.32.82-.29c.82-.29,1.67-.54,2.52-.76.35-.1.7-.19,1-.26h0l.38-.09c.46-.1.92-.2,1.38-.27l1.11-.19c.44-.07.89-.12,1.33-.17a36.22,36.22,0,0,1,4.18-.23h1.07l1.23.06.89.06.79.08,1.13.14.34,0,1,.17.46.09c.38.07.76.14,1.13.23.68.14,1.35.31,2,.51.24.06.49.13.73.21l.73.23c.66.22,1.32.45,2,.71l.72.29.87.38.65.29,1.07.52.33.17c.45.23.88.48,1.32.73.65.37,1.3.77,1.92,1.18l.63.42.74.53c.38.27.74.54,1.11.83s.89.71,1.32,1.09.6.51.89.78c.55.5,1.09,1,1.61,1.57.2.2.39.41.59.62.39.42.77.85,1.14,1.28l.74.91c.32.41.63.82.94,1.24s.43.61.65.93l.62.94c.18.29.37.58.54.88s.41.7.61,1.06.25.44.36.66c.22.41.42.82.62,1.23l.2.42c.32.67.61,1.37.89,2.06.14.38.29.77.43,1.16l.27.78c.09.27.17.53.25.8.17.53.31,1.07.46,1.61a36.4,36.4,0,0,1,1.09,6.89v0l0,.92,0,2.88v0l1.3,113.52-.07-.15Z"/><polygon class="cls-2" points="894.58 558.26 894.2 594.81 892.39 595.33 881.63 598.39 862.87 567.02 862.83 542.74 884.7 541.26 884.71 541.26 894.58 558.26"/></svg>