<svg id="Capa_3" data-name="Capa 3" xmlns="http://www.w3.org/2000/svg" viewBox="0 0 1300 1000"><defs><style>.cls-1{fill:#fff;}.cls-2{fill:#1e1e1c;}</style></defs><title>1-subject</title><polygon class="cls-1" points="370.04 856.76 370.03 856.78 369.85 857.15 369.85 856.39 370.03 856.74 370.04 856.76"/><polygon class="cls-1" points="372.56 851.4 370.03 856.74 369.85 856.39 369.85 856.42 369.84 856.39 369.84 856.65 338.27 838.9 325 878.79 338.26 838.89 332.57 835.6 335.08 829.76 355.36 840.04 372.56 851.4"/><polygon class="cls-1" points="370.03 856.74 370.02 856.75 369.85 856.42 369.85 856.39 370.03 856.74"/><path class="cls-1" d="M616.68,851.36l-34.41,8,9.23,41.8-9.23-41.8-7.49,1.69L539.36,727.83l-68.14-104.9-3,7.65-23.83-33-23.21-40.27,3.11-12.93a44.21,44.21,0,0,0,5,13.94h0l2.06,3.19.84,1.29h0l33.72,52,.69,1.06,1.92,2.94,70.75,108.93h0L573.15,855l21-6.17,21.2-3.75,1.34,6.29,0,0Z"/><polygon class="cls-1" points="405.69 547.7 404.21 552.16 381.87 546.56 381.87 546.55 374.62 544.66 404.01 441.3 404.03 441.25 404.04 441.25 404.02 441.3 375.93 540.09 385.86 541.63 387.49 541.88 391.15 542.45 401.59 546.22 402.02 546.37 405.69 547.7"/><path class="cls-1" d="M524.32,526.59H424.74c-.07.3-.14.61-.2.92l1.58-9,1.32-.08c16.44-1,54.69-3.3,54.69-3.3l26.07,1.72,16,1.06Z"/><polygon class="cls-1" points="555.7 542.74 555.73 567.02 555.68 542.73 547.4 543.29 545.79 538.73 554.04 537.38 558.1 536.72 562.29 536.04 570.51 536.29 571.24 536.31 576.08 536.46 577.56 541.25 577.57 541.26 555.7 542.74"/><path class="cls-1" d="M532,440.77l-1.69,54.05-6.65-18.91.06.15-1.29-113.52v0l0-2.88v-1a37.22,37.22,0,0,0-1.09-6.89L529,379.31v0Z"/><polygon class="cls-1" points="489.61 392.45 486.38 398.25 467.16 432.67 434.93 468.75 436.63 459.11 436.87 457.75 436.87 457.74 440.86 452.55 482.61 398.17 486.99 392.45 489.61 392.45"/><polygon class="cls-1" points="370.04 856.76 370.03 856.78 369.85 857.15 369.85 856.39 370.03 856.74 370.04 856.76"/><path class="cls-2" d="M615.33,845l-21.2,3.75-21,6.17L539.37,727.84h0L468.62,618.9,466.7,616,466,614.9l-33.72-52h0l-.84-1.29-2.06-3.19h0a44.21,44.21,0,0,1-5-13.94c0-.09,0-.19,0-.29s-.07-.46-.11-.68c-.11-.65-.19-1.31-.26-2,0-.33-.17-1.75-.19-2.05-.07-1-.1-2-.1-3a44.66,44.66,0,0,1,.53-6.88h0l.31-1.75.07-.34c.06-.31.13-.62.2-.92h99.58l.17,13.2,63.12,175.67h0c.1.28.2.56.28.85s.14.43.19.65.06.22.09.33.11.45.16.67.1.48.14.73a.58.58,0,0,1,0,.19c0,.28.1.57.13.85,0,0,0,.06,0,.09s0,.34.06.52l0,.37v0Z"/><polygon class="cls-2" points="576.08 536.46 576.08 536.46 571.24 536.31 570.51 536.29 562.29 536.04 558.1 536.72 554.04 537.38 545.79 538.73 539.92 522.02 538.82 518.89 530.35 494.83 530.35 494.82 532.04 440.77 529 379.34 528.99 379.31 528.98 379.09 542.54 428.07 576.08 536.46"/><path class="cls-2" d="M468.27,630.58l-2.88,7.49L430.85,727.8l0,0,0,.09v0l-1,2.35-.05.14,0,0L372.56,851.4,355.36,840l-20.28-10.28L382,720.45l39.27-163.1,23.21,40.27Z"/><path class="cls-2" d="M525.27,258.06a32.49,32.49,0,0,1-.39,5.06v0l-.49,2.55-4.95,25.75a.64.64,0,0,1,0,.07l-.27,1.42a.58.58,0,0,1,0,.19,23.37,23.37,0,0,1-16.06,17.15l-.05,0-.79.22h0a41.59,41.59,0,0,1-10.25,1.29,40.3,40.3,0,0,1-11.13-1.53h0a23.36,23.36,0,0,1-16.54-20v0l-4.79-24.48-.51-2.58v0a32.88,32.88,0,0,1-.39-5.09,33.36,33.36,0,0,1,66.71,0Z"/><polygon class="cls-2" points="404.23 552.17 402.29 572.51 380.62 601.94 380.61 601.94 380.37 601.85 378.85 601.3 378.85 601.29 368.32 597.48 371.46 561.07 381.87 546.56 404.21 552.16 404.23 552.17"/><polygon class="cls-2" points="413.77 889.37 413.77 901.21 369.84 901.21 325 878.79 338.27 838.9 369.84 856.65 369.85 856.66 370.02 856.75 370.04 856.76 379.64 876.01 413.77 889.37"/><polygon class="cls-2" points="668.16 884.27 625.26 893.75 591.5 901.21 582.27 859.41 616.68 851.36 616.7 851.36 629.39 867.03 665.6 872.72 665.61 872.72 668.16 884.27"/><path class="cls-2" d="M524.22,517.92h0l-16-1.06-26.07-1.72s-38.25,2.29-54.69,3.3l-1.32.08,8.8-49.77,32.24-36.08,19.22-34.42,3.23-5.8H487l-4.39,5.72-41.74,54.38-4,5.19h0l-2.65,3.45h0v0L405.69,547.7,402,546.37l-.43-.15-10.44-3.77-3.66-.57-1.63-.25-9.93-1.54L404,441.3l0-.05h0l1.25-3.67h0l.1-.31,22.38-44.52,23.74-47.22h0l.57-1.19c.16-.29.31-.58.46-.87s.25-.45.38-.68c.35-.63.73-1.25,1.12-1.86.24-.37.48-.73.73-1.08s.39-.55.59-.81.36-.5.55-.73.39-.51.59-.76.45-.53.67-.79.44-.5.67-.75.32-.35.49-.52A32.91,32.91,0,0,1,461,333c.29-.26.58-.5.88-.74s.68-.55,1-.81l.85-.62.68-.47.78-.52c.26-.18.53-.34.79-.5l.5-.3q.91-.54,1.86-1l.29-.15,1.45-.69c.51-.23,1-.45,1.57-.66l.85-.32.82-.29c.82-.29,1.67-.54,2.52-.76.35-.1.7-.19,1.05-.26h.05l.38-.09c.46-.1.92-.2,1.38-.27l1.11-.19c.44-.07.88-.12,1.33-.17a36.22,36.22,0,0,1,4.18-.23h1.07l1.23.06.89.06.79.08,1.13.14.34,0,1,.17.45.09c.39.07.76.14,1.14.23q1,.21,2,.51c.25.06.49.13.74.21l.73.23c.66.22,1.32.45,2,.71l.72.29.87.38.65.29,1.07.52.33.17c.44.23.88.48,1.32.73.65.37,1.3.77,1.92,1.18l.63.42.74.53c.37.27.74.54,1.1.83s.9.71,1.33,1.09.59.51.88.78c.56.5,1.1,1,1.62,1.57.2.2.39.41.59.62.38.42.77.85,1.14,1.28s.49.6.73.91.64.82.95,1.24.43.61.64.93.42.62.63.94l.54.88c.21.34.41.7.61,1.06l.36.66c.21.41.42.82.62,1.23.07.14.13.28.19.42.33.67.62,1.37.89,2.06.15.38.3.77.43,1.16s.19.52.27.78.18.53.26.8c.17.53.31,1.07.46,1.61a37.22,37.22,0,0,1,1.09,6.89v1l0,2.88v0l1.29,113.52-.06-.15Z"/><polygon class="cls-2" points="587.44 558.26 587.07 594.81 585.26 595.33 574.5 598.39 555.73 567.02 555.7 542.74 577.57 541.26 577.57 541.26 587.44 558.26"/></svg>