<svg id="Capa_3" data-name="Capa 3" xmlns="http://www.w3.org/2000/svg" viewBox="0 0 1300 1000"><defs><style>.cls-1{fill:#fff;}.cls-2{fill:#1e1e1c;}</style></defs><title>1-subject</title><polygon class="cls-1" points="365 856.08 364.99 856.1 364.81 856.48 364.81 855.71 364.99 856.06 365 856.08"/><polygon class="cls-1" points="367.52 850.72 364.99 856.06 364.81 855.71 364.81 855.74 364.8 855.71 364.8 855.97 333.24 838.22 319.96 878.11 333.22 838.21 327.54 834.92 330.04 829.08 350.32 839.36 367.52 850.72"/><polygon class="cls-1" points="364.99 856.06 364.98 856.08 364.81 855.74 364.81 855.71 364.99 856.06"/><path class="cls-1" d="M611.64,850.68l-34.4,8.05,9.22,41.8-9.23-41.8-7.49,1.69L534.32,727.15l-68.14-104.9-2.95,7.65-23.83-33-23.21-40.27,3.11-12.93a44.21,44.21,0,0,0,5,13.94h0l2.07,3.19.83,1.29h0l33.72,52,.7,1.06,1.91,2.94,70.75,108.93h0l33.78,127.11,21-6.17,21.2-3.75,1.34,6.29,0,0Z"/><polygon class="cls-1" points="400.65 547.02 399.18 551.48 376.83 545.88 376.83 545.87 369.58 543.98 398.98 440.62 398.99 440.57 399 440.57 398.98 440.62 370.89 539.41 380.82 540.95 382.45 541.2 386.12 541.77 396.55 545.54 396.98 545.69 400.65 547.02"/><path class="cls-1" d="M519.28,525.91H419.7c-.07.3-.14.61-.2.92l1.58-9,1.32-.08c16.44-1,54.69-3.3,54.69-3.3l26.07,1.72,16,1.06Z"/><polygon class="cls-1" points="550.66 542.06 550.7 566.34 550.64 542.05 542.36 542.61 540.76 538.05 549.01 536.7 553.06 536.04 557.25 535.36 565.48 535.61 566.21 535.63 571.04 535.78 572.52 540.57 572.53 540.58 550.66 542.06"/><path class="cls-1" d="M527,440.09l-1.69,54.05-6.66-18.91.07.15-1.3-113.52v0l0-2.88,0-.92v0a37.46,37.46,0,0,0-1.09-6.9L524,378.63v0Z"/><polygon class="cls-1" points="484.57 391.77 481.34 397.57 462.12 431.99 429.89 468.07 431.59 458.43 431.83 457.07 431.83 457.06 435.82 451.87 477.57 397.49 481.95 391.77 484.57 391.77"/><polygon class="cls-1" points="365 856.08 364.99 856.1 364.81 856.48 364.81 855.71 364.99 856.06 365 856.08"/><path class="cls-2" d="M610.29,844.35l-21.2,3.75-21,6.17L534.33,727.16h0L463.58,618.22l-1.91-2.94-.7-1.06-33.72-52h0l-.83-1.29-2.07-3.19h0a44.21,44.21,0,0,1-5-13.94c0-.09,0-.19,0-.29s-.08-.46-.12-.68c-.11-.65-.19-1.31-.26-2,0-.33-.17-1.76-.19-2-.06-1-.1-2-.1-3a44.66,44.66,0,0,1,.53-6.88h0l.31-1.75.07-.34c.06-.31.13-.62.2-.92h99.59l.16,13.2,63.12,175.67h0c.1.28.2.56.28.85s.14.43.19.65a2,2,0,0,1,.09.33c.06.22.11.45.16.67l.15.73,0,.19c0,.28.09.57.12.85a.28.28,0,0,1,0,.09c0,.17,0,.34.06.52l0,.37a0,0,0,0,1,0,0Z"/><polygon class="cls-2" points="571.04 535.78 571.04 535.78 566.21 535.63 565.48 535.61 557.25 535.36 553.06 536.04 549.01 536.7 540.76 538.05 534.88 521.34 533.78 518.21 525.32 494.14 525.32 494.14 527.01 440.09 523.96 378.66 523.95 378.63 523.94 378.41 537.51 427.39 571.04 535.78"/><path class="cls-2" d="M463.23,629.9l-2.88,7.49-34.54,89.73,0,0,0,.09v0l-1,2.35-.06.14s0,0,0,0l-57.2,120.92-17.2-11.36L330,829.08l46.88-109.31,39.27-163.1,23.21,40.27Z"/><path class="cls-2" d="M520.23,257.38a33.76,33.76,0,0,1-.38,5.06v0l-.5,2.55-5,25.75a.64.64,0,0,1,0,.07l-.26,1.42a1.05,1.05,0,0,1,0,.19A23.38,23.38,0,0,1,498,309.59l-.06,0-.79.22h0a41.59,41.59,0,0,1-10.25,1.29,40.3,40.3,0,0,1-11.13-1.53h0a23.35,23.35,0,0,1-16.53-20s0,0,0,0l-4.8-24.48-.51-2.58v0a32.88,32.88,0,0,1-.39-5.09,33.36,33.36,0,0,1,66.71,0Z"/><polygon class="cls-2" points="399.19 551.49 397.25 571.83 375.58 601.26 375.57 601.26 375.33 601.17 373.81 600.62 373.81 600.61 363.29 596.8 366.42 560.38 376.83 545.88 399.18 551.48 399.19 551.49"/><polygon class="cls-2" points="408.73 888.69 408.73 900.53 364.8 900.53 319.96 878.11 333.24 838.22 364.8 855.97 364.81 855.98 364.98 856.08 365 856.08 374.6 875.33 408.73 888.69"/><polygon class="cls-2" points="663.12 883.59 620.22 893.07 586.46 900.53 577.24 858.73 611.64 850.68 611.67 850.67 624.36 866.35 660.56 872.04 660.57 872.04 663.12 883.59"/><path class="cls-2" d="M519.18,517.24h0l-16-1.06-26.07-1.72s-38.25,2.29-54.69,3.3l-1.32.08,8.81-49.77L462.12,432l19.22-34.42,3.23-5.8H482l-4.38,5.72-41.75,54.38-4,5.19h0l-2.65,3.45h0v0L400.65,547,397,545.69l-.43-.15-10.43-3.77-3.67-.57-1.63-.25-9.93-1.54L399,440.62l0-.05h0l1.25-3.67h0l.11-.31,22.37-44.52,23.74-47.22h0c.18-.4.37-.79.56-1.19l.47-.87.37-.68c.36-.63.73-1.25,1.12-1.86.24-.37.48-.73.73-1.08s.39-.55.59-.81.36-.5.55-.73.39-.51.59-.76.45-.53.67-.79.45-.51.67-.75.32-.35.49-.52a31.43,31.43,0,0,1,2.64-2.52c.28-.26.57-.5.87-.74s.68-.55,1-.81l.86-.62.67-.47.78-.52c.27-.18.53-.34.8-.5l.5-.3c.6-.36,1.22-.7,1.85-1l.29-.15c.47-.23,1-.47,1.45-.69s1-.45,1.57-.66l.85-.32.82-.29c.82-.29,1.67-.54,2.52-.76.35-.1.7-.19,1-.26h.05l.38-.09c.46-.1.92-.2,1.38-.27l1.11-.19c.44-.07.89-.12,1.33-.17a36.22,36.22,0,0,1,4.18-.23h1.07l1.23.06.89.06.79.08c.38,0,.75.08,1.13.14l.34,0,1,.17.45.09c.39.07.77.14,1.14.23q1,.21,2,.51c.25.06.5.13.74.21l.73.23c.66.22,1.32.45,2,.71l.72.29.87.38.65.29,1.07.52.33.17c.44.23.88.48,1.32.73.65.37,1.3.77,1.92,1.18l.63.42.74.53c.37.27.74.54,1.1.83s.9.71,1.33,1.09.59.51.89.78c.55.5,1.09,1,1.61,1.57.2.2.39.41.59.62.39.41.77.85,1.14,1.28l.74.91c.32.41.63.82.94,1.24s.43.61.65.93l.62.94c.18.29.37.58.54.88s.41.7.61,1.06.25.44.36.66c.22.41.42.82.62,1.23l.2.42c.32.67.61,1.37.89,2.06.14.38.29.77.43,1.16l.27.78c.09.27.17.53.25.8.17.53.31,1.07.46,1.6a37.46,37.46,0,0,1,1.09,6.9v0l0,.92,0,2.88v0l1.3,113.52-.07-.15Z"/><polygon class="cls-2" points="582.41 557.58 582.03 594.13 580.23 594.64 569.46 597.71 550.7 566.34 550.66 542.06 572.53 540.58 572.53 540.58 582.41 557.58"/></svg>