<svg id="Capa_1" data-name="Capa 1" xmlns="http://www.w3.org/2000/svg" viewBox="0 0 1300 1000"><defs><style>.cls-1{fill:#262626;}.cls-2{fill:#fff;}</style></defs><title>walk--first-quadrant</title><polygon class="cls-1" points="103.26 535.39 156.01 662.74 143.87 724.12 78.95 862.88 68.74 859 86.31 892.9 82.93 901.84 18.02 878.01 30.85 845.73 17.46 841.49 86.78 695.84 103.26 535.39"/><ellipse class="cls-1" cx="166.26" cy="251.63" rx="24" ry="30"/><path class="cls-1" d="M138.94,305.73,76,529h32.67L179,693.1l39.62,172.07,21.34,2-.33,34.07h68.89v-9.55l-29.62-25.5H291l-39.9-181.75L190.58,529h21.21s1.41-161.62-42.41-230.23C162.43,287.9,145.24,287.77,138.94,305.73Z"/><path class="cls-1" d="M154.08,317.58C153.92,377.94,184,427.76,184,427.76l61.61,101.36,22.69-14.3L214.52,400.15S190,323,169.15,297.92"/><path class="cls-2" d="M154.08,317.58c.24,4.88.53,9.74,1.13,14.57.24,2.42.61,4.82.92,7.23s.72,4.8,1.19,7.19c.85,4.77,1.9,9.51,3,14.22s2.47,9.36,3.9,14a260.94,260.94,0,0,0,10.09,27.16q2.91,6.63,6.15,13.09c2.18,4.29,4.44,8.56,7,12.53,5.17,8.27,10.4,16.5,15.52,24.8l15.41,24.86,7.7,12.43,7.64,12.47,15.26,25-5.48-1.29,11.33-7.19,11.36-7.13-1.48,5.05L251.35,487.8l-6.68-14.36-6.61-14.39-13.19-28.78c-2.21-4.79-4.38-9.61-6.55-14.42l-6.52-14.43-.09-.22-.05-.15c-1.34-4.42-2.77-8.88-4.22-13.31s-2.9-8.86-4.41-13.28-3-8.82-4.62-13.2L196,354.69l-2.46-6.55c-1.66-4.36-3.36-8.71-5.15-13-.88-2.16-1.82-4.3-2.74-6.44s-1.86-4.27-2.84-6.39-2-4.22-3-6.31-2.12-4.15-3.21-6.21l-1.7-3.06-1.79-3c-.61-1-1.27-1.95-1.91-2.94s-1.36-1.89-2-2.85c.75.9,1.53,1.77,2.27,2.69s1.45,1.84,2.15,2.79l2,2.87,2,2.93q1.89,3,3.66,6t3.45,6.15c2.26,4.12,4.36,8.32,6.39,12.56s4,8.5,5.9,12.79c3.83,8.58,7.33,17.29,10.75,26,1.7,4.38,3.39,8.76,5,13.18s3.17,8.83,4.68,13.31l-.14-.37,6.93,14.24c2.31,4.74,4.63,9.49,6.9,14.25l13.7,28.55,6.84,14.28,6.76,14.31,13.54,28.63,1.49,3.17-3,1.88-11.34,7.17-11.37,7.11-3.41,2.14-2.07-3.43-15.12-25-7.56-12.53-7.48-12.56-15-25.12c-5-8.37-9.91-16.8-14.87-25.19-2.58-4.34-4.74-8.77-6.84-13.24s-4-9-5.78-13.61-3.42-9.24-4.93-13.92-2.92-9.39-4.11-14.16-2.28-9.56-3.17-14.38-1.7-9.67-2.21-14.55c-.32-2.43-.49-4.88-.73-7.31s-.37-4.88-.42-7.33C153.84,327.35,153.93,322.45,154.08,317.58Z"/><polygon class="cls-1" points="44.35 511.31 29.92 501.27 120.59 350.02 89.1 451.4 44.35 511.31"/></svg>