<svg id="Capa_1" data-name="Capa 1" xmlns="http://www.w3.org/2000/svg" viewBox="0 0 1300 1000"><defs><style>.cls-1{fill:#262626;}.cls-2{fill:#fff;}</style></defs><title>walk--fourth-quadrant</title><polygon class="cls-1" points="1078.26 535.35 1131.01 662.7 1118.87 724.09 1053.95 862.84 1043.74 858.97 1061.31 892.86 1057.93 901.8 993.02 877.97 1005.85 845.69 992.47 841.45 1061.78 695.8 1078.26 535.35"/><ellipse class="cls-1" cx="1141.26" cy="251.59" rx="24" ry="30"/><path class="cls-1" d="M1113.94,305.69,1051,529h32.67L1154,693.06l39.62,172.07,21.34,2-.33,34.07h68.89v-9.55l-29.62-25.5H1266l-39.9-181.75L1165.58,529h21.21s1.41-161.62-42.41-230.23C1137.43,287.86,1120.24,287.73,1113.94,305.69Z"/><path class="cls-1" d="M1129.08,317.55c-.16,60.35,29.93,110.18,29.93,110.18l61.61,101.35,22.69-14.3-53.79-114.67S1165,323,1144.15,297.89"/><path class="cls-2" d="M1129.08,317.55c.24,4.87.53,9.73,1.13,14.56.24,2.42.61,4.83.92,7.23s.72,4.81,1.19,7.19c.85,4.77,1.9,9.51,3,14.22s2.47,9.36,3.9,14a260.09,260.09,0,0,0,10.09,27.16q2.91,6.63,6.15,13.09c2.18,4.29,4.44,8.56,7,12.54,5.17,8.26,10.4,16.49,15.52,24.79l15.41,24.86,7.7,12.43,7.64,12.47L1224,527l-5.48-1.29,11.33-7.19,11.36-7.13-1.48,5.05-13.37-28.71-6.68-14.35L1213.06,459l-13.19-28.79c-2.21-4.79-4.38-9.61-6.55-14.42l-6.52-14.43-.09-.22,0-.15c-1.34-4.42-2.77-8.88-4.22-13.31s-2.9-8.86-4.41-13.28-3-8.82-4.62-13.2l-2.41-6.57-2.46-6.55c-1.66-4.36-3.36-8.7-5.15-13-.88-2.16-1.82-4.29-2.74-6.44s-1.86-4.27-2.84-6.39-2-4.22-3-6.31-2.12-4.15-3.21-6.21l-1.7-3.06-1.79-3c-.61-1-1.27-2-1.91-2.94s-1.36-1.9-2-2.85c.75.89,1.53,1.77,2.27,2.68s1.45,1.84,2.15,2.79l2,2.87,2,2.93q1.89,3,3.66,6t3.45,6.15c2.26,4.12,4.36,8.32,6.39,12.56s4,8.5,5.9,12.79c3.83,8.58,7.33,17.29,10.75,26,1.7,4.38,3.39,8.76,5,13.18s3.17,8.83,4.68,13.31l-.14-.37,6.93,14.24c2.31,4.75,4.63,9.49,6.9,14.25l13.7,28.55,6.84,14.28,6.77,14.32,13.53,28.62,1.49,3.17-3,1.88-11.34,7.17-11.37,7.11-3.41,2.14-2.07-3.43-15.12-25-7.56-12.52L1187.08,481l-15-25.12c-5-8.36-9.91-16.8-14.87-25.19-2.58-4.33-4.74-8.77-6.84-13.24s-4-9-5.78-13.61-3.42-9.23-4.93-13.91-2.92-9.4-4.11-14.17-2.28-9.56-3.17-14.38-1.7-9.67-2.21-14.55c-.32-2.43-.49-4.88-.73-7.31s-.37-4.88-.42-7.33C1128.84,327.31,1128.93,322.41,1129.08,317.55Z"/><polygon class="cls-1" points="1019.35 511.27 1004.92 501.23 1095.59 349.98 1064.1 451.36 1019.35 511.27"/></svg>