<svg id="Capa_1" data-name="Capa 1" xmlns="http://www.w3.org/2000/svg" viewBox="0 0 1300 1000"><defs><style>.cls-1{fill:#262626;}.cls-2{fill:#fff;}</style></defs><title>walk--second-quadrant</title><polygon class="cls-1" points="427.26 535.5 480.01 662.85 467.87 724.24 402.95 862.99 392.74 859.12 410.31 893.01 406.93 901.95 342.02 878.12 354.85 845.85 341.46 841.6 410.78 695.95 427.26 535.5"/><ellipse class="cls-1" cx="490.26" cy="251.74" rx="24" ry="30"/><path class="cls-1" d="M462.94,305.85,400,529.14h32.67L503,693.21l39.62,172.07,21.34,2-.33,34.06h68.89v-9.55l-29.62-25.5H615l-39.9-181.75L514.58,529.14h21.21s1.41-161.63-42.41-230.24C486.43,288,469.24,287.88,462.94,305.85Z"/><path class="cls-1" d="M478.08,317.7C477.92,378.05,508,427.88,508,427.88l61.61,101.35,22.69-14.3L538.52,400.26S514,323.11,493.15,298"/><path class="cls-2" d="M478.08,317.7a225.31,225.31,0,0,0,10.17,57.19,261.1,261.1,0,0,0,10.09,27.17q2.91,6.63,6.15,13.08c2.18,4.29,4.44,8.56,7,12.54,10.41,16.49,20.66,33.08,30.93,49.65l7.7,12.43,7.64,12.47L573,527.18l-5.48-1.29,11.33-7.18,11.36-7.14-1.48,5.05-13.37-28.71-6.68-14.35-6.61-14.39-13.19-28.79c-4.41-9.59-8.71-19.23-13.07-28.85l-.09-.21-.05-.15C533,392.29,530,383.41,527,374.58s-6.18-17.61-9.49-26.33-6.87-17.35-10.73-25.83c-1.95-4.24-4-8.43-6.22-12.53A91.61,91.61,0,0,0,493.15,298c6.22,7,11,15.21,15.53,23.44,2.26,4.12,4.36,8.33,6.39,12.56s4,8.5,5.9,12.79c3.83,8.58,7.33,17.29,10.75,26s6.63,17.55,9.66,26.48l-.14-.37c4.6,9.5,9.27,19,13.83,28.49L568.77,456l6.84,14.28,6.77,14.32,13.53,28.63,1.49,3.16-3,1.88-11.34,7.17-11.37,7.12-3.41,2.13-2.07-3.42-15.12-25-7.56-12.52-7.48-12.57c-10-16.75-20-33.48-29.84-50.31-2.57-4.33-4.74-8.77-6.84-13.24s-4-9-5.78-13.61a252.17,252.17,0,0,1-9-28.08C479.75,356.89,477.22,337.21,478.08,317.7Z"/><polygon class="cls-1" points="368.35 511.42 353.92 501.38 444.59 350.13 413.1 451.52 368.35 511.42"/></svg>