<svg id="Capa_3" data-name="Capa 3" xmlns="http://www.w3.org/2000/svg" viewBox="0 0 1300 1000"><defs><style>.cls-1{fill:#fff;}.cls-2{fill:#1e1e1c;}</style></defs><title>1-subject</title><polygon class="cls-1" points="635.05 856.08 635.04 856.1 634.87 856.48 634.87 855.71 635.04 856.06 635.05 856.08"/><polygon class="cls-1" points="637.57 850.72 635.04 856.06 634.87 855.71 634.87 855.74 634.85 855.71 634.85 855.97 603.29 838.22 590.01 878.11 603.27 838.21 597.59 834.92 600.09 829.08 620.37 839.36 637.57 850.72"/><polygon class="cls-1" points="635.04 856.06 635.03 856.08 634.87 855.74 634.87 855.71 635.04 856.06"/><path class="cls-1" d="M881.69,850.68l-34.4,8.05,9.22,41.8-9.23-41.8-7.49,1.69L804.37,727.15l-68.14-104.9-3,7.65-23.83-33-23.21-40.27,3.11-12.93a44.21,44.21,0,0,0,5,13.94h0l2.07,3.19.83,1.29h0l33.72,52,.7,1.06,1.91,2.94,70.75,108.93h0l33.78,127.11,21-6.17,21.2-3.75,1.34,6.29,0,0Z"/><polygon class="cls-1" points="670.7 547.02 669.23 551.48 646.88 545.88 646.88 545.87 639.63 543.98 669.03 440.62 669.04 440.57 669.05 440.57 669.03 440.62 640.94 539.41 650.87 540.95 652.5 541.2 656.17 541.77 666.6 545.54 667.03 545.69 670.7 547.02"/><path class="cls-1" d="M789.33,525.91H689.75c-.07.3-.14.61-.2.92l1.58-9,1.32-.08c16.44-1,54.69-3.3,54.69-3.3l26.07,1.72,16,1.06Z"/><polygon class="cls-1" points="820.71 542.06 820.75 566.34 820.69 542.05 812.41 542.61 810.81 538.05 819.06 536.7 823.11 536.04 827.3 535.36 835.53 535.61 836.26 535.63 841.09 535.78 842.57 540.57 842.58 540.58 820.71 542.06"/><path class="cls-1" d="M797.06,440.09l-1.69,54.05-6.66-18.91.07.15-1.3-113.52v0l0-2.88,0-.92v0a37.46,37.46,0,0,0-1.09-6.9L794,378.63v0Z"/><polygon class="cls-1" points="754.62 391.77 751.39 397.57 732.17 431.99 699.94 468.07 701.64 458.43 701.88 457.07 701.88 457.06 705.88 451.87 747.62 397.49 752 391.77 754.62 391.77"/><polygon class="cls-1" points="635.05 856.08 635.04 856.1 634.87 856.48 634.87 855.71 635.04 856.06 635.05 856.08"/><path class="cls-2" d="M880.34,844.35l-21.2,3.75-21,6.17L804.38,727.16h0L733.63,618.22l-1.91-2.94-.7-1.06-33.72-52h0l-.83-1.29-2.07-3.19h0a44.21,44.21,0,0,1-5-13.94c0-.09,0-.19,0-.29s-.08-.46-.12-.68c-.11-.65-.19-1.31-.26-2,0-.33-.17-1.76-.19-2-.06-1-.1-2-.1-3a44.66,44.66,0,0,1,.53-6.88h0l.31-1.75.07-.34c.06-.31.13-.62.2-.92h99.59l.16,13.2,63.13,175.67h0c.1.28.2.56.28.85s.14.43.19.65a2,2,0,0,1,.09.33c.06.22.11.45.16.67l.15.73,0,.19c0,.28.09.57.12.85a.28.28,0,0,1,0,.09c0,.17,0,.34.06.52l0,.37v0Z"/><polygon class="cls-2" points="841.1 535.78 841.09 535.78 836.26 535.63 835.53 535.61 827.3 535.36 823.11 536.04 819.06 536.7 810.81 538.05 804.93 521.34 803.83 518.21 795.37 494.14 795.37 494.14 797.06 440.09 794.01 378.66 794 378.63 793.99 378.41 807.56 427.39 841.1 535.78"/><path class="cls-2" d="M733.28,629.9l-2.88,7.49-34.54,89.73,0,0,0,.09v0l-1,2.35-.06.14s0,0,0,0l-57.2,120.92-17.2-11.36-20.28-10.28L647,719.77l39.27-163.1,23.21,40.27Z"/><path class="cls-2" d="M790.28,257.38a33.76,33.76,0,0,1-.38,5.06v0l-.49,2.55-5,25.75a.64.64,0,0,1,0,.07l-.26,1.42a1.05,1.05,0,0,1,0,.19,23.38,23.38,0,0,1-16,17.15l-.06,0-.79.22h0a41.59,41.59,0,0,1-10.25,1.29,40.3,40.3,0,0,1-11.13-1.53h0a23.35,23.35,0,0,1-16.53-20s0,0,0,0l-4.8-24.48-.51-2.58v0a32.88,32.88,0,0,1-.39-5.09,33.36,33.36,0,0,1,66.71,0Z"/><polygon class="cls-2" points="669.24 551.49 667.3 571.83 645.63 601.26 645.62 601.26 645.38 601.17 643.86 600.62 643.86 600.61 633.34 596.8 636.47 560.38 646.88 545.88 669.23 551.48 669.24 551.49"/><polygon class="cls-2" points="678.78 888.69 678.78 900.53 634.85 900.53 590.01 878.11 603.29 838.22 634.85 855.97 634.87 855.98 635.03 856.08 635.05 856.08 644.65 875.33 678.78 888.69"/><polygon class="cls-2" points="933.17 883.59 890.27 893.07 856.51 900.53 847.29 858.73 881.69 850.68 881.72 850.67 894.41 866.35 930.61 872.04 930.62 872.04 933.17 883.59"/><path class="cls-2" d="M789.23,517.24h0l-16-1.06-26.07-1.72s-38.25,2.29-54.69,3.3l-1.32.08,8.81-49.77L732.17,432l19.22-34.42,3.23-5.8H752l-4.38,5.72-41.75,54.38-4,5.19h0l-2.65,3.45h0v0L670.7,547,667,545.69l-.43-.15-10.43-3.77-3.67-.57-1.63-.25-9.93-1.54L669,440.62l0-.05h0l1.25-3.67h0l.11-.31,22.37-44.52,23.74-47.22h0c.18-.4.37-.79.57-1.19s.3-.58.46-.87l.37-.68c.36-.63.73-1.25,1.12-1.86.24-.37.48-.73.73-1.08s.39-.55.59-.81.36-.5.55-.73.39-.51.59-.76.45-.53.67-.79.45-.51.67-.75.32-.35.49-.52a31.43,31.43,0,0,1,2.64-2.52c.28-.26.57-.5.87-.74s.68-.55,1-.81l.86-.62.67-.47.78-.52c.27-.18.53-.34.8-.5l.5-.3c.6-.36,1.22-.7,1.85-1l.29-.15c.47-.23,1-.47,1.45-.69s1-.45,1.57-.66l.85-.32.82-.29c.82-.29,1.67-.54,2.52-.76.35-.1.7-.19,1-.26h.05l.38-.09c.46-.1.92-.2,1.38-.27l1.11-.19c.44-.07.89-.12,1.33-.17a36.22,36.22,0,0,1,4.18-.23h1.07l1.23.06.89.06.79.08c.38,0,.75.08,1.13.14l.34,0,1,.17.45.09c.39.07.77.14,1.14.23q1,.21,2,.51c.25.06.5.13.74.21l.73.23c.66.22,1.32.45,2,.71l.72.29.87.38.65.29,1.07.52.33.17c.44.23.88.48,1.32.73.65.37,1.3.77,1.92,1.18l.63.42.74.53c.37.27.74.54,1.1.83s.9.71,1.33,1.09.59.51.89.78c.55.5,1.09,1,1.61,1.57.2.2.39.41.59.62.39.41.77.85,1.14,1.28l.74.91c.32.41.63.82.94,1.24s.43.61.65.93l.62.94c.18.29.37.58.54.88s.41.7.61,1.06.25.44.36.66c.22.41.42.82.62,1.23l.2.42c.32.67.61,1.37.89,2.06.14.38.29.77.43,1.16l.27.78c.09.27.17.53.25.8.17.53.31,1.07.46,1.6a37.46,37.46,0,0,1,1.09,6.9v0l0,.92,0,2.88v0l1.3,113.52-.07-.15Z"/><polygon class="cls-2" points="852.46 557.58 852.08 594.13 850.27 594.64 839.51 597.71 820.75 566.34 820.71 542.06 842.58 540.58 842.59 540.58 852.46 557.58"/></svg>