<svg width="1300" height="1000" viewBox="0 0 1300 1000" fill="none" xmlns="http://www.w3.org/2000/svg">
<path d="M575 472.01C574.715 470.372 561.528 423.046 544 387.012C525.5 353.513 513 339.513 471.5 340.013C465.5 340.085 459.506 344.013 457 349.513C439 389.012 390 532.509 390 532.509L375.889 546.826C364.96 557.916 365.244 575.811 376.519 586.549C376.8 586.817 377.23 586.856 377.555 586.642L419.947 558.702C420.638 558.246 421.205 557.626 421.598 556.898L431.5 538.508L428 560.508L368 717.004L358 857.001L340.45 859.258C330.472 860.54 323 869.035 323 879.094V881.001L389 900H423L424.5 892.5C427.907 892.5 430.761 889.921 431.103 886.531L445.5 744.004L484 664.506L503 744.004L576 876.001L567.628 880.752C561.368 884.305 557.5 890.948 557.5 898.146V900H620L652 882.001L641.5 867.001C644.348 865.007 645.245 861.193 643.584 858.14L581.5 744.004L550.5 576.008L584.212 624.096C584.392 624.352 584.689 624.499 585.001 624.488C597.693 624.009 606.099 611.125 601.424 599.315L592 575.508C592 575.508 583 518.009 575 472.01Z" fill="white"/>
<path d="M342.079 865.273L365.5 863.47L377 716.889L436 560.802C450.676 394.31 463.563 356.674 468.668 348.167C469.867 346.168 472.134 345.43 474.455 345.219C484.739 344.286 515.639 344.758 535.001 380.217C553.679 414.423 569 471.752 569 471.752L586 576.311L596.228 603.941C598.541 610.191 593.918 616.833 587.254 616.833C587.095 616.833 586.947 616.755 586.858 616.623L559.5 576.311L538 516.777L503.342 418.689C503.137 418.11 502.589 417.722 501.974 417.722C500.996 417.722 500.298 418.672 500.59 419.606L530.6 515.498C530.864 516.344 530.978 517.229 530.908 518.113C530.228 526.636 525.068 574.77 492.5 627.839C491 630.283 436 743.403 436 743.403L423.018 880.507C422.725 883.611 420.118 885.983 417 885.983L414.5 900L332.828 876.297L332.848 875.076C332.934 869.916 336.933 865.669 342.079 865.273Z" fill="black"/>
<path d="M494.676 340C490.75 341.471 483.419 341.995 481.5 342C481.5 342 472.854 341.928 467.818 340C462.142 337.828 458.981 335.707 455.149 331.04C451.572 326.684 449.068 318 449.068 318L444.507 291C444.507 291 443.991 287.351 444 285C444.02 279.409 444.777 276.126 447.041 271C449.366 265.735 451.399 262.917 455.655 259C460.192 254.824 463.462 253 469.338 251.032C473.899 249.504 476.683 249.039 481.5 249C486.67 249.175 488.595 249.5 493.529 251.032C498.467 252.681 503.508 255.602 507.345 259C511.181 262.398 513.866 266.42 515.959 271C518.053 275.58 518.998 280.002 519 285C518.999 286.885 518.792 289.137 518.493 291L513.035 317.833C513.035 317.833 509.885 327.159 506.838 331C503.791 334.841 499.372 338.241 494.676 340Z" fill="white"/>
<path d="M492.568 334.258C489.27 335.539 483.112 335.996 481.5 336C481.5 336 474.237 335.937 470.007 334.258C465.24 332.366 462.584 330.519 459.365 326.454C456.361 322.661 454.257 315.097 454.257 315.097L450.426 291.581C450.426 291.581 449.993 288.403 450 286.355C450.017 281.485 450.652 278.626 452.554 274.161C454.507 269.576 456.216 267.122 459.791 263.71C463.602 260.073 466.349 258.484 471.284 256.77C475.116 255.439 477.454 255.034 481.5 255C485.842 255.152 487.459 255.435 491.604 256.77C495.752 258.206 499.987 260.75 503.209 263.71C506.432 266.669 508.687 270.172 510.446 274.161C512.205 278.151 512.998 282.002 513 286.355C513 287.996 512.825 289.958 512.574 291.581L507.989 314.951C507.989 314.951 505.343 323.074 502.784 326.419C500.224 329.765 496.512 332.726 492.568 334.258Z" fill="black"/>
<path d="M570.616 886.761L585.5 879.5L512 744C512 744 486.198 649.5 489 645C538.5 565.5 534 522.5 534 522.5L573 744L635.158 857.797C636.788 860.781 635.971 864.509 633.242 866.537L642 879.5L605 900H565V895.748C565 891.925 567.18 888.437 570.616 886.761Z" fill="black"/>
<path d="M462 351C462 351 439 434.5 435 517C434.83 520.507 414.05 553.622 414.05 553.622L379.952 577.187C379.686 577.371 379.329 577.352 379.084 577.141C373.211 572.068 372.491 563.223 377.466 557.268L396.5 534.485L419 468L462 351Z" fill="black"/>
</svg>
