<svg id="Capa_1" data-name="Capa 1" xmlns="http://www.w3.org/2000/svg" viewBox="0 0 1300 1000"><defs><style>.cls-1{fill:#262626;}.cls-2{fill:#fff;}</style></defs><title>walk--third-quadrant</title><polygon class="cls-1" points="752.26 535.37 805.01 662.72 792.87 724.11 727.96 862.86 717.74 858.99 735.31 892.89 731.93 901.82 667.02 878 679.85 845.72 666.47 841.47 735.78 695.83 752.26 535.37"/><ellipse class="cls-1" cx="815.26" cy="251.62" rx="24" ry="30"/><path class="cls-1" d="M787.94,305.72,725,529h32.67L828,693.08l39.62,172.08,21.34,2-.33,34.06h68.89v-9.55l-29.62-25.5,12.12,0L900.14,684.4,839.58,529h21.21s1.41-161.62-42.41-230.24C811.43,287.88,794.24,287.75,787.94,305.72Z"/><path class="cls-1" d="M803.08,317.57C802.92,377.93,833,427.75,833,427.75L894.62,529.1l22.69-14.29L863.52,400.13S839,323,818.15,297.91"/><path class="cls-2" d="M803.08,317.57c.24,4.88.53,9.74,1.13,14.57.24,2.41.61,4.82.92,7.23s.72,4.8,1.19,7.18c.85,4.78,1.9,9.51,3,14.22s2.47,9.37,3.9,14a261.1,261.1,0,0,0,10.09,27.17q2.91,6.63,6.15,13.09c2.18,4.28,4.44,8.55,7,12.53,5.17,8.27,10.4,16.49,15.52,24.79l15.41,24.86,7.7,12.43,7.64,12.47L898,527.05l-5.48-1.29,11.33-7.18,11.36-7.13-1.48,5-13.37-28.71-6.68-14.35L887.06,459l-13.19-28.78c-2.21-4.8-4.38-9.61-6.55-14.42l-6.52-14.43-.09-.22-.05-.15c-1.34-4.43-2.77-8.89-4.22-13.31s-2.9-8.87-4.41-13.28-3-8.82-4.62-13.21L845,354.67l-2.46-6.55c-1.66-4.36-3.36-8.7-5.15-13-.88-2.16-1.82-4.3-2.74-6.44s-1.86-4.28-2.84-6.39-2-4.23-3-6.31-2.12-4.15-3.21-6.22l-1.7-3.06-1.79-3c-.61-1-1.27-2-1.91-2.94s-1.36-1.9-2-2.85c.75.89,1.53,1.77,2.27,2.68s1.45,1.85,2.15,2.79l2,2.87,2,2.94c1.26,2,2.48,4,3.66,6s2.33,4.08,3.45,6.14c2.26,4.13,4.36,8.33,6.39,12.56s4,8.51,5.9,12.8c3.83,8.58,7.33,17.29,10.75,26,1.7,4.38,3.39,8.76,5,13.17s3.17,8.83,4.68,13.31l-.14-.36,6.93,14.23c2.31,4.75,4.63,9.49,6.9,14.26l13.7,28.55,6.84,14.28,6.77,14.31,13.53,28.63,1.49,3.16-3,1.88-11.34,7.17-11.37,7.12-3.41,2.14-2.07-3.43-15.12-25-7.56-12.52L861.08,481l-15-25.13c-5-8.36-9.91-16.79-14.87-25.19-2.58-4.33-4.74-8.77-6.84-13.24s-4-9-5.78-13.61-3.42-9.23-4.93-13.91-2.92-9.39-4.11-14.16-2.28-9.56-3.17-14.39-1.7-9.67-2.21-14.55c-.32-2.42-.49-4.87-.73-7.31s-.37-4.88-.42-7.33C802.84,327.33,802.93,322.44,803.08,317.57Z"/><polygon class="cls-1" points="693.35 511.29 678.92 501.25 769.59 350 738.1 451.39 693.35 511.29"/></svg>