<svg id="Capa_3" data-name="Capa 3" xmlns="http://www.w3.org/2000/svg" viewBox="0 0 1300 1000"><defs><style>.cls-1{fill:#fff;}</style></defs><title>walk--second-quadrant</title><polygon class="cls-1" points="362.31 844.83 367.3 854.56 367.69 855.72 367.08 857.01 362.31 867.14 362.31 844.83"/><path class="cls-1" d="M364.81,855.19l.18.34v0l-.18.38v-.76m-5-20.75v43.9l9.53-20.27.14-.3.92-1.8-.66-2-.12-.36-.18-.36-.17-.34-9.46-18.47Z"/><polygon class="cls-1" points="317.59 876.8 330.21 838.82 324.36 835.44 328.79 825.12 351.58 836.67 370.71 849.3 367.31 856.47 367.31 865.78 363.09 857.35 334.65 841.35 322.33 878.37 317.59 876.8"/><path class="cls-1" d="M330,828.55l20.28,10.28,17.2,11.36L365,855.53l-.18-.34v.25l-31.56-17.75L320,877.58l13.26-39.9-5.68-3.29,2.5-5.84m-2.49-6.87-2.11,4.9-2.5,5.84-1.75,4.08,3.84,2.22,2.16,1.25-12,36,9.49,3.15L336.07,845l25.12,14.13,8.61,17.23V857l2.23-4.7,1.85-3.92L370.27,846l-17.19-11.36-.24-.16-.26-.13L332.3,824.09l-4.75-2.41Z"/><polygon class="cls-1" points="362.31 855.8 362.31 844.85 367.79 855.52 364.99 861.12 362.31 855.8"/><path class="cls-1" d="M364.81,855.19l.18.34v0l-.17-.34v0m-5-20.75v21.95l.53,1.06.17.33,4.52,9,4.44-9,1.11-2.25-1.14-2.25-.17-.34-9.46-18.47Z"/><path class="cls-1" d="M575.33,861.2l-7.39,1.66L532,727.64,466.75,627.19l-2.84,7.39L437.3,597.77l-23.77-41.24,6.12-25.47,2.11,11.71a41.9,41.9,0,0,0,4.75,13.15l36.56,56.41,2.6,4,71.16,109.55v.43l33,124.31,18.65-5.49,23.71-4.2L614,849l1.88,2.32-3.47,1.23-32.15,7.53,8.69,39.38-2.44.54H583.9Z"/><path class="cls-1" d="M419.3,543.21a44.21,44.21,0,0,0,5,13.94h0l2.07,3.19.83,1.3h0l33.72,52,.7,1.06,1.91,2.94,70.75,108.93h0l33.78,127.11,21-6.17,21.2-3.75,1.34,6.29,0,0h0l-34.4,8.05,9.22,41.8-9.23-41.8-7.49,1.69L534.32,726.62l-68.14-104.9-2.95,7.65-23.83-33-23.21-40.26,3.11-12.94m.7-24.3L414.44,542,411.33,555l-.47,1.93,1,1.73,23.21,40.27.13.22.15.21,23.83,33,5.4,7.48,2.75-7.12,62.36,96,35.22,132.51,1.23,4.65,4.7-1.06,2.59-.58L581.34,900h5.12l4.88-1.08-8.16-37,29.6-6.93.2,0,.19-.07,6.88-2.21-3.77-4.78-1.1-5.15-1-4.72-4.75.84-21.2,3.76-.28.05-.26.08-16.06,4.72L539.33,726v-.83l-.8-1.25L467.77,615l-1.91-3-.7-1.06-33.71-52-.26-.4h0l-.57-.88-2-3a39,39,0,0,1-4.43-12.3L420,518.91Z"/><polygon class="cls-1" points="374.33 547.3 374.33 547.27 366.48 545.22 396.6 439.31 397.17 437.59 398.99 437.55 402.45 437.55 401.37 440.83 374.07 536.85 386.74 538.81 403.79 544.97 400.82 553.94 374.33 547.3"/><path class="cls-1" d="M399,440l0,0-28.09,98.79,9.93,1.54,1.63.25,3.67.57L396.55,545l.43.15,3.67,1.33L399.17,551l-22.34-5.6h0l-7.24-1.89L399,440.09v0h0m0-5h-3.61l-1.14,3.42,0,.11,0,.15L364.78,542.08l-1.4,4.91,4.94,1.29,3.51.92v0l3.78,1L398,555.8l4.5,1.13,1.46-4.41,1.48-4.46,1.52-4.62-4.57-1.65-3.67-1.33-.45-.16-10.42-3.76-.45-.16-.48-.08-3.66-.57-1.63-.25-4.34-.67,26.51-93.24,2.16-6.48L399,435Z"/><path class="cls-1" d="M506.6,527.87H419.7v-1.52l-2.66-.5L419,515l1.94-.14,1.32-.08c16.47-1,54.72-3.31,54.72-3.31h.16l44.54,2.95.17,13.51Z"/><path class="cls-1" d="M477.09,513.93l26.07,1.73,16,1.06.11,8.66H419.7c-.07.3-.14.61-.2.92l1.58-9,1.32-.08c16.44-1,54.69-3.3,54.69-3.3m0-5-.32,0c-.38,0-38.44,2.3-54.7,3.3l-.59,0-.78.05-3.88.28-.68,3.84-1.58,9,5.12,1v4H524.34l-.06-5.06-.11-8.67-.06-4.62-4.61-.3-16-1.06-26.07-1.73-.31,0Z"/><polygon class="cls-1" points="548.15 544.19 540.63 544.7 537.41 535.54 557.08 532.32 572.9 532.81 574.7 538.63 578.7 542.13 572.7 542.55 553.16 543.86 553.2 565.8 548.2 565.82 548.15 544.19"/><path class="cls-1" d="M557.25,534.83l8.23.25.73,0,4.83.14,1.48,4.79h0l-21.87,1.48,0,24.28-.06-24.29-8.28.56-1.6-4.56,8.25-1.35,4-.66,4.19-.68m-.33-5-.48.07-4.18.69-4.06.66L540,532.59l-5.89,1,2,5.63,1.61,4.55,1.26,3.59,3.79-.26,2.95-.2.05,19,10,0,0-19.6L572.86,545l11-.74-7-6.93-1.12-3.6-1-3.41-3.57-.11-4.83-.14-.73,0-8.23-.25Z"/><path class="cls-1" d="M516.31,475.53l1.77-.67-1.85,0L514.9,358.46l0-.91a35.15,35.15,0,0,0-1-6.36l4.83-1.28,7.73,27.79,0,.31,3.06,61.53-2.11,67.52Z"/><path class="cls-1" d="M516.29,350.58,524,378.1v0l3,61.43-1.69,54.05-6.66-18.91.06.15-1.29-113.52h0l0-2.89,0-.92v0a37.22,37.22,0,0,0-1.09-6.89m4.82-1.34-9.66,2.57a33,33,0,0,1,.93,5.85l0,.86,0,2.82h0v.05l1.3,113.52,4.2-.05-4,1.5,6.65,18.91,8.88,25.24.83-26.75,1.69-54v-.41l-3-61.43,0-.48-.12-.47,0-.07,0-.1-7.66-27.52Z"/><polygon class="cls-1" points="429.33 456.32 429.33 455.69 429.85 455 433.84 449.81 480.72 388.74 488.83 388.74 483.52 398.26 464.17 432.92 425.89 475.76 429.33 456.32"/><path class="cls-1" d="M484.57,391.24l-3.23,5.8-19.22,34.42-32.23,36.08,1.7-9.64.24-1.36h0l4-5.19L477.57,397l4.38-5.72h2.62m8.52-5h-13.6l-1.5,2-4.39,5.71-41.74,54.38-4,5.19-1,1.35v1.27l-.16.93L425,466.67,421.9,484l11.72-13.11,32.23-36.08.37-.41.26-.49,19.22-34.41,3.24-5.8,4.15-7.44Z"/><polygon class="cls-1" points="362.31 844.83 367.3 854.56 367.69 855.72 367.08 857.01 362.31 867.14 362.31 844.83"/><path class="cls-1" d="M364.81,855.19l.18.34v0l-.18.38v-.76m-5-20.75v43.9l9.53-20.27.14-.3.92-1.8-.66-2-.12-.36-.18-.36-.17-.34-9.46-18.47Z"/><path d="M532,727.65l-73.14-112.6-33.74-52-3.3-5.1v-.1a46.65,46.65,0,0,1-5-14.15l0-.31c0-.09-.05-.28-.08-.46l0-.21c-.12-.72-.21-1.43-.29-2.14,0-.31-.17-1.8-.19-2.19-.07-.94-.11-2-.11-3.08a47.16,47.16,0,0,1,.53-7.07v0l.35-2,.08-.4c.06-.33.14-.66.21-1l.44-1.95H521.75l0,2.47.15,12.78,64.19,178.62h-.29a1.55,1.55,0,0,1,0,.21,2.2,2.2,0,0,1,.06.37c0,.24.08.48.11.73l0,.14v.26l.09.09v.7l27.09,126.58L589.66,850l-23.31,6.85Z"/><path class="cls-1" d="M419.7,525.36h99.59l.16,13.2,63.13,175.67h0c.1.28.2.56.28.85s.14.43.19.65a2,2,0,0,1,.09.33c.06.22.11.45.16.67l.15.73,0,.19c0,.28.09.57.12.85a.28.28,0,0,1,0,.09c0,.17,0,.34.06.52l0,.37a0,0,0,0,1,0,0l26.59,124.29-21.2,3.75-21,6.17L534.33,726.63h0L463.58,617.69l-1.91-2.94-.7-1.06-33.72-52h0l-.83-1.3-2.07-3.19h0a44.21,44.21,0,0,1-5-13.94c0-.09,0-.19,0-.28s-.08-.47-.12-.69c-.11-.65-.19-1.31-.26-2,0-.33-.17-1.75-.19-2-.06-1-.1-2-.1-3a44.66,44.66,0,0,1,.53-6.88h0l.31-1.75.07-.34c.06-.31.13-.62.2-.92m-4-5-.88,3.9,4.88,1.1-4.88-1.08c-.08.34-.16.68-.22,1l-.07.34v.12l-.31,1.74-.08.43V528a49.83,49.83,0,0,0-.53,7.26c0,1.14,0,2.24.11,3.28,0,.51.16,1.86.21,2.27.08.81.18,1.54.3,2.24l0,.21.09.55v.05l0,.17v.07a49.06,49.06,0,0,0,5,14.33v.2l.8,1.25,2.07,3.19.83,1.29.27.41h0l33.46,51.63.7,1.07,1.91,2.94L529.7,728.67,563.28,855l1.32,5,4.92-1.45,20.71-6.09,20.93-3.71,5.1-.9-1.08-5.07L588.75,719.25h.93l-2.4-6.69L524.44,537.68l-.15-12.36-.07-4.94H415.7Z"/><polygon points="522.82 494.04 522.82 493.62 524.5 439.58 521.47 378.5 521.47 378.48 521.44 377.96 520.75 356.99 539.92 426.19 574.44 537.75 571.04 537.75 557.41 537.33 539.09 540.33 522.82 494.04"/><path class="cls-1" d="M523.94,377.88l13.57,49,33.54,108.39h0l-4.83-.14-.73,0-8.23-.25-4.19.68-4,.66-8.25,1.35-5.88-16.71-1.1-3.13-8.46-24.06h0L527,439.56l-3-61.43v-.25m-6.48-42.13,1.48,42.3v.22l0,.52,0,.07,3,60.75-1.68,53.84v1l.28.82,8.46,24.06,1.1,3.13L536,539.18l1.39,4,4.13-.68,8.25-1.35,4.06-.66,3.71-.61,7.74.24.73,0,4.84.15h6.93l-2-6.48L542.31,425.46l-13.55-48.92-11.3-40.79Z"/><polygon points="349.06 841 326.82 829.72 374.54 718.45 415.23 549.47 441.51 595.05 466.05 629.01 462.69 637.76 428.09 727.61 427.07 730.11 427.05 730.19 368.55 853.87 349.06 841"/><path class="cls-1" d="M416.19,556.15l23.21,40.26,23.83,33-2.88,7.49-34.54,89.73,0,0,0,.09v0l-1,2.35-.06.14s0,0,0,0l-57.2,120.92-17.2-11.36L330,828.55l46.88-109.31,39.27-163.09m-1.93-13.36L411.33,555,372.16,717.66,325.44,826.58l-1.84,4.31,4.18,2.12,20,10.15,17,11.2,4.81,3.18,2.47-5.21,57.17-120.88.14-.27.07-.22v0l.87-2.14.08-.14.07-.21,0-.07L465,638.66l2.88-7.49,1-2.53-1.59-2.19-23.67-32.76-23.09-40-6.26-10.86Z"/><path d="M486.88,316.1A42.51,42.51,0,0,1,475,314.45l-1.74-.55v0a25.73,25.73,0,0,1-16.49-21.27l-.39-1.16.15-.16-5.08-25.91a36.61,36.61,0,0,1-.42-5.51,35.86,35.86,0,0,1,71.71,0,36.66,36.66,0,0,1-.38,5.25v0l-5.49,28.53,0,.18,0,.06-.23,1.2a2.36,2.36,0,0,1-.1.46A25.84,25.84,0,0,1,499,314.39l-.34.17h-.26l-.27.08-.3.15h-.32A44.53,44.53,0,0,1,486.88,316.1Z"/><path class="cls-1" d="M486.88,226.5a33.35,33.35,0,0,1,33.35,33.35,33.76,33.76,0,0,1-.38,5.06v0l-.5,2.55-5,25.75,0,.08-.26,1.41a1.05,1.05,0,0,1,0,.19A23.38,23.38,0,0,1,498,312.06l-.06,0-.79.22h0a41.59,41.59,0,0,1-10.25,1.29,40.3,40.3,0,0,1-11.13-1.53h0a23.35,23.35,0,0,1-16.53-20s0,0,0,0l-4.8-24.48-.51-2.58v0a32.88,32.88,0,0,1-.39-5.09,33.36,33.36,0,0,1,33.36-33.35m0-5a38.4,38.4,0,0,0-38.36,38.35,39.18,39.18,0,0,0,.44,5.84v.16l0,.1.51,2.58,4.28,21.87-.32.33.83,2.43a28.21,28.21,0,0,0,16.44,22.37v.18l3.48,1.12a45,45,0,0,0,12.65,1.77,47.07,47.07,0,0,0,10.87-1.29h.59L499,317l.21-.06.45-.13a28.34,28.34,0,0,0,19.27-20.59q.09-.33.15-.66l.18-.94,0-.09.06-.4,4.94-25.7.5-2.54.09-.47v-.13a39.21,39.21,0,0,0,.38-5.43,38.39,38.39,0,0,0-38.35-38.35Z"/><polygon points="375.11 603.23 374.43 602.97 371.31 601.85 371.31 601.84 360.63 597.97 363.99 558.96 375.79 542.51 400.05 548.59 401.83 549.48 401.68 551.2 399.68 572.23 376.84 603.23 375.11 603.23"/><path class="cls-1" d="M376.83,545.35l22.34,5.6h0l-1.94,20.34-21.67,29.43h0l-.24-.09-1.52-.55h0l-10.52-3.81,3.13-36.41,10.41-14.51m-2.08-5.67-2,2.76-10.41,14.5-.8,1.12-.12,1.37-3.14,36.42-.32,3.82,3.6,1.31,7.23,2.61h0l3.31,1.2,1.46.52.18.07.87.34h3.47l1.5-2,21.68-29.43.82-1.12.13-1.38,1.94-20.34.32-3.38-3-1.54-.51-.26-.57-.15L378,540.5l-3.29-.82Z"/><polygon points="411.23 886.46 411.23 900 359.21 900 316.91 878.85 331.82 834.02 366.18 853.35 366.85 853.68 367.24 854.44 376.41 872.82 411.23 886.46"/><path class="cls-1" d="M410.56,883.51l-32.34-12.67-8.74-17.52-.73-1.46-1.35-.69,0,0-.16-.1-.07,0-31.44-17.68-5.28-3-1.91,5.75L315.22,876l-1.37,4.11,3.88,1.94L353.63,900H364.8L320,877.58l13.27-39.89,31.56,17.75h0l.17.1h0l9.61,19.25,34.12,13.36V900h5V884.75Z"/><polygon points="666.1 884.96 598.04 900 583.9 900 574.27 856.33 610.96 847.75 612.49 847.23 613.61 848.57 625.7 863.5 660.76 869.01 662.57 869.01 663.01 870.97 666.1 884.96"/><path class="cls-1" d="M668,882l-2.55-11.55-.86-3.92H661L627,861.18,615.56,847l-2.16-2.66-3.09,1-34.21,8-4.81,1.12,1.07,4.82,9,40.72h5.13l-9.23-41.8,34.41-8.05h0l12.69,15.67,36.2,5.69h0l2.55,11.55-42.89,9.48L586.47,900h23.16l11.68-2.58,42.89-9.48,4.88-1.07Z"/><path d="M395.71,547.36l-10.22-3.68-17.78-2.76L396.5,439.69v-.06l1.25-3.67v-2.09h.92L444.34,343c.15-.32.31-.64.47-1l.49-.94.12-.2c.1-.19.2-.38.31-.57.35-.62.76-1.29,1.18-1.95.26-.41.53-.8.8-1.19s.41-.58.63-.87.37-.51.6-.78.37-.49.59-.76l.71-.84.72-.81.57-.61a37.14,37.14,0,0,1,2.78-2.65c.28-.25.61-.53.94-.8l1.07-.84c.31-.23.62-.46.93-.67L458,327c.25-.17.54-.37.85-.56s.52-.34.83-.52l.47-.28c.65-.39,1.3-.75,2-1.12l.3-.16c.5-.25,1-.5,1.54-.73s1.12-.49,1.69-.72l.95-.36.16-.05c.23-.09.45-.17.68-.24.84-.29,1.75-.57,2.68-.81l.82-.21.26-.13h.34l.12,0,1.54-.3c.35-.07.76-.13,1.17-.19s.89-.13,1.35-.18a40.49,40.49,0,0,1,4.51-.25h1.12c.46,0,.91,0,1.37.07l.88.06c.33,0,.61.05.9.09s.73.08,1.12.13l.48.07,1.06.17.53.1,1.17.24c.72.16,1.46.34,2.16.55.25.06.52.14.79.23l.75.23c.71.23,1.42.49,2.11.76l.77.31c.34.14.65.28.95.42l.65.28,1.07.53.44.22c.48.25,1,.51,1.42.79.67.37,1.37.8,2.06,1.26l.68.46.75.53q.62.44,1.2.9c.48.38,1,.77,1.43,1.18l.93.82c.58.53,1.17,1.1,1.73,1.68.18.18.39.41.61.65.42.45.83.91,1.22,1.37l.78,1c.35.44.68.88,1,1.33s.46.66.69,1,.44.66.66,1,.4.63.58.93.44.76.66,1.15.27.48.39.73c.22.41.44.85.66,1.29.07.14.14.31.22.48.28.59.59,1.29.93,2.15.17.44.32.84.46,1.25s.21.6.29.85.19.57.28.88c.15.48.31,1,.46,1.58a40.44,40.44,0,0,1,1.19,7.46l0,1.07,1.48,129.82,0-.12.38,31.12H519.1l-42-2.78c-2.67.16-38.7,2.32-54.53,3.29l-1.28.09-3.21.24,7-39.6-22.84,69.27ZM431,462.59,460.07,430l12.59-22.54-34.85,45.4-3.51,4.56-.49.64-2.13,2.78V461l-.31.32Z"/><path class="cls-1" d="M480.27,322.68h1.07l1.23.06.89.06.79.08,1.13.14a2.15,2.15,0,0,1,.34.05l1,.16.45.09,1.14.23c.68.15,1.35.31,2,.51.25.07.5.13.74.21l.73.23c.66.22,1.32.46,2,.71l.72.29.87.38.65.29,1.07.52.33.17c.44.23.88.48,1.32.73.65.37,1.3.77,1.92,1.18.22.14.42.28.63.43s.49.34.74.52.74.54,1.1.83.9.71,1.33,1.09.59.51.89.78c.55.5,1.09,1,1.61,1.57.2.2.39.41.59.62.39.42.77.85,1.14,1.28l.74.91c.32.41.63.82.94,1.24s.43.61.65.93l.62.94c.18.29.37.59.54.88s.41.7.61,1.06.25.44.36.67c.22.4.42.81.62,1.22l.2.42c.32.68.61,1.37.89,2.06.14.38.29.77.43,1.16l.27.78c.09.27.17.53.25.8.17.53.31,1.07.46,1.61a37.22,37.22,0,0,1,1.09,6.89v0l0,.92,0,2.89h0l1.29,113.52-.06-.15.52,42h0l-16-1.06-26.07-1.73s-38.25,2.29-54.69,3.3l-1.32.08,8.81-49.77,32.23-36.08L481.34,397l3.23-5.8H482L477.57,397l-41.75,54.38-4,5.19h0L429.18,460h0v0l-28.51,86.45L397,545.16l-.43-.15-10.43-3.77-3.67-.57-1.63-.25-9.93-1.54L399,440.09l0,0h0l1.25-3.67h0l.11-.31,22.37-44.52,23.74-47.22h0c.18-.4.37-.79.57-1.19s.3-.58.46-.87l.37-.68c.36-.63.73-1.25,1.12-1.86.24-.36.48-.73.73-1.08s.39-.55.59-.81.36-.5.55-.73.39-.51.59-.76l.67-.79c.22-.26.45-.5.67-.75s.32-.35.49-.52a32.91,32.91,0,0,1,2.63-2.52c.29-.26.58-.5.88-.74s.68-.54,1-.81l.86-.62.67-.47.78-.52c.27-.18.53-.34.8-.5l.49-.3q.92-.54,1.86-1l.29-.15,1.45-.69c.51-.23,1-.45,1.57-.66l.85-.32.82-.29c.82-.29,1.67-.54,2.52-.76.35-.09.7-.19,1-.26h.05l.38-.09c.46-.1.92-.2,1.38-.27l1.11-.19c.44-.07.89-.12,1.33-.17a36.22,36.22,0,0,1,4.18-.23m0-5a41.15,41.15,0,0,0-4.73.26c-.54.06-1,.12-1.52.2l-1.24.2c-.47.08-.95.18-1.47.29h-.63l-.55.27-.62.16c-1,.26-1.93.55-2.85.86l-.74.27-.13,0c-.36.13-.72.26-1.06.41-.55.21-1.12.45-1.74.73s-1.11.51-1.65.78l-.21.11-.07,0c-.83.42-1.53.8-2.18,1.2l-.55.32-.91.58-.88.58-.76.53-1,.71c-.45.34-.82.63-1.16.92s-.68.55-1,.84c-1,.88-2,1.83-2.94,2.81l-.57.61c-.28.31-.54.6-.79.9l-.72.84c-.25.31-.47.59-.68.87s-.41.53-.63.83-.44.6-.65.91-.61.88-.85,1.25c-.44.69-.87,1.39-1.26,2.09l-.12.22h0l-.26.53,0,0,0,0-.29.54-.17.34,0,.06,0,.06c-.17.33-.33.67-.49,1l-.07.14-23.73,47.22-21.15,42.08h-1.87v4.18l-1,2.88-.27.79v.13l-27.92,98.18L364.53,543l5.6.87,9.93,1.53,1.62.25,3.19.5,10,3.6.45.16,3.65,1.32,4.84,1.75,1.61-4.88,11.15-33.8-.39,2.18L415,522.77l6.41-.47.66,0,.63,0c15.43-1,50.63-3.06,54.33-3.28l25.76,1.7,16,1.06.17,0h5.22l-.05-5.07L524,501.48l0,.1-.31-26.79L522.43,361.3v0l0-2.88,0-.91v-.3a42.11,42.11,0,0,0-1.24-7.83v-.07c-.16-.57-.31-1.14-.5-1.75-.1-.31-.19-.62-.3-.93l-.28-.82c-.17-.47-.32-.88-.48-1.29v0l0-.07c-.36-.88-.67-1.62-1-2.29-.08-.18-.16-.35-.25-.52-.22-.46-.45-.92-.69-1.37l-.4-.75c-.23-.42-.46-.82-.7-1.22l-.59-.94v0l0,0-.69-1c-.25-.37-.49-.71-.73-1-.36-.5-.72-1-1.09-1.44l-.79-1,0,0,0,0c-.39-.47-.82-.94-1.29-1.46l-.68-.72c-.59-.61-1.2-1.2-1.83-1.76-.32-.31-.65-.6-1-.88s-.95-.8-1.52-1.25c-.4-.31-.84-.64-1.28-.95l-.78-.56-.75-.5c-.73-.48-1.46-.93-2.18-1.34s-1.05-.59-1.5-.83l0,0h0l-.36-.19h0l-1.14-.55c-.26-.12-.51-.24-.77-.34l-.92-.4-.88-.36c-.73-.29-1.48-.55-2.21-.79l-.78-.25-.88-.26c-.72-.2-1.51-.4-2.31-.58l-1.24-.25-.59-.11-1-.16c-.2,0-.41-.07-.61-.09l-1.15-.14-.92-.09h-.06l-.93-.07c-.54,0-1-.06-1.46-.07Z"/><polygon points="548.2 566.5 548.15 539.19 572.44 537.55 573.97 537.55 574.7 538.8 584.91 556.39 584.51 595.49 568.3 600.11 548.2 566.5"/><path class="cls-1" d="M572.54,540.05l9.87,17L582,593.6l-1.81.52-10.76,3.06L550.7,565.81l0-24.28,21.87-1.48h0m2.87-5h-3.22l-21.87,1.48-4.67.31v4.68l0,24.29v1.37l.71,1.19,18.76,31.37,2,3.29,3.69-1,10.76-3.07,1.81-.51,3.59-1,0-3.74.38-36.55v-1.37l-.69-1.19-9.87-17-1.45-2.49Z"/></svg>