<svg id="Capa_3" data-name="Capa 3" xmlns="http://www.w3.org/2000/svg" viewBox="0 0 1300 1000"><defs><style>.cls-1{fill:#fff;}.cls-2{fill:#1e1e1c;}</style></defs><title>1-subject</title><polygon class="cls-1" points="1001.5 856.76 1001.49 856.78 1001.32 857.15 1001.32 856.39 1001.49 856.74 1001.5 856.76"/><polygon class="cls-1" points="1004.02 851.4 1001.49 856.74 1001.32 856.39 1001.32 856.42 1001.3 856.39 1001.3 856.65 969.74 838.9 956.46 878.79 969.72 838.89 964.04 835.6 966.54 829.76 986.82 840.04 1004.02 851.4"/><polygon class="cls-1" points="1001.49 856.74 1001.48 856.75 1001.32 856.42 1001.32 856.39 1001.49 856.74"/><path class="cls-1" d="M1248.14,851.36l-34.4,8,9.22,41.8-9.23-41.8-7.49,1.69-35.42-133.27-68.14-104.9-3,7.65-23.83-33-23.21-40.27,3.11-12.93a44.21,44.21,0,0,0,5,13.94h0l2.07,3.19.83,1.29h0l33.72,52,.7,1.06,1.91,2.94,70.75,108.93h0L1204.61,855l21-6.17,21.2-3.75,1.34,6.29,0,0Z"/><polygon class="cls-1" points="1037.15 547.7 1035.67 552.16 1013.33 546.56 1013.33 546.55 1006.09 544.66 1035.47 441.3 1035.49 441.25 1035.5 441.25 1035.48 441.3 1007.39 540.09 1017.32 541.63 1018.95 541.88 1022.62 542.45 1033.05 546.22 1033.48 546.37 1037.15 547.7"/><path class="cls-1" d="M1155.78,526.59H1056.2c-.07.3-.14.61-.2.92l1.58-9,1.32-.08c16.44-1,54.69-3.3,54.69-3.3l26.07,1.72,16,1.06Z"/><polygon class="cls-1" points="1187.16 542.74 1187.2 567.02 1187.14 542.73 1178.86 543.29 1177.26 538.73 1185.51 537.38 1189.56 536.72 1193.75 536.04 1201.97 536.29 1202.7 536.31 1207.54 536.46 1209.02 541.25 1209.03 541.26 1187.16 542.74"/><path class="cls-1" d="M1163.51,440.77l-1.69,54.05-6.66-18.91.06.15-1.29-113.52v0l0-2.88,0-.92v0a37.22,37.22,0,0,0-1.09-6.89l7.66,27.52v0Z"/><polygon class="cls-1" points="1121.07 392.45 1117.84 398.25 1098.62 432.67 1066.39 468.75 1068.09 459.11 1068.33 457.75 1068.33 457.74 1072.32 452.55 1114.07 398.17 1118.45 392.45 1121.07 392.45"/><polygon class="cls-1" points="1001.5 856.76 1001.49 856.78 1001.32 857.15 1001.32 856.39 1001.49 856.74 1001.5 856.76"/><path class="cls-2" d="M1246.79,845l-21.2,3.75-21,6.17-33.78-127.11h0L1100.08,618.9l-1.91-2.94-.7-1.06-33.72-52h0l-.83-1.29-2.07-3.19h0a44.21,44.21,0,0,1-5-13.94c0-.09,0-.19,0-.29s-.07-.46-.11-.68c-.11-.65-.19-1.31-.26-2,0-.33-.17-1.75-.19-2.05-.07-1-.1-2-.1-3a44.66,44.66,0,0,1,.53-6.88h0l.31-1.75.07-.34c.06-.31.13-.62.2-.92h99.59l.16,13.2,63.12,175.67h0c.1.28.2.56.28.85s.14.43.19.65.06.22.09.33.11.45.16.67l.15.73,0,.19c0,.28.09.57.12.85a.28.28,0,0,1,0,.09c0,.17,0,.34.06.52l0,.37a0,0,0,0,1,0,0Z"/><polygon class="cls-2" points="1207.55 536.46 1207.54 536.46 1202.7 536.31 1201.97 536.29 1193.75 536.04 1189.56 536.72 1185.51 537.38 1177.26 538.73 1171.38 522.02 1170.28 518.89 1161.82 494.83 1161.82 494.82 1163.51 440.77 1160.46 379.34 1160.45 379.31 1160.44 379.09 1174.01 428.07 1207.55 536.46"/><path class="cls-2" d="M1099.73,630.58l-2.88,7.49-34.54,89.73,0,0,0,.09v0l-1,2.35-.06.14s0,0,0,0L1004,851.4,986.82,840l-20.28-10.28,46.88-109.31,39.27-163.1,23.21,40.27Z"/><path class="cls-2" d="M1156.73,258.06a33.76,33.76,0,0,1-.38,5.06v0l-.5,2.55-4.95,25.75a.64.64,0,0,1,0,.07l-.26,1.42a1.05,1.05,0,0,1,0,.19,23.37,23.37,0,0,1-16.06,17.15l0,0-.79.22h0a41.59,41.59,0,0,1-10.25,1.29,40.3,40.3,0,0,1-11.13-1.53h0a23.36,23.36,0,0,1-16.54-20v0l-4.79-24.48-.51-2.58v0a32.88,32.88,0,0,1-.39-5.09,33.36,33.36,0,0,1,66.71,0Z"/><polygon class="cls-2" points="1035.69 552.17 1033.75 572.51 1012.08 601.94 1012.07 601.94 1011.83 601.85 1010.31 601.3 1010.31 601.29 999.79 597.48 1002.92 561.07 1013.33 546.56 1035.67 552.16 1035.69 552.17"/><polygon class="cls-2" points="1045.23 889.37 1045.23 901.21 1001.3 901.21 956.46 878.79 969.74 838.9 1001.3 856.65 1001.32 856.66 1001.48 856.75 1001.5 856.76 1011.1 876.01 1045.23 889.37"/><polygon class="cls-2" points="1299.62 884.27 1256.72 893.75 1222.96 901.21 1213.74 859.41 1248.14 851.36 1248.16 851.36 1260.86 867.03 1297.06 872.72 1297.07 872.72 1299.62 884.27"/><path class="cls-2" d="M1155.68,517.92h0l-16-1.06-26.07-1.72s-38.25,2.29-54.69,3.3l-1.32.08,8.81-49.77,32.23-36.08,19.22-34.42,3.23-5.8h-2.62l-4.38,5.72-41.75,54.38-4,5.19h0l-2.65,3.45h0v0l-28.51,86.45-3.67-1.33-.43-.15-10.43-3.77-3.67-.57-1.63-.25-9.93-1.54,28.09-98.79,0-.05h0l1.25-3.67h0l.11-.31,22.37-44.52L1083,345.52h0c.18-.4.37-.79.56-1.19l.47-.87.37-.68c.36-.63.73-1.25,1.12-1.86.24-.37.48-.73.73-1.08s.39-.55.59-.81.36-.5.55-.73.39-.51.59-.76.45-.53.67-.79.45-.5.67-.75.32-.35.49-.52a32.91,32.91,0,0,1,2.63-2.52c.29-.26.58-.5.88-.74s.68-.55,1-.81l.85-.62.68-.47.78-.52c.27-.18.53-.34.8-.5l.49-.3q.91-.54,1.86-1l.29-.15,1.45-.69c.51-.23,1-.45,1.57-.66l.85-.32.82-.29c.82-.29,1.67-.54,2.52-.76.35-.1.7-.19,1-.26h.05l.38-.09c.46-.1.92-.2,1.38-.27l1.11-.19c.44-.07.89-.12,1.33-.17a36.22,36.22,0,0,1,4.18-.23h1.07l1.23.06.89.06.79.08,1.13.14.34,0,1,.17.45.09c.39.07.76.14,1.14.23q1,.21,2,.51c.25.06.5.13.74.21l.73.23c.66.22,1.32.45,2,.71l.72.29.87.38.65.29,1.07.52.33.17c.44.23.88.48,1.32.73.65.37,1.3.77,1.92,1.18l.63.42.74.53c.37.27.74.54,1.1.83s.9.71,1.33,1.09.59.51.89.78c.55.5,1.09,1,1.61,1.57.2.2.39.41.59.62.38.42.77.85,1.14,1.28l.74.91c.32.41.63.82.94,1.24s.43.61.65.93l.62.94c.18.29.37.58.54.88s.41.7.61,1.06.25.44.36.66c.22.41.42.82.62,1.23l.2.42c.32.67.61,1.37.89,2.06.14.38.29.77.43,1.16l.27.78c.09.27.17.53.25.8.17.53.31,1.07.46,1.61a37.22,37.22,0,0,1,1.09,6.89v0l0,.92,0,2.88v0l1.29,113.52-.06-.15Z"/><polygon class="cls-2" points="1218.91 558.26 1218.53 594.81 1216.72 595.33 1205.96 598.39 1187.2 567.02 1187.16 542.74 1209.03 541.26 1209.04 541.26 1218.91 558.26"/></svg>