<svg width="1300" height="1000" viewBox="0 0 1300 1000" fill="none" xmlns="http://www.w3.org/2000/svg">
<path d="M399 470C399.159 468.345 411.472 423.046 429 387.012C447.5 353.513 462 339.513 503.5 340.013C509.5 340.085 515.494 344.013 518 349.513C536 389.012 585 532.509 585 532.509L599.111 546.826C610.04 557.916 609.756 575.811 598.481 586.549L-nan -nanL598.481 586.549C598.2 586.817 597.77 586.856 597.445 586.642L555.053 558.702C554.362 558.246 553.795 557.626 553.402 556.898L543.5 538.508L547 560.508L607 717.004L617 857.001L634.55 859.258C644.528 860.54 652 869.035 652 879.094V881.001L586 900H552L550.5 892.5C547.093 892.5 544.239 889.921 543.897 886.531L529.5 744.004L491 664.506L472 744.004L399 876.001L407.372 880.752C413.632 884.305 417.5 890.948 417.5 898.146V900H355L323 882.001L333.5 867.001C330.652 865.008 329.755 861.193 331.416 858.14L393.5 744.004L429 560.508L422.635 613.869C422.558 614.514 422.011 615 421.361 615L-nan -nanL421.361 615C408.547 615 397.698 605.542 395.951 592.847L391.5 560.508C391.5 560.508 395 511.5 399 470Z" fill="white"/>
<path d="M632.921 865.273L609.5 863.47L598 716.889L539 560.802C524.324 394.31 511.437 356.674 506.332 348.167C505.133 346.168 502.866 345.43 500.545 345.219C490.261 344.286 459.361 344.758 439.999 380.217C421.321 414.423 406 471.752 406 471.752L399 560.802L402.329 591.891C403.279 600.768 410.77 607.5 419.698 607.5C420.152 607.5 420.53 607.153 420.568 606.701L424.5 560.802L437 516.777L471.658 418.689C471.863 418.11 472.411 417.722 473.026 417.722C474.004 417.722 474.702 418.672 474.41 419.606L444.4 515.498C444.136 516.344 444.022 517.229 444.092 518.113C444.772 526.636 449.932 574.77 482.5 627.839C484 630.283 539 743.403 539 743.403L551.982 880.507C551.999 880.692 552.025 880.874 552.058 881.053C552.948 885.816 558.62 889.457 559.47 894.227L560.5 900L642.172 876.297L642.152 875.076C642.066 869.916 638.067 865.669 632.921 865.273Z" fill="black"/>
<path d="M480.324 340C484.25 341.471 491.581 341.995 493.5 342C493.5 342 502.146 341.928 507.182 340C512.858 337.828 516.019 335.707 519.851 331.04C522.47 327.852 524.513 322.343 525.421 319.62C525.779 318.544 526.027 317.439 526.216 316.32L530.493 291C530.493 291 531.009 287.351 531 285C530.98 279.409 530.223 276.126 527.959 271C525.634 265.735 523.601 262.917 519.345 259C514.808 254.824 511.538 253 505.662 251.032C501.101 249.504 498.317 249.039 493.5 249C488.33 249.175 486.405 249.5 481.471 251.032C476.533 252.681 471.492 255.602 467.655 259C463.819 262.398 461.134 266.42 459.041 271C456.947 275.58 456.002 280.002 456 285C456.001 286.885 456.208 289.137 456.507 291L461.591 315.993C461.84 317.218 462.162 318.425 462.596 319.598C463.668 322.492 465.942 328.201 468.162 331C471.209 334.841 475.628 338.241 480.324 340Z" fill="white"/>
<path d="M482.432 334.258C485.73 335.539 491.888 335.996 493.5 336C493.5 336 500.763 335.937 504.993 334.258C509.76 332.366 512.416 330.519 515.635 326.454C517.785 323.74 519.474 319.094 520.26 316.672C520.599 315.627 520.832 314.554 521.008 313.47L524.574 291.581C524.574 291.581 525.007 288.403 525 286.355C524.983 281.485 524.348 278.626 522.446 274.161C520.493 269.576 518.784 267.122 515.209 263.71C511.398 260.073 508.651 258.484 503.716 256.77C499.884 255.439 497.546 255.034 493.5 255C489.158 255.152 487.541 255.435 483.396 256.77C479.248 258.206 475.013 260.75 471.791 263.71C468.568 266.669 466.313 270.172 464.554 274.161C462.795 278.151 462.002 282.002 462 286.355C462 287.996 462.175 289.958 462.426 291.581L466.66 313.165C466.894 314.355 467.195 315.528 467.606 316.669C468.53 319.239 470.395 324.039 472.216 326.419C474.776 329.765 478.488 332.726 482.432 334.258Z" fill="black"/>
<path d="M404.384 886.761L389.5 879.5L463 744C463 744 488.802 649.5 486 645C436.5 565.5 441 522.5 441 522.5L402 744L339.842 857.797C339.81 857.856 339.778 857.916 339.748 857.975C337.323 862.741 339.4 870.027 336.407 874.458L333 879.5L370 900H410V895.748C410 891.925 407.82 888.437 404.384 886.761Z" fill="black"/>
<path d="M513 351C513 351 536 434.5 540 517C540.17 520.507 560.95 553.622 560.95 553.622L595.048 577.187C595.314 577.371 595.671 577.352 595.916 577.141C601.789 572.068 602.509 563.223 597.534 557.268L578.5 534.485L556 468L513 351Z" fill="black"/>
<path d="M353.52 729.527L364.07 618.527C364.314 615.96 366.469 614 369.047 614H450.99C453.552 614 455.7 615.937 455.963 618.486L467.43 729.486C467.735 732.435 465.422 735 462.457 735H358.498C355.549 735 353.241 732.462 353.52 729.527Z" fill="white"/>
<path d="M388 614C388 604.706 388 579 409.5 579C433 579 433 604.706 433 614M364.07 618.527L353.52 729.527C353.241 732.462 355.549 735 358.498 735H462.457C465.422 735 467.735 732.435 467.43 729.486L455.963 618.486C455.7 615.937 453.552 614 450.99 614H369.047C366.469 614 364.314 615.96 364.07 618.527Z" stroke="black" stroke-width="7"/>
</svg>
