<svg id="Capa_3" data-name="Capa 3" xmlns="http://www.w3.org/2000/svg" viewBox="0 0 1300 1000"><defs><style>.cls-1{fill:#fff;}.cls-2{fill:#1e1e1c;}</style></defs><title>walk--third-quadrant</title><polygon class="cls-1" points="635.64 856.76 635.63 856.78 635.46 857.15 635.46 856.39 635.63 856.74 635.64 856.76"/><polygon class="cls-1" points="638.16 851.4 635.63 856.74 635.46 856.39 635.46 856.42 635.44 856.39 635.44 856.65 603.88 838.9 590.6 878.79 603.86 838.89 598.18 835.6 600.68 829.76 620.96 840.04 638.16 851.4"/><polygon class="cls-1" points="635.63 856.74 635.63 856.75 635.46 856.42 635.46 856.39 635.63 856.74"/><path class="cls-1" d="M882.29,851.36l-34.41,8,9.22,41.8-9.23-41.8-7.49,1.69L805,727.83l-68.14-104.9-2.94,7.65-23.83-33-23.22-40.27,3.11-12.93a44.21,44.21,0,0,0,5,13.94h0l2.07,3.19.84,1.29h0l33.73,52,.69,1.06,1.91,2.94L805,727.83h0L838.75,855l21-6.17,21.2-3.75,1.35,6.29,0,0Z"/><polygon class="cls-1" points="671.29 547.7 669.82 552.16 647.47 546.56 647.47 546.55 640.23 544.66 669.62 441.3 669.63 441.25 669.64 441.25 669.63 441.3 641.53 540.09 651.47 541.63 653.1 541.88 656.76 542.45 667.19 546.22 667.62 546.37 671.29 547.7"/><path class="cls-1" d="M789.92,526.59H690.34c-.07.3-.14.61-.2.92l1.59-9,1.31-.08c16.45-1,54.69-3.3,54.69-3.3l26.07,1.72,16,1.06Z"/><polygon class="cls-1" points="821.3 542.74 821.34 567.02 821.28 542.73 813 543.29 811.4 538.73 819.65 537.38 823.71 536.72 827.89 536.04 836.12 536.29 836.85 536.31 841.68 536.46 843.16 541.25 843.17 541.26 821.3 542.74"/><path class="cls-1" d="M797.65,440.77,796,494.82l-6.65-18.91.06.15-1.3-113.52v0l0-2.88,0-.92v0a36.4,36.4,0,0,0-1.09-6.89l7.66,27.52v0Z"/><polygon class="cls-1" points="755.22 392.45 751.98 398.25 732.76 432.67 700.53 468.75 702.23 459.11 702.47 457.75 702.47 457.74 706.47 452.55 748.21 398.17 752.6 392.45 755.22 392.45"/><polygon class="cls-1" points="635.64 856.76 635.63 856.78 635.46 857.15 635.46 856.39 635.63 856.74 635.64 856.76"/><path class="cls-2" d="M880.93,845l-21.2,3.75-21,6.17L805,727.84h0L734.22,618.9,732.31,616l-.69-1.06-33.73-52h0l-.84-1.29L695,558.37h0a44.21,44.21,0,0,1-5-13.94c0-.09,0-.19,0-.29s-.08-.46-.12-.68c-.11-.65-.19-1.31-.26-2,0-.33-.17-1.75-.18-2.05-.07-1-.1-2-.1-3a43.45,43.45,0,0,1,.53-6.88h0l.3-1.75.07-.34c.06-.31.13-.62.2-.92h99.59l.16,13.2,63.13,175.67h0c.1.28.2.56.28.85s.14.43.2.65.06.22.08.33.12.45.16.67.1.48.15.73l0,.19c0,.28.09.57.12.85a.29.29,0,0,1,0,.09c0,.17,0,.34,0,.52s0,.25,0,.37v0Z"/><polygon class="cls-2" points="841.69 536.46 841.68 536.46 836.85 536.31 836.12 536.29 827.89 536.04 823.71 536.72 819.65 537.38 811.4 538.73 805.52 522.02 804.42 518.89 795.96 494.83 795.96 494.82 797.65 440.77 794.6 379.34 794.59 379.31 794.58 379.09 808.15 428.07 841.69 536.46"/><path class="cls-2" d="M733.88,630.58,731,638.07,696.45,727.8l0,0,0,.09v0l-1,2.35-.06.14a.08.08,0,0,1,0,0L638.16,851.4,621,840l-20.28-10.28,46.88-109.31,39.27-163.1,23.22,40.27Z"/><path class="cls-2" d="M790.87,258.06a33.76,33.76,0,0,1-.38,5.06v0l-.49,2.55-5,25.75a.15.15,0,0,1,0,.07l-.27,1.42a.59.59,0,0,1,0,.19,23.36,23.36,0,0,1-16.05,17.15.11.11,0,0,1-.06,0l-.79.22h0a41.51,41.51,0,0,1-10.25,1.29,40.18,40.18,0,0,1-11.12-1.53h0a23.34,23.34,0,0,1-16.54-20s0,0,0,0l-4.8-24.48-.5-2.58v0a34.17,34.17,0,0,1-.38-5.09,33.35,33.35,0,1,1,66.7,0Z"/><polygon class="cls-2" points="669.83 552.17 667.9 572.51 646.22 601.94 646.21 601.94 645.97 601.85 644.45 601.3 644.45 601.29 633.93 597.48 637.06 561.07 647.47 546.56 669.82 552.16 669.83 552.17"/><polygon class="cls-2" points="679.37 889.37 679.37 901.21 635.44 901.21 590.6 878.79 603.88 838.9 635.44 856.65 635.46 856.66 635.63 856.75 635.64 856.76 645.24 876.01 679.37 889.37"/><polygon class="cls-2" points="933.76 884.27 890.87 893.75 857.1 901.21 847.88 859.41 882.28 851.36 882.31 851.36 895 867.03 931.2 872.72 931.21 872.72 933.76 884.27"/><path class="cls-2" d="M789.82,517.92h0l-16-1.06-26.07-1.72s-38.24,2.29-54.69,3.3l-1.31.08,8.8-49.77,32.23-36.08L752,398.25l3.23-5.8H752.6l-4.39,5.72-41.74,54.38-4,5.19h0l-2.65,3.45h0v0L671.29,547.7l-3.67-1.33-.43-.15-10.43-3.77-3.67-.57-1.62-.25-9.94-1.54,28.1-98.79v-.05h0l1.25-3.67h0l.11-.31,22.38-44.52,23.73-47.22h0c.18-.4.38-.79.57-1.19s.3-.58.46-.87l.37-.68c.36-.63.73-1.25,1.13-1.86.23-.37.47-.73.73-1.08s.38-.55.58-.81.36-.5.55-.73.39-.51.59-.76l.67-.79.67-.75c.16-.18.32-.35.49-.52a33,33,0,0,1,2.64-2.52c.28-.26.57-.5.87-.74s.68-.55,1-.81l.86-.62.67-.47.79-.52c.26-.18.52-.34.79-.5l.5-.3c.6-.36,1.23-.7,1.86-1l.28-.15,1.45-.69c.52-.23,1-.45,1.57-.66l.85-.32.82-.29c.83-.29,1.67-.54,2.52-.76.35-.1.7-.19,1.06-.26h0l.39-.09c.45-.1.91-.2,1.37-.27l1.12-.19c.43-.07.88-.12,1.32-.17a36.22,36.22,0,0,1,4.18-.23H752c.42,0,.82,0,1.23.06l.89.06.79.08,1.13.14.34,0,1,.17.46.09c.38.07.76.14,1.13.23.68.14,1.36.31,2,.51.24.06.49.13.73.21l.73.23c.66.22,1.33.45,2,.71.25.09.48.19.72.29l.87.38.65.29,1.07.52c.12,0,.22.12.33.17.45.23.88.48,1.32.73.66.37,1.3.77,1.92,1.18l.63.42.74.53c.38.27.75.54,1.11.83s.9.71,1.33,1.09.59.51.88.78c.55.5,1.09,1,1.61,1.57.2.2.39.41.59.62.39.42.77.85,1.14,1.28l.74.91c.32.41.64.82.94,1.24s.43.61.65.93.41.62.62.94.37.58.55.88.4.7.6,1.06.25.44.36.66q.33.61.63,1.23l.19.42c.32.67.61,1.37.89,2.06.14.38.29.77.43,1.16l.27.78c.09.27.17.53.25.8.17.53.32,1.07.46,1.61a36.4,36.4,0,0,1,1.09,6.89v0l0,.92,0,2.88v0l1.3,113.52-.06-.15Z"/><polygon class="cls-2" points="853.05 558.26 852.67 594.81 850.87 595.33 840.11 598.39 821.34 567.02 821.3 542.74 843.17 541.26 843.18 541.26 853.05 558.26"/></svg>