<svg width="1300" height="1000" viewBox="0 0 1300 1000" fill="none" xmlns="http://www.w3.org/2000/svg">
<path fill-rule="evenodd" clip-rule="evenodd" d="M512.11 862.793L498.479 740.113L491.521 740.886L505.89 870.206L634.224 861.992C636.153 861.869 637.616 860.205 637.493 858.276C637.369 856.347 635.706 854.883 633.776 855.007L512.11 862.793Z" fill="black"/>
<path d="M364 728.5L347.567 529.898C346.977 522.762 340.735 517.443 333.596 517.992C326.382 518.547 321.005 524.877 321.624 532.086L338.5 728.5H364Z" fill="white"/>
<path fill-rule="evenodd" clip-rule="evenodd" d="M333.327 514.503C342.386 513.806 350.306 520.555 351.055 529.609L367.802 732H335.288L318.137 532.385C317.351 523.239 324.174 515.207 333.327 514.503ZM344.079 530.187C343.647 524.97 339.084 521.08 333.864 521.482C328.59 521.888 324.659 526.516 325.111 531.786L341.712 725H360.198L344.079 530.187Z" fill="black"/>
<path d="M619.436 842.154L599.5 830.193L580.521 692.429C578.671 679.001 569.359 667.786 556.5 663.5L521 659.193C521 647.165 512.765 636.702 501.074 633.876L475.5 627.693C471 580.001 450.5 491 425.5 476.001C416.692 470.716 407.5 470.001 392.5 473.5C375 477.583 363.5 489 358.5 525.693C355.518 547.577 355 639.193 355 639.193L364.5 640.693V663.257C364.5 681.618 377 697.621 394.815 702.067L495.5 727.193L509.864 839.233C510.228 842.069 512.641 844.193 515.5 844.193V863.193L626.5 855.5C626.807 850.084 624.087 844.945 619.436 842.154Z" fill="white"/>
<path d="M615.312 845.041L593 833.5L573.051 692.97C571.483 681.923 563.912 672.658 553.399 668.92L548 667L553.289 672.086C558.276 676.881 561.452 683.253 562.28 690.121L579.5 833L598.845 841.186C604.394 843.535 608 848.975 608 855.001V857L620.5 856L620.523 855.884C621.398 851.512 619.272 847.089 615.312 845.041Z" fill="black"/>
<path d="M595.965 845.312L573 835.203L556.16 691.67C554.588 678.276 544.271 667.576 530.942 665.518L485.5 658.501L370.5 639.193V664.626C370.5 678.458 379.958 690.498 393.398 693.773L501.828 720.193L514.4 834.735C514.941 839.659 520.5 844.218 520.5 849.171V863.212L602 858.212L601.935 854.297C601.87 850.393 599.539 846.885 595.965 845.312Z" fill="black"/>
<path d="M366.499 509.693C359.581 542.007 360.5 633.193 360.5 633.193L513.537 657.878C514.457 658.026 515.222 657.174 514.977 656.275C512.523 647.278 505.376 640.324 496.315 638.116L472 632.193L402 605.193L407.378 543.689C407.447 542.894 408.112 542.285 408.91 542.285C409.779 542.285 410.475 543.005 410.447 543.874L408.5 602.694L469.999 626.5C456.822 523.068 433.435 489.808 424.554 480.609C422.363 478.339 419.443 477.119 416.311 476.739C408.385 475.777 392.113 475.24 380.999 484.612C375.501 489.248 369.538 495.501 366.499 509.693Z" fill="black"/>
<path d="M392.68 473.781C396.663 475.088 404.009 475.309 405.927 475.234C405.927 475.234 414.563 474.803 419.515 472.668C425.095 470.263 428.166 468.013 431.801 463.191C434.285 459.897 436.099 454.309 436.893 451.55C437.206 450.46 437.408 449.346 437.551 448.22L440.775 422.745C440.775 422.745 441.139 419.078 441.033 416.729C440.781 411.143 439.889 407.894 437.415 402.867C434.873 397.703 432.725 394.972 428.31 391.234C423.604 387.25 420.261 385.562 414.309 383.84C409.688 382.503 406.888 382.153 402.073 382.313C396.915 382.702 395.005 383.107 390.139 384.842C385.273 386.694 380.357 389.822 376.665 393.376C372.973 396.93 370.457 401.059 368.555 405.722C366.653 410.386 365.892 414.843 366.097 419.836C366.176 421.72 366.477 423.961 366.852 425.81L372.967 450.571C373.267 451.785 373.639 452.977 374.122 454.131C375.312 456.978 377.821 462.589 380.155 465.293C383.358 469.004 387.914 472.218 392.68 473.781Z" fill="white"/>
<path d="M394.549 467.958C397.896 469.101 404.068 469.302 405.679 469.24C405.679 469.24 412.933 468.876 417.09 467.023C421.775 464.935 424.352 462.979 427.399 458.785C429.435 455.983 430.93 451.272 431.615 448.819C431.911 447.761 432.098 446.679 432.23 445.589L434.886 423.571C434.886 423.571 435.187 420.378 435.095 418.332C434.876 413.467 434.123 410.636 432.038 406.255C429.896 401.754 428.088 399.373 424.374 396.112C420.416 392.636 417.605 391.162 412.603 389.654C408.72 388.484 406.367 388.176 402.323 388.309C397.99 388.641 396.386 388.991 392.3 390.496C388.215 392.103 384.09 394.821 380.993 397.911C377.896 401.001 375.787 404.595 374.195 408.653C372.603 412.712 371.97 416.593 372.149 420.942C372.217 422.582 372.473 424.535 372.791 426.146L377.916 447.537C378.199 448.716 378.549 449.875 379.006 450.998C380.036 453.528 382.098 458.246 384.016 460.549C386.712 463.786 390.544 466.59 394.549 467.958Z" fill="black"/>
<path fill-rule="evenodd" clip-rule="evenodd" d="M278 505.5H304.88C314.408 505.5 322.377 512.736 323.294 522.22L336.484 658.663L329.516 659.337L316.327 522.893C315.757 516.998 310.803 512.5 304.88 512.5H278V505.5Z" fill="black"/>
<path d="M255 875L269.09 881.232C276.33 884.434 281 891.606 281 899.523V900H146V894.478C146 888.691 139.15 882.796 139.865 877.053L156.5 743.5L154 624.5L146 521L104 505.5C104 505.5 120.472 423.035 138 387C152.835 356.5 166 337.111 201 341C220 343.111 220.026 347 225 357.5C234.711 378 243.5 494.5 243.5 494.5L276 496.5C276 496.5 290.492 498.789 288.501 513.357C287.997 517.043 285.472 519.913 282.25 521.744C280.5 522.738 278.496 523.144 276.503 523.428L244.5 528C244.5 542 244.015 547.726 244.5 560C244.935 571 256 717 256 717L255 875Z" fill="white"/>
<path d="M268.791 886.456L248 877.94L250 717L240 576L228 717L213.5 875L229.071 881.038C234.516 883.149 238.241 888.229 238.617 894.057L239 900H275V895.71C275 891.651 272.547 887.995 268.791 886.456Z" fill="black"/>
<path d="M227.211 887.016L206 876.978L222 716.898L235.5 560.302C235.5 560.302 237.5 541.5 237.5 527.5L152 521.778L161 627.83L163 743.413L147.654 871.517C147.112 876.04 152.5 880.671 152.5 885.226V900H233L232.932 895.888C232.868 892.083 230.651 888.644 227.211 887.016Z" fill="black"/>
<path d="M189.253 340.974C193.292 342.097 200.64 341.981 202.553 341.818C202.553 341.818 211.16 340.992 216.009 338.633C221.473 335.975 224.438 333.586 227.849 328.603C230.179 325.199 231.735 319.533 232.401 316.742C232.665 315.638 232.815 314.516 232.906 313.385L234.96 287.788C234.96 287.788 235.156 284.108 234.942 281.767C234.434 276.198 233.395 272.994 230.693 268.085C227.918 263.043 225.646 260.413 221.065 256.882C216.181 253.117 212.765 251.585 206.74 250.136C202.063 249.012 199.249 248.791 194.447 249.172C189.313 249.797 187.423 250.289 182.641 252.245C177.866 254.317 173.098 257.667 169.573 261.387C166.047 265.106 163.723 269.347 162.036 274.092C160.35 278.837 159.794 283.324 160.228 288.303C160.392 290.181 160.795 292.407 161.255 294.236L168.498 318.691C168.854 319.89 169.279 321.064 169.814 322.195C171.134 324.984 173.897 330.474 176.353 333.068C179.723 336.629 184.421 339.631 189.253 340.974Z" fill="white"/>
<path d="M190.852 335.061C194.249 336.05 200.423 335.968 202.029 335.831C202.029 335.831 209.259 335.136 213.327 333.094C217.911 330.794 220.396 328.722 223.248 324.393C225.153 321.501 226.431 316.726 227.003 314.244C227.25 313.174 227.388 312.085 227.469 310.989L229.114 288.873C229.114 288.873 229.268 285.669 229.083 283.63C228.641 278.78 227.759 275.987 225.476 271.705C223.13 267.308 221.215 265.012 217.356 261.924C213.242 258.633 210.367 257.29 205.301 256.012C201.368 255.021 199.004 254.821 194.97 255.14C190.657 255.67 189.071 256.093 185.059 257.784C181.051 259.575 177.054 262.479 174.102 265.708C171.15 268.937 169.208 272.624 167.804 276.751C166.4 280.878 165.945 284.784 166.323 289.121C166.466 290.756 166.811 292.695 167.202 294.289L173.302 315.423C173.638 316.588 174.041 317.73 174.549 318.831C175.694 321.311 177.97 325.929 179.992 328.142C182.833 331.252 186.789 333.878 190.852 335.061Z" fill="black"/>
<path fill-rule="evenodd" clip-rule="evenodd" d="M111 501.5C111 501.5 129.321 414.423 147.999 380.217C165.783 347.648 183.3 344.595 195.637 345.037C207.974 345.479 216.128 349.624 217.875 353.475C222.506 363.687 232.224 394.565 236.96 493.894L168.221 479.2L179.683 414.778C179.848 413.851 179.135 413 178.194 413C177.494 413 176.885 413.48 176.722 414.161L160.5 482L242 500L275.5 501.5C281.717 502.657 288 516.5 275.5 518L241 522L152 516.777L111 501.5Z" fill="black"/>
<path d="M493.494 710.51L361.5 701.5L336 700L338 728.5L507 738.5L507.462 726.03C507.762 717.933 501.577 711.062 493.494 710.51Z" fill="white"/>
<path fill-rule="evenodd" clip-rule="evenodd" d="M332.23 696.272L361.722 698.007L493.732 707.018C503.702 707.698 511.329 716.173 510.959 726.16L510.365 742.205L334.724 731.812L332.23 696.272ZM339.77 703.728L341.276 725.188L503.635 734.795L503.964 725.901C504.194 719.693 499.453 714.425 493.255 714.002L361.294 704.994L339.77 703.728Z" fill="black"/>
<path d="M484 778C484 848.14 427.14 905 357 905C286.86 905 230 848.14 230 778C230 707.86 286.86 651 357 651C427.14 651 484 707.86 484 778Z" fill="white"/>
<path fill-rule="evenodd" clip-rule="evenodd" d="M357 898C423.274 898 477 844.274 477 778C477 711.726 423.274 658 357 658C290.726 658 237 711.726 237 778C237 844.274 290.726 898 357 898ZM357 905C427.14 905 484 848.14 484 778C484 707.86 427.14 651 357 651C286.86 651 230 707.86 230 778C230 848.14 286.86 905 357 905Z" fill="black"/>
<path d="M462 778C462 835.99 414.99 883 357 883C299.01 883 252 835.99 252 778C252 720.01 299.01 673 357 673C414.99 673 462 720.01 462 778Z" fill="white"/>
<path fill-rule="evenodd" clip-rule="evenodd" d="M357 876C411.124 876 455 832.124 455 778C455 723.876 411.124 680 357 680C302.876 680 259 723.876 259 778C259 832.124 302.876 876 357 876ZM357 883C414.99 883 462 835.99 462 778C462 720.01 414.99 673 357 673C299.01 673 252 720.01 252 778C252 835.99 299.01 883 357 883Z" fill="black"/>
<path d="M375.495 777.748C375.495 788.102 367.102 796.495 356.748 796.495C346.394 796.495 338 788.102 338 777.748C338 767.394 346.394 759 356.748 759C367.102 759 375.495 767.394 375.495 777.748Z" fill="white"/>
<path fill-rule="evenodd" clip-rule="evenodd" d="M356.748 789.495C363.236 789.495 368.495 784.236 368.495 777.748C368.495 771.26 363.236 766 356.748 766C350.26 766 345 771.26 345 777.748C345 784.236 350.26 789.495 356.748 789.495ZM356.748 796.495C367.102 796.495 375.495 788.102 375.495 777.748C375.495 767.394 367.102 759 356.748 759C346.394 759 338 767.394 338 777.748C338 788.102 346.394 796.495 356.748 796.495Z" fill="black"/>
<path d="M565 862C565 885.196 546.196 904 523 904C499.804 904 481 885.196 481 862C481 838.804 499.804 820 523 820C546.196 820 565 838.804 565 862Z" fill="white"/>
<path fill-rule="evenodd" clip-rule="evenodd" d="M523 897C542.33 897 558 881.33 558 862C558 842.67 542.33 827 523 827C503.67 827 488 842.67 488 862C488 881.33 503.67 897 523 897ZM523 904C546.196 904 565 885.196 565 862C565 838.804 546.196 820 523 820C499.804 820 481 838.804 481 862C481 885.196 499.804 904 523 904Z" fill="black"/>
<path d="M534 861.5C534 867.851 528.851 873 522.5 873C516.149 873 511 867.851 511 861.5C511 855.149 516.149 850 522.5 850C528.851 850 534 855.149 534 861.5Z" fill="white"/>
<path fill-rule="evenodd" clip-rule="evenodd" d="M522.5 867C525.538 867 528 864.538 528 861.5C528 858.462 525.538 856 522.5 856C519.462 856 517 858.462 517 861.5C517 864.538 519.462 867 522.5 867ZM522.5 873C528.851 873 534 867.851 534 861.5C534 855.149 528.851 850 522.5 850C516.149 850 511 855.149 511 861.5C511 867.851 516.149 873 522.5 873Z" fill="black"/>
</svg>
