<svg width="1300" height="1000" viewBox="0 0 1300 1000" fill="none" xmlns="http://www.w3.org/2000/svg">
<path d="M509 866.5L505.521 866.887L505.89 870.206L509.224 869.993L509 866.5ZM634.224 861.993C636.153 861.869 637.616 860.206 637.493 858.276C637.369 856.347 635.706 854.884 633.776 855.007L634 858.5L634.224 861.993ZM319.213 509.175L322.699 508.866L322.699 508.866L319.213 509.175ZM509 866.5L509.224 869.993L634.224 861.993L634 858.5L633.776 855.007L508.776 863.007L509 866.5ZM509 866.5L512.479 866.113L498.479 740.113L495 740.5L491.521 740.887L505.521 866.887L509 866.5ZM332.5 659L335.986 658.691L322.699 508.866L319.213 509.175L315.726 509.484L329.014 659.309L332.5 659ZM304.271 495.5V492H277.5V495.5V499H304.271V495.5ZM319.213 509.175L322.699 508.866C321.852 499.319 313.855 492 304.271 492V495.5V499C310.229 499 315.2 503.55 315.726 509.484L319.213 509.175Z" fill="black"/>
<path d="M364.417 729.964L368.5 778.502H344L321.689 532.122C321.035 524.905 326.41 518.548 333.635 517.992C340.755 517.444 346.984 522.744 347.582 529.86L362.025 701.538L493.494 710.512C501.578 711.064 507.762 717.936 507.462 726.033L507 738.502L364.417 729.964Z" fill="white" stroke="black" stroke-width="7"/>
<path d="M599.5 830.193L619.436 842.154C624.087 844.945 626.807 850.085 626.5 855.5L515.5 863.193V844.193C512.641 844.193 510.228 842.069 509.864 839.234L495.5 727.193L394.815 702.067C377 697.622 364.5 681.619 364.5 663.258V640.693L355 639.193C355 639.193 355.518 547.578 358.5 525.693C363.5 489 375 477.583 392.5 473.501C407.5 470.001 416.692 470.716 425.5 476.001C431.501 479.602 440.176 492.466 445.5 503L486.5 537.5L524.5 509C524.5 509 533 483.5 539 476C540.767 473.791 546.438 468.733 555.5 471C565.5 473.501 565.429 480.5 565.283 486.5C563.5 499 557.5 522.5 557.5 522.5L492 590C492 590 466.528 574.474 466.751 575.5L467.627 578.887C468.038 580.284 468.436 581.55 468.821 583.5C472.018 599.693 474.314 615.127 475.5 627.693L501.074 633.876C512.765 636.702 521 647.166 521 659.193L556.5 663.5C569.359 667.787 578.671 679.001 580.521 692.429L599.5 830.193Z" fill="white"/>
<path d="M615.312 845.041L593 833.5L573.051 692.97C571.483 681.923 563.912 672.658 553.399 668.92L548 667L553.289 672.086C558.276 676.881 561.452 683.253 562.28 690.121L579.5 833L598.845 841.186C604.394 843.534 608 848.975 608 855.001V857L620.5 856L620.523 855.884C621.398 851.512 619.272 847.089 615.312 845.041Z" fill="black"/>
<path d="M595.965 845.312L573 835.203L556.16 691.67C554.588 678.276 544.271 667.576 530.942 665.518L485.5 658.501L370.5 639.193V664.626C370.5 678.458 379.958 690.498 393.398 693.773L501.828 720.193L514.4 834.735C514.742 837.847 517.37 840.203 520.5 840.203V863.212L602 858.212L601.935 854.297C601.87 850.393 599.539 846.885 595.965 845.312Z" fill="black"/>
<path d="M366.499 509.693C359.581 542.007 360.5 633.193 360.5 633.193L513.537 657.878C514.457 658.026 515.222 657.174 514.977 656.275C512.523 647.278 505.376 640.324 496.315 638.116L472 632.193L403 605.193L407.399 543.702C407.456 542.904 408.121 542.285 408.921 542.285C409.784 542.285 410.476 542.999 410.447 543.862L408.5 602.694L469.999 626.5C456.822 523.068 433.435 489.808 424.554 480.609C422.363 478.339 419.443 477.119 416.311 476.739C408.385 475.777 392.113 475.24 380.999 484.612C375.501 489.248 369.538 495.501 366.499 509.693Z" fill="black"/>
<path d="M392.68 473.781C396.663 475.088 404.009 475.309 405.927 475.234C405.927 475.234 414.563 474.803 419.515 472.668C425.095 470.263 428.166 468.013 431.801 463.191C435.194 458.691 437.337 449.91 437.337 449.91L440.775 422.745C440.775 422.745 441.139 419.078 441.033 416.729C440.781 411.143 439.889 407.894 437.415 402.867C434.873 397.703 432.725 394.972 428.31 391.234C423.604 387.25 420.261 385.562 414.309 383.84C409.688 382.503 406.888 382.153 402.073 382.313C396.915 382.702 395.005 383.107 390.139 384.842C385.273 386.694 380.357 389.822 376.665 393.376C372.973 396.93 370.457 401.059 368.555 405.722C366.653 410.386 365.892 414.843 366.097 419.836C366.176 421.72 366.477 423.961 366.852 425.81L373.418 452.394C373.418 452.394 376.951 461.581 380.155 465.293C383.358 469.004 387.914 472.218 392.68 473.781Z" fill="white"/>
<path d="M394.549 467.958C397.896 469.101 404.068 469.302 405.679 469.24C405.679 469.24 412.933 468.876 417.09 467.023C421.775 464.935 424.352 462.979 427.399 458.785C430.244 454.87 432.032 447.225 432.032 447.225L434.886 423.571C434.886 423.571 435.187 420.378 435.095 418.332C434.876 413.467 434.123 410.636 432.038 406.255C429.896 401.754 428.088 399.373 424.374 396.112C420.416 392.636 417.605 391.162 412.603 389.654C408.72 388.484 406.367 388.176 402.323 388.309C397.99 388.641 396.386 388.991 392.3 390.496C388.215 392.103 384.09 394.821 380.993 397.911C377.896 401.001 375.787 404.595 374.195 408.653C372.603 412.712 371.97 416.593 372.149 420.942C372.217 422.582 372.473 424.535 372.791 426.146L378.34 449.307C378.34 449.307 381.321 457.312 384.016 460.549C386.712 463.786 390.544 466.59 394.549 467.958Z" fill="black"/>
<path d="M449.031 512.247L448.985 512.206C448.999 512.217 449.015 512.231 449.031 512.247L486.327 545.459L529.5 512.206L540.056 486.037C541.227 483.523 544.695 475.664 552.397 476.631C561.639 477.792 559.38 487.116 558.525 491.943L552.067 518.562L490.875 583.082L465.885 569.445C461.876 552.308 450.967 514.203 449.031 512.247Z" fill="black"/>
<path d="M347.568 676.441L366.431 877.559M421.6 699.63L292.726 855.179M457.652 768.564L256.535 787.427M434.301 842.611L278.752 713.738" stroke="black" stroke-width="7"/>
<path d="M357 654.5C425.207 654.5 480.5 709.793 480.5 778L480.49 779.597C479.635 847.068 424.674 901.5 357 901.5C288.793 901.5 233.5 846.207 233.5 778C233.5 709.793 288.793 654.5 357 654.5ZM514 823.5C535.263 823.5 552.5 840.737 552.5 862C552.5 883.263 535.263 900.5 514 900.5C492.737 900.5 475.5 883.263 475.5 862C475.5 840.737 492.737 823.5 514 823.5ZM513.748 839.5C501.461 839.5 491.5 849.461 491.5 861.748C491.5 874.035 501.461 883.995 513.748 883.995C526.035 883.995 535.995 874.035 535.995 861.748C535.995 849.461 526.035 839.5 513.748 839.5ZM356.5 675.5C300.167 675.5 254.5 721.167 254.5 777.5C254.5 833.833 300.167 879.5 356.5 879.5C412.833 879.5 458.5 833.833 458.5 777.5C458.5 721.167 412.833 675.5 356.5 675.5ZM514.5 854.5C518.918 854.5 522.5 858.082 522.5 862.5C522.5 866.918 518.918 870.5 514.5 870.5C510.082 870.5 506.5 866.918 506.5 862.5C506.5 858.082 510.082 854.5 514.5 854.5ZM356.748 762.5C365.169 762.5 371.995 769.327 371.995 777.748C371.995 786.169 365.169 792.995 356.748 792.995C348.327 792.995 341.5 786.169 341.5 777.748C341.5 769.327 348.327 762.5 356.748 762.5Z" fill="white" stroke="black" stroke-width="7"/>
</svg>
