<svg width="1300" height="1000" viewBox="0 0 1300 1000" fill="none" xmlns="http://www.w3.org/2000/svg">
<path fill-rule="evenodd" clip-rule="evenodd" d="M512.11 862.793L498.479 740.113L491.521 740.886L505.89 870.206L634.224 861.992C636.153 861.869 637.616 860.205 637.493 858.276C637.369 856.347 635.706 854.883 633.776 855.007L512.11 862.793Z" fill="black"/>
<path d="M364 728.5L347.567 529.898C346.977 522.762 340.735 517.443 333.596 517.992C326.382 518.547 321.005 524.877 321.624 532.086L338.5 728.5H364Z" fill="white"/>
<path fill-rule="evenodd" clip-rule="evenodd" d="M333.327 514.503C342.386 513.806 350.306 520.555 351.055 529.609L367.802 732H335.288L318.137 532.385C317.351 523.239 324.174 515.207 333.327 514.503ZM344.079 530.187C343.647 524.97 339.084 521.08 333.864 521.482C328.59 521.888 324.659 526.516 325.111 531.786L341.712 725H360.198L344.079 530.187Z" fill="black"/>
<path d="M619.436 842.154L599.5 830.193L580.521 692.429C578.671 679.001 569.359 667.786 556.5 663.5L521 659.193C521 647.165 512.765 636.702 501.074 633.876L475.5 627.693C471 580.001 450.5 491 425.5 476.001C416.692 470.716 407.5 470.001 392.5 473.5C375 477.583 363.5 489 358.5 525.693C355.518 547.577 355 639.193 355 639.193L364.5 640.693V663.257C364.5 681.618 377 697.621 394.815 702.067L495.5 727.193L509.864 839.233C510.228 842.069 512.641 844.193 515.5 844.193V863.193L626.5 855.5C626.807 850.084 624.087 844.945 619.436 842.154Z" fill="white"/>
<path d="M615.312 845.041L593 833.501L573.051 692.97C571.483 681.923 563.912 672.658 553.399 668.92L548 667.001L553.289 672.086C558.276 676.881 561.452 683.253 562.28 690.121L579.5 833.001L598.845 841.187C604.394 843.535 608 848.975 608 855.001V857.001L620.5 856.001L620.523 855.884C621.398 851.512 619.272 847.09 615.312 845.041Z" fill="black"/>
<path d="M595.965 845.312L573 835.203L556.16 691.671C554.588 678.276 544.271 667.576 530.942 665.518L485.5 658.501L370.5 639.194V664.626C370.5 678.459 379.958 690.498 393.398 693.773L501.828 720.194L514.4 834.736C514.941 839.659 520.5 844.218 520.5 849.171V863.212L602 858.212L601.935 854.297C601.87 850.394 599.539 846.885 595.965 845.312Z" fill="black"/>
<path d="M366.499 509.694C359.581 542.007 360.5 633.194 360.5 633.194L513.537 657.878C514.457 658.026 515.222 657.174 514.977 656.275C512.523 647.278 505.376 640.324 496.315 638.117L472 632.194L403 605.193L407.399 543.702C407.456 542.904 408.121 542.285 408.922 542.285C409.784 542.285 410.476 542.999 410.447 543.862L408.5 602.694L469.999 626.501C456.822 523.068 433.435 489.808 424.554 480.609C422.363 478.339 419.443 477.119 416.311 476.739C408.385 475.777 392.113 475.24 380.999 484.612C375.501 489.248 369.538 495.501 366.499 509.694Z" fill="black"/>
<path d="M392.68 473.781C396.663 475.088 404.009 475.309 405.927 475.234C405.927 475.234 414.563 474.803 419.515 472.668C425.095 470.263 428.166 468.013 431.801 463.191C434.285 459.897 436.099 454.309 436.893 451.55C437.206 450.46 437.408 449.346 437.551 448.22L440.775 422.745C440.775 422.745 441.139 419.078 441.033 416.729C440.781 411.143 439.889 407.894 437.415 402.867C434.873 397.703 432.725 394.972 428.31 391.234C423.604 387.25 420.261 385.562 414.309 383.84C409.688 382.503 406.888 382.153 402.073 382.313C396.915 382.702 395.005 383.107 390.139 384.842C385.273 386.694 380.357 389.822 376.665 393.376C372.973 396.93 370.457 401.059 368.555 405.722C366.653 410.386 365.892 414.843 366.097 419.836C366.176 421.72 366.477 423.961 366.852 425.81L372.967 450.571C373.267 451.785 373.639 452.977 374.122 454.131C375.312 456.978 377.821 462.589 380.155 465.293C383.358 469.004 387.914 472.218 392.68 473.781Z" fill="white"/>
<path d="M394.549 467.958C397.896 469.101 404.068 469.302 405.679 469.24C405.679 469.24 412.933 468.876 417.09 467.023C421.775 464.935 424.352 462.979 427.399 458.785C429.435 455.983 430.93 451.272 431.615 448.819C431.911 447.761 432.098 446.679 432.23 445.589L434.886 423.571C434.886 423.571 435.187 420.378 435.095 418.332C434.876 413.467 434.123 410.636 432.038 406.255C429.896 401.754 428.088 399.373 424.374 396.112C420.416 392.636 417.605 391.162 412.603 389.654C408.72 388.484 406.367 388.176 402.323 388.309C397.99 388.641 396.386 388.991 392.3 390.496C388.215 392.103 384.09 394.821 380.993 397.911C377.896 401.001 375.787 404.595 374.195 408.653C372.603 412.712 371.97 416.593 372.149 420.942C372.217 422.582 372.473 424.535 372.791 426.146L377.916 447.537C378.199 448.716 378.549 449.875 379.006 450.998C380.036 453.528 382.098 458.246 384.016 460.549C386.712 463.786 390.544 466.59 394.549 467.958Z" fill="black"/>
<path fill-rule="evenodd" clip-rule="evenodd" d="M277.5 492H304.271C313.855 492 321.852 499.319 322.699 508.866L335.986 658.691L329.014 659.309L315.726 509.484C315.2 503.55 310.229 499 304.271 499H277.5V492Z" fill="black"/>
<path d="M493.494 710.51L361.5 701.5L336 700L338 728.5L507 738.5L507.462 726.03C507.762 717.933 501.577 711.062 493.494 710.51Z" fill="white"/>
<path fill-rule="evenodd" clip-rule="evenodd" d="M332.23 696.272L361.722 698.007L493.732 707.018C503.702 707.698 511.329 716.173 510.959 726.16L510.365 742.205L334.724 731.812L332.23 696.272ZM339.77 703.728L341.276 725.188L503.635 734.795L503.964 725.901C504.194 719.693 499.453 714.425 493.255 714.002L361.294 704.994L339.77 703.728Z" fill="black"/>
<path d="M484 778C484 848.14 427.14 905 357 905C286.86 905 230 848.14 230 778C230 707.86 286.86 651 357 651C427.14 651 484 707.86 484 778Z" fill="white"/>
<path fill-rule="evenodd" clip-rule="evenodd" d="M357 898C423.274 898 477 844.274 477 778C477 711.726 423.274 658 357 658C290.726 658 237 711.726 237 778C237 844.274 290.726 898 357 898ZM357 905C427.14 905 484 848.14 484 778C484 707.86 427.14 651 357 651C286.86 651 230 707.86 230 778C230 848.14 286.86 905 357 905Z" fill="black"/>
<path d="M462 778C462 835.99 414.99 883 357 883C299.01 883 252 835.99 252 778C252 720.01 299.01 673 357 673C414.99 673 462 720.01 462 778Z" fill="white"/>
<path fill-rule="evenodd" clip-rule="evenodd" d="M357 876C411.124 876 455 832.124 455 778C455 723.876 411.124 680 357 680C302.876 680 259 723.876 259 778C259 832.124 302.876 876 357 876ZM357 883C414.99 883 462 835.99 462 778C462 720.01 414.99 673 357 673C299.01 673 252 720.01 252 778C252 835.99 299.01 883 357 883Z" fill="black"/>
<path d="M375.495 777.748C375.495 788.102 367.102 796.495 356.748 796.495C346.394 796.495 338 788.102 338 777.748C338 767.394 346.394 759 356.748 759C367.102 759 375.495 767.394 375.495 777.748Z" fill="white"/>
<path fill-rule="evenodd" clip-rule="evenodd" d="M356.748 789.495C363.236 789.495 368.495 784.236 368.495 777.748C368.495 771.26 363.236 766 356.748 766C350.26 766 345 771.26 345 777.748C345 784.236 350.26 789.495 356.748 789.495ZM356.748 796.495C367.102 796.495 375.495 788.102 375.495 777.748C375.495 767.394 367.102 759 356.748 759C346.394 759 338 767.394 338 777.748C338 788.102 346.394 796.495 356.748 796.495Z" fill="black"/>
</svg>
