<svg width="1300" height="1000" viewBox="0 0 1300 1000" fill="none" xmlns="http://www.w3.org/2000/svg">
<path d="M619.436 842.154L599.5 830.193L580.521 692.429C578.671 679.001 569.359 667.787 556.5 663.5L521 659.193C521 647.166 512.765 636.702 501.074 633.876L475.5 627.693C471 580.001 450.5 491 425.5 476.001C416.692 470.716 407.5 470.001 392.5 473.5C375 477.583 363.5 489 358.5 525.693C355.518 547.577 355 639.193 355 639.193L364.5 640.693V663.258C364.5 681.619 377 697.622 394.815 702.067L495.5 727.193L509.864 839.234C510.228 842.069 512.641 844.193 515.5 844.193V863.193L626.5 855.5C626.807 850.085 624.087 844.945 619.436 842.154Z" fill="white"/>
<path d="M615.312 845.041L593 833.5L573.051 692.97C571.483 681.923 563.912 672.658 553.399 668.92L548 667L553.289 672.086C558.276 676.881 561.452 683.253 562.28 690.121L579.5 833L598.845 841.186C604.394 843.534 608 848.975 608 855.001V857L620.5 856L620.523 855.884C621.398 851.512 619.272 847.089 615.312 845.041Z" fill="black"/>
<path d="M595.965 845.312L573 835.203L556.16 691.67C554.588 678.276 544.271 667.576 530.942 665.518L485.5 658.501L370.5 639.193V664.626C370.5 678.458 379.958 690.498 393.398 693.773L501.828 720.193L514.4 834.735C514.742 837.847 517.37 840.203 520.5 840.203V863.212L602 858.212L601.935 854.297C601.87 850.393 599.539 846.885 595.965 845.312Z" fill="black"/>
<path d="M366.499 509.693C359.581 542.007 360.5 633.193 360.5 633.193L513.537 657.878C514.457 658.026 515.222 657.174 514.977 656.275C512.523 647.278 505.376 640.324 496.315 638.116L472 632.193L403 605.193L407.399 543.702C407.456 542.904 408.121 542.285 408.921 542.285C409.784 542.285 410.476 542.999 410.447 543.862L408.5 602.694L469.999 626.5C456.822 523.068 433.435 489.808 424.554 480.609C422.363 478.339 419.443 477.119 416.311 476.739C408.385 475.777 392.113 475.24 380.999 484.612C375.501 489.248 369.538 495.501 366.499 509.693Z" fill="black"/>
<path d="M392.68 473.781C396.663 475.088 404.009 475.309 405.927 475.234C405.927 475.234 414.563 474.803 419.515 472.668C425.095 470.263 428.166 468.013 431.801 463.191C435.194 458.691 437.337 449.91 437.337 449.91L440.775 422.745C440.775 422.745 441.139 419.078 441.033 416.729C440.781 411.143 439.889 407.894 437.415 402.867C434.873 397.703 432.725 394.972 428.31 391.234C423.604 387.25 420.261 385.562 414.309 383.84C409.688 382.503 406.888 382.153 402.073 382.313C396.915 382.702 395.005 383.107 390.139 384.842C385.273 386.694 380.357 389.822 376.665 393.376C372.973 396.93 370.457 401.059 368.555 405.722C366.653 410.386 365.892 414.843 366.097 419.836C366.176 421.72 366.477 423.961 366.852 425.81L373.418 452.394C373.418 452.394 376.951 461.581 380.155 465.293C383.358 469.004 387.914 472.218 392.68 473.781Z" fill="white"/>
<path d="M394.549 467.958C397.896 469.101 404.068 469.302 405.679 469.24C405.679 469.24 412.933 468.876 417.09 467.023C421.775 464.935 424.352 462.979 427.399 458.785C430.244 454.87 432.032 447.225 432.032 447.225L434.886 423.571C434.886 423.571 435.187 420.378 435.095 418.332C434.876 413.467 434.123 410.636 432.038 406.255C429.896 401.754 428.088 399.373 424.374 396.112C420.416 392.636 417.605 391.162 412.603 389.654C408.72 388.484 406.367 388.176 402.323 388.309C397.99 388.641 396.386 388.991 392.3 390.496C388.215 392.103 384.09 394.821 380.993 397.911C377.896 401.001 375.787 404.595 374.195 408.653C372.603 412.712 371.97 416.593 372.149 420.942C372.217 422.582 372.473 424.535 372.791 426.146L378.34 449.307C378.34 449.307 381.321 457.312 384.016 460.549C386.712 463.786 390.544 466.59 394.549 467.958Z" fill="black"/>
<path d="M509 866.5L505.521 866.887L505.89 870.206L509.224 869.993L509 866.5ZM634.224 861.993C636.153 861.869 637.616 860.206 637.493 858.276C637.369 856.347 635.706 854.884 633.776 855.007L634 858.5L634.224 861.993ZM319.213 509.175L322.699 508.866L322.699 508.866L319.213 509.175ZM509 866.5L509.224 869.993L634.224 861.993L634 858.5L633.776 855.007L508.776 863.007L509 866.5ZM509 866.5L512.479 866.113L498.479 740.113L495 740.5L491.521 740.887L505.521 866.887L509 866.5ZM332.5 659L335.986 658.691L322.699 508.866L319.213 509.175L315.726 509.484L329.014 659.309L332.5 659ZM304.271 495.5V492H277.5V495.5V499H304.271V495.5ZM319.213 509.175L322.699 508.866C321.852 499.319 313.855 492 304.271 492V495.5V499C310.229 499 315.2 503.55 315.726 509.484L319.213 509.175Z" fill="black"/>
<path d="M364.417 729.962L368.5 778.5H344L321.689 532.12C321.035 524.903 326.41 518.546 333.635 517.99C340.755 517.442 346.984 522.742 347.582 529.858L362.025 701.536L493.494 710.51C501.578 711.062 507.762 717.934 507.462 726.031L507 738.5L364.417 729.962Z" fill="white" stroke="black" stroke-width="7"/>
<path d="M357 651C427.14 651 484 707.86 484 778C484 848.14 427.14 905 357 905C286.86 905 230 848.14 230 778C230 707.86 286.86 651 357 651ZM356.5 679C302.1 679 258 723.1 258 777.5C258 831.9 302.1 876 356.5 876C410.9 876 455 831.9 455 777.5C455 723.1 410.9 679 356.5 679Z" fill="white"/>
<path d="M477 778C477 712.244 424.11 658.84 358.551 658.01L357 658C290.726 658 237 711.726 237 778C237 844.274 290.726 898 357 898V905C286.86 905 230 848.14 230 778C230 707.86 286.86 651 357 651C427.14 651 484 707.86 484 778C484 848.14 427.14 905 357 905V898C422.756 898 476.16 845.11 476.99 779.551L477 778ZM455 777.5C455 723.1 410.9 679 356.5 679C302.1 679 258 723.1 258 777.5C258 831.9 302.1 876 356.5 876C410.9 876 455 831.9 455 777.5ZM462 777.5C462 835.766 414.766 883 356.5 883C298.234 883 251 835.766 251 777.5C251 719.234 298.234 672 356.5 672C414.766 672 462 719.234 462 777.5Z" fill="black"/>
<path d="M347.568 676.441L366.431 877.559M421.6 699.63L292.726 855.179M457.652 768.564L256.535 787.427M434.301 842.611L278.752 713.738" stroke="black" stroke-width="7"/>
<path d="M375.495 777.748C375.495 788.102 367.102 796.495 356.748 796.495C346.394 796.495 338 788.102 338 777.748C338 767.394 346.394 759 356.748 759C367.102 759 375.495 767.394 375.495 777.748Z" fill="white"/>
<path d="M368.495 777.748C368.495 771.26 363.236 766 356.748 766C350.26 766 345 771.26 345 777.748C345 784.236 350.26 789.495 356.748 789.495L356.748 796.495L356.264 796.489C346.294 796.237 338.258 788.201 338.006 778.231L338 777.748C338 767.394 346.394 759 356.748 759L357.231 759.006C367.362 759.262 375.495 767.555 375.495 777.748L375.489 778.231C375.233 788.362 366.94 796.495 356.748 796.495L356.748 789.495C363.236 789.495 368.495 784.236 368.495 777.748Z" fill="black"/>
<path d="M514 823.5C535.263 823.5 552.5 840.737 552.5 862C552.5 883.263 535.263 900.5 514 900.5C492.737 900.5 475.5 883.263 475.5 862C475.5 840.737 492.737 823.5 514 823.5ZM513.748 839.5C501.461 839.5 491.5 849.461 491.5 861.748C491.5 874.035 501.461 883.995 513.748 883.995C526.035 883.995 535.995 874.035 535.995 861.748C535.995 849.461 526.035 839.5 513.748 839.5Z" fill="white" stroke="black" stroke-width="7"/>
<path d="M526 862.5C526 868.851 520.851 874 514.5 874C508.149 874 503 868.851 503 862.5C503 856.149 508.149 851 514.5 851C520.851 851 526 856.149 526 862.5Z" fill="white"/>
<path d="M520 862.5C520 859.462 517.538 857 514.5 857C511.462 857 509 859.462 509 862.5C509 865.538 511.462 868 514.5 868V874C508.149 874 503 868.851 503 862.5C503 856.149 508.149 851 514.5 851C520.851 851 526 856.149 526 862.5C526 868.851 520.851 874 514.5 874V868C517.538 868 520 865.538 520 862.5Z" fill="black"/>
</svg>
