<svg width="1300" height="1000" viewBox="0 0 1300 1000" fill="none" xmlns="http://www.w3.org/2000/svg">
<path d="M304.871 504.5C314.403 504.5 322.376 511.743 323.287 521.231L336.484 658.665L329.516 659.335L316.318 521.9C315.752 516.002 310.796 511.5 304.871 511.5H278V504.5H304.871Z" fill="black"/>
<path d="M255 875L269.09 881.232C276.33 884.434 281 891.606 281 899.523V900H146V884C142.283 884 139.406 880.742 139.865 877.053L156.5 743.5L154 624.5L146 521L104 505.5C104 505.5 120.472 423.035 138 387C152.835 356.5 166 337.111 201 341C220 343.111 220.026 347 225 357.5C234.711 378 243.5 494.5 243.5 494.5L276 496.5C276 496.5 290.492 498.789 288.501 513.357C287.86 518.042 283.953 521.41 279.5 523L244.5 528C244.5 542 244.015 547.726 244.5 560C244.935 571 256 717 256 717L255 875Z" fill="white"/>
<path d="M268.791 886.456L248 877.94L250 717L240 576L228 717L213.5 875L229.071 881.038C234.516 883.149 238.241 888.229 238.617 894.057L239 900H275V895.71C275 891.651 272.547 887.995 268.791 886.456Z" fill="black"/>
<path d="M227.211 887.016L206 876.978L222 716.898L235.5 560.302C235.5 560.302 237.5 541.5 237.5 527.5L152 521.778L161 627.83L163 743.413L147.654 871.517C147.306 874.421 149.575 876.978 152.5 876.978V900H233L232.932 895.888C232.868 892.083 230.651 888.644 227.211 887.016Z" fill="black"/>
<path d="M189.253 340.974C193.292 342.097 200.64 341.981 202.553 341.818C202.553 341.818 211.16 340.992 216.009 338.633C221.473 335.975 224.438 333.586 227.849 328.603C230.179 325.199 231.735 319.533 232.401 316.742C232.665 315.638 232.815 314.516 232.906 313.385L234.96 287.788C234.96 287.788 235.156 284.108 234.942 281.767C234.434 276.198 233.395 272.994 230.693 268.085C227.918 263.043 225.646 260.413 221.065 256.882C216.181 253.117 212.765 251.585 206.74 250.136C202.063 249.012 199.249 248.791 194.447 249.172C189.313 249.797 187.423 250.289 182.641 252.245C177.866 254.317 173.098 257.667 169.573 261.387C166.047 265.106 163.723 269.347 162.036 274.092C160.35 278.837 159.794 283.324 160.228 288.303C160.392 290.181 160.795 292.407 161.255 294.236L168.498 318.691C168.854 319.89 169.279 321.064 169.814 322.195C171.134 324.984 173.897 330.474 176.353 333.068C179.723 336.629 184.421 339.631 189.253 340.974Z" fill="white"/>
<path d="M190.852 335.061C194.249 336.05 200.423 335.968 202.029 335.831C202.029 335.831 209.259 335.136 213.327 333.094C217.911 330.794 220.396 328.722 223.248 324.393C225.153 321.501 226.431 316.726 227.003 314.244C227.25 313.174 227.388 312.085 227.469 310.989L229.114 288.873C229.114 288.873 229.268 285.669 229.083 283.63C228.641 278.78 227.759 275.987 225.476 271.705C223.13 267.308 221.215 265.012 217.356 261.924C213.242 258.633 210.367 257.29 205.301 256.012C201.368 255.021 199.004 254.821 194.97 255.14C190.657 255.67 189.071 256.093 185.059 257.784C181.051 259.575 177.054 262.479 174.102 265.708C171.15 268.937 169.208 272.624 167.804 276.751C166.4 280.878 165.945 284.784 166.323 289.121C166.466 290.756 166.811 292.695 167.202 294.289L173.302 315.423C173.638 316.588 174.041 317.73 174.549 318.831C175.694 321.311 177.97 325.929 179.992 328.142C182.833 331.252 186.789 333.878 190.852 335.061Z" fill="black"/>
<path fill-rule="evenodd" clip-rule="evenodd" d="M111 501.5C111 501.5 129.321 414.423 147.999 380.217C165.783 347.648 183.3 344.595 195.637 345.037C207.974 345.479 216.128 349.624 217.875 353.475C222.506 363.687 232.224 394.565 236.96 493.894L168.221 479.2L179.683 414.778C179.848 413.851 179.135 413 178.194 413C177.494 413 176.885 413.48 176.722 414.161L160.5 482L242 500L275.5 501.5C281.717 502.657 288 516.5 275.5 518L241 522L152 516.777L111 501.5Z" fill="black"/>
<path d="M619.436 842.154L599.5 830.193L580.521 692.429C578.671 679.001 569.359 667.787 556.5 663.5L521 659.193C521 647.166 512.765 636.702 501.074 633.876L475.5 627.693C471 580.001 450.5 491 425.5 476.001C416.692 470.716 407.5 470.001 392.5 473.5C375 477.583 363.5 489 358.5 525.693C355.518 547.578 355 639.193 355 639.193L364.5 640.693V663.258C364.5 681.619 377 697.622 394.815 702.067L495.5 727.193L509.864 839.234C510.228 842.069 512.641 844.193 515.5 844.193V863.193L626.5 855.5C626.807 850.085 624.087 844.945 619.436 842.154Z" fill="white"/>
<path d="M615.312 845.041L593 833.5L573.051 692.97C571.483 681.923 563.912 672.658 553.399 668.92L548 667L553.289 672.086C558.276 676.881 561.452 683.253 562.28 690.121L579.5 833L598.845 841.186C604.394 843.534 608 848.975 608 855.001V857L620.5 856L620.523 855.884C621.398 851.512 619.272 847.089 615.312 845.041Z" fill="black"/>
<path d="M595.965 845.312L573 835.203L556.16 691.67C554.588 678.276 544.271 667.576 530.942 665.518L485.5 658.501L370.5 639.193V664.626C370.5 678.458 379.958 690.498 393.398 693.773L501.828 720.193L514.4 834.735C514.742 837.847 517.37 840.203 520.5 840.203V863.212L602 858.212L601.935 854.297C601.87 850.393 599.539 846.885 595.965 845.312Z" fill="black"/>
<path d="M366.499 509.693C359.581 542.007 360.5 633.193 360.5 633.193L513.537 657.878C514.457 658.026 515.222 657.174 514.977 656.275C512.523 647.278 505.376 640.324 496.315 638.116L472 632.193L403 605.193L407.399 543.702C407.456 542.904 408.121 542.285 408.921 542.285C409.784 542.285 410.476 542.999 410.447 543.862L408.5 602.694L469.999 626.5C456.822 523.068 433.435 489.808 424.554 480.609C422.363 478.339 419.443 477.119 416.311 476.739C408.385 475.777 392.113 475.24 380.999 484.612C375.501 489.248 369.538 495.501 366.499 509.693Z" fill="black"/>
<path d="M392.68 473.781C396.663 475.088 404.009 475.309 405.927 475.234C405.927 475.234 414.563 474.803 419.515 472.668C425.095 470.263 428.166 468.013 431.801 463.191C435.194 458.691 437.337 449.91 437.337 449.91L440.775 422.745C440.775 422.745 441.139 419.078 441.033 416.729C440.781 411.143 439.889 407.894 437.415 402.867C434.873 397.703 432.725 394.972 428.31 391.234C423.604 387.25 420.261 385.562 414.309 383.84C409.688 382.503 406.888 382.153 402.073 382.313C396.915 382.702 395.005 383.107 390.139 384.842C385.273 386.694 380.357 389.822 376.665 393.376C372.973 396.93 370.457 401.059 368.555 405.722C366.653 410.386 365.892 414.843 366.097 419.836C366.176 421.72 366.477 423.961 366.852 425.81L373.418 452.394C373.418 452.394 376.951 461.581 380.155 465.293C383.358 469.004 387.914 472.218 392.68 473.781Z" fill="white"/>
<path d="M394.549 467.958C397.896 469.101 404.068 469.302 405.679 469.24C405.679 469.24 412.933 468.876 417.09 467.023C421.775 464.935 424.352 462.979 427.399 458.785C430.244 454.87 432.032 447.225 432.032 447.225L434.886 423.571C434.886 423.571 435.187 420.378 435.095 418.332C434.876 413.467 434.123 410.636 432.038 406.255C429.896 401.754 428.088 399.373 424.374 396.112C420.416 392.636 417.605 391.162 412.603 389.654C408.72 388.484 406.367 388.176 402.323 388.309C397.99 388.641 396.386 388.991 392.3 390.496C388.215 392.103 384.09 394.821 380.993 397.911C377.896 401.001 375.787 404.595 374.195 408.653C372.603 412.712 371.97 416.593 372.149 420.942C372.217 422.582 372.473 424.535 372.791 426.146L378.34 449.307C378.34 449.307 381.321 457.312 384.016 460.549C386.712 463.786 390.544 466.59 394.549 467.958Z" fill="black"/>
<path d="M509 866.5L505.521 866.887L505.89 870.206L509.224 869.993L509 866.5ZM634.224 861.993C636.153 861.869 637.616 860.206 637.493 858.276C637.369 856.347 635.706 854.884 633.776 855.007L634 858.5L634.224 861.993ZM509 866.5L509.224 869.993L634.224 861.993L634 858.5L633.776 855.007L508.776 863.007L509 866.5ZM509 866.5L512.479 866.113L498.479 740.113L495 740.5L491.521 740.887L505.521 866.887L509 866.5Z" fill="black"/>
<path fill-rule="evenodd" clip-rule="evenodd" d="M364.417 729.963L368.5 778.501H344L321.689 532.121C321.035 524.904 326.41 518.546 333.635 517.991C340.755 517.443 346.984 522.743 347.582 529.859L362.025 701.537L493.494 710.511C501.578 711.063 507.762 717.934 507.462 726.031L507 738.501L364.417 729.963Z" fill="white"/>
<path d="M333.366 514.501C342.404 513.805 350.31 520.533 351.07 529.566L365.261 698.249L493.732 707.019C503.702 707.7 511.33 716.175 510.96 726.161L510.365 742.209L368.243 733.698L372.308 782.001H340.803L318.203 532.436C317.374 523.276 324.196 515.206 333.366 514.501ZM344.095 530.153C343.657 524.953 339.106 521.08 333.903 521.48C328.624 521.886 324.697 526.532 325.175 531.805L347.198 775.001H364.693L360.591 726.228L503.635 734.793L503.965 725.902C504.195 719.694 499.453 714.426 493.256 714.003L358.79 704.824L344.095 530.153Z" fill="black"/>
<mask id="path-6-inside-1_1564_670" fill="white">
<path d="M357 651C427.14 651 484 707.86 484 778C484 848.14 427.14 905 357 905C286.86 905 230 848.14 230 778C230 707.86 286.86 651 357 651ZM356.5 679C302.1 679 258 723.1 258 777.5C258 831.9 302.1 876 356.5 876C410.9 876 455 831.9 455 777.5C455 723.1 410.9 679 356.5 679Z"/>
</mask>
<path d="M357 651C427.14 651 484 707.86 484 778C484 848.14 427.14 905 357 905C286.86 905 230 848.14 230 778C230 707.86 286.86 651 357 651ZM356.5 679C302.1 679 258 723.1 258 777.5C258 831.9 302.1 876 356.5 876C410.9 876 455 831.9 455 777.5C455 723.1 410.9 679 356.5 679Z" fill="white"/>
<path d="M357 651L357 644H357V651ZM484 778L491 778V778H484ZM357 905L357 912L357 912L357 905ZM230 778L223 778L223 778L230 778ZM357 651L357 658C423.274 658 477 711.726 477 778H484H491C491 703.994 431.006 644 357 644L357 651ZM484 778L477 778C477 844.274 423.274 898 357 898L357 905L357 912C431.006 912 491 852.006 491 778L484 778ZM357 905V898C290.726 898 237 844.274 237 778L230 778L223 778C223 852.006 282.994 912 357 912V905ZM230 778H237C237 711.726 290.726 658 357 658V651V644C282.994 644 223 703.994 223 778H230ZM356.5 679V672C298.234 672 251 719.234 251 777.5H258H265C265 726.966 305.966 686 356.5 686V679ZM258 777.5H251C251 835.766 298.234 883 356.5 883V876V869C305.966 869 265 828.034 265 777.5H258ZM356.5 876V883C414.766 883 462 835.766 462 777.5H455H448C448 828.034 407.034 869 356.5 869V876ZM455 777.5H462C462 719.234 414.766 672 356.5 672V679V686C407.034 686 448 726.966 448 777.5H455Z" fill="black" mask="url(#path-6-inside-1_1564_670)"/>
<path d="M359.745 768.799L418.904 697.396L424.295 701.861L364.722 773.764L457.325 765.079L457.979 772.049L365.129 780.756L436.534 839.915L432.067 845.306L361.431 786.782L369.915 877.23L362.946 877.884L354.354 786.278L295.421 857.411L290.03 852.944L348.549 782.312L256.861 790.911L256.208 783.941L347.649 775.364L276.519 716.432L280.984 711.041L352.884 770.609L344.084 676.767L351.053 676.113L359.745 768.799Z" fill="black"/>
<circle cx="356.748" cy="777.748" r="15.2476" fill="white" stroke="black" stroke-width="7"/>
<path d="M514 823C535.539 823 553 840.461 553 862C553 883.539 535.539 901 514 901C492.461 901 475 883.539 475 862C475 840.461 492.461 823 514 823ZM513.748 840C501.737 840 492 849.737 492 861.748C492 873.759 501.737 883.495 513.748 883.495C525.758 883.495 535.495 873.758 535.495 861.748C535.495 849.737 525.759 840 513.748 840ZM514.5 854C519.194 854 523 857.806 523 862.5C523 867.194 519.194 871 514.5 871C509.806 871 506 867.194 506 862.5C506 857.806 509.806 854 514.5 854Z" fill="white" stroke="black" stroke-width="6"/>
</svg>
