<svg width="1300" height="1000" viewBox="0 0 1300 1000" fill="none" xmlns="http://www.w3.org/2000/svg"><path fill-rule="evenodd" clip-rule="evenodd" d="M989.42 336.086c-3.769 1.408-10.806 1.91-12.648 1.914 0 0-8.301-.069-13.136-1.914-5.448-2.079-8.483-4.109-12.162-8.575-2.489-3.022-4.438-8.223-5.321-10.853-.362-1.079-.612-2.188-.802-3.31l-4.093-24.154s-.495-3.492-.486-5.742c.019-5.351.745-8.493 2.918-13.398 2.233-5.038 4.185-7.735 8.271-11.484 4.355-3.996 7.495-5.742 13.135-7.625 4.379-1.462 7.051-1.907 11.676-1.945 4.962.167 6.81.479 11.547 1.945 4.741 1.577 9.581 4.373 13.261 7.625 3.69 3.252 6.26 7.101 8.27 11.484s2.92 8.615 2.92 13.398c0 1.803-.2 3.959-.49 5.742l-4.86 23.833c-.25 1.229-.57 2.441-1.01 3.617-1.04 2.793-3.2 8.177-5.31 10.829-2.929 3.676-7.171 6.929-11.68 8.613Zm-2.459-6.699c-3.036 1.186-8.705 1.609-10.189 1.613 0 0-6.687-.058-10.582-1.613-4.388-1.752-6.833-3.462-9.797-7.226-1.948-2.474-3.485-6.68-4.223-8.951-.338-1.039-.567-2.105-.742-3.184l-3.265-20.155s-.398-2.943-.391-4.839c.015-4.509.6-7.156 2.351-11.29 1.798-4.246 3.371-6.518 6.662-9.677 3.509-3.368 6.038-4.839 10.581-6.426 3.528-1.232 5.68-1.607 9.406-1.639 3.997.141 5.486.403 9.302 1.639 3.819 1.329 7.717 3.685 10.684 6.426 2.967 2.74 5.042 5.983 6.662 9.677s2.35 7.26 2.35 11.29c0 1.52-.16 3.337-.39 4.839l-3.87 19.862c-.24 1.184-.53 2.351-.94 3.486-.866 2.407-2.555 6.742-4.204 8.91-2.356 3.098-5.774 5.839-9.405 7.258ZM1056 376c17.52 36.035 23.43 91.5 23.43 93.162 0 43.838-3.65 103.208-3.65 103.208l1.52 32.227c.59 12.506-11.24 21.922-23.29 18.546a.936.936 0 0 1-.65-.657l-5.86-22.986L1054 718l-2 156.5 16.2 7.658A19.735 19.735 0 0 1 1079.5 900H1300v100H0V900h871.496v-1.093a20.001 20.001 0 0 1 12.402-18.501L899.496 874l-1.5-156L911.5 492.5l-79 43-41.062 2.074a11.915 11.915 0 0 1-11.631-7.397c-3.613-8.852 1.356-18.867 10.591-21.345L814 502.5l51.594-38.096s14.838-53.082 30.279-89.186c15.902-27.681 45.969-33.623 82.944-33.197 38.123.434 62.133 4.804 77.183 33.979Zm7.86 511.811A13.546 13.546 0 0 1 1071.5 900h-76.891l1.991-23.979a4.287 4.287 0 0 1-4.316-4.31l.726-127.575-11.912-145.779a4.503 4.503 0 0 0-8.974-.044l-13.379 145.808 2.158 126.82a4.964 4.964 0 0 1-4.993 5.049L958 900h-77.833l.065-3.851a10 10 0 0 1 6.052-9.022l21.216-9.112-2.5-161.007 9.5-143.153 3-55.855 3-30.5 4.898-68.066a1.32 1.32 0 0 0-2.609-.351L910 483.5l-80.218 43.993-37.424 2.694a6.293 6.293 0 0 1-2.424-12.252L817 509l56-39.5s13.648-53.646 28.22-88.985c15.005-27.095 42.378-30.911 77.27-30.495 35.97.426 58.76 1.938 72.96 30.495 16.54 35.272 20.98 91.955 20.98 91.955l-3.44 101.023 2.16 30.937c.46 6.596-4.77 12.2-11.38 12.2a.562.562 0 0 1-.55-.425L1048 573.493l-8.49-104.402-6.35-49.12a2.244 2.244 0 0 0-2.22-1.96 2.252 2.252 0 0 0-2.25 2.425L1034 488l3 30 8.84 199.02-2.16 161.021 20.18 9.77ZM988.996 882l-1.5 18h-22.5l-1.5-18a9.97 9.97 0 0 0 4.439-8.408L966.496 746l9.5-125 9 125v128a10 10 0 0 0 4 8Z" fill="#000"/></svg>