<svg width="1300" height="1000" viewBox="0 0 1300 1000" fill="none" xmlns="http://www.w3.org/2000/svg"><g clip-path="url(#a)"><path d="M0 900h1300v100H0V900Zm872.074-430.838c0-1.662 5.902-57.128 23.43-93.162 15.049-29.175 39.06-33.545 77.179-33.98 36.977-.425 67.037 5.517 82.947 33.198 15.44 36.103 21.28 91.186 21.28 91.186l-3.81 106.336 2.14 32.258c.82 12.226-10.68 21.6-22.49 18.345a2.236 2.236 0 0 1-1.57-1.595l-5.68-22.248 8 118.5-1.5 156 15.6 6.406a19.988 19.988 0 0 1 12.4 18.5V900h-93.496l1.5-18a9.97 9.97 0 0 1-4.439-8.408L985.004 746l-9.5-125-9 125v128c0 3.147-1.482 6.111-4 8l1.5 18H872a19.734 19.734 0 0 1 11.301-17.842l16.203-7.658-2-156.5 6.5-118.5-5.869 22.986a.919.919 0 0 1-.642.657c-12.056 3.375-23.881-6.04-23.292-18.546l1.519-32.228s-3.646-59.369-3.646-103.207Z" fill="#000"/><path d="M878.07 472.47s5.44-56.684 21.98-91.955c14.201-28.558 36.989-32.07 72.96-32.495 34.89-.417 63.26 5.4 78.27 32.495 14.57 35.339 20.08 89.255 20.08 89.255l-3.59 104.085 1.44 31.419c.3 6.699-5.03 12.309-11.73 12.349a1.48 1.48 0 0 1-1.45-1.132l-10.31-42.999-10.18-105.412-6.89-48.962a1.263 1.263 0 0 0-1.26-1.098c-.75 0-1.33.64-1.27 1.386L1032 487.5l3 30.5 3 55.855 9.5 143.152-1.5 161.008 21.22 9.112a10.017 10.017 0 0 1 6.05 9.021l.06 3.852H992.5l2.09-22.01a5.004 5.004 0 0 1-5.033-5.05l1.198-128.82-12.532-147.284a2.86 2.86 0 0 0-5.698.01L960.49 744.135l-.242 129.575a4.319 4.319 0 0 1-4.348 4.31l1.991 21.98H878c0-5.192 2.968-9.927 7.641-12.19l20.179-9.77-2.16-161.02L911 573.5l2.5-55.5 3-30 5.395-68.665a1.228 1.228 0 0 0-2.442-.253l-6.463 50.008-9.49 104.402-10.216 43.652a.63.63 0 0 1-.613.486c-7.175 0-12.898-5.99-12.572-13.158l1.411-30.98-3.45-101.022h.01Z" fill="#fff"/><path d="M1005.13 261.625c2.01 2.433 3.61 5.124 4.95 8.053 2.01 4.384 2.92 8.615 2.92 13.398 0 1.804-.2 3.959-.49 5.742l-4.86 23.834a25.042 25.042 0 0 1-1.01 3.616c-1.04 2.794-3.21 8.178-5.32 10.83-2.921 3.676-7.163 6.929-11.671 8.613-3.769 1.407-10.807 1.909-12.649 1.914 0 0-8.301-.07-13.135-1.914-5.448-2.079-8.483-4.109-12.162-8.575-2.49-3.022-4.438-8.223-5.322-10.854-.362-1.078-.611-2.188-.801-3.309l-4.093-24.155s-.495-3.492-.487-5.742c.02-5.351.746-8.492 2.919-13.398 1.508-3.405 2.889-5.74 4.887-8.053h56.324Z" fill="#000"/><path d="M987.189 329.387c-3.036 1.186-8.705 1.609-10.189 1.613 0 0-6.687-.059-10.581-1.613-4.389-1.752-6.834-3.463-9.797-7.226-1.948-2.474-3.485-6.681-4.224-8.951-.338-1.039-.567-2.106-.741-3.184l-3.265-20.155s-.399-2.943-.392-4.839c.016-4.509.601-7.157 2.351-11.291 1.799-4.245 3.371-6.518 6.663-9.677 3.508-3.368 6.037-4.839 10.581-6.426 3.527-1.232 5.68-1.607 9.405-1.638 3.998.141 5.487.403 9.302 1.638 3.819 1.33 7.718 3.686 10.685 6.426 2.966 2.74 5.043 5.984 6.663 9.678 1.62 3.693 2.35 7.259 2.35 11.29 0 1.52-.16 3.336-.39 4.839l-3.88 19.862a24.563 24.563 0 0 1-.93 3.486c-.868 2.406-2.556 6.741-4.205 8.91-2.357 3.097-5.774 5.839-9.406 7.258Z" fill="#fff"/><path d="M942.998 264.625H1009c0 9.388-7.61 17-17.002 17h-32c-9.389 0-17-7.612-17-17Z" fill="#000"/><path d="M950.998 268.625H1001c0 3.313-2.688 6-6.002 6h-38a6 6 0 0 1-6-6Z" fill="#fff"/><path d="m1008 268.625 4.82-17.679c.67-2.46-.62-5.03-2.99-5.966l-31.996-12.631a5.007 5.007 0 0 0-3.672 0l-31.997 12.631a4.999 4.999 0 0 0-2.988 5.966l4.821 17.679H1008Z" fill="#000"/><path d="m1003 261.625 3-11-30.002-11-30 11 3 11H1003Z" fill="#fff"/></g><defs><clipPath id="a"><path fill="#fff" d="M0 0h1300v1000H0z"/></clipPath></defs></svg>