<svg width="1300" height="1000" viewBox="0 0 1300 1000" fill="none" xmlns="http://www.w3.org/2000/svg"><path d="m740.007 564.087-24.376-99.364a3 3 0 0 1 2.304-3.563l77.089-16.531a2.999 2.999 0 0 1 3.562 2.304l20.815 97.06a3 3 0 0 1-2.305 3.562l-77.089 16.532Z" fill="#fff"/><path d="m704.069 490.093 11.732-6.65a3 3 0 0 1 4.389 1.878l19.817 78.766L792 552.937c3.415-.697 2.3 1.916-.797 3.513l-42.04 20.677a3 3 0 0 1-4.04-1.288l-42.277-81.737a2.998 2.998 0 0 1 1.223-4.009Z" fill="#fff"/><path d="m740.007 564.087-24.376-99.364a3 3 0 0 1 2.304-3.563l77.089-16.531a2.999 2.999 0 0 1 3.562 2.304l20.815 97.06a3 3 0 0 1-2.305 3.562l-77.089 16.532Zm0 0L792 552.937c3.415-.697 2.3 1.916-.797 3.513l-42.04 20.677a3 3 0 0 1-4.04-1.288l-42.277-81.737a2.998 2.998 0 0 1 1.223-4.009l11.732-6.65a3 3 0 0 1 4.389 1.878l19.817 78.766Z" stroke="#000" stroke-width="7"/><path d="M0 900h1300v100H0V900Zm1079.43-430.838c0-1.662-5.91-57.127-23.43-93.162-15.05-29.175-39.06-33.545-77.183-33.979-36.975-.426-67.042 5.516-82.944 33.197-15.441 36.104-30.279 89.186-30.279 89.186L814 502.5l-23.602 6.332c-9.235 2.478-14.204 12.493-10.591 21.345a11.915 11.915 0 0 0 11.631 7.397L832.5 535.5l79-43L897.996 718l1.5 156-15.598 6.406a20.001 20.001 0 0 0-12.402 18.501V900h93.5l-1.5-18a9.97 9.97 0 0 0 4.439-8.408L966.496 746l9.5-125 9 125v128a10 10 0 0 0 4 8l-1.5 18h92.004c0-7.632-4.4-14.58-11.3-17.842L1052 874.5l2-156.5-6.5-118.5 5.86 22.986c.09.318.33.569.65.657 12.05 3.376 23.88-6.04 23.29-18.546l-1.52-32.227s3.65-59.37 3.65-103.208Z" fill="#000"/><path d="M1072.43 472.47s-4.44-56.684-20.98-91.955c-14.2-28.558-36.99-30.07-72.96-30.495-34.892-.417-62.265 3.4-77.27 30.495C886.648 415.854 873 469.5 873 469.5L817 509l-27.066 8.934a6.293 6.293 0 0 0 2.424 12.252l37.424-2.694L910 483.5l12.789-64.418a1.318 1.318 0 0 1 2.609.352L920.5 487.5l-3 30.5-3 55.855-9.5 143.152 2.5 161.008-21.216 9.112a10 10 0 0 0-6.052 9.021l-.065 3.852H958l-2.09-24.01a4.965 4.965 0 0 0 4.993-5.049l-2.158-126.821 13.379-145.808a4.504 4.504 0 0 1 8.974.045l11.912 145.778-.726 127.575a4.286 4.286 0 0 0 4.316 4.31L994.609 900h76.891c0-5.192-2.97-9.927-7.64-12.19l-20.18-9.77 2.16-161.02L1037 518l-3-30-5.31-67.565c-.1-1.311.94-2.43 2.25-2.424 1.13.005 2.08.843 2.22 1.96l6.35 49.119 8.49 104.402 11.22 42.713c.06.25.29.425.55.425 6.61 0 11.84-5.604 11.38-12.2l-2.16-30.938 3.44-101.022Z" fill="#fff"/><path d="M989.42 336.086c-3.769 1.408-10.806 1.91-12.648 1.914 0 0-8.301-.069-13.136-1.914-5.448-2.079-8.483-4.109-12.162-8.575-2.489-3.022-4.438-8.223-5.321-10.853-.362-1.079-.612-2.188-.802-3.31l-4.093-24.154s-.495-3.492-.486-5.742c.019-5.351.745-8.493 2.918-13.398 2.233-5.038 4.185-7.735 8.271-11.484 4.355-3.996 7.495-5.742 13.135-7.625 4.379-1.462 7.051-1.907 11.676-1.945 4.962.167 6.81.478 11.547 1.945 4.741 1.577 9.581 4.373 13.261 7.625 3.69 3.252 6.26 7.101 8.27 11.484s2.92 8.615 2.92 13.398c0 1.803-.2 3.959-.49 5.742l-4.86 23.833c-.25 1.229-.57 2.441-1.01 3.617-1.04 2.793-3.2 8.177-5.31 10.829-2.929 3.676-7.171 6.929-11.68 8.613Z" fill="#000"/><path d="M986.961 329.387c-3.036 1.186-8.705 1.609-10.189 1.613 0 0-6.687-.058-10.582-1.613-4.388-1.752-6.833-3.462-9.797-7.226-1.948-2.474-3.485-6.68-4.223-8.951-.338-1.039-.567-2.105-.742-3.184l-3.265-20.155s-.398-2.943-.391-4.839c.015-4.509.6-7.156 2.351-11.29 1.798-4.246 3.371-6.518 6.662-9.677 3.509-3.368 6.038-4.839 10.581-6.426 3.528-1.232 5.68-1.607 9.406-1.639 3.997.141 5.486.403 9.302 1.639 3.819 1.329 7.717 3.685 10.684 6.426 2.967 2.74 5.042 5.983 6.662 9.677s2.35 7.26 2.35 11.29c0 1.52-.16 3.337-.39 4.839l-3.87 19.862c-.24 1.184-.53 2.351-.94 3.486-.866 2.407-2.555 6.742-4.204 8.91-2.356 3.098-5.774 5.839-9.405 7.258Z" fill="#fff"/></svg>