<svg width="1300" height="1000" viewBox="0 0 1300 1000" fill="none" xmlns="http://www.w3.org/2000/svg"><path fill-rule="evenodd" clip-rule="evenodd" d="M953.061 338.831c-1.835-.165-8.802-1.278-12.433-3.009-4.345-2.07-8.288-5.681-10.881-9.598-1.871-2.826-3.555-8.377-4.349-11.251a24.201 24.201 0 0 1-.693-3.691l-2.768-24.167c-.13-1.801-.141-3.965.015-5.762.419-4.765 1.692-8.901 4.076-13.093 2.384-4.191 5.288-7.801 9.24-10.719 3.952-2.918 9.017-5.282 13.877-6.44 4.846-1.048 6.715-1.197 11.673-.931 4.604.44 7.227 1.117 11.462 2.955 5.455 2.367 8.43 4.38 12.42 8.741 3.744 4.091 5.454 6.947 7.238 12.161 1.738 5.076 2.187 8.269 1.74 13.601-.188 2.242-.985 5.678-.985 5.678l-6.182 23.706c-.287 1.101-.633 2.184-1.088 3.227-1.109 2.544-3.503 7.554-6.247 10.348-4.054 4.129-7.254 5.886-12.863 7.482-4.977 1.417-13.252.762-13.252.762Zm.61-6.973c-1.478-.133-7.089-1.049-10.01-2.495-3.494-1.73-6.659-4.759-8.737-8.05-1.454-2.304-2.758-6.77-3.409-9.242a23.629 23.629 0 0 1-.63-3.555l-2.128-20.124c-.099-1.517-.101-3.34.031-4.854.353-4.016 1.392-7.504 3.326-11.043 1.935-3.538 4.287-6.589 7.481-9.06s7.283-4.478 11.203-5.47c3.909-.898 5.415-1.03 9.41-.822 3.708.357 5.82.918 9.227 2.453 4.388 1.976 6.779 3.662 9.98 7.323 3.004 3.434 4.373 5.835 5.794 10.221 1.384 4.271 1.736 6.959 1.358 11.453-.158 1.889-.812 4.786-.812 4.786l-5.009 19.794c-.268 1.059-.589 2.101-1.016 3.107-.933 2.198-2.831 6.254-4.988 8.549-3.28 3.491-5.865 4.982-10.389 6.344-4.015 1.209-10.682.685-10.682.685Z" fill="#000"/><path fill-rule="evenodd" clip-rule="evenodd" d="m900 875.001-14.09 6.232A20 20 0 0 0 874 899.524V900H0v100h1300V900h-290v-14.999a6.343 6.343 0 0 0 5.25-7.036L998.5 743.501l2.5-119c8.79 0 16.73-5.257 20.16-13.35l13.84-32.65 10-61.5s-11.47-93.965-29-130c-13.38-27.5-32.128-50.205-69-47-11.5 1-16 10.998-18.5 17.499-2.5 6.501-14.5 114.001-18 202.501-.435 11-11.5 157-11.5 157l1 158ZM1002.5 900v-23.022c2.93 0 5.19-2.556 4.85-5.46L992 743.414l2-115.583 8.88-109.595a7.448 7.448 0 0 0-.32-2.853l-29.776-95.157a1.928 1.928 0 0 1 3.663-1.201L1010 516.778l-5 60.034-3.43 39.187c-.04.449.32.835.77.835 6.16 0 11.72-3.682 14.13-9.353l13.03-30.669 9.5-60.034s-14.32-102.354-33-136.561c-15.465-28.324-37.861-33.891-51.367-34.387-7.516-.276-15.416 2.878-17.799 10.012-5.749 17.21-13.932 66.148-17.334 204.46L949 878.978l-19.974 7.965a9.999 9.999 0 0 0-6.264 10.087L923 900h79.5Zm-86.5 0 .383-5.942a15 15 0 0 1 9.546-13.019l15.571-6.038-14.5-158-12-140-9 140 2 161.94-19.881 8a10 10 0 0 0-6.106 7.489L881 900h35Z" fill="#000"/></svg>