<svg width="1300" height="1000" viewBox="0 0 1300 1000" fill="none" xmlns="http://www.w3.org/2000/svg"><path d="M0 900h1300v100H0V900Zm1079.43-430.838c0-1.662-5.91-57.127-23.43-93.162-15.05-29.175-39.06-33.545-77.182-33.979-36.975-.426-67.042 5.516-82.944 33.197-15.442 36.104-30.279 89.186-30.279 89.186L814.001 502.5l-23.602 6.332c-9.235 2.478-14.204 12.493-10.591 21.345a11.913 11.913 0 0 0 11.631 7.397l41.062-2.074 79-43L897.997 718l1.5 156-15.599 6.406a20.002 20.002 0 0 0-12.401 18.501V900h93.5l-1.5-18a9.97 9.97 0 0 0 4.439-8.408L966.497 746l9.5-125 9 125v128a10 10 0 0 0 4 8l-1.5 18h92.003c0-7.632-4.4-14.58-11.3-17.842L1052 874.5l2-156.5-6.5-118.5 5.87 22.986c.08.318.32.569.64.657 12.05 3.376 23.88-6.04 23.29-18.546l-1.52-32.227s3.65-59.37 3.65-103.208Z" fill="#000"/><path d="M1072.43 472.47s-4.44-56.683-20.98-91.955c-14.2-28.557-36.99-30.07-72.959-30.495-34.892-.416-62.265 3.4-77.27 30.495-14.572 35.339-28.22 88.985-28.22 88.985l-56 39.5-27.066 8.935a6.293 6.293 0 0 0 2.424 12.252l37.424-2.694 80.218-43.993 12.789-64.418a1.318 1.318 0 0 1 2.609.352l-4.898 68.066-3 30.5-3 55.855-9.5 143.153 2.5 161.007-21.216 9.112a9.998 9.998 0 0 0-6.052 9.022l-.065 3.851h77.833l-2.09-24.01a4.964 4.964 0 0 0 4.993-5.049l-2.158-126.821 13.379-145.808a4.504 4.504 0 0 1 8.974.045l11.912 145.778-.726 127.575a4.286 4.286 0 0 0 4.316 4.31L994.61 900h76.89c0-5.192-2.97-9.927-7.64-12.189l-20.18-9.771 2.16-161.02L1037 518l-3-30-5.31-67.565c-.1-1.311.94-2.43 2.25-2.424 1.13.005 2.08.843 2.22 1.96l6.35 49.119 8.49 104.403 11.22 42.712c.06.251.29.425.55.425 6.61 0 11.84-5.604 11.38-12.2l-2.16-30.937 3.44-101.023Z" fill="#fff"/><path d="M989.422 336.086c-3.769 1.408-10.806 1.91-12.649 1.914 0 0-8.3-.069-13.135-1.914-5.448-2.079-8.483-4.109-12.162-8.575-2.489-3.022-4.438-8.223-5.321-10.853-.362-1.079-.612-2.188-.802-3.31l-4.093-24.154s-.495-3.492-.486-5.742c.019-5.351.745-8.493 2.918-13.398 2.233-5.038 4.185-7.735 8.271-11.484 4.355-3.996 7.494-5.742 13.135-7.625 4.379-1.462 7.051-1.907 11.675-1.945 4.963.167 6.811.478 11.548 1.945 4.741 1.577 9.581 4.373 13.259 7.625 3.69 3.252 6.26 7.101 8.27 11.484s2.92 8.615 2.92 13.398c0 1.803-.2 3.959-.48 5.742l-4.87 23.833c-.25 1.229-.57 2.441-1.01 3.617-1.04 2.793-3.2 8.177-5.31 10.829-2.927 3.676-7.17 6.929-11.678 8.613Z" fill="#000"/><path d="M987.189 329.387c-3.036 1.186-8.705 1.609-10.189 1.613 0 0-6.687-.058-10.581-1.613-4.389-1.752-6.834-3.462-9.797-7.226-1.948-2.474-3.485-6.68-4.224-8.951-.338-1.039-.567-2.105-.741-3.184l-3.265-20.155s-.399-2.943-.392-4.839c.016-4.509.601-7.156 2.351-11.29 1.799-4.246 3.371-6.518 6.663-9.677 3.508-3.368 6.037-4.839 10.581-6.426 3.527-1.232 5.68-1.607 9.405-1.639 3.998.141 5.487.403 9.302 1.639 3.819 1.329 7.718 3.685 10.685 6.426 2.966 2.74 5.043 5.983 6.663 9.677s2.35 7.26 2.35 11.29c0 1.52-.16 3.337-.39 4.839l-3.88 19.862a24.563 24.563 0 0 1-.93 3.486c-.868 2.407-2.556 6.742-4.205 8.91-2.357 3.098-5.774 5.839-9.406 7.258Z" fill="#fff"/><path fill-rule="evenodd" clip-rule="evenodd" d="M944.002 264.97c.183 9.23 7.723 16.655 16.996 16.655h32c9.272 0 16.812-7.425 16.992-16.654l3.83-14.025c.67-2.46-.62-5.03-2.99-5.966l-31.996-12.631a5.005 5.005 0 0 0-3.671 0l-31.998 12.631a5 5 0 0 0-2.988 5.966l3.825 14.024Zm7.996 3.655H1002c0 3.314-2.688 6-6.002 6h-38a6 6 0 0 1-6-6Z" fill="#000"/><path d="m1004 261.625 3-11-30.002-11-30 11 3 11H1004Z" fill="#fff"/></svg>