<svg width="1300" height="1000" viewBox="0 0 1300 1000" fill="none" xmlns="http://www.w3.org/2000/svg"><path d="M0 900h1300v100H0V900Zm880.91-18.768L895 875l-1-158s11.065-146 11.5-157c3.5-88.5 17-190 20.5-203.5s9.5-16.5 21-16.5c30 0 49.165 16.5 64 47 17.53 36.035 29 130 29 130l-10 61.5-13.84 32.65A21.897 21.897 0 0 1 996 624.5l-2.5 119 16.63 133.554c.46 3.689-2.41 6.946-6.13 6.946v16H869v-.477a20 20 0 0 1 11.91-18.291Z" fill="#000"/><path d="M881.209 886.456 902 877.94 900 717l10-141 12 141 14.5 158-15.571 6.038a15 15 0 0 0-9.546 13.019L911 900h-36v-4.29a10 10 0 0 1 6.209-9.254Z" fill="#fff"/><path d="M922.789 887.016 944 876.978l-16-160.08-13.5-156.596c3.497-142.189 12.048-190.328 17.812-206.533 2.269-6.38 9.33-8.959 16.098-8.737 13.597.447 37.553 5.812 53.59 35.185 18.68 34.206 32 136.56 32 136.56l-9.5 60.034-11.95 28.141a19.512 19.512 0 0 1-17.959 11.881.975.975 0 0 1-.969-1.084L998 576.811l7-60.034-34.658-98.088a1.452 1.452 0 0 0-2.752.917l29.973 95.776c.289.922.397 1.89.319 2.853L989 627.83l-2 115.583 15.35 128.104c.34 2.905-1.92 5.461-4.85 5.461V900H917l.069-4.112a10 10 0 0 1 5.72-8.872Z" fill="#fff"/><path d="M959.151 337.134c-3.718 1.027-10.483.921-12.243.772 0 0-7.924-.756-12.387-2.914-5.03-2.432-7.759-4.617-10.899-9.175-2.145-3.114-3.578-8.296-4.191-10.85a20.01 20.01 0 0 1-.465-3.071l-1.891-23.414s-.18-3.367.017-5.508c.467-5.094 1.424-8.025 3.911-12.516 2.555-4.612 4.646-7.018 8.863-10.248 4.496-3.444 7.641-4.846 13.187-6.17 4.306-1.029 6.896-1.231 11.316-.883 4.727.572 6.466 1.022 10.868 2.811 4.396 1.896 8.785 4.96 12.031 8.363 3.245 3.402 5.384 7.281 6.937 11.622s2.064 8.445 1.665 13c-.152 1.717-.523 3.753-.946 5.427l-6.668 22.37a22.188 22.188 0 0 1-1.211 3.205c-1.214 2.552-3.758 7.573-6.019 9.947-3.102 3.257-7.427 6.003-11.875 7.232Z" fill="#000"/><path d="M957.292 332.211c-3.128.916-8.814.841-10.293.714 0 0-6.659-.645-10.405-2.537-4.221-2.132-6.51-4.053-9.137-8.066-1.754-2.68-2.931-7.106-3.458-9.407a20.165 20.165 0 0 1-.429-3.017l-1.515-20.5s-.142-2.97.029-4.86c.407-4.496 1.219-7.085 3.322-11.053 2.16-4.077 3.924-6.205 7.478-9.067 3.788-3.05 6.436-4.296 11.101-5.48 3.623-.919 5.8-1.104 9.515-.809 3.972.492 5.433.884 9.128 2.451 3.69 1.661 7.372 4.353 10.09 7.346 2.719 2.993 4.507 6.41 5.8 10.236 1.294 3.825 1.713 7.446 1.365 11.465-.132 1.516-.45 3.313-.81 4.792l-5.618 19.589a22.281 22.281 0 0 1-1.148 3.159c-1.054 2.298-3.151 6.579-5.013 8.631-2.616 2.882-6.259 5.316-10.002 6.413Z" fill="#fff"/></svg>