<svg width="1300" height="1000" viewBox="0 0 1300 1000" fill="none" xmlns="http://www.w3.org/2000/svg"><path fill-rule="evenodd" clip-rule="evenodd" d="M976.772 338c1.842-.004 8.879-.506 12.648-1.914 4.509-1.684 8.751-4.937 11.68-8.613 2.11-2.652 4.27-8.036 5.31-10.829.44-1.176.76-2.388 1.01-3.617l4.86-23.833c.29-1.783.49-3.939.49-5.742 0-4.783-.91-9.015-2.92-13.398-2.01-4.383-4.58-8.232-8.27-11.484-3.68-3.252-8.52-6.048-13.261-7.625-4.737-1.466-6.585-1.778-11.547-1.945-4.625.038-7.297.483-11.676 1.945-5.64 1.883-8.78 3.629-13.135 7.625-4.086 3.749-6.038 6.446-8.271 11.484-2.173 4.905-2.899 8.047-2.918 13.398-.009 2.25.486 5.742.486 5.742l4.093 24.154c.19 1.122.44 2.231.802 3.31.883 2.63 2.832 7.831 5.321 10.853 3.679 4.466 6.714 6.496 12.162 8.575 4.835 1.845 13.136 1.914 13.136 1.914Zm0-7c1.484-.004 7.153-.427 10.189-1.613 3.631-1.419 7.049-4.16 9.405-7.258 1.649-2.168 3.338-6.503 4.204-8.91.41-1.135.7-2.302.94-3.486l3.87-19.862c.23-1.502.39-3.319.39-4.839 0-4.03-.73-7.596-2.35-11.29-1.62-3.694-3.695-6.937-6.662-9.677-2.967-2.741-6.865-5.097-10.684-6.426-3.816-1.236-5.305-1.498-9.302-1.639-3.726.032-5.878.407-9.406 1.639-4.543 1.587-7.072 3.058-10.581 6.426-3.291 3.159-4.864 5.431-6.662 9.677-1.751 4.134-2.336 6.781-2.351 11.29-.007 1.896.391 4.839.391 4.839l3.265 20.155c.175 1.079.404 2.145.742 3.184.738 2.271 2.275 6.477 4.223 8.951 2.964 3.764 5.409 5.474 9.797 7.226 3.895 1.555 10.582 1.613 10.582 1.613Zm102.658 138.162c0-1.662-5.91-57.127-23.43-93.162-15.05-29.175-39.06-33.545-77.183-33.979-36.975-.426-67.042 5.516-82.944 33.197-15.441 36.104-30.279 89.186-30.279 89.186L814 502.5l-11.529 3.093 3.534-6.121a3 3 0 0 0-1.098-4.098l-51.095-29.5a3 3 0 0 0-4.098 1.098l-19.5 33.775a3 3 0 0 0 1.098 4.098l51.095 29.5c.168.097.341.176.518.237a11.908 11.908 0 0 0 8.513 2.992L832.5 535.5l79-43L897.996 718l1.5 156-15.598 6.406a20.001 20.001 0 0 0-12.402 18.501V900H0v100h1300V900h-220.5c0-7.632-4.4-14.58-11.3-17.842L1052 874.5l2-156.5-6.5-118.5 5.86 22.986c.09.318.33.569.65.657 12.05 3.376 23.88-6.04 23.29-18.546l-1.52-32.227s3.65-59.37 3.65-103.208Zm-300.807 54.915c.044-6.907 4.634-13.329 11.775-15.245l2.509-.673 5.036-8.723-44.167-25.5-15.5 26.847 40.347 23.294ZM1071.5 900c0-5.192-2.97-9.927-7.64-12.189l-20.18-9.77 2.16-161.021L1037 518l-3-30-5.31-67.564a2.252 2.252 0 0 1 2.25-2.425c1.13.006 2.08.843 2.22 1.96l6.35 49.12 8.49 104.402 11.22 42.712c.06.251.29.425.55.425 6.61 0 11.84-5.604 11.38-12.2l-2.16-30.937 3.44-101.023s-4.44-56.683-20.98-91.955c-14.2-28.557-36.99-30.069-72.96-30.495-34.892-.416-62.265 3.4-77.27 30.495C886.648 415.854 873 469.5 873 469.5L817 509l-27.066 8.935a6.293 6.293 0 0 0 2.424 12.252l37.424-2.694L910 483.5l12.789-64.417a1.318 1.318 0 0 1 2.609.351L920.5 487.5l-3 30.5-3 55.855-9.5 143.153 2.5 161.007-21.216 9.112a10 10 0 0 0-6.052 9.022l-.065 3.851H958l-2.09-24.01a4.964 4.964 0 0 0 4.993-5.049l-2.158-126.82 13.379-145.808a4.504 4.504 0 0 1 8.974.044l11.912 145.779-.726 127.575a4.287 4.287 0 0 0 4.316 4.31L994.609 900h76.891Zm-84.004 0 1.5-18a10 10 0 0 1-4-8V746l-9-125-9.5 125 1.439 127.592a9.97 9.97 0 0 1-4.439 8.408l1.5 18h22.5Z" fill="#000"/></svg>