<svg id="Capa_1" data-name="Capa 1" xmlns="http://www.w3.org/2000/svg" viewBox="0 0 1300 1000"><defs><style>.cls-1{fill:#fff;}</style></defs><title>2-landmarks-expand</title><path class="cls-1" d="M1242.51,456.52l-.45,3-1.88,12.22-3.77,24.44-1.26,8.16-2.5,16.28-1.49,9.15-2.25,13.83h-6.34l1,2.45.06.13,4,9.61,5.41,12.88,6.2,14.76-3.16,1.91-2.06-2-4.29-4.07-16.8-16-1.78-12.46-.82-5.74.1-1.89,4.39-81.53h0l0-.54-.16-.48-10.29-33.57,0-.13-7.34-25.17h-8.62l-.06,3.14-.29,16.77-.39,16.75c-.12,5.59-.32,11.18-.48,16.77l-.49,16.77v.21l0,.32,2.23,19.35,2.1,19.36,2.16,19.36,2.33,19.19,1,19c.33,6.42.67,12.84,1.07,19.25.72,12.83,1.66,25.65,2,38.51l2.92,77.08.74,19.27c.15,3.21.16,6.43.25,9.64l.2,9.65.76,38.58c.48,24.88,1.09,49.77,1.66,74.64l-6.16.1,1.57,3.49,6.83,15.18.48,1,1.16.47L1241,888.14l-.82,2.91-63.58-.42-3.63,0h-1.31L1170.8,874c-.18-2-.32-4.12-.43-6.18-.1-1.66-.15-3.31-.23-5l-.08-3.42-.09-1.78,0-1.09h0l-5.76-63.77-2.78-32.44L1160,744.11l-1.29-16.22c-.11-1.36-.18-2.72-.35-4.06l-.48-4.05-1-8.08L1155,695.53l-3.67-32.35c-2.35-21.58-4.71-43.17-6.72-64.79l-.27-2.82h-13.72l-.27,2.82c-2,21.62-4.37,43.21-6.72,64.79L1120,695.53l-1.91,16.17-1,8.08-.48,4.05c-.17,1.34-.24,2.7-.35,4.06L1115,744.11l-1.37,16.23-2.77,32.44-5.77,63.77h0l0,1.09-.09,1.78-.08,3.42c-.08,1.67-.13,3.32-.22,5-.12,2.06-.26,4.13-.44,6.18l-.84,16.58h-1.31l-3.62,0-63.59.42-.82-2.91,30.87-12.43,1.16-.47.48-1,6.83-15.18,1.57-3.49-6.16-.1c.57-24.87,1.18-49.76,1.66-74.64l.76-38.58.2-9.65c.09-3.21.1-6.43.25-9.64l.74-19.27,2.92-77.08c.34-12.86,1.28-25.68,2-38.51.4-6.41.74-12.83,1.07-19.25l1-19,2.33-19.19,2.16-19.36,2.1-19.36,2.24-19.35,0-.32V472l-.5-16.77c-.16-5.59-.36-11.18-.48-16.77l-.39-16.75-.29-16.77-.06-3.14h-8.61L1070.55,427l0,.13-10.29,33.57-.16.48,0,.54h0l4.39,81.53.1,1.89-.82,5.74L1062,563.35l-16.8,16-4.28,4.07-2.07,2-3.16-1.91,6.2-14.76,5.41-12.88,4-9.61.06-.13,1-2.45h-6.34l-2.25-13.83-1.49-9.15-2.5-16.28-1.26-8.16-3.77-24.44-1.88-12.22-.45-3a16.61,16.61,0,0,1-.09-2.64,16.25,16.25,0,0,1,1.14-5.08l.1-.33c4.48-12,8.9-24,13.41-36q1.15-3.09,2.32-6.17l7.94-21,4-10.5,2-5.25,1-2.61.24-.64.22-.58c.16-.37.31-.74.49-1.11a34.86,34.86,0,0,1,5.16-8.22,40.27,40.27,0,0,1,3.37-3.54c.27-.27.66-.6,1-.89l.49-.46.43-.36.66-.54a1.49,1.49,0,0,0,.2-.15h0c.39-.32.8-.62,1.22-.93,1-.8,2.18-1.56,3.33-2.29a71,71,0,0,1,7.22-4,90.43,90.43,0,0,1,15.72-5.7,113.7,113.7,0,0,1,28.18-3.54h10.68a113.7,113.7,0,0,1,28.18,3.54,90.43,90.43,0,0,1,15.72,5.7,71,71,0,0,1,7.22,4c1.15.73,2.28,1.49,3.33,2.29.42.31.84.61,1.22.93h0a1.49,1.49,0,0,0,.2.15c.24.19.47.37.66.54l.43.36.49.46c.33.29.72.62,1,.89a40.27,40.27,0,0,1,3.37,3.54,34.86,34.86,0,0,1,5.16,8.22c.18.37.33.74.49,1.11l.22.58.24.64,1,2.61,2,5.25,4,10.5,7.93,21q1.17,3.07,2.32,6.17c4.51,12,8.93,24,13.41,36l.1.33a16.25,16.25,0,0,1,1.14,5.08A16.61,16.61,0,0,1,1242.51,456.52Z"/><path class="cls-1" d="M1164.69,260.1c0,.65,0,1.31-.07,2,0,.51-.1,1-.16,1.51l-.25,1.58c-.15.88-.35,1.77-.54,2.63s-.39,1.8-.54,2.71L1159.22,291l-.16.57a17.88,17.88,0,0,1-8.1,10.61,18.36,18.36,0,0,1-4.18,1.85c-.77.23-1.68.43-2.29.55-.76.15-1.59.29-2.45.41a36.3,36.3,0,0,1-9,0c-.87-.12-1.7-.26-2.44-.41s-1.53-.32-2.31-.55a18.76,18.76,0,0,1-4.18-1.85,18.32,18.32,0,0,1-6.34-6.43,18,18,0,0,1-1.75-4.19l-.15-.52L1112,270.52c-.15-.91-.35-1.82-.54-2.71s-.4-1.75-.54-2.63l-.26-1.57c-.06-.51-.11-1-.15-1.52-.07-1.06-.08-2.08,0-3,0-.42.08-.83.11-1.23.06-.64.1-1.24.19-1.82l.43-2.27.12-.42.09-.28a26.93,26.93,0,0,1,5.55-10.46,26.14,26.14,0,0,1,19-9l1.41,0h1l.57,0a25.64,25.64,0,0,1,9.9,2.14,25.91,25.91,0,0,1,9.39,6.89,26.9,26.9,0,0,1,5.55,10.47l.09.27c0,.14.08.28.11.41l.43,2.26c.09.6.14,1.2.19,1.84,0,.4.07.81.11,1.18S1164.69,259.74,1164.69,260.1Z"/><polygon points="1082.81 468.71 1082.79 468.95 1082.79 468.84 1082.81 468.71"/><path d="M1248.39,883.73l-2.17-.85c-2.82-1.11-5.65-2.15-8.47-3.23l-8.48-3.2-16-6.05-6.57-10.81,2.25,0,1.65,0v-1.7l-.65-77.21-.38-38.6-.09-9.66c0-3.22,0-6.43-.14-9.65l-.54-19.31-1.08-38.59-1.23-38.6-.3-9.65c-.06-1.62-.09-3.22-.17-4.82l-.29-4.82-1.15-19.29-2.29-38.46v-.18h0L1191.91,472v.11l0-.24,0,.13,1.18-50.89v-.54l.23-13.1,6.5,21.63,9.79,32.7-2.56,43.72-2.32,39.66h0v.08l0,.13h0l2.34,20.13.07.61.75.87h0l5.46,5.91,13.37,14.5,4.77,5.17,1,1.1,2.18,2.38,15.11-9.78-1.42-2.49h0l-13.28-24.15-3.73-6.77-3.05-5.55,2,0,1,0h.74l.32-1.74,2.78-15.38,1.64-9,8.56-48.8,2.13-12.2c.17-1,.36-2,.54-3.07a21,21,0,0,0,.19-3.54,21.77,21.77,0,0,0-1.36-6.93l.1.31-29.6-85.59a43.82,43.82,0,0,0-6-10.38,46.79,46.79,0,0,0-4-4.48c-.36-.37-.69-.68-1.05-1l-.5-.5-.57-.52c-.39-.36-.77-.68-1.15-1s-.77-.65-1.15-.94a72.5,72.5,0,0,0-9.9-6.51c-.66-.38-1.33-.74-2-1.1l-1.26-.65-.22-.11a98.83,98.83,0,0,0-15.76-6.25,129.1,129.1,0,0,0-72.68,0,98.83,98.83,0,0,0-15.76,6.25l-.22.11-1.26.65c-.69.36-1.36.72-2,1.1a72.5,72.5,0,0,0-9.9,6.51c-.38.29-.77.61-1.15.94s-.76.64-1.14,1l-.58.52-.5.5c-.36.33-.69.64-1.05,1a46.79,46.79,0,0,0-4,4.48,43.82,43.82,0,0,0-6,10.38L1028,447.09l.1-.31a21.77,21.77,0,0,0-1.36,6.93,21,21,0,0,0,.19,3.54c.18,1.07.37,2,.54,3.07l2.14,12.2,4.27,24.4,4.28,24.4,1.64,9,2.78,15.38.32,1.74h.74l1,0,2,0-3.05,5.55-3.72,6.77-13.28,24.15h0l-1.43,2.49,15.11,9.78,2.18-2.38,1-1.1,4.77-5.17,13.37-14.5,5.46-5.91h0l.75-.87.07-.61,2.34-20.13h0l0-.13v-.08h0l-2.32-39.66-2.56-43.72,9.79-32.7,6.5-21.63.23,13.1v.54L1083.1,472l0-.13,0,.24V472l-10.34,77.05h0v.18l-2.3,38.46L1069.3,607l-.29,4.82c-.08,1.6-.11,3.2-.17,4.82l-.3,9.65-1.23,38.6-1.08,38.59-.54,19.31c-.11,3.22-.1,6.43-.14,9.65l-.09,9.66-.38,38.6-.65,77.21v1.7l1.65,0,2.25,0-6.57,10.81-16,6.05-8.48,3.2c-2.82,1.08-5.65,2.12-8.47,3.23l-2.17.85v17.44H1030l77.6.05h3.48v-3.47l0-10,0-10,.06-19.84,0,.17,0-.27v.1l11.27-129.47c.13-1.36.21-2.7.38-4l.51-4,1-8.06,2.05-16.15,4.1-32.27,7-54.85,7,54.85,4.1,32.27,2.05,16.15,1,8.06.51,4c.17,1.35.25,2.69.38,4L1163.83,858v-.1l0,.27,0-.17.06,19.84,0,10,0,10v3.47h3.48l77.6-.05h3.43V883.73Zm-8.23,7.32-63.58-.42-3.63,0h-1.31L1170.8,874c-.18-2-.32-4.12-.43-6.18-.1-1.66-.15-3.31-.23-5l-.08-3.42-.09-1.78,0-1.09h0l-5.76-63.77-2.78-32.44L1160,744.11l-1.29-16.22c-.11-1.36-.18-2.72-.35-4.06l-.48-4.05-1-8.08L1155,695.53l-3.67-32.35c-2.35-21.58-4.71-43.17-6.72-64.79l-.27-2.82h-13.72l-.27,2.82c-2,21.62-4.37,43.21-6.72,64.79L1120,695.53l-1.91,16.17-1,8.08-.48,4.05c-.17,1.34-.24,2.7-.35,4.06L1115,744.11l-1.37,16.23-2.77,32.44-5.77,63.77h0l0,1.09-.09,1.78-.08,3.42c-.08,1.67-.13,3.32-.22,5-.12,2.06-.26,4.13-.44,6.18l-.84,16.58h-1.31l-3.62,0-63.59.42-.82-2.91,30.87-12.43,1.16-.47.48-1,6.83-15.18,1.57-3.49-6.16-.1c.57-24.87,1.18-49.76,1.66-74.64l.76-38.58.2-9.65c.09-3.21.1-6.43.25-9.64l.74-19.27,2.92-77.08c.34-12.86,1.28-25.68,2-38.51.4-6.41.74-12.83,1.07-19.25l1-19,0,.13.05-.69,0,.56,2.33-19.19,2.16-19.36,2.1-19.36,2.24-19.35,0-.32V472l-.5-16.77c-.16-5.59-.36-11.18-.48-16.77l-.39-16.75-.29-16.77-.06-3.14h-8.61L1070.55,427l0,.13-10.29,33.57-.16.48,0,.54h0l4.39,81.53.1,1.89-.82,5.74L1062,563.35l-16.8,16-4.28,4.07-2.07,2-3.16-1.91,6.2-14.76,5.41-12.88,4-9.61.06-.13,1-2.45h-6.34l-2.25-13.83-1.49-9.15-2.5-16.28-1.26-8.16-3.77-24.44-1.88-12.22-.45-3a16.61,16.61,0,0,1-.09-2.64,16.25,16.25,0,0,1,1.14-5.08l.1-.33c4.48-12,8.9-24,13.41-36q1.15-3.09,2.32-6.17l7.94-21,4-10.5,2-5.25,1-2.61.24-.64.22-.58c.16-.37.31-.74.49-1.11a34.86,34.86,0,0,1,5.16-8.22,40.27,40.27,0,0,1,3.37-3.54c.27-.27.66-.6,1-.89l.49-.46.43-.36.66-.54a1.49,1.49,0,0,0,.2-.15h0c.39-.32.8-.62,1.22-.93,1-.8,2.18-1.56,3.33-2.29a71,71,0,0,1,7.22-4,90.43,90.43,0,0,1,15.72-5.7,113.7,113.7,0,0,1,28.18-3.54h10.68a113.7,113.7,0,0,1,28.18,3.54,90.43,90.43,0,0,1,15.72,5.7,71,71,0,0,1,7.22,4c1.15.73,2.28,1.49,3.33,2.29.42.31.84.61,1.22.93h0a1.49,1.49,0,0,0,.2.15c.24.19.47.37.66.54l.43.36.49.46c.33.29.72.62,1,.89a40.27,40.27,0,0,1,3.37,3.54,34.86,34.86,0,0,1,5.16,8.22c.18.37.33.74.49,1.11l.22.58.24.64,1,2.61,2,5.25,4,10.5,7.93,21q1.17,3.07,2.32,6.17c4.51,12,8.93,24,13.41,36l.1.33a16.25,16.25,0,0,1,1.14,5.08,16.61,16.61,0,0,1-.09,2.64l-.45,3-1.88,12.22-3.77,24.44-1.26,8.16-2.5,16.28-1.49,9.15-2.25,13.83h-6.34l1,2.45.06.13,4,9.61,5.41,12.88,6.2,14.76-3.16,1.91-2.06-2-4.29-4.07-16.8-16-1.78-12.46-.82-5.74.1-1.89,4.39-81.53h0l0-.54-.16-.48-10.29-33.57,0-.13-7.34-25.17h-8.62l-.06,3.14-.29,16.77-.39,16.75c-.12,5.59-.32,11.18-.48,16.77l-.49,16.77v.21l0,.32,2.23,19.35,2.1,19.36,2.16,19.36,2.33,19.19,0-.56.05.69,0-.13,1,19c.33,6.42.67,12.84,1.07,19.25.72,12.83,1.66,25.65,2,38.51l2.92,77.08.74,19.27c.15,3.21.16,6.43.25,9.64l.2,9.65.76,38.58c.48,24.88,1.09,49.77,1.66,74.64l-6.16.1,1.57,3.49,6.83,15.18.48,1,1.16.47L1241,888.14Z"/><path d="M1172,257.76c0-.85-.06-1.73-.15-2.61l-.4-2.86c0-.23-.09-.45-.15-.67l-.07-.28a35,35,0,0,0-6.57-13.93,35.2,35.2,0,0,0-19.34-12.4,31.61,31.61,0,0,0-15.54,0,35.3,35.3,0,0,0-19.35,12.39,35.25,35.25,0,0,0-6.56,13.93l-.07.29a6.78,6.78,0,0,0-.15.68l-.4,2.85c-.09.88-.12,1.76-.15,2.61,0,.41,0,.81,0,1.25a32.12,32.12,0,0,0,.24,3.86c.09.69.18,1.31.29,1.91l.37,1.8c.62,3.57,1.33,7.18,2,10.67l2.61,13.3.47,2.22.2.74a25.28,25.28,0,0,0,11.25,14.7,25.84,25.84,0,0,0,5.73,2.54c1.1.33,2.09.55,3,.73s1.92.36,2.92.49a43.13,43.13,0,0,0,10.81,0c1-.13,2-.3,2.92-.49s1.88-.4,3-.73a25.92,25.92,0,0,0,5.74-2.54,25.31,25.31,0,0,0,8.78-8.91,25.78,25.78,0,0,0,2.46-5.79l.23-.79,3.06-15.47c.69-3.49,1.41-7.1,2-10.65l.38-1.82c.11-.6.2-1.22.28-1.91A32.27,32.27,0,0,0,1172,259C1172,258.57,1172,258.17,1172,257.76Zm-7.37,4.33c0,.51-.1,1-.16,1.51l-.25,1.58c-.15.88-.35,1.77-.54,2.63s-.39,1.8-.54,2.71L1159.22,291l-.16.57a17.88,17.88,0,0,1-8.1,10.61,18.36,18.36,0,0,1-4.18,1.85c-.77.23-1.68.43-2.29.55-.76.15-1.59.29-2.45.41a36.3,36.3,0,0,1-9,0c-.87-.12-1.7-.26-2.44-.41s-1.53-.32-2.31-.55a18.76,18.76,0,0,1-4.18-1.85,18.32,18.32,0,0,1-6.34-6.43,18,18,0,0,1-1.75-4.19l-.15-.52L1112,270.52c-.15-.91-.35-1.82-.54-2.71s-.4-1.75-.54-2.63l-.26-1.57c-.06-.51-.11-1-.15-1.52-.07-1.06-.08-2.08,0-3,0-.42.08-.83.11-1.23.06-.64.1-1.24.19-1.82l.43-2.27.12-.42.09-.28a26.93,26.93,0,0,1,5.55-10.46,26.14,26.14,0,0,1,19-9l1.41,0h1l.57,0a25.64,25.64,0,0,1,9.9,2.14,25.91,25.91,0,0,1,9.39,6.89,26.9,26.9,0,0,1,5.55,10.47l.09.27c0,.14.08.28.11.41l.43,2.26c.09.6.14,1.2.19,1.84,0,.4.07.81.11,1.18s0,.7,0,1.06C1164.69,260.75,1164.66,261.41,1164.62,262.09Z"/></svg>