<svg id="Capa_1" data-name="Capa 1" xmlns="http://www.w3.org/2000/svg" viewBox="0 0 1300 1000"><defs><style>.cls-1{fill:#fff;}</style></defs><title>2-landmarks-expand</title><path class="cls-1" d="M956,551.94l-3.63,2.31-27.15-39.47-2-2.86-2.69,2.19-3.62,2.95L902,504.85,885.1,490.77c-2.68-2.2-5.34-4.44-8-6.68l-4.49-3.76-4.36-3.7-16.8-14.2-.09-.08a15.9,15.9,0,0,1-3.87-5.36c-.1-.2-.18-.41-.27-.62l-.06-.16-.13-.36-.15-.44-.56-1.85-1.17-3.78-4.66-15.09L836,419.55c-.86-3-1.73-6-2.57-9-.6-2-1.17-4.12-1.74-6.19h0l-.69-2.54-2.76,0h-6l-.06,3.14-.28,16.78-.4,16.74c-.12,5.6-.32,11.18-.47,16.78l-.5,16.76v.22l0,.32,2.24,19.34,2.09,19.36,2.16,19.36,2.33,19.2,1,19c.33,6.41.68,12.84,1.07,19.24.73,12.83,1.66,25.66,2,38.51l2.92,77.08.75,19.27c.15,3.22.16,6.43.24,9.65l.2,9.65.77,38.57c.47,24.89,1.08,49.77,1.65,74.64l-6.16.1,1.58,3.5,6.83,15.18.47,1,1.16.47,30.86,12.42-.81,2.91-63.58-.42-3.63,0h-1.3L804.57,874c-.18-2.06-.33-4.13-.44-6.19-.1-1.66-.15-3.31-.23-5l-.08-3.43-.09-1.78-.05-1.09h0l-5.77-63.78-2.76-32.44-1.38-16.22-1.29-16.23c-.11-1.36-.17-2.72-.34-4l-.49-4.06-1-8.08-1.89-16.17-3.68-32.34c-2.35-21.59-4.71-43.17-6.72-64.8l-.27-2.82H764.41l-.28,2.82c-2,21.63-4.37,43.21-6.72,64.8l-3.67,32.34-1.9,16.17-1,8.08-.48,4.06c-.17,1.33-.23,2.69-.35,4l-1.29,16.23-1.37,16.22-2.77,32.44-5.76,63.78h0l-.05,1.09-.1,1.78-.07,3.43c-.08,1.66-.13,3.31-.23,5-.12,2.06-.27,4.13-.44,6.19l-.84,16.58h-1.31l-3.62,0-63.58.42-.82-2.91,30.87-12.42,1.15-.47.48-1L707.12,859l1.57-3.5-6.16-.1c.57-24.87,1.19-49.75,1.65-74.64l.78-38.57.19-9.65c.09-3.22.09-6.43.25-9.65l.74-19.27,2.92-77.08c.34-12.85,1.28-25.68,2-38.51.39-6.4.74-12.83,1.07-19.24l1-19,2.33-19.2,2.16-19.36,2.1-19.36L722,472.56l0-.32V472l-.5-16.76c-.16-5.6-.35-11.18-.47-16.78l-.4-16.74L720.33,405l-.05-3.14h-8.62L704.31,427l0,.13L694,460.7l-.15.47,0,.54h0l4.39,81.52.1,1.9-.81,5.74-1.78,12.45-16.81,16-4.28,4.07-2.07,2-3.16-1.91,6.2-14.76,5.42-12.88,4-9.6.06-.14,1.05-2.44h-6.35l-2.25-13.84-1.48-9.14-2.51-16.28-1.26-8.17-3.76-24.44-1.88-12.21-.46-3a18,18,0,0,1-.1-2.64,16.54,16.54,0,0,1,1.15-5.09l.1-.33c4.49-12,8.9-24,13.41-36,.76-2.06,1.55-4.12,2.32-6.17l7.94-21,4-10.5,2-5.25,1-2.61.25-.64.23-.57c.15-.38.31-.75.48-1.12a35.06,35.06,0,0,1,5.16-8.22,38.78,38.78,0,0,1,3.37-3.54c.28-.27.66-.6,1-.88l.5-.46.42-.36.67-.55a1.39,1.39,0,0,0,.19-.15h0c.39-.32.8-.62,1.22-.93,1-.8,2.18-1.56,3.33-2.29a71.14,71.14,0,0,1,7.23-4,89.48,89.48,0,0,1,15.71-5.69A112.82,112.82,0,0,1,765.92,334h10.69a112.74,112.74,0,0,1,28.17,3.54,89.19,89.19,0,0,1,15.71,5.69,69.06,69.06,0,0,1,7.23,4c1.16.73,2.29,1.49,3.34,2.29.41.31.83.61,1.21.93h0a1.39,1.39,0,0,0,.19.15l.67.55.42.36.5.46c.33.28.71.61,1,.88a41.72,41.72,0,0,1,3.37,3.54,35,35,0,0,1,3.52,5,0,0,0,0,1,0,0c.41.75.78,1.51,1.14,2.28s.65,1.49.93,2.22l1,2.55,2,5.19c1,2.6,2,5.18,3,7.76l.09.24q.48,1.17.93,2.34l16.35,41.33c2.74,6.89,5.56,13.75,8.33,20.62h0l.25.6.36.37,5.63,5.8,30.48,31.36,18.05,18.57c1.52,1.53,3,3.12,4.55,4.61l4.75,4.42,9.08,8.41Z"/><path class="cls-1" d="M799.07,262.07c0,.51-.1,1-.16,1.52l-.25,1.57c-.15.88-.35,1.78-.53,2.64s-.4,1.79-.55,2.7L793.67,291l-.16.57a17.8,17.8,0,0,1-8.1,10.61,18.05,18.05,0,0,1-4.17,1.85c-.78.23-1.69.43-2.3.55s-1.58.3-2.45.41a35.06,35.06,0,0,1-9,0c-.87-.11-1.69-.25-2.44-.41s-1.53-.32-2.31-.55a17.92,17.92,0,0,1-12.27-12.47l-.15-.51-3.92-20.56c-.15-.92-.35-1.83-.54-2.71s-.4-1.76-.54-2.64l-.25-1.57c-.07-.5-.12-1-.15-1.52a28,28,0,0,1-.06-3c0-.42.08-.82.11-1.23.06-.64.1-1.24.19-1.81l.43-2.28c0-.14.08-.27.13-.42s0-.18.08-.28a27.06,27.06,0,0,1,5.55-10.46,26.24,26.24,0,0,1,19-9l1.42,0h1.53a26.21,26.21,0,0,1,19.29,9,26.9,26.9,0,0,1,5.55,10.47l.09.27c0,.15.08.28.11.41l.43,2.26c.1.6.14,1.2.2,1.84,0,.41.06.81.1,1.18A28.51,28.51,0,0,1,799.07,262.07Z"/><path d="M964.93,552.67l-12.22-34.25-.2-.6-.38-.36-9.36-8.89-4.68-4.44c-1.53-1.51-3-3.12-4.47-4.67l-17.78-18.79-35.17-37.15-14.81-41.27-7.51-20.91-3.75-10.46-1.87-5.23c-.32-.88-.61-1.71-1-2.64s-.73-1.84-1.14-2.74c-.21-.44-.42-.89-.64-1.34h0a42.53,42.53,0,0,0-4.85-7.82,45.57,45.57,0,0,0-4-4.49c-.36-.37-.69-.67-1-1l-.52-.5-.56-.53c-.39-.36-.76-.67-1.15-1s-.76-.65-1.15-.94a73,73,0,0,0-9.89-6.51c-.67-.37-1.34-.74-2-1.1l-1.28-.64a.88.88,0,0,0-.21-.12A99.1,99.1,0,0,0,807.61,328a129.14,129.14,0,0,0-72.69,0,99.1,99.1,0,0,0-15.75,6.25,1.19,1.19,0,0,0-.22.12l-1.27.64-2,1.1a72.3,72.3,0,0,0-9.88,6.51c-.39.29-.78.61-1.16.94s-.76.64-1.14,1l-.57.53-.51.5c-.36.33-.69.63-1,1a46.81,46.81,0,0,0-4,4.49,43.32,43.32,0,0,0-6,10.38L661.8,447.07l.09-.31a21.75,21.75,0,0,0-1.35,6.93,21,21,0,0,0,.19,3.54c.17,1.07.35,2,.53,3.07l2.14,12.2,4.28,24.4L672,521.3l1.62,9,2.79,15.38.32,1.75.74,0,1,0,2,0-3,5.55-3.72,6.77-13.28,24.15h0l-1.43,2.48,15.11,9.78,2.18-2.37,1-1.1,4.77-5.18,13.37-14.5,5.45-5.91h0l.75-.87.06-.6L704,545.42h0l0-.13v-.09l-2.32-39.66-2.56-43.72,9.8-32.7,6.48-21.63.24,13.1v.54L716.86,472l0-.13,0,.24V472l-10.34,77v.19l-2.29,38.46L703.06,607l-.28,4.82c-.09,1.6-.11,3.21-.17,4.82l-.31,9.65-1.23,38.61L700,703.49l-.54,19.3c-.11,3.22-.1,6.43-.14,9.65l-.09,9.66-.38,38.6-.65,77.22v1.69l1.66,0,2.24,0-6.56,10.81-16,6L671,879.64c-2.83,1.07-5.66,2.12-8.47,3.22l-2.17.85v17.45h3.43l77.59,0h3.48v-3.47l0-10,0-10,.06-19.83v0L756.2,728.48c.14-1.35.21-2.7.38-4l.52-4,1-8.07,2-16.14,4.1-32.28,7-54.84,7,54.84,4.1,32.28,2,16.14,1,8.07.51,4c.17,1.34.25,2.69.38,4L797.59,858v-.11l0,.28,0-.17.06,19.83,0,10,0,10v3.47h3.48l77.6,0h3.43V883.71l-2.18-.85c-2.8-1.1-5.64-2.15-8.46-3.22L863,876.43l-16-6-6.56-10.81,2.23,0,1.66,0v-1.69l-.64-77.22-.39-38.6-.08-9.66c-.05-3.22,0-6.43-.15-9.65l-.53-19.3-1.09-38.59-1.23-38.61-.3-9.65c-.07-1.61-.09-3.22-.17-4.82l-.28-4.82-1.15-19.29L836,549.25v-.19l-10.35-77v0l1.2-50.89v-.54l.24-13.08,1.67,5.56,2.42,8,4.62,15.11,4.62,15.09,1.16,3.78.58,1.92.16.5.21.54c.13.36.26.7.42,1a21.25,21.25,0,0,0,5.17,7.14l.28.26.4.37h.05l22.82,19.56,4.36,3.72,39,33.42,1.84,1.58,2-1.57,3-2.4,26,40.85,2.09,3.3,3.53-2.06,9.58-5.61,3-1.77Zm-12.56,1.58-27.15-39.47-2-2.86-2.69,2.19-3.62,2.95L902,504.85,885.1,490.77c-2.68-2.2-5.34-4.44-8-6.68l-4.49-3.76-4.36-3.7-16.8-14.2-.09-.08a15.9,15.9,0,0,1-3.87-5.36c-.1-.2-.18-.41-.27-.62l-.06-.16-.13-.36-.15-.44-.56-1.85-1.17-3.78-4.66-15.09L836,419.55c-.86-3-1.73-6-2.57-9-.6-2-1.17-4.12-1.74-6.19h0l-.69-2.54-2.76,0h-6l-.06,3.14-.28,16.78-.4,16.74c-.12,5.6-.32,11.18-.47,16.78l-.5,16.76v.22l0,.32,2.24,19.34,2.09,19.36,2.16,19.36,2.33,19.2,0-.57,0,.7,0-.13,1,19c.33,6.41.68,12.84,1.07,19.24.73,12.83,1.66,25.66,2,38.51l2.92,77.08.75,19.27c.15,3.22.16,6.43.24,9.65l.2,9.65.77,38.57c.47,24.89,1.08,49.77,1.65,74.64l-6.16.1,1.58,3.5,6.83,15.18.47,1,1.16.47,30.86,12.42-.81,2.91-63.58-.42-3.63,0h-1.3L804.57,874c-.18-2.06-.33-4.13-.44-6.19-.1-1.66-.15-3.31-.23-5l-.08-3.43-.09-1.78-.05-1.09h0l-5.77-63.78-2.76-32.44-1.38-16.22-1.29-16.23c-.11-1.36-.17-2.72-.34-4l-.49-4.06-1-8.08-1.89-16.17-3.68-32.34c-2.35-21.59-4.71-43.17-6.72-64.8l-.27-2.82H764.41l-.28,2.82c-2,21.63-4.37,43.21-6.72,64.8l-3.67,32.34-1.9,16.17-1,8.08-.48,4.06c-.17,1.33-.23,2.69-.35,4l-1.29,16.23-1.37,16.22-2.77,32.44-5.76,63.78h0l-.05,1.09-.1,1.78-.07,3.43c-.08,1.66-.13,3.31-.23,5-.12,2.06-.27,4.13-.44,6.19l-.84,16.58h-1.31l-3.62,0-63.58.42-.82-2.91,30.87-12.42,1.15-.47.48-1L707.12,859l1.57-3.5-6.16-.1c.57-24.87,1.19-49.75,1.65-74.64l.78-38.57.19-9.65c.09-3.22.09-6.43.25-9.65l.74-19.27,2.92-77.08c.34-12.85,1.28-25.68,2-38.51.39-6.4.74-12.83,1.07-19.24l1-19V550l0-.7,0,.57,2.33-19.2,2.16-19.36,2.1-19.36L722,472.56l0-.32V472l-.5-16.76c-.16-5.6-.35-11.18-.47-16.78l-.4-16.74L720.33,405l-.05-3.14h-8.62L704.31,427l0,.13L694,460.7l-.15.47,0,.54h0l4.39,81.52.1,1.9-.81,5.74-1.78,12.45-16.81,16-4.28,4.07-2.07,2-3.16-1.91,6.2-14.76,5.42-12.88,4-9.6.06-.14,1.05-2.44h-6.35l-2.25-13.84-1.48-9.14-2.51-16.28-1.26-8.17-3.76-24.44-1.88-12.21-.46-3a18,18,0,0,1-.1-2.64,16.54,16.54,0,0,1,1.15-5.09l.1-.33c4.49-12,8.9-24,13.41-36,.76-2.06,1.55-4.12,2.32-6.17l7.94-21,4-10.5,2-5.25,1-2.61.25-.64.23-.57c.15-.38.31-.75.48-1.12a35.06,35.06,0,0,1,5.16-8.22,38.78,38.78,0,0,1,3.37-3.54c.28-.27.66-.6,1-.88l.5-.46.42-.36.67-.55a1.39,1.39,0,0,0,.19-.15h0c.39-.32.8-.62,1.22-.93,1-.8,2.18-1.56,3.33-2.29a71.14,71.14,0,0,1,7.23-4,89.48,89.48,0,0,1,15.71-5.69A112.82,112.82,0,0,1,765.92,334h10.69a112.74,112.74,0,0,1,28.17,3.54,89.19,89.19,0,0,1,15.71,5.69,69.06,69.06,0,0,1,7.23,4c1.16.73,2.29,1.49,3.34,2.29.41.31.83.61,1.21.93h0a1.39,1.39,0,0,0,.19.15l.67.55.42.36.5.46c.33.28.71.61,1,.88a41.72,41.72,0,0,1,3.37,3.54,35,35,0,0,1,3.52,5,0,0,0,0,1,0,0c.41.75.78,1.51,1.14,2.28s.65,1.49.93,2.22l1,2.55,2,5.19c1,2.6,2,5.18,3,7.76l.09.24q.48,1.17.93,2.34l16.35,41.33c2.74,6.89,5.56,13.75,8.33,20.62h0l.25.6.36.37,5.63,5.8,30.48,31.36,18.05,18.57c1.52,1.53,3,3.12,4.55,4.61l4.75,4.42,9.08,8.41L956,551.94Z"/><path d="M806.44,257.75c0-.86-.06-1.74-.15-2.61l-.4-2.86c0-.23-.09-.46-.15-.68l-.07-.28a35.09,35.09,0,0,0-6.56-13.92,34.58,34.58,0,0,0-12-9.74,35.08,35.08,0,0,0-7.34-2.66,33.8,33.8,0,0,0-22.88,2.66,34.67,34.67,0,0,0-12,9.73,35.19,35.19,0,0,0-6.56,13.93l-.07.28c-.06.22-.11.45-.15.68l-.4,2.86c-.09.87-.12,1.75-.15,2.61,0,.4,0,.8,0,1.24a32.17,32.17,0,0,0,.25,3.86c.08.69.17,1.31.28,1.91l.37,1.8c.62,3.57,1.34,7.18,2,10.67L743,290.54l.47,2.21.2.74A25.33,25.33,0,0,0,755,308.19a26.34,26.34,0,0,0,5.73,2.55c1.1.33,2.09.54,3,.73s1.92.35,2.92.48a43.21,43.21,0,0,0,10.82,0c1-.13,2-.29,2.91-.48s1.89-.4,3-.73a26.55,26.55,0,0,0,5.73-2.55,25.37,25.37,0,0,0,8.78-8.9,26.18,26.18,0,0,0,2.46-5.79l.23-.8,3.06-15.47c.69-3.49,1.41-7.1,2-10.65l.38-1.82c.11-.6.2-1.22.29-1.91a37,37,0,0,0,.25-3.89C806.47,258.55,806.46,258.15,806.44,257.75Zm-7.37,4.32c0,.51-.1,1-.16,1.52l-.25,1.57c-.15.88-.35,1.78-.53,2.64s-.4,1.79-.55,2.7L793.67,291l-.16.57a17.8,17.8,0,0,1-8.1,10.61,18.05,18.05,0,0,1-4.17,1.85c-.78.23-1.69.43-2.3.55s-1.58.3-2.45.41a35.06,35.06,0,0,1-9,0c-.87-.11-1.69-.25-2.44-.41s-1.53-.32-2.31-.55a17.92,17.92,0,0,1-12.27-12.47l-.15-.51-3.92-20.56c-.15-.92-.35-1.83-.54-2.71s-.4-1.76-.54-2.64l-.25-1.57c-.07-.5-.12-1-.15-1.52a28,28,0,0,1-.06-3c0-.42.08-.82.11-1.23.06-.64.1-1.24.19-1.81l.43-2.28c0-.14.08-.27.13-.42s0-.18.08-.28a27.06,27.06,0,0,1,5.55-10.46,26.24,26.24,0,0,1,19-9l1.42,0h1.53a26.21,26.21,0,0,1,19.29,9,26.9,26.9,0,0,1,5.55,10.47l.09.27c0,.15.08.28.11.41l.43,2.26c.1.6.14,1.2.2,1.84,0,.41.06.81.1,1.18A28.51,28.51,0,0,1,799.07,262.07Z"/></svg>