<svg id="Capa_1" data-name="Capa 1" xmlns="http://www.w3.org/2000/svg" viewBox="0 0 1300 1000"><defs><style>.cls-1{fill:#fff;}</style></defs><title>2-landmarks-expand</title><path class="cls-1" d="M338.82,500.15l-2,5.42-31.7-.51L287,493.68h0l-2.32-1.46-1.28,2.28L282,497.13l-60.21-26.28-5-2.18-4.42-1.92c-1.45-.66-3.11-1.31-4.18-1.92a16.53,16.53,0,0,1-3.27-2.43,16.34,16.34,0,0,1-2.59-3.16l-.5-.88c-.07-.14-.17-.31-.26-.51l-.28-.53-1.1-2.18-3.71-7.3h0l-23.1-47.09h-8.62l0,3.15-.29,16.78-.4,16.76c-.12,5.6-.31,11.19-.47,16.79L163,471v.22l0,.32,2.23,19.36,2.1,19.38,2.16,19.37,2.34,19.21,1,19c.33,6.42.67,12.85,1.07,19.26.72,12.84,1.66,25.68,2,38.54l2.91,77.14.75,19.28c.15,3.22.16,6.44.24,9.66l.2,9.65.77,38.61c.48,24.9,1.08,49.8,1.65,74.69l-6.16.1,1.57,3.5,6.84,15.19.48,1,1.16.47,30.89,12.44-.82,2.91-63.63-.42-3.63,0h-1.31l-.84-16.6c-.17-2.06-.32-4.13-.44-6.19-.1-1.66-.14-3.31-.22-5l-.08-3.43-.09-1.77,0-1.09h0L140.37,792l-2.76-32.47-1.38-16.23L135,727c-.12-1.36-.19-2.72-.36-4.06l-.47-4.06-1-8.08-1.9-16.19-3.68-32.37c-2.35-21.6-4.72-43.2-6.72-64.84l-.27-2.82H106.84l-.27,2.82c-2,21.64-4.37,43.24-6.72,64.84l-3.69,32.37-1.89,16.19-1,8.08L92.82,723c-.17,1.34-.24,2.7-.35,4.06l-1.3,16.24-1.36,16.23L87,792,81.26,855.8h0l-.05,1.09-.09,1.77L81,862.1c-.08,1.67-.13,3.32-.23,5-.11,2.06-.25,4.13-.43,6.19l-.84,16.6H78.23l-3.63,0L11,890.32l-.82-2.91L41.05,875l1.15-.47.48-1,6.84-15.19,1.57-3.5-6.17-.1c.58-24.89,1.18-49.79,1.66-74.69l.77-38.61.2-9.65c.08-3.22.09-6.44.24-9.66l.75-19.28,2.92-77.14c.34-12.86,1.28-25.7,2-38.54.4-6.41.74-12.84,1.07-19.26l1-19,2.34-19.21L60,510.27l2.1-19.38,2.23-19.36,0-.32V471l-.49-16.77c-.17-5.6-.36-11.19-.48-16.79L63,420.67l-.3-16.78,0-3.15H54.05L46.7,425.93l0,.13-10.31,33.6-.15.48,0,.54h0l4.39,81.59.1,1.9-.82,5.74-1.78,12.46-16.82,16L17,582.44l-2.06,2-3.16-1.91L18,567.73l5.42-12.89,4-9.61.06-.14,1-2.45H22.22L20,528.8l-1.49-9.15L16,503.35l-1.25-8.17L11,470.72,9.07,458.5l-.45-3a16.7,16.7,0,0,1-.1-2.64,16.26,16.26,0,0,1,1.15-5.09l.09-.34c4.49-12,8.92-24,13.42-36q1.16-3.09,2.33-6.17l7.94-21,4-10.51,2-5.25,1-2.61.23-.64.24-.58c.15-.38.3-.74.48-1.11a34.63,34.63,0,0,1,5.17-8.23,38.74,38.74,0,0,1,3.36-3.54c.28-.27.67-.6,1-.89l.49-.46.43-.36c.19-.17.42-.36.66-.55l.2-.14,0,0c.37-.31.79-.61,1.21-.93,1.05-.8,2.18-1.56,3.33-2.29a72.23,72.23,0,0,1,7.23-4,90.53,90.53,0,0,1,15.73-5.7,113,113,0,0,1,28.2-3.54c.49,0,1,0,1.49,0h7.71c.49,0,1,0,1.49,0a113.12,113.12,0,0,1,28.21,3.54,90.33,90.33,0,0,1,15.71,5.7,69.22,69.22,0,0,1,7.24,4c.95.61,1.89,1.23,2.78,1.88l0,0c.3.2.6.41.89.63a10.39,10.39,0,0,1,1,.73c.32.24.66.5.93.73.47.4,1.43,1.23,1.94,1.7a36.82,36.82,0,0,1,3.4,3.55,39,39,0,0,1,2.91,4c.44.7.86,1.42,1.26,2.14.2.38.38.71.58,1.12s.4.83.62,1.25l20.64,40.37,4.94,9.66,5.38,10.51,10.22,20.21.45.89.82.4,67.06,32.22.33.17.4,0L314,480.11Z"/><path class="cls-1" d="M140.59,260.89c0,.51-.09,1-.15,1.51l-.26,1.58c-.14.88-.34,1.78-.53,2.64s-.39,1.8-.54,2.7l-3.91,20.54-.17.57a18.19,18.19,0,0,1-1.75,4.19,18.29,18.29,0,0,1-10.53,8.28c-.78.23-1.68.43-2.3.55s-1.58.29-2.44.41a36.46,36.46,0,0,1-9,0c-.88-.12-1.68-.25-2.45-.41-.61-.12-1.52-.32-2.29-.55a18.26,18.26,0,0,1-10.54-8.28,18.27,18.27,0,0,1-1.75-4.2l-.15-.52-3.92-20.57c-.15-.91-.35-1.83-.55-2.71s-.39-1.76-.53-2.64l-.26-1.57c-.06-.51-.11-1-.15-1.52-.07-1.06-.08-2.09-.05-3,0-.41.08-.82.11-1.23.06-.64.1-1.24.19-1.81l.43-2.28a3.31,3.31,0,0,1,.12-.42,2.29,2.29,0,0,0,.08-.28,27.19,27.19,0,0,1,5.56-10.47,26,26,0,0,1,9.4-6.89,25.69,25.69,0,0,1,9.66-2.14l1.41,0h1l.57,0a25.68,25.68,0,0,1,9.91,2.14,26,26,0,0,1,9.39,6.89,27,27,0,0,1,5.55,10.48,1.43,1.43,0,0,1,.09.27,3.71,3.71,0,0,1,.12.41l.43,2.26c.1.6.14,1.2.19,1.84,0,.41.07.82.11,1.19A26.21,26.21,0,0,1,140.59,260.89Z"/><path d="M346.76,495.58l-30.33-20-.64-.43-.63,0h0l-17.71-.8-65.13-33-9.17-19.64-9.66-20.45-19.31-40.87c-.21-.42-.39-.86-.59-1.3s-.44-.91-.65-1.35c-.46-.9-.94-1.8-1.45-2.68a43.58,43.58,0,0,0-3.41-5,44.16,44.16,0,0,0-4-4.52c-.76-.76-1.34-1.28-2.16-2s-1.54-1.34-2.34-1.94a75.44,75.44,0,0,0-9.9-6.43l-2.32-1.19-.28-.14-.42-.22-.58-.28a.82.82,0,0,0-.2-.12,100.71,100.71,0,0,0-15.77-6.26,129.31,129.31,0,0,0-72.74,0,99.94,99.94,0,0,0-15.77,6.26,1.19,1.19,0,0,0-.22.12l-1.27.64-2,1.1a72.57,72.57,0,0,0-9.9,6.52c-.39.29-.77.61-1.16.94s-.76.64-1.14,1l-.57.52-.52.5c-.34.33-.68.64-1,1a46.91,46.91,0,0,0-4,4.49,44.06,44.06,0,0,0-6,10.39L4.16,446l.1-.32a21.2,21.2,0,0,0-1.17,10.48c.17,1.07.36,2.05.53,3.08l2.13,12.21,8.57,48.84,1.63,9,2.79,15.39.32,1.75.74,0,1,0,2,0-3.05,5.56L16,558.71,2.73,582.88h0L1.3,585.37l15.12,9.79,2.18-2.38,1-1.1,4.77-5.18L37.77,572l5.46-5.91h0l.74-.87.07-.61,2.35-20.15h0l0-.13v-.08h0l-2.32-39.69-2.56-43.75,9.8-32.73,6.5-21.64.23,13.11v.54L59.26,471v0l-10.35,77.1v.2l-2.3,38.49-1.15,19.29-.28,4.83c-.09,1.6-.11,3.21-.17,4.82l-.3,9.66L43.47,664l-1.09,38.62L41.84,722c-.12,3.22-.1,6.43-.15,9.65l-.08,9.67-.38,38.62-.65,77.28v1.69h1.66l2.24,0-6.57,10.82-16,6.06-8.48,3.21C10.56,880,7.72,881,4.91,882.15L2.73,883v17.46H6.15l77.66,0h3.48V897l0-10,0-10,.06-19.85v0L98.63,727.64c.13-1.35.22-2.69.39-4l.5-4,1-8.08,2.06-16.15,4.1-32.3,7-54.89,7,54.89,4.1,32.3,2.06,16.15,1,8.08.51,4c.16,1.35.25,2.69.38,4l11.28,129.58v0l.06,19.85,0,10,0,10v3.48h3.48l77.66,0h3.42V883l-2.17-.84c-2.81-1.11-5.65-2.16-8.47-3.23l-8.48-3.21-16.05-6.06-6.57-10.82,2.24,0h1.66v-1.69l-.65-77.28-.38-38.62-.09-9.67c0-3.22,0-6.43-.14-9.65L185,702.63,183.94,664l-1.23-38.63-.3-9.66c-.06-1.61-.08-3.22-.16-4.82l-.29-4.83-1.15-19.29-2.3-38.49v-.2L168.14,471v0l1.2-50.93v-.54l.24-13.1,0,0,8,16.37,5.74,11.5,3,6L195,457.81l1.09,2.18c.2.39.34.7.58,1.13s.44.82.69,1.22a21.48,21.48,0,0,0,8,7.66,23.72,23.72,0,0,0,2.43,1.16l2.25,1,5.84,2.52,4.87,2.11,25.16,10.87,17.95,7.74,18,7.66,2.63,1.12,1.21-2.38h0l1-1.94,15.89,10.95.63.44.8,0,36.22,2.79,2.47.19.91-2.43,4.51-12.1,1-2.62Zm-9.91,10-31.7-.51L287,493.68h0l-2.32-1.46-1.28,2.28L282,497.13l-60.21-26.28-5-2.18-4.42-1.92c-1.45-.66-3.11-1.31-4.18-1.92a16.53,16.53,0,0,1-3.27-2.43,16.34,16.34,0,0,1-2.59-3.16l-.5-.88c-.07-.14-.17-.31-.26-.51l-.28-.53-1.1-2.18-3.71-7.3h0l-23.1-47.09h-8.62l0,3.15-.29,16.78-.4,16.76c-.12,5.6-.31,11.19-.47,16.79L163,471v.22l0,.32,2.23,19.36,2.1,19.38,2.16,19.37,2.34,19.21,0-.56.05.69,0-.13,1,19c.33,6.42.67,12.85,1.07,19.26.72,12.84,1.66,25.68,2,38.54l2.91,77.14.75,19.28c.15,3.22.16,6.44.24,9.66l.2,9.65.77,38.61c.48,24.9,1.08,49.8,1.65,74.69l-6.16.1,1.57,3.5,6.84,15.19.48,1,1.16.47,30.89,12.44-.82,2.91-63.63-.42-3.63,0h-1.31l-.84-16.6c-.17-2.06-.32-4.13-.44-6.19-.1-1.66-.14-3.31-.22-5l-.08-3.43-.09-1.77,0-1.09h0L140.37,792l-2.76-32.47-1.38-16.23L135,727c-.12-1.36-.19-2.72-.36-4.06l-.47-4.06-1-8.08-1.9-16.19-3.68-32.37c-2.35-21.6-4.72-43.2-6.72-64.84l-.27-2.82H106.84l-.27,2.82c-2,21.64-4.37,43.24-6.72,64.84l-3.69,32.37-1.89,16.19-1,8.08L92.82,723c-.17,1.34-.24,2.7-.35,4.06l-1.3,16.24-1.36,16.23L87,792,81.26,855.8h0l-.05,1.09-.09,1.77L81,862.1c-.08,1.67-.13,3.32-.23,5-.11,2.06-.25,4.13-.43,6.19l-.84,16.6H78.23l-3.63,0L11,890.32l-.82-2.91L41.05,875l1.15-.47.48-1,6.84-15.19,1.57-3.5-6.17-.1c.58-24.89,1.18-49.79,1.66-74.69l.77-38.61.2-9.65c.08-3.22.09-6.44.24-9.66l.75-19.28,2.92-77.14c.34-12.86,1.28-25.7,2-38.54.4-6.41.74-12.84,1.07-19.26l1-19V549l0-.69,0,.56,2.34-19.21L60,510.27l2.1-19.38,2.23-19.36,0-.32V471l-.49-16.77c-.17-5.6-.36-11.19-.48-16.79L63,420.67l-.3-16.78,0-3.15H54.05L46.7,425.93l0,.13-10.31,33.6-.15.48,0,.54h0l4.39,81.59.1,1.9-.82,5.74-1.78,12.46-16.82,16L17,582.44l-2.06,2-3.16-1.91L18,567.73l5.42-12.89,4-9.61.06-.14,1-2.45H22.22L20,528.8l-1.49-9.15L16,503.35l-1.25-8.17L11,470.72,9.07,458.5l-.45-3a16.7,16.7,0,0,1-.1-2.64,16.26,16.26,0,0,1,1.15-5.09l.09-.34c4.49-12,8.92-24,13.42-36q1.16-3.09,2.33-6.17l7.94-21,4-10.51,2-5.25,1-2.61.23-.64.24-.58c.15-.38.3-.74.48-1.11a34.63,34.63,0,0,1,5.17-8.23,38.74,38.74,0,0,1,3.36-3.54c.28-.27.67-.6,1-.89l.49-.46.43-.36c.19-.17.42-.36.66-.55l.2-.14,0,0c.37-.31.79-.61,1.21-.93,1.05-.8,2.18-1.56,3.33-2.29a72.23,72.23,0,0,1,7.23-4,90.53,90.53,0,0,1,15.73-5.7,113,113,0,0,1,28.2-3.54c.49,0,1,0,1.49,0h7.71c.49,0,1,0,1.49,0a113.12,113.12,0,0,1,28.21,3.54,90.33,90.33,0,0,1,15.71,5.7,69.22,69.22,0,0,1,7.24,4c.95.61,1.89,1.23,2.78,1.88l0,0c.3.2.6.41.89.63a10.39,10.39,0,0,1,1,.73c.32.24.66.5.93.73.47.4,1.43,1.23,1.94,1.7a36.82,36.82,0,0,1,3.4,3.55,39,39,0,0,1,2.91,4c.44.7.86,1.42,1.26,2.14.2.38.38.71.58,1.12s.4.83.62,1.25l20.64,40.37,4.94,9.66,5.38,10.51,10.22,20.21.45.89.82.4,67.06,32.22.33.17.4,0L314,480.11l24.86,20Z"/><path d="M148,256.56c0-.85-.06-1.74-.16-2.61l-.4-2.86c0-.23-.1-.46-.15-.68l-.07-.28a35.23,35.23,0,0,0-6.56-13.94,34.62,34.62,0,0,0-12-9.74,34.88,34.88,0,0,0-15.13-3.64,36.24,36.24,0,0,0-7.77,1,35.68,35.68,0,0,0-7.34,2.67,34.61,34.61,0,0,0-12,9.73,35.09,35.09,0,0,0-6.56,13.94l-.07.29a4.82,4.82,0,0,0-.16.68l-.4,2.86c-.1.87-.13,1.76-.15,2.61,0,.41,0,.81,0,1.25a34,34,0,0,0,.24,3.85c.09.7.19,1.32.29,1.92l.37,1.8c.63,3.57,1.34,7.18,2,10.68l2.62,13.31.46,2.21.21.75a25.32,25.32,0,0,0,17,17.26c1.1.33,2.09.54,3,.73s1.91.35,2.92.48a42,42,0,0,0,10.82,0c1-.13,2-.3,2.92-.48s1.87-.4,3-.73a25.67,25.67,0,0,0,5.73-2.55,25.22,25.22,0,0,0,11.26-14.71l.22-.79L145.1,276c.69-3.48,1.4-7.08,2-10.61l.37-1.82c.11-.6.2-1.23.29-1.92a34.13,34.13,0,0,0,.24-3.89C148,257.37,148,257,148,256.56Zm-7.39,4.33c0,.51-.09,1-.15,1.51l-.26,1.58c-.14.88-.34,1.78-.53,2.64s-.39,1.8-.54,2.7l-3.91,20.54-.17.57a18.19,18.19,0,0,1-1.75,4.19,18.29,18.29,0,0,1-10.53,8.28c-.78.23-1.68.43-2.3.55s-1.58.29-2.44.41a36.46,36.46,0,0,1-9,0c-.88-.12-1.68-.25-2.45-.41-.61-.12-1.52-.32-2.29-.55a18.26,18.26,0,0,1-10.54-8.28,18.27,18.27,0,0,1-1.75-4.2l-.15-.52-3.92-20.57c-.15-.91-.35-1.83-.55-2.71s-.39-1.76-.53-2.64l-.26-1.57c-.06-.51-.11-1-.15-1.52-.07-1.06-.08-2.09-.05-3,0-.41.08-.82.11-1.23.06-.64.1-1.24.19-1.81l.43-2.28a3.31,3.31,0,0,1,.12-.42,2.29,2.29,0,0,0,.08-.28,27.19,27.19,0,0,1,5.56-10.47,26,26,0,0,1,9.4-6.89,25.69,25.69,0,0,1,9.66-2.14l1.41,0h1l.57,0a25.68,25.68,0,0,1,9.91,2.14,26,26,0,0,1,9.39,6.89,27,27,0,0,1,5.55,10.48,1.43,1.43,0,0,1,.09.27,3.71,3.71,0,0,1,.12.41l.43,2.26c.1.6.14,1.2.19,1.84,0,.41.07.82.11,1.19A26.21,26.21,0,0,1,140.59,260.89Z"/></svg>