<svg id="Capa_1" data-name="Capa 1" xmlns="http://www.w3.org/2000/svg" viewBox="0 0 1300 1000"><defs><style>.cls-1{fill:#fff;}</style></defs><title>2-landmarks-expand</title><path class="cls-1" d="M662.51,500.15l-2,5.42-31.7-.51-18.1-11.38h0l-2.32-1.46-1.28,2.28-1.48,2.64-60.21-26.28-5-2.18-4.41-1.92c-1.45-.66-3.11-1.31-4.18-1.92a16.59,16.59,0,0,1-3.28-2.43,16.29,16.29,0,0,1-2.58-3.16c-.18-.29-.35-.59-.5-.88s-.17-.31-.26-.51l-.28-.53-1.11-2.18-3.7-7.3h0l-23.1-47.09h-8.62l-.06,3.15-.29,16.78-.4,16.76c-.11,5.6-.31,11.19-.47,16.79l-.5,16.77v.22l0,.32L489,490.89l2.1,19.38,2.16,19.37,2.34,19.21,1,19c.33,6.42.67,12.85,1.07,19.26.72,12.84,1.66,25.68,2,38.54l2.92,77.14.74,19.28c.16,3.22.16,6.44.25,9.66l.2,9.65.77,38.61c.47,24.9,1.08,49.8,1.65,74.69l-6.17.1,1.58,3.5,6.84,15.19.48,1,1.15.47L541,887.41l-.83,2.91-63.63-.42-3.62,0h-1.31l-.84-16.6c-.18-2.06-.32-4.13-.44-6.19-.1-1.66-.15-3.31-.22-5l-.08-3.43-.09-1.77-.06-1.09h0L464.07,792l-2.77-32.47-1.37-16.23L458.64,727c-.11-1.36-.18-2.72-.35-4.06l-.48-4.06-1-8.08-1.9-16.19-3.68-32.37c-2.35-21.6-4.72-43.2-6.73-64.84l-.27-2.82H430.54l-.28,2.82c-2,21.64-4.36,43.24-6.72,64.84l-3.68,32.37L418,710.84l-1,8.08-.47,4.06c-.17,1.34-.24,2.7-.36,4.06l-1.29,16.24-1.37,16.23L410.73,792,405,855.8h0l0,1.09-.1,1.77-.07,3.43c-.08,1.67-.13,3.32-.23,5-.12,2.06-.26,4.13-.43,6.19l-.84,16.6h-1.32l-3.63,0-63.63.42-.81-2.91L364.74,875l1.16-.47.47-1,6.84-15.19,1.57-3.5-6.16-.1c.57-24.89,1.18-49.79,1.66-74.69l.77-38.61.2-9.65c.08-3.22.09-6.44.23-9.66l.76-19.28,2.91-77.14c.35-12.86,1.29-25.7,2-38.54.4-6.41.74-12.84,1.07-19.26l1-19,2.33-19.21,2.17-19.37,2.09-19.38,2.23-19.36,0-.32V471l-.49-16.77c-.16-5.6-.35-11.19-.47-16.79l-.4-16.76-.29-16.78-.05-3.15h-8.63l-7.35,25.19,0,.13-10.3,33.6-.15.48,0,.54h0l4.39,81.59.1,1.9-.81,5.74-1.78,12.46-16.82,16-4.29,4.08-2.07,2-3.16-1.91,6.21-14.77,5.42-12.89,4-9.61.07-.14,1-2.45h-6.35l-2.24-13.84-1.5-9.15-2.51-16.3-1.25-8.17-3.77-24.46-1.88-12.22-.46-3a16.69,16.69,0,0,1-.09-2.64,16,16,0,0,1,1.15-5.09l.09-.34c4.49-12,8.92-24,13.42-36,.77-2.06,1.55-4.12,2.32-6.17l7.95-21,4-10.51,2-5.25,1-2.61.24-.64.23-.58c.16-.38.31-.74.49-1.11a34.6,34.6,0,0,1,5.16-8.23,41.68,41.68,0,0,1,3.36-3.54c.29-.27.67-.6,1-.89l.49-.46.44-.36c.19-.17.42-.36.66-.55l.2-.14v0c.38-.31.79-.61,1.22-.93,1.05-.8,2.17-1.56,3.33-2.29a70.09,70.09,0,0,1,7.23-4,90.43,90.43,0,0,1,15.72-5.7,113.12,113.12,0,0,1,28.21-3.54c.49,0,1,0,1.49,0h7.71c.49,0,1,0,1.49,0a113,113,0,0,1,28.2,3.54,90.73,90.73,0,0,1,15.72,5.7,70.09,70.09,0,0,1,7.23,4c1,.61,1.89,1.23,2.79,1.88l0,0,.89.63c.33.23.67.47,1,.73s.66.5.92.73c.48.4,1.43,1.23,2,1.7a39.41,39.41,0,0,1,3.4,3.55,37.44,37.44,0,0,1,2.9,4c.45.7.86,1.42,1.27,2.14.19.38.38.71.58,1.12s.4.83.62,1.25l20.64,40.37,4.94,9.66,5.37,10.51,10.22,20.21.46.89.82.4,67.06,32.22.33.17.4,0,17.17,1.83Z"/><path class="cls-1" d="M464.29,260.89c0,.51-.1,1-.16,1.51l-.25,1.58c-.15.88-.34,1.78-.53,2.64s-.39,1.8-.55,2.7l-3.9,20.54-.17.57a18.19,18.19,0,0,1-1.75,4.19,18.43,18.43,0,0,1-6.35,6.43,18.76,18.76,0,0,1-4.18,1.85c-.79.23-1.69.43-2.31.55s-1.57.29-2.44.41a36.38,36.38,0,0,1-9,0c-.88-.12-1.68-.25-2.45-.41-.61-.12-1.52-.32-2.3-.55a18.76,18.76,0,0,1-4.18-1.85,17.82,17.82,0,0,1-8.1-10.63l-.16-.52-3.91-20.57c-.16-.91-.36-1.83-.56-2.71s-.38-1.76-.53-2.64l-.25-1.57c-.06-.51-.11-1-.15-1.52-.07-1.06-.09-2.09-.06-3q.07-.61.12-1.23c0-.64.1-1.24.18-1.81l.44-2.28a2.21,2.21,0,0,1,.12-.42,2.29,2.29,0,0,0,.08-.28,27.19,27.19,0,0,1,5.56-10.47,26,26,0,0,1,9.4-6.89,25.69,25.69,0,0,1,9.65-2.14l1.42,0h1l.56,0a25.73,25.73,0,0,1,9.92,2.14,26.11,26.11,0,0,1,9.39,6.89,27.14,27.14,0,0,1,5.55,10.48l.09.27c0,.14.09.28.12.41l.43,2.26c.09.6.14,1.2.18,1.84,0,.41.07.82.12,1.19A28.63,28.63,0,0,1,464.29,260.89Z"/><path d="M670.45,495.58l-30.32-20-.65-.43-.63,0h0l-17.71-.8-65.14-33-9.16-19.64-9.66-20.45-19.31-40.87c-.21-.42-.39-.86-.59-1.3s-.44-.91-.66-1.35c-.45-.9-.93-1.8-1.44-2.68a46.26,46.26,0,0,0-7.43-9.55c-.76-.76-1.35-1.28-2.16-2s-1.54-1.34-2.34-1.94a75.44,75.44,0,0,0-9.9-6.43L491,333.91l-.29-.14-.41-.22-.58-.28a.88.88,0,0,0-.21-.12,99.94,99.94,0,0,0-15.77-6.26,129.31,129.31,0,0,0-72.74,0,100.32,100.32,0,0,0-15.77,6.26l-.21.12c-.43.21-.86.42-1.27.64l-2,1.1a72.67,72.67,0,0,0-9.91,6.52c-.38.29-.76.61-1.15.94s-.76.64-1.14,1L369,344l-.52.5c-.34.33-.68.64-1,1a46.91,46.91,0,0,0-4,4.49,43.72,43.72,0,0,0-6,10.39L327.85,446l.1-.32a21.88,21.88,0,0,0-1.36,6.94,21,21,0,0,0,.19,3.54c.18,1.07.37,2.05.53,3.08l2.14,12.21L338,520.32l1.63,9,2.79,15.39.31,1.75.75,0,1,0,2,0-3.06,5.56-3.73,6.77-13.29,24.17h0L325,585.37l15.12,9.79,2.18-2.38,1-1.1,4.78-5.18L361.47,572l5.46-5.91h0l.75-.87.07-.61,2.34-20.15h0l0-.13v-.08h0l-2.32-39.69-2.56-43.75,9.8-32.73,6.5-21.64.23,13.11v.54L383,471v0l-10.35,77.1v.2l-2.29,38.49-1.15,19.29-.29,4.83c-.08,1.6-.1,3.21-.17,4.82l-.3,9.66L367.16,664l-1.08,38.62L365.53,722c-.11,3.22-.1,6.43-.14,9.65l-.09,9.67-.37,38.62-.65,77.28v1.69h1.65l2.25,0-6.57,10.82-16.05,6.06-8.48,3.21c-2.82,1.07-5.67,2.12-8.47,3.23l-2.18.84v17.46h3.43l77.66,0H411V897l0-10,0-10,.06-19.85,0,.17,0-.28v.11l11.28-129.58c.13-1.35.21-2.69.38-4l.51-4,1-8.08,2.05-16.15,4.11-32.3,7-54.89,7,54.89,4.1,32.3,2.05,16.15,1,8.08.51,4c.17,1.35.26,2.69.39,4l11.28,129.58v0l.06,19.85,0,10,0,10v3.48h3.47l77.66,0h3.43V883l-2.17-.84c-2.81-1.11-5.65-2.16-8.47-3.23l-8.48-3.21-16-6.06-6.57-10.82,2.24,0h1.65v-1.69l-.64-77.28-.39-38.62-.08-9.67c-.05-3.22,0-6.43-.15-9.65l-.53-19.33L507.64,664l-1.23-38.63-.3-9.66c-.06-1.61-.08-3.22-.17-4.82l-.28-4.83-1.16-19.29-2.29-38.49v-.2L491.84,471v0L493,420.06v-.54l.24-13.1v0l7.95,16.37,5.75,11.5,3,6,8.71,17.49,1.1,2.18c.2.39.33.7.57,1.13s.45.82.69,1.22a22,22,0,0,0,3.5,4.36A22.29,22.29,0,0,0,529,470a23.81,23.81,0,0,0,2.44,1.16l2.25,1,5.84,2.52,4.87,2.11,25.16,10.87,17.95,7.74,18,7.66,2.62,1.12,1.22-2.38h0l1-1.94,15.89,10.95.62.44.81,0,36.21,2.79,2.48.19.91-2.43,4.51-12.1,1-2.62Zm-9.91,10-31.7-.51-18.1-11.38h0l-2.32-1.46-1.28,2.28-1.48,2.64-60.21-26.28-5-2.18-4.41-1.92c-1.45-.66-3.11-1.31-4.18-1.92a16.59,16.59,0,0,1-3.28-2.43,16.29,16.29,0,0,1-2.58-3.16c-.18-.29-.35-.59-.5-.88s-.17-.31-.26-.51l-.28-.53-1.11-2.18-3.7-7.3h0l-23.1-47.09h-8.62l-.06,3.15-.29,16.78-.4,16.76c-.11,5.6-.31,11.19-.47,16.79l-.5,16.77v.22l0,.32L489,490.89l2.1,19.38,2.16,19.37,2.34,19.21,0-.56,0,.69v-.13l1,19c.33,6.42.67,12.85,1.07,19.26.72,12.84,1.66,25.68,2,38.54l2.92,77.14.74,19.28c.16,3.22.16,6.44.25,9.66l.2,9.65.77,38.61c.47,24.9,1.08,49.8,1.65,74.69l-6.17.1,1.58,3.5,6.84,15.19.48,1,1.15.47L541,887.41l-.83,2.91-63.63-.42-3.62,0h-1.31l-.84-16.6c-.18-2.06-.32-4.13-.44-6.19-.1-1.66-.15-3.31-.22-5l-.08-3.43-.09-1.77-.06-1.09h0L464.07,792l-2.77-32.47-1.37-16.23L458.64,727c-.11-1.36-.18-2.72-.35-4.06l-.48-4.06-1-8.08-1.9-16.19-3.68-32.37c-2.35-21.6-4.72-43.2-6.73-64.84l-.27-2.82H430.54l-.28,2.82c-2,21.64-4.36,43.24-6.72,64.84l-3.68,32.37L418,710.84l-1,8.08-.47,4.06c-.17,1.34-.24,2.7-.36,4.06l-1.29,16.24-1.37,16.23L410.73,792,405,855.8h0l0,1.09-.1,1.77-.07,3.43c-.08,1.67-.13,3.32-.23,5-.12,2.06-.26,4.13-.43,6.19l-.84,16.6h-1.32l-3.63,0-63.63.42-.81-2.91L364.74,875l1.16-.47.47-1,6.84-15.19,1.57-3.5-6.16-.1c.57-24.89,1.18-49.79,1.66-74.69l.77-38.61.2-9.65c.08-3.22.09-6.44.23-9.66l.76-19.28,2.91-77.14c.35-12.86,1.29-25.7,2-38.54.4-6.41.74-12.84,1.07-19.26l1-19,0,.13.05-.69,0,.56,2.33-19.21,2.17-19.37,2.09-19.38,2.23-19.36,0-.32V471l-.49-16.77c-.16-5.6-.35-11.19-.47-16.79l-.4-16.76-.29-16.78-.05-3.15h-8.63l-7.35,25.19,0,.13-10.3,33.6-.15.48,0,.54h0l4.39,81.59.1,1.9-.81,5.74-1.78,12.46-16.82,16-4.29,4.08-2.07,2-3.16-1.91,6.21-14.77,5.42-12.89,4-9.61.07-.14,1-2.45h-6.35l-2.24-13.84-1.5-9.15-2.51-16.3-1.25-8.17-3.77-24.46-1.88-12.22-.46-3a16.69,16.69,0,0,1-.09-2.64,16,16,0,0,1,1.15-5.09l.09-.34c4.49-12,8.92-24,13.42-36,.77-2.06,1.55-4.12,2.32-6.17l7.95-21,4-10.51,2-5.25,1-2.61.24-.64.23-.58c.16-.38.31-.74.49-1.11a34.6,34.6,0,0,1,5.16-8.23,41.68,41.68,0,0,1,3.36-3.54c.29-.27.67-.6,1-.89l.49-.46.44-.36c.19-.17.42-.36.66-.55l.2-.14v0c.38-.31.79-.61,1.22-.93,1.05-.8,2.17-1.56,3.33-2.29a70.09,70.09,0,0,1,7.23-4,90.43,90.43,0,0,1,15.72-5.7,113.12,113.12,0,0,1,28.21-3.54c.49,0,1,0,1.49,0h7.71c.49,0,1,0,1.49,0a113,113,0,0,1,28.2,3.54,90.73,90.73,0,0,1,15.72,5.7,70.09,70.09,0,0,1,7.23,4c1,.61,1.89,1.23,2.79,1.88l0,0,.89.63c.33.23.67.47,1,.73s.66.5.92.73c.48.4,1.43,1.23,2,1.7a39.41,39.41,0,0,1,3.4,3.55,37.44,37.44,0,0,1,2.9,4c.45.7.86,1.42,1.27,2.14.19.38.38.71.58,1.12s.4.83.62,1.25l20.64,40.37,4.94,9.66,5.37,10.51,10.22,20.21.46.89.82.4,67.06,32.22.33.17.4,0,17.17,1.83,24.86,20Z"/><path d="M471.67,256.56c0-.85-.06-1.74-.15-2.61l-.41-2.86c0-.23-.09-.46-.14-.68l-.07-.28a35.25,35.25,0,0,0-6.57-13.94,34.62,34.62,0,0,0-12-9.74,35.68,35.68,0,0,0-7.34-2.67,31.65,31.65,0,0,0-15.55,0,35.47,35.47,0,0,0-7.34,2.67,34.61,34.61,0,0,0-12,9.73,35.24,35.24,0,0,0-6.57,13.94l-.07.29a6.78,6.78,0,0,0-.15.68l-.4,2.86c-.1.87-.13,1.76-.15,2.61,0,.41,0,.81-.06,1.25a34.05,34.05,0,0,0,.25,3.85c.08.7.18,1.32.29,1.92l.37,1.8c.62,3.57,1.34,7.18,2,10.68l2.61,13.31.46,2.21.22.75a25.32,25.32,0,0,0,17,17.26c1.1.33,2.09.54,3,.73s1.92.35,2.93.48a41.91,41.91,0,0,0,10.81,0c1-.13,2-.3,2.93-.48s1.87-.4,3-.73a25.67,25.67,0,0,0,5.73-2.55,25.25,25.25,0,0,0,11.25-14.71l.23-.79L468.8,276c.68-3.48,1.4-7.08,2-10.61l.37-1.82c.12-.6.21-1.23.29-1.92a34.15,34.15,0,0,0,.25-3.89C471.7,257.37,471.69,257,471.67,256.56Zm-7.38,4.33c0,.51-.1,1-.16,1.51l-.25,1.58c-.15.88-.34,1.78-.53,2.64s-.39,1.8-.55,2.7l-3.9,20.54-.17.57a18.19,18.19,0,0,1-1.75,4.19,18.43,18.43,0,0,1-6.35,6.43,18.76,18.76,0,0,1-4.18,1.85c-.79.23-1.69.43-2.31.55s-1.57.29-2.44.41a36.38,36.38,0,0,1-9,0c-.88-.12-1.68-.25-2.45-.41-.61-.12-1.52-.32-2.3-.55a18.76,18.76,0,0,1-4.18-1.85,17.82,17.82,0,0,1-8.1-10.63l-.16-.52-3.91-20.57c-.16-.91-.36-1.83-.56-2.71s-.38-1.76-.53-2.64l-.25-1.57c-.06-.51-.11-1-.15-1.52-.07-1.06-.09-2.09-.06-3q.07-.61.12-1.23c0-.64.1-1.24.18-1.81l.44-2.28a2.21,2.21,0,0,1,.12-.42,2.29,2.29,0,0,0,.08-.28,27.19,27.19,0,0,1,5.56-10.47,26,26,0,0,1,9.4-6.89,25.69,25.69,0,0,1,9.65-2.14l1.42,0h1l.56,0a25.73,25.73,0,0,1,9.92,2.14,26.11,26.11,0,0,1,9.39,6.89,27.14,27.14,0,0,1,5.55,10.48l.09.27c0,.14.09.28.12.41l.43,2.26c.09.6.14,1.2.18,1.84,0,.41.07.82.12,1.19A28.63,28.63,0,0,1,464.29,260.89Z"/></svg>