<svg id="Capa_1" data-name="Capa 1" xmlns="http://www.w3.org/2000/svg" viewBox="0 0 1300 1000"><defs><style>.cls-1{fill:#fff;}</style></defs><title>2-landmarks-expand</title><path class="cls-1" d="M1149,262.69c0,.5-.09,1-.15,1.51l-.26,1.58c-.14.87-.34,1.76-.53,2.62s-.4,1.8-.55,2.7l-3.9,20.49-.16.57a17.35,17.35,0,0,1-1.75,4.18,18.18,18.18,0,0,1-6.33,6.42,19.15,19.15,0,0,1-4.17,1.85c-.78.23-1.69.43-2.3.55-.77.16-1.56.29-2.43.41a37.18,37.18,0,0,1-4.51.29,36.62,36.62,0,0,1-4.49-.29c-.88-.12-1.68-.25-2.44-.41s-1.52-.32-2.3-.55a18.94,18.94,0,0,1-4.17-1.85,17.76,17.76,0,0,1-8.09-10.61l-.15-.5-3.91-20.53c-.15-.92-.35-1.83-.54-2.72s-.39-1.75-.54-2.62l-.25-1.57c-.06-.5-.12-1-.15-1.52a25.43,25.43,0,0,1-.05-3c0-.41.07-.81.11-1.23,0-.63.09-1.23.19-1.8l.43-2.27a2.58,2.58,0,0,1,.12-.42,2.29,2.29,0,0,1,.08-.28,27.13,27.13,0,0,1,5.54-10.45,26.18,26.18,0,0,1,19-9l1.42,0h1l.57,0a25.23,25.23,0,0,1,9.89,2.14,25.79,25.79,0,0,1,9.37,6.87,27.12,27.12,0,0,1,5.55,10.46c0,.08.05.17.08.27a2.77,2.77,0,0,1,.12.41l.43,2.26c.09.59.13,1.19.19,1.82,0,.42.07.82.11,1.19C1149.07,260.62,1149.06,261.64,1149,262.69Z"/><path class="cls-1" d="M1212.59,561.66l-.65,32.85-6.64,1.79-17.4-27.14-.11-23.14h0v-3.17l-3.18.2-6,.36-18.81-46.94,1.61-51.38-2.19-43.93c.42,1.39.82,2.77,1.23,4.15l6.9,23.4c.6,2,1.12,3.92,1.76,5.86l1.91,5.8,3.84,11.62,15.38,46.46c2.5,7.76,5.08,15.5,7.52,23.27s4.87,15.56,7.29,23.35l.06.17.09.17c.78,1.41,1.55,2.82,2.28,4.27s1.43,2.89,2.1,4.37,1.29,3,1.89,4.47C1211.86,559.55,1212.25,560.6,1212.59,561.66Z"/><path class="cls-1" d="M1093.24,626c-6,19.24-12.42,38.34-18.91,57.39L1064,713.15c-1.68,5-3.49,9.89-5.24,14.84l-.6,1.78c-.09.23-.15.37-.29.7l-.41.92-1.6,3.59-3.18,7.2L1040,771c-2.1,4.81-4.25,9.59-6.41,14.37l-6.46,14.34q-12.86,28.7-26.12,57.21l9.32,19.16,0,.08.08,0,30.19,13.25-.71,1.78-36.89-.7-40.88-14.72,10.44-37.89-1.74-.89-4-2,5.56-12.22,6.32-14.16c4.22-9.43,8.32-18.92,12.48-28.38l12.15-28.53,12-28.59.09-.24.06-.22,10.16-43.08,10.31-43c1.7-7.18,3.49-14.34,5.28-21.5l5.36-21.48L1052,572l2-7.59,20.7,35.93Z"/><path class="cls-1" d="M1289.87,875.05l-.33,3.7-63.12,10.83L1213.37,859l-.91-2.14-1.84.4-5.22,1.08-36.75-129.1-40.9-63c-13.58-21-27.44-41.87-40.51-63.22-6.59-10.66-13.08-21.36-19.59-32.06l-4.89-8a39.11,39.11,0,0,1-2.17-4c-.66-1.35-1.23-2.73-1.75-4.12s-.93-2.86-1.29-4.31v0h0a44.06,44.06,0,0,1-1.14-13.24,38.52,38.52,0,0,1,.56-4.41l.84-4.62,1.65-9.23c1.12-6.15,2.19-12.32,3.38-18.47s2.32-12.29,3.64-18.4c1-4.92,2.17-9.81,3.48-14.68l27.21-30.47,22.24-39.8h-2.6l-52.26,68.07-8.31,22.23-8.18,22.31-8.13,22.31-8.09,22.32-.09.27-.06.43-.61,5c-.17,1.66-.38,3.32-.53,5l-.48,5c-.1,1.38-.22,2.76-.32,4.13l-19.6,25.58-6.51-2.44,1.88-32.27,9-14.07h0l1.78-2.77-3-.62-5.42-1.14c6.84-23.6,13.85-47.13,20.83-70.67l5.38-18.12,2.68-9.07.68-2.26.74-2.25c.12-.35.25-.7.36-1l.17-.38.25-.53,1-2.12c2.71-5.64,5.55-11.26,8.41-16.87s5.77-11.19,8.69-16.77c5.82-11.18,11.83-22.27,17.82-33.37l9-16.62,2.29-4.21a20.9,20.9,0,0,1,1-1.87c.38-.59.73-1.17,1.11-1.73l1.24-1.66,1.35-1.53c.48-.5,1-1,1.46-1.44s1-.89,1.54-1.35a32.71,32.71,0,0,1,14.43-6.63,34.62,34.62,0,0,1,7.87-.56,32,32,0,0,1,7.8,1.14c1.29.31,2.53.78,3.78,1.21a37.26,37.26,0,0,1,3.62,1.7,30.28,30.28,0,0,1,6.58,4.7,29.66,29.66,0,0,1,5.12,6.36,34.52,34.52,0,0,1,3.23,7.58l.1.32c.52,1.74,1,3.49,1.58,5.23,1.84,7.68,4,23.66,4.12,24.38v0l1,86.32,0,5.4v.54l0,10.63,0,1.69.37,50.32v.12l13,38.13c4.34,12.71,8.78,25.38,13.16,38.08,8.76,25.4,17.71,50.72,26.58,76.08l6.67,19,.84,2.37.4,1.13c.1.32.19.67.27,1,.16.71.29,1.49.42,2.33l.22,1.28.24,1.25c.61,3.31,1.23,6.62,1.89,9.91,2.6,13.2,5.34,26.36,8.12,39.51s5.72,26.25,8.61,39.37c1.44,6.56,3,13.1,4.45,19.65s3,13.09,4.54,19.63h0l.11.47.31.42,12.09,15.93h0l.64.82,1.1.18Z"/><path d="M1296.81,869.06l-2.57-.35h0L1259.35,864,1247,850.56q-8.27-39.16-16.1-78.42c-2.62-13.18-5.21-26.35-7.65-39.51-.63-3.3-1.21-6.59-1.77-9.87l-.23-1.24-.18-1.17c-.13-.82-.26-1.74-.48-2.74-.11-.5-.25-1-.42-1.55l-.43-1.29-.81-2.39-6.51-19.07-51.65-151.6-2.07-32.57-.21-3.32.57,1.59,14.45,40.25.84,2.35,2.45-.18h0l4.81-.36.29,20.6v.76l.4.73h0l17.25,31.84,1.65,3,3.39-1.05h0l12.3-4,3-1-.09-2.83h0l-1.26-36.19,0-.75-.27-.44h0c-.87-1.36-1.7-2.74-2.55-4.11l-2.48-4.15c-.84-1.38-1.62-2.79-2.43-4.18l-2.31-4,.07.22-.17-.38.1.16-14.33-46.5-14.26-46.76-3.56-11.69-1.79-5.84c-.61-1.94-1.11-3.93-1.65-5.89l-6.48-23.63q-4.41-16.17-8.74-32.41-1.47-5.5-2.9-11-.52-1.92-1-3.87l.07.23a45,45,0,0,0-3.65-9.6l-1.28-2.25c-.43-.74-.94-1.44-1.41-2.16a21.83,21.83,0,0,0-1.51-2.1c-.54-.68-1-1.39-1.64-2a40.25,40.25,0,0,0-7.73-7.06,43.91,43.91,0,0,0-4.54-2.8,40.39,40.39,0,0,0-4.93-2.07l-1.27-.43c-.43-.14-.87-.23-1.3-.34-.87-.2-1.73-.46-2.62-.61l-2.67-.37c-.89-.14-1.78-.13-2.67-.19a37.5,37.5,0,0,0-10.66,1.14,39.78,39.78,0,0,0-18.07,10.62c-.59.64-1.22,1.25-1.78,1.9s-1.14,1.31-1.67,2l-1.54,2.08-1.43,2.15c-.45.74-.85,1.5-1.28,2.24s-.74,1.5-1.12,2.26l-2.12,4.19-8.49,16.93-17.07,33.81c-2.82,5.66-5.63,11.3-8.41,17s-5.54,11.36-8.19,17.15l-1,2.16-.24.55c-.11.24-.2.47-.29.7-.16.43-.29.83-.42,1.22l-.7,2.26-.64,2.28-2.53,9.13L1024,474.38l-20.24,73-.55,2,1.92.43h0l4.82,1-9.68,11.77-.37.45-.13.9h0L995,599.85l-.41,3.21,3.26,1.23h0l12.17,4.33,3.09,1.09,1.78-2.57,20.23-30,.46-.69.05-.65h0l.46-5,.51-5c.17-1.66.38-3.33.56-5l.53-4.63-.09.25.13-.6,0,.35,15.75-44.52,5.44-15.41c-.28,1.19-.57,2.39-.86,3.57l-4.49,18.29-2.18,9.16c-.38,1.52-.71,3-1.06,4.58a48.85,48.85,0,0,0-.78,5.11,48.07,48.07,0,0,0,.17,10.38c.07.53.15,1,.23,1.58l-5.45,21.3-5.32,21.48L1034,613.21c-1.74,7.18-3.46,14.35-5.09,21.54L1019,677.9l-9.68,42.92.13-.33-.19.59.06-.26-23.73,56.91-23.49,57.4-.72,1.76,1.58.81,4.58,2.31-13.71,37.8-.84,2.32,2.24,1.06,45.45,20,.1,0h.08l46.76-.24,0-16.8L1015,870.89l-7.56-14.2,11.94-25.92,3.28-7.14,3.24-7.16,6.48-14.32,25.91-57.29,3.24-7.16,1.63-3.58.39-.87c.12-.26.37-.77.51-1.17l.7-2c1.79-4.92,3.61-9.82,5.36-14.76l10.6-29.57q9.24-25.92,18.18-52a2.6,2.6,0,0,0,.13-.36l1.53,2.39,1.55,2.41,20.35,31.53q20.14,31.17,40.63,62.09l38.33,129.92.67,2.27,2.2-.54,5.25-1.25L1220,900.94l.07.27.28-.05c12.82-2.11,25.93-4.26,39.27-6.67s26.87-5,40.4-7.92ZM1160.45,405.31l6.9,23.4c.6,2,1.12,3.92,1.76,5.86l1.91,5.8,3.84,11.62,15.38,46.46c2.5,7.76,5.08,15.5,7.52,23.27s4.87,15.56,7.29,23.35l.06.17.09.17c.78,1.41,1.55,2.82,2.28,4.27s1.43,2.89,2.1,4.37,1.29,3,1.89,4.47c.39,1,.78,2.08,1.12,3.14l-.65,32.85-6.64,1.79-17.4-27.14-.11-23.14h0v-3.17l-3.18.2-6,.36-18.81-46.94,1.61-51.38-2.19-43.93C1159.64,402.55,1160,403.93,1160.45,405.31Zm-86.12,278.1L1064,713.15c-1.68,5-3.49,9.89-5.24,14.84l-.6,1.78c-.09.23-.15.37-.29.7l-.41.92-1.6,3.59-3.18,7.2L1040,771c-2.1,4.81-4.25,9.59-6.41,14.37l-6.46,14.34q-12.86,28.7-26.12,57.21l9.32,19.16,0,.08.08,0,30.19,13.25.19-.22.29.41-.48-.19-.71,1.78-36.89-.7-40.88-14.72,10.44-37.89-1.74-.89-4-2,5.56-12.22,6.32-14.16c4.22-9.43,8.32-18.92,12.48-28.38l12.15-28.53,12-28.59.09-.24.06-.22,10.16-43.08,10.31-43c1.7-7.18,3.49-14.34,5.28-21.5l5.36-21.48L1052,572l2-7.59,20.7,35.93L1093.24,626C1087.2,645.26,1080.82,664.36,1074.33,683.41Zm215.21,195.34-63.12,10.83L1213.37,859l-.91-2.14-1.84.4-5.22,1.08-36.75-129.1-40.9-63c-13.58-21-27.44-41.87-40.51-63.22-6.59-10.66-13.08-21.36-19.59-32.06l-4.89-8a39.11,39.11,0,0,1-2.17-4c-.66-1.35-1.23-2.73-1.75-4.12s-.93-2.86-1.29-4.31v0a44.06,44.06,0,0,1-1.14-13.24,38.52,38.52,0,0,1,.56-4.41l.84-4.62,1.65-9.23c1.12-6.15,2.19-12.32,3.38-18.47s2.32-12.29,3.64-18.4c1-4.92,2.17-9.81,3.48-14.68l27.21-30.47,22.24-39.8h-2.6l-52.26,68.07-8.31,22.23-8.18,22.31-8.13,22.31-8.09,22.32-.09.27-.06.43-.61,5c-.17,1.66-.38,3.32-.53,5l-.48,5c-.1,1.38-.22,2.76-.32,4.13l-19.6,25.58-6.51-2.44,1.88-32.27,9-14.07h0l1.78-2.77-3-.62-5.42-1.14c6.84-23.6,13.85-47.13,20.83-70.67l5.38-18.12,2.68-9.07.68-2.26.74-2.25c.12-.35.25-.7.36-1l.17-.38.25-.53,1-2.12c2.71-5.64,5.55-11.26,8.41-16.87s5.77-11.19,8.69-16.77c5.82-11.18,11.83-22.27,17.82-33.37l9-16.62,2.29-4.21a20.9,20.9,0,0,1,1-1.87c.38-.59.73-1.17,1.11-1.73l1.24-1.66,1.35-1.53c.48-.5,1-1,1.46-1.44s1-.89,1.54-1.35a32.71,32.71,0,0,1,14.43-6.63,34.62,34.62,0,0,1,7.87-.56,32,32,0,0,1,7.8,1.14c1.29.31,2.53.78,3.78,1.21a37.26,37.26,0,0,1,3.62,1.7,30.28,30.28,0,0,1,6.58,4.7,29.66,29.66,0,0,1,5.12,6.36,34.52,34.52,0,0,1,3.23,7.58l.1.32c.52,1.74,1,3.49,1.58,5.23,1.84,7.68,4,23.66,4.12,24.38v0l1,86.32,0,5.4v.54l0,10.63,0,1.69.37,50.32v.12l13,38.13c4.34,12.71,8.78,25.38,13.16,38.08,8.76,25.4,17.71,50.72,26.58,76.08l6.67,19,.84,2.37.4,1.13c.1.32.19.67.27,1,.16.71.29,1.49.42,2.33l.22,1.28.24,1.25c.61,3.31,1.23,6.62,1.89,9.91,2.6,13.2,5.34,26.36,8.12,39.51s5.72,26.25,8.61,39.37c1.44,6.56,3,13.1,4.45,19.65s3,13.09,4.54,19.63h0l.11.47.31.42,12.09,15.93h0l.64.82,1.1.18,32.54,5.25Z"/><polygon points="1009.43 720.49 1009.24 721.08 1009.3 720.82 1009.43 720.49"/><polygon points="1041.13 889.58 1040.66 889.39 1040.84 889.17 1041.13 889.58"/><path d="M1057.56,550.59v0Z"/><polygon points="1154.04 476.7 1153.87 476.73 1153.87 476.27 1154.04 476.7"/><polygon points="1159.81 503.92 1159.45 505.67 1159.23 502.32 1159.81 503.92"/><polygon points="1153.91 489.17 1153.9 489.18 1153.89 487.46 1153.91 489.17"/><path d="M1156.35,258.38c0-.85-.06-1.74-.15-2.61l-.4-2.85c0-.23-.09-.46-.15-.68l-.07-.28a35.09,35.09,0,0,0-6.55-13.91,34.57,34.57,0,0,0-12-9.72,33.68,33.68,0,0,0-30.17,0,34.57,34.57,0,0,0-12,9.72,35.13,35.13,0,0,0-6.56,13.9l-.06.29a5.17,5.17,0,0,0-.16.68l-.4,2.85c-.09.87-.12,1.76-.15,2.61,0,.4,0,.8,0,1.24a34.2,34.2,0,0,0,.25,3.85c.08.68.18,1.31.28,1.91l.37,1.8c.62,3.56,1.34,7.16,2,10.64l2.6,13.3.47,2.2.21.74a25.17,25.17,0,0,0,11.23,14.68,25.79,25.79,0,0,0,5.72,2.55c1.1.33,2.08.54,3,.73s1.91.34,2.91.48a43.13,43.13,0,0,0,10.81,0c1-.14,2-.3,2.91-.48s1.87-.4,3-.73a25.92,25.92,0,0,0,5.71-2.55,25.28,25.28,0,0,0,8.77-8.88,24.79,24.79,0,0,0,2.46-5.8l.23-.78,3.06-15.46c.69-3.48,1.4-7.08,2-10.62l.38-1.83c.11-.59.2-1.22.29-1.91a34,34,0,0,0,.25-3.88C1156.38,259.18,1156.37,258.78,1156.35,258.38Zm-7.36,4.31c0,.5-.09,1-.15,1.51l-.26,1.58c-.14.87-.34,1.76-.53,2.62s-.4,1.8-.55,2.7l-3.9,20.49-.16.57a17.35,17.35,0,0,1-1.75,4.18,18.18,18.18,0,0,1-6.33,6.42,19.15,19.15,0,0,1-4.17,1.85c-.78.23-1.69.43-2.3.55-.77.16-1.56.29-2.43.41a37.18,37.18,0,0,1-4.51.29,36.62,36.62,0,0,1-4.49-.29c-.88-.12-1.68-.25-2.44-.41s-1.52-.32-2.3-.55a18.94,18.94,0,0,1-4.17-1.85,17.76,17.76,0,0,1-8.09-10.61l-.15-.5-3.91-20.53c-.15-.92-.35-1.83-.54-2.72s-.39-1.75-.54-2.62l-.25-1.57c-.06-.5-.12-1-.15-1.52a25.43,25.43,0,0,1-.05-3c0-.41.07-.81.11-1.23,0-.63.09-1.23.19-1.8l.43-2.27a2.58,2.58,0,0,1,.12-.42,2.29,2.29,0,0,1,.08-.28,27.13,27.13,0,0,1,5.54-10.45,26.18,26.18,0,0,1,19-9l1.42,0h1l.57,0a25.23,25.23,0,0,1,9.89,2.14,25.79,25.79,0,0,1,9.37,6.87,27.12,27.12,0,0,1,5.55,10.46c0,.08.05.17.08.27a2.77,2.77,0,0,1,.12.41l.43,2.26c.09.59.13,1.19.19,1.82,0,.42.07.82.11,1.19C1149.07,260.62,1149.06,261.64,1149,262.69Z"/></svg>