<svg id="Capa_1" data-name="Capa 1" xmlns="http://www.w3.org/2000/svg" viewBox="0 0 1300 1000"><defs><style>.cls-1{fill:#fff;}</style></defs><title>2-landmarks-expand</title><path class="cls-1" d="M285.86,249.19l1.38.23-1.71,22-1.69,23.68-1.67,23.69-1.26,17.78a15.85,15.85,0,0,1-1.18,4.88,16.57,16.57,0,0,1-6.34,7.51,14.4,14.4,0,0,1-2.19,1.17c-.38.16-.76.31-1.16.45s-.85.27-1.32.41l-5.69,1.7-22.75,6.83-18.09,5.42-4.67,1.39-3,.92-19.73,6.08-2.1.65-.82,27.35,0,3.14-.23,13.14v.69l0,3L191.16,438c-.13,5.59-.32,11.19-.48,16.78l-.5,16.78v.22l0,.33,2.24,19.36,2.1,19.38,2.16,19.38,2.34,19.22,1,19c.33,6.41.68,12.84,1.08,19.25.72,12.85,1.66,25.69,2,38.56L206,703.44l.75,19.29c.15,3.22.16,6.44.25,9.65l.19,9.67.77,38.61c.48,24.92,1.09,49.82,1.66,74.73l-6.17.1,1.57,3.49,6.84,15.21.49,1,1.15.46,30.9,12.44-.81,2.91L180,890.61l-3.63,0H175L174.19,874c-.17-2.07-.32-4.13-.43-6.2-.1-1.66-.16-3.32-.23-5l-.08-3.44-.09-1.77-.06-1.09h0l-5.77-63.84-2.77-32.48-1.37-16.25-1.29-16.24c-.12-1.36-.19-2.72-.36-4.06l-.47-4.06-1-8.08-1.89-16.2-3.69-32.38C152.36,641.3,150,619.7,148,598l-.28-2.81H134l-.28,2.81c-2,21.66-4.37,43.26-6.72,64.87l-3.69,32.38-1.89,16.2-1,8.08-.47,4.06c-.17,1.34-.24,2.7-.36,4.06l-1.28,16.24-1.38,16.25-2.77,32.48L108.4,856.5h0l-.06,1.09-.09,1.77-.07,3.44c-.08,1.66-.13,3.32-.23,5-.12,2.07-.27,4.13-.43,6.2l-.85,16.59h-1.31l-3.62,0L38.08,891l-.82-2.91,30.9-12.44,1.15-.46.49-1L76.64,859l1.57-3.49-6.16-.1c.57-24.91,1.18-49.81,1.65-74.73l.77-38.61.2-9.67c.09-3.21.09-6.43.24-9.65l.75-19.29,2.92-77.17c.34-12.87,1.28-25.71,2-38.56.4-6.41.75-12.84,1.08-19.25l1-19L85,530.22l2.16-19.38,2.1-19.38,2.24-19.36,0-.33v-.22L91,454.77c-.16-5.59-.35-11.19-.47-16.78l-.4-16.78-.29-16.79,0-3.14H81.18l-7.36,25.19,0,.14-10.3,33.61-.15.48,0,.53h0l4.39,81.62.1,1.89L67,550.49,65.25,563,48.44,579,44.15,583l-2.07,2-3.17-1.91,6.21-14.77,5.43-12.9,4-9.61.06-.15,1-2.44H49.34l-2.25-13.85-1.49-9.15-2.51-16.3-1.26-8.18-3.77-24.47-1.88-12.22-.46-3a15.5,15.5,0,0,1,1.05-7.73l.1-.33c4.49-12,8.92-24.06,13.43-36,.76-2.06,1.55-4.12,2.32-6.18l8-21,4-10.51,2-5.25,1-2.62.24-.65.22-.56c.16-.38.31-.76.49-1.12a35.24,35.24,0,0,1,5.16-8.23A40.39,40.39,0,0,1,77,352.22c.29-.27.67-.6,1-.88l.5-.46.43-.36c.2-.18.42-.36.66-.56a1.37,1.37,0,0,0,.2-.13l0,0c.38-.31.79-.62,1.21-.94,1.05-.79,2.19-1.55,3.34-2.28a67.49,67.49,0,0,1,7.24-4,90.13,90.13,0,0,1,15.72-5.7,109.78,109.78,0,0,1,22.58-3.39h0l47.71-3.59h.09l5.45-.52,65.3-6.1,2.36-.22.35-2.16,12.29-75.33,1.82.32,2.49.44-.22-2.67-1.77-21.17,13.9-28.59,5.71.66,6.41,31.22-7.44,20.75-.81,2.27Z"/><path class="cls-1" d="M168,261.87c0,.51-.09,1-.15,1.51l-.25,1.59c-.15.87-.35,1.76-.54,2.62s-.39,1.8-.55,2.7l-3.9,20.5-.16.57a17.78,17.78,0,0,1-8.09,10.6,18.52,18.52,0,0,1-4.17,1.86c-.78.23-1.68.43-2.3.55s-1.56.29-2.44.41a36.22,36.22,0,0,1-9,0c-.89-.12-1.68-.25-2.45-.41s-1.52-.32-2.3-.55a18.52,18.52,0,0,1-4.17-1.86,18.18,18.18,0,0,1-6.34-6.41,17.91,17.91,0,0,1-1.75-4.2l-.15-.5-3.91-20.54c-.16-.92-.36-1.84-.55-2.72s-.39-1.75-.53-2.62L114,263.4q-.09-.76-.15-1.53a27.78,27.78,0,0,1,0-3c0-.41.08-.81.11-1.23,0-.63.1-1.22.19-1.8l.43-2.27a4.21,4.21,0,0,1,.12-.42l.09-.28a26.93,26.93,0,0,1,5.54-10.45,26.14,26.14,0,0,1,19-9l1.41,0h1l.57,0a25.23,25.23,0,0,1,9.89,2.14,25.76,25.76,0,0,1,9.38,6.88,26.92,26.92,0,0,1,5.55,10.46c0,.08.05.17.08.27s.09.27.12.41l.43,2.26c.09.6.14,1.19.19,1.82,0,.42.06.82.11,1.19A28.36,28.36,0,0,1,168,261.87Z"/><path d="M297.92,226.47l-.11-.89-4.64-36-.37-2.84-2.83-.29-12.86-1.33-2.58-.27-1,2.3-14.05,33.51-.38.91.16.81,3.7,19-.76-.14-2.06-.37-.39,2.1-13.85,74.66-90.49,3.91-14.59.63-2.29,0-5.15.21h-.2a124.42,124.42,0,0,0-28.74,5,100.91,100.91,0,0,0-15.77,6.26,1.19,1.19,0,0,0-.22.12l-1.27.64c-.69.36-1.35.73-2,1.11a72.18,72.18,0,0,0-9.9,6.51c-.39.3-.77.62-1.15.94s-.76.64-1.15,1l-.57.52-.51.5c-.35.33-.69.63-1.05,1a47,47,0,0,0-4,4.5,43.19,43.19,0,0,0-6,10.39L31.26,446.58l.1-.31A21.77,21.77,0,0,0,30,453.21a21,21,0,0,0,.19,3.54c.18,1.07.36,2.05.54,3.07L32.86,472l4.29,24.43,4.28,24.42,1.63,9,2.79,15.4.32,1.75.74,0,1,0,2,0-3,5.56-3.73,6.78-13.3,24.17h0L28.4,586l15.13,9.8,2.18-2.38,1-1.1,4.78-5.18,13.38-14.52,5.46-5.92h0l.74-.86.07-.62L73.51,545h0l0-.13v-.08h0L71.21,505.1l-2.56-43.77,9.81-32.73L85,407l.24,13.11v.54l1.19,50.94v0L76,548.68v.2l-2.3,38.5-1.15,19.31-.28,4.82c-.09,1.6-.11,3.21-.17,4.83l-.3,9.66-1.23,38.65L69.5,703.28,69,722.6c-.11,3.23-.1,6.45-.14,9.67l-.09,9.67-.38,38.64-.65,77.3v1.7l1.65,0,2.25,0L65,870.36l-16,6.06-8.48,3.21c-2.82,1.07-5.66,2.12-8.47,3.23l-2.18.84v17.47h3.43l77.69.05h3.48v-3.48l0-10,0-10,.06-19.86v0L125.78,728.3c.13-1.35.21-2.7.37-4l.52-4,1-8.08L129.75,696l4.11-32.32,7-54.91,7,54.91L152,696,154,712.13l1,8.08.51,4c.17,1.35.25,2.7.38,4l11.29,129.62v0l.05,19.86,0,10,0,10v3.48h3.48l77.69-.05h3.43V883.7l-2.17-.84c-2.82-1.11-5.66-2.16-8.48-3.23l-8.48-3.21-16-6.06-6.58-10.82,2.25,0,1.66,0v-1.7l-.66-77.3L213,741.94l-.08-9.67c0-3.22,0-6.44-.15-9.67l-.54-19.32-1.08-38.63L209.89,626l-.31-9.66c-.06-1.62-.08-3.23-.16-4.83l-.29-4.82L208,587.38l-2.3-38.5v-.2l-10.34-77.14v.11l0-.24,0,.13,1.19-50.94v-.54l0-1.72h0l.65-9.92.47-7.13,1.46-22.39,17.75-5.48,7.47-2.31,17.8-5.51,22.72-7,5.68-1.75,1.51-.48c.54-.2,1.07-.42,1.6-.65a22.61,22.61,0,0,0,3-1.63,22.21,22.21,0,0,0,8.55-10.45,21.91,21.91,0,0,0,1.49-6.62L287,331l.65-11.87,1.26-23.75,2.54-47.49.11-2-1.93-.3-.39-.06,8.35-18.44Zm-13.55,20.08-.81,2.27,2.3.37,1.38.23-1.71,22-1.69,23.68-1.67,23.69-1.26,17.78a15.85,15.85,0,0,1-1.18,4.88,16.57,16.57,0,0,1-6.34,7.51,14.4,14.4,0,0,1-2.19,1.17c-.38.16-.76.31-1.16.45s-.85.27-1.32.41l-5.69,1.7-22.75,6.83-18.09,5.42-4.67,1.39-3,.92-19.73,6.08-2.1.65-.82,27.35,0,3.14-.23,13.14v.69l0,3L191.16,438c-.13,5.59-.32,11.19-.48,16.78l-.5,16.78v.22l0,.33,2.24,19.36,2.1,19.38,2.16,19.38,2.34,19.22,0-.56,0,.69v-.13l1,19c.33,6.41.68,12.84,1.08,19.25.72,12.85,1.66,25.69,2,38.56L206,703.44l.75,19.29c.15,3.22.16,6.44.25,9.65l.19,9.67.77,38.61c.48,24.92,1.09,49.82,1.66,74.73l-6.17.1,1.57,3.49,6.84,15.21.49,1,1.15.46,30.9,12.44-.81,2.91L180,890.61l-3.63,0H175L174.19,874c-.17-2.07-.32-4.13-.43-6.2-.1-1.66-.16-3.32-.23-5l-.08-3.44-.09-1.77-.06-1.09h0l-5.77-63.84-2.77-32.48-1.37-16.25-1.29-16.24c-.12-1.36-.19-2.72-.36-4.06l-.47-4.06-1-8.08-1.89-16.2-3.69-32.38C152.36,641.3,150,619.7,148,598l-.28-2.81H134l-.28,2.81c-2,21.66-4.37,43.26-6.72,64.87l-3.69,32.38-1.89,16.2-1,8.08-.47,4.06c-.17,1.34-.24,2.7-.36,4.06l-1.28,16.24-1.38,16.25-2.77,32.48L108.4,856.5h0l-.06,1.09-.09,1.77-.07,3.44c-.08,1.66-.13,3.32-.23,5-.12,2.07-.27,4.13-.43,6.2l-.85,16.59h-1.31l-3.62,0L38.08,891l-.82-2.91,30.9-12.44,1.15-.46.49-1L76.64,859l1.57-3.49-6.16-.1c.57-24.91,1.18-49.81,1.65-74.73l.77-38.61.2-9.67c.09-3.21.09-6.43.24-9.65l.75-19.29,2.92-77.17c.34-12.87,1.28-25.71,2-38.56.4-6.41.75-12.84,1.08-19.25l1-19,0,.13,0-.69,0,.56L85,530.22l2.16-19.38,2.1-19.38,2.24-19.36,0-.33v-.22L91,454.77c-.16-5.59-.35-11.19-.47-16.78l-.4-16.78-.29-16.79,0-3.14H81.18l-7.36,25.19,0,.14-10.3,33.61-.15.48,0,.53h0l4.39,81.62.1,1.89L67,550.49,65.25,563,48.44,579,44.15,583l-2.07,2-3.17-1.91,6.21-14.77,5.43-12.9,4-9.61.06-.15,1-2.44H49.34l-2.25-13.85-1.49-9.15-2.51-16.3-1.26-8.18-3.77-24.47-1.88-12.22-.46-3a15.5,15.5,0,0,1,1.05-7.73l.1-.33c4.49-12,8.92-24.06,13.43-36,.76-2.06,1.55-4.12,2.32-6.18l8-21,4-10.51,2-5.25,1-2.62.24-.65.22-.56c.16-.38.31-.76.49-1.12a35.24,35.24,0,0,1,5.16-8.23A40.39,40.39,0,0,1,77,352.22c.29-.27.67-.6,1-.88l.5-.46.43-.36c.2-.18.42-.36.66-.56a1.37,1.37,0,0,0,.2-.13l0,0c.38-.31.79-.62,1.21-.94,1.05-.79,2.19-1.55,3.34-2.28a67.49,67.49,0,0,1,7.24-4,90.13,90.13,0,0,1,15.72-5.7,109.78,109.78,0,0,1,22.58-3.39h0l47.71-3.59h.09l5.45-.52,65.3-6.1,2.36-.22.35-2.16,12.29-75.33,1.82.32,2.49.44-.22-2.67-1.77-21.17,13.9-28.59,5.71.66,6.41,31.22Z"/><path d="M175.32,257.56c0-.86-.06-1.74-.15-2.61l-.4-2.86c0-.23-.09-.45-.15-.67l-.07-.29A35.11,35.11,0,0,0,168,237.22a35,35,0,0,0-19.33-12.38,31.52,31.52,0,0,0-15.52,0,34.67,34.67,0,0,0-25.88,26.29l-.07.29a4.82,4.82,0,0,0-.16.68l-.4,2.85c-.09.87-.12,1.76-.15,2.61,0,.4,0,.81,0,1.24a32.17,32.17,0,0,0,.25,3.86c.08.68.18,1.31.28,1.91l.37,1.79c.62,3.56,1.34,7.17,2,10.66l2.61,13.3.47,2.2.2.75A25.21,25.21,0,0,0,123.88,308a25.67,25.67,0,0,0,5.73,2.55c1.09.33,2.08.54,3,.73s1.92.34,2.92.48a41.83,41.83,0,0,0,10.8,0c1-.14,2-.3,2.92-.48s1.88-.4,3-.73a25.79,25.79,0,0,0,5.72-2.55,25.21,25.21,0,0,0,11.24-14.68l.22-.79L172.44,277c.69-3.49,1.41-7.1,2-10.63l.38-1.83c.11-.59.2-1.22.28-1.91a34.15,34.15,0,0,0,.25-3.89C175.35,258.37,175.34,258,175.32,257.56ZM168,261.87c0,.51-.09,1-.15,1.51l-.25,1.59c-.15.87-.35,1.76-.54,2.62s-.39,1.8-.55,2.7l-3.9,20.5-.16.57a17.78,17.78,0,0,1-8.09,10.6,18.52,18.52,0,0,1-4.17,1.86c-.78.23-1.68.43-2.3.55s-1.56.29-2.44.41a36.22,36.22,0,0,1-9,0c-.89-.12-1.68-.25-2.45-.41s-1.52-.32-2.3-.55a18.52,18.52,0,0,1-4.17-1.86,18.18,18.18,0,0,1-6.34-6.41,17.91,17.91,0,0,1-1.75-4.2l-.15-.5-3.91-20.54c-.16-.92-.36-1.84-.55-2.72s-.39-1.75-.53-2.62L114,263.4q-.09-.76-.15-1.53a27.78,27.78,0,0,1,0-3c0-.41.08-.81.11-1.23,0-.63.1-1.22.19-1.8l.43-2.27a4.21,4.21,0,0,1,.12-.42l.09-.28a26.93,26.93,0,0,1,5.54-10.45,26.14,26.14,0,0,1,19-9l1.41,0h1l.57,0a25.23,25.23,0,0,1,9.89,2.14,25.76,25.76,0,0,1,9.38,6.88,26.92,26.92,0,0,1,5.55,10.46c0,.08.05.17.08.27s.09.27.12.41l.43,2.26c.09.6.14,1.19.19,1.82,0,.42.06.82.11,1.19A28.36,28.36,0,0,1,168,261.87Z"/></svg>