<svg id="Capa_1" data-name="Capa 1" xmlns="http://www.w3.org/2000/svg" viewBox="0 0 1300 1000"><defs><style>.cls-1{fill:#fff;}</style></defs><title>2-landmarks-expand</title><path class="cls-1" d="M214.87,888.15l-.73,2.6,0,.16,0,.15L200.89,891v-4.53L166,871.75l-6.35-11.44,22-150.22L199.4,593.53l-1.32,42.14L197,673.17l-.53,18.74-.27,9.37-.06,2.35c0,.72-.06,1.35-.14,2.07l-.62,4.48C188.75,759.76,182.07,809.36,176,859l-.09.71.07.13,6.48,14.39.47,1,1.15.46L207,885Z"/><path class="cls-1" d="M200.81,547.1c0-.15,0-.3,0-.45a20.15,20.15,0,0,0-.07-2.33l-.17-2.34-1.34-18.72-2.68-37.42-5.31-74.78-2.63-37.36-.66-9.35-.32-4.67,0-.56-.06-.42-.14-.82c-.13-.6-.23-1.21-.39-1.8a27.06,27.06,0,0,0-2.69-6.74,26.33,26.33,0,0,0-4.36-5.69,30.36,30.36,0,0,0-5.57-4.32,30,30,0,0,0-6.33-2.92,31.38,31.38,0,0,0-6.83-1.4,39.32,39.32,0,0,0-7.11.1A32,32,0,0,0,139.92,340a25.61,25.61,0,0,0-6,5.43,24.7,24.7,0,0,0-3.82,6.94s-11.65,33.91-16.91,50.83l-7.88,25.38-4,12.67-2,6.34-1,3.12a16.5,16.5,0,0,0-.56,2.78,20.55,20.55,0,0,0-.09,3l0,3.31.08,6.65L98,479.69l.28,26.57.56,51.53,4.08.1,1.81.05-.32,1.9-3.23,18.8,8.55,32.08h11l10.43-31.89-6-19.4,4.08-93.31,29.16-65.71H161l-23.29,66.52-6,92.5L139,578.92l-14.75,40h-9.33l9.78,85.78,0,.23,0,.23-11.1,152.63h5.26l.34,2.09,5.11,30.73,37.18.14,3,0,29.86.19v-2L160.55,875.7l-7-15L172.31,708.4ZM164.54,890.71l3.05,0-3.05,0Z"/><path class="cls-1" d="M191.5,262.05c0,.5-.09,1-.15,1.51l-.25,1.58c-.15.88-.35,1.77-.54,2.63s-.39,1.79-.55,2.7L186.11,291l-.16.57a17.76,17.76,0,0,1-1.75,4.18,18.21,18.21,0,0,1-6.34,6.42,18.79,18.79,0,0,1-4.18,1.86c-.78.23-1.68.43-2.3.55s-1.56.29-2.44.41a35.06,35.06,0,0,1-9,0c-.88-.12-1.68-.25-2.44-.41s-1.53-.32-2.3-.55a18.59,18.59,0,0,1-4.18-1.86,18.27,18.27,0,0,1-6.34-6.41,17.91,17.91,0,0,1-1.75-4.2l-.15-.51-3.92-20.55c-.15-.92-.35-1.83-.54-2.71s-.39-1.75-.54-2.63l-.25-1.57c-.06-.5-.12-1-.16-1.52a27.89,27.89,0,0,1,0-3c0-.4.07-.81.11-1.23.05-.62.1-1.22.19-1.8l.43-2.27c0-.15.07-.29.11-.43l.09-.27a26.93,26.93,0,0,1,5.55-10.46,26.14,26.14,0,0,1,19-9l1.41,0h1l.57,0a25.19,25.19,0,0,1,9.89,2.14,25.89,25.89,0,0,1,9.39,6.88,27.16,27.16,0,0,1,5.55,10.47c0,.08,0,.17.08.26s.09.28.12.42l.43,2.26c.09.6.14,1.2.19,1.82,0,.42.06.83.11,1.2A28.44,28.44,0,0,1,191.5,262.05Z"/><path d="M118.58,704.71l0,.37,0,.32Zm3.91-354.08-.09.33v.58l.17-1.14Z"/><path d="M222.27,886.08v-2.33l-35.09-13.31L185,866.87l-4.53-8,5-36.35,5.28-37.07,10.54-74.11.73-4.92c.06-.44.1-.9.14-1.39s0-1,.05-1.38l.08-2.35.32-9.36.66-18.74,1.3-37.48,2.71-74.94.34-9.36.08-2.34c0-.78,0-1.64,0-2.45a21.13,21.13,0,0,0-.06-2.41l-.16-2.34-1.29-18.75-2.6-37.48L201,448.18l-2.51-37.43c-.76-12.49-1.53-25-2.18-37.45l-.5-9.35-.25-4.68a35.63,35.63,0,0,0-.61-4.72,39.73,39.73,0,0,0-8-17.12,36.14,36.14,0,0,0-35.27-13,37.75,37.75,0,0,0-18.13,8.82,36.72,36.72,0,0,0-11,17.19l-.12.4,0,.16-7.7,24.82L107,401.23l-7.57,25.48-3.79,12.74-1.9,6.37-1,3.24a22.87,22.87,0,0,0-.69,3.78c-.07.63-.1,1.27-.11,1.92,0,.37,0,.64,0,.92l0,.83.1,3.31.19,6.65,1.18,39.86,1.57,53.14.06,2h2l2.92,0L95,578.1l-.18.59.18.9,7.41,35.55.79,3.76h3.56l11.84,86.17,0-.36,0,.69,0-.33-9.23,154.64-.13,2.16h5.88l.1,37.3v1.92h1.92l44.37-.07v.17l57.39,0h3.42V886.08Zm-27.9,4.85-29.86-.19-3,0-37.18-.14-5.11-30.73-.34-2.09h-5.26l11.1-152.63,0-.23,0-.23-9.78-85.78h9.33l14.75-40-7.29-19.49,6-92.5L161,400.41h-2.6l-29.16,65.71-4.08,93.31,6,19.4-10.43,31.89h-11l-8.55-32.08,3.23-18.8.32-1.9-1.81-.05-4.08-.1-.56-51.53L98,479.69l-.14-13.28-.08-6.65,0-3.31a20.55,20.55,0,0,1,.09-3,16.5,16.5,0,0,1,.56-2.78l1-3.12,2-6.34,4-12.67,7.88-25.38c5.26-16.92,16.91-50.83,16.91-50.83a24.7,24.7,0,0,1,3.82-6.94,25.61,25.61,0,0,1,6-5.43,32,32,0,0,1,14.19-4.84,39.32,39.32,0,0,1,7.11-.1,31.38,31.38,0,0,1,6.83,1.4,30,30,0,0,1,6.33,2.92,30.36,30.36,0,0,1,5.57,4.32,26.33,26.33,0,0,1,4.36,5.69,27.06,27.06,0,0,1,2.69,6.74c.16.59.26,1.2.39,1.8l.14.82.06.42,0,.56.32,4.67.66,9.35,2.63,37.36,5.31,74.78,2.68,37.42L200.58,542l.17,2.34a20.15,20.15,0,0,1,.07,2.33c0,.15,0,.3,0,.45l-28.5,161.3L153.55,860.67l7,15L194.37,889Zm19.77-.18,0,.16,0,.15L200.89,891v-4.53L166,871.75l-6.35-11.44,22-150.22L199.4,593.53l-1.32,42.14L197,673.17l-.53,18.74-.27,9.37-.06,2.35c0,.72-.06,1.35-.14,2.07l-.62,4.48C188.75,759.76,182.07,809.36,176,859l-.09.71.07.13,6.48,14.39.47,1,1.15.46L207,885l7.87,3.17Z"/><polygon points="114.37 614.16 114.37 614.16 112.53 614.16 114.37 614.16"/><polygon points="167.59 890.74 164.54 890.72 164.54 890.71 167.59 890.74"/><path d="M198.87,257.73c0-.85-.06-1.74-.15-2.61l-.4-2.86c0-.23-.09-.45-.15-.67l-.07-.29a35.21,35.21,0,0,0-6.56-13.92,34.74,34.74,0,0,0-12-9.73A32.72,32.72,0,0,0,156.67,225a35.18,35.18,0,0,0-7.33,2.65,34.65,34.65,0,0,0-12,9.73,35.08,35.08,0,0,0-6.56,13.92l-.07.29a4.82,4.82,0,0,0-.15.68l-.4,2.85c-.1.87-.13,1.75-.16,2.6,0,.41,0,.82,0,1.25a32,32,0,0,0,.24,3.86c.09.68.18,1.31.29,1.91l.36,1.8c.63,3.57,1.34,7.17,2,10.66l2.61,13.3.47,2.21.21.74a25.66,25.66,0,0,0,2.46,5.8,25.36,25.36,0,0,0,14.51,11.44c1.1.33,2.08.55,3,.73s1.91.35,2.92.49a43.05,43.05,0,0,0,10.8,0c1-.14,2-.3,2.92-.49s1.88-.4,3-.73a25.22,25.22,0,0,0,17-17.24l.22-.78L196,277.2c.7-3.49,1.41-7.09,2-10.64l.38-1.83c.11-.59.2-1.22.28-1.91a30,30,0,0,0,.25-3.88C198.91,258.54,198.89,258.13,198.87,257.73Zm-7.37,4.32c0,.5-.09,1-.15,1.51l-.25,1.58c-.15.88-.35,1.77-.54,2.63s-.39,1.79-.55,2.7L186.11,291l-.16.57a17.76,17.76,0,0,1-1.75,4.18,18.21,18.21,0,0,1-6.34,6.42,18.79,18.79,0,0,1-4.18,1.86c-.78.23-1.68.43-2.3.55s-1.56.29-2.44.41a35.06,35.06,0,0,1-9,0c-.88-.12-1.68-.25-2.44-.41s-1.53-.32-2.3-.55a18.59,18.59,0,0,1-4.18-1.86,18.27,18.27,0,0,1-6.34-6.41,17.91,17.91,0,0,1-1.75-4.2l-.15-.51-3.92-20.55c-.15-.92-.35-1.83-.54-2.71s-.39-1.75-.54-2.63l-.25-1.57c-.06-.5-.12-1-.16-1.52a27.89,27.89,0,0,1,0-3c0-.4.07-.81.11-1.23.05-.62.1-1.22.19-1.8l.43-2.27c0-.15.07-.29.11-.43l.09-.27a26.93,26.93,0,0,1,5.55-10.46,26.14,26.14,0,0,1,19-9l1.41,0h1l.57,0a25.19,25.19,0,0,1,9.89,2.14,25.89,25.89,0,0,1,9.39,6.88,27.16,27.16,0,0,1,5.55,10.47c0,.08,0,.17.08.26s.09.28.12.42l.43,2.26c.09.6.14,1.2.19,1.82,0,.42.06.83.11,1.2A28.44,28.44,0,0,1,191.5,262.05Z"/></svg>