<svg id="Capa_1" data-name="Capa 1" xmlns="http://www.w3.org/2000/svg" viewBox="0 0 1300 1000"><defs><style>.cls-1{fill:#fff;}</style></defs><title>2-landmarks-expand</title><path class="cls-1" d="M602.5,377.4,600,379.49l2.39,2.16,1.16,1.06-23,31.58-12.22,16.8-6.1,8.41-3.06,4.19-1.53,2.1-.72,1,0,.07c-.25.32-.43.52-.69.82a16.77,16.77,0,0,1-4,3.21A16.2,16.2,0,0,1,540,452.44a16.43,16.43,0,0,1-7.55-4.43,16.16,16.16,0,0,1-2.12-2.7l0-.05L507,401.49H498.4l0,3.14-.3,16.77-.39,16.76c-.13,5.59-.31,11.19-.47,16.77l-.5,16.78v.21l0,.32L499,491.6,501.05,511l2.16,19.35,2.34,19.2,1,19q.49,9.63,1.08,19.24c.72,12.84,1.66,25.66,2,38.53l2.92,77.1.74,19.27c.15,3.23.16,6.44.24,9.65l.2,9.65.78,38.59c.46,24.89,1.08,49.78,1.65,74.66l-2.43.1H510l1.57,3.5L518.39,874l.48,1,1.15.47,30.88,12.42-.81,2.92-63.61-.43-3.62,0h-1.31l-.84-16.58c-.18-2.06-.32-4.13-.43-6.19-.1-1.66-.15-3.32-.23-5l-.08-3.43-.09-1.77-.05-1.09h0l-5.77-63.79-2.77-32.45-1.37-16.23-1.3-16.23c-.11-1.36-.18-2.72-.34-4.06l-.48-4-1-8.08-1.89-16.18-3.68-32.35c-2.35-21.6-4.72-43.18-6.72-64.82l-.27-2.81H440.54l-.27,2.81c-2,21.64-4.37,43.22-6.72,64.82l-3.68,32.35L428,711.43l-1,8.08-.48,4c-.17,1.34-.24,2.7-.35,4.06l-1.29,16.23-1.37,16.23-2.77,32.45L415,856.32h0l-.06,1.09-.09,1.77-.08,3.43c-.07,1.66-.13,3.32-.23,5-.11,2.06-.26,4.13-.43,6.19l-.84,16.58h-1.31l-3.62,0-63.61.43-.81-2.92,30.87-12.42,1.16-.47.47-1,6.84-15.18,1.58-3.5h-3.73l-2.44-.1c.57-24.88,1.18-49.77,1.65-74.66l.78-38.59.2-9.65c.08-3.21.09-6.42.24-9.65l.75-19.27,2.91-77.1c.34-12.87,1.29-25.69,2-38.53q.58-9.6,1.07-19.24l1-19,2.34-19.2L393.74,511l2.1-19.37,2.24-19.36,0-.32v-.21l-.5-16.78c-.16-5.58-.35-11.18-.47-16.77l-.39-16.76-.29-16.77-.06-3.14h-8.62l-7.35,25.17,0,.14-10.3,33.57-.15.49,0,.53h0L374.37,543l.1,1.9-.82,5.73L371.87,563l-16.8,16-4.29,4.07-2.07,2-3.16-1.91,6.21-14.77,5.41-12.88,4-9.61.06-.14,1.05-2.44H356l-2.24-13.83-1.49-9.15-2.51-16.28-1.26-8.18-3.76-24.44-1.89-12.22-.46-3a17.93,17.93,0,0,1-.09-2.64,16.54,16.54,0,0,1,1.15-5.09l.1-.34c4.48-12,8.91-24,13.42-36,.76-2.05,1.54-4.12,2.32-6.17l7.94-21,4-10.49,2-5.25,1-2.62.24-.64.23-.57c.15-.38.3-.75.48-1.11a34.4,34.4,0,0,1,5.16-8.23,43.37,43.37,0,0,1,3.36-3.55l1-.88.49-.46.43-.36.67-.54.2-.15v0c.38-.31.79-.62,1.21-.93,1.05-.8,2.19-1.56,3.33-2.28a68.47,68.47,0,0,1,7.24-4,91.35,91.35,0,0,1,15.7-5.7,113.48,113.48,0,0,1,28.19-3.53q.75,0,1.5,0h7.7q.75,0,1.5,0a113.28,113.28,0,0,1,28.18,3.53,90.85,90.85,0,0,1,15.71,5.7,69.47,69.47,0,0,1,7.24,4c1.15.72,2.27,1.48,3.33,2.28.42.31.83.62,1.21.93l0,0,.2.15.66.54.42.36.5.46c.33.29.71.62,1,.88a38.78,38.78,0,0,1,3.36,3.55,32.17,32.17,0,0,1,2.14,2.82s.06.07.07.1c.43.6.85,1.21,1.23,1.85l.49.83.23.41.27.5,1.07,2,8.56,15.88,14.83,27.5,2.3,4.27h0l1.81,3.54,2.51-2.95,39.8-46.56h0l.18-.19.18-.39,7.94-17.41,25.94-18.38L629.7,334,619.37,363.6l-16.86,13.8Z"/><path class="cls-1" d="M474.19,261.74c0,.5-.09,1-.15,1.51l-.25,1.57c-.15.88-.35,1.77-.54,2.62s-.39,1.8-.54,2.7l-3.89,20.47-.16.56a18.84,18.84,0,0,1-1.75,4.18,18.18,18.18,0,0,1-10.5,8.25c-.77.23-1.68.43-2.29.55-.77.16-1.56.29-2.43.41a36.22,36.22,0,0,1-9,0c-.88-.12-1.67-.25-2.43-.41s-1.52-.32-2.3-.55a17.86,17.86,0,0,1-12.24-12.43l-.15-.52-3.91-20.5c-.15-.91-.35-1.82-.54-2.71s-.39-1.75-.54-2.62l-.24-1.57c-.07-.5-.13-1-.16-1.51a27.86,27.86,0,0,1-.05-3c.05-.41.08-.82.11-1.23.05-.63.1-1.23.19-1.8l.43-2.27c0-.14.07-.28.11-.42l.09-.28a26.92,26.92,0,0,1,5.54-10.43,26.1,26.1,0,0,1,19-9l1.42,0h1.52a26.06,26.06,0,0,1,19.24,9,26.89,26.89,0,0,1,5.54,10.44l.09.27c0,.14.08.28.11.41l.43,2.25c.09.6.14,1.2.19,1.83,0,.41.06.82.11,1.18A28.59,28.59,0,0,1,474.19,261.74Z"/><path d="M637.18,327.85l-10.64-7.34L624,318.76l-2.22,1.83h0l-28.09,23-.76.62-.25.74-6,18.9-37.84,42.51L535,377.29,527.32,361l-1-2c-.3-.65-.72-1.44-1.1-2.12l-.61-1.07c-.24-.41-.48-.81-.73-1.2a.51.51,0,0,0-.09-.16c-.09-.14-.18-.28-.28-.41-.7-1.11-1.45-2.18-2.26-3.22a48.33,48.33,0,0,0-4-4.49c-.36-.37-.7-.67-1.05-1l-.51-.5-.57-.53c-.38-.36-.76-.67-1.14-1s-.77-.66-1.16-1a74.24,74.24,0,0,0-9.89-6.5c-.67-.38-1.34-.74-2-1.1l-1.28-.65-.21-.11a100.44,100.44,0,0,0-15.75-6.25,129.24,129.24,0,0,0-72.72,0,100.55,100.55,0,0,0-15.76,6.25l-.2.11-1.28.65c-.68.36-1.35.72-2,1.1a74.89,74.89,0,0,0-9.89,6.5c-.39.3-.76.63-1.15,1s-.76.63-1.14,1l-.57.53-.52.5c-.35.33-.68.63-1,1a46.91,46.91,0,0,0-4,4.49,44,44,0,0,0-6,10.38L337.9,446.75l.1-.31a21.48,21.48,0,0,0-1.35,6.93,20.85,20.85,0,0,0,.19,3.54c.17,1.07.35,2,.53,3.07l2.13,12.21,4.29,24.41,4.27,24.4,1.64,9,2.78,15.38.32,1.75h.74l1,0,2,0-3.05,5.56-3.73,6.77-13.28,24.15h0L335.05,586l15.11,9.78,2.19-2.38,1-1.09,4.77-5.18,13.37-14.51,5.46-5.9h0l.76-.88.06-.6,2.34-20.15,0-.13v-.09l-2.32-39.67-2.56-43.74,9.8-32.7,6.49-21.64.23,13.11v.53L393,471.7v0l-10.35,77.06v.2l-2.3,38.47-1.15,19.29-.28,4.83c-.09,1.6-.11,3.21-.17,4.81l-.31,9.66-1.23,38.61-1.08,38.61-.54,19.3c-.12,3.23-.1,6.44-.15,9.66l-.08,9.65L375,780.47l-.65,77.23v1.7l1.66,0,2.24,0-6.57,10.81-16,6.05-8.47,3.21c-2.83,1.07-5.66,2.12-8.47,3.23l-2.17.84V901h3.42l77.62,0H421v-3.47l0-10,0-10,.06-19.84,0,.17,0-.28v.11l11.28-129.51c.13-1.35.21-2.7.37-4l.52-4,1-8.07,2.05-16.15,4.1-32.28,7-54.86,7,54.86,4.1,32.28,2.05,16.15,1,8.07.5,4c.17,1.34.25,2.69.38,4l11.28,129.51v0l.06,19.84,0,10,0,10V901h3.48l77.62,0h3.42V883.5l-2.18-.84c-2.8-1.11-5.65-2.16-8.47-3.23l-8.47-3.21-16-6.05-6.57-10.81,2.24,0,1.66,0v-1.7l-.65-77.23-.38-38.62-.08-9.65c0-3.22,0-6.43-.15-9.66l-.54-19.3-1.08-38.61L516.37,626l-.29-9.66c-.07-1.6-.09-3.21-.17-4.81l-.29-4.83-1.15-19.29L512.18,549v-.2L501.82,471.7v.1l0-.23,0,.13L503,420.79v-.53l.22-11.93.78,1.35c2.83,4.9,5.65,9.78,8.44,14.69l2.65,4.69,7.6,13.4,2.56,4.52a21.49,21.49,0,0,0,13.43,10.34,20.4,20.4,0,0,0,5.76.66,21.28,21.28,0,0,0,5.71-.86,19.58,19.58,0,0,0,2.26-.81,21.26,21.26,0,0,0,5.7-3.54,20.57,20.57,0,0,0,1.77-1.72c.33-.35.69-.78,1-1.14l.77-1.05,1.54-2.1,3.06-4.19,6.15-8.4,12.27-16.8c8.17-11.21,16.42-22.35,24.66-33.52l1.44-1.94L609,380.43h0l-.88-.73,15.74-12,.58-.44.36-.86h0l13.9-33.55,1.27-3.07ZM619.37,363.6l-16.86,13.8h0L600,379.49l2.39,2.16,1.16,1.06-23,31.58-12.22,16.8-6.1,8.41-3.06,4.19-1.53,2.1-.72,1,0,.07c-.25.32-.43.52-.69.82a16.77,16.77,0,0,1-4,3.21A16.2,16.2,0,0,1,540,452.44a16.43,16.43,0,0,1-7.55-4.43,16.16,16.16,0,0,1-2.12-2.7l0-.05L507,401.49H498.4l0,3.14-.3,16.77-.39,16.76c-.13,5.59-.31,11.19-.47,16.77l-.5,16.78v.21l0,.32L499,491.6,501.05,511l2.16,19.35,2.34,19.2,0-.56,0,.69v-.13l1,19q.49,9.63,1.08,19.24c.72,12.84,1.66,25.66,2,38.53l2.92,77.1.74,19.27c.15,3.23.16,6.44.24,9.65l.2,9.65.78,38.59c.46,24.89,1.08,49.78,1.65,74.66l-2.43.1H510l1.57,3.5L518.39,874l.48,1,1.15.47,30.88,12.42-.81,2.92-63.61-.43-3.62,0h-1.31l-.84-16.58c-.18-2.06-.32-4.13-.43-6.19-.1-1.66-.15-3.32-.23-5l-.08-3.43-.09-1.77-.05-1.09h0l-5.77-63.79-2.77-32.45-1.37-16.23-1.3-16.23c-.11-1.36-.18-2.72-.34-4.06l-.48-4-1-8.08-1.89-16.18-3.68-32.35c-2.35-21.6-4.72-43.18-6.72-64.82l-.27-2.81H440.54l-.27,2.81c-2,21.64-4.37,43.22-6.72,64.82l-3.68,32.35L428,711.43l-1,8.08-.48,4c-.17,1.34-.24,2.7-.35,4.06l-1.29,16.23-1.37,16.23-2.77,32.45L415,856.32h0l-.06,1.09-.09,1.77-.08,3.43c-.07,1.66-.13,3.32-.23,5-.11,2.06-.26,4.13-.43,6.19l-.84,16.58h-1.31l-3.62,0-63.61.43-.81-2.92,30.87-12.42,1.16-.47.47-1,6.84-15.18,1.58-3.5h-3.73l-2.44-.1c.57-24.88,1.18-49.77,1.65-74.66l.78-38.59.2-9.65c.08-3.21.09-6.42.24-9.65l.75-19.27,2.91-77.1c.34-12.87,1.29-25.69,2-38.53q.58-9.6,1.07-19.24l1-19v.13l0-.69,0,.56,2.34-19.2L393.74,511l2.1-19.37,2.24-19.36,0-.32v-.21l-.5-16.78c-.16-5.58-.35-11.18-.47-16.77l-.39-16.76-.29-16.77-.06-3.14h-8.62l-7.35,25.17,0,.14-10.3,33.57-.15.49,0,.53h0L374.37,543l.1,1.9-.82,5.73L371.87,563l-16.8,16-4.29,4.07-2.07,2-3.16-1.91,6.21-14.77,5.41-12.88,4-9.61.06-.14,1.05-2.44H356l-2.24-13.83-1.49-9.15-2.51-16.28-1.26-8.18-3.76-24.44-1.89-12.22-.46-3a17.93,17.93,0,0,1-.09-2.64,16.54,16.54,0,0,1,1.15-5.09l.1-.34c4.48-12,8.91-24,13.42-36,.76-2.05,1.54-4.12,2.32-6.17l7.94-21,4-10.49,2-5.25,1-2.62.24-.64.23-.57c.15-.38.3-.75.48-1.11a34.4,34.4,0,0,1,5.16-8.23,43.37,43.37,0,0,1,3.36-3.55l1-.88.49-.46.43-.36.67-.54.2-.15v0c.38-.31.79-.62,1.21-.93,1.05-.8,2.19-1.56,3.33-2.28a68.47,68.47,0,0,1,7.24-4,91.35,91.35,0,0,1,15.7-5.7,113.48,113.48,0,0,1,28.19-3.53q.75,0,1.5,0h7.7q.75,0,1.5,0a113.28,113.28,0,0,1,28.18,3.53,90.85,90.85,0,0,1,15.71,5.7,69.47,69.47,0,0,1,7.24,4c1.15.72,2.27,1.48,3.33,2.28.42.31.83.62,1.21.93l0,0,.2.15.66.54.42.36.5.46c.33.29.71.62,1,.88a38.78,38.78,0,0,1,3.36,3.55,32.17,32.17,0,0,1,2.14,2.82s.06.07.07.1c.43.6.85,1.21,1.23,1.85l.49.83.23.41.27.5,1.07,2,8.56,15.88,14.83,27.5,2.3,4.27h0l1.81,3.54,2.51-2.95,39.8-46.56h0l.18-.19.18-.39,7.94-17.41,25.94-18.38L629.7,334Z"/><path d="M481.55,257.42c0-.85-.06-1.73-.15-2.6L481,252c0-.22-.09-.45-.15-.68l-.07-.27a34.88,34.88,0,0,0-6.55-13.89,34.27,34.27,0,0,0-12-9.71,34.91,34.91,0,0,0-7.32-2.66,33.63,33.63,0,0,0-22.82,2.66,34.44,34.44,0,0,0-12,9.7A35.27,35.27,0,0,0,413.6,251l-.07.28c-.06.23-.11.45-.15.69l-.4,2.84c-.09.87-.12,1.75-.15,2.6,0,.41,0,.81-.05,1.24a34.05,34.05,0,0,0,.25,3.85c.08.69.18,1.31.28,1.91l.37,1.79c.62,3.56,1.33,7.16,2,10.64l2.61,13.27.47,2.2.2.75a25.71,25.71,0,0,0,2.46,5.78,25.34,25.34,0,0,0,8.76,8.88,26,26,0,0,0,5.72,2.54c1.09.33,2.07.54,3,.73s1.91.35,2.91.48a43,43,0,0,0,10.79,0c1-.13,2-.3,2.9-.48s1.88-.4,3-.73a26,26,0,0,0,5.72-2.54,25.25,25.25,0,0,0,8.76-8.88,25.71,25.71,0,0,0,2.46-5.78l.22-.79,3.06-15.47c.69-3.47,1.41-7.06,2-10.58l.38-1.81c.11-.6.2-1.22.29-1.91a34.09,34.09,0,0,0,.24-3.88C481.58,258.23,481.57,257.83,481.55,257.42Zm-7.36,4.32c0,.5-.09,1-.15,1.51l-.25,1.57c-.15.88-.35,1.77-.54,2.62s-.39,1.8-.54,2.7l-3.89,20.47-.16.56a18.84,18.84,0,0,1-1.75,4.18,18.18,18.18,0,0,1-10.5,8.25c-.77.23-1.68.43-2.29.55-.77.16-1.56.29-2.43.41a36.22,36.22,0,0,1-9,0c-.88-.12-1.67-.25-2.43-.41s-1.52-.32-2.3-.55a17.86,17.86,0,0,1-12.24-12.43l-.15-.52-3.91-20.5c-.15-.91-.35-1.82-.54-2.71s-.39-1.75-.54-2.62l-.24-1.57c-.07-.5-.13-1-.16-1.51a27.86,27.86,0,0,1-.05-3c.05-.41.08-.82.11-1.23.05-.63.1-1.23.19-1.8l.43-2.27c0-.14.07-.28.11-.42l.09-.28a26.92,26.92,0,0,1,5.54-10.43,26.1,26.1,0,0,1,19-9l1.42,0h1.52a26.06,26.06,0,0,1,19.24,9,26.89,26.89,0,0,1,5.54,10.44l.09.27c0,.14.08.28.11.41l.43,2.25c.09.6.14,1.2.19,1.83,0,.41.06.82.11,1.18A28.59,28.59,0,0,1,474.19,261.74Z"/></svg>