<svg id="Capa_1" data-name="Capa 1" xmlns="http://www.w3.org/2000/svg" viewBox="0 0 1300 1000"><defs><style>.cls-1{fill:#fff;}</style></defs><title>2-landmarks-expand</title><path class="cls-1" d="M99.51,485.45q-3.32,6.48-6.58,13L74,535.8l-2.37,4.68c-.49.95-1.75,3.33-2.45,4.66l-.14.26-.15.28-.22.4-3,5.47-5.94-1.08-3.15-.57-.38,3.16h0l-2.85,23.09L32.78,601.21l-6.42-2.56,3.23-32.89c.46-1,1-2,1.48-3,.79-1.43,1.57-2.86,2.41-4.24s1.72-2.77,2.62-4.11,1.83-2.68,2.77-4l.13-.16.07-.15c1-2.18,1.93-4.35,2.89-6.53.17-.36.33-.74.5-1.11l2.47-5.53c1.89-4.46,3.87-8.91,5.79-13.37s4-8.88,6-13.32L62.78,497l12.39-26.43,6.17-13.22,6.09-13.25.09-.19,0-.23,9.92-39.8-.85,33.75Z"/><path class="cls-1" d="M374.67,747l-.62,1.16-1.73,3.19L342,807.44l-2.94-.69,3.69-30.65,0-.1.61-4.86-.11-.14-.23-.3h0l-.45-.58-10-13-2.11-2.76-1.72,2.93-1.81,3.09,0,0-12.59-7.05-83-46.55-1.53-.86c-.49-.28-1.08-.59-1.39-.79a10.91,10.91,0,0,1-2.11-1.79,13.23,13.23,0,0,1-.94-1.12c-.31-.4-.57-.79-.93-1.29l-2-2.9-7.9-11.53-15.8-23.09L169.8,621.13l21.31-27.79,13.52-22.51,4.17-7,1.52-2.51,49.1,113.08.42,1,.77.43q7.78,4.17,15.45,8.55l7.66,4.4,7.61,4.47q15.21,9,30.18,18.32c7.95,4.89,15.76,10,23.68,14.95Z"/><path class="cls-1" d="M268.49,599.38l-6.36,2.89-21.38-24.36c-.18-1.37-.4-2.74-.59-4.12l-.82-5c-.26-1.66-.58-3.32-.87-5l-.94-5-.08-.45-.11-.25s-6.82-16.26-9.05-22.16l-8.55-22.32-4.32-11.14L211,491.48c-2.95-7.4-6.28-13.23-9.37-20.57l-2-2.5L140.9,395.52h-2.61l25.23,41.84,31.31,35.27c4.45,20,8.22,40.18,11.85,60.34a44.24,44.24,0,0,1-.42,17.08,43.71,43.71,0,0,1-6.94,15.63l-19.26,28.51-15.31,22.65-2.58,3.83h0l-.18.26-.75,1.11L103,708.26h0L86,856l-.47,3.33-3.61,0-2.18,0-2,24.77-.19,2.36L77,894.73l-1.32,0H72l-63.75.43-.82-2.92,31-12.46,1.15-.47.49-1,7.44-16.39s1.59-22.5,2.35-33.75c.84-12.59,1.55-25.19,2.33-37.79l1.14-18.89,1-18.89c.72-12.6,1.37-25.2,2-37.81l.49-9.45.24-4.72a12.74,12.74,0,0,1,.74-3.86l5.65-18.06c3.74-12.06,7.35-24.16,11-36.26l10.82-36.3,11-36.23,0,0v0l5.23-24.7,2.62-12.35,2.72-12.32v0l-.13-5.34-.32-14.07-.11-4.86a43.79,43.79,0,0,1,0-4.86c0-.06,0-.11,0-.17L106,473l-1.62-96.38c.4-1.54.8-3.1,1.21-4.64,1-4,2-8,3.11-11.89.29-.9.52-1.83.86-2.69s.68-1.74,1.1-2.57.81-1.67,1.3-2.46l.75-1.17c.26-.39.48-.79.78-1.16a32.32,32.32,0,0,1,17.63-12.19,33.82,33.82,0,0,1,20.83.86,32.08,32.08,0,0,1,9.14,5.1A45.24,45.24,0,0,1,165,347.3a27.13,27.13,0,0,1,3.41,4.08c.25.37.5.68.77,1.13l.78,1.32,1.59,2.65,3.15,5.29,6.33,10.58c8.41,14.1,16.87,28.2,25.23,42.34l12.58,21.21,6.28,10.61a30,30,0,0,1,2,5.21l1.95,5.87c10.29,30.49,21.19,60.7,31.77,91l-5.34,1.5-3,.82,2,2.66h0l10,13.52Z"/><path class="cls-1" d="M151,262.26c0,.51-.09,1-.16,1.53l-.25,1.59c-.15.88-.35,1.78-.54,2.64s-.4,1.81-.55,2.72l-3.93,20.64-.16.57a18,18,0,0,1-1.76,4.21,18.27,18.27,0,0,1-6.38,6.46,19.45,19.45,0,0,1-4.2,1.87c-.78.23-1.7.43-2.31.56-.78.15-1.58.28-2.45.41a35.85,35.85,0,0,1-4.55.28,35.4,35.4,0,0,1-4.52-.28c-.89-.13-1.69-.26-2.45-.41s-1.53-.33-2.32-.56a19.31,19.31,0,0,1-4.21-1.87,18.33,18.33,0,0,1-6.38-6.45,18.6,18.6,0,0,1-1.76-4.23l-.15-.51-3.94-20.67c-.15-.93-.35-1.85-.55-2.74s-.39-1.76-.54-2.64l-.24-1.58c-.07-.51-.13-1-.16-1.54a25.74,25.74,0,0,1,0-3c0-.41.08-.82.11-1.23,0-.64.1-1.24.19-1.82l.43-2.29c0-.14.08-.28.12-.42l.09-.28a27.16,27.16,0,0,1,5.58-10.52,26.36,26.36,0,0,1,19.15-9.08c.2,0,1,0,1.43,0h1l.57,0a25.55,25.55,0,0,1,10,2.16,26,26,0,0,1,9.44,6.92,27,27,0,0,1,5.59,10.53,1.71,1.71,0,0,0,.09.27c0,.14.08.28.11.42l.43,2.27c.1.6.14,1.2.2,1.84,0,.41.06.82.11,1.2C151.12,260.17,151.11,261.21,151,262.26Z"/><path d="M384.7,743.67l-8.77-4.8L367.18,734l-1.23-.68-.75-.43-11.53-6.46c-2.54-1.46-5.16-2.8-7.64-4.4l-7.48-4.66-15-9.3-30-18.63c-9.72-6-19.38-12.13-29.08-18.19l.35.85-1.16-1.37.81.52L214.08,551.61l-.66-1.57a48,48,0,0,0,.71-6.21c0-.7.06-1.41.06-2.11a47.32,47.32,0,0,0-.91-9.86l-1.8-8.52c-.6-2.8-1.19-5.61-1.83-8.4s-1.26-5.59-1.93-8.38-1.34-5.58-2-8.37c-1.34-5.33-2.71-10.65-4.22-15.95q2.28,5.56,4.5,11.17l4.39,11.11,4.28,11.15c2.85,7.44,5.64,14.91,8.43,22.36l8.58,22.81.73,4c.3,1.65.61,3.31.89,5l.86,5,.79,5,.09.66.52.66,22.29,28.8,1.95,2.45,3-1.3,11.93-5.15h0l3.19-1.45-.64-3.2-7.1-35.71h0l-.19-.9-.4-.43L259.1,553l2.31-.64,2.45-.69h0l1.81-.52-.16-.46-.38-1.14v0l-15.58-46.79c-5.15-15.61-10.28-31.23-15.21-46.89L232.52,450a34.27,34.27,0,0,0-2.3-6.27L224.16,433l-12.11-21.49-24.19-43-6-10.76-3-5.39-1.52-2.68-.75-1.35c-.25-.44-.57-1-.85-1.43-.56-1-1.22-1.91-1.83-2.85-.3-.49-.67-.92-1-1.38s-.66-.93-1-1.37c-.73-.87-1.43-1.77-2.23-2.58l-1.18-1.25-1.24-1.18a14.14,14.14,0,0,0-1.3-1.14L164.6,334l-1.38-1c-.48-.36-.93-.7-1.43-1l-1.45-1c-.5-.31-1-.6-1.51-.9a33.41,33.41,0,0,0-3.15-1.62,35.1,35.1,0,0,0-13.85-3.18c-1.2,0-2.4.07-3.59.1a13.55,13.55,0,0,0-1.79.17l-1.78.21a43,43,0,0,0-7,1.77,40.83,40.83,0,0,0-12.37,7,43.48,43.48,0,0,0-9.23,10.62c-.64,1-1.14,2-1.72,3s-1,2.12-1.49,3.18-.8,2.19-1.2,3.28-.62,2.2-.94,3.32c-.15.57-.25,1-.36,1.55l-.33,1.51-.66,3-1.32,6L92.8,394.15,82,442.06l.13-.33-.18.58,0-.25L59.25,495.4l-5.83,13.37c-2,4.45-3.91,8.9-5.92,13.34l-6,13.27-3.28,7.48-.29.65-2.14,4.84.11-.15-.2.37.09-.22L33,552.11c-1,1.29-1.92,2.61-2.92,3.9l-3,3.84c-1,1.27-2,2.55-3,3.81h0l-.33.41-.11.74-5.52,36h0l-.42,2.81L20.53,605l11.82,5.43h0l3.26,1.44,2-2.84,21-29.77h0l.5-.68.09-.76,2.72-20.54,4.75.92h0l2.43.46,1.12-2.25,5.42-10.84.14-.28c.34-.7.66-1.4,1-2.09l2.29-4.71,9.16-18.84,11.62-23.9c0,.2,0,.41,0,.6l-.19,4.86c-.21,6.15-.31,12.28-.28,18.43.06-.26.11-.51.17-.76l-.17,1.76v-1c-.92,3.84-1.73,7.7-2.59,11.55-.86,4.12-1.73,8.23-2.55,12.37l-5,24.57.12-.41-.16.59,0-.18-5.37,17.7L78.53,604,68,640.34c-3.5,12.12-7,24.26-10.59,36.36L52,694.84a24.82,24.82,0,0,0-.68,2.63,22.77,22.77,0,0,0-.3,2.75l-.2,4.73-.4,9.46-1.62,37.84-.81,18.92L47,790.08,45.18,827.9c-.47,8.73-1.49,27.63-1.75,32.22v.44l0,.58v0l-1,1.64-7.11,11.69-16.08,6-8.5,3.23C7.84,884.84,5,885.88,2.19,887L0,887.85v17.49H3.43l77.81,0h3.49v-3.47l0-10,0-10,0-17.91h5l.24-1.71S108.64,710.5,108.64,710.5l56.59-82.87,12,16.67,16.16,22.84,24.22,34.27,2,2.85c.32.45.72,1,1.13,1.53a18.57,18.57,0,0,0,4.6,4.21c.68.42,1.11.64,1.65.94l1.52.85L277.41,739l24.44,13.6,24.37,13.75,2.72,1.54,1.58-2.76.34-.58,5.36,8.35,0,.06.56.88-2.41,17-1.28,9c-.42,3-.88,6-1.26,9l-.3,2.31,2.05,1.14,10.26,5.64,3,1.66,1.65-3,37.51-68.17,1.69-3.06ZM92.93,498.44,74,535.8l-2.37,4.68c-.49.95-1.75,3.33-2.45,4.66l-.14.26-.15.28-.22.4-3,5.47-5.94-1.08-3.15-.57-.38,3.16h0l-2.85,23.09L32.78,601.21l-6.42-2.56,3.23-32.89c.46-1,1-2,1.48-3,.79-1.43,1.57-2.86,2.41-4.24s1.72-2.77,2.62-4.11,1.83-2.68,2.77-4l.13-.16.07-.15c1-2.18,1.93-4.35,2.89-6.53.17-.36.33-.74.5-1.11l2.47-5.53c1.89-4.46,3.87-8.91,5.79-13.37s4-8.88,6-13.32L62.78,497l12.39-26.43,6.17-13.22,6.09-13.25.09-.19,0-.23,9.92-39.8-.85,33.75,2.87,47.84Q96.2,491.93,92.93,498.44Zm71.82,118.4-2.58,3.83h0l-.18.26-.75,1.11L103,708.26h0L86,856l-.47,3.33-3.61,0-2.18,0-2,24.77-.19,2.36L77,894.73l-1.32,0H72l-63.75.43-.82-2.92,31-12.46,1.15-.47.49-1,7.44-16.39s1.59-22.5,2.35-33.75c.84-12.59,1.55-25.19,2.33-37.79l1.14-18.89,1-18.89c.72-12.6,1.37-25.2,2-37.81l.49-9.45.24-4.72a12.74,12.74,0,0,1,.74-3.86l5.65-18.06c3.74-12.06,7.35-24.16,11-36.26l10.82-36.3,11-36.23,0,0v0l5.23-24.7,2.62-12.35,2.72-12.32v0l-.13-5.34-.32-14.07-.11-4.86a43.79,43.79,0,0,1,0-4.86c0-.06,0-.11,0-.17L106,473l-1.62-96.38c.4-1.54.8-3.1,1.21-4.64,1-4,2-8,3.11-11.89.29-.9.52-1.83.86-2.69s.68-1.74,1.1-2.57.81-1.67,1.3-2.46l.75-1.17c.26-.39.48-.79.78-1.16a32.32,32.32,0,0,1,17.63-12.19,33.82,33.82,0,0,1,20.83.86,32.08,32.08,0,0,1,9.14,5.1A45.24,45.24,0,0,1,165,347.3a27.13,27.13,0,0,1,3.41,4.08c.25.37.5.68.77,1.13l.78,1.32,1.59,2.65,3.15,5.29,6.33,10.58c8.41,14.1,16.87,28.2,25.23,42.34l12.58,21.21,6.28,10.61a30,30,0,0,1,2,5.21l1.95,5.87c10.29,30.49,21.19,60.7,31.77,91l-5.34,1.5-3,.82,2,2.66h0l10,13.52,4,32.24-6.36,2.89-21.38-24.36c-.18-1.37-.4-2.74-.59-4.12l-.82-5c-.26-1.66-.58-3.32-.87-5l-.94-5-.08-.45-.11-.25s-6.82-16.26-9.05-22.16l-8.55-22.32-4.32-11.14L211,491.48c-2.95-7.4-6.28-13.23-9.37-20.57l-2-2.5L140.9,395.52h-2.61l25.23,41.84,31.31,35.27c4.45,20,8.22,40.18,11.85,60.34a44.24,44.24,0,0,1-.42,17.08,43.71,43.71,0,0,1-6.94,15.63l-19.26,28.51Zm209.3,131.33-1.73,3.19L342,807.44l-2.94-.69,3.69-30.65,0-.1.61-4.86-.11-.14-.23-.3h0l-.45-.58-10-13-2.11-2.76-1.72,2.93-1.81,3.09,0,0-12.59-7.05-83-46.55-1.53-.86c-.49-.28-1.08-.59-1.39-.79a10.91,10.91,0,0,1-2.11-1.79,13.23,13.23,0,0,1-.94-1.12c-.31-.4-.57-.79-.93-1.29l-2-2.9-7.9-11.53-15.8-23.09L169.8,621.13l21.31-27.79,13.52-22.51,4.17-7,1.52-2.51,49.1,113.08.42,1,.77.43q7.78,4.17,15.45,8.55l7.66,4.4,7.61,4.47q15.21,9,30.18,18.32c7.95,4.89,15.76,10,23.68,14.95L374.67,747Z"/><path d="M158.46,257.92c0-.85-.07-1.74-.16-2.62l-.4-2.88c0-.23-.09-.45-.15-.68l-.07-.28a35.39,35.39,0,0,0-6.6-14A35,35,0,0,0,139,227.66a35.48,35.48,0,0,0-7.38-2.68,33.93,33.93,0,0,0-23,2.68,34.83,34.83,0,0,0-12.07,9.79,35.28,35.28,0,0,0-6.6,14l-.07.28c-.06.24-.12.46-.16.7l-.4,2.87c-.09.88-.12,1.76-.15,2.61,0,.41,0,.82,0,1.26a34.57,34.57,0,0,0,.25,3.88c.08.7.18,1.32.28,1.93l.37,1.81c.63,3.58,1.35,7.21,2,10.72l2.63,13.39.47,2.22.21.75a25.31,25.31,0,0,0,11.31,14.78,26,26,0,0,0,5.77,2.56c1.1.33,2.09.55,3,.74s1.93.34,2.94.48a42.45,42.45,0,0,0,10.88,0c1-.14,2-.3,2.93-.48s1.89-.41,3-.74a25.92,25.92,0,0,0,5.76-2.56,25.31,25.31,0,0,0,11.31-14.78l.23-.79,3.09-15.61c.69-3.5,1.41-7.12,2-10.66L158,265c.11-.6.2-1.22.29-1.92a32.43,32.43,0,0,0,.24-3.91C158.49,258.73,158.47,258.33,158.46,257.92ZM151,262.26c0,.51-.09,1-.16,1.53l-.25,1.59c-.15.88-.35,1.78-.54,2.64s-.4,1.81-.55,2.72l-3.93,20.64-.16.57a18,18,0,0,1-1.76,4.21,18.27,18.27,0,0,1-6.38,6.46,19.45,19.45,0,0,1-4.2,1.87c-.78.23-1.7.43-2.31.56-.78.15-1.58.28-2.45.41a35.85,35.85,0,0,1-4.55.28,35.4,35.4,0,0,1-4.52-.28c-.89-.13-1.69-.26-2.45-.41s-1.53-.33-2.32-.56a19.31,19.31,0,0,1-4.21-1.87,18.33,18.33,0,0,1-6.38-6.45,18.6,18.6,0,0,1-1.76-4.23l-.15-.51-3.94-20.67c-.15-.93-.35-1.85-.55-2.74s-.39-1.76-.54-2.64l-.24-1.58c-.07-.51-.13-1-.16-1.54a25.74,25.74,0,0,1,0-3c0-.41.08-.82.11-1.23,0-.64.1-1.24.19-1.82l.43-2.29c0-.14.08-.28.12-.42l.09-.28a27.16,27.16,0,0,1,5.58-10.52,26.36,26.36,0,0,1,19.15-9.08c.2,0,1,0,1.43,0h1l.57,0a25.55,25.55,0,0,1,10,2.16,26,26,0,0,1,9.44,6.92,27,27,0,0,1,5.59,10.53,1.71,1.71,0,0,0,.09.27c0,.14.08.28.11.42l.43,2.27c.1.6.14,1.2.2,1.84,0,.41.06.82.11,1.2C151.12,260.17,151.11,261.21,151,262.26Z"/></svg>