<svg id="Capa_1" data-name="Capa 1" xmlns="http://www.w3.org/2000/svg" viewBox="0 0 1300 1000"><defs><style>.cls-1{fill:#fff;}</style></defs><title>2-landmarks-expand</title><path class="cls-1" d="M1254.56,377.4l-2.55,2.09,2.39,2.16,1.17,1.06-23,31.58-12.22,16.8-6.11,8.41-3.06,4.19-1.53,2.1-.71,1,0,.07c-.25.32-.43.52-.69.82a16.57,16.57,0,0,1-4,3.21,16.2,16.2,0,0,1-12.17,1.57,16.43,16.43,0,0,1-7.55-4.43,16.7,16.7,0,0,1-2.12-2.7l0-.05-23.26-43.77h-8.62l0,3.14-.29,16.77-.4,16.76c-.12,5.59-.31,11.19-.47,16.77l-.5,16.78v.21l0,.32L1151,491.6,1153.1,511l2.16,19.35,2.34,19.2,1,19c.33,6.42.67,12.84,1.07,19.24.72,12.84,1.66,25.66,2,38.53l2.92,77.1.74,19.27c.16,3.23.16,6.44.25,9.65l.2,9.65.77,38.59c.47,24.89,1.08,49.78,1.66,74.66l-2.44.1H1162l1.57,3.5,6.83,15.18.49,1,1.14.47L1203,887.91l-.81,2.92-63.6-.43-3.63,0h-1.31l-.84-16.58c-.18-2.06-.32-4.13-.43-6.19-.1-1.66-.15-3.32-.23-5l-.07-3.43-.1-1.77,0-1.09h0l-5.77-63.79-2.77-32.45L1122,743.85l-1.29-16.23c-.12-1.36-.19-2.72-.35-4.06l-.48-4-1-8.08-1.9-16.18-3.67-32.35c-2.36-21.6-4.72-43.18-6.72-64.82l-.28-2.81H1092.6l-.28,2.81c-2,21.64-4.37,43.22-6.72,64.82l-3.68,32.35-1.9,16.18-1,8.08-.48,4c-.17,1.34-.24,2.7-.36,4.06l-1.28,16.23-1.38,16.23-2.77,32.45L1067,856.32h0l-.06,1.09-.09,1.77-.07,3.43c-.08,1.66-.13,3.32-.23,5-.12,2.06-.26,4.13-.44,6.19l-.84,16.58H1064l-3.62,0-63.6.43-.81-2.92,30.87-12.42L1028,875l.48-1,6.83-15.18,1.58-3.5h-3.73l-2.44-.1c.58-24.88,1.18-49.77,1.66-74.66l.77-38.59.2-9.65c.09-3.21.09-6.42.24-9.65l.75-19.27,2.91-77.1c.35-12.87,1.29-25.69,2-38.53.4-6.4.74-12.82,1.07-19.24l1-19,2.33-19.2L1045.8,511l2.1-19.37,2.23-19.36,0-.32v-.21l-.49-16.78c-.16-5.58-.36-11.18-.48-16.77l-.39-16.76-.29-16.77,0-3.14h-8.62l-7.36,25.17,0,.14-10.3,33.57-.15.49,0,.53h0l4.4,81.55.1,1.9-.82,5.73L1023.92,563l-16.8,16-4.29,4.07-2.06,2-3.17-1.91,6.21-14.77,5.42-12.88,4-9.61.06-.14,1-2.44H1008l-2.25-13.83-1.49-9.15-2.51-16.28-1.26-8.18-3.76-24.44-1.88-12.22-.46-3a16.65,16.65,0,0,1-.09-2.64,16,16,0,0,1,1.15-5.09l.09-.34c4.49-12,8.92-24,13.42-36,.76-2.05,1.54-4.12,2.32-6.17l7.94-21,4-10.49,2-5.25,1-2.62.24-.64.23-.57c.15-.38.3-.75.48-1.11a34.71,34.71,0,0,1,5.16-8.23,41.84,41.84,0,0,1,3.37-3.55c.28-.26.66-.59,1-.88l.49-.46.43-.36.67-.54.2-.15v0c.38-.31.79-.62,1.21-.93,1-.8,2.19-1.56,3.34-2.28a67.34,67.34,0,0,1,7.23-4,91.15,91.15,0,0,1,15.71-5.7,113.42,113.42,0,0,1,28.19-3.53c.49,0,1,0,1.49,0h7.71c.49,0,1,0,1.49,0a113.28,113.28,0,0,1,28.18,3.53,91.26,91.26,0,0,1,15.72,5.7,69.32,69.32,0,0,1,7.23,4c1.15.72,2.28,1.48,3.33,2.28.42.31.83.62,1.21.93l0,0,.2.15.67.54.42.36.49.46c.33.29.72.62,1,.88a40.31,40.31,0,0,1,3.37,3.55,32.06,32.06,0,0,1,2.13,2.82.46.46,0,0,1,.07.1c.43.6.85,1.21,1.23,1.85.17.28.34.56.49.83l.24.41.27.5,1.06,2,8.57,15.88,14.82,27.5,2.3,4.27h0l1.81,3.54,2.52-2.95,39.79-46.56h0l.19-.19.17-.39,7.94-17.41,26-18.38,5.56,4.17-10.33,29.62-16.86,13.8Z"/><path class="cls-1" d="M1126.25,261.74c0,.5-.09,1-.16,1.51l-.25,1.57c-.14.88-.34,1.77-.53,2.62s-.4,1.8-.55,2.7l-3.89,20.47-.16.56a18.84,18.84,0,0,1-1.75,4.18,18.18,18.18,0,0,1-10.5,8.25c-.77.23-1.67.43-2.29.55s-1.56.29-2.43.41a36.14,36.14,0,0,1-9,0c-.88-.12-1.68-.25-2.44-.41s-1.52-.32-2.3-.55a18.65,18.65,0,0,1-4.17-1.84,18.29,18.29,0,0,1-6.32-6.41,17.94,17.94,0,0,1-1.75-4.18l-.15-.52-3.91-20.5c-.15-.91-.35-1.82-.54-2.71s-.39-1.75-.54-2.62l-.24-1.57c-.07-.5-.12-1-.15-1.51a25.6,25.6,0,0,1-.06-3c0-.41.08-.82.11-1.23,0-.63.1-1.23.19-1.8l.43-2.27c0-.14.08-.28.12-.42l.09-.28a26.77,26.77,0,0,1,5.53-10.43,26.1,26.1,0,0,1,19-9l1.41,0h1.53a26.1,26.1,0,0,1,19.24,9,27,27,0,0,1,5.54,10.44,2.76,2.76,0,0,0,.08.27c0,.14.09.28.12.41l.43,2.25c.09.6.13,1.2.19,1.83,0,.41.06.82.1,1.18A28.51,28.51,0,0,1,1126.25,261.74Z"/><path d="M1289.23,327.85l-10.64-7.34-2.54-1.75-2.22,1.83h0l-28.09,23-.76.62-.24.74-6,18.9-37.83,42.51-13.76-29.07L1179.38,361l-1-2c-.3-.65-.72-1.44-1.1-2.12-.2-.36-.4-.72-.61-1.07s-.48-.81-.73-1.2a.51.51,0,0,0-.09-.16,3.71,3.71,0,0,0-.28-.41,37.29,37.29,0,0,0-2.26-3.22,46.91,46.91,0,0,0-4-4.49c-.36-.37-.69-.67-1.05-1l-.5-.5-.58-.53c-.38-.36-.76-.67-1.14-1s-.77-.66-1.16-1a74.24,74.24,0,0,0-9.89-6.5c-.66-.38-1.34-.74-2-1.1-.41-.22-.84-.43-1.27-.65l-.22-.11a100.06,100.06,0,0,0-15.75-6.25,129.21,129.21,0,0,0-72.71,0,99.78,99.78,0,0,0-15.76,6.25l-.21.11-1.28.65c-.67.36-1.35.72-2,1.1a74.24,74.24,0,0,0-9.89,6.5c-.39.3-.77.63-1.15,1s-.77.63-1.14,1l-.58.53-.51.5c-.36.33-.68.63-1,1a47,47,0,0,0-4,4.49,44,44,0,0,0-6,10.38L990,446.75l.1-.31a21.5,21.5,0,0,0-1.36,6.93,20.85,20.85,0,0,0,.19,3.54c.18,1.07.35,2,.53,3.07l2.14,12.21,4.28,24.41,4.28,24.4,1.63,9,2.78,15.38.32,1.75h.74l1,0,2,0-3.05,5.56-3.73,6.77-13.28,24.15h0L987.11,586l15.11,9.78,2.18-2.38,1-1.09,4.77-5.18,13.37-14.51,5.46-5.9h0l.75-.88.07-.6,2.33-20.15,0-.13v-.09l-2.31-39.67-2.57-43.74,9.8-32.7,6.5-21.64.23,13.11v.53l1.2,50.91v0l-10.35,77.06v.2l-2.3,38.47-1.15,19.29-.28,4.83c-.09,1.6-.11,3.21-.17,4.81l-.31,9.66-1.22,38.61-1.08,38.61-.55,19.3c-.11,3.23-.1,6.44-.14,9.66l-.09,9.65-.38,38.62-.64,77.23v1.7l1.65,0,2.24,0-6.57,10.81-16,6.05-8.48,3.21c-2.83,1.07-5.66,2.12-8.47,3.23l-2.17.84V901H992l77.61,0h3.48v-3.47l0-10,0-10,.06-19.84v0l11.28-129.51c.13-1.35.21-2.7.38-4l.51-4,1-8.07,2-16.15,4.11-32.28,7-54.86,7,54.86,4.1,32.28,2,16.15,1,8.07.5,4c.17,1.34.26,2.69.39,4l11.27,129.51v0l.06,19.84,0,10,0,10V901h3.48l77.62,0h3.43V883.5l-2.18-.84c-2.8-1.11-5.64-2.16-8.46-3.23l-8.48-3.21-16-6.05-6.57-10.81,2.25,0,1.65,0v-1.7l-.65-77.23-.37-38.62-.09-9.65c0-3.22,0-6.43-.14-9.66l-.55-19.3-1.08-38.61L1168.43,626l-.3-9.66c-.06-1.6-.09-3.21-.17-4.81l-.28-4.83-1.15-19.29-2.3-38.47v-.2l-10.34-77.06v.1l0-.23,0,.13,1.19-50.91v-.53l.22-11.93.78,1.35c2.83,4.9,5.66,9.78,8.44,14.69l2.66,4.69,7.59,13.4,2.57,4.52a21.4,21.4,0,0,0,13.43,10.34,20.29,20.29,0,0,0,5.75.66,21.42,21.42,0,0,0,5.72-.86,21,21,0,0,0,2.26-.81,21.42,21.42,0,0,0,5.7-3.54,22.13,22.13,0,0,0,1.77-1.72c.32-.35.68-.78,1-1.14l.77-1.05,1.54-2.1,3.06-4.19,6.15-8.4,12.27-16.8c8.17-11.21,16.42-22.35,24.67-33.52l1.43-1.94-1.77-1.48h0l-.87-.73,15.73-12,.59-.44.36-.86h0l13.89-33.55,1.27-3.07Zm-17.81,35.75-16.86,13.8h0l-2.55,2.09,2.39,2.16,1.17,1.06-23,31.58-12.22,16.8-6.11,8.41-3.06,4.19-1.53,2.1-.71,1,0,.07c-.25.32-.43.52-.69.82a16.57,16.57,0,0,1-4,3.21,16.2,16.2,0,0,1-12.17,1.57,16.43,16.43,0,0,1-7.55-4.43,16.7,16.7,0,0,1-2.12-2.7l0-.05-23.26-43.77h-8.62l0,3.14-.29,16.77-.4,16.76c-.12,5.59-.31,11.19-.47,16.77l-.5,16.78v.21l0,.32L1151,491.6,1153.1,511l2.16,19.35,2.34,19.2,0-.56,0,.69,0-.13,1,19c.33,6.42.67,12.84,1.07,19.24.72,12.84,1.66,25.66,2,38.53l2.92,77.1.74,19.27c.16,3.23.16,6.44.25,9.65l.2,9.65.77,38.59c.47,24.89,1.08,49.78,1.66,74.66l-2.44.1H1162l1.57,3.5,6.83,15.18.49,1,1.14.47L1203,887.91l-.81,2.92-63.6-.43-3.63,0h-1.31l-.84-16.58c-.18-2.06-.32-4.13-.43-6.19-.1-1.66-.15-3.32-.23-5l-.07-3.43-.1-1.77,0-1.09h0l-5.77-63.79-2.77-32.45L1122,743.85l-1.29-16.23c-.12-1.36-.19-2.72-.35-4.06l-.48-4-1-8.08-1.9-16.18-3.67-32.35c-2.36-21.6-4.72-43.18-6.72-64.82l-.28-2.81H1092.6l-.28,2.81c-2,21.64-4.37,43.22-6.72,64.82l-3.68,32.35-1.9,16.18-1,8.08-.48,4c-.17,1.34-.24,2.7-.36,4.06l-1.28,16.23-1.38,16.23-2.77,32.45L1067,856.32h0l-.06,1.09-.09,1.77-.07,3.43c-.08,1.66-.13,3.32-.23,5-.12,2.06-.26,4.13-.44,6.19l-.84,16.58H1064l-3.62,0-63.6.43-.81-2.92,30.87-12.42L1028,875l.48-1,6.83-15.18,1.58-3.5h-3.73l-2.44-.1c.58-24.88,1.18-49.77,1.66-74.66l.77-38.59.2-9.65c.09-3.21.09-6.42.24-9.65l.75-19.27,2.91-77.1c.35-12.87,1.29-25.69,2-38.53.4-6.4.74-12.82,1.07-19.24l1-19,0,.13,0-.69,0,.56,2.33-19.2L1045.8,511l2.1-19.37,2.23-19.36,0-.32v-.21l-.49-16.78c-.16-5.58-.36-11.18-.48-16.77l-.39-16.76-.29-16.77,0-3.14h-8.62l-7.36,25.17,0,.14-10.3,33.57-.15.49,0,.53h0l4.4,81.55.1,1.9-.82,5.73L1023.92,563l-16.8,16-4.29,4.07-2.06,2-3.17-1.91,6.21-14.77,5.42-12.88,4-9.61.06-.14,1-2.44H1008l-2.25-13.83-1.49-9.15-2.51-16.28-1.26-8.18-3.76-24.44-1.88-12.22-.46-3a16.65,16.65,0,0,1-.09-2.64,16,16,0,0,1,1.15-5.09l.09-.34c4.49-12,8.92-24,13.42-36,.76-2.05,1.54-4.12,2.32-6.17l7.94-21,4-10.49,2-5.25,1-2.62.24-.64.23-.57c.15-.38.3-.75.48-1.11a34.71,34.71,0,0,1,5.16-8.23,41.84,41.84,0,0,1,3.37-3.55c.28-.26.66-.59,1-.88l.49-.46.43-.36.67-.54.2-.15v0c.38-.31.79-.62,1.21-.93,1-.8,2.19-1.56,3.34-2.28a67.34,67.34,0,0,1,7.23-4,91.15,91.15,0,0,1,15.71-5.7,113.42,113.42,0,0,1,28.19-3.53c.49,0,1,0,1.49,0h7.71c.49,0,1,0,1.49,0a113.28,113.28,0,0,1,28.18,3.53,91.26,91.26,0,0,1,15.72,5.7,69.32,69.32,0,0,1,7.23,4c1.15.72,2.28,1.48,3.33,2.28.42.31.83.62,1.21.93l0,0,.2.15.67.54.42.36.49.46c.33.29.72.62,1,.88a40.31,40.31,0,0,1,3.37,3.55,32.06,32.06,0,0,1,2.13,2.82.46.46,0,0,1,.07.1c.43.6.85,1.21,1.23,1.85.17.28.34.56.49.83l.24.41.27.5,1.06,2,8.57,15.88,14.82,27.5,2.3,4.27h0l1.81,3.54,2.52-2.95,39.79-46.56h0l.19-.19.17-.39,7.94-17.41,26-18.38,5.56,4.17Z"/><path d="M1133.6,257.42c0-.85-.06-1.73-.15-2.6l-.4-2.85c0-.22-.09-.45-.15-.68l-.07-.27A34.85,34.85,0,0,0,1107,224.76a31.45,31.45,0,0,0-15.5,0A34.62,34.62,0,0,0,1065.66,251l-.07.28c-.06.23-.12.45-.16.69l-.39,2.84c-.1.87-.13,1.75-.16,2.6,0,.41,0,.81,0,1.24a31.83,31.83,0,0,0,.24,3.85c.09.69.18,1.31.29,1.91l.36,1.79c.62,3.56,1.34,7.16,2,10.64l2.6,13.27.47,2.2.21.75a24.83,24.83,0,0,0,2.46,5.78,25.22,25.22,0,0,0,8.75,8.88,26.23,26.23,0,0,0,5.72,2.54c1.09.33,2.08.54,3,.73s1.91.35,2.91.48a43,43,0,0,0,10.79,0c1-.13,2-.3,2.91-.48s1.87-.4,3-.73a25.94,25.94,0,0,0,5.71-2.54,25.12,25.12,0,0,0,11.22-14.66l.22-.79,3.07-15.47c.69-3.47,1.4-7.06,2-10.58l.37-1.81c.11-.6.2-1.22.29-1.91a31.94,31.94,0,0,0,.24-3.88C1133.63,258.23,1133.62,257.83,1133.6,257.42Zm-7.35,4.32c0,.5-.09,1-.16,1.51l-.25,1.57c-.14.88-.34,1.77-.53,2.62s-.4,1.8-.55,2.7l-3.89,20.47-.16.56a18.84,18.84,0,0,1-1.75,4.18,18.18,18.18,0,0,1-10.5,8.25c-.77.23-1.67.43-2.29.55s-1.56.29-2.43.41a36.14,36.14,0,0,1-9,0c-.88-.12-1.68-.25-2.44-.41s-1.52-.32-2.3-.55a18.65,18.65,0,0,1-4.17-1.84,18.29,18.29,0,0,1-6.32-6.41,17.94,17.94,0,0,1-1.75-4.18l-.15-.52-3.91-20.5c-.15-.91-.35-1.82-.54-2.71s-.39-1.75-.54-2.62l-.24-1.57c-.07-.5-.12-1-.15-1.51a25.6,25.6,0,0,1-.06-3c0-.41.08-.82.11-1.23,0-.63.1-1.23.19-1.8l.43-2.27c0-.14.08-.28.12-.42l.09-.28a26.77,26.77,0,0,1,5.53-10.43,26.1,26.1,0,0,1,19-9l1.41,0h1.53a26.1,26.1,0,0,1,19.24,9,27,27,0,0,1,5.54,10.44,2.76,2.76,0,0,0,.08.27c0,.14.09.28.12.41l.43,2.25c.09.6.13,1.2.19,1.83,0,.41.06.82.1,1.18A28.51,28.51,0,0,1,1126.25,261.74Z"/></svg>