<svg id="Capa_1" data-name="Capa 1" xmlns="http://www.w3.org/2000/svg" viewBox="0 0 1300 1000"><defs><style>.cls-1{fill:#fff;}</style></defs><title>2-landmarks-expand</title><path class="cls-1" d="M309.21,551.94l-3.64,2.31-27.15-39.47-2-2.86-2.69,2.19-3.63,2.95-14.91-12.21L238.3,490.77c-2.67-2.2-5.34-4.44-8-6.68l-4.49-3.76-4.36-3.7-16.81-14.2-.09-.08A15.87,15.87,0,0,1,200.7,457c-.1-.2-.19-.41-.27-.62a1,1,0,0,1-.06-.16l-.13-.36-.15-.44-.57-1.85-1.17-3.78-4.65-15.09-4.5-15.14c-.86-3-1.73-6-2.58-9-.59-2-1.17-4.12-1.73-6.19h0l-.69-2.54-2.76,0h-6l0,3.14-.29,16.78-.4,16.74c-.12,5.6-.31,11.18-.47,16.78L173.75,472v.22l0,.32L176,491.9l2.1,19.36,2.16,19.36,2.33,19.2,1,19c.34,6.41.68,12.84,1.07,19.24.73,12.83,1.67,25.66,2,38.51l2.92,77.08.74,19.27c.16,3.22.16,6.43.25,9.65l.19,9.65.78,38.57c.47,24.89,1.08,49.77,1.65,74.64l-6.16.1,1.57,3.5,6.83,15.18.48,1,1.15.47,30.87,12.42-.81,2.91-63.59-.42-3.62,0h-1.31L157.77,874c-.17-2.06-.32-4.13-.43-6.19-.1-1.66-.16-3.31-.24-5l-.07-3.43-.09-1.78-.06-1.09h0l-5.76-63.78-2.77-32.44L147,744.1l-1.29-16.23c-.12-1.36-.18-2.72-.35-4l-.48-4.06-1-8.08L142,695.51l-3.67-32.34c-2.35-21.59-4.72-43.17-6.72-64.8l-.28-2.82h-13.7l-.28,2.82c-2,21.63-4.37,43.21-6.72,64.8l-3.68,32.34-1.89,16.17-1,8.08-.49,4.06c-.17,1.33-.23,2.69-.34,4L102,744.1l-1.38,16.22-2.76,32.44-5.77,63.78h0l0,1.09-.09,1.78-.08,3.43c-.08,1.66-.13,3.31-.23,5-.11,2.06-.26,4.13-.44,6.19l-.83,16.58H89l-3.62,0L21.81,891,21,888.12,51.87,875.7l1.15-.47.47-1L60.32,859l1.58-3.5-6.16-.1c.57-24.87,1.18-49.75,1.65-74.64l.78-38.57.19-9.65c.08-3.22.09-6.43.24-9.65l.75-19.27,2.92-77.08c.34-12.85,1.27-25.68,2-38.51.4-6.4.74-12.83,1.07-19.24l1-19,2.33-19.2,2.16-19.36,2.09-19.36,2.24-19.34,0-.32V472l-.5-16.76c-.15-5.6-.34-11.18-.47-16.78l-.4-16.74L73.54,405l-.05-3.14H64.87L57.51,427l0,.13L47.18,460.7l-.15.47,0,.54h0l4.4,81.52.1,1.9-.82,5.74L49,563.33l-16.8,16-4.29,4.07-2.06,2-3.17-1.91,6.21-14.76,5.41-12.88,4-9.6.06-.14,1-2.44H33.06l-2.25-13.84-1.49-9.14-2.51-16.28-1.26-8.17L21.8,471.75l-1.89-12.21-.46-3a15.5,15.5,0,0,1,1.05-7.73l.1-.33c4.49-12,8.91-24,13.42-36,.76-2.06,1.54-4.12,2.32-6.17l7.94-21,4-10.5,2-5.25,1-2.61.25-.64.23-.57c.15-.38.3-.75.47-1.12a35.1,35.1,0,0,1,5.17-8.22,40.08,40.08,0,0,1,3.36-3.54c.28-.27.66-.6,1-.88l.5-.46.42-.36.67-.55a1.39,1.39,0,0,0,.19-.15h0c.38-.32.8-.62,1.21-.93,1.06-.8,2.19-1.56,3.34-2.29a69.06,69.06,0,0,1,7.23-4A89.19,89.19,0,0,1,91,337.52,112.74,112.74,0,0,1,119.12,334h10.7A112.8,112.8,0,0,1,158,337.52a89.48,89.48,0,0,1,15.71,5.69,71.14,71.14,0,0,1,7.23,4c1.15.73,2.28,1.49,3.33,2.29.42.31.83.61,1.22.93h0c.06.06.13.1.19.15l.67.55.43.36.49.46c.34.28.71.61,1,.88a40.08,40.08,0,0,1,3.36,3.54,35.08,35.08,0,0,1,3.53,5,0,0,0,0,1,0,0c.41.75.78,1.51,1.14,2.28s.65,1.49.93,2.22l.94,2.55,2,5.19c1,2.6,2,5.18,3,7.76a2.44,2.44,0,0,0,.1.24c.31.78.63,1.56.93,2.34l16.34,41.33c2.75,6.89,5.57,13.75,8.34,20.62h0l.25.6.36.37,5.63,5.8,30.48,31.36,18,18.57c1.52,1.53,3,3.12,4.55,4.61l4.76,4.42,9.08,8.41Z"/><path class="cls-1" d="M152.27,262.07c0,.51-.09,1-.15,1.52l-.26,1.57c-.14.88-.34,1.78-.53,2.64s-.39,1.79-.55,2.7L146.88,291l-.16.57a18.84,18.84,0,0,1-1.75,4.19,18.35,18.35,0,0,1-10.52,8.27c-.79.23-1.69.43-2.31.55s-1.57.3-2.44.41a35.06,35.06,0,0,1-9,0c-.87-.11-1.69-.25-2.45-.41s-1.53-.32-2.3-.55a18.12,18.12,0,0,1-4.18-1.85,18.41,18.41,0,0,1-6.35-6.42,19.2,19.2,0,0,1-1.75-4.2l-.15-.51-3.91-20.56c-.16-.92-.36-1.83-.55-2.71s-.39-1.76-.54-2.64l-.24-1.57c-.07-.5-.13-1-.16-1.52a27.86,27.86,0,0,1-.05-3c.05-.42.08-.82.11-1.23,0-.64.1-1.24.19-1.81l.43-2.28c0-.14.08-.27.12-.42s.06-.18.09-.28a27,27,0,0,1,5.54-10.46,26.24,26.24,0,0,1,19-9l1.42,0h1.53a26.16,26.16,0,0,1,19.29,9,27.05,27.05,0,0,1,5.56,10.47,2.13,2.13,0,0,0,.08.27c.05.15.09.28.12.41L152,256c.09.6.14,1.2.19,1.84,0,.41.07.81.11,1.18A28.59,28.59,0,0,1,152.27,262.07Z"/><path d="M318.14,552.67l-12.22-34.25-.21-.6-.37-.36L296,508.57l-4.68-4.44c-1.54-1.51-3-3.12-4.47-4.67L269,480.67l-35.17-37.15-14.8-41.27-7.52-20.91-3.75-10.46-1.86-5.23c-.33-.88-.61-1.71-1-2.64s-.73-1.84-1.13-2.74l-.65-1.34h0a42.48,42.48,0,0,0-4.84-7.82,48.33,48.33,0,0,0-4-4.49c-.36-.37-.69-.67-1-1l-.51-.5-.57-.53c-.38-.36-.76-.67-1.14-1s-.76-.65-1.16-.94a72.3,72.3,0,0,0-9.88-6.51l-2-1.1-1.28-.64-.21-.12A99.86,99.86,0,0,0,160.82,328a129.17,129.17,0,0,0-72.7,0,99.48,99.48,0,0,0-15.75,6.25l-.21.12-1.28.64c-.68.36-1.35.73-2,1.1A73,73,0,0,0,59,342.65c-.39.29-.77.61-1.15.94s-.76.64-1.14,1l-.57.53-.52.5c-.35.33-.68.63-1,1a45.57,45.57,0,0,0-4,4.49,43.29,43.29,0,0,0-6,10.38L15,447.07l.1-.31a21.77,21.77,0,0,0-1.36,6.93,21,21,0,0,0,.2,3.54c.17,1.07.35,2,.53,3.07l2.13,12.2,4.28,24.4,4.28,24.4,1.63,9,2.78,15.38.32,1.75.74,0,1,0,2,0-3.05,5.55-3.73,6.77L13.57,583.82h0l-1.42,2.48,15.11,9.78,2.17-2.37,1-1.1,4.77-5.18,13.37-14.5L54.05,567h0l.74-.87.07-.6,2.34-20.14h0l0-.13v-.09l-2.31-39.66-2.57-43.72,9.81-32.7,6.48-21.63.24,13.1v.54L70.07,472v0l-10.34,77v.19l-2.3,38.46L56.26,607,56,611.82c-.08,1.6-.1,3.21-.17,4.82l-.3,9.65L54.28,664.9,53.2,703.49l-.54,19.3c-.12,3.22-.1,6.43-.15,9.65l-.08,9.66L52,780.7l-.64,77.22v1.69l1.66,0,2.23,0-6.56,10.81-16,6-8.47,3.21c-2.82,1.07-5.66,2.12-8.46,3.22l-2.18.85v17.45H17l77.6,0h3.48v-3.47l0-10,0-10L98.14,858l0,.17,0-.28V858l11.27-129.48c.13-1.35.21-2.7.38-4l.51-4,1-8.07,2-16.14,4.1-32.28,7-54.84,7,54.84,4.1,32.28,2.06,16.14,1,8.07.51,4c.17,1.34.25,2.69.38,4L150.8,858v0l.06,19.83,0,10,0,10v3.47h3.48l77.59,0h3.43V883.71l-2.17-.85c-2.8-1.1-5.64-2.15-8.47-3.22l-8.46-3.21-16-6-6.57-10.81,2.24,0,1.66,0v-1.69l-.65-77.22-.38-38.6-.08-9.66c-.05-3.22,0-6.43-.15-9.65l-.54-19.3-1.08-38.59-1.23-38.61-.31-9.65c-.06-1.61-.08-3.22-.17-4.82l-.27-4.82-1.16-19.29-2.29-38.46v-.19l-10.34-77v.11l0-.24,0,.13,1.19-50.89v-.54l.24-13.08,1.66,5.56,2.42,8L189,436.19l4.63,15.09,1.16,3.78.58,1.92.15.5.21.54c.13.36.27.7.42,1a21.25,21.25,0,0,0,5.17,7.14l.28.26.41.37h0l22.83,19.56,4.36,3.72,39,33.42,1.83,1.58,2-1.57,3-2.4L301,562l2.1,3.3,3.52-2.06,9.59-5.61,3-1.77Zm-12.57,1.58-27.15-39.47-2-2.86-2.69,2.19-3.63,2.95-14.91-12.21L238.3,490.77c-2.67-2.2-5.34-4.44-8-6.68l-4.49-3.76-4.36-3.7-16.81-14.2-.09-.08A15.87,15.87,0,0,1,200.7,457c-.1-.2-.19-.41-.27-.62a1,1,0,0,1-.06-.16l-.13-.36-.15-.44-.57-1.85-1.17-3.78-4.65-15.09-4.5-15.14c-.86-3-1.73-6-2.58-9-.59-2-1.17-4.12-1.73-6.19h0l-.69-2.54-2.76,0h-6l0,3.14-.29,16.78-.4,16.74c-.12,5.6-.31,11.18-.47,16.78L173.75,472v.22l0,.32L176,491.9l2.1,19.36,2.16,19.36,2.33,19.2,0-.57,0,.7v-.13l1,19c.34,6.41.68,12.84,1.07,19.24.73,12.83,1.67,25.66,2,38.51l2.92,77.08.74,19.27c.16,3.22.16,6.43.25,9.65l.19,9.65.78,38.57c.47,24.89,1.08,49.77,1.65,74.64l-6.16.1,1.57,3.5,6.83,15.18.48,1,1.15.47,30.87,12.42-.81,2.91-63.59-.42-3.62,0h-1.31L157.77,874c-.17-2.06-.32-4.13-.43-6.19-.1-1.66-.16-3.31-.24-5l-.07-3.43-.09-1.78-.06-1.09h0l-5.76-63.78-2.77-32.44L147,744.1l-1.29-16.23c-.12-1.36-.18-2.72-.35-4l-.48-4.06-1-8.08L142,695.51l-3.67-32.34c-2.35-21.59-4.72-43.17-6.72-64.8l-.28-2.82h-13.7l-.28,2.82c-2,21.63-4.37,43.21-6.72,64.8l-3.68,32.34-1.89,16.17-1,8.08-.49,4.06c-.17,1.33-.23,2.69-.34,4L102,744.1l-1.38,16.22-2.76,32.44-5.77,63.78h0l0,1.09-.09,1.78-.08,3.43c-.08,1.66-.13,3.31-.23,5-.11,2.06-.26,4.13-.44,6.19l-.83,16.58H89l-3.62,0L21.81,891,21,888.12,51.87,875.7l1.15-.47.47-1L60.32,859l1.58-3.5-6.16-.1c.57-24.87,1.18-49.75,1.65-74.64l.78-38.57.19-9.65c.08-3.22.09-6.43.24-9.65l.75-19.27,2.92-77.08c.34-12.85,1.27-25.68,2-38.51.4-6.4.74-12.83,1.07-19.24l1-19,0,.13.05-.7,0,.57,2.33-19.2,2.16-19.36,2.09-19.36,2.24-19.34,0-.32V472l-.5-16.76c-.15-5.6-.34-11.18-.47-16.78l-.4-16.74L73.54,405l-.05-3.14H64.87L57.51,427l0,.13L47.18,460.7l-.15.47,0,.54h0l4.4,81.52.1,1.9-.82,5.74L49,563.33l-16.8,16-4.29,4.07-2.06,2-3.17-1.91,6.21-14.76,5.41-12.88,4-9.6.06-.14,1-2.44H33.06l-2.25-13.84-1.49-9.14-2.51-16.28-1.26-8.17L21.8,471.75l-1.89-12.21-.46-3a15.5,15.5,0,0,1,1.05-7.73l.1-.33c4.49-12,8.91-24,13.42-36,.76-2.06,1.54-4.12,2.32-6.17l7.94-21,4-10.5,2-5.25,1-2.61.25-.64.23-.57c.15-.38.3-.75.47-1.12a35.1,35.1,0,0,1,5.17-8.22,40.08,40.08,0,0,1,3.36-3.54c.28-.27.66-.6,1-.88l.5-.46.42-.36.67-.55a1.39,1.39,0,0,0,.19-.15h0c.38-.32.8-.62,1.21-.93,1.06-.8,2.19-1.56,3.34-2.29a69.06,69.06,0,0,1,7.23-4A89.19,89.19,0,0,1,91,337.52,112.74,112.74,0,0,1,119.12,334h10.7A112.8,112.8,0,0,1,158,337.52a89.48,89.48,0,0,1,15.71,5.69,71.14,71.14,0,0,1,7.23,4c1.15.73,2.28,1.49,3.33,2.29.42.31.83.61,1.22.93h0c.06.06.13.1.19.15l.67.55.43.36.49.46c.34.28.71.61,1,.88a40.08,40.08,0,0,1,3.36,3.54,35.08,35.08,0,0,1,3.53,5,0,0,0,0,1,0,0c.41.75.78,1.51,1.14,2.28s.65,1.49.93,2.22l.94,2.55,2,5.19c1,2.6,2,5.18,3,7.76a2.44,2.44,0,0,0,.1.24c.31.78.63,1.56.93,2.34l16.34,41.33c2.75,6.89,5.57,13.75,8.34,20.62h0l.25.6.36.37,5.63,5.8,30.48,31.36,18,18.57c1.52,1.53,3,3.12,4.55,4.61l4.76,4.42,9.08,8.41,7.16,31.86Z"/><path d="M159.65,257.75c0-.86-.06-1.74-.16-2.61l-.4-2.86a5.15,5.15,0,0,0-.15-.68l-.07-.28a34.82,34.82,0,0,0-6.56-13.92,34.4,34.4,0,0,0-12-9.74A35,35,0,0,0,133,225a31.65,31.65,0,0,0-15.55,0,35.2,35.2,0,0,0-7.33,2.66,34.57,34.57,0,0,0-12,9.73,35.05,35.05,0,0,0-6.56,13.93l-.07.28c-.06.22-.12.45-.16.68l-.4,2.86c-.09.87-.12,1.75-.15,2.61,0,.4,0,.8,0,1.24a34.38,34.38,0,0,0,.25,3.86c.09.69.18,1.31.28,1.91l.37,1.8c.63,3.57,1.34,7.18,2,10.67l2.61,13.31.47,2.21.21.74a25.2,25.2,0,0,0,11.25,14.7,26.13,26.13,0,0,0,5.73,2.55c1.1.33,2.08.54,3,.73s1.91.35,2.92.48a43.21,43.21,0,0,0,10.82,0c1-.13,2-.29,2.91-.48s1.88-.4,3-.73a26.26,26.26,0,0,0,5.72-2.55,25.28,25.28,0,0,0,8.78-8.9,25.75,25.75,0,0,0,2.47-5.79l.22-.8,3.07-15.47c.69-3.49,1.4-7.1,2-10.65l.37-1.82c.11-.6.2-1.22.3-1.91a36.91,36.91,0,0,0,.24-3.89C159.68,258.55,159.66,258.15,159.65,257.75Zm-7.38,4.32c0,.51-.09,1-.15,1.52l-.26,1.57c-.14.88-.34,1.78-.53,2.64s-.39,1.79-.55,2.7L146.88,291l-.16.57a18.84,18.84,0,0,1-1.75,4.19,18.35,18.35,0,0,1-10.52,8.27c-.79.23-1.69.43-2.31.55s-1.57.3-2.44.41a35.06,35.06,0,0,1-9,0c-.87-.11-1.69-.25-2.45-.41s-1.53-.32-2.3-.55a18.12,18.12,0,0,1-4.18-1.85,18.41,18.41,0,0,1-6.35-6.42,19.2,19.2,0,0,1-1.75-4.2l-.15-.51-3.91-20.56c-.16-.92-.36-1.83-.55-2.71s-.39-1.76-.54-2.64l-.24-1.57c-.07-.5-.13-1-.16-1.52a27.86,27.86,0,0,1-.05-3c.05-.42.08-.82.11-1.23,0-.64.1-1.24.19-1.81l.43-2.28c0-.14.08-.27.12-.42s.06-.18.09-.28a27,27,0,0,1,5.54-10.46,26.24,26.24,0,0,1,19-9l1.42,0h1.53a26.16,26.16,0,0,1,19.29,9,27.05,27.05,0,0,1,5.56,10.47,2.13,2.13,0,0,0,.08.27c.05.15.09.28.12.41L152,256c.09.6.14,1.2.19,1.84,0,.41.07.81.11,1.18A28.59,28.59,0,0,1,152.27,262.07Z"/></svg>