<svg id="Capa_1" data-name="Capa 1" xmlns="http://www.w3.org/2000/svg" viewBox="0 0 1300 1000"><defs><style>.cls-1{fill:#fff;}</style></defs><title>2-landmarks-expand</title><path class="cls-1" d="M198.32,244.53c0,.5-.09,1-.15,1.51l-.26,1.58c-.14.88-.34,1.77-.53,2.63s-.4,1.79-.54,2.7l-3.91,20.5-.16.57A17.94,17.94,0,0,1,191,278.2a18.3,18.3,0,0,1-10.51,8.27c-.78.23-1.69.43-2.3.56s-1.58.29-2.44.4a37.06,37.06,0,0,1-4.51.29,36.62,36.62,0,0,1-4.49-.28c-.87-.12-1.69-.26-2.44-.41s-1.52-.33-2.3-.56a17.68,17.68,0,0,1-4.17-1.85,18.21,18.21,0,0,1-6.34-6.42,17,17,0,0,1-1.75-4.19l-.16-.5L145.7,253c-.16-.92-.36-1.83-.55-2.71s-.38-1.75-.53-2.64l-.25-1.56c-.06-.51-.12-1-.15-1.52a25.73,25.73,0,0,1-.06-3c.05-.4.08-.82.12-1.22,0-.64.09-1.24.18-1.82l.43-2.26c0-.15.08-.28.12-.42l.09-.29a27.14,27.14,0,0,1,5.54-10.45,26.08,26.08,0,0,1,9.38-6.88,25.67,25.67,0,0,1,9.64-2.13l1.42,0h1l.57,0a25.39,25.39,0,0,1,9.89,2.13,26,26,0,0,1,9.38,6.89,27.16,27.16,0,0,1,5.55,10.45c0,.09.05.19.08.28a3.17,3.17,0,0,1,.12.41l.43,2.25c.09.6.14,1.21.19,1.84,0,.4.07.82.11,1.19C198.4,242.45,198.39,243.47,198.32,244.53Z"/><path class="cls-1" d="M257.25,544.44l-.65,33-6.67,1.81L232.46,552l-.12-23.25h0v-3.17l-3.19.2-6,.36L204.23,479l1.62-51.59-2.19-44.13,1.23,4.17,6.93,23.51c.59,2,1.12,3.94,1.77,5.87l1.92,5.84,3.85,11.67L234.8,481c2.52,7.79,5.1,15.56,7.56,23.37s4.9,15.62,7.32,23.45l0,.17.1.17c.78,1.42,1.55,2.84,2.29,4.29s1.44,2.9,2.11,4.38,1.29,3,1.9,4.5C256.52,542.33,256.91,543.37,257.25,544.44Z"/><path class="cls-1" d="M149.69,602.89l-8.07,28.92L132.52,664l-18.2,64.27-.06.21a13.82,13.82,0,0,1-.76,2.36l0,.07-.06.16L91,793.58,79.75,824.85,69.05,854.3h0l-.83,2.23,9.41,19.36,0,.07.08,0,32.61,13.31-.71,1.79-36.3-.7L32.32,875.6l10.06-37.19-5.75-2.95,1.34-4.9,7-23.37,8.75-30.34,17.5-60.68,0-.15,0-.15,15.35-87.28L94.25,585l5.14-30.2,25.15,27Z"/><path class="cls-1" d="M264,801l-1.16-.47-.47-1-6.74-15-.46-.92-.26-.5.06-.64.68-8.66.75-8.66,1.51-17.3,3.3-34.57c1.13-11.52,2.38-23,3.57-34.55l1.82-17.27.22-2.15.11-1.09,0-.87a14.22,14.22,0,0,0-.14-3.45,15.24,15.24,0,0,0-.87-3.31,16.91,16.91,0,0,0-.7-1.55l-1-1.84-16.87-30.35-8.43-15.17-8.32-15.23L214,555.92c-5.44-10.21-11-20.38-16.33-30.64l-.38-.74v-.65l.33-47.57h0l0-2.75.1.29-.13-11,.17,0-.17-.42-1.05-92.2v0c-.09-.72-2.27-16.76-4.14-24.47-.52-1.76-1-3.51-1.57-5.26l-.1-.33a34.3,34.3,0,0,0-3.24-7.6,30.08,30.08,0,0,0-5.15-6.4,30.49,30.49,0,0,0-6.6-4.72c-1.17-.67-2.43-1.15-3.64-1.7s-2.5-.91-3.79-1.22a33,33,0,0,0-7.84-1.15,34.45,34.45,0,0,0-7.91.57,32.92,32.92,0,0,0-14.49,6.66c-.51.46-1.08.86-1.55,1.35s-1,.95-1.46,1.45l-1.36,1.54-1.23,1.66c-.4.57-.74,1.15-1.13,1.73s-.69,1.26-1,1.89l-2.3,4.22L119,355.12c-6,11.16-12.06,22.29-17.9,33.52q-4.39,8.42-8.73,16.85c-2.87,5.63-5.72,11.28-8.44,16.94l-1,2.12-.26.54a3.8,3.8,0,0,1-.17.38c-.11.29-.23.64-.36,1l-.74,2.26L80.68,431,78,440.1l-5.4,18.2c-7,23.63-14,47.28-20.91,71l5.43,1.13,3,.64-1.78,2.78h0L49.29,548l-1.89,32.4,6.54,2.47,19.69-25.69c.09-1.39.21-2.77.31-4.15l.49-5c.14-1.68.36-3.34.53-5l.62-5,0-.45.09-.25,8.13-22.43L92,492.43,100.24,470l8.33-22.34,52.49-68.36h2.61l-22.33,40L114,449.92c-1.31,4.89-2.46,9.8-3.5,14.73-.59,2.72-1.13,5.45-1.67,8.17-.67,3.44-1.31,6.89-2,10.32-.6,3.09-1.17,6.19-1.72,9.28-.66,3.36-1.33,6.72-2.06,10.07-1,4.94-2.17,9.84-3.23,14.77a49.09,49.09,0,0,0-1.17,7.43c-.09,1.25-.06,2.5-.06,3.77s.14,2.51.32,3.75a42,42,0,0,0,2.18,9c.12.35.26.69.4,1.05h0a44.56,44.56,0,0,0,11,16.24l22,20.74c14.61,13.87,29.37,27.55,44.07,41.32l11,10.31,11.11,10.24L223,661.57l.43.4,0,.61-5.8,117.92,2.92,0,2.18,0,2,24.72.24,2.37h0l.65,8.2,1.31,0h3.63l63.67.43.83-2.92ZM106,531.43s0,0,0,0h0Z"/><polygon points="203.98 523.73 203.52 522.02 203.96 522.85 203.98 523.73"/><polygon points="259 782.17 258.99 782.31 258.93 782.88 258.81 782.21 258.73 781.77 259 782.17"/><path d="M302.31,811.33V809l-2.18-.85c-2.81-1.11-5.65-2.16-8.48-3.23l-8.48-3.21-16.07-6.06L260,784l0,0-1-1.61-.06.56-.13-.66-.07-.45.27.4,3.64-33.82,3.88-34.5,4-34.49,2-17.24.26-2.16.13-1.07.07-1.18a21.05,21.05,0,0,0-.13-4.76,21.9,21.9,0,0,0-1.2-4.63,19.37,19.37,0,0,0-1-2.2l-1-1.94-33.19-61-16.57-30.53-16-29.8,0,.89-.46-1.71.43.82-.72-26.38-.2-6.77-.08-1.32.05.14.53,1.45L218,530.37l.85,2.38,2.46-.19h0l4.82-.36.3,20.69v.76l.41.74h0l17.33,32,1.66,3,3.41-1h0l12.36-4,3-1-.09-2.84h0L263.3,544.2l0-.75L263,543h0c-.88-1.36-1.71-2.76-2.57-4.14l-2.48-4.16c-.85-1.39-1.63-2.81-2.45-4.2l-2.32-4.06.07.23-.16-.39.09.16-14.39-46.69-14.32-47L220.88,421l-1.79-5.86c-.61-2-1.11-3.95-1.66-5.92l-6.5-23.72q-4.44-16.26-8.78-32.56-1.49-5.53-2.92-11.09c-.35-1.29-.69-2.59-1-3.89l.06.24a43.91,43.91,0,0,0-3.66-9.64l-1.27-2.26c-.44-.74-1-1.45-1.42-2.17a22.56,22.56,0,0,0-1.52-2.11c-.54-.69-1.05-1.4-1.65-2a40,40,0,0,0-7.77-7.09,42.38,42.38,0,0,0-4.55-2.8,40,40,0,0,0-5-2.08l-1.28-.43c-.42-.14-.86-.23-1.3-.35-.87-.2-1.74-.47-2.63-.61l-2.68-.37c-.89-.14-1.79-.13-2.68-.19a38.14,38.14,0,0,0-10.7,1.14A40.16,40.16,0,0,0,132,317.92c-.59.64-1.22,1.25-1.78,1.91s-1.14,1.32-1.68,2l-1.55,2.1-1.43,2.15c-.45.75-.86,1.51-1.28,2.26s-.76,1.5-1.14,2.26l-2.12,4.21-8.53,17-17.14,34q-4.24,8.5-8.45,17.05c-2.79,5.7-5.56,11.41-8.21,17.22l-1,2.18-.25.54c-.11.25-.2.48-.28.71-.16.43-.3.83-.42,1.23L76.06,427l-.64,2.29-2.54,9.17L67.8,456.78,47.47,530.12l-.56,2,2,.43h0l4.84,1L44,545.37l-.37.46-.13.9h0L38.75,582.8,38.33,586l3.28,1.25h0l12.23,4.34,3.09,1.1,1.8-2.58L79,560l.48-.69,0-.65h0l.46-5,.52-5c.17-1.67.37-3.34.56-5l.54-4.64-.1.25.13-.61,0,.36,15.8-44.71,5.47-15.48c-.29,1.2-.57,2.4-.86,3.59l-2.22,9-2.65,10.13c-1.25,4.89-2.56,9.76-3.78,14.66L92.94,518c-.17.7-.31,1.41-.43,2.12-.24,1.43-.41,2.86-.52,4.3s-.08,2.88-.08,4.34.16,2.88.34,4.32a47,47,0,0,0,1.45,7l-7,43.46-7.17,43.72L65.25,714.68l0-.19-.07.3,0-.11L48.66,775.41l-8.32,30.47-7,25.14h0l-1.87,6.75,5.8,2.78L23.92,877.67,23.09,880l2.24,1.07L71,901.2l.1,0h.08l46.2-.25,0-16.87-35-13.4-7.67-14.36L85,826.72l11.34-31.26L118.92,733a20.94,20.94,0,0,0,1-2.86L139,665.85l9.52-32.07,7.63-25.3q9,8.35,18.08,16.7l11.1,10.24,11.2,10.14c7,6.33,13.93,12.64,21,18.89l.08-2.2,1.41,3.53-1.49-1.33L212.74,782.7l-.09,2.46h5l.06,17.88,0,10,0,10v3.47h3.48l77.71,0h3.44V811.33ZM204.89,387.41l6.93,23.51c.59,2,1.12,3.94,1.77,5.87l1.92,5.84,3.85,11.67L234.8,481c2.52,7.79,5.1,15.56,7.56,23.37s4.9,15.62,7.32,23.45l0,.17.1.17c.78,1.42,1.55,2.84,2.29,4.29s1.44,2.9,2.11,4.38,1.29,3,1.9,4.5c.39,1,.78,2.08,1.12,3.15l-.65,33-6.67,1.81L232.46,552l-.12-23.25h0v-3.17l-3.19.2-6,.36L204.23,479l1.62-51.59-2.19-44.13Zm-63.27,244.4L132.52,664l-18.2,64.27-.06.21a13.82,13.82,0,0,1-.76,2.36l0,.07-.06.16L91,793.58,79.75,824.85,69.05,854.3h0l-.83,2.23,9.41,19.36,0,.07.08,0,32.61,13.31-.71,1.79-36.3-.7L32.32,875.6l10.06-37.19-5.75-2.95,1.34-4.9,7-23.37,8.75-30.34,17.5-60.68,0-.15,0-.15,15.35-87.28L94.25,585l5.14-30.2,25.15,27,25.15,21.1ZM294.06,816.32l-63.67-.43h-3.63l-1.31,0-.65-8.2-.19-2.38-2-24.72-2.18,0-2.92,0,5.8-117.92,0-.61-.43-.4-22.2-20.49-11.11-10.24-11-10.31c-14.7-13.77-29.46-27.45-44.07-41.32l-22-20.74a44.56,44.56,0,0,1-11-16.24h0c-.14-.36-.28-.7-.4-1.05a42,42,0,0,1-2.18-9c-.18-1.24-.26-2.5-.32-3.75s0-2.52.06-3.77a49.09,49.09,0,0,1,1.17-7.43c1.06-4.93,2.22-9.83,3.23-14.77.73-3.35,1.4-6.71,2.06-10.07.55-3.09,1.12-6.19,1.72-9.28.67-3.43,1.31-6.88,2-10.32.54-2.72,1.08-5.45,1.67-8.17,1-4.93,2.19-9.84,3.5-14.73l27.33-30.6,22.33-40h-2.61L108.57,447.7,100.24,470,92,492.43l-8.16,22.41-8.13,22.43-.09.25,0,.45L75,543c-.17,1.67-.39,3.33-.53,5l-.49,5c-.1,1.38-.22,2.76-.31,4.15L53.94,582.83l-6.54-2.47L49.29,548l9.05-14.12h0l1.78-2.78-3-.64-5.43-1.13c6.86-23.7,13.91-47.35,20.91-71L78,440.1l2.7-9.1.68-2.28.74-2.26c.13-.35.25-.7.36-1a3.8,3.8,0,0,0,.17-.38l.26-.54,1-2.12c2.72-5.66,5.57-11.31,8.44-16.94s5.8-11.24,8.73-16.85c5.84-11.23,11.88-22.36,17.9-33.52L128,338.43l2.3-4.22c.34-.63.65-1.31,1-1.89s.73-1.16,1.13-1.73l1.23-1.66,1.36-1.54c.48-.5,1-1,1.46-1.45s1-.89,1.55-1.35a32.92,32.92,0,0,1,14.49-6.66,34.45,34.45,0,0,1,7.91-.57,33,33,0,0,1,7.84,1.15c1.29.31,2.53.79,3.79,1.22s2.47,1,3.64,1.7a30.49,30.49,0,0,1,6.6,4.72,30.08,30.08,0,0,1,5.15,6.4,34.3,34.3,0,0,1,3.24,7.6l.1.33c.52,1.75,1.05,3.5,1.57,5.26,1.87,7.71,4.05,23.75,4.14,24.47v0l1.05,92.2.17.42-.17,0,.13,11-.1-.29,0,2.75h0l-.33,47.57v.65l.38.74c5.36,10.26,10.89,20.43,16.33,30.64l16.6,30.49,8.32,15.23,8.43,15.17,16.87,30.35,1,1.84a16.91,16.91,0,0,1,.7,1.55,15.24,15.24,0,0,1,.87,3.31,14.22,14.22,0,0,1,.14,3.45l0,.87-.11,1.09-.22,2.15-1.82,17.27c-1.19,11.51-2.44,23-3.57,34.55l-3.3,34.57-1.51,17.3-.75,8.66-.68,8.66-.06.64.26.5.46.92,6.74,15,.47,1L264,801l30.92,12.44Z"/><polygon points="203.03 489.69 202.95 488.37 203 488.51 203.03 489.69"/><path d="M224.85,807.65h0l-.19-2.38Z"/><polygon points="259.97 783.93 258.99 782.31 259 782.17 259.97 783.93"/><path d="M218.94,665.78l-1.49-1.33.09-2.2Z"/><polygon points="69.53 713.52 69.46 713.82 69.47 713.7 69.53 713.52"/><path d="M123.37,732.28s0-.11.06-.15l0-.1Z"/><polygon points="57.39 702.92 57.19 703.52 57.25 703.26 57.39 702.92"/><polygon points="92.46 873.63 91.98 873.44 92.17 873.22 92.46 873.63"/><path d="M106,531.4v0s0,0,0,0Z"/><path d="M209.79,794.41l-.07,1.75h-.39v-1.74A1.8,1.8,0,0,0,209.79,794.41Z"/><path d="M264.23,781.69l-.06.57-.13-.67h.12Z"/><path d="M205.69,240.2c0-.85-.05-1.73-.15-2.6l-.4-2.85q-.06-.34-.15-.69l-.07-.27a35.15,35.15,0,0,0-6.56-13.92,34.43,34.43,0,0,0-12-9.73,33.84,33.84,0,0,0-30.19,0,34.52,34.52,0,0,0-12,9.73,35.17,35.17,0,0,0-6.56,13.91l-.07.28c0,.23-.11.46-.15.69l-.4,2.85c-.09.87-.12,1.75-.15,2.61,0,.4,0,.81-.05,1.24a33.9,33.9,0,0,0,.25,3.85c.08.69.17,1.31.29,1.91l.37,1.8c.61,3.55,1.33,7.15,2,10.66l2.61,13.3.47,2.21.21.74a25.22,25.22,0,0,0,17,17.23c1.1.34,2.09.55,3,.74s1.91.34,2.91.47a41.91,41.91,0,0,0,10.81,0c1-.13,2-.29,2.92-.47s1.87-.4,3-.74a25.76,25.76,0,0,0,5.72-2.54,25.19,25.19,0,0,0,11.24-14.69l.22-.78,3.06-15.47c.69-3.48,1.41-7.09,2-10.63l.38-1.83c.1-.59.2-1.22.29-1.91a34,34,0,0,0,.24-3.88C205.72,241,205.71,240.61,205.69,240.2Zm-7.37,4.33c0,.5-.09,1-.15,1.51l-.26,1.58c-.14.88-.34,1.77-.53,2.63s-.4,1.79-.54,2.7l-3.91,20.5-.16.57A17.94,17.94,0,0,1,191,278.2a18.3,18.3,0,0,1-10.51,8.27c-.78.23-1.69.43-2.3.56s-1.58.29-2.44.4a37.06,37.06,0,0,1-4.51.29,36.62,36.62,0,0,1-4.49-.28c-.87-.12-1.69-.26-2.44-.41s-1.52-.33-2.3-.56a17.68,17.68,0,0,1-4.17-1.85,18.21,18.21,0,0,1-6.34-6.42,17,17,0,0,1-1.75-4.19l-.16-.5L145.7,253c-.16-.92-.36-1.83-.55-2.71s-.38-1.75-.53-2.64l-.25-1.56c-.06-.51-.12-1-.15-1.52a25.73,25.73,0,0,1-.06-3c.05-.4.08-.82.12-1.22,0-.64.09-1.24.18-1.82l.43-2.26c0-.15.08-.28.12-.42l.09-.29a27.14,27.14,0,0,1,5.54-10.45,26.08,26.08,0,0,1,9.38-6.88,25.67,25.67,0,0,1,9.64-2.13l1.42,0h1l.57,0a25.39,25.39,0,0,1,9.89,2.13,26,26,0,0,1,9.38,6.89,27.16,27.16,0,0,1,5.55,10.45c0,.09.05.19.08.28a3.17,3.17,0,0,1,.12.41l.43,2.25c.09.6.14,1.21.19,1.84,0,.4.07.82.11,1.19C198.4,242.45,198.39,243.47,198.32,244.53Z"/></svg>