<svg id="Capa_1" data-name="Capa 1" xmlns="http://www.w3.org/2000/svg" viewBox="0 0 1300 1000"><defs><style>.cls-1{fill:#fff;}</style></defs><title>2-landmarks-expand</title><path class="cls-1" d="M514.61,262.1c0,.5-.09,1-.15,1.51l-.25,1.57c-.15.89-.35,1.78-.54,2.64s-.39,1.8-.54,2.7L509.22,291l-.16.57a18.64,18.64,0,0,1-1.75,4.19,18.32,18.32,0,0,1-6.35,6.42,17.94,17.94,0,0,1-4.18,1.85c-.78.23-1.68.43-2.29.56s-1.59.29-2.45.4a35.06,35.06,0,0,1-9,0c-.87-.11-1.7-.25-2.45-.4s-1.52-.33-2.3-.56a18.27,18.27,0,0,1-10.52-8.27,17.91,17.91,0,0,1-1.75-4.2l-.16-.51L462,270.53c-.15-.91-.35-1.83-.54-2.71s-.4-1.75-.54-2.64l-.25-1.56c-.07-.51-.12-1-.16-1.52a27.92,27.92,0,0,1,0-3c0-.41.07-.82.1-1.23.06-.63.1-1.23.19-1.81l.44-2.27c0-.14.07-.28.11-.43s.06-.17.09-.27a27,27,0,0,1,5.55-10.47,25.92,25.92,0,0,1,9.39-6.88,25.64,25.64,0,0,1,9.65-2.14l1.41,0h1l.57,0a25.64,25.64,0,0,1,9.9,2.14,26,26,0,0,1,9.39,6.88,27.31,27.31,0,0,1,5.55,10.47c0,.1.06.19.08.27s.09.29.12.42l.43,2.26c.09.6.14,1.2.19,1.83,0,.41.07.82.11,1.19A28.63,28.63,0,0,1,514.61,262.1Z"/><path class="cls-1" d="M591,888.14l-.81,2.92-63.58-.43-3.63,0h-1.31L520.8,874c-.18-2-.32-4.12-.43-6.18-.1-1.66-.15-3.32-.23-5l-.08-3.43-.09-1.77-.05-1.09h0l-5.77-63.77-2.77-32.44L510,744.12l-1.29-16.22c-.11-1.36-.18-2.72-.35-4.06l-.48-4.05-1-8.08L505,695.54l-3.68-32.35c-2.35-21.59-4.71-43.17-6.72-64.8l-.27-2.81H480.64l-.27,2.81c-2,21.63-4.37,43.21-6.72,64.8L470,695.54l-1.9,16.17-1,8.08-.48,4.05c-.17,1.34-.24,2.7-.35,4.06L465,744.12l-1.37,16.23-2.77,32.44-5.77,63.77h0l-.1,1.09v.24l0,1.53-.08,3.43c-.08,1.66-.13,3.32-.23,5-.11,2.06-.25,4.13-.43,6.18l-.84,16.58h-1.31l-3.63,0-63.59.43-.8-2.92,30.87-12.42,1.15-.47.48-1L423.36,859l1.57-3.49-6.16-.1c.57-24.88,1.18-49.76,1.65-74.65l.78-38.57.2-9.65c.07-3.22.08-6.43.23-9.65l.76-19.27,2.91-77.07c.34-12.86,1.27-25.68,2-38.52.4-6.4.73-12.83,1.07-19.23l1-19,2.34-19.19,2.15-19.36L436,491.93l2.24-19.35,0-.32V472l-.49-16.76c-.16-5.59-.35-11.18-.48-16.77l-.39-16.76L436.57,405l-.06-3.14H427.9l-.3,2.87c-.4,4.31-.83,8.63-1.26,13s-.84,8.64-1.32,13l-2.76,25.91c-.11,1.09-.25,2.15-.36,3.25l-.27,3.28-.56,6.49-1.1,13-1.12,13-1.18,13c-1.59,17.28-3.1,34.57-4.81,51.85l-2.53,25.91-1.87,18.27h-3.77L394.53,577.6l5.16-18.73.84-3.06h-6.95v0l.37-37.42,0-2.44c.11-9.88.34-19.75.57-29.62l.39-18c.07-3,.15-6,.17-8.94s.28-5.8.61-8.66.82-5.73,1.44-8.56l.47-2.12.54-2.13c.39-1.48.67-2.94,1-4.4L403.08,416c2.59-11.72,5.29-23.41,7.94-35.12l2-8.79c.16-.77.32-1.34.48-2s.36-1.26.57-1.88a38.18,38.18,0,0,1,1.4-3.65,38.58,38.58,0,0,1,4-6.75c.77-1,1.6-2,2.47-3,.45-.47.88-.95,1.35-1.4l.7-.67.79-.72.77-.7.68-.58c.47-.4,1-.79,1.53-1.19,1.06-.8,2.18-1.55,3.34-2.29a70.09,70.09,0,0,1,7.23-4A89.19,89.19,0,0,1,454,337.54,113.11,113.11,0,0,1,481.6,334h11.24A112.76,112.76,0,0,1,521,337.54a89.19,89.19,0,0,1,15.71,5.69,70.09,70.09,0,0,1,7.23,4c1.15.74,2.28,1.49,3.34,2.29.53.4,1.06.79,1.53,1.19l.68.58.77.7.79.72.7.67c.47.45.9.93,1.35,1.4.87,1,1.7,2,2.47,3a37.92,37.92,0,0,1,3.94,6.75,35.74,35.74,0,0,1,1.41,3.65c.21.62.39,1.26.57,1.88s.32,1.23.48,2l2,8.79c2.65,11.71,5.35,23.4,7.94,35.12l3.89,17.56c.35,1.46.63,2.92,1,4.4l.54,2.13.47,2.12c.62,2.83,1.09,5.67,1.44,8.56s.54,5.75.61,8.66.1,5.95.17,8.94l.39,18c.23,9.87.46,19.74.57,29.62v0l0,2.47.37,37.42v0h-6.95l.84,3.06,5.15,18.73-10.15,26.88h-3.77l-1.87-18.27-2.53-25.91c-1.71-17.28-3.22-34.57-4.81-51.85l-1.18-13-1.12-13-1.1-13-.56-6.49-.27-3.28c-.11-1.1-.25-2.16-.36-3.25L550,430.62c-.48-4.32-.88-8.64-1.32-13s-.86-8.64-1.26-13l-.3-2.87h-8.61l-.06,3.14-.29,16.77-.39,16.76c-.13,5.59-.32,11.18-.48,16.77L536.78,472v.22l0,.32,2.24,19.35,2.09,19.36,2.15,19.36,2.34,19.19,1,19c.33,6.4.67,12.83,1.07,19.23.72,12.84,1.66,25.66,2,38.52l2.91,77.07.76,19.27c.15,3.22.16,6.43.23,9.65l.2,9.65.78,38.57c.47,24.89,1.08,49.77,1.65,74.65l-6.16.1,1.57,3.49,6.83,15.18.48,1,1.15.47Z"/><path d="M522,257.77c0-.85-.06-1.74-.15-2.61l-.4-2.86a5,5,0,0,0-.16-.67l-.07-.28a35,35,0,0,0-6.56-13.93A35.2,35.2,0,0,0,495.31,225a31.61,31.61,0,0,0-15.54,0,35.3,35.3,0,0,0-19.35,12.39,35.18,35.18,0,0,0-6.56,13.93l-.07.29a6.78,6.78,0,0,0-.15.68l-.4,2.85c-.09.87-.12,1.76-.15,2.61,0,.41,0,.81-.06,1.25a31.92,31.92,0,0,0,.26,3.85c.08.69.17,1.32.28,1.92l.37,1.79c.62,3.57,1.34,7.18,2,10.67l2.61,13.31.47,2.21.21.75a24.9,24.9,0,0,0,2.46,5.79,25.28,25.28,0,0,0,8.78,8.9,25.87,25.87,0,0,0,5.73,2.55c1.1.33,2.09.54,3,.73s1.92.35,2.92.48a41.91,41.91,0,0,0,10.81,0c1-.13,2-.29,2.92-.48s1.88-.4,3-.73a25.67,25.67,0,0,0,5.73-2.55,25.31,25.31,0,0,0,8.79-8.9,25.78,25.78,0,0,0,2.46-5.79l.22-.79,3.07-15.48c.69-3.49,1.41-7.1,2-10.64l.38-1.82c.1-.6.2-1.23.28-1.92A34.15,34.15,0,0,0,522,259C522,258.58,522,258.18,522,257.77Zm-36.05-24.18,1.41,0h1l.57,0a25.64,25.64,0,0,1,9.9,2.14,26,26,0,0,1,9.39,6.88,27.31,27.31,0,0,1,5.55,10.47c0,.1.06.19.08.27s.09.29.12.42l.43,2.26c.09.6.14,1.2.19,1.83,0,.41.07.82.11,1.19a28.63,28.63,0,0,1,0,3.05c0,.5-.09,1-.15,1.51l-.25,1.57c-.15.89-.35,1.78-.54,2.64s-.39,1.8-.54,2.7L509.22,291l-.16.57a18.64,18.64,0,0,1-1.75,4.19,18.32,18.32,0,0,1-6.35,6.42,17.94,17.94,0,0,1-4.18,1.85c-.78.23-1.68.43-2.29.56s-1.59.29-2.45.4a35.06,35.06,0,0,1-9,0c-.87-.11-1.7-.25-2.45-.4s-1.52-.33-2.3-.56a18.27,18.27,0,0,1-10.52-8.27,17.91,17.91,0,0,1-1.75-4.2l-.16-.51L462,270.53c-.15-.91-.35-1.83-.54-2.71s-.4-1.75-.54-2.64l-.25-1.56c-.07-.51-.12-1-.16-1.52a27.92,27.92,0,0,1,0-3c0-.41.07-.82.1-1.23.06-.63.1-1.23.19-1.81l.44-2.27c0-.14.07-.28.11-.43s.06-.17.09-.27a27,27,0,0,1,5.55-10.47,25.92,25.92,0,0,1,9.39-6.88A25.64,25.64,0,0,1,485.94,233.59Z"/><path d="M598.39,886.07v-2.34l-2.18-.84c-2.8-1.11-5.64-2.15-8.46-3.23l-8.47-3.2-16-6.05-6.56-10.81,2.23,0h1.66v-1.69l-.65-77.21-.38-38.61-.08-9.65c-.05-3.22,0-6.43-.15-9.65l-.54-19.31-1.08-38.59-1.23-38.6-.31-9.66c-.06-1.61-.08-3.22-.16-4.82L555.7,607l-1.14-19.29-2.3-38.46v-.2L541.9,472v0l1.36-57.88,1.88,17L547.91,457c.11,1.08.25,2.16.34,3.23l.25,3.23.51,6.48,1,13q1,13,2,26l3.87,51.91,1.91,26,1.84,26,.17,2.39h2.43l11.07,0h2l.51-1.88,9.69-34.81.18-.69-.18-.68-4.65-16.36,2.17,0,2.1,0,.12-23c-.14-17.13-.1-34.27,0-51.4l.07-18c0-3,0-6,.06-9s-.14-6.14-.42-9.2-.7-6.12-1.28-9.13c-.28-1.49-.61-3-.95-4.47s-.59-2.93-.89-4.39l-3.44-17.63-6.92-35.25-1.72-8.81c-.13-.72-.32-1.52-.49-2.29s-.38-1.55-.61-2.31a42.26,42.26,0,0,0-1.58-4.51,45.93,45.93,0,0,0-7.45-12.2c-.53-.6-1-1.2-1.6-1.77l-.82-.87-.83-.78a51.3,51.3,0,0,0-7.37-6,87.81,87.81,0,0,0-8-4.78,99.41,99.41,0,0,0-17.15-7,128.76,128.76,0,0,0-36.34-5.22h0a128.74,128.74,0,0,0-36.33,5.22A99.41,99.41,0,0,0,434,335a87.81,87.81,0,0,0-8,4.78,50.76,50.76,0,0,0-7.37,6l-.83.78-.82.87c-.56.57-1.07,1.17-1.6,1.77a45.08,45.08,0,0,0-2.91,3.81,45.64,45.64,0,0,0-4.55,8.39,44.53,44.53,0,0,0-1.57,4.51c-.23.76-.42,1.54-.61,2.31s-.36,1.57-.49,2.29l-1.72,8.81-6.92,35.25-3.44,17.63c-.3,1.46-.57,2.95-.89,4.39s-.67,3-.95,4.47c-.58,3-1,6.07-1.28,9.13s-.42,6.12-.42,9.2.05,6,.06,9l.07,18c.09,17.13.13,34.27,0,51.4l.12,23,2.1,0,2.17,0L389.51,577l-.18.68.18.69,9.69,34.81.51,1.88h2l11.07,0h2.42l.18-2.39,1.84-26,1.91-26L423,508.87q1-13,2-26l1-13,.51-6.48.25-3.23c.09-1.07.23-2.15.34-3.23l2.76-25.86,1.89-17L433.1,472v0l-10.34,77.05v.2l-2.3,38.46L419.3,607l-.29,4.81c-.08,1.6-.1,3.21-.16,4.82l-.31,9.66-1.23,38.6-1.08,38.59-.54,19.31c-.12,3.22-.1,6.43-.15,9.65l-.09,9.65-.37,38.61-.65,77.21v1.69h1.66l2.23,0-6.56,10.81.91-.36-1.59,1.45.68-1.09-16,6.05-8.47,3.2c-2.82,1.08-5.66,2.12-8.46,3.23l-2.18.84v17.45H380l77.6.05h3.48v-3.47l0-10,0-10,.06-19.84,0,.17,0-.27v.1L472.44,728.5c.13-1.35.21-2.69.38-4l.51-4,1-8.07,2.05-16.14,4.1-32.27,7-54.85,7,54.85,4.1,32.27,2.05,16.14,1,8.07.51,4c.17,1.35.25,2.69.38,4L513.83,858v-.1l0,.27,0-.17.06,19.84,0,10,0,10v3.47h3.48l77.6-.05h3.42V886.07Zm-8.23,5-63.58-.43-3.63,0h-1.31L520.8,874c-.18-2-.32-4.12-.43-6.18-.1-1.66-.15-3.32-.23-5l-.08-3.43-.09-1.77-.05-1.09h0l-5.77-63.77-2.77-32.44L510,744.12l-1.29-16.22c-.11-1.36-.18-2.72-.35-4.06l-.48-4.05-1-8.08L505,695.54l-3.68-32.35c-2.35-21.59-4.71-43.17-6.72-64.8l-.27-2.81H480.64l-.27,2.81c-2,21.63-4.37,43.21-6.72,64.8L470,695.54l-1.9,16.17-1,8.08-.48,4.05c-.17,1.34-.24,2.7-.35,4.06L465,744.12l-1.37,16.23-2.77,32.44-5.77,63.77h0l-.05,1.09-.09,1.77-.08,3.43c-.08,1.66-.13,3.32-.23,5-.11,2.06-.25,4.13-.43,6.18l-.84,16.58h-1.31l-3.63,0-63.59.43-.8-2.92,30.87-12.42,1.15-.47.48-1L423.36,859l1.57-3.49-6.16-.1c.57-24.88,1.18-49.76,1.65-74.65l.78-38.57.2-9.65c.07-3.22.08-6.43.23-9.65l.76-19.27,2.91-77.07c.34-12.86,1.27-25.68,2-38.52.4-6.4.73-12.83,1.07-19.23l1-19V550l0-.69,0,.56,2.34-19.19,2.15-19.36L436,491.93l2.24-19.35,0-.32V472l-.49-16.76c-.16-5.59-.35-11.18-.48-16.77l-.39-16.76L436.57,405l-.06-3.14H427.9l-.3,2.87c-.4,4.31-.83,8.63-1.26,13s-.84,8.64-1.32,13l-2.76,25.91c-.11,1.09-.25,2.15-.36,3.25l-.27,3.28-.56,6.49-1.1,13-1.12,13-1.18,13c-1.59,17.28-3.1,34.57-4.81,51.85l-2.53,25.91-1.87,18.27h-3.77L394.53,577.6l5.16-18.73.84-3.06h-6.95v0l.37-37.42,0-2.47v0c.11-9.88.34-19.75.57-29.62l.39-18c.07-3,.15-6,.17-8.94s.28-5.8.61-8.66.82-5.73,1.44-8.56l.47-2.12.54-2.13c.39-1.48.67-2.94,1-4.4L403.08,416c2.59-11.72,5.29-23.41,7.94-35.12l2-8.79c.16-.77.32-1.34.48-2s.36-1.26.57-1.88a38.18,38.18,0,0,1,1.4-3.65,38.58,38.58,0,0,1,4-6.75c.77-1,1.6-2,2.47-3,.45-.47.88-.95,1.35-1.4l.7-.67.79-.72.77-.7.68-.58c.47-.4,1-.79,1.53-1.19,1.06-.8,2.18-1.55,3.34-2.29a70.09,70.09,0,0,1,7.23-4A89.19,89.19,0,0,1,454,337.54,113.11,113.11,0,0,1,481.6,334h11.24A112.76,112.76,0,0,1,521,337.54a89.19,89.19,0,0,1,15.71,5.69,70.09,70.09,0,0,1,7.23,4c1.15.74,2.28,1.49,3.34,2.29.53.4,1.06.79,1.53,1.19l.68.58.77.7.79.72.7.67c.47.45.9.93,1.35,1.4.87,1,1.7,2,2.47,3a37.92,37.92,0,0,1,3.94,6.75,35.74,35.74,0,0,1,1.41,3.65c.21.62.39,1.26.57,1.88s.32,1.23.48,2l2,8.79c2.65,11.71,5.35,23.4,7.94,35.12l3.89,17.56c.35,1.46.63,2.92,1,4.4l.54,2.13.47,2.12c.62,2.83,1.09,5.67,1.44,8.56s.54,5.75.61,8.66.1,5.95.17,8.94l.39,18c.23,9.87.46,19.74.57,29.62v0l0,2.47.37,37.42v0h-6.95l.84,3.06,5.15,18.73-10.15,26.88h-3.77l-1.87-18.27-2.53-25.91c-1.71-17.28-3.22-34.57-4.81-51.85l-1.18-13-1.12-13-1.1-13-.56-6.49-.27-3.28c-.11-1.1-.25-2.16-.36-3.25L550,430.62c-.48-4.32-.88-8.64-1.32-13s-.86-8.64-1.26-13l-.3-2.87h-8.61l-.06,3.14-.29,16.77-.39,16.76c-.13,5.59-.32,11.18-.48,16.77L536.78,472v.22l0,.32,2.24,19.35,2.09,19.36,2.15,19.36,2.34,19.19,0-.56,0,.69v-.13l1,19c.33,6.4.67,12.83,1.07,19.23.72,12.84,1.66,25.66,2,38.52l2.91,77.07.76,19.27c.15,3.22.16,6.43.23,9.65l.2,9.65.78,38.57c.47,24.89,1.08,49.77,1.65,74.65l-6.16.1,1.57,3.49,6.83,15.18.48,1,1.15.47L591,888.14Z"/><polygon class="cls-1" points="433.11 471.9 433.1 472.14 433.1 472.03 433.11 471.9"/></svg>