<svg id="Capa_1" data-name="Capa 1" xmlns="http://www.w3.org/2000/svg" viewBox="0 0 1300 1000"><defs><style>.cls-1{fill:#fff;}</style></defs><title>2-landmarks-expand</title><path class="cls-1" d="M523.12,244.53c0,.5-.09,1-.15,1.51l-.26,1.58c-.14.88-.34,1.77-.53,2.63s-.4,1.79-.54,2.7l-3.91,20.5-.16.57a18.18,18.18,0,0,1-12.26,12.45c-.78.23-1.69.43-2.3.56s-1.58.29-2.44.4a37.06,37.06,0,0,1-4.51.29,36.62,36.62,0,0,1-4.49-.28c-.87-.12-1.69-.26-2.44-.41s-1.52-.33-2.31-.56a17.79,17.79,0,0,1-4.16-1.85,18.21,18.21,0,0,1-6.34-6.42,17.45,17.45,0,0,1-1.76-4.19l-.15-.5L470.5,253c-.16-.92-.36-1.83-.55-2.71s-.38-1.75-.53-2.64l-.25-1.56c-.06-.51-.12-1-.16-1.52a28,28,0,0,1-.05-3c.05-.4.08-.82.12-1.22,0-.64.09-1.24.18-1.82l.43-2.26c0-.15.08-.28.12-.42l.09-.29a27.14,27.14,0,0,1,5.54-10.45,26.08,26.08,0,0,1,9.38-6.88,25.67,25.67,0,0,1,9.64-2.13l1.42,0h1l.57,0a25.39,25.39,0,0,1,9.89,2.13,26,26,0,0,1,9.38,6.89,27.16,27.16,0,0,1,5.55,10.45c0,.09,0,.19.08.28a3.17,3.17,0,0,1,.12.41l.43,2.25c.09.6.14,1.21.19,1.84,0,.4.07.82.11,1.19C523.2,242.45,523.19,243.47,523.12,244.53Z"/><path class="cls-1" d="M582.05,544.44l-.65,33-6.67,1.81L557.26,552l-.12-23.25h0v-3.17l-3.19.2-6,.36L529,479l1.62-51.59-2.19-44.13,1.23,4.17,6.93,23.51c.59,2,1.12,3.94,1.77,5.87l1.92,5.84,3.85,11.67L559.6,481c2.52,7.79,5.1,15.56,7.56,23.37s4.9,15.62,7.32,23.45l0,.17.1.17c.78,1.42,1.55,2.84,2.29,4.29s1.44,2.9,2.11,4.38,1.29,3,1.9,4.5C581.32,542.33,581.71,543.37,582.05,544.44Z"/><path class="cls-1" d="M474.49,602.89l-8.07,28.92L457.32,664l-18.2,64.27-.06.21a13.82,13.82,0,0,1-.76,2.36l0,.07-.06.16-22.43,62.49-11.23,31.27L393.84,854.3h0l-.83,2.23,9.41,19.36,0,.07.08,0,32.61,13.31-.71,1.79-36.3-.7L357.12,875.6l10.06-37.19-5.75-2.95,1.34-4.9,7-23.37,8.75-30.34L396,716.17l0-.15,0-.15,15.35-87.28L419.05,585l5.14-30.2,25.15,27Z"/><path class="cls-1" d="M588.77,801l-1.16-.47-.47-1-6.74-15-.47-.92-.25-.5.06-.64.68-8.66.75-8.66,1.51-17.3,3.3-34.57c1.12-11.52,2.38-23,3.57-34.55l1.82-17.27.22-2.15.11-1.09,0-.87a14.22,14.22,0,0,0-.14-3.45,16.47,16.47,0,0,0-.87-3.31A16.91,16.91,0,0,0,590,649l-1-1.84-16.87-30.35-8.43-15.17-8.33-15.23-16.59-30.49c-5.44-10.21-11-20.38-16.33-30.64l-.38-.74v-.65l.33-47.57h.05l0-2.75.1.29-.13-11,.17,0-.17-.42-1-92.2v0c-.09-.72-2.27-16.76-4.14-24.47-.52-1.76-1.05-3.51-1.57-5.26l-.1-.33a34.3,34.3,0,0,0-3.24-7.6,30.08,30.08,0,0,0-5.15-6.4,30.73,30.73,0,0,0-6.6-4.72c-1.17-.67-2.43-1.15-3.64-1.7s-2.5-.91-3.79-1.22a33,33,0,0,0-7.84-1.15,34.45,34.45,0,0,0-7.91.57,32.92,32.92,0,0,0-14.49,6.66c-.51.46-1.08.86-1.55,1.35s-1,.95-1.46,1.45l-1.36,1.54-1.24,1.66c-.39.57-.73,1.15-1.12,1.73s-.69,1.26-1,1.89l-2.31,4.22-9.05,16.69c-6,11.16-12.06,22.29-17.9,33.52-2.93,5.61-5.86,11.22-8.73,16.85s-5.72,11.28-8.44,16.94l-1,2.12-.26.54c0,.11-.11.24-.17.38s-.23.64-.36,1l-.74,2.26-.69,2.28-2.69,9.1-5.4,18.2c-7,23.63-14.05,47.28-20.92,71l5.44,1.13,3,.64-1.78,2.78h0L374.09,548l-1.89,32.4,6.54,2.47,19.69-25.69c.09-1.39.21-2.77.31-4.15l.49-5c.14-1.68.36-3.34.53-5l.62-5,.05-.45.09-.25,8.13-22.43,8.16-22.41L425,470l8.34-22.34,52.49-68.36h2.61l-22.33,40-27.33,30.6c-1.31,4.89-2.46,9.8-3.5,14.73-.59,2.72-1.13,5.45-1.67,8.17-.67,3.44-1.31,6.89-2,10.32-.6,3.09-1.17,6.19-1.72,9.28-.66,3.36-1.33,6.72-2.06,10.07-1,4.94-2.17,9.84-3.23,14.77a49.09,49.09,0,0,0-1.17,7.43c-.09,1.25-.06,2.5-.06,3.77s.14,2.51.32,3.75a42,42,0,0,0,2.18,9c.12.35.26.69.4,1.05h0a44.56,44.56,0,0,0,11,16.24l22,20.74c14.61,13.87,29.37,27.55,44.07,41.32l11,10.31,11.11,10.24,22.2,20.49.43.4,0,.61-5.8,117.92,2.92,0,2.18,0,1.95,24.72.25,2.37h0l.65,8.2,1.31,0h3.63l63.67.43.82-2.92Zm-158-269.53s0,0,0,0h0Z"/><polygon points="528.78 523.73 528.32 522.02 528.76 522.85 528.78 523.73"/><polygon points="583.8 782.17 583.79 782.31 583.73 782.88 583.61 782.21 583.53 781.77 583.8 782.17"/><path d="M627.11,811.33V809l-2.18-.85c-2.81-1.11-5.65-2.16-8.48-3.23L608,801.7l-16.07-6.06L584.79,784l0,0-1-1.61-.06.56-.13-.66-.07-.45.27.4,3.64-33.82,3.88-34.5,4-34.49,2-17.24.26-2.16.13-1.07.07-1.18a21.05,21.05,0,0,0-.13-4.76,21.9,21.9,0,0,0-1.2-4.63,19.37,19.37,0,0,0-1-2.2l-1-1.94-33.19-61-16.57-30.53-16-29.8,0,.89-.46-1.71.43.82L528,496.46l-.2-6.77-.08-1.32,0,.14.52,1.45,14.51,40.41.85,2.38,2.46-.19h0l4.82-.36.3,20.69v.76l.4.74h0l17.33,32,1.66,3,3.41-1h0l12.35-4,3-1-.09-2.84h0L588.1,544.2l0-.75-.27-.44h0c-.88-1.36-1.71-2.76-2.57-4.14l-2.48-4.16c-.85-1.39-1.63-2.81-2.45-4.2L578,526.44l.07.23-.16-.39.09.16-14.39-46.69-14.32-47L545.68,421l-1.79-5.86c-.61-2-1.11-3.95-1.66-5.92l-6.5-23.72Q531.29,369.28,527,353q-1.49-5.53-2.92-11.09c-.35-1.29-.69-2.59-1-3.89l.07.24a44.42,44.42,0,0,0-3.66-9.64l-1.27-2.26c-.44-.74-1-1.45-1.42-2.17a24.55,24.55,0,0,0-1.52-2.11c-.54-.69-1.05-1.4-1.65-2a40.33,40.33,0,0,0-7.77-7.09,42.38,42.38,0,0,0-4.55-2.8,40,40,0,0,0-5-2.08l-1.28-.43c-.42-.14-.87-.23-1.3-.35-.87-.2-1.75-.47-2.63-.61l-2.68-.37c-.89-.14-1.79-.13-2.68-.19A38.25,38.25,0,0,0,475,307.25a40.13,40.13,0,0,0-18.15,10.67c-.59.64-1.22,1.25-1.78,1.91s-1.15,1.32-1.68,2l-1.55,2.1-1.43,2.15c-.45.75-.86,1.51-1.28,2.26s-.76,1.5-1.14,2.26l-2.12,4.21-8.53,17-17.14,34q-4.24,8.5-8.45,17.05c-2.8,5.7-5.56,11.41-8.22,17.22l-1,2.18-.25.54c-.11.25-.2.48-.28.71-.16.43-.3.83-.42,1.23l-.72,2.27-.64,2.29-2.54,9.17-5.08,18.34-20.33,73.34-.56,2,1.94.43h0l4.84,1-9.73,11.82-.37.46-.13.9h0l-4.72,36.07-.42,3.21,3.28,1.25h0l12.22,4.34,3.1,1.1,1.79-2.58L403.84,560l.48-.69,0-.65h0l.46-5,.52-5c.17-1.67.37-3.34.56-5l.53-4.64-.09.25.13-.61,0,.36,15.81-44.71,5.47-15.48c-.29,1.2-.57,2.4-.86,3.59l-2.22,9L422,501.48c-1.25,4.89-2.56,9.76-3.78,14.66l-.47,1.89c-.16.7-.3,1.41-.42,2.12-.24,1.43-.41,2.86-.52,4.3s-.08,2.88-.08,4.34.16,2.88.34,4.32a47,47,0,0,0,1.45,7l-6.95,43.46-7.17,43.72L390,714.68l.06-.19-.07.3v-.11l-16.58,60.73-8.32,30.47-7,25.14h0l-1.87,6.75,5.8,2.78-13.36,37.11-.84,2.34,2.25,1.07,45.65,20.12.1,0H396l46.2-.25-.05-16.87-35-13.4-7.67-14.36,10.33-29.65,11.34-31.26L443.72,733a20.94,20.94,0,0,0,1-2.86l19.06-64.29,9.52-32.07,7.63-25.3q9,8.35,18.08,16.7l11.09,10.24,11.21,10.14c7,6.33,13.93,12.64,21,18.89l.08-2.2,1.41,3.53-1.49-1.33L537.54,782.7l-.09,2.46h5l.06,17.88,0,10,0,10v3.47H546l77.71,0h3.44V811.33ZM529.69,387.41l6.93,23.51c.59,2,1.12,3.94,1.77,5.87l1.92,5.84,3.85,11.67L559.6,481c2.52,7.79,5.1,15.56,7.56,23.37s4.9,15.62,7.32,23.45l0,.17.1.17c.78,1.42,1.55,2.84,2.29,4.29s1.44,2.9,2.11,4.38,1.29,3,1.9,4.5c.39,1,.78,2.08,1.12,3.15l-.65,33-6.67,1.81L557.26,552l-.12-23.25h0v-3.17l-3.19.2-6,.36L529,479l1.62-51.59-2.19-44.13Zm-63.27,244.4L457.32,664l-18.2,64.27-.06.21a13.82,13.82,0,0,1-.76,2.36l0,.07-.06.16-22.43,62.49-11.23,31.27L393.84,854.3h0l-.83,2.23,9.41,19.36,0,.07.08,0,32.61,13.31-.71,1.79-36.3-.7L357.12,875.6l10.06-37.19-5.75-2.95,1.34-4.9,7-23.37,8.75-30.34L396,716.17l0-.15,0-.15,15.35-87.28L419.05,585l5.14-30.2,25.15,27,25.15,21.1ZM618.86,816.32l-63.67-.43h-3.63l-1.31,0-.65-8.2-.2-2.38-1.95-24.72-2.18,0-2.92,0,5.8-117.92,0-.61-.43-.4-22.2-20.49-11.11-10.24-11-10.31c-14.7-13.77-29.46-27.45-44.07-41.32l-22-20.74a44.56,44.56,0,0,1-11-16.24h0c-.14-.36-.28-.7-.4-1.05a42,42,0,0,1-2.18-9c-.18-1.24-.26-2.5-.32-3.75s0-2.52.06-3.77a49.09,49.09,0,0,1,1.17-7.43c1.06-4.93,2.22-9.83,3.23-14.77.73-3.35,1.4-6.71,2.06-10.07.55-3.09,1.12-6.19,1.72-9.28.67-3.43,1.31-6.88,2-10.32.54-2.72,1.08-5.45,1.67-8.17,1-4.93,2.19-9.84,3.5-14.73l27.33-30.6,22.33-40h-2.61L433.37,447.7,425,470l-8.22,22.39-8.16,22.41-8.13,22.43-.09.25-.05.45-.62,5c-.17,1.67-.39,3.33-.53,5l-.49,5c-.1,1.38-.22,2.76-.31,4.15l-19.69,25.69-6.54-2.47,1.89-32.4,9.05-14.12h0l1.78-2.78-3-.64-5.44-1.13c6.87-23.7,13.91-47.35,20.92-71l5.4-18.2,2.69-9.1.69-2.28.74-2.26c.13-.35.25-.7.36-1s.13-.27.17-.38l.26-.54,1-2.12c2.72-5.66,5.56-11.31,8.44-16.94s5.8-11.24,8.73-16.85c5.84-11.23,11.88-22.36,17.9-33.52l9.05-16.69,2.31-4.22c.34-.63.65-1.31,1-1.89s.73-1.16,1.12-1.73l1.24-1.66,1.36-1.54c.48-.5,1-1,1.46-1.45s1-.89,1.55-1.35a32.92,32.92,0,0,1,14.49-6.66,34.45,34.45,0,0,1,7.91-.57,33,33,0,0,1,7.84,1.15c1.29.31,2.53.79,3.79,1.22s2.47,1,3.64,1.7a30.73,30.73,0,0,1,6.6,4.72,30.08,30.08,0,0,1,5.15,6.4,34.3,34.3,0,0,1,3.24,7.6l.1.33c.52,1.75,1.05,3.5,1.57,5.26,1.87,7.71,4,23.75,4.14,24.47v0l1,92.2.17.42-.17,0,.13,11-.1-.29,0,2.75h-.05l-.33,47.57v.65l.38.74c5.36,10.26,10.89,20.43,16.33,30.64l16.59,30.49,8.33,15.23,8.43,15.17L589,647.16l1,1.84a16.91,16.91,0,0,1,.7,1.55,16.47,16.47,0,0,1,.87,3.31,14.22,14.22,0,0,1,.14,3.45l0,.87-.11,1.09-.22,2.15-1.82,17.27c-1.19,11.51-2.45,23-3.57,34.55l-3.3,34.57-1.51,17.3-.75,8.66-.68,8.66-.06.64.25.5.47.92,6.74,15,.47,1,1.16.47,30.91,12.44Z"/><polygon points="527.83 489.69 527.75 488.37 527.8 488.51 527.83 489.69"/><path d="M549.65,807.65h0l-.2-2.38Z"/><polygon points="584.77 783.93 583.79 782.31 583.8 782.17 584.77 783.93"/><path d="M543.74,665.78l-1.49-1.33.09-2.2Z"/><polygon points="394.32 713.52 394.26 713.82 394.27 713.7 394.32 713.52"/><path d="M448.17,732.28s0-.11.06-.15l0-.1Z"/><polygon points="382.19 702.92 381.99 703.52 382.05 703.26 382.19 702.92"/><polygon points="417.26 873.63 416.78 873.44 416.96 873.22 417.26 873.63"/><path d="M430.78,531.4v0s0,0,0,0Z"/><path d="M534.59,794.41l-.07,1.75h-.39v-1.74A1.87,1.87,0,0,0,534.59,794.41Z"/><path d="M589,781.69l-.06.57-.13-.67H589Z"/><path d="M530.49,240.2c0-.85,0-1.73-.15-2.6l-.4-2.85c0-.23-.1-.46-.15-.69l-.07-.27a35.15,35.15,0,0,0-6.56-13.92,34.43,34.43,0,0,0-12-9.73,33.84,33.84,0,0,0-30.19,0,34.43,34.43,0,0,0-12,9.73,35.17,35.17,0,0,0-6.56,13.91l-.07.28c0,.23-.11.46-.15.69l-.4,2.85c-.09.87-.12,1.75-.15,2.61,0,.4,0,.81-.05,1.24a33.9,33.9,0,0,0,.25,3.85c.08.69.17,1.31.29,1.91l.37,1.8c.61,3.55,1.33,7.15,2,10.66l2.61,13.3.46,2.21.22.74a25.66,25.66,0,0,0,2.46,5.8,25.29,25.29,0,0,0,14.5,11.43c1.1.34,2.09.55,3,.74s1.91.34,2.91.47a41.91,41.91,0,0,0,10.81,0c1-.13,2-.29,2.92-.47s1.87-.4,3-.74a25.76,25.76,0,0,0,5.72-2.54,25.39,25.39,0,0,0,8.77-8.89,24.79,24.79,0,0,0,2.46-5.8l.23-.78,3.06-15.47c.69-3.48,1.41-7.09,2-10.63l.38-1.83c.1-.59.2-1.22.29-1.91a34,34,0,0,0,.24-3.88C530.52,241,530.5,240.61,530.49,240.2Zm-7.37,4.33c0,.5-.09,1-.15,1.51l-.26,1.58c-.14.88-.34,1.77-.53,2.63s-.4,1.79-.54,2.7l-3.91,20.5-.16.57a18.18,18.18,0,0,1-12.26,12.45c-.78.23-1.69.43-2.3.56s-1.58.29-2.44.4a37.06,37.06,0,0,1-4.51.29,36.62,36.62,0,0,1-4.49-.28c-.87-.12-1.69-.26-2.44-.41s-1.52-.33-2.31-.56a17.79,17.79,0,0,1-4.16-1.85,18.21,18.21,0,0,1-6.34-6.42,17.45,17.45,0,0,1-1.76-4.19l-.15-.5L470.5,253c-.16-.92-.36-1.83-.55-2.71s-.38-1.75-.53-2.64l-.25-1.56c-.06-.51-.12-1-.16-1.52a28,28,0,0,1-.05-3c.05-.4.08-.82.12-1.22,0-.64.09-1.24.18-1.82l.43-2.26c0-.15.08-.28.12-.42l.09-.29a27.14,27.14,0,0,1,5.54-10.45,26.08,26.08,0,0,1,9.38-6.88,25.67,25.67,0,0,1,9.64-2.13l1.42,0h1l.57,0a25.39,25.39,0,0,1,9.89,2.13,26,26,0,0,1,9.38,6.89,27.16,27.16,0,0,1,5.55,10.45c0,.09,0,.19.08.28a3.17,3.17,0,0,1,.12.41l.43,2.25c.09.6.14,1.21.19,1.84,0,.4.07.82.11,1.19C523.2,242.45,523.19,243.47,523.12,244.53Z"/></svg>