<svg id="Capa_1" data-name="Capa 1" xmlns="http://www.w3.org/2000/svg" viewBox="0 0 1300 1000"><defs><style>.cls-1{fill:#fff;}</style></defs><title>2-landmarks-expand</title><path class="cls-1" d="M964.76,500.15l-2,5.42-31.7-.51L913,493.68h0l-2.32-1.46-1.27,2.28-1.48,2.64L847.7,470.85l-5-2.18-4.41-1.92c-1.46-.66-3.12-1.31-4.19-1.92a16.53,16.53,0,0,1-3.27-2.43,16.29,16.29,0,0,1-2.58-3.16c-.18-.29-.35-.59-.5-.88s-.17-.31-.26-.51l-.28-.53-1.11-2.18-3.7-7.3h0l-23.11-47.09h-8.62l0,3.15-.29,16.78-.4,16.76c-.12,5.6-.31,11.19-.47,16.79L789,471v.22l0,.32,2.24,19.36,2.1,19.38,2.16,19.37,2.33,19.21,1,19c.34,6.42.67,12.85,1.07,19.26.73,12.84,1.66,25.68,2,38.54l2.91,77.14.75,19.28c.15,3.22.16,6.44.25,9.66l.2,9.65.76,38.61c.48,24.9,1.09,49.8,1.66,74.69l-6.17.1,1.58,3.5,6.83,15.19.49,1,1.15.47,30.89,12.44-.82,2.91-63.63-.42-3.62,0h-1.32l-.83-16.6c-.18-2.06-.33-4.13-.44-6.19-.1-1.66-.15-3.31-.23-5l-.07-3.43-.09-1.77-.06-1.09h0L766.32,792l-2.77-32.47-1.38-16.23L760.89,727c-.12-1.36-.19-2.72-.35-4.06l-.48-4.06-1-8.08-1.9-16.19-3.67-32.37c-2.35-21.6-4.72-43.2-6.73-64.84l-.27-2.82H732.79l-.28,2.82c-2,21.64-4.37,43.24-6.72,64.84l-3.68,32.37-1.9,16.19-1,8.08-.48,4.06c-.17,1.34-.23,2.7-.35,4.06l-1.29,16.24-1.37,16.23L713,792l-5.76,63.82h0l-.06,1.09-.09,1.77L707,862.1c-.07,1.67-.13,3.32-.23,5-.11,2.06-.25,4.13-.43,6.19l-.83,16.6h-1.32l-3.63,0-63.63.42-.81-2.91L667,875l1.15-.47.48-1,6.84-15.19,1.57-3.5-6.17-.1c.58-24.89,1.19-49.79,1.66-74.69l.77-38.61.2-9.65c.09-3.22.1-6.44.24-9.66l.76-19.28,2.91-77.14c.35-12.86,1.28-25.7,2-38.54.4-6.41.73-12.84,1.06-19.26l1-19,2.34-19.21L686,510.27l2.1-19.38,2.23-19.36,0-.32V471l-.49-16.77c-.16-5.6-.35-11.19-.48-16.79L689,420.67l-.29-16.78-.06-3.15H680l-7.35,25.19,0,.13-10.3,33.6-.16.48,0,.54h0l4.39,81.59.1,1.9-.81,5.74-1.79,12.46-16.81,16L643,582.44l-2.07,2-3.16-1.91,6.2-14.77,5.42-12.89,4-9.61.06-.14,1-2.45h-6.35l-2.25-13.84-1.49-9.15-2.51-16.3-1.26-8.17-3.76-24.46L635,458.5l-.45-3a16.69,16.69,0,0,1-.09-2.64,16.24,16.24,0,0,1,1.14-5.09l.09-.34c4.49-12,8.92-24,13.43-36q1.15-3.09,2.32-6.17l7.94-21,4-10.51,2-5.25,1-2.61.24-.64.23-.58c.15-.38.31-.74.48-1.11a35,35,0,0,1,5.17-8.23,41.68,41.68,0,0,1,3.36-3.54c.28-.27.67-.6,1-.89l.49-.46.43-.36c.19-.17.42-.36.66-.55l.2-.14,0,0c.38-.31.79-.61,1.21-.93,1.06-.8,2.18-1.56,3.33-2.29a71.3,71.3,0,0,1,7.24-4,90.13,90.13,0,0,1,15.72-5.7,113,113,0,0,1,28.2-3.54c.49,0,1,0,1.49,0h7.72c.49,0,1,0,1.49,0a113,113,0,0,1,28.2,3.54,90.33,90.33,0,0,1,15.71,5.7,69.22,69.22,0,0,1,7.24,4c1,.61,1.89,1.23,2.78,1.88,0,0,0,0,.05,0,.29.2.59.41.88.63a12,12,0,0,1,1,.73c.31.24.66.5.92.73.48.4,1.43,1.23,1.94,1.7a36.82,36.82,0,0,1,3.4,3.55,37.53,37.53,0,0,1,2.91,4c.44.7.86,1.42,1.27,2.14.19.38.37.71.57,1.12s.4.83.63,1.25l20.63,40.37,5,9.66,5.37,10.51,10.22,20.21.45.89.83.4L922,478.07l.33.17.4,0,17.17,1.83Z"/><path class="cls-1" d="M766.53,260.89c0,.51-.09,1-.15,1.51l-.26,1.58c-.14.88-.33,1.78-.53,2.64s-.39,1.8-.54,2.7l-3.91,20.54-.17.57a18.16,18.16,0,0,1-1.74,4.19,18.52,18.52,0,0,1-6.35,6.43,18.76,18.76,0,0,1-4.18,1.85c-.79.23-1.69.43-2.31.55s-1.58.29-2.44.41a36.46,36.46,0,0,1-9,0c-.87-.12-1.67-.25-2.44-.41s-1.52-.32-2.3-.55a18,18,0,0,1-12.29-12.48l-.15-.52-3.91-20.57c-.16-.91-.36-1.83-.56-2.71s-.38-1.76-.53-2.64l-.25-1.57c-.06-.51-.12-1-.16-1.52-.07-1.06-.08-2.09-.05-3,.05-.41.08-.82.12-1.23.05-.64.1-1.24.18-1.81l.44-2.28a3.25,3.25,0,0,1,.11-.42l.09-.28a27.19,27.19,0,0,1,5.56-10.47,26.14,26.14,0,0,1,19.05-9l1.41,0h1l.57,0a25.68,25.68,0,0,1,9.91,2.14,26.06,26.06,0,0,1,9.4,6.89,27.14,27.14,0,0,1,5.55,10.48,2.76,2.76,0,0,1,.08.27,3.84,3.84,0,0,1,.13.41l.43,2.26c.09.6.13,1.2.18,1.84,0,.41.07.82.12,1.19A28.72,28.72,0,0,1,766.53,260.89Z"/><path d="M972.7,495.58l-30.32-20-.65-.43-.63,0h0l-17.7-.8-65.14-33-9.17-19.64-9.65-20.45-19.32-40.87c-.2-.42-.39-.86-.59-1.3s-.44-.91-.65-1.35c-.46-.9-.93-1.8-1.45-2.68a44.8,44.8,0,0,0-3.4-5,46.67,46.67,0,0,0-4-4.52c-.77-.76-1.35-1.28-2.16-2s-1.54-1.34-2.34-1.94a75.44,75.44,0,0,0-9.9-6.43l-2.33-1.19-.28-.14-.42-.22-.57-.28a.88.88,0,0,0-.21-.12A100.32,100.32,0,0,0,776,326.89a129.31,129.31,0,0,0-72.74,0,100.32,100.32,0,0,0-15.77,6.26,1.19,1.19,0,0,0-.22.12c-.42.21-.85.42-1.26.64l-2,1.1a73.19,73.19,0,0,0-9.9,6.52c-.38.29-.77.61-1.15.94s-.76.64-1.15,1l-.57.52-.51.5c-.35.33-.69.64-1.05,1a49.84,49.84,0,0,0-4,4.49,43.68,43.68,0,0,0-6,10.39L630.1,446l.1-.32a21.88,21.88,0,0,0-1.36,6.94,21,21,0,0,0,.19,3.54c.18,1.07.36,2.05.53,3.08l2.14,12.21,8.56,48.84,1.63,9,2.79,15.39.32,1.75.75,0,1,0,2,0-3,5.56L642,558.71l-13.28,24.17h0l-1.42,2.49,15.11,9.79,2.19-2.38,1-1.1,4.78-5.18L663.71,572l5.46-5.91h0l.75-.87.07-.61,2.34-20.15h0l0-.13v-.08h0L670,504.53l-2.56-43.75,9.81-32.73,6.49-21.64.23,13.11v.54L685.2,471l0-.14,0,.24V471l-10.35,77.1v.2l-2.29,38.49-1.16,19.29-.28,4.83c-.08,1.6-.11,3.21-.17,4.82l-.3,9.66L669.41,664l-1.08,38.62L667.78,722c-.11,3.22-.1,6.43-.15,9.65l-.08,9.67-.38,38.62-.64,77.28v1.69h1.65l2.25,0-6.58,10.82-16,6.06-8.48,3.21c-2.83,1.07-5.67,2.12-8.48,3.23l-2.17.84v17.46h3.43l77.65,0h3.49V897l0-10,0-10,.06-19.85,0,.17,0-.28v.11l11.28-129.58c.13-1.35.21-2.69.38-4l.51-4,1-8.08,2-16.15,4.11-32.3,7-54.89,7,54.89,4.11,32.3,2,16.15,1,8.08.51,4c.17,1.35.25,2.69.38,4L766,857.22v-.11l0,.28,0-.17.06,19.85,0,10,0,10v3.48h3.48l77.66,0h3.42V883l-2.16-.84c-2.82-1.11-5.65-2.16-8.48-3.23l-8.48-3.21-16-6.06-6.58-10.82,2.25,0h1.65v-1.69l-.64-77.28-.39-38.62-.08-9.67c0-3.22,0-6.43-.15-9.65L811,702.63,809.89,664l-1.23-38.63-.3-9.66c-.06-1.61-.09-3.22-.17-4.82l-.29-4.83-1.15-19.29-2.3-38.49v-.2L794.09,471v.1l0-.24,0,.14,1.19-50.93v-.54l.24-13.1v0l8,16.37,5.74,11.5,3,6,8.71,17.49L822,460c.2.39.34.7.58,1.13s.45.82.69,1.22a21.61,21.61,0,0,0,3.5,4.36,22.29,22.29,0,0,0,4.49,3.3,22.86,22.86,0,0,0,2.44,1.16l2.24,1,5.85,2.52,4.86,2.11,25.17,10.87,17.94,7.74,18,7.66,2.62,1.12,1.21-2.38h0l1-1.94,15.9,10.95.62.44.81,0,36.21,2.79,2.48.19.9-2.43,4.52-12.1,1-2.62Zm-9.91,10-31.7-.51L913,493.68h0l-2.32-1.46-1.27,2.28-1.48,2.64L847.7,470.85l-5-2.18-4.41-1.92c-1.46-.66-3.12-1.31-4.19-1.92a16.53,16.53,0,0,1-3.27-2.43,16.29,16.29,0,0,1-2.58-3.16c-.18-.29-.35-.59-.5-.88s-.17-.31-.26-.51l-.28-.53-1.11-2.18-3.7-7.3h0l-23.11-47.09h-8.62l0,3.15-.29,16.78-.4,16.76c-.12,5.6-.31,11.19-.47,16.79L789,471v.22l0,.32,2.24,19.36,2.1,19.38,2.16,19.37,2.33,19.21,0-.56.05.69,0-.13,1,19c.34,6.42.67,12.85,1.07,19.26.73,12.84,1.66,25.68,2,38.54l2.91,77.14.75,19.28c.15,3.22.16,6.44.25,9.66l.2,9.65.76,38.61c.48,24.9,1.09,49.8,1.66,74.69l-6.17.1,1.58,3.5,6.83,15.19.49,1,1.15.47,30.89,12.44-.82,2.91-63.63-.42-3.62,0h-1.32l-.83-16.6c-.18-2.06-.33-4.13-.44-6.19-.1-1.66-.15-3.31-.23-5l-.07-3.43-.09-1.77-.06-1.09h0L766.32,792l-2.77-32.47-1.38-16.23L760.89,727c-.12-1.36-.19-2.72-.35-4.06l-.48-4.06-1-8.08-1.9-16.19-3.67-32.37c-2.35-21.6-4.72-43.2-6.73-64.84l-.27-2.82H732.79l-.28,2.82c-2,21.64-4.37,43.24-6.72,64.84l-3.68,32.37-1.9,16.19-1,8.08-.48,4.06c-.17,1.34-.23,2.7-.35,4.06l-1.29,16.24-1.37,16.23L713,792l-5.76,63.82h0l-.06,1.09-.09,1.77L707,862.1c-.07,1.67-.13,3.32-.23,5-.11,2.06-.25,4.13-.43,6.19l-.83,16.6h-1.32l-3.63,0-63.63.42-.81-2.91L667,875l1.15-.47.48-1,6.84-15.19,1.57-3.5-6.17-.1c.58-24.89,1.19-49.79,1.66-74.69l.77-38.61.2-9.65c.09-3.22.1-6.44.24-9.66l.76-19.28,2.91-77.14c.35-12.86,1.28-25.7,2-38.54.4-6.41.73-12.84,1.06-19.26l1-19V549l0-.69,0,.56,2.34-19.21L686,510.27l2.1-19.38,2.23-19.36,0-.32V471l-.49-16.77c-.16-5.6-.35-11.19-.48-16.79L689,420.67l-.29-16.78-.06-3.15H680l-7.35,25.19,0,.13-10.3,33.6-.16.48,0,.54h0l4.39,81.59.1,1.9-.81,5.74-1.79,12.46-16.81,16L643,582.44l-2.07,2-3.16-1.91,6.2-14.77,5.42-12.89,4-9.61.06-.14,1-2.45h-6.35l-2.25-13.84-1.49-9.15-2.51-16.3-1.26-8.17-3.76-24.46L635,458.5l-.45-3a16.69,16.69,0,0,1-.09-2.64,16.24,16.24,0,0,1,1.14-5.09l.09-.34c4.49-12,8.92-24,13.43-36q1.15-3.09,2.32-6.17l7.94-21,4-10.51,2-5.25,1-2.61.24-.64.23-.58c.15-.38.31-.74.48-1.11a35,35,0,0,1,5.17-8.23,41.68,41.68,0,0,1,3.36-3.54c.28-.27.67-.6,1-.89l.49-.46.43-.36c.19-.17.42-.36.66-.55l.2-.14,0,0c.38-.31.79-.61,1.21-.93,1.06-.8,2.18-1.56,3.33-2.29a71.3,71.3,0,0,1,7.24-4,90.13,90.13,0,0,1,15.72-5.7,113,113,0,0,1,28.2-3.54c.49,0,1,0,1.49,0h7.72c.49,0,1,0,1.49,0a113,113,0,0,1,28.2,3.54,90.33,90.33,0,0,1,15.71,5.7,69.22,69.22,0,0,1,7.24,4c1,.61,1.89,1.23,2.78,1.88,0,0,0,0,.05,0,.29.2.59.41.88.63a12,12,0,0,1,1,.73c.31.24.66.5.92.73.48.4,1.43,1.23,1.94,1.7a36.82,36.82,0,0,1,3.4,3.55,37.53,37.53,0,0,1,2.91,4c.44.7.86,1.42,1.27,2.14.19.38.37.71.57,1.12s.4.83.63,1.25l20.63,40.37,5,9.66,5.37,10.51,10.22,20.21.45.89.83.4L922,478.07l.33.17.4,0,17.17,1.83,24.86,20Z"/><path d="M773.92,256.56c0-.85-.06-1.74-.15-2.61l-.41-2.86a5.15,5.15,0,0,0-.15-.68l-.07-.28a35.09,35.09,0,0,0-6.56-13.94,34.62,34.62,0,0,0-12-9.74,35.9,35.9,0,0,0-7.34-2.67,31.69,31.69,0,0,0-15.56,0,35.9,35.9,0,0,0-7.34,2.67,34.48,34.48,0,0,0-12,9.73,35.11,35.11,0,0,0-6.57,13.94l-.07.29a4.82,4.82,0,0,0-.15.68l-.4,2.86c-.1.87-.13,1.76-.16,2.61,0,.41,0,.81-.05,1.25a36.49,36.49,0,0,0,.24,3.85c.09.7.19,1.32.3,1.92l.37,1.8c.62,3.57,1.33,7.18,2,10.68l2.61,13.31.46,2.21.22.75a25.86,25.86,0,0,0,2.46,5.8,25.34,25.34,0,0,0,8.79,8.91,25.74,25.74,0,0,0,5.74,2.55c1.1.33,2.08.54,3,.73s1.92.35,2.92.48a42,42,0,0,0,10.82,0c1-.13,2-.3,2.92-.48s1.88-.4,3-.73a25.59,25.59,0,0,0,5.72-2.55,25.22,25.22,0,0,0,11.26-14.71l.22-.79L771.05,276c.68-3.48,1.4-7.08,2-10.61l.37-1.82c.11-.6.21-1.23.29-1.92a34.15,34.15,0,0,0,.25-3.89C773.94,257.37,773.94,257,773.92,256.56Zm-7.39,4.33c0,.51-.09,1-.15,1.51l-.26,1.58c-.14.88-.33,1.78-.53,2.64s-.39,1.8-.54,2.7l-3.91,20.54-.17.57a18.16,18.16,0,0,1-1.74,4.19,18.52,18.52,0,0,1-6.35,6.43,18.76,18.76,0,0,1-4.18,1.85c-.79.23-1.69.43-2.31.55s-1.58.29-2.44.41a36.46,36.46,0,0,1-9,0c-.87-.12-1.67-.25-2.44-.41s-1.52-.32-2.3-.55a18,18,0,0,1-12.29-12.48l-.15-.52-3.91-20.57c-.16-.91-.36-1.83-.56-2.71s-.38-1.76-.53-2.64l-.25-1.57c-.06-.51-.12-1-.16-1.52-.07-1.06-.08-2.09-.05-3,.05-.41.08-.82.12-1.23.05-.64.1-1.24.18-1.81l.44-2.28a3.25,3.25,0,0,1,.11-.42l.09-.28a27.19,27.19,0,0,1,5.56-10.47,26.14,26.14,0,0,1,19.05-9l1.41,0h1l.57,0a25.68,25.68,0,0,1,9.91,2.14,26.06,26.06,0,0,1,9.4,6.89,27.14,27.14,0,0,1,5.55,10.48,2.76,2.76,0,0,1,.08.27,3.84,3.84,0,0,1,.13.41l.43,2.26c.09.6.13,1.2.18,1.84,0,.41.07.82.12,1.19A28.72,28.72,0,0,1,766.53,260.89Z"/></svg>