<svg id="Capa_1" data-name="Capa 1" xmlns="http://www.w3.org/2000/svg" viewBox="0 0 1300 1000"><defs><style>.cls-1{fill:#fff;}</style></defs><title>2-landmarks-expand</title><path class="cls-1" d="M870.22,888.15l-.73,2.6,0,.16,0,.15L856.24,891v-4.53l-34.87-14.69L815,860.31l22-150.22,17.73-116.56-1.31,42.14-1.07,37.5-.53,18.74-.27,9.37-.06,2.35a20.56,20.56,0,0,1-.14,2.07l-.61,4.48c-6.66,49.58-13.34,99.18-19.44,148.85l-.09.71.08.13,6.47,14.39.48,1,1.15.46L862.35,885Z"/><path class="cls-1" d="M856.16,547.1c0-.15,0-.3,0-.45a18.14,18.14,0,0,0-.07-2.33l-.17-2.34-1.33-18.72-2.68-37.42-5.32-74.78L844,373.7l-.66-9.35-.33-4.67,0-.56-.07-.42-.14-.82c-.13-.6-.22-1.21-.39-1.8a26.68,26.68,0,0,0-2.69-6.74,26.33,26.33,0,0,0-4.36-5.69,30.95,30.95,0,0,0-11.89-7.24,31.59,31.59,0,0,0-6.84-1.4,39.32,39.32,0,0,0-7.11.1A32,32,0,0,0,795.27,340a25.81,25.81,0,0,0-6,5.43,24.67,24.67,0,0,0-3.81,6.94s-11.65,33.91-16.91,50.83l-7.88,25.38-4,12.67-2,6.34-1,3.12a15.57,15.57,0,0,0-.56,2.78,19.16,19.16,0,0,0-.1,3l0,3.31.08,6.65.14,13.28.28,26.57.56,51.53,4.08.1,1.81.05-.32,1.9-3.22,18.8,8.54,32.08h11l10.43-31.89-6-19.4,4.08-93.31,29.17-65.71h2.59L793,466.93l-6,92.5,7.29,19.49-14.75,40h-9.33L780,704.68l0,.23,0,.23-11.1,152.63h5.26l.35,2.09,5.1,30.73,37.18.14,3,0,29.86.19v-2L815.9,875.7l-7-15L827.67,708.4ZM819.9,890.71l3,0-3,0Z"/><path class="cls-1" d="M846.86,262.05c0,.5-.1,1-.16,1.51l-.25,1.58c-.15.88-.35,1.77-.54,2.63s-.39,1.79-.54,2.7L841.47,291l-.17.57a17.76,17.76,0,0,1-1.75,4.18,18.13,18.13,0,0,1-6.34,6.42A18.59,18.59,0,0,1,829,304c-.77.23-1.68.43-2.29.55-.77.16-1.57.29-2.44.41a37.18,37.18,0,0,1-4.51.29,36.62,36.62,0,0,1-4.49-.29c-.89-.12-1.69-.25-2.45-.41s-1.52-.32-2.3-.55a18.79,18.79,0,0,1-4.18-1.86,17.76,17.76,0,0,1-8.09-10.61l-.15-.51-3.91-20.55c-.16-.92-.36-1.83-.55-2.71s-.39-1.75-.54-2.63l-.25-1.57c-.06-.5-.11-1-.15-1.52a28,28,0,0,1-.05-3c.05-.4.08-.81.11-1.23.05-.62.1-1.22.19-1.8l.43-2.27c0-.15.08-.29.12-.43l.09-.27a27,27,0,0,1,5.54-10.46,25.89,25.89,0,0,1,9.39-6.88,25.59,25.59,0,0,1,9.64-2.14l1.41,0h1l.57,0a25.28,25.28,0,0,1,9.9,2.14,25.76,25.76,0,0,1,9.38,6.88A26.9,26.9,0,0,1,846,253.05l.09.26c0,.14.08.28.11.42l.43,2.26c.1.6.14,1.2.2,1.82,0,.42.06.83.1,1.2A28.35,28.35,0,0,1,846.86,262.05Z"/><path d="M773.93,704.71l0,.37.05.32Zm3.92-354.08-.09.33v.58l.17-1.14Z"/><path d="M877.63,886.08v-2.33l-35.1-13.31-2.16-3.57-4.53-8,5-36.35,5.27-37.07,10.55-74.11.73-4.92c.05-.44.1-.9.13-1.39s0-1,.06-1.38l.07-2.35.33-9.36.65-18.74L860,635.7l2.72-74.94.33-9.36.09-2.34c0-.78,0-1.64,0-2.45a19.06,19.06,0,0,0-.06-2.41l-.15-2.34-1.29-18.75L859,485.63l-2.67-37.45-2.5-37.43c-.77-12.49-1.54-25-2.18-37.45l-.5-9.35-.26-4.68a37.36,37.36,0,0,0-.6-4.72,39.73,39.73,0,0,0-8-17.12,36.16,36.16,0,0,0-35.27-13,37.79,37.79,0,0,0-18.14,8.82,36.79,36.79,0,0,0-11,17.19l-.12.4,0,.16-7.7,24.82-7.67,25.45-7.57,25.48L751,439.45l-1.89,6.37-1,3.24a21.88,21.88,0,0,0-.69,3.78c-.07.63-.1,1.27-.11,1.92,0,.37,0,.64,0,.92l0,.83.1,3.31.19,6.65,1.17,39.86,1.57,53.14.06,2h2l2.93,0-5.11,16.59-.18.59.19.9,7.4,35.55.79,3.76h3.56l11.84,86.17,0-.36,0,.69-.05-.33-9.23,154.64-.13,2.16h5.89l.1,37.3v1.92h1.92l44.36-.07v.17l57.4,0h3.41V886.08Zm-27.9,4.85-29.86-.19-3,0-37.18-.14-5.1-30.73-.35-2.09h-5.26L780,705.14l0-.23,0-.23-9.79-85.78h9.33l14.75-40L787,559.43l6-92.5,23.29-66.52h-2.59l-29.17,65.71-4.08,93.31,6,19.4-10.43,31.89h-11l-8.54-32.08,3.22-18.8.32-1.9-1.81-.05-4.08-.1-.56-51.53-.28-26.57-.14-13.28-.08-6.65,0-3.31a19.16,19.16,0,0,1,.1-3,15.57,15.57,0,0,1,.56-2.78l1-3.12,2-6.34,4-12.67,7.88-25.38c5.26-16.92,16.91-50.83,16.91-50.83a24.67,24.67,0,0,1,3.81-6.94,25.81,25.81,0,0,1,6-5.43,32,32,0,0,1,14.19-4.84,39.32,39.32,0,0,1,7.11-.1,31.59,31.59,0,0,1,6.84,1.4,30.95,30.95,0,0,1,11.89,7.24,26.33,26.33,0,0,1,4.36,5.69,26.68,26.68,0,0,1,2.69,6.74c.17.59.26,1.2.39,1.8l.14.82.07.42,0,.56.33,4.67.66,9.35,2.62,37.36,5.32,74.78,2.68,37.42L855.93,542l.17,2.34a18.14,18.14,0,0,1,.07,2.33c0,.15,0,.3,0,.45L827.67,708.4,808.9,860.67l7,15L849.73,889Zm19.76-.18,0,.16,0,.15L856.24,891v-4.53l-34.87-14.69L815,860.31l22-150.22,17.73-116.56-1.31,42.14-1.07,37.5-.53,18.74-.27,9.37-.06,2.35a20.56,20.56,0,0,1-.14,2.07l-.61,4.48c-6.66,49.58-13.34,99.18-19.44,148.85l-.09.71.08.13,6.47,14.39.48,1,1.15.46L862.35,885l7.87,3.17Z"/><polygon points="769.72 614.16 769.72 614.16 767.88 614.16 769.72 614.16"/><polygon points="822.94 890.74 819.9 890.72 819.9 890.71 822.94 890.74"/><path d="M854.23,257.73c0-.85-.06-1.74-.16-2.61l-.39-2.86c0-.23-.1-.45-.16-.67l-.07-.29a35.08,35.08,0,0,0-6.56-13.92,34.65,34.65,0,0,0-12-9.73A32.72,32.72,0,0,0,812,225a35.38,35.38,0,0,0-7.33,2.65,34.74,34.74,0,0,0-12,9.73,35.21,35.21,0,0,0-6.56,13.92l-.07.29a6.78,6.78,0,0,0-.15.68l-.4,2.85c-.09.87-.12,1.75-.15,2.6,0,.41,0,.82-.05,1.25a30.11,30.11,0,0,0,.25,3.86c.08.68.17,1.31.28,1.91l.37,1.8c.62,3.57,1.33,7.17,2,10.66l2.61,13.3.46,2.21.21.74a25.28,25.28,0,0,0,17,17.24c1.1.33,2.08.55,3,.73s1.91.35,2.92.49a43.05,43.05,0,0,0,10.8,0c1-.14,2-.3,2.92-.49s1.88-.4,3-.73a25.36,25.36,0,0,0,14.51-11.44,25.66,25.66,0,0,0,2.46-5.8l.22-.78,3.07-15.47c.69-3.49,1.4-7.09,2-10.64l.37-1.83c.11-.59.2-1.22.29-1.91a31.82,31.82,0,0,0,.24-3.88C854.26,258.54,854.24,258.13,854.23,257.73Zm-7.37,4.32c0,.5-.1,1-.16,1.51l-.25,1.58c-.15.88-.35,1.77-.54,2.63s-.39,1.79-.54,2.7L841.47,291l-.17.57a17.76,17.76,0,0,1-1.75,4.18,18.13,18.13,0,0,1-6.34,6.42A18.59,18.59,0,0,1,829,304c-.77.23-1.68.43-2.29.55-.77.16-1.57.29-2.44.41a37.18,37.18,0,0,1-4.51.29,36.62,36.62,0,0,1-4.49-.29c-.89-.12-1.69-.25-2.45-.41s-1.52-.32-2.3-.55a18.79,18.79,0,0,1-4.18-1.86,17.76,17.76,0,0,1-8.09-10.61l-.15-.51-3.91-20.55c-.16-.92-.36-1.83-.55-2.71s-.39-1.75-.54-2.63l-.25-1.57c-.06-.5-.11-1-.15-1.52a28,28,0,0,1-.05-3c.05-.4.08-.81.11-1.23.05-.62.1-1.22.19-1.8l.43-2.27c0-.15.08-.29.12-.43l.09-.27a27,27,0,0,1,5.54-10.46,25.89,25.89,0,0,1,9.39-6.88,25.59,25.59,0,0,1,9.64-2.14l1.41,0h1l.57,0a25.28,25.28,0,0,1,9.9,2.14,25.76,25.76,0,0,1,9.38,6.88A26.9,26.9,0,0,1,846,253.05l.09.26c0,.14.08.28.11.42l.43,2.26c.1.6.14,1.2.2,1.82,0,.42.06.83.1,1.2A28.35,28.35,0,0,1,846.86,262.05Z"/></svg>