<svg id="Capa_1" data-name="Capa 1" xmlns="http://www.w3.org/2000/svg" viewBox="0 0 1300 1000"><defs><style>.cls-1{fill:#fff;}</style></defs><title>2-landmarks-expand</title><path class="cls-1" d="M935.19,249.19l1.38.23-1.7,22-1.7,23.68-1.66,23.69-1.26,17.78a15.85,15.85,0,0,1-1.18,4.88,16.63,16.63,0,0,1-6.34,7.51,15,15,0,0,1-2.2,1.17c-.37.16-.76.31-1.15.45s-.86.27-1.32.41l-5.69,1.7-22.75,6.83-18.1,5.42-4.66,1.39-3,.92-19.72,6.08-2.11.65-.81,27.35-.05,3.14L841,417.56v.69l-.06,3L840.49,438c-.12,5.59-.31,11.19-.47,16.78l-.5,16.78v.22l0,.33,2.24,19.36,2.1,19.38,2.16,19.38,2.33,19.22,1,19c.33,6.41.68,12.84,1.08,19.25.72,12.85,1.66,25.69,2,38.56l2.92,77.17.75,19.29c.15,3.22.16,6.44.24,9.65l.2,9.67.77,38.61c.48,24.92,1.08,49.82,1.66,74.73l-6.17.1L854.4,859l6.84,15.21.48,1,1.15.46,30.91,12.44L893,891l-63.65-.42-3.63,0h-1.31L823.53,874c-.18-2.07-.32-4.13-.44-6.2-.1-1.66-.15-3.32-.23-5l-.08-3.44-.09-1.77-.05-1.09h0l-5.77-63.84-2.77-32.48-1.38-16.25-1.29-16.24c-.11-1.36-.18-2.72-.35-4.06l-.48-4.06-1-8.08-1.9-16.2-3.68-32.38c-2.35-21.61-4.71-43.21-6.72-64.87l-.28-2.81H783.33l-.28,2.81c-2,21.66-4.38,43.26-6.72,64.87l-3.69,32.38-1.89,16.2-1,8.08-.48,4.06c-.16,1.34-.23,2.7-.35,4.06l-1.29,16.24-1.37,16.25-2.77,32.48-5.78,63.84h0l-.05,1.09-.09,1.77-.08,3.44c-.07,1.66-.13,3.32-.23,5-.11,2.07-.26,4.13-.43,6.2L756,890.58H754.7l-3.63,0-63.66.42-.81-2.91,30.9-12.44,1.15-.46.49-1L726,859l1.58-3.49-6.17-.1c.57-24.91,1.19-49.81,1.65-74.73l.78-38.61.2-9.67c.08-3.21.09-6.43.24-9.65l.75-19.29,2.92-77.17c.34-12.87,1.28-25.71,2-38.56.4-6.41.74-12.84,1.07-19.25l1-19,2.33-19.22,2.17-19.38,2.09-19.38,2.25-19.36,0-.33v-.22l-.5-16.78c-.16-5.59-.36-11.19-.48-16.78l-.39-16.78-.29-16.79-.05-3.14h-8.63l-7.36,25.19,0,.14-10.3,33.61-.16.48,0,.53h0l4.39,81.62.1,1.89-.81,5.74L714.59,563l-16.82,16L693.48,583l-2.06,2-3.17-1.91,6.21-14.77,5.42-12.9,4-9.61.06-.15,1-2.44h-6.36l-2.25-13.85-1.49-9.15-2.51-16.3-1.25-8.18-3.77-24.47-1.88-12.22-.46-3a17.93,17.93,0,0,1-.1-2.64,16.54,16.54,0,0,1,1.15-5.09l.1-.33c4.49-12,8.92-24.06,13.43-36,.76-2.06,1.54-4.12,2.32-6.18l7.95-21,4-10.51,2-5.25,1-2.62.25-.65.22-.56c.15-.38.31-.76.48-1.12a35,35,0,0,1,5.17-8.23,40.39,40.39,0,0,1,3.37-3.55c.28-.27.67-.6,1-.88l.5-.46.43-.36c.2-.18.42-.36.66-.56a1.37,1.37,0,0,0,.2-.13v0l1.22-.94c1-.79,2.18-1.55,3.33-2.28a69.47,69.47,0,0,1,7.24-4,90.53,90.53,0,0,1,15.73-5.7,109.78,109.78,0,0,1,22.58-3.39h0L827,329.92h.08l5.46-.52,65.3-6.1,2.36-.22.34-2.16,12.29-75.33,1.83.32,2.49.44-.23-2.67-1.76-21.17L929,193.92l5.71.66,6.42,31.22-7.45,20.75-.8,2.27Z"/><path class="cls-1" d="M817.28,261.87c0,.51-.08,1-.14,1.51l-.26,1.59c-.14.87-.34,1.76-.53,2.62s-.4,1.8-.55,2.7l-3.9,20.5-.16.57a18.45,18.45,0,0,1-1.75,4.19,18.27,18.27,0,0,1-6.34,6.41,18.59,18.59,0,0,1-4.18,1.86c-.78.23-1.68.43-2.29.55-.77.16-1.57.29-2.44.41a36.3,36.3,0,0,1-9,0c-.88-.12-1.68-.25-2.45-.41-.61-.12-1.52-.32-2.29-.55a18.79,18.79,0,0,1-4.18-1.86,18.35,18.35,0,0,1-6.34-6.41,18.8,18.8,0,0,1-1.75-4.2l-.14-.5-3.92-20.54c-.15-.92-.35-1.84-.54-2.72s-.39-1.75-.54-2.62l-.25-1.57c-.06-.51-.12-1-.16-1.53-.06-1.05-.08-2.07,0-3,0-.41.08-.81.11-1.23,0-.63.1-1.22.19-1.8l.43-2.27a4.26,4.26,0,0,1,.11-.42l.1-.28a26.67,26.67,0,0,1,5.54-10.45,26.14,26.14,0,0,1,19-9l1.41,0h1l.56,0a25.24,25.24,0,0,1,9.9,2.14,25.85,25.85,0,0,1,9.38,6.88,27.05,27.05,0,0,1,5.55,10.46c0,.08.05.17.07.27a2.8,2.8,0,0,1,.13.41l.43,2.26c.09.6.13,1.19.19,1.82,0,.42.06.82.11,1.19A28.44,28.44,0,0,1,817.28,261.87Z"/><path d="M947.26,226.47l-.12-.89-4.63-36-.37-2.84-2.83-.29-12.86-1.33-2.59-.27-1,2.3-14,33.51-.38.91.16.81,3.7,19-.76-.14-2.06-.37-.39,2.1-13.86,74.66-90.48,3.91-14.59.63-2.3,0-5.14.21h-.2a124.33,124.33,0,0,0-28.74,5A101,101,0,0,0,738,333.66l-.21.12-1.28.64c-.68.36-1.35.73-2,1.11a71.57,71.57,0,0,0-9.9,6.51c-.39.3-.77.62-1.16.94s-.76.64-1.14,1l-.58.52-.5.5c-.35.33-.69.63-1,1a45.69,45.69,0,0,0-4,4.5,43.56,43.56,0,0,0-6,10.39L680.6,446.58l.1-.31a21.5,21.5,0,0,0-1.36,6.94,21,21,0,0,0,.19,3.54c.18,1.07.36,2.05.54,3.07L682.2,472l4.28,24.43,4.29,24.42,1.63,9,2.79,15.4.32,1.75.74,0,1,0,2,0-3.06,5.56-3.73,6.78-13.29,24.17h0L677.74,586l15.13,9.8,2.18-2.38,1-1.1,4.78-5.18,13.39-14.52,5.46-5.92h0l.74-.86.07-.62L722.85,545h0l0-.13v-.08h0l-2.32-39.71L718,461.33l9.81-32.73,6.5-21.65.23,13.11v.54l1.19,50.94,0-.13,0,.24v-.11l-10.34,77.14v.2l-2.3,38.5-1.15,19.31-.29,4.82c-.08,1.6-.11,3.21-.17,4.83l-.3,9.66-1.22,38.65-1.09,38.63-.54,19.32c-.12,3.23-.1,6.45-.15,9.67l-.08,9.67-.39,38.64-.64,77.3v1.7l1.65,0,2.25,0-6.58,10.82-16.05,6.06-8.48,3.21c-2.82,1.07-5.66,2.12-8.47,3.23l-2.18.84v17.47h3.43l77.68.05h3.49v-3.48l0-10,0-10,.06-19.86,0,.17,0-.28v.11L775.11,728.3c.13-1.35.22-2.7.38-4l.51-4,1-8.08L779.09,696l4.1-32.32,7-54.91,7,54.91L801.29,696l2.05,16.15,1,8.08.52,4c.16,1.35.25,2.7.37,4l11.29,129.62v-.11l0,.28,0-.17.06,19.86,0,10,0,10v3.48h3.48l77.68-.05h3.44V883.7l-2.17-.84c-2.82-1.11-5.66-2.16-8.49-3.23l-8.48-3.21-16-6.06-6.57-10.82,2.24,0,1.66,0v-1.7l-.65-77.3-.38-38.64-.09-9.67c0-3.22,0-6.44-.14-9.67l-.54-19.32-1.08-38.63L859.23,626l-.31-9.66c-.06-1.62-.08-3.23-.17-4.83l-.28-4.82-1.15-19.31L855,548.88v-.2l-10.35-77.14v0l1.19-50.94v-.54l0-1.72h0l.65-9.92.46-7.13,1.46-22.39,17.76-5.48,7.46-2.31,17.81-5.51,22.72-7,5.67-1.75,1.51-.48c.54-.2,1.08-.42,1.61-.65a23.24,23.24,0,0,0,3-1.63,22.33,22.33,0,0,0,8.55-10.45,21.59,21.59,0,0,0,1.48-6.62l.32-5.95.64-11.87,1.27-23.75,2.54-47.49.11-2-1.93-.3-.39-.06L947,227.15ZM933.7,246.55l-.8,2.27,2.29.37,1.38.23-1.7,22-1.7,23.68-1.66,23.69-1.26,17.78a15.85,15.85,0,0,1-1.18,4.88,16.63,16.63,0,0,1-6.34,7.51,15,15,0,0,1-2.2,1.17c-.37.16-.76.31-1.15.45s-.86.27-1.32.41l-5.69,1.7-22.75,6.83-18.1,5.42-4.66,1.39-3,.92-19.72,6.08-2.11.65-.81,27.35-.05,3.14L841,417.56v.69l-.06,3L840.49,438c-.12,5.59-.31,11.19-.47,16.78l-.5,16.78v.22l0,.33,2.24,19.36,2.1,19.38,2.16,19.38,2.33,19.22,0-.56,0,.69,0-.13,1,19c.33,6.41.68,12.84,1.08,19.25.72,12.85,1.66,25.69,2,38.56l2.92,77.17.75,19.29c.15,3.22.16,6.44.24,9.65l.2,9.67.77,38.61c.48,24.92,1.08,49.82,1.66,74.73l-6.17.1L854.4,859l6.84,15.21.48,1,1.15.46,30.91,12.44L893,891l-63.65-.42-3.63,0h-1.31L823.53,874c-.18-2.07-.32-4.13-.44-6.2-.1-1.66-.15-3.32-.23-5l-.08-3.44-.09-1.77-.05-1.09h0l-5.77-63.84-2.77-32.48-1.38-16.25-1.29-16.24c-.11-1.36-.18-2.72-.35-4.06l-.48-4.06-1-8.08-1.9-16.2-3.68-32.38c-2.35-21.61-4.71-43.21-6.72-64.87l-.28-2.81H783.33l-.28,2.81c-2,21.66-4.38,43.26-6.72,64.87l-3.69,32.38-1.89,16.2-1,8.08-.48,4.06c-.16,1.34-.23,2.7-.35,4.06l-1.29,16.24-1.37,16.25-2.77,32.48-5.78,63.84h0l-.05,1.09-.09,1.77-.08,3.44c-.07,1.66-.13,3.32-.23,5-.11,2.07-.26,4.13-.43,6.2L756,890.58H754.7l-3.63,0-63.66.42-.81-2.91,30.9-12.44,1.15-.46.49-1L726,859l1.58-3.49-6.17-.1c.57-24.91,1.19-49.81,1.65-74.73l.78-38.61.2-9.67c.08-3.21.09-6.43.24-9.65l.75-19.29,2.92-77.17c.34-12.87,1.28-25.71,2-38.56.4-6.41.74-12.84,1.07-19.25l1-19v.13l0-.69,0,.56,2.33-19.22,2.17-19.38,2.09-19.38,2.25-19.36,0-.33v-.22l-.5-16.78c-.16-5.59-.36-11.19-.48-16.78l-.39-16.78-.29-16.79-.05-3.14h-8.63l-7.36,25.19,0,.14-10.3,33.61-.16.48,0,.53h0l4.39,81.62.1,1.89-.81,5.74L714.59,563l-16.82,16L693.48,583l-2.06,2-3.17-1.91,6.21-14.77,5.42-12.9,4-9.61.06-.15,1-2.44h-6.36l-2.25-13.85-1.49-9.15-2.51-16.3-1.25-8.18-3.77-24.47-1.88-12.22-.46-3a17.93,17.93,0,0,1-.1-2.64,16.54,16.54,0,0,1,1.15-5.09l.1-.33c4.49-12,8.92-24.06,13.43-36,.76-2.06,1.54-4.12,2.32-6.18l7.95-21,4-10.51,2-5.25,1-2.62.25-.65.22-.56c.15-.38.31-.76.48-1.12a35,35,0,0,1,5.17-8.23,40.39,40.39,0,0,1,3.37-3.55c.28-.27.67-.6,1-.88l.5-.46.43-.36c.2-.18.42-.36.66-.56a1.37,1.37,0,0,0,.2-.13v0l1.22-.94c1-.79,2.18-1.55,3.33-2.28a69.47,69.47,0,0,1,7.24-4,90.53,90.53,0,0,1,15.73-5.7,109.78,109.78,0,0,1,22.58-3.39h0L827,329.92h.08l5.46-.52,65.3-6.1,2.36-.22.34-2.16,12.29-75.33,1.83.32,2.49.44-.23-2.67-1.76-21.17L929,193.92l5.71.66,6.42,31.22Z"/><path d="M824.66,257.56c0-.86-.06-1.74-.16-2.61l-.39-2.86c0-.23-.1-.45-.16-.67l-.07-.29A34.81,34.81,0,0,0,798,224.84a33.84,33.84,0,0,0-22.86,2.65,34.66,34.66,0,0,0-18.55,23.64l-.07.29a6.78,6.78,0,0,0-.15.68L756,255c-.09.87-.12,1.76-.15,2.61,0,.4,0,.81-.06,1.24a32.22,32.22,0,0,0,.26,3.86c.08.68.17,1.31.28,1.91l.37,1.79c.62,3.56,1.33,7.17,2,10.66l2.61,13.3.47,2.2.21.75a25.78,25.78,0,0,0,2.46,5.79,25.25,25.25,0,0,0,8.78,8.89,25.79,25.79,0,0,0,5.72,2.55c1.1.33,2.08.54,3,.73s1.91.34,2.92.48a41.83,41.83,0,0,0,10.8,0c1-.14,2-.3,2.91-.48s1.88-.4,3-.73a25.67,25.67,0,0,0,5.73-2.55,25.39,25.39,0,0,0,8.77-8.89,24.9,24.9,0,0,0,2.46-5.79l.23-.79L821.78,277c.69-3.49,1.4-7.1,2-10.63l.37-1.83c.11-.59.2-1.22.29-1.91a32,32,0,0,0,.24-3.89C824.69,258.37,824.67,258,824.66,257.56Zm-7.38,4.31c0,.51-.08,1-.14,1.51l-.26,1.59c-.14.87-.34,1.76-.53,2.62s-.4,1.8-.55,2.7l-3.9,20.5-.16.57a18.45,18.45,0,0,1-1.75,4.19,18.27,18.27,0,0,1-6.34,6.41,18.59,18.59,0,0,1-4.18,1.86c-.78.23-1.68.43-2.29.55-.77.16-1.57.29-2.44.41a36.3,36.3,0,0,1-9,0c-.88-.12-1.68-.25-2.45-.41-.61-.12-1.52-.32-2.29-.55a18.79,18.79,0,0,1-4.18-1.86,18.35,18.35,0,0,1-6.34-6.41,18.8,18.8,0,0,1-1.75-4.2l-.14-.5-3.92-20.54c-.15-.92-.35-1.84-.54-2.72s-.39-1.75-.54-2.62l-.25-1.57c-.06-.51-.12-1-.16-1.53-.06-1.05-.08-2.07,0-3,0-.41.08-.81.11-1.23,0-.63.1-1.22.19-1.8l.43-2.27a4.26,4.26,0,0,1,.11-.42l.1-.28a26.67,26.67,0,0,1,5.54-10.45,26.14,26.14,0,0,1,19-9l1.41,0h1l.56,0a25.24,25.24,0,0,1,9.9,2.14,25.85,25.85,0,0,1,9.38,6.88,27.05,27.05,0,0,1,5.55,10.46c0,.08.05.17.07.27a2.8,2.8,0,0,1,.13.41l.43,2.26c.09.6.13,1.19.19,1.82,0,.42.06.82.11,1.19A28.44,28.44,0,0,1,817.28,261.87Z"/></svg>