<svg id="Capa_1" data-name="Capa 1" xmlns="http://www.w3.org/2000/svg" viewBox="0 0 1300 1000"><defs><style>.cls-1,.cls-2{fill:#fff;}.cls-2,.cls-3{stroke:#000;stroke-linejoin:round;stroke-width:8px;}.cls-3{fill:none;}</style></defs><title>bus--front</title><rect y="899" width="476.28" height="101" transform="translate(476.28 1899) rotate(180)"/><rect class="cls-1" x="476.28" y="899" width="822.06" height="101" transform="translate(1774.62 1899) rotate(180)"/><rect class="cls-2" x="518.46" y="75.94" width="697.6" height="820.41" rx="21.56"/><rect class="cls-2" x="437.85" y="222.21" width="80.62" height="189.54" rx="21.56"/><path class="cls-3" d="M518.46,181.85a40.36,40.36,0,0,0-40.36,40.36"/><rect class="cls-2" x="1216.06" y="222.21" width="80.62" height="189.54" rx="21.56"/><path class="cls-3" d="M1216.06,181.85a40.36,40.36,0,0,1,40.37,40.36"/><line class="cls-2" x1="518.46" y1="842.98" x2="1216.06" y2="842.98"/><rect class="cls-2" x="562.02" y="716.49" width="123.76" height="74.48" rx="37.24"/><path class="cls-2" d="M562,896.35H675.79a0,0,0,0,1,0,0v62a37.24,37.24,0,0,1-37.24,37.24H599.26A37.24,37.24,0,0,1,562,958.31v-62A0,0,0,0,1,562,896.35Z"/><path class="cls-2" d="M1058.74,896.35H1172.5a0,0,0,0,1,0,0v62a37.24,37.24,0,0,1-37.24,37.24H1096a37.24,37.24,0,0,1-37.24-37.24v-62A0,0,0,0,1,1058.74,896.35Z"/><rect class="cls-2" x="1048.74" y="716.49" width="123.76" height="74.48" rx="37.24"/><path class="cls-2" d="M1168.45,594.92a4.06,4.06,0,0,0,4-4.06V218.07a4.05,4.05,0,0,0-4-4H566.07a4.05,4.05,0,0,0-4.05,4V590.86a4.06,4.06,0,0,0,4.05,4.06Z"/></svg>