<svg id="Capa_1" data-name="Capa 1" xmlns="http://www.w3.org/2000/svg" viewBox="0 0 1300 1000"><defs><style>.cls-1{fill:#fff;}</style></defs><title>2-landmarks-expand</title><path class="cls-1" d="M892.82,900V196.26A21.43,21.43,0,0,0,871.26,175H600.85a21.44,21.44,0,0,0-21.56,21.3V900Z"/><path d="M892.83,904H579.29a4,4,0,0,1-4-4V196.26A25.46,25.46,0,0,1,600.85,171H871.27a25.46,25.46,0,0,1,25.56,25.3V900A4,4,0,0,1,892.83,904Zm-309.54-8H888.83V196.26A17.45,17.45,0,0,0,871.27,179H600.85a17.45,17.45,0,0,0-17.56,17.3Z"/><rect class="cls-1" x="579.29" y="822.12" width="313.53" height="38.94"/><path d="M892.83,865.06H579.29a4,4,0,0,1-4-4V822.12a4,4,0,0,1,4-4H892.83a4,4,0,0,1,4,4v38.94A4,4,0,0,1,892.83,865.06Zm-309.54-8H888.83V826.12H583.29Z"/><rect class="cls-1" x="579.29" y="861.06" width="313.53" height="38.94"/><path d="M892.83,904H579.29a4,4,0,0,1-4-4V861.06a4,4,0,0,1,4-4H892.83a4,4,0,0,1,4,4V900A4,4,0,0,1,892.83,904Zm-309.54-8H888.83V865.06H583.29Z"/><rect class="cls-1" x="579.29" y="783.18" width="313.53" height="38.94"/><path d="M892.83,826.12H579.29a4,4,0,0,1-4-4V783.18a4,4,0,0,1,4-4H892.83a4,4,0,0,1,4,4v38.94A4,4,0,0,1,892.83,826.12Zm-309.54-8H888.83V787.18H583.29Z"/><path class="cls-1" d="M636.92,908.6V196.52A21.56,21.56,0,0,0,615.36,175h0a21.56,21.56,0,0,0-21.56,21.56V908.6Z"/><path d="M636.92,912.6H593.8a4,4,0,0,1-4-4V196.52a25.56,25.56,0,1,1,51.12,0V908.6A4,4,0,0,1,636.92,912.6Zm-39.12-8h35.12V196.52a17.56,17.56,0,1,0-35.12,0Z"/></svg>