<svg id="Capa_1" data-name="Capa 1" xmlns="http://www.w3.org/2000/svg" viewBox="0 0 1300 1000"><defs><style>.cls-1{fill:#fff;}</style></defs><title>2-landmarks-expand</title><rect class="cls-1" x="518.46" y="75.94" width="697.6" height="820.41" rx="21.56"/><path d="M1194.5,900.35H540a25.6,25.6,0,0,1-25.57-25.56V97.5A25.6,25.6,0,0,1,540,71.94H1194.5a25.59,25.59,0,0,1,25.56,25.56V874.79A25.59,25.59,0,0,1,1194.5,900.35ZM540,79.94A17.59,17.59,0,0,0,522.46,97.5V874.79A17.59,17.59,0,0,0,540,892.35H1194.5a17.58,17.58,0,0,0,17.56-17.56V97.5a17.58,17.58,0,0,0-17.56-17.56Z"/><rect class="cls-1" x="437.85" y="222.21" width="80.62" height="189.54" rx="21.56"/><path d="M496.91,415.75h-37.5a25.58,25.58,0,0,1-25.56-25.56V243.77a25.59,25.59,0,0,1,25.56-25.56h37.5a25.59,25.59,0,0,1,25.55,25.56V390.19A25.58,25.58,0,0,1,496.91,415.75Zm-37.5-189.54a17.58,17.58,0,0,0-17.56,17.56V390.19a17.58,17.58,0,0,0,17.56,17.56h37.5a17.57,17.57,0,0,0,17.55-17.56V243.77a17.57,17.57,0,0,0-17.55-17.56Z"/><path d="M482.1,222.21h-8a44.41,44.41,0,0,1,44.36-44.36v8A36.4,36.4,0,0,0,482.1,222.21Z"/><rect class="cls-1" x="1216.06" y="222.21" width="80.62" height="189.54" rx="21.56"/><path d="M1275.12,415.75h-37.5a25.59,25.59,0,0,1-25.56-25.56V243.77a25.59,25.59,0,0,1,25.56-25.56h37.5a25.59,25.59,0,0,1,25.56,25.56V390.19A25.58,25.58,0,0,1,1275.12,415.75Zm-37.5-189.54a17.58,17.58,0,0,0-17.56,17.56V390.19a17.58,17.58,0,0,0,17.56,17.56h37.5a17.58,17.58,0,0,0,17.56-17.56V243.77a17.58,17.58,0,0,0-17.56-17.56Z"/><path d="M1260.43,222.21h-8a36.4,36.4,0,0,0-36.37-36.36v-8A44.41,44.41,0,0,1,1260.43,222.21Z"/><rect x="518.46" y="838.98" width="697.6" height="8"/><rect class="cls-1" x="562.02" y="716.49" width="123.76" height="74.48" rx="37.24"/><path d="M648.55,795H599.26a41.24,41.24,0,0,1,0-82.48h49.29a41.24,41.24,0,0,1,0,82.48Zm-49.29-74.48a33.24,33.24,0,0,0,0,66.48h49.29a33.24,33.24,0,0,0,0-66.48Z"/><rect class="cls-1" x="1048.74" y="716.49" width="123.76" height="74.48" rx="37.24"/><path d="M1135.26,795H1086a41.24,41.24,0,0,1,0-82.48h49.28a41.24,41.24,0,1,1,0,82.48ZM1086,720.49a33.24,33.24,0,0,0,0,66.48h49.28a33.24,33.24,0,1,0,0-66.48Z"/><path class="cls-1" d="M1168.45,594.92a4.06,4.06,0,0,0,4-4.06V218.07a4.05,4.05,0,0,0-4-4H566.07a4.05,4.05,0,0,0-4.05,4V590.86a4.06,4.06,0,0,0,4.05,4.06Z"/><path d="M1168.45,598.92H566.08a8.06,8.06,0,0,1-8.05-8.06V218.07a8.06,8.06,0,0,1,8.05-8h602.37a8.06,8.06,0,0,1,8,8V590.86A8.06,8.06,0,0,1,1168.45,598.92ZM566.08,218,566,590.86l602.42.06a.06.06,0,0,0,0-.06V218.07Z"/><path class="cls-1" d="M562,896.35H675.79a0,0,0,0,1,0,0V956a28.51,28.51,0,0,1-28.51,28.51H590.53A28.51,28.51,0,0,1,562,956v-59.7a0,0,0,0,1,0,0Z"/><path d="M647.28,988.55H590.53A32.54,32.54,0,0,1,558,956V896.35a4,4,0,0,1,4-4H675.79a4,4,0,0,1,4,4V956A32.55,32.55,0,0,1,647.28,988.55ZM566,900.35V956a24.53,24.53,0,0,0,24.5,24.51h56.75A24.54,24.54,0,0,0,671.79,956V900.35Z"/><path class="cls-1" d="M1058.74,896.35H1172.5a0,0,0,0,1,0,0V956A28.51,28.51,0,0,1,1144,984.55h-56.74A28.51,28.51,0,0,1,1058.74,956v-59.7a0,0,0,0,1,0,0Z"/><path d="M1144,988.55h-56.74A32.55,32.55,0,0,1,1054.74,956V896.35a4,4,0,0,1,4-4H1172.5a4,4,0,0,1,4,4V956A32.54,32.54,0,0,1,1144,988.55Zm-81.25-88.2V956a24.54,24.54,0,0,0,24.51,24.51H1144A24.53,24.53,0,0,0,1168.5,956V900.35Z"/></svg>