<svg id="Capa_1" data-name="Capa 1" xmlns="http://www.w3.org/2000/svg" viewBox="0 0 1300 1000"><title>2-landmarks-expand</title><rect y="900" width="1300" height="100"/><path d="M1138.59,912.6H0v-8H1138.59a89.15,89.15,0,0,0,88.93-95.23L1182,143.82a71.83,71.83,0,0,0-71.45-66.73H0v-8H1110.51a79.85,79.85,0,0,1,79.43,74.18l45.56,665.55a97.15,97.15,0,0,1-96.91,103.78Z"/><path d="M1231.72,815.13h-19.91a41.5,41.5,0,0,1-41.28-38.55l-2.42-35.37A50,50,0,0,1,1218,687.76h5.45v8H1218a42,42,0,0,0-41.94,44.91l2.42,35.37a33.48,33.48,0,0,0,33.3,31.09h19.91Z"/><path d="M716.36,908.6h-8V196.52A17.58,17.58,0,0,0,690.8,179H420.39a17.58,17.58,0,0,0-17.56,17.56V908.6h-8V196.52A25.59,25.59,0,0,1,420.39,171H690.8a25.58,25.58,0,0,1,25.56,25.56Z"/><path d="M674.75,603.74H436.44a8.06,8.06,0,0,1-8.05-8.06V212.57a8.06,8.06,0,0,1,8.05-8H674.75a8.06,8.06,0,0,1,8,8V595.68A8.06,8.06,0,0,1,674.75,603.74ZM436.44,212.52l-.05,383.16,238.36.06a.06.06,0,0,0,0-.06V212.57Z"/><path d="M302.72,605.09H0v-8H302.72a17.58,17.58,0,0,0,17.56-17.56V230.08a17.58,17.58,0,0,0-17.56-17.56H0v-8H302.72a25.59,25.59,0,0,1,25.56,25.56V579.53A25.59,25.59,0,0,1,302.72,605.09Z"/><path d="M1220.64,605.09h-415a25.59,25.59,0,0,1-25.56-25.56V230.08a25.58,25.58,0,0,1,25.56-25.56h384.79v8H805.67a17.57,17.57,0,0,0-17.56,17.56V579.53a17.58,17.58,0,0,0,17.56,17.56h415Z"/><path d="M888.67,942.54a71.27,71.27,0,1,1,71.27-71.27A71.35,71.35,0,0,1,888.67,942.54Zm0-134.54a63.27,63.27,0,1,0,63.27,63.27A63.34,63.34,0,0,0,888.67,808Z"/><path d="M888.67,986.84a115.57,115.57,0,1,1,115.57-115.57A115.71,115.71,0,0,1,888.67,986.84Zm0-223.14A107.57,107.57,0,1,0,996.24,871.27,107.7,107.7,0,0,0,888.67,763.7Z"/><rect y="837.6" width="398.83" height="8"/><rect x="712.36" y="837.6" width="69.69" height="8"/><rect x="996.24" y="837.6" width="231.77" height="8"/></svg>