<svg id="Capa_1" data-name="Capa 1" xmlns="http://www.w3.org/2000/svg" viewBox="0 0 1300 1000"><title>2-landmarks-expand</title><rect y="899" width="500" height="101" transform="translate(500 1899) rotate(180)"/><path d="M1168.45,598.92H566.08a8.06,8.06,0,0,1-8.05-8.06V218.07a8.06,8.06,0,0,1,8.05-8h602.37a8.06,8.06,0,0,1,8,8V590.86A8.06,8.06,0,0,1,1168.45,598.92ZM566.08,218,566,590.86l602.42.06a.06.06,0,0,0,0-.06V218.07Z"/><path d="M1194.5,900.35H540a25.6,25.6,0,0,1-25.57-25.56V97.5A25.6,25.6,0,0,1,540,71.94H1194.5a25.59,25.59,0,0,1,25.56,25.56V874.79A25.59,25.59,0,0,1,1194.5,900.35ZM540,79.94A17.59,17.59,0,0,0,522.46,97.5V874.79A17.59,17.59,0,0,0,540,892.35H1194.5a17.58,17.58,0,0,0,17.56-17.56V97.5a17.58,17.58,0,0,0-17.56-17.56Z"/><path d="M496.91,415.75h-37.5a25.58,25.58,0,0,1-25.56-25.56V243.77a25.59,25.59,0,0,1,25.56-25.56h37.5a25.59,25.59,0,0,1,25.55,25.56V390.19A25.58,25.58,0,0,1,496.91,415.75Zm-37.5-189.54a17.58,17.58,0,0,0-17.56,17.56V390.19a17.58,17.58,0,0,0,17.56,17.56h37.5a17.57,17.57,0,0,0,17.55-17.56V243.77a17.57,17.57,0,0,0-17.55-17.56Z"/><path d="M482.1,222.21h-8a44.41,44.41,0,0,1,44.36-44.36v8A36.4,36.4,0,0,0,482.1,222.21Z"/><path d="M1275.12,415.75h-37.5a25.59,25.59,0,0,1-25.56-25.56V243.77a25.59,25.59,0,0,1,25.56-25.56h37.5a25.59,25.59,0,0,1,25.56,25.56V390.19A25.58,25.58,0,0,1,1275.12,415.75Zm-37.5-189.54a17.58,17.58,0,0,0-17.56,17.56V390.19a17.58,17.58,0,0,0,17.56,17.56h37.5a17.58,17.58,0,0,0,17.56-17.56V243.77a17.58,17.58,0,0,0-17.56-17.56Z"/><path d="M1260.43,222.21h-8a36.4,36.4,0,0,0-36.37-36.36v-8A44.41,44.41,0,0,1,1260.43,222.21Z"/><rect x="518.46" y="838.98" width="697.6" height="8"/><path d="M648.55,795H599.26a41.24,41.24,0,0,1,0-82.48h49.29a41.24,41.24,0,0,1,0,82.48Zm-49.29-74.48a33.24,33.24,0,0,0,0,66.48h49.29a33.24,33.24,0,0,0,0-66.48Z"/><path d="M638.55,999.55H599.26A41.28,41.28,0,0,1,558,958.31v-62a4,4,0,0,1,4-4H675.79a4,4,0,0,1,4,4v62A41.29,41.29,0,0,1,638.55,999.55ZM566,900.35v58a33.27,33.27,0,0,0,33.23,33.24h39.29a33.28,33.28,0,0,0,33.24-33.24v-58Z"/><path d="M1135.26,999.55H1096a41.29,41.29,0,0,1-41.24-41.24v-62a4,4,0,0,1,4-4H1172.5a4,4,0,0,1,4,4v62A41.29,41.29,0,0,1,1135.26,999.55Zm-72.52-99.2v58A33.28,33.28,0,0,0,1096,991.55h39.28a33.28,33.28,0,0,0,33.24-33.24v-58Z"/><path d="M1135.26,795H1086a41.24,41.24,0,0,1,0-82.48h49.28a41.24,41.24,0,1,1,0,82.48ZM1086,720.49a33.24,33.24,0,0,0,0,66.48h49.28a33.24,33.24,0,1,0,0-66.48Z"/><path d="M1300,138.36h-83.94a4,4,0,0,1-4-4V86.7a4,4,0,0,1,4-4H1300a4,4,0,0,1,4,4v47.66A4,4,0,0,1,1300,138.36Zm-79.94-8H1296V90.7h-75.94Z"/></svg>