<svg id="Capa_1" data-name="Capa 1" xmlns="http://www.w3.org/2000/svg" viewBox="0 0 1300 1000"><defs><style>.cls-1{fill:#fff;}.cls-1,.cls-3{stroke:#262626;stroke-miterlimit:10;stroke-width:10px;}.cls-2{fill:#262626;}.cls-3{fill:none;}</style></defs><title>bus--front</title><path class="cls-1" d="M559.51,764.1H660a0,0,0,0,1,0,0V950a43.36,43.36,0,0,1-43.36,43.36H602.87A43.36,43.36,0,0,1,559.51,950V764.1a0,0,0,0,1,0,0Z"/><path class="cls-1" d="M1071.81,762.94H1172.3a0,0,0,0,1,0,0V948.86a43.36,43.36,0,0,1-43.36,43.36h-13.77a43.36,43.36,0,0,1-43.36-43.36V762.94A0,0,0,0,1,1071.81,762.94Z"/><rect class="cls-2" y="899" width="500" height="101" transform="translate(500 1899) rotate(180)"/><rect class="cls-1" x="511.79" y="73.94" width="709.13" height="821.09" rx="25"/><rect class="cls-1" x="541.09" y="190.58" width="650.54" height="408.96" rx="15"/><rect class="cls-1" x="440.09" y="223.92" width="71.84" height="190.09" rx="15"/><path class="cls-3" d="M1218,190.46a39.08,39.08,0,0,1,39.08,39.08h0"/><path class="cls-3" d="M515.16,189.56a39.07,39.07,0,0,0-39.07,39.08h0"/><path class="cls-1" d="M667.85,753.67a57.94,57.94,0,1,1-57.94-57.93A57.94,57.94,0,0,1,667.85,753.67Z"/><path class="cls-1" d="M1181.15,753.67a57.94,57.94,0,1,1-57.94-57.93A57.94,57.94,0,0,1,1181.15,753.67Z"/><line class="cls-1" x1="1224.12" y1="842.98" x2="509.21" y2="842.98"/><rect class="cls-1" x="1220.99" y="224.19" width="71.84" height="190.09" rx="15"/></svg>