<svg id="Capa_1" data-name="Capa 1" xmlns="http://www.w3.org/2000/svg" viewBox="0 0 1300 1000"><defs><style>.cls-1{fill:#fff;}</style></defs><title>2-landmarks-expand</title><rect y="900" width="1300" height="100"/><path class="cls-1" d="M892.82,908.6V196.52A21.56,21.56,0,0,0,871.26,175H600.85a21.56,21.56,0,0,0-21.56,21.56V908.6Z"/><path d="M892.83,912.6H579.29a4,4,0,0,1-4-4V196.52A25.59,25.59,0,0,1,600.85,171H871.27a25.59,25.59,0,0,1,25.56,25.56V908.6A4,4,0,0,1,892.83,912.6Zm-309.54-8H888.83V196.52A17.58,17.58,0,0,0,871.27,179H600.85a17.58,17.58,0,0,0-17.56,17.56Z"/><rect class="cls-1" x="579.29" y="822.12" width="313.53" height="38.94"/><path d="M892.83,865.06H579.29a4,4,0,0,1-4-4V822.12a4,4,0,0,1,4-4H892.83a4,4,0,0,1,4,4v38.94A4,4,0,0,1,892.83,865.06Zm-309.54-8H888.83V826.12H583.29Z"/><rect class="cls-1" x="579.29" y="861.06" width="313.53" height="38.94"/><path d="M892.83,904H579.29a4,4,0,0,1-4-4V861.06a4,4,0,0,1,4-4H892.83a4,4,0,0,1,4,4V900A4,4,0,0,1,892.83,904Zm-309.54-8H888.83V865.06H583.29Z"/><rect class="cls-1" x="579.29" y="783.18" width="313.53" height="38.94"/><path d="M892.83,826.12H579.29a4,4,0,0,1-4-4V783.18a4,4,0,0,1,4-4H892.83a4,4,0,0,1,4,4v38.94A4,4,0,0,1,892.83,826.12Zm-309.54-8H888.83V787.18H583.29Z"/><path class="cls-1" d="M636.92,908.6V196.52A21.56,21.56,0,0,0,615.36,175h0a21.56,21.56,0,0,0-21.56,21.56V908.6Z"/><path d="M636.92,912.6H593.8a4,4,0,0,1-4-4V196.52a25.56,25.56,0,1,1,51.12,0V908.6A4,4,0,0,1,636.92,912.6Zm-39.12-8h35.12V196.52a17.56,17.56,0,1,0-35.12,0Z"/><path class="cls-1" d="M918.76,272.22c0,.5-.09,1-.15,1.51l-.25,1.58c-.15.87-.35,1.76-.53,2.62s-.4,1.8-.56,2.7l-3.89,20.49-.16.57a18.38,18.38,0,0,1-1.75,4.18,18.1,18.1,0,0,1-6.34,6.41,18.52,18.52,0,0,1-4.17,1.86c-.78.23-1.68.43-2.3.55s-1.56.29-2.43.41a37,37,0,0,1-4.51.28,34.74,34.74,0,0,1-4.49-.28c-.88-.12-1.68-.25-2.44-.41s-1.52-.32-2.3-.55a18.52,18.52,0,0,1-4.17-1.86,18.16,18.16,0,0,1-6.34-6.4,19,19,0,0,1-1.75-4.2l-.14-.5-3.92-20.53c-.15-.92-.35-1.84-.54-2.72s-.39-1.75-.54-2.62l-.24-1.57c-.07-.5-.12-1-.16-1.52a27.78,27.78,0,0,1-.05-3c.05-.41.08-.82.11-1.23,0-.63.1-1.23.19-1.8l.43-2.27c0-.15.08-.29.12-.43l.09-.27a26.87,26.87,0,0,1,5.54-10.45,26.14,26.14,0,0,1,19-9l1.42,0h1l.57,0A25.23,25.23,0,0,1,903,245.9a25.67,25.67,0,0,1,9.37,6.87,27,27,0,0,1,5.55,10.46c0,.08,0,.17.08.26a3.31,3.31,0,0,1,.12.42l.43,2.25c.09.6.14,1.2.19,1.83,0,.41.07.82.11,1.19A28.36,28.36,0,0,1,918.76,272.22Z"/><path class="cls-1" d="M982.37,571.18,981.71,604l-6.64,1.8-17.4-27.14-.11-23.14h0v-3.16l-3.18.19-6,.37-18.81-47,1.61-51.37L929,410.68c.41,1.39.82,2.77,1.22,4.15l6.9,23.41c.6,2,1.12,3.92,1.76,5.85l1.91,5.81,3.85,11.62L960,508c2.5,7.76,5.08,15.5,7.53,23.27s4.87,15.56,7.28,23.35l.06.17.1.17c.77,1.41,1.54,2.82,2.27,4.27s1.43,2.88,2.1,4.36,1.29,3,1.9,4.48C981.64,569.08,982,570.13,982.37,571.18Z"/><path class="cls-1" d="M863,635.55c-6,19.24-12.42,38.34-18.91,57.39l-10.28,29.74c-1.69,5-3.5,9.89-5.24,14.84L828,739.3a7.15,7.15,0,0,1-.29.7l-.41.91-1.59,3.6-3.19,7.2-12.71,28.77c-2.1,4.81-4.25,9.59-6.4,14.37l-6.46,14.34q-12.87,28.69-26.12,57.21l9.32,19.16,0,.07.07,0,30.2,13.26-.72,1.78-36.89-.7-40.88-14.73,10.44-37.88-1.74-.89-4-2,5.56-12.21,6.32-14.16c4.22-9.44,8.32-18.92,12.48-28.38l12.15-28.53,12-28.59.09-.24,0-.22L795.47,689l10.32-43c1.69-7.18,3.49-14.34,5.27-21.5L816.43,603l5.35-21.47,2-7.59,20.71,35.93Z"/><path class="cls-1" d="M1059.64,884.58l-.32,3.69-63.13,10.84-13.05-30.57-.9-2.14-1.85.39-5.21,1.09L938.42,738.77l-40.89-63c-13.59-21-27.45-41.86-40.51-63.22-6.59-10.65-13.08-21.35-19.6-32.05l-4.89-8a37.14,37.14,0,0,1-2.16-4,42.58,42.58,0,0,1-1.75-4.13,40.28,40.28,0,0,1-1.29-4.31v0h0a44.06,44.06,0,0,1-1.14-13.24,41.39,41.39,0,0,1,.56-4.42l.85-4.61,1.65-9.23c1.12-6.16,2.18-12.32,3.37-18.47s2.32-12.29,3.64-18.4q1.54-7.38,3.48-14.68l27.21-30.47,22.24-39.8h-2.6l-52.26,68.06L826,497.1l-8.19,22.3-8.12,22.32L801.61,564l-.09.26,0,.44-.62,5c-.17,1.65-.38,3.32-.53,5l-.48,5c-.1,1.37-.22,2.75-.31,4.13l-19.61,25.58L773.41,607l1.88-32.26,9-14.07h0l1.78-2.77-3-.63-5.41-1.13c6.83-23.6,13.84-47.13,20.82-70.67l5.38-18.12,2.69-9.07.67-2.26.74-2.26c.13-.34.25-.69.37-1s.12-.27.16-.38l.25-.53,1-2.12c2.71-5.64,5.55-11.26,8.42-16.87s5.77-11.19,8.68-16.78c5.82-11.17,11.83-22.26,17.82-33.37l9-16.61,2.29-4.21c.34-.62.65-1.31,1-1.88s.72-1.16,1.11-1.72l1.23-1.66,1.35-1.53c.48-.5,1-1,1.46-1.44s1-.89,1.54-1.35a32.81,32.81,0,0,1,14.43-6.63,34.66,34.66,0,0,1,7.87-.56,32,32,0,0,1,7.8,1.14c1.29.31,2.53.78,3.79,1.2s2.46,1,3.62,1.71a30.06,30.06,0,0,1,11.7,11.06,34.8,34.8,0,0,1,3.23,7.58l.1.32c.52,1.74,1,3.49,1.57,5.23,1.85,7.68,4,23.65,4.12,24.38v0l1,86.32,0,5.4V490l0,10.63v1.69l.37,50.32v.06l0,0,13,38.14c4.34,12.71,8.79,25.38,13.17,38.08,8.75,25.4,17.7,50.72,26.58,76.07l6.66,19,.84,2.38.4,1.13c.1.32.19.67.27,1,.17.71.29,1.49.43,2.33l.21,1.28.24,1.25c.61,3.31,1.23,6.62,1.89,9.91,2.6,13.2,5.34,26.36,8.12,39.51s5.72,26.25,8.62,39.37c1.44,6.56,3,13.1,4.44,19.64s3,13.1,4.55,19.64h0l.11.47.32.42,12.09,15.93h0l.64.82,1.1.19Z"/><path d="M1066.58,878.58l-2.57-.34h0l-34.88-4.72-12.32-13.42q-8.26-39.17-16.09-78.43c-2.63-13.17-5.22-26.34-7.66-39.5-.63-3.3-1.2-6.59-1.77-9.88l-.22-1.23-.19-1.17c-.13-.83-.26-1.74-.47-2.74-.12-.5-.26-1-.42-1.55l-.43-1.29-.82-2.39-6.5-19.07-51.65-151.6-2.08-32.57-.21-3.32.58,1.58,14.44,40.25.84,2.36,2.45-.18h0l4.81-.36.29,20.6v.76l.4.73h0l17.26,31.84,1.64,3,3.4-1.05h0l12.31-4,3-1-.09-2.83h0L988.39,571l0-.75-.28-.44h0c-.87-1.36-1.7-2.74-2.55-4.11L983,561.49c-.84-1.38-1.62-2.79-2.43-4.18l-2.31-4,.07.23-.16-.38.09.15L964,506.77,949.72,460l-3.57-11.68-1.79-5.85c-.6-1.94-1.1-3.92-1.65-5.89L936.24,413q-4.43-16.17-8.75-32.41c-1-3.67-2-7.36-2.9-11q-.52-1.93-1-3.87l.07.23a44.79,44.79,0,0,0-3.65-9.6L918.72,354c-.43-.74-1-1.44-1.42-2.16a20.65,20.65,0,0,0-1.51-2.1,24.36,24.36,0,0,0-1.64-2,40,40,0,0,0-7.73-7.07,44.77,44.77,0,0,0-4.53-2.79,39.63,39.63,0,0,0-4.94-2.07l-1.27-.43c-.42-.14-.87-.23-1.3-.34-.86-.2-1.73-.47-2.61-.61l-2.67-.37c-.89-.14-1.79-.13-2.68-.19A37.89,37.89,0,0,0,875.76,335a39.88,39.88,0,0,0-18.07,10.63c-.59.64-1.22,1.25-1.78,1.9s-1.13,1.31-1.67,2l-1.54,2.08-1.43,2.15c-.45.74-.85,1.5-1.27,2.24s-.75,1.5-1.13,2.26l-2.12,4.19-8.49,16.93L821.2,413.2q-4.25,8.48-8.42,17c-2.78,5.67-5.54,11.36-8.18,17.15l-1,2.16-.25.55c-.11.24-.2.47-.28.69q-.24.64-.42,1.23l-.71,2.26-.64,2.28-2.53,9.13-5,18.27-20.25,73-.55,2,1.93.43h0l4.82,1L770,572.11l-.37.46-.13.89h0l-4.7,35.91-.42,3.21,3.26,1.23h0l12.18,4.33,3.08,1.09,1.79-2.57,20.22-30,.47-.7,0-.64h0l.46-5,.52-5c.17-1.65.37-3.32.55-5l.54-4.63-.1.25.14-.6,0,.35,15.74-44.52,5.45-15.41-.87,3.57-4.48,18.29-2.19,9.16c-.37,1.52-.71,3.05-1.06,4.58a51.19,51.19,0,0,0-.78,5.11,49.38,49.38,0,0,0,.17,10.38c.07.53.15,1,.24,1.58l-5.46,21.3-5.32,21.48-5.18,21.52c-1.73,7.18-3.46,14.35-5.09,21.54l-9.91,43.15-9.69,42.92.13-.33-.19.59.06-.26-23.72,56.91-23.49,57.4-.72,1.76,1.57.81,4.59,2.31-13.72,37.8-.84,2.32,2.24,1.06,45.46,20,.09,0h.08l46.77-.24-.06-16.8-32.58-13.35-7.57-14.2,11.94-25.92,3.28-7.15,3.24-7.15,6.48-14.33L828,754.38l3.23-7.15,1.63-3.59.39-.86c.12-.26.37-.77.51-1.18l.7-2c1.79-4.92,3.62-9.82,5.36-14.76l10.61-29.57q9.24-25.92,18.18-52a3,3,0,0,0,.12-.36l1.53,2.4,1.55,2.41,20.35,31.53q20.14,31.17,40.63,62.09l38.34,129.92.66,2.27,2.2-.54,5.25-1.25,10.48,38.67.07.26.28,0c12.82-2.11,25.94-4.27,39.28-6.68s26.86-5,40.39-7.91ZM930.22,414.83l6.9,23.41c.6,2,1.12,3.92,1.76,5.85l1.91,5.81,3.85,11.62L960,508c2.5,7.76,5.08,15.5,7.53,23.27s4.87,15.56,7.28,23.35l.06.17.1.17c.77,1.41,1.54,2.82,2.27,4.27s1.43,2.88,2.1,4.36,1.29,3,1.9,4.48c.39,1,.77,2.08,1.12,3.13L981.71,604l-6.64,1.8-17.4-27.14-.11-23.14h0v-3.16l-3.18.19-6,.37-18.81-47,1.61-51.37L929,410.68C929.41,412.07,929.82,413.45,930.22,414.83ZM844.1,692.94l-10.28,29.74c-1.69,5-3.5,9.89-5.24,14.84L828,739.3a7.15,7.15,0,0,1-.29.7l-.41.91-1.59,3.6-3.19,7.2-12.71,28.77c-2.1,4.81-4.25,9.59-6.4,14.37l-6.46,14.34q-12.87,28.69-26.12,57.21l9.32,19.16,0,.07.07,0,30.2,13.26.18-.22.29.41-.47-.19-.72,1.78-36.89-.7-40.88-14.73,10.44-37.88-1.74-.89-4-2,5.56-12.21,6.32-14.16c4.22-9.44,8.32-18.92,12.48-28.38l12.15-28.53,12-28.59.09-.24,0-.22L795.47,689l10.32-43c1.69-7.18,3.49-14.34,5.27-21.5L816.43,603l5.35-21.47,2-7.59,20.71,35.93L863,635.55C857,654.79,850.59,673.89,844.1,692.94Zm215.22,195.33-63.13,10.84-13.05-30.57-.9-2.14-1.85.39-5.21,1.09L938.42,738.77l-40.89-63c-13.59-21-27.45-41.86-40.51-63.22-6.59-10.65-13.08-21.35-19.6-32.05l-4.89-8a37.14,37.14,0,0,1-2.16-4,42.58,42.58,0,0,1-1.75-4.13,40.28,40.28,0,0,1-1.29-4.31s0,0,0,0a44.06,44.06,0,0,1-1.14-13.24,41.39,41.39,0,0,1,.56-4.42l.85-4.61,1.65-9.23c1.12-6.16,2.18-12.32,3.37-18.47s2.32-12.29,3.64-18.4q1.54-7.38,3.48-14.68l27.21-30.47,22.24-39.8h-2.6l-52.26,68.06L826,497.1l-8.19,22.3-8.12,22.32L801.61,564l-.09.26,0,.44-.62,5c-.17,1.65-.38,3.32-.53,5l-.48,5c-.1,1.37-.22,2.75-.31,4.13l-19.61,25.58L773.41,607l1.88-32.26,9-14.07h0l1.78-2.77-3-.63-5.41-1.13c6.83-23.6,13.84-47.13,20.82-70.67l5.38-18.12,2.69-9.07.67-2.26.74-2.26c.13-.34.25-.69.37-1s.12-.27.16-.38l.25-.53,1-2.12c2.71-5.64,5.55-11.26,8.42-16.87s5.77-11.19,8.68-16.78c5.82-11.17,11.83-22.26,17.82-33.37l9-16.61,2.29-4.21c.34-.62.65-1.31,1-1.88s.72-1.16,1.11-1.72l1.23-1.66,1.35-1.53c.48-.5,1-1,1.46-1.44s1-.89,1.54-1.35a32.81,32.81,0,0,1,14.43-6.63,34.66,34.66,0,0,1,7.87-.56,32,32,0,0,1,7.8,1.14c1.29.31,2.53.78,3.79,1.2s2.46,1,3.62,1.71a30.06,30.06,0,0,1,11.7,11.06,34.8,34.8,0,0,1,3.23,7.58l.1.32c.52,1.74,1,3.49,1.57,5.23,1.85,7.68,4,23.65,4.12,24.38v0l1,86.32,0,5.4V490l0,10.63v1.69l.37,50.32v.06l0,0,13,38.14c4.34,12.71,8.79,25.38,13.17,38.08,8.75,25.4,17.7,50.72,26.58,76.07l6.66,19,.84,2.38.4,1.13c.1.32.19.67.27,1,.17.71.29,1.49.43,2.33l.21,1.28.24,1.25c.61,3.31,1.23,6.62,1.89,9.91,2.6,13.2,5.34,26.36,8.12,39.51s5.72,26.25,8.62,39.37c1.44,6.56,3,13.1,4.44,19.64s3,13.1,4.55,19.64h0l.11.47.32.42,12.09,15.93h0l.64.82,1.1.19,32.54,5.25Z"/><polygon points="779.21 730.02 779.01 730.61 779.07 730.35 779.21 730.02"/><polygon points="810.9 899.11 810.43 898.92 810.61 898.7 810.9 899.11"/><path d="M827.33,560.12v0s0,0,0,0Z"/><polygon points="923.81 486.22 923.65 486.25 923.65 485.8 923.81 486.22"/><polygon points="929.58 513.45 929.22 515.2 929.01 511.85 929.58 513.45"/><polygon points="923.68 498.7 923.68 498.7 923.67 496.99 923.68 498.7"/><path d="M926.13,267.91c0-.86-.06-1.74-.16-2.61l-.4-2.86a5,5,0,0,0-.15-.67l-.07-.29a35,35,0,0,0-6.55-13.9,35.09,35.09,0,0,0-19.32-12.38,31.8,31.8,0,0,0-15.51,0,35.09,35.09,0,0,0-19.32,12.38,35,35,0,0,0-6.55,13.9l-.07.29a6.77,6.77,0,0,0-.16.68l-.39,2.85c-.1.87-.13,1.75-.16,2.61,0,.39,0,.8,0,1.24a32,32,0,0,0,.24,3.85c.09.68.18,1.31.29,1.91l.36,1.79c.63,3.57,1.34,7.17,2,10.65l2.61,13.3.47,2.2.2.74a25.18,25.18,0,0,0,17,17.22c1.09.33,2.08.55,3,.73s1.91.35,2.92.49a43.05,43.05,0,0,0,10.8,0c1-.14,2-.3,2.91-.49s1.88-.4,3-.73a25.23,25.23,0,0,0,17-17.22l.22-.78,3.06-15.46c.69-3.48,1.4-7.08,2-10.62l.37-1.83c.11-.59.2-1.22.3-1.91a36.4,36.4,0,0,0,.24-3.88C926.16,268.71,926.14,268.3,926.13,267.91Zm-7.37,4.31c0,.5-.09,1-.15,1.51l-.25,1.58c-.15.87-.35,1.76-.53,2.62s-.4,1.8-.56,2.7l-3.89,20.49-.16.57a18.38,18.38,0,0,1-1.75,4.18,18.1,18.1,0,0,1-6.34,6.41,18.52,18.52,0,0,1-4.17,1.86c-.78.23-1.68.43-2.3.55s-1.56.29-2.43.41a37,37,0,0,1-4.51.28,34.74,34.74,0,0,1-4.49-.28c-.88-.12-1.68-.25-2.44-.41s-1.52-.32-2.3-.55a18.52,18.52,0,0,1-4.17-1.86,18.16,18.16,0,0,1-6.34-6.4,19,19,0,0,1-1.75-4.2l-.14-.5-3.92-20.53c-.15-.92-.35-1.84-.54-2.72s-.39-1.75-.54-2.62l-.24-1.57c-.07-.5-.12-1-.16-1.52a27.78,27.78,0,0,1-.05-3c.05-.41.08-.82.11-1.23,0-.63.1-1.23.19-1.8l.43-2.27c0-.15.08-.29.12-.43l.09-.27a26.87,26.87,0,0,1,5.54-10.45,26.14,26.14,0,0,1,19-9l1.42,0h1l.57,0A25.23,25.23,0,0,1,903,245.9a25.67,25.67,0,0,1,9.37,6.87,27,27,0,0,1,5.55,10.46c0,.08,0,.17.08.26a3.31,3.31,0,0,1,.12.42l.43,2.25c.09.6.14,1.2.19,1.83,0,.41.07.82.11,1.19A28.36,28.36,0,0,1,918.76,272.22Z"/></svg>