<svg width="1300" height="1000" fill="none" xmlns="http://www.w3.org/2000/svg"><path d="M933.949 612.95v.01h1.83l-1.83-.01Z" fill="#000"/><path fill-rule="evenodd" clip-rule="evenodd" d="M1059.16 444.086c-3.77 1.408-10.81 1.91-12.65 1.914 0 0-8.3-.069-13.14-1.914-5.44-2.079-8.48-4.109-12.16-8.575-2.49-3.022-4.44-8.223-5.32-10.853a22.077 22.077 0 0 1-.8-3.31l-4.09-24.154s-.5-3.492-.49-5.742c.02-5.351.74-8.493 2.92-13.398 2.23-5.038 4.18-7.735 8.27-11.484 4.35-3.996 7.49-5.742 13.13-7.625 4.38-1.462 7.05-1.907 11.68-1.945 4.96.167 6.81.478 11.55 1.945 4.74 1.577 9.58 4.373 13.26 7.625 3.68 3.252 6.26 7.101 8.27 11.484s2.92 8.615 2.92 13.398c0 1.803-.2 3.959-.49 5.742l-4.86 23.833a25.09 25.09 0 0 1-1.01 3.617c-1.04 2.793-3.21 8.177-5.32 10.829-2.92 3.676-7.16 6.929-11.67 8.613Zm-2.46-6.699c-3.04 1.186-8.71 1.609-10.19 1.613 0 0-6.69-.058-10.58-1.613-4.39-1.752-6.84-3.462-9.8-7.226-1.95-2.474-3.48-6.68-4.22-8.951a20.428 20.428 0 0 1-.74-3.184l-3.27-20.155s-.4-2.943-.39-4.839c.02-4.509.6-7.156 2.35-11.29 1.8-4.246 3.37-6.518 6.66-9.677 3.51-3.368 6.04-4.839 10.58-6.426 3.53-1.232 5.68-1.607 9.41-1.639 4 .141 5.49.403 9.3 1.639 3.82 1.329 7.72 3.685 10.69 6.426 2.96 2.74 5.04 5.983 6.66 9.677s2.35 7.26 2.35 11.29c0 1.52-.16 3.337-.39 4.839l-3.88 19.862a24.563 24.563 0 0 1-.93 3.486c-.87 2.407-2.56 6.742-4.21 8.91-2.35 3.098-5.77 5.839-9.4 7.258Z" fill="#000"/><path fill-rule="evenodd" clip-rule="evenodd" d="m873.123 880.855 16.377-8.634-11.345-169.323c-1.258-18.78 10.747-35.896 28.832-41.109L961 646.221a28.551 28.551 0 0 1 19.424-27.053l22.076-7.447c0-51.667 7.84-158.167 32-163.5 38.5-8.5 62 19 74 53.5 7.17 20.628 21.5 115.5 21.5 115.5l-9.5 1.5-.88 37.032a39.862 39.862 0 0 1-6.06 20.247H1136c2.76 0 5-2.239 5-5v-77.5c0-6.904 5.6-12.5 12.5-12.5s12.5 5.596 12.5 12.5V681c0 10.371-7.89 18.898-18 19.901V900h152v100H0V900h349V700.901c-10.107-1.003-18-9.53-18-19.901v-87.5c0-6.904 5.596-12.5 12.5-12.5s12.5 5.596 12.5 12.5V671a5 5 0 0 0 5 5h107.5c6.904 0 12.5 5.596 12.5 12.5s-5.596 12.5-12.5 12.5H461v199h211V603c-11.046 0-20-8.954-20-20s8.954-20 20-20h300c11.046 0 20 8.954 20 20s-8.954 20-20 20H679v297h183.491l-.026-.713a20 20 0 0 1 10.658-18.432Zm221.267-188.868a39.861 39.861 0 0 0 13.62-8.987H1138c5.52 0 10-4.477 10-10v-79.5c0-3.038 2.46-5.5 5.5-5.5s5.5 2.462 5.5 5.5V679c0 8.284-6.72 15-15 15h-54.68l5.07-2.013ZM1043 712.384 1071.68 701H1141v199h-98V712.384Zm-52.5 20.837 45.5-18.059V900h-36.5v-17.779c3.73 0 6.63-3.249 6.2-6.955l-1.2-10.545-14-131.5Zm2.999 144.009V900h-78.496l.052-3.099a9.999 9.999 0 0 1 6.71-9.277l21.234-7.394-23.925-154.291a30.002 30.002 0 0 1 12.749-29.387L1013 641.221l99.5-23v36.898a29.996 29.996 0 0 1-18.59 27.746l-112.739 46.356 17.17 142.548a4.877 4.877 0 0 1-4.842 5.461Zm-85.634 17.321-.351 5.449H871.5v-4.069a10 10 0 0 1 6.209-9.254l20.79-8.516-12.328-177.824c-.975-14.077 7.991-26.931 21.538-30.877l91.791-26.739-75.337 51.328a30 30 0 0 0-12.753 29.4L935 875.221l-17.228 6.175a15 15 0 0 0-9.907 13.155Zm188.635-405.83c13.91 29.977 26 121.5 26 121.5l-111.5 24-41.296 10.442a1.302 1.302 0 0 1-1.57-1.626 26.054 26.054 0 0 1 17.07-17.548l25.796-8.268 65-24-11.28-63.634a1.54 1.54 0 0 0-3.05.421l5.83 58.713-58.5 22.5c0-99.243 13.49-137.023 20.03-149.508 1.97-3.772 5.51-6.252 9.69-7.045 12.43-2.356 40.63-2.92 57.78 34.053ZM356 900h98V701h-98v199Zm316-330c-7.18 0-13 5.82-13 13s5.82 13 13 13h300c7.18 0 13-5.82 13-13s-5.82-13-13-13H672ZM468.5 683a5.5 5.5 0 1 1 0 11H353c-8.284 0-15-6.716-15-15v-85.5a5.5 5.5 0 1 1 11 0V673c0 5.523 4.477 10 10 10h109.5Z" fill="#000"/></svg>