<svg width="1300" height="1000" viewBox="0 0 1300 1000" fill="none" xmlns="http://www.w3.org/2000/svg"><path d="m875.124 880.828 16.376-8.635-10.147-141.652c-1.367-19.081 10.968-36.459 29.432-41.464L962 675.193a28.776 28.776 0 0 1 19.375-27.197l21.125-7.303c0-51.667 6-158.691 33-163.5 38.82-6.914 61 16 73 50.5 7.17 20.628 22.5 113.5 22.5 113.5l-11.5 3.5v34.192c0 17.113-10.89 32.331-27.08 37.857L988.5 752.193l15 112.5 1.21 10.545c.42 3.706-2.48 6.955-6.21 6.955v18h-134l-.035-.934a20 20 0 0 1 10.659-18.431Z" fill="#000"/><path d="m878.709 886.649 20.791-8.516-11.166-150.423c-1.065-14.342 8.198-27.422 22.08-31.179l85.086-23.028-70.759 47.986a30 30 0 0 0-12.658 30.307L935 875.192l-17.227 6.176a15 15 0 0 0-9.907 13.155l-.366 5.669h-35v-4.289a10 10 0 0 1 6.209-9.254Z" fill="#fff"/><path d="M921.658 887.549 942 880.202l-22.425-125.901a30 30 0 0 1 12.631-30.045L1010 671.193l102.5-23v32.721c0 12.746-8.05 24.1-20.08 28.313l-111.248 38.966 17.075 123.561c.619 4.479-4.747 9.113-4.747 13.635v14.823H915l.057-3.425a10 10 0 0 1 6.601-9.238ZM1096.5 515.693c13.91 29.977 26 123.5 26 123.5l-111.5 24-40.21 10.407a1.395 1.395 0 0 1-1.701-1.698 27.902 27.902 0 0 1 18.942-19.758l22.969-6.951 65-23-11.28-65.639a1.532 1.532 0 0 0-3.03.43l6.81 60.709-59.5 21.5c0-101.36 14.07-138.009 20.43-149.404 1.77-3.165 4.77-5.288 8.28-6.186 11.85-3.029 41.15-5.924 58.79 32.09Z" fill="#fff"/><path d="M1136 697h-27l-27.72 16.118L1102 704h36c5.52 0 10-4.477 10-10v-79.5c0-3.038 2.46-5.5 5.5-5.5s5.5 2.462 5.5 5.5V700c0 8.284-6.72 15-15 15h-65.96l-12.04 7h80c11.05 0 20-8.954 20-20v-87.5c0-6.904-5.6-12.5-12.5-12.5s-12.5 5.596-12.5 12.5V692c0 2.761-2.24 5-5 5Zm-100 31h7v172h-7V728Zm105-6h7v178h-7V722Z" fill="#000"/><path fill-rule="evenodd" clip-rule="evenodd" d="M468.5 698c6.904 0 12.5 5.596 12.5 12.5s-5.596 12.5-12.5 12.5H351c-11.046 0-20-8.954-20-20v-87.5c0-6.904 5.596-12.5 12.5-12.5s12.5 5.596 12.5 12.5V693a5 5 0 0 0 5 5h107.5Zm0 7a5.5 5.5 0 1 1 0 11H353c-8.284 0-15-6.716-15-15v-85.5a5.5 5.5 0 0 1 11 0V695c0 5.523 4.477 10 10 10h109.5Z" fill="#000"/><path d="M461 723h-7v177h7V723Zm-105 0h-7v177h7V723Zm703.16-249.914c-3.77 1.408-10.81 1.91-12.65 1.914 0 0-8.3-.069-13.14-1.914-5.44-2.079-8.48-4.109-12.16-8.575-2.49-3.022-4.44-8.223-5.32-10.853a22.077 22.077 0 0 1-.8-3.31l-4.09-24.154s-.5-3.492-.49-5.742c.02-5.351.75-8.493 2.92-13.398 2.23-5.038 4.18-7.735 8.27-11.484 4.35-3.996 7.49-5.742 13.13-7.625 4.38-1.462 7.06-1.907 11.68-1.945 4.96.167 6.81.478 11.55 1.945 4.74 1.577 9.58 4.373 13.26 7.625 3.68 3.252 6.26 7.101 8.27 11.484s2.92 8.615 2.92 13.398c0 1.803-.2 3.959-.49 5.742l-4.86 23.833a25.09 25.09 0 0 1-1.01 3.617c-1.04 2.793-3.21 8.177-5.32 10.829-2.92 3.676-7.16 6.929-11.67 8.613Z" fill="#000"/><path d="M1056.7 466.387c-3.04 1.186-8.71 1.609-10.19 1.613 0 0-6.69-.058-10.58-1.613-4.39-1.752-6.84-3.462-9.8-7.226-1.95-2.474-3.48-6.68-4.22-8.951a20.428 20.428 0 0 1-.74-3.184l-3.27-20.155s-.4-2.943-.39-4.839c.02-4.509.6-7.156 2.35-11.29 1.8-4.246 3.37-6.518 6.66-9.677 3.51-3.368 6.04-4.839 10.58-6.426 3.53-1.232 5.68-1.607 9.41-1.639 4 .141 5.49.403 9.3 1.639 3.82 1.329 7.72 3.685 10.69 6.426 2.96 2.74 5.04 5.983 6.66 9.677s2.35 7.26 2.35 11.29c0 1.52-.16 3.337-.39 4.839l-3.88 19.862a24.563 24.563 0 0 1-.93 3.486c-.87 2.407-2.56 6.742-4.21 8.91-2.35 3.098-5.77 5.839-9.4 7.258Z" fill="#fff"/><path d="M0 900h1300v100H0V900Z" fill="#000"/><path fill-rule="evenodd" clip-rule="evenodd" d="M672 590c-11.046 0-20 8.954-20 20s8.954 20 20 20h300c11.046 0 20-8.954 20-20s-8.954-20-20-20H672Zm0 7c-7.18 0-13 5.82-13 13s5.82 13 13 13h300c7.18 0 13-5.82 13-13s-5.82-13-13-13H672Z" fill="#000"/><path d="M672 630h7v270h-7V630Z" fill="#000"/></svg>