<svg width="1300" height="1000" viewBox="0 0 1300 1000" fill="none" xmlns="http://www.w3.org/2000/svg"><path fill-rule="evenodd" clip-rule="evenodd" d="M850 390c11.046 0 20-8.954 20-20s-8.954-20-20-20-20 8.954-20 20 8.954 20 20 20Zm0-7c7.18 0 13-5.82 13-13s-5.82-13-13-13-13 5.82-13 13 5.82 13 13 13Z" fill="#000"/><path fill-rule="evenodd" clip-rule="evenodd" d="M800 357c0-11.046 8.954-20 20-20h60c11.046 0 20 8.954 20 20v25c0 11.046-8.954 20-20 20h-20.701l28.232 160.116-5.013.884H972c11.046 0 20 8.954 20 20s-8.954 20-20 20H679v297h183.491l-.026-.713a20 20 0 0 1 10.658-18.432l16.377-8.634-11.345-169.323c-1.258-18.78 10.747-35.896 28.832-41.109L961 646.221a28.551 28.551 0 0 1 19.424-27.053l22.076-7.447c0-18.514 1.01-44.069 3.41-69.487L984.5 560 901 484.5c-1.65-6.394-4.78-17.05-7.117-25.004-1.44-4.901-2.578-8.776-2.883-9.996-1-4 1-15.5 11-17 8-1.2 14 5.167 16 8.5l23 32.5 42.5 32.5 37.96-42.701c3.69-8.472 8.01-13.968 13.04-15.078 38.5-8.5 62 19 74 53.5 7.17 20.628 21.5 115.5 21.5 115.5l-9.5 1.5-.88 37.032a39.862 39.862 0 0 1-6.06 20.247H1136c2.76 0 5-2.239 5-5v-77.5c0-6.904 5.6-12.5 12.5-12.5s12.5 5.596 12.5 12.5V681c0 10.371-7.89 18.898-18 19.901V900h152v100H0V900h349V700.901c-10.107-1.003-18-9.53-18-19.901v-87.5c0-6.904 5.596-12.5 12.5-12.5s12.5 5.596 12.5 12.5V671a5 5 0 0 0 5 5h107.5c6.904 0 12.5 5.596 12.5 12.5s-5.596 12.5-12.5 12.5H461v199h211V603c-11.046 0-20-8.954-20-20s8.954-20 20-20h145.483l-5.015-.884L840.7 402H820c-11.046 0-20-8.954-20-20v-25Zm215.75 123.425L985 516.5l-50-39-24-35c-1.167-1.5-4.6-4.2-9-3-4.4 1.2-5.167 6.167-4.5 9l9 32L985 551l21.76-17.231c2.09-19.413 5.03-38.275 8.99-53.344ZM847.808 402h4.383l28.388 161H819.42l28.388-161ZM807 359c0-8.284 6.716-15 15-15h56c8.284 0 15 6.716 15 15v21c0 8.284-6.716 15-15 15h-56c-8.284 0-15-6.716-15-15v-21Zm301.01 324a39.861 39.861 0 0 1-13.62 8.987l-5.07 2.013H1144c8.28 0 15-6.716 15-15v-85.5c0-3.038-2.46-5.5-5.5-5.5s-5.5 2.462-5.5 5.5V673c0 5.523-4.48 10-10 10h-29.99Zm-36.33 18L1043 712.384V900h98V701h-69.32ZM1036 715.162l-45.5 18.059 14 131.5 1.2 10.545c.43 3.706-2.47 6.955-6.2 6.955V900h36.5V715.162ZM993.499 900v-22.77a4.877 4.877 0 0 0 4.842-5.461l-17.17-142.548 112.739-46.356a29.996 29.996 0 0 0 18.59-27.746v-36.898l-99.5 23-81.177 55.332a30 30 0 0 0-12.749 29.386l23.925 154.291-21.234 7.394a9.999 9.999 0 0 0-6.71 9.277l-.052 3.099h78.496Zm-85.985 0 .351-5.449a15 15 0 0 1 9.907-13.155L935 875.221l-23.59-151.772a30 30 0 0 1 12.753-29.4l75.337-51.328-91.791 26.739c-13.547 3.946-22.514 16.8-21.538 30.877l12.328 177.824-20.79 8.516a10 10 0 0 0-6.209 9.254V900h36.014ZM1122.5 610.221s-12.09-91.523-26-121.5c-17.15-36.973-45.35-36.409-57.78-34.053-4.18.793-7.72 3.273-9.69 7.045-6.54 12.485-20.03 50.266-20.03 149.508l58.5-22.5-5.83-58.713a1.54 1.54 0 0 1 3.05-.421l11.28 63.634-65 24-25.796 8.268a26.054 26.054 0 0 0-17.07 17.548 1.302 1.302 0 0 0 1.57 1.626L1011 634.221l111.5-24ZM454 900h-98V701h98v199Zm205-317c0-7.18 5.82-13 13-13h300c7.18 0 13 5.82 13 13s-5.82 13-13 13H672c-7.18 0-13-5.82-13-13ZM474 688.5a5.5 5.5 0 0 0-5.5-5.5H359c-5.523 0-10-4.477-10-10v-79.5a5.5 5.5 0 1 0-11 0V679c0 8.284 6.716 15 15 15h115.5a5.5 5.5 0 0 0 5.5-5.5Z" fill="#000"/><path fill-rule="evenodd" clip-rule="evenodd" d="M1046.51 446c1.84-.004 8.88-.506 12.65-1.914 4.51-1.684 8.75-4.937 11.67-8.613 2.11-2.652 4.28-8.036 5.32-10.829a25.09 25.09 0 0 0 1.01-3.617l4.86-23.833c.29-1.783.49-3.939.49-5.742 0-4.783-.91-9.015-2.92-13.398-2.01-4.383-4.59-8.232-8.27-11.484-3.68-3.252-8.52-6.048-13.26-7.625-4.74-1.467-6.59-1.778-11.55-1.945-4.62.038-7.3.483-11.68 1.945-5.64 1.883-8.78 3.629-13.13 7.625-4.09 3.749-6.04 6.446-8.27 11.484-2.17 4.905-2.9 8.047-2.92 13.398-.01 2.25.49 5.742.49 5.742l4.09 24.154c.19 1.122.44 2.231.8 3.31.88 2.63 2.83 7.831 5.32 10.853 3.68 4.466 6.72 6.496 12.16 8.575 4.84 1.845 13.14 1.914 13.14 1.914Zm0-7c1.48-.004 7.15-.427 10.19-1.613 3.63-1.419 7.05-4.16 9.4-7.258 1.65-2.168 3.34-6.503 4.21-8.91.4-1.135.7-2.302.93-3.486l3.88-19.862c.23-1.502.39-3.319.39-4.839 0-4.03-.73-7.596-2.35-11.29-1.62-3.694-3.7-6.937-6.66-9.677-2.97-2.741-6.87-5.097-10.69-6.426-3.81-1.236-5.3-1.498-9.3-1.639-3.73.032-5.88.407-9.41 1.639-4.54 1.587-7.07 3.058-10.58 6.426-3.29 3.159-4.86 5.431-6.66 9.677-1.75 4.134-2.33 6.781-2.35 11.29-.01 1.896.39 4.839.39 4.839l3.27 20.155c.17 1.079.4 2.145.74 3.184.74 2.271 2.27 6.477 4.22 8.951 2.96 3.764 5.41 5.474 9.8 7.226 3.89 1.555 10.58 1.613 10.58 1.613Z" fill="#000"/></svg>