<svg width="1300" height="1000" viewBox="0 0 1300 1000" fill="none" xmlns="http://www.w3.org/2000/svg"><path fill-rule="evenodd" clip-rule="evenodd" d="M811.121 412.982a3 3 0 0 0 0 4.243l70.003 70.004a3.001 3.001 0 0 0 4.243 0L898 474.596v-.965c1.166 4.073 2.24 7.924 3 10.869l83.5 75.5 21.41-17.768c-2.4 25.419-3.41 50.974-3.41 69.489l-22.074 7.447a28.552 28.552 0 0 0-19.425 27.053l-54.012 15.568c-18.085 5.213-30.09 22.329-28.832 41.109l11.344 169.323-16.376 8.634a20 20 0 0 0-10.658 18.432l.026.713H679V603h293c11.046 0 20-8.954 20-20s-8.954-20-20-20H672c-11.046 0-20 8.954-20 20s8.954 20 20 20v297H461V701h7.5c6.904 0 12.5-5.596 12.5-12.5s-5.596-12.5-12.5-12.5H361a5 5 0 0 1-5-5v-77.5c0-6.904-5.596-12.5-12.5-12.5s-12.5 5.596-12.5 12.5V681c0 10.371 7.893 18.898 18 19.901V900H0v100h1300V900h-152V700.901c10.11-1.003 18-9.53 18-19.901v-87.5c0-6.904-5.6-12.5-12.5-12.5s-12.5 5.596-12.5 12.5V671c0 2.761-2.24 5-5 5h-22.44a39.968 39.968 0 0 0 6.07-20.247l.87-37.032 9.5-1.5s-14.32-94.872-21.5-115.5c-12-34.5-35.5-62-74-53.5-5.03 1.11-9.35 6.604-13.04 15.074L983.5 506 941 473.5l-17.366-24.539 17.595-17.594a3.001 3.001 0 0 0 0-4.243l-70.004-70.003a3 3 0 0 0-4.243 0l-55.861 55.861Zm108.572 30.411.004-.393 13.753-13.754-64.346-64.347-50.205 50.205 64.347 64.346 12.749-12.749a3894.15 3894.15 0 0 0-2.112-7.205c-1.44-4.901-2.578-8.776-2.883-9.996-1-4 1-15.5 11-17 8-1.2 14 5.167 16 8.5l1.693 2.393Zm139.467.693c-3.77 1.408-10.81 1.91-12.65 1.914 0 0-8.3-.069-13.13-1.914-5.45-2.079-8.49-4.109-12.17-8.575-2.49-3.022-4.43-8.223-5.32-10.853a22.077 22.077 0 0 1-.8-3.31l-4.09-24.154s-.5-3.492-.49-5.742c.02-5.351.75-8.493 2.92-13.398 2.23-5.038 4.18-7.735 8.27-11.484 4.36-3.996 7.5-5.742 13.14-7.625 4.38-1.462 7.05-1.907 11.67-1.945 4.96.167 6.81.478 11.55 1.945 4.74 1.577 9.58 4.373 13.26 7.625 3.69 3.252 6.26 7.101 8.27 11.484s2.92 8.615 2.92 13.398c0 1.803-.2 3.959-.48 5.742l-4.87 23.833c-.25 1.229-.57 2.441-1.01 3.617-1.04 2.793-3.2 8.177-5.31 10.829-2.93 3.676-7.17 6.929-11.68 8.613Zm-2.46-6.699c-3.04 1.186-8.7 1.609-10.19 1.613 0 0-6.69-.058-10.58-1.613-4.39-1.752-6.83-3.462-9.8-7.226-1.95-2.474-3.48-6.68-4.22-8.951a20.428 20.428 0 0 1-.74-3.184l-3.27-20.155s-.4-2.943-.39-4.839c.02-4.509.6-7.156 2.35-11.29 1.8-4.246 3.37-6.518 6.67-9.677 3.5-3.368 6.03-4.839 10.58-6.426 3.52-1.232 5.68-1.607 9.4-1.639 4 .141 5.49.403 9.3 1.639 3.82 1.329 7.72 3.685 10.69 6.426 2.96 2.74 5.04 5.983 6.66 9.677s2.35 7.26 2.35 11.29c0 1.52-.16 3.337-.39 4.839l-3.88 19.862c-.23 1.184-.52 2.351-.93 3.486-.87 2.407-2.55 6.742-4.2 8.91-2.36 3.098-5.78 5.839-9.41 7.258Zm-40.95 43.035c-3.96 15.069-6.9 33.932-8.98 53.346L985 551l-78.5-70.5-9-32c-.667-2.833.1-7.8 4.5-9 4.4-1.2 7.833 1.5 9 3l24 35 50 39 30.75-36.078Zm78.64 211.565a39.999 39.999 0 0 0 13.63-8.987H1138c5.52 0 10-4.477 10-10v-79.5c0-3.038 2.46-5.5 5.5-5.5s5.5 2.462 5.5 5.5V679c0 8.284-6.72 15-15 15h-54.68l5.07-2.013ZM1043 712.385 1071.68 701H1141v199h-98V712.385Zm-52.499 20.836L1036 715.163V900h-36.499v-17.779c3.729 0 6.629-3.249 6.209-6.955l-1.21-10.545-13.999-131.5Zm3 144.009V900h-78.496l.052-3.099a9.999 9.999 0 0 1 6.71-9.277l21.234-7.394-23.925-154.291a30.002 30.002 0 0 1 12.749-29.387L1013 641.221l99.5-23v36.898a29.996 29.996 0 0 1-18.59 27.746l-112.737 46.356 17.17 142.548a4.877 4.877 0 0 1-4.842 5.461Zm-85.634 17.321-.351 5.449h-36.015v-4.069c0-4.059 2.454-7.715 6.21-9.254l20.79-8.516-12.328-177.824c-.976-14.077 7.991-26.931 21.538-30.877l91.79-26.739-75.336 51.328a30 30 0 0 0-12.753 29.4l23.589 151.772-17.227 6.175a15 15 0 0 0-9.907 13.155Zm188.633-405.83c13.91 29.977 26 121.5 26 121.5l-111.5 24-41.294 10.442a1.303 1.303 0 0 1-1.571-1.626 26.057 26.057 0 0 1 17.071-17.548l25.794-8.268 65-24-11.27-63.634a1.542 1.542 0 0 0-1.52-1.275c-.92 0-1.63.788-1.54 1.696l5.83 58.713-58.5 22.5c0-99.243 13.49-137.023 20.03-149.508 1.97-3.772 5.51-6.252 9.69-7.045 12.44-2.356 40.63-2.92 57.78 34.053ZM356 900h98V701h-98v199Zm316-330c-7.18 0-13 5.82-13 13s5.82 13 13 13h300c7.18 0 13-5.82 13-13s-5.82-13-13-13H672ZM468.5 683a5.5 5.5 0 1 1 0 11H353c-8.284 0-15-6.716-15-15v-85.5a5.5 5.5 0 0 1 11 0V673c0 5.523 4.477 10 10 10h109.5Z" fill="#000"/></svg>