<svg width="1300" height="1000" viewBox="0 0 1300 1000" fill="none" xmlns="http://www.w3.org/2000/svg">
<path d="M674 630H681V900H674V630Z" fill="black"/>
<path fill-rule="evenodd" clip-rule="evenodd" d="M468.5 698C475.404 698 481 703.596 481 710.5C481 717.404 475.404 723 468.5 723H351C339.954 723 331 714.046 331 703V615.5C331 608.596 336.596 603 343.5 603C350.404 603 356 608.596 356 615.5V693C356 695.761 358.239 698 361 698H468.5ZM468.5 705C471.538 705 474 707.462 474 710.5C474 713.538 471.538 716 468.5 716H353C344.716 716 338 709.284 338 701V615.5C338 612.462 340.463 610 343.5 610C346.538 610 349 612.462 349 615.5V695C349 700.523 353.477 705 359 705H468.5Z" fill="black"/>
<path d="M461 717H454V900H461V717Z" fill="black"/>
<path d="M356 717H349V900H356V717Z" fill="black"/>
<path d="M0 900H1300V1000H0V900Z" fill="black"/>
<path fill-rule="evenodd" clip-rule="evenodd" d="M672 590C660.954 590 652 598.954 652 610C652 621.046 660.954 630 672 630H972C983.046 630 992 621.046 992 610C992 598.954 983.046 590 972 590H672ZM672 597C664.82 597 659 602.82 659 610C659 617.18 664.82 623 672 623H972C979.18 623 985 617.18 985 610C985 602.82 979.18 597 972 597H672Z" fill="black"/>
<path d="M967 630H974V900H967V630Z" fill="black"/>
<path d="M729 538H914.5M800 562.186V580M844.297 562.186V580M743 563H901C909.284 563 916 556.284 916 548V442C916 433.716 909.284 427 901 427H743C734.716 427 728 433.716 728 442V548C728 556.284 734.716 563 743 563Z" stroke="black" stroke-width="7"/>
<path d="M759.5 585C759.5 581.41 762.41 578.5 766 578.5H879C882.59 578.5 885.5 581.41 885.5 585V587C885.5 590.59 882.59 593.5 879 593.5H766C762.41 593.5 759.5 590.59 759.5 587V585Z" stroke="black" stroke-width="7"/>
<path d="M659 610C659 602.82 664.82 597 672 597H972C979.18 597 985 602.82 985 610C985 617.18 979.18 623 972 623H672C664.82 623 659 617.18 659 610Z" fill="white"/>
</svg>
