<svg id="Capa_1" data-name="Capa 1" xmlns="http://www.w3.org/2000/svg" viewBox="0 0 1300 1000"><defs><style>.cls-1{fill:#fff;}</style></defs><title>2-landmarks-expand</title><path class="cls-1" d="M309.21,551.94l-3.64,2.31-27.15-39.47L277,512.65,271.35,518l-16.12-13.19L238.3,490.77c-2.67-2.2-5.34-4.44-8-6.68l-4.49-3.76-4.36-3.7-16.81-14.2-.09-.08A15.87,15.87,0,0,1,200.7,457c-.1-.2-.19-.41-.27-.62a1,1,0,0,1-.06-.16l-.13-.36-.15-.44-.57-1.85-1.17-3.78-4.65-15.09-4.5-15.14c-.86-3-1.73-6-2.58-9-.59-2-1.17-4.12-1.73-6.19h0l-.69-2.54-2.76,0h-6l0,3.14-.29,16.78-.4,16.74c-.12,5.6-.31,11.18-.47,16.78L173.75,472v.22l0,.32L176,491.9l2.1,19.36,2.16,19.36,2.33,19.2,1,19c.34,6.41.68,12.84,1.07,19.24.73,12.83,1.67,25.66,2,38.51l2.92,77.08.74,19.27c.16,3.22.16,6.43.25,9.65l.19,9.65.78,38.57c.47,24.89,1.08,49.77,1.65,74.64l-6.16.1,1.57,3.5,6.83,15.18.48,1,1.15.47,30.87,12.42-.81,2.91-63.59-.42-3.62,0h-1.31L157.77,874c-.17-2.06-.32-4.13-.43-6.19-.1-1.66-.16-3.31-.24-5l-.07-3.43-.09-1.78-.06-1.09h0l-5.76-63.78-2.77-32.44L147,744.1l-1.29-16.23c-.12-1.36-.18-2.72-.35-4l-.48-4.06-1-8.08L142,695.51l-3.67-32.34c-2.35-21.59-4.72-43.17-6.72-64.8l-.28-2.82h-13.7l-.28,2.82c-2,21.63-4.37,43.21-6.72,64.8l-3.68,32.34-1.89,16.17-1,8.08-.49,4.06c-.17,1.33-.23,2.69-.34,4L102,744.1l-1.38,16.22-2.76,32.44-5.77,63.78h0l0,1.09-.09,1.78-.08,3.43c-.08,1.66-.13,3.31-.23,5-.11,2.06-.26,4.13-.44,6.19l-.83,16.58H89l-3.62,0L21.81,891,21,888.12,51.87,875.7l1.15-.47.47-1L60.32,859l1.58-3.5-6.16-.1c.57-24.87,1.18-49.75,1.65-74.64l.78-38.57.19-9.65c.08-3.22.09-6.43.24-9.65l.75-19.27,2.92-77.08c.34-12.85,1.27-25.68,2-38.51.4-6.4.74-12.83,1.07-19.24l1-19,2.33-19.2,2.16-19.36,2.09-19.36,2.24-19.34,0-.32V472l-.5-16.76c-.15-5.6-.34-11.18-.47-16.78l-.4-16.74L73.54,405l-.05-3.14H64.87L57.51,427l0,.13L47.18,460.7l-.15.47,0,.54h0l4.4,81.52.1,1.9-.82,5.74L49,563.33l-16.8,16-4.29,4.07-2.06,2-3.17-1.91,6.21-14.76,5.41-12.88,4-9.6.06-.14,1-2.44H33.06l-2.25-13.84-1.49-9.14-2.51-16.28-1.26-8.17L21.8,471.75l-1.89-12.21-.46-3a15.5,15.5,0,0,1,1.05-7.73l.1-.33c4.49-12,8.91-24,13.42-36,.76-2.06,1.54-4.12,2.32-6.17l7.94-21,4-10.5,2-5.25,1-2.61.25-.64.23-.57c.15-.38.3-.75.47-1.12a35.1,35.1,0,0,1,5.17-8.22,40.08,40.08,0,0,1,3.36-3.54c.28-.27.66-.6,1-.88l.5-.46.42-.36.67-.55a1.39,1.39,0,0,0,.19-.15h0c.38-.32.8-.62,1.21-.93,1.06-.8,2.19-1.56,3.34-2.29a69.06,69.06,0,0,1,7.23-4A89.19,89.19,0,0,1,91,337.52,112.74,112.74,0,0,1,119.12,334h10.7A112.8,112.8,0,0,1,158,337.52a89.48,89.48,0,0,1,15.71,5.69,71.14,71.14,0,0,1,7.23,4c1.15.73,2.28,1.49,3.33,2.29.42.31.83.61,1.22.93h0c.06.06.13.1.19.15l.67.55.43.36.49.46c.34.28.71.61,1,.88a40.08,40.08,0,0,1,3.36,3.54,35.08,35.08,0,0,1,3.53,5,0,0,0,0,1,0,0c.41.75.78,1.51,1.14,2.28s.65,1.49.93,2.22l.94,2.55,2,5.19c1,2.6,2,5.18,3,7.76a2.44,2.44,0,0,0,.1.24c.31.78.63,1.56.93,2.34l16.34,41.33c2.75,6.89,5.57,13.75,8.34,20.62h0l.25.6.36.37,5.63,5.8,30.48,31.36,18,18.57c1.52,1.53,3,3.12,4.55,4.61l4.76,4.42,9.08,8.41Z"/><path class="cls-1" d="M152.27,262.07c0,.51-.09,1-.15,1.52l-.26,1.57c-.14.88-.34,1.78-.53,2.64s-.39,1.79-.55,2.7L146.88,291l-.16.57a18.84,18.84,0,0,1-1.75,4.19,18.35,18.35,0,0,1-10.52,8.27c-.79.23-1.69.43-2.31.55s-1.57.3-2.44.41a35.06,35.06,0,0,1-9,0c-.87-.11-1.69-.25-2.45-.41s-1.53-.32-2.3-.55a18.12,18.12,0,0,1-4.18-1.85,18.41,18.41,0,0,1-6.35-6.42,19.2,19.2,0,0,1-1.75-4.2l-.15-.51-3.91-20.56c-.16-.92-.36-1.83-.55-2.71s-.39-1.76-.54-2.64l-.24-1.57c-.07-.5-.13-1-.16-1.52a27.86,27.86,0,0,1-.05-3c.05-.42.08-.82.11-1.23,0-.64.1-1.24.19-1.81l.43-2.28c0-.14.08-.27.12-.42s.06-.18.09-.28a27,27,0,0,1,5.54-10.46,26.24,26.24,0,0,1,19-9l1.42,0h1.53a26.16,26.16,0,0,1,19.29,9,27.05,27.05,0,0,1,5.56,10.47,2.13,2.13,0,0,0,.08.27c.05.15.09.28.12.41L152,256c.09.6.14,1.2.19,1.84,0,.41.07.81.11,1.18A28.59,28.59,0,0,1,152.27,262.07Z"/><path d="M168.91,381.18v5.49c-3.52.31-7,.45-10.57.5-.05,3.52-.19,7.05-.5,10.57h-5.5c-.32-3.52-.45-7.05-.5-10.57-3.52-.05-7.06-.18-10.58-.5v-5.49c3.52-.33,7.06-.46,10.58-.5,0-3.53.18-7.06.5-10.59h5.5c.31,3.53.45,7.06.5,10.59C161.86,380.72,165.39,380.85,168.91,381.18Z"/><path d="M159.49,255.25l-.4-2.86c0-.23-.09-.45-.15-.67l-.07-.28a35.19,35.19,0,0,0-6.56-13.93,34.67,34.67,0,0,0-12-9.73,35.08,35.08,0,0,0-7.34-2.66,31.57,31.57,0,0,0-15.53,0,35.08,35.08,0,0,0-7.34,2.66,34.54,34.54,0,0,0-12,9.73,35.1,35.1,0,0,0-6.57,13.92l-.07.29c0,.22-.11.44-.15.68l-.4,2.85c-.09.88-.12,1.76-.15,2.61,0,.41,0,.81,0,1.25A34.05,34.05,0,0,0,91,263c.08.69.18,1.32.29,1.92l.36,1.79c.62,3.58,1.34,7.18,2,10.67l2.61,13.31.47,2.2.21.75a25.63,25.63,0,0,0,2.47,5.8,25.39,25.39,0,0,0,14.5,11.44c1.1.33,2.09.55,3,.73s1.92.35,2.92.49a45.82,45.82,0,0,0,5.41.34,43.67,43.67,0,0,0,5.4-.35c1-.13,2-.29,2.92-.48s1.88-.4,3-.73a25.67,25.67,0,0,0,5.73-2.55,25.06,25.06,0,0,0,11.24-14.69l.23-.78,3.06-15.48c.69-3.49,1.41-7.09,2-10.64l.38-1.83c.11-.59.2-1.22.29-1.91a34.13,34.13,0,0,0,.24-3.89c0-.4,0-.8-.05-1.21C159.62,257,159.59,256.13,159.49,255.25Zm-7.22,6.93c0,.51-.09,1-.16,1.52l-.25,1.58c-.15.87-.34,1.77-.53,2.63s-.4,1.8-.55,2.7l-3.9,20.52-.17.57a17.86,17.86,0,0,1-8.09,10.6,18.59,18.59,0,0,1-4.18,1.86c-.78.23-1.68.43-2.3.55s-1.57.29-2.44.41a35.06,35.06,0,0,1-9,0c-.87-.12-1.7-.26-2.45-.41s-1.52-.32-2.3-.55a18.52,18.52,0,0,1-4.17-1.86,17.8,17.8,0,0,1-8.1-10.61l-.15-.51-3.92-20.56c-.15-.91-.35-1.83-.54-2.71s-.39-1.76-.54-2.64l-.25-1.56c-.06-.51-.12-1-.15-1.53a25.46,25.46,0,0,1,0-3c0-.41.07-.82.11-1.23,0-.63.1-1.23.18-1.81l.44-2.27a3.31,3.31,0,0,1,.12-.42c0-.09,0-.18.08-.28a27.2,27.2,0,0,1,5.55-10.46,26.14,26.14,0,0,1,19-9l1.41,0,1,0h.57a25.64,25.64,0,0,1,9.9,2.14,26,26,0,0,1,9.38,6.89,26.9,26.9,0,0,1,5.55,10.47l.09.27a3.59,3.59,0,0,1,.11.41l.44,2.26c.09.6.14,1.2.19,1.83,0,.41.06.82.11,1.19C152.35,260.1,152.34,261.13,152.27,262.18Z"/><polygon points="275.01 521.2 275.02 521.22 272.01 523.61 275.01 521.2"/><polygon points="276.52 512.13 270.85 517.72 270.84 517.71 276.52 512.13"/><path d="M318.11,552.73,305.9,518.5l-.22-.61-.38-.36L296,508.64l-4.68-4.44c-1.54-1.51-3-3.12-4.47-4.67L269,480.75l-35.16-37.14-14.81-41.27-7.51-20.91L207.79,371l-1.87-5.23c-.32-.88-.6-1.72-.95-2.65s-.72-1.83-1.14-2.73l-.64-1.35h0a42.5,42.5,0,0,0-4.86-7.81,45.47,45.47,0,0,0-4-4.49c-.36-.36-.69-.67-1-1l-.51-.49-.57-.53c-.38-.35-.76-.67-1.15-1s-.76-.64-1.14-.94a72.4,72.4,0,0,0-9.89-6.51l-2-1.1-1.28-.64-.21-.12a101.43,101.43,0,0,0-15.75-6.25,129.1,129.1,0,0,0-72.68,0,101,101,0,0,0-15.75,6.25,1.19,1.19,0,0,0-.22.12l-1.27.64c-.68.36-1.34.73-2,1.1A73.64,73.64,0,0,0,59,342.75c-.39.3-.77.61-1.15.94s-.76.65-1.14,1l-.57.53-.52.49c-.34.34-.68.65-1,1a46.91,46.91,0,0,0-4,4.49,43.77,43.77,0,0,0-6,10.38L15,447.15l.1-.31a21.82,21.82,0,0,0-1.36,6.93,20.85,20.85,0,0,0,.19,3.54c.18,1.06.37,2.05.53,3.08l2.14,12.2L20.9,497l4.28,24.39,1.63,9,2.78,15.37.32,1.76.74,0,1,0,2,0-3,5.54-3.73,6.78L13.59,583.87h0l-1.42,2.49,15.1,9.77,2.19-2.36,1-1.1,4.77-5.18L48.61,573l5.45-5.91h0l.74-.88.07-.6,2.34-20.13h0l0-.13v-.08h0l-2.32-39.65-2.57-43.72,9.81-32.69,6.49-21.62.23,13.09v.54l1.2,50.88v0l-10.34,77v.2l-2.29,38.45-1.15,19.29L56,611.87c-.08,1.6-.1,3.21-.16,4.82l-.31,9.66L54.3,664.94l-1.09,38.59-.54,19.29c-.12,3.23-.1,6.44-.15,9.66l-.08,9.65-.38,38.6-.65,77.2v1.69h1.66l2.24,0-6.57,10.8-16,6.05-8.47,3.2c-2.82,1.08-5.66,2.12-8.47,3.23l-2.17.84v17.45H17l77.58,0h3.48v-3.46l0-10,0-10L98.14,858v0l11.27-129.45c.13-1.35.22-2.7.39-4l.5-4,1-8.07,2-16.13L117.49,664l7-54.83,7,54.83,4.1,32.28,2,16.13,1,8.07.52,4c.17,1.34.25,2.69.38,4L150.8,858v0l.06,19.84,0,10,0,10v3.46h3.47l77.59,0h3.42V883.71l-2.17-.84c-2.8-1.11-5.64-2.15-8.46-3.23l-8.47-3.2-16-6.05-6.57-10.8,2.24,0h1.66v-1.69l-.65-77.2-.38-38.6-.09-9.65c0-3.22,0-6.43-.14-9.66l-.54-19.29-1.08-38.59-1.23-38.59-.31-9.66c-.05-1.61-.08-3.22-.16-4.82l-.29-4.81-1.15-19.29-2.3-38.45v-.2l-10.34-77v.1l0-.23,0,.13,1.19-50.88v-.54l.24-13.08,1.66,5.56,2.42,8,4.62,15.1,4.62,15.09,1.16,3.78.59,1.92.15.49.21.56c.14.35.27.69.42,1a21.53,21.53,0,0,0,5.17,7.15l.28.25.4.36h.06l22.82,19.56,4.35,3.73,39,33.41,1.84,1.57,1.69-1.34.27-.22,3-2.41v0l26,40.84,2.1,3.29,3.52-2.06,9.59-5.6,3.05-1.78Zm-199-218.66h10.69a119.87,119.87,0,0,1,16.42,1.19l-21,31.84L104.3,335A120.13,120.13,0,0,1,119.12,334.07ZM50.76,550.94,49,563.39l-16.8,16-4.28,4.07-2.07,2-3.16-1.9,6.2-14.77,5.42-12.87,3.55-8.45H51.26ZM91.84,862.85c-.08,1.66-.13,3.31-.23,5q-.18,3.09-.43,6.18l-.84,16.58H89l-3.63,0L21.83,891,21,888.12,51.88,875.7l1.15-.46.48-1,6.66-14.79H91.91Zm103.59,11.36.48,1,1.15.46,30.87,12.42-.82,2.91-63.57-.41-3.62,0H158.6L157.77,874q-.27-3.09-.44-6.18c-.1-1.67-.15-3.32-.23-5l-.07-3.42h31.75ZM183.59,568.87q.48,9.63,1.07,19.24c.72,12.83,1.66,25.65,2,38.5l2.92,77.07.74,19.27c.15,3.22.16,6.43.25,9.64l.2,9.65.76,38.57c.47,24,1.05,48,1.59,72l-17.82-1-18.75,1.08-5.44-60.1-2.76-32.44L147,744.12l-1.28-16.22c-.11-1.36-.18-2.71-.35-4l-.49-4.05-1-8.08L142,695.56l-3.67-32.35c-2.35-21.59-4.72-43.16-6.72-64.79l-.27-2.81H117.62l-.28,2.81c-2,21.63-4.37,43.2-6.71,64.79L107,695.56l-1.9,16.16-1,8.08-.48,4.05c-.16,1.34-.23,2.69-.35,4L102,744.12l-1.37,16.23-2.77,32.44-5.42,60-17.42-1-19.17,1.09c.55-24,1.14-48.07,1.6-72.1l.77-38.57.2-9.65c.08-3.21.09-6.42.23-9.64l.76-19.27,2.91-77.07c.34-12.85,1.28-25.67,2-38.5.4-6.41.74-12.82,1.07-19.24l.83-15.76,116.58,0Zm-1-18.86,0-.13,0-.56Zm88.24-32.29h0l-.72-.59-4.77-3.9-10.14-8.3-16.93-14.07c-2.67-2.21-5.33-4.45-8-6.69l-4.48-3.75-4.37-3.7-16.8-14.2-.09-.07a16.34,16.34,0,0,1-3.87-5.36c-.1-.21-.18-.43-.27-.63a.76.76,0,0,0-.06-.16l-.12-.36-.15-.44-.57-1.85-1.17-3.78-4.65-15.09-4.51-15.14q-1.29-4.5-2.57-9c-.59-2.07-1.17-4.13-1.74-6.2h0l-.69-2.54h-2.76l-2.59,0h-3.38l0,3.14-.3,16.77-.4,16.75c-.12,5.59-.3,11.18-.46,16.76l-.5,16.76v.23l0,.32L176,492l2.1,19.36,2.16,19.35L182,545.18l-56.74-3.45s-45.38,2.72-58.37,3.53l1.77-14.57,2.16-19.35L72.93,492l2.24-19.34,0-.32v-.23l-.49-16.76c-.16-5.58-.36-11.17-.48-16.76l-.39-16.75-.29-16.77-.06-3.14H64.87l-7.35,25.16,0,.14L47.2,460.77l-.15.49,0,.53h0l4.31,80-7.9-.79-10.67,1.09-2-12.27-1.48-9.14-2.51-16.28-1.25-8.16-3.77-24.44-1.88-12.22-.45-3a16.48,16.48,0,0,1-.09-2.63,16.17,16.17,0,0,1,1.13-5.08l.1-.34c4.49-12,8.91-24,13.41-36,.77-2.06,1.55-4.12,2.32-6.17l7.94-21,4-10.5,2-5.25,1-2.62.24-.63.23-.57c.15-.38.31-.75.48-1.12a35.18,35.18,0,0,1,5.16-8.22,41.68,41.68,0,0,1,3.36-3.54c.28-.27.67-.6,1-.89l.5-.46.43-.35c.19-.18.42-.36.66-.55l.2-.15h0c.37-.31.79-.62,1.2-.94,1.06-.79,2.18-1.55,3.34-2.28a71,71,0,0,1,7.22-4A92.3,92.3,0,0,1,91,337.61c2.4-.63,4.82-1.16,7.26-1.62l24.51,39.62,2.42,3.91,2.45-3.9,24.68-39.33q2.88.58,5.72,1.32a91.89,91.89,0,0,1,15.7,5.7,70.09,70.09,0,0,1,7.23,4c1.15.73,2.28,1.49,3.33,2.28l1.22.94h0l.2.15c.23.19.46.37.66.55l.43.35.49.46c.33.29.71.62,1,.89a40.27,40.27,0,0,1,3.37,3.54,33.72,33.72,0,0,1,3.52,5h0c.42.75.79,1.51,1.15,2.28s.65,1.48.93,2.22l1,2.55,2,5.19c1,2.59,2,5.18,3,7.75l.09.24.93,2.35,8.17,20.66,8.17,20.66c2.74,6.89,5.56,13.74,8.34,20.61h0l.24.6.36.37,5.64,5.79,30.46,31.35,18,18.57c.85.86,1.68,1.73,2.52,2.59l-7.83,5.07-.82.81-1,.95h0Zm34.69,36.59L280,517.22l10.13-8.06,2.79,2.59,9.08,8.39L309.18,552Z"/><polygon points="182.61 550.01 182.59 549.88 182.56 549.32 182.61 550.01"/></svg>