<svg id="Capa_1" data-name="Capa 1" xmlns="http://www.w3.org/2000/svg" viewBox="0 0 1300 1000"><defs><style>.cls-1{fill:#fff;}</style></defs><title>2-landmarks-expand</title><path class="cls-1" d="M1281,551.94l-3.63,2.31-27.15-39.47-1.47-2.13-5.61,5.39L1227,504.85l-16.92-14.08c-2.68-2.2-5.34-4.44-8-6.68l-4.49-3.76-4.36-3.7-16.8-14.2-.09-.08a15.9,15.9,0,0,1-3.87-5.36c-.1-.2-.18-.41-.27-.62l-.06-.16-.13-.36-.15-.44-.56-1.85-1.17-3.78-4.66-15.09-4.5-15.14c-.86-3-1.73-6-2.57-9-.6-2-1.17-4.12-1.74-6.19h0l-.69-2.54-2.76,0h-6l-.06,3.14-.28,16.78-.4,16.74c-.12,5.6-.32,11.18-.47,16.78l-.5,16.76v.22l0,.32,2.24,19.34,2.09,19.36,2.16,19.36,2.33,19.2,1,19c.33,6.41.68,12.84,1.07,19.24.73,12.83,1.66,25.66,2,38.51l2.92,77.08.75,19.27c.15,3.22.16,6.43.24,9.65l.2,9.65.77,38.57c.47,24.89,1.08,49.77,1.65,74.64l-6.16.1,1.58,3.5,6.83,15.18.47,1,1.16.47,30.86,12.42-.81,2.91-63.58-.42-3.63,0h-1.3l-.84-16.58c-.18-2.06-.33-4.13-.44-6.19-.1-1.66-.15-3.31-.23-5l-.08-3.43-.09-1.78,0-1.09h0l-5.77-63.78-2.76-32.44-1.38-16.22-1.29-16.23c-.11-1.36-.17-2.72-.34-4l-.49-4.06-1-8.08-1.89-16.17-3.68-32.34c-2.35-21.59-4.71-43.17-6.72-64.8l-.27-2.82h-13.71l-.28,2.82c-2,21.63-4.37,43.21-6.72,64.8l-3.67,32.34-1.9,16.17-1,8.08-.48,4.06c-.17,1.33-.23,2.69-.35,4l-1.29,16.23-1.37,16.22-2.77,32.44-5.76,63.78h0l0,1.09-.1,1.78-.07,3.43c-.08,1.66-.13,3.31-.23,5-.12,2.06-.27,4.13-.44,6.19l-.84,16.58h-1.31l-3.62,0-63.58.42-.82-2.91,30.87-12.42,1.15-.47.48-1,6.83-15.18,1.57-3.5-6.16-.1c.57-24.87,1.19-49.75,1.65-74.64l.78-38.57.19-9.65c.09-3.22.09-6.43.25-9.65l.74-19.27,2.92-77.08c.34-12.85,1.28-25.68,2-38.51.39-6.4.74-12.83,1.07-19.24l1-19,2.33-19.2,2.16-19.36,2.1-19.36,2.23-19.34,0-.32V472l-.5-16.76c-.16-5.6-.35-11.18-.47-16.78l-.4-16.74-.29-16.78,0-3.14h-8.62L1029.31,427l0,.13L1019,460.7l-.15.47,0,.54h0l4.39,81.52.1,1.9-.81,5.74-1.78,12.45-16.81,16-4.28,4.07-2.07,2-3.16-1.91,6.2-14.76,5.42-12.88,4-9.6.06-.14,1.05-2.44h-6.35l-2.25-13.84-1.48-9.14-2.51-16.28-1.26-8.17-3.76-24.44-1.88-12.21-.46-3a18,18,0,0,1-.1-2.64,16.54,16.54,0,0,1,1.15-5.09l.1-.33c4.49-12,8.9-24,13.41-36,.76-2.06,1.55-4.12,2.32-6.17l7.94-21,4-10.5,2-5.25,1-2.61.25-.64.23-.57c.15-.38.31-.75.48-1.12a35.06,35.06,0,0,1,5.16-8.22,38.78,38.78,0,0,1,3.37-3.54c.28-.27.66-.6,1-.88l.5-.46.42-.36.67-.55a1.39,1.39,0,0,0,.19-.15h0c.39-.32.8-.62,1.22-.93,1-.8,2.18-1.56,3.33-2.29a71.14,71.14,0,0,1,7.23-4,89.48,89.48,0,0,1,15.71-5.69,112.82,112.82,0,0,1,28.18-3.54h10.69a112.74,112.74,0,0,1,28.17,3.54,89.19,89.19,0,0,1,15.71,5.69,69.06,69.06,0,0,1,7.23,4c1.16.73,2.29,1.49,3.34,2.29.41.31.83.61,1.21.93h0a1.39,1.39,0,0,0,.19.15l.67.55.42.36.5.46c.33.28.71.61,1,.88a41.72,41.72,0,0,1,3.37,3.54,35,35,0,0,1,3.52,5,0,0,0,0,1,0,0c.41.75.78,1.51,1.14,2.28s.65,1.49.93,2.22l1,2.55,2,5.19c1,2.6,2,5.18,3,7.76l.09.24q.48,1.17.93,2.34l16.35,41.33c2.74,6.89,5.56,13.75,8.33,20.62h0l.25.6.36.37,5.63,5.8,30.48,31.36,18,18.57c1.52,1.53,3,3.12,4.55,4.61l4.75,4.42,9.08,8.41Z"/><path class="cls-1" d="M1124.07,262.07c0,.51-.1,1-.16,1.52l-.25,1.57c-.15.88-.35,1.78-.53,2.64s-.4,1.79-.55,2.7L1118.67,291l-.16.57a17.8,17.8,0,0,1-8.1,10.61,18.05,18.05,0,0,1-4.17,1.85c-.78.23-1.69.43-2.3.55s-1.58.3-2.45.41a35.06,35.06,0,0,1-9,0c-.87-.11-1.69-.25-2.44-.41s-1.53-.32-2.31-.55a17.92,17.92,0,0,1-12.27-12.47l-.15-.51-3.92-20.56c-.15-.92-.35-1.83-.54-2.71s-.4-1.76-.54-2.64l-.25-1.57c-.07-.5-.12-1-.15-1.52a28,28,0,0,1-.06-3c.05-.42.08-.82.11-1.23.06-.64.1-1.24.19-1.81l.43-2.28c0-.14.08-.27.13-.42s0-.18.08-.28a27.06,27.06,0,0,1,5.55-10.46,26.24,26.24,0,0,1,19-9l1.42,0h1.53a26.21,26.21,0,0,1,19.29,9,26.9,26.9,0,0,1,5.55,10.47l.09.27c0,.15.08.28.11.41l.43,2.26c.1.6.14,1.2.2,1.84,0,.41.06.81.1,1.18A28.51,28.51,0,0,1,1124.07,262.07Z"/><path d="M1140.71,381.18v5.49c-3.53.31-7,.45-10.58.5-.05,3.52-.18,7.05-.5,10.57h-5.49c-.32-3.52-.46-7.05-.5-10.57-3.53-.05-7.06-.18-10.59-.5v-5.49c3.53-.33,7.06-.46,10.59-.5,0-3.53.18-7.06.5-10.59h5.49c.32,3.53.45,7.06.5,10.59C1133.66,380.72,1137.18,380.85,1140.71,381.18Z"/><path d="M1131.29,255.25l-.41-2.86a5,5,0,0,0-.15-.67l-.07-.28a34.92,34.92,0,0,0-6.56-13.93,34.54,34.54,0,0,0-12-9.73,35.08,35.08,0,0,0-7.34-2.66,31.61,31.61,0,0,0-15.54,0,34.72,34.72,0,0,0-25.9,26.31l-.07.29a4.82,4.82,0,0,0-.15.68l-.4,2.85c-.1.88-.13,1.76-.16,2.61,0,.41,0,.81,0,1.25a34.05,34.05,0,0,0,.25,3.85c.09.69.18,1.32.29,1.92l.37,1.79c.62,3.58,1.33,7.18,2,10.67l2.61,13.31.46,2.2.21.75a25.63,25.63,0,0,0,2.47,5.8,25.34,25.34,0,0,0,8.78,8.89,25.67,25.67,0,0,0,5.73,2.55c1.1.33,2.08.55,3,.73s1.91.35,2.92.49a45.52,45.52,0,0,0,5.4.34,43.83,43.83,0,0,0,5.41-.35c1-.13,2-.29,2.92-.48s1.87-.4,3-.73a25.79,25.79,0,0,0,5.72-2.55,25.25,25.25,0,0,0,8.78-8.89,25.63,25.63,0,0,0,2.47-5.8l.22-.78,3.07-15.48c.69-3.49,1.4-7.09,2-10.64l.37-1.83c.11-.59.21-1.22.29-1.91a34.15,34.15,0,0,0,.25-3.89c0-.4,0-.8,0-1.21C1131.41,257,1131.38,256.13,1131.29,255.25Zm-7.23,6.93c0,.51-.09,1-.15,1.52l-.26,1.58c-.14.87-.34,1.77-.53,2.63s-.39,1.8-.54,2.7l-3.91,20.52-.16.57a17.83,17.83,0,0,1-8.1,10.6,18.52,18.52,0,0,1-4.17,1.86c-.78.23-1.69.43-2.3.55-.76.15-1.58.29-2.44.41a35.14,35.14,0,0,1-9,0c-.87-.12-1.69-.26-2.44-.41s-1.52-.32-2.3-.55a18,18,0,0,1-12.28-12.47l-.15-.51-3.91-20.56c-.15-.91-.36-1.83-.55-2.71s-.39-1.76-.53-2.64l-.25-1.56c-.07-.51-.12-1-.16-1.53a27.82,27.82,0,0,1-.05-3c0-.41.08-.82.11-1.23,0-.63.1-1.23.19-1.81l.43-2.27c0-.14.08-.28.12-.42l.09-.28a26.93,26.93,0,0,1,5.55-10.46,26.1,26.1,0,0,1,19-9l1.42,0,1,0h.57a25.64,25.64,0,0,1,9.9,2.14,26,26,0,0,1,9.39,6.89,27.16,27.16,0,0,1,5.55,10.47,2.76,2.76,0,0,0,.08.27,3.71,3.71,0,0,1,.12.41l.43,2.26c.09.6.14,1.2.19,1.83,0,.41.07.82.11,1.19A28.4,28.4,0,0,1,1124.06,262.18Z"/><polygon points="1246.8 521.2 1246.81 521.22 1243.81 523.61 1246.8 521.2"/><polygon points="1248.32 512.13 1242.65 517.72 1242.63 517.71 1248.32 512.13"/><path d="M1289.9,552.73l-12.21-34.23-.21-.61-.38-.36-9.36-8.89-4.68-4.44c-1.53-1.51-3-3.12-4.47-4.67l-17.77-18.78-35.17-37.14-14.81-41.27-7.5-20.91L1179.58,371l-1.86-5.23c-.33-.88-.6-1.72-1-2.65s-.72-1.83-1.13-2.73c-.21-.45-.43-.89-.64-1.35h0a42.45,42.45,0,0,0-4.85-7.81,46.91,46.91,0,0,0-4-4.49c-.35-.36-.69-.67-1-1l-.51-.49-.58-.53c-.37-.35-.76-.67-1.14-1s-.76-.64-1.15-.94a72.4,72.4,0,0,0-9.89-6.51c-.67-.37-1.34-.74-2-1.1l-1.27-.64a1.57,1.57,0,0,0-.21-.12,101.14,101.14,0,0,0-15.76-6.25,129.07,129.07,0,0,0-72.67,0,101.54,101.54,0,0,0-15.76,6.25,1.57,1.57,0,0,0-.21.12l-1.28.64-2,1.1a72.92,72.92,0,0,0-9.88,6.51c-.39.3-.77.61-1.15.94s-.77.65-1.15,1l-.57.53-.51.49c-.35.34-.69.65-1.05,1a48.22,48.22,0,0,0-3.95,4.49,43.43,43.43,0,0,0-6,10.38l-29.59,85.56.1-.31a21.55,21.55,0,0,0-1.36,6.93,20.85,20.85,0,0,0,.19,3.54c.18,1.06.36,2.05.53,3.08l2.13,12.2L992.69,497,997,521.37l1.63,9,2.79,15.37.31,1.76.75,0,1,0,2,0-3.05,5.54-3.73,6.78-13.27,24.13h0L984,586.37l15.1,9.77,2.18-2.36,1-1.1,4.77-5.18L1020.4,573l5.45-5.91h0l.75-.88.07-.6,2.34-20.13h0l0-.13v-.08h0l-2.32-39.65-2.56-43.72,9.8-32.69,6.49-21.62.23,13.09v.54l1.19,50.88,0-.13,0,.23v-.1l-10.34,77v.2l-2.29,38.45-1.16,19.29-.28,4.81c-.08,1.6-.11,3.21-.17,4.82l-.31,9.66-1.22,38.59L1025,703.53l-.55,19.29c-.11,3.23-.1,6.44-.14,9.66l-.09,9.65-.37,38.6-.66,77.2v1.69h1.66l2.25,0-6.57,10.8-16,6.05-8.48,3.2c-2.81,1.08-5.66,2.12-8.46,3.23l-2.17.84v17.45h3.42l77.59,0h3.48v-3.46l0-10,0-10,.06-19.84,0,.17,0-.27v.1l11.27-129.45c.13-1.35.21-2.7.38-4l.51-4,1-8.07,2-16.13,4.1-32.28,7-54.83,7,54.83,4.11,32.28,2.05,16.13,1,8.07.51,4c.17,1.34.25,2.69.39,4L1122.59,858v-.1l0,.27,0-.17.07,19.84,0,10,0,10v3.46h3.47l77.59,0h3.42V883.71l-2.18-.84c-2.8-1.11-5.63-2.15-8.45-3.23l-8.48-3.2-16-6.05-6.56-10.8,2.24,0h1.65v-1.69l-.64-77.2-.39-38.6-.08-9.65c0-3.22,0-6.43-.15-9.66l-.54-19.29-1.08-38.59-1.23-38.59-.31-9.66c-.05-1.61-.07-3.22-.16-4.82l-.28-4.81-1.15-19.29-2.3-38.45v-.2l-10.34-77v0l1.2-50.88v-.54l.24-13.08,1.67,5.56,2.42,8,4.61,15.1,4.63,15.09,1.16,3.78.58,1.92.16.49.2.56c.14.35.28.69.43,1a21.39,21.39,0,0,0,5.17,7.15l.27.25.41.36h0l22.82,19.56,4.35,3.73,39,33.41,1.84,1.57,1.68-1.34.28-.22,3-2.41v0l26,40.84,2.1,3.29,3.53-2.06,9.58-5.6,3-1.78Zm-199-218.66h10.69a119.61,119.61,0,0,1,16.41,1.19l-21,31.84L1076.09,335A120.17,120.17,0,0,1,1090.92,334.07Zm-68.37,216.87-1.78,12.45-16.8,16-4.29,4.07-2.06,2-3.17-1.9,6.21-14.77,5.41-12.87,3.55-8.45h13.43Zm41.08,311.91c-.08,1.66-.13,3.31-.23,5q-.17,3.09-.43,6.18l-.84,16.58h-1.31l-3.63,0-63.57.41-.81-2.91,30.86-12.42,1.15-.46.48-1,6.66-14.79h31.75Zm103.59,11.36.49,1,1.15.46,30.86,12.42-.82,2.91-63.57-.41-3.62,0h-1.31l-.84-16.58c-.18-2.06-.32-4.12-.44-6.18-.1-1.67-.15-3.32-.23-5l-.07-3.42h31.75Zm-11.83-305.34c.32,6.42.66,12.83,1.06,19.24.73,12.83,1.66,25.65,2,38.5l2.91,77.07.75,19.27c.15,3.22.16,6.43.24,9.64l.2,9.65.77,38.57c.46,24,1,48,1.59,72l-17.83-1-18.74,1.08-5.44-60.1-2.77-32.44-1.37-16.23-1.28-16.22c-.12-1.36-.19-2.71-.36-4l-.48-4.05-1-8.08-1.9-16.16-3.67-32.35c-2.35-21.59-4.71-43.16-6.72-64.79l-.27-2.81h-13.71l-.28,2.81c-2,21.63-4.37,43.2-6.71,64.79l-3.68,32.35-1.9,16.16-1,8.08-.48,4.05c-.17,1.34-.24,2.69-.35,4l-1.29,16.22-1.37,16.23-2.77,32.44-5.43,60-17.42-1-19.16,1.09c.55-24,1.13-48.07,1.59-72.1l.77-38.57.2-9.65c.09-3.21.09-6.42.24-9.64l.75-19.27,2.91-77.07c.34-12.85,1.29-25.67,2-38.5q.59-9.61,1.07-19.24l.83-15.76,116.58,0Zm-1-18.86v-.13l0-.56Zm88.25-32.29h0l-.72-.59-4.77-3.9-10.14-8.3-16.92-14.07c-2.67-2.21-5.33-4.45-8-6.69l-4.48-3.75-4.37-3.7-16.8-14.2-.09-.07a16.31,16.31,0,0,1-3.86-5.36c-.1-.21-.19-.43-.27-.63l-.06-.16-.13-.36-.14-.44-.58-1.85-1.17-3.78-4.65-15.09-4.5-15.14c-.86-3-1.73-6-2.57-9-.6-2.07-1.17-4.13-1.74-6.2h0l-.69-2.54h-2.76l-2.59,0h-3.38l0,3.14-.29,16.77-.4,16.75c-.12,5.59-.31,11.18-.47,16.76l-.5,16.76v.23l0,.32L1147.8,492l2.09,19.36,2.16,19.35,1.77,14.49-56.74-3.45s-45.39,2.72-58.38,3.53l1.78-14.57,2.15-19.35,2.1-19.36,2.23-19.34,0-.32v-.23l-.49-16.76c-.16-5.58-.35-11.17-.47-16.76l-.4-16.75-.29-16.77,0-3.14h-8.62l-7.35,25.16,0,.14L1019,460.77l-.15.49,0,.53h0l4.31,80-7.91-.79-10.67,1.09-2-12.27-1.49-9.14-2.51-16.28-1.25-8.16-3.76-24.44-1.88-12.22-.46-3a16.48,16.48,0,0,1-.09-2.63,16.18,16.18,0,0,1,1.14-5.08l.1-.34c4.48-12,8.91-24,13.41-36q1.15-3.09,2.32-6.17l7.93-21,4-10.5,2-5.25,1-2.62.24-.63.23-.57c.16-.38.31-.75.49-1.12a34.54,34.54,0,0,1,5.16-8.22,38.74,38.74,0,0,1,3.36-3.54c.28-.27.66-.6,1-.89l.5-.46.43-.35c.19-.18.42-.36.66-.55l.2-.15h0c.38-.31.79-.62,1.21-.94,1-.79,2.18-1.55,3.33-2.28a71.14,71.14,0,0,1,7.23-4,91.69,91.69,0,0,1,15.71-5.7c2.39-.63,4.81-1.16,7.26-1.62l24.5,39.62,2.43,3.91,2.45-3.9,24.68-39.33q2.88.58,5.71,1.32a91.89,91.89,0,0,1,15.7,5.7,68.07,68.07,0,0,1,7.23,4c1.16.73,2.28,1.49,3.34,2.28.42.32.83.63,1.21.94h0l.2.15c.23.19.46.37.66.55l.43.35.49.46,1,.89a38.74,38.74,0,0,1,3.36,3.54,33.78,33.78,0,0,1,3.53,5h0q.61,1.13,1.14,2.28c.34.73.65,1.48.93,2.22l1,2.55,2,5.19c1,2.59,2,5.18,3,7.75l.09.24c.31.78.63,1.56.93,2.35l8.18,20.66,8.17,20.66c2.73,6.89,5.55,13.74,8.33,20.61h0l.24.6.36.37,5.64,5.79,30.47,31.35,18,18.57c.84.86,1.67,1.73,2.52,2.59l-7.84,5.07-.82.81-1,.95h0Zm34.69,36.59-25.52-37.09,10.12-8.06,2.79,2.59,9.08,8.39L1281,552Z"/><polygon points="1154.4 550.01 1154.39 549.88 1154.36 549.32 1154.4 550.01"/></svg>