<svg id="Capa_1" data-name="Capa 1" xmlns="http://www.w3.org/2000/svg" viewBox="0 0 1300 1000"><title>2-landmarks-expand</title><rect y="900" width="1300" height="100"/><path d="M1262.62,900h-8V140.13a17.58,17.58,0,0,0-17.56-17.56h-610a17.58,17.58,0,0,0-17.56,17.56V900h-8V140.13a25.59,25.59,0,0,1,25.56-25.56h610a25.59,25.59,0,0,1,25.56,25.56Z"/><path d="M967.2,603.44H632.94a8.07,8.07,0,0,1-8.05-8.06V571a8.06,8.06,0,0,1,8.05-8H967.2a8.07,8.07,0,0,1,8.06,8v24.37A8.07,8.07,0,0,1,967.2,603.44ZM632.94,571l-.05,24.42,334.31.06a.06.06,0,0,0,.06-.06V571Z"/><path d="M1197.72,900h-8V455.13l-12.71-.06L1177,900h-8V455.13a8.07,8.07,0,0,1,8-8.06h12.66a8.07,8.07,0,0,1,8,8.06Z"/><path d="M1168.9,754.71H1001.1a8.06,8.06,0,0,1-8.05-8.05V694.49a8.06,8.06,0,0,1,8.05-8h167.8a8.07,8.07,0,0,1,8.06,8v52.17A8.07,8.07,0,0,1,1168.9,754.71Zm-167.8-60.27-.05,52.22,167.85.05a.06.06,0,0,0,.06-.05V694.49Z"/><path d="M660.89,900h-8V603.44H640.47V900h-8V599.44a4,4,0,0,1,4-4h20.42a4,4,0,0,1,4,4Z"/><path d="M967.94,900h-8V603.44H947.51V900h-8V599.44a4,4,0,0,1,4-4h20.43a4,4,0,0,1,4,4Z"/><path d="M1029.21,900h-8V754.71h-12.76V900h-8V750.71a4,4,0,0,1,4-4h20.76a4,4,0,0,1,4,4Z"/><path d="M1300,93H589.58A25.59,25.59,0,0,1,564,67.44V0h8V67.44A17.58,17.58,0,0,0,589.58,85H1300Z"/><path d="M664.1,141.86c-14.67,0-26.6-14.13-26.6-31.49s11.93-31.49,26.6-31.49S690.71,93,690.71,110.37a36.92,36.92,0,0,1-1.12,9.06l-6.78-1.71a30,30,0,0,0,.9-7.35c0-13.51-8.8-24.49-19.61-24.49s-19.6,11-19.6,24.49,8.79,24.49,19.6,24.49Z"/><path d="M773.25,141.86c-14.67,0-26.6-14.13-26.6-31.49s11.93-31.49,26.6-31.49S799.86,93,799.86,110.37a37,37,0,0,1-1.12,9.06L792,117.72a30,30,0,0,0,.9-7.35c0-13.51-8.8-24.49-19.61-24.49s-19.6,11-19.6,24.49,8.79,24.49,19.6,24.49Z"/><path d="M882.4,141.86c-14.67,0-26.6-14.13-26.6-31.49s11.93-31.49,26.6-31.49S909,93,909,110.37a37,37,0,0,1-1.12,9.06l-6.78-1.71a30,30,0,0,0,.9-7.35c0-13.51-8.8-24.49-19.61-24.49s-19.6,11-19.6,24.49,8.79,24.49,19.6,24.49Z"/><path d="M991.55,141.86c-14.67,0-26.6-14.13-26.6-31.49s11.93-31.49,26.6-31.49,26.61,14.12,26.61,31.49a37,37,0,0,1-1.12,9.06l-6.78-1.71a30,30,0,0,0,.9-7.35c0-13.51-8.8-24.49-19.61-24.49s-19.6,11-19.6,24.49,8.79,24.49,19.6,24.49Z"/><path d="M1100.7,141.86c-14.66,0-26.6-14.13-26.6-31.49s11.94-31.49,26.6-31.49,26.61,14.12,26.61,31.49a37,37,0,0,1-1.12,9.06l-6.78-1.71a30,30,0,0,0,.9-7.35c0-13.51-8.8-24.49-19.61-24.49s-19.6,11-19.6,24.49,8.79,24.49,19.6,24.49Z"/><path d="M1209.85,141.86c-14.67,0-26.6-14.13-26.6-31.49s11.93-31.49,26.6-31.49,26.61,14.12,26.61,31.49a37,37,0,0,1-1.12,9.06l-6.78-1.71a30,30,0,0,0,.9-7.35c0-13.51-8.8-24.49-19.61-24.49s-19.6,11-19.6,24.49,8.79,24.49,19.6,24.49Z"/></svg>