<svg id="Capa_1" data-name="Capa 1" xmlns="http://www.w3.org/2000/svg" viewBox="0 0 1300 1000"><defs><style>.cls-1{fill:#be1622;}.cls-2{fill:#fff;}</style></defs><title>2-landmarks-expand</title><polygon class="cls-1" points="16.75 415.2 16.74 415.9 16.73 415.9 16.75 415.2"/><polygon class="cls-1" points="16.82 415.39 16.81 416.09 16.8 416.09 16.82 415.39"/><path class="cls-2" d="M167.44,262.18c0,.51-.08,1-.14,1.52l-.26,1.59c-.14.88-.35,1.77-.54,2.63s-.39,1.81-.55,2.72L162,291.23l-.16.57a18.36,18.36,0,0,1-12.32,12.51c-.79.23-1.69.43-2.31.55-.77.16-1.57.29-2.45.41a35.29,35.29,0,0,1-9,0c-.89-.12-1.69-.25-2.46-.41-.62-.12-1.53-.32-2.31-.55a18.56,18.56,0,0,1-10.56-8.3,18.52,18.52,0,0,1-1.76-4.22l-.14-.51-3.93-20.63c-.16-.92-.36-1.84-.55-2.73s-.39-1.75-.54-2.63l-.25-1.57c-.07-.51-.12-1-.16-1.54-.07-1.05-.08-2.08,0-3,0-.41.08-.82.11-1.24.06-.63.1-1.23.2-1.81l.43-2.28c0-.15.07-.28.11-.42l.1-.28a27.11,27.11,0,0,1,5.56-10.5,26.26,26.26,0,0,1,19.1-9.06l1.42,0,1,0h.57a25.62,25.62,0,0,1,9.94,2.15,26,26,0,0,1,9.42,6.91,27.1,27.1,0,0,1,5.57,10.51,1.73,1.73,0,0,1,.08.27,3.17,3.17,0,0,1,.12.41l.44,2.27c.09.6.13,1.2.19,1.83,0,.42.06.83.11,1.2A26.21,26.21,0,0,1,167.44,262.18Z"/><path class="cls-2" d="M107.49,862.27l-.07,3.22c-.07,1.68-.13,3.34-.22,5-.12,2.07-.26,4.15-.44,6.21l-.85,16.67h-1.32l-3.63,0-63.91.42-.82-2.93,31-12.48,1.16-.47.47-1,6.61-14.68Z"/><path class="cls-2" d="M244.23,890.9l-.82,2.93-63.91-.42-3.64,0h-1.32l-.84-16.67c-.18-2.06-.32-4.14-.44-6.21-.1-1.67-.15-3.33-.23-5l-.07-3.23,32,0,6.6,14.68.49,1,1.15.47Z"/><polygon class="cls-2" points="291.79 225.96 284.84 245.36 267.32 242.53 265.66 222.66 279.62 193.96 285.35 194.62 291.79 225.96"/><polygon class="cls-2" points="66.63 548.47 66.13 551.95 64.34 564.46 47.45 580.53 43.14 584.62 41.07 586.6 37.88 584.68 44.13 569.84 49.57 556.9 53.11 548.46 66.63 548.47"/><path class="cls-2" d="M209.26,855.69l-18.72-1.07-18,1L167,795.06l-2.78-32.6-1.38-16.31-1.3-16.31c-.11-1.36-.18-2.73-.35-4.08l-.49-4.06-1-8.12-1.91-16.26-3.69-32.51c-2.36-21.7-4.74-43.39-6.76-65.13l-.27-2.83h-2.9l-4,0-4,0h-2.9l-.28,2.83c-2,21.74-4.39,43.43-6.75,65.13l-3.69,32.51-1.91,16.26-1,8.12-.49,4.06c-.17,1.35-.24,2.72-.35,4.08l-1.3,16.31-1.38,16.31-2.78,32.6L108,855.66l-18.06-1-18.7,1.07c.56-24.21,1.15-48.44,1.62-72.66l.77-38.78.2-9.69c.08-3.24.09-6.47.24-9.7l.75-19.37L77.71,628c.35-12.92,1.29-25.8,2-38.7q.58-9.68,1.07-19.35l.87-16.66,117.11,0,.88,16.63c.33,6.45.67,12.9,1.07,19.35.73,12.9,1.68,25.78,2,38.7l2.93,77.47.75,19.37c.15,3.23.16,6.46.24,9.7l.21,9.69.77,38.78C208.11,807.25,208.69,831.47,209.26,855.69Z"/><path class="cls-2" d="M274.83,250.28l-11.73-3L251,321.46l-.36,2.17-2.36.23L182.72,330l-5.48.52h-.08l-6,.45-28.44,45-2.46,3.91L137.79,376,113.08,336q-3.3.64-6.54,1.49a91.25,91.25,0,0,0-15.79,5.73,70,70,0,0,0-7.27,4c-1.16.74-2.29,1.49-3.35,2.3-.42.31-.83.62-1.22.93v0l-.2.15c-.24.19-.47.37-.67.55l-.43.35-.49.47c-.33.29-.72.62-1,.88a42.12,42.12,0,0,0-3.38,3.57,34.89,34.89,0,0,0-5.19,8.26c-.18.37-.33.75-.48,1.12l-.23.58-.25.64-1,2.63-2,5.27-4,10.56-8,21.11q-1.17,3.09-2.33,6.2c-4.53,12-9,24.1-13.48,36.18l-.1.34a16.32,16.32,0,0,0-1.15,5.11,16.78,16.78,0,0,0,.09,2.65l.46,3L37,472.42,40.81,497l1.27,8.22,2.52,16.36,1.49,9.19,2,12.42L59,542.05l7.78.78-4.33-80.49h0l0-.54.15-.48L72.9,427.57l0-.14,7.38-25.29H89L89,405.3l.29,16.85.4,16.84c.12,5.62.32,11.23.47,16.85l.5,16.85v.22l0,.32-2.24,19.45-2.11,19.46-2.17,19.45-1.68,13.8c13.91-.86,57.83-3.49,57.83-3.49L198,545.41l-1.68-13.82-2.17-19.45L192,492.68l-2.24-19.45,0-.32v-.22l.49-16.85c.17-5.62.36-11.23.48-16.85l.4-16.84.06-3v-.7l.23-13.18.05-3.16.82-27.46,2.11-.65,19.81-6.1,3-.93,4.69-1.4,18.16-5.44,22.84-6.85,5.72-1.71,1.32-.4c.4-.14.78-.3,1.17-.46a17.06,17.06,0,0,0,2.19-1.17,16.62,16.62,0,0,0,6.37-7.55,16,16,0,0,0,1.18-4.9l1.27-17.84,1.68-23.78,1.7-23.79,1.6-20.68Zm-90.7,136.79c-3.53.31-7.07.44-10.61.49-.05,3.54-.18,7.08-.5,10.62h-5.51c-.32-3.54-.45-7.08-.5-10.62-3.53-.05-7.08-.18-10.62-.49v-5.52c3.54-.32,7.09-.46,10.62-.5.05-3.54.18-7.08.5-10.61H173c.32,3.53.46,7.08.5,10.62,3.54,0,7.08.17,10.61.49Z"/><path d="M297.92,226.65l-.12-.91-4.65-36.18-.37-2.85-2.84-.3L277,185.08l-2.61-.27-1,2.32-14.1,33.64-.39.9.17.82,3.71,19.12-.76-.14-2.07-.36-.38,2.1-13.92,75-90.84,3.92-14.65.63-2.31,0-5.15.21h-.2a125.47,125.47,0,0,0-28.87,5,99.72,99.72,0,0,0-15.83,6.28,1.19,1.19,0,0,0-.22.12l-1.28.65-2,1.1a72.25,72.25,0,0,0-9.94,6.55c-.39.29-.78.61-1.16.94s-.76.64-1.15,1l-.57.54-.52.49c-.35.34-.69.65-1,1a47.62,47.62,0,0,0-4,4.51,43.85,43.85,0,0,0-6,10.43l-29.75,86,.1-.32a22.06,22.06,0,0,0-1.36,7,21.14,21.14,0,0,0,.19,3.56c.18,1.07.36,2.05.54,3.09l2.14,12.26,4.3,24.53,4.3,24.52,1.64,9,2.8,15.46.32,1.75h.74l.63,0h.35l2,0,0,0-3,5.53-3.74,6.82L28.77,585.06h0l-1.43,2.5,15.18,9.82L44.71,595l1-1.11,4.79-5.2L64,574.13l5.48-5.94h0l.74-.87.07-.62,2.36-20.23h0l0-.13v-.09l-2.34-39.86-2.57-43.95,9.85-32.86,6.52-21.74L84.35,421v.54l1.19,51.14,0-.13,0,.24v-.11L75.16,550.12v.2L72.84,589l-1.16,19.38-.28,4.84c-.09,1.61-.11,3.23-.17,4.85l-.31,9.7-1.23,38.8L68.6,705.34l-.55,19.4c-.11,3.24-.1,6.46-.14,9.7l-.09,9.7-.38,38.8-.65,77.62v1.69h1.69l2.22,0,0,0-6.57,10.84L48,879.16l-8.52,3.22c-2.83,1.08-5.68,2.13-8.51,3.24l-2.18.85V904h3.44l78,0h3.5v-3.49l0-10,0-10,.06-19.94,11.33-130.13c.13-1.36.22-2.72.39-4.06l.51-4.07,1-8.11L129.08,698l4.13-32.44,7-55.12,7,55.12L151.38,698l2.05,16.22,1,8.11.51,4.07c.17,1.34.26,2.7.39,4.06L166.7,860.59l.06,19.94,0,10,0,10v3.49h3.49l78,0h3.43V886.47l-2.18-.85c-2.82-1.11-5.67-2.16-8.51-3.24l-8.52-3.22-16.12-6.08-6.58-10.84v0l2.2,0h1.71v-1.69L213,782.94l-.38-38.8-.09-9.7c0-3.24,0-6.46-.14-9.7l-.55-19.4-1.09-38.79-1.23-38.8-.31-9.7c-.06-1.62-.08-3.24-.17-4.85l-.28-4.84L207.62,589l-2.3-38.66v-.2l-10.39-77.44v.11l0-.24,0,.13,1.19-51.14V421l0-1.73h0l.66-9.95.46-7.17,1.46-22.47,17.83-5.52,7.5-2.31,17.87-5.53,22.81-7.05,5.7-1.76c.49-.15.9-.28,1.51-.49s1.08-.4,1.61-.64a22.91,22.91,0,0,0,3.05-1.64,22.14,22.14,0,0,0,10.08-17.14l.31-6,.64-11.91,1.27-23.85,2.56-47.68.1-2-1.92-.3-.4-.06,8.37-18.51ZM129.21,334.1h0l34.9-2.62-23.88,35.95L119.14,335C122.47,334.57,125.83,334.27,129.21,334.1ZM66.13,552l-1.79,12.51L47.45,580.53l-4.31,4.09-2.07,2-3.19-1.92,6.25-14.84,5.44-12.94,3.54-8.44H66.63Zm41.29,313.54c-.07,1.68-.13,3.34-.22,5-.12,2.07-.26,4.15-.44,6.21l-.85,16.67h-1.32l-3.63,0-63.91.42-.82-2.93,31-12.48,1.16-.47.47-1,6.61-14.68,32,0Zm104.14,11.43.49,1,1.15.47,31,12.48-.82,2.93-63.91-.42-3.64,0h-1.32l-.84-16.67c-.18-2.06-.32-4.14-.44-6.21-.1-1.67-.15-3.33-.23-5l-.07-3.23,32,0ZM199.66,570c.33,6.45.67,12.9,1.07,19.35.73,12.9,1.68,25.78,2,38.7l2.93,77.47.75,19.37c.15,3.23.16,6.46.24,9.7l.21,9.69.77,38.78c.46,24.22,1,48.44,1.61,72.66l-18.72-1.07-18,1L167,795.06l-2.78-32.6-1.38-16.31-1.3-16.31c-.11-1.36-.18-2.73-.35-4.08l-.49-4.06-1-8.12-1.91-16.26-3.69-32.51c-2.36-21.7-4.74-43.39-6.76-65.13l-.27-2.83h-2.9l-4,0-4,0h-2.9l-.28,2.83c-2,21.74-4.39,43.43-6.75,65.13l-3.69,32.51-1.91,16.26-1,8.12-.49,4.06c-.17,1.35-.24,2.72-.35,4.08l-1.3,16.31-1.38,16.31-2.78,32.6L108,855.66l-18.06-1-18.7,1.07c.56-24.21,1.15-48.44,1.62-72.66l.77-38.78.2-9.69c.08-3.24.09-6.47.24-9.7l.75-19.37L77.71,628c.35-12.92,1.29-25.8,2-38.7q.58-9.68,1.07-19.35l.87-16.66,117.11,0Zm85.83-298.26-1.7,23.79-1.68,23.78-1.27,17.84a16,16,0,0,1-1.18,4.9,16.62,16.62,0,0,1-6.37,7.55,17.06,17.06,0,0,1-2.19,1.17c-.39.16-.77.32-1.17.46l-1.32.4-5.72,1.71-22.84,6.85-18.16,5.44L217.2,367l-3,.93L194.4,374l-2.11.65-.82,27.46-.05,3.16-.23,13.18v.7l-.06,3-.4,16.84c-.12,5.62-.31,11.23-.48,16.85l-.49,16.85v.22l0,.32L192,492.68l2.11,19.46,2.17,19.45L198,545.41,140.3,541.9s-43.92,2.63-57.83,3.49l1.68-13.8,2.17-19.45,2.11-19.46,2.24-19.45,0-.32v-.22l-.5-16.85c-.15-5.62-.35-11.23-.47-16.85l-.4-16.84L89,405.3,89,402.14H80.32l-7.38,25.29,0,.14L62.55,461.31l-.15.48,0,.54h0l4.33,80.49L59,542.05l-10.88,1.12-2-12.42-1.49-9.19L42.08,505.2,40.81,497,37,472.42l-1.9-12.28-.46-3a16.78,16.78,0,0,1-.09-2.65,16.32,16.32,0,0,1,1.15-5.11l.1-.34c4.5-12.08,8.95-24.14,13.48-36.18q1.16-3.1,2.33-6.2l8-21.11,4-10.56,2-5.27,1-2.63.25-.64.23-.58c.15-.37.3-.75.48-1.12a34.89,34.89,0,0,1,5.19-8.26,42.12,42.12,0,0,1,3.38-3.57c.28-.26.67-.59,1-.88l.49-.47.43-.35c.2-.18.43-.36.67-.55l.2-.15v0c.39-.31.8-.62,1.22-.93,1.06-.81,2.19-1.56,3.35-2.3a70,70,0,0,1,7.27-4,91.25,91.25,0,0,1,15.79-5.73q3.24-.84,6.54-1.49L137.79,376l2.43,3.94,2.46-3.91,28.44-45,6-.45h.08l5.48-.52,65.56-6.11,2.36-.23.36-2.17,12.1-74.19,11.73,3,12.26.75Zm-.65-26.35-17.52-2.83-1.66-19.87,14-28.7,5.73.66L291.79,226Z"/><path class="cls-2" d="M164.15,331.48l-23.88,35.95L119.14,335c3.33-.45,6.69-.75,10.07-.92h0Z"/><path d="M184.13,381.55v5.52c-3.53.31-7.07.44-10.61.49-.05,3.54-.18,7.08-.5,10.62h-5.51c-.32-3.54-.45-7.08-.5-10.62-3.53-.05-7.08-.18-10.62-.49v-5.52c3.54-.32,7.09-.46,10.62-.5.05-3.54.18-7.08.5-10.61H173c.32,3.53.46,7.08.5,10.62C177.06,381.1,180.6,381.23,184.13,381.55Z"/><path d="M174.84,257.85c0-.86-.06-1.74-.16-2.62l-.4-2.87a5.52,5.52,0,0,0-.15-.68l-.07-.28a35.26,35.26,0,0,0-6.58-14A35.28,35.28,0,0,0,148.07,225a31.77,31.77,0,0,0-15.58,0,35.28,35.28,0,0,0-19.41,12.43,35.26,35.26,0,0,0-6.58,14l-.07.28c-.06.23-.11.45-.15.69l-.4,2.86c-.1.88-.13,1.76-.16,2.62,0,.4,0,.81,0,1.25a34.23,34.23,0,0,0,.25,3.86c.09.69.18,1.32.29,1.92l.37,1.81c.62,3.58,1.34,7.2,2,10.7l2.61,13.35.47,2.21.21.75a25.62,25.62,0,0,0,2.48,5.82,25.34,25.34,0,0,0,8.81,8.92,25.77,25.77,0,0,0,5.74,2.56c1.11.33,2.09.55,3,.73s1.92.35,2.93.48a42.22,42.22,0,0,0,10.85,0c1-.13,2-.29,2.92-.48s1.89-.4,3-.73a25.85,25.85,0,0,0,5.75-2.56,25.29,25.29,0,0,0,11.28-14.74l.22-.79L172,277.39c.69-3.5,1.41-7.12,2-10.68l.37-1.83c.11-.6.21-1.22.29-1.92a34.33,34.33,0,0,0,.25-3.9C174.87,258.66,174.85,258.25,174.84,257.85Zm-7.4,4.33c0,.51-.09,1-.16,1.52l-.25,1.59c-.15.88-.34,1.77-.53,2.64s-.4,1.8-.55,2.71L162,291.22l-.16.57a18.26,18.26,0,0,1-12.31,12.5c-.79.23-1.69.43-2.31.56-.77.15-1.57.29-2.45.4a33.67,33.67,0,0,1-4.52.29,35,35,0,0,1-4.51-.28c-.89-.12-1.69-.26-2.45-.41s-1.53-.33-2.31-.56a18,18,0,0,1-12.32-12.51l-.15-.51-3.92-20.62c-.16-.92-.36-1.84-.55-2.72s-.39-1.76-.54-2.65l-.25-1.57c-.06-.51-.12-1-.15-1.53a28.12,28.12,0,0,1-.06-3c.05-.41.08-.82.11-1.23.06-.64.1-1.24.19-1.82l.44-2.28a3.31,3.31,0,0,1,.12-.42c0-.09,0-.18.08-.28a27.26,27.26,0,0,1,5.57-10.5,26.08,26.08,0,0,1,9.42-6.9,25.76,25.76,0,0,1,9.68-2.15l1.42,0h1l.56,0a25.62,25.62,0,0,1,9.94,2.15,26.07,26.07,0,0,1,9.42,6.91,27.1,27.1,0,0,1,5.56,10.5l.09.27a3.25,3.25,0,0,1,.11.42l.44,2.26c.09.6.14,1.2.19,1.84,0,.41.06.82.11,1.19A28.59,28.59,0,0,1,167.44,262.18Z"/><polygon points="70.71 862.21 70.68 862.24 68.48 862.24 68.48 862.24 70.71 862.21"/><polygon points="211.96 862.24 211.96 862.24 209.78 862.24 209.76 862.21 211.96 862.24"/><polygon points="48.93 548.41 48.91 548.45 46.54 548.45 46.89 548.44 48.93 548.41"/></svg>