<svg id="Capa_1" data-name="Capa 1" xmlns="http://www.w3.org/2000/svg" viewBox="0 0 1300 1000"><defs><style>.cls-1{fill:#fff;}</style></defs><title>2-landmarks-expand</title><polygon points="193.47 859.57 191.62 859.57 191.6 859.54 193.47 859.57"/><path class="cls-1" d="M602.5,377.4,600,379.49l2.39,2.16,1.16,1.06-23,31.58-12.22,16.8-6.1,8.41-3.06,4.19-1.53,2.1-.72,1,0,.07c-.25.32-.43.52-.69.82a16.77,16.77,0,0,1-4,3.21A16.2,16.2,0,0,1,540,452.44a16.43,16.43,0,0,1-7.55-4.43,16.16,16.16,0,0,1-2.12-2.7l0-.05L507,401.49H498.4l0,3.14-.3,16.77-.39,16.76c-.13,5.59-.31,11.19-.47,16.77l-.5,16.78v.21l0,.32L499,491.6,501.05,511l2.16,19.35,2.34,19.2,1,19q.49,9.63,1.08,19.24c.72,12.84,1.66,25.66,2,38.53l2.92,77.1.74,19.27c.15,3.23.16,6.44.24,9.65l.2,9.65.78,38.59c.46,24.89,1.08,49.78,1.65,74.66l-2.43.1H510l1.57,3.5L518.39,874l.48,1,1.15.47,30.88,12.42-.81,2.92-63.61-.43-3.62,0h-1.31l-.84-16.58c-.18-2.06-.32-4.13-.43-6.19-.1-1.66-.15-3.32-.23-5l-.08-3.43-.09-1.77-.05-1.09h0l-5.77-63.79-2.77-32.45-1.37-16.23-1.3-16.23c-.11-1.36-.18-2.72-.34-4.06l-.48-4-1-8.08-1.89-16.18-3.68-32.35c-2.35-21.6-4.72-43.18-6.72-64.82l-.27-2.81H440.54l-.27,2.81c-2,21.64-4.37,43.22-6.72,64.82l-3.68,32.35L428,711.43l-1,8.08-.48,4c-.17,1.34-.24,2.7-.35,4.06l-1.29,16.23-1.37,16.23-2.77,32.45L415,856.32h0l-.06,1.09-.09,1.77-.08,3.43c-.07,1.66-.13,3.32-.23,5-.11,2.06-.26,4.13-.43,6.19l-.84,16.58h-1.31l-3.62,0-63.61.43-.81-2.92,30.87-12.42,1.16-.47.47-1,6.84-15.18,1.58-3.5h-3.73l-2.44-.1c.57-24.88,1.18-49.77,1.65-74.66l.78-38.59.2-9.65c.08-3.21.09-6.42.24-9.65l.75-19.27,2.91-77.1c.34-12.87,1.29-25.69,2-38.53q.58-9.6,1.07-19.24l1-19,2.34-19.2L393.74,511l2.1-19.37,2.24-19.36,0-.32v-.21l-.5-16.78c-.16-5.58-.35-11.18-.47-16.77l-.39-16.76-.29-16.77-.06-3.14h-8.62l-7.35,25.17,0,.14-10.3,33.57-.15.49,0,.53h0L374.37,543l.1,1.9-.82,5.73L371.87,563l-16.8,16-4.29,4.07-2.07,2-3.16-1.91,6.21-14.77,5.41-12.88,4-9.61.06-.14,1.05-2.44H356l-2.24-13.83-1.49-9.15-2.51-16.28-1.26-8.18-3.76-24.44-1.89-12.22-.46-3a17.93,17.93,0,0,1-.09-2.64,16.54,16.54,0,0,1,1.15-5.09l.1-.34c4.48-12,8.91-24,13.42-36,.76-2.05,1.54-4.12,2.32-6.17l7.94-21,4-10.49,2-5.25,1-2.62.24-.64.23-.57c.15-.38.3-.75.48-1.11a34.4,34.4,0,0,1,5.16-8.23,43.37,43.37,0,0,1,3.36-3.55l1-.88.49-.46.43-.36.67-.54.2-.15v0c.38-.31.79-.62,1.21-.93,1.05-.8,2.19-1.56,3.33-2.28a68.47,68.47,0,0,1,7.24-4,91.35,91.35,0,0,1,15.7-5.7,113.48,113.48,0,0,1,28.19-3.53q.75,0,1.5,0h7.7q.75,0,1.5,0a113.28,113.28,0,0,1,28.18,3.53,90.85,90.85,0,0,1,15.71,5.7,69.47,69.47,0,0,1,7.24,4c1.15.72,2.27,1.48,3.33,2.28.42.31.83.62,1.21.93l0,0,.2.15.66.54.42.36.5.46c.33.29.71.62,1,.88a38.78,38.78,0,0,1,3.36,3.55,32.17,32.17,0,0,1,2.14,2.82s.06.07.07.1c.43.6.85,1.21,1.23,1.85l.49.83.23.41.27.5,1.07,2,8.56,15.88,14.83,27.5,2.3,4.27h0l1.81,3.54,2.51-2.95,39.8-46.56h0l.18-.19.18-.39,7.94-17.41,25.94-18.38L629.7,334,619.37,363.6l-16.86,13.8Z"/><path class="cls-1" d="M474.19,261.74c0,.5-.09,1-.15,1.51l-.25,1.57c-.15.88-.35,1.77-.54,2.62s-.39,1.8-.54,2.7l-3.89,20.47-.16.56a18.84,18.84,0,0,1-1.75,4.18,18.18,18.18,0,0,1-10.5,8.25c-.77.23-1.68.43-2.29.55-.77.16-1.56.29-2.43.41a36.22,36.22,0,0,1-9,0c-.88-.12-1.67-.25-2.43-.41s-1.52-.32-2.3-.55a17.86,17.86,0,0,1-12.24-12.43l-.15-.52-3.91-20.5c-.15-.91-.35-1.82-.54-2.71s-.39-1.75-.54-2.62l-.24-1.57c-.07-.5-.13-1-.16-1.51a27.86,27.86,0,0,1-.05-3c.05-.41.08-.82.11-1.23.05-.63.1-1.23.19-1.8l.43-2.27c0-.14.07-.28.11-.42l.09-.28a26.92,26.92,0,0,1,5.54-10.43,26.1,26.1,0,0,1,19-9l1.42,0h1.52a26.06,26.06,0,0,1,19.24,9,26.89,26.89,0,0,1,5.54,10.44l.09.27c0,.14.08.28.11.41l.43,2.25c.09.6.14,1.2.19,1.83,0,.41.06.82.11,1.18A28.59,28.59,0,0,1,474.19,261.74Z"/><path d="M352.77,547.22h0Z"/><path d="M637.22,327.88l-10.64-7.34L624,318.79l-2.23,1.83h0l-28.09,23-.76.63-.25.73-6,18.9L548.82,406.4l-13.76-29.07L527.33,361l-1-2c-.3-.65-.72-1.44-1.1-2.13-.19-.35-.4-.71-.61-1.07s-.48-.8-.73-1.19a.51.51,0,0,0-.09-.16l-.28-.42c-.7-1.1-1.45-2.18-2.26-3.21a46.91,46.91,0,0,0-4-4.49c-.36-.37-.69-.68-1-1l-.52-.5-.57-.52c-.38-.36-.76-.68-1.14-1s-.77-.64-1.15-.94a73.11,73.11,0,0,0-9.9-6.51l-2-1.1-1.28-.64a1.13,1.13,0,0,0-.21-.12,100.21,100.21,0,0,0-15.76-6.26,129.55,129.55,0,0,0-72.74,0A100.6,100.6,0,0,0,395.26,334l-.21.12c-.43.21-.86.42-1.27.64l-2,1.1a72.4,72.4,0,0,0-9.89,6.51c-.39.3-.77.62-1.16.94s-.76.65-1.14,1l-.57.52-.51.5c-.35.33-.69.64-1.05,1a46.91,46.91,0,0,0-4,4.49,43.66,43.66,0,0,0-6,10.38l-29.61,85.64.1-.32a21.83,21.83,0,0,0-1.36,6.94,21,21,0,0,0,.19,3.54c.18,1.07.36,2,.54,3.07l2.13,12.21,4.29,24.41L348,521.08l1.63,9,2.79,15.39.33,1.74h.73l1,0,2,0,0,.07-3,5.49-3.73,6.77-13.29,24.15h0L335,586.13l15.11,9.78,2.19-2.37,1-1.1,4.77-5.18,13.38-14.5,5.45-5.92h0l.75-.87.07-.61,2.35-20.14h0l0-.13V545h0l-2.32-39.69-2.57-43.74L385,428.84l6.49-21.63.24,13.1v.54L393,471.76v0l-10.35,77.1h0v.19l-2.3,38.47-1.15,19.3-.29,4.82c-.08,1.6-.1,3.21-.17,4.82l-.29,9.67-1.24,38.62-1.08,38.61-.54,19.31c-.12,3.23-.1,6.44-.15,9.66l-.08,9.67-.38,38.62-.65,77.26v1.69h1.66l2.24,0-6.57,10.81-16.05,6.06-8.47,3.21c-2.82,1.07-5.67,2.12-8.47,3.22l-2.18.85v17.46h3.43l77.65,0H421v-3.47l0-10,0-10,.06-19.84,0,.17,0-.28v.11l11.27-129.55c.13-1.36.22-2.71.38-4l.51-4,1-8.08,2.05-16.14,4.1-32.3,7-54.87,7,54.87,4.11,32.3,2,16.14,1,8.08.51,4c.16,1.34.25,2.69.38,4l11.28,129.55v0l.06,19.84,0,10,0,10v3.47h3.48l77.64,0h3.42V883.69l-2.18-.85c-2.8-1.1-5.64-2.15-8.47-3.22l-8.48-3.21-16-6.06-6.55-10.78,0,0,1.88,0h2v-1.69l-.65-77.26L519.47,742l-.08-9.67c0-3.22,0-6.43-.15-9.66l-.54-19.31-1.08-38.61-1.23-38.62-.31-9.67c-.06-1.61-.08-3.22-.16-4.82l-.29-4.82-1.15-19.3-2.3-38.47v-.19h0l-10.35-77.1v0l1.2-50.91v-.54l.21-11.93.78,1.35c2.83,4.91,5.67,9.79,8.45,14.7l2.65,4.68,7.6,13.41,2.56,4.53a22.11,22.11,0,0,0,3.48,4.63,21.69,21.69,0,0,0,10,5.71,20.22,20.22,0,0,0,5.74.66,21.7,21.7,0,0,0,5.72-.86,20.49,20.49,0,0,0,2.27-.82,21.33,21.33,0,0,0,5.7-3.54,22.08,22.08,0,0,0,1.77-1.72c.32-.35.69-.77,1-1.14l.76-1.05,1.54-2.09,3.06-4.2,6.15-8.4,12.29-16.8c8.16-11.23,16.41-22.37,24.66-33.54l1.43-1.93-.89-.76-.88-.72h0l-.87-.74.05,0,15.7-11.94.57-.45.36-.85h0l13.9-33.57L640,329.8ZM442,333.65h10.7a121.7,121.7,0,0,1,15.4,1.05l-21,31.72L426.5,334.71A122.18,122.18,0,0,1,442,333.65Zm-68.42,217-1.78,12.45-16.81,16-4.29,4.07-2.07,2-3.16-1.91,6.21-14.77,5.41-12.89,3.53-8.37h13.45Zm41.19,308.7-.08,3.43c-.07,1.66-.13,3.32-.23,5-.11,2.06-.25,4.13-.43,6.19l-.84,16.59h-1.31l-3.63,0-63.62.41-.81-2.91,30.89-12.43,1.15-.46.48-1,6.68-14.85,31.75,0Zm103.59,14.8.48,1,1.16.46,30.88,12.43-.81,2.91-63.63-.41-3.62,0h-1.31L480.71,874c-.17-2.06-.32-4.13-.43-6.19-.1-1.66-.16-3.32-.23-5l-.07-3.23h31.85ZM506.55,568.62c.33,6.41.67,12.84,1.07,19.25.72,12.84,1.67,25.67,2,38.53l2.91,77.12.75,19.29c.15,3.22.16,6.43.24,9.65l.2,9.65.77,38.6c.46,24.12,1,48.25,1.61,72.36L497.17,852l-17.66,1-5.46-60.3-2.76-32.46L469.91,744l-1.28-16.23c-.12-1.36-.19-2.72-.36-4.07l-.48-4-1-8.09-1.91-16.18L461.25,663c-2.36-21.6-4.72-43.2-6.73-64.84l-.27-2.81H440.53l-.28,2.81c-2,21.64-4.36,43.24-6.72,64.84l-3.68,32.36L428,711.57l-1,8.09-.49,4c-.16,1.35-.23,2.71-.34,4.07L424.86,744l-1.37,16.24-2.76,32.46-5.44,60.09-18.22-1-18.39,1c.56-24,1.14-48.06,1.59-72.09l.78-38.6.2-9.65c.08-3.22.09-6.43.24-9.65l.75-19.29,2.92-77.12c.33-12.86,1.28-25.69,2-38.53.39-6.41.74-12.84,1.07-19.25l.9-17.32,116.52,0Zm74-154.27-12.22,16.8-6.11,8.41-3,4.19-1.54,2.1-.72,1,0,.07c-.25.31-.43.51-.69.8a16.47,16.47,0,0,1-4,3.22,15.48,15.48,0,0,1-3.41,1.45,16,16,0,0,1-8.78.12,16.36,16.36,0,0,1-7.55-4.43,15.71,15.71,0,0,1-2.11-2.7l0-.05L507,401.54H498.4l0,3.14-.29,16.78-.39,16.77c-.13,5.58-.32,11.18-.48,16.77l-.5,16.77V472l0,.33L499,491.67l2.1,19.37,2.16,19.37,1.58,13L447.4,540s-43.5,2.59-57.42,3.47l1.58-13L393.72,511l2.1-19.37,2.23-19.35,0-.33v-.22l-.5-16.77c-.16-5.59-.35-11.19-.47-16.77l-.4-16.77-.29-16.78-.05-3.14h-8.63l-7.35,25.17,0,.14-10.3,33.59-.15.48,0,.54h0l4.31,80.19-8-.8-10.53,1.08-2-12.36-1.49-9.15-2.51-16.29L348.42,496l-3.76-24.46-1.89-12.22-.45-3a16.52,16.52,0,0,1-.09-2.63,16.18,16.18,0,0,1,1.14-5.09l.1-.34c4.48-12,8.91-24,13.42-36q1.16-3.1,2.32-6.17l7.94-21,4-10.51,2-5.25,1-2.61.25-.64.23-.58c.15-.37.3-.74.48-1.11a34.69,34.69,0,0,1,5.17-8.22,38.85,38.85,0,0,1,3.36-3.55c.28-.27.66-.6,1-.89l.5-.45.42-.36c.2-.18.43-.36.67-.55l.2-.15v0c.38-.31.79-.61,1.21-.92,1.06-.81,2.19-1.56,3.34-2.29a65.58,65.58,0,0,1,7.23-4,89.62,89.62,0,0,1,15.72-5.7q3.27-.87,6.6-1.51l24.26,39.22,2.42,3.91,2.44-3.89,24.64-39.26q3.39.65,6.72,1.53a89.62,89.62,0,0,1,15.72,5.7,66.5,66.5,0,0,1,7.23,4c1.15.73,2.29,1.48,3.34,2.29.42.31.83.61,1.21.92v0l.2.15c.24.19.47.37.67.55l.43.36.49.45c.33.29.71.62,1,.89a40.39,40.39,0,0,1,3.37,3.55,34,34,0,0,1,2.13,2.81l.07.11c.43.6.85,1.21,1.23,1.84.17.29.34.57.49.84l.23.41.27.49,1.07,2,8.57,15.89,14.83,27.5,2.3,4.27h0l1.82,3.53,2.51-2.94L587.61,369l7.32,7.69,8.6,6.14Zm38.84-50.72-15.29,12.52L590.8,364.5l7.43-16.28,25.95-18.38,5.56,4.18Z"/><path d="M490.8,380.47V386c-3.52.31-7,.45-10.55.5-.05,3.51-.19,7-.5,10.55h-5.48c-.32-3.52-.45-7-.5-10.55-3.52-.05-7-.18-10.56-.5v-5.48c3.52-.32,7-.45,10.56-.5.05-3.52.18-7,.5-10.56h5.48c.31,3.52.45,7,.5,10.56C483.76,380,487.28,380.15,490.8,380.47Z"/><path d="M481.55,257.43c0-.85-.06-1.73-.15-2.6L481,252c0-.22-.09-.45-.15-.67l-.07-.28a35.11,35.11,0,0,0-6.55-13.9,35,35,0,0,0-19.3-12.36,31.45,31.45,0,0,0-15.5,0,35.09,35.09,0,0,0-7.32,2.65,34.62,34.62,0,0,0-12,9.71A35,35,0,0,0,413.59,251l-.08.29c-.05.22-.11.45-.15.68l-.4,2.85c-.09.87-.12,1.75-.15,2.6,0,.4,0,.81-.05,1.24a34.05,34.05,0,0,0,.25,3.85c.08.69.18,1.31.29,1.91l.36,1.79c.62,3.56,1.34,7.16,2,10.64l2.6,13.28.47,2.2.21.75a24.83,24.83,0,0,0,2.46,5.78,25.25,25.25,0,0,0,14.47,11.42c1.1.33,2.08.55,3,.73s1.91.35,2.91.48a41.76,41.76,0,0,0,10.79,0c1-.13,2-.29,2.91-.48s1.87-.4,3-.73a25.16,25.16,0,0,0,16.93-17.2l.23-.78,3.06-15.49c.69-3.47,1.4-7.05,2-10.57l.38-1.83c.11-.59.2-1.21.29-1.9a36.56,36.56,0,0,0,.24-3.88C481.58,258.24,481.57,257.84,481.55,257.43Zm-36-24.12,1.42,0h1l.57,0a25.26,25.26,0,0,1,9.87,2.13,25.9,25.9,0,0,1,9.37,6.87,27.09,27.09,0,0,1,5.54,10.44c0,.1.05.19.08.28a3.17,3.17,0,0,1,.12.41l.43,2.25c.09.6.14,1.2.19,1.83,0,.41.07.82.11,1.19a28.22,28.22,0,0,1-.05,3c0,.51-.09,1-.15,1.51l-.25,1.58c-.15.87-.35,1.76-.54,2.62s-.39,1.8-.54,2.7l-3.9,20.47-.16.57a18.19,18.19,0,0,1-12.24,12.43c-.78.23-1.68.43-2.3.56s-1.56.28-2.43.4a35,35,0,0,1-9,0c-.88-.12-1.68-.25-2.44-.4s-1.52-.33-2.29-.56a17.87,17.87,0,0,1-4.17-1.85,18.21,18.21,0,0,1-6.33-6.4,18,18,0,0,1-1.75-4.19l-.15-.51-3.91-20.51c-.15-.91-.35-1.83-.54-2.71s-.39-1.75-.53-2.63l-.25-1.56c-.07-.5-.12-1-.16-1.52a27.78,27.78,0,0,1-.05-3c.05-.4.08-.81.11-1.22,0-.63.1-1.23.19-1.81l.43-2.26A3.31,3.31,0,0,1,421,253a2.29,2.29,0,0,0,.08-.28,27.09,27.09,0,0,1,5.54-10.44,26.07,26.07,0,0,1,19-9Z"/><polygon points="518.48 859.57 516.62 859.57 516.61 859.54 518.48 859.57"/><polygon points="356.5 547.15 356.46 547.22 353.12 547.22 353.5 547.21 354.47 547.19 356.5 547.15"/><polygon points="609.89 381.19 609.89 381.2 609.01 380.48 609.01 380.47 608.14 379.73 608.18 379.69 609.89 381.19"/><path d="M622.36,358.74l4.81-3-3.85-6.1a7.56,7.56,0,0,0,1.76-.8l0,0,34.82-21.92,2-1.23.28-.21a5.7,5.7,0,0,0,1.13-.95,8.34,8.34,0,0,0,1.62-2.46,7.75,7.75,0,0,0,0-5.76c-.1-.23-.19-.47-.3-.67l-.19-.33-2.54-4,23.45-14.8-2.67-4.23L659.18,307l-2.53-4-.21-.31a4.92,4.92,0,0,0-.48-.56,7.65,7.65,0,0,0-5.18-2.51,8.25,8.25,0,0,0-2.92.39,7.15,7.15,0,0,0-1.35.61l-.3.18-2,1.24-34.76,22,0,0a7.28,7.28,0,0,0-1.48,1.24l-3.84-6.08-4.81,3L609,337.55l-33,20.81-5.37-8.51-4.82,3,14.49,22.94,4.81-3-5.38-8.51,33-20.81Zm-7.17-22-3.27-5.22a.53.53,0,0,1,.17-.71l1.19-.75,34.81-21.92,3.15-2h0a.08.08,0,0,1,.08,0,.2.2,0,0,1,.17,0,.47.47,0,0,1,.33.15s0,0,0,0l0,0,0,.05,7.43,11.77,0,.06,0,0s0,0,0,0a.47.47,0,0,1,0,.35.33.33,0,0,1-.1.15.07.07,0,0,1-.07.06l0,0-3.14,2-8.93,5.66-4.43-7L640.32,321l4.43,7-5,3.17-4.43-7-2.41,1.53,4.43,7-5,3.18-4.44-7-2.4,1.51,4.44,7-8.59,5.43-1.18.75a.53.53,0,0,1-.71-.14l-1.71-2.66Z"/><path class="cls-1" d="M621.32,342.79l-1.18.75a.53.53,0,0,1-.71-.14l-1.71-2.66-2.53-4-3.27-5.22a.53.53,0,0,1,.17-.71l1.19-.75,34.81-21.92,3.15-2h0a.08.08,0,0,1,.08,0,.2.2,0,0,1,.17,0,.47.47,0,0,1,.33.15s0,0,0,0l0,0,0,.05,7.43,11.77,0,.06,0,0s0,0,0,0a.47.47,0,0,1,0,.35.33.33,0,0,1-.1.15.07.07,0,0,1-.07.06l0,0-3.14,2-8.93,5.66-4.43-7L640.32,321l4.43,7-5,3.17-4.43-7-2.41,1.53,4.43,7-5,3.18-4.44-7-2.4,1.51,4.44,7Z"/></svg>