<svg id="Capa_1" data-name="Capa 1" xmlns="http://www.w3.org/2000/svg" viewBox="0 0 1300 1000"><defs><style>.cls-1{fill:#fff;}</style></defs><title>2-landmarks-expand</title><polygon points="810.43 858.87 808.91 858.87 808.9 858.85 810.43 858.87"/><path class="cls-1" d="M1289.79,500.15l-2,5.42-31.7-.51L1238,493.68h0l-2.32-1.46-1.28,2.28-1.37,2.78-60.31-26.42-5-2.18-4.41-1.92c-1.46-.66-3.12-1.31-4.19-1.92a16.53,16.53,0,0,1-3.27-2.43,16.71,16.71,0,0,1-2.59-3.16l-.5-.88-.26-.51-.27-.53-1.11-2.18-3.71-7.3h0l-23.11-47.09h-8.62l0,3.15-.29,16.78-.4,16.76c-.12,5.6-.31,11.19-.47,16.79L1114,471v.22l0,.32,2.24,19.36,2.1,19.38,2.16,19.37,2.33,19.21,1,19c.33,6.42.67,12.85,1.07,19.26.72,12.84,1.66,25.68,2,38.54l2.91,77.14.75,19.28c.15,3.22.16,6.44.24,9.66l.2,9.65.77,38.61c.48,24.9,1.09,49.8,1.66,74.69l-6.17.1,1.58,3.5,6.83,15.19.49,1,1.15.47,30.89,12.44-.82,2.91-63.63-.42-3.62,0h-1.32l-.84-16.6c-.17-2.06-.32-4.13-.43-6.19-.1-1.66-.15-3.31-.23-5l-.07-3.43-.1-1.77-.05-1.09h0L1091.35,792l-2.77-32.47-1.38-16.23L1085.92,727c-.12-1.36-.19-2.72-.36-4.06l-.47-4.06-1-8.08-1.9-16.19-3.67-32.37c-2.36-21.6-4.72-43.2-6.73-64.84l-.27-2.82h-13.72l-.28,2.82c-2,21.64-4.37,43.24-6.72,64.84l-3.68,32.37-1.9,16.19-1,8.08-.48,4.06c-.17,1.34-.24,2.7-.35,4.06l-1.29,16.24-1.37,16.23L1038,792l-5.76,63.82h0l-.06,1.09-.09,1.77-.08,3.43c-.07,1.67-.13,3.32-.23,5-.11,2.06-.25,4.13-.43,6.19l-.84,16.6h-1.31l-3.63,0-63.63.42-.82-2.91L992,875l1.15-.47.48-1,6.84-15.19,1.57-3.5-6.17-.1c.58-24.89,1.19-49.79,1.66-74.69l.77-38.61.2-9.65c.09-3.22.09-6.44.24-9.66l.75-19.28,2.92-77.14c.34-12.86,1.28-25.7,2-38.54.4-6.41.74-12.84,1.07-19.26l1-19,2.34-19.21,2.16-19.37,2.1-19.38,2.23-19.36,0-.32V471l-.49-16.77c-.16-5.6-.36-11.19-.48-16.79l-.39-16.76-.29-16.78-.06-3.15H1005l-7.35,25.19,0,.13-10.31,33.6-.15.48,0,.54h0l4.39,81.59.1,1.9-.82,5.74-1.78,12.46-16.81,16L968,582.44l-2.07,2-3.16-1.91,6.2-14.77,5.42-12.89,4-9.61.06-.14,1-2.45H973.2L971,528.8l-1.49-9.15-2.52-16.3-1.25-8.17-3.77-24.46L960,458.5l-.45-3a18,18,0,0,1-.1-2.64,16.54,16.54,0,0,1,1.15-5.09l.09-.34c4.49-12,8.92-24,13.43-36q1.15-3.09,2.32-6.17l7.94-21,4-10.51,2-5.25,1-2.61.24-.64.23-.58c.15-.38.3-.74.48-1.11a35,35,0,0,1,5.17-8.23,38.74,38.74,0,0,1,3.36-3.54c.28-.27.67-.6,1-.89l.49-.46.43-.36c.19-.17.42-.36.66-.55l.2-.14,0,0c.37-.31.79-.61,1.21-.93,1.06-.8,2.18-1.56,3.33-2.29a71.3,71.3,0,0,1,7.24-4,90.13,90.13,0,0,1,15.72-5.7,113,113,0,0,1,28.2-3.54c.49,0,1,0,1.49,0h7.71q.75,0,1.5,0a113,113,0,0,1,28.2,3.54,90.33,90.33,0,0,1,15.71,5.7,69.22,69.22,0,0,1,7.24,4c1,.61,1.89,1.23,2.78,1.88,0,0,0,0,0,0,.29.2.59.41.88.63a12,12,0,0,1,1,.73c.31.24.66.5.92.73.47.4,1.43,1.23,1.94,1.7a36.82,36.82,0,0,1,3.4,3.55,39,39,0,0,1,2.91,4c.44.7.86,1.42,1.27,2.14.19.38.37.71.57,1.12s.4.83.63,1.25l20.63,40.37,4.95,9.66,5.37,10.51,10.22,20.21.45.89.82.4L1247,478.07l.33.17.4,0,17.18,1.83Z"/><path class="cls-1" d="M1091.56,260.89c0,.51-.09,1-.15,1.51l-.26,1.58c-.14.88-.33,1.78-.53,2.64s-.39,1.8-.54,2.7l-3.91,20.54-.17.57a18.12,18.12,0,0,1-12.28,12.47c-.78.23-1.68.43-2.3.55s-1.58.29-2.44.41a36.46,36.46,0,0,1-9,0c-.88-.12-1.68-.25-2.44-.41s-1.53-.32-2.3-.55a17.94,17.94,0,0,1-12.29-12.48l-.15-.52-3.92-20.57c-.15-.91-.35-1.83-.55-2.71s-.38-1.76-.53-2.64l-.25-1.57c-.07-.51-.12-1-.16-1.52-.07-1.06-.08-2.09,0-3,0-.41.08-.82.11-1.23.06-.64.1-1.24.19-1.81l.44-2.28a3.25,3.25,0,0,1,.11-.42l.09-.28a27.06,27.06,0,0,1,5.56-10.47,26.14,26.14,0,0,1,19-9l1.41,0h1l.57,0a25.68,25.68,0,0,1,9.91,2.14,26.06,26.06,0,0,1,9.4,6.89,27.28,27.28,0,0,1,5.55,10.48,2.76,2.76,0,0,1,.08.27,3.71,3.71,0,0,1,.12.41l.43,2.26c.1.6.14,1.2.19,1.84,0,.41.07.82.11,1.19A26.21,26.21,0,0,1,1091.56,260.89Z"/><path d="M1297.69,495.67l-30.31-20-.65-.44-.62,0h0l-17.71-.79-65.12-33-9.17-19.64-9.64-20.44-19.32-40.86c-.2-.42-.39-.86-.59-1.3s-.44-.91-.65-1.36c-.46-.9-.93-1.8-1.45-2.67a44.46,44.46,0,0,0-3.41-5,43,43,0,0,0-4-4.52c-.76-.76-1.33-1.28-2.16-2s-1.53-1.35-2.33-1.95a76.4,76.4,0,0,0-9.9-6.42L1118.3,334l-.27-.14-.43-.21-.56-.29a1.19,1.19,0,0,0-.22-.12,102.3,102.3,0,0,0-15.77-6.26,129.48,129.48,0,0,0-72.72,0,102.3,102.3,0,0,0-15.77,6.26,1.13,1.13,0,0,0-.21.12l-1.27.64c-.69.36-1.35.73-2,1.1a73.77,73.77,0,0,0-9.9,6.51c-.39.3-.77.62-1.15.95s-.77.64-1.14,1l-.58.53-.51.49c-.35.34-.69.65-1,1a44.31,44.31,0,0,0-4,4.49,43.56,43.56,0,0,0-6,10.39l-29.61,85.62.1-.3a22,22,0,0,0-1.36,6.93,19.92,19.92,0,0,0,.2,3.54c.17,1.06.36,2,.53,3.08l2.14,12.21L961.05,496l4.28,24.41,1.63,9,2.79,15.39.32,1.75.74,0,1,0,2,0-3,5.55L967,558.79l-13.28,24.15h0l-1.43,2.49,15.11,9.78,2.19-2.37,1-1.1,4.78-5.18,13.38-14.5,5.45-5.91h0l.74-.88.07-.61,2.35-20.14h0l0-.13v-.09l-2.32-39.68-2.56-43.75,9.8-32.71,6.5-21.64.23,13.1v.55l1.19,50.91,0-.13,0,.23v-.1l-10.34,77.09h0v.19l-2.3,38.47-1.15,19.3-.28,4.82c-.09,1.6-.11,3.22-.17,4.82l-.3,9.66-1.23,38.62-1.09,38.62L992.85,722c-.12,3.23-.1,6.44-.15,9.67l-.09,9.65-.38,38.63-.65,77.25v1.7l1.28,0h.38l2.24,0v0l-6.56,10.79-16,6.06-8.48,3.2c-2.82,1.08-5.66,2.12-8.47,3.23l-2.17.85v17.45h3.42l77.65,0h3.47V897l0-10,0-10,.06-19.85v0l11.28-129.55c.13-1.34.22-2.7.39-4l.5-4,1-8.07,2.06-16.14,4.1-32.3,7-54.87,7,54.87,4.11,32.3,2,16.14,1,8.07.51,4c.17,1.34.25,2.7.38,4L1091,857.23v0l.06,19.85,0,10,0,10v3.47h3.48l77.64,0h3.43V883l-2.17-.85c-2.81-1.11-5.65-2.15-8.48-3.23l-8.47-3.2-16-6.06-6.56-10.79v0l1.53,0h.72l1.66,0v-1.7l-.66-77.25-.37-38.63-.09-9.65c0-3.23,0-6.44-.15-9.67l-.54-19.31-1.08-38.62-1.23-38.62-.3-9.66c-.07-1.6-.09-3.22-.17-4.82l-.29-4.82-1.15-19.3-2.29-38.47v-.19h0l-10.34-77.09v.1l0-.23,0,.13,1.19-50.91v-.55l.23-13.08v0l8,16.36,5.73,11.51,3,6,8.71,17.49,1.1,2.18c.19.38.33.69.56,1.13s.46.82.7,1.22a21.51,21.51,0,0,0,3.49,4.35,22.36,22.36,0,0,0,4.5,3.3,23.94,23.94,0,0,0,2.43,1.17l2.24,1,5.85,2.53,4.87,2.1,25.15,10.87,18,7.74,18,7.66,2.63,1.12,1-1.93.23-.46h0l1-1.94.05,0,15.84,10.92.62.44.82.06,36.19,2.78,2.48.19.91-2.43,4.52-12.1,1-2.61ZM1059.34,333H1070A120.45,120.45,0,0,1,1085.6,334l-21.14,32-20.82-32A119.23,119.23,0,0,1,1059.34,333ZM990.92,550l-1.78,12.46-16.8,16-4.29,4.07-2.07,2-3.17-1.91L969,567.8l5.41-12.88,3.57-8.48h13.43ZM1032,862.12c-.07,1.66-.12,3.31-.22,5-.12,2.06-.26,4.13-.44,6.19l-.84,16.59h-1.31l-3.62,0-63.62.41-.82-2.91L992.05,875l1.15-.46.48-1,6.58-14.62,31.84,0Zm103.68,11.37.47,1,1.16.46,30.88,12.43-.81,2.91-63.62-.41-3.63,0h-1.31l-.84-16.59c-.18-2.06-.31-4.13-.43-6.19-.1-1.67-.15-3.32-.23-5l-.07-3.23,31.85,0Zm-11.86-305.56c.33,6.42.67,12.84,1.07,19.25.72,12.84,1.66,25.67,2,38.53l2.91,77.13.76,19.28c.14,3.22.15,6.43.23,9.65l.2,9.65.77,38.6c.46,24.11,1,48.21,1.61,72.32l-18.79-1.08-17.81,1L1091.36,792l-2.77-32.47-1.37-16.23-1.29-16.24c-.12-1.36-.19-2.71-.36-4.05l-.47-4.06-1-8.07-1.9-16.19-3.68-32.37c-2.36-21.6-4.72-43.19-6.72-64.83l-.28-2.81h-13.72l-.27,2.81c-2,21.64-4.37,43.23-6.72,64.83l-3.68,32.37-1.9,16.19-1,8.07-.48,4.06c-.17,1.34-.24,2.69-.35,4.05l-1.29,16.24-1.37,16.23L1038,792l-5.46,60.31-18.34-1.05-18.25,1c.55-24.09,1.14-48.2,1.6-72.29l.77-38.6.2-9.65c.08-3.22.09-6.43.24-9.65l.75-19.28,2.91-77.13c.35-12.86,1.29-25.69,2-38.53q.6-9.61,1.07-19.25l.87-16.49,116.59,0Zm113.42-81.26-3.65,9.13-.2.53v0h0l-.36.91-.12,0-1.35-.59L1172.73,471l-5-2.19-4.4-1.92c-1.46-.65-3.12-1.3-4.19-1.91a16.59,16.59,0,0,1-3.28-2.43,17.31,17.31,0,0,1-2.58-3.16c-.17-.29-.35-.59-.5-.89a4.49,4.49,0,0,1-.26-.5l-.28-.54-1.1-2.17-3.71-7.29v0l-23.09-47.08h-8.62l-.06,3.14-.29,16.78-.39,16.77c-.13,5.59-.32,11.18-.48,16.77l-.49,16.77v.23l0,.32,2.23,19.36,2.1,19.37,2.16,19.36,1.68,13.84-57.73-3.51s-43,2.57-57.28,3.46l1.67-13.79,2.16-19.36,2.1-19.37,2.24-19.36,0-.32v-.23l-.5-16.77c-.16-5.59-.35-11.18-.47-16.77l-.4-16.77-.29-16.78-.05-3.14h-8.62L997.7,426l0,.14-10.3,33.58-.15.49,0,.53h0l4.31,80.06-8-.79L973,541.13l-2-12.25-1.49-9.15L967,503.45l-1.26-8.18L962,470.81l-1.89-12.22-.46-3a16.52,16.52,0,0,1-.09-2.63,16.19,16.19,0,0,1,1.15-5.09l.1-.34c4.48-12,8.9-24,13.42-36q1.14-3.09,2.31-6.18l8-21,4-10.51,2-5.25,1-2.62.24-.64.23-.57c.15-.38.3-.75.48-1.11a34.75,34.75,0,0,1,5.17-8.23,40.2,40.2,0,0,1,3.36-3.55c.28-.27.66-.59,1-.88l.5-.46.43-.36.66-.55a1.49,1.49,0,0,0,.2-.15h0c.39-.31.79-.62,1.22-.93,1-.8,2.18-1.56,3.33-2.29a69.28,69.28,0,0,1,7.24-4,91.12,91.12,0,0,1,15.71-5.69q3.19-.84,6.43-1.46L1062,374.53l2.43,3.92,2.45-3.91,24.8-39.52c2.2.43,4.39.92,6.55,1.49A90.92,90.92,0,0,1,1114,342.2a71.37,71.37,0,0,1,7.24,4c1,.6,1.88,1.23,2.77,1.88l0,0,.88.62c.35.24.68.49,1,.73s.66.5.92.74c.48.39,1.43,1.23,1.94,1.7a37.19,37.19,0,0,1,6.31,7.53c.45.69.86,1.42,1.26,2.14.2.37.39.71.58,1.12s.4.83.62,1.25l20.64,40.35,4.94,9.67,5.38,10.5,10.21,20.21.45.9.83.39,63.77,30.64Zm50.52,19-31.7-.5-15.95-10,8.64-16.63,16.12,1.71,24.86,20Z"/><path d="M1108.23,380.1v5.5c-3.52.31-7.06.45-10.59.5,0,3.53-.18,7-.49,10.58h-5.5c-.32-3.53-.45-7.05-.5-10.58-3.53-.05-7.06-.18-10.59-.5v-5.5c3.53-.32,7.06-.45,10.59-.5,0-3.53.18-7.06.5-10.59h5.5c.31,3.53.45,7.06.49,10.59C1101.17,379.65,1104.71,379.78,1108.23,380.1Z"/><path d="M1098.8,254.09l-.4-2.86c0-.23-.09-.46-.15-.68l-.07-.28a35.23,35.23,0,0,0-6.56-13.94,35.13,35.13,0,0,0-19.36-12.4,31.65,31.65,0,0,0-15.55,0,34.72,34.72,0,0,0-25.92,26.33l-.07.29a5,5,0,0,0-.15.69l-.41,2.85c-.09.87-.12,1.75-.15,2.61,0,.4,0,.81,0,1.24a34.23,34.23,0,0,0,.25,3.86c.08.69.18,1.32.29,1.92l.37,1.79c.62,3.58,1.33,7.19,2,10.68l2.61,13.32.46,2.21.22.74a24.79,24.79,0,0,0,2.46,5.8,25.34,25.34,0,0,0,8.79,8.91,25.67,25.67,0,0,0,5.73,2.55c1.1.33,2.09.54,3,.73s1.92.35,2.93.48a41.91,41.91,0,0,0,10.81,0c1-.13,2-.3,2.93-.48s1.87-.4,3-.74a25.24,25.24,0,0,0,17-17.25l.22-.78,3.08-15.53c.69-3.48,1.4-7.08,2-10.61l.37-1.83c.11-.6.2-1.22.29-1.91a32.1,32.1,0,0,0,.24-3.89c0-.4,0-.8,0-1.21C1098.93,255.85,1098.9,255,1098.8,254.09Zm-35.92-21.59,1.42,0h1l.56,0a25.47,25.47,0,0,1,9.91,2.15,25.92,25.92,0,0,1,9.4,6.88,27.28,27.28,0,0,1,5.55,10.48c0,.09,0,.18.08.27a3.31,3.31,0,0,1,.12.42l.43,2.25c.09.6.14,1.2.19,1.84,0,.41.07.82.11,1.19a28.4,28.4,0,0,1,0,3c0,.51-.09,1-.15,1.52l-.25,1.58c-.15.88-.35,1.77-.54,2.63s-.39,1.8-.54,2.71L1086.18,290l-.16.57a18.92,18.92,0,0,1-1.75,4.19,18.41,18.41,0,0,1-6.35,6.42,18.79,18.79,0,0,1-4.18,1.86c-.78.23-1.69.43-2.31.55s-1.57.29-2.43.41a35.21,35.21,0,0,1-9,0c-.88-.12-1.68-.25-2.45-.41-.61-.12-1.52-.32-2.3-.55a18.79,18.79,0,0,1-4.18-1.86,18.32,18.32,0,0,1-6.35-6.42,17.91,17.91,0,0,1-1.75-4.2l-.15-.51-3.92-20.57c-.15-.92-.35-1.83-.55-2.72s-.38-1.75-.53-2.63l-.25-1.57c-.06-.51-.12-1-.16-1.53-.07-1-.08-2.08-.05-3,.05-.41.08-.82.11-1.23.06-.64.1-1.24.19-1.81l.43-2.28c0-.14.08-.28.12-.42l.09-.28a27.31,27.31,0,0,1,5.55-10.47,26.29,26.29,0,0,1,19.05-9Z"/><polygon points="995.48 858.85 995.47 858.87 993.24 858.87 995.48 858.85"/></svg>