<svg id="Capa_1" data-name="Capa 1" xmlns="http://www.w3.org/2000/svg" viewBox="0 0 1300 1000"><defs><style>.cls-1{fill:#be1622;}.cls-2{fill:#fff;}</style></defs><title>2-landmarks-expand</title><polygon class="cls-1" points="346.92 415.2 346.91 415.9 346.9 415.9 346.92 415.2"/><polygon class="cls-1" points="346.99 415.39 346.98 416.09 346.98 416.09 346.99 415.39"/><polygon class="cls-2" points="621.97 225.96 615.02 245.36 597.5 242.53 595.84 222.66 609.8 193.96 615.53 194.62 621.97 225.96"/><path class="cls-2" d="M497.62,262.18c0,.51-.09,1-.15,1.52l-.25,1.59c-.15.88-.35,1.77-.54,2.63s-.4,1.81-.55,2.72l-3.92,20.59-.16.57a18.31,18.31,0,0,1-12.32,12.51c-.78.23-1.69.43-2.3.55-.77.16-1.58.29-2.45.41a35.37,35.37,0,0,1-9,0c-.89-.12-1.69-.25-2.46-.41-.61-.12-1.52-.32-2.3-.55a18.53,18.53,0,0,1-4.2-1.87,17.84,17.84,0,0,1-8.12-10.65l-.15-.51-3.93-20.63c-.15-.92-.35-1.84-.55-2.73s-.39-1.75-.54-2.63l-.25-1.57c-.06-.51-.12-1-.15-1.54a28,28,0,0,1-.05-3c.05-.41.08-.82.11-1.24,0-.63.1-1.23.19-1.81l.43-2.28c0-.15.08-.28.12-.42l.09-.28a27.11,27.11,0,0,1,5.56-10.5,26.3,26.3,0,0,1,19.11-9.06l1.42,0,1,0h.57a25.57,25.57,0,0,1,9.93,2.15,25.9,25.9,0,0,1,9.42,6.91,27.12,27.12,0,0,1,5.58,10.51c0,.08.05.17.07.27a3.24,3.24,0,0,1,.13.41l.43,2.27c.09.6.14,1.2.19,1.83,0,.42.06.83.11,1.2A28.55,28.55,0,0,1,497.62,262.18Z"/><path class="cls-2" d="M437.67,862.27l-.07,3.22c-.07,1.68-.13,3.34-.22,5-.12,2.07-.26,4.15-.44,6.21l-.85,16.67h-1.32l-3.63,0-63.91.42-.82-2.93,31-12.48,1.16-.47.47-1,6.61-14.68Z"/><path class="cls-2" d="M574.41,890.9l-.82,2.93-63.91-.42-3.64,0h-1.32l-.84-16.67c-.18-2.06-.32-4.14-.44-6.21-.1-1.67-.15-3.33-.23-5l-.07-3.23,32,0,6.6,14.68.49,1,1.15.47Z"/><polygon class="cls-2" points="396.81 548.47 396.31 551.95 394.52 564.46 377.63 580.53 373.32 584.62 371.25 586.6 368.06 584.68 374.31 569.84 379.75 556.9 383.29 548.46 396.81 548.47"/><path class="cls-2" d="M539.44,855.69l-18.72-1.07-18,1-5.48-60.6-2.78-32.6L493,746.15l-1.3-16.31c-.11-1.36-.18-2.73-.35-4.08l-.49-4.06-1-8.12L488,697.32l-3.69-32.51c-2.36-21.7-4.74-43.39-6.76-65.13l-.27-2.83h-2.9l-4,0-4,0h-2.9l-.28,2.83c-2,21.74-4.39,43.43-6.75,65.13l-3.69,32.51-1.91,16.26-1,8.12-.49,4.06c-.17,1.35-.24,2.72-.35,4.08l-1.3,16.31-1.38,16.31-2.78,32.6-5.48,60.6-18.06-1-18.7,1.07c.56-24.21,1.15-48.44,1.62-72.66l.77-38.78.2-9.69c.08-3.24.09-6.47.24-9.7l.75-19.37L407.89,628c.35-12.92,1.29-25.8,2-38.7q.58-9.68,1.07-19.35l.87-16.66,117.11,0,.88,16.63c.33,6.45.67,12.9,1.07,19.35.73,12.9,1.68,25.78,2,38.7l2.93,77.47.75,19.37c.15,3.23.16,6.46.24,9.7l.21,9.69.77,38.78C538.29,807.25,538.87,831.47,539.44,855.69Z"/><path class="cls-2" d="M605,250.28l-11.73-3-12.1,74.19-.36,2.17-2.36.23L512.9,330l-5.48.52h-.08l-6,.45-28.44,45-2.46,3.91L468,376,443.26,336q-3.3.64-6.54,1.49a91.25,91.25,0,0,0-15.79,5.73,70,70,0,0,0-7.27,4c-1.16.74-2.29,1.49-3.35,2.3-.42.31-.83.62-1.22.93v0l-.2.15c-.24.19-.47.37-.67.55l-.43.35-.49.47c-.33.29-.72.62-1,.88a42.12,42.12,0,0,0-3.38,3.57,34.89,34.89,0,0,0-5.19,8.26c-.18.37-.33.75-.48,1.12l-.23.58-.25.64-1,2.63-2,5.27-4,10.56-8,21.11q-1.17,3.09-2.33,6.2c-4.53,12-9,24.1-13.48,36.18l-.1.34a16.32,16.32,0,0,0-1.15,5.11,16.78,16.78,0,0,0,.09,2.65l.46,3,1.9,12.28L371,497l1.27,8.22,2.52,16.36,1.49,9.19,2,12.42,10.88-1.12,7.78.78-4.33-80.49h0l0-.54.15-.48,10.35-33.74,0-.14,7.38-25.29h8.66l.06,3.16.29,16.85.4,16.84c.12,5.62.32,11.23.47,16.85l.5,16.85v.22l0,.32-2.24,19.45-2.11,19.46-2.17,19.45-1.68,13.8c13.91-.86,57.83-3.49,57.83-3.49l57.69,3.51-1.68-13.82-2.17-19.45-2.11-19.46L520,473.23l0-.32v-.22l.49-16.85c.17-5.62.36-11.23.48-16.85l.4-16.84.06-3v-.7l.23-13.18,0-3.16.82-27.46,2.11-.65,19.81-6.1,3-.93,4.69-1.4,18.16-5.44,22.84-6.85,5.72-1.71,1.32-.4c.4-.14.78-.3,1.17-.46a17.06,17.06,0,0,0,2.19-1.17,16.62,16.62,0,0,0,6.37-7.55,16,16,0,0,0,1.18-4.9l1.27-17.84L614,295.5l1.7-23.79,1.6-20.68Zm-90.7,136.79c-3.53.31-7.07.44-10.61.49-.05,3.54-.18,7.08-.5,10.62h-5.51c-.32-3.54-.45-7.08-.5-10.62-3.53-.05-7.08-.18-10.62-.49v-5.52c3.54-.32,7.09-.46,10.62-.5.05-3.54.18-7.08.5-10.61h5.51c.32,3.53.46,7.08.5,10.62,3.54,0,7.08.17,10.61.49Z"/><path class="cls-2" d="M494.33,331.48l-23.88,35.95L449.32,335c3.33-.45,6.69-.75,10.07-.92h0Z"/><path d="M628.1,226.65l-.12-.91-4.65-36.18-.37-2.85-2.84-.3-12.9-1.33-2.61-.27-1,2.32-14.1,33.64-.39.9.17.82L593,241.61l-.76-.14-2.07-.36-.38,2.1-13.92,75-90.84,3.92-14.65.63-2.31,0L463,323h-.2a125.47,125.47,0,0,0-28.87,5,99.72,99.72,0,0,0-15.83,6.28,1.19,1.19,0,0,0-.22.12l-1.28.65-2,1.1a72.25,72.25,0,0,0-9.94,6.55c-.39.29-.78.61-1.16.94s-.76.64-1.15,1l-.57.54-.52.49c-.35.34-.69.65-1,1a47.62,47.62,0,0,0-4,4.51,43.85,43.85,0,0,0-6,10.43l-29.75,86,.1-.32a22.06,22.06,0,0,0-1.36,7,21.14,21.14,0,0,0,.19,3.56c.18,1.07.36,2.05.54,3.09L362,473.18l4.3,24.53,4.3,24.52,1.64,9,2.8,15.46.32,1.75h.74l.63,0h.35l2,0,0,0L376,554l-3.74,6.82L359,585.06h0l-1.43,2.5,15.18,9.82,2.19-2.38,1-1.11,4.79-5.2,13.44-14.57,5.48-5.94h0l.74-.87.07-.62,2.36-20.23h0l0-.13v-.09l-2.34-39.86-2.57-43.95,9.85-32.86,6.52-21.74.24,13.17v.54l1.19,51.14,0-.13,0,.24v-.11l-10.39,77.44v.2L403,589l-1.16,19.38-.28,4.84c-.09,1.61-.11,3.23-.17,4.85l-.31,9.7-1.23,38.8-1.09,38.79-.55,19.4c-.11,3.24-.1,6.46-.14,9.7l-.09,9.7-.38,38.8L397,860.56v1.69h1.69l2.22,0,0,0-6.57,10.84-16.12,6.08-8.52,3.22c-2.83,1.08-5.68,2.13-8.51,3.24l-2.18.85V904h3.44l78,0h3.5v-3.49l0-10,0-10,.06-19.94,11.33-130.13c.13-1.36.22-2.72.39-4.06l.51-4.07,1-8.11L459.26,698l4.13-32.44,7-55.12,7,55.12L481.56,698l2.05,16.22,1,8.11.51,4.07c.17,1.34.26,2.7.39,4.06l11.33,130.13.06,19.94,0,10,0,10v3.49h3.49l78,0h3.43V886.47l-2.18-.85c-2.82-1.11-5.67-2.16-8.51-3.24l-8.52-3.22-16.12-6.08L540,862.24v0l2.2,0h1.71v-1.69l-.65-77.62-.38-38.8-.09-9.7c0-3.24,0-6.46-.14-9.7l-.55-19.4L541,666.55l-1.23-38.8-.31-9.7c-.06-1.62-.08-3.24-.17-4.85l-.28-4.84L537.8,589l-2.3-38.66v-.2l-10.39-77.44v.11l0-.24,0,.13,1.19-51.14V421l0-1.73h0l.66-9.95.46-7.17,1.46-22.47,17.83-5.52,7.5-2.31,17.87-5.53,22.81-7.05,5.7-1.76c.49-.15.9-.28,1.51-.49s1.08-.4,1.61-.64a22.91,22.91,0,0,0,3-1.64,22.14,22.14,0,0,0,10.08-17.14l.31-6,.64-11.91,1.27-23.85,2.56-47.68.1-2-1.92-.3-.4-.06,8.37-18.51ZM459.39,334.1h0l34.9-2.62-23.88,35.95L449.32,335C452.65,334.57,456,334.27,459.39,334.1ZM396.31,552l-1.79,12.51-16.89,16.07-4.31,4.09-2.07,2-3.19-1.92,6.25-14.84,5.44-12.94,3.54-8.44h13.52ZM437.6,865.49c-.07,1.68-.13,3.34-.22,5-.12,2.07-.26,4.15-.44,6.21l-.85,16.67h-1.32l-3.63,0-63.91.42-.82-2.93,31-12.48,1.16-.47.47-1,6.61-14.68,32,0Zm104.14,11.43.49,1,1.15.47,31,12.48-.82,2.93-63.91-.42-3.64,0h-1.32l-.84-16.67c-.18-2.06-.32-4.14-.44-6.21-.1-1.67-.15-3.33-.23-5l-.07-3.23,32,0ZM529.84,570c.33,6.45.67,12.9,1.07,19.35.73,12.9,1.68,25.78,2,38.7l2.93,77.47.75,19.37c.15,3.23.16,6.46.24,9.7l.21,9.69.77,38.78c.46,24.22,1,48.44,1.61,72.66l-18.72-1.07-18,1-5.48-60.6-2.78-32.6L493,746.15l-1.3-16.31c-.11-1.36-.18-2.73-.35-4.08l-.49-4.06-1-8.12L488,697.32l-3.69-32.51c-2.36-21.7-4.74-43.39-6.76-65.13l-.27-2.83h-2.9l-4,0-4,0h-2.9l-.28,2.83c-2,21.74-4.39,43.43-6.75,65.13l-3.69,32.51-1.91,16.26-1,8.12-.49,4.06c-.17,1.35-.24,2.72-.35,4.08l-1.3,16.31-1.38,16.31-2.78,32.6-5.48,60.6-18.06-1-18.7,1.07c.56-24.21,1.15-48.44,1.62-72.66l.77-38.78.2-9.69c.08-3.24.09-6.47.24-9.7l.75-19.37L407.89,628c.35-12.92,1.29-25.8,2-38.7q.58-9.68,1.07-19.35l.87-16.66,117.11,0Zm85.83-298.26L614,295.5l-1.68,23.78L611,337.12a16,16,0,0,1-1.18,4.9,16.62,16.62,0,0,1-6.37,7.55,17.06,17.06,0,0,1-2.19,1.17c-.39.16-.77.32-1.17.46l-1.32.4-5.72,1.71-22.84,6.85-18.16,5.44-4.69,1.4-3,.93L524.58,374l-2.11.65-.82,27.46,0,3.16-.23,13.18v.7l-.06,3-.4,16.84c-.12,5.62-.31,11.23-.48,16.85l-.49,16.85v.22l0,.32,2.24,19.45,2.11,19.46,2.17,19.45,1.68,13.82-57.69-3.51s-43.92,2.63-57.83,3.49l1.68-13.8,2.17-19.45,2.11-19.46,2.24-19.45,0-.32v-.22l-.5-16.85c-.15-5.62-.35-11.23-.47-16.85l-.4-16.84-.29-16.85-.06-3.16H410.5l-7.38,25.29,0,.14-10.35,33.74-.15.48,0,.54h0L397,542.83l-7.78-.78-10.88,1.12-2-12.42-1.49-9.19-2.52-16.36L371,497l-3.77-24.56-1.9-12.28-.46-3a16.78,16.78,0,0,1-.09-2.65,16.32,16.32,0,0,1,1.15-5.11l.1-.34c4.5-12.08,9-24.14,13.48-36.18q1.15-3.1,2.33-6.2l8-21.11,4-10.56,2-5.27,1-2.63.25-.64.23-.58c.15-.37.3-.75.48-1.12a34.89,34.89,0,0,1,5.19-8.26,42.12,42.12,0,0,1,3.38-3.57c.28-.26.67-.59,1-.88l.49-.47.43-.35c.2-.18.43-.36.67-.55l.2-.15v0c.39-.31.8-.62,1.22-.93,1.06-.81,2.19-1.56,3.35-2.3a70,70,0,0,1,7.27-4,91.25,91.25,0,0,1,15.79-5.73q3.24-.84,6.54-1.49L468,376l2.43,3.94,2.46-3.91,28.44-45,6-.45h.08l5.48-.52,65.56-6.11,2.36-.23.36-2.17,12.1-74.19,11.73,3,12.26.75ZM615,245.36l-17.52-2.83-1.66-19.87,14-28.7,5.73.66L622,226Z"/><path d="M514.31,381.55v5.52c-3.53.31-7.07.44-10.61.49-.05,3.54-.18,7.08-.5,10.62h-5.51c-.32-3.54-.45-7.08-.5-10.62-3.53-.05-7.08-.18-10.62-.49v-5.52c3.54-.32,7.09-.46,10.62-.5.05-3.54.18-7.08.5-10.61h5.51c.32,3.53.46,7.08.5,10.62C507.24,381.1,510.78,381.23,514.31,381.55Z"/><path d="M505,257.85c0-.86-.06-1.74-.15-2.62l-.4-2.87c0-.23-.1-.45-.16-.68l-.06-.28a35.28,35.28,0,0,0-6.59-14A35.22,35.22,0,0,0,478.25,225a31.81,31.81,0,0,0-15.59,0,34.82,34.82,0,0,0-26,26.4l-.07.28c-.06.23-.12.45-.16.69l-.4,2.86c-.09.88-.12,1.76-.15,2.62,0,.4,0,.81,0,1.25a34.23,34.23,0,0,0,.25,3.86c.08.69.18,1.32.29,1.92l.37,1.81c.62,3.58,1.34,7.2,2,10.7l2.62,13.35.46,2.21.22.75a25.4,25.4,0,0,0,17,17.3c1.11.33,2.09.55,3,.73s1.92.35,2.93.48a42.14,42.14,0,0,0,10.84,0c1-.13,2-.29,2.93-.48s1.88-.4,3-.73a25.77,25.77,0,0,0,5.74-2.56,25.16,25.16,0,0,0,11.28-14.74l.23-.79,3.07-15.52c.69-3.5,1.41-7.12,2-10.68l.37-1.83c.11-.6.21-1.22.3-1.92a36.77,36.77,0,0,0,.24-3.9C505,258.66,505,258.25,505,257.85Zm-7.4,4.33c0,.51-.09,1-.15,1.52l-.26,1.59c-.14.88-.34,1.77-.53,2.64s-.4,1.8-.55,2.71l-3.91,20.58-.17.57a18.09,18.09,0,0,1-1.75,4.2,18.44,18.44,0,0,1-6.37,6.44,18.67,18.67,0,0,1-4.19,1.86c-.78.23-1.69.43-2.31.56s-1.57.29-2.44.4a33.71,33.71,0,0,1-4.53.29,35,35,0,0,1-4.51-.28c-.88-.12-1.69-.26-2.45-.41s-1.53-.33-2.31-.56a18.67,18.67,0,0,1-4.19-1.86,18.32,18.32,0,0,1-6.36-6.44,17.59,17.59,0,0,1-1.76-4.21l-.15-.51-3.93-20.62c-.15-.92-.35-1.84-.55-2.72s-.39-1.76-.53-2.65l-.26-1.57c-.06-.51-.12-1-.15-1.53a28,28,0,0,1-.05-3c0-.41.08-.82.11-1.23.05-.64.1-1.24.19-1.82l.43-2.28c0-.14.08-.28.12-.42l.09-.28a27.24,27.24,0,0,1,5.56-10.5,26.29,26.29,0,0,1,19.1-9l1.42,0h1l.57,0a25.61,25.61,0,0,1,9.93,2.15,26,26,0,0,1,9.42,6.91,27.26,27.26,0,0,1,5.57,10.5,2.76,2.76,0,0,0,.08.27c0,.14.09.28.12.42l.43,2.26c.09.6.14,1.2.19,1.84,0,.41.07.82.11,1.19A28.59,28.59,0,0,1,497.61,262.18Z"/><polygon points="400.88 862.21 400.86 862.24 398.65 862.24 398.65 862.24 400.88 862.21"/><polygon points="542.14 862.24 542.14 862.24 539.95 862.24 539.93 862.21 542.14 862.24"/><polygon points="379.1 548.41 379.08 548.45 376.71 548.45 377.06 548.44 379.1 548.41"/><polygon class="cls-1" points="671.92 415.2 671.91 415.9 671.9 415.9 671.92 415.2"/><polygon class="cls-1" points="671.99 415.39 671.98 416.09 671.98 416.09 671.99 415.39"/></svg>