<svg id="Capa_1" data-name="Capa 1" xmlns="http://www.w3.org/2000/svg" viewBox="0 0 1300 1000"><defs><style>.cls-1{fill:#fff;}</style></defs><title>doctor-consult</title><rect y="900" width="1300" height="100"/><polygon points="1200.49 867.85 1200.43 869.28 1200.31 871.6 1200.35 869.59 1200.36 869.35 1200.37 869.28 1200.49 867.85"/><polygon points="1208.48 869.56 1208.48 869.7 1208.46 869.92 1208.48 869.56"/><polygon points="1081.73 467.54 1081.72 467.77 1081.72 467.67 1081.73 467.54"/><path class="cls-1" d="M1241.44,455.35l-.45,3-1.88,12.21L1235.34,495l-1.26,8.17-2.5,16.28-1.49,9.14-2.25,13.84h-6.34l1,2.44.06.14,4,9.6,5.4,12.89,6.21,14.76-3.16,1.9-2.06-2-4.29-4.07-16.8-16-1.78-12.45-.82-5.74.1-1.9,4.39-81.52h0l0-.54-.16-.47L1203.42,426l0-.13L1196,400.67h-8.62l-.06,3.14-.29,16.77-.39,16.75c-.12,5.59-.32,11.18-.48,16.77l-.49,16.76v.22l0,.32,2.23,19.35,2.1,19.36,2.15,19.36,2.34,19.19,1,19c.33,6.42.67,12.84,1.07,19.25.72,12.83,1.66,25.65,2,38.5l2.91,77.08.75,19.27c.15,3.22.16,6.43.25,9.65l.19,9.65.77,38.58c.48,24.88,1.09,49.76,1.66,74.63l-6.16.1,1.57,3.5L1207.4,873l.48,1,1.15.47L1239.9,887l-.81,2.91-63.58-.42-3.63,0h-1.31l-.84-16.58q-.27-3.09-.43-6.18c-.1-1.66-.15-3.31-.23-5l-.08-3.43-.09-1.77-.05-1.09h0l-5.77-63.78-2.77-32.43-1.37-16.23-1.29-16.23c-.11-1.36-.18-2.71-.35-4.05l-.48-4.06-1-8.07-1.9-16.18L1150.28,662c-2.35-21.59-4.71-43.17-6.72-64.8l-.27-2.82h-2.89l-4,0-4,0h-2.89l-.27,2.82c-2,21.63-4.37,43.21-6.72,64.8l-3.67,32.34L1117,710.53l-1,8.07-.47,4.06c-.17,1.34-.24,2.69-.35,4.05l-1.3,16.23-1.36,16.23-2.77,32.43L1104,855.38h0l0,1.09-.09,1.77-.08,3.43c-.08,1.67-.13,3.32-.22,5q-.18,3.09-.44,6.18l-.84,16.58H1101l-3.62,0-63.59.42L1033,887l30.87-12.42,1.16-.47.48-1,6.83-15.18,1.57-3.5-6.17-.1c.58-24.87,1.19-49.75,1.66-74.63l.77-38.58.2-9.65c.09-3.22.09-6.43.25-9.65l.74-19.27,2.92-77.08c.34-12.85,1.28-25.67,2-38.5.4-6.41.74-12.83,1.07-19.25l1-19,2.33-19.19,2.16-19.36,2.1-19.36,2.23-19.35,0-.32v-.22l-.5-16.76c-.17-5.59-.36-11.18-.48-16.77l-.39-16.75-.29-16.77-.06-3.14h-8.61l-7.35,25.16,0,.13-10.3,33.58-.15.47,0,.54h0l4.39,81.52.1,1.9-.82,5.74-1.78,12.45-16.8,16-4.28,4.07-2.07,2-3.16-1.9,6.2-14.76,5.41-12.89,4-9.6.07-.14,1-2.44H1045l-2.25-13.84-1.49-9.14-2.5-16.28-1.26-8.17-3.77-24.44-1.88-12.21-.45-3a17.93,17.93,0,0,1-.1-2.64,16.54,16.54,0,0,1,1.15-5.09l.1-.33c4.48-12,8.9-24,13.41-36,.76-2.06,1.54-4.12,2.32-6.17l7.94-21,4-10.51,2-5.24,1-2.62.25-.63.22-.58c.16-.38.31-.74.49-1.11a34.65,34.65,0,0,1,5.16-8.22,38.85,38.85,0,0,1,3.36-3.55c.28-.26.67-.59,1-.88l.49-.46.43-.36.66-.55.2-.14v0c.39-.31.79-.61,1.22-.93,1-.8,2.18-1.56,3.33-2.29a71,71,0,0,1,7.22-4,90.59,90.59,0,0,1,15.71-5.69,112.9,112.9,0,0,1,28.19-3.54h10.68a112.82,112.82,0,0,1,28.18,3.54,90.29,90.29,0,0,1,15.71,5.69,70.09,70.09,0,0,1,7.23,4c1.15.73,2.28,1.49,3.33,2.29.42.32.84.62,1.21.93l0,0,.2.14c.24.2.47.38.66.55l.43.36.49.46c.33.29.72.62,1,.88a40.39,40.39,0,0,1,3.37,3.55,34.65,34.65,0,0,1,5.16,8.22c.18.37.33.73.48,1.11l.23.58.24.63,1,2.62,2,5.24,4,10.51,7.93,21q1.17,3.08,2.31,6.17c4.51,12,8.94,24,13.42,36l.1.33a16.24,16.24,0,0,1,1.14,5.09A16.65,16.65,0,0,1,1241.44,455.35Z"/><path class="cls-1" d="M1163.61,258.93c0,.64,0,1.3-.06,2,0,.5-.1,1-.16,1.51l-.25,1.57c-.15.89-.35,1.78-.54,2.64s-.39,1.8-.55,2.7l-3.9,20.52-.16.57a18.64,18.64,0,0,1-1.75,4.19,18.32,18.32,0,0,1-6.35,6.42,17.94,17.94,0,0,1-4.18,1.85c-.77.23-1.68.43-2.29.56-.76.15-1.59.29-2.45.4a35.06,35.06,0,0,1-9,0c-.87-.11-1.7-.25-2.44-.4s-1.53-.33-2.31-.56a18.27,18.27,0,0,1-10.52-8.27,18.56,18.56,0,0,1-1.76-4.2l-.14-.51-3.92-20.56c-.15-.91-.35-1.83-.55-2.71s-.39-1.75-.53-2.64l-.26-1.56c-.06-.51-.11-1-.15-1.52a28,28,0,0,1-.05-3c.05-.41.08-.82.11-1.23,0-.64.1-1.23.19-1.81l.43-2.27c0-.14.08-.28.12-.43s.06-.17.09-.27a27,27,0,0,1,5.55-10.47,26.24,26.24,0,0,1,19-9l1.41,0h1.54a26.21,26.21,0,0,1,19.29,9,27.31,27.31,0,0,1,5.55,10.47,1.71,1.71,0,0,0,.09.27c0,.15.08.29.11.42l.43,2.26c.09.6.14,1.19.19,1.83,0,.41.07.82.11,1.19S1163.61,258.56,1163.61,258.93Z"/><polygon points="1081.73 467.54 1081.72 467.77 1081.72 467.67 1081.73 467.54"/><polygon points="1081.73 467.54 1081.72 467.77 1081.72 467.67 1081.73 467.54"/><path d="M1247.32,882.55l-2.18-.84c-2.8-1.11-5.63-2.15-8.46-3.23l-8.47-3.2-16-6.06-6.56-10.78v0l1.54,0h.7l1.66,0v-1.7l-.65-77.21-.38-38.61-.08-9.65c-.05-3.22,0-6.43-.15-9.66l-.54-19.29-1.08-38.6-1.23-38.6-.3-9.66c-.06-1.6-.09-3.22-.17-4.82l-.29-4.81-1.14-19.3-2.3-38.45v-.2l-10.35-77v0L1192,420v-.55l.23-13.09,6.5,21.63,9.8,32.69L1206,504.38,1203.67,544h0v.08l0,.13h0L1206,564.4l.07.6.75.88h0l5.46,5.91,13.37,14.5,4.77,5.17,1,1.1,2.18,2.37,15.11-9.77-1.42-2.49h0l-13.28-24.14-3.73-6.78-3-5.54,2,0,1,0h.74l.31-1.75,2.79-15.38,1.63-9,4.28-24.39,4.28-24.4,2.14-12.2c.17-1,.35-2,.53-3.07a21,21,0,0,0,.19-3.54,21.83,21.83,0,0,0-1.36-6.94l.1.31-29.6-85.58a43,43,0,0,0-6-10.38,46.91,46.91,0,0,0-4-4.49c-.36-.36-.69-.67-1-1l-.52-.49-.56-.53c-.39-.35-.76-.67-1.15-1s-.76-.64-1.15-.94A73,73,0,0,0,1192,335c-.68-.37-1.34-.74-2-1.1l-1.27-.64a1.19,1.19,0,0,0-.22-.12,100.75,100.75,0,0,0-15.76-6.25,129.1,129.1,0,0,0-72.68,0,100.64,100.64,0,0,0-15.75,6.25,1.19,1.19,0,0,0-.22.12l-1.28.64-2,1.1a72.3,72.3,0,0,0-9.88,6.51c-.4.3-.78.61-1.16.94s-.76.65-1.14,1l-.58.53-.5.49c-.36.34-.69.65-1,1a48.33,48.33,0,0,0-4,4.49,43.62,43.62,0,0,0-6,10.38L1027,445.91l.1-.31a21.54,21.54,0,0,0-1.35,6.94,22,22,0,0,0,.18,3.54c.18,1.06.36,2,.54,3.07l2.14,12.2,4.27,24.4,4.28,24.39,1.63,9,2.78,15.38.33,1.75h.73l1,0,2,0-3,5.54-3.73,6.78-13.27,24.14h0l-1.43,2.49,15.1,9.77,2.19-2.37,1-1.1,4.78-5.17,13.37-14.5,5.44-5.91h0l.75-.88.07-.6,2.34-20.13h0l0-.13v-.08h0l-2.31-39.66-2.56-43.73,9.8-32.69,6.48-21.63.24,13.09V420l1.19,50.88,0-.13,0,.24v-.11l-10.34,77v.2l-2.29,38.45-1.16,19.3-.28,4.81c-.08,1.6-.1,3.22-.16,4.82l-.31,9.66-1.23,38.6-1.08,38.6-.54,19.29c-.11,3.23-.1,6.44-.15,9.66l-.08,9.65-.38,38.61-.65,77.21v1.7l1.52,0h.13l2.25,0,0,0-6.55,10.78-16,6.06-8.47,3.2c-2.82,1.08-5.66,2.12-8.46,3.23l-2.17.84V900H1029l77.6,0H1110v-3.47l0-10,0-10,.06-19.84,0,.17,0-.27v.1l11.27-129.48c.13-1.34.21-2.7.38-4l.52-4,1-8.07,2.06-16.13,4.1-32.29,7-54.84,7,54.84,4.1,32.29,2,16.13,1,8.07.51,4c.17,1.34.25,2.7.38,4l11.27,129.48v-.1l0,.27,0-.17.06,19.84,0,10,0,10v3.47h3.48l77.6,0h3.43V882.55Zm-15.27-315,6.21,14.77-3.16,1.91-2.07-2-4.29-4.07-16.8-16-1.78-12.45-.5-3.54h13.42l3.56,8.48Zm-101-234.71h10.69a122.2,122.2,0,0,1,15.78,1.09l-21.1,31.94-20.84-32A119.06,119.06,0,0,1,1131.09,332.81Zm-68.38,216.91-1.79,12.45-16.8,16-4.28,4.07-2.07,2-3.17-1.91,6.21-14.77,5.42-12.87,3.56-8.48h13.42Zm17.92-20.26,2.16-19.35,2.1-19.36,2.23-19.35,0-.32v-.22l-.49-16.77c-.17-5.58-.35-11.17-.47-16.76l-.4-16.76-.29-16.77-.06-3.14h-8.61l-7.35,25.17,0,.14-10.3,33.56-.15.49,0,.53h0l4.31,80-7.95-.79-10.63,1.08-2-12.24-1.49-9.15-2.5-16.28-1.26-8.16-3.76-24.45-1.88-12.22-.46-3a16.66,16.66,0,0,1-.1-2.64,16.48,16.48,0,0,1,1.15-5.08l.1-.34c4.48-12,8.9-24,13.41-36,.76-2.06,1.54-4.11,2.32-6.17l7.94-21,4-10.5,2-5.25,1-2.62.25-.64.23-.57c.15-.37.3-.75.48-1.11a34.65,34.65,0,0,1,5.16-8.22,38.85,38.85,0,0,1,3.36-3.55c.29-.27.66-.59,1-.88l.49-.47.43-.35c.2-.18.43-.36.66-.55a1.49,1.49,0,0,0,.2-.15h0c.39-.31.79-.62,1.22-.93,1-.8,2.18-1.56,3.33-2.28a69.32,69.32,0,0,1,7.23-4,92.2,92.2,0,0,1,15.7-5.7q3.3-.86,6.66-1.5l24.43,39.5,2.42,3.92,2.45-3.9,24.77-39.46c2.13.42,4.23.9,6.32,1.44a91.69,91.69,0,0,1,15.71,5.7,68.32,68.32,0,0,1,7.23,4c1.16.72,2.29,1.48,3.34,2.28.41.31.83.62,1.2.93h0a1.49,1.49,0,0,0,.2.15c.24.19.47.37.67.55l.42.35.5.47c.32.29.71.61,1,.88a40.28,40.28,0,0,1,3.36,3.55,34.34,34.34,0,0,1,5.16,8.22c.18.36.33.74.49,1.11l.23.57.23.64,1,2.62,2,5.25,4,10.5,7.93,21c.78,2.06,1.56,4.11,2.32,6.17,4.5,12,8.93,24,13.42,36l.1.34a16.47,16.47,0,0,1,1.14,5.08,19.42,19.42,0,0,1-.09,2.64l-.46,3-1.88,12.22L1235.35,495l-1.26,8.16-2.51,16.28-1.49,9.15-2,12.23-10.58-1.07-8,.79,4.3-80h0l0-.53-.15-.49L1203.43,426l0-.14L1196,400.66h-8.62l-.06,3.14-.28,16.77-.4,16.76c-.12,5.59-.32,11.18-.48,16.76l-.49,16.77v.22l0,.32,2.24,19.35,2.09,19.36,2.16,19.35,1.68,13.82-57.41-3.49s-43.56,2.6-57.55,3.47Zm23.17,332.23c-.08,1.66-.13,3.31-.23,5-.12,2.06-.27,4.13-.44,6.19l-.84,16.58H1101l-3.62,0-63.59.41L1033,887l30.87-12.42,1.14-.46.49-1,6.57-14.61,31.83,0Zm59.28-70.08-2.76-32.44-1.38-16.23-1.29-16.23c-.11-1.36-.18-2.71-.34-4.05l-.49-4-1-8.08L1154,694.36,1150.28,662c-2.35-21.59-4.71-43.17-6.72-64.8l-.27-2.81h-13.71l-.28,2.81c-2,21.63-4.37,43.21-6.72,64.8l-3.67,32.35-1.9,16.17-1,8.08-.48,4c-.17,1.34-.24,2.69-.36,4.05l-1.28,16.23-1.37,16.23-2.77,32.44-5.45,60.26-18.09-1-18.48,1c.55-24.09,1.14-48.18,1.59-72.27l.77-38.58.2-9.64c.09-3.22.09-6.43.25-9.65l.74-19.27,2.91-77.08c.35-12.86,1.29-25.68,2-38.52.4-6.4.74-12.82,1.07-19.24l.87-16.48,116.52,0,.87,16.46q.5,9.63,1.07,19.24c.73,12.84,1.66,25.66,2,38.52l2.91,77.08.76,19.27c.15,3.22.16,6.43.24,9.65l.2,9.64.77,38.58c.45,24.09,1,48.18,1.6,72.27l-18.53-1.06-18,1Zm76,98.26-63.58-.41-3.63,0h-1.3l-.85-16.58c-.17-2.06-.32-4.13-.43-6.19-.1-1.66-.15-3.31-.23-5l-.07-3.23,31.83,0,6.58,14.61.47,1,1.16.46L1239.91,887Z"/><path d="M1180.19,379.92v5.5c-3.52.31-7,.45-10.58.5,0,3.52-.18,7.05-.49,10.58h-5.51c-.31-3.53-.44-7.06-.49-10.58-3.52-.05-7.06-.18-10.58-.5v-5.5c3.52-.32,7.06-.45,10.58-.5.05-3.52.18-7.06.49-10.58h5.51c.31,3.52.45,7.06.49,10.58C1173.14,379.47,1176.67,379.6,1180.19,379.92Z"/><path d="M1170.92,256.59c0-.86-.06-1.74-.15-2.61l-.4-2.86c0-.23-.09-.46-.15-.68l-.07-.28a35.25,35.25,0,0,0-6.56-13.93,34.67,34.67,0,0,0-12-9.73,35.08,35.08,0,0,0-7.34-2.66,31.61,31.61,0,0,0-15.54,0,35.08,35.08,0,0,0-7.34,2.66,34.67,34.67,0,0,0-12,9.73,35.28,35.28,0,0,0-6.56,13.92l-.07.29a7,7,0,0,0-.15.69l-.4,2.85c-.1.87-.13,1.75-.15,2.61,0,.4,0,.81,0,1.24a34.17,34.17,0,0,0,.24,3.86c.09.69.18,1.31.29,1.91l.37,1.8c.62,3.58,1.34,7.18,2,10.67l2.61,13.31.46,2.21.22.74a25.1,25.1,0,0,0,11.24,14.7,25.67,25.67,0,0,0,5.73,2.55c1.11.33,2.09.54,3,.73s1.92.35,2.93.48a41.91,41.91,0,0,0,10.81,0c1-.13,2-.3,2.92-.48s1.87-.4,3-.73a25.79,25.79,0,0,0,5.72-2.55,25.2,25.2,0,0,0,11.25-14.7l.22-.78,3.07-15.48c.69-3.49,1.41-7.09,2-10.65l.38-1.82c.11-.6.2-1.22.29-1.91a34.27,34.27,0,0,0,.24-3.89C1171,257.4,1170.94,257,1170.92,256.59Zm-7.38,4.32c0,.51-.09,1-.15,1.51l-.25,1.58c-.15.88-.34,1.77-.53,2.63s-.4,1.8-.55,2.71l-3.91,20.52-.16.57a18.2,18.2,0,0,1-12.27,12.46c-.78.23-1.69.43-2.3.56-.76.15-1.58.28-2.44.4a35.26,35.26,0,0,1-4.51.29,34.89,34.89,0,0,1-4.5-.29c-.87-.12-1.69-.25-2.45-.4s-1.52-.33-2.3-.56a18.05,18.05,0,0,1-4.17-1.85,18.32,18.32,0,0,1-6.35-6.42,18.09,18.09,0,0,1-1.75-4.2l-.15-.51-3.92-20.56c-.15-.92-.35-1.83-.55-2.72s-.38-1.75-.53-2.63l-.25-1.56c-.06-.51-.12-1-.16-1.53-.07-1.06-.08-2.08-.05-3,.05-.41.08-.82.11-1.23.06-.64.1-1.24.19-1.81l.43-2.28c0-.14.08-.28.12-.42l.09-.28a27.13,27.13,0,0,1,5.55-10.46,26.24,26.24,0,0,1,19-9l1.41,0h1.54a25.46,25.46,0,0,1,9.9,2.15,25.8,25.8,0,0,1,9.39,6.88,27.1,27.1,0,0,1,5.55,10.47,2.76,2.76,0,0,1,.08.27,2.21,2.21,0,0,1,.12.42l.43,2.25c.1.6.14,1.2.19,1.84,0,.41.07.82.11,1.19A26,26,0,0,1,1163.54,260.91Z"/><polygon points="1067.26 858.42 1067.24 858.44 1065.01 858.44 1067.26 858.42"/><polygon points="1207.14 858.44 1205.61 858.44 1205.6 858.42 1207.14 858.44"/></svg>