<svg id="Capa_1" data-name="Capa 1" xmlns="http://www.w3.org/2000/svg" viewBox="0 0 1300 1000"><defs><style>.cls-1{fill:#fff;}.cls-2{fill:none;}</style></defs><title>2-landmarks-expand</title><path d="M1262.62,900h-8V140.13a17.58,17.58,0,0,0-17.56-17.56h-610a17.58,17.58,0,0,0-17.56,17.56V900h-8V140.13a25.59,25.59,0,0,1,25.56-25.56h610a25.59,25.59,0,0,1,25.56,25.56Z"/><path d="M1196.33,900h-8V455.13l-12.71-.06L1175.56,900h-8V455.13a8.07,8.07,0,0,1,8.06-8.06h12.66a8.07,8.07,0,0,1,8,8.06Z"/><path d="M1167.51,754.71H1041.1a8.06,8.06,0,0,1-8-8.05V694.49a8.06,8.06,0,0,1,8-8h126.41a8.06,8.06,0,0,1,8,8v52.17A8.06,8.06,0,0,1,1167.51,754.71ZM1041.1,694.44l0,52.22,126.46.05a0,0,0,0,0,0-.05V694.49Z"/><path d="M880.89,900h-8V603.44H684.47V900h-8V599.44a4,4,0,0,1,4-4H876.89a4,4,0,0,1,4,4Z"/><path d="M1069.21,900h-8V754.71h-12.76V900h-8V750.71a4,4,0,0,1,4-4h20.76a4,4,0,0,1,4,4Z"/><path d="M1300,93H589.58A25.59,25.59,0,0,1,564,67.44V0h8V67.44A17.58,17.58,0,0,0,589.58,85H1300Z"/><path d="M664.1,141.86c-14.67,0-26.6-14.13-26.6-31.49s11.93-31.49,26.6-31.49S690.71,93,690.71,110.37a36.92,36.92,0,0,1-1.12,9.06l-6.78-1.71a30,30,0,0,0,.9-7.35c0-13.51-8.8-24.49-19.61-24.49s-19.6,11-19.6,24.49,8.79,24.49,19.6,24.49Z"/><path d="M773.25,141.86c-14.67,0-26.6-14.13-26.6-31.49s11.93-31.49,26.6-31.49S799.86,93,799.86,110.37a37,37,0,0,1-1.12,9.06L792,117.72a30,30,0,0,0,.9-7.35c0-13.51-8.8-24.49-19.61-24.49s-19.6,11-19.6,24.49,8.79,24.49,19.6,24.49Z"/><path d="M882.4,141.86c-14.67,0-26.6-14.13-26.6-31.49s11.93-31.49,26.6-31.49S909,93,909,110.37a37,37,0,0,1-1.12,9.06l-6.78-1.71a30,30,0,0,0,.9-7.35c0-13.51-8.8-24.49-19.61-24.49s-19.6,11-19.6,24.49,8.79,24.49,19.6,24.49Z"/><path d="M991.55,141.86c-14.67,0-26.6-14.13-26.6-31.49s11.93-31.49,26.6-31.49,26.61,14.12,26.61,31.49a37,37,0,0,1-1.12,9.06l-6.78-1.71a30,30,0,0,0,.9-7.35c0-13.51-8.8-24.49-19.61-24.49s-19.6,11-19.6,24.49,8.8,24.49,19.6,24.49Z"/><path d="M1100.71,141.86c-14.67,0-26.61-14.13-26.61-31.49s11.94-31.49,26.61-31.49,26.6,14.12,26.6,31.49a37,37,0,0,1-1.12,9.06l-6.78-1.71a30.44,30.44,0,0,0,.9-7.35c0-13.51-8.8-24.49-19.6-24.49s-19.61,11-19.61,24.49,8.8,24.49,19.61,24.49Z"/><path d="M1209.85,141.86c-14.66,0-26.6-14.13-26.6-31.49s11.94-31.49,26.6-31.49,26.61,14.12,26.61,31.49a36.92,36.92,0,0,1-1.12,9.06l-6.78-1.71a30,30,0,0,0,.9-7.35c0-13.51-8.8-24.49-19.61-24.49s-19.6,11-19.6,24.49,8.79,24.49,19.6,24.49Z"/><path class="cls-1" d="M1041.1,370.25a32.1,32.1,0,0,1-.24-3.89c0-.4,0-.81,0-1.2,0-.86.06-1.74.15-2.62l.4-2.85c0-.23.1-.45.16-.68l.07-.28a35.13,35.13,0,0,1,6.55-13.92,34.78,34.78,0,0,1,12-9.73,35.2,35.2,0,0,1,7.33-2.66,31.56,31.56,0,0,1,15.53,0,35.07,35.07,0,0,1,19.34,12.39,35.17,35.17,0,0,1,6.56,13.91l.07.29c.06.23.11.45.15.69l.4,2.84c.09.88.12,1.76.15,2.61,0,.4,0,.81,0,1.25a30.07,30.07,0,0,1-.25,3.85c-.08.69-.17,1.32-.28,1.92l-.37,1.79c-.62,3.57-1.33,7.18-2,10.66l-2.61,13.31-.47,2.2-.2.75a25.63,25.63,0,0,1-2.47,5.8,25.31,25.31,0,0,1-8.77,8.89,26.08,26.08,0,0,1-5.73,2.55c-1.1.33-2.08.54-3,.73s-1.91.34-2.92.48a41.83,41.83,0,0,1-10.8,0c-1-.14-2-.3-2.92-.48s-1.88-.4-3-.73a25.67,25.67,0,0,1-5.73-2.55,25.34,25.34,0,0,1-8.78-8.89,26.05,26.05,0,0,1-2.46-5.8l-.23-.79-3.06-15.47c-.69-3.48-1.4-7.09-2-10.63l-.37-1.83C1041.28,371.57,1041.19,370.94,1041.1,370.25Z"/><path class="cls-1" d="M1137.07,658.26a18.22,18.22,0,0,1-.43,2l-.5,2.06c-.35,1.36-.84,2.71-1.27,4.07s-1.07,2.68-1.72,4l-1.06,1.93-.53,1-.65.92-1.31,1.82a20.8,20.8,0,0,1-1.42,1.65l-1.45,1.58c-.5.51-1,1-1.56,1.47s-1,1-1.59,1.43l-1.67,1.32c-1.1.9-2.3,1.65-3.47,2.44a62.21,62.21,0,0,1-15.14,7,71.54,71.54,0,0,1-8.07,2c-.69.13-1.38.24-2.1.34s-1.29.2-2,.31l-3.9.65-15.57,2.61L1040.54,704,1025,706.52l-7.79,1.27-2.92.48,21.22,150.23.13,2.17h-5.89l-.1,37.3v1.92h-1.92l-44.36-.07V900l-57.4,0h-3.41V882.54l35.1-13.3,2.16-3.57,4.53-8L930.6,707.34l-1.31-13.44-.08-.58a57.42,57.42,0,0,1-.55-9.07,31.9,31.9,0,0,1,1.67-9.21,35.28,35.28,0,0,1,1.77-4.3A30.62,30.62,0,0,1,941,659.93a44.1,44.1,0,0,1,7.78-4.8,77.58,77.58,0,0,1,8.25-3.5c5.59-2,11.16-3.55,16.76-5.17s11.2-3.12,16.8-4.63c11.15-3,22.26-6,33.58-8.3l6.4-3.59,3,.12,2.56-37,2.67-37.45,2.5-37.44c.77-12.48,1.54-25,2.18-37.45l.5-9.35.26-4.68a37.2,37.2,0,0,1,.6-4.71,39.67,39.67,0,0,1,8-17.12,36.16,36.16,0,0,1,35.27-13,37.77,37.77,0,0,1,18.14,8.81,36.77,36.77,0,0,1,11,17.2h0l.07.22,0,.16.05.17,4.82,28.21,4.26,26.25L1128.6,526l1.06,6.55.54,3.33a22.37,22.37,0,0,1,.21,3.84c0,.64-.07,1.28-.14,1.93,0,.36-.09.63-.13.9l-.13.82-.52,3.28-1.55,5.41c1.33,3.53,1.07,7.24,1.72,10.85l1.86,15.7,3.71,31.38c.64,5.23,1.18,10.47,1.77,15.7l.87,7.89c.31,2.78.46,5.49.5,8.23A81.24,81.24,0,0,1,1137.07,658.26Z"/><path class="cls-1" d="M1048.28,369.47c0,.51.09,1,.15,1.52l.26,1.58c.14.87.34,1.77.53,2.63s.4,1.79.55,2.7l3.9,20.51.16.57a18.84,18.84,0,0,0,1.75,4.18,18.21,18.21,0,0,0,6.34,6.42,18.79,18.79,0,0,0,4.18,1.86c.78.23,1.68.43,2.3.55s1.56.29,2.44.41a36.93,36.93,0,0,0,4.51.28,34.74,34.74,0,0,0,4.49-.28c.88-.12,1.68-.25,2.44-.41s1.53-.32,2.3-.55a18.4,18.4,0,0,0,4.18-1.86,18.18,18.18,0,0,0,6.34-6.41,18.56,18.56,0,0,0,1.76-4.2l.14-.51,3.92-20.55c.15-.92.35-1.83.54-2.71s.39-1.76.54-2.63l.25-1.57c.07-.5.12-1,.16-1.53a27.68,27.68,0,0,0,0-3c0-.4-.07-.81-.1-1.23-.06-.63-.1-1.23-.2-1.8l-.43-2.27c0-.15-.07-.29-.11-.43l-.09-.27A26.86,26.86,0,0,0,1096,350a26.14,26.14,0,0,0-19-9c-.2,0-1,0-1.41,0l-1,0-.56,0a25.24,25.24,0,0,0-9.9,2.14,25.89,25.89,0,0,0-9.39,6.88,27.12,27.12,0,0,0-5.55,10.46,2.76,2.76,0,0,1-.08.27c0,.14-.09.28-.12.42l-.43,2.26c-.09.59-.14,1.19-.19,1.82,0,.42-.06.83-.11,1.19A28.36,28.36,0,0,0,1048.28,369.47Z"/><path d="M1117.38,458.39l-.09-.33-.07-.22.17,1.12Z"/><path d="M1040.48,631.46l2.74-38.19,5.32-74.79,2.62-37.36.66-9.34.33-4.67,0-.57.07-.41.14-.83c.13-.59.22-1.2.39-1.79a26.64,26.64,0,0,1,4.68-9.75,28.73,28.73,0,0,1,2.37-2.68,29.66,29.66,0,0,1,5.57-4.33,30.66,30.66,0,0,1,6.32-2.92,31.58,31.58,0,0,1,6.84-1.39,39.32,39.32,0,0,1,7.11.1,32,32,0,0,1,14.19,4.83,25.81,25.81,0,0,1,6,5.43,25,25,0,0,1,3.81,6.94,284.39,284.39,0,0,1,6.16,28l4.58,26.17,2.34,13.09,1.18,6.53.58,3.22a15.9,15.9,0,0,1,.2,2.84,20.16,20.16,0,0,1-.29,3l-.45,3.29-6,22L1111,579.16l-13.84,22.67-26.88,44-5.13-2.89-6.47,16.76-53.69-.26h0l-.39-1.54-.37-1.44-.37-1.48-1-3.88,28.29-14.37,14.28-.21L1092,548.15l-16.54-45.29-2.57-.33,10.6,45.34-42.22,82.51-10.69-.44-35.87,20.12,4,17.74,3.85-.18,59.88-1.13.62-.66.15-.6,4.11-16.88,4.24,2.5,1.08-1.69,28.56-44.85,21.41-33.63,6.89-24.06.52-3.28.14-.82c0-.27.08-.54.12-.9.07-.65.13-1.29.14-1.93a22.37,22.37,0,0,0-.21-3.84l-.53-3.33L1128.6,526l-2.14-13.12-4.26-26.25-4.81-28.21-.05-.17,0-.16-.07-.22h0a36.77,36.77,0,0,0-11-17.2,37.77,37.77,0,0,0-18.14-8.81,36.16,36.16,0,0,0-35.27,13,39.67,39.67,0,0,0-8,17.12,37.2,37.2,0,0,0-.6,4.71l-.26,4.68-.5,9.35c-.64,12.49-1.41,25-2.18,37.45l-2.5,37.44-2.67,37.45-2.57,37"/><path d="M1013.67,704.2l0-.33,0,.33.79-1.32-6.86,1.12,23.68,152.57H1026l-.35,2.09-5.1,30.73-37.18.14h-3.05l-29.86.19v-2l33.83-13.25,7-15-19.69-95.61-15.27-62.62-6.45,3,.71,4.68,34.57,150.23-6.34,11.43L943.9,885.23v4.53l-13.17.09,0-.14,0-.16-.73-2.61,7.87-3.16,22.94-9.24,1.15-.46.48-1,6.47-14.38.08-.14-.09-.7c-6.1-49.67-23.3-100.16-32-148.85,0,0-1.76-9.71-1.77-9.81s-6-8-6-7.63l1.54,15.8,33.7,150.31-4.53,8-2.16,3.57-35.1,13.3V900h3.41l57.4,0v-.18l44.36.07h1.92V898l.1-37.3h5.89l-.13-2.17Z"/><polygon points="949.95 612.95 949.95 612.96 951.78 612.96 949.95 612.95"/><polygon points="977.19 889.53 980.24 889.51 980.24 889.51 977.19 889.53"/><path d="M1109.78,365.15c0-.85-.06-1.73-.15-2.61l-.4-2.84c0-.24-.09-.46-.15-.69l-.07-.29a35.17,35.17,0,0,0-6.56-13.91,35.07,35.07,0,0,0-19.34-12.39,33.73,33.73,0,0,0-22.86,2.66,34.78,34.78,0,0,0-12,9.73,35.13,35.13,0,0,0-6.55,13.92l-.07.28c-.06.23-.12.45-.16.68l-.4,2.85c-.09.88-.12,1.76-.15,2.62,0,.39,0,.8,0,1.2a32.1,32.1,0,0,0,.24,3.89c.09.69.18,1.32.29,1.91l.37,1.83c.62,3.54,1.33,7.15,2,10.63l3.06,15.47.23.79a26.05,26.05,0,0,0,2.46,5.8,25.34,25.34,0,0,0,8.78,8.89,25.67,25.67,0,0,0,5.73,2.55c1.1.33,2.08.54,3,.73s1.91.34,2.92.48a41.83,41.83,0,0,0,10.8,0c1-.14,2-.3,2.92-.48s1.88-.4,3-.73a26.08,26.08,0,0,0,5.73-2.55,25.31,25.31,0,0,0,8.77-8.89,25.63,25.63,0,0,0,2.47-5.8l.2-.75.47-2.2,2.61-13.31c.7-3.48,1.41-7.09,2-10.66l.37-1.79c.11-.6.2-1.23.28-1.92a30.07,30.07,0,0,0,.25-3.85C1109.81,366,1109.8,365.55,1109.78,365.15Zm-7.37,4.32q-.06.76-.15,1.53l-.25,1.57c-.15.87-.35,1.76-.54,2.62s-.39,1.8-.55,2.72L1097,398.46l-.15.51a18.53,18.53,0,0,1-1.75,4.2,18.27,18.27,0,0,1-6.34,6.41,19.26,19.26,0,0,1-4.18,1.86c-.78.23-1.68.43-2.3.55s-1.56.28-2.45.41a34.63,34.63,0,0,1-4.49.28,37,37,0,0,1-4.51-.28c-.87-.13-1.67-.26-2.44-.41-.61-.12-1.52-.32-2.29-.55a18.85,18.85,0,0,1-4.18-1.86,17.93,17.93,0,0,1-8.1-10.61l-.16-.56-3.9-20.52c-.15-.9-.35-1.81-.54-2.7s-.39-1.75-.54-2.62l-.25-1.59c-.06-.49-.12-1-.16-1.51a28.29,28.29,0,0,1,0-3c0-.37.07-.78.1-1.19.06-.63.1-1.23.2-1.83l.43-2.26c0-.13.07-.27.11-.41l.09-.27a27,27,0,0,1,5.55-10.47,26.1,26.1,0,0,1,19.28-9h.57l1,0,1.41,0a26.18,26.18,0,0,1,19,9,27.11,27.11,0,0,1,5.54,10.46l.09.28c0,.14.09.28.12.42l.43,2.28c.09.57.14,1.17.19,1.8,0,.41.06.82.11,1.23A27.78,27.78,0,0,1,1102.41,369.47Z"/><polygon class="cls-2" points="1013.67 704.2 1013.6 704.2 1013.62 703.5 1013.63 703.58 1013.65 703.87 1013.67 704.2"/><path d="M1008.5,704.06a6,6,0,0,1,1.92-.52l1.94-.35,3.9-.72,7.78-1.42,15.57-2.85,31.15-5.7,15.58-2.79,7.65-1.34a65.87,65.87,0,0,0,7.24-1.89,55.75,55.75,0,0,0,13.4-6.37c1-.7,2-1.36,3-2.15l1.42-1.13c.46-.4.88-.83,1.33-1.24s.89-.82,1.31-1.25l1.19-1.35a16,16,0,0,0,1.16-1.35l1-1.4.5-.69.41-.77.83-1.53c.52-1,.93-2.19,1.4-3.27s.76-2.29,1.06-3.48l.42-1.79a17.58,17.58,0,0,0,.38-1.81,74.5,74.5,0,0,0,1.1-15c0-2.52-.21-5.08-.49-7.53l-.9-7.82c-.6-5.24-1.22-10.48-1.77-15.72l-1.69-15.73-.84-7.87-.77-7.87-1.53-15.75-.76-7.88a3.63,3.63,0,0,1,.13-2c.25-.69.74-1.41,1-2.11a11.42,11.42,0,0,0,.76-4.06l.79-.09c4.6,4.79,3.68,10.19,4.61,15.39l1.85,15.69,3.71,31.39c.64,5.23,1.18,10.47,1.77,15.7l.87,7.89c.31,2.78.46,5.49.5,8.23a81.23,81.23,0,0,1-1.29,16.48,20.79,20.79,0,0,1-.44,2l-.5,2.06c-.35,1.36-.84,2.71-1.27,4.07s-1.07,2.68-1.72,4l-1.06,1.93-.53,1-.65.92-1.31,1.82a20.8,20.8,0,0,1-1.42,1.65l-1.45,1.59c-.5.5-1,1-1.56,1.46s-1,1-1.59,1.43l-1.67,1.32c-1.1.9-2.29,1.65-3.46,2.44a62.28,62.28,0,0,1-15.15,7,71.54,71.54,0,0,1-8.07,2c-.69.13-1.38.24-2.1.34s-1.29.2-2,.31l-3.9.65-15.57,2.61L1040.54,704,1025,706.52l-7.8,1.27-3.9.64-1.94.32a6.25,6.25,0,0,1-2,.16Z"/><polygon points="1134.79 634.46 1081.26 634.23 1081.26 628.64 1134.79 626.86 1134.79 634.46"/><path d="M997.82,655.43c.8,1,3.34,1.12,3.81.81l.1,0,.13-.05h0l-.11,0-.31.1-.66.24-1.36.52-2.73,1.06c-1.82.71-3.65,1.43-5.47,2.17-3.63,1.49-7.28,2.94-10.88,4.49l-10.81,4.63a35.74,35.74,0,0,0-9.2,5.47,16.85,16.85,0,0,0-3.22,3.64,12,12,0,0,0-1.05,2.05c-.32.83-.62,1.66-.86,2.48a20.42,20.42,0,0,0-.83,5,31.28,31.28,0,0,0,.35,5.28c.26,1.83.6,3.79.94,5.68s.74,3.73,1.19,5.61c.88,3.76,1.88,7.55,2.92,11.27l-6.88,1.89c-1-3.87-2-7.7-2.83-11.61-.43-2-.84-3.92-1.21-5.94s-.68-3.9-1-6a38.85,38.85,0,0,1-.4-6.47,29.42,29.42,0,0,1,1.08-6.64c.3-1.06.66-2.09,1-3.09a19.32,19.32,0,0,1,1.6-3.22,24,24,0,0,1,4.49-5.23,42.77,42.77,0,0,1,10.9-6.7L977.35,658,988.1,653l5.37-2.47,2.69-1.25,1.36-.63.7-.32.38-.16.23-.1L999,648l.22-.07.14,0c.49-.32,3-.15,3.85.79Z"/><path d="M1025.12,636.36c-11.07,3.48-22.31,6.33-33.46,9.47-5.58,1.56-11.15,3.14-16.69,4.79s-11.1,3.31-16.45,5.23a67.74,67.74,0,0,0-7.73,3.34,39.4,39.4,0,0,0-7,4.36,26.3,26.3,0,0,0-9,13,27.22,27.22,0,0,0-1.33,7.87,52.2,52.2,0,0,0,.62,8.27c.82,5.66,1.79,11.44,2.68,17.15l-5.21.78-2.39-17.28a57.42,57.42,0,0,1-.55-9.07,32.59,32.59,0,0,1,1.67-9.21,35.28,35.28,0,0,1,1.77-4.3A30.62,30.62,0,0,1,941,659.93a44.1,44.1,0,0,1,7.78-4.8,77.58,77.58,0,0,1,8.25-3.5c5.59-2,11.16-3.55,16.76-5.17s11.2-3.12,16.81-4.63c11.22-3,22.41-6.06,33.81-8.35Z"/><path d="M1073.27,484.74v5.49c-3.53.32-6.06.45-9.58.5,0,3.53-.19,7-.5,10.58h-5.5c-.32-3.53-.45-7.05-.49-10.58-3.53-.05-6.06-.18-9.59-.5v-5.49c3.53-.33,6.06-.46,9.59-.5,0-3.53.17-7.06.49-10.59h5.5c.31,3.53.45,7.06.5,10.59C1067.21,484.28,1069.74,484.41,1073.27,484.74Z"/><path d="M999.61,603.44H676.8a8,8,0,0,1-7.91-8.06V571a8,8,0,0,1,7.91-8H999.61a8,8,0,0,1,7.91,8v24.37A8,8,0,0,1,999.61,603.44Zm-322.74-8H999.5l0-24.43a.06.06,0,0,1,0,0H676.91l0,24.42S676.89,595.43,676.87,595.44Z"/></svg>