<svg id="Capa_1" data-name="Capa 1" xmlns="http://www.w3.org/2000/svg" viewBox="0 0 1300 1000"><defs><style>.cls-1{fill:#fff;}</style></defs><title>2-landmarks-expand</title><path class="cls-1" d="M514.64,262.1c0,.5-.09,1-.15,1.51l-.25,1.57c-.15.89-.35,1.78-.54,2.64s-.39,1.8-.54,2.7L509.25,291l-.16.57a18.2,18.2,0,0,1-12.27,12.46c-.79.23-1.69.43-2.3.56s-1.58.29-2.44.4a35.26,35.26,0,0,1-4.51.29,34.89,34.89,0,0,1-4.5-.29c-.87-.11-1.7-.25-2.45-.4s-1.52-.33-2.3-.56a18.27,18.27,0,0,1-10.52-8.27,17.91,17.91,0,0,1-1.75-4.2l-.16-.51L462,270.53c-.15-.91-.35-1.83-.54-2.71s-.39-1.75-.54-2.64l-.25-1.56c-.07-.51-.12-1-.16-1.52a27.92,27.92,0,0,1,0-3c0-.41.07-.82.1-1.23.06-.63.1-1.23.2-1.81l.43-2.27c0-.14.07-.28.11-.43s.06-.17.09-.27a27,27,0,0,1,5.55-10.47,26,26,0,0,1,9.39-6.88,25.64,25.64,0,0,1,9.65-2.14l1.41,0h1l.57,0a25.64,25.64,0,0,1,9.9,2.14,26,26,0,0,1,9.39,6.88,27,27,0,0,1,5.55,10.47c0,.1.06.19.08.27s.09.29.12.42l.43,2.26c.1.6.14,1.2.19,1.83,0,.41.07.82.11,1.19A26.21,26.21,0,0,1,514.64,262.1Z"/><path class="cls-1" d="M591,888.14l-.81,2.92-63.58-.43-3.63,0h-1.31L520.83,874c-.18-2-.31-4.12-.43-6.18-.1-1.66-.15-3.32-.23-5l-.08-3.43-.09-1.77,0-1.09h0l-5.76-63.77-2.78-32.44L510,744.12l-1.29-16.22c-.11-1.36-.18-2.72-.35-4.06l-.48-4.05-1-8.08-1.9-16.17-3.68-32.35c-2.35-21.59-4.71-43.17-6.72-64.8l-.27-2.81H480.67l-.27,2.81c-2,21.63-4.37,43.21-6.72,64.8L470,695.54l-1.89,16.17-1,8.08-.48,4.05c-.17,1.34-.24,2.7-.35,4.06L465,744.12l-1.37,16.23-2.77,32.44-5.77,63.77h0l-.1,1.09v.24l0,1.53-.08,3.43c-.07,1.66-.13,3.32-.23,5-.11,2.06-.25,4.13-.43,6.18l-.84,16.58h-1.31l-3.63,0-63.58.43-.81-2.92,30.87-12.42,1.15-.47.48-1L423.39,859l1.57-3.49-6.16-.1c.57-24.88,1.18-49.76,1.65-74.65l.78-38.57.2-9.65c.07-3.22.08-6.43.23-9.65l.76-19.27,2.91-77.07c.34-12.86,1.27-25.68,2-38.52.4-6.4.73-12.83,1.07-19.23l1-19,2.34-19.19,2.15-19.36L436,491.93l2.24-19.35,0-.32V472l-.49-16.76c-.16-5.59-.35-11.18-.48-16.77l-.39-16.76L436.6,405l-.05-3.14h-8.62l-.3,2.87c-.4,4.31-.83,8.63-1.26,13s-.84,8.64-1.32,13l-2.76,25.91c-.11,1.09-.25,2.15-.36,3.25l-.27,3.28-.56,6.49-1.1,13-1.12,13-1.18,13c-1.59,17.28-3.1,34.57-4.81,51.85l-2.53,25.91-1.87,18.27h-3.77L394.56,577.6l5.16-18.73.84-3.06h-6.95v0l.37-37.42c0-.82,0-1.63,0-2.44.1-9.88.33-19.75.56-29.62l.4-18c.06-3,.14-6,.16-8.94s.28-5.8.61-8.66.82-5.73,1.44-8.56l.47-2.12.54-2.13c.39-1.48.67-2.94,1-4.4L403.11,416c2.59-11.72,5.29-23.41,7.94-35.12l2-8.79c.16-.77.32-1.34.48-2s.36-1.26.57-1.88a35.74,35.74,0,0,1,1.41-3.65,37.92,37.92,0,0,1,3.94-6.75c.77-1,1.6-2,2.47-3,.45-.47.88-.95,1.35-1.4l.7-.67.79-.72.77-.7c.2-.17.44-.38.69-.58.46-.4,1-.79,1.52-1.19,1.06-.8,2.18-1.55,3.34-2.29a70.09,70.09,0,0,1,7.23-4A89.19,89.19,0,0,1,454,337.54,113.11,113.11,0,0,1,481.63,334h11.24a112.76,112.76,0,0,1,28.18,3.54,89.19,89.19,0,0,1,15.71,5.69,70.09,70.09,0,0,1,7.23,4c1.16.74,2.29,1.49,3.34,2.29.53.4,1.06.79,1.53,1.19l.68.58.77.7.79.72.7.67c.48.45.9.93,1.35,1.4.87,1,1.7,2,2.47,3a37.92,37.92,0,0,1,3.94,6.75,35.74,35.74,0,0,1,1.41,3.65c.21.62.39,1.26.57,1.88s.32,1.23.48,2l2,8.79c2.65,11.71,5.35,23.4,7.94,35.12l3.9,17.56c.34,1.46.63,2.92,1,4.4l.54,2.13.47,2.12c.62,2.83,1.09,5.67,1.44,8.56s.54,5.75.61,8.66.1,5.95.17,8.94l.39,18c.23,9.87.46,19.74.57,29.62v0l0,2.47.37,37.42v0h-7l.85,3.06,5.14,18.73-10.15,26.88h-3.77l-1.87-18.27-2.53-25.91c-1.71-17.28-3.22-34.57-4.81-51.85l-1.18-13-1.12-13-1.1-13-.56-6.49-.27-3.28c-.11-1.1-.25-2.16-.36-3.25L550,430.62c-.48-4.32-.88-8.64-1.31-13s-.87-8.64-1.27-13l-.29-2.87h-8.62l-.06,3.14-.29,16.77-.39,16.76c-.12,5.59-.32,11.18-.48,16.77L536.81,472v.22l0,.32,2.24,19.35,2.09,19.36,2.16,19.36,2.33,19.19,1,19c.33,6.4.68,12.83,1.07,19.23.72,12.84,1.66,25.66,2,38.52l2.91,77.07.76,19.27c.15,3.22.16,6.43.24,9.65l.19,9.65.78,38.57c.47,24.89,1.08,49.77,1.65,74.65l-6.16.1,1.57,3.49,6.84,15.18.47,1,1.15.47Z"/><polygon class="cls-1" points="433.14 471.9 433.13 472.14 433.13 472.03 433.14 471.9"/><path d="M522,257.77c0-.86-.06-1.74-.15-2.61l-.41-2.86a5.52,5.52,0,0,0-.15-.68l-.07-.28a35,35,0,0,0-6.56-13.93,34.57,34.57,0,0,0-12-9.73,35.2,35.2,0,0,0-7.33-2.66,31.65,31.65,0,0,0-15.55,0,35.2,35.2,0,0,0-7.33,2.66,34.67,34.67,0,0,0-12,9.73,35.25,35.25,0,0,0-6.56,13.93l-.07.28a5.29,5.29,0,0,0-.15.69l-.4,2.85c-.1.87-.13,1.76-.16,2.61,0,.4,0,.81-.05,1.24a34.23,34.23,0,0,0,.25,3.86c.09.69.18,1.31.29,1.91l.37,1.8c.62,3.57,1.33,7.18,2,10.67l2.61,13.31.46,2.21.21.74a25.2,25.2,0,0,0,11.25,14.7,25.67,25.67,0,0,0,5.73,2.55c1.1.33,2.08.54,3,.73s1.92.35,2.92.48a41.91,41.91,0,0,0,10.81,0c1-.13,2-.3,2.92-.48s1.88-.4,3-.74a25.21,25.21,0,0,0,17-17.24l.22-.78,3.06-15.48c.7-3.49,1.41-7.1,2-10.65l.37-1.82c.11-.6.21-1.22.29-1.91A34.3,34.3,0,0,0,522,259C522,258.58,522,258.17,522,257.77Zm-7.38,4.32c0,.51-.09,1-.15,1.51l-.26,1.58c-.14.88-.34,1.77-.53,2.64s-.39,1.79-.54,2.7L509.22,291l-.16.57a18.2,18.2,0,0,1-12.27,12.46c-.79.23-1.69.43-2.31.56s-1.57.28-2.44.4a35,35,0,0,1-4.51.29A36.74,36.74,0,0,1,483,305c-.87-.12-1.7-.25-2.45-.4s-1.52-.33-2.3-.56a18.56,18.56,0,0,1-4.18-1.85,18.29,18.29,0,0,1-6.34-6.42,18.56,18.56,0,0,1-1.76-4.2l-.15-.51L462,270.53c-.15-.92-.35-1.83-.55-2.71s-.39-1.76-.53-2.64l-.25-1.56c-.07-.51-.12-1-.16-1.53a27.82,27.82,0,0,1,0-3c0-.41.08-.82.11-1.23.05-.64.1-1.24.19-1.81l.43-2.27c0-.15.08-.29.12-.43l.09-.28a27,27,0,0,1,5.55-10.46,26.14,26.14,0,0,1,19-9l1.42,0h1l.57,0a25.64,25.64,0,0,1,9.9,2.14,26,26,0,0,1,9.39,6.88,27.24,27.24,0,0,1,5.55,10.47,2.76,2.76,0,0,0,.08.27,3.31,3.31,0,0,1,.12.42l.43,2.26c.09.59.14,1.19.19,1.83,0,.41.07.82.11,1.19A28.44,28.44,0,0,1,514.61,262.09Z"/><path d="M598.39,886.07v-2.34l-2.18-.84c-2.8-1.11-5.64-2.15-8.46-3.23l-8.48-3.2-16-6.05-6.57-10.81,2.24,0h1.65v-1.69l-.64-77.21-.38-38.61-.08-9.65c-.05-3.22,0-6.43-.15-9.65l-.54-19.31-1.09-38.59-1.23-38.6-.29-9.66c-.07-1.61-.09-3.22-.17-4.82L555.7,607l-1.15-19.29-2.29-38.45,0-.18v0L541.9,472v0l1.35-57.88,1.88,17L547.91,457c.11,1.08.24,2.16.33,3.23l.26,3.23.51,6.48,1,13q1,13,2,25.95l3.87,51.92,1.91,26,1.83,26,.18,2.38,2.44,0,11.06,0h2l.52-1.87,9.68-34.81.19-.69-.19-.69-4.64-16.35H583l2.1,0,.12-23c-.13-17.13-.1-34.27,0-51.4l.07-18c0-3,0-6,.05-9s-.13-6.13-.41-9.19-.7-6.12-1.28-9.13c-.28-1.49-.61-3-.95-4.47s-.59-2.93-.89-4.39l-3.45-17.63-6.91-35.25-1.72-8.81c-.13-.72-.32-1.52-.49-2.29s-.39-1.56-.61-2.31a42.26,42.26,0,0,0-1.58-4.51,45.09,45.09,0,0,0-4.54-8.4,47.12,47.12,0,0,0-2.91-3.8c-.53-.6-1.05-1.21-1.6-1.77l-.82-.87-.83-.79a51.22,51.22,0,0,0-7.37-6,84.45,84.45,0,0,0-8-4.78,98.21,98.21,0,0,0-17.14-7,128.86,128.86,0,0,0-36.34-5.22h0a128.86,128.86,0,0,0-36.34,5.22A98.84,98.84,0,0,0,434,335a84.3,84.3,0,0,0-8,4.78,50.68,50.68,0,0,0-7.37,6l-.83.79-.83.87c-.55.56-1.07,1.17-1.59,1.77a44.93,44.93,0,0,0-2.91,3.8,45.72,45.72,0,0,0-4.55,8.4,44.53,44.53,0,0,0-1.57,4.51c-.23.75-.42,1.54-.62,2.31s-.35,1.57-.48,2.29l-1.73,8.81-6.91,35.25-3.44,17.63c-.3,1.46-.57,2.95-.9,4.39s-.66,3-1,4.47c-.57,3-1,6.07-1.27,9.13s-.42,6.12-.42,9.19.05,6,.06,9l.07,18c.09,17.13.12,34.27,0,51.4l.12,23,2.1,0h2.17L389.51,577l-.19.69.19.69,9.69,34.81.51,1.87h2l11.07,0,2.43,0,.18-2.38,1.84-26,1.9-26L423,508.86q1-13,2-25.95l1-13,.51-6.48.25-3.23c.09-1.07.23-2.15.34-3.23l2.76-25.86,1.89-17L433.1,472v0l-10.34,77.05v.2l-2.3,38.45L419.29,607l-.28,4.82c-.08,1.6-.1,3.21-.17,4.82l-.3,9.66-1.23,38.6-1.08,38.59-.54,19.31c-.12,3.22-.1,6.43-.15,9.65l-.09,9.65-.38,38.61-.64,77.21v1.69h1.65l2.24,0-6.56,10.81.91-.36-1.59,1.45.68-1.09-16,6.05-8.47,3.2c-2.82,1.08-5.66,2.12-8.47,3.23l-2.17.84v17.45H380l77.61.05h3.48v-3.47l0-10,0-10,.06-19.84,0,.17,0-.27v.1L472.44,728.5c.13-1.35.21-2.7.37-4l.52-4,1-8.07,2.05-16.14,4.1-32.27,7-54.85,7,54.85,4.1,32.27,2.05,16.14,1,8.07.51,4c.17,1.34.25,2.69.38,4L513.83,858v-.1l0,.27,0-.17.06,19.84,0,10,0,10v3.47h3.48l77.6-.05h3.42V886.07ZM570.31,604.48h-3.77l-1.87-18.27-2.49-25.53h13.63l4.65,16.93ZM481.6,334h11.24a120.21,120.21,0,0,1,15.78,1.1L487.52,367l-20.84-32A119.61,119.61,0,0,1,481.6,334ZM410.33,586.21l-1.87,18.27h-3.78L394.53,577.6l4.66-16.93h13.62Zm21.37-55.57,2.16-19.36L436,491.92l2.24-19.34,0-.32V472l-.5-16.75c-.15-5.59-.34-11.19-.47-16.77l-.4-16.76L436.57,405l-.06-3.14h-8.62l-.29,2.86q-.6,6.48-1.27,13c-.43,4.32-.84,8.64-1.31,12.95l-2.76,25.91c-.12,1.09-.25,2.16-.36,3.26l-.27,3.28-.56,6.49-1.1,13-1.12,13-1.18,13c-1.44,15.56-2.8,31.12-4.32,46.68l-8.56-.85-11.21,1.14.37-37,0-2.48v0c.11-9.88.33-19.75.56-29.62l.4-18c.07-3,.15-6,.17-8.93s.27-5.8.61-8.67.81-5.72,1.44-8.56l.47-2.11.54-2.13c.38-1.48.67-2.94,1-4.4L403.08,416c2.58-11.72,5.29-23.42,7.93-35.12l2-8.79c.17-.77.33-1.35.49-2s.36-1.26.56-1.88a36.53,36.53,0,0,1,5.36-10.4c.76-1,1.6-2,2.47-3,.45-.48.88-.95,1.34-1.4l.71-.67.79-.73.76-.69.69-.58c.47-.4,1-.79,1.53-1.19,1.06-.8,2.18-1.55,3.34-2.29a69.06,69.06,0,0,1,7.23-4A89.19,89.19,0,0,1,454,337.54c2.19-.58,4.41-1.08,6.64-1.51l24.43,39.5,2.43,3.92,2.45-3.9,24.77-39.46q3.18.63,6.32,1.45a89.48,89.48,0,0,1,15.71,5.69,70.09,70.09,0,0,1,7.23,4c1.15.74,2.28,1.49,3.33,2.29.54.4,1.06.79,1.54,1.19l.68.58.76.69.8.73.7.67c.47.45.9.92,1.35,1.4.87,1,1.7,2,2.47,3a37.28,37.28,0,0,1,3.93,6.75,35.8,35.8,0,0,1,1.42,3.65c.21.62.39,1.26.57,1.88s.31,1.23.48,2l2,8.79c2.65,11.7,5.35,23.4,7.93,35.12l3.9,17.56c.34,1.46.63,2.92,1,4.4l.54,2.13.47,2.11c.62,2.84,1.09,5.68,1.43,8.56s.55,5.76.62,8.67.1,5.95.17,8.93l.39,18c.23,9.87.46,19.74.57,29.62v0l0,2.48.36,37-10.7-1.1-9.07.9c-1.51-15.58-2.87-31.16-4.31-46.73l-1.18-13-1.12-13-1.1-13-.56-6.49-.27-3.28c-.11-1.1-.25-2.17-.36-3.26L550,430.61c-.48-4.31-.88-8.63-1.32-12.95s-.86-8.64-1.26-13l-.3-2.86h-8.61l-.06,3.14-.29,16.77-.39,16.76c-.13,5.58-.32,11.18-.48,16.77L536.78,472v.23l0,.32L539,491.92l2.1,19.36,2.15,19.36L545,544.47,487.27,541s-42.94,2.58-57.24,3.47Zm23.16,332.22c-.08,1.66-.13,3.32-.23,5-.12,2.06-.26,4.13-.44,6.18l-.84,16.58h-1.3l-3.63,0-63.59.43-.81-2.92,30.88-12.42,1.14-.47.48-1,6.67-14.81,31.75,0Zm59.29-70.07-2.77-32.44L510,744.12l-1.29-16.23c-.11-1.36-.18-2.72-.35-4l-.48-4.05-1-8.08L505,695.54l-3.67-32.36c-2.35-21.58-4.72-43.16-6.72-64.79l-.27-2.81H480.64l-.27,2.81c-2,21.63-4.37,43.21-6.72,64.79L470,695.54l-1.9,16.17-1,8.08-.49,4.05c-.16,1.33-.23,2.69-.34,4L465,744.12l-1.38,16.23-2.76,32.44-5.44,60.05-18.08-1-18.5,1.06c.55-24,1.14-48,1.59-72.07l.77-38.57.2-9.65c.08-3.22.09-6.43.24-9.65l.75-19.27,2.91-77.08c.35-12.86,1.28-25.67,2-38.51.4-6.41.73-12.83,1.06-19.24l.88-16.49,116.52,0,.87,16.47c.33,6.41.67,12.83,1.07,19.24.72,12.84,1.66,25.65,2,38.51l2.91,77.08.75,19.27c.15,3.22.16,6.43.24,9.65l.2,9.65.77,38.57c.46,24,1,48.05,1.6,72.07l-18.51-1.06-18.08,1Zm76,98.27-63.59-.43-3.62,0h-1.31L520.8,874c-.18-2-.32-4.12-.44-6.18-.1-1.66-.14-3.32-.22-5l-.08-3.43,31.74,0,6.67,14.81.48,1,1.15.47L591,888.14Z"/><path d="M531.26,381.1v5.5c-3.52.31-7.06.44-10.58.49,0,3.53-.18,7.06-.5,10.59h-5.5c-.31-3.53-.45-7.06-.49-10.59-3.53,0-7.06-.18-10.58-.49v-5.5c3.52-.32,7.05-.46,10.58-.5,0-3.53.17-7.06.49-10.58h5.5c.32,3.52.45,7.05.5,10.58C524.2,380.65,527.74,380.78,531.26,381.1Z"/><polygon points="461.17 857.88 461.17 857.98 461.15 858.15 461.17 857.88"/><polygon points="433.11 471.9 433.1 472.13 433.1 472.03 433.11 471.9"/><polygon points="412.67 870.05 411.08 871.5 411.76 870.41 412.67 870.05"/><path d="M394,515.93l0,2.44,0-2.48Z"/></svg>