<svg id="Capa_1" data-name="Capa 1" xmlns="http://www.w3.org/2000/svg" viewBox="0 0 1300 1000"><title>2-landmarks-expand</title><rect y="900" width="1300" height="100"/><path d="M593.81,571.12H298.91a4,4,0,0,1-4-4v-28A8.07,8.07,0,0,1,303,531H589.76a8.07,8.07,0,0,1,8,8.06v28A4,4,0,0,1,593.81,571.12Zm-290.89-8H589.81v-24L303,539Z"/><path d="M769.08,900.21h-8V652.46a8.07,8.07,0,0,1,8.06-8.06H1300v8H769.14Z"/><path d="M542.78,868.46H349.65a8.07,8.07,0,0,1-8.06-8.06v-217a8.07,8.07,0,0,1,8.06-8.05H542.78a8.06,8.06,0,0,1,8.05,8.05v217A8.07,8.07,0,0,1,542.78,868.46ZM349.65,643.3l-.06,217.1,193.19.06a.06.06,0,0,0,.05-.06v-217Z"/><rect x="1168.03" y="614.49" width="142.96" height="8" transform="translate(-145.07 575.45) rotate(-24.74)"/><rect x="1160.28" y="580.61" width="152.18" height="8" transform="translate(-131.18 571.03) rotate(-24.74)"/><rect x="372.04" y="719.07" width="8" height="54.64"/><rect x="316.91" y="567.12" width="8" height="333.08"/><rect x="567.81" y="567.12" width="8" height="333.08"/><path d="M534.22,535h-8V446.11a27.92,27.92,0,1,0-55.83,0h-8a35.92,35.92,0,1,1,71.83,0Z"/><rect x="460.15" y="450.93" width="11.48" height="8"/><rect x="782.06" y="648.4" width="8" height="251.8"/><rect x="1269.36" y="648.4" width="8" height="251.8"/><rect x="1292.06" y="648.4" width="8" height="251.8"/><path d="M1167.2,652.4H761.71a8.06,8.06,0,0,1-8.05-8v-24a8.07,8.07,0,0,1,8.05-8.06H1167.2a8.07,8.07,0,0,1,8,8.06v24A8.06,8.06,0,0,1,1167.2,652.4ZM761.71,620.32l-.05,24,405.54,0a0,0,0,0,0,0,0v-24Z"/><path d="M1080.73,831.47H898a8.06,8.06,0,0,1-8.05-8.06v-34a8.06,8.06,0,0,1,8.05-8.06h182.75a8.07,8.07,0,0,1,8.06,8.06v34A8.07,8.07,0,0,1,1080.73,831.47ZM898,789.37l-.05,34,182.8.06a.06.06,0,0,0,.06-.06v-34Z"/><rect x="897.38" y="827.47" width="8" height="72.74"/><rect x="917.17" y="827.47" width="8" height="72.74"/><rect x="1053.34" y="827.47" width="8" height="72.74"/><rect x="1073.13" y="827.47" width="8" height="72.74"/></svg>