<svg id="Capa_1" data-name="Capa 1" xmlns="http://www.w3.org/2000/svg" viewBox="0 0 1300 1000"><defs><style>.cls-1{opacity:0.5;}.cls-2{fill:#2d2e83;}.cls-3{fill:#fff;}</style></defs><title>2-landmarks-expand</title><g class="cls-1"><path class="cls-2" d="M427.36,351.25c-.09-.15-.18-.29-.28-.43h0C427.18,351,427.27,351.1,427.36,351.25Z"/></g><path class="cls-3" d="M338.82,500.15l-1.26,6.23-32.41-1.32L287,493.68h0l-2.32-1.46-1.28,2.28L282,497.13l-60.21-26.28-5-2.18-4.42-1.92c-1.45-.66-3.11-1.31-4.18-1.92a16.53,16.53,0,0,1-3.27-2.43,16.34,16.34,0,0,1-2.59-3.16l-.5-.88c-.07-.14-.17-.31-.26-.51l-.28-.53-1.1-2.18-3.71-7.3h0l-23.1-47.09h-8.62l0,3.15-.29,16.78-.4,16.76c-.12,5.6-.31,11.19-.47,16.79L163,471v.22l0,.32,2.23,19.36,2.1,19.38,2.16,19.37,2.34,19.21,1,19c.33,6.42.67,12.85,1.07,19.26.72,12.84,1.66,25.68,2,38.54l2.91,77.14.75,19.28c.15,3.22.16,6.44.24,9.66l.2,9.65.77,38.61c.48,24.9,1.08,49.8,1.65,74.69l-6.16.1,1.57,3.5,6.84,15.19.48,1,1.16.47,30.89,12.44-.82,2.91-63.63-.42-3.63,0h-1.31l-.84-16.6c-.17-2.06-.32-4.13-.44-6.19-.1-1.66-.14-3.31-.22-5l-.08-3.43-.09-1.77,0-1.09h0L140.37,792l-2.76-32.47-1.38-16.23L135,727c-.12-1.36-.19-2.72-.36-4.06l-.47-4.06-1-8.08-1.9-16.19-3.68-32.37c-2.35-21.6-4.72-43.2-6.72-64.84l-.27-2.82H106.84l-.27,2.82c-2,21.64-4.37,43.24-6.72,64.84l-3.69,32.37-1.89,16.19-1,8.08L92.82,723c-.17,1.34-.24,2.7-.35,4.06l-1.3,16.24-1.36,16.23L87,792,81.26,855.8h0l-.05,1.09-.09,1.77L81,862.1c-.08,1.67-.13,3.32-.23,5-.11,2.06-.25,4.13-.43,6.19l-.84,16.6H78.23l-3.63,0L11,890.32l-.82-2.91L41.05,875l1.15-.47.48-1,6.84-15.19,1.57-3.5-6.17-.1c.58-24.89,1.18-49.79,1.66-74.69l.77-38.61.2-9.65c.08-3.22.09-6.44.24-9.66l.75-19.28,2.92-77.14c.34-12.86,1.28-25.7,2-38.54.4-6.41.74-12.84,1.07-19.26l1-19,2.34-19.21L60,510.27l2.1-19.38,2.23-19.36,0-.32V471l-.49-16.77c-.17-5.6-.36-11.19-.48-16.79L63,420.67l-.3-16.78,0-3.15H54.05L46.7,425.93l0,.13-10.31,33.6-.15.48,0,.54h0l4.39,81.59.1,1.9-.82,5.74-1.78,12.46-16.82,16L17,582.44l-2.06,2-3.16-1.91L18,567.73l5.42-12.89,4-9.61.06-.14,1-2.45H22.22L20,528.8l-1.49-9.15L16,503.35l-1.25-8.17L11,470.72,9.07,458.5l-.45-3a16.7,16.7,0,0,1-.1-2.64,16.26,16.26,0,0,1,1.15-5.09l.09-.34c4.49-12,8.92-24,13.42-36q1.16-3.09,2.33-6.17l7.94-21,4-10.51,2-5.25,1-2.61.23-.64.24-.58c.15-.38.3-.74.48-1.11a34.63,34.63,0,0,1,5.17-8.23,38.74,38.74,0,0,1,3.36-3.54c.28-.27.67-.6,1-.89l.49-.46.43-.36c.19-.17.42-.36.66-.55l.2-.14,0,0c.37-.31.79-.61,1.21-.93,1.05-.8,2.18-1.56,3.33-2.29a72.23,72.23,0,0,1,7.23-4,90.53,90.53,0,0,1,15.73-5.7,113,113,0,0,1,28.2-3.54c.49,0,1,0,1.49,0h7.71c.49,0,1,0,1.49,0a113.12,113.12,0,0,1,28.21,3.54,90.33,90.33,0,0,1,15.71,5.7,69.22,69.22,0,0,1,7.24,4c.95.61,1.89,1.23,2.78,1.88l0,0c.3.2.6.41.89.63a10.39,10.39,0,0,1,1,.73c.32.24.66.5.93.73.47.4,1.43,1.23,1.94,1.7a36.82,36.82,0,0,1,3.4,3.55,39,39,0,0,1,2.91,4c.44.7.86,1.42,1.26,2.14.2.38.38.71.58,1.12s.4.83.62,1.25l20.64,40.37,4.94,9.66,5.38,10.51,10.22,20.21.45.89.82.4,67.06,32.22.33.17.4,0L314,480.11Z"/><path class="cls-3" d="M140.59,260.89c0,.51-.09,1-.15,1.51l-.26,1.58c-.14.88-.34,1.78-.53,2.64s-.39,1.8-.54,2.7l-3.91,20.54-.17.57a18.19,18.19,0,0,1-1.75,4.19,18.29,18.29,0,0,1-10.53,8.28c-.78.23-1.68.43-2.3.55s-1.58.29-2.44.41a36.46,36.46,0,0,1-9,0c-.88-.12-1.68-.25-2.45-.41-.61-.12-1.52-.32-2.29-.55a18.26,18.26,0,0,1-10.54-8.28,18.27,18.27,0,0,1-1.75-4.2l-.15-.52-3.92-20.57c-.15-.91-.35-1.83-.55-2.71s-.39-1.76-.53-2.64l-.26-1.57c-.06-.51-.11-1-.15-1.52-.07-1.06-.08-2.09-.05-3,0-.41.08-.82.11-1.23.06-.64.1-1.24.19-1.81l.43-2.28a3.31,3.31,0,0,1,.12-.42,2.29,2.29,0,0,0,.08-.28,27.19,27.19,0,0,1,5.56-10.47,26,26,0,0,1,9.4-6.89,25.69,25.69,0,0,1,9.66-2.14l1.41,0h1l.57,0a25.68,25.68,0,0,1,9.91,2.14,26,26,0,0,1,9.39,6.89,27,27,0,0,1,5.55,10.48,1.43,1.43,0,0,1,.09.27,3.71,3.71,0,0,1,.12.41l.43,2.26c.1.6.14,1.2.19,1.84,0,.41.07.82.11,1.19A26.21,26.21,0,0,1,140.59,260.89Z"/><path d="M346.72,495.67l-30.32-20-.64-.44-.62,0h0l-17.71-.79-65.13-33-9.16-19.64-9.65-20.44L194.17,360.5c-.2-.42-.4-.86-.59-1.3s-.44-.91-.65-1.36c-.46-.9-.93-1.8-1.45-2.67a47.27,47.27,0,0,0-3.41-5,44.16,44.16,0,0,0-4-4.52c-.76-.76-1.34-1.28-2.16-2s-1.54-1.35-2.33-1.95a76.5,76.5,0,0,0-9.91-6.42L167.33,334l-.27-.14-.43-.21-.57-.29-.21-.12A102.3,102.3,0,0,0,150.08,327a129.48,129.48,0,0,0-72.72,0,102.3,102.3,0,0,0-15.77,6.26l-.21.12-1.27.64c-.69.36-1.36.73-2,1.1a74.52,74.52,0,0,0-9.91,6.51c-.38.3-.76.62-1.14.95s-.77.64-1.15,1l-.57.53-.51.49c-.35.34-.69.65-1.05,1a45.47,45.47,0,0,0-3.95,4.49,43.56,43.56,0,0,0-6,10.39L4.19,446.12l.1-.3a21.71,21.71,0,0,0-1.36,6.93,20.9,20.9,0,0,0,.19,3.54c.18,1.06.36,2,.54,3.08L5.8,471.58,10.08,496l4.27,24.41,1.64,9,2.78,15.39.33,1.75.73,0,1,0,2,0-3,5.55-3.73,6.78L2.77,582.94h0l-1.43,2.49,15.11,9.78,2.19-2.37,1-1.1,4.78-5.18,13.38-14.5,5.45-5.91h0l.75-.88.07-.61,2.34-20.14h0l0-.13v-.09l-2.32-39.68-2.56-43.75,9.8-32.71,6.49-21.64.24,13.1v.55l1.19,50.91,0-.13,0,.23v-.1L49,548.17h0v.19l-2.3,38.47-1.15,19.3L45.19,611c-.08,1.6-.1,3.22-.16,4.82l-.3,9.66L43.5,664.06l-1.09,38.62L41.87,722c-.11,3.23-.1,6.44-.14,9.67l-.09,9.65-.38,38.63-.65,77.25v1.7l1.28,0h.38l2.24,0,0,0-6.55,10.79-16,6.06-8.47,3.2C10.6,880,7.76,881,5,882.15L2.78,883v17.45H6.19l77.65,0h3.47V897l0-10,0-10,.06-19.85v0L98.65,727.68c.13-1.34.21-2.7.38-4l.51-4,1-8.07,2.05-16.14,4.11-32.3,7-54.87,7,54.87,4.11,32.3,2.05,16.14,1,8.07.51,4c.16,1.34.25,2.7.38,4l11.28,129.55v0l.06,19.85,0,10,0,10v3.47h3.48l77.64,0h3.43V883l-2.18-.85c-2.8-1.11-5.65-2.15-8.47-3.23l-8.48-3.2-16-6.06-6.56-10.79v0l1.53,0h.71l1.66,0v-1.7l-.65-77.25-.38-38.63-.08-9.65c-.05-3.23,0-6.44-.15-9.67L185,702.68l-1.09-38.62-1.22-38.62-.31-9.66c-.06-1.6-.08-3.22-.17-4.82l-.28-4.82-1.15-19.3-2.29-38.47v-.19h0l-10.35-77.09v0l1.2-50.91v-.55l.23-13.08,0,0,8,16.36,5.73,11.51,3,6L195,457.91l1.09,2.18c.2.38.33.69.57,1.13s.46.82.69,1.22a21.49,21.49,0,0,0,8,7.65,23,23,0,0,0,2.43,1.17l2.24,1,5.84,2.53,4.88,2.1,25.15,10.87,17.95,7.74,18,7.66,2.63,1.12,1-1.93.23-.46h0l1-1.94,0,0,15.85,10.92.62.44.81.06,36.2,2.78,2.48.19.9-2.43L348,499.8l1-2.61ZM108.37,333h10.7A120.57,120.57,0,0,1,134.63,334l-21.14,32-20.82-32A119.23,119.23,0,0,1,108.37,333ZM40,550l-1.78,12.46-16.81,16-4.28,4.07-2.07,2-3.17-1.91,6.21-14.77,5.41-12.88L27,546.44H40.46ZM81.06,862.12c-.07,1.66-.12,3.31-.22,5-.12,2.06-.26,4.13-.44,6.19l-.84,16.59H78.25l-3.62,0L11,890.32l-.82-2.91L41.07,875l1.16-.46.48-1,6.57-14.62,31.85,0Zm103.68,11.37.47,1,1.15.46,30.89,12.43-.81,2.91-63.62-.41-3.63,0h-1.31L147,873.29c-.18-2.06-.32-4.13-.43-6.19-.1-1.67-.16-3.32-.23-5l-.07-3.23,31.85,0ZM172.88,567.93c.33,6.42.67,12.84,1.07,19.25.72,12.84,1.66,25.67,2,38.53l2.91,77.13.75,19.28c.15,3.22.16,6.43.24,9.65l.2,9.65.77,38.6c.46,24.11,1,48.21,1.61,72.32l-18.79-1.08-17.81,1L140.39,792l-2.78-32.47-1.36-16.23L135,727.07c-.11-1.36-.18-2.71-.35-4.05l-.48-4.06-1-8.07-1.9-16.19-3.68-32.37c-2.36-21.6-4.72-43.19-6.72-64.83l-.28-2.81H106.86l-.27,2.81c-2,21.64-4.37,43.23-6.73,64.83L96.19,694.7l-1.9,16.19-1,8.07L92.84,723c-.17,1.34-.24,2.69-.36,4.05L91.2,743.31l-1.38,16.23L87.06,792,81.6,852.32l-18.34-1.05-18.25,1c.55-24.09,1.14-48.2,1.6-72.29l.77-38.6.2-9.65c.08-3.22.09-6.43.24-9.65l.75-19.28,2.91-77.13c.35-12.86,1.29-25.69,2-38.53.4-6.41.74-12.83,1.07-19.25l.87-16.49,116.58,0ZM286.3,486.67l-3.65,9.13-.21.53v0h0l-.36.91-.13,0-1.34-.59L221.76,471l-5-2.19-4.41-1.92c-1.46-.65-3.11-1.3-4.18-1.91a16.31,16.31,0,0,1-3.28-2.43,17.31,17.31,0,0,1-2.58-3.16c-.17-.29-.35-.59-.5-.89a4.49,4.49,0,0,1-.26-.5l-.28-.54-1.1-2.17L196.46,448v0l-23.09-47.08h-8.63l0,3.14-.29,16.78L164,437.54c-.13,5.59-.32,11.18-.48,16.77L163,471.08v.23l0,.32L165.29,491l2.1,19.37,2.16,19.36,1.68,13.84-57.73-3.51s-43,2.57-57.28,3.46l1.67-13.79,2.16-19.36L62.15,491l2.24-19.36,0-.32v-.23l-.5-16.77c-.16-5.59-.35-11.18-.47-16.77l-.4-16.77L62.76,404l-.06-3.14H54.09L46.73,426l0,.14-10.3,33.58-.15.49,0,.53h0l4.31,80.06-8-.79L22,541.13l-2-12.25-1.49-9.15L16,503.45l-1.26-8.18L11,470.81,9.1,458.59l-.45-3a16.52,16.52,0,0,1-.09-2.63,16.18,16.18,0,0,1,1.14-5.09l.1-.34c4.48-12,8.91-24,13.42-36q1.16-3.09,2.32-6.18l8-21,4-10.51,2-5.25,1-2.62.24-.64.23-.57c.15-.38.3-.75.48-1.11a35,35,0,0,1,5.16-8.23,41.84,41.84,0,0,1,3.37-3.55c.28-.27.66-.59,1-.88l.49-.46.43-.36.67-.55.2-.15h0c.39-.31.79-.62,1.22-.93,1.05-.8,2.18-1.56,3.33-2.29a69.28,69.28,0,0,1,7.24-4,91.12,91.12,0,0,1,15.71-5.69q3.19-.84,6.43-1.46L111,374.53l2.42,3.92,2.46-3.91L140.71,335c2.2.43,4.39.92,6.55,1.49A90.92,90.92,0,0,1,163,342.2a70.16,70.16,0,0,1,7.23,4c1,.6,1.89,1.23,2.78,1.88l0,0,.88.62c.35.24.68.49,1,.73s.66.5.93.74c.48.39,1.43,1.23,1.94,1.7a36.82,36.82,0,0,1,3.4,3.55,35.51,35.51,0,0,1,2.9,4c.46.69.86,1.42,1.27,2.14.19.37.39.71.58,1.12s.4.83.62,1.25l20.64,40.35,4.94,9.67,5.38,10.5,10.21,20.21.45.9.83.39,63.77,30.64Zm50.52,19-31.7-.5-15.95-10,8.64-16.63,16.12,1.71,24.86,20Z"/><path d="M157.26,380.1v5.5c-3.53.31-7.06.45-10.59.5,0,3.53-.18,7-.49,10.58h-5.51c-.31-3.53-.44-7.05-.5-10.58-3.52-.05-7-.18-10.58-.5v-5.5c3.53-.32,7.06-.45,10.58-.5.05-3.53.19-7.06.5-10.59h5.51c.31,3.53.44,7.06.49,10.59C150.2,379.65,153.73,379.78,157.26,380.1Z"/><path d="M147.83,254.09l-.4-2.86c0-.23-.09-.46-.15-.68l-.07-.28a35.11,35.11,0,0,0-6.57-13.94,34.71,34.71,0,0,0-12-9.74,35.08,35.08,0,0,0-7.34-2.66,36.27,36.27,0,0,0-7.79-1,36.15,36.15,0,0,0-7.76,1,34.72,34.72,0,0,0-25.92,26.33l-.07.29a7,7,0,0,0-.16.69l-.4,2.85c-.09.87-.12,1.75-.15,2.61,0,.4,0,.81-.05,1.24a34.23,34.23,0,0,0,.25,3.86c.08.69.18,1.32.29,1.92l.36,1.79c.63,3.58,1.34,7.19,2,10.68l2.62,13.32.46,2.21.21.74a25.22,25.22,0,0,0,11.26,14.71,25.67,25.67,0,0,0,5.73,2.55c1.1.33,2.08.54,3,.73s1.92.35,2.93.48a41.91,41.91,0,0,0,10.81,0c1-.13,2-.3,2.92-.48s1.88-.4,3-.74a25.24,25.24,0,0,0,17-17.25l.22-.78,3.08-15.53c.69-3.48,1.4-7.08,2-10.61l.38-1.83c.11-.6.2-1.22.29-1.91a34.27,34.27,0,0,0,.24-3.89c0-.4,0-.8-.05-1.21C148,255.85,147.92,255,147.83,254.09ZM111.91,232.5l1.42,0h1l.57,0a25.47,25.47,0,0,1,9.91,2.15,25.8,25.8,0,0,1,9.39,6.88A27.16,27.16,0,0,1,139.72,252a2.76,2.76,0,0,0,.08.27,3.31,3.31,0,0,1,.12.42l.43,2.25c.09.6.14,1.2.19,1.84,0,.41.07.82.11,1.19a28.4,28.4,0,0,1-.05,3c0,.51-.09,1-.15,1.52l-.26,1.58c-.14.88-.34,1.77-.53,2.63s-.39,1.8-.54,2.71L135.21,290l-.17.57a18,18,0,0,1-1.75,4.19,18.24,18.24,0,0,1-6.35,6.42,18.52,18.52,0,0,1-4.17,1.86c-.79.23-1.69.43-2.31.55s-1.58.29-2.44.41a35.14,35.14,0,0,1-9,0c-.88-.12-1.68-.25-2.45-.41s-1.52-.32-2.3-.55a18.59,18.59,0,0,1-4.18-1.86,18.32,18.32,0,0,1-6.35-6.42,17.91,17.91,0,0,1-1.75-4.2l-.15-.51-3.92-20.57c-.15-.92-.35-1.83-.55-2.72s-.38-1.75-.53-2.63l-.25-1.57c-.07-.51-.12-1-.16-1.53a27.82,27.82,0,0,1,0-3c0-.41.08-.82.11-1.23,0-.64.1-1.24.19-1.81l.43-2.28c0-.14.08-.28.12-.42l.09-.28a27,27,0,0,1,5.55-10.47,26.24,26.24,0,0,1,19-9Z"/><polygon points="44.51 858.85 44.49 858.87 42.27 858.87 44.51 858.85"/><polygon points="184.46 858.87 182.94 858.87 182.93 858.85 184.46 858.87"/></svg>