<svg id="Capa_1" data-name="Capa 1" xmlns="http://www.w3.org/2000/svg" viewBox="0 0 1300 1000"><defs><style>.cls-1{fill:#fff;}</style></defs><title>2-landmarks-expand</title><polygon points="1082.81 468.71 1082.79 468.95 1082.79 468.84 1082.81 468.71"/><path class="cls-1" d="M1242.51,456.52l-.45,3-1.88,12.22-3.77,24.44-1.26,8.16-2.5,16.28-1.49,9.15-2.25,13.83h-6.34l1,2.45.06.13,4,9.61,5.41,12.88,6.2,14.76-3.16,1.91-2.06-2-4.29-4.07-16.8-16-1.78-12.46-.82-5.74.1-1.89,4.39-81.53h0l0-.54-.16-.48-10.29-33.57,0-.13-7.34-25.17h-8.62l-.06,3.14-.29,16.77-.39,16.75c-.12,5.59-.32,11.18-.48,16.77l-.49,16.77v.21l0,.32,2.23,19.35,2.1,19.36,2.16,19.36,2.33,19.19,1,19c.33,6.42.67,12.84,1.07,19.25.72,12.83,1.66,25.65,2,38.51l2.92,77.08.74,19.27c.15,3.21.16,6.43.25,9.64l.2,9.65.76,38.58c.48,24.88,1.09,49.77,1.66,74.64l-6.16.1,1.57,3.49,6.83,15.18.48,1,1.16.47L1241,888.14l-.82,2.91-63.58-.42-3.63,0h-1.31L1170.8,874c-.18-2-.32-4.12-.43-6.18-.1-1.66-.15-3.31-.23-5l-.08-3.42-.09-1.78,0-1.09h0l-5.76-63.77-2.78-32.44L1160,744.11l-1.29-16.22c-.11-1.36-.18-2.72-.35-4.06l-.48-4.05-1-8.08L1155,695.53l-3.67-32.35c-2.35-21.58-4.71-43.17-6.72-64.79l-.27-2.82h-13.72l-.27,2.82c-2,21.62-4.37,43.21-6.72,64.79L1120,695.53l-1.91,16.17-1,8.08-.48,4.05c-.17,1.34-.24,2.7-.35,4.06L1115,744.11l-1.37,16.23-2.77,32.44-5.77,63.77h0l0,1.09-.09,1.78-.08,3.42c-.08,1.67-.13,3.32-.22,5-.12,2.06-.26,4.13-.44,6.18l-.84,16.58h-1.31l-3.62,0-63.59.42-.82-2.91,30.87-12.43,1.16-.47.48-1,6.83-15.18,1.57-3.49-6.16-.1c.57-24.87,1.18-49.76,1.66-74.64l.76-38.58.2-9.65c.09-3.21.1-6.43.25-9.64l.74-19.27,2.92-77.08c.34-12.86,1.28-25.68,2-38.51.4-6.41.74-12.83,1.07-19.25l1-19,2.33-19.19,2.16-19.36,2.1-19.36,2.24-19.35,0-.32V472l-.5-16.77c-.16-5.59-.36-11.18-.48-16.77l-.39-16.75-.29-16.77-.06-3.14h-8.61L1070.55,427l0,.13-10.29,33.57-.16.48,0,.54h0l4.39,81.53.1,1.89-.82,5.74L1062,563.35l-16.8,16-4.28,4.07-2.07,2-3.16-1.91,6.2-14.76,5.41-12.88,4-9.61.06-.13,1-2.45h-6.34l-2.25-13.83-1.49-9.15-2.5-16.28-1.26-8.16-3.77-24.44-1.88-12.22-.45-3a16.61,16.61,0,0,1-.09-2.64,16.25,16.25,0,0,1,1.14-5.08l.1-.33c4.48-12,8.9-24,13.41-36q1.15-3.09,2.32-6.17l7.94-21,4-10.5,2-5.25,1-2.61.24-.64.22-.58c.16-.37.31-.74.49-1.11a34.86,34.86,0,0,1,5.16-8.22,40.27,40.27,0,0,1,3.37-3.54c.27-.27.66-.6,1-.89l.49-.46.43-.36.66-.54a1.49,1.49,0,0,0,.2-.15h0c.39-.32.8-.62,1.22-.93,1-.8,2.18-1.56,3.33-2.29a71,71,0,0,1,7.22-4,90.43,90.43,0,0,1,15.72-5.7,113.7,113.7,0,0,1,28.18-3.54h10.68a113.7,113.7,0,0,1,28.18,3.54,90.43,90.43,0,0,1,15.72,5.7,71,71,0,0,1,7.22,4c1.15.73,2.28,1.49,3.33,2.29.42.31.84.61,1.22.93h0a1.49,1.49,0,0,0,.2.15c.24.19.47.37.66.54l.43.36.49.46c.33.29.72.62,1,.89a40.27,40.27,0,0,1,3.37,3.54,34.86,34.86,0,0,1,5.16,8.22c.18.37.33.74.49,1.11l.22.58.24.64,1,2.61,2,5.25,4,10.5,7.93,21q1.17,3.07,2.32,6.17c4.51,12,8.93,24,13.41,36l.1.33a16.25,16.25,0,0,1,1.14,5.08A16.61,16.61,0,0,1,1242.51,456.52Z"/><path class="cls-1" d="M1164.69,260.1c0,.65,0,1.31-.07,2,0,.51-.1,1-.16,1.51l-.25,1.58c-.15.88-.35,1.77-.54,2.63s-.39,1.8-.54,2.71L1159.22,291l-.16.57a17.88,17.88,0,0,1-8.1,10.61,18.36,18.36,0,0,1-4.18,1.85c-.77.23-1.68.43-2.29.55-.76.15-1.59.29-2.45.41a36.3,36.3,0,0,1-9,0c-.87-.12-1.7-.26-2.44-.41s-1.53-.32-2.31-.55a18.76,18.76,0,0,1-4.18-1.85,18.32,18.32,0,0,1-6.34-6.43,18,18,0,0,1-1.75-4.19l-.15-.52L1112,270.52c-.15-.91-.35-1.82-.54-2.71s-.4-1.75-.54-2.63l-.26-1.57c-.06-.51-.11-1-.15-1.52-.07-1.06-.08-2.08,0-3,0-.42.08-.83.11-1.23.06-.64.1-1.24.19-1.82l.43-2.27.12-.42.09-.28a26.93,26.93,0,0,1,5.55-10.46,26.14,26.14,0,0,1,19-9l1.41,0h1l.57,0a25.64,25.64,0,0,1,9.9,2.14,25.91,25.91,0,0,1,9.39,6.89,26.9,26.9,0,0,1,5.55,10.47l.09.27c0,.14.08.28.11.41l.43,2.26c.09.6.14,1.2.19,1.84,0,.4.07.81.11,1.18S1164.69,259.74,1164.69,260.1Z"/><polygon points="1082.81 468.71 1082.79 468.95 1082.79 468.84 1082.81 468.71"/><polygon points="1082.81 468.71 1082.79 468.95 1082.79 468.84 1082.81 468.71"/><path d="M1248.39,883.73l-2.17-.85c-2.81-1.11-5.64-2.15-8.47-3.23l-8.47-3.2-16-6.05-6.56-10.79v0l1.54,0h2.37v-1.7l-.66-77.21-.37-38.6-.09-9.65c0-3.22,0-6.43-.14-9.66l-.55-19.3-1.08-38.6-1.22-38.6-.31-9.66c-.06-1.6-.09-3.21-.17-4.81l-.29-4.82-1.14-19.29-2.3-38.45v-.19h0L1191.91,472v.11l0-.24,0,.13,1.19-50.88v-.54l.24-13.1,6.49,21.63,9.8,32.69-2.57,43.73-2.32,39.66v.09l0,.13h0l2.34,20.13.07.61.75.87h0l5.46,5.91,13.37,14.5,4.77,5.18,1,1.1,2.18,2.36,15.11-9.77-1.42-2.49h0l-13.28-24.14-3.73-6.77-3.05-5.55,2,0,1,0,.74,0,.31-1.75,2.79-15.39,1.63-9,4.28-24.39,4.28-24.41,2.14-12.2c.17-1,.35-2,.53-3.07a21,21,0,0,0,.19-3.54,21.71,21.71,0,0,0-1.36-6.93l.1.31-29.6-85.58a42.76,42.76,0,0,0-6-10.38,48.35,48.35,0,0,0-4-4.5l-1-1-.51-.5-.57-.53c-.39-.35-.76-.66-1.15-1s-.76-.65-1.15-.95a73.34,73.34,0,0,0-9.89-6.51l-2-1.1-1.27-.64a2.39,2.39,0,0,0-.22-.12,100.75,100.75,0,0,0-15.76-6.25,129.1,129.1,0,0,0-72.68,0,100.64,100.64,0,0,0-15.75,6.25,2.39,2.39,0,0,0-.22.12l-1.27.64c-.68.37-1.36.73-2,1.1a72.72,72.72,0,0,0-9.89,6.51c-.39.3-.78.62-1.16.95s-.76.64-1.14,1l-.58.53-.5.5c-.36.33-.69.64-1.05,1a46.92,46.92,0,0,0-3.95,4.5,43.13,43.13,0,0,0-6,10.38L1028,447.09l.1-.31a21.7,21.7,0,0,0-1.35,6.93,22,22,0,0,0,.18,3.54c.18,1.06.36,2,.54,3.07l2.14,12.2,4.28,24.41,4.28,24.39,1.62,9,2.79,15.39.32,1.75.74,0,1,0,2,0-3.05,5.55-3.72,6.77-13.28,24.14h0l-1.43,2.49,15.1,9.77,2.19-2.36,1-1.1,4.78-5.18,13.37-14.5,5.45-5.91h0l.76-.87.06-.61,2.34-20.13h0l0-.13v-.09l-2.32-39.66-2.56-43.73,9.8-32.69,6.48-21.63.24,13.1v.54L1083.1,472l0-.13,0,.24V472l-10.34,77.06h0v.19l-2.29,38.45L1069.3,607l-.29,4.82c-.08,1.6-.1,3.21-.16,4.81l-.31,9.66-1.23,38.6-1.08,38.6-.54,19.3c-.11,3.23-.1,6.44-.14,9.66l-.09,9.65-.38,38.6-.65,77.21v1.7h1.65l2.25,0,0,0-6.54,10.78-16,6.05-8.47,3.2c-2.82,1.08-5.65,2.12-8.46,3.23l-2.17.85v17.44H1030l77.6.05h3.48v-3.47l0-10,0-10,.06-19.84,0,.17,0-.27v.1l11.27-129.48c.13-1.34.21-2.69.38-4l.52-4,1-8.07,2.05-16.13,4.1-32.28,7-54.84,7,54.84,4.1,32.28,2.05,16.13,1,8.07.52,4c.16,1.35.24,2.7.37,4L1163.83,858v-.1l0,.27,0-.17.06,19.84,0,10,0,10v3.47h3.48l77.6-.05h3.43V883.73Zm-15.27-315,6.21,14.76-3.16,1.91-2.07-2-4.29-4.07-16.8-16-1.78-12.45-.5-3.53h13.42l3.56,8.47ZM1132.16,334h10.69a118.74,118.74,0,0,1,15.78,1.09L1137.53,367l-20.84-32A119.05,119.05,0,0,1,1132.16,334Zm-68.38,216.9L1062,563.34l-16.8,16-4.28,4.07-2.07,2-3.16-1.91,6.2-14.76,5.42-12.88,3.56-8.47h13.42Zm17.92-20.25,2.16-19.36,2.1-19.36,2.24-19.34,0-.32V472l-.5-16.76c-.16-5.59-.35-11.18-.47-16.77l-.4-16.75-.29-16.77-.06-3.15h-8.61L1070.55,427l0,.14-10.3,33.57-.15.48,0,.53h0l4.31,80-8-.79-10.63,1.09-2-12.25-1.49-9.14-2.5-16.28-1.26-8.17-3.76-24.45L1033,459.55l-.46-3a17.85,17.85,0,0,1-.1-2.63,16.47,16.47,0,0,1,1.15-5.09l.1-.34c4.49-12,8.9-24,13.41-36,.76-2.06,1.54-4.12,2.32-6.17l7.94-21,4-10.5,2-5.25,1-2.62.25-.63.23-.57c.15-.38.3-.76.48-1.12a34.86,34.86,0,0,1,5.16-8.22,40.31,40.31,0,0,1,3.37-3.55c.28-.27.66-.59,1-.88l.49-.46.43-.35c.2-.18.43-.37.66-.56l.2-.14h0c.39-.32.8-.62,1.22-.94,1-.8,2.18-1.55,3.33-2.28a69.32,69.32,0,0,1,7.23-4,91.12,91.12,0,0,1,15.71-5.69q3.29-.87,6.65-1.51l24.43,39.51,2.42,3.92,2.45-3.91,24.77-39.46c2.13.42,4.23.9,6.32,1.45a91.22,91.22,0,0,1,15.72,5.69,70.36,70.36,0,0,1,7.23,4c1.15.73,2.28,1.48,3.33,2.28.41.32.83.62,1.21.94h0l.2.14c.24.19.47.38.67.56l.42.35.5.46c.32.29.71.61,1,.88a41.72,41.72,0,0,1,3.36,3.55,34.54,34.54,0,0,1,5.16,8.22c.18.36.33.74.49,1.12l.23.57.24.63,1,2.62,2,5.25,4,10.5,7.93,21c.78,2.05,1.56,4.11,2.32,6.17,4.51,12,8.93,24,13.42,36l.1.34a16.46,16.46,0,0,1,1.14,5.09,19.32,19.32,0,0,1-.09,2.63l-.46,3-1.88,12.21-3.76,24.45-1.26,8.17-2.51,16.28-1.48,9.14-2,12.24L1218.59,541l-8,.79,4.3-80h0l0-.53-.15-.48-10.29-33.57,0-.14-7.35-25.17h-8.62l-.06,3.15-.28,16.77-.4,16.75c-.12,5.59-.32,11.18-.48,16.77l-.49,16.76v.23l0,.32,2.24,19.34,2.1,19.36,2.15,19.36,1.68,13.82-57.41-3.5s-43.56,2.61-57.55,3.48Zm23.17,332.22c-.08,1.66-.13,3.31-.23,5-.12,2.06-.26,4.12-.44,6.18l-.84,16.58h-1.31l-3.62,0-63.58.42-.82-2.91,30.87-12.43,1.15-.46.48-1,6.57-14.6h31.84Zm59.29-70.08-2.77-32.44L1160,744.11l-1.29-16.22c-.11-1.36-.18-2.72-.34-4.06l-.49-4.05-1-8.07-1.9-16.18-3.68-32.35c-2.35-21.59-4.71-43.17-6.72-64.8l-.27-2.81h-2.89l-4,0-4,0h-2.89l-.28,2.81c-2,21.63-4.37,43.21-6.72,64.8L1120,695.53l-1.9,16.18-1,8.07-.48,4.05c-.17,1.34-.24,2.7-.35,4.06L1115,744.11l-1.37,16.23-2.77,32.44-5.45,60.27-18.09-1-18.48,1.05c.55-24.08,1.14-48.18,1.59-72.26l.77-38.59.2-9.64c.09-3.22.1-6.43.25-9.65l.74-19.27,2.92-77.08c.34-12.86,1.28-25.68,2-38.51q.6-9.62,1.07-19.24l.87-16.49,116.52,0,.87,16.47q.49,9.61,1.07,19.24c.73,12.83,1.67,25.65,2,38.51l2.92,77.08.75,19.27c.15,3.22.16,6.43.24,9.65l.2,9.64.77,38.59c.46,24.08,1,48.18,1.6,72.26L1187.65,852l-18.05,1Zm76,98.27-63.58-.42-3.63,0h-1.3L1170.8,874q-.25-3.09-.43-6.18c-.1-1.67-.15-3.32-.23-5l-.07-3.23h31.83l6.58,14.6.47,1,1.16.46L1241,888.14Z"/><path d="M1181.27,381.1v5.49c-3.53.32-7.06.45-10.58.5,0,3.53-.19,7.05-.5,10.58h-5.5c-.32-3.53-.45-7.05-.5-10.58-3.52,0-7.06-.18-10.58-.5V381.1c3.52-.32,7.06-.46,10.58-.5,0-3.53.18-7.06.5-10.59h5.5c.31,3.53.45,7.06.5,10.59C1174.21,380.64,1177.74,380.78,1181.27,381.1Z"/><path d="M1172,257.76c0-.85,0-1.73-.15-2.61l-.4-2.86c0-.23-.09-.45-.15-.68l-.07-.28a35.15,35.15,0,0,0-6.56-13.92,34.69,34.69,0,0,0-12-9.74,35.08,35.08,0,0,0-7.34-2.66,31.61,31.61,0,0,0-15.54,0,34.7,34.7,0,0,0-25.91,26.32l-.07.28c-.06.23-.11.45-.15.69l-.4,2.85c-.09.87-.12,1.76-.15,2.61,0,.4,0,.81,0,1.25a34,34,0,0,0,.24,3.85c.09.69.18,1.32.29,1.92l.37,1.79c.62,3.58,1.34,7.19,2,10.67l2.61,13.31.47,2.21.21.75a25.63,25.63,0,0,0,2.47,5.8,25.17,25.17,0,0,0,8.78,8.89,25.79,25.79,0,0,0,5.72,2.55c1.11.33,2.09.55,3,.73s1.91.35,2.92.48a41.91,41.91,0,0,0,10.81,0c1-.13,2-.29,2.92-.48s1.87-.4,3-.73a25.41,25.41,0,0,0,14.51-11.45,25.78,25.78,0,0,0,2.46-5.79l.23-.79,3.06-15.48c.69-3.48,1.41-7.09,2-10.64l.38-1.83c.11-.59.2-1.22.29-1.91A34.13,34.13,0,0,0,1172,259C1172,258.57,1172,258.17,1172,257.76Zm-7.37,4.32c0,.51-.1,1-.16,1.52l-.25,1.58c-.15.88-.34,1.77-.53,2.63s-.4,1.8-.55,2.7l-3.9,20.52-.17.57a18,18,0,0,1-1.75,4.19,18.21,18.21,0,0,1-6.34,6.42,18.79,18.79,0,0,1-4.18,1.86c-.78.23-1.69.43-2.3.55-.76.15-1.58.29-2.44.41a36.38,36.38,0,0,1-9,0c-.87-.12-1.69-.26-2.44-.41s-1.53-.32-2.31-.55a18.52,18.52,0,0,1-4.17-1.86,18.16,18.16,0,0,1-6.35-6.42,17.91,17.91,0,0,1-1.75-4.2l-.15-.5L1112,270.52c-.15-.91-.35-1.83-.55-2.71s-.38-1.75-.53-2.64l-.25-1.56c-.06-.51-.12-1-.15-1.53a27.94,27.94,0,0,1-.06-3c0-.41.08-.82.12-1.23,0-.63.09-1.23.18-1.81l.44-2.27a3.25,3.25,0,0,1,.11-.42l.09-.28a27.24,27.24,0,0,1,5.55-10.47,26.18,26.18,0,0,1,19-9l1.42,0h1l.57,0a26.11,26.11,0,0,1,19.29,9,27,27,0,0,1,5.55,10.46l.09.28a3.59,3.59,0,0,1,.11.41l.43,2.26c.1.6.14,1.2.2,1.83,0,.41.06.82.1,1.19A28.32,28.32,0,0,1,1164.62,262.08Z"/><polygon points="1068.33 859.59 1068.31 859.62 1066.08 859.62 1068.33 859.59"/><polygon points="1208.21 859.61 1206.68 859.61 1206.67 859.59 1208.21 859.61"/></svg>