<svg id="Capa_1" data-name="Capa 1" xmlns="http://www.w3.org/2000/svg" viewBox="0 0 1300 1000"><defs><style>.cls-1{fill:#fff;}</style></defs><title>2-landmarks-expand</title><path class="cls-1" d="M981.29,376.1l2.54,2.08-2.39,2.16-1.16,1.06,23,31.59,12.22,16.79,6.1,8.41,3.06,4.2,1.53,2.1.72,1,0,.07c.25.31.43.52.69.81a16.28,16.28,0,0,0,7.45,4.66,16,16,0,0,0,8.76.13,16.54,16.54,0,0,0,7.55-4.44,15.76,15.76,0,0,0,2.12-2.7l0-.05,23.25-43.77h8.62l0,3.15.3,16.77.39,16.75c.13,5.6.31,11.19.47,16.78l.5,16.77v.21l0,.33-2.24,19.35-2.09,19.37L1080.58,529l-2.34,19.2-1,19q-.49,9.62-1.08,19.24c-.72,12.84-1.66,25.66-2,38.52l-2.92,77.1-.74,19.27c-.15,3.23-.16,6.44-.24,9.66l-.2,9.64-.78,38.59c-.46,24.89-1.08,49.78-1.65,74.66l2.43.1h3.74l-1.58,3.5-6.83,15.18-.48,1-1.15.47-30.88,12.43.81,2.91,63.6-.42,3.63,0h1.31l.84-16.58c.18-2.07.32-4.13.43-6.2.1-1.66.15-3.31.23-5l.08-3.43.09-1.77,0-1.09h0l5.77-63.8,2.77-32.45,1.37-16.22,1.29-16.23c.12-1.37.19-2.72.35-4.06l.48-4.06,1-8.07,1.89-16.18,3.68-32.36c2.35-21.59,4.72-43.18,6.72-64.81l.27-2.82h2.89l4,0,4,0h2.89l.27,2.82c2,21.63,4.37,43.22,6.72,64.81l3.68,32.36,1.9,16.18,1,8.07.49,4.06c.17,1.34.23,2.69.35,4.06l1.29,16.23,1.37,16.22,2.77,32.45,5.76,63.8h0l.06,1.09.09,1.77.08,3.43c.07,1.67.13,3.32.23,5,.11,2.07.26,4.13.43,6.2l.84,16.58h1.31l3.62,0,63.6.42.82-2.91L1209,874.18l-1.16-.47-.48-1-6.83-15.18L1199,854h3.73l2.44-.1c-.58-24.88-1.18-49.77-1.66-74.66l-.77-38.59-.2-9.64c-.08-3.22-.09-6.43-.24-9.66l-.75-19.27-2.91-77.1c-.34-12.86-1.29-25.68-2-38.52q-.58-9.62-1.07-19.24l-1-19L1192.2,529l-2.15-19.35-2.1-19.37-2.24-19.35,0-.33v-.21l.5-16.77c.16-5.59.35-11.18.47-16.78l.39-16.75.29-16.77.06-3.15H1196l7.35,25.17,0,.14,10.3,33.58.15.48,0,.54h0l-4.39,81.55-.1,1.9.82,5.73,1.78,12.46,16.8,16,4.29,4.07,2.07,2,3.16-1.91L1232,567.09l-5.41-12.89-4-9.6-.07-.15-1-2.43h6.36l2.24-13.84,1.49-9.15,2.51-16.28,1.26-8.18,3.76-24.44,1.88-12.22.46-3a17.93,17.93,0,0,0,.1-2.64,16.54,16.54,0,0,0-1.15-5.09l-.1-.33c-4.48-12-8.91-24-13.42-36-.76-2.05-1.54-4.11-2.32-6.17l-7.94-21-4-10.5-2-5.25-1-2.62-.24-.64-.23-.57c-.15-.37-.3-.75-.48-1.11a34.4,34.4,0,0,0-5.16-8.23,43.37,43.37,0,0,0-3.36-3.55l-1-.88-.49-.46-.43-.36-.67-.54-.2-.15h0c-.38-.32-.79-.62-1.21-.94-1-.79-2.19-1.55-3.33-2.28a70.31,70.31,0,0,0-7.24-4,92.2,92.2,0,0,0-15.7-5.7,113.48,113.48,0,0,0-28.19-3.53H1131a113.28,113.28,0,0,0-28.18,3.53,92.1,92.1,0,0,0-15.72,5.7,72.31,72.31,0,0,0-7.23,4c-1.15.73-2.27,1.49-3.33,2.28-.42.32-.83.62-1.21.94h0a1.49,1.49,0,0,1-.2.15l-.66.54-.42.36-.5.46c-.33.29-.71.62-1,.88a38.78,38.78,0,0,0-3.36,3.55,33.74,33.74,0,0,0-2.14,2.82s-.06.07-.07.11c-.43.59-.85,1.21-1.23,1.84l-.49.83-.23.42-.27.49-1.07,2-8.56,15.88-14.83,27.5-2.3,4.27h0l-1.81,3.53-2.52-2.94L993.9,364.88h0l-.19-.19-.17-.39-7.94-17.4-25.94-18.38-5.57,4.16,10.33,29.62,16.86,13.81Z"/><path class="cls-1" d="M1109.59,260.43c0,.51.1,1,.16,1.51l.25,1.57c.15.88.35,1.77.54,2.63s.39,1.79.54,2.69L1115,289.3l.16.57a19,19,0,0,0,1.75,4.17,18.18,18.18,0,0,0,10.5,8.25c.77.23,1.68.43,2.29.56.77.15,1.56.29,2.43.4a35,35,0,0,0,9,0c.88-.11,1.67-.25,2.43-.4s1.52-.33,2.3-.56a17.86,17.86,0,0,0,12.24-12.43l.15-.51,3.91-20.51c.15-.91.35-1.82.54-2.71s.39-1.75.54-2.62l.24-1.56c.07-.51.13-1,.16-1.52a27.86,27.86,0,0,0,.05-3c-.05-.41-.08-.82-.11-1.22,0-.64-.1-1.24-.19-1.81l-.43-2.27c0-.14-.07-.27-.11-.42s-.06-.18-.09-.28a27.06,27.06,0,0,0-5.54-10.43,26,26,0,0,0-9.36-6.87,25.72,25.72,0,0,0-9.62-2.13l-1.42,0h-1l-.57,0a26,26,0,0,0-19.23,9,27,27,0,0,0-5.54,10.44l-.09.27c0,.15-.08.28-.11.41l-.43,2.26c-.09.59-.14,1.19-.19,1.83,0,.4-.07.81-.11,1.18C1109.51,258.35,1109.53,259.37,1109.59,260.43Z"/><path d="M1230.67,545.91h0Z"/><path d="M943.8,328.49l1.27,3.08L959,365.14h0l.36.85.57.45,15.7,11.95,0,0-.87.73h0l-.88.73-.89.76,1.43,1.93q12.38,16.74,24.66,33.53l12.29,16.8,6.15,8.4,3.06,4.2,1.54,2.09.76,1.06c.28.36.65.79,1,1.13a20.49,20.49,0,0,0,1.77,1.72,21.62,21.62,0,0,0,5.7,3.55,20.43,20.43,0,0,0,2.27.81,21.69,21.69,0,0,0,5.71.86,20.24,20.24,0,0,0,5.75-.66,21.47,21.47,0,0,0,13.45-10.34l2.56-4.53,7.6-13.4,2.65-4.69c2.78-4.91,5.62-9.79,8.45-14.7l.78-1.35.21,11.93v.54l1.2,50.92v0l-10.35,77.09v.2l-2.3,38.48-1.15,19.29-.29,4.83c-.08,1.6-.1,3.21-.16,4.82l-.31,9.66-1.23,38.62-1.08,38.61-.54,19.32c-.12,3.22-.1,6.44-.15,9.65l-.08,9.67-.39,38.62-.64,77.26v1.7l1.66,0h.36l1.87,0v0L1060.62,869l-16,6.07-8.47,3.2c-2.83,1.07-5.67,2.12-8.47,3.23l-2.18.85v17.45h3.43l77.64,0H1110v-3.48l0-10,0-10,.06-19.84v0l11.28-129.55c.13-1.36.22-2.7.38-4l.51-4,1-8.07,2-16.14,4.11-32.31,7-54.87,7,54.87,4.1,32.31,2,16.14,1,8.07.5,4c.17,1.34.26,2.68.39,4l11.27,129.55v-.11l0,.28,0-.17.06,19.84,0,10,0,10v3.48h3.48l77.65,0h3.43V882.39l-2.18-.85c-2.8-1.11-5.65-2.16-8.47-3.23l-8.47-3.2-16-6.07-6.57-10.8,2.24,0,1.66,0v-1.7l-.65-77.26-.38-38.62-.08-9.67c-.05-3.21,0-6.43-.15-9.65l-.54-19.32-1.08-38.61-1.24-38.62-.3-9.66c-.06-1.61-.08-3.22-.16-4.82l-.29-4.83-1.15-19.29-2.3-38.48v-.2l-10.35-77.09v0l1.19-50.92V419l.23-13.1,6.5,21.64,9.81,32.71L1206,504l-2.32,39.68v.09l0,.13h0l2.35,20.14.07.62.75.86h0l5.44,5.92L1225.7,586l4.77,5.18,1,1.1,2.19,2.37,15.11-9.78-1.42-2.49h0l-13.29-24.15-3.73-6.77-3-5.49,0-.07,2,0,1,0h.73l.32-1.74,2.79-15.39,1.64-9,4.27-24.41,4.29-24.41,2.13-12.21c.18-1,.36-2,.54-3.08a21,21,0,0,0,.19-3.54,21.71,21.71,0,0,0-1.36-6.93l.1.31-29.61-85.63a43.86,43.86,0,0,0-6-10.39,46.91,46.91,0,0,0-4-4.49c-.36-.37-.7-.67-1-1l-.51-.5-.57-.52c-.38-.36-.76-.67-1.14-1s-.77-.65-1.16-1a73.9,73.9,0,0,0-9.89-6.5c-.67-.38-1.35-.75-2-1.11-.41-.22-.84-.43-1.27-.64a1.19,1.19,0,0,0-.22-.12,101.08,101.08,0,0,0-15.75-6.26,129.55,129.55,0,0,0-72.74,0,101.19,101.19,0,0,0-15.76,6.26l-.21.12-1.28.64c-.67.36-1.35.73-2,1.11a74,74,0,0,0-9.9,6.5c-.38.3-.76.62-1.15,1s-.76.64-1.14,1l-.57.52-.52.5c-.35.34-.68.64-1,1a46.91,46.91,0,0,0-4,4.49c-.81,1-1.56,2.11-2.26,3.21-.1.14-.19.28-.28.43a.46.46,0,0,0-.09.15c-.25.39-.49.79-.73,1.19s-.42.72-.61,1.08c-.38.68-.8,1.48-1.1,2.12l-1,2L1048.73,376,1035,405.1l-37.84-42.52-6-18.9-.25-.74-.76-.63-28.1-23h0l-2.23-1.83-2.54,1.75-10.65,7.34Zm213.49,4.92-20.67,31.7-21-31.72a119.86,119.86,0,0,1,15.4-1q.75,0,1.5,0h7.71c.49,0,1,0,1.49,0A118.62,118.62,0,0,1,1157.29,333.41Zm52.39,212.52h13.45l3.52,8.38,5.42,12.88,6.21,14.78-3.16,1.91-2.07-2-4.29-4.08-16.81-16-1.78-12.45ZM1169,858l31.75,0,6.68,14.85.48,1,1.15.46,30.89,12.43-.81,2.92-63.62-.42-3.63,0h-1.31l-.84-16.59c-.18-2-.32-4.12-.43-6.19-.1-1.66-.16-3.31-.23-5l-.08-3.43Zm-97,.22,31.85,0-.07,3.22c-.07,1.67-.13,3.32-.23,5-.11,2.07-.26,4.14-.43,6.19l-.84,16.59h-1.31l-3.63,0-63.62.42-.81-2.92,30.88-12.43,1.16-.46.48-1ZM1078.14,550l116.52,0,.9,17.32c.33,6.42.68,12.85,1.07,19.25.72,12.84,1.67,25.67,2,38.53l2.92,77.13.75,19.28c.15,3.22.16,6.43.24,9.65l.2,9.66.78,38.59c.45,24,1,48.07,1.59,72.09l-18.39-1-18.22,1-5.44-60.1-2.76-32.46-1.37-16.24-1.3-16.23c-.11-1.36-.18-2.71-.34-4.06l-.49-4-1-8.09-1.89-16.18-3.68-32.36c-2.36-21.6-4.72-43.2-6.72-64.83l-.28-2.82h-2.89l-4,0-4,0h-2.89l-.28,2.82c-2,21.63-4.36,43.23-6.72,64.83l-3.68,32.36-1.9,16.18-1,8.09-.48,4c-.17,1.35-.24,2.7-.36,4.06l-1.28,16.23-1.38,16.24-2.76,32.46-5.46,60.3-17.66-1-18.94,1.08c.56-24.11,1.14-48.24,1.6-72.36l.78-38.59.2-9.66c.08-3.22.09-6.43.24-9.65l.75-19.28,2.91-77.13c.34-12.86,1.29-25.69,2-38.53.4-6.4.74-12.83,1.07-19.25ZM980.26,381.48l8.6-6.15,7.32-7.69,37.5,43.86,2.51,2.95,1.82-3.54h0l2.3-4.28,14.83-27.5,8.56-15.89,1.08-2,.27-.5.23-.41c.15-.27.32-.55.49-.83.38-.64.8-1.24,1.23-1.85l.07-.11c.66-1,1.37-1.91,2.13-2.81a41.81,41.81,0,0,1,3.36-3.55c.29-.27.67-.6,1-.89l.49-.45.43-.36c.2-.18.43-.36.67-.55a1.49,1.49,0,0,0,.2-.15h0c.38-.32.79-.62,1.21-.93,1-.8,2.19-1.56,3.34-2.29a68.25,68.25,0,0,1,7.23-4,90.43,90.43,0,0,1,15.72-5.7c2.22-.58,4.46-1.1,6.72-1.53l24.64,39.26,2.44,3.89,2.42-3.91,24.26-39.21c2.22.43,4.41.92,6.6,1.5a90.43,90.43,0,0,1,15.72,5.7,68.25,68.25,0,0,1,7.23,4c1.15.73,2.28,1.49,3.34,2.29.42.31.83.61,1.21.93h0a1.49,1.49,0,0,0,.2.15c.24.19.47.37.67.55l.42.36.5.45c.33.29.71.62,1,.89a38.85,38.85,0,0,1,3.36,3.55,34.9,34.9,0,0,1,5.17,8.22c.17.37.33.75.48,1.12l.23.57.25.64,1,2.62,2,5.25,4,10.51,7.94,21c.78,2,1.55,4.11,2.32,6.17,4.51,12,8.94,24,13.42,36l.1.34a16.24,16.24,0,0,1,1.14,5.09,16.52,16.52,0,0,1-.09,2.63l-.45,3-1.89,12.23-3.76,24.45-1.26,8.17-2.51,16.3-1.49,9.14-2,12.36-10.54-1.08-8,.81,4.32-80.19h0l0-.54-.15-.47-10.3-33.6,0-.13L1196,400.23h-8.63l-.05,3.14-.29,16.79-.4,16.76c-.12,5.59-.31,11.18-.47,16.78l-.5,16.76v.23l0,.32,2.23,19.35,2.1,19.38,2.16,19.36,1.58,13c-13.92-.87-57.43-3.47-57.43-3.47L1079,542.13l1.58-13,2.16-19.36,2.1-19.38,2.24-19.35,0-.32v-.23l-.5-16.76c-.16-5.6-.35-11.19-.48-16.78l-.39-16.76-.29-16.79,0-3.14h-8.63L1053.5,444l0,.05a16.71,16.71,0,0,1-2.11,2.71,16.54,16.54,0,0,1-7.55,4.43,16.37,16.37,0,0,1-12.19-1.57,16.47,16.47,0,0,1-4-3.22c-.26-.29-.44-.5-.69-.81l0-.07-.72-1-1.54-2.1-3-4.19-6.11-8.41L1003.22,413Zm-26.21-48.77,5.56-4.18,25.95,18.39L993,363.19l-13.32,11.65-15.29-12.52Z"/><path d="M1180.16,379.46v5.48c-3.51.32-7,.45-10.55.5,0,3.52-.18,7-.5,10.55h-5.48c-.32-3.51-.45-7-.5-10.55-3.51-.05-7-.18-10.56-.5v-5.48c3.52-.32,7-.45,10.56-.5,0-3.51.18-7,.5-10.56h5.48c.32,3.52.46,7.05.5,10.56C1173.13,379,1176.65,379.14,1180.16,379.46Z"/><path d="M1102.19,257.33a36.56,36.56,0,0,0,.24,3.88c.09.69.18,1.32.29,1.91l.38,1.82c.61,3.52,1.32,7.1,2,10.57l3.06,15.49.23.78a25.22,25.22,0,0,0,16.93,17.2,29.54,29.54,0,0,0,3,.73c.93.19,1.91.35,2.91.48a41.76,41.76,0,0,0,10.79,0c1-.13,2-.29,2.91-.48s1.88-.4,3-.73a25.11,25.11,0,0,0,16.93-17.2l.21-.74.47-2.21,2.6-13.27c.69-3.49,1.41-7.09,2-10.65l.36-1.79c.11-.59.21-1.22.29-1.91a34.05,34.05,0,0,0,.25-3.85c0-.43,0-.83,0-1.24,0-.85-.06-1.73-.15-2.6l-.4-2.84a7,7,0,0,0-.16-.69l-.07-.29a34.88,34.88,0,0,0-6.54-13.88,34.4,34.4,0,0,0-12-9.71,32.7,32.7,0,0,0-22.82-2.66A34.68,34.68,0,0,0,1103,249.71l-.07.28c-.06.23-.11.45-.15.68l-.4,2.85c-.09.87-.12,1.75-.15,2.61C1102.22,256.53,1102.21,256.93,1102.19,257.33Zm45.64-23.2a26,26,0,0,1,9.37,6.87,27.17,27.17,0,0,1,5.54,10.44,2.29,2.29,0,0,0,.08.28,3.31,3.31,0,0,1,.12.42l.43,2.27c.09.57.14,1.17.19,1.8,0,.41.06.82.11,1.23a27.64,27.64,0,0,1-.05,3c0,.51-.09,1-.16,1.53l-.25,1.56c-.14.88-.34,1.76-.53,2.62s-.39,1.8-.55,2.72l-3.9,20.51-.15.5a17.83,17.83,0,0,1-1.75,4.19,18.32,18.32,0,0,1-6.33,6.41,18.74,18.74,0,0,1-4.17,1.85c-.78.23-1.68.42-2.29.55-.77.15-1.56.28-2.44.4a35,35,0,0,1-9,0c-.87-.12-1.67-.25-2.43-.4s-1.52-.32-2.3-.56a18,18,0,0,1-4.16-1.85,18.32,18.32,0,0,1-6.34-6.4,18.54,18.54,0,0,1-1.74-4.18l-.16-.57-3.9-20.47c-.15-.9-.35-1.81-.54-2.69s-.39-1.75-.54-2.63l-.25-1.58c-.06-.49-.12-1-.15-1.51a28.22,28.22,0,0,1,0-3c0-.37.08-.78.11-1.19,0-.63.1-1.23.19-1.83l.43-2.25a3.71,3.71,0,0,1,.12-.41,2.76,2.76,0,0,1,.08-.27A27,27,0,0,1,1116,241a26.07,26.07,0,0,1,9.36-6.87,25.71,25.71,0,0,1,9.88-2.13l.57,0h1l1.42,0A25.72,25.72,0,0,1,1147.83,234.13Z"/><polygon points="1065.31 858.26 1067.17 858.26 1067.18 858.24 1065.31 858.26"/><polygon points="1227.29 545.84 1227.33 545.91 1230.67 545.91 1230.29 545.9 1229.32 545.88 1227.29 545.84"/><polygon points="973.89 379.88 973.9 379.9 974.78 379.17 974.78 379.16 975.65 378.43 975.6 378.39 973.89 379.88"/></svg>