<svg width="1300" height="1003" viewBox="0 0 1300 1003" fill="none" xmlns="http://www.w3.org/2000/svg"><path fill-rule="evenodd" clip-rule="evenodd" d="M807 903V179c0-11.046 8.954-20 20-20h353c11.05 0 20 8.954 20 20v724h100v100H0V903h807Zm20-737h353c7.18 0 13 5.82 13 13v724H814V179c0-7.18 5.82-13 13-13Z" fill="#000"/><path fill-rule="evenodd" clip-rule="evenodd" d="M594 906V.5h7V906h-7Z" fill="#000"/><rect x="1159" y="475" width="91" height="22" rx="5" transform="rotate(90 1159 475)" fill="#000"/><mask id="a" fill="#fff"><path d="M1094 516c0-2.761 2.24-5 5-5h60v19h-60c-2.76 0-5-2.239-5-5v-9Z"/></mask><path d="M1094 516c0-2.761 2.24-5 5-5h60v19h-60c-2.76 0-5-2.239-5-5v-9Z" fill="#fff" stroke="#000" stroke-width="14" mask="url(#a)"/></svg>