<svg width="1300" height="1000" viewBox="0 0 1300 1000" fill="none" xmlns="http://www.w3.org/2000/svg">
<path d="M487 176C487 168.82 481.18 163 474 163H121C113.82 163 108 168.82 108 176V901H487V176ZM494 908H101V176C101 164.954 109.954 156 121 156H474C485.046 156 494 164.954 494 176V908Z" fill="black"/>
<path d="M0 900H1300V1000H0V900Z" fill="black"/>
<path d="M1193 176C1193 168.82 1187.18 163 1180 163H827C819.82 163 814 168.82 814 176V901H1193V176ZM1200 908H807V176C807 164.954 815.954 156 827 156H1180C1191.05 156 1200 164.954 1200 176V908Z" fill="black"/>
</svg>
