<svg width="1300" height="1003" viewBox="0 0 1300 1003" fill="none" xmlns="http://www.w3.org/2000/svg">
<path d="M655 437H725C728.59 437 731.5 439.91 731.5 443.5V544.5C731.5 548.09 728.59 551 725 551H655C651.41 551 648.5 548.09 648.5 544.5V443.5C648.5 439.91 651.41 437 655 437Z" stroke="black" stroke-width="7"/>
<path d="M699 516.5C699 521.471 694.971 525.5 690 525.5C685.029 525.5 681 521.471 681 516.5C681 511.529 685.029 507.5 690 507.5C694.971 507.5 699 511.529 699 516.5Z" stroke="black" stroke-width="7"/>
<path d="M673 458.5C673 460.157 671.657 461.5 670 461.5C668.343 461.5 667 460.157 667 458.5C667 456.843 668.343 455.5 670 455.5C671.657 455.5 673 456.843 673 458.5Z" fill="black"/>
<path d="M673 468.5C673 470.157 671.657 471.5 670 471.5C668.343 471.5 667 470.157 667 468.5C667 466.843 668.343 465.5 670 465.5C671.657 465.5 673 466.843 673 468.5Z" fill="black"/>
<path d="M673 478.5C673 480.157 671.657 481.5 670 481.5C668.343 481.5 667 480.157 667 478.5C667 476.843 668.343 475.5 670 475.5C671.657 475.5 673 476.843 673 478.5Z" fill="black"/>
<path d="M673 488.5C673 490.157 671.657 491.5 670 491.5C668.343 491.5 667 490.157 667 488.5C667 486.843 668.343 485.5 670 485.5C671.657 485.5 673 486.843 673 488.5Z" fill="black"/>
<path d="M693 458.5C693 460.157 691.657 461.5 690 461.5C688.343 461.5 687 460.157 687 458.5C687 456.843 688.343 455.5 690 455.5C691.657 455.5 693 456.843 693 458.5Z" fill="black"/>
<path d="M693 468.5C693 470.157 691.657 471.5 690 471.5C688.343 471.5 687 470.157 687 468.5C687 466.843 688.343 465.5 690 465.5C691.657 465.5 693 466.843 693 468.5Z" fill="black"/>
<path d="M693 478.5C693 480.157 691.657 481.5 690 481.5C688.343 481.5 687 480.157 687 478.5C687 476.843 688.343 475.5 690 475.5C691.657 475.5 693 476.843 693 478.5Z" fill="black"/>
<path d="M693 488.5C693 490.157 691.657 491.5 690 491.5C688.343 491.5 687 490.157 687 488.5C687 486.843 688.343 485.5 690 485.5C691.657 485.5 693 486.843 693 488.5Z" fill="black"/>
<path d="M683 458.5C683 460.157 681.657 461.5 680 461.5C678.343 461.5 677 460.157 677 458.5C677 456.843 678.343 455.5 680 455.5C681.657 455.5 683 456.843 683 458.5Z" fill="black"/>
<path d="M683 468.5C683 470.157 681.657 471.5 680 471.5C678.343 471.5 677 470.157 677 468.5C677 466.843 678.343 465.5 680 465.5C681.657 465.5 683 466.843 683 468.5Z" fill="black"/>
<path d="M683 478.5C683 480.157 681.657 481.5 680 481.5C678.343 481.5 677 480.157 677 478.5C677 476.843 678.343 475.5 680 475.5C681.657 475.5 683 476.843 683 478.5Z" fill="black"/>
<path d="M683 488.5C683 490.157 681.657 491.5 680 491.5C678.343 491.5 677 490.157 677 488.5C677 486.843 678.343 485.5 680 485.5C681.657 485.5 683 486.843 683 488.5Z" fill="black"/>
<path d="M703 458.5C703 460.157 701.657 461.5 700 461.5C698.343 461.5 697 460.157 697 458.5C697 456.843 698.343 455.5 700 455.5C701.657 455.5 703 456.843 703 458.5Z" fill="black"/>
<path d="M703 468.5C703 470.157 701.657 471.5 700 471.5C698.343 471.5 697 470.157 697 468.5C697 466.843 698.343 465.5 700 465.5C701.657 465.5 703 466.843 703 468.5Z" fill="black"/>
<path d="M703 478.5C703 480.157 701.657 481.5 700 481.5C698.343 481.5 697 480.157 697 478.5C697 476.843 698.343 475.5 700 475.5C701.657 475.5 703 476.843 703 478.5Z" fill="black"/>
<path d="M703 488.5C703 490.157 701.657 491.5 700 491.5C698.343 491.5 697 490.157 697 488.5C697 486.843 698.343 485.5 700 485.5C701.657 485.5 703 486.843 703 488.5Z" fill="black"/>
<path d="M713 458.5C713 460.157 711.657 461.5 710 461.5C708.343 461.5 707 460.157 707 458.5C707 456.843 708.343 455.5 710 455.5C711.657 455.5 713 456.843 713 458.5Z" fill="black"/>
<path d="M713 468.5C713 470.157 711.657 471.5 710 471.5C708.343 471.5 707 470.157 707 468.5C707 466.843 708.343 465.5 710 465.5C711.657 465.5 713 466.843 713 468.5Z" fill="black"/>
<path d="M713 478.5C713 480.157 711.657 481.5 710 481.5C708.343 481.5 707 480.157 707 478.5C707 476.843 708.343 475.5 710 475.5C711.657 475.5 713 476.843 713 478.5Z" fill="black"/>
<path d="M713 488.5C713 490.157 711.657 491.5 710 491.5C708.343 491.5 707 490.157 707 488.5C707 486.843 708.343 485.5 710 485.5C711.657 485.5 713 486.843 713 488.5Z" fill="black"/>
<rect x="1159" y="474.5" width="91" height="22" rx="5" transform="rotate(90 1159 474.5)" fill="black"/>
<mask id="path-5-inside-1_941_197" fill="white">
<path d="M1094 515.5C1094 512.739 1096.24 510.5 1099 510.5H1159V529.5H1099C1096.24 529.5 1094 527.261 1094 524.5V515.5Z"/>
</mask>
<path d="M1094 515.5C1094 512.739 1096.24 510.5 1099 510.5H1159V529.5H1099C1096.24 529.5 1094 527.261 1094 524.5V515.5Z" fill="white" stroke="black" stroke-width="14" mask="url(#path-5-inside-1_941_197)"/>
<path d="M601 0V905.5H594V0H601Z" fill="black"/>
<path fill-rule="evenodd" clip-rule="evenodd" d="M807 902.5V178.5C807 167.454 815.954 158.5 827 158.5H1180C1191.05 158.5 1200 167.454 1200 178.5V902.5H1300V1002.5H0V902.5H807ZM827 165.5H1180C1187.18 165.5 1193 171.32 1193 178.5V902.5H814V178.5C814 171.32 819.82 165.5 827 165.5Z" fill="black"/>
</svg>
