<svg width="1300" height="1000" viewBox="0 0 1300 1000" fill="none" xmlns="http://www.w3.org/2000/svg">
<path d="M951 857V907H371V857H951ZM378 900H944V864H378V900Z" fill="black"/>
<path d="M900 807V864H422V807H900ZM429 857H893V814H429V857Z" fill="black"/>
<path d="M893 102C893 94.8203 887.18 89 880 89H442C434.82 89 429 94.8203 429 102V807H893V102ZM900 814H422V102C422 91.127 430.676 82.2808 441.483 82.0068L442 82H880L880.517 82.0068C891.324 82.2809 900 91.127 900 102V814Z" fill="black"/>
<path d="M0 900H1300V1000H0V900Z" fill="black"/>
<path d="M489.5 87V806.5H482.5V87H489.5Z" fill="black"/>
<path d="M1050 374V381H989V374H1050ZM1081 343C1081 325.879 1067.12 312 1050 312H989C971.879 312 958 325.879 958 343C958 360.121 971.879 374 989 374V381L988.02 380.987C967.486 380.467 951 363.659 951 343C951 322.013 968.013 305 989 305H1050C1070.99 305 1088 322.013 1088 343C1088 363.659 1071.51 380.467 1050.98 380.987L1050 381V374C1067.12 374 1081 360.121 1081 343Z" fill="black"/>
</svg>
