<svg width="1300" height="1003" viewBox="0 0 1300 1003" fill="none" xmlns="http://www.w3.org/2000/svg"><path d="M648.5 444a6.5 6.5 0 0 1 6.5-6.5h70a6.5 6.5 0 0 1 6.5 6.5v101a6.5 6.5 0 0 1-6.5 6.5h-70a6.5 6.5 0 0 1-6.5-6.5V444Z" stroke="#000" stroke-width="7"/><path d="M699 517a9 9 0 0 1-9 9 9 9 0 0 1-9-9 9 9 0 0 1 9-9 9 9 0 0 1 9 9Z" stroke="#000" stroke-width="7"/><path d="M673 459a3 3 0 1 1-6 0 3 3 0 0 1 6 0Zm0 10a3 3 0 1 1-6 0 3 3 0 0 1 6 0Zm0 10a3 3 0 1 1-6 0 3 3 0 0 1 6 0Zm0 10a3 3 0 1 1-6 0 3 3 0 0 1 6 0Zm20-30a3 3 0 1 1-6 0 3 3 0 0 1 6 0Zm0 10a3 3 0 1 1-6 0 3 3 0 0 1 6 0Zm0 10a3 3 0 1 1-6 0 3 3 0 0 1 6 0Zm0 10a3 3 0 1 1-6 0 3 3 0 0 1 6 0Zm-10-30a3 3 0 1 1-6 0 3 3 0 0 1 6 0Zm0 10a3 3 0 1 1-6 0 3 3 0 0 1 6 0Zm0 10a3 3 0 1 1-6 0 3 3 0 0 1 6 0Zm0 10a3 3 0 1 1-6 0 3 3 0 0 1 6 0Zm20-30a3 3 0 1 1-6 0 3 3 0 0 1 6 0Zm0 10a3 3 0 1 1-6 0 3 3 0 0 1 6 0Zm0 10a3 3 0 1 1-6 0 3 3 0 0 1 6 0Zm0 10a3 3 0 1 1-6 0 3 3 0 0 1 6 0Zm10-30a3 3 0 1 1-6 0 3 3 0 0 1 6 0Zm0 10a3 3 0 1 1-6 0 3 3 0 0 1 6 0Zm0 10a3 3 0 1 1-6 0 3 3 0 0 1 6 0Zm0 10a3 3 0 1 1-6 0 3 3 0 0 1 6 0Z" fill="#000"/><path fill-rule="evenodd" clip-rule="evenodd" d="M807 903V179c0-11.046 8.954-20 20-20h353c11.05 0 20 8.954 20 20v724h100v100H0V903h807Zm20-737h353c7.18 0 13 5.82 13 13v724H814V179c0-7.18 5.82-13 13-13Z" fill="#000"/><rect x="1159" y="475" width="91" height="22" rx="5" transform="rotate(90 1159 475)" fill="#000"/><mask id="a" fill="#fff"><path d="M1094 516c0-2.761 2.24-5 5-5h60v19h-60c-2.76 0-5-2.239-5-5v-9Z"/></mask><path d="M1094 516c0-2.761 2.24-5 5-5h60v19h-60c-2.76 0-5-2.239-5-5v-9Z" fill="#fff" stroke="#000" stroke-width="14" mask="url(#a)"/><path d="M597.5.5V906" stroke="#000" stroke-width="7"/></svg>