<svg id="Capa_1" data-name="Capa 1" xmlns="http://www.w3.org/2000/svg" viewBox="0 0 1300 1000"><defs><style>.cls-1,.cls-4,.cls-6,.cls-7{fill:#fff;}.cls-1,.cls-2,.cls-5,.cls-6,.cls-7{stroke:#262626;}.cls-1,.cls-2,.cls-7{stroke-miterlimit:10;}.cls-1,.cls-2,.cls-5,.cls-6{stroke-width:10px;}.cls-2,.cls-5{fill:none;}.cls-3{fill:#262626;}.cls-5,.cls-6{stroke-linecap:round;stroke-linejoin:round;}.cls-7{stroke-width:9.94px;}</style></defs><title>door--metro</title><path class="cls-1" d="M687.53,178.48h555a0,0,0,0,1,0,0v700a25,25,0,0,1-25,25h-505a25,25,0,0,1-25-25v-700A0,0,0,0,1,687.53,178.48Z" transform="translate(1930.06 1081.96) rotate(180)"/><rect class="cls-2" x="1005.62" y="208.89" width="200" height="395.73" rx="25" transform="translate(2211.23 813.51) rotate(180)"/><rect class="cls-2" x="726.62" y="208.89" width="200" height="395.73" rx="25" transform="translate(1653.23 813.51) rotate(180)"/><rect class="cls-1" x="688.37" y="839.89" width="554" height="64" transform="translate(1930.73 1743.78) rotate(180)"/><line class="cls-2" x1="963.62" y1="179.39" x2="963.62" y2="904.39"/><rect class="cls-3" y="900" width="1300" height="100" transform="translate(1300 1900) rotate(180)"/><path class="cls-4" d="M630.45,895.25l.25-31H618L599.46,607.16,578.33,864.22h-13l.21,31H490.92l0-12.92,22.42-18.05-3.62,0,28.09-325.47H524.72l4.11-26.44-38.41-86.47.3-1.54a258.3,258.3,0,0,1,22-62.34c21.45-41.73,50.86-64,85-64.41h.94c33.92,0,63.15,22.15,84.54,64.07a262.21,262.21,0,0,1,22,62.68l.29,1.49-37.95,89.49,3.66,23.47H658.11l28.12,325.48-5.68,0,21.81,17.84,1.15,13.12Zm29.89-426.5,8.89-46-22.48-41ZM536.18,465,549,382.57l-22.2,40.15Z"/><path class="cls-3" d="M598.73,302.57c78,0,101.63,122.7,101.63,122.7l-31.13,73.4L665,471.25,674.48,422l-37.09-67.72,28,179.55H652.66l28.13,325.49-14.19.05,31,25.32.49,5.59H635.49l.25-31h-13.1L599.79,542.13,573.72,859.22H560.29l.21,31H495.93v-5.52l31.53-25.39-12.27-.05L543.29,533.8H530.55l27.72-178.32L521.5,422l10.61,47.79-4.35,27.86-32.13-72.34s23.46-121.76,102.21-122.69h.89m0-10h-1c-36.14.43-67.06,23.64-89.42,67.12a264.23,264.23,0,0,0-22.5,63.68l-.6,3.08,1.28,2.87,32.13,72.34,5,11.35-3,19.23-1.79,11.52,11.66,0h1.85L505.24,858.43l-.56,6.42-15,12.09-3.72,3v10.29l0,10h84.66l-.07-10.07-.15-21h12.58l.76-9.18,15.44-187.85L612.66,860l.67,9.28h12.33l-.17,20.88-.08,10.08H709l-1-10.88-.49-5.58-.37-4.2-3.27-2.67-12.42-10.16-.72-8.34L663.56,543.79h1.88l11.67,0-1.8-11.53L672.77,516l5.67-13.37,31.13-73.4,1.19-2.8-.58-3a268.16,268.16,0,0,0-22.46-64c-22.29-43.7-53.06-66.81-89-66.81Zm62.12,147.14-4.76-30.5L664,423.6l-3.12,16.11ZM532.09,423.49l7.63-13.82L535.31,438l-3.22-14.55Z"/><path class="cls-1" d="M573.26,254.67c0,16.06,10.62,29.07,23.73,29.07s23.73-13,23.73-29.07S610.1,225.6,597,225.6,573.26,238.62,573.26,254.67Z"/><line class="cls-1" x1="536.02" y1="538.8" x2="656.27" y2="538.8"/><polyline class="cls-5" points="578.79 301.87 598.37 343.41 617.61 301.87"/><line class="cls-6" x1="598.37" y1="343.41" x2="598.37" y2="535.86"/><polygon class="cls-4" points="574.85 229.89 564.06 211.88 597.87 198.39 631.89 212.91 621.56 229.89 574.85 229.89"/><path class="cls-3" d="M597.8,203.8l26.82,11.44-5.87,9.65H577.68l-6.31-10.54L597.8,203.8m.13-10.82-3.83,1.53-26.44,10.55-10.9,4.35,6,10.07L569.1,230l2.91,4.86h52.36l2.92-4.8,5.87-9.65,6-9.87L628.54,206,601.73,194.6l-3.8-1.62Z"/><path class="cls-4" d="M597.78,249.68c-9.3,0-16.26-2.39-20.69-7.09a16.65,16.65,0,0,1-4.62-11.75l.28-4.7h50.64l.14,4.86a16.94,16.94,0,0,1-4.93,11.64C614.06,247.31,607.06,249.68,597.78,249.68Z"/><path class="cls-3" d="M618.53,231.14s.39,13.54-20.75,13.54-20.32-13.54-20.32-13.54h41.07m9.72-10h-60.2l-.57,9.4a21.59,21.59,0,0,0,6,15.48c5.42,5.75,13.6,8.66,24.33,8.66s18.89-2.88,24.41-8.55a21.93,21.93,0,0,0,6.34-15.27l-.28-9.72Z"/><path class="cls-4" d="M182.62,895.09l0-31.45-12.27,0L149.76,605,129.48,863.62H117.71l-.26,31.48H44.88l-.2-12.92,22.1-18.35H61.17L89.66,538.11H76.38L98.12,387.56l-20,47.65-23.7,93.56H26.12l16.43-92.62a272,272,0,0,1,19.81-67.68c20.49-45.63,50.78-70.79,87.58-72.76,21.77-1.16,95.71-7.67,112.54-9.16l29.81-104.62h25.88L292.74,316.06l-95.56,32.42,26.54,189.66-13.34,0L238.76,863.6l-5.35,0,21.22,18.46,1.15,13Z"/><path class="cls-3" d="M312.13,186.93,288.37,312.26l-96.72,32.82,26.32,188-13.05,0L233.3,858.62l-13.21,0,29.74,25.88.49,5.56H187.63l0-31.44-12.66,0-25.3-317-24.85,317h-12.1l-.27,31.48H49.8l-.09-5.61,30.91-25.66h-14l28.5-325.71h-13l26.53-183.75L73.42,433.62,50.58,523.77H32.09l15.4-86.84S65.06,305.25,150.21,300.7c24.87-1.32,116.14-9.48,116.14-9.48l29.71-104.29h16.07m12.08-10h-35.7l-2.06,7.26-27.83,97.68c-21.67,1.91-88.49,7.76-108.94,8.85-38.8,2.07-70.57,28.25-91.88,75.7a278.05,278.05,0,0,0-20.19,68.95L22.24,522l-2.08,11.74h38.2l1.91-7.54L82.93,436.8l4.62-11L72.26,531.69,70.6,543.12H84.21L56.66,858l-.73,8.38-12.6,10.46-3.69,3.06.08,4.79.08,5.6.15,9.85h82.46l.08-9.92.18-21.55h11.44l.72-9.22,15-191,15.25,191,.73,9.18,9.21,0h2.67l0,21.45,0,10h83.63l-1-10.88-.49-5.56-.35-4L256.39,877,244,866.2l-.73-8.45L215.84,543.11h2.09l11.54,0-1.6-11.43L202.7,351.89l88.89-30.16,5.52-1.88,1.09-5.73L322,188.8l2.25-11.87Z"/><ellipse class="cls-7" cx="153.04" cy="253.75" rx="23.5" ry="29"/></svg>