<svg width="1300" height="1000" viewBox="0 0 1300 1000" fill="none" xmlns="http://www.w3.org/2000/svg">
<path d="M951 857V907H371V857H951ZM378 900H944V864H378V900Z" fill="black"/>
<path d="M900 807V864H422V807H900ZM429 857H893V814H429V857Z" fill="black"/>
<path d="M893 102C893 94.8203 887.18 89 880 89H442C434.82 89 429 94.8203 429 102V807H893V102ZM900 814H422V102C422 91.127 430.676 82.2808 441.483 82.0068L442 82H880L880.517 82.0068C891.324 82.2809 900 91.127 900 102V814Z" fill="black"/>
<path d="M0 900H1300V1000H0V900Z" fill="black"/>
<path d="M1066 378V385H973V378H1066ZM1081 363V327C1081 318.716 1074.28 312 1066 312H973C964.716 312 958 318.716 958 327V363C958 371.284 964.716 378 973 378V385L972.433 384.993C960.733 384.697 951.303 375.267 951.007 363.567L951 363V327C951 314.85 960.85 305 973 305H1066C1078.15 305 1088 314.85 1088 327V363C1088 374.961 1078.46 384.692 1066.57 384.993L1066 385V378C1074.28 378 1081 371.284 1081 363Z" fill="black"/>
<path d="M489.5 87V806.5H482.5V87H489.5Z" fill="black"/>
</svg>
