<svg width="1300" height="1003" viewBox="0 0 1300 1003" fill="none" xmlns="http://www.w3.org/2000/svg">
<rect x="1159" y="474.5" width="91" height="22" rx="5" transform="rotate(90 1159 474.5)" fill="black"/>
<mask id="path-2-inside-1_941_195" fill="white">
<path d="M1094 515.5C1094 512.739 1096.24 510.5 1099 510.5H1159V529.5H1099C1096.24 529.5 1094 527.261 1094 524.5V515.5Z"/>
</mask>
<path d="M1094 515.5C1094 512.739 1096.24 510.5 1099 510.5H1159V529.5H1099C1096.24 529.5 1094 527.261 1094 524.5V515.5Z" fill="white" stroke="black" stroke-width="14" mask="url(#path-2-inside-1_941_195)"/>
<path d="M601 0V905.5H594V0H601Z" fill="black"/>
<path fill-rule="evenodd" clip-rule="evenodd" d="M807 902.5V178.5C807 167.454 815.954 158.5 827 158.5H1180C1191.05 158.5 1200 167.454 1200 178.5V902.5H1300V1002.5H0V902.5H807ZM827 165.5H1180C1187.18 165.5 1193 171.32 1193 178.5V902.5H814V178.5C814 171.32 819.82 165.5 827 165.5Z" fill="black"/>
</svg>
