<svg width="1300" height="1003" viewBox="0 0 1300 1003" fill="none" xmlns="http://www.w3.org/2000/svg">
<path d="M648.5 444C648.5 440.41 651.41 437.5 655 437.5H725C728.59 437.5 731.5 440.41 731.5 444V545C731.5 548.59 728.59 551.5 725 551.5H655C651.41 551.5 648.5 548.59 648.5 545V444Z" stroke="black" stroke-width="7"/>
<path d="M699 517C699 521.971 694.971 526 690 526C685.029 526 681 521.971 681 517C681 512.029 685.029 508 690 508C694.971 508 699 512.029 699 517Z" stroke="black" stroke-width="7"/>
<path d="M673 459C673 460.657 671.657 462 670 462C668.343 462 667 460.657 667 459C667 457.343 668.343 456 670 456C671.657 456 673 457.343 673 459Z" fill="black"/>
<path d="M673 469C673 470.657 671.657 472 670 472C668.343 472 667 470.657 667 469C667 467.343 668.343 466 670 466C671.657 466 673 467.343 673 469Z" fill="black"/>
<path d="M673 479C673 480.657 671.657 482 670 482C668.343 482 667 480.657 667 479C667 477.343 668.343 476 670 476C671.657 476 673 477.343 673 479Z" fill="black"/>
<path d="M673 489C673 490.657 671.657 492 670 492C668.343 492 667 490.657 667 489C667 487.343 668.343 486 670 486C671.657 486 673 487.343 673 489Z" fill="black"/>
<path d="M693 459C693 460.657 691.657 462 690 462C688.343 462 687 460.657 687 459C687 457.343 688.343 456 690 456C691.657 456 693 457.343 693 459Z" fill="black"/>
<path d="M693 469C693 470.657 691.657 472 690 472C688.343 472 687 470.657 687 469C687 467.343 688.343 466 690 466C691.657 466 693 467.343 693 469Z" fill="black"/>
<path d="M693 479C693 480.657 691.657 482 690 482C688.343 482 687 480.657 687 479C687 477.343 688.343 476 690 476C691.657 476 693 477.343 693 479Z" fill="black"/>
<path d="M693 489C693 490.657 691.657 492 690 492C688.343 492 687 490.657 687 489C687 487.343 688.343 486 690 486C691.657 486 693 487.343 693 489Z" fill="black"/>
<path d="M683 459C683 460.657 681.657 462 680 462C678.343 462 677 460.657 677 459C677 457.343 678.343 456 680 456C681.657 456 683 457.343 683 459Z" fill="black"/>
<path d="M683 469C683 470.657 681.657 472 680 472C678.343 472 677 470.657 677 469C677 467.343 678.343 466 680 466C681.657 466 683 467.343 683 469Z" fill="black"/>
<path d="M683 479C683 480.657 681.657 482 680 482C678.343 482 677 480.657 677 479C677 477.343 678.343 476 680 476C681.657 476 683 477.343 683 479Z" fill="black"/>
<path d="M683 489C683 490.657 681.657 492 680 492C678.343 492 677 490.657 677 489C677 487.343 678.343 486 680 486C681.657 486 683 487.343 683 489Z" fill="black"/>
<path d="M703 459C703 460.657 701.657 462 700 462C698.343 462 697 460.657 697 459C697 457.343 698.343 456 700 456C701.657 456 703 457.343 703 459Z" fill="black"/>
<path d="M703 469C703 470.657 701.657 472 700 472C698.343 472 697 470.657 697 469C697 467.343 698.343 466 700 466C701.657 466 703 467.343 703 469Z" fill="black"/>
<path d="M703 479C703 480.657 701.657 482 700 482C698.343 482 697 480.657 697 479C697 477.343 698.343 476 700 476C701.657 476 703 477.343 703 479Z" fill="black"/>
<path d="M703 489C703 490.657 701.657 492 700 492C698.343 492 697 490.657 697 489C697 487.343 698.343 486 700 486C701.657 486 703 487.343 703 489Z" fill="black"/>
<path d="M713 459C713 460.657 711.657 462 710 462C708.343 462 707 460.657 707 459C707 457.343 708.343 456 710 456C711.657 456 713 457.343 713 459Z" fill="black"/>
<path d="M713 469C713 470.657 711.657 472 710 472C708.343 472 707 470.657 707 469C707 467.343 708.343 466 710 466C711.657 466 713 467.343 713 469Z" fill="black"/>
<path d="M713 479C713 480.657 711.657 482 710 482C708.343 482 707 480.657 707 479C707 477.343 708.343 476 710 476C711.657 476 713 477.343 713 479Z" fill="black"/>
<path d="M713 489C713 490.657 711.657 492 710 492C708.343 492 707 490.657 707 489C707 487.343 708.343 486 710 486C711.657 486 713 487.343 713 489Z" fill="black"/>
<path fill-rule="evenodd" clip-rule="evenodd" d="M807 903V179C807 167.954 815.954 159 827 159H1180C1191.05 159 1200 167.954 1200 179V903H1300V1003H0V903H807ZM827 166H1180C1187.18 166 1193 171.82 1193 179V903H814V179C814 171.82 819.82 166 827 166Z" fill="black"/>
<rect x="1159" y="475" width="91" height="22" rx="5" transform="rotate(90 1159 475)" fill="black"/>
<mask id="path-6-inside-1_941_197" fill="white">
<path d="M1094 516C1094 513.239 1096.24 511 1099 511H1159V530H1099C1096.24 530 1094 527.761 1094 525V516Z"/>
</mask>
<path d="M1094 516C1094 513.239 1096.24 511 1099 511H1159V530H1099C1096.24 530 1094 527.761 1094 525V516Z" fill="white" stroke="black" stroke-width="14" mask="url(#path-6-inside-1_941_197)"/>
<path d="M597.5 0.5V906" stroke="black" stroke-width="7"/>
</svg>
