<svg id="Capa_1" data-name="Capa 1" xmlns="http://www.w3.org/2000/svg" viewBox="0 0 1300 1000"><defs><style>.cls-1,.cls-2{fill:none;stroke:#000;stroke-width:8px;}.cls-1{stroke-linejoin:round;}.cls-2{stroke-miterlimit:10;}</style></defs><title>elevator</title><rect y="900" width="1300" height="100"/><path class="cls-1" d="M691.47,900V122a4.06,4.06,0,0,1,4.06-4h515.05a4.05,4.05,0,0,1,4.05,4V900"/><line class="cls-1" x1="953.05" y1="151.49" x2="953.05" y2="900"/><path class="cls-1" d="M725,900V155.55a4.05,4.05,0,0,1,4.05-4.06H1177a4.05,4.05,0,0,1,4,4.06V900"/><rect class="cls-1" x="1239.02" y="483.48" width="45.96" height="84.53" rx="4.05"/><line class="cls-1" x1="1262.23" y1="530.62" x2="1262.23" y2="551.07"/><polygon class="cls-2" points="1264.43 546.35 1262.13 550.36 1259.79 546.35 1264.43 546.35"/><line class="cls-1" x1="1261.99" y1="520.88" x2="1261.99" y2="500.42"/><polygon class="cls-2" points="1259.79 505.15 1262.08 501.13 1264.43 505.15 1259.79 505.15"/></svg>