<svg id="Capa_1" data-name="Capa 1" xmlns="http://www.w3.org/2000/svg" viewBox="0 0 1300 1000"><title>2-landmarks-expand</title><rect y="900" width="1300" height="100"/><path d="M999.54,900h-8V145.45l-488.2,0L503.28,900h-8V145.45a8.07,8.07,0,0,1,8.06-8H991.49a8.06,8.06,0,0,1,8,8Z"/><rect x="743.41" y="174.96" width="8" height="725.03"/><path d="M966,900h-8V179l-421.09,0,0,721h-8V179a8.06,8.06,0,0,1,8-8h421a8.06,8.06,0,0,1,8.05,8Z"/><path d="M1061.83,572H1024a8.07,8.07,0,0,1-8.05-8.06V487.53a8.06,8.06,0,0,1,8.05-8h37.85a8.06,8.06,0,0,1,8.06,8V564A8.07,8.07,0,0,1,1061.83,572ZM1024,487.48l-.05,76.47,37.9.06a.06.06,0,0,0,.06-.06V487.53Z"/><rect x="1039.14" y="530.62" width="8" height="20.46"/><polygon points="1043.08 558.36 1033.73 542.35 1052.23 542.35 1043.08 558.36"/><rect x="1038.9" y="500.42" width="8" height="20.46"/><polygon points="1052.31 509.15 1033.81 509.15 1042.95 493.14 1052.31 509.15"/><path d="M356.26,177.18h-188a19.14,19.14,0,0,1-19.12-19.12V93.69a19.15,19.15,0,0,1,19.12-19.12h188a19.14,19.14,0,0,1,19.12,19.12v64.37A19.13,19.13,0,0,1,356.26,177.18Zm-188-94.61a11.13,11.13,0,0,0-11.12,11.12v64.37a11.13,11.13,0,0,0,11.12,11.12h188a11.13,11.13,0,0,0,11.12-11.12V93.69a11.13,11.13,0,0,0-11.12-11.12Z"/><path d="M138,177.18H74.19a19.14,19.14,0,0,1-19.12-19.12V93.69A19.15,19.15,0,0,1,74.19,74.57H138a19.15,19.15,0,0,1,19.12,19.12v64.37A19.14,19.14,0,0,1,138,177.18ZM74.19,82.57A11.13,11.13,0,0,0,63.07,93.69v64.37a11.13,11.13,0,0,0,11.12,11.12H138a11.13,11.13,0,0,0,11.12-11.12V93.69A11.13,11.13,0,0,0,138,82.57Z"/><rect x="78.59" y="121.88" width="50.29" height="8"/><path d="M108.29,151.83l-5.62-5.69,20.56-20.32L102.64,105l5.68-5.63L131.73,123a4,4,0,0,1,0,5.66Z"/><rect x="85.03" width="8" height="78.57"/><rect x="337.43" width="8" height="78.57"/></svg>