<svg id="Capa_1" data-name="Capa 1" xmlns="http://www.w3.org/2000/svg" viewBox="0 0 1300 1000"><title>2-landmarks-expand</title><path d="M999.54,900h-8V145.45l-488.2,0L503.28,900h-8V145.45a8.07,8.07,0,0,1,8.06-8H991.49a8.06,8.06,0,0,1,8,8Z"/><rect x="743.41" y="174.96" width="8" height="725.03"/><path d="M966,900h-8V179l-421.09,0,0,721h-8V179a8.06,8.06,0,0,1,8-8h421a8.06,8.06,0,0,1,8.05,8Z"/><path d="M1061.83,572.71H1024a8.06,8.06,0,0,1-8.05-8.05V488.24a8.06,8.06,0,0,1,8.05-8.05h37.85a8.06,8.06,0,0,1,8.06,8.05v76.42A8.06,8.06,0,0,1,1061.83,572.71ZM1024,488.19l-.05,76.47,37.9.05a.06.06,0,0,0,.06-.05V488.24Z"/><rect x="1038.9" y="503.83" width="8" height="15.57"/><polygon points="1044.69 512.91 1043 510.38 1041.37 512.88 1034.67 508.51 1042.93 495.85 1051.35 508.47 1044.69 512.91"/><rect x="1039.14" y="533.49" width="8" height="15.57"/><polygon points="1043.11 557.05 1034.69 544.42 1041.34 539.98 1043.04 542.52 1044.67 540.02 1051.37 544.39 1043.11 557.05"/></svg>