<svg width="1300" height="1000" viewBox="0 0 1300 1000" fill="none" xmlns="http://www.w3.org/2000/svg"><path fill-rule="evenodd" clip-rule="evenodd" d="M1244 900h56v100H0V900h744V120c0-11.046 8.954-20 20-20h460c11.05 0 20 8.954 20 20v780ZM751 122v778h240V107H766c-8.284 0-15 6.716-15 15Zm247 778h239V122c0-8.284-6.72-15-15-15H998v793Z" fill="#000"/><path d="M701.406 514.573a2.14 2.14 0 0 0-.032-3.088l-10.201-9.578a3 3 0 0 0-4.083-.022l-10.447 9.596a2.141 2.141 0 0 0 2.872 3.176l9.602-8.545 9.354 8.514a2.14 2.14 0 0 0 2.935-.053Zm-.032 14.942a2.14 2.14 0 0 0-2.903-3.141l-9.354 8.514-9.602-8.545a2.14 2.14 0 0 0-2.872 3.176l10.447 9.596a3 3 0 0 0 4.083-.022l10.201-9.578Z" fill="#000"/><path fill-rule="evenodd" clip-rule="evenodd" d="M667 480a3 3 0 0 0-3 3v74a3 3 0 0 0 3 3h44a3 3 0 0 0 3-3v-74a3 3 0 0 0-3-3h-44Zm40 7h-36v66h36v-66Z" fill="#000"/></svg>
