<svg id="Capa_1" data-name="Capa 1" xmlns="http://www.w3.org/2000/svg" viewBox="0 0 1300 1000"><defs><style>.cls-1,.cls-3,.cls-5,.cls-6{fill:#fff;}.cls-2{fill:#1d1d1b;}.cls-3,.cls-4,.cls-5,.cls-6{stroke:#1d1d1b;}.cls-3,.cls-6{stroke-miterlimit:10;}.cls-3,.cls-4,.cls-5{stroke-width:10px;}.cls-4{fill:none;}.cls-4,.cls-5{stroke-linecap:round;stroke-linejoin:round;}.cls-6{stroke-width:9.94px;}</style></defs><title>Capa 2-Personajes y artefactos</title><path class="cls-1" d="M688.48,905.88l.26-31H676L657.5,617.78,636.37,874.84h-13l.21,31H549L549,893l22.43-18.05-3.62,0,28.08-325.47H582.76L586.87,523,548.46,436.5l.29-1.54a259.16,259.16,0,0,1,22-62.34c21.46-41.73,50.86-64,85-64.41h.95c33.92,0,63.15,22.16,84.54,64.08a262.73,262.73,0,0,1,22,62.68l.29,1.49-38,89.49,3.67,23.47H716.15l28.12,325.47-5.69,0,21.82,17.83,1.15,13.13Zm29.89-426.5,8.9-46-22.48-41.06Zm-124.15-3.72L607,393.2l-22.2,40.15Z"/><path class="cls-2" d="M656.77,313.2c78.05,0,101.63,122.7,101.63,122.7l-31.13,73.4L723,481.88l9.54-49.29-37.09-67.72,28,179.54-12.77,0,28.12,325.48-14.18.06,31,25.32.49,5.59H693.52l.26-31h-13.1L657.82,552.76,631.76,869.84H618.32l.22,31H554v-5.52L585.51,870l-12.27-.06,28.08-325.48-12.73,0L616.3,366.1l-36.76,66.49,10.6,47.79-4.35,27.86L553.66,435.9s23.47-121.76,102.22-122.69h.89m0-10h-1c-36.13.43-67,23.64-89.41,67.12A264.51,264.51,0,0,0,543.84,434l-.59,3.08,1.27,2.87,32.14,72.34,5,11.35-3,19.23-1.79,11.52h13.5L563.28,869.05l-.56,6.43-15,12.09-3.72,3v10.29l0,10h84.66l-.07-10.07-.15-21H641l.76-9.18,15.44-187.85L670.7,870.63l.67,9.28h12.32l-.16,20.87-.09,10.09H767l-1-10.88-.49-5.58-.36-4.2-3.27-2.67-12.42-10.16-.72-8.34L721.6,554.42h13.55l-1.8-11.53-2.55-16.29,5.67-13.37,31.14-73.4,1.18-2.81-.57-3a268,268,0,0,0-22.46-64c-22.29-43.71-53.06-66.81-89-66.81ZM718.9,450.34l-4.76-30.5L722,434.23l-3.12,16.11ZM590.12,434.12l7.64-13.82-4.41,28.37-3.23-14.55Z"/><line class="cls-3" x1="594.06" y1="549.43" x2="714.31" y2="549.43"/><polyline class="cls-4" points="636.83 312.5 656.41 354.04 675.65 312.5"/><line class="cls-5" x1="656.41" y1="354.04" x2="656.41" y2="546.49"/><path id="_Trazado_" data-name="&lt;Trazado&gt;" class="cls-6" d="M631.53,264.34c0,16,10.52,29,23.5,29s23.5-13,23.5-29-10.52-29-23.5-29S631.53,248.32,631.53,264.34Z"/><rect class="cls-2" x="667.48" y="360.22" width="22.81" height="13.31" rx="3" ry="3"/></svg>