<svg id="Capa_1" data-name="Capa 1" xmlns="http://www.w3.org/2000/svg" viewBox="0 0 1300 1000"><defs><style>.cls-1{fill:#fff;}</style></defs><title>2-landmarks-expand</title><rect y="900" width="1300" height="100"/><path class="cls-1" d="M1246.41,671V900H876.16V848.54a4.05,4.05,0,0,1,4.05-4H963.5V790.71a4.05,4.05,0,0,1,4-4.05h83.29V732.88a4.05,4.05,0,0,1,4.05-4h83.29V675.05a4.05,4.05,0,0,1,4-4Z"/><path d="M880.16,900h-8V848.54a8.06,8.06,0,0,1,8.05-8H959.5V790.71a8.06,8.06,0,0,1,8-8.05h79.29V732.88a8.06,8.06,0,0,1,8.05-8h79.29V675.05a8.06,8.06,0,0,1,8-8h104.18v8H1142.23l0,53.83a4,4,0,0,1-4,4h-83.29l-.05,53.83a4,4,0,0,1-4,4H967.55l0,53.83a4,4,0,0,1-4,4H880.21Z"/><path d="M880.16,900h-8V848.54a8.06,8.06,0,0,1,8.05-8H959.5V790.71a8.06,8.06,0,0,1,8-8.05h79.29V732.88a8.06,8.06,0,0,1,8.05-8h79.29V675.05a8.06,8.06,0,0,1,8-8h104.18v8H1142.23l0,53.83a4,4,0,0,1-4,4h-83.29l-.05,53.83a4,4,0,0,1-4,4H967.55l0,53.83a4,4,0,0,1-4,4H880.21Z"/><path d="M1252.19,900h-8V122l-548.66,0L695.47,900h-8V122a8.06,8.06,0,0,1,8.06-8h548.61a8.06,8.06,0,0,1,8,8Z"/></svg>