<svg id="Capa_1" data-name="Capa 1" xmlns="http://www.w3.org/2000/svg" viewBox="0 0 1300 1000"><defs><style>.cls-1{fill:none;}.cls-1,.cls-3{stroke:#262626;stroke-miterlimit:10;stroke-width:10px;}.cls-2{fill:#262626;}.cls-3,.cls-4{fill:#fff;}</style></defs><title>exit</title><path class="cls-1" d="M691.44,178.67h555a0,0,0,0,1,0,0v700a25,25,0,0,1-25,25h-505a25,25,0,0,1-25-25v-700a0,0,0,0,1,0,0Z" transform="translate(1937.89 1082.34) rotate(180)"/><rect class="cls-2" y="900" width="1300" height="100"/><path class="cls-3" d="M1241.29,676.64l-90.34.78c-6.87.06-12.41,6.76-12.41,15v39.81c0,2.77-1.87,5-4.17,5H1063c-6.91,0-12.5,6.72-12.5,15v39.71c0,2.76-1.87,5-4.17,5H971.62c-6.91,0-12.51,6.72-12.51,15v31.58c0,2.76-1.86,5-4.17,5H874.45c-6.91,0-12.51,6.72-12.51,15v40.12l379.35.78"/><path class="cls-3" d="M138.17,255c0,16,10.53,29,23.5,29s23.5-13,23.5-29-10.52-29-23.5-29S138.17,239,138.17,255Z"/><polygon class="cls-4" points="23.22 868.33 32.47 852.74 17.43 852.74 91.54 688.81 106.56 526.6 190.68 536.23 156.58 717.73 100.18 852.74 85.16 852.74 100.82 881.3 91.92 893.83 23.22 868.33"/><path class="cls-2" d="M111.07,532.15l73.71,8.44-33,175.7L96.85,847.74H76.72L94.93,881l-4.87,6.84L30.58,865.73l10.66-18H25.18L96.45,690.11l14.62-158m-9-11.1-.94,10.17L86.64,687.51,16.07,843.62,9.68,857.74h14L22,860.63l-6.11,10.3L27.1,875.1l59.49,22.08,7.18,2.67,4.44-6.25,4.87-6.85,3.63-5.1-3-5.5L93.61,857.74h9.9l2.56-6.15L161,720.15l.41-1,.19-1,33-175.71,2-10.56-10.67-1.22-73.71-8.44-10.16-1.16Z"/><polygon class="cls-4" points="30.53 508.71 151.74 306.97 170.5 340.63 52.53 524.02 30.53 508.71"/><path class="cls-2" d="M151.58,317l13.09,23.49L51.13,517l-13.91-9.68L151.58,317M151.9,297,143,311.8,28.65,502.13l-4.81,8,7.67,5.34,13.91,9.68,8.51,5.92,5.61-8.72L173.08,345.85l3.25-5-2.92-5.24-13.1-23.49L151.9,297Z"/><path class="cls-4" d="M233,894.82l.3-32.06-12.43.07L176.57,689,113.35,539H70.12l62.21-220.64c5.6-19.67,18.34-21.2,22.12-21.2a19.24,19.24,0,0,1,16.12,9.2c17.86,28,30.27,74.85,36.88,139.35,4.89,47.72,4.61,87.93,4.61,88.33l-.05,5H192.17L247.68,677.6l43.76,185.24H284.3l21.59,18v13.94Z"/><path class="cls-2" d="M154.45,302.15A14.27,14.27,0,0,1,166.36,309c42,65.85,40.7,225,40.7,225H184.78L242.9,679.11l42.22,178.73h-14.6l30.37,25.36v6.61H238l.29-32.08-13.59.07L181.32,687.44,116.67,534H76.72l60.42-214.28c3.54-12.45,10.67-17.56,17.31-17.56m0-10a24.22,24.22,0,0,0-16.62,6.78c-4.66,4.33-8.13,10.4-10.31,18L67.1,531.27,63.51,544H110l61.79,146.65L215,860.28l1.93,7.57,7.81,0,3.45,0-.2,21.94-.1,10.09h83V878.54l-3.59-3-9.62-8-2.82-12L252.63,676.81l-.17-.72-.28-.7L199.55,544H217l.09-9.92c0-1.65.28-40.88-4.64-88.88-6.69-65.28-19.35-112.9-37.64-141.53a24.2,24.2,0,0,0-20.33-11.51Z"/><path class="cls-4" d="M149.44,325.09c-.15,58.18,28.85,106.21,28.85,106.21l55.52,92.87,19.95-11.85-48-105.72S184.11,330.32,164,306.14"/><path class="cls-2" d="M149.44,325.09a219.42,219.42,0,0,0,9.87,53.54c1.38,4.31,2.8,8.61,4.37,12.85s3.26,8.43,5,12.57a232.57,232.57,0,0,0,12.07,24.1l14.45,23.21,14.36,23.37q7.19,11.68,14.3,23.41l14.17,23.48-6.8-1.72L251.22,508l-2,6.35-11.91-26.47q-5.94-13.25-11.77-26.53L213.87,434.8C210,426,206.2,417,202.35,408.15l-.13-.31-.06-.21c-2.33-8.7-4.91-17.44-7.49-26.13s-5.44-17.31-8.37-25.89-6.13-17.08-9.63-25.44C174.9,326,173,321.86,171,317.82a85.54,85.54,0,0,0-7-11.68c6.16,6.78,10.77,14.84,15.07,22.91,2.15,4,4.15,8.17,6.06,12.33s3.76,8.35,5.55,12.57,3.48,8.46,5.13,12.73,3.26,8.55,4.82,12.85c3.15,8.61,6,17.25,8.79,26.05l-.19-.53c4.15,8.74,8.39,17.44,12.48,26.21L234,457.54q6.18,13.14,12.22,26.33l12.09,26.39,1.86,4.06-3.85,2.28-20,11.84L232.07,531l-2.52-4.27-14-23.59q-7-11.81-13.85-23.67l-13.79-23.71c-2.31-3.94-4.56-7.93-6.83-11.89l-6.83-12a201.16,201.16,0,0,1-11.34-25.48,233,233,0,0,1-8.11-26.52A189.41,189.41,0,0,1,149.44,325.09Z"/></svg>