<svg id="Capa_1" data-name="Capa 1" xmlns="http://www.w3.org/2000/svg" viewBox="0 0 1300 1000"><title>2-landmarks-expand</title><path d="M1159.08,171.69h-188A19.14,19.14,0,0,1,952,152.57V88.21a19.14,19.14,0,0,1,19.12-19.12h188a19.13,19.13,0,0,1,19.12,19.12v64.36A19.13,19.13,0,0,1,1159.08,171.69Zm-188-94.6A11.13,11.13,0,0,0,960,88.21v64.36a11.13,11.13,0,0,0,11.12,11.12h188a11.12,11.12,0,0,0,11.12-11.12V88.21a11.12,11.12,0,0,0-11.12-11.12Z"/><path d="M940.85,171.69H877a19.14,19.14,0,0,1-19.12-19.12V88.21A19.14,19.14,0,0,1,877,69.09h63.84A19.14,19.14,0,0,1,960,88.21v64.36A19.14,19.14,0,0,1,940.85,171.69ZM877,77.09a11.13,11.13,0,0,0-11.12,11.12v64.36A11.13,11.13,0,0,0,877,163.69h63.84A11.13,11.13,0,0,0,952,152.57V88.21a11.13,11.13,0,0,0-11.12-11.12Z"/><rect x="881.41" y="116.39" width="50.29" height="8"/><path d="M911.11,146.34l-5.62-5.69,20.56-20.32L905.46,99.51l5.69-5.63,23.4,23.67a4,4,0,0,1,0,5.65Z"/><rect x="887.85" width="8" height="73.08"/><rect x="1140.25" width="8" height="73.08"/><path d="M976.29,119.63h9v3.31h-9v5.13h10.5v3.31h-14.3v-20h14.3v3.31h-10.5Z"/><path d="M988.61,125.29h3.63a3,3,0,0,0,1.29,2.3,5.75,5.75,0,0,0,3.17.71q4.09,0,4.09-2.69a2.16,2.16,0,0,0-.81-1.82,5.45,5.45,0,0,0-2.67-.82l-2.12-.27q-6.09-.75-6.09-5.59a5.36,5.36,0,0,1,2-4.43,8.72,8.72,0,0,1,5.54-1.61,8.27,8.27,0,0,1,5.31,1.54,6,6,0,0,1,2.15,4.44h-3.66a2.68,2.68,0,0,0-1.06-2.12,4.91,4.91,0,0,0-2.82-.67,5,5,0,0,0-2.85.67,2.18,2.18,0,0,0-1,1.89,2,2,0,0,0,.84,1.71,6.12,6.12,0,0,0,2.7.84l2.4.32a7.48,7.48,0,0,1,4.32,1.78,5,5,0,0,1,1.48,3.85,5.42,5.42,0,0,1-2.14,4.62,9.58,9.58,0,0,1-5.89,1.61,8.79,8.79,0,0,1-5.66-1.61A6.26,6.26,0,0,1,988.61,125.29Z"/><path d="M1007,122.91v-3.14q0-4.38,2.27-6.58a8.61,8.61,0,0,1,6.29-2.2,8.93,8.93,0,0,1,5.88,1.81,6.19,6.19,0,0,1,2.18,5v.23h-3.79V118a3.32,3.32,0,0,0-1.14-2.66,4.67,4.67,0,0,0-3.13-1,4.41,4.41,0,0,0-3.55,1.39,6.48,6.48,0,0,0-1.18,4.27v2.87a6,6,0,0,0,1.19,4.09,4.54,4.54,0,0,0,3.57,1.33,4.71,4.71,0,0,0,3.12-.94,3.23,3.23,0,0,0,1.12-2.6v-.14h3.77v.14a6.35,6.35,0,0,1-2.18,5.14,8.85,8.85,0,0,1-5.89,1.83,8.59,8.59,0,0,1-6.28-2.21Q1007,127.29,1007,122.91Z"/><path d="M1030.57,127.49l-1.45,3.89h-4.06l8.21-20h3.1l8.21,20h-4.06l-1.45-3.89Zm4.24-11.31-3,8.15h6.12Z"/><path d="M1050.21,111.36v16.71h10.32v3.31h-14.12v-20Z"/><path d="M1066.74,119.63h9v3.31h-9v5.13h10.5v3.31h-14.3v-20h14.3v3.31h-10.5Z"/><path d="M1083.76,123.52v7.86H1080v-20h8.7a7.87,7.87,0,0,1,5.18,1.57,5.54,5.54,0,0,1,1.9,4.52,5.91,5.91,0,0,1-1,3.56,5.77,5.77,0,0,1-3,2l5,8.33h-4.53l-4.38-7.86Zm5-3.25c2.12,0,3.19-.94,3.19-2.82a2.54,2.54,0,0,0-.84-2.08,3.56,3.56,0,0,0-2.35-.7h-5v5.6Z"/><path d="M1103.13,127.49l-1.45,3.89h-4.06l8.21-20h3.1l8.21,20h-4.06l-1.45-3.89Zm4.23-11.31-3,8.15h6.12Z"/><rect x="1129.31" y="126.24" width="7.21" height="5.85"/><rect x="1136.52" y="126.24" width="7.21" height="5.85"/><rect x="1136.52" y="120.39" width="7.21" height="5.85"/><rect x="1143.73" y="126.24" width="7.21" height="5.85"/><rect x="1143.73" y="120.39" width="7.21" height="5.85"/><rect x="1143.73" y="114.54" width="7.21" height="5.85"/><rect x="1150.95" y="126.24" width="7.21" height="5.85"/><rect x="1150.95" y="120.39" width="7.21" height="5.85"/><rect x="1150.95" y="114.54" width="7.21" height="5.85"/><rect x="1150.95" y="108.69" width="7.21" height="5.85"/></svg>