<svg id="Capa_1" data-name="Capa 1" xmlns="http://www.w3.org/2000/svg" viewBox="0 0 1300 1000"><title>2-landmarks-expand</title><rect y="900" width="1300" height="100"/><path d="M646.51,900h-8V848.54a8.06,8.06,0,0,1,8-8h79.29V790.71a8.06,8.06,0,0,1,8-8.05h79.29V732.88a8.06,8.06,0,0,1,8-8h79.29V675.05a8.06,8.06,0,0,1,8.05-8h87v8h-87l-.05,53.83a4,4,0,0,1-4,4H821.24l0,53.83a4,4,0,0,1-4,4H733.9l0,53.83a4,4,0,0,1-4,4H646.56Z"/><path d="M999.54,900h-8V145.45l-488.2,0L503.28,900h-8V145.45a8.07,8.07,0,0,1,8.06-8H991.49a8.06,8.06,0,0,1,8,8Z"/><path d="M356.26,177.18h-188a19.14,19.14,0,0,1-19.12-19.12V93.69a19.15,19.15,0,0,1,19.12-19.12h188a19.15,19.15,0,0,1,19.12,19.12v64.37A19.14,19.14,0,0,1,356.26,177.18Zm-188-94.61a11.13,11.13,0,0,0-11.12,11.12v64.37a11.13,11.13,0,0,0,11.12,11.12h188a11.13,11.13,0,0,0,11.12-11.12V93.69a11.13,11.13,0,0,0-11.12-11.12Z"/><path d="M138,177.18H74.19a19.14,19.14,0,0,1-19.12-19.12V93.69A19.15,19.15,0,0,1,74.19,74.57H138a19.15,19.15,0,0,1,19.12,19.12v64.37A19.14,19.14,0,0,1,138,177.18ZM74.19,82.57A11.13,11.13,0,0,0,63.07,93.69v64.37a11.13,11.13,0,0,0,11.12,11.12H138a11.13,11.13,0,0,0,11.12-11.12V93.69A11.13,11.13,0,0,0,138,82.57Z"/><rect x="78.59" y="121.88" width="50.29" height="8"/><path d="M108.29,151.83l-5.62-5.69,20.56-20.32L102.64,105l5.68-5.63L131.73,123a4,4,0,0,1,1.15,2.84,4,4,0,0,1-1.18,2.82Z"/><rect x="85.03" width="8" height="78.57"/><rect x="337.43" width="8" height="78.57"/></svg>