<svg id="Capa_1" data-name="Capa 1" xmlns="http://www.w3.org/2000/svg" viewBox="0 0 1300 1000"><defs><style>.cls-1,.cls-3{fill:#fff;}.cls-2{fill:#1d1d1b;}.cls-3,.cls-5,.cls-6{stroke:#1d1d1b;}.cls-3,.cls-4,.cls-5{stroke-miterlimit:10;}.cls-3{stroke-width:9.94px;}.cls-4{fill:#b4b4b4;stroke:#fff;stroke-width:8px;}.cls-5,.cls-6{fill:none;}.cls-5{stroke-width:10.11px;}.cls-6{stroke-linecap:round;stroke-linejoin:round;stroke-width:10px;}</style></defs><title>Capa 2-Personajes y artefactos</title><path class="cls-1" d="M699.75,905.33l.09-31.61-12.93,0L665.37,613.07,644.31,873.68l-12.91.05.44,31.6H556.63l.17-12.8,22.28-18.83-5.39,0L604,548.2H589.61l12.49-77.15-8.41,46.22L554.06,434.6l.33-1.64a254,254,0,0,1,23.09-62.64c22.36-41.72,52.86-63.81,88.21-63.91.42,0,1.22-.08,2.34-.08,6.14,0,22.61,1.49,42.92,15.36,24.77,16.91,46.46,45.88,64.47,86.12l78.67,46.82-6.6,24.18-95.75-43.28-36.57-51.89,26.75,164.51-14.3.12,29.85,325.42h-6l22.63,18.51,1.2,13.12ZM602.63,467.77l12.52-77.36-23.53,40.85Z"/><path class="cls-2" d="M668,311.33c10.85,0,61.59,5.3,103.46,100L848.27,457l-4.06,14.86L755,431.54,706.75,363l29.3,180.19-13.91.12L752,868.7l-14.47,0,31.81,26,.51,5.58H704.77l.08-31.6-13.34,0-26.19-317-25.63,317-13.36,0,.44,31.58H561.69l.08-5.45,31.06-26.25-13.65.07,30.34-325.51h-14l29-179-38.24,66.4,11.32,37.56-6,33L559.3,434S584,311.41,665.92,311.41c0,0,.74-.08,2.11-.08m0-10c-1.12,0-2,0-2.55.08-37.22.19-69.17,23.19-92.4,66.55a259.59,259.59,0,0,0-23.59,64l-.66,3.28,1.45,3,32.24,67.24,6.68,13.94-3.59,22.14-1.87,11.61h14.8L569.23,867.77l-.78,8.37-13.14,11.1-3.48,3-.06,4.56-.07,5.44-.14,10.14h85.35l-.14-10.14-.3-21.48h3.27l9.18,0,.74-9.15,15.77-195.06,16.12,195.07.75,9.16,9.19,0h3.33l-.05,21.59,0,10h86l-1-10.91-.51-5.58-.38-4.17L775.66,887l-12.91-10.56-.8-8.66L733.09,553.23l3,0,11.66-.1-1.87-11.5L723.59,404.26l23.28,33,1.57,2.23,2.48,1.12L840.09,481l10.68,4.82,3.09-11.3,4.06-14.86,2-7.34-6.54-3.89-74-44.07C761.06,364,739,334.79,713.77,317.56c-21.46-14.65-39.14-16.23-45.74-16.23ZM597,431.89l8.82-15.31-4.69,29L597,431.89Z"/><ellipse id="_Trazado_" data-name="&lt;Trazado&gt;" class="cls-3" cx="665.36" cy="264.34" rx="23.5" ry="29"/><line class="cls-4" x1="605.49" y1="547.28" x2="725.74" y2="547.28"/><line class="cls-5" x1="604.49" y1="548.26" x2="727.52" y2="548.26"/><polyline class="cls-6" points="646.26 311.33 665.84 352.87 685.08 311.33"/><line class="cls-6" x1="665.84" y1="352.87" x2="665.84" y2="545.32"/><rect class="cls-2" x="677.9" y="359.02" width="22.81" height="13.31" rx="2" ry="2"/></svg>