<svg width="1306" height="1000" viewBox="0 0 1306 1000" fill="none" xmlns="http://www.w3.org/2000/svg">
<path d="M452.5 502V93C452.5 91.3431 453.843 90 455.5 90H1305.5" stroke="black" stroke-width="7"/>
<path d="M538 89.5V501.5" stroke="black" stroke-width="7"/>
<path d="M793 89.5V501.5" stroke="black" stroke-width="7"/>
<path d="M1218 89.5V501.5" stroke="black" stroke-width="7"/>
<path d="M623 93V505" stroke="black" stroke-width="7"/>
<path d="M1048 93V505" stroke="black" stroke-width="7"/>
<path d="M878 93V505" stroke="black" stroke-width="7"/>
<path d="M708 93V505" stroke="black" stroke-width="7"/>
<path d="M1133 93V505" stroke="black" stroke-width="7"/>
<path d="M963 93V505" stroke="black" stroke-width="7"/>
<path d="M455 227H1301.5" stroke="black" stroke-width="7"/>
<path d="M455 367H1301.5" stroke="black" stroke-width="7"/>
<rect y="900" width="1300" height="100" fill="black"/>
<rect x="393" y="543" width="7" height="357" fill="black"/>
<path fill-rule="evenodd" clip-rule="evenodd" d="M389.5 500C377.626 500 368 509.626 368 521.5C368 533.374 377.626 543 389.5 543H1301.5V500H389.5ZM390.029 506.471C381.728 506.471 375 513.199 375 521.499C375 529.8 381.728 536.528 390.029 536.528H1300V506.471H390.029Z" fill="black"/>
<path d="M981.5 500H787L787 472.45H787.01C787.01 472.45 791.45 415.766 807.99 380.495C822.191 351.937 847.37 348.425 885.341 348C923.076 348.447 945.852 351.549 960 380C976.54 415.272 981.5 472 981.5 472V500Z" fill="white"/>
<path d="M989.426 469.163C989.426 467.501 983.524 412.035 965.996 376.001C950.947 346.826 925.936 341.456 885.817 341.021C845.756 341.463 817.956 346.85 802.92 376.001C785.392 412.035 779.49 467.501 779.49 469.163C779.49 480.658 779.741 493.22 780.11 505.501H787.604L787.476 472.471H787.486C787.486 472.471 791.926 415.788 808.466 380.516C822.667 351.959 847.846 348.446 885.817 348.021C923.552 348.468 946.302 352.065 960.45 380.516C976.99 415.788 981.43 472.471 981.43 472.471H981.44L981.312 505.501H988.805C989.175 493.22 989.426 480.658 989.426 469.163Z" fill="black"/>
<path d="M942 488.001L938.605 419.336C938.549 418.618 939.119 418.006 939.84 418.012C940.453 418.017 940.969 418.474 941.047 419.083L948.51 469.091L951.82 505.501H943.75L942 488.001Z" fill="black"/>
<path d="M826.916 488.001L830.311 419.336C830.367 418.618 829.796 418.006 829.076 418.012C828.463 418.017 827.947 418.474 827.869 419.083L820.406 469.091L817.096 505.501H825.166L826.916 488.001Z" fill="black"/>
<path d="M899.649 333.086C895.88 334.494 888.842 334.996 887 335C887 335 878.699 334.931 873.865 333.086C868.417 331.007 865.382 328.977 861.703 324.511C859.213 321.489 857.265 316.288 856.381 313.658C856.019 312.579 855.77 311.47 855.58 310.348L851.487 286.194C851.487 286.194 850.992 282.702 851 280.452C851.02 275.101 851.746 271.959 853.919 267.054C856.151 262.016 858.103 259.319 862.189 255.57C866.545 251.574 869.684 249.828 875.324 247.945C879.704 246.483 882.376 246.038 887 246C891.963 246.167 893.811 246.478 898.548 247.945C903.288 249.522 908.128 252.318 911.811 255.57C915.494 258.822 918.071 262.671 920.081 267.054C922.091 271.437 922.998 275.669 923 280.452C923 282.255 922.8 284.411 922.514 286.194L917.65 310.027C917.399 311.256 917.075 312.468 916.637 313.644C915.596 316.437 913.435 321.821 911.324 324.473C908.399 328.149 904.157 331.402 899.649 333.086Z" fill="black"/>
<path d="M897.189 326.387C894.153 327.573 888.484 327.996 887 328C887 328 880.313 327.942 876.419 326.387C872.03 324.635 869.585 322.925 866.622 319.161C864.673 316.687 863.137 312.481 862.398 310.21C862.06 309.171 861.831 308.105 861.657 307.026L858.392 286.871C858.392 286.871 857.993 283.928 858 282.032C858.016 277.523 858.601 274.876 860.351 270.742C862.15 266.496 863.722 264.224 867.014 261.065C870.522 257.697 873.051 256.226 877.595 254.639C881.122 253.407 883.275 253.032 887 253C890.998 253.141 892.487 253.403 896.302 254.639C900.121 255.968 904.02 258.324 906.986 261.065C909.953 263.805 912.029 267.048 913.649 270.742C915.268 274.436 915.998 278.002 916 282.032C916 283.552 915.839 285.369 915.608 286.871L911.734 306.733C911.503 307.917 911.205 309.084 910.797 310.219C909.932 312.626 908.244 316.961 906.595 319.129C904.238 322.227 900.821 324.968 897.189 326.387Z" fill="white"/>
<path d="M766.5 503H694.5V496.606C694.5 495.602 695.001 494.666 695.836 494.109L699 492C700.667 483.167 709.3 465.5 730.5 465.5C751.7 465.5 760.333 483.167 762 492L765.164 494.109C765.999 494.666 766.5 495.602 766.5 496.606V503Z" fill="white" stroke="black" stroke-width="7"/>
<circle cx="731" cy="446" r="11" fill="black"/>
<path d="M730.5 449V465.5" stroke="black" stroke-width="7"/>
</svg>
