<svg width="1300" height="1000" viewBox="0 0 1300 1000" fill="none" xmlns="http://www.w3.org/2000/svg"><path fill-rule="evenodd" clip-rule="evenodd" d="M784.208 666.922c-.751-17.818-3.281-40.487-11.023-59.347-7.726-18.822-20.353-33.261-41.148-36.037l.926-6.938c24.229 3.233 38.452 20.23 46.698 40.317 1.611 3.924 3.005 7.989 4.21 12.124-1.139-24.265-4.021-47.339-11.052-65.97-4.682-12.409-11.136-22.649-19.964-29.958-8.787-7.275-20.15-11.836-35.022-12.548l.334-6.992c16.221.776 29.077 5.807 39.152 14.148 10.032 8.306 17.079 19.705 22.05 32.878 4.001 10.605 6.702 22.488 8.521 35.063 2.086-22.599 5.286-46.126 10.139-67.24 4.685-20.384 10.975-38.819 19.486-52.017 8.526-13.221 19.748-21.823 34.225-20.828l-.48 6.984c-10.865-.747-20.02 5.477-27.862 17.637-7.857 12.184-13.926 29.688-18.547 49.792-5.654 24.601-9.042 52.644-11.028 78.631 1.094-4.887 2.319-9.632 3.696-14.188 4.493-14.872 10.681-28.029 19.405-37.513 8.823-9.593 20.18-15.35 34.576-15.35v7c-12.268 0-21.807 4.806-29.424 13.088-7.717 8.39-13.512 20.421-17.856 34.799-8.188 27.099-10.917 61.453-12.452 92.543H819v47c0 11.045-8.954 20-20 20h-22c-11.046 0-20-8.955-20-20v-47h27.318a558.961 558.961 0 0 1-.11-10.078ZM777 737h22c7.18 0 13-5.821 13-13v-40h-48v40c0 7.179 5.82 13 13 13Zm-14 34.167V907h53V771.167h19V744h-94v27.167h22ZM828 751h-80v13.167h15v-.044h53v.044h12V751Zm-58 149V771.167h39V900h-39ZM66 653v-61c0-11.046 8.954-20 20-20h265c6.85 0 12.895 3.444 16.5 8.694 3.605-5.25 9.65-8.694 16.5-8.694h265c11.046 0 20 8.954 20 20v61h4.152c10.962 0 19.848 8.954 19.848 20v164h-38v70h-33v-70H120v70H87v-70H41V673c0-11.046 8.886-20 19.848-20H66Zm13.14 0 .14.006.214.009c7.083.277 13.213 4.294 16.5 10.146a20.088 20.088 0 0 1 2.65 9.768L98.92 697H364V592c0-7.18-5.82-13-13-13H86c-7.18 0-13 5.82-13 13v61h6.14ZM656 660c-7.456 0-13.5 6.044-13.5 13.5V704h-.112v36H91.612v-67c0-.906-.092-1.791-.267-2.645-1.236-5.691-6.15-10.024-12.163-10.347a14.708 14.708 0 0 0-.471-.008H60.848c-7.125 0-12.901 5.82-12.901 13v121h638.106V673c0-7.18-5.776-13-12.901-13H656ZM99 704v29h265v-29H99Zm536.124 0H371v29h264.124v-29ZM662 653v-61c0-7.18-5.82-13-13-13H384c-7.18 0-13 5.82-13 13v105h264.441v-24c0-11.046 8.887-20 19.848-20H662Zm24.053 177v-29H47.947v29h638.106ZM113 837.284H94v62.432h19v-62.432Zm535 0h-19v62.432h19v-62.432Z" fill="#000"/><path d="M0 900h1300v100H0V900Z" fill="#000"/></svg>