<svg id="Capa_1" data-name="Capa 1" xmlns="http://www.w3.org/2000/svg" viewBox="0 0 1300 1000"><defs><style>.cls-1,.cls-2,.cls-5{fill:#fff;}.cls-1,.cls-4,.cls-5{stroke:#1d1d1b;stroke-miterlimit:10;stroke-width:10px;}.cls-3{fill:#1d1d1b;}.cls-4{fill:none;stroke-linecap:round;}.cls-5{stroke-linecap:square;}</style></defs><title>Capa 2-Personajes y artefactos</title><path id="_Trazado_" data-name="&lt;Trazado&gt;" class="cls-1" d="M677.43,265.07c0,16.06-10.63,29.08-23.73,29.08S630,281.13,630,265.07,640.59,236,653.7,236,677.43,249,677.43,265.07Z"/><g id="_Grupo_" data-name="&lt;Grupo&gt;"><path class="cls-2" d="M688.28,906.43l-.22-31.65H675.39L653.88,614.55,633.1,874.79H620.22l0,31.65H545.17V893.88l24.21-19.09h-6.84l29.28-325.5H578.09l5.08-31.35-40.64-82.19.34-1.67A254,254,0,0,1,566,371.43c22.38-41.75,52.91-63.85,88.3-63.91.25,0,.72,0,1.42,0,9.52,0,57.78,3.38,95.52,68.24l58.12-56L829,333l-74.83,99.22L702.72,379,730.4,549.28H716.66l29.28,325.5h-4.82l22.09,19,.18,12.6ZM591.55,466.14l12.08-74.63-23.48,40.78Z"/><path class="cls-3" d="M655.68,312.49c8.47,0,57.31,3.06,94.33,71.33l59.87-57.66,11.92,8-68.12,90.33-58.45-60.37,29.29,180.17H711.19l29.28,325.5H727.66l30.58,26.37.08,5.28H693.24L693,869.78H680l-26.2-317-25.3,317H615.22l0,31.65H550.17v-5.12l33.62-26.53H568l29.28-325.5H584l29-178.95-38.24,66.41L588,471.3l-6,33-34.24-69.24S572.49,312.52,654.4,312.52c0,0,.44,0,1.28,0m0-10c-.68,0-1.2,0-1.54,0-37.3.11-69.31,23.11-92.58,66.55a259.59,259.59,0,0,0-23.59,64l-.67,3.35,1.51,3.06,34.24,69.25,4.93,10-3.88,24-1.88,11.59h14.14l-28.3,314.6-.82,9.11L544,888.46l-3.8,3v20h85.09v-10l0-21.64h12.49l.74-9.21L654,676.3l16,194.31.76,9.18h12.31l.15,21.72.08,9.93h85.15l-.15-10.15-.08-5.27-.07-4.5-3.4-2.93-13.62-11.75-.72-7.94-28.3-314.6h14.15l-1.89-11.6L710.21,394l36.28,37.48,8.13,8.39,7-9.33,68.13-90.33,6.36-8.44-8.77-5.89-11.92-8-6.7-4.49L803,319l-50.7,48.83c-38.63-62-86.84-65.29-96.57-65.29ZM585.61,432.83l8.71-15.14-4.48,27.71-4.23-12.57Z"/></g><line class="cls-1" x1="712.93" y1="549.3" x2="592.68" y2="549.3"/><polyline class="cls-4" points="674.05 311.51 654.47 353.06 635.23 311.51"/><g id="_Grupo_2" data-name="&lt;Grupo&gt;"><line id="_Trazado_2" data-name="&lt;Trazado&gt;" class="cls-5" x1="677.47" y1="359.89" x2="677.47" y2="378.85"/><line id="_Trazado_3" data-name="&lt;Trazado&gt;" class="cls-5" x1="686.91" y1="369.4" x2="667.94" y2="369.4"/></g><line class="cls-1" x1="591.48" y1="403.04" x2="565.46" y2="379.79"/><line class="cls-1" x1="729.68" y1="404.04" x2="751.18" y2="375.69"/></svg>