<svg id="Capa_1" data-name="Capa 1" xmlns="http://www.w3.org/2000/svg" viewBox="0 0 1300 1000"><defs><style>.cls-1,.cls-2{fill:#fff;}.cls-1,.cls-4,.cls-5,.cls-6{stroke:#1d1d1b;stroke-width:10px;}.cls-1,.cls-4{stroke-miterlimit:10;}.cls-3{fill:#1d1d1b;}.cls-4,.cls-5,.cls-6{fill:none;}.cls-4,.cls-5{stroke-linecap:round;}.cls-5,.cls-6{stroke-linejoin:round;}</style></defs><title>Capa 2-Personajes y artefactos</title><path id="_Trazado_" data-name="&lt;Trazado&gt;" class="cls-1" d="M679.43,264.53c0,16.06-10.63,29.07-23.73,29.07S632,280.59,632,264.53s10.63-29.07,23.74-29.07S679.43,248.47,679.43,264.53Z"/><g id="_Grupo_" data-name="&lt;Grupo&gt;"><path class="cls-2" d="M690.28,905.89l-.22-31.65H677.39L655.88,614,635.1,874.25H622.22l0,31.65H547.17V893.34l24.21-19.1h-6.86l29.28-310.5H580.17l9.09-60.89-3,16.67-41.7-84.32.34-1.67A253.94,253.94,0,0,1,568,370.88c22.38-41.75,52.91-63.84,88.3-63.9.25,0,.72,0,1.42,0,9.52,0,57.78,3.37,95.52,68.24l58.12-56L831,332.41l-74.89,99.3-49.72-53.18,25.9,185.21H718.69L748,874.25h-4.85l22.09,19,.18,12.6ZM594.43,468.21l11.65-78-23.93,41.56Z"/><path class="cls-3" d="M657.68,312C666.15,312,715,315,752,383.28l59.87-57.67,11.92,8L755.68,424l-56.45-60.38,27.29,195.17H713.19l29.28,310.49H729.66l30.58,26.38.08,5.28H695.24L695,869.23H682l-26.2-317-25.3,317H617.22l0,31.66H552.17v-5.12l33.62-26.54H570L599.3,558.75H586l29-193.94-38.24,66.4L590,470.76l-6,33-34.24-69.25S574.49,312,656.4,312c0,0,.44,0,1.28,0m0-10c-.68,0-1.2,0-1.54,0-37.3.1-69.31,23.11-92.58,66.54a259.59,259.59,0,0,0-23.59,64l-.67,3.35,1.51,3.06,34.24,69.24,6.42,13-5.39,36.09-1.72,11.47h14L560.07,868.3l-.87,9.19L546,887.92l-3.8,3v20h85.09v-10l0-21.64h12.49l.74-9.21L656,675.76l16,194.31.76,9.18h12.31l.15,21.72.08,9.93h85.15l-.15-10.15-.08-5.28-.07-4.49-3.4-2.93-13.59-11.72-.75-8L724.18,568.74H738l-1.59-11.38L713.51,393.49l34.86,37.29,8.13,8.69,7.16-9.5,68.13-90.33,6.36-8.44-8.77-5.89-11.92-8-6.7-4.5-5.81,5.6-50.7,48.83c-38.63-62-86.84-65.29-96.57-65.29ZM587.61,432.29l9.62-16.73L592.55,447l-4.94-14.67Z"/></g><line class="cls-1" x1="714.93" y1="563.79" x2="594.68" y2="563.79"/><polyline class="cls-4" points="676.05 310.97 656.47 352.51 637.23 310.97"/><path class="cls-3" d="M679,392.64h0a9,9,0,0,1-9-9h0a9,9,0,0,1,9-9h0a9,9,0,0,1,9,9h0A9,9,0,0,1,679,392.64Z"/><path class="cls-5" d="M628.56,409.72h-7.27l0-21c0-11.61,6.59-21,18.2-21h0c11.61,0,18.23,9.39,18.24,21l0,21h-7.1"/><line class="cls-6" x1="628.51" y1="315.26" x2="637.49" y2="364.38"/><line class="cls-6" x1="686.13" y1="315.76" x2="680.11" y2="375.89"/><rect class="cls-2" x="641.3" y="493.71" width="27" height="64.88" transform="translate(1309.61 1052.31) rotate(180)"/></svg>