<svg width="1300" height="1000" viewBox="0 0 1300 1000" fill="none" xmlns="http://www.w3.org/2000/svg"><path fill-rule="evenodd" clip-rule="evenodd" d="M696.372 335.821c-3.631 1.731-10.598 2.844-12.433 3.009 0 0-8.275.655-13.252-.762-5.609-1.596-8.809-3.353-12.863-7.482-2.744-2.794-5.138-7.804-6.247-10.348-.455-1.043-.801-2.126-1.088-3.227l-6.182-23.706s-.797-3.436-.985-5.678c-.447-5.332.002-8.525 1.74-13.601 1.784-5.214 3.494-8.07 7.238-12.161 3.99-4.361 6.965-6.374 12.42-8.741 4.235-1.838 6.858-2.515 11.462-2.955 4.958-.266 6.827-.117 11.673.931 4.86 1.158 9.925 3.522 13.877 6.44 3.952 2.918 6.856 6.528 9.24 10.719 2.384 4.192 3.657 8.328 4.076 13.093.156 1.797.145 3.961.015 5.762l-2.768 24.167a24.201 24.201 0 0 1-.693 3.691c-.794 2.874-2.478 8.425-4.349 11.251-2.593 3.917-6.536 7.528-10.881 9.598Zm-3.033-6.459c-2.921 1.446-8.532 2.362-10.01 2.495 0 0-6.667.524-10.682-.685-4.524-1.362-7.109-2.853-10.389-6.344-2.157-2.295-4.055-6.351-4.988-8.549-.427-1.006-.748-2.048-1.016-3.107l-5.009-19.794s-.654-2.897-.812-4.786c-.378-4.494-.026-7.182 1.358-11.453 1.421-4.386 2.79-6.787 5.794-10.221 3.201-3.661 5.592-5.347 9.98-7.323 3.407-1.535 5.519-2.096 9.227-2.453 3.995-.208 5.501-.076 9.41.822 3.92.992 8.009 2.999 11.203 5.47 3.194 2.471 5.546 5.522 7.481 9.06 1.934 3.539 2.973 7.027 3.326 11.043.132 1.514.13 3.337.031 4.854l-2.128 20.124a23.629 23.629 0 0 1-.63 3.555c-.651 2.473-1.955 6.938-3.409 9.242-2.078 3.291-5.243 6.32-8.737 8.05Z" fill="#000"/><path fill-rule="evenodd" clip-rule="evenodd" d="M751.09 881.232 737 875l1-158s-11.065-146-11.5-157c-3.5-88.5-15.5-196-18-202.501C706 350.998 701.5 341 690 340c-36.872-3.205-55.624 19.5-69 47-17.528 36.035-29 130-29 130l10 61.5 13.841 32.65A21.896 21.896 0 0 0 636 624.5l2.5 119-16.748 134.464A6.339 6.339 0 0 0 627 885v15h7.5v-23.023a4.88 4.88 0 0 1-4.846-5.46L645 743.413l-2-115.583-8.882-109.595a7.506 7.506 0 0 1 .319-2.853l29.779-95.157a1.928 1.928 0 0 0-3.663-1.201L627 516.777l5 60.034 3.427 39.187a.768.768 0 0 1-.765.835 15.358 15.358 0 0 1-14.135-9.353L607.5 576.811l-9.5-60.034s14.321-102.354 32.999-136.561c15.466-28.324 37.862-33.891 51.368-34.387 7.516-.276 15.416 2.878 17.799 10.012 5.749 17.21 13.932 66.148 17.334 204.46L688 878.977l19.974 7.965a9.999 9.999 0 0 1 6.264 10.087L714 900h7H0v100h1300V900h-162 7v-.477a20 20 0 0 0-11.91-18.291L1119 875l1-158s-11.06-146-11.5-157c-3.5-88.5-15.5-196-18-202.501-2.5-6.501-7-16.499-18.5-17.499-36.87-3.205-55.62 19.5-69 47-17.528 36.035-29 130-29 130l10 61.5 13.841 32.65A21.894 21.894 0 0 0 1018 624.5l2.5 119-16.75 134.464A6.343 6.343 0 0 0 1009 885v15h7.5v-23.023c-2.93 0-5.19-2.556-4.85-5.46L1027 743.413l-2-115.583-8.88-109.595c-.08-.963.03-1.932.32-2.853l29.78-95.157c.38-1.241-.54-2.503-1.84-2.503-.83 0-1.56.523-1.83 1.302L1009 516.777l5 60.034 3.43 39.187a.772.772 0 0 1-.77.835c-6.16 0-11.72-3.682-14.13-9.353l-13.03-30.669-9.5-60.034s14.321-102.354 33-136.561c15.47-28.324 37.86-33.891 51.37-34.387 7.51-.276 15.41 2.878 17.8 10.012 5.74 17.21 13.93 66.148 17.33 204.46L1070 878.977l19.97 7.965a9.997 9.997 0 0 1 6.27 10.087L1096 900h7-156 7v-.477a20 20 0 0 0-11.91-18.291L928 875l1-158s-11.065-146-11.5-157c-3.5-88.5-15.5-196-18-202.501C897 350.998 892.5 341 881 340c-36.872-3.205-55.624 19.5-69 47-17.528 36.035-29 130-29 130l10 61.5 13.841 32.65A21.896 21.896 0 0 0 827 624.5l2.5 119-16.748 134.464A6.339 6.339 0 0 0 818 885v15h7.5v-23.023a4.88 4.88 0 0 1-4.846-5.46L836 743.413l-2-115.583-8.882-109.595a7.506 7.506 0 0 1 .319-2.853l29.779-95.157a1.928 1.928 0 0 0-3.663-1.201L818 516.777l5 60.034 3.427 39.187a.768.768 0 0 1-.765.835 15.358 15.358 0 0 1-14.135-9.353L798.5 576.811l-9.5-60.034s14.321-102.354 32.999-136.561c15.466-28.324 37.862-33.891 51.368-34.387 7.516-.276 15.416 2.878 17.799 10.012 5.749 17.21 13.932 66.148 17.334 204.46L879 878.977l19.974 7.965a9.999 9.999 0 0 1 6.264 10.087L905 900h7-156 7v-.477a20 20 0 0 0-11.91-18.291ZM912 900h35l-1.013-5.571a10 10 0 0 0-6.106-7.489l-19.881-8L922 717l-9-140-12 140-14.5 158 15.571 6.038a15 15 0 0 1 9.546 13.019L912 900Zm191 0h35l-1.01-5.571a10.01 10.01 0 0 0-6.11-7.489l-19.88-8 2-161.94-9-140-12 140-14.5 158 15.57 6.038a15.002 15.002 0 0 1 9.55 13.019L1103 900Zm-347 0h-35l-.383-5.943a15 15 0 0 0-9.546-13.019L695.5 875 710 717l12-140 9 140-2 161.94 19.881 8a10 10 0 0 1 6.106 7.489L756 900Z" fill="#000"/><path fill-rule="evenodd" clip-rule="evenodd" d="M874.939 338.83c1.835-.165 8.802-1.278 12.433-3.009 4.345-2.07 8.288-5.681 10.881-9.598 1.871-2.826 3.555-8.377 4.349-11.251.333-1.209.551-2.445.693-3.691l2.768-24.167c.13-1.801.141-3.965-.015-5.762-.419-4.765-1.692-8.901-4.076-13.093-2.384-4.191-5.288-7.801-9.24-10.719-3.952-2.918-9.017-5.282-13.877-6.44-4.846-1.048-6.714-1.197-11.673-.931-4.604.44-7.227 1.117-11.462 2.955-5.455 2.367-8.43 4.38-12.42 8.741-3.744 4.091-5.454 6.947-7.238 12.161-1.738 5.076-2.187 8.269-1.74 13.601.188 2.242.985 5.678.985 5.678l6.182 23.706c.287 1.101.633 2.184 1.088 3.227 1.109 2.544 3.503 7.554 6.247 10.348 4.054 4.129 7.254 5.886 12.863 7.482 4.977 1.417 13.252.762 13.252.762Zm-.61-6.973c1.478-.133 7.089-1.049 10.01-2.495 3.494-1.73 6.659-4.759 8.737-8.05 1.454-2.304 2.758-6.769 3.409-9.242.308-1.166.503-2.355.63-3.555l2.128-20.124c.099-1.517.101-3.34-.031-4.854-.353-4.016-1.391-7.504-3.326-11.043-1.935-3.538-4.287-6.589-7.481-9.06s-7.283-4.478-11.203-5.47c-3.909-.898-5.415-1.03-9.41-.822-3.708.357-5.82.918-9.227 2.453-4.388 1.976-6.779 3.662-9.981 7.323-3.003 3.434-4.372 5.835-5.793 10.221-1.384 4.271-1.736 6.959-1.358 11.453.158 1.889.812 4.786.812 4.786l5.009 19.794c.268 1.059.589 2.101 1.016 3.107.933 2.198 2.831 6.254 4.988 8.549 3.28 3.491 5.865 4.982 10.389 6.344 4.015 1.209 10.682.685 10.682.685Zm191.611 6.973c1.83-.165 8.8-1.278 12.43-3.009 4.35-2.07 8.29-5.681 10.88-9.598 1.87-2.826 3.56-8.377 4.35-11.251.34-1.209.55-2.445.7-3.691l2.76-24.167c.13-1.801.14-3.965-.01-5.762-.42-4.765-1.69-8.901-4.08-13.093-2.38-4.191-5.29-7.801-9.24-10.719-3.95-2.918-9.01-5.282-13.88-6.44-4.84-1.048-6.71-1.197-11.67-.931-4.6.44-7.22 1.117-11.46 2.955-5.45 2.367-8.43 4.38-12.42 8.741-3.74 4.091-5.45 6.947-7.24 12.161-1.74 5.076-2.19 8.269-1.74 13.601.19 2.242.99 5.678.99 5.678l6.18 23.706c.29 1.101.63 2.184 1.09 3.227 1.11 2.544 3.5 7.554 6.24 10.348 4.06 4.129 7.26 5.886 12.87 7.482 4.97 1.417 13.25.762 13.25.762Zm-.61-6.973c1.48-.133 7.09-1.049 10.01-2.495 3.49-1.73 6.66-4.759 8.74-8.05 1.45-2.304 2.75-6.769 3.41-9.242.3-1.166.5-2.355.62-3.555l2.13-20.124c.1-1.517.1-3.34-.03-4.854-.35-4.016-1.39-7.504-3.32-11.043-1.94-3.538-4.29-6.589-7.48-9.06-3.2-2.471-7.29-4.478-11.21-5.47-3.91-.898-5.41-1.03-9.41-.822-3.71.357-5.82.918-9.22 2.453-4.39 1.976-6.78 3.662-9.99 7.323-3 3.434-4.37 5.835-5.79 10.221-1.38 4.271-1.73 6.959-1.36 11.453.16 1.889.81 4.786.81 4.786l5.01 19.794c.27 1.059.59 2.101 1.02 3.107.93 2.198 2.83 6.254 4.99 8.549 3.28 3.491 5.86 4.982 10.39 6.344 4.01 1.209 10.68.685 10.68.685Z" fill="#000"/></svg>