<svg id="Capa_1" data-name="Capa 1" xmlns="http://www.w3.org/2000/svg" viewBox="0 0 1300 1000"><defs><style>.cls-1{fill:#fff;}</style></defs><title>2-landmarks-expand</title><path class="cls-1" d="M848.81,887l-.73,2.6,0,.16,0,.15-13.17-.1v-4.53L800,870.54l-6.35-11.43,22-150.22,17.73-116.56L832,634.47,831,672l-.53,18.74-.27,9.37-.06,2.35c0,.72-.06,1.35-.14,2.07l-.62,4.48c-6.65,49.57-13.33,99.18-19.43,148.85l-.09.7.07.14,6.48,14.38.47,1,1.15.46,23,9.24Z"/><path class="cls-1" d="M834.75,545.9c0-.15,0-.3,0-.45a20.15,20.15,0,0,0-.07-2.33l-.17-2.34-1.34-18.72-2.68-37.42-5.31-74.79-2.63-37.36-.66-9.34-.32-4.67,0-.57-.07-.41-.14-.82c-.13-.6-.23-1.21-.39-1.8a27.06,27.06,0,0,0-2.69-6.74,29,29,0,0,0-2-3A30.15,30.15,0,0,0,802,335.21a31.38,31.38,0,0,0-6.83-1.4,39.32,39.32,0,0,0-7.11.1,31.86,31.86,0,0,0-14.19,4.84,25.35,25.35,0,0,0-6,5.42,24.89,24.89,0,0,0-3.82,6.95S752.42,385,747.16,401.94l-7.87,25.38-4,12.68-2,6.34-1,3.11a16.82,16.82,0,0,0-.56,2.79,20.41,20.41,0,0,0-.09,3l0,3.32.08,6.65.14,13.28.28,26.57.56,51.53,4.08.1,1.81,0-.32,1.9-3.23,18.8,8.55,32.07v0h11l10.43-31.89-6-19.39,4.08-93.31,29.16-65.71h2.6L771.6,465.72l-6,92.51,7.29,19.49-14.75,40h-9.33l9.78,85.77,0,.24,0,.22-11.1,152.64h5.26l.34,2.09,5.11,30.73,37.18.14h3l29.87.2v-2L794.49,874.5l-7-15L806.25,707.2ZM798.48,889.51l3,0h-3Z"/><path class="cls-1" d="M825.44,260.84c0,.51-.09,1-.15,1.52l-.25,1.58c-.15.87-.35,1.76-.54,2.62s-.39,1.8-.55,2.71l-3.9,20.51-.16.57a17.94,17.94,0,0,1-1.75,4.18A18.21,18.21,0,0,1,811.8,301a18.59,18.59,0,0,1-4.18,1.86c-.77.23-1.68.43-2.3.55s-1.56.29-2.44.41a36.77,36.77,0,0,1-4.5.28,34.89,34.89,0,0,1-4.5-.28c-.88-.12-1.68-.26-2.44-.41s-1.53-.32-2.3-.55A18.59,18.59,0,0,1,785,301a17.76,17.76,0,0,1-8.09-10.61l-.15-.51-3.92-20.55c-.15-.92-.35-1.83-.54-2.72s-.39-1.75-.54-2.62l-.25-1.57c-.06-.51-.12-1-.16-1.53-.06-1-.08-2.07,0-3,0-.41.08-.81.11-1.23,0-.63.1-1.23.19-1.8l.43-2.28c0-.14.07-.28.11-.42l.1-.27a26.71,26.71,0,0,1,5.54-10.46,26.2,26.2,0,0,1,19-9l1.41,0,1,0h.57a25.38,25.38,0,0,1,9.89,2.15,25.89,25.89,0,0,1,9.39,6.88,27.12,27.12,0,0,1,5.55,10.46,1.43,1.43,0,0,0,.09.27c0,.14.08.28.11.42l.43,2.25c.09.6.14,1.2.19,1.83,0,.42.06.82.11,1.19A28.36,28.36,0,0,1,825.44,260.84Z"/><path d="M752.52,703.51l0,.36,0,.33Zm3.91-354.08-.09.33v.58l.17-1.15Z"/><path d="M856.21,884.88v-2.33l-35.09-13.31L819,865.67l-4.53-8,5-36.35,5.28-37.08,10.54-74.11.73-4.91c.06-.45.1-.91.14-1.39s0-1,.05-1.38l.08-2.35.32-9.36.66-18.74,1.3-37.48,2.71-74.94.34-9.37.08-2.33c0-.78,0-1.64.05-2.45a21.13,21.13,0,0,0-.06-2.41l-.15-2.34-1.29-18.75-2.61-37.48L835,447l-2.51-37.43c-.76-12.49-1.53-25-2.18-37.45l-.5-9.36-.25-4.67a35.42,35.42,0,0,0-.61-4.72,39.73,39.73,0,0,0-8-17.12,36.14,36.14,0,0,0-35.27-13A37.74,37.74,0,0,0,767.51,332a36.77,36.77,0,0,0-11,17.2l-.12.4,0,.16-7.7,24.82L741,400l-7.57,25.49-3.79,12.74-1.9,6.37-1,3.24a22.75,22.75,0,0,0-.69,3.77,17.69,17.69,0,0,0-.1,1.93c0,.37,0,.64,0,.91l0,.83.1,3.32.2,6.65,1.17,39.86L729,558.27l.06,2h2l2.92,0-5.1,16.59-.18.59.18.89,7.41,35.56.79,3.76h3.56l11.84,86.17,0-.37,0,.7,0-.33L743.27,858.5l-.13,2.17H749l.1,37.29v1.92H751l44.37-.07V900l57.39,0h3.42V884.88Zm-27.89,4.85-29.87-.2h-3l-37.18-.14-5.11-30.73-.34-2.09h-5.26l11.1-152.64,0-.22,0-.24-9.78-85.77h9.33l14.75-40-7.29-19.49,6-92.51,23.29-66.51h-2.6l-29.16,65.71-4.08,93.31,6,19.39-10.43,31.89h-11v0l-8.55-32.07,3.23-18.8.32-1.9-1.81,0-4.08-.1-.56-51.53-.28-26.57-.14-13.28-.08-6.65,0-3.32a20.41,20.41,0,0,1,.09-3,16.82,16.82,0,0,1,.56-2.79l1-3.11,2-6.34,4-12.68,7.87-25.38c5.26-16.91,16.91-50.82,16.91-50.82a24.89,24.89,0,0,1,3.82-6.95,25.35,25.35,0,0,1,6-5.42,31.86,31.86,0,0,1,14.19-4.84,39.32,39.32,0,0,1,7.11-.1,31.38,31.38,0,0,1,6.83,1.4,30,30,0,0,1,6.33,2.91,28.65,28.65,0,0,1,7.94,7,29,29,0,0,1,2,3,27.06,27.06,0,0,1,2.69,6.74c.16.59.26,1.2.39,1.8l.14.82.07.41,0,.57.32,4.67.66,9.34,2.63,37.36,5.31,74.79,2.68,37.42,1.34,18.72.17,2.34a20.15,20.15,0,0,1,.07,2.33c0,.15,0,.3,0,.45l-28.5,161.3L787.49,859.47l7,15,33.83,13.25Zm19.76-.18,0,.16,0,.15-13.17-.1v-4.53L800,870.54l-6.35-11.43,22-150.22,17.73-116.56L832,634.47,831,672l-.53,18.74-.27,9.37-.06,2.35c0,.72-.06,1.35-.14,2.07l-.62,4.48c-6.65,49.57-13.33,99.18-19.43,148.85l-.09.7.07.14,6.48,14.38.47,1,1.15.46,23,9.24,7.87,3.17Z"/><polygon points="748.31 612.96 748.31 612.96 746.47 612.96 748.31 612.96"/><polygon points="801.53 889.53 798.48 889.52 798.48 889.51 801.53 889.53"/><path d="M832.82,256.53c0-.85-.07-1.74-.16-2.61l-.4-2.86c0-.23-.09-.45-.15-.68l-.07-.28a35.15,35.15,0,0,0-6.56-13.92,34.74,34.74,0,0,0-12-9.73,35.2,35.2,0,0,0-7.33-2.66,31.61,31.61,0,0,0-15.54,0,35.1,35.1,0,0,0-19.33,12.39,35,35,0,0,0-6.56,13.91l-.07.29a5.29,5.29,0,0,0-.15.69l-.4,2.85c-.1.87-.13,1.75-.16,2.6,0,.41,0,.81,0,1.25a32.12,32.12,0,0,0,.24,3.86c.09.68.18,1.31.29,1.91l.37,1.8c.62,3.57,1.33,7.17,2,10.65l2.61,13.31.47,2.21.21.74a26.05,26.05,0,0,0,2.46,5.8,25.34,25.34,0,0,0,8.78,8.89,25.67,25.67,0,0,0,5.73,2.55c1.1.33,2.08.54,3,.73s1.91.34,2.92.48a41.83,41.83,0,0,0,10.8,0c1-.14,2-.3,2.92-.48s1.88-.4,3-.73a25.67,25.67,0,0,0,5.73-2.55,25.31,25.31,0,0,0,8.77-8.89,25.63,25.63,0,0,0,2.47-5.8l.22-.78L829.94,276c.69-3.48,1.4-7.08,2-10.63l.37-1.83c.11-.59.2-1.22.29-1.91a32,32,0,0,0,.24-3.89C832.85,257.33,832.83,256.93,832.82,256.53Zm-7.38,4.31c0,.51-.09,1-.15,1.52l-.25,1.58c-.15.87-.35,1.76-.54,2.62s-.39,1.8-.55,2.71l-3.9,20.51-.16.57a17.94,17.94,0,0,1-1.75,4.18A18.21,18.21,0,0,1,811.8,301a18.59,18.59,0,0,1-4.18,1.86c-.77.23-1.68.43-2.3.55s-1.56.29-2.44.41a36.77,36.77,0,0,1-4.5.28,34.89,34.89,0,0,1-4.5-.28c-.88-.12-1.68-.26-2.44-.41s-1.53-.32-2.3-.55A18.59,18.59,0,0,1,785,301a17.76,17.76,0,0,1-8.09-10.61l-.15-.51-3.92-20.55c-.15-.92-.35-1.83-.54-2.72s-.39-1.75-.54-2.62l-.25-1.57c-.06-.51-.12-1-.16-1.53-.06-1-.08-2.07,0-3,0-.41.08-.81.11-1.23,0-.63.1-1.23.19-1.8l.43-2.28c0-.14.07-.28.11-.42l.1-.27a26.71,26.71,0,0,1,5.54-10.46,26.2,26.2,0,0,1,19-9l1.41,0,1,0h.57a25.38,25.38,0,0,1,9.89,2.15,25.89,25.89,0,0,1,9.39,6.88,27.12,27.12,0,0,1,5.55,10.46,1.43,1.43,0,0,0,.09.27c0,.14.08.28.11.42l.43,2.25c.09.6.14,1.2.19,1.83,0,.42.06.82.11,1.19A28.36,28.36,0,0,1,825.44,260.84Z"/><path class="cls-1" d="M1030.23,887l-.73,2.6,0,.16,0,.15-13.17-.1v-4.53l-34.87-14.69L975,859.11l22-150.22,17.73-116.56-1.32,42.14-1.06,37.5-.53,18.74-.27,9.37-.06,2.35c0,.72-.06,1.35-.14,2.07l-.62,4.48c-6.65,49.57-13.33,99.18-19.43,148.85l-.09.7.07.14,6.48,14.38.47,1,1.16.46,22.94,9.24Z"/><path class="cls-1" d="M1016.17,545.9c0-.15,0-.3,0-.45a20.15,20.15,0,0,0-.07-2.33l-.17-2.34-1.34-18.72-2.68-37.42-5.31-74.79L1004,372.49l-.66-9.34-.32-4.67,0-.57-.07-.41-.14-.82c-.13-.6-.22-1.21-.39-1.8a27.06,27.06,0,0,0-2.69-6.74,29,29,0,0,0-2-3,30.15,30.15,0,0,0-14.27-9.92,31.38,31.38,0,0,0-6.83-1.4,39.32,39.32,0,0,0-7.11.1,31.86,31.86,0,0,0-14.19,4.84,25.55,25.55,0,0,0-6,5.42,24.89,24.89,0,0,0-3.82,6.95S933.84,385,928.58,401.94l-7.87,25.38-4,12.68-2,6.34-1,3.11a16.82,16.82,0,0,0-.56,2.79,20.41,20.41,0,0,0-.09,3l0,3.32.08,6.65.14,13.28.28,26.57.56,51.53,4.08.1,1.81,0-.32,1.9-3.23,18.8,8.55,32.07v0h11l10.43-31.89-6-19.39,4.08-93.31,29.16-65.71h2.6L953,465.72l-6,92.51,7.29,19.49-14.75,40h-9.33L940,703.47l0,.24,0,.22-11.1,152.64h5.26l.34,2.09,5.11,30.73,37.18.14h3l29.87.2v-2L975.91,874.5l-7-15L987.67,707.2ZM979.9,889.51l3.05,0H979.9Z"/><path class="cls-1" d="M1006.86,260.84c0,.51-.09,1-.15,1.52l-.25,1.58c-.15.87-.35,1.76-.54,2.62s-.39,1.8-.55,2.71l-3.9,20.51-.16.57a17.94,17.94,0,0,1-1.75,4.18,18.21,18.21,0,0,1-6.34,6.42,18.59,18.59,0,0,1-4.18,1.86c-.77.23-1.68.43-2.29.55-.77.15-1.57.29-2.45.41a36.77,36.77,0,0,1-4.5.28,34.89,34.89,0,0,1-4.5-.28c-.88-.12-1.68-.26-2.44-.41s-1.53-.32-2.3-.55a18.59,18.59,0,0,1-4.18-1.86,17.76,17.76,0,0,1-8.09-10.61l-.15-.51-3.92-20.55c-.15-.92-.35-1.83-.54-2.72s-.39-1.75-.54-2.62l-.25-1.57c-.06-.51-.12-1-.15-1.53a27.78,27.78,0,0,1,0-3c0-.41.08-.81.11-1.23.05-.63.1-1.23.19-1.8l.43-2.28c0-.14.08-.28.11-.42l.1-.27a26.71,26.71,0,0,1,5.54-10.46,26.2,26.2,0,0,1,19-9l1.41,0,1,0h.57a25.46,25.46,0,0,1,9.9,2.15,25.93,25.93,0,0,1,9.38,6.88,27.12,27.12,0,0,1,5.55,10.46,1.43,1.43,0,0,0,.09.27c0,.14.08.28.11.42l.43,2.25c.09.6.14,1.2.19,1.83,0,.42.06.82.11,1.19A28.36,28.36,0,0,1,1006.86,260.84Z"/><path d="M933.94,703.51l0,.36,0,.33Zm3.92-354.08-.1.33v.58l.17-1.15Z"/><path d="M1037.63,884.88v-2.33l-35.09-13.31-2.16-3.57-4.54-8,5-36.35,5.28-37.08,10.54-74.11.73-4.91c.06-.45.1-.91.14-1.39s0-1,.05-1.38l.08-2.35.32-9.36.66-18.74,1.3-37.48,2.71-74.94.34-9.37.08-2.33c0-.78,0-1.64,0-2.45a21.13,21.13,0,0,0-.06-2.41l-.15-2.34-1.29-18.75L1019,484.43,1016.38,447l-2.51-37.43c-.76-12.49-1.53-25-2.18-37.45l-.5-9.36-.25-4.67a35.42,35.42,0,0,0-.61-4.72,39.73,39.73,0,0,0-8-17.12,36.14,36.14,0,0,0-35.27-13A37.74,37.74,0,0,0,948.93,332a36.77,36.77,0,0,0-11,17.2l-.12.4,0,.16-7.7,24.82L922.39,400l-7.57,25.49L911,438.25l-1.9,6.37-1,3.24a22.75,22.75,0,0,0-.69,3.77,17.69,17.69,0,0,0-.1,1.93c0,.37,0,.64,0,.91l0,.83.1,3.32.2,6.65,1.17,39.86,1.57,53.14.06,2h2l2.92,0-5.1,16.59-.18.59.18.89,7.41,35.56.79,3.76h3.56l11.84,86.17,0-.37,0,.7-.05-.33L924.69,858.5l-.13,2.17h5.88l.1,37.29v1.92h1.92l44.37-.07V900l57.39,0h3.42V884.88Zm-27.89,4.85-29.87-.2h-3l-37.18-.14-5.11-30.73-.34-2.09h-5.26L940,703.93l0-.22,0-.24-9.78-85.77h9.33l14.75-40L947,558.23l6-92.51,23.29-66.51h-2.6l-29.16,65.71-4.08,93.31,6,19.39-10.43,31.89h-11v0l-8.55-32.07,3.23-18.8.32-1.9-1.81,0-4.08-.1-.56-51.53-.28-26.57-.14-13.28-.08-6.65,0-3.32a20.41,20.41,0,0,1,.09-3,16.82,16.82,0,0,1,.56-2.79l1-3.11,2-6.34,4-12.68,7.87-25.38c5.26-16.91,16.91-50.82,16.91-50.82a24.89,24.89,0,0,1,3.82-6.95,25.55,25.55,0,0,1,6-5.42,31.86,31.86,0,0,1,14.19-4.84,39.32,39.32,0,0,1,7.11-.1,31.38,31.38,0,0,1,6.83,1.4,30,30,0,0,1,6.33,2.91,28.65,28.65,0,0,1,7.94,7,29,29,0,0,1,2,3,27.06,27.06,0,0,1,2.69,6.74c.17.59.26,1.2.39,1.8l.14.82.07.41,0,.57.32,4.67.66,9.34,2.63,37.36,5.31,74.79,2.68,37.42,1.34,18.72.17,2.34a20.15,20.15,0,0,1,.07,2.33c0,.15,0,.3,0,.45l-28.5,161.3L968.91,859.47l7,15,33.83,13.25Zm19.76-.18,0,.16,0,.15-13.17-.1v-4.53l-34.87-14.69L975,859.11l22-150.22,17.73-116.56-1.32,42.14-1.06,37.5-.53,18.74-.27,9.37-.06,2.35c0,.72-.06,1.35-.14,2.07l-.62,4.48c-6.65,49.57-13.33,99.18-19.43,148.85l-.09.7.07.14,6.48,14.38.47,1,1.16.46,22.94,9.24,7.87,3.17Z"/><polygon points="929.73 612.96 929.73 612.96 927.89 612.96 929.73 612.96"/><polygon points="982.95 889.53 979.9 889.52 979.9 889.51 982.95 889.53"/><path d="M1014.24,256.53c0-.85-.07-1.74-.16-2.61l-.4-2.86c0-.23-.09-.45-.15-.68l-.07-.28a35.15,35.15,0,0,0-6.56-13.92,34.74,34.74,0,0,0-12-9.73,35.2,35.2,0,0,0-7.33-2.66,31.61,31.61,0,0,0-15.54,0,35.1,35.1,0,0,0-19.33,12.39,35,35,0,0,0-6.56,13.91l-.07.29a5.29,5.29,0,0,0-.15.69l-.4,2.85c-.1.87-.13,1.75-.16,2.6,0,.41,0,.81,0,1.25a32.12,32.12,0,0,0,.24,3.86c.09.68.18,1.31.29,1.91l.37,1.8c.62,3.57,1.33,7.17,2,10.65l2.61,13.31.47,2.21.21.74a26.05,26.05,0,0,0,2.46,5.8,25.34,25.34,0,0,0,8.78,8.89,25.67,25.67,0,0,0,5.73,2.55c1.1.33,2.08.54,3,.73s1.91.34,2.92.48a41.83,41.83,0,0,0,10.8,0c1-.14,2-.3,2.92-.48s1.88-.4,3-.73a25.67,25.67,0,0,0,5.73-2.55,25.23,25.23,0,0,0,8.77-8.89,25.63,25.63,0,0,0,2.47-5.8l.22-.78,3.07-15.48c.69-3.48,1.4-7.08,2-10.63l.37-1.83c.11-.59.2-1.22.29-1.91a32,32,0,0,0,.24-3.89C1014.27,257.33,1014.25,256.93,1014.24,256.53Zm-7.38,4.31c0,.51-.09,1-.15,1.52l-.25,1.58c-.15.87-.35,1.76-.54,2.62s-.39,1.8-.55,2.71l-3.9,20.51-.16.57a17.94,17.94,0,0,1-1.75,4.18,18.21,18.21,0,0,1-6.34,6.42,18.59,18.59,0,0,1-4.18,1.86c-.77.23-1.68.43-2.29.55-.77.15-1.57.29-2.45.41a36.77,36.77,0,0,1-4.5.28,34.89,34.89,0,0,1-4.5-.28c-.88-.12-1.68-.26-2.44-.41s-1.53-.32-2.3-.55a18.59,18.59,0,0,1-4.18-1.86,17.76,17.76,0,0,1-8.09-10.61l-.15-.51-3.92-20.55c-.15-.92-.35-1.83-.54-2.72s-.39-1.75-.54-2.62l-.25-1.57c-.06-.51-.12-1-.15-1.53a27.78,27.78,0,0,1,0-3c0-.41.08-.81.11-1.23.05-.63.1-1.23.19-1.8l.43-2.28c0-.14.08-.28.11-.42l.1-.27a26.71,26.71,0,0,1,5.54-10.46,26.2,26.2,0,0,1,19-9l1.41,0,1,0h.57a25.46,25.46,0,0,1,9.9,2.15,25.93,25.93,0,0,1,9.38,6.88,27.12,27.12,0,0,1,5.55,10.46,1.43,1.43,0,0,0,.09.27c0,.14.08.28.11.42l.43,2.25c.09.6.14,1.2.19,1.83,0,.42.06.82.11,1.19A28.36,28.36,0,0,1,1006.86,260.84Z"/><path class="cls-1" d="M1211.65,887l-.73,2.6,0,.16,0,.15-13.17-.1v-4.53l-34.87-14.69-6.34-11.43,22-150.22,17.73-116.56-1.31,42.14L1193.8,672l-.53,18.74-.27,9.37-.06,2.35c0,.72-.06,1.35-.14,2.07l-.61,4.48c-6.66,49.57-13.34,99.18-19.44,148.85l-.09.7.07.14,6.48,14.38.47,1,1.16.46,22.94,9.24Z"/><path class="cls-1" d="M1197.59,545.9c0-.15,0-.3,0-.45a20.15,20.15,0,0,0-.07-2.33l-.17-2.34L1196,522.06l-2.68-37.42L1188,409.85l-2.63-37.36-.66-9.34-.32-4.67,0-.57-.07-.41-.14-.82c-.13-.6-.22-1.21-.39-1.8a27.06,27.06,0,0,0-2.69-6.74,29,29,0,0,0-2-3,30.15,30.15,0,0,0-14.27-9.92,31.38,31.38,0,0,0-6.83-1.4,39.32,39.32,0,0,0-7.11.1,31.86,31.86,0,0,0-14.19,4.84,25.55,25.55,0,0,0-6,5.42,24.89,24.89,0,0,0-3.82,6.95S1115.27,385,1110,401.94l-7.88,25.38-4,12.68-2,6.34-1,3.11a17.9,17.9,0,0,0-.56,2.79,20.41,20.41,0,0,0-.09,3l0,3.32.08,6.65.14,13.28.28,26.57.56,51.53,4.08.1,1.81,0-.32,1.9-3.23,18.8,8.55,32.07v0h11l10.43-31.89-6-19.39,4.08-93.31,29.16-65.71h2.6l-23.29,66.51-6,92.51,7.29,19.49-14.75,40h-9.33l9.78,85.77,0,.24,0,.22-11.1,152.64h5.26l.34,2.09,5.11,30.73,37.18.14h3l29.87.2v-2l-33.83-13.25-7-15,18.76-152.27Zm-36.27,343.61,3,0h-3Z"/><path class="cls-1" d="M1188.28,260.84c0,.51-.09,1-.15,1.52l-.25,1.58c-.15.87-.35,1.76-.54,2.62s-.39,1.8-.55,2.71l-3.9,20.51-.16.57a17.94,17.94,0,0,1-1.75,4.18,18.21,18.21,0,0,1-6.34,6.42,18.59,18.59,0,0,1-4.18,1.86c-.77.23-1.68.43-2.29.55-.77.15-1.57.29-2.45.41a36.77,36.77,0,0,1-4.5.28,34.89,34.89,0,0,1-4.5-.28c-.88-.12-1.68-.26-2.44-.41s-1.53-.32-2.3-.55a18.59,18.59,0,0,1-4.18-1.86,17.76,17.76,0,0,1-8.09-10.61l-.15-.51-3.91-20.55c-.16-.92-.36-1.83-.55-2.72s-.39-1.75-.54-2.62l-.25-1.57c-.06-.51-.12-1-.15-1.53a27.78,27.78,0,0,1-.05-3c.05-.41.08-.81.11-1.23,0-.63.1-1.23.19-1.8l.43-2.28c0-.14.08-.28.11-.42l.1-.27a26.84,26.84,0,0,1,5.54-10.46,26.2,26.2,0,0,1,19-9l1.41,0,1,0h.57a25.46,25.46,0,0,1,9.9,2.15,25.85,25.85,0,0,1,9.38,6.88,27,27,0,0,1,5.55,10.46c0,.09.06.18.09.27s.08.28.11.42l.43,2.25c.09.6.14,1.2.19,1.83,0,.42.06.82.11,1.19A28.36,28.36,0,0,1,1188.28,260.84Z"/><path d="M1115.36,703.51l0,.36,0,.33Zm3.92-354.08-.1.33v.58l.17-1.15Z"/><path d="M1219.05,884.88v-2.33L1184,869.24l-2.16-3.57-4.53-8,5-36.35,5.28-37.08,10.54-74.11.73-4.91c.06-.45.1-.91.14-1.39s0-1,.06-1.38l.07-2.35.32-9.36.66-18.74,1.3-37.48,2.71-74.94.34-9.37.09-2.33c0-.78,0-1.64,0-2.45a21.13,21.13,0,0,0-.06-2.41l-.15-2.34-1.29-18.75-2.61-37.48L1197.8,447l-2.5-37.43c-.77-12.49-1.54-25-2.19-37.45l-.49-9.36-.26-4.67a37.13,37.13,0,0,0-.6-4.72,39.86,39.86,0,0,0-8-17.12,36.14,36.14,0,0,0-35.27-13,37.74,37.74,0,0,0-18.13,8.81,36.77,36.77,0,0,0-11,17.2l-.12.4,0,.16-7.7,24.82L1103.81,400l-7.57,25.49-3.79,12.74-1.9,6.37-1,3.24a22.75,22.75,0,0,0-.69,3.77,17.69,17.69,0,0,0-.1,1.93c0,.37,0,.64,0,.91l0,.83.1,3.32.2,6.65,1.17,39.86,1.57,53.14.06,2h2l2.92,0-5.1,16.59-.18.59.18.89,7.41,35.56.79,3.76h3.56l11.84,86.17,0-.37,0,.7-.05-.33-9.23,154.63-.13,2.17h5.88L1112,898v1.92h1.92l44.37-.07V900l57.39,0h3.42V884.88Zm-27.89,4.85-29.87-.2h-3l-37.18-.14L1116,858.65l-.34-2.09h-5.26l11.1-152.64,0-.22,0-.24-9.78-85.77H1121l14.75-40-7.29-19.49,6-92.51,23.29-66.51h-2.6L1126,464.92l-4.08,93.31,6,19.39-10.43,31.89h-11v0l-8.55-32.07,3.23-18.8.32-1.9-1.81,0-4.08-.1-.56-51.53-.28-26.57-.14-13.28-.08-6.65,0-3.32a20.41,20.41,0,0,1,.09-3,17.9,17.9,0,0,1,.56-2.79l1-3.11,2-6.34,4-12.68,7.88-25.38c5.26-16.91,16.9-50.82,16.9-50.82a24.89,24.89,0,0,1,3.82-6.95,25.55,25.55,0,0,1,6-5.42,31.86,31.86,0,0,1,14.19-4.84,39.32,39.32,0,0,1,7.11-.1,31.38,31.38,0,0,1,6.83,1.4,30,30,0,0,1,6.33,2.91,28.65,28.65,0,0,1,7.94,7,29,29,0,0,1,2,3,27.06,27.06,0,0,1,2.69,6.74c.17.59.26,1.2.39,1.8l.14.82.07.41,0,.57.32,4.67.66,9.34,2.63,37.36,5.31,74.79,2.68,37.42,1.34,18.72.17,2.34a20.15,20.15,0,0,1,.07,2.33c0,.15,0,.3,0,.45l-28.5,161.3-18.76,152.27,7,15,33.83,13.25Zm19.76-.18,0,.16,0,.15-13.17-.1v-4.53l-34.87-14.69-6.34-11.43,22-150.22,17.73-116.56-1.31,42.14L1193.8,672l-.53,18.74-.27,9.37-.06,2.35c0,.72-.06,1.35-.14,2.07l-.61,4.48c-6.66,49.57-13.34,99.18-19.44,148.85l-.09.7.07.14,6.48,14.38.47,1,1.16.46,22.94,9.24,7.87,3.17Z"/><polygon points="1111.15 612.96 1111.15 612.96 1109.31 612.96 1111.15 612.96"/><polygon points="1164.37 889.53 1161.32 889.52 1161.32 889.51 1164.37 889.53"/><path d="M1195.66,256.53c0-.85-.07-1.74-.16-2.61l-.4-2.86c0-.23-.09-.45-.15-.68l-.07-.28a35.15,35.15,0,0,0-6.56-13.92,34.74,34.74,0,0,0-12-9.73,35.2,35.2,0,0,0-7.33-2.66,31.61,31.61,0,0,0-15.54,0,35.1,35.1,0,0,0-19.33,12.39,35.17,35.17,0,0,0-6.56,13.91l-.07.29c-.06.23-.11.45-.15.69l-.4,2.85c-.09.87-.13,1.75-.16,2.6,0,.41,0,.81,0,1.25a32.12,32.12,0,0,0,.24,3.86c.09.68.18,1.31.29,1.91l.37,1.8c.62,3.57,1.33,7.17,2,10.65l2.61,13.31.47,2.21.21.74a26.05,26.05,0,0,0,2.46,5.8,25.34,25.34,0,0,0,8.78,8.89,25.67,25.67,0,0,0,5.73,2.55c1.1.33,2.08.54,3,.73s1.91.34,2.92.48a41.83,41.83,0,0,0,10.8,0c1-.14,2-.3,2.92-.48s1.88-.4,3-.73a25.67,25.67,0,0,0,5.73-2.55,25.34,25.34,0,0,0,8.78-8.89,26.05,26.05,0,0,0,2.46-5.8l.22-.78,3.07-15.48c.69-3.48,1.4-7.08,2-10.63l.37-1.83c.11-.59.2-1.22.29-1.91a32,32,0,0,0,.24-3.89C1195.69,257.33,1195.67,256.93,1195.66,256.53Zm-7.38,4.31c0,.51-.09,1-.15,1.52l-.25,1.58c-.15.87-.35,1.76-.54,2.62s-.39,1.8-.55,2.71l-3.9,20.51-.16.57a17.94,17.94,0,0,1-1.75,4.18,18.21,18.21,0,0,1-6.34,6.42,18.59,18.59,0,0,1-4.18,1.86c-.77.23-1.68.43-2.29.55-.77.15-1.57.29-2.45.41a36.77,36.77,0,0,1-4.5.28,34.89,34.89,0,0,1-4.5-.28c-.88-.12-1.68-.26-2.44-.41s-1.53-.32-2.3-.55a18.59,18.59,0,0,1-4.18-1.86,17.76,17.76,0,0,1-8.09-10.61l-.15-.51-3.91-20.55c-.16-.92-.36-1.83-.55-2.72s-.39-1.75-.54-2.62l-.25-1.57c-.06-.51-.12-1-.15-1.53a27.78,27.78,0,0,1-.05-3c.05-.41.08-.81.11-1.23,0-.63.1-1.23.19-1.8l.43-2.28c0-.14.08-.28.11-.42l.1-.27a26.84,26.84,0,0,1,5.54-10.46,26.2,26.2,0,0,1,19-9l1.41,0,1,0h.57a25.46,25.46,0,0,1,9.9,2.15,25.85,25.85,0,0,1,9.38,6.88,27,27,0,0,1,5.55,10.46c0,.09.06.18.09.27s.08.28.11.42l.43,2.25c.09.6.14,1.2.19,1.83,0,.42.06.82.11,1.19A28.36,28.36,0,0,1,1188.28,260.84Z"/></svg>