<svg width="1300" height="1000" viewBox="0 0 1300 1000" fill="none" xmlns="http://www.w3.org/2000/svg"><path d="M0 900h1300v100H0V900Zm849.426-430.838c0-1.662-5.902-57.127-23.43-93.162-15.049-29.175-39.06-33.545-77.179-33.979-36.975-.426-67.042 5.516-82.944 33.197-15.441 36.104-30.279 89.186-30.279 89.186L584 502.5l-23.602 6.332c-9.235 2.478-14.204 12.493-10.591 21.345a11.915 11.915 0 0 0 11.631 7.397L602.5 535.5l79-43L667.996 718l1.5 156-15.598 6.406a20.001 20.001 0 0 0-12.402 18.501V900h93.5l-1.5-18a9.97 9.97 0 0 0 4.439-8.408L736.496 746l9.5-125 9 125v128a10 10 0 0 0 4 8l-1.5 18H849.5c0-7.632-4.401-14.58-11.301-17.842l-16.203-7.658 2-156.5-6.5-118.5 5.869 22.986a.917.917 0 0 0 .642.657c12.056 3.376 23.881-6.04 23.292-18.546l-1.519-32.227s3.646-59.37 3.646-103.208Z" fill="#000"/><path d="M842.43 472.47s-4.44-56.683-20.98-91.955c-14.201-28.557-36.989-30.07-72.96-30.495-34.892-.416-62.264 3.4-77.27 30.495C656.648 415.854 643 469.5 643 469.5L587 509l-27.066 8.935a6.293 6.293 0 0 0 2.424 12.251l37.424-2.693L680 483.5l12.789-64.418a1.32 1.32 0 0 1 2.609.352L690.5 487.5l-3 30.5-3 55.855-9.5 143.153 2.5 161.007-21.216 9.112a10.001 10.001 0 0 0-6.052 9.022l-.064 3.851H728l-2.09-24.01a4.965 4.965 0 0 0 4.994-5.049l-2.159-126.821 13.38-145.808a4.502 4.502 0 0 1 8.973.045l11.912 145.778-.725 127.575a4.285 4.285 0 0 0 4.315 4.31L764.609 900H841.5c0-5.192-2.968-9.927-7.641-12.189l-20.179-9.771 2.16-161.02L807 518l-3-30-5.309-67.565a2.248 2.248 0 0 1 4.471-.464l6.348 49.119L818 573.493l11.218 42.712a.57.57 0 0 0 .552.425c6.612 0 11.839-5.604 11.379-12.2l-2.159-30.937 3.44-101.023Z" fill="#fff"/><path d="M759.42 336.086c-3.769 1.408-10.806 1.91-12.648 1.914 0 0-8.301-.069-13.136-1.914-5.448-2.079-8.483-4.109-12.162-8.575-2.489-3.022-4.438-8.223-5.321-10.853-.362-1.079-.612-2.188-.802-3.31l-4.093-24.154s-.495-3.492-.486-5.742c.019-5.351.745-8.493 2.918-13.398 2.233-5.038 4.185-7.735 8.271-11.484 4.355-3.996 7.495-5.742 13.135-7.625 4.379-1.462 7.051-1.907 11.676-1.945 4.962.167 6.81.478 11.547 1.945 4.741 1.577 9.581 4.373 13.263 7.625 3.683 3.252 6.261 7.101 8.271 11.484 2.01 4.383 2.917 8.615 2.918 13.398 0 1.803-.199 3.959-.486 5.742l-4.864 23.833a24.114 24.114 0 0 1-1.013 3.617c-1.04 2.793-3.202 8.177-5.312 10.829-2.925 3.676-7.167 6.929-11.676 8.613Z" fill="#000"/><path d="M756.961 329.387c-3.036 1.186-8.705 1.609-10.19 1.613 0 0-6.686-.058-10.581-1.613-4.388-1.752-6.833-3.462-9.797-7.226-1.948-2.474-3.485-6.68-4.223-8.951-.338-1.039-.567-2.105-.742-3.184l-3.265-20.155s-.398-2.943-.391-4.839c.015-4.509.6-7.156 2.351-11.29 1.798-4.246 3.371-6.518 6.662-9.677 3.509-3.368 6.037-4.839 10.581-6.426 3.528-1.232 5.68-1.607 9.405-1.639 3.998.141 5.487.403 9.303 1.639 3.819 1.329 7.717 3.685 10.684 6.426 2.967 2.74 5.043 5.983 6.662 9.677 1.619 3.694 2.35 7.26 2.351 11.29 0 1.52-.161 3.337-.391 4.839l-3.875 19.862a23.685 23.685 0 0 1-.937 3.486c-.864 2.407-2.553 6.742-4.202 8.91-2.356 3.098-5.774 5.839-9.405 7.258Zm-28.899 332.434c-3.589-6.218-1.459-14.168 4.759-17.758l126.44-73c6.217-3.59 14.168-1.46 17.758 4.758s1.459 14.169-4.758 17.758l-126.44 73c-6.218 3.59-14.169 1.46-17.759-4.758ZM340 679c0-7.179 5.82-13 13-13h360c7.18 0 13 5.821 13 13 0 7.18-5.82 13-13 13H353c-7.18 0-13-5.82-13-13Z" fill="#fff"/><path fill-rule="evenodd" clip-rule="evenodd" d="M729.32 638c-7.932 4.58-11.54 13.772-9.392 22.233A19.967 19.967 0 0 0 713 659H353c-11.046 0-20 8.955-20 20 0 11.046 8.954 20 20 20v201h7V699h353c11.046 0 20-8.954 20-20 0-1.697-.211-3.344-.609-4.918 5.382 1.985 11.574 1.652 16.93-1.441l126.439-73c9.566-5.523 12.844-17.754 7.321-27.32-5.523-9.566-17.755-12.844-27.321-7.321l-126.44 73Zm3.501 6.063c-6.218 3.59-8.348 11.54-4.759 17.758 3.59 6.218 11.541 8.348 17.759 4.758l126.44-73c6.217-3.589 8.348-11.54 4.758-17.758-3.59-6.218-11.541-8.348-17.758-4.758l-126.44 73ZM353 666c-7.18 0-13 5.821-13 13 0 7.18 5.82 13 13 13h360c7.18 0 13-5.82 13-13 0-7.179-5.82-13-13-13H353Z" fill="#000"/></svg>