<svg width="1300" height="1000" viewBox="0 0 1300 1000" fill="none" xmlns="http://www.w3.org/2000/svg">
<path d="M0 900H1300V1000H0V900Z" fill="black"/>
<path d="M849.427 469.162C849.427 467.5 843.524 412.035 825.997 376C810.948 346.825 786.936 342.455 748.818 342.021C711.843 341.595 681.776 347.537 665.874 375.218C650.432 411.322 635.595 464.404 635.595 464.404L584.001 502.5L560.399 508.832C551.164 511.31 546.195 521.325 549.808 530.177C551.72 534.863 556.384 537.829 561.439 537.574L602.501 535.5L681.501 492.5L667.997 718L669.497 874L653.898 880.406C646.396 883.488 641.497 890.796 641.497 898.907V900H734.997L733.497 882C736.304 880.129 737.974 876.965 737.936 873.592L736.497 746L745.997 621L754.997 746V874C754.997 877.148 756.479 880.111 758.997 882L757.497 900H849.501C849.501 892.368 845.1 885.42 838.199 882.158L821.997 874.5L823.997 718L817.497 599.5L823.366 622.486C823.447 622.804 823.692 623.055 824.008 623.143C836.064 626.519 847.889 617.103 847.3 604.597L845.781 572.37C845.781 572.37 849.427 513 849.427 469.162Z" fill="black"/>
<path d="M842.431 472.47C842.431 472.47 837.991 415.787 821.451 380.515C807.25 351.958 784.462 350.445 748.491 350.02C713.599 349.604 686.226 353.42 671.221 380.515C656.649 415.854 643.001 469.5 643.001 469.5L587.001 509L559.935 517.935C557.158 518.851 555.378 521.561 555.64 524.473C555.947 527.891 558.936 530.433 562.359 530.186L599.783 527.493L680.001 483.5L692.79 419.082C692.912 418.465 693.454 418.02 694.083 418.02C694.849 418.02 695.454 418.67 695.399 419.434L690.501 487.5L687.501 518L684.501 573.855L675.001 717.008L677.501 878.015L656.285 887.127C652.667 888.681 650.298 892.212 650.233 896.149L650.168 900H728.001L725.911 875.99C728.697 876.007 730.952 873.727 730.904 870.941L728.746 744.12L742.125 598.312C742.338 595.994 744.282 594.22 746.61 594.22C748.955 594.22 750.908 596.02 751.099 598.357L763.011 744.135L762.285 871.71C762.272 874.098 764.213 876.037 766.601 876.02L764.61 900H841.501C841.501 894.808 838.533 890.073 833.86 887.811L813.681 878.04L815.841 717.02L807.001 518L804.001 488L798.692 420.435C798.589 419.124 799.628 418.005 800.944 418.011C802.07 418.016 803.018 418.854 803.163 419.971L809.511 469.09L818.001 573.493L829.219 616.205C829.285 616.456 829.511 616.63 829.771 616.63C836.383 616.63 841.61 611.026 841.149 604.43L838.991 573.493L842.431 472.47Z" fill="white"/>
<path d="M759.421 336.086C755.652 337.494 748.615 337.996 746.772 338C746.772 338 738.472 337.931 733.637 336.086C728.189 334.007 725.154 331.977 721.475 327.511C718.985 324.489 717.037 319.288 716.154 316.658C715.792 315.579 715.542 314.47 715.352 313.348L711.259 289.194C711.259 289.194 710.764 285.702 710.772 283.452C710.792 278.101 711.518 274.959 713.691 270.054C715.923 265.016 717.876 262.319 721.961 258.57C726.317 254.574 729.456 252.828 735.097 250.945C739.476 249.483 742.148 249.038 746.772 249C751.735 249.167 753.583 249.478 758.32 250.945C763.06 252.522 767.9 255.318 771.583 258.57C775.266 261.822 777.843 265.671 779.853 270.054C781.863 274.437 782.77 278.669 782.772 283.452C782.772 285.255 782.572 287.411 782.286 289.194L777.422 313.027C777.171 314.256 776.847 315.468 776.409 316.644C775.368 319.437 773.207 324.821 771.096 327.473C768.171 331.149 763.929 334.402 759.421 336.086Z" fill="black"/>
<path d="M756.961 329.387C753.925 330.573 748.256 330.996 746.772 331C746.772 331 740.086 330.942 736.191 329.387C731.802 327.635 729.357 325.925 726.394 322.161C724.446 319.687 722.909 315.481 722.17 313.21C721.832 312.171 721.604 311.105 721.429 310.026L718.164 289.871C718.164 289.871 717.766 286.928 717.772 285.032C717.788 280.523 718.373 277.876 720.124 273.742C721.922 269.496 723.494 267.224 726.786 264.065C730.294 260.697 732.823 259.226 737.367 257.639C740.894 256.407 743.047 256.032 746.772 256C750.77 256.141 752.259 256.403 756.074 257.639C759.893 258.968 763.792 261.324 766.759 264.065C769.725 266.805 771.802 270.048 773.421 273.742C775.04 277.436 775.771 281.002 775.772 285.032C775.772 286.552 775.611 288.369 775.38 289.871L771.506 309.733C771.275 310.917 770.977 312.084 770.569 313.219C769.704 315.626 768.016 319.961 766.367 322.129C764.01 325.227 760.593 327.968 756.961 329.387Z" fill="white"/>
<path fill-rule="evenodd" clip-rule="evenodd" d="M353 689C341.954 689 333 697.955 333 709C333 720.046 341.954 729 353 729H713C724.046 729 733 720.046 733 709C733 697.955 724.046 689 713 689H353ZM353 696C345.82 696 340 701.821 340 709C340 716.18 345.82 722 353 722H713C720.18 722 726 716.18 726 709C726 701.821 720.18 696 713 696H353Z" fill="black"/>
<path fill-rule="evenodd" clip-rule="evenodd" d="M729.32 668C719.755 673.523 716.477 685.755 722 695.321C727.523 704.887 739.755 708.164 749.321 702.641L875.76 629.641C885.326 624.118 888.604 611.887 883.081 602.321C877.558 592.755 865.326 589.477 855.76 595L729.32 668ZM732.821 674.063C726.603 677.653 724.473 685.603 728.062 691.821C731.652 698.039 739.603 700.169 745.821 696.579L872.261 623.579C878.478 619.99 880.609 612.039 877.019 605.821C873.429 599.603 865.478 597.473 859.261 601.063L732.821 674.063Z" fill="black"/>
<path d="M353 724H360V900H353V724Z" fill="black"/>
<path d="M704 724H711V900H704V724Z" fill="black"/>
<path d="M728.062 691.821C724.473 685.603 726.603 677.652 732.821 674.062L859.261 601.062C865.478 597.472 873.429 599.603 877.019 605.821C880.609 612.038 878.478 619.989 872.261 623.579L745.821 696.579C739.603 700.169 731.652 698.038 728.062 691.821Z" fill="white"/>
<path d="M340 709C340 701.82 345.82 696 353 696H713C720.18 696 726 701.82 726 709C726 716.179 720.18 722 713 722H353C345.82 722 340 716.179 340 709Z" fill="white"/>
</svg>
