<svg width="1300" height="1000" fill="none" xmlns="http://www.w3.org/2000/svg"><path fill-rule="evenodd" clip-rule="evenodd" d="M745.772 338c1.842-.004 8.879-.506 12.648-1.914 4.509-1.684 8.751-4.937 11.676-8.613 2.11-2.652 4.272-8.036 5.312-10.829a24.114 24.114 0 0 0 1.013-3.617l4.864-23.833c.287-1.783.486-3.939.486-5.742-.001-4.783-.908-9.015-2.918-13.398-2.01-4.383-4.588-8.232-8.271-11.484-3.682-3.252-8.522-6.048-13.263-7.625-4.737-1.466-6.585-1.778-11.547-1.945-4.625.038-7.297.483-11.676 1.945-5.64 1.883-8.78 3.629-13.135 7.625-4.086 3.749-6.038 6.446-8.271 11.484-2.173 4.905-2.899 8.047-2.918 13.398-.009 2.25.486 5.742.486 5.742l4.093 24.154c.19 1.122.44 2.231.802 3.31.883 2.63 2.832 7.831 5.321 10.853 3.679 4.466 6.714 6.496 12.162 8.575 4.835 1.845 13.136 1.914 13.136 1.914Zm0-7c1.484-.004 7.153-.427 10.189-1.613 3.631-1.419 7.049-4.16 9.405-7.258 1.649-2.168 3.338-6.503 4.202-8.91.408-1.135.706-2.302.937-3.486l3.875-19.862c.23-1.502.391-3.319.391-4.839-.001-4.03-.732-7.596-2.351-11.29-1.619-3.694-3.695-6.937-6.662-9.677-2.967-2.741-6.865-5.097-10.684-6.426-3.816-1.236-5.305-1.498-9.302-1.639-3.726.032-5.878.407-9.406 1.639-4.543 1.587-7.072 3.058-10.581 6.426-3.291 3.159-4.864 5.431-6.662 9.677-1.751 4.134-2.336 6.781-2.351 11.29-.007 1.896.391 4.839.391 4.839l3.265 20.155c.175 1.079.404 2.145.742 3.184.738 2.271 2.275 6.477 4.223 8.951 2.964 3.764 5.409 5.474 9.797 7.226 3.895 1.555 10.582 1.613 10.582 1.613Zm80.224 45c17.528 36.035 23.43 91.5 23.43 93.162 0 37.391-2.652 87.536-3.432 101.477L855.76 565c9.566-5.523 21.798-2.245 27.321 7.32 5.523 9.566 2.245 21.798-7.321 27.321l-55.111 31.819 4.347 86.54-3 156.5 16.203 7.658A19.736 19.736 0 0 1 849.5 900H1300v100H0V900h353V699c-11.046 0-20-8.954-20-20s8.954-20 20-20h317.566L681.5 492.5l-79 43-41.062 2.074a11.915 11.915 0 0 1-11.631-7.397c-3.613-8.852 1.356-18.867 10.591-21.345L584 502.5l56.594-38.096s9.838-53.082 25.279-89.186c15.902-27.681 45.969-33.623 82.944-33.197 38.119.434 62.13 4.804 77.179 33.979ZM360 699v201h281.496v-1.093a20.001 20.001 0 0 1 12.402-18.501L669.496 874l-2.5-156 1.587-19H360Zm482.43-226.53-3.283 102.121-20.401 11.779-3.991-65.079-5.245-52.201-6.35-49.135a2.23 2.23 0 0 0-4.433.493L805 488l3 30 2.5 55.5.836 17.148-59.063 34.1-2.217-26.928a3.922 3.922 0 0 0-7.821.038l-2.479 34.117L729.32 638c-7.703 4.448-11.328 13.247-9.563 21.5h-2.293c-1.435-.327-2.93-.5-4.464-.5h-35.962l6.462-85.145 3-55.855 3-30.5 5.83-67.517a1.807 1.807 0 0 0-3.584-.455L681 483.5l-81.218 43.992-36.814 3.416a7.639 7.639 0 0 1-2.622-15.003L587 509l61-40.5s7.648-51.646 22.22-86.985c15.005-27.095 43.378-31.912 78.27-31.495 35.971.425 57.759 1.937 71.96 30.495 16.54 35.271 21.98 91.955 21.98 91.955ZM745.996 611l.756 16.936-1.464.845.708-17.781Zm-26.734 49h.608l.058.232c-.22-.081-.442-.158-.666-.232Zm16.097 14.925a20.118 20.118 0 0 1-2.968-.843c.398 1.574.609 3.221.609 4.918 0 11.046-8.954 20-20 20h-36.985L674 717.009l2.5 161.008-21.216 9.112a10 10 0 0 0-6.052 9.021l-.064 3.85H728l-2.09-22.008a5.906 5.906 0 0 0 5.933-6.048l-3.098-127.822 6.614-69.197Zm13.961-2.284a19.923 19.923 0 0 1-8.252 2.608L736.496 746l1.439 127.592a9.97 9.97 0 0 1-4.439 8.408l1.5 18h22.5l1.5-18a10 10 0 0 1-4-8V746l-4.36-74.119-1.316.76Zm12.69 71.496-4.931-75.975 57.215-33.034 3.546 81.894-3.16 161.02 20.179 9.77A13.546 13.546 0 0 1 842.5 900h-77.89l1.99-21.978a4.318 4.318 0 0 1-4.348-4.31l-.242-129.575Zm-41.868-54.273a13.051 13.051 0 0 0 3.515-3.418l-3.515 3.418Zm3.734-3.74A12.939 12.939 0 0 0 726 679c0-7.18-5.82-13-13-13H353c-7.18 0-13 5.82-13 13s5.82 13 13 13h360c2.63 0 5.078-.781 7.124-2.124l3.752-3.752Zm8.945-42.062c-6.218 3.59-8.348 11.541-4.759 17.759 3.59 6.218 11.541 8.348 17.759 4.758l126.44-73c6.217-3.59 8.348-11.54 4.758-17.758-3.59-6.218-11.541-8.348-17.758-4.759l-126.44 73Z" fill="#000"/></svg>