<svg id="Capa_1" data-name="Capa 1" xmlns="http://www.w3.org/2000/svg" viewBox="0 0 1300 1000"><defs><style>.cls-1{fill:#fff;}.cls-1,.cls-2{stroke:#262626;stroke-miterlimit:10;stroke-width:10px;}.cls-2{fill:none;}.cls-3{fill:#262626;}</style></defs><title>metro--front</title><rect class="cls-1" x="548.8" y="77.01" width="696" height="860" rx="26" transform="translate(1793.61 1014.01) rotate(180)"/><rect class="cls-2" x="596.8" y="209.01" width="600" height="394.61" rx="26" transform="translate(1793.61 812.63) rotate(180)"/><circle class="cls-1" cx="648.8" cy="729.01" r="50"/><circle class="cls-1" cx="1147.8" cy="729.01" r="50"/><path class="cls-1" d="M573.52,874h646a25,25,0,0,1,25,25v39a0,0,0,0,1,0,0h-696a0,0,0,0,1,0,0V899A25,25,0,0,1,573.52,874Z" transform="translate(1793.04 1811.96) rotate(180)"/><rect class="cls-1" x="700.97" y="903.67" width="400" height="64" rx="20" transform="translate(1801.94 1871.35) rotate(180)"/><path class="cls-1" d="M548.51,76.19h696a0,0,0,0,1,0,0v39a25,25,0,0,1-25,25h-646a25,25,0,0,1-25-25v-39A0,0,0,0,1,548.51,76.19Z" transform="translate(1793.02 216.38) rotate(180)"/><rect class="cls-3" y="899" width="500" height="101" transform="translate(500 1899) rotate(180)"/></svg>