<svg id="Capa_1" data-name="Capa 1" xmlns="http://www.w3.org/2000/svg" viewBox="0 0 1300 1000"><defs><style>.cls-1,.cls-5,.cls-6{fill:#fff;}.cls-1,.cls-3,.cls-6{stroke:#262626;}.cls-1,.cls-2,.cls-3,.cls-6{stroke-miterlimit:10;}.cls-1,.cls-2,.cls-3{stroke-width:10px;}.cls-2,.cls-3{fill:none;}.cls-2{stroke:#252626;}.cls-4{fill:#262626;}.cls-6{stroke-width:9.94px;}</style></defs><title>metro--side</title><path class="cls-1" d="M1140.25,904.6H3.92V72.6H999.28a197,197,0,0,1,196.19,178.87l49.79,537.95A105.46,105.46,0,0,1,1140.25,904.6Z"/><rect class="cls-2" x="460.92" y="178.73" width="168" height="726.37" transform="translate(1089.83 1083.83) rotate(180)"/><path class="cls-3" d="M1228.92,605.16l-262-1a24.8,24.8,0,0,1-25-24.6V235.2a24.8,24.8,0,0,1,25-24.6h223Z"/><path class="cls-3" d="M4.64,604.66l113.28-.08a24.88,24.88,0,0,0,25-24.75V233.34a24.88,24.88,0,0,0-25-24.75L4.64,208.2Z"/><path class="cls-1" d="M1238.81,778a50,50,0,1,1-8.71-99.62"/><rect class="cls-4" y="900" width="1300" height="100" transform="translate(1300 1900) rotate(180)"/><path class="cls-5" d="M575.41,895l.13-31.4-12.44,0-18.94-258-21.37,258-12.61,0,.32,31.4H437.88V882.28l21.55-18.66h-4.87l28.12-325.51H469.42V538l-25,.13,7.27-111.37c.07-1.28,2-32.54,13.83-64.45,16.08-43.43,42.78-66.61,77.23-67h.94c34.15,0,60.52,22.6,76.26,65.35,11.55,31.38,13.34,62.23,13.41,63.53l7,113.74-23.63.14L615,528.67l1.47,9.44-13.27,0,28.13,325.48h-1.63l18.07,19,.41,12.34Z"/><path class="cls-4" d="M543.67,300.33c77.94,0,84.68,124.15,84.68,124.15L635.07,533l-14.17.08L600.11,422.83,582.34,352l28.28,181.12-12.88,0,28.13,325.48h-7.81l24.76,26.11L643,890H580.43l.13-31.41-12.81,0L544.47,541.48,518.19,858.62l-13.07,0,.33,31.41H442.88v-5.44l30-25.95H460l28.13-325.49H475.26l27.95-179.9L485,423.81,465.57,533.06l-15.83.09,6.92-106s7.38-125.86,86.13-126.8h.88m0-10h-1c-36.69.43-65,24.73-81.86,70.27-11.95,32.3-14,64-14.13,65.89l-6.92,106-.7,10.71,10.73-.05,13.8-.08v0h13.65L450.05,857.76l-.69,8-13,11.28-3.45,3v20h82.67l-.11-10.1-.21-21.28h2.94l9.22,0,.77-9.19,15.7-189.59,13.91,189.49.69,9.29,9.31,0h2.75L570.43,890l0,10h83L653,889.66l-.17-5.27-.13-3.79-2.61-2.75-13.77-14.52-.48-5.57L608.64,543.13h2l11.66,0v-.05l12.84-.07,10.58-.06-.66-10.56-6.72-108.47c-.11-1.91-2-33.18-13.71-64.94-16.53-44.89-44.51-68.62-80.94-68.62Z"/><path class="cls-6" d="M518.44,253.61c0,16,10.52,29,23.5,29s23.5-13,23.5-29-10.52-29-23.5-29S518.44,237.6,518.44,253.61Z"/><path class="cls-1" d="M626.92,178.73h196a0,0,0,0,1,0,0V903.64a0,0,0,0,1,0,0h-171a25,25,0,0,1-25-25V178.73A0,0,0,0,1,626.92,178.73Z" transform="translate(1449.81 1082.37) rotate(180)"/><rect class="cls-1" x="626.21" y="842.14" width="195" height="64"/><path class="cls-3" d="M696.89,210.6h125a0,0,0,0,1,0,0V604.22a0,0,0,0,1,0,0h-125a25,25,0,0,1-25-25V235.6a25,25,0,0,1,25-25Z"/><path class="cls-1" d="M290.93,178.73h171a0,0,0,0,1,0,0V903.64a0,0,0,0,1,0,0h-196a0,0,0,0,1,0,0V203.73A25,25,0,0,1,290.93,178.73Z"/><rect class="cls-1" x="267.61" y="842.14" width="195" height="64" transform="translate(730.21 1748.29) rotate(180)"/><path class="cls-3" d="M290.93,209.6h125a0,0,0,0,1,0,0v395a0,0,0,0,1,0,0h-125a25,25,0,0,1-25-25v-345a25,25,0,0,1,25-25Z" transform="translate(681.86 814.21) rotate(180)"/></svg>