<svg id="Capa_1" data-name="Capa 1" xmlns="http://www.w3.org/2000/svg" viewBox="0 0 1300 1000"><title>2-landmarks-expand</title><rect y="900" width="1300" height="100" transform="translate(1300 1900) rotate(180)"/><path d="M269.26,905.46h-7.62a4,4,0,0,1-4-4v-.55a4,4,0,0,1,4-4h7.62a4,4,0,0,1,4,4v.54A4,4,0,0,1,269.26,905.46Z"/><path d="M1138.59,912.6H0v-8H1138.59a89.14,89.14,0,0,0,88.93-95.23l-38.09-556.52c-6.75-98.56-89.42-175.76-188.21-175.76H0v-8H1001.22A196.64,196.64,0,0,1,1197.41,252.3l38.09,556.52a97.13,97.13,0,0,1-96.91,103.78Z"/><path d="M1231.73,815.13h-19.91a41.49,41.49,0,0,1-41.28-38.55l-2.42-35.37A50,50,0,0,1,1218,687.76h5.44v8H1218a42,42,0,0,0-41.94,44.91l2.42,35.37a33.47,33.47,0,0,0,33.3,31.09h19.91Z"/><path d="M816.62,912.6H268.46a8.07,8.07,0,0,1-8-8.06V179a8.06,8.06,0,0,1,8-8H816.62a8.06,8.06,0,0,1,8,8V904.54A8.07,8.07,0,0,1,816.62,912.6ZM268.46,179l0,725.58,548.21.06a.06.06,0,0,0,0-.06V179Z"/><path d="M131.31,605.09H0v-8H131.31a17.58,17.58,0,0,0,17.56-17.56V230.08a17.57,17.57,0,0,0-17.56-17.56H0v-8H131.31a25.58,25.58,0,0,1,25.56,25.56V579.53A25.59,25.59,0,0,1,131.31,605.09Z"/><path d="M1217.7,605.09H962.28a25.59,25.59,0,0,1-25.56-25.56V230.08a25.59,25.59,0,0,1,25.56-25.56h225.24v8H962.28a17.58,17.58,0,0,0-17.56,17.56V579.53a17.58,17.58,0,0,0,17.56,17.56H1217.7Z"/><rect y="837.6" width="264.4" height="8"/><rect x="820.67" y="837.6" width="407.35" height="8"/><rect x="456.92" y="174.96" width="8" height="733.64"/><rect x="624.66" y="174.96" width="8" height="733.64"/><path d="M820.67,605.09H683.78a25.59,25.59,0,0,1-25.56-25.56V230.08a25.59,25.59,0,0,1,25.56-25.56H820.67v8H683.78a17.58,17.58,0,0,0-17.56,17.56V579.53a17.58,17.58,0,0,0,17.56,17.56H820.67Z"/><path d="M401.29,605.09H264.41v-8H401.29a17.58,17.58,0,0,0,17.56-17.56V230.08a17.57,17.57,0,0,0-17.56-17.56H264.41v-8H401.29a25.58,25.58,0,0,1,25.56,25.56V579.53A25.59,25.59,0,0,1,401.29,605.09Z"/></svg>