<svg id="Capa_1" data-name="Capa 1" xmlns="http://www.w3.org/2000/svg" viewBox="0 0 1300 1000"><defs><style>.cls-1,.cls-3,.cls-4{fill:#fff;}.cls-2{fill:#262626;}.cls-3,.cls-4{stroke:#262626;stroke-miterlimit:10;}.cls-3{stroke-width:9.94px;}.cls-4{stroke-width:10px;}</style></defs><title>platform</title><path class="cls-1" d="M192.32,895.07l.25-31H179.86L161.33,607,140.2,864h-13l.21,31H52.8l0-12.92,22.42-18-3.61,0L99.71,538.61H86.59l4.11-26.44L52.29,425.69l.3-1.54a259.31,259.31,0,0,1,22-62.34c21.46-41.73,50.86-64,85-64.41h1c33.91,0,63.15,22.15,84.54,64.07a262.73,262.73,0,0,1,22,62.68l.28,1.49-38,89.49,3.67,23.47H220l28.12,325.48-5.69,0L264.24,882l1.15,13.12Zm29.89-426.49,8.9-46-22.49-41.05ZM98.06,464.85l12.81-82.46-22.2,40.15Z"/><path class="cls-2" d="M160.61,302.4c78,0,101.63,122.69,101.63,122.69l-31.14,73.4-4.28-27.42,9.54-49.29-37.09-67.72,28,179.55H214.54l28.12,325.49-14.19,0,31,25.32.49,5.59H197.36l.25-31h-13.1L161.66,542,135.6,859H122.16l.21,31H57.81v-5.52l31.53-25.39-12.27,0,28.08-325.49H92.43l27.71-178.32L83.38,421.78,94,469.57l-4.35,27.86L57.5,425.09S81,303.33,159.72,302.4h.89m0-10v0h-1c-36.14.43-67.06,23.64-89.42,67.12a264.74,264.74,0,0,0-22.5,63.68l-.59,3.08,1.27,2.87,32.13,72.34,5.05,11.35-3,19.23-1.79,11.52,11.66,0h1.84L67.11,858.25l-.55,6.42-15,12.09-3.72,3v10.29l0,10h84.65L132.37,890l-.14-21h12.58l.75-9.19L161,672l13.53,187.82.67,9.28h12.32L187.36,890l-.08,10.08h83.57l-1-10.88-.49-5.58-.37-4.2-3.26-2.67-12.43-10.16-.72-8.34L225.44,543.61h1.88l11.67,0-1.8-11.53-2.55-16.29,5.67-13.37L271.44,429l1.19-2.8-.57-3a268.16,268.16,0,0,0-22.46-64c-22.3-43.7-53.07-66.8-89-66.8Zm62.12,147.13L218,409l7.88,14.39-3.12,16.11ZM94,423.31l7.64-13.82-4.41,28.37L94,423.31Z"/><path class="cls-3" d="M135.37,253.53c0,16,10.52,29,23.5,29s23.5-13,23.5-29-10.52-29-23.5-29S135.37,237.51,135.37,253.53Z"/><rect class="cls-2" y="900" width="1300" height="100"/><path class="cls-4" d="M1299.54,676.81l-90.33.79c-6.87.06-12.42,6.75-12.42,15v39.81c0,2.76-1.86,5-4.17,5h-71.34c-6.91,0-12.51,6.71-12.51,15v39.7c0,2.77-1.86,5-4.17,5h-74.73c-6.9,0-12.5,6.72-12.5,15v31.58c0,2.76-1.87,5-4.17,5H932.7c-6.9,0-12.5,6.72-12.5,15v40.12l379.34.78"/></svg>