<svg id="Capa_1" data-name="Capa 1" xmlns="http://www.w3.org/2000/svg" viewBox="0 0 1300 1000"><defs><style>.cls-1{fill:#fff;}</style></defs><title>2-landmarks-expand</title><path class="cls-1" d="M1300,671V900H929.75V848.54a4.05,4.05,0,0,1,4-4h83.29V790.71a4.05,4.05,0,0,1,4-4.05h83.29V732.88a4.05,4.05,0,0,1,4-4h83.29V675.05a4.05,4.05,0,0,1,4-4Z"/><rect y="900" width="1300" height="100"/><path d="M933.75,900h-8V848.54a8.06,8.06,0,0,1,8-8h79.29V790.71a8.06,8.06,0,0,1,8-8.05h79.29V732.88a8.06,8.06,0,0,1,8-8h79.29V675.05a8.06,8.06,0,0,1,8-8H1300v8H1195.82l0,53.83a4,4,0,0,1-4,4h-83.29l0,53.83a4,4,0,0,1-4,4h-83.29l0,53.83a4,4,0,0,1-4,4H933.8Z"/><path d="M933.75,900h-8V848.54a8.06,8.06,0,0,1,8-8h79.29V790.71a8.06,8.06,0,0,1,8-8.05h79.29V732.88a8.06,8.06,0,0,1,8-8h79.29V675.05a8.06,8.06,0,0,1,8-8H1300v8H1195.82l0,53.83a4,4,0,0,1-4,4h-83.29l0,53.83a4,4,0,0,1-4,4h-83.29l0,53.83a4,4,0,0,1-4,4H933.8Z"/></svg>