<svg id="Capa_1" data-name="Capa 1" xmlns="http://www.w3.org/2000/svg" viewBox="0 0 1300 1000"><defs><style>.cls-1,.cls-3{fill:#fff;}.cls-2{fill:#1d1d1b;}.cls-3{stroke:#1d1d1b;stroke-miterlimit:10;stroke-width:9.94px;}</style></defs><title>Capa 2-Personajes y artefactos</title><path class="cls-1" d="M690.05,903l.72-30-12.71.32L656.13,612,636,873.29,623.23,873l.71,30h-74.3l1.16-12.91,19.78-18.24h-3.84L595.61,546H582l5.68-35.59-40.19-79.1.33-1.69a254.69,254.69,0,0,1,22.61-62.25c21.95-41.58,51.92-63.56,86.69-63.56,36.48,0,78.55,31.47,125.05,93.52a760.76,760.76,0,0,1,58.52,92.22l2,3.92-18,12.37-72.31-81L704.58,375,732,546H718.38l28.87,325.9h-3.84l19.78,18.24L764.35,903ZM595.57,461.05l11.68-73.28-22.7,40Z"/><path class="cls-2" d="M657.15,308.76c84,0,179.13,183,179.13,183l-10.73,7.38-69.44-77.77-59-61.37L726.1,541H712.92l28.87,325.9H730.61l27.78,25.61.49,5.54H695.17l.72-30.17-13.24.34L655.93,549.69,631.34,868.17l-13.24-.34.72,30.17H555.11l.5-5.54,27.77-25.61H572.2L601.07,541H587.89l28.65-179.69-37.43,66,12.59,38-4.91,32.25-34-67S577,308.76,657.15,308.76m0-10c-36.74,0-68.24,22.9-91.11,66.22A260,260,0,0,0,543,428.59l-.67,3.39,1.56,3.09,34,67,4.63,9.12L578,539.37,576.17,551h14l-27.9,315-.65,7.38-12.76,11.77L546,887.72l-.34,3.84-.5,5.54-1,10.9h84.89l-.25-10.24-.46-19.67,2.74.07,9.49.24.73-9.46,15-194.69L672.68,869l.79,9.4,9.43-.24,2.74-.07-.46,19.67L684.93,908h84.89l-1-10.9-.49-5.54-.35-3.84-2.84-2.61L752.4,873.34l-.65-7.38-27.9-315h14L736,539.36,712,390l36.73,38.22,69.32,77.63,5.86,6.57,7.26-5,10.73-7.37,7.3-5-4.08-7.85a751.05,751.05,0,0,0-58.95-92.9c-47.5-63.39-90.92-95.53-129.06-95.53ZM590,428.32l8-14L593.86,440,590,428.32Z"/><ellipse id="_Trazado_" data-name="&lt;Trazado&gt;" class="cls-3" cx="655.2" cy="261.34" rx="23.5" ry="29"/></svg>