<svg id="Capa_1" data-name="Capa 1" xmlns="http://www.w3.org/2000/svg" viewBox="0 0 1300 1000"><defs><style>.cls-1,.cls-3,.cls-4,.cls-6{fill:#fff;}.cls-2{fill:#1d1d1b;}.cls-3,.cls-4,.cls-5,.cls-6{stroke:#1d1d1b;stroke-miterlimit:10;}.cls-3{stroke-width:9.94px;}.cls-4,.cls-5,.cls-6{stroke-width:10px;}.cls-5{fill:none;}.cls-6{stroke-linecap:square;}</style></defs><title>Capa 2-Personajes y artefactos</title><path class="cls-1" d="M678.24,905l.72-30-12.71.33L644.32,614,624.15,875.29,611.41,875l.72,30h-74.3L539,892.09l19.78-18.24h-3.84L583.8,548H570.22l5.54-34.71-40-80,.33-1.69a255,255,0,0,1,22.61-62.25c22-41.57,51.92-63.55,86.69-63.55,36.48,0,78.55,31.47,125,93.52a760.76,760.76,0,0,1,58.52,92.22l2,3.92-18,12.37-72.31-81L692.77,377,720.15,548H706.57l28.87,325.9H731.6l19.78,18.24L752.54,905Zm-94.7-440.6,11.9-74.63-22.72,40.06Z"/><path class="cls-2" d="M645.34,310.76c84,0,179.13,183,179.13,183l-10.73,7.38L744.3,423.41,685.3,362l29,180.91H701.11L730,868.85H718.8l27.77,25.61.5,5.54H683.36l.72-30.17-13.24.34L644.11,551.69,619.53,870.17l-13.24-.34L607,900H543.3l.49-5.54,27.78-25.61H560.39L589.26,543H576.08l28.65-179.7-37.43,66,11.59,37L574,498.53l-33-66s24.19-121.78,104.39-121.78m0-10c-36.74,0-68.24,22.9-91.11,66.22a260,260,0,0,0-23.09,63.61l-.67,3.36L532,437l33,66,5.53,11-4.36,27.33L564.36,553h14l-27.9,315-.65,7.38L537,887.11l-2.84,2.61-.35,3.84-.49,5.55-1,10.89h84.89L617,899.76l-.46-19.67,2.74.07,9.49.25.73-9.47,15-194.69L660.87,871l.79,9.4,9.43-.24,2.74-.07-.46,19.67L673.12,910H758l-1-10.9-.5-5.54-.34-3.84-2.84-2.61-12.76-11.77-.65-7.38L712,553h14l-1.85-11.59L700.23,392,737,430.21l69.32,77.63,5.86,6.57,7.26-5,10.73-7.37,7.3-5-4.08-7.85a750.22,750.22,0,0,0-59-92.9c-47.5-63.39-90.92-95.53-129.06-95.53Zm-67.2,129.65,8-14.13L582,442.6l-3.82-12.19Z"/><ellipse id="_Trazado_" data-name="&lt;Trazado&gt;" class="cls-3" cx="643.98" cy="264.3" rx="23.5" ry="29"/><line class="cls-4" x1="584.9" y1="547.94" x2="705.15" y2="547.94"/><polyline class="cls-5" points="623.78 310.15 643.36 351.69 662.6 310.15"/><g id="_Grupo_" data-name="&lt;Grupo&gt;"><line id="_Trazado_2" data-name="&lt;Trazado&gt;" class="cls-6" x1="666.67" y1="359.51" x2="666.67" y2="378.48"/><line id="_Trazado_3" data-name="&lt;Trazado&gt;" class="cls-6" x1="657.23" y1="369.03" x2="676.19" y2="369.03"/></g><line class="cls-4" x1="723.45" y1="401.72" x2="747.47" y2="378.48"/><line class="cls-4" x1="584.9" y1="410" x2="552.42" y2="389.1"/></svg>