<svg id="Capa_1" data-name="Capa 1" xmlns="http://www.w3.org/2000/svg" viewBox="0 0 1300 1000"><defs><style>.cls-1,.cls-3,.cls-5,.cls-6{fill:#fff;}.cls-2{fill:#1d1d1b;}.cls-3,.cls-4,.cls-5,.cls-6{stroke:#1d1d1b;stroke-miterlimit:10;}.cls-3,.cls-4,.cls-5{stroke-width:10px;}.cls-4{fill:none;}.cls-4,.cls-5{stroke-linecap:round;}.cls-6{stroke-width:9.94px;}</style></defs><title>Capa 2-Personajes y artefactos</title><path class="cls-1" d="M708,905l.71-30-12.71.32L674.1,614l-20.17,261.3L641.19,875l.71,30H567.6l1.16-12.91,19.79-18.24h-3.84L613.57,548H600l5.67-35.59-40.19-79.1.34-1.7a254.72,254.72,0,0,1,22.6-62.25c22-41.57,51.93-63.55,86.69-63.55,36.49,0,78.56,31.47,125.06,93.52a760.76,760.76,0,0,1,58.52,92.22l2,3.92-18,12.37-72.31-81L722.55,377,749.93,548H736.35l28.87,325.9h-3.85l19.79,18.24L782.32,905ZM613.54,463.05l11.68-73.28-22.7,40Z"/><path class="cls-2" d="M675.11,310.76c84,0,179.14,183,179.14,183l-10.74,7.38-69.43-77.77-59-61.37,29,180.91H730.89l28.87,325.9H748.58l27.77,25.61.5,5.54H713.14l.72-30.17-13.25.34L673.89,551.69,649.31,870.17l-13.24-.34.71,30.17H573.07l.5-5.54,27.78-25.61H590.17L619,543H605.86l28.65-179.7-37.43,66,12.59,38-4.91,32.25-34-67s24.19-121.78,104.38-121.78m0-10c-36.73,0-68.24,22.9-91.11,66.22a260.18,260.18,0,0,0-23.08,63.61l-.68,3.39,1.57,3.09,34,67,4.63,9.12L596,541.37,594.14,553h14l-27.9,315-.65,7.38-12.77,11.77L564,889.72l-.35,3.84-.5,5.54-1,10.9H647l-.24-10.24-.46-19.67,2.74.07,9.49.24.73-9.46,15-194.68L690.65,871l.79,9.4,9.43-.24,2.74-.07-.47,19.67L702.9,910h84.89l-1-10.9-.5-5.54-.34-3.84-2.84-2.61-12.76-11.77-.65-7.38L741.81,553h14l-1.85-11.59L730,392l36.73,38.22,69.31,77.63,5.87,6.57,7.26-5,10.73-7.37,7.29-5-4.08-7.85a747.46,747.46,0,0,0-59-92.9c-47.49-63.39-90.91-95.53-129.06-95.53ZM608,430.32l8-14L611.83,442,608,430.32Z"/><line class="cls-3" x1="614.85" y1="547.91" x2="735.1" y2="547.91"/><polyline class="cls-4" points="655.62 310.98 675.2 352.52 694.43 310.98"/><line class="cls-5" x1="675.19" y1="352.52" x2="675.19" y2="544.97"/><ellipse id="_Trazado_" data-name="&lt;Trazado&gt;" class="cls-6" cx="673.17" cy="263.34" rx="23.5" ry="29"/><rect class="cls-2" x="685.67" y="357.71" width="22.81" height="13.31" rx="2" ry="2"/></svg>