<svg width="1302" height="1000" viewBox="0 0 1302 1000" fill="none" xmlns="http://www.w3.org/2000/svg">
<path d="M0 900H1300V1000H0V900Z" fill="black"/>
<path d="M393 543H400V900H393V543Z" fill="black"/>
<path fill-rule="evenodd" clip-rule="evenodd" d="M389.5 500C377.626 500 368 509.626 368 521.5C368 533.374 377.626 543 389.5 543H1301.5V500H389.5ZM390.029 506.471C381.728 506.471 375 513.199 375 521.5C375 529.8 381.728 536.528 390.029 536.528H1300V506.471H390.029Z" fill="black"/>
<path d="M960.77 375.996C978.297 412.031 984.27 470 984.27 470C984.27 481.495 984.639 488.22 984.27 500.5H820.769L822.589 484L827.269 423.5L772.269 486.996C770.254 489.308 766.651 489.277 764.675 486.93L687.269 396L677.769 365.5C675.782 358.468 676.652 352.649 683.772 351C688.86 349.822 691.279 350.22 694.271 354.5L718.271 388.5L767.271 434.496C767.271 434.496 786.898 406.778 807.271 375.996C831.77 353.5 847.796 346.542 884.771 346.967C924.89 347.402 949.098 352 960.77 375.996Z" fill="white"/>
<path d="M965.767 376C983.295 412.035 989.197 467.5 989.197 469.163C989.197 480.657 988.946 493.22 988.576 505.5H981.083L981.211 472.471H981.201C981.201 472.471 976.761 415.787 960.221 380.515C946.02 351.958 923.232 348.446 885.261 348.021C867.271 347.808 826.771 351 804.991 380.515C780.771 418.021 767.271 440 767.271 440L715.771 390L692.914 355.715C691.575 353.707 689.321 352.5 686.907 352.5C682.091 352.5 678.625 357.126 679.978 361.748L689.271 393.5L766.504 483.82C767.694 485.227 769.861 485.239 771.065 483.843L828.481 418.356C828.665 418.143 828.933 418.021 829.215 418.021C829.783 418.021 830.229 418.507 830.18 419.073L824.271 487.5L822.5 505.5H814.451L816.271 487L823.271 434.5L772.607 493.601C770.591 495.913 766.988 495.882 765.013 493.535L681.771 396L673.422 362.919C671.434 355.886 676.73 347.62 683.849 345.971C688.938 344.793 695.232 347.825 698.224 352.106L723.271 386.5L765.771 428.5C765.771 428.5 779.271 406 799.644 375.218C825.271 348 848.613 340.595 885.588 341.021C925.707 341.455 950.718 346.825 965.767 376Z" fill="black"/>
<path d="M938.376 419.336L941.771 488L943.521 505.5H951.591L948.281 469.091L940.818 419.082C940.74 418.474 940.224 418.017 939.611 418.012C938.89 418.006 938.319 418.618 938.376 419.336Z" fill="black"/>
<path d="M899.418 333.086C895.649 334.494 888.612 334.996 886.77 335C886.77 335 878.469 334.931 873.634 333.086C868.186 331.007 865.151 328.977 861.472 324.511C858.983 321.489 857.034 316.288 856.151 313.658C855.789 312.579 855.539 311.47 855.349 310.348L851.256 286.194C851.256 286.194 850.761 282.702 850.77 280.452C850.789 275.101 851.515 271.959 853.689 267.054C855.921 262.016 857.873 259.319 861.959 255.57C866.314 251.574 869.454 249.828 875.094 247.945C879.473 246.483 882.145 246.038 886.77 246C891.732 246.167 893.58 246.478 898.317 247.945C903.058 249.522 907.898 252.318 911.58 255.57C915.263 258.822 917.841 262.671 919.851 267.054C921.861 271.437 922.768 275.669 922.77 280.452C922.769 282.255 922.57 284.411 922.283 286.194L917.419 310.027C917.169 311.256 916.844 312.468 916.406 313.644C915.366 316.437 913.204 321.821 911.094 324.473C908.169 328.149 903.927 331.402 899.418 333.086Z" fill="black"/>
<path d="M896.959 326.387C893.923 327.573 888.254 327.996 886.77 328C886.77 328 880.083 327.942 876.188 326.387C871.8 324.635 869.355 322.925 866.391 319.161C864.443 316.687 862.906 312.481 862.168 310.21C861.83 309.171 861.601 308.105 861.426 307.026L858.161 286.871C858.161 286.871 857.763 283.928 857.77 282.032C857.785 277.523 858.37 274.876 860.121 270.742C861.919 266.496 863.492 264.224 866.783 261.065C870.292 257.697 872.821 256.226 877.364 254.639C880.892 253.407 883.044 253.032 886.77 253C890.767 253.141 892.256 253.403 896.072 254.639C899.891 255.968 903.789 258.324 906.756 261.065C909.723 263.805 911.799 267.048 913.418 270.742C915.037 274.436 915.768 278.002 915.77 282.032C915.769 283.552 915.608 285.369 915.378 286.871L911.503 306.733C911.272 307.917 910.974 309.084 910.566 310.219C909.702 312.626 908.013 316.961 906.364 319.129C904.008 322.227 900.59 324.968 896.959 326.387Z" fill="white"/>
</svg>
