<svg width="1300" height="1000" viewBox="0 0 1300 1000" fill="none" xmlns="http://www.w3.org/2000/svg">
<path d="M1176.01 500H981.508L981.508 472.45H981.518C981.518 472.45 985.958 415.766 1002.5 380.495C1016.7 351.937 1041.88 348.425 1079.85 348C1117.58 348.447 1140.36 351.549 1154.51 380C1171.05 415.272 1176.01 472 1176.01 472V500Z" fill="white"/>
<path d="M1080.33 341.021C1040.27 341.463 1012.47 346.85 997.432 376.001C979.904 412.035 974.002 467.5 974.002 469.163C974.002 480.657 974.252 493.22 974.622 505.5H982.115L981.987 472.47H981.997C982.01 472.306 986.462 415.736 1002.98 380.515C1017.18 351.958 1042.36 348.446 1080.33 348.021C1118.06 348.468 1140.81 352.065 1154.96 380.515C1171.48 415.732 1175.93 472.294 1175.94 472.47H1175.95L1175.82 505.5H1183.32C1183.69 493.22 1183.94 480.657 1183.94 469.163C1183.94 467.5 1178.04 412.035 1160.51 376.001C1145.46 346.826 1120.45 341.455 1080.33 341.021Z" fill="black"/>
<path d="M1134.35 418.011C1133.63 418.005 1133.06 418.618 1133.12 419.335L1136.51 488.001L1138.26 505.5H1146.33L1143.02 469.09L1135.56 419.083C1135.48 418.474 1134.96 418.017 1134.35 418.011Z" fill="black"/>
<path d="M1023.59 418.011C1022.97 418.016 1022.46 418.474 1022.38 419.083L1014.92 469.09L1011.61 505.5H1019.68L1021.43 488.001L1024.82 419.335C1024.88 418.618 1024.31 418.005 1023.59 418.011Z" fill="black"/>
<path d="M1081.51 246C1076.89 246.038 1074.21 246.482 1069.84 247.944C1064.2 249.827 1061.06 251.574 1056.7 255.57C1052.62 259.319 1050.66 262.016 1048.43 267.054C1046.26 271.959 1045.53 275.101 1045.51 280.452C1045.5 282.691 1045.99 286.158 1046 286.193L1050.38 312.032C1050.39 312.066 1052.79 320.352 1056.21 324.512C1059.89 328.977 1062.93 331.007 1068.38 333.086C1073.2 334.928 1081.49 335 1081.51 335C1083.35 334.996 1090.39 334.493 1094.16 333.086C1098.67 331.402 1102.91 328.149 1105.84 324.473C1108.76 320.797 1111.78 311.872 1111.78 311.872L1117.03 286.193C1117.31 284.411 1117.51 282.256 1117.51 280.452C1117.51 275.669 1116.6 271.437 1114.59 267.054C1112.58 262.671 1110 258.822 1106.32 255.57C1102.64 252.319 1097.8 249.522 1093.06 247.944C1088.32 246.478 1086.47 246.167 1081.51 246Z" fill="black"/>
<path d="M1091.7 326.387C1088.66 327.573 1082.99 327.996 1081.51 328C1081.51 328 1074.82 327.942 1070.93 326.387C1066.54 324.635 1064.09 322.925 1061.13 319.161C1058.36 315.649 1056.43 308.645 1056.43 308.645L1052.9 286.871C1052.9 286.871 1052.5 283.928 1052.51 282.032C1052.52 277.523 1053.11 274.876 1054.86 270.742C1056.66 266.496 1058.23 264.224 1061.52 261.065C1065.03 257.697 1067.56 256.226 1072.1 254.639C1075.63 253.407 1077.78 253.032 1081.51 253C1085.51 253.141 1086.99 253.403 1090.81 254.639C1094.63 255.968 1098.53 258.324 1101.49 261.065C1104.46 263.805 1106.54 267.048 1108.16 270.742C1109.78 274.436 1110.51 278.002 1110.51 282.032C1110.51 283.552 1110.35 285.369 1110.12 286.871L1105.89 308.511C1105.89 308.511 1103.46 316.031 1101.1 319.129C1098.75 322.227 1095.33 324.968 1091.7 326.387Z" fill="white"/>
<path d="M797 543H804V900H797V543Z" fill="black"/>
<path d="M1300 506H794.5C785.94 506 779 512.94 779 521.5C779 530.06 785.94 537 794.5 537H1300V543H793.5C781.626 543 772 533.374 772 521.5C772 509.626 781.626 500 793.5 500H1300V506Z" fill="black"/>
<path d="M0 900H1300V1000H0V900Z" fill="black"/>
</svg>
