<svg width="1300" height="1000" viewBox="0 0 1300 1000" fill="none" xmlns="http://www.w3.org/2000/svg">
<path d="M0 900H1300V1000H0V900Z" fill="black"/>
<path d="M1154.77 375.996C1172.3 412.031 1178.27 470 1178.27 470C1178.27 481.495 1178.64 488.22 1178.27 500.5H1014.77L1016.59 484L1021.27 423.5L966.269 486.996C964.254 489.308 960.651 489.277 958.675 486.93L881.269 396L871.769 365.5C869.782 358.468 870.652 352.649 877.772 351C882.86 349.822 885.279 350.22 888.271 354.5L912.271 388.5L961.271 434.496C961.271 434.496 980.898 406.778 1001.27 375.996C1025.77 353.5 1041.8 346.542 1078.77 346.967C1118.89 347.402 1143.1 352 1154.77 375.996Z" fill="white"/>
<path d="M1159.72 376C1177.25 412.035 1183.15 467.5 1183.15 469.162C1183.15 480.657 1182.9 493.22 1182.53 505.5H1175.04L1175.16 472.471H1175.15C1175.15 472.471 1170.71 415.787 1154.17 380.515C1139.97 351.958 1117.19 348.446 1079.21 348.021C1061.22 347.808 1020.72 351 998.944 380.515C974.724 418.021 961.224 440 961.224 440L909.724 390L886.867 355.715C885.528 353.707 883.274 352.5 880.86 352.5C876.044 352.5 872.578 357.126 873.931 361.748L883.224 393.5L960.457 483.82C961.648 485.227 963.814 485.238 965.018 483.843L1022.43 418.356C1022.62 418.143 1022.89 418.021 1023.17 418.021C1023.74 418.021 1024.18 418.507 1024.13 419.073L1018.22 487.5L1016.45 505.5H1008.4L1010.22 487L1017.22 434.5L966.56 493.601C964.544 495.913 960.941 495.881 958.966 493.535L875.724 396L867.375 362.919C865.388 355.886 870.683 347.62 877.802 345.971C882.891 344.793 889.185 347.825 892.177 352.106L917.224 386.5L959.724 428.5C959.724 428.5 973.224 406 993.597 375.218C1019.22 348 1042.57 340.595 1079.54 341.021C1119.66 341.455 1144.67 346.825 1159.72 376Z" fill="black"/>
<path d="M1132.33 419.336L1135.72 488L1137.47 505.5H1145.54L1142.23 469.091L1134.77 419.082C1134.69 418.474 1134.18 418.017 1133.56 418.012C1132.84 418.005 1132.27 418.618 1132.33 419.336Z" fill="black"/>
<path fill-rule="evenodd" clip-rule="evenodd" d="M1080.72 246C1076.1 246.038 1073.43 246.482 1069.05 247.944C1063.41 249.827 1060.27 251.574 1055.91 255.57C1051.83 259.319 1049.88 262.016 1047.64 267.054C1045.47 271.959 1044.74 275.101 1044.72 280.452C1044.72 282.691 1045.21 286.158 1045.21 286.193L1049.59 312.032C1049.6 312.066 1052 320.352 1055.43 324.512C1059.11 328.977 1062.14 331.007 1067.59 333.086C1072.42 334.928 1080.7 335 1080.72 335C1082.57 334.996 1089.6 334.493 1093.37 333.086C1097.88 331.402 1102.12 328.149 1105.05 324.473C1107.97 320.797 1111 311.872 1111 311.872L1116.24 286.193C1116.52 284.411 1116.72 282.256 1116.72 280.452C1116.72 275.669 1115.82 271.437 1113.81 267.054C1111.8 262.671 1109.22 258.822 1105.53 255.57C1101.85 252.319 1097.01 249.522 1092.27 247.944C1087.54 246.478 1085.69 246.167 1080.72 246ZM1080.72 253C1084.72 253.141 1086.21 253.403 1090.03 254.639C1093.84 255.968 1097.74 258.324 1100.71 261.064C1103.68 263.805 1105.75 267.048 1107.37 270.742C1108.99 274.436 1109.72 278.002 1109.72 282.032C1109.72 283.552 1109.56 285.369 1109.33 286.871L1105.11 308.511C1105.1 308.557 1102.67 316.041 1100.32 319.129C1097.96 322.227 1094.55 324.968 1090.91 326.387C1087.88 327.573 1082.21 327.996 1080.72 328C1080.71 328 1074.03 327.939 1070.14 326.387C1065.75 324.635 1063.31 322.924 1060.35 319.161C1057.59 315.663 1055.66 308.703 1055.64 308.646L1052.12 286.871C1052.12 286.871 1051.72 283.928 1051.72 282.032C1051.74 277.523 1052.33 274.876 1054.08 270.742C1055.87 266.496 1057.45 264.224 1060.74 261.064C1064.25 257.697 1066.78 256.225 1071.32 254.639C1074.85 253.407 1077 253.032 1080.72 253Z" fill="black"/>
<path d="M1090.96 326.387C1087.92 327.573 1082.25 327.996 1080.77 328C1080.77 328 1074.08 327.942 1070.19 326.387C1065.8 324.635 1063.35 322.925 1060.39 319.161C1057.63 315.649 1055.69 308.645 1055.69 308.645L1052.16 286.871C1052.16 286.871 1051.76 283.928 1051.77 282.032C1051.79 277.523 1052.37 274.876 1054.12 270.742C1055.92 266.496 1057.49 264.224 1060.78 261.065C1064.29 257.697 1066.82 256.226 1071.36 254.639C1074.89 253.407 1077.04 253.032 1080.77 253C1084.77 253.141 1086.26 253.403 1090.07 254.639C1093.89 255.968 1097.79 258.324 1100.76 261.065C1103.72 263.805 1105.8 267.048 1107.42 270.742C1109.04 274.436 1109.77 278.002 1109.77 282.032C1109.77 283.552 1109.61 285.369 1109.38 286.871L1105.16 308.511C1105.16 308.511 1102.72 316.031 1100.36 319.129C1098.01 322.227 1094.59 324.968 1090.96 326.387Z" fill="white"/>
<path d="M797 543H804V900H797V543Z" fill="black"/>
<path d="M1300 506H794.5C785.94 506 779 512.94 779 521.5C779 530.06 785.94 537 794.5 537H1300V543H793.5C781.626 543 772 533.374 772 521.5C772 509.626 781.626 500 793.5 500H1300V506Z" fill="black"/>
</svg>
