<svg width="1306" height="1000" viewBox="0 0 1306 1000" fill="none" xmlns="http://www.w3.org/2000/svg">
<path fill-rule="evenodd" clip-rule="evenodd" d="M456 370.5V502H449V93C449 89.4101 451.91 86.5 455.5 86.5H1305.5V93.5H1221.5V223.5H1301.5V230.5H1221.5V363.5H1301.5V370.5H1221.5V501.5H1214.5V370.5H1136.5V505H1129.5V370.5H1051.5V505H1044.5V370.5H966.5V505H959.5V370.5H881.5V505H874.5V370.5H796.5V501.5H789.5V370.5H711.5V505H704.5V370.5H626.5V505H619.5V370.5H541.5V501.5H534.5V370.5H456ZM534.5 93.5H456V223.5H534.5V93.5ZM456 363.5V230.5H534.5V363.5H456ZM541.5 363.5H619.5V230.5H541.5V363.5ZM626.5 363.5H704.5V230.5H626.5V363.5ZM711.5 363.5H789.5V230.5H711.5V363.5ZM796.5 363.5H874.5V230.5H796.5V363.5ZM881.5 363.5H959.5V230.5H881.5V363.5ZM966.5 363.5H1044.5V230.5H966.5V363.5ZM1051.5 363.5H1129.5V230.5H1051.5V363.5ZM1136.5 363.5H1214.5V230.5H1136.5V363.5ZM619.5 223.5H541.5V93.5H619.5V223.5ZM704.5 223.5H626.5V93.5H704.5V223.5ZM789.5 223.5H711.5V93.5H789.5V223.5ZM874.5 223.5H796.5V93.5H874.5V223.5ZM959.5 223.5H881.5V93.5H959.5V223.5ZM1044.5 223.5H966.5V93.5H1044.5V223.5ZM1129.5 223.5H1051.5V93.5H1129.5V223.5ZM1214.5 223.5H1136.5V93.5H1214.5V223.5Z" fill="black"/>
<path d="M0 900H1300V1000H0V900Z" fill="black"/>
<path d="M393 543H400V900H393V543Z" fill="black"/>
<path fill-rule="evenodd" clip-rule="evenodd" d="M389.5 500C377.626 500 368 509.626 368 521.5C368 533.374 377.626 543 389.5 543H1301.5V500H389.5ZM390.029 506.471C381.728 506.471 375 513.199 375 521.5C375 529.8 381.728 536.528 390.029 536.528H1300V506.471H390.029Z" fill="black"/>
<path d="M981.5 500H787L787 472.45H787.01C787.01 472.45 791.45 415.766 807.99 380.495C822.191 351.937 847.37 348.425 885.341 348C923.076 348.447 945.852 351.549 960 380C976.54 415.272 981.5 472 981.5 472V500Z" fill="white"/>
<path d="M989.424 469.163C989.424 467.501 983.522 412.035 965.994 376.001C950.946 346.826 925.934 341.456 885.815 341.021C845.754 341.463 817.954 346.85 802.918 376.001C785.39 412.035 779.488 467.501 779.488 469.163C779.488 480.658 779.739 493.22 780.109 505.501H787.602L787.474 472.471H787.484C787.484 472.471 791.924 415.788 808.464 380.516C822.665 351.959 847.844 348.446 885.815 348.021C923.55 348.468 946.3 352.065 960.448 380.516C976.988 415.788 981.428 472.471 981.428 472.471H981.438L981.31 505.501H988.804C989.173 493.22 989.424 480.658 989.424 469.163Z" fill="black"/>
<path d="M941.998 488.001L938.603 419.336C938.547 418.618 939.118 418.006 939.838 418.012C940.451 418.017 940.967 418.474 941.045 419.083L948.508 469.091L951.818 505.501H943.748L941.998 488.001Z" fill="black"/>
<path d="M826.914 488.001L830.309 419.336C830.366 418.618 829.795 418.006 829.074 418.012C828.461 418.017 827.946 418.474 827.867 419.083L820.404 469.091L817.095 505.501H825.164L826.914 488.001Z" fill="black"/>
<path d="M899.649 333.086C895.88 334.494 888.842 334.996 887 335C887 335 878.699 334.931 873.865 333.086C868.417 331.007 865.382 328.977 861.703 324.511C859.213 321.489 857.265 316.288 856.381 313.658C856.019 312.579 855.77 311.47 855.58 310.348L851.487 286.194C851.487 286.194 850.992 282.702 851 280.452C851.02 275.101 851.746 271.959 853.919 267.054C856.151 262.016 858.103 259.319 862.189 255.57C866.545 251.574 869.684 249.828 875.324 247.945C879.704 246.483 882.376 246.038 887 246C891.963 246.167 893.811 246.478 898.548 247.945C903.288 249.522 908.128 252.318 911.811 255.57C915.494 258.822 918.071 262.671 920.081 267.054C922.091 271.437 922.998 275.669 923 280.452C923 282.255 922.8 284.411 922.514 286.194L917.65 310.027C917.399 311.256 917.075 312.468 916.637 313.644C915.596 316.437 913.435 321.821 911.324 324.473C908.399 328.149 904.157 331.402 899.649 333.086Z" fill="black"/>
<path d="M897.189 326.387C894.153 327.573 888.484 327.996 887 328C887 328 880.313 327.942 876.419 326.387C872.03 324.635 869.585 322.925 866.622 319.161C864.673 316.687 863.137 312.481 862.398 310.21C862.06 309.171 861.831 308.105 861.657 307.026L858.392 286.871C858.392 286.871 857.993 283.928 858 282.032C858.016 277.523 858.601 274.876 860.351 270.742C862.15 266.496 863.722 264.224 867.014 261.065C870.522 257.697 873.051 256.226 877.595 254.639C881.122 253.407 883.275 253.032 887 253C890.998 253.141 892.487 253.403 896.302 254.639C900.121 255.968 904.02 258.324 906.986 261.065C909.953 263.805 912.029 267.048 913.649 270.742C915.268 274.436 915.998 278.002 916 282.032C916 283.552 915.839 285.369 915.608 286.871L911.734 306.733C911.503 307.917 911.205 309.084 910.797 310.219C909.932 312.626 908.244 316.961 906.595 319.129C904.238 322.227 900.821 324.968 897.189 326.387Z" fill="white"/>
<path d="M766.5 503H694.5V496.606C694.5 495.602 695.001 494.666 695.836 494.109L699 492C700.667 483.167 709.3 465.5 730.5 465.5C751.7 465.5 760.333 483.167 762 492L765.164 494.109C765.999 494.666 766.5 495.602 766.5 496.606V503Z" fill="white"/>
<path d="M742 446C742 452.075 737.075 457 731 457C724.925 457 720 452.075 720 446C720 439.925 724.925 435 731 435C737.075 435 742 439.925 742 446Z" fill="black"/>
<path d="M730.5 465.5C709.3 465.5 700.667 483.167 699 492L695.836 494.109C695.001 494.666 694.5 495.602 694.5 496.606V503H766.5V496.606C766.5 495.602 765.999 494.666 765.164 494.109L762 492C760.333 483.167 751.7 465.5 730.5 465.5ZM730.5 465.5V449M742 446C742 452.075 737.075 457 731 457C724.925 457 720 452.075 720 446C720 439.925 724.925 435 731 435C737.075 435 742 439.925 742 446Z" stroke="black" stroke-width="7"/>
</svg>
