<svg width="1308" height="1004" viewBox="0 0 1308 1004" fill="none" xmlns="http://www.w3.org/2000/svg">
<path d="M879.124 880.828L895.5 872.193L885.353 730.541C883.986 711.46 896.321 694.082 914.785 689.077L966 675.193C966 662.924 973.779 652.004 985.375 647.996L1006.5 640.693C1006.5 589.026 1012.5 482.002 1039.5 477.193C1078.32 470.279 1100.5 493.193 1112.5 527.693C1119.67 548.321 1135 641.193 1135 641.193L1123.5 644.693V678.885C1123.5 695.998 1112.61 711.216 1096.42 716.742L992.5 752.193L1007.5 864.693L1008.71 875.238C1009.13 878.944 1006.23 882.193 1002.5 882.193V900.193H868.5L868.465 899.259C868.181 891.578 872.324 884.413 879.124 880.828Z" fill="black"/>
<path d="M882.709 886.649L903.5 878.133L892.334 727.71C891.269 713.368 900.532 700.288 914.414 696.531L999.5 673.503L928.741 721.489C918.875 728.18 913.906 740.076 916.083 751.796L939 875.193L921.773 881.368C916.144 883.386 912.251 888.555 911.866 894.523L911.5 900.193H876.5V895.903C876.5 891.844 878.953 888.188 882.709 886.649Z" fill="white"/>
<path d="M925.658 887.549L946 880.202L923.575 754.301C921.504 742.673 926.448 730.912 936.206 724.256L1014 671.193L1116.5 648.193V680.914C1116.5 693.66 1108.45 705.014 1096.42 709.227L985.172 748.193L1002.25 871.754C1002.87 876.233 997.5 880.867 997.5 885.389V900.212H919L919.057 896.787C919.126 892.636 921.753 888.96 925.658 887.549Z" fill="white"/>
<path d="M1100.5 515.693C1114.41 545.67 1126.5 639.193 1126.5 639.193L1015 663.193L974.79 673.6C973.761 673.867 972.824 672.931 973.089 671.902C975.517 662.459 982.698 654.968 992.031 652.144L1015 645.193L1080 622.193L1068.72 556.554C1068.59 555.821 1067.96 555.284 1067.21 555.284C1066.3 555.284 1065.59 556.077 1065.69 556.984L1072.5 617.693L1013 639.193C1013 537.833 1027.07 501.184 1033.43 489.789C1035.2 486.624 1038.2 484.501 1041.71 483.603C1053.56 480.574 1082.86 477.679 1100.5 515.693Z" fill="white"/>
<path d="M4 900V896.5H0.5V900H4ZM1304 900H1307.5V896.5H1304V900ZM1304 1000V1003.5H1307.5V1000H1304ZM4 1000H0.5V1003.5H4V1000ZM883.324 552.287L886.807 552.624L886.807 552.624L883.324 552.287ZM860.89 589.336V592.836C860.902 592.836 860.913 592.836 860.925 592.836L860.89 589.336ZM825.493 552.616L822.032 553.134L822.032 553.134L825.493 552.616ZM847.185 589.336L847.098 592.835L847.098 592.835L847.185 589.336ZM886.5 557.36V560.86H886.621L886.741 560.851L886.5 557.36ZM885.715 574.719L885.715 571.219H885.715V574.719ZM657.45 552.287L653.966 552.624L653.966 552.624L657.45 552.287ZM679.884 589.336L679.849 592.836C679.86 592.836 679.872 592.836 679.884 592.836V589.336ZM715.28 552.616L718.742 553.134L718.742 553.134L715.28 552.616ZM693.588 589.336L693.675 592.835L693.675 592.835L693.588 589.336ZM654.274 557.36L654.032 560.851L654.153 560.86H654.274V557.36ZM655.059 574.719L655.059 571.219L655.059 571.219L655.059 574.719ZM1122.41 710.041L1119.04 709.094L1119.04 709.094L1122.41 710.041ZM1157.45 585.296L1154.08 584.349L1154.08 584.349L1157.45 585.296ZM1177.44 590.697L1174.07 589.753L1174.07 589.753L1177.44 590.697ZM1138.61 729.309L1135.24 728.365L1135.24 728.365L1138.61 729.309ZM371.59 710.041L374.96 709.094L374.96 709.094L371.59 710.041ZM336.549 585.296L339.919 584.349L339.919 584.349L336.549 585.296ZM316.557 590.697L319.927 589.753L319.927 589.753L316.557 590.697ZM355.386 729.309L358.757 728.365L358.757 728.365L355.386 729.309ZM4 903.5H1304V896.5H4V903.5ZM1300.5 900V1000H1307.5V900H1300.5ZM1304 996.5H4V1003.5H1304V996.5ZM7.5 1000V900H0.5V1000H7.5ZM830.394 550.5H878.431V543.5H830.394V550.5ZM879.84 551.95C878.867 561.995 876.797 570.685 873.498 576.772C870.248 582.767 866.11 585.783 860.855 585.836L860.925 592.836C869.567 592.749 875.654 587.483 879.652 580.108C883.599 572.826 885.797 563.062 886.807 552.624L879.84 551.95ZM822.032 553.134C823.39 562.227 825.425 571.768 829.035 579.155C832.65 586.552 838.301 592.617 847.098 592.835L847.272 585.837C842.279 585.713 838.433 582.445 835.324 576.082C832.21 569.708 830.294 561.06 828.955 552.099L822.032 553.134ZM847.098 592.835C856.81 593.076 858.169 592.836 860.89 592.836V585.836C857.647 585.836 856.969 586.078 847.272 585.837L847.098 592.835ZM878.431 550.5C879.332 550.5 879.909 551.233 879.84 551.95L886.807 552.624C887.292 547.616 883.282 543.5 878.431 543.5V550.5ZM830.394 543.5C825.305 543.5 821.262 547.983 822.032 553.134L828.955 552.099C828.835 551.297 829.463 550.5 830.394 550.5V543.5ZM823 593.288H886.5V586.288H823V593.288ZM883.36 560.86H886.5V553.86H883.36V560.86ZM886.5 557.36C886.741 560.851 886.739 560.851 886.737 560.852C886.737 560.852 886.735 560.852 886.734 560.852C886.732 560.852 886.73 560.852 886.728 560.852C886.724 560.852 886.72 560.853 886.717 560.853C886.711 560.853 886.707 560.853 886.704 560.854C886.699 560.854 886.7 560.854 886.708 560.853C886.724 560.853 886.765 560.852 886.826 560.852C886.951 560.853 887.153 560.861 887.405 560.889C887.927 560.947 888.558 561.083 889.141 561.359C889.7 561.623 890.179 561.995 890.536 562.551C890.891 563.103 891.274 564.065 891.274 565.753H898.274C898.274 562.958 897.622 560.63 896.425 558.767C895.231 556.909 893.642 555.743 892.132 555.03C890.647 554.328 889.21 554.047 888.18 553.932C887.656 553.873 887.212 553.855 886.884 553.853C886.719 553.851 886.582 553.854 886.477 553.857C886.424 553.859 886.379 553.861 886.343 553.863C886.324 553.864 886.308 553.865 886.294 553.866C886.287 553.866 886.281 553.866 886.275 553.867C886.272 553.867 886.269 553.867 886.266 553.867C886.265 553.867 886.263 553.868 886.262 553.868C886.26 553.868 886.258 553.868 886.5 557.36ZM891.274 565.753C891.274 567.374 890.875 568.358 890.455 568.981C890.02 569.627 889.412 570.105 888.692 570.461C887.959 570.824 887.183 571.022 886.561 571.125C886.258 571.175 886.013 571.199 885.857 571.21C885.78 571.215 885.727 571.217 885.701 571.218C885.688 571.219 885.683 571.219 885.685 571.219C885.686 571.219 885.689 571.219 885.694 571.219C885.696 571.219 885.699 571.219 885.703 571.219C885.705 571.219 885.706 571.219 885.708 571.219C885.709 571.219 885.711 571.219 885.711 571.219C885.713 571.219 885.715 571.219 885.715 574.719C885.715 578.219 885.717 578.219 885.718 578.219C885.719 578.219 885.721 578.219 885.722 578.219C885.725 578.219 885.727 578.219 885.73 578.219C885.736 578.218 885.742 578.218 885.749 578.218C885.762 578.218 885.778 578.218 885.797 578.218C885.833 578.217 885.878 578.216 885.932 578.214C886.039 578.211 886.18 578.204 886.351 578.192C886.691 578.168 887.153 578.122 887.7 578.032C888.776 577.854 890.265 577.493 891.797 576.735C893.341 575.97 894.998 574.767 896.261 572.892C897.54 570.992 898.274 568.614 898.274 565.753H891.274ZM885.715 571.219H879.24V578.219H885.715V571.219ZM710.38 543.5H662.342V550.5H710.38V543.5ZM653.966 552.624C654.977 563.062 657.175 572.826 661.122 580.108C665.119 587.483 671.207 592.749 679.849 592.836L679.919 585.836C674.663 585.783 670.525 582.767 667.276 576.772C663.976 570.685 661.906 561.995 660.934 551.95L653.966 552.624ZM711.818 552.099C710.48 561.06 708.564 569.708 705.449 576.082C702.34 582.445 698.494 585.713 693.502 585.837L693.675 592.835C702.473 592.617 708.124 586.552 711.739 579.155C715.348 571.768 717.383 562.227 718.742 553.134L711.818 552.099ZM693.502 585.837C683.805 586.078 683.127 585.836 679.884 585.836V592.836C682.605 592.836 683.963 593.076 693.675 592.835L693.502 585.837ZM662.342 543.5C657.491 543.5 653.481 547.616 653.966 552.624L660.934 551.95C660.864 551.233 661.442 550.5 662.342 550.5V543.5ZM710.38 550.5C711.31 550.5 711.938 551.297 711.818 552.099L718.742 553.134C719.511 547.983 715.468 543.5 710.38 543.5V550.5ZM717.773 586.288H654.274V593.288H717.773V586.288ZM657.413 553.86H654.274V560.86H657.413V553.86ZM654.274 557.36C654.515 553.868 654.513 553.868 654.511 553.868C654.511 553.868 654.509 553.867 654.507 553.867C654.505 553.867 654.502 553.867 654.499 553.867C654.493 553.866 654.486 553.866 654.479 553.866C654.465 553.865 654.449 553.864 654.431 553.863C654.394 553.861 654.349 553.859 654.296 553.857C654.191 553.854 654.054 553.851 653.889 553.853C653.562 553.855 653.117 553.873 652.593 553.932C651.564 554.047 650.126 554.328 648.641 555.03C647.132 555.743 645.542 556.909 644.348 558.767C643.151 560.63 642.5 562.958 642.5 565.753H649.5C649.5 564.065 649.883 563.103 650.237 562.551C650.594 561.995 651.074 561.623 651.632 561.359C652.216 561.083 652.847 560.947 653.369 560.889C653.62 560.861 653.822 560.853 653.947 560.852C654.009 560.852 654.049 560.853 654.065 560.853C654.073 560.854 654.075 560.854 654.069 560.854C654.067 560.853 654.062 560.853 654.056 560.853C654.053 560.853 654.05 560.852 654.046 560.852C654.044 560.852 654.042 560.852 654.039 560.852C654.038 560.852 654.036 560.852 654.036 560.852C654.034 560.851 654.032 560.851 654.274 557.36ZM642.5 565.753C642.5 568.614 643.233 570.992 644.512 572.892C645.776 574.767 647.432 575.97 648.977 576.735C650.509 577.493 651.998 577.854 653.074 578.032C653.62 578.122 654.083 578.168 654.423 578.192C654.593 578.204 654.734 578.211 654.842 578.214C654.895 578.216 654.941 578.217 654.977 578.218C654.995 578.218 655.011 578.218 655.025 578.218C655.031 578.218 655.038 578.218 655.043 578.219C655.046 578.219 655.049 578.219 655.052 578.219C655.053 578.219 655.055 578.219 655.055 578.219C655.057 578.219 655.059 578.219 655.059 574.719C655.059 571.219 655.06 571.219 655.062 571.219C655.062 571.219 655.064 571.219 655.065 571.219C655.067 571.219 655.069 571.219 655.071 571.219C655.074 571.219 655.077 571.219 655.08 571.219C655.085 571.219 655.088 571.219 655.089 571.219C655.091 571.219 655.085 571.219 655.072 571.218C655.047 571.217 654.993 571.215 654.916 571.21C654.761 571.199 654.516 571.175 654.213 571.125C653.59 571.022 652.815 570.824 652.082 570.461C651.362 570.105 650.753 569.627 650.318 568.981C649.899 568.358 649.5 567.374 649.5 565.753H642.5ZM655.059 578.219H661.534V571.219H655.059V578.219ZM1100 715H1120.48V708H1100V715ZM1125.78 710.987L1160.82 586.242L1154.08 584.349L1119.04 709.094L1125.78 710.987ZM1167.08 581.5H1167.81V574.5H1167.08V581.5ZM1174.07 589.753L1135.24 728.365L1141.98 730.253L1180.81 591.642L1174.07 589.753ZM1135.72 728H1042V735H1135.72V728ZM1135.24 728.365C1135.3 728.149 1135.5 728 1135.72 728V735C1138.64 735 1141.2 733.06 1141.98 730.253L1135.24 728.365ZM1167.81 581.5C1172.12 581.5 1175.23 585.608 1174.07 589.753L1180.81 591.642C1183.22 583.033 1176.75 574.5 1167.81 574.5V581.5ZM1160.82 586.242C1161.61 583.438 1164.17 581.5 1167.08 581.5V574.5C1161.03 574.5 1155.72 578.525 1154.08 584.349L1160.82 586.242ZM1120.48 715C1122.95 715 1125.11 713.36 1125.78 710.987L1119.04 709.094C1119.22 708.447 1119.81 708 1120.48 708V715ZM1117.55 733.601L1147.55 905.601L1154.45 904.399L1124.45 732.399L1117.55 733.601ZM1042.55 732.399L1012.55 904.399L1019.45 905.601L1049.45 733.601L1042.55 732.399ZM374.96 709.094L339.919 584.349L333.18 586.242L368.221 710.987L374.96 709.094ZM326.922 574.5H326.186V581.5H326.922V574.5ZM313.187 591.642L352.016 730.253L358.757 728.365L319.927 589.753L313.187 591.642ZM486.5 721.5C486.5 725.09 483.59 728 480 728V735C487.456 735 493.5 728.956 493.5 721.5H486.5ZM352.016 730.253C352.802 733.06 355.361 735 358.275 735V728C358.499 728 358.696 728.149 358.757 728.365L352.016 730.253ZM326.186 574.5C317.246 574.5 310.775 583.033 313.187 591.642L319.927 589.753C318.766 585.608 321.882 581.5 326.186 581.5V574.5ZM339.919 584.349C338.283 578.525 332.972 574.5 326.922 574.5V581.5C329.835 581.5 332.392 583.438 333.18 586.242L339.919 584.349ZM480 715C483.59 715 486.5 717.91 486.5 721.5H493.5C493.5 714.044 487.456 708 480 708V715ZM373.516 708C374.188 708 374.778 708.447 374.96 709.094L368.221 710.987C368.887 713.36 371.051 715 373.516 715V708ZM369.552 732.399L339.552 904.399L346.448 905.601L376.448 733.601L369.552 732.399ZM444.552 733.601L474.552 905.601L481.448 904.399L451.448 732.399L444.552 733.601ZM480 708H373.516V715H480V708ZM358.275 735H480V728H358.275V735Z" fill="black"/>
<path d="M1063.16 473.086C1059.39 474.494 1052.35 474.996 1050.51 475C1050.51 475 1042.21 474.931 1037.37 473.086C1031.92 471.007 1028.89 468.977 1025.21 464.511C1022.72 461.489 1020.77 456.288 1019.89 453.658C1019.53 452.579 1019.28 451.47 1019.09 450.348L1014.99 426.194C1014.99 426.194 1014.5 422.702 1014.51 420.452C1014.53 415.101 1015.25 411.959 1017.43 407.054C1019.66 402.016 1021.61 399.319 1025.7 395.57C1030.05 391.574 1033.19 389.828 1038.83 387.945C1043.21 386.483 1045.88 386.038 1050.51 386C1055.47 386.167 1057.32 386.478 1062.06 387.945C1066.8 389.522 1071.64 392.318 1075.32 395.57C1079 398.822 1081.58 402.671 1083.59 407.054C1085.6 411.437 1086.51 415.669 1086.51 420.452C1086.51 422.255 1086.31 424.411 1086.02 426.194L1081.16 450.027C1080.91 451.256 1080.58 452.468 1080.14 453.644C1079.1 456.437 1076.94 461.821 1074.83 464.473C1071.91 468.149 1067.66 471.402 1063.16 473.086Z" fill="black"/>
<path d="M1060.7 466.387C1057.66 467.573 1051.99 467.996 1050.51 468C1050.51 468 1043.82 467.942 1039.93 466.387C1035.54 464.635 1033.09 462.925 1030.13 459.161C1028.18 456.687 1026.65 452.481 1025.91 450.21C1025.57 449.171 1025.34 448.105 1025.17 447.026L1021.9 426.871C1021.9 426.871 1021.5 423.928 1021.51 422.032C1021.53 417.523 1022.11 414.876 1023.86 410.742C1025.66 406.496 1027.23 404.224 1030.52 401.065C1034.03 397.697 1036.56 396.226 1041.1 394.639C1044.63 393.407 1046.78 393.032 1050.51 393C1054.51 393.141 1056 393.403 1059.81 394.639C1063.63 395.968 1067.53 398.324 1070.5 401.065C1073.46 403.805 1075.54 407.048 1077.16 410.742C1078.78 414.436 1079.51 418.002 1079.51 422.032C1079.51 423.552 1079.35 425.369 1079.12 426.871L1075.24 446.733C1075.01 447.917 1074.71 449.084 1074.31 450.219C1073.44 452.626 1071.75 456.961 1070.1 459.129C1067.75 462.227 1064.33 464.968 1060.7 466.387Z" fill="white"/>
<path d="M751 630H758V900H751V630Z" fill="black"/>
<path d="M775 630H782V900H775V630Z" fill="black"/>
<path d="M596 610C596 598.954 604.954 590 616 590H916C927.046 590 936 598.954 936 610C936 621.046 927.046 630 916 630H616C604.954 630 596 621.046 596 610Z" fill="black"/>
<path d="M603 610C603 602.82 608.82 597 616 597H916C923.18 597 929 602.82 929 610C929 617.18 923.18 623 916 623H616C608.82 623 603 617.18 603 610Z" fill="white"/>
</svg>
