<svg width="1300" height="1000" viewBox="0 0 1300 1000" fill="none" xmlns="http://www.w3.org/2000/svg">
<path d="M875.124 880.828L891.5 872.193L881.353 730.541C879.986 711.46 892.321 694.082 910.785 689.077L962 675.193C962 662.924 969.779 652.004 981.375 647.996L1002.5 640.693C1002.5 589.026 1008.5 482.002 1035.5 477.193C1074.32 470.279 1096.5 493.193 1108.5 527.693C1115.67 548.321 1131 641.193 1131 641.193L1119.5 644.693V678.885C1119.5 695.998 1108.61 711.216 1092.42 716.742L988.5 752.193L1003.5 864.693L1004.71 875.238C1005.13 878.944 1002.23 882.193 998.5 882.193V900.193H864.5L864.465 899.259C864.181 891.578 868.324 884.413 875.124 880.828Z" fill="black"/>
<path d="M878.709 886.649L899.5 878.133L888.334 727.71C887.269 713.368 896.532 700.288 910.414 696.531L995.5 673.503L924.741 721.489C914.875 728.18 909.906 740.076 912.083 751.796L935 875.192L917.773 881.368C912.144 883.386 908.251 888.555 907.866 894.523L907.5 900.192H872.5V895.903C872.5 891.844 874.953 888.187 878.709 886.649Z" fill="white"/>
<path d="M921.658 887.549L942 880.202L919.575 754.301C917.504 742.673 922.448 730.912 932.206 724.256L1010 671.193L1112.5 648.193V680.914C1112.5 693.66 1104.45 705.014 1092.42 709.227L981.172 748.193L998.247 871.754C998.645 874.634 996.407 877.202 993.5 877.202V900.212H915L915.057 896.787C915.126 892.636 917.753 888.96 921.658 887.549Z" fill="white"/>
<path d="M1096.5 515.693C1110.41 545.67 1122.5 639.193 1122.5 639.193L1011 663.193L970.79 673.6C969.761 673.867 968.824 672.931 969.089 671.902C971.517 662.459 978.698 654.968 988.031 652.144L1011 645.193L1076 622.193L1064.72 556.554C1064.59 555.821 1063.96 555.284 1063.21 555.284C1062.3 555.284 1061.59 556.077 1061.69 556.984L1068.5 617.693L1009 639.193C1009 537.833 1023.07 501.184 1029.43 489.789C1031.2 486.624 1034.2 484.501 1037.71 483.603C1049.56 480.574 1078.86 477.679 1096.5 515.693Z" fill="white"/>
<path d="M1059.16 473.086C1055.39 474.494 1048.35 474.996 1046.51 475C1046.51 475 1038.21 474.931 1033.37 473.086C1027.92 471.007 1024.89 468.977 1021.21 464.511C1018.72 461.489 1016.77 456.288 1015.89 453.658C1015.53 452.579 1015.28 451.47 1015.09 450.348L1010.99 426.194C1010.99 426.194 1010.5 422.702 1010.51 420.452C1010.53 415.101 1011.25 411.959 1013.43 407.054C1015.66 402.016 1017.61 399.319 1021.7 395.57C1026.05 391.574 1029.19 389.828 1034.83 387.945C1039.21 386.483 1041.88 386.038 1046.51 386C1051.47 386.167 1053.32 386.478 1058.06 387.945C1062.8 389.522 1067.64 392.318 1071.32 395.57C1075 398.822 1077.58 402.671 1079.59 407.054C1081.6 411.437 1082.51 415.669 1082.51 420.452C1082.51 422.255 1082.31 424.411 1082.02 426.194L1077.16 450.027C1076.91 451.256 1076.58 452.468 1076.14 453.644C1075.1 456.437 1072.94 461.821 1070.83 464.473C1067.91 468.149 1063.66 471.402 1059.16 473.086Z" fill="black"/>
<path d="M1056.7 466.387C1053.66 467.573 1047.99 467.996 1046.51 468C1046.51 468 1039.82 467.942 1035.93 466.387C1031.54 464.635 1029.09 462.925 1026.13 459.161C1024.18 456.687 1022.64 452.481 1021.91 450.21C1021.57 449.171 1021.34 448.105 1021.16 447.026L1017.9 426.871C1017.9 426.871 1017.5 423.928 1017.51 422.032C1017.52 417.523 1018.11 414.876 1019.86 410.742C1021.66 406.496 1023.23 404.224 1026.52 401.065C1030.03 397.697 1032.56 396.226 1037.1 394.639C1040.63 393.407 1042.78 393.032 1046.51 393C1050.51 393.141 1051.99 393.403 1055.81 394.639C1059.63 395.968 1063.53 398.324 1066.49 401.065C1069.46 403.805 1071.54 407.048 1073.16 410.742C1074.78 414.436 1075.51 418.002 1075.51 422.032C1075.51 423.552 1075.35 425.369 1075.12 426.871L1071.24 446.733C1071.01 447.917 1070.71 449.084 1070.3 450.219C1069.44 452.626 1067.75 456.961 1066.1 459.129C1063.75 462.227 1060.33 464.968 1056.7 466.387Z" fill="white"/>
<path d="M0 900H1300V1000H0V900Z" fill="black"/>
<path d="M592 610C592 598.954 600.954 590 612 590H912C923.046 590 932 598.954 932 610C932 621.046 923.046 630 912 630H612C600.954 630 592 621.046 592 610Z" fill="black"/>
<path d="M599 610C599 602.82 604.82 597 612 597H912C919.18 597 925 602.82 925 610C925 617.18 919.18 623 912 623H612C604.82 623 599 617.18 599 610Z" fill="white"/>
<path d="M747 630H754V900H747V630Z" fill="black"/>
<path d="M771 630H778V900H771V630Z" fill="black"/>
<path d="M1096 711.5H1116.48C1117.38 711.5 1118.17 710.904 1118.41 710.041L1153.45 585.296C1154.66 580.981 1158.6 578 1163.08 578H1163.81C1170.44 578 1175.23 584.321 1173.44 590.697L1134.61 729.309C1134.25 730.605 1133.07 731.5 1131.72 731.5H1038M1117 733L1147 905M1042 733L1012 905M368.999 733L338.999 905M443.999 733L473.999 905M369.515 711.5C368.619 711.5 367.832 710.904 367.589 710.041L332.549 585.296C331.337 580.981 327.403 578 322.921 578H322.186C315.563 578 310.77 584.321 312.556 590.697L351.386 729.309C351.748 730.605 352.929 731.5 354.274 731.5H475.999C481.522 731.5 485.999 727.023 485.999 721.5C485.999 715.977 481.522 711.5 475.999 711.5H369.515Z" stroke="black" stroke-width="7"/>
</svg>
