<svg width="1300" height="1000" viewBox="0 0 1300 1000" fill="none" xmlns="http://www.w3.org/2000/svg"><path fill-rule="evenodd" clip-rule="evenodd" d="M619 682v-10c0-11.046-8.954-20-20-20H107c-11.046 0-20 8.954-20 20v10H77c-11.046 0-20 8.954-20 20v20c0 11.046 8.954 20 20 20h10v158H0v100h1300V900H620V742h10c11.046 0 20-8.954 20-20v-20c0-11.046-8.954-20-20-20h-11Zm-540 7c-8.284 0-15 6.716-15 15v16c0 8.284 6.716 15 15 15h256c8.284 0 15-6.716 15-15v-16c0-8.284-6.716-15-15-15H79Zm15-15v8h243c6.85 0 12.895 3.444 16.5 8.694 3.605-5.25 9.65-8.694 16.5-8.694h242v-8c0-8.284-6.716-15-15-15H109c-8.284 0-15 6.716-15 15Zm278 15c-8.284 0-15 6.716-15 15v16c0 8.284 6.716 15 15 15h256c8.284 0 15-6.716 15-15v-16c0-8.284-6.716-15-15-15H372Zm-35 53c6.85 0 12.895-3.444 16.5-8.694 3.605 5.25 9.65 8.694 16.5 8.694h243v158H94V742h243Z" fill="#000"/></svg>