<svg width="1300" height="1000" viewBox="0 0 1300 1000" fill="none" xmlns="http://www.w3.org/2000/svg"><path fill-rule="evenodd" clip-rule="evenodd" d="M999.649 333.086c-3.769 1.408-10.807 1.91-12.649 1.914 0 0-8.301-.069-13.135-1.914-5.448-2.079-8.483-4.109-12.162-8.575-2.49-3.022-4.438-8.223-5.322-10.853-.362-1.079-.611-2.188-.801-3.31l-4.093-24.154s-.495-3.492-.487-5.742c.02-5.351.746-8.493 2.919-13.398 2.232-5.038 4.185-7.735 8.27-11.484 4.356-3.996 7.495-5.742 13.135-7.625 4.38-1.462 7.052-1.907 11.676-1.945 4.963.167 6.811.479 11.548 1.945 4.742 1.577 9.582 4.373 13.262 7.625 3.68 3.252 6.26 7.101 8.27 11.484s2.92 8.615 2.92 13.398c0 1.803-.2 3.959-.49 5.742l-4.86 23.833a25.09 25.09 0 0 1-1.01 3.617c-1.04 2.793-3.21 8.177-5.32 10.829-2.92 3.676-7.16 6.929-11.671 8.613Zm-2.46-6.699c-3.036 1.186-8.705 1.609-10.189 1.613 0 0-6.687-.058-10.581-1.613-4.389-1.752-6.834-3.462-9.797-7.226-1.949-2.474-3.485-6.68-4.224-8.951-.338-1.039-.567-2.105-.741-3.184l-3.265-20.155s-.399-2.943-.392-4.839c.016-4.509.601-7.156 2.351-11.29 1.799-4.246 3.371-6.518 6.663-9.677 3.508-3.368 6.037-4.839 10.581-6.426 3.527-1.232 5.68-1.607 9.405-1.639 3.998.141 5.487.403 9.302 1.639 3.818 1.329 7.718 3.685 10.688 6.426 2.96 2.74 5.04 5.983 6.66 9.677s2.35 7.26 2.35 11.29c0 1.52-.16 3.337-.39 4.839l-3.88 19.862a24.563 24.563 0 0 1-.93 3.486c-.87 2.407-2.56 6.742-4.21 8.91-2.35 3.098-5.77 5.839-9.401 7.258ZM1066 376c17.52 36.035 23.43 91.5 23.43 93.163 0 9.783-.19 20.339-.47 30.837h90.54c11.32 0 20.5 9.178 20.5 20.5 0 11.155-8.91 20.229-20 20.494V900h120v100H0V900h788V540.994c-11.091-.265-20-9.339-20-20.494 0-11.322 9.178-20.5 20.5-20.5h91.454c-.282-10.498-.464-21.054-.464-30.837 0-1.663 5.902-57.128 23.43-93.163 15.036-29.151 42.836-34.537 82.897-34.979 40.123.434 65.133 5.804 80.183 34.979Zm15.44 96.471-.11 27.529h-30.01l-2.81-30.909-7.46-50.009a1.234 1.234 0 0 0-1.21-1.07 1.235 1.235 0 0 0-1.24 1.324L1042 488l1.2 12H925.716l1.2-12 3.395-68.664a1.228 1.228 0 0 0-2.442-.254l-7.463 50.009-2.81 30.909h-30.014l-.106-27.529h.01s4.44-56.684 20.98-91.956c14.201-28.557 39.38-32.069 77.351-32.494 37.733.446 60.483 4.044 74.633 32.494 16.54 35.272 20.98 91.956 20.98 91.956h.01ZM1173 900V541H795v359h378ZM788.5 534c-7.456 0-13.5-6.044-13.5-13.5s6.044-13.5 13.5-13.5h391c7.46 0 13.5 6.044 13.5 13.5s-6.04 13.5-13.5 13.5h-391Z" fill="#000"/></svg>