<svg id="Capa_1" data-name="Capa 1" xmlns="http://www.w3.org/2000/svg" viewBox="0 0 1300 1000"><defs><style>.cls-1,.cls-3,.cls-7{fill:#fff;}.cls-2{fill:#262626;}.cls-3,.cls-4,.cls-5,.cls-6,.cls-7{stroke:#262626;}.cls-3,.cls-4,.cls-5,.cls-7{stroke-miterlimit:10;}.cls-3{stroke-width:9.94px;}.cls-4{fill:#b4b4b4;stroke-width:8px;}.cls-5,.cls-6{fill:none;}.cls-5{stroke-width:10.11px;}.cls-6{stroke-linecap:round;stroke-linejoin:round;}.cls-6,.cls-7{stroke-width:10px;}</style></defs><title>service-module--receive</title><path class="cls-1" d="M1184.05,975.62l0-31.65H1171.2l-20.78-260.25L1128.92,944h-12.67l-.23,31.65h-75.11l.19-12.6,22.08-19h-4.82l29.28-325.5H1073.9l27.53-169.31-49.37,54.37-95.63-35.19L966,444.61l76.29,18.69c18.67-43.9,46.15-65.07,66.2-75.13,22.59-11.33,40.69-11.46,41.45-11.46,35.45,0,66,22.09,88.44,63.9a253.47,253.47,0,0,1,23.09,62.65l.34,1.67-40.64,82.18,5.08,31.36h-13.74L1241.75,944h-6.83l24.2,19.1v12.55Zm28.7-440.29,11.41-33.86-23.48-40.77Z"/><path class="cls-2" d="M1149.9,381.71c81.92,0,106.63,122.53,106.63,122.53l-34.24,69.25-6-33,13.32-39.56-38.23-66.4,28.95,178.94H1207L1236.28,939H1220.5l33.62,26.54v5.12h-65.08l0-31.66h-13.26l-25.31-317-26.2,317h-13l-.22,31.66H1046l.08-5.28L1076.64,939h-12.81l29.28-325.49h-13.33l29.3-180.17-58.46,64.38L963,465.42l6-14.92,76.25,18.68c35-87.47,104.66-87.47,104.66-87.47m0-10c-.81,0-20.06.13-43.69,12A131.16,131.16,0,0,0,1069,411.8c-11.77,12.63-21.73,28-29.68,45.65l-68-16.66-8.43-2.06-3.23,8-6,14.92-3.84,9.56,9.66,3.56,87.64,32.25,6.32,2.33,4.54-5L1093.79,465l-23.88,146.86-1.89,11.6h14.15l-28.3,314.61-.71,7.93-13.63,11.76-3.4,2.93-.07,4.49-.08,5.28-.15,10.15H1121l.07-9.93.15-21.72h12.31l.76-9.18,16.06-194.32,15.51,194.29.73,9.21h12.49l0,21.64v10h85.1v-20l-3.8-3-13.26-10.47-.82-9.1-28.3-314.61h14.14l-1.87-11.59-3.88-24,4.93-10,34.23-69.24,1.52-3.07-.68-3.34a258.85,258.85,0,0,0-23.58-64c-23.33-43.53-55.44-66.54-92.85-66.54Zm64.56,142.88L1210,486.87,1218.7,502l-4.24,12.57Z"/><ellipse class="cls-3" cx="1150.51" cy="335.04" rx="23.5" ry="29"/><line class="cls-4" x1="1210.38" y1="617.98" x2="1090.13" y2="617.98"/><line class="cls-5" x1="1211.38" y1="618.97" x2="1088.35" y2="618.97"/><polyline class="cls-6" points="1169.62 382.04 1150.04 423.58 1130.8 382.04"/><line class="cls-6" x1="1150.03" y1="423.58" x2="1150.03" y2="616.03"/><rect class="cls-2" x="1163.16" y="429.72" width="22.81" height="13.31" rx="2" transform="translate(2349.12 872.76) rotate(-180)"/><rect class="cls-7" x="836.65" y="505.61" width="458.41" height="400" transform="translate(2131.71 1411.21) rotate(180)"/><rect class="cls-2" y="900" width="1300" height="100"/><path class="cls-7" d="M813.65,493.34h481.41a0,0,0,0,1,0,0v67.25a0,0,0,0,1,0,0H813.65a25,25,0,0,1-25-25V518.34A25,25,0,0,1,813.65,493.34Z"/><path class="cls-7" d="M152.17,255c0,16,10.52,29,23.5,29s23.5-13,23.5-29-10.52-29-23.5-29S152.17,239,152.17,255Z"/><polygon class="cls-1" points="136.47 895.84 142.21 864.32 130.74 864.27 142.95 671.87 138.82 518.55 214.16 518.55 208.15 698.47 198.34 864.36 197.3 864.36 211.25 877.23 211.25 895.84 136.47 895.84"/><path class="cls-2" d="M209,523.55l-5.83,174.63-9.53,161.18h-9.12l21.74,20.06v11.42H142.46l5.74-31.5-12.14-.05L148,672l-4-148.41h65m10.34-10H133.69l.27,10.27,4,148L126.08,858.66l-.67,10.59,10.61,0h.2l-3.6,19.76-2.14,11.79h85.77V875l-3.22-3-9.61-8.87.19-3.25,9.53-161.18v-.26L219,523.88l.34-10.33Z"/><path class="cls-1" d="M101.68,895.42l.6-31-13.12,0,28.21-170L128,538.55H88.29l59.37-225.71.07-.19c3.76-10.71,11.62-17.11,21-17.11A20.07,20.07,0,0,1,185.67,305c42.06,65.88,41.26,222,41.21,228.6l0,5H203.49l-16,148.76-29.71,177h-3.32l17.78,17.08-.14,14Z"/><path class="cls-2" d="M168.76,300.54a15.11,15.11,0,0,1,12.7,7.15c41.75,65.37,40.42,225.86,40.42,225.86H199L182.49,686.63l-29,172.67H142l25.17,24.19-.07,6.93H106.78l.6-31-12.32,0L122.35,694.9l11-161.35H94.77L152.45,314.3c3.36-9.58,10-13.76,16.31-13.76m0-10c-11.45,0-21.32,7.84-25.75,20.45l-.13.38-.1.39L85.1,531l-3.3,12.54h40.81L112.4,693.74l-27.21,164-1.92,11.61,11.76,0h2.16l-.41,20.83-.2,10.2H177l.1-9.9.07-6.93,0-4.32-3.11-3-11.46-11,.72-4.32,29-172.66.05-.29,0-.3L208,543.55H231.8l.08-9.92c0-1.66.28-41.22-4.61-89.5-6.64-65.66-19.22-113.38-37.38-141.83a25.07,25.07,0,0,0-21.13-11.76Z"/><path class="cls-1" d="M159.09,335s-7.12,74-2.17,107,14,86,14,86l19.41-.83L183.1,444c1.41-82.29,1.73-78.76-1-103.32"/><path class="cls-2" d="M159.09,335c-.41,16.22-.86,32.4-.91,48.56,0,8.07,0,16.14.19,24.19.11,4,.28,8,.45,12s.46,8,.84,11.94c.2,2,.42,3.93.69,5.88s.58,3.82.94,5.84l2.08,11.94,4.18,23.9,8.29,47.82L170.71,523l19.41-.81-4.74,5.39q-.9-10.39-1.71-20.79L182.05,486l-1.52-20.81-.73-10.4-.66-10.42,0-.3v-.11l1.07-25.84,1.27-25.83c.48-8.6.93-17.21,1.21-25.79s-.17-17.15-.56-25.79q1.15,6.38,2.1,12.79c.59,4.29,1,8.62,1.31,13,.54,8.65.74,17.29,1,25.91l.4,25.88.17,25.85v-.41L188.21,454l1.08,10.38,2.09,20.76,2,20.77q1,10.4,1.9,20.78l.46,5.17-5.2.23-19.4.84-4.4.19L166,528.8q-4-24-7.69-48-1.83-12-3.51-24.06c-.56-4-1.12-8-1.62-12.06-.26-2-.52-4.11-.71-6.18s-.32-4.15-.43-6.21c-.39-8.25-.39-16.42-.06-24.57s.77-16.26,1.44-24.36C154.79,367.18,156.56,351.05,159.09,335Z"/></svg>