<svg id="Capa_1" data-name="Capa 1" xmlns="http://www.w3.org/2000/svg" viewBox="0 0 1300 1000"><defs><style>.cls-1,.cls-3{fill:#fff;}.cls-2,.cls-3,.cls-4{stroke:#000;}.cls-2,.cls-3{stroke-miterlimit:10;stroke-width:0.5px;}.cls-4{fill:none;stroke-linejoin:round;stroke-width:8px;}</style></defs><title>service-module--take-photo</title><path d="M970.69,416.78l1.28,3.07,13.89,33.55h0l.36.86.58.44,15.74,12-.88.73h0l-1.77,1.49,1.44,1.93c8.24,11.17,16.49,22.31,24.66,33.52l12.28,16.8,6.14,8.4,3.07,4.19,1.54,2.1.76,1c.29.36.65.79,1,1.14a22.13,22.13,0,0,0,1.77,1.72,21.26,21.26,0,0,0,5.7,3.54,19.58,19.58,0,0,0,2.26.81,20.89,20.89,0,0,0,5.71.86,20.4,20.4,0,0,0,5.76-.66A21.49,21.49,0,0,0,1085.38,534l2.57-4.52,7.59-13.4,2.65-4.69c2.79-4.91,5.62-9.79,8.44-14.69.26-.45.52-.9.79-1.35l.21,11.93v.53l1.19,50.91v0l-10.35,77.06v.2l-2.3,38.47L1095,693.72l-.29,4.83c-.08,1.6-.1,3.21-.16,4.81l-.3,9.66L1093,751.63,1092,790.24l-.54,19.3c-.12,3.23-.1,6.44-.15,9.66l-.08,9.65-.38,38.62-.65,77.23v1.7l1.66,0,2.24,0-6.56,10.81-16,6.05-8.47,3.21c-2.82,1.07-5.66,2.12-8.47,3.23l-2.17.84V988h3.42l77.63,0h3.48v-3.47l0-10,0-10,.06-19.84,0,.17,0-.28v.11l11.27-129.51c.13-1.35.21-2.7.38-4l.51-4,1-8.07,2.05-16.15,4.1-32.28,7-54.86,7,54.86,4.11,32.28,2,16.15,1,8.07.51,4c.16,1.34.24,2.69.37,4l11.28,129.51v-.11l0,.28,0-.17.06,19.84,0,10,0,10V988h3.48l77.62,0h3.42V970.5l-2.18-.84c-2.8-1.11-5.64-2.16-8.47-3.23l-8.47-3.21-16-6.05-6.56-10.81,2.23,0,1.66,0v-1.7l-.65-77.23-.38-38.62-.08-9.65c0-3.22,0-6.43-.15-9.66l-.54-19.3-1.08-38.61L1232.22,713l-.3-9.66c-.07-1.6-.09-3.21-.17-4.81l-.29-4.83-1.15-19.29L1228,636v-.2l-10.34-77.06v.1l0-.23,0,.13,1.19-50.91v-.53l.23-13.11,6.5,21.64,9.8,32.7-2.57,43.74-2.31,39.67V632l0,.13,2.34,20.15.07.6.75.88h0l5.45,5.9,13.37,14.51,4.77,5.18,1,1.09,2.18,2.38,15.11-9.78-1.43-2.49h0l-13.27-24.15-3.74-6.77-3.05-5.56,2,0,1,0h.74l.33-1.75L1261,617l1.63-9,4.27-24.4,4.29-24.41,2.13-12.21c.18-1,.36-2,.53-3.07a20.85,20.85,0,0,0,.19-3.54,21.48,21.48,0,0,0-1.35-6.93l.1.31-29.61-85.61a44,44,0,0,0-6-10.38,46.91,46.91,0,0,0-4-4.49c-.36-.37-.69-.67-1-1l-.52-.5-.57-.53c-.38-.36-.76-.67-1.14-1s-.76-.66-1.15-1a74.89,74.89,0,0,0-9.89-6.5c-.68-.38-1.35-.74-2-1.1l-1.28-.65-.2-.11a100.55,100.55,0,0,0-15.76-6.25,129.24,129.24,0,0,0-72.72,0,100.83,100.83,0,0,0-15.75,6.25l-.21.11-1.28.65c-.68.36-1.35.72-2,1.1a74.24,74.24,0,0,0-9.89,6.5c-.39.3-.77.63-1.16,1s-.75.63-1.14,1l-.57.53-.51.5c-.35.33-.69.63-1,1a48.33,48.33,0,0,0-4,4.49c-.8,1-1.56,2.11-2.26,3.22-.1.13-.19.27-.28.41l-.09.16c-.25.4-.49.79-.73,1.2l-.61,1.07c-.37.68-.8,1.47-1.09,2.12l-1,2-7.72,16.33-13.75,29.06L1024,450.85l-6-18.9-.25-.74-.75-.62-28.09-23h0l-2.22-1.83-2.55,1.75-10.64,7.34ZM981,421l5.56-4.17,25.94,18.38,7.94,17.41.18.39.18.19h0l39.8,46.56,2.51,2.95,1.82-3.54h0l2.3-4.27,14.83-27.5,8.56-15.88,1.07-2,.27-.5.23-.41.5-.83c.37-.63.79-1.25,1.22-1.85a.86.86,0,0,0,.07-.1,32.17,32.17,0,0,1,2.14-2.82,40.2,40.2,0,0,1,3.36-3.55c.28-.26.66-.59,1-.88l.5-.46.42-.36.67-.54.2-.15v0c.38-.31.79-.62,1.21-.93,1.06-.8,2.18-1.56,3.33-2.28a69.47,69.47,0,0,1,7.24-4,90.85,90.85,0,0,1,15.71-5.7,113.28,113.28,0,0,1,28.18-3.53c.5,0,1,0,1.5,0h7.7q.75,0,1.5,0a113.42,113.42,0,0,1,28.19,3.53,91.05,91.05,0,0,1,15.7,5.7,68.47,68.47,0,0,1,7.24,4c1.15.72,2.28,1.48,3.33,2.28.42.31.84.62,1.21.93l0,0,.2.15.66.54.43.36.49.46,1,.88a41.72,41.72,0,0,1,3.36,3.55,34.75,34.75,0,0,1,5.17,8.23c.17.36.32.73.47,1.11l.23.57.25.64,1,2.62,2,5.25,4,10.49,7.94,21c.78,2.05,1.56,4.12,2.32,6.17,4.51,12,8.94,24,13.42,36l.1.34a15.39,15.39,0,0,1,1.06,7.73l-.46,3-1.89,12.22-3.76,24.44-1.26,8.18-2.51,16.28-1.49,9.15-2.24,13.83h-6.35l1.05,2.44.06.14,4,9.61,5.42,12.88,6.2,14.77-3.16,1.91-2.06-2-4.29-4.07-16.81-16L1237,637.58l-.82-5.73.1-1.9,4.4-81.55h0l0-.53-.15-.49-10.3-33.57,0-.14-7.35-25.17h-8.62l0,3.14-.3,16.78-.39,16.75c-.12,5.59-.31,11.19-.47,16.77l-.5,16.78v.21l0,.32,2.24,19.36,2.1,19.37,2.15,19.35,2.34,19.2,0-.56,0,.69v-.13l1,19q.49,9.63,1.08,19.24c.72,12.84,1.66,25.66,2,38.53l2.92,77.1.75,19.27c.14,3.23.15,6.44.23,9.65l.2,9.65.78,38.59c.47,24.89,1.08,49.78,1.65,74.66l-2.43.1h-3.74l1.58,3.5,6.84,15.18.47,1,1.16.47,30.87,12.42-.81,2.92-63.61-.43-3.62,0h-1.31l-.83-16.58c-.18-2.06-.33-4.13-.44-6.19-.1-1.66-.15-3.32-.23-5l-.08-3.43-.09-1.77,0-1.09h0l-5.77-63.79-2.77-32.45-1.37-16.23-1.29-16.23c-.11-1.36-.18-2.72-.35-4.06l-.48-4-1-8.08-1.9-16.18-3.68-32.35c-2.35-21.6-4.71-43.18-6.72-64.82l-.27-2.81h-13.72l-.27,2.81c-2,21.64-4.37,43.22-6.72,64.82l-3.68,32.35-1.89,16.18-1,8.08-.48,4c-.16,1.34-.23,2.7-.34,4.06l-1.3,16.23-1.37,16.23-2.77,32.45-5.76,63.79h0l-.06,1.09-.09,1.77-.08,3.43c-.07,1.66-.13,3.32-.23,5-.1,2.06-.25,4.13-.43,6.19l-.84,16.58h-1.31l-3.62,0-63.61.43-.81-2.92,30.88-12.42,1.15-.47.48-1,6.84-15.18,1.57-3.5h-3.73l-2.44-.1c.57-24.88,1.19-49.77,1.65-74.66l.78-38.59.2-9.65c.08-3.21.09-6.42.24-9.65l.75-19.27,2.92-77.1c.33-12.87,1.27-25.69,2-38.53q.59-9.6,1.07-19.24l1-19v.13l0-.69,0,.56,2.34-19.2,2.16-19.35,2.09-19.37,2.24-19.36,0-.32v-.21l-.5-16.78c-.16-5.58-.34-11.18-.46-16.77l-.4-16.75-.29-16.78-.06-3.14h-8.62l-23.25,43.77,0,0a16.76,16.76,0,0,1-2.13,2.7,16.45,16.45,0,0,1-7.54,4.43,16.22,16.22,0,0,1-12.18-1.57,16.77,16.77,0,0,1-4-3.21c-.26-.3-.43-.5-.69-.82l0-.07-.71-1-1.54-2.1-3-4.19-6.11-8.41-12.22-16.8-23-31.58,1.16-1.06,2.39-2.16-2.54-2.09h0l-16.86-13.8Z"/><path class="cls-1" d="M1008.14,464.4l2.54,2.09-2.39,2.16-1.16,1.06,23,31.58,12.22,16.8,6.11,8.41,3,4.19,1.54,2.1.71,1,0,.07c.26.32.43.52.69.82a16.77,16.77,0,0,0,4,3.21,16.22,16.22,0,0,0,12.18,1.57,16.45,16.45,0,0,0,7.54-4.43,16.76,16.76,0,0,0,2.13-2.7l0,0,23.25-43.77h8.62l.06,3.14.29,16.78.4,16.75c.12,5.59.3,11.19.46,16.77l.5,16.78v.21l0,.32-2.24,19.36L1109.59,598l-2.16,19.35-2.34,19.2-1,19q-.49,9.63-1.07,19.24c-.73,12.84-1.67,25.66-2,38.53l-2.92,77.1-.75,19.27c-.15,3.23-.16,6.44-.24,9.65l-.2,9.65-.78,38.59c-.46,24.89-1.08,49.78-1.65,74.66l2.44.1h3.73l-1.57,3.5L1092.25,961l-.48,1-1.15.47-30.88,12.42.81,2.92,63.61-.43,3.62,0h1.31l.84-16.58c.18-2.06.33-4.13.43-6.19.1-1.66.16-3.32.23-5l.08-3.43.09-1.77.06-1.09h0l5.76-63.79,2.77-32.45,1.37-16.23,1.3-16.23c.11-1.36.18-2.72.34-4.06l.48-4,1-8.08,1.89-16.18,3.68-32.35c2.35-21.6,4.72-43.18,6.72-64.82l.27-2.81h13.72l.27,2.81c2,21.64,4.37,43.22,6.72,64.82l3.68,32.35,1.9,16.18,1,8.08.48,4c.17,1.34.24,2.7.35,4.06l1.29,16.23,1.37,16.23,2.77,32.45,5.77,63.79h0l0,1.09.09,1.77.08,3.43c.08,1.66.13,3.32.23,5,.11,2.06.26,4.13.44,6.19l.83,16.58h1.31l3.62,0,63.61.43.81-2.92-30.87-12.42-1.16-.47-.47-1-6.84-15.18-1.58-3.5h3.74l2.43-.1c-.57-24.88-1.18-49.77-1.65-74.66l-.78-38.59-.2-9.65c-.08-3.21-.09-6.42-.23-9.65l-.75-19.27-2.92-77.1c-.34-12.87-1.28-25.69-2-38.53q-.6-9.6-1.08-19.24l-1-19-2.34-19.2L1216.9,598l-2.1-19.37-2.24-19.36,0-.32v-.21l.5-16.78c.16-5.58.35-11.18.47-16.77l.39-16.75.3-16.78,0-3.14h8.62l7.35,25.17,0,.14,10.3,33.57.15.49,0,.53h0l-4.4,81.55-.1,1.9.82,5.73,1.78,12.46,16.81,16,4.29,4.07,2.06,2,3.16-1.91-6.2-14.77-5.42-12.88-4-9.61-.06-.14-1.05-2.44h6.35l2.24-13.83,1.49-9.15,2.51-16.28,1.26-8.18,3.76-24.44,1.89-12.22.46-3a15.39,15.39,0,0,0-1.06-7.73l-.1-.34c-4.48-12-8.91-24-13.42-36-.76-2.05-1.54-4.12-2.32-6.17l-7.94-21-4-10.49-2-5.25-1-2.62-.25-.64-.23-.57c-.15-.38-.3-.75-.47-1.11a34.75,34.75,0,0,0-5.17-8.23,41.72,41.72,0,0,0-3.36-3.55l-1-.88-.49-.46-.43-.36-.66-.54-.2-.15,0,0c-.37-.31-.79-.62-1.21-.93-1-.8-2.18-1.56-3.33-2.28a68.47,68.47,0,0,0-7.24-4,91.05,91.05,0,0,0-15.7-5.7,113.42,113.42,0,0,0-28.19-3.53q-.75,0-1.5,0h-7.7c-.49,0-1,0-1.5,0a113.28,113.28,0,0,0-28.18,3.53,90.85,90.85,0,0,0-15.71,5.7,69.47,69.47,0,0,0-7.24,4c-1.15.72-2.27,1.48-3.33,2.28-.42.31-.83.62-1.21.93v0l-.2.15-.67.54-.42.36-.5.46c-.33.29-.71.62-1,.88a40.2,40.2,0,0,0-3.36,3.55,32.17,32.17,0,0,0-2.14,2.82.86.86,0,0,1-.07.1c-.43.6-.85,1.22-1.22,1.85l-.5.83-.23.41-.27.5-1.07,2L1082,467.39l-14.83,27.5-2.3,4.27h0l-1.82,3.54-2.51-2.95-39.8-46.56h0l-.18-.19-.18-.39-7.94-17.41-25.94-18.38L981,421l10.32,29.62,16.86,13.8Z"/><path d="M1129.05,345.63a34.06,34.06,0,0,0,.23,3.88c.09.69.19,1.31.29,1.91l.38,1.81c.6,3.52,1.32,7.11,2,10.58l3.06,15.48.22.78a25.71,25.71,0,0,0,2.46,5.78,25.25,25.25,0,0,0,8.76,8.88,26,26,0,0,0,5.72,2.54c1.09.33,2.07.54,3,.73s1.91.35,2.9.48a43,43,0,0,0,10.79,0c1-.13,2-.29,2.91-.48s1.88-.4,3-.73a26.15,26.15,0,0,0,5.71-2.54,25.34,25.34,0,0,0,8.76-8.88,25.71,25.71,0,0,0,2.46-5.78l.21-.75.46-2.2,2.61-13.27c.69-3.48,1.4-7.08,2-10.64l.37-1.79c.11-.6.2-1.22.28-1.91a34.05,34.05,0,0,0,.25-3.85c0-.43,0-.83,0-1.24,0-.85-.06-1.73-.15-2.6l-.4-2.84c0-.24-.09-.46-.15-.69L1197,338a35.14,35.14,0,0,0-6.55-13.89,34.44,34.44,0,0,0-12-9.7,33.63,33.63,0,0,0-30.14,0,34.36,34.36,0,0,0-12,9.71,34.73,34.73,0,0,0-6.54,13.89l-.07.27a6,6,0,0,0-.16.68l-.4,2.85c-.09.87-.12,1.75-.15,2.6C1129.08,344.83,1129.06,345.23,1129.05,345.63Zm7.35.06c0-.36.08-.77.11-1.18,0-.63.1-1.23.19-1.83l.43-2.25c0-.13.08-.27.11-.41l.09-.27a26.89,26.89,0,0,1,5.54-10.44,26.06,26.06,0,0,1,19.24-9h1.52l1.42,0a26.14,26.14,0,0,1,19,9,26.9,26.9,0,0,1,5.53,10.43l.09.28c0,.14.08.28.11.42l.43,2.27c.1.57.14,1.17.19,1.8,0,.41.07.82.11,1.23a25.5,25.5,0,0,1,0,3c0,.5-.09,1-.15,1.51l-.25,1.57c-.15.87-.34,1.76-.54,2.62s-.39,1.8-.54,2.71l-3.91,20.5-.14.52a18.84,18.84,0,0,1-1.75,4.18,18.18,18.18,0,0,1-10.5,8.25c-.78.23-1.68.43-2.3.55s-1.55.29-2.43.41a34.7,34.7,0,0,1-4.48.28,35.14,35.14,0,0,1-4.51-.28c-.87-.12-1.66-.25-2.43-.41-.61-.12-1.52-.32-2.29-.55a18.65,18.65,0,0,1-4.17-1.84,17.74,17.74,0,0,1-8.07-10.59l-.16-.56-3.9-20.47c-.15-.9-.35-1.81-.54-2.7s-.39-1.74-.54-2.62l-.25-1.57c-.06-.5-.12-1-.15-1.51A28.59,28.59,0,0,1,1136.4,345.69Z"/><path class="cls-1" d="M1136.45,348.74c0,.5.09,1,.15,1.51l.25,1.57c.15.88.35,1.77.54,2.62s.39,1.8.54,2.7l3.9,20.47.16.56a17.74,17.74,0,0,0,8.07,10.59,18.65,18.65,0,0,0,4.17,1.84c.77.23,1.68.43,2.29.55.77.16,1.56.29,2.43.41a35.14,35.14,0,0,0,4.51.28,34.7,34.7,0,0,0,4.48-.28c.88-.12,1.68-.25,2.43-.41s1.52-.32,2.3-.55a18.18,18.18,0,0,0,10.5-8.25,18.84,18.84,0,0,0,1.75-4.18l.14-.52,3.91-20.5c.15-.91.35-1.82.54-2.71s.39-1.75.54-2.62l.25-1.57c.06-.5.12-1,.15-1.51a25.5,25.5,0,0,0,0-3c0-.41-.07-.82-.11-1.23-.05-.63-.09-1.23-.19-1.8l-.43-2.27c0-.14-.07-.28-.11-.42l-.09-.28a26.9,26.9,0,0,0-5.53-10.43,26.14,26.14,0,0,0-19-9l-1.42,0h-1.52a26.06,26.06,0,0,0-19.24,9,26.89,26.89,0,0,0-5.54,10.44l-.09.27c0,.14-.08.28-.11.41l-.43,2.25c-.09.6-.14,1.2-.19,1.83,0,.41-.06.82-.11,1.18A28.59,28.59,0,0,0,1136.45,348.74Z"/><path d="M1147.43,466c-2.42-.32-4.85-.49-7.28-.61s-4.85-.17-7.28-.18l-3.64,0c-1.21.05-2.43.06-3.64.13-2.43.12-4.85.29-7.28.63v8.39c2.43.34,4.85.52,7.28.63,1.21.07,2.43.09,3.64.13l3.64,0c2.43,0,4.85-.06,7.28-.18s4.86-.29,7.28-.62Z"/><path d="M970.65,416.8l1.27,3.07,13.9,33.57h0l.36.85.58.45,15.7,11.95,0,0-.87.73h0l-.87.73-.9.76,1.43,1.93q12.38,16.75,24.67,33.54l12.28,16.8,6.15,8.4,3.06,4.19,1.54,2.1.77,1.06c.28.35.64.79,1,1.13a20.53,20.53,0,0,0,1.77,1.72,21.55,21.55,0,0,0,5.7,3.55,17.82,17.82,0,0,0,2.26.8,21.37,21.37,0,0,0,5.72.87,20.29,20.29,0,0,0,5.75-.66A21.44,21.44,0,0,0,1085.37,534l2.57-4.52,7.59-13.41,2.65-4.68c2.79-4.92,5.62-9.8,8.45-14.7l.78-1.35.22,11.93v.54l1.19,50.92,0-.13,0,.23v-.1l-10.35,77.09v.2l-2.3,38.47-1.15,19.3-.28,4.82c-.09,1.6-.11,3.21-.17,4.82l-.3,9.66L1093,751.76l-1.09,38.61-.54,19.31c-.11,3.23-.1,6.44-.15,9.66l-.08,9.66-.38,38.63-.65,77.26v1.69h1.66l2.24,0-6.57,10.81-16,6.06-8.48,3.21c-2.82,1.07-5.66,2.12-8.47,3.22l-2.18.85v17.46h3.42l77.65,0h3.48v-3.47l0-10,0-10,.06-19.84v0l11.27-129.56c.13-1.35.22-2.7.39-4l.5-4,1-8.07,2.05-16.15,4.1-32.3,7-54.88,7,54.88,4.11,32.3,2.05,16.15,1,8.07.51,4c.17,1.34.25,2.69.38,4l11.28,129.56v-.11l0,.27,0-.16.06,19.84,0,10,0,10v3.47h3.48l77.64,0h3.43V970.69l-2.18-.85c-2.8-1.1-5.64-2.15-8.47-3.22l-8.47-3.21-16-6.06-6.57-10.81,2.24,0h1.65v-1.69l-.64-77.26-.39-38.63-.08-9.66c0-3.22,0-6.43-.15-9.66l-.54-19.31-1.08-38.61-1.23-38.63-.3-9.66c-.06-1.61-.09-3.22-.17-4.82l-.29-4.82-1.15-19.3-2.29-38.47v-.2l-10.35-77.09v0l1.19-50.92v-.54l.24-13.1,6.5,21.64,9.8,32.71-2.57,43.74L1230.54,632h0v.08l0,.13h0l2.34,20.14.07.61.75.87h0l5.45,5.92,13.38,14.5,4.77,5.18,1,1.09,2.19,2.38,15.11-9.78-1.42-2.49h0l-13.28-24.16-3.74-6.77-3-5.48,0-.07,2,0,1,0h.74l.32-1.75,2.79-15.39,1.63-9,4.28-24.41,4.28-24.41,2.14-12.21c.17-1,.35-2,.53-3.07a21,21,0,0,0,.19-3.54,21.77,21.77,0,0,0-1.36-6.94l.1.31-29.61-85.62a43.19,43.19,0,0,0-6-10.39,48.28,48.28,0,0,0-4-4.5c-.36-.36-.7-.66-1-1l-.51-.5-.58-.52c-.37-.36-.76-.68-1.14-1s-.77-.64-1.15-.94a73.11,73.11,0,0,0-9.9-6.51c-.67-.37-1.34-.74-2-1.1-.42-.22-.85-.44-1.28-.64l-.21-.12a100.6,100.6,0,0,0-15.76-6.26,129.28,129.28,0,0,0-72.73,0,100.21,100.21,0,0,0-15.76,6.26,1.19,1.19,0,0,0-.22.12c-.43.2-.86.42-1.28.64l-2,1.1a73.11,73.11,0,0,0-9.9,6.51c-.39.3-.77.61-1.15.94s-.76.65-1.15,1l-.57.52-.51.5c-.35.34-.69.64-1,1a49.78,49.78,0,0,0-4,4.5c-.8,1-1.56,2.11-2.26,3.21l-.28.42-.09.16c-.25.39-.49.79-.73,1.19s-.41.72-.61,1.08c-.37.68-.8,1.47-1.1,2.12l-1,2-7.73,16.31-13.75,29.07L1024,450.88l-6-18.9-.25-.73-.76-.63-28.09-23h0l-2.22-1.82-2.55,1.74-10.64,7.35Zm213.49,4.91-20.67,31.7-21-31.71a119.59,119.59,0,0,1,15.39-1c.5,0,1,0,1.5,0h7.71c.5,0,1,0,1.49,0A120.25,120.25,0,0,1,1184.14,421.71Zm52.39,212.52H1250l3.52,8.37,5.41,12.89,6.21,14.77-3.16,1.91-2.07-2-4.29-4.07-16.8-16L1237,637.68Zm-15.86-3.81c-11.72-.74-44.38-2.69-54.44-3.3l.22-19.17.14-21.37.12-42.74-.12-42.74-.13-21.37-.22-18.31,23.94-38.72q3.35.63,6.61,1.5a90.92,90.92,0,0,1,15.72,5.69,68.47,68.47,0,0,1,7.24,4c1.15.73,2.28,1.48,3.33,2.29.42.31.83.61,1.21.93h0l.19.15c.24.19.47.37.67.55l.43.36.49.45c.33.29.71.62,1,.89a38.93,38.93,0,0,1,3.36,3.55,35.34,35.34,0,0,1,5.17,8.22c.17.37.32.74.47,1.11l.23.58.25.63,1,2.63,2,5.25,4,10.5,7.94,21c.78,2.05,1.56,4.11,2.32,6.18,4.51,12,8.94,24,13.42,36l.1.33a16,16,0,0,1,1.14,5.09,16.65,16.65,0,0,1-.09,2.64l-.45,3L1266,558.5,1262.22,583l-1.26,8.17-2.51,16.29-1.49,9.15-2,12.36-10.53-1.08-8,.81,4.32-80.2h0l0-.54-.16-.47-10.3-33.6,0-.14-7.36-25.17h-8.62l-.06,3.14-.29,16.78-.39,16.77c-.12,5.58-.31,11.18-.48,16.77l-.49,16.77V559l0,.32,2.23,19.35,2.1,19.37,2.16,19.37Zm-24.88,315.16,31.44,0,.19.43,6.84,15.19.48,1,1.15.47,30.89,12.43L1266,978l-63.62-.42-3.63,0h-1.31l-.83-16.58q-.27-3.11-.44-6.19c-.1-1.66-.15-3.32-.23-5l-.08-3.43Zm-96.71.41.19-.43,31.44,0,0,.8-.07,3.43c-.08,1.66-.14,3.32-.23,5-.12,2.06-.27,4.12-.43,6.19l-.85,16.58h-1.31l-3.62,0-63.62.42-.82-2.91,30.89-12.43,1.15-.47.48-1ZM1105,638.32l116.51,0,.9,17.32c.33,6.41.68,12.84,1.08,19.25.72,12.84,1.66,25.67,2,38.53l2.92,77.12.74,19.29c.15,3.22.16,6.43.24,9.65l.2,9.65.78,38.6c.44,23.78,1,47.55,1.58,71.32l-18.38-1-18.29,1-5.36-59.33-2.77-32.46L1185.78,831l-1.29-16.23c-.12-1.36-.18-2.72-.35-4.07l-.49-4-1-8.09-1.9-16.18L1177.11,750c-2.35-21.61-4.71-43.2-6.72-64.84l-.28-2.82h-2.89l-4,0-4,0h-2.89l-.27,2.82c-2,21.64-4.37,43.23-6.72,64.84l-3.68,32.36-1.9,16.18-1,8.09-.48,4c-.17,1.35-.24,2.71-.35,4.07L1140.73,831l-1.37,16.24-2.77,32.46-5.37,59.3-17.75-1-18.91,1.08c.55-23.78,1.13-47.57,1.58-71.35l.77-38.6.2-9.65c.08-3.22.09-6.43.25-9.65l.74-19.29L1101,713.4c.34-12.86,1.28-25.69,2-38.53.4-6.41.74-12.84,1.07-19.25Zm-97.89-168.54,8.6-6.14,7.33-7.7,37.49,43.86,2.51,3,1.82-3.54h0l2.3-4.27L1082,467.43l8.56-15.88,1.07-2,.27-.5.24-.42.48-.82c.38-.64.8-1.25,1.23-1.85l.07-.11c.66-1,1.37-1.91,2.13-2.81a39,39,0,0,1,3.37-3.55c.28-.27.66-.6,1-.89l.5-.45.42-.36c.2-.18.43-.36.67-.55l.2-.15h0c.39-.32.79-.62,1.22-.93,1-.81,2.18-1.56,3.33-2.29a69.32,69.32,0,0,1,7.23-4,91.53,91.53,0,0,1,15.72-5.69c2.23-.59,4.47-1.09,6.73-1.52l24.24,38.62-.21,18.43-.14,21.37-.11,42.74.11,42.74.14,21.37.22,19.15-54.85,3.34,1.59-13,2.16-19.37,2.09-19.37,2.24-19.35,0-.32v-.23l-.5-16.77c-.16-5.59-.35-11.19-.47-16.77l-.4-16.77-.29-16.78,0-3.14h-8.62l-23.26,43.78,0,0a16.77,16.77,0,0,1-2.12,2.71,16.52,16.52,0,0,1-7.55,4.43,16.32,16.32,0,0,1-12.19-1.58,16.67,16.67,0,0,1-4-3.21c-.26-.3-.43-.5-.69-.82l0-.07-.72-1-1.53-2.1-3.06-4.19-6.1-8.41-12.23-16.81ZM980.9,421l5.57-4.18,25.94,18.39,7.43,16.27-13.32,11.65-15.28-12.52Z"/><path d="M1129,345.64a34.13,34.13,0,0,0,.25,3.88c.08.69.18,1.31.29,1.9l.37,1.83c.61,3.52,1.32,7.1,2,10.57l3.07,15.49.22.78a25.22,25.22,0,0,0,16.93,17.2c1.1.33,2.08.55,3,.73s1.92.35,2.92.48a41.68,41.68,0,0,0,10.78,0c1-.13,2-.29,2.92-.48s1.87-.4,3-.73a25.76,25.76,0,0,0,5.72-2.54,25.25,25.25,0,0,0,11.22-14.66l.21-.75.46-2.2,2.61-13.28c.69-3.48,1.4-7.08,2-10.64l.37-1.79c.11-.6.2-1.22.29-1.91a36.49,36.49,0,0,0,.24-3.85c0-.43,0-.84-.05-1.24,0-.85-.06-1.73-.15-2.6l-.4-2.85c0-.23-.09-.46-.15-.68l-.07-.29a35.14,35.14,0,0,0-6.55-13.89,35,35,0,0,0-19.3-12.36,31.45,31.45,0,0,0-15.5,0,35.09,35.09,0,0,0-7.32,2.65,34.62,34.62,0,0,0-12,9.71,35.11,35.11,0,0,0-6.55,13.9l-.07.28c0,.22-.11.45-.14.67l-.41,2.86c-.09.87-.12,1.75-.15,2.6C1129.08,344.84,1129.06,345.24,1129,345.64Zm45.65-23.2a25.87,25.87,0,0,1,9.36,6.87,27,27,0,0,1,5.54,10.44c0,.1.06.19.08.28a3.31,3.31,0,0,1,.12.42l.43,2.26c.09.58.14,1.18.19,1.81,0,.41.07.82.11,1.22a27.78,27.78,0,0,1,0,3c0,.51-.09,1-.15,1.52l-.25,1.56c-.15.88-.35,1.77-.53,2.63s-.4,1.8-.55,2.71l-3.91,20.51-.15.51a18,18,0,0,1-1.75,4.19,18.21,18.21,0,0,1-6.33,6.4,18,18,0,0,1-4.16,1.85c-.78.23-1.68.43-2.3.56s-1.56.28-2.44.4a35,35,0,0,1-9,0c-.87-.12-1.66-.25-2.43-.4-.61-.13-1.51-.33-2.3-.56A17.94,17.94,0,0,1,1142,378.19l-.16-.57-3.9-20.47c-.15-.9-.35-1.82-.54-2.7s-.39-1.75-.53-2.62l-.26-1.58c-.06-.49-.11-1-.15-1.51a28.22,28.22,0,0,1,0-3c0-.37.08-.78.11-1.19,0-.63.1-1.23.19-1.83l.43-2.25c0-.14.08-.27.12-.41a2.29,2.29,0,0,0,.08-.28,27.09,27.09,0,0,1,5.54-10.44,25.9,25.9,0,0,1,9.37-6.87,25.31,25.31,0,0,1,9.88-2.13l.56,0h1l1.41,0A25.81,25.81,0,0,1,1174.69,322.44Z"/><polygon points="1254.14 634.15 1254.18 634.22 1257.52 634.22 1257.14 634.21 1256.18 634.19 1254.14 634.15"/><polygon points="1000.75 468.19 1000.76 468.2 1001.63 467.47 1001.63 467.46 1002.5 466.73 1002.46 466.7 1000.75 468.19"/><path d="M966.21,412.68h-5.65a5,5,0,0,1,4.63-.53,4.84,4.84,0,0,1,1,.53Z"/><path class="cls-1" d="M965.19,412.14a5,5,0,0,0-4.63.53h5.64A4.84,4.84,0,0,0,965.19,412.14Z"/><path class="cls-1" d="M920.2,361.21v51.46h90.1V361.21Zm43.18,45.09a20,20,0,1,1,20-20A20.05,20.05,0,0,1,963.38,406.3Z"/><path class="cls-2" d="M963.38,422.4l-.1.28h.2Z"/><path class="cls-2" d="M1006.91,351.23H1004v-9.37H991.65v9.37h-4.29v-4.08a7.6,7.6,0,0,0-7.56-7.38H968.93v0l-19.56,0H946.7a7.23,7.23,0,0,0-1.46.2,8.09,8.09,0,0,0-2.68,1.24,7.62,7.62,0,0,0-3,4.88c0,.25-.09.49-.11.73v4.45H923.62a10.48,10.48,0,0,0-10.47,10.47v50.51a10.49,10.49,0,0,0,10.47,10.47h32.11L916.56,523.56l0,.13,0,.06a4.59,4.59,0,1,0,8.62,3.16l38.17-104.23.1-.28.1.28,38.1,104.26,0,.09a4.75,4.75,0,1,0,8.85-3.46l0-.1L971,422.68h35.87a10.49,10.49,0,0,0,10.47-10.47V361.7A10.48,10.48,0,0,0,1006.91,351.23Zm-61.74-3.79v-.1h0v0h0a.56.56,0,0,1,.07-.16.86.86,0,0,1,.13-.14.26.26,0,0,1,.16-.07.1.1,0,0,1,.09,0h3.75l19.73,0v0h12.07a.52.52,0,0,1,.43.23l.06.09a.65.65,0,0,1,0,.19v3.86H945.17Zm65.13,65.23H920.2V361.21h90.1Z"/><path class="cls-3" d="M920.2,361.21v51.46h90.1V361.21Zm43.18,5a20,20,0,1,1-20,20A20.06,20.06,0,0,1,963.38,366.24Z"/><path class="cls-3" d="M981.71,351.23H945.17v-3.89h0v0h0a.56.56,0,0,1,.07-.16.86.86,0,0,1,.13-.14.26.26,0,0,1,.16-.07.1.1,0,0,1,.09,0h3.75l19.73,0v0h12.07a.52.52,0,0,1,.43.23l.06.09a.65.65,0,0,1,0,.19Z"/><path class="cls-2" d="M963.38,366.24a20,20,0,1,0,20,20A20.06,20.06,0,0,0,963.38,366.24Zm0,32.06a12,12,0,1,1,12-12A12,12,0,0,1,963.38,398.3Z"/><circle class="cls-3" cx="963.38" cy="386.27" r="12.03" transform="matrix(0.16, -0.99, 0.99, 0.16, 427.78, 1275.34)"/><rect y="900" width="1300" height="100"/><path class="cls-1" d="M1300,513.26V900H896.45v-332H875.94a4.06,4.06,0,0,1-4.05-4.06V517.31a4.05,4.05,0,0,1,4.05-4Z"/><path class="cls-4" d="M1300,513.26H875.94a4.05,4.05,0,0,0-4.05,4V564a4.06,4.06,0,0,0,4.05,4.06H1300"/><line class="cls-4" x1="896.45" y1="566.73" x2="896.45" y2="900"/></svg>