<svg id="Capa_1" data-name="Capa 1" xmlns="http://www.w3.org/2000/svg" viewBox="0 0 1300 1000"><defs><style>.cls-1,.cls-2,.cls-6{fill:#fff;}.cls-1,.cls-4,.cls-5,.cls-6,.cls-7{stroke:#262626;}.cls-1,.cls-4,.cls-5,.cls-6{stroke-miterlimit:10;}.cls-1{stroke-width:10.49px;}.cls-3{fill:#262626;}.cls-4,.cls-5,.cls-7{fill:none;}.cls-4,.cls-5,.cls-6,.cls-7{stroke-width:10px;}.cls-5,.cls-7{stroke-linecap:round;}.cls-7{stroke-linejoin:round;}</style></defs><title>service-module--take-photo</title><path class="cls-1" d="M1126.94,335.32c0,16,10.52,29,23.5,29s23.5-13,23.5-29-10.52-29-23.5-29S1126.94,319.3,1126.94,335.32Z"/><path class="cls-2" d="M1183.88,976.68l0-31.65H1171l-20.78-260.24L1128.75,945h-12.67l-.22,31.65h-75.12l.19-12.6L1063,945h-4.82l29.28-325.49h-13.74l27.68-170.24L1050,502.41l-74.82-99.22L994.82,390l58.11,56c37.75-64.87,86-68.25,95.53-68.25.69,0,1.17,0,1.42,0,35.39.06,65.92,22.16,88.29,63.91a253.47,253.47,0,0,1,23.09,62.64l.34,1.68L1221,588.17l5.07,31.36H1212.3L1241.58,945h-6.83l24.2,19.1,0,12.55Zm28.71-440.29,11.4-33.86-23.48-40.77Z"/><path class="cls-3" d="M1148.46,382.74c.83,0,1.28,0,1.28,0,81.91,0,106.62,122.54,106.62,122.54l-34.24,69.25-6-33L1229.44,502l-38.23-66.4,29,178.94h-13.34L1236.11,940h-15.78L1254,966.55v5.13h-65.08l0-31.66h-13.26l-25.31-317-26.19,317h-13l-.22,31.66h-65.07l.07-5.28L1076.47,940h-12.81l29.28-325.49h-13.33l29.3-180.17-58.45,60.38L982.33,404.4l11.92-8,59.87,57.67c37-68.27,85.87-71.33,94.34-71.33m0-10c-9.73,0-58,3.3-96.57,65.29l-50.7-48.83-5.81-5.6-6.7,4.5-11.92,8L968,402l6.37,8.43,68.12,90.34,7,9.33,8.13-8.4,36.28-37.47-24.18,148.71-1.89,11.59H1082l-28.3,314.61-.71,7.93-13.63,11.76-3.4,2.93-.07,4.49-.07,5.28-.15,10.15h85.15l.07-9.93L1121,950h12.31l.76-9.19,16.06-194.31,15.51,194.29.73,9.21h12.49l0,21.64v10H1264v-20l-3.8-3-13.26-10.46-.82-9.1-28.3-314.61h14.15L1230,612.93l-3.88-24,4.93-10,34.23-69.24,1.52-3.07-.68-3.34a258.85,258.85,0,0,0-23.58-64c-23.28-43.43-55.29-66.44-92.58-66.54-.35,0-.86,0-1.54,0Zm65.83,142.91-4.48-27.72,8.72,15.14-4.24,12.58Z"/><line class="cls-4" x1="1087.81" y1="619.53" x2="1208.06" y2="619.53"/><polyline class="cls-5" points="1128.71 382.79 1148.29 424.33 1167.52 382.79"/><line class="cls-5" x1="1148.29" y1="424.33" x2="1148.29" y2="616.78"/><rect class="cls-3" x="1162.58" y="430.47" width="22.81" height="13.31" rx="2"/><rect class="cls-6" x="836.65" y="505.61" width="458.41" height="400" transform="translate(2131.71 1411.21) rotate(180)"/><rect class="cls-3" y="900" width="1300" height="100"/><path class="cls-6" d="M813.65,493.34h481.41a0,0,0,0,1,0,0v67.25a0,0,0,0,1,0,0H813.65a25,25,0,0,1-25-25V518.34A25,25,0,0,1,813.65,493.34Z"/><path class="cls-6" d="M151.77,255c0,16,10.52,29,23.5,29s23.5-13,23.5-29-10.53-29-23.5-29S151.77,239,151.77,255Z"/><polygon class="cls-2" points="136.07 895.84 141.81 864.32 130.33 864.27 142.55 671.87 138.42 518.55 213.76 518.55 207.75 698.47 197.94 864.36 196.9 864.36 210.85 877.23 210.85 895.84 136.07 895.84"/><path class="cls-3" d="M208.59,523.55l-5.83,174.63-9.53,161.18h-9.12l21.74,20.06v11.42H142.06l5.74-31.5-12.14-.05L147.56,672l-4-148.41h65m10.34-10H133.28l.28,10.27,4,148L125.68,858.66,125,869.25l10.61,0h.2l-3.6,19.76-2.14,11.79h85.77V875l-3.22-3L203,863.2l.19-3.25,9.53-161.18v-.26l5.84-174.63.34-10.33Z"/><path class="cls-2" d="M101.28,895.42l.6-31-13.12,0,28.21-170,10.6-155.77H87.89l59.37-225.71.07-.19c3.76-10.71,11.62-17.11,21-17.11A20.07,20.07,0,0,1,185.27,305c42.06,65.88,41.26,222,41.21,228.6l0,5H203.09l-16,148.76-29.71,177H154l17.78,17.08-.14,14Z"/><path class="cls-3" d="M168.36,300.54a15.11,15.11,0,0,1,12.7,7.15c41.75,65.37,40.42,225.86,40.42,225.86H198.6L182.09,686.63l-29,172.67h-11.5l25.17,24.19-.07,6.93H106.38l.6-31-12.32,0L122,694.9l11-161.35H94.37L152.05,314.3c3.36-9.58,10-13.76,16.31-13.76m0-10c-11.45,0-21.32,7.84-25.75,20.45l-.13.38-.1.39L84.7,531l-3.3,12.54h40.81L112,693.74l-27.21,164-1.93,11.61,11.77,0h2.15l-.4,20.83-.2,10.2h80.43l.1-9.9.07-6.93,0-4.32-3.11-3-11.47-11L163,861l29-172.66L192,688l0-.3,15.55-144.15h23.81l.09-9.92c0-1.66.28-41.22-4.61-89.5-6.64-65.66-19.22-113.38-37.38-141.83a25.07,25.07,0,0,0-21.13-11.76Z"/><path class="cls-2" d="M158.69,335s-7.12,74-2.17,107,14,86,14,86l19.41-.83L182.7,444c1.41-82.29,1.73-78.76-1-103.32"/><path class="cls-3" d="M158.69,335c-.41,16.22-.86,32.4-.91,48.56,0,8.07,0,16.14.19,24.19.11,4,.28,8,.45,12s.46,8,.84,11.94c.2,2,.42,3.93.69,5.88s.58,3.82.94,5.84L163,455.4l4.18,23.9,8.29,47.82L170.31,523l19.41-.81L185,527.56q-.9-10.39-1.71-20.79L181.65,486l-1.52-20.81-.73-10.4-.66-10.42,0-.3v-.11l1.08-25.84,1.27-25.83c.48-8.6.93-17.21,1.2-25.79s-.16-17.15-.55-25.79c.76,4.25,1.47,8.51,2.1,12.79s1,8.62,1.31,13c.54,8.65.73,17.29,1,25.91l.41,25.88.17,25.85,0-.41L187.81,454l1.08,10.38L191,485.15l2,20.77q1,10.4,1.9,20.78l.45,5.17-5.19.23-19.4.84-4.4.19-.73-4.33q-4-24-7.69-48-1.83-12-3.51-24.06c-.57-4-1.12-8-1.63-12.06-.26-2-.51-4.11-.7-6.18s-.32-4.15-.43-6.21c-.39-8.25-.39-16.42-.06-24.57s.77-16.26,1.44-24.36C154.39,367.18,156.16,351.05,158.69,335Z"/><path class="cls-6" d="M972.31,322.38H934.66v-6.5a5,5,0,0,1,5-5h27.65a5,5,0,0,1,5,5Z"/><path class="cls-3" d="M994.07,319.42H981.89v-6.56a5,5,0,0,1,5-5h2.18a5,5,0,0,1,5,5Z"/><rect class="cls-6" x="904.96" y="322.38" width="101.03" height="65.89" rx="15"/><path class="cls-4" d="M973.15,355.22a17.78,17.78,0,1,1-17.78-17.77A17.79,17.79,0,0,1,973.15,355.22Z"/><polyline class="cls-7" points="917.39 489.25 957.89 393.75 998.39 489.25"/></svg>