<svg id="Capa_1" data-name="Capa 1" xmlns="http://www.w3.org/2000/svg" viewBox="0 0 1300 1000"><defs><style>.cls-1{fill:#fff;}</style></defs><title>2-landmarks-expand</title><path class="cls-1" d="M1125.61,348.84c0,.51.08,1,.14,1.51l.26,1.58c.14.88.34,1.77.53,2.63s.4,1.8.55,2.71l3.9,20.52.16.56a18.92,18.92,0,0,0,1.75,4.19,18.32,18.32,0,0,0,6.35,6.42,18.59,18.59,0,0,0,4.18,1.86c.78.23,1.68.43,2.3.55s1.58.29,2.44.41a36.3,36.3,0,0,0,9,0c.87-.12,1.7-.26,2.45-.41s1.53-.32,2.3-.55a18.59,18.59,0,0,0,4.18-1.86,18.24,18.24,0,0,0,6.35-6.42,18.92,18.92,0,0,0,1.75-4.19l.15-.52,3.91-20.56c.16-.91.36-1.82.55-2.71s.39-1.75.54-2.63l.25-1.57c.06-.51.11-1,.15-1.52a28,28,0,0,0,0-3c0-.41-.08-.82-.11-1.22,0-.64-.1-1.24-.19-1.82l-.43-2.27c0-.14-.08-.28-.12-.42l-.09-.28a27,27,0,0,0-5.54-10.46,26.14,26.14,0,0,0-19-9l-1.42,0h-1l-.57,0a26.07,26.07,0,0,0-19.29,9,27.05,27.05,0,0,0-5.56,10.47c0,.09,0,.18-.07.27a3.84,3.84,0,0,0-.13.41l-.43,2.26c-.09.6-.14,1.2-.19,1.84,0,.4-.06.81-.11,1.18A26.25,26.25,0,0,0,1125.61,348.84Z"/><path class="cls-1" d="M1049.24,974.89l.82,2.91,63.58-.42,3.62,0h1.32l.83-16.57c.18-2.06.32-4.13.43-6.19.1-1.66.16-3.32.24-5l.07-3.43.09-1.77.06-1.09h0l5.76-63.77,2.77-32.44,1.37-16.23,1.29-16.22c.12-1.36.19-2.72.35-4.06l.48-4.05,1-8.08,1.9-16.17,3.68-32.35c2.35-21.59,4.71-43.17,6.71-64.8l.28-2.81h13.71l.28,2.81c2,21.63,4.36,43.21,6.71,64.8l3.68,32.35,1.9,16.17,1,8.08.47,4.05c.17,1.34.24,2.7.36,4.06l1.29,16.22,1.37,16.23,2.77,32.44,5.77,63.77h0l.09,1.09v.24l0,1.53.07,3.43c.08,1.66.13,3.32.23,5,.12,2.06.26,4.13.43,6.19l.84,16.57h1.32l3.62,0,63.59.42.81-2.91-30.87-12.43-1.15-.46-.48-1-6.84-15.18-1.57-3.5,6.17-.1c-.57-24.88-1.19-49.76-1.66-74.64L1219,829l-.2-9.65c-.08-3.22-.09-6.43-.24-9.65l-.75-19.26-2.91-77.08c-.34-12.86-1.28-25.68-2-38.51-.39-6.41-.73-12.83-1.07-19.24l-1-19-2.33-19.19L1206.36,598l-2.1-19.36L1202,559.32l0-.32v-.22l.5-16.76c.16-5.59.35-11.18.47-16.77l.39-16.75.3-16.77,0-3.15h8.62l.3,2.87c.4,4.32.83,8.63,1.26,12.95s.84,8.64,1.31,13l2.76,25.91c.12,1.09.25,2.16.36,3.25l.28,3.29.55,6.48,1.11,13,1.11,13,1.18,13c1.59,17.28,3.11,34.58,4.81,51.85l2.53,25.92,1.88,18.27h3.77l10.15-26.89-5.15-18.73-.85-3.06h7v0l-.38-37.42c0-.82,0-1.63,0-2.44-.11-9.87-.34-19.75-.56-29.62l-.4-18c-.06-3-.15-6-.17-8.94s-.28-5.8-.61-8.66-.82-5.73-1.43-8.56l-.47-2.11-.55-2.14c-.38-1.47-.67-2.93-1-4.39l-3.9-17.57c-2.59-11.72-5.28-23.41-7.93-35.12l-2-8.79c-.16-.77-.32-1.34-.49-2s-.36-1.26-.56-1.88c-.4-1.24-.89-2.46-1.41-3.65a38.09,38.09,0,0,0-3.94-6.74c-.78-1-1.61-2-2.48-3-.45-.47-.87-.95-1.35-1.39l-.7-.68-.79-.72-.77-.7c-.2-.17-.43-.38-.68-.58-.47-.4-1-.79-1.53-1.19-1-.8-2.17-1.55-3.33-2.29a72.23,72.23,0,0,0-7.23-4,90.29,90.29,0,0,0-15.71-5.69,113.11,113.11,0,0,0-27.62-3.54h-11.25a113.35,113.35,0,0,0-28.18,3.54,90.29,90.29,0,0,0-15.71,5.69,71.14,71.14,0,0,0-7.23,4c-1.15.74-2.28,1.49-3.33,2.29-.53.4-1.06.79-1.53,1.19-.25.2-.49.41-.69.58l-.76.7-.79.72-.7.68c-.48.44-.9.92-1.36,1.39-.86,1-1.69,2-2.47,3a37.4,37.4,0,0,0-5.35,10.39c-.2.62-.38,1.26-.57,1.88s-.32,1.23-.48,2l-2,8.79c-2.65,11.71-5.35,23.4-7.94,35.12l-3.89,17.57c-.35,1.46-.63,2.92-1,4.39l-.54,2.14-.48,2.11q-.91,4.25-1.43,8.56t-.61,8.66c0,2.91-.11,6-.17,8.94l-.39,18c-.23,9.87-.46,19.75-.57,29.62v0l0,2.47-.38,37.42v0h7l-.84,3.06-5.15,18.73,10.15,26.89h3.77l1.88-18.27,2.52-25.92c1.71-17.27,3.22-34.57,4.81-51.85l1.19-13,1.11-13,1.11-13,.55-6.48.28-3.29c.1-1.09.24-2.16.36-3.25l2.76-25.91c.47-4.32.87-8.63,1.31-13s.86-8.63,1.27-12.95l.29-2.87h8.62l0,3.15.29,16.77.4,16.75c.12,5.59.31,11.18.47,16.77l.49,16.76V559l0,.32-2.23,19.35-2.1,19.36-2.15,19.36-2.34,19.19-1,19q-.49,9.61-1.07,19.24c-.72,12.83-1.67,25.65-2,38.51l-2.91,77.08-.75,19.26c-.16,3.22-.16,6.43-.24,9.65l-.2,9.65-.78,38.58c-.46,24.88-1.07,49.76-1.65,74.64l6.16.1-1.56,3.5L1081.74,961l-.48,1-1.15.46Z"/><path d="M1136.57,466.38c-2.43-.32-4.87-.49-7.3-.61s-4.86-.17-7.3-.18l-3.65,0c-1.21.05-2.43.06-3.65.13-2.43.12-4.86.29-7.29.63v8.41c2.43.34,4.86.52,7.29.63,1.22.08,2.44.09,3.65.14l3.65,0c2.44,0,4.87,0,7.3-.18s4.87-.29,7.3-.62Z"/><path d="M1118.14,345.72a32.1,32.1,0,0,0,.24,3.89c.09.69.18,1.32.29,1.91l.37,1.83c.62,3.54,1.34,7.15,2,10.64l3.06,15.48.23.78a24.79,24.79,0,0,0,2.46,5.8,25.37,25.37,0,0,0,8.78,8.9,25.67,25.67,0,0,0,5.73,2.55c1.1.33,2.08.55,3,.73s1.92.35,2.92.48a41.91,41.91,0,0,0,10.81,0c1-.13,2-.29,2.92-.48s1.88-.4,3-.73a25.67,25.67,0,0,0,5.73-2.55,25.2,25.2,0,0,0,11.25-14.7l.21-.74.47-2.21,2.61-13.31c.69-3.49,1.41-7.1,2-10.67l.37-1.79c.11-.61.21-1.23.29-1.92a34.23,34.23,0,0,0,.25-3.86c0-.43,0-.83-.05-1.24,0-.85-.06-1.74-.15-2.61l-.4-2.85c0-.24-.1-.46-.16-.69l-.07-.28a34.87,34.87,0,0,0-25.9-26.32,31.61,31.61,0,0,0-15.54,0,35.08,35.08,0,0,0-7.34,2.66,34.69,34.69,0,0,0-12,9.74,35.15,35.15,0,0,0-6.56,13.92l-.07.28c-.06.23-.11.45-.15.68l-.4,2.86c-.1.87-.13,1.76-.16,2.61C1118.17,344.91,1118.16,345.32,1118.14,345.72Zm7.37.07c0-.37.08-.78.11-1.19.05-.63.1-1.23.19-1.83l.43-2.26c0-.13.08-.27.12-.41l.09-.28a27,27,0,0,1,5.55-10.47,26.14,26.14,0,0,1,19.29-9l.57,0h1l1.42,0a26.18,26.18,0,0,1,19,9,27.24,27.24,0,0,1,5.55,10.47c0,.09.05.19.08.28a3.31,3.31,0,0,1,.12.42l.43,2.27c.09.58.14,1.18.19,1.81,0,.41.07.82.11,1.23a27.82,27.82,0,0,1,0,3c0,.51-.09,1-.15,1.53l-.25,1.56c-.15.88-.35,1.78-.54,2.64s-.39,1.8-.55,2.71l-3.91,20.56-.15.51a17.91,17.91,0,0,1-1.75,4.2,18.41,18.41,0,0,1-6.35,6.42,17.94,17.94,0,0,1-4.18,1.85c-.78.23-1.68.43-2.3.56s-1.57.29-2.44.4a35.14,35.14,0,0,1-9,0c-.86-.11-1.69-.25-2.44-.4s-1.52-.33-2.3-.56a18.12,18.12,0,0,1-4.18-1.85,18.38,18.38,0,0,1-6.34-6.42,18,18,0,0,1-1.75-4.19l-.17-.57-3.9-20.52c-.15-.9-.35-1.82-.55-2.7s-.38-1.76-.53-2.63l-.25-1.58c-.07-.5-.12-1-.16-1.52A28.4,28.4,0,0,1,1125.51,345.79Z"/><path d="M1041.78,984.51v3.41h3.42l77.6.05h3.48v-3.46l0-10,0-10,.06-19.84v0l11.27-129.48c.13-1.34.22-2.69.39-4l.51-4,1-8.07,2.06-16.13,4.1-32.28,7-54.85,7,54.85,4.11,32.28,2,16.13,1,8.07.5,4c.17,1.35.26,2.7.39,4L1179,944.72v0l.06,19.84,0,10,0,10V988h3.47l77.6-.05h3.43V970.48l-2.17-.85c-2.81-1.1-5.64-2.15-8.47-3.22l-8.46-3.21-16-6.05-6.56-10.81,2.24,0,1.66,0v-1.69l-.65-77.22-.37-38.61-.1-9.65c0-3.21,0-6.43-.14-9.65l-.55-19.3-1.08-38.6-1.22-38.6-.31-9.65c-.06-1.62-.08-3.22-.17-4.83l-.28-4.81-1.15-19.29L1217.44,636v-.2l-10.34-77v.1l0-.24,0,.14,1.34-57.89,1.9,17,2.77,25.86c.11,1.08.24,2.16.34,3.23l.24,3.23.52,6.49,1,13q1,13,2,26l3.87,51.92,1.9,26,1.85,26,.17,2.39h2.43l11.06,0h2L1241,700l9.68-34.8.19-.7-.19-.68L1246,647.41h2.17l2.1,0,.12-23c-.14-17.12-.1-34.27,0-51.4l.07-18c0-3,0-6,.07-9s-.14-6.13-.43-9.19-.7-6.11-1.27-9.12c-.28-1.5-.61-3-1-4.48s-.58-2.93-.88-4.39l-3.46-17.63-6.9-35.25-1.72-8.81c-.13-.71-.33-1.52-.5-2.29s-.37-1.55-.6-2.31a47.19,47.19,0,0,0-1.58-4.51,44.86,44.86,0,0,0-4.55-8.4,41.27,41.27,0,0,0-2.9-3.79c-.53-.61-1-1.21-1.6-1.78l-.83-.87-.83-.79a51.15,51.15,0,0,0-7.36-6,85.58,85.58,0,0,0-8-4.78,98.62,98.62,0,0,0-17.15-7,129.12,129.12,0,0,0-36.34-5.22h0a129.12,129.12,0,0,0-36.34,5.22,98.21,98.21,0,0,0-17.14,7,83.06,83.06,0,0,0-8,4.78,50.15,50.15,0,0,0-7.37,6l-.83.79-.82.87c-.56.57-1.08,1.17-1.61,1.78a43.13,43.13,0,0,0-2.9,3.79,44.86,44.86,0,0,0-4.55,8.4,47.19,47.19,0,0,0-1.58,4.51c-.23.76-.42,1.54-.6,2.31s-.36,1.58-.49,2.29l-1.73,8.81-6.91,35.25-3.45,17.63c-.3,1.46-.56,3-.88,4.39s-.68,3-1,4.48c-.57,3-1,6.06-1.27,9.12s-.42,6.12-.42,9.19,0,6,.06,9l.07,18c.08,17.13.12,34.28,0,51.4l.12,23,2.1,0h2.18l-4.65,16.36-.19.68.19.7,9.69,34.8.5,1.87h2l11.06,0h2.43l.18-2.39,1.84-26,1.9-26,3.88-51.92q.94-13,2-26l1-13,.51-6.49.25-3.23c.09-1.07.23-2.15.33-3.23l2.78-25.86,1.88-17,1.35,57.89,0-.14,0,.24v-.1l-10.34,77v.2l-2.3,38.46-1.15,19.29-.28,4.81c-.08,1.61-.11,3.21-.17,4.83l-.31,9.65-1.23,38.6-1.08,38.6-.54,19.3c-.11,3.22-.1,6.44-.14,9.65l-.09,9.65-.37,38.61-.66,77.22v1.69l1.66,0,2.24,0-6.56,10.81-16,6.05-8.48,3.21c-2.82,1.07-5.65,2.12-8.46,3.22l-2.17.85v14Zm17.93-320.17,4.65-16.93H1078L1075.51,673l-1.88,18.27h-3.77Zm65.77-241.51,24.37,38.82h0l-.21,18.48-.14,21.42-.12,42.84.12,42.84.15,21.43.21,19.22-54.66,3.32,1.67-13.82L1099,598l2.1-19.36,2.24-19.35,0-.32v-.22l-.5-16.76c-.16-5.59-.35-11.18-.47-16.77l-.4-16.76-.29-16.76,0-3.14h-8.62l-.3,2.85c-.4,4.33-.83,8.65-1.26,13s-.84,8.64-1.31,13l-2.76,25.91c-.12,1.09-.25,2.16-.36,3.26l-.28,3.27-.55,6.49-1.11,13-1.11,13-1.18,13c-1.44,15.58-2.81,31.16-4.31,46.73l-9.08-.9-10.7,1.1.37-37,0-2.48v0c.11-9.87.34-19.75.56-29.62l.4-18c.06-3,.15-6,.17-8.93s.28-5.79.61-8.67.82-5.72,1.43-8.55l.47-2.11.55-2.14c.38-1.48.67-2.93,1-4.4l3.9-17.56c2.58-11.72,5.28-23.41,7.92-35.12l2-8.79c.16-.77.32-1.34.49-2s.36-1.25.56-1.88a36.74,36.74,0,0,1,1.42-3.65,37.28,37.28,0,0,1,3.93-6.75c.78-1,1.61-2,2.48-3,.45-.47.87-.95,1.35-1.39l.7-.68.79-.73.76-.69c.21-.17.44-.38.69-.58.47-.39,1-.79,1.53-1.19,1-.8,2.18-1.55,3.33-2.28a70.36,70.36,0,0,1,7.23-4,91.12,91.12,0,0,1,15.71-5.69Q1122.28,423.46,1125.48,422.83Zm48-1-20.83,32-21.12-31.93a120.6,120.6,0,0,1,15.79-1.1h11.25A119.45,119.45,0,0,1,1173.49,421.79Zm53.86,225.63H1241l4.66,16.93-10.15,26.88h-3.77L1229.84,673Zm-17.2-16.26c-12.22-.76-45.33-2.74-54.74-3.3l.22-19.19.15-21.43.11-42.84-.11-42.84-.14-21.42-.21-18.35h0l24.12-39q3.35.64,6.65,1.51a90.82,90.82,0,0,1,15.71,5.69,69.32,69.32,0,0,1,7.23,4c1.16.73,2.28,1.48,3.33,2.28.53.4,1.06.8,1.53,1.19.25.2.49.41.69.58l.76.69.8.73.69.68c.48.44.9.92,1.36,1.39.86,1,1.69,2,2.46,3a37.37,37.37,0,0,1,4,6.75c.52,1.2,1,2.4,1.41,3.65.21.63.39,1.26.57,1.88s.31,1.23.48,2l2,8.79c2.65,11.71,5.35,23.4,7.94,35.12l3.89,17.56c.35,1.47.63,2.92,1,4.4l.53,2.14.48,2.11c.61,2.83,1.09,5.67,1.44,8.55s.53,5.77.6,8.67.11,6,.17,8.93l.39,18c.23,9.87.46,19.75.57,29.62v0l0,2.48.38,37.06L1235.38,641l-8.56.85c-1.51-15.56-2.88-31.12-4.31-46.68l-1.19-13-1.11-13-1.11-13-.55-6.49-.28-3.27c-.1-1.1-.24-2.17-.36-3.26l-2.76-25.91c-.47-4.32-.87-8.64-1.31-13s-.86-8.63-1.27-13l-.29-2.85h-8.62l-.05,3.14-.29,16.76-.4,16.76c-.12,5.59-.31,11.18-.47,16.77l-.49,16.76V559l0,.32,2.23,19.35,2.1,19.36,2.15,19.36Zm.67,5.55v-.13l0-.56Zm-25.58,309.47,31.74,0,6.67,14.81.48,1,1.15.46,30.87,12.43-.81,2.91-63.59-.42-3.62,0h-1.32l-.83-16.58c-.18-2.06-.33-4.13-.43-6.18-.1-1.67-.16-3.32-.23-5Zm-64.64-6.59-18.1-1L1084,939.61c.55-24,1.13-48,1.59-72.06l.77-38.58.19-9.65c.09-3.21.1-6.42.25-9.64l.74-19.28,2.92-77.07c.34-12.86,1.28-25.68,2-38.52q.58-9.6,1.07-19.23l.87-16.48,116.52,0,.86,16.5c.34,6.41.68,12.83,1.07,19.23.72,12.84,1.67,25.66,2,38.52l2.91,77.07.75,19.28c.16,3.22.16,6.43.24,9.64l.2,9.65.77,38.58c.46,24,1,48,1.6,72.06l-18.51-1.05-18.08,1-5.43-60.06-2.77-32.44-1.37-16.23-1.29-16.22c-.12-1.36-.19-2.72-.35-4.06l-.48-4.05-1-8.07-1.9-16.18-3.68-32.35c-2.35-21.59-4.71-43.17-6.71-64.8l-.28-2.81h-13.71l-.28,2.81c-2,21.63-4.36,43.21-6.71,64.8l-3.68,32.35-1.9,16.18-1,8.07-.47,4.05c-.17,1.34-.24,2.7-.36,4.06l-1.29,16.22-1.37,16.23L1126,879.53Zm-71.4,35.3,30.87-12.43,1.15-.46.48-1,6.67-14.82,31.74,0h0l-.07,3.42c-.08,1.67-.13,3.32-.23,5-.12,2-.27,4.12-.43,6.18l-.85,16.58h-1.31l-3.62,0-63.58.42Z"/><polygon points="1179.01 944.62 1179.01 944.73 1179.02 944.89 1179.01 944.62"/><polygon points="1207.07 558.64 1207.08 558.88 1207.08 558.77 1207.07 558.64"/><polygon points="1210.78 636.02 1210.81 636.58 1210.82 636.71 1210.78 636.02"/><path d="M1246.19,602.67c0,.81,0,1.62,0,2.44l0-2.48Z"/><polygon points="1210.78 636.02 1210.81 636.58 1210.82 636.71 1210.78 636.02"/><polygon class="cls-1" points="1207.1 524.64 1207.12 524.88 1207.12 524.77 1207.1 524.64"/><rect y="900" width="1300" height="100"/><path class="cls-1" d="M1300,513.26V900H919.61v-332H875.94a4.06,4.06,0,0,1-4.05-4.06V517.31a4.05,4.05,0,0,1,4.05-4Z"/><path d="M1300,572.05H875.94a8.07,8.07,0,0,1-8.05-8.06V517.31a8.06,8.06,0,0,1,8.05-8H1300v8H875.94L875.89,564l424.11.06Z"/><rect x="915.61" y="566.73" width="8" height="333.27"/></svg>