<svg id="Capa_1" data-name="Capa 1" xmlns="http://www.w3.org/2000/svg" viewBox="0 0 1300 1000"><defs><style>.cls-1{fill:#fff;}.cls-2{fill:none;}</style></defs><title>2-landmarks-expand</title><polygon class="cls-1" points="1052.73 501.55 1052.13 502.69 1053.94 499.16 1053.95 499.15 1055.52 496.25 1055.52 496.26 1052.73 501.55"/><polygon class="cls-1" points="1079.63 451.55 1071.08 467.39 1079.64 451.5 1080.7 449.56 1079.63 451.55"/><polygon class="cls-1" points="1080.97 449.03 1081.2 448.65 1080.97 449.06 1080.71 449.53 1080.97 449.03"/><polygon class="cls-1" points="1102.99 559.31 1100.75 578.67 1098.94 595.39 1100.75 578.59 1102.99 559.24 1103.02 559.03 1102.99 559.31"/><path class="cls-1" d="M1118.3,475.16c-1.22-.05-2.43-.06-3.64-.13-2.43-.12-4.86-.29-7.28-.63V466c2.42-.34,4.85-.51,7.28-.63,1.21-.07,2.42-.09,3.64-.13l3.64,0c2.42,0,4.85.06,7.28.18s4.85.29,7.28.62v8.39c-2.43.32-4.85.5-7.28.61s-4.86.17-7.28.18Z"/><path class="cls-1" d="M1081.21,448.62c.15-.26.31-.54.48-.8-.16.29-.33.57-.49.83Z"/><path class="cls-1" d="M1257.45,540.54a18,18,0,0,1-.1,2.65l-.46,3L1255,558.44l-3.76,24.44-1.26,8.17-2.51,16.28-1.49,9.15-2,12.45-.23,1.39h-6.36l1,2.44.07.14.55,1.32,3.48,8.28,5.41,12.89,0,.1,6.17,14.67-3.17,1.9-2.06-2-4.29-4.06-16.78-16,0,0-1.79-12.45-.82-5.73.1-1.91,4.4-81.54h0l0-.54-.15-.48-10.3-33.57,0-.14-7.34-25.12v-.05h-8.62l-.06,3.14L1203,508.4l-.39,16.76c-.12,5.59-.31,11.19-.47,16.77l-.5,16.77v.22l0,.32,2.24,19.35L1206,598l2.16,19.36,1.59,13.1.74,6.1.09,1.77.91,17.23q.49,9.62,1.07,19.24c.72,12.84,1.67,25.66,2,38.52l2.91,77.11.75,19.27c.15,3.22.16,6.43.24,9.65l.2,9.65.63,31.44h-41.92l-1.14-13.32-1-11.36-.4-4.72-.23-2.89-1.07-13.49c0-.44-.07-.88-.1-1.32s-.07-1-.12-1.47-.07-.76-.12-1.13a.66.66,0,0,0,0-.14l-.32-2.67-.15-1.24-1-8.08-1.9-16.18L1166.18,750l0-.13q-1.19-10.92-2.37-21.83l-.48-4.56q-.64-6-1.26-12c-.37-3.59-.74-7.19-1.1-10.78-.26-2.6-.51-5.21-.77-7.82s-.5-5.21-.74-7.82l-.26-2.71v-.1h-13.72l-.28,2.81c-2,21.64-4.36,43.22-6.71,64.81l-3.68,32.36-1.9,16.18-1,8.08-.48,4c-.16,1.34-.23,2.7-.35,4.06l-1.29,16.23-1.37,16.23-1.14,13.32h-41.93L1086,829l.13-6.85.06-2.66c0-.28,0-.56,0-.84,0-2.18.08-4.36.14-6.54,0-.75,0-1.51.08-2.27l.75-19.28,2.92-77.12q.12-4.83.35-9.64c.12-2.65.26-5.31.41-8l.18-3.21.54-8.91c.18-3,.36-5.95.52-8.92.17-2.75.33-5.51.49-8.26q.3-5.44.58-10.88v-.1l.9-17.2.09-1.8,2.33-19.11-1.58,13,54.85-3.34-.22-19.15-.14-21.37-.12-42.74.12-42.74.14-21.37.21-18.43-24.24-38.62c-2.26.43-4.51.93-6.73,1.51a91.26,91.26,0,0,0-15.72,5.7,70.09,70.09,0,0,0-7.23,4c-1.15.74-2.28,1.49-3.34,2.3-.42.31-.83.61-1.21.92v0l-.2.14c-.24.2-.47.38-.67.56l-.42.36-.5.45c-.33.29-.71.62-1,.89a40.36,40.36,0,0,0-3.36,3.55,34,34,0,0,0-2.13,2.81l-.07.11c-.43.6-.85,1.21-1.23,1.84a0,0,0,0,1,0,0c.38-.64.8-1.25,1.23-1.85a.34.34,0,0,1,.07-.11,33.6,33.6,0,0,1,2.14-2.81,38.78,38.78,0,0,1,3.36-3.55c.27-.26.66-.59,1-.88l.5-.46.42-.36.66-.55.2-.14,0,0c.38-.31.79-.62,1.21-.93,1.06-.8,2.18-1.56,3.33-2.29a70.28,70.28,0,0,1,7.23-4,90.43,90.43,0,0,1,15.72-5.7,113.28,113.28,0,0,1,28.18-3.53c.5,0,1,0,1.49,0h7.71q.75,0,1.5,0a113.34,113.34,0,0,1,28.18,3.53,90.33,90.33,0,0,1,15.71,5.7,67.27,67.27,0,0,1,7.23,4c.87.55,1.74,1.13,2.57,1.73l.77.56.62.47.62.49h0l.08.05.12.09.64.52.43.36.49.46,0,0,.51.45.26.23.19.17c.31.29.62.59.91.89q1.31,1.29,2.49,2.7c.26.31.52.63.77.95s.49.64.73,1a34.56,34.56,0,0,1,2,3c.16.27.31.54.46.81.43.8.83,1.61,1.2,2.44.18.36.33.74.48,1.11l.23.58.24.64,1,2.62,2,5.24,4,10.5,7.94,21c.78,2.05,1.56,4.11,2.32,6.17,4.51,12,8.93,24,13.42,36l.1.34A16.48,16.48,0,0,1,1257.45,540.54Z"/><path d="M1186.88,344.42c0-.85-.06-1.73-.15-2.6l-.4-2.85c0-.23-.09-.46-.15-.68l-.07-.28a35.07,35.07,0,0,0-6.55-13.89,32.39,32.39,0,0,0-3.86-4.19h0c-.47-.43-1-.85-1.46-1.26h0c-.75-.61-1.53-1.19-2.34-1.75h0a37.1,37.1,0,0,0-4.28-2.5,36.15,36.15,0,0,0-3.55-1.53h0l-.93-.32q-1.39-.46-2.82-.81a31.45,31.45,0,0,0-15.5,0c-1,.23-1.91.5-2.83.81l-.93.32a34,34,0,0,0-3.56,1.52,34.62,34.62,0,0,0-12,9.71,35,35,0,0,0-6.55,13.9v.06l-.05.21a6.27,6.27,0,0,0-.16.68l-.4,2.85c-.09.88-.12,1.76-.15,2.61,0,.4,0,.81-.05,1.21s0,.67,0,1c0,.6.06,1.21.11,1.82a.88.88,0,0,1,0,.17l.09.88c0,.17.05.34.07.51,0,.33.1.65.15,1,0,.15,0,.3.07.45l.32,1.5.06.32c.61,3.52,1.32,7.11,2,10.58l.76,3.82,2.3,11.64v0l.22.79c.07.24.14.49.22.73a25.34,25.34,0,0,0,1.84,4.34l.4.71c.4.68.82,1.33,1.27,2,.31.43.63.86,1,1.27s.67.79,1,1.16c0,0,0,0,0,0a25.27,25.27,0,0,0,5.48,4.45,26,26,0,0,0,5.72,2.54c1.09.32,2.07.54,3,.72s1.91.36,2.9.49a43,43,0,0,0,10.79,0c1-.13,2-.3,2.91-.49s1.88-.4,3-.72a26.15,26.15,0,0,0,5.71-2.54,25.34,25.34,0,0,0,8.76-8.88,25.78,25.78,0,0,0,2.46-5.79l.21-.74.46-2.2,2.61-13.27c.69-3.49,1.4-7.09,2-10.64l.37-1.79c.11-.6.2-1.22.28-1.91a34.05,34.05,0,0,0,.25-3.85C1186.91,345.22,1186.9,344.83,1186.88,344.42Zm-54.07,37.94c-.21-.36-.4-.72-.58-1.1a20.54,20.54,0,0,1-.83-2c-.13-.35-.24-.71-.34-1.07l-.16-.57v0l-3-15.64-.92-4.81c-.15-.91-.35-1.82-.54-2.7,0-.22-.1-.43-.14-.65-.1-.43-.19-.87-.27-1.31,0-.23-.09-.45-.13-.68l-.2-1.26,0-.3a.13.13,0,0,0,0-.06c-.05-.46-.11-.93-.14-1.41v0a28.44,28.44,0,0,1,0-3c0-.37.08-.77.11-1.18.05-.64.1-1.23.19-1.83l.43-2.25h0c0-.13.07-.27.11-.42l.09-.26c.13-.48.27-.95.43-1.42a24.93,24.93,0,0,1,1.42-3.44,26.86,26.86,0,0,1,3.69-5.58,25.79,25.79,0,0,1,9.37-6.87,25.5,25.5,0,0,1,9.88-2.14l.55,0h2.39a25.65,25.65,0,0,1,7.31,1.26c.78.26,1.54.55,2.3.88.46.2.92.42,1.37.64h0a28.22,28.22,0,0,1,2.57,1.49,25.33,25.33,0,0,1,3.46,2.68,23.47,23.47,0,0,1,1.95,2.05,27.16,27.16,0,0,1,4,6.26,7.22,7.22,0,0,1,.31.69c.2.45.38.9.54,1.37h0c.25.69.47,1.4.66,2.11l.09.27c0,.15.08.29.11.43l.43,2.26c.09.58.14,1.18.19,1.81,0,.41.07.81.11,1.23a27.64,27.64,0,0,1,0,3c0,.51-.09,1-.16,1.52l-.24,1.56c-.15.88-.35,1.77-.54,2.62s-.39,1.8-.54,2.72l-3.91,20.5-.14.51a19.12,19.12,0,0,1-1.75,4.19,18.29,18.29,0,0,1-6.33,6.4,18.49,18.49,0,0,1-4.17,1.85c-.78.23-1.68.43-2.3.55s-1.55.29-2.43.41a36.22,36.22,0,0,1-9,0c-.87-.12-1.66-.26-2.43-.41-.61-.12-1.52-.32-2.29-.55a18.31,18.31,0,0,1-7.75-4.67A17.21,17.21,0,0,1,1132.81,382.36Z"/><path class="cls-1" d="M1125.51,348.74c0,.5.09,1,.16,1.51l.25,1.57c.14.88.34,1.77.53,2.62s.4,1.8.55,2.7l3.89,20.47.16.56a18.84,18.84,0,0,0,1.75,4.18,18.18,18.18,0,0,0,10.5,8.25c.77.23,1.67.43,2.29.55s1.56.29,2.43.41a36.14,36.14,0,0,0,9,0c.88-.12,1.68-.25,2.44-.41s1.52-.32,2.3-.55a18.65,18.65,0,0,0,4.17-1.84,17.74,17.74,0,0,0,8.07-10.59l.15-.52,3.91-20.5c.15-.91.35-1.82.54-2.71s.39-1.75.54-2.62l.24-1.57c.07-.5.12-1,.15-1.51a25.6,25.6,0,0,0,.06-3c0-.41-.08-.82-.11-1.23,0-.63-.1-1.23-.19-1.8l-.43-2.27c0-.14-.08-.28-.11-.42a2.31,2.31,0,0,1-.1-.28,26.77,26.77,0,0,0-5.53-10.43,26.1,26.1,0,0,0-19-9l-1.41,0h-1.53a26.1,26.1,0,0,0-19.24,9,27,27,0,0,0-5.54,10.44,2.76,2.76,0,0,1-.08.27l-.12.41-.42,2.25c-.1.6-.14,1.2-.2,1.83,0,.41-.06.82-.1,1.18A28.51,28.51,0,0,0,1125.51,348.74Z"/><polygon class="cls-1" points="983.44 477 976.07 493.09 957 487.94 935.43 465.17 938.79 459.08 969.99 465.2 983.44 477"/><path class="cls-1" d="M1103,559l0,.28-2.24,19.36-1.81,16.72-.29,2.65-2.16,19.37-1.58,13,54.85-3.34-.22-19.15-.14-21.37-.12-42.74.12-42.74.14-21.37.21-18.43-24.24-38.62c-2.26.43-4.51.93-6.73,1.51a91.26,91.26,0,0,0-15.72,5.7,70.09,70.09,0,0,0-7.23,4c-1.15.74-2.28,1.49-3.34,2.3-.42.31-.83.61-1.21.92v0l-.2.14c-.24.2-.47.38-.67.56l-.42.36-.5.45c-.33.29-.71.62-1,.89a40.36,40.36,0,0,0-3.36,3.55,34,34,0,0,0-2.13,2.81l-.07.11c-.43.6-.85,1.21-1.23,1.84-.16.29-.33.57-.49.83l-.23.41-.26.47v0l-1.07,2-8.55,15.84,0,0-14.83,27.5-.71,1.32h0l-2.79,5.29-.6,1.14-.28.54-2.78,5.28L1048,508l-10.09-4.79-.86-.41-48.85-23.06-3.54,10-5.32,9.12,33.89,19.38,18,10.31,9,5.16,4.51,2.57,2.25,1.29,1.06.6.07,0c.36.18.6.3,1,.46a16.67,16.67,0,0,0,5,1.28,17,17,0,0,0,3.7-.08,12.51,12.51,0,0,0,1.36-.25,0,0,0,0,1,0,0l.55-.13a16.48,16.48,0,0,0,7.55-4.43,16.82,16.82,0,0,0,2.12-2.7l0-.06,23.26-43.77h8.63l0,3.14.29,16.77.4,16.77c.07,2.78.14,5.55.22,8.33v.06q.13,4.17.25,8.32V542l.5,16.77V559Zm4.36-93c2.42-.34,4.85-.51,7.28-.63,1.21-.07,2.42-.09,3.64-.13l3.64,0c2.42,0,4.85.06,7.28.18s4.85.29,7.28.62v8.39c-2.43.32-4.85.5-7.28.61s-4.86.17-7.28.18l-3.64,0c-1.22-.05-2.43-.06-3.64-.13-2.43-.12-4.86-.29-7.28-.63Z"/><path d="M1136.5,466v8.39c-2.43.32-4.85.5-7.28.61s-4.86.17-7.28.18l-3.64,0c-1.22-.05-2.43-.06-3.64-.13-2.43-.12-4.86-.29-7.28-.63V466c2.42-.34,4.85-.51,7.28-.63,1.21-.07,2.42-.09,3.64-.13l3.64,0c2.42,0,4.85.06,7.28.18S1134.07,465.68,1136.5,466Z"/><path d="M1263.27,670.64h0L1250,646.47l-3.73-6.77-3-5.48,0-.07,2,0,1,0h.74l.31-1.74,2.79-15.39,1.64-9,4.27-24.41,4.29-24.41,2.14-12.21c.16-1,.35-2,.52-3.07a21,21,0,0,0,.2-3.54,21.77,21.77,0,0,0-1.36-6.94l.1.31-29.62-85.63a43.62,43.62,0,0,0-6-10.38,49.78,49.78,0,0,0-4-4.5c-.36-.36-.7-.67-1-1l-.52-.5-.57-.52c-.38-.36-.76-.68-1.14-1s-.77-.64-1.15-.94a73.21,73.21,0,0,0-9.91-6.51l-2-1.1-1.28-.65-.21-.11a99.63,99.63,0,0,0-15.76-6.26,129.31,129.31,0,0,0-72.74,0A99.14,99.14,0,0,0,1100.2,421l-.22.11-1.28.65-2,1.1a73.74,73.74,0,0,0-9.9,6.51c-.38.3-.76.61-1.15.94s-.76.65-1.14,1l-.57.52-.52.5c-.34.33-.68.64-1,1a48.28,48.28,0,0,0-4,4.5,37.14,37.14,0,0,0-2.26,3.21c-.1.14-.19.28-.28.42a.6.6,0,0,0-.09.15c-.25.4-.49.79-.73,1.2l-.61,1.07c-.38.68-.8,1.47-1.1,2.13l-1,2-7.72,16.32-10.88,23-2.55,5.46-4,8.54-7.71-3.18-.6-.25v.1l-2.9-1.3-.15-.06L987,474.74,973.7,460l-.52-.57-.95-.26-35.06-9.45h0l-2.77-.75-1.61,2.64-6.7,11.06-1.73,2.89,2.42,2.28,26.44,24.92.68.63.71.17L973.82,498h.06l-.5,1-.49,1-.51,1.07.29.17.89-2h.06l-.49,1h0l-.46,1,1.8,1c12.1,6.8,24.2,13.58,36.25,20.46l18.09,10.29,9,5.14,4.52,2.56,2.26,1.29,1.14.65c.39.21.91.45,1.34.64a21.48,21.48,0,0,0,9,1.73,17.37,17.37,0,0,0,2.39-.19c.56-.07,1.11-.17,1.65-.29l.42-.1.23-.05.2,0a21.54,21.54,0,0,0,10-5.71,21.85,21.85,0,0,0,3.48-4.63l2.56-4.52,7.6-13.41,2.65-4.68c2.79-4.92,5.62-9.8,8.45-14.7l.78-1.35.21,11.93v.54l1.19,50.91-10.35,77.1h0v.19l-2.3,38.47-1.15,19.3-.29,4.82c-.08,1.6-.1,3.21-.16,4.82l-.3,9.66-1.24,38.63L1081,790.37l-.54,19.31c-.12,3.23-.1,6.44-.15,9.66l-.08,9.66-.31,31.4h5.42l.63-31.3.14-7,.06-2.66c0-.28,0-.56,0-.84,0-2.18.07-4.36.14-6.54,0-.75,0-1.51.08-2.27l.75-19.28,2.92-77.12q.12-4.83.35-9.64c.12-2.65.26-5.31.41-8l.18-3.21.54-8.91c.18-2.94.36-5.87.52-8.81s.34-5.58.49-8.37q.3-5.44.58-10.88v-.1l.89-17.2h0l116.47,0h0l.9,17.33c.33,6.41.67,12.84,1.07,19.25.72,12.84,1.67,25.67,2,38.53l2.91,77.12.75,19.28c.15,3.22.16,6.43.24,9.65l.2,9.65.63,31.3h5.42l-.31-31.4-.08-9.66c0-3.22,0-6.43-.15-9.66l-.54-19.31-1.08-38.61-1.23-38.63-.31-9.66c-.06-1.61-.08-3.22-.16-4.82l-.29-4.82-1.15-19.3-2.3-38.47v-.19h0l-10.35-77.1,1.19-50.91v-.54l.23-13.1,6.5,21.63,9.81,32.71-2.57,43.75L1219.6,632v.09l0,.13h0l2.34,20.14.07.61.75.87,5.46,5.91,13.38,14.5,4.77,5.19,1,1.09,2.19,2.38,15.11-9.78ZM957,487.94l-21.57-22.77,3.36-6.09L970,465.2,983.44,477l-7.37,16.09Zm137.91,142.5,1.58-13,2.16-19.37.29-2.65,1.81-16.72,2.24-19.36,0-.28v-.26l-.5-16.77v-.07q-.12-4.15-.25-8.32v-.06c-.09-2.78-.17-5.55-.22-8.33l-.4-16.77-.29-16.77,0-3.14h-8.63l-23.26,43.77,0,.06a16.82,16.82,0,0,1-2.12,2.7,16.48,16.48,0,0,1-7.55,4.43l-.55.13a0,0,0,0,0,0,0,12.51,12.51,0,0,1-1.36.25,17,17,0,0,1-3.7.08,16.67,16.67,0,0,1-5-1.28c-.36-.16-.6-.28-1-.46l-.07,0-1.06-.6-2.25-1.29-4.51-2.57-9-5.16-18-10.31-33.89-19.38,5.32-9.12,3.54-10L1037,502.8l.86.41L1048,508l1.08.51,2.78-5.28.28-.54.6-1.14,1.2-2.33h0l1.59-2.95h0l.71-1.32,14.83-27.5,0,0,8.55-15.84,1.07-2v0l.26-.47.23-.41c.16-.26.33-.54.49-.83.38-.63.8-1.24,1.23-1.84l.07-.11a34,34,0,0,1,2.13-2.81,40.36,40.36,0,0,1,3.36-3.55c.29-.27.67-.6,1-.89l.5-.45.42-.36c.2-.18.43-.36.67-.56l.2-.14v0c.38-.31.79-.61,1.21-.92,1.06-.81,2.19-1.56,3.34-2.3a70.09,70.09,0,0,1,7.23-4,91.26,91.26,0,0,1,15.72-5.7c2.22-.58,4.47-1.08,6.73-1.51l24.24,38.62-.21,18.43-.14,21.37-.12,42.74.12,42.74.14,21.37.22,19.15Zm36.66-208.74a119.87,119.87,0,0,1,15.4-1.05h10.7a120.1,120.1,0,0,1,15.53,1.06l-20.66,31.7Zm71.76,66.84,0,3.14-.29,16.77-.39,16.77c-.13,5.59-.32,11.19-.48,16.78l-.5,16.77V559l0,.32,2.24,19.36L1206,598l2.16,19.37,1.58,13h0c-11.74-.74-44.36-2.69-54.42-3.3l.23-19.17.14-21.37.12-42.74-.12-42.74-.14-21.37-.21-18.31,23.94-38.72q3.33.63,6.61,1.49a91.26,91.26,0,0,1,15.72,5.7,70.09,70.09,0,0,1,7.23,4c.86.55,1.72,1.12,2.54,1.7l.8.6.59.43.62.49h0l.08.05.12.09c.24.2.47.38.67.56l.43.36.46.42,0,0,.51.45.26.23.22.21.88.85q1.31,1.29,2.49,2.7c.26.31.52.63.77.95s.49.64.73,1a34.56,34.56,0,0,1,2,3c.16.27.31.54.46.81.45.81.86,1.64,1.24,2.48.17.37.32.74.47,1.11l.23.58.25.63,1,2.62,2,5.25,4,10.51,7.94,21q1.17,3.08,2.32,6.17c4.51,12,8.94,24,13.42,36l.1.33a16.31,16.31,0,0,1,1.14,5.09,16.65,16.65,0,0,1-.09,2.64l-.45,3-1.89,12.22L1251.29,583l-1.26,8.17-2.51,16.29-1.49,9.15-2,12.36h0l-10.5-1.08-8,.8,4.33-80.19h0l0-.53-.16-.48-10.3-33.59,0-.14L1212,488.54ZM1251,672.16l-2.06-2-4.29-4.08-16.81-16v-.08l-1.77-12.38-.49-3.44h13.46l3.51,8.38,5.38,12.79,0,.1,6.17,14.67,0,.09Zm-75.79,163.56-.4-4.72-.23-2.89-1-13.35c0-.48-.08-1-.12-1.46s-.07-1-.12-1.47-.07-.76-.12-1.13l-.33-2.81-.15-1.24-1-8.08-1.9-16.18L1166.18,750q-1.2-11-2.39-22l-.48-4.56q-.64-6-1.26-12c-.37-3.59-.74-7.19-1.1-10.78-.26-2.6-.51-5.21-.77-7.82l-.72-7.71-.28-2.82h-13.72l-.28,2.82c-2,21.64-4.36,43.23-6.72,64.83l-3.68,32.37-1.9,16.18-1,8.08-.49,4.05c-.16,1.34-.23,2.71-.34,4.06l-1.3,16.24-1.37,16.24-1.12,13.16h6l3.92-45c.13-1.35.22-2.7.38-4l.51-4.05,1-8.07,2-16.15,4.1-32.29,7-54.88,7,54.88,4.11,32.29,2,16.15,1,8.07.5,4.05c.17,1.34.26,2.69.39,4l3.92,45h6l-1.12-13.16Z"/><path d="M1051.21,492.74s0,0,0,.05l2.55-5.46Z"/><path d="M1186.9,344.43c0-.86-.06-1.74-.15-2.61l-.4-2.84c0-.24-.1-.46-.15-.69l-.07-.28a35.07,35.07,0,0,0-6.55-13.89c-.13-.16-.27-.3-.39-.46-.39-.48-.79-1-1.21-1.42l-.46-.5c-.58-.62-1.19-1.23-1.82-1.81h0c-.47-.44-1-.86-1.46-1.26h0c-.75-.62-1.53-1.2-2.34-1.75h0a34.88,34.88,0,0,0-4.27-2.51,33.11,33.11,0,0,0-3.56-1.52h0l-.93-.32q-1.39-.46-2.82-.81a31.45,31.45,0,0,0-15.5,0c-1,.23-1.91.5-2.83.81l-.93.32a34,34,0,0,0-3.56,1.52,34.62,34.62,0,0,0-12,9.71,35,35,0,0,0-6.55,13.9v.06l-.06.22c0,.11,0,.22-.08.33a3.4,3.4,0,0,0-.07.34l-.4,2.85c-.09.88-.12,1.76-.15,2.61,0,.4,0,.81-.05,1.21s0,.67,0,1c0,.6.06,1.21.11,1.82a.88.88,0,0,1,0,.17c0,.29.06.59.1.88l.06.51c0,.33.1.65.15,1,0,.15,0,.3.08.45l.31,1.5.06.32c.61,3.52,1.32,7.11,2,10.58l.76,3.82,2.31,11.66.22.79c.07.24.14.49.22.73a24.57,24.57,0,0,0,1.84,4.34l.4.71a21.17,21.17,0,0,0,1.27,2c.31.43.63.86,1,1.27s.67.79,1,1.16c0,0,0,0,0,0a24.94,24.94,0,0,0,5.49,4.47,25.94,25.94,0,0,0,5.71,2.54c1.1.33,2.08.54,3,.73s1.92.35,2.92.48a42.89,42.89,0,0,0,10.78,0c1-.13,2-.3,2.92-.48s1.87-.4,3-.73a25.94,25.94,0,0,0,5.71-2.54,25.17,25.17,0,0,0,8.76-8.88,24.9,24.9,0,0,0,2.46-5.79l.22-.74.46-2.2,2.61-13.28c.69-3.48,1.4-7.08,2-10.64l.37-1.79c.11-.6.2-1.22.29-1.91a36.49,36.49,0,0,0,.24-3.85C1186.93,345.23,1186.92,344.83,1186.9,344.43Zm-60.44,10c0-.22-.1-.43-.14-.65-.1-.44-.19-.88-.27-1.31,0-.22-.08-.44-.12-.66l-.21-1.28,0-.3a.13.13,0,0,0,0-.06c-.05-.47-.1-.93-.14-1.41v0a28.44,28.44,0,0,1,0-3c0-.37.08-.77.11-1.18.05-.64.1-1.23.19-1.83l.43-2.25h0a3.17,3.17,0,0,1,.12-.41,2.76,2.76,0,0,0,.08-.27c.13-.48.27-.95.43-1.42a27.68,27.68,0,0,1,1.42-3.44,26.86,26.86,0,0,1,3.69-5.58,25.79,25.79,0,0,1,9.37-6.87,25.5,25.5,0,0,1,9.88-2.14h1.53l.92,0h.49a25.65,25.65,0,0,1,7.31,1.26c.78.25,1.56.55,2.32.88.46.2.91.41,1.35.64h0a26.06,26.06,0,0,1,2.57,1.49,25.33,25.33,0,0,1,3.46,2.68,23.9,23.9,0,0,1,2,2.06,26.49,26.49,0,0,1,4,6.25,7.22,7.22,0,0,1,.31.69c.2.45.38.9.54,1.37h0c.26.69.49,1.4.68,2.11,0,.1,0,.19.08.28a3.31,3.31,0,0,1,.12.42l.43,2.27c.09.58.14,1.17.19,1.81,0,.41.07.81.11,1.22a27.82,27.82,0,0,1,0,3c0,.51-.09,1-.15,1.52l-.25,1.56c-.15.88-.35,1.77-.54,2.63s-.39,1.79-.54,2.71l-3.91,20.51-.15.51a17.76,17.76,0,0,1-1.75,4.18,18.31,18.31,0,0,1-10.49,8.26c-.78.23-1.68.43-2.3.55s-1.56.29-2.44.41a36.22,36.22,0,0,1-9,0c-.87-.12-1.67-.25-2.43-.41-.61-.12-1.52-.32-2.3-.55a18.41,18.41,0,0,1-4.16-1.85,18,18,0,0,1-3.59-2.84,17.21,17.21,0,0,1-2.74-3.57c-.21-.36-.4-.72-.58-1.1a15.3,15.3,0,0,1-.83-2c-.13-.35-.24-.71-.34-1.07l-.16-.57-3-15.66-.92-4.81C1126.85,356.24,1126.65,355.33,1126.46,354.45Z"/><polygon points="1246.59 634.22 1243.25 634.22 1243.21 634.15 1245.25 634.19 1246.21 634.21 1246.59 634.22"/><polygon points="973.13 500.31 973.14 500.32 972.68 501.29 972.66 501.34 972.65 501.34 972.67 501.29 973.56 499.27 973.62 499.28 973.13 500.31"/><polygon points="1036.03 496.7 1038.93 497.9 1038.93 498 1036.03 496.7"/><polygon points="1055.52 496.26 1052.73 501.55 1053.93 499.22 1053.93 499.21 1055.52 496.26"/><polygon class="cls-1" points="878.58 433.5 895.24 427.15 888.9 410.49 878.58 433.5"/><path class="cls-1" d="M877,441.21l23,60.43,67.61-25.73-32.25-84.73-40.78,15.53L903.81,431Zm47.7,32.32,24.23-9.23,2.53,6.65-24.23,9.22Zm-24.29-4.14,44.07-16.78,2.53,6.65L902.91,476ZM896,457.75,940,441l2.53,6.65L898.48,464.4ZM891.47,446l44.07-16.78,2.53,6.65L894,452.63Z"/><line class="cls-2" x1="950.16" y1="467.63" x2="925.94" y2="476.85"/><rect x="925.09" y="468.68" width="25.92" height="7.11" transform="translate(-106.63 364.61) rotate(-20.84)"/><line class="cls-2" x1="945.71" y1="455.94" x2="901.65" y2="472.71"/><rect x="900.11" y="460.77" width="47.15" height="7.11" transform="translate(-104.76 358.98) rotate(-20.84)"/><line class="cls-2" x1="941.28" y1="444.3" x2="897.22" y2="461.08"/><rect x="895.68" y="449.13" width="47.15" height="7.11" transform="translate(-100.91 356.64) rotate(-20.84)"/><line class="cls-2" x1="936.81" y1="432.54" x2="892.74" y2="449.31"/><rect x="891.2" y="437.37" width="47.15" height="7.11" transform="translate(-97.02 354.28) rotate(-20.84)"/><path d="M868.93,438.77,897,512.46,977,482,938.33,380.37,886.24,400.2l-17.3,38.56Zm26.31-11.62-16.66,6.34,10.32-23ZM877,441.21,903.81,431l-9.25-24.28,40.78-15.53,32.25,84.73L900,501.64Z"/><polygon points="868.93 438.76 868.93 438.77 868.94 438.76 868.93 438.76"/><path class="cls-1" d="M1300,513.26V900H896.45v-332H875.94a4.06,4.06,0,0,1-4.05-4.06V517.31a4.05,4.05,0,0,1,4.05-4Z"/><path d="M1300,572.05H875.94a8.07,8.07,0,0,1-8.05-8.06V517.31a8.06,8.06,0,0,1,8.05-8H1300v8H875.94L875.89,564l424.11.06Z"/><rect x="892.45" y="566.73" width="8" height="333.27"/></svg>