<svg width="1300" height="1000" viewBox="0 0 1300 1000" fill="none" xmlns="http://www.w3.org/2000/svg"><path fill-rule="evenodd" clip-rule="evenodd" d="M1189.65 333.086c-3.77 1.408-10.81 1.91-12.65 1.914 0 0-8.3-.069-13.14-1.914-5.44-2.079-8.48-4.109-12.16-8.575-2.49-3.022-4.44-8.223-5.32-10.853a22.077 22.077 0 0 1-.8-3.31l-4.09-24.154s-.5-3.492-.49-5.742c.02-5.351.75-8.493 2.92-13.398 2.23-5.038 4.18-7.735 8.27-11.484 4.35-3.996 7.49-5.742 13.13-7.625 4.38-1.462 7.06-1.907 11.68-1.945 4.96.167 6.81.479 11.55 1.945 4.74 1.577 9.58 4.373 13.26 7.625 3.68 3.252 6.26 7.101 8.27 11.484s2.92 8.615 2.92 13.398c0 1.803-.2 3.959-.49 5.742l-4.86 23.833a25.09 25.09 0 0 1-1.01 3.617c-1.04 2.793-3.21 8.177-5.32 10.829-2.92 3.676-7.16 6.929-11.67 8.613Zm-2.46-6.699c-3.04 1.186-8.71 1.609-10.19 1.613 0 0-6.69-.058-10.58-1.613-4.39-1.752-6.83-3.462-9.8-7.226-1.95-2.474-3.48-6.68-4.22-8.951a20.428 20.428 0 0 1-.74-3.184l-3.27-20.155s-.4-2.943-.39-4.839c.02-4.509.6-7.156 2.35-11.29 1.8-4.246 3.37-6.518 6.66-9.677 3.51-3.368 6.04-4.839 10.58-6.426 3.53-1.232 5.68-1.607 9.41-1.639 4 .141 5.49.403 9.3 1.639 3.82 1.329 7.72 3.685 10.69 6.426 2.96 2.74 5.04 5.983 6.66 9.677s2.35 7.26 2.35 11.29c0 1.52-.16 3.337-.39 4.839l-3.88 19.862a24.563 24.563 0 0 1-.93 3.486c-.87 2.407-2.56 6.742-4.21 8.91-2.35 3.098-5.77 5.839-9.4 7.258ZM964 310c0 11.046-8.954 20-20 20s-20-8.954-20-20 8.954-20 20-20 20 8.954 20 20Zm-7 0c0 7.18-5.82 13-13 13s-13-5.82-13-13 5.82-13 13-13 13 5.82 13 13Z" fill="#000"/><path fill-rule="evenodd" clip-rule="evenodd" d="M1279.43 469.162c0-1.662-5.91-57.127-23.43-93.162-15.05-29.175-40.06-34.545-80.18-34.979-36.98-.426-60.32 6.979-85.95 34.197C1069.5 406 1056 428.5 1056 428.5l-42.5-42-25.047-34.394c-2.992-4.281-9.286-7.313-14.375-6.135-7.119 1.649-12.415 9.915-10.427 16.948L972 396l83.24 97.535a5.007 5.007 0 0 0 7.6.066l50.66-59.101-7 52.5-1.28 13H981.16l-27.859-158H974c11.046 0 20-8.954 20-20v-25c0-11.046-8.954-20-20-20h-60c-11.046 0-20 8.954-20 20v25c0 11.046 8.954 20 20 20h20.699L906.84 500H888c-11.046 0-20 8.954-20 20v1c0 11.046 8.954 20 20 20v359h7V541h405v-7H888.5c-7.456 0-13.5-6.044-13.5-13.5s6.044-13.5 13.5-13.5H1300v-7h-21.04c.28-10.498.47-21.054.47-30.838ZM946.193 342l27.859 158h-60.104l27.859-158h4.386Zm325.137 158 .11-27.529h-.01s-4.44-56.684-20.98-91.956c-14.2-28.557-36.99-32.069-74.96-32.494-17.99-.213-58.49 2.979-80.27 32.494C1071 418.021 1057.5 440 1057.5 440l-51.5-50-22.857-34.285a7.22 7.22 0 0 0-6.007-3.215c-4.816 0-8.282 4.626-6.929 9.248L979.5 393.5l77.23 90.32a3 3 0 0 0 4.56.023l57.42-65.487a.97.97 0 0 1 1.7.717l-5.91 68.427-1.23 12.5h119.93l-1.2-12-3.4-68.664a1.235 1.235 0 0 1 1.24-1.324c.61.005 1.13.462 1.21 1.07l7.46 50.009 2.81 30.909h30.01ZM916 284c-8.284 0-15 6.716-15 15v21c0 8.284 6.716 15 15 15h56c8.284 0 15-6.716 15-15v-21c0-8.284-6.716-15-15-15h-56Z" fill="#000"/><path d="M0 900h1300v100H0V900Z" fill="#000"/></svg>