<svg width="1300" height="1000" viewBox="0 0 1300 1000" fill="none" xmlns="http://www.w3.org/2000/svg"><path fill-rule="evenodd" clip-rule="evenodd" d="M987 335c1.842-.004 8.88-.506 12.649-1.914 4.511-1.684 8.751-4.937 11.671-8.613 2.11-2.652 4.28-8.036 5.32-10.829a25.09 25.09 0 0 0 1.01-3.617l4.86-23.833c.29-1.783.49-3.939.49-5.742 0-4.783-.91-9.015-2.92-13.398-2.01-4.383-4.59-8.232-8.27-11.484-3.68-3.252-8.52-6.048-13.262-7.625-4.737-1.466-6.585-1.778-11.548-1.945-4.624.038-7.296.483-11.676 1.945-5.64 1.883-8.779 3.629-13.135 7.625-4.085 3.749-6.038 6.446-8.27 11.484-2.173 4.905-2.899 8.047-2.919 13.398-.008 2.25.487 5.742.487 5.742l4.093 24.154c.19 1.122.439 2.231.801 3.31.884 2.63 2.832 7.831 5.322 10.853 3.679 4.466 6.714 6.496 12.162 8.575C978.699 334.931 987 335 987 335Zm0-7c1.484-.004 7.153-.427 10.189-1.613 3.631-1.419 7.051-4.16 9.401-7.258 1.65-2.168 3.34-6.503 4.21-8.91.4-1.135.7-2.302.93-3.486l3.88-19.862c.23-1.502.39-3.319.39-4.839 0-4.03-.73-7.596-2.35-11.29-1.62-3.694-3.7-6.937-6.66-9.677-2.97-2.741-6.87-5.097-10.688-6.426-3.815-1.236-5.304-1.498-9.302-1.639-3.725.032-5.878.407-9.405 1.639-4.544 1.587-7.073 3.058-10.581 6.426-3.292 3.159-4.864 5.431-6.663 9.677-1.75 4.134-2.335 6.781-2.351 11.29-.007 1.896.392 4.839.392 4.839l3.265 20.155c.174 1.079.403 2.145.741 3.184.739 2.271 2.275 6.477 4.224 8.951 2.963 3.764 5.408 5.474 9.797 7.226C980.313 327.942 987 328 987 328Zm102.43 141.162c0-1.662-5.91-57.127-23.43-93.162-15.05-29.175-40.06-34.545-80.183-34.979-36.975-.426-60.317 6.979-85.944 34.197C879.5 406 866 428.5 866 428.5l-42.5-42-25.047-34.394c-2.992-4.281-9.286-7.313-14.375-6.135-7.119 1.649-12.415 9.915-10.427 16.948L782 396l83.242 97.535a5 5 0 0 0 7.594.066L923.5 434.5l-7 52.5-1.279 13H788.5c-11.322 0-20.5 9.178-20.5 20.5 0 11.155 8.909 20.229 20 20.494V900H0v100h1300V900h-120V540.994c11.09-.265 20-9.339 20-20.494 0-11.322-9.18-20.5-20.5-20.5h-90.54c.28-10.498.47-21.054.47-30.838Zm-8.1 30.838.11-27.529h-.01s-4.44-56.684-20.98-91.956c-14.2-28.557-36.99-32.069-74.96-32.494-17.99-.213-58.49 2.979-80.27 32.494C881 418.021 867.5 440 867.5 440L816 390l-22.857-34.285a7.22 7.22 0 0 0-6.007-3.215c-4.816 0-8.282 4.626-6.929 9.248L789.5 393.5l77.233 90.32a3 3 0 0 0 4.561.023l57.416-65.487a.97.97 0 0 1 1.699.717L924.5 487.5l-1.23 12.5h119.93l-1.2-12-3.4-68.664a1.235 1.235 0 0 1 1.24-1.324c.61.005 1.13.462 1.21 1.07l7.46 50.009 2.81 30.909h30.01Zm91.67 41v359H795V541h378Zm6.5-7c7.46 0 13.5-6.044 13.5-13.5s-6.04-13.5-13.5-13.5h-391c-7.456 0-13.5 6.044-13.5 13.5s6.044 13.5 13.5 13.5h391Z" fill="#000"/></svg>