<svg width="1300" height="1000" viewBox="0 0 1300 1000" fill="none" xmlns="http://www.w3.org/2000/svg"><path d="M788 534h7v366h-7V534Zm385 0h7v366h-7V534Z" fill="#000"/><path fill-rule="evenodd" clip-rule="evenodd" d="M788.5 500c-11.322 0-20.5 9.178-20.5 20.5s9.178 20.5 20.5 20.5h391c11.32 0 20.5-9.178 20.5-20.5s-9.18-20.5-20.5-20.5h-391Zm0 7c-7.456 0-13.5 6.044-13.5 13.5s6.044 13.5 13.5 13.5h391c7.46 0 13.5-6.044 13.5-13.5s-6.04-13.5-13.5-13.5h-391Z" fill="#000"/><path d="M0 900h1300v100H0V900Z" fill="#000"/><path d="M1084.84 502.479H887.128L887 469.45s5.45-56.684 21.99-91.955c14.201-28.558 39.38-32.07 77.351-32.495 37.739.447 60.489 4.044 74.629 32.495 16.54 35.271 23.99 91.955 23.99 91.955l-.12 33.029Z" fill="#fff"/><path d="M1089.43 469.162c0-1.662-5.91-57.127-23.43-93.162-15.05-29.175-40.06-34.545-80.183-34.979-40.061.442-67.861 5.828-82.897 34.979-17.528 36.035-23.43 91.5-23.43 93.162 0 11.495.251 24.058.621 36.338h7.493l-.128-33.029h.01s4.44-56.684 20.98-91.956c14.201-28.557 39.38-32.069 77.351-32.494 37.733.446 60.483 4.044 74.633 32.494 16.54 35.272 20.98 91.956 20.98 91.956h.01l-.13 33.029h7.5c.37-12.28.62-24.843.62-36.338Z" fill="#000"/><path d="m1042 488-3.39-68.664a1.222 1.222 0 0 1 1.23-1.324c.61.005 1.13.462 1.21 1.07l7.46 50.009 3.31 36.409h-8.07L1042 488Zm-115.084 0 3.395-68.664a1.227 1.227 0 0 0-2.442-.254l-7.463 50.009-3.31 36.409h8.07l1.75-17.5Zm72.733-154.914c-3.769 1.408-10.806 1.91-12.649 1.914 0 0-8.3-.069-13.135-1.914-5.448-2.079-8.483-4.109-12.162-8.575-2.49-3.022-4.438-8.223-5.321-10.853-.362-1.079-.612-2.188-.802-3.31l-4.093-24.154s-.495-3.492-.487-5.742c.02-5.351.746-8.493 2.919-13.398 2.232-5.038 4.185-7.735 8.271-11.484 4.355-3.996 7.494-5.742 13.135-7.625 4.379-1.462 7.051-1.907 11.675-1.945 4.963.167 6.811.478 11.548 1.945 4.742 1.577 9.582 4.373 13.262 7.625 3.68 3.252 6.26 7.101 8.27 11.484s2.92 8.615 2.92 13.398c0 1.803-.2 3.959-.49 5.742l-4.86 23.833a25.09 25.09 0 0 1-1.01 3.617c-1.04 2.793-3.21 8.177-5.32 10.829-2.92 3.676-7.16 6.929-11.671 8.613Z" fill="#000"/><path d="M997.189 326.387c-3.035 1.186-8.705 1.609-10.189 1.613 0 0-6.686-.058-10.581-1.613-4.389-1.752-6.834-3.462-9.797-7.226-1.948-2.474-3.485-6.68-4.224-8.951-.337-1.039-.566-2.105-.741-3.184l-3.265-20.155s-.398-2.943-.392-4.839c.016-4.509.601-7.156 2.352-11.29 1.798-4.246 3.371-6.518 6.662-9.677 3.508-3.368 6.037-4.839 10.581-6.426 3.528-1.232 5.68-1.607 9.405-1.639 3.998.141 5.487.403 9.302 1.639 3.818 1.329 7.718 3.685 10.688 6.426 2.96 2.74 5.04 5.983 6.66 9.677s2.35 7.26 2.35 11.29c0 1.52-.16 3.337-.39 4.839l-3.88 19.862a24.563 24.563 0 0 1-.93 3.486c-.87 2.407-2.56 6.742-4.21 8.91-2.35 3.098-5.77 5.839-9.401 7.258Z" fill="#fff"/></svg>