<svg width="1300" height="1000" viewBox="0 0 1300 1000" fill="none" xmlns="http://www.w3.org/2000/svg"><path d="M788 534h7v366h-7V534Zm385 0h7v366h-7V534Z" fill="#000"/><path fill-rule="evenodd" clip-rule="evenodd" d="M788.5 500c-11.322 0-20.5 9.178-20.5 20.5s9.178 20.5 20.5 20.5h391c11.32 0 20.5-9.178 20.5-20.5s-9.18-20.5-20.5-20.5h-391Zm0 7c-7.456 0-13.5 6.044-13.5 13.5s6.044 13.5 13.5 13.5h391c7.46 0 13.5-6.044 13.5-13.5s-6.04-13.5-13.5-13.5h-391Z" fill="#000"/><mask id="a" fill="#fff"><rect x="746.557" y="410.534" width="105.267" height="84.842" rx="3" transform="rotate(-117.469 746.557 410.534)"/></mask><rect x="746.557" y="410.534" width="105.267" height="84.842" rx="3" transform="rotate(-117.469 746.557 410.534)" fill="#fff" stroke="#000" stroke-width="14" mask="url(#a)"/><mask id="b" fill="#fff"><rect x="739.076" y="391.716" width="105.267" height="84.842" rx="3" transform="rotate(-102.104 739.076 391.716)"/></mask><rect x="739.076" y="391.716" width="105.267" height="84.842" rx="3" transform="rotate(-102.104 739.076 391.716)" fill="#fff" stroke="#000" stroke-width="14" mask="url(#b)"/><path d="M1061 375.996c17.53 36.035 23.5 94.004 23.5 94.004 0 11.495.37 18.22 0 30.5H921l1.82-16.5 4.68-60.5-55 63.496a5 5 0 0 1-7.594-.066L787.5 396l-9.5-30.5c-1.987-7.032-1.117-12.851 6.002-14.5 5.089-1.178 7.507-.78 10.5 3.5l24 34 49 45.996s19.626-27.718 40-58.5c24.498-22.496 40.525-29.454 77.5-29.029 40.118.435 64.328 5.033 75.998 29.029Z" fill="#fff"/><path d="M1066 376c17.52 36.035 23.43 91.5 23.43 93.163 0 11.494-.26 24.057-.63 36.337h-7.49l.13-33.029h-.01s-4.44-56.684-20.98-91.956c-14.2-28.557-36.99-32.069-74.961-32.494-17.99-.213-58.49 2.979-80.27 32.494-24.22 37.506-37.72 59.485-37.72 59.485l-51.5-50-22.856-34.285a7.221 7.221 0 0 0-6.008-3.215c-4.816 0-8.282 4.626-6.929 9.248l9.293 31.752 77.234 90.32a3 3 0 0 0 4.561.023l57.416-65.487a.97.97 0 0 1 1.699.717l-5.91 68.427-1.77 18h-8.049l1.819-18.5 7-52.5-50.664 59.101a5 5 0 0 1-7.594-.066L781.999 396l-8.349-33.081c-1.987-7.033 3.308-15.299 10.428-16.948 5.088-1.178 11.382 1.854 14.375 6.135l25.046 34.394 42.5 42s13.5-22.5 33.874-53.282c25.626-27.218 48.968-34.623 85.943-34.197 40.124.434 65.134 5.804 80.184 34.979Z" fill="#000"/><path d="M1038.6 419.336 1042 488l1.75 17.5h8.07l-3.31-36.409-7.46-50.009a1.234 1.234 0 0 0-1.21-1.07 1.236 1.236 0 0 0-1.24 1.324Zm-38.951-86.25c-3.769 1.408-10.807 1.91-12.649 1.914 0 0-8.301-.069-13.135-1.914-5.448-2.079-8.483-4.109-12.162-8.575-2.49-3.022-4.438-8.223-5.322-10.853-.362-1.079-.611-2.188-.801-3.31l-4.093-24.154s-.495-3.492-.487-5.742c.02-5.351.746-8.493 2.919-13.398 2.232-5.038 4.184-7.735 8.27-11.484 4.356-3.996 7.495-5.742 13.135-7.625 4.38-1.462 7.052-1.907 11.676-1.945 4.963.167 6.811.478 11.548 1.945 4.742 1.577 9.582 4.373 13.262 7.625 3.68 3.252 6.26 7.101 8.27 11.484s2.92 8.615 2.92 13.398c0 1.803-.2 3.959-.49 5.742l-4.86 23.833a25.09 25.09 0 0 1-1.01 3.617c-1.04 2.793-3.21 8.177-5.32 10.829-2.92 3.676-7.16 6.929-11.671 8.613Z" fill="#000"/><path d="M997.189 326.387c-3.036 1.186-8.705 1.609-10.189 1.613 0 0-6.687-.058-10.581-1.613-4.389-1.752-6.834-3.462-9.797-7.226-1.949-2.474-3.485-6.68-4.224-8.951-.338-1.039-.567-2.105-.741-3.184l-3.265-20.155s-.399-2.943-.392-4.839c.016-4.509.601-7.156 2.351-11.29 1.799-4.246 3.371-6.518 6.663-9.677 3.508-3.368 6.037-4.839 10.581-6.426 3.527-1.232 5.68-1.607 9.405-1.639 3.998.141 5.487.403 9.302 1.639 3.818 1.329 7.718 3.685 10.688 6.426 2.96 2.74 5.04 5.983 6.66 9.677s2.35 7.26 2.35 11.29c0 1.52-.16 3.337-.39 4.839l-3.88 19.862a24.563 24.563 0 0 1-.93 3.486c-.87 2.407-2.56 6.742-4.21 8.91-2.35 3.098-5.77 5.839-9.401 7.258Z" fill="#fff"/><path fill="#000" d="M0 900h1300v100H0z"/></svg>