<svg width="1300" height="1000" viewBox="0 0 1300 1000" fill="none" xmlns="http://www.w3.org/2000/svg">
<path d="M0 900H1300V1000H0V900Z" fill="black"/>
<path d="M788 534H795V900H788V534Z" fill="black"/>
<path d="M1173 534H1180V900H1173V534Z" fill="black"/>
<path fill-rule="evenodd" clip-rule="evenodd" d="M788.5 500C777.178 500 768 509.178 768 520.5C768 531.822 777.178 541 788.5 541H1179.5C1190.82 541 1200 531.822 1200 520.5C1200 509.178 1190.82 500 1179.5 500H788.5ZM788.5 507C781.044 507 775 513.044 775 520.5C775 527.956 781.044 534 788.5 534H1179.5C1186.96 534 1193 527.956 1193 520.5C1193 513.044 1186.96 507 1179.5 507H788.5Z" fill="black"/>
<path fill-rule="evenodd" clip-rule="evenodd" d="M468.5 698C475.404 698 481 703.596 481 710.5C481 717.404 475.404 723 468.5 723H351C339.954 723 331 714.046 331 703V615.5C331 608.596 336.596 603 343.5 603C350.404 603 356 608.596 356 615.5V693C356 695.761 358.239 698 361 698H468.5ZM468.5 705C471.538 705 474 707.462 474 710.5C474 713.538 471.538 716 468.5 716H353C344.716 716 338 709.284 338 701V615.5C338 612.462 340.463 610 343.5 610C346.538 610 349 612.462 349 615.5V695C349 700.523 353.477 705 359 705H468.5Z" fill="black"/>
<path d="M461 717H454V900H461V717Z" fill="black"/>
<path d="M356 717H349V900H356V717Z" fill="black"/>
<path d="M1084.84 500.479H887.128L887 467.45C887 467.45 892.45 410.766 908.99 375.495C923.191 346.937 948.37 343.425 986.341 343C1024.08 343.447 1046.83 347.044 1060.97 375.495C1077.51 410.766 1084.96 467.45 1084.96 467.45L1084.84 500.479Z" fill="white"/>
<path d="M1089.43 467.162C1089.43 465.5 1083.52 410.035 1066 374C1050.95 344.825 1025.94 339.455 985.817 339.021C945.756 339.463 917.956 344.849 902.92 374C885.392 410.035 879.49 465.5 879.49 467.162C879.49 478.657 879.741 491.22 880.111 503.5H887.604L887.476 470.471H887.486C887.486 470.471 891.926 413.787 908.466 378.515C922.667 349.958 947.846 346.446 985.817 346.021C1023.55 346.467 1046.3 350.065 1060.45 378.515C1076.99 413.787 1081.43 470.471 1081.43 470.471H1081.44L1081.31 503.5H1088.81C1089.18 491.22 1089.43 478.657 1089.43 467.162Z" fill="black"/>
<path d="M1042 486L1038.61 417.336C1038.55 416.618 1039.12 416.005 1039.84 416.012C1040.45 416.017 1040.97 416.474 1041.05 417.082L1048.51 467.091L1051.82 503.5H1043.75L1042 486Z" fill="black"/>
<path d="M926.916 486L930.311 417.336C930.368 416.618 929.797 416.005 929.076 416.012C928.463 416.017 927.947 416.474 927.869 417.082L920.406 467.091L917.096 503.5H925.166L926.916 486Z" fill="black"/>
<path d="M999.649 331.086C995.88 332.494 988.843 332.996 987 333C987 333 978.7 332.931 973.865 331.086C968.417 329.007 965.382 326.977 961.703 322.511C959.213 319.489 957.265 314.288 956.382 311.658C956.02 310.579 955.77 309.47 955.58 308.348L951.487 284.194C951.487 284.194 950.992 280.702 951 278.452C951.02 273.101 951.746 269.959 953.919 265.054C956.151 260.016 958.104 257.319 962.19 253.57C966.545 249.574 969.684 247.828 975.325 245.945C979.704 244.483 982.376 244.038 987 244C991.963 244.167 993.811 244.478 998.548 245.945C1003.29 247.522 1008.13 250.318 1011.81 253.57C1015.49 256.822 1018.07 260.671 1020.08 265.054C1022.09 269.437 1023 273.669 1023 278.452C1023 280.255 1022.8 282.411 1022.51 284.194L1017.65 308.027C1017.4 309.256 1017.07 310.468 1016.64 311.644C1015.6 314.437 1013.43 319.821 1011.32 322.473C1008.4 326.149 1004.16 329.402 999.649 331.086Z" fill="black"/>
<path d="M997.189 324.387C994.154 325.573 988.484 325.996 987 326C987 326 980.314 325.942 976.419 324.387C972.03 322.635 969.585 320.925 966.622 317.161C964.674 314.687 963.137 310.481 962.398 308.21C962.061 307.171 961.832 306.105 961.657 305.026L958.392 284.871C958.392 284.871 957.994 281.928 958 280.032C958.016 275.523 958.601 272.876 960.352 268.742C962.15 264.496 963.723 262.224 967.014 259.065C970.522 255.697 973.051 254.226 977.595 252.639C981.123 251.407 983.275 251.032 987 251C990.998 251.141 992.487 251.403 996.302 252.639C1000.12 253.968 1004.02 256.324 1006.99 259.065C1009.95 261.805 1012.03 265.048 1013.65 268.742C1015.27 272.436 1016 276.002 1016 280.032C1016 281.552 1015.84 283.369 1015.61 284.871L1011.73 304.733C1011.5 305.917 1011.2 307.084 1010.8 308.219C1009.93 310.626 1008.24 314.961 1006.59 317.129C1004.24 320.227 1000.82 322.968 997.189 324.387Z" fill="white"/>
</svg>
