<svg width="1300" height="1000" fill="none" xmlns="http://www.w3.org/2000/svg"><path fill-rule="evenodd" clip-rule="evenodd" d="M1177 335c1.84-.004 8.88-.506 12.65-1.914 4.51-1.684 8.75-4.937 11.67-8.613 2.11-2.652 4.28-8.036 5.32-10.829a25.09 25.09 0 0 0 1.01-3.617l4.86-23.833c.29-1.783.49-3.939.49-5.742 0-4.783-.91-9.015-2.92-13.398-2.01-4.383-4.59-8.232-8.27-11.484-3.68-3.252-8.52-6.048-13.26-7.625-4.74-1.466-6.59-1.778-11.55-1.945-4.62.038-7.3.483-11.68 1.945-5.64 1.883-8.78 3.629-13.13 7.625-4.09 3.749-6.04 6.446-8.27 11.484-2.17 4.905-2.9 8.047-2.92 13.398-.01 2.25.49 5.742.49 5.742l4.09 24.154c.19 1.122.44 2.231.8 3.31.88 2.63 2.83 7.831 5.32 10.853 3.68 4.466 6.72 6.496 12.16 8.575C1168.7 334.931 1177 335 1177 335Zm0-7c1.48-.004 7.15-.427 10.19-1.613 3.63-1.419 7.05-4.16 9.4-7.258 1.65-2.168 3.34-6.503 4.21-8.91.4-1.135.7-2.302.93-3.486l3.88-19.862c.23-1.502.39-3.319.39-4.839 0-4.03-.73-7.596-2.35-11.29-1.62-3.694-3.7-6.937-6.66-9.677-2.97-2.741-6.87-5.097-10.69-6.426-3.81-1.236-5.3-1.498-9.3-1.639-3.73.032-5.88.407-9.41 1.639-4.54 1.587-7.07 3.058-10.58 6.426-3.29 3.159-4.86 5.431-6.66 9.677-1.75 4.134-2.33 6.781-2.35 11.29-.01 1.896.39 4.839.39 4.839l3.27 20.155c.17 1.079.4 2.145.74 3.184.74 2.271 2.27 6.477 4.22 8.951 2.97 3.764 5.41 5.474 9.8 7.226C1170.31 327.942 1177 328 1177 328Zm102.43 141.162c0-1.662-5.91-57.128-23.43-93.162-15.05-29.175-40.06-34.545-80.18-34.979-40.06.442-67.86 5.828-82.9 34.979-17.53 36.034-23.43 91.5-23.43 93.162 0 9.783.18 20.34.46 30.838H888c-11.046 0-20 8.954-20 20v1c0 11.046 8.954 20 20 20v359H0v100h1300V900H895V541h405v-7H888.5c-7.456 0-13.5-6.044-13.5-13.5s6.044-13.5 13.5-13.5H1300v-7h-21.04c.28-10.498.47-21.055.47-30.838Zm-8.1 30.838h-30.01l-2.81-30.91-7.46-50.008a1.234 1.234 0 0 0-1.21-1.071 1.222 1.222 0 0 0-1.23 1.324L1232 488l1.2 12h-117.48l1.2-12 3.39-68.665c.06-.718-.51-1.33-1.23-1.324-.62.005-1.13.462-1.21 1.071l-7.46 50.008-2.81 30.91h-30.02l-.1-27.53h.01s4.44-56.683 20.98-91.955c14.2-28.557 39.38-32.07 77.35-32.495 37.73.447 60.48 4.044 74.63 32.495 16.54 35.272 20.98 91.955 20.98 91.955h.01l-.11 27.53Z" fill="#000"/></svg>