<svg width="1300" height="1000" fill="none" xmlns="http://www.w3.org/2000/svg"><path d="M0 900h1300v100H0V900Z" fill="#000"/><path fill-rule="evenodd" clip-rule="evenodd" d="M1177 335c1.84-.004 8.88-.506 12.65-1.914 4.51-1.684 8.75-4.937 11.67-8.613 2.11-2.652 4.28-8.036 5.32-10.829a25.09 25.09 0 0 0 1.01-3.617l4.86-23.833c.29-1.783.49-3.939.49-5.742 0-4.783-.91-9.015-2.92-13.398-2.01-4.383-4.59-8.232-8.27-11.484-3.68-3.252-8.52-6.048-13.26-7.625-4.74-1.466-6.59-1.778-11.55-1.945-4.62.038-7.3.483-11.68 1.945-5.64 1.883-8.78 3.629-13.13 7.625-4.09 3.749-6.04 6.446-8.27 11.484-2.17 4.905-2.9 8.047-2.92 13.398-.01 2.25.49 5.742.49 5.742l4.09 24.154c.19 1.122.44 2.231.8 3.31.88 2.63 2.83 7.831 5.32 10.853 3.68 4.466 6.72 6.496 12.16 8.575C1168.7 334.931 1177 335 1177 335Zm0-7c1.48-.004 7.15-.427 10.19-1.613 3.63-1.419 7.05-4.16 9.4-7.258 1.65-2.168 3.34-6.503 4.21-8.91.4-1.135.7-2.302.93-3.486l3.88-19.862c.23-1.502.39-3.319.39-4.839 0-4.03-.73-7.596-2.35-11.29-1.62-3.694-3.7-6.937-6.66-9.677-2.97-2.741-6.87-5.097-10.69-6.426-3.81-1.236-5.3-1.498-9.3-1.639-3.73.032-5.88.407-9.41 1.639-4.54 1.587-7.07 3.058-10.58 6.426-3.29 3.159-4.86 5.431-6.66 9.677-1.75 4.134-2.33 6.781-2.35 11.29-.01 1.896.39 4.839.39 4.839l3.27 20.155c.17 1.079.4 2.145.74 3.184.74 2.271 2.27 6.477 4.22 8.951 2.97 3.764 5.41 5.474 9.8 7.226C1170.31 327.942 1177 328 1177 328Zm102.43 141.163c0-1.663-5.91-57.128-23.43-93.163-15.05-29.175-40.06-34.545-80.18-34.979-40.06.442-67.86 5.828-82.9 34.979-17.53 36.035-23.43 91.5-23.43 93.163 0 9.783.18 20.339.46 30.837H888c-11.046 0-20 8.954-20 20v1c0 11.046 8.954 20 20 20v359h7V541h405v-7H888.5c-7.456 0-13.5-6.044-13.5-13.5s6.044-13.5 13.5-13.5H1300v-7h-21.04c.28-10.498.47-21.054.47-30.837Zm-8.1 30.837.11-27.529h-.01s-4.44-56.684-20.98-91.956c-14.15-28.45-36.9-32.048-74.63-32.494-37.97.425-63.15 3.937-77.35 32.494-16.54 35.272-20.98 91.956-20.98 91.956h-.01l.1 27.529h30.02l2.81-30.909 7.46-50.009c.08-.608.59-1.065 1.21-1.07.72-.007 1.29.606 1.23 1.324L1116.92 488l-1.2 12h117.48l-1.2-12-3.4-68.664a1.235 1.235 0 0 1 1.24-1.324c.61.005 1.13.462 1.21 1.07l7.46 50.009 2.81 30.909h30.01ZM481 688.5c0-6.904-5.596-12.5-12.5-12.5H361a5 5 0 0 1-5-5v-77.5c0-6.904-5.596-12.5-12.5-12.5s-12.5 5.596-12.5 12.5V681c0 10.371 7.893 18.898 18 19.901V900h7V701h98v199h7V701h7.5c6.904 0 12.5-5.596 12.5-12.5Zm-7 0a5.5 5.5 0 0 0-5.5-5.5H359c-5.523 0-10-4.477-10-10v-79.5a5.5 5.5 0 1 0-11 0V679c0 8.284 6.716 15 15 15h115.5a5.5 5.5 0 0 0 5.5-5.5Z" fill="#000"/></svg>