<svg id="Capa_1" data-name="Capa 1" xmlns="http://www.w3.org/2000/svg" viewBox="0 0 1300 1000"><defs><style>.cls-1{fill:#fff;}</style></defs><title>2-landmarks-expand</title><path class="cls-1" d="M1125.61,348.84c0,.51.08,1,.14,1.51l.26,1.58c.14.88.34,1.77.53,2.63s.4,1.8.55,2.71l3.9,20.52.16.56a18.92,18.92,0,0,0,1.75,4.19,18.32,18.32,0,0,0,6.35,6.42,18.59,18.59,0,0,0,4.18,1.86c.78.23,1.68.43,2.3.55s1.58.29,2.44.41a36.3,36.3,0,0,0,9,0c.87-.12,1.7-.26,2.45-.41s1.53-.32,2.3-.55a18.59,18.59,0,0,0,4.18-1.86,18.24,18.24,0,0,0,6.35-6.42,18.92,18.92,0,0,0,1.75-4.19l.15-.52,3.91-20.56c.16-.91.36-1.82.55-2.71s.39-1.75.54-2.63l.25-1.57c.06-.51.11-1,.15-1.52a28,28,0,0,0,0-3c0-.41-.08-.82-.11-1.22,0-.64-.1-1.24-.19-1.82l-.43-2.27c0-.14-.08-.28-.12-.42l-.09-.28a27,27,0,0,0-5.54-10.46,26.14,26.14,0,0,0-19-9l-1.42,0h-1l-.57,0a26.07,26.07,0,0,0-19.29,9,27.05,27.05,0,0,0-5.56,10.47c0,.09,0,.18-.07.27a3.84,3.84,0,0,0-.13.41l-.43,2.26c-.09.6-.14,1.2-.19,1.84,0,.4-.06.81-.11,1.18A26.25,26.25,0,0,0,1125.61,348.84Z"/><path class="cls-1" d="M1246.64,642.55h-7l.84,3.06,5.16,18.73-10.16,26.88h-3.77L1229.89,673l-2.49-25.54,0-.37c-.17-1.72-.34-3.45-.5-5.17-1.51-15.56-2.88-31.12-4.31-46.68l-1.18-13-1.12-13-1.11-13-.55-6.49-.27-3.28c-.11-1.1-.25-2.16-.37-3.26l-2.75-25.9c-.48-4.32-.88-8.64-1.32-13s-.86-8.64-1.26-12.95l-.3-2.87h-8.62l0,3.14-.29,16.77-.39,16.76c-.13,5.58-.32,11.18-.48,16.77l-.49,16.76V559l0,.32,2.23,19.35,2.1,19.36,2.15,19.36,2.27,18.63.07.56,1,19c.33,6.4.67,12.83,1.06,19.23.73,12.84,1.67,25.65,2,38.51l2.91,77.08.75,19.27c.16,3.22.17,6.43.24,9.65l.2,9.65.64,31.43h-41.92l-1.14-13.31-1.37-16.23-1.29-16.23c-.11-1.36-.18-2.72-.35-4l-.48-4.05-1-8.08-1.89-16.17-3.68-32.36c-2.36-21.58-4.71-43.16-6.72-64.79l-.28-2.81h-13.71l-.28,2.81c-2,21.63-4.36,43.21-6.71,64.79l-3.68,32.36-1.9,16.17-1,8.08-.47,4.05c-.17,1.33-.24,2.69-.36,4l-1.29,16.23-1.36,16.23-1.14,13.31h-41.92l.63-31.43.2-9.65c.08-3.22.09-6.43.24-9.65l.75-19.27,2.92-77.08c.33-12.86,1.28-25.67,2-38.51.39-6.4.74-12.83,1.07-19.23l.87-16.48.13-2.52.65-5.37,1.68-13.82,2.15-19.36,2.1-19.36,2.24-19.35,0-.32v-.22L1103,542c-.16-5.59-.36-11.19-.48-16.77l-.39-16.76-.29-16.77-.06-3.14h-8.62l-.29,2.87q-.61,6.46-1.27,12.95c-.43,4.32-.83,8.64-1.31,13l-2.76,25.9c-.11,1.1-.25,2.16-.36,3.26l-.28,3.28-.55,6.49-1.11,13-1.11,13-1.18,13c-1.59,17.28-3.11,34.57-4.81,51.85L1075.55,673l-1.87,18.27h-3.78l-10.14-26.88,4.65-16.93.49-1.8.85-3.06h-7v-.44l.37-37,0-2.47v0c.11-9.88.34-19.75.57-29.62l.39-18c.06-3,.15-6,.17-8.93s.28-5.8.61-8.67.82-5.72,1.44-8.55l.47-2.12.54-2.13c.38-1.48.67-2.94,1-4.4l3.9-17.56c2.59-11.72,5.28-23.42,7.93-35.12l2-8.79c.17-.77.33-1.34.49-2s.36-1.26.57-1.88a35.74,35.74,0,0,1,1.41-3.65,38.49,38.49,0,0,1,3.93-6.75c.78-1,1.61-2,2.48-3,.45-.47.87-.95,1.35-1.4l.7-.67.79-.72.77-.7.68-.58c.47-.4,1-.79,1.53-1.19,1-.8,2.18-1.55,3.34-2.29a71,71,0,0,1,7.22-4c1.25-.6,2.52-1.17,3.81-1.7.64-.28,1.29-.53,1.94-.78a97.31,97.31,0,0,1,10-3.21c2.08-.55,4.18-1,6.29-1.44s4-.73,6.07-1c2.86-.4,5.75-.69,8.65-.87a0,0,0,0,1,0,0c2.36-.14,4.74-.22,7.11-.23h11.25q3.39,0,6.76.25c.66,0,1.33.08,2,.14l1.74.15,1.74.18,1.09.13c.43,0,.86.1,1.29.16l.27,0c2,.27,4,.6,6,1,1.11.21,2.22.44,3.32.69s2.23.52,3.33.81h0A89.19,89.19,0,0,1,1202,430a70.09,70.09,0,0,1,7.23,4c1.16.74,2.28,1.49,3.33,2.29.53.4,1.07.79,1.53,1.19.25.2.49.41.69.58l.77.7.79.72.7.67c.47.45.89.93,1.35,1.4.87,1,1.7,2,2.47,3a37.92,37.92,0,0,1,3.94,6.75,35.74,35.74,0,0,1,1.41,3.65c.21.62.39,1.26.57,1.88s.32,1.23.48,2l2,8.79c2.65,11.7,5.35,23.4,7.94,35.12l3.89,17.56c.35,1.46.63,2.92,1,4.4l.54,2.13.47,2.12c.61,2.83,1.09,5.67,1.44,8.55s.53,5.76.6,8.67.11,6,.17,8.93l.4,18c.23,9.87.46,19.74.56,29.62,0,.81,0,1.62,0,2.44l.38,37.42Z"/><path d="M1136.57,466.38c-2.43-.32-4.87-.49-7.3-.61s-4.86-.17-7.3-.18l-3.65,0c-1.21.05-2.43.06-3.65.13-2.43.12-4.86.29-7.29.63v8.41c2.43.34,4.86.52,7.29.63,1.22.08,2.44.09,3.65.14l3.65,0c2.44,0,4.87,0,7.3-.18s4.87-.29,7.3-.62Z"/><path d="M1187.09,344.51c0-.86-.06-1.74-.15-2.61l-.4-2.85a7,7,0,0,0-.15-.69l-.07-.29a35.28,35.28,0,0,0-6.56-13.92,34.67,34.67,0,0,0-12-9.73,35.08,35.08,0,0,0-7.34-2.66,31.61,31.61,0,0,0-15.54,0,35.08,35.08,0,0,0-7.34,2.66,34.67,34.67,0,0,0-12,9.73,35.25,35.25,0,0,0-6.56,13.93l-.07.28c-.05.22-.11.45-.15.68l-.4,2.86c-.09.87-.12,1.75-.15,2.61,0,.4,0,.81,0,1.21a36.74,36.74,0,0,0,.24,3.89c.09.69.19,1.31.29,1.91l.38,1.82c.61,3.55,1.33,7.16,2,10.65l3.07,15.48.22.78a25.24,25.24,0,0,0,17,17.24c1.11.34,2.09.55,3,.74s1.92.34,2.92.48a43.13,43.13,0,0,0,10.81,0c1-.14,2-.3,2.93-.48s1.87-.4,3-.74a25.22,25.22,0,0,0,17-17.24l.21-.74.47-2.21,2.61-13.31c.69-3.49,1.41-7.1,2-10.67l.37-1.8c.11-.6.2-1.22.29-1.91a34.17,34.17,0,0,0,.24-3.86C1187.12,345.32,1187.11,344.91,1187.09,344.51Zm-29.95,47.26a36.78,36.78,0,0,1-4.5.29c-.34,0-.68,0-1,0a33.84,33.84,0,0,1-3.45-.27h0l-.6-.09-.4-.06-.42-.07c-.35-.05-.69-.12-1-.18-.61-.13-1.52-.33-2.3-.56-.35-.11-.7-.22-1-.36h0a17.86,17.86,0,0,1-3.09-1.48,17.88,17.88,0,0,1-8.1-10.61l-.16-.57-3.91-20.52c-.15-.91-.35-1.82-.54-2.71s-.39-1.75-.54-2.63l-.25-1.58c-.06-.49-.12-1-.15-1.51a28.44,28.44,0,0,1,0-3c0-.37.07-.78.11-1.19,0-.64.1-1.24.19-1.84l.43-2.25a3.31,3.31,0,0,1,.12-.42,2.76,2.76,0,0,1,.08-.27,27.24,27.24,0,0,1,5.55-10.47,25.89,25.89,0,0,1,9.39-6.88,25.53,25.53,0,0,1,7.39-2,23.33,23.33,0,0,1,2.51-.16l.57,0h1l1.41,0a23,23,0,0,1,2.5.19,25.47,25.47,0,0,1,7.15,2,25.8,25.8,0,0,1,9.39,6.88,27.13,27.13,0,0,1,5.55,10.46l.09.28a3,3,0,0,1,.11.43l.44,2.27c.09.57.13,1.17.19,1.81,0,.41.06.82.11,1.23a28,28,0,0,1-.06,3c0,.51-.09,1-.15,1.53l-.25,1.56c-.15.88-.34,1.77-.53,2.63s-.4,1.8-.55,2.72l-3.92,20.56-.15.51a17.78,17.78,0,0,1-8.1,10.62,18.49,18.49,0,0,1-4.17,1.85c-.78.23-1.68.43-2.3.56s-1.17.21-1.81.31Z"/><path d="M1250.67,663.76,1246,647.41h2.17l2.1,0,.12-22.94c-.13-17.13-.1-34.28,0-51.4l.07-18c0-3,0-6,.06-9s-.14-6.14-.42-9.19-.7-6.11-1.28-9.12c-.28-1.5-.61-3-.95-4.48s-.59-2.93-.89-4.4l-3.45-17.62-6.91-35.25-1.72-8.81c-.13-.72-.32-1.52-.49-2.3s-.38-1.54-.61-2.3a42.26,42.26,0,0,0-1.58-4.51,45.4,45.4,0,0,0-4.54-8.4,43.23,43.23,0,0,0-2.91-3.79c-.53-.61-1-1.21-1.6-1.79l-.82-.87-.83-.78a51.22,51.22,0,0,0-7.37-6,83.46,83.46,0,0,0-8-4.78,98.62,98.62,0,0,0-17.15-7,128.76,128.76,0,0,0-36.34-5.22,142.48,142.48,0,0,0-18.33,1.3,118.54,118.54,0,0,0-18,3.92,98,98,0,0,0-17.15,7,81.06,81.06,0,0,0-8,4.78,50.68,50.68,0,0,0-7.37,6l-.83.78-.82.87c-.56.58-1.08,1.18-1.61,1.79a45.16,45.16,0,0,0-2.9,3.79,46,46,0,0,0-4.55,8.4,44.53,44.53,0,0,0-1.57,4.51c-.23.76-.42,1.53-.61,2.3s-.36,1.58-.49,2.3l-1.72,8.81-6.92,35.25-3.45,17.62c-.3,1.47-.56,3-.88,4.4s-.68,3-1,4.48a90.11,90.11,0,0,0-1.28,9.12c-.28,3.05-.42,6.12-.42,9.19s.05,6,.06,9l.07,18c.09,17.12.12,34.27,0,51.4l.12,22.94,2.1,0h2.17l-4.65,16.35-.19.69.19.7,9.69,34.8.51,1.87h2l11.06,0,2.43,0,.18-2.39,1.84-26,1.91-26,3.87-51.93q1-13,2-26l1-13,.51-6.49.25-3.22c.09-1.07.23-2.15.34-3.23l2.77-25.87,1.88-17,1.36,57.88-10.35,77.05v.2l-2.3,38.46-1.15,19.28-.28,4.82c-.08,1.61-.1,3.21-.17,4.82l-.3,9.65-1.23,38.61-1.09,38.6-.53,19.29c-.12,3.23-.1,6.44-.15,9.66l-.08,9.65-.31,31.54h5.41l.63-31.43.2-9.65c.08-3.21.09-6.42.24-9.64l.75-19.28,2.92-77.08c.34-12.85,1.27-25.67,2-38.51q.58-9.6,1.07-19.24l.87-16.47h0l116.48,0,.87,16.49c.34,6.42.67,12.84,1.07,19.24.72,12.84,1.66,25.66,2,38.51l2.91,77.08.76,19.28c.15,3.22.16,6.43.23,9.64l.2,9.65.63,31.43H1225l-.3-31.54-.09-9.65c-.05-3.22,0-6.43-.15-9.66l-.54-19.29-1.09-38.6-1.22-38.61-.3-9.65c-.07-1.61-.09-3.21-.17-4.82l-.29-4.82-1.14-19.28-2.3-38.46v-.2l-10.34-77.05,1.35-57.88,1.9,17,2.76,25.87c.11,1.08.25,2.16.34,3.23l.25,3.22.51,6.49,1,13q1,13,2,26l3.87,51.93,1.91,26,1.84,26,.17,2.39,2.43,0,11.07,0h2L1241,700l9.69-34.8.18-.7Zm-180.8,27.46-10.16-26.88,4.65-16.93H1078L1075.51,673l-1.87,18.27Zm80-229.56-.22,18.47-.14,21.42-.11,42.85.11,42.84.15,21.42.21,19.22-54.62,3.33h0l1.68-13.83L1099,598l2.09-19.37,2.24-19.34,0-.32v-.22l-.49-16.76c-.16-5.6-.36-11.18-.48-16.77l-.4-16.76-.28-16.76-.06-3.15h-8.62l-.3,2.86c-.39,4.33-.83,8.65-1.26,12.95s-.84,8.65-1.31,13l-2.76,25.91c-.11,1.09-.25,2.16-.36,3.26l-.27,3.27-.56,6.48-1.1,13-1.12,13-1.18,13c-1.44,15.58-2.81,31.16-4.31,46.73l-9.07-.91-10.67,1.1h0l.37-37,0-2.48c.11-9.85.34-19.72.56-29.58l.4-18c.07-3,.15-6,.17-8.93s.28-5.8.61-8.67.82-5.72,1.44-8.55l.46-2.11.55-2.14c.38-1.48.67-2.93,1-4.4l3.9-17.56c2.59-11.73,5.29-23.41,7.93-35.13l2-8.78c.16-.77.32-1.34.48-2s.36-1.26.57-1.89a36.6,36.6,0,0,1,5.35-10.39c.77-1.05,1.6-2,2.47-3,.45-.47.87-.95,1.35-1.39l.7-.69.79-.72.76-.69.69-.58c.47-.4,1-.8,1.53-1.19,1-.8,2.18-1.56,3.34-2.29a68.25,68.25,0,0,1,7.23-4c1.26-.6,2.54-1.17,3.84-1.7.64-.28,1.29-.53,1.94-.78a99.15,99.15,0,0,1,9.93-3.22c2.09-.54,4.19-1,6.32-1.44h0l24.37,38.81Zm-18.3-39.82v0c2.87-.39,5.76-.68,8.66-.85a0,0,0,0,1,0,0q3.52-.23,7.08-.24h11.24q3.4,0,6.8.26c.66,0,1.33.08,2,.14l1.74.15,1.74.18,1.09.13c.43,0,.86.1,1.29.16l.27,0-20.84,32Zm79.27,214.86,0-.13,0-.55Zm16,5.17c-1.51-15.56-2.88-31.12-4.31-46.68l-1.18-13-1.12-13-1.1-13-.56-6.48-.27-3.27c-.11-1.1-.25-2.17-.36-3.26l-2.76-25.91c-.48-4.32-.88-8.64-1.32-13s-.86-8.62-1.26-12.95l-.3-2.86h-8.61l-.06,3.15-.29,16.76-.39,16.76c-.13,5.59-.32,11.17-.48,16.77l-.49,16.76V559l0,.32,2.24,19.34,2.09,19.37,2.15,19.35,1.68,13.78c-12.22-.76-45.33-2.75-54.73-3.31l.21-19.19.15-21.42.11-42.84-.11-42.85-.14-21.42-.21-18.34h0l24.12-39c1.11.21,2.22.44,3.32.69s2.23.52,3.33.81h0a92.08,92.08,0,0,1,15.67,5.69,68.25,68.25,0,0,1,7.23,4c1.16.73,2.28,1.49,3.34,2.29.53.39,1.06.79,1.53,1.19l.68.58.77.69.79.72.7.69c.47.44.9.92,1.35,1.39.87,1,1.7,2,2.47,3a38.5,38.5,0,0,1,4,6.74c.52,1.2,1,2.41,1.4,3.65.21.63.39,1.26.57,1.89s.31,1.23.48,2l2,8.78c2.65,11.72,5.35,23.4,7.94,35.13l3.89,17.56c.35,1.47.63,2.92,1,4.4l.54,2.14.47,2.11c.62,2.83,1.09,5.67,1.44,8.55s.54,5.76.61,8.67.1,5.94.17,8.93l.39,18c.23,9.86.46,19.73.57,29.58l0,2.48.37,37.06L1235.39,641l-8.53.86Zm4.9,49.35L1229.85,673l-2.49-25.54H1241l4.65,16.93-10.15,26.88Zm-56.53,139.64-1.29-16.23c-.11-1.36-.18-2.71-.35-4l-.48-4.05-1-8.08-1.9-16.18-3.67-32.34c-2.35-21.59-4.71-43.18-6.72-64.8l-.27-2.81h-2.89l-3.93,0h-.08l-3.93,0h-2.89l-.27,2.81c-2,21.62-4.37,43.21-6.72,64.8l-3.68,32.34-1.9,16.18-1,8.08-.48,4.05c-.17,1.34-.24,2.69-.35,4l-1.29,16.23-1.37,16.23-1.14,13.31h6l3.93-45.16c.13-1.34.21-2.7.38-4l.51-4,1-8.07,2-16.13,4.1-32.28,7-54.85,7,54.85,4.1,32.28,2,16.13,1,8.07.51,4c.17,1.34.25,2.7.38,4l3.93,45.16h6l-1.14-13.31Z"/><polygon points="1207.07 558.64 1207.08 558.88 1207.08 558.77 1207.07 558.64"/><polygon points="1210.78 636.02 1210.81 636.58 1210.82 636.71 1210.78 636.02"/><path d="M1246.19,602.67c0,.81,0,1.62,0,2.44l0-2.48Z"/><polygon points="1210.78 636.02 1210.81 636.58 1210.82 636.71 1210.78 636.02"/><polygon class="cls-1" points="1207.1 524.64 1207.12 524.88 1207.12 524.77 1207.1 524.64"/><path class="cls-1" d="M1300,513.26V900H896.45v-332H875.94a4.06,4.06,0,0,1-4.05-4.06V517.31a4.05,4.05,0,0,1,4.05-4Z"/><path d="M1300,572.05H875.94a8.07,8.07,0,0,1-8.05-8.06V517.31a8.06,8.06,0,0,1,8.05-8H1300v8H875.94L875.89,564l424.11.06Z"/><rect x="892.45" y="566.73" width="8" height="333.27"/></svg>