<svg id="Capa_1" data-name="Capa 1" xmlns="http://www.w3.org/2000/svg" viewBox="0 0 1300 1000"><defs><style>.cls-1{fill:#fff;}.cls-2{stroke:#000;stroke-miterlimit:10;stroke-width:0.5px;}</style></defs><title>2-landmarks-expand</title><path d="M1274.17,670.54h0l-13.28-24.15-3.73-6.77-3-5.39,0-.07-.06-.1,2,0,.95,0,.75,0,.32-1.75L1261,617l1.63-9,4.28-24.4,4.28-24.41,2.14-12.21c.17-1,.35-2,.53-3.07a20.9,20.9,0,0,0,.19-3.54,21.61,21.61,0,0,0-1.36-6.94l.1.32-29.6-85.61c-.57-1.39-1.21-2.76-1.91-4.09-.23-.44-.47-.88-.73-1.31a45.23,45.23,0,0,0-3.36-5q-1.38-1.78-2.92-3.42c-.34-.36-.69-.72-1-1.07-.17-.18-.33-.33-.49-.48l-.29-.28-.26-.25-.48-.46,0,0-.58-.53-.36-.32-.75-.65,0,0c-.38-.33-.76-.65-1.15-.95a73.27,73.27,0,0,0-9.89-6.5c-.67-.38-1.35-.74-2-1.1l-1.28-.65a.84.84,0,0,0-.21-.11,100.21,100.21,0,0,0-15.76-6.26,129.45,129.45,0,0,0-72.71,0,100.1,100.1,0,0,0-15.75,6.26,1.13,1.13,0,0,0-.22.11c-.43.21-.86.43-1.27.65-.68.36-1.36.72-2,1.1a74,74,0,0,0-9.9,6.5c-.39.3-.77.62-1.15.95s-.76.64-1.14,1l-.58.53-.5.49c-.36.33-.69.64-1,1a48.43,48.43,0,0,0-4,4.49c-.8,1-1.56,2.11-2.26,3.22a2.9,2.9,0,0,0-.27.41.6.6,0,0,0-.09.15c-.26.4-.49.8-.73,1.21a0,0,0,0,0,0,0c-.22.36-.42.71-.62,1.07l-.06.11c-.16.29-.34.61-.5.93s-.25.51-.38.75-.1.2-.14.3l-1,2-3.45,7.3-4.26,9-6.17,13-7.59,16L1024,450.85l-6-18.9-.24-.74-.76-.62-28.09-23h0l-2.22-1.84,0,0-2.54,1.75-10.65,7.34-2.72,1.9,1.27,3.07,13.89,33.56.36.86.58.45,15.74,12,0,0-.82.7,0,0h0l-.86.72h0l-.86.72,1.43,1.94q12.38,16.74,24.66,33.51l12.28,16.81,6.14,8.39,3.07,4.2,1.54,2.1.77,1c.28.35.64.79,1,1.14a20.42,20.42,0,0,0,1.77,1.71,21.3,21.3,0,0,0,5.7,3.55,23.43,23.43,0,0,0,2.26.81,21.76,21.76,0,0,0,5.72.86,20.33,20.33,0,0,0,5.75-.66A21.49,21.49,0,0,0,1085.38,534l2.57-4.52,7.59-13.4,2.65-4.69c2.79-4.91,5.62-9.79,8.45-14.69l.78-1.35.21,11.92v.6l1.19,50.84v0h0v.06h0l-10.33,77v.1h0v.19l-2.3,38.47-1.15,19.3-.28,4.82c0,.12,0,.24,0,.36,0,.64-.06,1.29-.08,1.94,0,.15,0,.3,0,.45l-.06,2-.3,9.66-1.23,38.6L1092,790.23l-.55,19.31c-.11,3.23-.1,6.44-.14,9.66l-.09,9.65-.3,31.55h5.41l.63-31.44.2-9.65c0-.52,0-1,0-1.57l0-1.4c0-1.42,0-2.85.1-4.27,0-.75,0-1.51.08-2.27l.74-19.28v-.13l2.92-77.11c0-1.61.09-3.21.15-4.82.42-11.21,1.21-22.39,1.84-33.59a.41.41,0,0,1,0-.11q.23-3.76.44-7.53.19-3.45.38-6.9c.09-1.57.17-3.14.25-4.71l.45-8.65.46-8.65.09-1.8,0,.13.05-.69,0,.56.74-6.08,1.59-13.12,2.16-19.36,1.81-16.72.28-2.57.2-1.71,2-17.72,0-.3v-.24l-.49-16.77c-.12-4.17-.26-8.34-.37-12.52,0-1.39-.07-2.79-.1-4.19l-.4-16.77-.29-16.77v-.05l0-3.14h-8.62l-23.26,43.76,0,.06a16.2,16.2,0,0,1-2.12,2.69,16.5,16.5,0,0,1-7.55,4.44,16.13,16.13,0,0,1-8.77-.12,16.34,16.34,0,0,1-7.44-4.67c-.26-.29-.44-.5-.69-.81l0-.07-.71-1-1.53-2.1-3.06-4.2-6.11-8.4-12.22-16.8-22.95-31.55,0,0,1.17-1.07,2.39-2.16-2.55-2.08h0l-1.57-1.29-15.28-12.52L981,421l5.52-4.14,0,0,26,18.38,7.93,17.4.18.39.18.19h0l39.8,46.57,2.51,2.94,1.82-3.53h0l2.28-4.22,0,0,14.82-27.5,8.57-15.89,1.05-1.94.27-.5.24-.41v0c.13-.24.28-.5.44-.74l0-.06,0,0c.36-.64.79-1.24,1.21-1.84l.07-.11c.66-1,1.38-1.9,2.14-2.82a40.13,40.13,0,0,1,3.37-3.54c.27-.26.65-.59,1-.88l.5-.46.42-.36.67-.55.2-.14v0c.39-.31.79-.62,1.21-.93,1.06-.8,2.19-1.56,3.34-2.29a68.25,68.25,0,0,1,7.23-4,90.13,90.13,0,0,1,15.72-5.7,112.82,112.82,0,0,1,28.18-3.53c.49,0,1,0,1.49,0h7.71c.5,0,1,0,1.49,0a113,113,0,0,1,28.19,3.53,90.63,90.63,0,0,1,15.71,5.7,69.25,69.25,0,0,1,7.23,4c.87.55,1.74,1.13,2.56,1.73l.77.56c.43.31.84.62,1.21.93l0,0,.19.13,0,0,.64.52.42.36.5.46.25.22.29.26.45.4c.31.29.62.59.91.89a35.54,35.54,0,0,1,2.49,2.7,35,35,0,0,1,3.47,4.93c.61,1.06,1.16,2.14,1.66,3.25a11.9,11.9,0,0,1,.47,1.11l.23.58.25.64,1,2.62,2,5.24,4,10.5,7.94,21,1.17,3.08,1.15,3.09c4.5,12,8.93,24,13.41,36l.1.34a16.2,16.2,0,0,1,1.15,5.08,16.73,16.73,0,0,1-.09,2.65l-.46,3L1266,558.43l-3.77,24.45-1.25,8.17-2.52,16.28-1.48,9.15-2,12.45-.23,1.39h-6.35l1.05,2.44.06.14.55,1.32,3.52,8.38,5.42,12.89,6.17,14.66-3.17,1.91-2.06-2-4.29-4.06-16.78-16,0,0L1237,637.58l-.82-5.74.1-1.9,4.4-81.54h0l0-.54-.16-.48-10.29-33.57,0-.14-7.35-25.12v-.05h-8.62l0,3.14-.29,16.77-.39,16.76c-.13,5.59-.32,11.19-.48,16.77l-.5,16.77v.22l0,.32,2.24,19.35,2.1,19.37,2.15,19.36,1.6,13.1.74,6.1,0-.56.05.69,0-.13.09,1.77.91,17.23c.33,6.41.67,12.83,1.07,19.24.72,12.84,1.66,25.66,2,38.52l2.91,77.11.75,19.27c.15,3.22.15,6.43.24,9.65l.2,9.65.63,31.44h5.42l-.31-31.55-.09-9.65c0-3.22,0-6.43-.14-9.66l-.55-19.31-1.08-38.61-1.22-38.6-.31-9.66c-.06-1.61-.09-3.22-.17-4.82l-.28-4.82-1.15-19.29L1228,636v-.2l-10.34-77.06v.1l0-.23,0,.13,1.2-50.91v-.54l.23-13.1,0,.1,6.47,21.54,9.8,32.7-2.57,43.73-2.31,39.68h0V632l0,.13,2.34,20.14.07.61,0,0,.73.85h0l5.45,5.91,13.37,14.5,4.78,5.18,1,1.1,2.18,2.37,15.1-9.77h0Zm-88.41,160.31-1.12-14.25-.15-1.84-.09-1.16c-.06-.68-.1-1.36-.17-2q0-.44-.09-.87l-.48-4.05-.33-2.72-.65-5.5L1181.45,788l-.66-5.62L1177.11,750c-2.35-21.6-4.71-43.19-6.72-64.83l0-.25-.26-2.57v-.1h-13.71l-.28,2.81c-2,21.64-4.37,43.22-6.72,64.81l-3.68,32.36-1.89,16.18-1,8.08-.48,4c-.08.67-.14,1.35-.19,2a.76.76,0,0,1,0,.15c-.05.63-.09,1.26-.15,1.89l-1.29,16.23-1.38,16.23-1.13,13.32h6l3.93-45.17c.13-1.35.22-2.7.38-4l.51-4.05,1-8.06,2.06-16.15,4.1-32.29,7-54.86,0,.13,7,54.86,1.42,11.15,2.67,21,1.33,10.5.73,5.78.29,2.31.73,5.62.51,4.05a.66.66,0,0,1,0,.14c0,.42.1.84.13,1.26s.1,1,.14,1.52.07.84.11,1.26l3.92,45h6l-1.14-13.32Z"/><path class="cls-1" d="M1268.29,543.19l-.46,3L1266,558.43l-3.77,24.45-1.25,8.17-2.52,16.28-1.48,9.15-2,12.45-.23,1.39h-6.35l1.05,2.44.06.14.55,1.32,3.52,8.38,5.42,12.89,6.17,14.66-3.17,1.91-2.06-2-4.29-4.06-16.78-16,0,0L1237,637.58l-.82-5.74.1-1.9,4.4-81.54h0l0-.54-.16-.48-10.29-33.57,0-.14-7.35-25.12v-.05h-8.62l0,3.14-.29,16.77-.39,16.76c-.13,5.59-.32,11.19-.48,16.77l-.5,16.77v.22l0,.32,2.24,19.35,2.1,19.37,2.15,19.36,1.6,13.1.74,6.1.09,1.77.91,17.23c.33,6.41.67,12.83,1.07,19.24.72,12.84,1.66,25.66,2,38.52l2.91,77.11.75,19.27c.15,3.22.15,6.43.24,9.65l.2,9.65.63,31.44h-41.93l-1.14-13.32-1.37-16.23-1.12-14.25-.15-1.84-.09-1.16c-.06-.68-.1-1.36-.17-2q0-.44-.09-.87l-.48-4.05-.33-2.72-.65-5.5L1181.45,788l-.66-5.62L1177.11,750c-2.35-21.6-4.71-43.19-6.72-64.83l0-.25-.26-2.57v-.1h-13.71l-.28,2.81c-2,21.64-4.37,43.22-6.72,64.81l-3.68,32.36-1.89,16.18-1,8.08-.48,4c-.08.67-.14,1.35-.19,2a.76.76,0,0,1,0,.15c-.05.63-.09,1.26-.15,1.89l-1.29,16.23-1.38,16.23-1.13,13.32h-41.93l.63-31.44.2-9.65c0-.52,0-1,0-1.57l0-1.4c0-1.42,0-2.85.1-4.27,0-.75,0-1.51.08-2.27l.74-19.28v-.13l2.92-77.11c0-1.61.09-3.21.15-4.82.42-11.21,1.21-22.39,1.84-33.59a.41.41,0,0,1,0-.11c.16-2.51.3-5,.44-7.53q.19-3.45.38-6.9c.09-1.57.17-3.14.25-4.71l.45-8.65.46-8.65.09-1.8.74-6.08,1.59-13.12,2.16-19.36,1.81-16.72.28-2.57.2-1.71,2-17.72,0-.3v-.24l-.49-16.77c-.12-4.17-.26-8.34-.37-12.52,0-1.39-.07-2.79-.1-4.19l-.4-16.77-.29-16.77v-.05l0-3.14h-8.62l-23.26,43.76,0,.06a16.2,16.2,0,0,1-2.12,2.69,16.5,16.5,0,0,1-7.55,4.44,16.13,16.13,0,0,1-8.77-.12,16.34,16.34,0,0,1-7.44-4.67c-.26-.29-.44-.5-.69-.81l0-.07-.71-1-1.53-2.1-3.06-4.2-6.11-8.4-12.22-16.8-22.95-31.55,0,0,1.17-1.07,2.39-2.16-2.55-2.08h0l-1.57-1.29-15.28-12.52L981,421l5.52-4.14,0,0,26,18.38,7.93,17.4.18.39.18.19h0l39.8,46.57,2.51,2.94,1.82-3.53h0l2.28-4.22,0,0,14.82-27.5,8.57-15.89,1.05-1.94.27-.5.24-.41v0c.13-.24.28-.5.44-.74l0-.06,0,0c.36-.64.79-1.24,1.21-1.84l.07-.11c.66-1,1.38-1.9,2.14-2.82a40.13,40.13,0,0,1,3.37-3.54c.27-.26.65-.59,1-.88l.5-.46.42-.36.67-.55.2-.14v0c.39-.31.79-.62,1.21-.93,1.06-.8,2.19-1.56,3.34-2.29a68.25,68.25,0,0,1,7.23-4,90.13,90.13,0,0,1,15.72-5.7,112.82,112.82,0,0,1,28.18-3.53c.49,0,1,0,1.49,0h7.71c.5,0,1,0,1.49,0a113,113,0,0,1,28.19,3.53,90.63,90.63,0,0,1,15.71,5.7,69.25,69.25,0,0,1,7.23,4c.87.55,1.74,1.13,2.56,1.73l.77.56c.43.31.84.62,1.21.93l0,0,.19.13,0,0,.64.52.42.36.5.46.25.22.29.26.45.4c.31.29.62.59.91.89a35.54,35.54,0,0,1,2.49,2.7,35,35,0,0,1,3.47,4.93c.61,1.06,1.16,2.14,1.66,3.25a11.9,11.9,0,0,1,.47,1.11l.23.58.25.64,1,2.62,2,5.24,4,10.5,7.94,21,1.17,3.08,1.15,3.09c4.5,12,8.93,24,13.41,36l.1.34a16.2,16.2,0,0,1,1.15,5.08A16.73,16.73,0,0,1,1268.29,543.19Z"/><path d="M1197.82,344.42c0-.85-.07-1.73-.16-2.6l-.4-2.85a5.15,5.15,0,0,0-.15-.68L1197,338a35.05,35.05,0,0,0-6.54-13.89,33.68,33.68,0,0,0-7.69-7.2h0a36.27,36.27,0,0,0-4.28-2.5,34.43,34.43,0,0,0-4.47-1.85c-.92-.31-1.87-.58-2.83-.81a31.49,31.49,0,0,0-15.51,0,36.27,36.27,0,0,0-3.76,1.13,33.17,33.17,0,0,0-3.56,1.53c-.89.44-1.76.92-2.61,1.43s-1.68,1.06-2.48,1.64c-.41.29-.82.6-1.21.91a33,33,0,0,0-5.68,5.72,33.88,33.88,0,0,0-2.7,4h0c-.49.84-.94,1.7-1.35,2.57a34.65,34.65,0,0,0-2.49,7.31l-.07.28a5,5,0,0,0-.15.67l-.4,2.85c0,.23,0,.47-.06.7,0,.63-.07,1.26-.1,1.88v0c0,.4,0,.81,0,1.21a33.78,33.78,0,0,0,.24,3.87c.09.7.18,1.32.29,1.91l.37,1.82c.61,3.52,1.32,7.11,2,10.58L1135,379.3l.22.79a25.16,25.16,0,0,0,1.71,4.38q.36.7.75,1.38c.4.68.83,1.34,1.28,2,.15.22.31.44.48.65.32.41.65.81,1,1.2s.69.78,1.07,1.15c.55.56,1.13,1.1,1.73,1.61a22.66,22.66,0,0,0,1.9,1.45c.43.29.86.57,1.31.84a26.23,26.23,0,0,0,5.72,2.54c1.1.32,2.08.54,3,.72s1.91.36,2.91.49a43,43,0,0,0,10.79,0c1-.13,2-.3,2.91-.49s1.87-.4,3-.72a26.23,26.23,0,0,0,5.72-2.54,25.31,25.31,0,0,0,8.75-8.88,24.9,24.9,0,0,0,2.46-5.79l.21-.74.47-2.2,2.6-13.27c.69-3.49,1.4-7.09,2-10.64l.37-1.79c.11-.6.2-1.22.29-1.91a34,34,0,0,0,.24-3.85C1197.85,345.22,1197.83,344.83,1197.82,344.42ZM1145,384.23s0,0,0,0a17.86,17.86,0,0,1-1.26-1.86h0a17.29,17.29,0,0,1-1.31-2.83c-.16-.43-.3-.88-.43-1.33l-.17-.57-3.89-20.47c-.15-.91-.35-1.82-.55-2.7s-.38-1.75-.53-2.62l-.07-.45-.19-1.14c0-.22,0-.44-.07-.66a.77.77,0,0,0,0-.15l-.06-.7c-.07-1.05-.08-2.07,0-3,0-.37.08-.77.11-1.18.06-.63.1-1.23.19-1.83l.43-2.25.06-.2.06-.21h0a2,2,0,0,0,.08-.26c.06-.24.13-.48.21-.71.14-.48.3-1,.47-1.41a27.1,27.1,0,0,1,4.86-8.32,25.79,25.79,0,0,1,9.37-6.87,25.5,25.5,0,0,1,9.88-2.14l.56,0h2.38a25.53,25.53,0,0,1,7.3,1.26c.39.13.78.26,1.17.41s.78.3,1.16.47q1.38.62,2.67,1.35a25.25,25.25,0,0,1,3.64,2.51,24.64,24.64,0,0,1,3,3,26.77,26.77,0,0,1,2.62,3.63h0a27,27,0,0,1,2.9,6.8q0,.15.09.27c0,.15.09.29.12.43l.43,2.26c.09.58.13,1.18.19,1.81,0,.41.06.81.11,1.23a27.76,27.76,0,0,1-.06,3c0,.51-.08,1-.15,1.52l-.25,1.56c-.14.88-.34,1.77-.53,2.62s-.39,1.8-.55,2.72l-3.9,20.5-.15.51a17.77,17.77,0,0,1-8.08,10.59,18.41,18.41,0,0,1-4.16,1.85c-.79.23-1.68.43-2.3.55s-1.56.29-2.44.41a34.7,34.7,0,0,1-4.48.28,35.14,35.14,0,0,1-4.51-.28c-.86-.12-1.66-.26-2.43-.41-.61-.12-1.51-.32-2.29-.55a18.41,18.41,0,0,1-4.16-1.85,18.63,18.63,0,0,1-3.58-2.82A19.92,19.92,0,0,1,1145,384.23Z"/><path class="cls-1" d="M1136.45,348.74c0,.5.09,1,.15,1.51l.25,1.57c.15.88.35,1.77.54,2.62s.39,1.8.54,2.7l3.9,20.47.16.56a17.74,17.74,0,0,0,8.07,10.59,18.65,18.65,0,0,0,4.17,1.84c.77.23,1.68.43,2.29.55.77.16,1.56.29,2.43.41a35.14,35.14,0,0,0,4.51.28,34.7,34.7,0,0,0,4.48-.28c.88-.12,1.68-.25,2.43-.41s1.52-.32,2.3-.55a18.18,18.18,0,0,0,10.5-8.25,18.84,18.84,0,0,0,1.75-4.18l.14-.52,3.91-20.5c.15-.91.35-1.82.54-2.71s.39-1.75.54-2.62l.25-1.57c.06-.5.12-1,.15-1.51a25.5,25.5,0,0,0,0-3c0-.41-.07-.82-.11-1.23-.05-.63-.09-1.23-.19-1.8l-.43-2.27c0-.14-.07-.28-.11-.42l-.09-.28a26.9,26.9,0,0,0-5.53-10.43,26.14,26.14,0,0,0-19-9l-1.42,0h-1.52a26.06,26.06,0,0,0-19.24,9,26.89,26.89,0,0,0-5.54,10.44l-.09.27c0,.14-.08.28-.11.41l-.43,2.25c-.09.6-.14,1.2-.19,1.83,0,.41-.06.82-.11,1.18A28.59,28.59,0,0,0,1136.45,348.74Z"/><path d="M1147.43,466c-2.42-.32-4.85-.49-7.28-.61s-4.85-.17-7.28-.18l-3.64,0c-1.21.05-2.43.06-3.64.13-2.43.12-4.85.29-7.28.63v8.39c2.43.34,4.85.52,7.28.63,1.21.07,2.43.09,3.64.13l3.64,0c2.43,0,4.85-.06,7.28-.18s4.86-.29,7.28-.62Z"/><path d="M1275.59,673h0l-1.37-2.39h0l-13.28-24.16-3.73-6.77-3-5.48,0-.07h0l2,0,1,0h.75l.31-1.74,2.79-15.39,1.63-9,4.28-24.41,4.28-24.41,2.14-12.21c.17-1,.35-2,.53-3.07a21,21,0,0,0,.19-3.54,21.76,21.76,0,0,0-1.35-6.94l.1.31-29.62-85.63a39.79,39.79,0,0,0-1.94-4.13c-.23-.44-.47-.88-.73-1.31a43.06,43.06,0,0,0-3.32-4.94l0,0q-1.38-1.78-2.92-3.42c-.33-.35-.66-.7-1-1l0,0c-.17-.18-.33-.33-.49-.48l-.29-.28-.23-.21-.51-.5,0,0-.55-.49q-.19-.19-.39-.36l-.75-.65,0,0c-.37-.32-.74-.62-1.12-.91a73.11,73.11,0,0,0-9.9-6.51c-.67-.37-1.34-.74-2-1.1l-1.28-.65-.2-.11a99.74,99.74,0,0,0-15.77-6.26,129.28,129.28,0,0,0-72.73,0,99.63,99.63,0,0,0-15.76,6.26l-.21.11-1.28.65c-.68.36-1.35.73-2,1.1a73.11,73.11,0,0,0-9.9,6.51c-.38.3-.77.61-1.15.94s-.76.65-1.14,1l-.58.52-.51.5c-.35.33-.68.64-1,1a49.89,49.89,0,0,0-4,4.5c-.8,1-1.56,2.11-2.26,3.21a4.94,4.94,0,0,0-.27.42.6.6,0,0,0-.09.15c-.26.4-.49.79-.73,1.2s-.42.71-.62,1.07l-.06.11-.5.93c-.13.26-.25.51-.38.75l-.15.34-1,2-3.44,7.26-4.29,9.06-6.14,13-7.6,16.07L1024,450.88l-6-18.9-.24-.73-.76-.63-28.1-23h0l-2.22-1.83-2.54,1.75-10.65,7.34-2.72,1.9-.05,0,1.28,3.07,13.89,33.57h0l.36.85.58.44,15.7,12,0,0h0l-.84.69,0,0h0l-.86.72h0l-.86.72,0,0,1.44,1.94c8.24,11.17,16.5,22.31,24.67,33.53l12.27,16.8,6.15,8.4,3.07,4.2,1.54,2.1.76,1.05c.28.36.65.79,1,1.14a19,19,0,0,0,1.77,1.71,21,21,0,0,0,5.7,3.55,19.06,19.06,0,0,0,2.26.81,21,21,0,0,0,5.72.86,20,20,0,0,0,5.76-.66,21.55,21.55,0,0,0,10-5.71,21.2,21.2,0,0,0,3.48-4.63l2.57-4.52,7.59-13.41,2.66-4.68c2.79-4.92,5.61-9.8,8.44-14.7l.78-1.35.22,11.87v.6l1.18,50.91v0l-10.33,77v.1h0v.19l-2.3,38.47-1.15,19.3-.28,4.82c0,.12,0,.24,0,.36,0,.64-.06,1.29-.08,1.94,0,.15,0,.3,0,.45,0,.69,0,1.38-.07,2.07l-.3,9.66L1093,751.76,1092,790.37l-.55,19.31c-.11,3.23-.1,6.44-.14,9.66l-.09,9.66-.3,31.4h5.42l.62-31.3.2-9.65c0-.57,0-1.14,0-1.71l0-1.4c0-1.43,0-2.85.1-4.27,0-.75,0-1.51.08-2.27l.74-19.28v-.13l2.91-77c0-1.65.1-3.29.16-4.94.42-11.21,1.21-22.39,1.84-33.59a.41.41,0,0,1,0-.11q.23-3.76.44-7.53.19-3.45.38-6.9c.09-1.57.17-3.14.25-4.71l.45-8.65.45-8.65h0l116.47,0h0l.91,17.33c.33,6.41.67,12.84,1.07,19.25.72,12.84,1.66,25.67,2,38.53l2.91,77.12.74,19.28c.16,3.22.16,6.43.25,9.65l.2,9.65.62,31.3h5.43l-.31-31.4-.09-9.66c0-3.22,0-6.43-.14-9.66l-.55-19.31-1.08-38.61-1.22-38.63-.31-9.66c-.06-1.61-.08-3.22-.17-4.82l-.28-4.82-1.15-19.3-2.3-38.47v-.19h0l-10.34-77.1v.11l0-.24,0,.13,1.19-50.91v-.55l.24-13.05v0l6.5,21.63,9.8,32.71-2.57,43.75L1230.54,632h0v.08l0,.13h0l2.33,20.14.06.53V653l.75.87h0l5.46,5.91,13.37,14.5,4.78,5.19,1,1.09,2.18,2.38,15.12-9.78Zm-16.66-17.54,6.17,14.66,0,.1-3.17,1.91-2.07-2-4.28-4.08-16.81-16v-.08L1237,637.67l-.49-3.44H1250l3.52,8.38ZM981,421l5.52-4.14,25.95,18.38,7.42,16.27-13.28,11.62,0,0-15.28-12.51L980.91,421Zm124.89,209.46,1.59-13,2.16-19.37,1.81-16.8.28-2.57.2-1.71,2-17.65,0-.32v-.29l-.5-16.7c-.12-4.19-.26-8.39-.36-12.59,0-1.39-.07-2.79-.1-4.19l-.4-16.77-.29-16.77v-.05l-.06-3.09h-8.62l-23.26,43.77,0,.06a16.88,16.88,0,0,1-2.13,2.7,16.43,16.43,0,0,1-7.55,4.43,15.94,15.94,0,0,1-8.77-.12,16.49,16.49,0,0,1-3.41-1.45,16.28,16.28,0,0,1-4-3.22c-.26-.29-.44-.5-.69-.81l0-.07-.71-1-1.53-2.1-3.06-4.19-6.11-8.41-12.23-16.81-23-31.57,0,0,8.56-6.11,7.34-7.69,37.48,43.86,2.52,2.95,1.81-3.53h0l2.3-4.28,0,0L1082,467.43l8.57-15.88,1.06-2,.27-.5.24-.41c.14-.24.3-.5.45-.77l0-.06,0,0c.38-.62.79-1.21,1.21-1.8a.34.34,0,0,1,.07-.11,31.92,31.92,0,0,1,2.13-2.81,38.93,38.93,0,0,1,3.36-3.55c.28-.27.67-.6,1-.89l.5-.45.42-.36c.2-.18.43-.36.66-.56l.2-.14,0,0c.38-.31.79-.61,1.21-.92,1.06-.81,2.18-1.56,3.33-2.3a70.24,70.24,0,0,1,7.24-4,91,91,0,0,1,15.72-5.7c2.22-.58,4.47-1.08,6.73-1.51l24.24,38.62-.22,18.43-.13,21.37-.12,42.74.12,42.74.13,21.37.23,19.15Zm36.67-208.74a119.87,119.87,0,0,1,15.4-1.05h10.7a120.1,120.1,0,0,1,15.53,1.06l-20.66,31.7Zm71.76,66.84,0,3.14-.3,16.77-.39,16.77c-.12,5.59-.31,11.19-.47,16.78l-.5,16.77V559l0,.32,2.24,19.36,2.1,19.37,2.15,19.37,1.59,13h0c-11.74-.74-44.37-2.69-54.42-3.3l.22-19.17.15-21.37.11-42.74-.11-42.74-.14-21.37-.21-18.31,23.94-38.72q3.33.63,6.6,1.49a91,91,0,0,1,15.72,5.7,70.24,70.24,0,0,1,7.24,4c.86.56,1.71,1.12,2.53,1.7l.8.6c.41.3.82.59,1.18.89l0,0,0,0,.2.14c.24.2.47.38.67.56l.42.36.49.45.23.19.29.26c.17.16.34.3.48.44l.88.85a35.54,35.54,0,0,1,2.49,2.7,35,35,0,0,1,3.47,4.93,33,33,0,0,1,1.69,3.29c.18.37.32.74.48,1.11l.23.58.24.63,1,2.62,2,5.25,4,10.51,7.94,21c.38,1,.77,2,1.14,3s.8,2.09,1.19,3.14c4.5,12,8.93,24,13.42,36l.09.33a16,16,0,0,1,1.15,5.09,16.66,16.66,0,0,1-.1,2.64l-.45,3L1266,558.5,1262.22,583l-1.25,8.17-2.52,16.29-1.48,9.15-2,12.36h0l-10.49-1.08-8,.8,4.32-80.19h0l0-.53-.15-.48-10.3-33.59,0-.14-7.36-25.17ZM1185.78,831l-1.14-14.4-.15-1.84-.09-1.16c-.06-.68-.1-1.36-.17-2q0-.44-.09-.87l-.48-4.05-.33-2.72-.64-5.36L1181.45,788l-.66-5.62L1177.11,750c-2.35-21.6-4.71-43.19-6.72-64.83l0-.25-.25-2.57H1156.4l-.28,2.82c-2,21.64-4.37,43.23-6.72,64.83l-3.68,32.37-1.9,16.18-1,8.08-.48,4.05c-.08.62-.14,1.25-.19,1.88a.76.76,0,0,1,0,.15c-.05.68-.09,1.36-.14,2l-1.3,16.24-1.37,16.24-1.12,13.16h6l3.92-45c.13-1.35.21-2.7.38-4l.51-4.05,1-8.07,2.06-16.15,4.1-32.29,7-54.86,7,54.86,1.42,11.15,2.68,21.14,1.32,10.37.73,5.78.29,2.31.74,5.76.51,4.05c0,.42.1.84.13,1.26s.1,1,.14,1.52.07.84.11,1.26l3.92,45h6l-1.12-13.16Z"/><path d="M1197.84,344.43c0-.86-.06-1.74-.16-2.61l-.4-2.84a5.29,5.29,0,0,0-.15-.69l-.07-.28a35.05,35.05,0,0,0-6.54-13.89,33.35,33.35,0,0,0-7.71-7.2h0a34.16,34.16,0,0,0-8.75-4.35c-.92-.31-1.87-.58-2.83-.81a31.49,31.49,0,0,0-15.51,0,36.27,36.27,0,0,0-3.76,1.13,34,34,0,0,0-3.56,1.52c-.89.45-1.77.93-2.61,1.44s-1.68,1.06-2.48,1.64c-.41.29-.82.6-1.21.91a33,33,0,0,0-5.68,5.72,36.51,36.51,0,0,0-2.7,4h0c-.48.84-.93,1.7-1.35,2.57a34.65,34.65,0,0,0-2.49,7.31l-.07.28a5,5,0,0,0-.15.67l-.4,2.85c0,.23,0,.47-.06.7-.06.63-.08,1.26-.1,1.88v0c0,.4,0,.81,0,1.21a33.78,33.78,0,0,0,.24,3.87c.09.7.18,1.32.29,1.91l.37,1.82c.61,3.52,1.32,7.11,2,10.58L1135,379.3l.22.79a25.16,25.16,0,0,0,1.71,4.38c.23.47.49.94.75,1.4a21.27,21.27,0,0,0,1.28,2c.15.22.31.44.48.65.32.41.65.81,1,1.2s.69.78,1.07,1.15a20.34,20.34,0,0,0,1.73,1.61,22.66,22.66,0,0,0,1.9,1.45c.43.3.87.59,1.32.86a26.15,26.15,0,0,0,5.71,2.54c1.11.33,2.09.54,3,.73s1.91.35,2.91.48a43,43,0,0,0,10.79,0c1-.13,2-.3,2.91-.48s1.87-.4,3-.73a26.15,26.15,0,0,0,5.71-2.54,25.34,25.34,0,0,0,8.76-8.88,25.78,25.78,0,0,0,2.46-5.79l.21-.74.47-2.2,2.6-13.28c.69-3.48,1.4-7.08,2-10.64l.37-1.79c.11-.6.2-1.22.29-1.91a34.05,34.05,0,0,0,.25-3.85C1197.86,345.23,1197.85,344.83,1197.84,344.43ZM1145,384.23s0,0,0,0a15.57,15.57,0,0,1-1.26-1.86h0a16.55,16.55,0,0,1-1.31-2.83c-.16-.43-.3-.88-.43-1.33l-.17-.57-3.89-20.47c-.15-.91-.35-1.82-.55-2.7s-.38-1.75-.53-2.62l-.07-.45-.18-1.13c0-.22,0-.45-.08-.67a.77.77,0,0,0,0-.15c0-.23,0-.46,0-.69a26,26,0,0,1,0-3c0-.37.07-.77.11-1.18,0-.64.1-1.23.19-1.83l.43-2.25a1.6,1.6,0,0,1,0-.21l.06-.21h0l.09-.26c.06-.24.13-.47.2-.71.14-.47.3-.94.47-1.41a27.1,27.1,0,0,1,4.86-8.32,25.79,25.79,0,0,1,9.37-6.87,25.5,25.5,0,0,1,9.88-2.14h1.53l.92,0h.49a25.53,25.53,0,0,1,7.3,1.26c.39.12.78.26,1.17.41s.78.3,1.16.47a25.67,25.67,0,0,1,2.67,1.35,25.25,25.25,0,0,1,3.64,2.51,23.55,23.55,0,0,1,3.06,3,27.43,27.43,0,0,1,2.6,3.62h0a26.71,26.71,0,0,1,2.92,6.8l.09.28c0,.14.09.28.12.42l.43,2.27c.09.58.13,1.17.19,1.81,0,.41.06.81.11,1.22a27.94,27.94,0,0,1-.06,3c0,.51-.09,1-.15,1.52l-.25,1.56c-.15.88-.34,1.77-.53,2.63s-.4,1.79-.55,2.71l-3.9,20.51-.15.51a17.84,17.84,0,0,1-8.08,10.59,18.49,18.49,0,0,1-4.17,1.85c-.78.23-1.68.43-2.3.55s-1.56.29-2.44.41a36.14,36.14,0,0,1-9,0c-.87-.12-1.67-.25-2.43-.41s-1.52-.32-2.3-.55a18.69,18.69,0,0,1-4.17-1.85,17.7,17.7,0,0,1-3.58-2.84A15,15,0,0,1,1145,384.23Z"/><polygon points="1254.14 634.15 1254.18 634.22 1257.52 634.22 1257.14 634.21 1256.18 634.19 1254.14 634.15"/><polygon points="1000.75 468.19 1000.76 468.2 1001.63 467.47 1001.63 467.46 1002.5 466.73 1002.46 466.7 1000.75 468.19"/><path d="M966.21,412.68h-5.65a5,5,0,0,1,4.63-.53,4.84,4.84,0,0,1,1,.53Z"/><path class="cls-1" d="M965.19,412.14a5,5,0,0,0-4.63.53h5.64A4.84,4.84,0,0,0,965.19,412.14Z"/><path class="cls-1" d="M920.2,361.21v51.46h90.1V361.21Zm43.18,45.09a20,20,0,1,1,20-20A20.05,20.05,0,0,1,963.38,406.3Z"/><path d="M963.38,422.4l-.1.28h.2Z"/><polygon points="963.83 422.93 962.92 422.93 963.38 421.66 963.83 422.93"/><path class="cls-2" d="M1006.91,351.23H1004v-9.37H991.65v9.37h-4.29v-4.08a7.6,7.6,0,0,0-7.56-7.38H968.93v0l-19.56,0H946.7a7.23,7.23,0,0,0-1.46.2,8.09,8.09,0,0,0-2.68,1.24,7.62,7.62,0,0,0-3,4.88c0,.25-.09.49-.11.73v4.45H923.62a10.48,10.48,0,0,0-10.47,10.47v50.51a10.49,10.49,0,0,0,10.47,10.47h32.11L916.56,523.56l0,.13,0,.06a4.59,4.59,0,1,0,8.62,3.16l38.17-104.23.1-.28.1.28,38.1,104.26,0,.09a4.75,4.75,0,1,0,8.85-3.46l0-.1L971,422.68h35.87a10.49,10.49,0,0,0,10.47-10.47V361.7A10.48,10.48,0,0,0,1006.91,351.23Zm-61.74-3.79v-.1h0v0h0a.56.56,0,0,1,.07-.16.86.86,0,0,1,.13-.14.26.26,0,0,1,.16-.07.1.1,0,0,1,.09,0h3.75l19.73,0v0h12.07a.52.52,0,0,1,.43.23l.06.09a.65.65,0,0,1,0,.19v3.86H945.17Zm65.13,65.23H920.2V361.21h90.1Z"/><path class="cls-1" d="M920.2,361.21v51.46h90.1V361.21Zm43.18,5a20,20,0,1,1-20,20A20.06,20.06,0,0,1,963.38,366.24Z"/><path d="M1006.91,412.93H920V361h90.6v52Zm-83.22-.5h86.36v-51h-89.6v51Zm39.69-5.88a20.28,20.28,0,1,1,20.28-20.28A20.31,20.31,0,0,1,963.38,406.55Zm0-40.06a19.78,19.78,0,1,0,19.78,19.78A19.8,19.8,0,0,0,963.38,366.49Z"/><path class="cls-1" d="M981.71,351.23H945.17v-3.89h0v0h0a.56.56,0,0,1,.07-.16.86.86,0,0,1,.13-.14.26.26,0,0,1,.16-.07.1.1,0,0,1,.09,0h3.75l19.73,0v0h12.07a.52.52,0,0,1,.43.23l.06.09a.65.65,0,0,1,0,.19Z"/><path d="M982,351.48h-37v-3.93h-.06l.06-.3A.83.83,0,0,1,945,347a.88.88,0,0,1,.18-.2.42.42,0,0,1,.25-.12.26.26,0,0,1,.15,0h0l35.52-.05a.75.75,0,0,1,.63.34s0,0,.05.07l0,.08a1.08,1.08,0,0,1,.05.27Zm-36.54-.5h36v-3.61a.31.31,0,0,0,0-.11l.1,0,.09-.12-.2.15a.3.3,0,0,0-.23-.15l-35.53.07h-.12l-.09.12h0Zm.12-3.82h0Z"/><path class="cls-2" d="M963.38,366.24a20,20,0,1,0,20,20A20.06,20.06,0,0,0,963.38,366.24Zm0,32.06a12,12,0,1,1,12-12A12,12,0,0,1,963.38,398.3Z"/><circle class="cls-1" cx="963.38" cy="386.27" r="12.03" transform="matrix(0.16, -0.99, 0.99, 0.16, 427.78, 1275.34)"/><path d="M963.38,398.55a12.28,12.28,0,1,1,12.28-12.28A12.3,12.3,0,0,1,963.38,398.55Zm0-24.06a11.78,11.78,0,1,0,11.78,11.78A11.79,11.79,0,0,0,963.38,374.49Z"/><path class="cls-1" d="M1300,513.26V900H896.45v-332H875.94a4.06,4.06,0,0,1-4.05-4.06V517.31a4.05,4.05,0,0,1,4.05-4Z"/><path d="M1300,572.05H875.94a8.07,8.07,0,0,1-8.05-8.06V517.31a8.06,8.06,0,0,1,8.05-8H1300v8H875.94L875.89,564l424.11.06Z"/><rect x="892.45" y="566.73" width="8" height="333.27"/></svg>