<svg id="Capa_1" data-name="Capa 1" xmlns="http://www.w3.org/2000/svg" viewBox="0 0 1300 1000"><defs><style>.cls-1{fill:#fff;}</style></defs><title>service-module--handle-money</title><polygon class="cls-1" points="1052.73 500.55 1052.13 501.69 1053.94 498.16 1053.95 498.15 1055.52 495.25 1055.52 495.26 1052.73 500.55"/><polygon class="cls-1" points="1079.63 450.55 1071.08 466.39 1079.64 450.5 1080.7 448.56 1079.63 450.55"/><polygon class="cls-1" points="1080.97 448.03 1081.2 447.65 1080.97 448.06 1080.71 448.53 1080.97 448.03"/><polygon class="cls-1" points="1102.99 558.31 1100.75 577.67 1098.94 594.39 1100.75 577.59 1102.99 558.24 1103.02 558.03 1102.99 558.31"/><path class="cls-1" d="M1118.3,474.16c-1.22-.05-2.43-.06-3.64-.13-2.43-.12-4.86-.29-7.28-.63V465c2.42-.34,4.85-.51,7.28-.63,1.21-.07,2.42-.09,3.64-.13l3.64,0c2.42,0,4.85.06,7.28.18s4.85.29,7.28.62v8.39c-2.43.32-4.85.5-7.28.61s-4.86.17-7.28.18Z"/><path class="cls-1" d="M1257.45,539.54a18,18,0,0,1-.1,2.65l-.46,3L1255,557.44l-3.76,24.44-1.26,8.17-2.51,16.28-1.49,9.15-2,12.45-.23,1.39h-6.36l1,2.44.07.14.55,1.32,3.48,8.28,5.41,12.89,0,.1,6.17,14.67-3.17,1.9-2.06-2-4.29-4.06-16.78-16,0,0-1.79-12.45-.82-5.73.1-1.91,4.4-81.54h0l0-.54-.15-.48-10.3-33.57,0-.14-7.34-25.12v-.05h-8.62l-.06,3.14L1203,507.4l-.39,16.76c-.12,5.59-.31,11.19-.47,16.77l-.5,16.77v.22l0,.32,2.24,19.35L1206,597l2.16,19.36,1.59,13.1.74,6.1.09,1.77.91,17.23q.49,9.62,1.07,19.24c.72,12.84,1.67,25.66,2,38.52l2.91,77.11.75,19.27c.15,3.22.16,6.43.24,9.65l.2,9.65.77,38.58c.46,23.84,1,47.65,1.58,71.48,0,1.06.06,2.13.08,3.19l-2.44.1h-3.73l1.58,3.49L1223.3,960l.48,1,1.16.46,30.87,12.43,0,.16-.78,2.75-63.6-.42-3.62,0h-1.31l-.84-16.58c-.17-2.06-.32-4.13-.43-6.19-.1-1.66-.16-3.32-.23-5l-.08-3.43-.09-1.77-.06-1.09h0l-3.87-42.89L1179,878.69l-1-11.87-1.77-20.74-1-11.36-.4-4.72-.23-2.89-1.07-13.49c-.08-.93-.14-1.86-.22-2.79,0-.38-.07-.76-.12-1.13a.66.66,0,0,0,0-.14l-.32-2.67-.15-1.24-1-8.08-1.9-16.18L1166.18,749l0-.13q-1.19-10.92-2.37-21.83l-.48-4.56q-.64-6-1.26-12c-.37-3.59-.74-7.19-1.1-10.78q-.78-7.82-1.51-15.64l-.26-2.71v-.1h-13.72l-.28,2.81c-2,21.64-4.36,43.22-6.71,64.81l-3.68,32.36-1.9,16.18-1,8.08-.48,4c-.16,1.34-.23,2.7-.35,4.06l-1.29,16.23-1.37,16.23-2.77,32.45L1120.27,938l-.39,4.33h0l-.05,1.09-.06,1.16,0,.61v.18l-.08,3.25c-.08,1.66-.13,3.32-.23,5-.11,2.06-.25,4.13-.43,6.19l-.84,16.58h-1.31l-3.63,0-63.6.42-.76-2.75,0-.16,30.88-12.43,1.15-.46.48-1,6.83-15.19,1.57-3.49H1086l-2.43-.1c0-1.05,0-2.11.07-3.16l.12-5.3q.68-28.56,1.28-57.14l.18-9.07L1086,828l.13-6.85.06-2.66c0-.28,0-.56,0-.84,0-2.18.08-4.36.14-6.54,0-.75,0-1.51.08-2.27l.75-19.28,2.92-77.12q.12-4.83.35-9.64c.12-2.65.26-5.31.41-8l.18-3.21c.35-5.94.73-11.88,1.06-17.83.17-2.75.33-5.51.49-8.26q.3-5.44.58-10.88v-.1l.9-17.2.09-1.8,2.33-19.11-1.58,13,54.85-3.34-.22-19.15-.14-21.37-.12-42.74.12-42.74.14-21.37.21-18.43-24.24-38.62c-2.26.43-4.51.93-6.73,1.51a91.26,91.26,0,0,0-15.72,5.7,70.09,70.09,0,0,0-7.23,4c-1.15.74-2.28,1.49-3.34,2.3-.42.31-.83.61-1.21.92v0l-.2.14c-.24.2-.47.38-.67.56l-.42.36-.5.45c-.33.29-.71.62-1,.89a40.36,40.36,0,0,0-3.36,3.55,34,34,0,0,0-2.13,2.81l-.07.11c-.43.6-.85,1.21-1.23,1.84-.16.29-.33.57-.49.83v0c.16-.27.32-.56.49-.83.38-.64.8-1.25,1.23-1.85a.34.34,0,0,1,.07-.11,33.6,33.6,0,0,1,2.14-2.81,38.78,38.78,0,0,1,3.36-3.55c.27-.26.66-.59,1-.88l.5-.46.42-.36.66-.55.2-.14,0,0c.38-.31.79-.62,1.21-.93,1.06-.8,2.18-1.56,3.33-2.29a70.28,70.28,0,0,1,7.23-4,90.43,90.43,0,0,1,15.72-5.7,113.28,113.28,0,0,1,28.18-3.53c.5,0,1,0,1.49,0h7.71q.75,0,1.5,0a113.34,113.34,0,0,1,28.18,3.53,90.33,90.33,0,0,1,15.71,5.7,67.27,67.27,0,0,1,7.23,4c.87.55,1.74,1.13,2.57,1.73l.77.56.62.47.62.49s0,0,0,0l.18.12,0,0,.64.52.43.36.49.46,0,0,.51.45.45.4c.31.29.62.59.91.89q1.31,1.29,2.49,2.7c.26.31.52.63.77.95s.49.64.73,1a34.56,34.56,0,0,1,2,3c.61,1.06,1.16,2.14,1.66,3.25.18.36.33.74.48,1.11l.23.58.24.64,1,2.62,2,5.24,4,10.5,7.94,21c.78,2.05,1.56,4.11,2.32,6.17,4.51,12,8.93,24,13.42,36l.1.34A16.48,16.48,0,0,1,1257.45,539.54Z"/><path d="M1118.11,344.63a34.09,34.09,0,0,0,.24,3.88c.09.69.18,1.31.29,1.91l.38,1.81c.6,3.52,1.31,7.11,2,10.58l3.07,15.48.22.78a25.12,25.12,0,0,0,11.22,14.66,25.94,25.94,0,0,0,5.71,2.54c1.1.33,2.08.54,3,.73s1.9.35,2.9.48a43,43,0,0,0,10.79,0c1-.13,2-.29,2.91-.48s1.88-.4,3-.73a26.23,26.23,0,0,0,5.72-2.54,25,25,0,0,0,11.21-14.66l.21-.75.47-2.2,2.6-13.27c.69-3.48,1.41-7.08,2-10.64l.36-1.79c.11-.6.2-1.22.29-1.91a31.83,31.83,0,0,0,.24-3.85c0-.43,0-.83,0-1.24,0-.85-.06-1.73-.16-2.6l-.39-2.84c0-.24-.1-.46-.16-.69l-.07-.28a35.12,35.12,0,0,0-6.54-13.89,35.18,35.18,0,0,0-19.29-12.36,31.45,31.45,0,0,0-15.5,0,34.91,34.91,0,0,0-7.32,2.66,34.51,34.51,0,0,0-18.52,23.6l-.07.27c-.06.23-.11.46-.15.68l-.4,2.85c-.09.87-.12,1.75-.15,2.6C1118.14,343.83,1118.13,344.23,1118.11,344.63Zm7.36.06c0-.36.07-.77.1-1.18.06-.63.1-1.23.2-1.83l.42-2.25.12-.41a2.76,2.76,0,0,0,.08-.27,27,27,0,0,1,5.54-10.44,26.1,26.1,0,0,1,19.24-9h1.53l1.41,0a26.1,26.1,0,0,1,19,9,26.77,26.77,0,0,1,5.53,10.43,2.31,2.31,0,0,0,.1.28c0,.14.08.28.11.42l.43,2.27c.09.57.14,1.17.19,1.8,0,.41.06.82.11,1.23a25.6,25.6,0,0,1-.06,3c0,.5-.08,1-.15,1.51l-.24,1.57c-.15.87-.35,1.76-.54,2.62s-.39,1.8-.54,2.71l-3.91,20.5-.15.52a17.74,17.74,0,0,1-8.07,10.59,18.65,18.65,0,0,1-4.17,1.84c-.78.23-1.68.43-2.3.55s-1.56.29-2.44.41a36.14,36.14,0,0,1-9,0c-.87-.12-1.67-.25-2.43-.41s-1.52-.32-2.29-.55a18.18,18.18,0,0,1-10.5-8.25,18.84,18.84,0,0,1-1.75-4.18l-.16-.56L1127,356.14c-.15-.9-.35-1.81-.55-2.7s-.39-1.74-.53-2.62l-.25-1.57c-.07-.5-.12-1-.16-1.51A28.51,28.51,0,0,1,1125.47,344.69Z"/><path class="cls-1" d="M1125.51,347.74c0,.5.09,1,.16,1.51l.25,1.57c.14.88.34,1.77.53,2.62s.4,1.8.55,2.7l3.89,20.47.16.56a18.84,18.84,0,0,0,1.75,4.18,18.18,18.18,0,0,0,10.5,8.25c.77.23,1.67.43,2.29.55s1.56.29,2.43.41a36.14,36.14,0,0,0,9,0c.88-.12,1.68-.25,2.44-.41s1.52-.32,2.3-.55a18.65,18.65,0,0,0,4.17-1.84,17.74,17.74,0,0,0,8.07-10.59l.15-.52,3.91-20.5c.15-.91.35-1.82.54-2.71s.39-1.75.54-2.62l.24-1.57c.07-.5.12-1,.15-1.51a25.6,25.6,0,0,0,.06-3c0-.41-.08-.82-.11-1.23,0-.63-.1-1.23-.19-1.8l-.43-2.27c0-.14-.08-.28-.11-.42a2.31,2.31,0,0,1-.1-.28,26.77,26.77,0,0,0-5.53-10.43,26.1,26.1,0,0,0-19-9l-1.41,0h-1.53a26.1,26.1,0,0,0-19.24,9,27,27,0,0,0-5.54,10.44,2.76,2.76,0,0,1-.08.27l-.12.41-.42,2.25c-.1.6-.14,1.2-.2,1.83,0,.41-.06.82-.1,1.18A28.51,28.51,0,0,0,1125.51,347.74Z"/><polygon class="cls-1" points="983.44 476 976.07 492.09 957 486.94 935.43 464.17 938.79 458.08 969.99 464.2 983.44 476"/><path class="cls-1" d="M1103,558l0,.28-2.24,19.36-1.81,16.72-.29,2.65-2.16,19.37-1.58,13,54.85-3.34-.22-19.15-.14-21.37-.12-42.74.12-42.74.14-21.37.21-18.43-24.24-38.62c-2.26.43-4.51.93-6.73,1.51a91.26,91.26,0,0,0-15.72,5.7,70.09,70.09,0,0,0-7.23,4c-1.15.74-2.28,1.49-3.34,2.3-.42.31-.83.61-1.21.92v0l-.2.14c-.24.2-.47.38-.67.56l-.42.36-.5.45c-.33.29-.71.62-1,.89a40.36,40.36,0,0,0-3.36,3.55,34,34,0,0,0-2.13,2.81l-.07.11c-.43.6-.85,1.21-1.23,1.84-.16.29-.33.57-.49.83l-.23.41-.26.47v0l-1.07,2-8.55,15.84,0,0-14.83,27.5-.71,1.32h0l-2.79,5.29-.6,1.14-.28.54-2.78,5.28L1048,507l-10.09-4.79-.86-.41-48.85-23.06-3.54,10-5.32,9.12,33.89,19.38,18,10.31,9,5.16,4.51,2.57,2.25,1.29,1.06.6.07,0c.36.18.6.3,1,.46a16.67,16.67,0,0,0,5,1.28,17,17,0,0,0,3.7-.08,12.51,12.51,0,0,0,1.36-.25,0,0,0,0,1,0,0l.55-.13a16.48,16.48,0,0,0,7.55-4.43,16.82,16.82,0,0,0,2.12-2.7l0-.06,23.26-43.77h8.63l0,3.14.29,16.77.4,16.77c.07,2.78.14,5.55.22,8.33v.06q.13,4.17.25,8.32V541l.5,16.77V558Zm4.36-93c2.42-.34,4.85-.51,7.28-.63,1.21-.07,2.42-.09,3.64-.13l3.64,0c2.42,0,4.85.06,7.28.18s4.85.29,7.28.62v8.39c-2.43.32-4.85.5-7.28.61s-4.86.17-7.28.18l-3.64,0c-1.22-.05-2.43-.06-3.64-.13-2.43-.12-4.86-.29-7.28-.63Z"/><path d="M1136.5,465v8.39c-2.43.32-4.85.5-7.28.61s-4.86.17-7.28.18l-3.64,0c-1.22-.05-2.43-.06-3.64-.13-2.43-.12-4.86-.29-7.28-.63V465c2.42-.34,4.85-.51,7.28-.63,1.21-.07,2.42-.09,3.64-.13l3.64,0c2.42,0,4.85.06,7.28.18S1134.07,464.68,1136.5,465Z"/><path d="M1252.62,965.61l-8.48-3.2-16-6.06-6.56-10.81,2.23,0h1.66v-1.69l-.65-77.27L1224.4,828l-.08-9.66c0-3.22,0-6.43-.15-9.66l-.54-19.31-1.08-38.61-1.23-38.63-.31-9.66c-.06-1.61-.08-3.22-.16-4.82l-.29-4.82-1.15-19.3-2.3-38.47v-.19h0l-10.35-77.1,1.19-50.91v-.54l.23-13.1,6.5,21.63,9.81,32.71-2.57,43.75L1219.6,631v.09l0,.13h0l2.34,20.14.07.61.75.87,5.46,5.91,13.38,14.5,4.77,5.19,1,1.09,2.19,2.38,15.11-9.78-1.43-2.49h0L1250,645.47l-3.73-6.77-3-5.48,0-.07,2,0,1,0h.74l.31-1.74,2.79-15.39,1.64-9,4.27-24.41,4.29-24.41,2.14-12.21c.16-1,.35-2,.52-3.07a21,21,0,0,0,.2-3.54,21.77,21.77,0,0,0-1.36-6.94l.1.31-29.62-85.63a43.62,43.62,0,0,0-6-10.38,49.78,49.78,0,0,0-4-4.5c-.36-.36-.7-.67-1-1l-.52-.5-.57-.52c-.38-.36-.76-.68-1.14-1s-.77-.64-1.15-.94a73.21,73.21,0,0,0-9.91-6.51l-2-1.1-1.28-.65-.21-.11a99.63,99.63,0,0,0-15.76-6.26,129.31,129.31,0,0,0-72.74,0A99.14,99.14,0,0,0,1100.2,420l-.22.11-1.28.65-2,1.1a73.74,73.74,0,0,0-9.9,6.51c-.38.3-.76.61-1.15.94s-.76.65-1.14,1l-.57.52-.52.5c-.34.33-.68.64-1,1a48.28,48.28,0,0,0-4,4.5,37.14,37.14,0,0,0-2.26,3.21c-.1.14-.19.28-.28.42a.6.6,0,0,0-.09.15c-.25.4-.49.79-.73,1.2l-.61,1.07c-.38.68-.8,1.47-1.1,2.13l-1,2-7.72,16.32-10.88,23-2.55,5.46-4,8.54-7.71-3.18-.6-.25v.1l-2.9-1.3-.15-.06L987,473.74,973.7,459l-.52-.57-.95-.26-35.06-9.45h0l-2.77-.75-1.61,2.64-6.7,11.06-1.73,2.89,2.42,2.28,26.44,24.92.68.63.71.17L973.82,497h.06l-.5,1-.49,1-.51,1.07.29.17.89-2h.06l-.49,1h0l-.46,1,1.8,1c12.1,6.8,24.2,13.58,36.25,20.46l18.09,10.29,9,5.14,4.52,2.56,2.26,1.29,1.14.65c.39.21.91.45,1.34.64a21.48,21.48,0,0,0,9,1.73,17.37,17.37,0,0,0,2.39-.19c.56-.07,1.11-.17,1.65-.29l.42-.1.23-.05.2,0a21.54,21.54,0,0,0,10-5.71,21.85,21.85,0,0,0,3.48-4.63l2.56-4.52,7.6-13.41,2.65-4.68c2.79-4.92,5.62-9.8,8.45-14.7l.78-1.35.21,11.93v.54l1.19,50.91-10.35,77.1h0v.19l-2.3,38.47-1.15,19.3-.29,4.82c-.08,1.6-.1,3.21-.16,4.82l-.3,9.66-1.24,38.63L1081,789.37l-.54,19.31c-.12,3.23-.1,6.44-.15,9.66l-.08,9.66-.38,38.62-.65,77.27v1.69h1.66l2.24,0-6.57,10.81-16,6.06-8.47,3.2c-2.82,1.08-5.67,2.13-8.47,3.23l-2.18.84v17.46h3.43l77.65.05h3.48v-3.47l0-10,0-10,.06-19.84,0,.16,0-.27v.11l11.27-129.56c.13-1.35.22-2.7.38-4l.51-4.05,1-8.07,2-16.15,4.1-32.29,7-54.88,7,54.88,4.11,32.29,2,16.15,1,8.07.5,4.05c.17,1.34.26,2.69.39,4l11.28,129.56.06,19.84,0,10,0,10v3.47h3.48l77.64-.05h3.42V969.68l-2.18-.84C1258.29,967.74,1255.45,966.69,1252.62,965.61ZM1248,654.49l6.17,14.67,0,.09-3.17,1.91-2.06-2-4.29-4.08-16.81-16v-.08l-1.77-12.38-.49-3.44h13.46l3.51,8.38,5.38,12.79Zm-35.84-219.32.59.43.62.49h0l.08.05.12.09c.24.2.47.38.67.56l.43.36.46.42,0,0,.51.45.26.23.22.21.88.85q1.31,1.29,2.49,2.7c.26.31.52.63.77.95s.49.64.73,1a34.56,34.56,0,0,1,2,3c.16.27.31.54.46.81.45.81.86,1.64,1.24,2.48.17.37.32.74.47,1.11l.23.58.25.63,1,2.62,2,5.25,4,10.51,7.94,21q1.17,3.08,2.32,6.17c4.51,12,8.94,24,13.42,36l.1.33a16.31,16.31,0,0,1,1.14,5.09,16.65,16.65,0,0,1-.09,2.64l-.45,3-1.89,12.22L1251.29,582l-1.26,8.17-2.51,16.29-1.49,9.15-2,12.36h0l-10.5-1.08-8,.8,4.33-80.19h0l0-.53-.16-.48-10.3-33.59,0-.14L1212,487.54h-8.63l0,3.14-.29,16.77-.39,16.77c-.13,5.59-.32,11.19-.48,16.78l-.5,16.77V558l0,.32,2.24,19.36L1206,597l2.16,19.37,1.58,13h0c-11.74-.74-44.36-2.69-54.42-3.3l.23-19.17.14-21.37.12-42.74-.12-42.74-.14-21.37-.21-18.31,23.94-38.72q3.33.63,6.61,1.49a91.26,91.26,0,0,1,15.72,5.7,70.09,70.09,0,0,1,7.23,4c.86.55,1.72,1.12,2.54,1.7Zm-39-14.46-20.66,31.7-21-31.71a119.87,119.87,0,0,1,15.4-1.05h10.7A120.1,120.1,0,0,1,1173.2,420.71ZM957,486.94l-21.57-22.77,3.36-6.09L970,464.2,983.44,476l-7.37,16.09ZM1098.65,597l.29-2.65,1.81-16.72,2.24-19.36,0-.28v-.26l-.5-16.77v-.07q-.12-4.15-.25-8.32v-.06c-.09-2.78-.17-5.55-.22-8.33l-.4-16.77-.29-16.77,0-3.14h-8.63l-23.26,43.77,0,.06a16.82,16.82,0,0,1-2.12,2.7,16.48,16.48,0,0,1-7.55,4.43l-.55.13a0,0,0,0,0,0,0,12.51,12.51,0,0,1-1.36.25,17,17,0,0,1-3.7.08,16.67,16.67,0,0,1-5-1.28c-.36-.16-.6-.28-1-.46l-.07,0-1.06-.6-2.25-1.29-4.51-2.57-9-5.16-18-10.31-33.89-19.38,5.32-9.12,3.54-10L1037,501.8l.86.41L1048,507l1.08.51,2.78-5.28.28-.54.6-1.14,1.2-2.33h0l1.59-2.95h0l.71-1.32,14.83-27.5,0,0,8.55-15.84,1.07-2v0l.26-.47.23-.41c.16-.26.33-.54.49-.83.38-.63.8-1.24,1.23-1.84l.07-.11a34,34,0,0,1,2.13-2.81,40.36,40.36,0,0,1,3.36-3.55c.29-.27.67-.6,1-.89l.5-.45.42-.36c.2-.18.43-.36.67-.56l.2-.14v0c.38-.31.79-.61,1.21-.92,1.06-.81,2.19-1.56,3.34-2.3a70.09,70.09,0,0,1,7.23-4,91.26,91.26,0,0,1,15.72-5.7c2.22-.58,4.47-1.08,6.73-1.51l24.24,38.62-.21,18.43-.14,21.37-.12,42.74.12,42.74.14,21.37.22,19.15-54.85,3.34,1.58-13Zm21.09,348.33-.08,3.25v.19c-.07,1.66-.13,3.32-.23,5-.11,2.06-.26,4.12-.43,6.18l-.84,16.59h-1.31l-3.63,0-63.62.42-.81-2.91.07,0,30.82-12.4,1.15-.47.48-1,6.84-15.19.19-.42,31.43,0h0ZM1179,878.69l-1-11.87-1.75-20.58-1-11.52-.4-4.72-.23-2.89-1-13.35c0-.48-.08-1-.12-1.46s-.07-1-.12-1.47-.07-.76-.12-1.13l-.33-2.81-.15-1.24-1-8.08-1.9-16.18L1166.18,749q-1.2-11-2.39-22l-.48-4.56q-.64-6-1.26-12c-.37-3.59-.74-7.19-1.1-10.78-.26-2.6-.51-5.21-.77-7.82l-.72-7.71-.28-2.82h-13.72l-.28,2.82c-2,21.64-4.36,43.23-6.72,64.83l-3.68,32.37-1.9,16.18-1,8.08-.49,4.05c-.16,1.34-.23,2.71-.34,4.06l-1.3,16.24-1.37,16.24-2.76,32.45-5.37,59.3h0l-17.73-1-18.91,1.08.12-5.3q.68-28.56,1.28-57.14c.06-3,.12-5.93.17-8.9l.78-38.61.14-7,.06-2.66c0-.28,0-.56,0-.84,0-2.18.07-4.36.14-6.54,0-.75,0-1.51.08-2.27l.75-19.28,2.92-77.12q.12-4.83.35-9.64c.12-2.65.26-5.31.41-8l.18-3.21.54-8.91c.18-2.94.36-5.87.52-8.81s.34-5.58.49-8.37q.3-5.44.58-10.88v-.1l.89-17.2h0l116.47,0h0l.9,17.33c.33,6.41.67,12.84,1.07,19.25.72,12.84,1.67,25.67,2,38.53l2.91,77.12.75,19.28c.15,3.22.16,6.43.24,9.65l.2,9.65.78,38.61c.44,23.77,1,47.55,1.57,71.31h0l-18.34-1-18.29,1-3.49-38.59ZM1255,977l-63.63-.42-3.62,0h-1.31v-.19l-.83-16.4c-.17-2.06-.32-4.12-.43-6.18-.1-1.66-.16-3.32-.23-5l-.08-3.44,0-.79,31.44,0,.19.42,6.84,15.19.48,1,1.15.47,30.81,12.4.08,0Z"/><path d="M1051.21,491.74s0,0,0,.05l2.55-5.46Z"/><path d="M1118.11,344.64a36.56,36.56,0,0,0,.24,3.88c.09.69.18,1.31.29,1.9l.38,1.83c.61,3.52,1.32,7.1,2,10.57l3.06,15.49.22.78a25.71,25.71,0,0,0,2.46,5.78,25.3,25.3,0,0,0,14.48,11.42c1.1.33,2.08.55,3,.73s1.91.35,2.91.48a41.76,41.76,0,0,0,10.79,0c1-.13,2-.29,2.91-.48s1.88-.4,3-.73a25.48,25.48,0,0,0,5.71-2.54,25.12,25.12,0,0,0,11.22-14.66l.21-.75.47-2.2,2.6-13.28c.69-3.48,1.41-7.08,2-10.64l.36-1.79c.11-.6.21-1.22.29-1.91a34.05,34.05,0,0,0,.25-3.85c0-.43,0-.84,0-1.24,0-.85-.06-1.73-.15-2.6l-.4-2.85c0-.23-.1-.46-.16-.68l-.07-.29a35,35,0,0,0-6.54-13.89,34.62,34.62,0,0,0-12-9.71,35.09,35.09,0,0,0-7.32-2.65,31.45,31.45,0,0,0-15.5,0,35,35,0,0,0-19.3,12.36,35.11,35.11,0,0,0-6.55,13.9l-.07.28c-.06.22-.11.45-.15.67l-.4,2.86c-.09.87-.12,1.75-.15,2.6C1118.14,343.84,1118.13,344.24,1118.11,344.64Zm45.64-23.2a25.9,25.9,0,0,1,9.37,6.87,26.94,26.94,0,0,1,5.53,10.44l.09.28c0,.14.09.28.12.42l.43,2.26c.09.58.14,1.18.19,1.81,0,.41.06.82.11,1.22a27.78,27.78,0,0,1,0,3c0,.51-.09,1-.16,1.52l-.25,1.56c-.14.88-.34,1.77-.53,2.63s-.39,1.8-.55,2.71l-3.9,20.51-.15.51a18,18,0,0,1-1.75,4.19,18.31,18.31,0,0,1-10.5,8.25c-.78.23-1.68.43-2.29.56-.77.15-1.56.28-2.44.4a35,35,0,0,1-9,0c-.87-.12-1.67-.25-2.43-.4s-1.52-.33-2.3-.56a18,18,0,0,1-4.16-1.85,18.32,18.32,0,0,1-6.34-6.4,18.54,18.54,0,0,1-1.74-4.18l-.17-.57L1127,356.15c-.15-.9-.35-1.82-.55-2.7s-.38-1.75-.53-2.62l-.25-1.58c-.06-.49-.12-1-.15-1.51a28.22,28.22,0,0,1,0-3c0-.37.08-.78.11-1.19.05-.63.1-1.23.19-1.83l.43-2.25a3.17,3.17,0,0,1,.12-.41c0-.09,0-.18.08-.28a27,27,0,0,1,5.54-10.44,25.87,25.87,0,0,1,9.36-6.87,25.35,25.35,0,0,1,9.88-2.13l.57,0h1l1.41,0A25.72,25.72,0,0,1,1163.75,321.44Z"/><polygon points="1246.59 633.22 1243.25 633.22 1243.21 633.15 1245.25 633.19 1246.21 633.21 1246.59 633.22"/><polygon points="973.13 499.31 973.14 499.32 972.68 500.29 972.66 500.34 972.65 500.34 972.67 500.29 973.56 498.27 973.62 498.28 973.13 499.31"/><polygon points="1036.03 495.7 1038.93 496.9 1038.93 497 1036.03 495.7"/><polygon points="1055.52 495.26 1052.73 500.55 1053.93 498.22 1053.93 498.21 1055.52 495.26"/><rect class="cls-1" x="916.51" y="418.41" width="29.13" height="63.04" transform="translate(-45.44 790.15) rotate(-45)"/><path d="M920,408.37l-30.5,30.5,52.62,52.61,30.5-30.5Zm-.93,9,44.58,44.58-20.6,20.6-44.57-44.58Z"/><path d="M921.08,439.81a14.13,14.13,0,1,1,0,20A14.16,14.16,0,0,1,921.08,439.81ZM925,443.7a8.63,8.63,0,1,0,12.2,0A8.64,8.64,0,0,0,925,443.7Z"/><rect y="900" width="1300" height="100"/><path class="cls-1" d="M1300,513.26V900H896.45v-332H875.94a4.06,4.06,0,0,1-4.05-4.06V517.31a4.05,4.05,0,0,1,4.05-4Z"/><path d="M1300,572.05H875.94a8.07,8.07,0,0,1-8.05-8.06V517.31a8.06,8.06,0,0,1,8.05-8H1300v8H875.94L875.89,564l424.11.06Z"/><rect x="892.45" y="566.73" width="8" height="333.27"/></svg>