<svg id="Capa_1" data-name="Capa 1" xmlns="http://www.w3.org/2000/svg" viewBox="0 0 1300 1000"><defs><style>.cls-1,.cls-3,.cls-5,.cls-6{fill:#fff;}.cls-2{fill:#262626;}.cls-3,.cls-4,.cls-5,.cls-6{stroke:#262626;}.cls-3,.cls-6{stroke-miterlimit:10;}.cls-3,.cls-4,.cls-5{stroke-width:10px;}.cls-4{fill:none;}.cls-4,.cls-5{stroke-linecap:round;stroke-linejoin:round;}.cls-6{stroke-width:9.94px;}</style></defs><title>service-module--wait</title><path class="cls-1" d="M1173.11,976.43l.13-31.39-12.44,0-18.94-258-21.37,258-12.62,0,.32,31.39h-72.62V963.71l21.55-18.65h-4.87l28.13-325.5h-13.27v-.07l-25,.13,7.27-111.38c.08-1.28,2-32.54,13.84-64.45,16.07-43.43,42.78-66.6,77.23-67h.93c34.15,0,60.52,22.6,76.26,65.35,11.55,31.38,13.34,62.23,13.41,63.53l7,113.74-23.62.14-1.78-9.41,1.48,9.43-13.28,0L1229,945.05h-1.63l18.07,19.05.42,12.33Z"/><path class="cls-2" d="M1141.36,381.76c77.94,0,84.68,124.15,84.68,124.15l6.73,108.5-14.17.09-20.8-110.24L1180,433.43l28.29,181.12-12.89,0,28.13,325.47h-7.8l24.76,26.1.17,5.27h-62.56l.13-31.4-12.82,0-23.28-317.14-26.28,317.14-13.06,0,.32,31.4h-62.57V966l30-26h-12.84l28.12-325.49H1073l28-179.89-18.23,70.59L1063.27,614.5l-15.84.08,6.92-106s7.38-125.86,86.14-126.79h.87m0-10h-1c-36.7.43-65,24.74-81.86,70.27-12,32.31-14,64-14.14,65.89l-6.92,106-.69,10.71,10.73-.06,13.79-.07v0h13.65l-27.19,314.63-.69,8-13,11.28-3.46,3v20h82.67l-.1-10.1-.22-21.28h2.94l9.23,0,.76-9.19,15.71-189.59,13.91,189.5.68,9.28,9.31,0h2.75l-.08,21.34,0,10h83l-.35-10.33-.18-5.27-.13-3.8-2.61-2.75L1234,944.77l-.49-5.58-27.19-314.63h2l11.67,0v0l12.83-.08,10.58-.06-.65-10.56L1236,505.34c-.09-1.75-2-33.11-13.71-65-16.52-44.89-44.51-68.62-80.94-68.62Z"/><line class="cls-3" x1="1080.45" y1="619.57" x2="1200.7" y2="619.57"/><polyline class="cls-4" points="1121.22 382.63 1140.8 424.18 1160.04 382.63"/><line class="cls-5" x1="1140.8" y1="424.18" x2="1140.8" y2="616.63"/><path class="cls-6" d="M1116.13,335.05c0,16,10.52,29,23.5,29s23.5-13,23.5-29-10.52-29-23.5-29S1116.13,319,1116.13,335.05Z"/><rect class="cls-2" x="1149.27" y="430.19" width="22.81" height="13.31" rx="2"/><rect class="cls-3" x="836.65" y="505.61" width="458.41" height="400" transform="translate(2131.71 1411.21) rotate(180)"/><rect class="cls-2" y="900" width="1300" height="100"/><path class="cls-3" d="M813.65,493.34h481.41a0,0,0,0,1,0,0v67.25a0,0,0,0,1,0,0H813.65a25,25,0,0,1-25-25V518.34a25,25,0,0,1,25-25Z"/><path class="cls-3" d="M480.17,255c0,16,10.52,29,23.5,29s23.5-13,23.5-29-10.52-29-23.5-29S480.17,239,480.17,255Z"/><polygon class="cls-1" points="464.47 895.84 470.21 864.32 458.74 864.27 470.95 671.87 466.82 518.55 542.16 518.55 536.15 698.47 526.34 864.36 525.3 864.36 539.25 877.23 539.25 895.84 464.47 895.84"/><path class="cls-2" d="M537,523.55l-5.83,174.63-9.53,161.18h-9.12l21.74,20.06v11.42H470.46l5.74-31.5-12.14-.05L476,672l-4-148.41h65m10.34-10H461.68l.28,10.27,4,148L454.08,858.66l-.67,10.59,10.61,0h.2l-3.6,19.76-2.14,11.79h85.77V875l-3.22-3-9.61-8.87.19-3.25,9.53-161.18v-.26L547,523.88l.34-10.33Z"/><path class="cls-1" d="M429.68,895.42l.6-31-13.12,0,28.22-170L456,538.55H416.29l59.37-225.71.07-.19c3.76-10.72,11.62-17.11,21-17.11A20.07,20.07,0,0,1,513.67,305c42.06,65.88,41.26,222,41.21,228.6l0,5H531.49l-16,148.76-29.71,177h-3.32l17.78,17.08-.14,14Z"/><path class="cls-2" d="M496.76,300.54a15.11,15.11,0,0,1,12.7,7.15c41.75,65.37,40.42,225.86,40.42,225.86H527L510.49,686.63l-29,172.67H470l25.17,24.19-.07,6.93H434.78l.6-31-12.32,0L450.35,694.9l11-161.35H422.77L480.45,314.3c3.36-9.58,10-13.76,16.31-13.76m0-10c-11.45,0-21.32,7.84-25.75,20.45l-.13.38-.1.39L413.1,531l-3.3,12.54h40.81L440.4,693.74l-27.21,164-1.92,11.61,11.76,0h2.16l-.41,20.83-.2,10.2H505l.1-9.9.07-6.93,0-4.32-3.11-3-11.46-11,.72-4.32,29-172.66,0-.29,0-.3L536,543.55H559.8l.08-9.92c0-1.66.28-41.22-4.61-89.5-6.64-65.66-19.22-113.38-37.38-141.83a25.07,25.07,0,0,0-21.13-11.76Z"/><path class="cls-1" d="M487.09,335s-7.12,74-2.17,107,14,86,14,86l19.41-.83L511.1,444c1.41-82.29,1.73-78.76-1-103.32"/><path class="cls-2" d="M487.09,335c-.41,16.22-.86,32.4-.91,48.56,0,8.07,0,16.14.19,24.19.11,4,.28,8,.45,12s.47,8,.84,11.94c.2,2,.42,3.93.69,5.88s.58,3.82.94,5.84l2.08,11.94,4.18,23.9,8.29,47.82L498.71,523l19.41-.81-4.74,5.39q-.9-10.39-1.71-20.79L510.05,486l-1.52-20.81-.73-10.4-.66-10.42,0-.3v-.11l1.07-25.84,1.27-25.83c.48-8.6.93-17.21,1.21-25.79s-.17-17.15-.56-25.79q1.15,6.38,2.1,12.79c.59,4.29,1,8.62,1.31,13,.54,8.65.74,17.29,1,25.91l.4,25.88.17,25.85v-.41L516.21,454l1.08,10.38,2.09,20.76,2,20.77q1,10.4,1.9,20.78l.45,5.17-5.19.23-19.4.84-4.4.19L494,528.8q-4-24-7.69-48-1.83-12-3.51-24.06c-.56-4-1.12-8-1.62-12.06-.26-2-.52-4.11-.71-6.18s-.32-4.15-.43-6.21c-.39-8.25-.39-16.42-.06-24.57s.77-16.26,1.44-24.36C482.79,367.18,484.56,351.05,487.09,335Z"/></svg>