<svg width="1300" height="1000" viewBox="0 0 1300 1000" fill="none" xmlns="http://www.w3.org/2000/svg">
<g clip-path="url(#clip0_1598_13)">
<path d="M1283.43 477.162C1283.48 475.501 1277.52 420.035 1260 384C1244.95 354.825 1220.94 350.455 1182.82 350.021C1145.84 349.595 1115.77 355.537 1099.87 383.218C1084.43 419.322 1069.59 472.404 1069.59 472.404L1034.5 494.5L1010.44 500.954C1001.5 503.355 996.741 513.117 1000.37 521.641Lnan nanLnan nanL1000.37 521.641C1002.25 526.06 1006.69 528.832 1011.49 528.58L1051 526.5L1115.5 500.5L1109 558H1280C1280 558 1282 517 1283.43 477.162Z" fill="black"/>
<path d="M1276.43 480.47C1276.43 480.47 1271.99 423.786 1255.45 388.515C1241.25 359.957 1218.46 358.445 1182.49 358.02C1147.6 357.603 1120.23 361.42 1105.22 388.515C1090.65 423.854 1077 477.5 1077 477.5L1036.31 500.499L1009.24 509.434C1006.46 510.351 1004.69 513.06 1004.95 515.972Lnan nanLnan nanL1004.95 515.972C1005.25 519.39 1008.24 521.932 1011.67 521.686L1049.09 518.992L1114 491.5L1126.79 427.082C1126.91 426.465 1127.45 426.02 1128.08 426.02Lnan nanLnan nanL1128.08 426.02C1128.85 426.02 1129.45 426.67 1129.4 427.434L1124.5 495.5L1121.5 526L1118.5 556.855L1243.5 556.5L1241 526L1238 496L1232.69 428.435C1232.59 427.124 1233.63 426.005 1234.94 426.011Lnan nanLnan nanL1234.94 426.011C1236.07 426.016 1237.02 426.854 1237.16 427.971L1243.51 477.09L1251 556.5H1273.99L1276.43 480.47Z" fill="white"/>
<path d="M0 900H1300V1000H0V900Z" fill="black"/>
<path d="M393 600H400V900H393V600Z" fill="black"/>
<path d="M368 578.5C368 566.626 377.626 557 389.5 557H1301.5V600H389.5C377.626 600 368 590.374 368 578.5Z" fill="black"/>
<path fill-rule="evenodd" clip-rule="evenodd" d="M1180.77 346C1182.61 345.996 1189.65 345.494 1193.42 344.086C1197.93 342.402 1202.17 339.149 1205.1 335.473C1207.21 332.821 1209.37 327.437 1210.41 324.644C1210.85 323.468 1211.17 322.256 1211.42 321.027L1216.29 297.194C1216.57 295.411 1216.77 293.255 1216.77 291.452C1216.77 286.669 1215.86 282.437 1213.85 278.054C1211.84 273.671 1209.26 269.822 1205.58 266.57C1201.9 263.318 1197.06 260.522 1192.32 258.945C1187.58 257.478 1185.73 257.167 1180.77 257C1176.15 257.038 1173.47 257.483 1169.1 258.945C1163.46 260.828 1160.32 262.574 1155.96 266.57C1151.87 270.319 1149.92 273.016 1147.69 278.054C1145.52 282.959 1144.79 286.101 1144.77 291.452C1144.76 293.702 1145.26 297.194 1145.26 297.194L1149.35 321.348C1149.54 322.47 1149.79 323.579 1150.15 324.658C1151.04 327.288 1152.98 332.489 1155.47 335.511C1159.15 339.977 1162.19 342.007 1167.64 344.086C1172.47 345.931 1180.77 346 1180.77 346ZM1180.77 339C1182.26 338.996 1187.92 338.573 1190.96 337.387C1194.59 335.968 1198.01 333.227 1200.37 330.129C1202.02 327.961 1203.7 323.626 1204.57 321.219C1204.98 320.084 1205.27 318.917 1205.51 317.733L1209.38 297.871C1209.61 296.369 1209.77 294.552 1209.77 293.032C1209.77 289.002 1209.04 285.436 1207.42 281.742C1205.8 278.048 1203.72 274.805 1200.76 272.065C1197.79 269.324 1193.89 266.968 1190.07 265.639C1186.26 264.403 1184.77 264.141 1180.77 264C1177.05 264.032 1174.89 264.407 1171.37 265.639C1166.82 267.226 1164.29 268.697 1160.79 272.065C1157.49 275.224 1155.92 277.496 1154.12 281.742C1152.37 285.876 1151.79 288.523 1151.77 293.032C1151.76 294.928 1152.16 297.871 1152.16 297.871L1155.43 318.026C1155.6 319.105 1155.83 320.171 1156.17 321.21C1156.91 323.481 1158.44 327.687 1160.39 330.161C1163.36 333.925 1165.8 335.635 1170.19 337.387C1174.08 338.942 1180.77 339 1180.77 339Z" fill="black"/>
<path d="M1191.19 337.387C1188.15 338.573 1182.48 338.996 1181 339C1181 339 1174.31 338.942 1170.42 337.387C1166.03 335.635 1163.58 333.925 1160.62 330.161C1158.67 327.687 1157.14 323.481 1156.4 321.21C1156.06 320.171 1155.83 319.105 1155.66 318.026L1152.39 297.871C1152.39 297.871 1151.99 294.928 1152 293.032C1152.02 288.523 1152.6 285.876 1154.35 281.742C1156.15 277.496 1157.72 275.224 1161.01 272.065C1164.52 268.697 1167.05 267.226 1171.59 265.639C1175.12 264.407 1177.27 264.032 1181 264C1185 264.141 1186.49 264.403 1190.3 265.639C1194.12 266.968 1198.02 269.324 1200.99 272.065C1203.95 274.805 1206.03 278.048 1207.65 281.742C1209.27 285.436 1210 289.002 1210 293.032C1210 294.552 1209.84 296.369 1209.61 297.871L1205.73 317.733C1205.5 318.917 1205.2 320.084 1204.8 321.219C1203.93 323.626 1202.24 327.961 1200.59 330.129C1198.24 333.227 1194.82 335.968 1191.19 337.387Z" fill="white"/>
<path d="M866 405C866 396.716 872.716 390 881 390H1030C1038.28 390 1045 396.716 1045 405V497C1045 505.284 1038.28 512 1030 512H881C872.716 512 866 505.284 866 497V405Z" fill="white"/>
<path fill-rule="evenodd" clip-rule="evenodd" d="M1030 397H881C876.582 397 873 400.582 873 405V497C873 501.418 876.582 505 881 505H1030C1034.42 505 1038 501.418 1038 497V405C1038 400.582 1034.42 397 1030 397ZM881 390C872.716 390 866 396.716 866 405V497C866 505.284 872.716 512 881 512H1030C1038.28 512 1045 505.284 1045 497V405C1045 396.716 1038.28 390 1030 390H881Z" fill="black"/>
<path d="M783 444C783 438.477 787.477 434 793 434H849C854.523 434 859 438.477 859 444V451C859 456.523 854.523 461 849 461H793C787.477 461 783 456.523 783 451V444Z" fill="white"/>
<path fill-rule="evenodd" clip-rule="evenodd" d="M849 441H793C791.343 441 790 442.343 790 444V451C790 452.657 791.343 454 793 454H849C850.657 454 852 452.657 852 451V444C852 442.343 850.657 441 849 441ZM793 434C787.477 434 783 438.477 783 444V451C783 456.523 787.477 461 793 461H849C854.523 461 859 456.523 859 451V444C859 438.477 854.523 434 849 434H793Z" fill="black"/>
<path fill-rule="evenodd" clip-rule="evenodd" d="M931.5 534.812V512H938.5V534.812H931.5Z" fill="black"/>
<path fill-rule="evenodd" clip-rule="evenodd" d="M972.5 534.812V512H979.5V534.812H972.5Z" fill="black"/>
<path fill-rule="evenodd" clip-rule="evenodd" d="M810.5 535V461H817.5V535H823.5V461H830.5V535H998C1003.52 535 1008 539.477 1008 545V553C1008 558.523 1003.52 563 998 563H793C787.477 563 783 558.523 783 553V545C783 539.477 787.477 535 793 535H810.5ZM793 542H998C999.657 542 1001 543.343 1001 545V553C1001 554.657 999.657 556 998 556H793C791.343 556 790 554.657 790 553V545C790 543.343 791.343 542 793 542Z" fill="black"/>
<path d="M375 578.499C375 570.199 381.728 563.471 390.029 563.471H1300V593.528H390.029C381.728 593.528 375 586.799 375 578.499Z" fill="white"/>
</g>
<defs>
<clipPath id="clip0_1598_13">
<rect width="1300" height="1000" fill="white"/>
</clipPath>
</defs>
</svg>
