<svg width="1300" height="1000" viewBox="0 0 1300 1000" fill="none" xmlns="http://www.w3.org/2000/svg">
<g clip-path="url(#clip0_1598_13)">
<path d="M400 596H393V900H0V1000H1300V900H400V596Z" fill="black"/>
<path d="M368 578.5C368 566.626 377.626 557 389.5 557H1301.5V600H389.5C377.626 600 368 590.374 368 578.5Z" fill="black"/>
<path d="M1283.43 477.162C1283.48 475.501 1277.52 420.035 1260 384C1244.95 354.825 1220.94 350.455 1182.82 350.021C1145.84 349.595 1115.77 355.537 1099.87 383.218C1084.43 419.322 1069.59 472.404 1069.59 472.404L1034.5 494.5L1010.44 500.954C1001.49 503.355 996.741 513.117 1000.37 521.641C1002.25 526.06 1006.69 528.832 1011.49 528.58L1051 526.5L1115.5 500.5L1109 558H1280C1280 558 1282 517 1283.43 477.162Z" fill="black"/>
<path d="M1276.43 480.47C1276.43 480.47 1271.99 423.786 1255.45 388.515C1241.25 359.957 1218.46 358.445 1182.49 358.02C1147.6 357.603 1120.23 361.42 1105.22 388.515C1090.65 423.854 1077 477.5 1077 477.5L1036.31 500.499L1009.24 509.434C1006.46 510.351 1004.68 513.06 1004.95 515.972C1005.25 519.39 1008.24 521.932 1011.67 521.686L1049.09 518.992L1114 491.5L1126.79 427.082C1126.91 426.465 1127.45 426.02 1128.08 426.02C1128.85 426.02 1129.45 426.67 1129.4 427.434L1124.5 495.5L1121.5 526L1118.5 556.855L1243.5 556.5L1241 526L1238 496L1232.69 428.435C1232.59 427.124 1233.63 426.005 1234.94 426.011C1236.07 426.016 1237.02 426.854 1237.16 427.971L1243.51 477.09L1251 556.5H1273.99L1276.43 480.47Z" fill="white"/>
<path d="M1193.42 344.086C1189.65 345.494 1182.61 345.996 1180.77 346C1180.77 346 1172.47 345.931 1167.64 344.086C1162.19 342.007 1159.15 339.977 1155.47 335.511C1152.98 332.489 1151.04 327.288 1150.15 324.658C1149.79 323.579 1149.54 322.47 1149.35 321.348L1145.26 297.194C1145.26 297.194 1144.76 293.702 1144.77 291.452C1144.79 286.101 1145.52 282.959 1147.69 278.054C1149.92 273.016 1151.87 270.319 1155.96 266.57C1160.32 262.574 1163.46 260.828 1169.1 258.945C1173.48 257.483 1176.15 257.038 1180.77 257C1185.73 257.167 1187.58 257.478 1192.32 258.945C1197.06 260.522 1201.9 263.318 1205.58 266.57C1209.26 269.822 1211.84 273.671 1213.85 278.054C1215.86 282.437 1216.77 286.669 1216.77 291.452C1216.77 293.255 1216.57 295.411 1216.28 297.194L1211.42 321.027C1211.17 322.256 1210.85 323.468 1210.41 324.644C1209.37 327.437 1207.21 332.821 1205.1 335.473C1202.17 339.149 1197.93 342.402 1193.42 344.086Z" fill="black"/>
<path d="M1191.19 337.387C1188.15 338.573 1182.48 338.996 1181 339C1181 339 1174.31 338.942 1170.42 337.387C1166.03 335.635 1163.58 333.925 1160.62 330.161C1158.67 327.687 1157.14 323.481 1156.4 321.21C1156.06 320.171 1155.83 319.105 1155.66 318.026L1152.39 297.871C1152.39 297.871 1151.99 294.928 1152 293.032C1152.02 288.523 1152.6 285.876 1154.35 281.742C1156.15 277.496 1157.72 275.224 1161.01 272.065C1164.52 268.697 1167.05 267.226 1171.59 265.639C1175.12 264.407 1177.27 264.032 1181 264C1185 264.141 1186.49 264.403 1190.3 265.639C1194.12 266.968 1198.02 269.324 1200.99 272.065C1203.95 274.805 1206.03 278.048 1207.65 281.742C1209.27 285.436 1210 289.002 1210 293.032C1210 294.552 1209.84 296.369 1209.61 297.871L1205.73 317.733C1205.5 318.917 1205.2 320.084 1204.8 321.219C1203.93 323.626 1202.24 327.961 1200.59 330.129C1198.24 333.227 1194.82 335.968 1191.19 337.387Z" fill="white"/>
<path d="M881 393.5H1030C1036.35 393.5 1041.5 398.649 1041.5 405V497C1041.5 503.351 1036.35 508.5 1030 508.5H881C874.649 508.5 869.5 503.351 869.5 497V405C869.5 398.649 874.649 393.5 881 393.5Z" fill="white" stroke="black" stroke-width="7"/>
<path d="M793 437.5H849C852.59 437.5 855.5 440.41 855.5 444V451C855.5 454.59 852.59 457.5 849 457.5H793C789.41 457.5 786.5 454.59 786.5 451V444C786.5 440.41 789.41 437.5 793 437.5Z" fill="white" stroke="black" stroke-width="7"/>
<path fill-rule="evenodd" clip-rule="evenodd" d="M817.5 535H823.5V461H830.5V535H998C1003.52 535 1008 539.477 1008 545V553C1008 558.523 1003.52 563 998 563H793C787.477 563 783 558.523 783 553V545C783 539.477 787.477 535 793 535H810.5V461H817.5V535ZM931.5 534.812V512H938.5V534.812H931.5ZM972.5 534.812V512H979.5V534.812H972.5ZM793 542H998C999.657 542 1001 543.343 1001 545V553C1001 554.657 999.657 556 998 556H793C791.343 556 790 554.657 790 553V545C790 543.343 791.343 542 793 542Z" fill="black"/>
<path d="M375 578.499C375 570.199 381.728 563.471 390.029 563.471H1300V593.528H390.029C381.728 593.528 375 586.799 375 578.499V578.499Z" fill="white"/>
</g>
<defs>
<clipPath id="clip0_1598_13">
<rect width="1300" height="1000" fill="white"/>
</clipPath>
</defs>
</svg>
