<svg width="1300" height="1000" viewBox="0 0 1300 1000" fill="none" xmlns="http://www.w3.org/2000/svg">
<g clip-path="url(#clip0_1598_77)">
<path d="M1283.43 477.162C1283.48 475.501 1277.52 420.035 1260 384C1244.95 354.825 1220.94 350.455 1182.82 350.021C1145.84 349.595 1115.77 355.537 1099.87 383.218C1084.43 419.322 1069.59 472.404 1069.59 472.404L1034.5 494.5L1010.44 500.954C1001.5 503.355 996.741 513.117 1000.37 521.641Lnan nanLnan nanL1000.37 521.641C1002.25 526.06 1006.69 528.832 1011.49 528.58L1051 526.5L1115.5 500.5L1109 558H1280C1280 558 1282 517 1283.43 477.162Z" fill="black"/>
<path d="M1276.43 480.47C1276.43 480.47 1271.99 423.786 1255.45 388.515C1241.25 359.957 1218.46 358.445 1182.49 358.02C1147.6 357.603 1120.23 361.42 1105.22 388.515C1090.65 423.854 1077 477.5 1077 477.5L1036.31 500.499L1009.24 509.434C1006.46 510.351 1004.69 513.06 1004.95 515.972Lnan nanLnan nanL1004.95 515.972C1005.25 519.39 1008.24 521.932 1011.67 521.686L1049.09 518.992L1114 491.5L1126.79 427.082C1126.91 426.465 1127.45 426.02 1128.08 426.02Lnan nanLnan nanL1128.08 426.02C1128.85 426.02 1129.45 426.67 1129.4 427.434L1124.5 495.5L1121.5 526L1118.5 556.855L1243.5 556.5L1241 526L1238 496L1232.69 428.435C1232.59 427.124 1233.63 426.005 1234.94 426.011Lnan nanLnan nanL1234.94 426.011C1236.07 426.016 1237.02 426.854 1237.16 427.971L1243.51 477.09L1251 556.5H1273.99L1276.43 480.47Z" fill="white"/>
<path d="M0 900H1300V1000H0V900Z" fill="black"/>
<path d="M393 600H400V900H393V600Z" fill="black"/>
<path d="M368 578.5C368 566.626 377.626 557 389.5 557H1301.5V600H389.5C377.626 600 368 590.374 368 578.5Z" fill="black"/>
<path fill-rule="evenodd" clip-rule="evenodd" d="M1180.77 346C1182.61 345.996 1189.65 345.494 1193.42 344.086C1197.93 342.402 1202.17 339.149 1205.1 335.473C1207.21 332.821 1209.37 327.437 1210.41 324.644C1210.85 323.468 1211.17 322.256 1211.42 321.027L1216.29 297.194C1216.57 295.411 1216.77 293.255 1216.77 291.452C1216.77 286.669 1215.86 282.437 1213.85 278.054C1211.84 273.671 1209.26 269.822 1205.58 266.57C1201.9 263.318 1197.06 260.522 1192.32 258.945C1187.58 257.478 1185.73 257.167 1180.77 257C1176.15 257.038 1173.47 257.483 1169.1 258.945C1163.46 260.828 1160.32 262.574 1155.96 266.57C1151.87 270.319 1149.92 273.016 1147.69 278.054C1145.52 282.959 1144.79 286.101 1144.77 291.452C1144.76 293.702 1145.26 297.194 1145.26 297.194L1149.35 321.348C1149.54 322.47 1149.79 323.579 1150.15 324.658C1151.04 327.288 1152.98 332.489 1155.47 335.511C1159.15 339.977 1162.19 342.007 1167.64 344.086C1172.47 345.931 1180.77 346 1180.77 346ZM1180.77 339C1182.26 338.996 1187.92 338.573 1190.96 337.387C1194.59 335.968 1198.01 333.227 1200.37 330.129C1202.02 327.961 1203.7 323.626 1204.57 321.219C1204.98 320.084 1205.27 318.917 1205.51 317.733L1209.38 297.871C1209.61 296.369 1209.77 294.552 1209.77 293.032C1209.77 289.002 1209.04 285.436 1207.42 281.742C1205.8 278.048 1203.72 274.805 1200.76 272.065C1197.79 269.324 1193.89 266.968 1190.07 265.639C1186.26 264.403 1184.77 264.141 1180.77 264C1177.05 264.032 1174.89 264.407 1171.37 265.639C1166.82 267.226 1164.29 268.697 1160.79 272.065C1157.49 275.224 1155.92 277.496 1154.12 281.742C1152.37 285.876 1151.79 288.523 1151.77 293.032C1151.76 294.928 1152.16 297.871 1152.16 297.871L1155.43 318.026C1155.6 319.105 1155.83 320.171 1156.17 321.21C1156.91 323.481 1158.44 327.687 1160.39 330.161C1163.36 333.925 1165.8 335.635 1170.19 337.387C1174.08 338.942 1180.77 339 1180.77 339Z" fill="black"/>
<path d="M1191.19 337.387C1188.15 338.573 1182.48 338.996 1181 339C1181 339 1174.31 338.942 1170.42 337.387C1166.03 335.635 1163.58 333.925 1160.62 330.161C1158.67 327.687 1157.14 323.481 1156.4 321.21C1156.06 320.171 1155.83 319.105 1155.66 318.026L1152.39 297.871C1152.39 297.871 1151.99 294.928 1152 293.032C1152.02 288.523 1152.6 285.876 1154.35 281.742C1156.15 277.496 1157.72 275.224 1161.01 272.065C1164.52 268.697 1167.05 267.226 1171.59 265.639C1175.12 264.407 1177.27 264.032 1181 264C1185 264.141 1186.49 264.403 1190.3 265.639C1194.12 266.968 1198.02 269.324 1200.99 272.065C1203.95 274.805 1206.03 278.048 1207.65 281.742C1209.27 285.436 1210 289.002 1210 293.032C1210 294.552 1209.84 296.369 1209.61 297.871L1205.73 317.733C1205.5 318.917 1205.2 320.084 1204.8 321.219C1203.93 323.626 1202.24 327.961 1200.59 330.129C1198.24 333.227 1194.82 335.968 1191.19 337.387Z" fill="white"/>
<path d="M866 405C866 396.716 872.716 390 881 390H1030C1038.28 390 1045 396.716 1045 405V497C1045 505.284 1038.28 512 1030 512H881C872.716 512 866 505.284 866 497V405Z" fill="white"/>
<path fill-rule="evenodd" clip-rule="evenodd" d="M1030 397H881C876.582 397 873 400.582 873 405V497C873 501.418 876.582 505 881 505H1030C1034.42 505 1038 501.418 1038 497V405C1038 400.582 1034.42 397 1030 397ZM881 390C872.716 390 866 396.716 866 405V497C866 505.284 872.716 512 881 512H1030C1038.28 512 1045 505.284 1045 497V405C1045 396.716 1038.28 390 1030 390H881Z" fill="black"/>
<path d="M783 444C783 438.477 787.477 434 793 434H849C854.523 434 859 438.477 859 444V451C859 456.523 854.523 461 849 461H793C787.477 461 783 456.523 783 451V444Z" fill="white"/>
<path fill-rule="evenodd" clip-rule="evenodd" d="M849 441H793C791.343 441 790 442.343 790 444V451C790 452.657 791.343 454 793 454H849C850.657 454 852 452.657 852 451V444C852 442.343 850.657 441 849 441ZM793 434C787.477 434 783 438.477 783 444V451C783 456.523 787.477 461 793 461H849C854.523 461 859 456.523 859 451V444C859 438.477 854.523 434 849 434H793Z" fill="black"/>
<path fill-rule="evenodd" clip-rule="evenodd" d="M931.5 534.812V512H938.5V534.812H931.5Z" fill="black"/>
<path fill-rule="evenodd" clip-rule="evenodd" d="M972.5 534.812V512H979.5V534.812H972.5Z" fill="black"/>
<path fill-rule="evenodd" clip-rule="evenodd" d="M810.5 535V461H817.5V535H823.5V461H830.5V535H998C1003.52 535 1008 539.477 1008 545V553C1008 558.523 1003.52 563 998 563H793C787.477 563 783 558.523 783 553V545C783 539.477 787.477 535 793 535H810.5ZM793 542H998C999.657 542 1001 543.343 1001 545V553C1001 554.657 999.657 556 998 556H793C791.343 556 790 554.657 790 553V545C790 543.343 791.343 542 793 542Z" fill="black"/>
<path d="M375 578.499C375 570.199 381.728 563.471 390.029 563.471H1300V593.528H390.029C381.728 593.528 375 586.799 375 578.499Z" fill="white"/>
<path fill-rule="evenodd" clip-rule="evenodd" d="M653.5 407.5C652.672 407.5 652 408.172 652 409V418.544C652 422.929 648.754 426.259 645.014 427.235C640.475 428.419 635.594 430.669 633.412 433.941C632.141 435.849 631.671 438.443 631.817 441.331C631.96 444.184 632.689 446.949 633.388 448.807C633.747 449.762 634 450.855 634 452.04V458.581C634 460.681 633.223 462.707 631.818 464.268L629.885 466.415C629.637 466.691 629.5 467.048 629.5 467.419V559.5H622.5V467.419C622.5 465.319 623.277 463.293 624.682 461.732L626.615 459.585C626.863 459.309 627 458.952 627 458.581V452.04C627 451.853 626.96 451.6 626.836 451.271C625.938 448.883 625.013 445.401 624.826 441.683C624.64 437.998 625.163 433.696 627.588 430.059C631.284 424.514 638.399 421.726 643.247 420.461C644.422 420.155 645 419.238 645 418.544V409C645 404.306 648.806 400.5 653.5 400.5H664C668.694 400.5 672.5 404.306 672.5 409V418.487C672.5 419.173 673.055 420.002 674.138 420.214C679.906 421.343 686.328 423.818 691.209 429.784C696.624 436.403 695.552 445.357 693.175 451.304C693.044 451.632 693 451.892 693 452.083V458.581C693 458.952 693.137 459.309 693.385 459.585L695.318 461.732C696.723 463.293 697.5 465.319 697.5 467.419V507.5H728.234C731.608 507.5 734.662 509.495 736.017 512.583L743.283 529.132C743.756 530.209 744 531.373 744 532.549V540.211C744 541.1 743.861 541.983 743.587 542.828L739.45 555.616C738.315 559.124 735.049 561.5 731.362 561.5H717.758C715.406 561.5 713.237 560.229 712.087 558.176L709 552.663L705.913 558.176C704.763 560.229 702.594 561.5 700.242 561.5H684.321C681.896 561.5 679.673 560.15 678.554 557.999L675.782 552.667L672.375 558.344C671.2 560.302 669.085 561.5 666.801 561.5H653.075C649.042 561.5 645.563 558.665 644.75 554.714L642.175 542.205C642.059 541.641 642 541.066 642 540.491V532.386C642 531.39 642.175 530.401 642.517 529.465L648.512 513.08C649.738 509.729 652.927 507.5 656.495 507.5H690.5V467.419C690.5 467.048 690.363 466.691 690.115 466.415L688.182 464.268C686.777 462.707 686 460.681 686 458.581V452.083C686 450.847 686.276 449.702 686.675 448.705C688.645 443.777 688.846 437.95 685.791 434.216C682.315 429.968 677.653 428.035 672.792 427.083C668.842 426.309 665.5 422.928 665.5 418.487V409C665.5 408.172 664.828 407.5 664 407.5H653.5ZM655.086 515.485C655.303 514.893 655.865 514.5 656.495 514.5H728.234C728.83 514.5 729.369 514.852 729.608 515.397L736.873 531.946C736.957 532.136 737 532.342 737 532.549V540.211C737 540.368 736.975 540.524 736.927 540.673L732.79 553.462C732.589 554.081 732.013 554.5 731.362 554.5H718.051L714.671 548.464C712.189 544.032 705.811 544.032 703.329 548.464L699.949 554.5H684.625L681.58 548.644C679.235 544.134 672.854 543.94 670.239 548.299L666.518 554.5H653.075C652.364 554.5 651.75 554 651.606 553.302L649.031 540.793C649.01 540.694 649 540.592 649 540.491V532.386C649 532.21 649.031 532.036 649.091 531.871L655.086 515.485Z" fill="black"/>
<path fill-rule="evenodd" clip-rule="evenodd" d="M576.5 413C576.5 408.306 580.306 404.5 585 404.5H591.5C596.194 404.5 600 408.306 600 413V445.611C600 446.064 600.205 446.493 600.557 446.778L609.841 454.276C611.839 455.89 613 458.321 613 460.889V554.5C613 559.194 609.194 563 604.5 563H572C567.306 563 563.5 559.194 563.5 554.5V460.889C563.5 458.321 564.661 455.89 566.659 454.276L575.943 446.778C576.295 446.493 576.5 446.064 576.5 445.611V413ZM585 411.5C584.172 411.5 583.5 412.172 583.5 413V445.611C583.5 448.179 582.339 450.61 580.341 452.224L571.057 459.722C570.705 460.007 570.5 460.436 570.5 460.889V554.5C570.5 555.328 571.172 556 572 556H604.5C605.328 556 606 555.328 606 554.5V460.889C606 460.436 605.795 460.007 605.443 459.722L596.159 452.224C594.161 450.61 593 448.179 593 445.611V413C593 412.172 592.328 411.5 591.5 411.5H585Z" fill="black"/>
</g>
<defs>
<clipPath id="clip0_1598_77">
<rect width="1300" height="1000" fill="white"/>
</clipPath>
</defs>
</svg>
