<svg id="Capa_1" data-name="Capa 1" xmlns="http://www.w3.org/2000/svg" viewBox="0 0 1300 1000"><defs><style>.cls-1{fill:#fff;stroke:#262626;stroke-miterlimit:10;stroke-width:10px;}.cls-2{fill:#262626;}</style></defs><title>spending-machine</title><path class="cls-1" d="M762.76,176.9h480a0,0,0,0,1,0,0v700a25,25,0,0,1-25,25h-430a25,25,0,0,1-25-25v-700A0,0,0,0,1,762.76,176.9Z" transform="translate(2005.53 1078.8) rotate(180)"/><rect class="cls-1" x="800.51" y="213.51" width="200" height="400" rx="25" transform="translate(1801.03 827.02) rotate(180)"/><rect class="cls-1" x="799.59" y="653.81" width="200" height="64" rx="20" transform="translate(1799.19 1371.63) rotate(180)"/><rect class="cls-1" x="762.15" y="839.81" width="480" height="64" transform="translate(2004.29 1743.62) rotate(180)"/><circle class="cls-1" cx="1128.43" cy="284.84" r="50"/><rect class="cls-1" x="1078.43" y="365.43" width="100" height="16.08"/><rect class="cls-2" y="900" width="1300" height="100"/></svg>