<svg id="Capa_1" data-name="Capa 1" xmlns="http://www.w3.org/2000/svg" viewBox="0 0 1300 1000"><title>2-landmarks-expand</title><path d="M1099.54,900h-8V196.52A17.58,17.58,0,0,0,1074,179H620.84a17.58,17.58,0,0,0-17.56,17.56V900h-8V196.52A25.59,25.59,0,0,1,620.84,171H1074a25.59,25.59,0,0,1,25.56,25.56Z"/><path d="M851.5,598.73H636.89a8.07,8.07,0,0,1-8-8.06V212.57a8.06,8.06,0,0,1,8-8H851.5a8.06,8.06,0,0,1,8,8v378.1A8.07,8.07,0,0,1,851.5,598.73ZM636.89,212.52l0,378.15,214.66.06a.06.06,0,0,0,0-.06V212.57Z"/><path d="M851.5,734.7H636.89a8.06,8.06,0,0,1-8-8.05V632.34a8.07,8.07,0,0,1,8-8.06H851.5a8.07,8.07,0,0,1,8,8.06v94.31A8.06,8.06,0,0,1,851.5,734.7ZM636.89,632.28l0,94.37,214.66.05a0,0,0,0,0,0-.05V632.34Z"/><path d="M1029.64,387.43H933.57a8.06,8.06,0,0,1-8.05-8.05v-9.86a8.07,8.07,0,0,1,8.05-8.06h96.07a8.07,8.07,0,0,1,8,8.06v9.86A8.06,8.06,0,0,1,1029.64,387.43Zm-96.07-18-.05,9.92,96.12.05a.05.05,0,0,0,0-.05v-9.86Z"/><path d="M981.61,340.71a53.1,53.1,0,1,1,53.09-53.1A53.16,53.16,0,0,1,981.61,340.71Zm0-98.2a45.1,45.1,0,1,0,45.09,45.1A45.15,45.15,0,0,0,981.61,242.51Z"/><rect x="599.28" y="833.24" width="496.27" height="8"/></svg>