<svg id="Capa_1" data-name="Capa 1" xmlns="http://www.w3.org/2000/svg" viewBox="0 0 1300 1000"><title>2-landmarks-expand</title><rect y="900" width="1300" height="100" transform="translate(1300 1900) rotate(180)"/><path d="M1246.36,900h-8V193.75a17.58,17.58,0,0,0-17.56-17.56H783.94a17.58,17.58,0,0,0-17.56,17.56V900h-8V193.75a25.59,25.59,0,0,1,25.56-25.56H1220.8a25.59,25.59,0,0,1,25.56,25.56Z"/><path d="M998.32,598.73H800a8.07,8.07,0,0,1-8-8.06V209.8a8.06,8.06,0,0,1,8-8.05H998.32a8.06,8.06,0,0,1,8,8.05V590.67A8.07,8.07,0,0,1,998.32,598.73ZM800,209.75l0,380.92,198.38.06a.06.06,0,0,0,0-.06V209.8Z"/><path d="M998.32,734.7H800a8.06,8.06,0,0,1-8-8.05V632.34a8.07,8.07,0,0,1,8-8.06H998.32a8.07,8.07,0,0,1,8,8.06v94.31A8.06,8.06,0,0,1,998.32,734.7ZM800,632.28l0,94.37,198.38.05a0,0,0,0,0,0-.05V632.34Z"/><path d="M1176.46,384.66h-96.07a8.06,8.06,0,0,1-8.05-8.05v-9.86a8.07,8.07,0,0,1,8.05-8.06h96.07a8.07,8.07,0,0,1,8,8.06v9.86A8.06,8.06,0,0,1,1176.46,384.66Zm-96.07-18-.05,9.92,96.12.05a0,0,0,0,0,0-.05v-9.86Z"/><path d="M1128.43,337.94a53.1,53.1,0,1,1,53.09-53.1A53.16,53.16,0,0,1,1128.43,337.94Zm0-98.2a45.1,45.1,0,1,0,45.09,45.1A45.15,45.15,0,0,0,1128.43,239.74Z"/><rect x="762.38" y="833.24" width="479.99" height="8"/></svg>