<svg width="1300" height="1000" viewBox="0 0 1300 1000" fill="none" xmlns="http://www.w3.org/2000/svg">
<g clip-path="url(#clip0_1417_87)">
<path fill-rule="evenodd" clip-rule="evenodd" d="M883.659 819.444C893.232 786.009 942.5 792.923 942.5 827.701V877.5H882.5V827.701C882.5 824.908 882.89 822.129 883.659 819.444ZM875.5 877.5V827.701C875.5 824.257 875.981 820.828 876.929 817.517C888.736 776.28 949.5 784.808 949.5 827.701V877.5H1070.5V827.565C1070.5 824.215 1070.96 820.881 1071.87 817.656C1083.38 776.85 1143.5 785.167 1143.5 827.565V877.5H1301V884.5H1143.5V900.5H1301V907.5H1143.5V1045H1136.5V991.5H949.5V1044H942.5V907.5H700V1000.5H0V900.5H692.5V877.5H875.5ZM1136.5 877.5H1077.5V827.565C1077.5 824.857 1077.87 822.163 1078.61 819.557C1087.91 786.576 1136.5 793.298 1136.5 827.565V877.5ZM949.5 884.5H1136.5V900.5H949.5V884.5ZM949.5 907.5H1136.5V936.5H949.5V907.5ZM949.5 943.5H1136.5V984.5H949.5V943.5ZM942.5 900.5V884.5H699.5V900.5H942.5Z" fill="black"/>
</g>
<defs>
<clipPath id="clip0_1417_87">
<rect width="1300" height="1000" fill="white"/>
</clipPath>
</defs>
</svg>
