<svg width="1307" height="1004" viewBox="0 0 1307 1004" fill="none" xmlns="http://www.w3.org/2000/svg">
<path d="M3.5 900H1303.5V1000H3.5V900Z" fill="black"/>
<path d="M1226.81 121.992L637.099 589.561C633.562 592.365 631.5 596.632 631.5 601.145C631.5 611.358 643.317 617.033 651.288 610.647L1240 139H1281.75C1288.24 139 1293.5 133.739 1293.5 127.25C1293.5 120.761 1288.24 115.5 1281.75 115.5H1245.45C1238.68 115.5 1232.11 117.788 1226.81 121.992Z" fill="#D9D9D9"/>
<path d="M3.5 900V896.5H0V900H3.5ZM1303.5 900H1307V896.5H1303.5V900ZM1303.5 1000V1003.5H1307V1000H1303.5ZM3.5 1000H0V1003.5H3.5V1000ZM779.5 787.5V784H776V787.5H779.5ZM885 787.5V791H888.5V787.5H885ZM885 703V699.5H881.5V703H885ZM991.5 703V706.5H995V703H991.5ZM991.5 616.5V613H988V616.5H991.5ZM1097 616.5V620H1100.5V616.5H1097ZM1097 530.5V527H1093.5V530.5H1097ZM1204 530.5V534H1207.5V530.5H1204ZM1204 445V441.5H1200.5V445H1204ZM1303.5 448.5C1305.43 448.5 1307 446.933 1307 445C1307 443.067 1305.43 441.5 1303.5 441.5V445V448.5ZM678 857V853.5H674.5V857H678ZM779.5 857V860.5H783V857H779.5ZM706 855C706 856.933 707.567 858.5 709.5 858.5C711.433 858.5 713 856.933 713 855H709.5H706ZM1238 443C1238 444.933 1239.57 446.5 1241.5 446.5C1243.43 446.5 1245 444.933 1245 443H1241.5H1238ZM637.099 589.561L639.273 592.303L637.099 589.561ZM1226.81 121.992L1228.99 124.735L1228.99 124.735L1226.81 121.992ZM651.288 610.647L653.476 613.379L651.288 610.647ZM1240 139V135.5H1238.77L1237.81 136.268L1240 139ZM3.5 900V903.5H1303.5V900V896.5H3.5V900ZM1303.5 900H1300V1000H1303.5H1307V900H1303.5ZM1303.5 1000V996.5H3.5V1000V1003.5H1303.5V1000ZM3.5 1000H7V900H3.5H0V1000H3.5ZM779.5 787.5V791H885V787.5V784H779.5V787.5ZM885 787.5H888.5V703H885H881.5V787.5H885ZM885 703V706.5H991.5V703V699.5H885V703ZM991.5 703H995V616.5H991.5H988V703H991.5ZM991.5 616.5V620H1097V616.5V613H991.5V616.5ZM1097 616.5H1100.5V530.5H1097H1093.5V616.5H1097ZM1097 530.5V534H1204V530.5V527H1097V530.5ZM1204 530.5H1207.5V445H1204H1200.5V530.5H1204ZM1204 445V448.5H1303.5V445V441.5H1204V445ZM678 857V860.5H779.5V857V853.5H678V857ZM779.5 857H783V787.5H779.5H776V857H779.5ZM678 903.5H681.5V857H678H674.5V903.5H678ZM709.5 855H713V563H709.5H706V855H709.5ZM1241.5 443H1245V141H1241.5H1238V443H1241.5ZM637.099 589.561L639.273 592.303L1228.99 124.735L1226.81 121.992L1224.64 119.25L634.924 586.818L637.099 589.561ZM1245.45 115.5V119H1281.75V115.5V112H1245.45V115.5ZM651.288 610.647L653.476 613.379L1242.19 141.732L1240 139L1237.81 136.268L649.099 607.916L651.288 610.647ZM1240 139V142.5H1281.75V139V135.5H1240V139ZM651.288 610.647L649.099 607.916C643.42 612.466 635 608.422 635 601.145H631.5H628C628 614.294 643.214 621.6 653.476 613.379L651.288 610.647ZM1281.75 115.5V119C1286.31 119 1290 122.694 1290 127.25H1293.5H1297C1297 118.828 1290.17 112 1281.75 112V115.5ZM1226.81 121.992L1228.99 124.735C1233.67 121.021 1239.47 119 1245.45 119V115.5V112C1237.89 112 1230.56 114.555 1224.64 119.25L1226.81 121.992ZM1281.75 139V142.5C1290.17 142.5 1297 135.672 1297 127.25H1293.5H1290C1290 131.806 1286.31 135.5 1281.75 135.5V139ZM637.099 589.561L634.924 586.818C630.55 590.286 628 595.563 628 601.145H631.5H635C635 597.7 636.574 594.444 639.273 592.303L637.099 589.561Z" fill="black"/>
</svg>
