<svg width="1311" height="1004" viewBox="0 0 1311 1004" fill="none" xmlns="http://www.w3.org/2000/svg">
<path d="M3.5 900V896.5H0V900H3.5ZM980.5 900H984V896.5H980.5V900ZM980.5 1000V1003.5H984V1000H980.5ZM3.5 1000H0V1003.5H3.5V1000ZM1059.14 597.5L1061.35 594.779L1060.38 594H1059.14V597.5ZM1307.5 798.5L1305.3 801.221L1311 805.835V798.5H1307.5ZM1307.5 769H1311V767.319L1309.69 766.269L1307.5 769ZM1072.33 580.587L1070.14 583.319L1072.33 580.587ZM1054.5 899.5C1054.5 901.433 1056.07 903 1058 903C1059.93 903 1061.5 901.433 1061.5 899.5H1058H1054.5ZM1202.5 968.5H1206V965H1202.5V968.5ZM1095.5 968.5H1092V972H1095.5V968.5ZM1095.5 903.5H1099V900H1095.5V903.5ZM982.5 903.5V900H979V903.5H982.5ZM979 999.5C979 1001.43 980.567 1003 982.5 1003C984.433 1003 986 1001.43 986 999.5H982.5H979ZM1199 999.5C1199 1001.43 1200.57 1003 1202.5 1003C1204.43 1003 1206 1001.43 1206 999.5H1202.5H1199ZM3.5 900V903.5H980.5V900V896.5H3.5V900ZM980.5 900H977V1000H980.5H984V900H980.5ZM980.5 1000V996.5H3.5V1000V1003.5H980.5V1000ZM3.5 1000H7V900H3.5H0V1000H3.5ZM1053.57 574V570.5H1017.75V574V577.5H1053.57V574ZM1059.14 597.5V594H1017.75V597.5V601H1059.14V597.5ZM1307.5 798.5L1309.7 795.779L1061.35 594.779L1059.14 597.5L1056.94 600.221L1305.3 801.221L1307.5 798.5ZM1307.5 769L1309.69 766.269L1074.52 577.856L1072.33 580.587L1070.14 583.319L1305.31 771.731L1307.5 769ZM1307.5 769H1304V798.5H1307.5H1311V769H1307.5ZM1017.75 597.5V594C1013.19 594 1009.5 590.306 1009.5 585.75H1006H1002.5C1002.5 594.172 1009.33 601 1017.75 601V597.5ZM1017.75 574V570.5C1009.33 570.5 1002.5 577.328 1002.5 585.75H1006H1009.5C1009.5 581.194 1013.19 577.5 1017.75 577.5V574ZM1053.57 574V577.5C1059.6 577.5 1065.44 579.552 1070.14 583.319L1072.33 580.587L1074.52 577.856C1068.58 573.095 1061.19 570.5 1053.57 570.5V574ZM1058 899.5H1061.5V597.5H1058H1054.5V899.5H1058ZM1202.5 968.5V965H1095.5V968.5V972H1202.5V968.5ZM1095.5 968.5H1099V903.5H1095.5H1092V968.5H1095.5ZM1095.5 903.5V900H982.5V903.5V907H1095.5V903.5ZM982.5 903.5H979V999.5H982.5H986V903.5H982.5ZM1202.5 999.5H1206V968.5H1202.5H1199V999.5H1202.5Z" fill="black"/>
</svg>
