<svg width="1308" height="1003" viewBox="0 0 1308 1003" fill="none" xmlns="http://www.w3.org/2000/svg">
<path d="M1014.25 574H1050.07C1056.89 574 1063.51 576.323 1068.83 580.587L1304 769V798.5L1055.64 597.5H1014.25C1007.76 597.5 1002.5 592.239 1002.5 585.75C1002.5 579.261 1007.76 574 1014.25 574Z" fill="white"/>
<path d="M1006 585.75C1006 581.194 1009.69 577.5 1014.25 577.5H1050.07C1056.1 577.5 1061.94 579.553 1066.64 583.319L1300.5 770.681V791.164L1056.88 594H1014.25C1009.69 594 1006 590.306 1006 585.75ZM999 585.75C999 594.172 1005.83 601 1014.25 601H1054.4L1307.5 805.835V767.319L1071.02 577.856C1065.08 573.095 1057.69 570.5 1050.07 570.5H1014.25C1005.83 570.5 999 577.328 999 585.75Z" fill="black"/>
<path d="M1051 597.5V902.5H1058V597.5H1051Z" fill="black"/>
<path d="M982.5 999.5V907H1088.5V972H1195.5V999.5C1195.5 1001.43 1197.07 1003 1199 1003C1200.93 1003 1202.5 1001.43 1202.5 999.5V965H1095.5V900H975.5V999.5C975.5 1001.43 977.067 1003 979 1003C980.933 1003 982.5 1001.43 982.5 999.5Z" fill="black"/>
<path d="M0 900H979V1000H0V900Z" fill="black"/>
</svg>
