<svg width="1304" height="1003" viewBox="0 0 1304 1003" fill="none" xmlns="http://www.w3.org/2000/svg">
<path d="M1014.25 576H1050.07C1056.89 576 1063.51 578.323 1068.83 582.587L1304 771V800.5L1055.64 599.5H1014.25C1007.76 599.5 1002.5 594.239 1002.5 587.75C1002.5 581.261 1007.76 576 1014.25 576Z" fill="white"/>
<path d="M1006 587.75C1006 583.194 1009.69 579.5 1014.25 579.5H1050.07C1056.1 579.5 1061.94 581.553 1066.64 585.319L1304 775.017V796.5L1056.88 596H1014.25C1009.69 596 1006 592.306 1006 587.75ZM999 587.75C999 596.172 1005.83 603 1014.25 603H1054.4L1304 805.5V766.984L1071.02 579.856C1065.08 575.095 1057.69 572.5 1050.07 572.5H1014.25C1005.83 572.5 999 579.328 999 587.75Z" fill="black"/>
<path d="M1051 599.5V904.5H1058V599.5H1051Z" fill="black"/>
<path d="M982.5 1002V909H1088.5V974H1195.5V1002C1195.5 1002 1197.07 1002 1199 1002C1200.93 1002 1202.5 1002 1202.5 1002V967H1095.5V902H975.5V1001.5C975.5 1003.43 975.5 1002 975.5 1002C977.433 1002 982.5 1002 982.5 1002Z" fill="black"/>
<path d="M0 902H975.535V1002H0V902Z" fill="black"/>
</svg>
