<svg width="1304" height="1003" viewBox="0 0 1304 1003" fill="none" xmlns="http://www.w3.org/2000/svg">
<path d="M1304 444.5V903L671 910V856.5H772.5V787H878V702.5H984.5V616H1090V530H1197V444.5H1304ZM1204 537H1097V623H991.5V709.5H885V794H779.5V863.5H678V903H1304V451.5H1257H1204V537Z" fill="black"/>
<path d="M709.5 566V858H702.5V566H709.5Z" fill="black"/>
<path d="M1241.5 144V446H1234.5V144H1241.5Z" fill="black"/>
<path d="M1223.31 124.992L633.599 592.561C630.062 595.365 628 599.632 628 604.145C628 614.358 639.817 620.033 647.788 613.647L1236.5 142H1278.25C1284.74 142 1290 136.739 1290 130.25C1290 123.761 1284.74 118.5 1278.25 118.5H1241.95C1235.18 118.5 1228.61 120.788 1223.31 124.992Z" fill="white"/>
<path d="M1286.5 130.25C1286.5 125.694 1282.81 122 1278.25 122H1241.95C1235.97 122 1230.17 124.022 1225.49 127.735L635.773 595.304C633.074 597.444 631.5 600.7 631.5 604.146C631.5 611.422 639.92 615.466 645.6 610.916L1235.27 138.5H1278.25C1282.81 138.5 1286.5 134.806 1286.5 130.25ZM1293.5 130.25C1293.5 138.672 1286.67 145.5 1278.25 145.5H1237.73L649.976 616.379C639.714 624.6 624.5 617.294 624.5 604.146C624.5 598.563 627.051 593.287 631.425 589.818L1221.14 122.25C1227.06 117.555 1234.39 115 1241.95 115H1278.25C1286.67 115 1293.5 121.828 1293.5 130.25Z" fill="black"/>
<path d="M0 903H1304V1003H0V903Z" fill="black"/>
</svg>
