<svg width="1300" height="1003" viewBox="0 0 1300 1003" fill="none" xmlns="http://www.w3.org/2000/svg">
<path d="M923 856H1024.5V786.5H1130V702H1199.25V709H1137V793.5H1031.5V863H930V909.5H923V856Z" fill="black"/>
<path d="M961.5 565.5V857.5H954.5V565.5H961.5Z" fill="black"/>
<path d="M1196.5 344.762L885.575 592.066C882.052 594.867 880 599.123 880 603.623C880 613.834 891.822 619.499 899.78 613.103L1196.5 374.635V344.762Z" fill="white"/>
<path d="M1200 376.312L901.973 615.831C891.724 624.068 876.5 616.772 876.5 603.623C876.5 598.056 879.039 592.792 883.396 589.326L1200 337.506V376.312ZM883.5 603.623C883.5 610.895 891.92 614.931 897.588 610.375L1193 372.957V352.018L887.754 594.805C885.066 596.943 883.5 600.189 883.5 603.623Z" fill="black"/>
<path d="M601 0V905.5H594V0H601Z" fill="black"/>
<path fill-rule="evenodd" clip-rule="evenodd" d="M807 902.5V178.5C807 167.454 815.954 158.5 827 158.5H1180C1191.05 158.5 1200 167.454 1200 178.5V902.5H1300V1002.5H0V902.5H807ZM827 165.5H1180C1187.18 165.5 1193 171.32 1193 178.5V902.5H814V178.5C814 171.32 819.82 165.5 827 165.5Z" fill="black"/>
</svg>
