<svg width="1315" height="1000" viewBox="0 0 1315 1000" fill="none" xmlns="http://www.w3.org/2000/svg">
<path d="M1315 441.5V907H671V853.5H772.5V784H878V699.5H984.5V613H1090V527H1197V441.5H1315ZM1204 534H1097V620H991.5V706.5H885V791H779.5V860.5H678V900H1308V448.5H1257H1204V534Z" fill="black"/>
<path d="M709.5 563V855H702.5V563H709.5Z" fill="black"/>
<path d="M1241.5 141V443H1234.5V141H1241.5Z" fill="black"/>
<path d="M1223.31 121.992L633.599 589.561C630.062 592.365 628 596.632 628 601.145C628 611.358 639.817 617.033 647.788 610.647L1236.5 139H1278.25C1284.74 139 1290 133.739 1290 127.25C1290 120.761 1284.74 115.5 1278.25 115.5H1241.95C1235.18 115.5 1228.61 117.788 1223.31 121.992Z" fill="white"/>
<path d="M1286.5 127.25C1286.5 122.694 1282.81 119 1278.25 119H1241.95C1235.97 119 1230.17 121.022 1225.49 124.735L635.773 592.304C633.074 594.444 631.5 597.7 631.5 601.146C631.5 608.422 639.92 612.466 645.6 607.916L1235.27 135.5H1278.25C1282.81 135.5 1286.5 131.806 1286.5 127.25ZM1293.5 127.25C1293.5 135.672 1286.67 142.5 1278.25 142.5H1237.73L649.976 613.379C639.714 621.6 624.5 614.294 624.5 601.146C624.5 595.563 627.051 590.287 631.425 586.818L1221.14 119.25C1227.06 114.555 1234.39 112 1241.95 112H1278.25C1286.67 112 1293.5 118.828 1293.5 127.25Z" fill="black"/>
<path d="M0 900H1300V1000H0V900Z" fill="black"/>
</svg>
