<svg width="1320" height="1003" viewBox="0 0 1320 1003" fill="none" xmlns="http://www.w3.org/2000/svg">
<path d="M923 906V856H1024.5V786.5H1130V702H1182C1183.93 702 1185.5 703.567 1185.5 705.5C1185.5 707.433 1183.93 709 1182 709H1137V793.5H1031.5V863H930V906C930 907.933 928.433 909.5 926.5 909.5C924.567 909.5 923 907.933 923 906Z" fill="black"/>
<path d="M961.5 565.5V857.5H954.5V565.5H961.5Z" fill="black"/>
<path d="M1493.5 143.5V445.5H1486.5V143.5H1493.5Z" fill="black"/>
<path d="M1182 357.051L885.599 592.061C882.062 594.865 880 599.132 880 603.645C880 613.858 891.817 619.532 899.787 613.147L1182 387.044V357.051Z" fill="white"/>
<path d="M1185.5 388.724L901.976 615.879C891.714 624.099 876.5 616.794 876.5 603.645C876.5 598.063 879.051 592.786 883.425 589.318L1185.5 349.809V388.724ZM883.5 603.645C883.5 610.922 891.92 614.965 897.599 610.416L1178.5 385.362V364.293L887.773 594.803C885.074 596.944 883.5 600.2 883.5 603.645Z" fill="black"/>
<path d="M0 902.5H1300V1002.5H0V902.5Z" fill="black"/>
<path d="M1179 177.5C1179 170.32 1173.18 164.5 1166 164.5H813C805.933 164.5 800.182 170.14 800.004 177.164L800 177.5V902.5H1179V177.5ZM1186 909.5H793V177.5C793 166.454 801.954 157.5 813 157.5H1166C1177.05 157.5 1186 166.454 1186 177.5V909.5Z" fill="black"/>
<path d="M601 0V905.5H594V0H601Z" fill="black"/>
</svg>
