<svg id="Capa_1" data-name="Capa 1" xmlns="http://www.w3.org/2000/svg" viewBox="0 0 1300 1000"><defs><style>.cls-1,.cls-3,.cls-4{fill:#fff;}.cls-2{fill:#1d1d1b;}.cls-3,.cls-4,.cls-5,.cls-6,.cls-7{stroke:#1d1d1b;}.cls-3,.cls-4,.cls-5{stroke-miterlimit:10;}.cls-3{stroke-width:9.94px;}.cls-4,.cls-5,.cls-6,.cls-7{stroke-width:10px;}.cls-5,.cls-6,.cls-7{fill:none;}.cls-5,.cls-6{stroke-linecap:round;}.cls-6,.cls-7{stroke-linejoin:round;}</style></defs><title>Capa 2-Personajes y artefactos</title><path class="cls-1" d="M716.26,904.17l0-31.45-12.27,0L683.39,614.07,663.12,872.7H651.35l-.27,31.48H578.51l-.2-12.92,22.1-18.35h-5.64l28.5-305.71H610.15l20.56-170.81-18.89,47.85L588.1,537.85H559.76l16.42-92.62A272.46,272.46,0,0,1,596,377.55c20.49-45.63,50.78-70.79,87.59-72.76,21.77-1.16,95.71-7.67,112.54-9.16L825.92,191H851.8L826.38,325.14l-95.62,32.44,26.52,209.64-13.23-.05,28.37,305.51-5.37,0,21.22,18.46,1.14,13Z"/><path class="cls-2" d="M845.77,196,822,321.34l-96.72,32.82,26.31,208-13-.05L766.94,867.7l-13.22,0,29.74,25.88.49,5.56H721.26l0-31.44-12.66,0-25.31-317-24.85,317h-12.1l-.26,31.48h-62.7l-.08-5.61,30.91-25.66h-14l28.49-305.71h-13l24.53-203.75L607.05,442.7l-22.84,90.15H565.72L581.12,446S598.7,314.33,683.84,309.78C708.71,308.46,800,300.3,800,300.3L829.7,196h16.07m12.07-10H822.15l-2.07,7.26L792.25,291c-21.67,1.91-88.49,7.76-108.94,8.85-38.8,2.07-70.57,28.25-91.88,75.7a278.05,278.05,0,0,0-20.19,68.95l-15.37,86.66-2.08,11.74H592l1.91-7.54,22.69-89.53,4.52-11.44L605.86,561l-1.35,11.2h13.27L590.3,867l-.79,8.48L577,885.87l-3.68,3.06.07,4.79.08,5.6.16,9.85H656l.09-9.92.18-21.55h11.43l.72-9.22,15-191,15.25,191,.73,9.18,9.21,0h2.67l0,21.45v10h83.62l-1-10.88-.49-5.56-.35-4-3-2.65-12.34-10.73-.8-8.56L749.53,572.19h2l11.38,0-1.43-11.3L736.23,361l89-30.19,5.53-1.88,1.08-5.73,23.76-125.32L857.84,186Z"/><ellipse id="_Trazado_" data-name="&lt;Trazado&gt;" class="cls-3" cx="684.67" cy="262.84" rx="23.5" ry="29"/><line class="cls-4" x1="626.49" y1="567.16" x2="746.74" y2="567.16"/><polyline class="cls-5" points="665.37 309.38 684.95 350.92 704.19 307.38"/><path class="cls-2" d="M706.05,388.44h0a9,9,0,0,1-9-9h0a9,9,0,0,1,9-9h0a9,9,0,0,1,9,9h0A9,9,0,0,1,706.05,388.44Z"/><path class="cls-6" d="M655.59,405.52h-7.27l0-21c0-11.61,6.59-21,18.2-21.05h0c11.61,0,18.23,9.39,18.24,21l0,21h-7.09"/><line class="cls-7" x1="655.55" y1="311.07" x2="664.52" y2="360.19"/><line class="cls-7" x1="713.16" y1="306.57" x2="707.14" y2="371.69"/><rect class="cls-1" x="670.05" y="497.31" width="27" height="64.88"/></svg>