<svg width="1300" height="1000" viewBox="0 0 1300 1000" fill="none" xmlns="http://www.w3.org/2000/svg">
<path d="M163 715H170V900H163V715Z" fill="black"/>
<path d="M0 720V713H178C186.284 713 193 706.284 193 698V682C193 673.716 186.284 667 178 667H0V660H180C191.046 660 200 668.954 200 680V700C200 711.046 191.046 720 180 720H0Z" fill="black"/>
<path d="M40 667H33V652C33 643.716 26.2843 637 18 637H0V630H20C31.0457 630 40 638.954 40 650V667Z" fill="black"/>
<path fill-rule="evenodd" clip-rule="evenodd" d="M0 900H506V914H521V900H595C597.761 900 600 902.239 600 905V1000H0V900ZM521 928H506V942H521V928ZM506 956H521V970H506V956ZM521 984H506V998H521V984Z" fill="black"/>
</svg>
