<svg width="1300" height="1000" viewBox="0 0 1300 1000" fill="none" xmlns="http://www.w3.org/2000/svg">
<path d="M163 715H170V900H163V715Z" fill="black"/>
<path d="M0 720V713H178C186.284 713 193 706.284 193 698V682C193 673.716 186.284 667 178 667H0V660H180C191.046 660 200 668.954 200 680V700C200 711.046 191.046 720 180 720H0Z" fill="black"/>
<path d="M40 667H33V652C33 643.716 26.2843 637 18 637H0V630H20C31.0457 630 40 638.954 40 650V667Z" fill="black"/>
<path fill-rule="evenodd" clip-rule="evenodd" d="M0 900H509V913C509 913.552 509.448 914 510 914H517C517.552 914 518 913.552 518 913V900H595C597.761 900 600 902.239 600 905V1000H0V900ZM510 928C509.448 928 509 928.448 509 929V941C509 941.552 509.448 942 510 942H517C517.552 942 518 941.552 518 941V929C518 928.448 517.552 928 517 928H510ZM509 957C509 956.448 509.448 956 510 956H517C517.552 956 518 956.448 518 957V969C518 969.552 517.552 970 517 970H510C509.448 970 509 969.552 509 969V957ZM510 984C509.448 984 509 984.448 509 985V997C509 997.552 509.448 998 510 998H517C517.552 998 518 997.552 518 997V985C518 984.448 517.552 984 517 984H510Z" fill="black"/>
</svg>
