<svg width="1300" height="1000" viewBox="0 0 1300 1000" fill="none" xmlns="http://www.w3.org/2000/svg"><g clip-path="url(#a)"><path fill-rule="evenodd" clip-rule="evenodd" d="M957 0h-7v80c0 11.046 8.954 20 20 20h54.12l-19.47 34.545c-1.88 3.333.53 7.455 4.36 7.455h46.98c3.83 0 6.24-4.122 4.36-7.455L1040.88 100h95.24l-19.47 34.545c-1.88 3.333.53 7.455 4.36 7.455h46.98c3.83 0 6.24-4.122 4.36-7.455L1152.88 100h95.24l-19.47 34.545c-1.88 3.333.53 7.455 4.36 7.455h46.98c3.83 0 6.24-4.122 4.36-7.455L1264.88 100H1300v-7H972c-8.284 0-15-6.716-15-15V0Zm75.99 100h-.98l-20.71 35h42.4l-20.71-35Zm90.31 35 20.71-35h.98l20.71 35h-42.4Zm133.69-35h-.98l-20.71 35h42.4l-20.71-35ZM400 900h-80V742h10c11.046 0 20-8.954 20-20v-20c0-11.046-8.954-20-20-20h-10v-10c0-11.046-8.954-20-20-20H0v7h298c8.284 0 15 6.716 15 15v8H70c-6.85 0-12.895 3.444-16.5 8.694C49.895 685.444 43.85 682 37 682H0v7h35c8.284 0 15 6.716 15 15v16c0 8.284-6.716 15-15 15H0v7h37c6.85 0 12.895-3.444 16.5-8.694C57.105 738.556 63.15 742 70 742h243v158H0v100h1300V900H987V742h243c6.85 0 12.9-3.444 16.5-8.694 3.6 5.25 9.65 8.694 16.5 8.694h37v-7h-35c-8.28 0-15-6.716-15-15v-16c0-8.284 6.72-15 15-15h35v-7h-37c-6.85 0-12.9 3.444-16.5 8.694-3.6-5.25-9.65-8.694-16.5-8.694H987v-8c0-8.284 6.716-15 15-15h298v-7h-300c-11.046 0-20 8.954-20 20v10h-10c-11.046 0-20 8.954-20 20v20c0 11.046 8.954 20 20 20h10v158h-80V220c0-11.046-8.954-20-20-20H420c-11.046 0-20 8.954-20 20v680Zm7 0v-50h91v50h-91Zm565-211c-8.284 0-15 6.716-15 15v16c0 8.284 6.716 15 15 15h256c8.28 0 15-6.716 15-15v-16c0-8.284-6.72-15-15-15H972ZM57 720c0 8.284 6.716 15 15 15h256c8.284 0 15-6.716 15-15v-16c0-8.284-6.716-15-15-15H72c-8.284 0-15 6.716-15 15v16Zm743 123h93V561h-53c-11.046 0-20-8.954-20-20V250c0-11.046 8.954-20 20-20h53v-8c0-8.284-6.716-15-15-15h-78v636Zm-7-636H505v693h288v-17h7v17h93v-50h-93v12h-7V207ZM498 843h-91V561h51c11.046 0 20-8.954 20-20V250c0-11.046-8.954-20-20-20h-51v-8c0-8.284 6.716-15 15-15h76v636Zm395-289V237h-51c-8.284 0-15 6.716-15 15v287c0 8.284 6.716 15 15 15h51Zm-437 0h-49V237h49c8.284 0 15 6.716 15 15v287c0 8.284-6.716 15-15 15Z" fill="#000"/><path d="M0 553v7h330c11.046 0 20-8.954 20-20V250c0-11.046-8.954-20-20-20H0v7h328c8.284 0 15 6.716 15 15v286c0 8.284-6.716 15-15 15H0Zm1300 7v-7H972c-8.284 0-15-6.716-15-15V252c0-8.284 6.716-15 15-15h328v-7H970c-11.046 0-20 8.954-20 20v290c0 11.046 8.954 20 20 20h330Z" fill="#000"/><path fill-rule="evenodd" clip-rule="evenodd" d="M350 0h-7v78c0 8.284-6.716 15-15 15H0v7h35.118L15.65 134.545c-1.878 3.333.53 7.455 4.356 7.455h46.986c3.826 0 6.234-4.122 4.356-7.455L51.882 100h95.236l-19.467 34.545c-1.878 3.333.53 7.455 4.356 7.455h46.986c3.826 0 6.234-4.122 4.356-7.455L163.882 100h95.236l-19.467 34.545c-1.878 3.333.53 7.455 4.356 7.455h46.986c3.826 0 6.234-4.122 4.356-7.455L275.882 100H330c11.046 0 20-8.954 20-20V0ZM22.301 135l20.706-35h.986L64.7 135H22.3Zm133.692-35h-.986l-20.706 35h42.398l-20.706-35Zm90.308 35 20.706-35h.986l20.706 35h-42.398Z" fill="#000"/><path d="M575 472.01c.285-1.638 13.472-48.964 31-84.998 18.5-33.499 31-47.499 72.5-46.999 6 .072 11.994 4 14.5 9.5 18 39.499 67 182.996 67 182.996l14.111 14.317c10.929 11.09 10.645 28.985-.63 39.723a.836.836 0 0 1-1.036.093l-42.392-27.94a5 5 0 0 1-1.651-1.804l-9.902-18.39 3.5 22 60 156.496 10 139.997 17.55 2.257c9.978 1.283 17.45 9.777 17.45 19.836v1.907L761 900h-34l-1.5-7.499a6.636 6.636 0 0 1-6.603-5.97L704.5 744.004 666 664.506l-19 79.498-73 131.997 8.372 4.751a20 20 0 0 1 10.128 17.394V900H530l-32-17.999 10.5-15a6.831 6.831 0 0 1-2.084-8.861L568.5 744.004l31-167.996-33.712 48.088a.925.925 0 0 1-.789.392c-12.692-.479-21.098-13.363-16.423-25.173L558 575.508s9-57.499 17-103.498Zm109.822-137.188c-3.632 1.731-10.599 2.844-12.434 3.009 0 0-8.275.655-13.252-.762-5.609-1.596-8.809-3.353-12.863-7.482-2.744-2.794-5.138-7.804-6.247-10.348-.455-1.043-.8-2.126-1.087-3.227l-6.183-23.706s-.797-3.436-.985-5.678c-.447-5.332.002-8.525 1.74-13.601 1.785-5.214 3.494-8.07 7.238-12.161 3.991-4.361 6.966-6.374 12.42-8.741 4.236-1.838 6.859-2.515 11.462-2.955 4.959-.266 6.827-.117 11.673.931 4.86 1.158 9.926 3.522 13.878 6.44 3.952 2.918 6.855 6.528 9.239 10.719 2.385 4.192 3.657 8.328 4.076 13.093.157 1.797.146 3.961.016 5.762l-2.768 24.167a24.326 24.326 0 0 1-.694 3.691c-.793 2.874-2.478 8.425-4.349 11.251-2.593 3.917-6.536 7.528-10.88 9.598Z" fill="#000"/><path d="M681.788 328.363c-2.921 1.446-8.532 2.361-10.01 2.494 0 0-6.666.525-10.681-.684-4.525-1.363-7.11-2.854-10.39-6.345-2.157-2.295-4.054-6.351-4.988-8.549-.427-1.005-.748-2.048-1.016-3.107l-5.009-19.794s-.653-2.896-.812-4.786c-.377-4.493-.025-7.182 1.358-11.452 1.422-4.386 2.79-6.787 5.794-10.221 3.201-3.661 5.592-5.347 9.98-7.324 3.407-1.535 5.519-2.096 9.227-2.452 3.995-.208 5.501-.077 9.41.822 3.92.991 8.009 2.998 11.204 5.47 3.194 2.471 5.545 5.521 7.48 9.06 1.935 3.538 2.973 7.027 3.326 11.042.132 1.514.131 3.338.032 4.855l-2.129 20.124a23.638 23.638 0 0 1-.63 3.554c-.651 2.473-1.955 6.939-3.409 9.242-2.078 3.292-5.243 6.321-8.737 8.051Zm126.149 536.911L784.5 863.47 774 716.889l-60-157.087C699.433 412.238 687.621 366.8 681.517 352.84c-2.08-4.758-7.201-6.842-12.393-6.84-12.272.005-36.29 4.386-53.125 35.217C597.321 415.423 582 471.753 582 471.753l-17 104.558-10.365 26.618c-2.229 5.726 1.995 11.904 8.14 11.904a.437.437 0 0 0 .356-.183l27.369-38.339 20.5-59.533 35.645-98.079a1.484 1.484 0 0 1 2.821.91l-27.164 96.099c-.2.71-.299 1.413-.269 2.149.312 7.768 3.556 56.355 36.467 109.982 1.5 2.444 54.5 115.564 54.5 115.564l12.876 135.033a8.415 8.415 0 0 0 1.358 3.85c2.33 3.529 6.299 6.47 7.096 10.622L735.5 899l81.672-23.703-.004-.237a10 10 0 0 0-9.231-9.786Z" fill="#fff"/><path d="M688 351s23 83.5 27 166c.17 3.507 20.95 36.622 20.95 36.622l34.098 23.565a.71.71 0 0 0 .868-.046c5.873-5.073 6.593-13.918 1.618-19.873L753.5 534.485 731 468l-43-117ZM578.127 887.001 563.5 879.5 639 744s24.802-92.5 22-97c-49.5-79.5-44-123.5-44-123.5l-21.5 113.75L577 744l-59.817 112.039c-2.739 5.13-.449 13.515-3.946 18.161L510 878.5l36 20.5 38 1-.481-5.049a10 10 0 0 0-5.392-7.95Z" fill="#fff"/></g><defs><clipPath id="a"><path fill="#fff" d="M0 0h1300v1000H0z"/></clipPath></defs></svg>