<svg width="1300" height="1000" viewBox="0 0 1300 1000" fill="none" xmlns="http://www.w3.org/2000/svg">
<g clip-path="url(#clip0_179_1025)">
<path d="M760 900H767V222C767 213.716 773.716 207 782 207H1238C1246.28 207 1253 213.716 1253 222V900H1260V220C1260 208.954 1251.05 200 1240 200H780C768.954 200 760 208.954 760 220V900Z" fill="black"/>
<path d="M1007 200H1014V900H1007V200Z" fill="black"/>
<path d="M760 561V554H965C973.284 554 980 547.284 980 539V252C980 243.716 973.284 237 965 237H760V230H967C978.046 230 987 238.954 987 250V541C987 552.046 978.046 561 967 561H760Z" fill="black"/>
<path d="M1260 561V554H1056C1047.72 554 1041 547.284 1041 539V252C1041 243.716 1047.72 237 1056 237H1260V230H1054C1042.95 230 1034 238.954 1034 250V541C1034 552.046 1042.95 561 1054 561H1260Z" fill="black"/>
<path d="M0 900H1300V1000H0V900Z" fill="black"/>
<path d="M360 560V553H688C696.284 553 703 546.284 703 538V252C703 243.716 696.284 237 688 237H360V230H690C701.046 230 710 238.954 710 250V540C710 551.046 701.046 560 690 560H360Z" fill="black"/>
<path d="M710 0H703V135C703 143.284 696.284 150 688 150H360V157H690C701.046 157 710 148.046 710 137V0Z" fill="black"/>
<path d="M360 150H4.99623C-1.07672 150 -5.07257 157 1.00038 157V157H360V150Z" fill="black"/>
<path fill-rule="evenodd" clip-rule="evenodd" d="M624.062 150H632.938L656.349 191.545C658.227 194.878 655.819 199 651.993 199H605.007C601.181 199 598.773 194.878 600.651 191.545L624.062 150ZM628.007 157H628.993L649.699 192H607.301L628.007 157Z" fill="black"/>
<path fill-rule="evenodd" clip-rule="evenodd" d="M96.9378 150H88.0625L64.6513 191.545C62.7731 194.878 65.1815 199 69.0073 199H115.993C119.819 199 122.227 194.878 120.349 191.545L96.9378 150ZM92.9931 157H92.0069L71.3012 192H113.699L92.9931 157Z" fill="black"/>
<path fill-rule="evenodd" clip-rule="evenodd" d="M490.062 150H498.938L522.349 191.545C524.227 194.878 521.819 199 517.993 199H471.007C467.181 199 464.773 194.878 466.651 191.545L490.062 150ZM494.007 157H494.993L515.699 192H473.301L494.007 157Z" fill="black"/>
<path fill-rule="evenodd" clip-rule="evenodd" d="M230.938 150H222.063L198.651 191.545C196.773 194.878 199.181 199 203.007 199H249.993C253.819 199 256.227 194.878 254.349 191.545L230.938 150ZM226.993 157H226.007L205.301 192H247.699L226.993 157Z" fill="black"/>
<path fill-rule="evenodd" clip-rule="evenodd" d="M356.062 150H364.938L388.349 191.545C390.227 194.878 387.819 199 383.993 199H337.007C333.181 199 330.773 194.878 332.651 191.545L356.062 150ZM360.007 157H360.993L381.699 192H339.301L360.007 157Z" fill="black"/>
<path d="M760 843H1260V850H760V843Z" fill="black"/>
<path d="M613 742H620V900H613V742Z" fill="black"/>
<path d="M87 742H94V900H87V742Z" fill="black"/>
<path fill-rule="evenodd" clip-rule="evenodd" d="M370 682C358.954 682 350 690.954 350 702V722C350 733.046 358.954 742 370 742H630C641.046 742 650 733.046 650 722V702C650 690.954 641.046 682 630 682H370ZM372 689C363.716 689 357 695.716 357 704V720C357 728.284 363.716 735 372 735H628C636.284 735 643 728.284 643 720V704C643 695.716 636.284 689 628 689H372Z" fill="black"/>
<path fill-rule="evenodd" clip-rule="evenodd" d="M77 682C65.9543 682 57 690.954 57 702V722C57 733.046 65.9543 742 77 742H337C348.046 742 357 733.046 357 722V702C357 690.954 348.046 682 337 682H77ZM79 689C70.7157 689 64 695.716 64 704V720C64 728.284 70.7157 735 79 735H335C343.284 735 350 728.284 350 720V704C350 695.716 343.284 689 335 689H79Z" fill="black"/>
<path d="M87 689H94V674C94 665.716 100.716 659 109 659H597C605.284 659 612 665.716 612 674V689H619V672C619 660.954 610.046 652 599 652H107C95.9543 652 87 660.954 87 672V689Z" fill="black"/>
<path d="M361 560V553H33C24.7157 553 18 546.284 18 538V252C18 243.716 24.7157 237 33 237H361V230H31C19.9543 230 11 238.954 11 250V540C11 551.046 19.9543 560 31 560H361Z" fill="black"/>
</g>
<defs>
<clipPath id="clip0_179_1025">
<rect width="1300" height="1000" fill="white"/>
</clipPath>
</defs>
</svg>
