<svg width="1300" height="1000" viewBox="0 0 1300 1000" fill="none" xmlns="http://www.w3.org/2000/svg">
<g clip-path="url(#clip0_871_501)">
<path d="M760 900H767V222C767 213.716 773.716 207 782 207H1238C1246.28 207 1253 213.716 1253 222V900H1260V220C1260 208.954 1251.05 200 1240 200H780C768.954 200 760 208.954 760 220V900Z" fill="black"/>
<path d="M1153 200H1160V900H1153V200Z" fill="black"/>
<path d="M858 200H865V900H858V200Z" fill="black"/>
<path d="M760 561V554H816C824.284 554 831 547.284 831 539V252C831 243.716 824.284 237 816 237H760V230H818C829.046 230 838 238.954 838 250V541C838 552.046 829.046 561 818 561H760Z" fill="black"/>
<path d="M1258 561V554H1202C1193.72 554 1187 547.284 1187 539V252C1187 243.716 1193.72 237 1202 237H1258V230H1200C1188.95 230 1180 238.954 1180 250V541C1180 552.046 1188.95 561 1200 561H1258Z" fill="black"/>
<path d="M0 900H1300V1000H0V900Z" fill="black"/>
<path d="M760 843H865V850H760V843Z" fill="black"/>
<path d="M1153 843H1260V850H1153V843Z" fill="black"/>
<path d="M360 560V553H688C696.284 553 703 546.284 703 538V252C703 243.716 696.284 237 688 237H360V230H690C701.046 230 710 238.954 710 250V540C710 551.046 701.046 560 690 560H360Z" fill="black"/>
<path d="M710 0H703V135C703 143.284 696.284 150 688 150H360V157H690C701.046 157 710 148.046 710 137V0Z" fill="black"/>
<path d="M360 150H4.99623C-1.07672 150 -5.07257 157 1.00038 157V157H360V150Z" fill="black"/>
<path fill-rule="evenodd" clip-rule="evenodd" d="M624.062 150H632.938L656.349 191.545C658.227 194.878 655.819 199 651.993 199H605.007C601.181 199 598.773 194.878 600.651 191.545L624.062 150ZM628.007 157H628.993L649.699 192H607.301L628.007 157Z" fill="black"/>
<path fill-rule="evenodd" clip-rule="evenodd" d="M96.9378 150H88.0625L64.6513 191.545C62.7731 194.878 65.1815 199 69.0073 199H115.993C119.819 199 122.227 194.878 120.349 191.545L96.9378 150ZM92.9931 157H92.0069L71.3012 192H113.699L92.9931 157Z" fill="black"/>
<path fill-rule="evenodd" clip-rule="evenodd" d="M490.062 150H498.938L522.349 191.545C524.227 194.878 521.819 199 517.993 199H471.007C467.181 199 464.773 194.878 466.651 191.545L490.062 150ZM494.007 157H494.993L515.699 192H473.301L494.007 157Z" fill="black"/>
<path fill-rule="evenodd" clip-rule="evenodd" d="M230.938 150H222.063L198.651 191.545C196.773 194.878 199.181 199 203.007 199H249.993C253.819 199 256.227 194.878 254.349 191.545L230.938 150ZM226.993 157H226.007L205.301 192H247.699L226.993 157Z" fill="black"/>
<path fill-rule="evenodd" clip-rule="evenodd" d="M356.062 150H364.938L388.349 191.545C390.227 194.878 387.819 199 383.993 199H337.007C333.181 199 330.773 194.878 332.651 191.545L356.062 150ZM360.007 157H360.993L381.699 192H339.301L360.007 157Z" fill="black"/>
<path d="M613 742H620V900H613V742Z" fill="black"/>
<path d="M87 742H94V900H87V742Z" fill="black"/>
<path fill-rule="evenodd" clip-rule="evenodd" d="M370 682C358.954 682 350 690.954 350 702V722C350 733.046 358.954 742 370 742H630C641.046 742 650 733.046 650 722V702C650 690.954 641.046 682 630 682H370ZM372 689C363.716 689 357 695.716 357 704V720C357 728.284 363.716 735 372 735H628C636.284 735 643 728.284 643 720V704C643 695.716 636.284 689 628 689H372Z" fill="black"/>
<path fill-rule="evenodd" clip-rule="evenodd" d="M77 682C65.9543 682 57 690.954 57 702V722C57 733.046 65.9543 742 77 742H337C348.046 742 357 733.046 357 722V702C357 690.954 348.046 682 337 682H77ZM79 689C70.7157 689 64 695.716 64 704V720C64 728.284 70.7157 735 79 735H335C343.284 735 350 728.284 350 720V704C350 695.716 343.284 689 335 689H79Z" fill="black"/>
<path d="M87 689H94V674C94 665.716 100.716 659 109 659H597C605.284 659 612 665.716 612 674V689H619V672C619 660.954 610.046 652 599 652H107C95.9543 652 87 660.954 87 672V689Z" fill="black"/>
<path d="M361 560V553H33C24.7157 553 18 546.284 18 538V252C18 243.716 24.7157 237 33 237H361V230H31C19.9543 230 11 238.954 11 250V540C11 551.046 19.9543 560 31 560H361Z" fill="black"/>
<path d="M1006.82 334.821C1003.19 336.552 996.223 337.665 994.388 337.83C994.388 337.83 986.113 338.485 981.136 337.068C975.527 335.472 972.327 333.715 968.273 329.586C965.529 326.792 963.135 321.782 962.026 319.238C961.571 318.195 961.226 317.112 960.939 316.011L954.756 292.305C954.756 292.305 953.959 288.869 953.771 286.627C953.324 281.295 953.773 278.102 955.511 273.026C957.295 267.812 959.005 264.956 962.749 260.865C966.739 256.504 969.715 254.491 975.169 252.124C979.404 250.286 982.028 249.609 986.631 249.169C991.59 248.903 993.458 249.052 998.304 250.1C1003.16 251.258 1008.23 253.622 1012.18 256.54C1016.13 259.458 1019.04 263.068 1021.42 267.259C1023.81 271.451 1025.08 275.587 1025.5 280.352C1025.65 282.149 1025.64 284.313 1025.51 286.114L1022.74 310.281C1022.6 311.527 1022.38 312.763 1022.05 313.972C1021.26 316.846 1019.57 322.397 1017.7 325.223C1015.11 329.14 1011.17 332.751 1006.82 334.821Z" fill="black"/>
<path d="M897 472.01C897.285 470.372 910.472 423.046 928 387.012C946.5 353.512 959 339.513 1000.5 340.013C1006.5 340.085 1012.49 344.013 1015 349.512C1033 389.012 1082 532.508 1082 532.508L1096.11 546.826C1107.04 557.916 1106.76 575.811 1095.48 586.549C1095.2 586.817 1094.77 586.855 1094.45 586.641L1052.05 558.702C1051.36 558.246 1050.79 557.626 1050.4 556.897L1040.5 538.508L1044 560.508L1104 717.004L1114 857.001L1131.55 859.257C1141.53 860.54 1149 869.034 1149 879.094V881L1083 900H1049L1047.5 892.5C1044.09 892.5 1041.24 889.92 1040.9 886.531L1026.5 744.004L988 664.505L969 744.004L896 876.001L904.372 880.752C910.632 884.305 914.5 890.948 914.5 898.146V900H852L820 882L830.5 867.001C827.652 865.007 826.755 861.193 828.416 858.14L890.5 744.004L921.5 576.007L887.788 624.096C887.608 624.352 887.311 624.499 886.999 624.487C874.307 624.008 865.901 611.125 870.576 599.315L880 575.507C880 575.507 889 518.009 897 472.01Z" fill="black"/>
<path d="M1003.79 328.362C1000.87 329.809 995.256 330.724 993.778 330.857C993.778 330.857 987.112 331.382 983.097 330.173C978.572 328.81 975.987 327.319 972.707 323.828C970.55 321.533 968.653 317.477 967.719 315.279C967.292 314.274 966.971 313.231 966.703 312.172L961.694 292.378C961.694 292.378 961.041 289.481 960.882 287.592C960.505 283.098 960.857 280.41 962.24 276.14C963.662 271.753 965.03 269.352 968.034 265.918C971.235 262.258 973.626 260.572 978.014 258.595C981.421 257.06 983.533 256.499 987.241 256.143C991.236 255.935 992.742 256.066 996.651 256.964C1000.57 257.956 1004.66 259.963 1007.85 262.434C1011.05 264.906 1013.4 267.956 1015.33 271.494C1017.27 275.033 1018.31 278.522 1018.66 282.537C1018.79 284.051 1018.79 285.874 1018.69 287.391L1016.56 307.516C1016.44 308.715 1016.24 309.904 1015.93 311.07C1015.28 313.543 1013.98 318.008 1012.52 320.312C1010.45 323.603 1007.28 326.632 1003.79 328.362Z" fill="white"/>
<path d="M1129.94 865.274L1106.5 863.47L1096 716.888L1036 559.802C1021.43 412.238 1009.62 366.8 1003.52 352.84C1001.44 348.082 996.316 345.998 991.124 346C978.852 346.005 954.834 350.386 937.999 381.216C919.321 415.423 904 471.752 904 471.752L887 576.31L876.635 602.928C874.406 608.655 878.63 614.833 884.775 614.833C884.916 614.833 885.049 614.765 885.131 614.65L912.5 576.31L933 516.777L968.645 418.699C968.858 418.112 969.415 417.722 970.039 417.722C971.022 417.722 971.733 418.662 971.466 419.608L944.302 515.708C944.102 516.417 944.003 517.12 944.033 517.857C944.345 525.624 947.589 574.212 980.5 627.839C982 630.283 1035 743.403 1035 743.403L1047.88 878.436C1048.01 879.848 1048.49 881.161 1049.23 882.286C1051.56 885.815 1055.53 888.755 1056.33 892.908L1057.5 899L1139.17 875.297L1139.17 875.06C1139.07 869.906 1135.08 865.669 1129.94 865.274Z" fill="white"/>
<path d="M1010 351C1010 351 1033 434.5 1037 517C1037.17 520.507 1057.95 553.622 1057.95 553.622L1092.05 577.187C1092.31 577.371 1092.67 577.352 1092.92 577.14C1098.79 572.068 1099.51 563.223 1094.53 557.268L1075.5 534.485L1053 468L1010 351Z" fill="white"/>
<path d="M900.127 887.001L885.5 879.5L961 744C961 744 985.802 651.5 983 647C933.5 567.5 939 523.5 939 523.5L917.5 637.25L899 744L839.183 856.039Lnan nanCnan nan nan nan nan nanLnan nanCnan nan nan nan -nan -nanL839.183 856.039C836.444 861.169 838.734 869.553 835.237 874.2L832 878.5L868 899L906 900L905.519 894.951C905.196 891.555 903.163 888.558 900.127 887.001Z" fill="white"/>
</g>
<defs>
<clipPath id="clip0_871_501">
<rect width="1300" height="1000" fill="white"/>
</clipPath>
</defs>
</svg>
