<svg width="1300" height="1000" viewBox="0 0 1300 1000" fill="none" xmlns="http://www.w3.org/2000/svg">
<g clip-path="url(#clip0_871_501)">
<path d="M760 900H767V222C767 213.716 773.716 207 782 207H1238C1246.28 207 1253 213.716 1253 222V900H1260V220C1260 208.954 1251.05 200 1240 200H780C768.954 200 760 208.954 760 220V900Z" fill="black"/>
<path d="M1153 200H1160V900H1153V200Z" fill="black"/>
<path d="M858 200H865V900H858V200Z" fill="black"/>
<path d="M760 561V554H816C824.284 554 831 547.284 831 539V252C831 243.716 824.284 237 816 237H760V230H818C829.046 230 838 238.954 838 250V541C838 552.046 829.046 561 818 561H760Z" fill="black"/>
<path d="M1258 561V554H1202C1193.72 554 1187 547.284 1187 539V252C1187 243.716 1193.72 237 1202 237H1258V230H1200C1188.95 230 1180 238.954 1180 250V541C1180 552.046 1188.95 561 1200 561H1258Z" fill="black"/>
<path d="M0 900H1300V1000H0V900Z" fill="black"/>
<path d="M760 843H865V850H760V843Z" fill="black"/>
<path d="M1153 843H1260V850H1153V843Z" fill="black"/>
<path d="M360 560V553H688C696.284 553 703 546.284 703 538V252C703 243.716 696.284 237 688 237H360V230H690C701.046 230 710 238.954 710 250V540C710 551.046 701.046 560 690 560H360Z" fill="black"/>
<path d="M710 0H703V135C703 143.284 696.284 150 688 150H360V157H690C701.046 157 710 148.046 710 137V0Z" fill="black"/>
<path d="M360 150H4.99623C-1.07672 150 -5.07257 157 1.00038 157H360V150Z" fill="black"/>
<path fill-rule="evenodd" clip-rule="evenodd" d="M624.062 150H632.938L656.349 191.545C658.227 194.878 655.819 199 651.993 199H605.007C601.181 199 598.773 194.878 600.651 191.545L624.062 150ZM628.007 157H628.993L649.699 192H607.301L628.007 157Z" fill="black"/>
<path fill-rule="evenodd" clip-rule="evenodd" d="M96.9378 150H88.0625L64.6513 191.545C62.7731 194.878 65.1815 199 69.0073 199H115.993C119.819 199 122.227 194.878 120.349 191.545L96.9378 150ZM92.9931 157H92.0069L71.3012 192H113.699L92.9931 157Z" fill="black"/>
<path fill-rule="evenodd" clip-rule="evenodd" d="M490.062 150H498.938L522.349 191.545C524.227 194.878 521.819 199 517.993 199H471.007C467.181 199 464.773 194.878 466.651 191.545L490.062 150ZM494.007 157H494.993L515.699 192H473.301L494.007 157Z" fill="black"/>
<path fill-rule="evenodd" clip-rule="evenodd" d="M230.938 150H222.063L198.651 191.545C196.773 194.878 199.181 199 203.007 199H249.993C253.819 199 256.227 194.878 254.349 191.545L230.938 150ZM226.993 157H226.007L205.301 192H247.699L226.993 157Z" fill="black"/>
<path fill-rule="evenodd" clip-rule="evenodd" d="M356.062 150H364.938L388.349 191.545C390.227 194.878 387.819 199 383.993 199H337.007C333.181 199 330.773 194.878 332.651 191.545L356.062 150ZM360.007 157H360.993L381.699 192H339.301L360.007 157Z" fill="black"/>
<path d="M613 742H620V900H613V742Z" fill="black"/>
<path d="M87 742H94V900H87V742Z" fill="black"/>
<path fill-rule="evenodd" clip-rule="evenodd" d="M370 682C358.954 682 350 690.954 350 702V722C350 733.046 358.954 742 370 742H630C641.046 742 650 733.046 650 722V702C650 690.954 641.046 682 630 682H370ZM372 689C363.716 689 357 695.716 357 704V720C357 728.284 363.716 735 372 735H628C636.284 735 643 728.284 643 720V704C643 695.716 636.284 689 628 689H372Z" fill="black"/>
<path fill-rule="evenodd" clip-rule="evenodd" d="M77 682C65.9543 682 57 690.954 57 702V722C57 733.046 65.9543 742 77 742H337C348.046 742 357 733.046 357 722V702C357 690.954 348.046 682 337 682H77ZM79 689C70.7157 689 64 695.716 64 704V720C64 728.284 70.7157 735 79 735H335C343.284 735 350 728.284 350 720V704C350 695.716 343.284 689 335 689H79Z" fill="black"/>
<path d="M87 689H94V674C94 665.716 100.716 659 109 659H597C605.284 659 612 665.716 612 674V689H619V672C619 660.954 610.046 652 599 652H107C95.9543 652 87 660.954 87 672V689Z" fill="black"/>
<path d="M361 560V553H33C24.7157 553 18 546.284 18 538V252C18 243.716 24.7157 237 33 237H361V230H31C19.9543 230 11 238.954 11 250V540C11 551.046 19.9543 560 31 560H361Z" fill="black"/>
<path d="M1006.82 334.821C1003.19 336.551 996.223 337.665 994.388 337.83C994.388 337.83 986.113 338.484 981.136 337.068C975.528 335.472 972.327 333.714 968.273 329.586C965.53 326.792 963.135 321.781 962.026 319.237C961.571 318.194 961.226 317.111 960.939 316.01L954.756 292.304C954.756 292.304 953.959 288.869 953.771 286.627C953.324 281.294 953.774 278.102 955.511 273.025C957.296 267.812 959.006 264.955 962.749 260.864C966.74 256.504 969.715 254.491 975.17 252.123C979.405 250.285 982.028 249.609 986.631 249.169C991.59 248.903 993.458 249.052 998.304 250.099C1003.16 251.258 1008.23 253.621 1012.18 256.54C1016.13 259.458 1019.04 263.068 1021.42 267.259C1023.81 271.45 1025.08 275.587 1025.5 280.351C1025.65 282.148 1025.64 284.313 1025.51 286.114L1022.74 310.281C1022.6 311.527 1022.38 312.763 1022.05 313.972C1021.26 316.845 1019.57 322.397 1017.7 325.223C1015.11 329.14 1011.17 332.75 1006.82 334.821Z" fill="black"/>
<path d="M897 472.009C897.285 470.371 910.472 423.045 928 387.011C946.5 353.512 959 339.512 1000.5 340.012C1006.5 340.084 1012.49 344.012 1015 349.512C1033 389.011 1082 532.508 1082 532.508L1096.11 546.825C1107.04 557.915 1106.76 575.81 1095.48 586.548C1095.2 586.816 1094.77 586.855 1094.45 586.641L1052.05 558.701C1051.36 558.245 1050.79 557.626 1050.4 556.897L1040.5 538.507L1044 560.507L1104 717.003L1114 857L1131.55 859.257C1141.53 860.539 1149 869.034 1149 879.093V881L1083 899.999H1049L1047.5 892.5C1044.09 892.5 1041.24 889.92 1040.9 886.53L1026.5 744.003L988 664.505L969 744.003L896 876L904.372 880.751C910.632 884.304 914.5 890.947 914.5 898.145V899.999H852L820 882L830.5 867C827.652 865.007 826.755 861.192 828.416 858.139L890.5 744.003L921.5 576.007L887.788 624.095C887.608 624.351 887.311 624.498 886.999 624.487C874.307 624.008 865.901 611.124 870.576 599.314L880 575.507C880 575.507 889 518.008 897 472.009Z" fill="black"/>
<path d="M1003.79 328.362C1000.87 329.808 995.256 330.723 993.778 330.856C993.778 330.856 987.112 331.381 983.097 330.172C978.572 328.809 975.987 327.318 972.707 323.827C970.55 321.532 968.653 317.476 967.719 315.278C967.292 314.273 966.971 313.23 966.703 312.171L961.694 292.377C961.694 292.377 961.041 289.481 960.882 287.591C960.505 283.098 960.857 280.409 962.24 276.139C963.662 271.753 965.03 269.352 968.034 265.918C971.235 262.257 973.626 260.571 978.014 258.594C981.421 257.059 983.533 256.498 987.241 256.142C991.236 255.934 992.742 256.065 996.651 256.964C1000.57 257.955 1004.66 259.962 1007.85 262.434C1011.05 264.905 1013.4 267.955 1015.33 271.494C1017.27 275.032 1018.31 278.521 1018.66 282.536C1018.79 284.05 1018.79 285.874 1018.69 287.391L1016.56 307.515C1016.44 308.714 1016.24 309.903 1015.93 311.069C1015.28 313.542 1013.98 318.008 1012.52 320.311C1010.45 323.603 1007.28 326.632 1003.79 328.362Z" fill="white"/>
<path d="M1129.94 865.273L1106.5 863.469L1096 716.888L1036 559.801C1021.43 412.237 1009.62 366.799 1003.52 352.839C1001.44 348.081 996.316 345.997 991.124 345.999C978.852 346.004 954.834 350.385 937.999 381.216C919.321 415.422 904 471.751 904 471.751L887 576.31L876.635 602.928C874.406 608.654 878.63 614.832 884.775 614.832C884.916 614.832 885.049 614.764 885.131 614.649L912.5 576.31L933 516.777L968.645 418.698C968.858 418.112 969.415 417.721 970.039 417.721C971.022 417.721 971.733 418.661 971.466 419.608L944.302 515.707C944.102 516.416 944.003 517.12 944.033 517.856C944.345 525.624 947.589 574.211 980.5 627.838C982 630.282 1035 743.402 1035 743.402L1047.88 878.435C1048.24 882.285 1051.18 885.394 1055 885.982L1057.5 898.999L1139.17 875.296L1139.17 875.059C1139.07 869.905 1135.08 865.669 1129.94 865.273Z" fill="white"/>
<path d="M1010 350.999C1010 350.999 1033 434.499 1037 516.999C1037.17 520.506 1057.95 553.621 1057.95 553.621L1092.05 577.186C1092.31 577.37 1092.67 577.351 1092.92 577.14C1098.79 572.067 1099.51 563.222 1094.53 557.267L1075.5 534.484L1053 467.999L1010 350.999Z" fill="white"/>
<path d="M900.127 887L885.5 879.499L961 743.999C961 743.999 985.802 651.499 983 646.999C933.5 567.499 939 523.499 939 523.499L917.5 637.249L899 743.999L839.183 856.038C837.395 859.387 838.523 863.549 841.758 865.536L832 878.499L868 898.999L906 899.999L905.519 894.95C905.196 891.554 903.163 888.557 900.127 887Z" fill="white"/>
</g>
<defs>
<clipPath id="clip0_871_501">
<rect width="1300" height="1000" fill="white"/>
</clipPath>
</defs>
</svg>
