<svg width="1300" height="1000" fill="none" xmlns="http://www.w3.org/2000/svg"><path d="M1300 100H0v7h1300v-7Z" fill="#000"/><path fill-rule="evenodd" clip-rule="evenodd" d="M400 850v50H0v100h1300V900H900v-50h400v-7H900V220c0-11.046-8.954-20-20-20H420c-11.046 0-20 8.954-20 20v623H0v7h400Zm7-7V560h51c11.046 0 20-8.954 20-20V250c0-11.046-8.954-20-20-20h-51v-8c0-8.284 6.716-15 15-15h76v636h-91Zm486-283v283h-93V207h78c8.284 0 15 6.716 15 15v8h-53c-11.046 0-20 8.954-20 20v290c0 11.046 8.954 20 20 20h53Zm0 290h-93v50h93v-50Zm-100 50H505V207h288v693Zm-386-50h91v50h-91v-50Zm486-297V237h-51c-8.284 0-15 6.716-15 15v286c0 8.284 6.716 15 15 15h51Zm-437 0h-49V237h49c8.284 0 15 6.716 15 15v286c0 8.284-6.716 15-15 15Z" fill="#000"/><path d="M0 560v-7h328c8.284 0 15-6.716 15-15V252c0-8.284-6.716-15-15-15H0v-7h330c11.046 0 20 8.954 20 20v290c0 11.046-8.954 20-20 20H0Zm1300-7v7H970c-11.046 0-20-8.954-20-20V250c0-11.046 8.954-20 20-20h330v7H972c-8.284 0-15 6.716-15 15v286c0 8.284 6.716 15 15 15h328Z" fill="#000"/></svg>