<svg width="1300" height="1000" viewBox="0 0 1300 1000" fill="none" xmlns="http://www.w3.org/2000/svg"><g clip-path="url(#a)" fill="#000"><path fill-rule="evenodd" clip-rule="evenodd" d="M957 0h-7v80c0 11.046 8.954 20 20 20h54.12l-19.47 34.545c-1.88 3.333.53 7.455 4.36 7.455h46.98c3.83 0 6.24-4.122 4.36-7.455L1040.88 100h95.24l-19.47 34.545c-1.88 3.333.53 7.455 4.36 7.455h46.98c3.83 0 6.24-4.122 4.36-7.455L1152.88 100h95.24l-19.47 34.545c-1.88 3.333.53 7.455 4.36 7.455h46.98c3.83 0 6.24-4.122 4.36-7.455L1264.88 100H1300v-7H972c-8.284 0-15-6.716-15-15V0Zm75.99 100h-.98l-20.71 35h42.4l-20.71-35Zm90.31 35 20.71-35h.98l20.71 35h-42.4Zm133.69-35h-.98l-20.71 35h42.4l-20.71-35ZM672.388 337.83c1.835-.165 8.802-1.278 12.434-3.009 4.345-2.07 8.287-5.681 10.881-9.598 1.871-2.826 3.555-8.377 4.348-11.251.334-1.209.551-2.445.694-3.691l2.768-24.167c.13-1.801.141-3.965-.016-5.762-.419-4.765-1.691-8.901-4.075-13.093-2.385-4.191-5.288-7.801-9.24-10.719-3.952-2.918-9.017-5.282-13.877-6.44-4.847-1.048-6.715-1.197-11.673-.931-4.604.44-7.227 1.117-11.462 2.955-5.455 2.367-8.43 4.38-12.421 8.741-3.743 4.091-5.453 6.947-7.238 12.161-1.737 5.076-2.187 8.269-1.74 13.601.188 2.242.985 5.678.985 5.678l6.183 23.705c.287 1.102.633 2.185 1.087 3.228 1.109 2.543 3.504 7.554 6.247 10.348 4.054 4.129 7.255 5.886 12.864 7.482 4.976 1.417 13.251.762 13.251.762Zm-.61-6.973c1.479-.133 7.089-1.049 10.01-2.495 3.494-1.73 6.66-4.759 8.737-8.05 1.454-2.304 2.758-6.77 3.41-9.242.307-1.166.502-2.355.629-3.555l2.129-20.124c.099-1.517.101-3.34-.031-4.854-.353-4.016-1.392-7.504-3.327-11.043-1.935-3.538-4.286-6.589-7.48-9.06-3.194-2.471-7.284-4.478-11.204-5.47-3.909-.898-5.414-1.03-9.409-.822-3.709.357-5.82.918-9.227 2.453-4.388 1.976-6.779 3.662-9.981 7.323-3.003 3.434-4.372 5.835-5.793 10.221-1.384 4.271-1.736 6.959-1.359 11.453.159 1.889.813 4.786.813 4.786l5.009 19.794c.268 1.059.589 2.101 1.016 3.107.933 2.198 2.831 6.254 4.987 8.549 3.28 3.491 5.865 4.982 10.39 6.344 4.015 1.209 10.681.685 10.681.685Z"/><path fill-rule="evenodd" clip-rule="evenodd" d="M400 900V220c0-11.046 8.954-20 20-20h460c11.046 0 20 8.954 20 20v680h80V720h-10c-11.046 0-20-8.954-20-20v-20c0-11.046 8.954-20 20-20h10v-10c0-11.046 8.954-20 20-20h300v7h-298c-8.284 0-15 6.716-15 15v8h243c6.85 0 12.9 3.444 16.5 8.694 3.6-5.25 9.65-8.694 16.5-8.694h37v7h-35c-8.28 0-15 6.716-15 15v16c0 8.284 6.72 15 15 15h35v7h-37c-6.85 0-12.9-3.444-16.5-8.694-3.6 5.25-9.65 8.694-16.5 8.694H987v180h313v100H0V900h313V720H70c-6.85 0-12.895-3.444-16.5-8.694C49.895 716.556 43.85 720 37 720H0v-7h35c8.284 0 15-6.716 15-15v-16c0-8.284-6.716-15-15-15H0v-7h37c6.85 0 12.895 3.444 16.5 8.694C57.105 663.444 63.15 660 70 660h243v-8c0-8.284-6.716-15-15-15H0v-7h300c11.046 0 20 8.954 20 20v10h10c11.046 0 20 8.954 20 20v20c0 11.046-8.954 20-20 20h-10v180h80Zm493-57V561h-53c-11.046 0-20-8.954-20-20V250c0-11.046 8.954-20 20-20h53v-8c0-8.284-6.716-15-15-15h-78v636h93Zm-93 7h93v50h-93v-11.227l27-7.772v-1.907c0-10.059-7.472-18.554-17.45-19.836L800 858.03V850Zm-7-643H505v665.001l3.5-5a6.831 6.831 0 0 1-2.084-8.861L568.5 744.004l31-167.996-33.712 48.088a.925.925 0 0 1-.789.392c-12.692-.479-21.098-13.363-16.423-25.173L558 575.508s9-57.499 17-103.498c.285-1.638 13.472-48.964 31-84.998 18.5-33.499 31-47.499 72.5-46.999 6 .072 11.994 4 14.5 9.5 18 39.499 67 182.996 67 182.996l14.111 14.317c10.929 11.09 10.645 28.985-.63 39.723a.836.836 0 0 1-1.036.093l-42.392-27.94a5.016 5.016 0 0 1-1.651-1.804l-9.902-18.39 3.5 22 60 156.496 10 139.997 1 .129V207ZM407 900v-50h91v50h-91Zm0-57h91V207h-76c-8.284 0-15 6.716-15 15v8h51c11.046 0 20 8.954 20 20v291c0 11.046-8.954 20-20 20h-51v282Zm836-145v-16c0-8.284-6.72-15-15-15H972c-8.284 0-15 6.716-15 15v16c0 8.284 6.716 15 15 15h256c8.28 0 15-6.716 15-15ZM72 713c-8.284 0-15-6.716-15-15v-16c0-8.284 6.716-15 15-15h256c8.284 0 15 6.716 15 15v16c0 8.284-6.716 15-15 15H72Zm721 177.788V900h-32l32-9.212Zm-67.5 1.712 1.5 7.5H592.5v-1.854a20 20 0 0 0-10.128-17.394L574 876.001l73-131.997 19-79.498 38.5 79.498 14.397 142.527a6.636 6.636 0 0 0 6.603 5.969Zm-141.981 2.451L584 900l-38-1-36-20.5 9.758-12.963a7.178 7.178 0 0 1-2.575-9.498L577 744l18.5-106.75L617 523.5s-5.5 44 44 123.5c2.802 4.5-22 97-22 97l-75.5 135.5 14.627 7.501a10 10 0 0 1 5.392 7.95ZM530 900h-25v-14.062L530 900Zm363-663h-51c-8.284 0-15 6.716-15 15v287c0 8.284 6.716 15 15 15h51V237ZM407 554V237h49c8.284 0 15 6.716 15 15v287c0 8.284-6.716 15-15 15h-49Zm377.5 309.47 23.437 1.804a10 10 0 0 1 9.231 9.786l.004.237L735.5 899l-2.5-13.017a8.447 8.447 0 0 1-7.124-7.547L713 743.403s-53-113.12-54.5-115.564c-32.911-53.627-36.155-102.215-36.467-109.982-.03-.736.069-1.44.269-2.149l27.164-96.099a1.484 1.484 0 0 0-2.821-.91L611 516.777l-20.5 59.534-27.369 38.339a.437.437 0 0 1-.356.183c-6.145 0-10.369-6.178-8.14-11.904L565 576.311l17-104.559s15.321-56.329 33.999-90.535c16.835-30.831 40.853-35.212 53.125-35.217 5.192-.002 10.313 2.082 12.393 6.84 6.104 13.96 17.916 59.398 32.483 206.962l60 157.087 10.5 146.581ZM688 351s23 83.5 27 166c.17 3.507 20.95 36.622 20.95 36.622l34.098 23.565a.71.71 0 0 0 .868-.046c5.873-5.073 6.593-13.918 1.618-19.873L753.5 534.485 731 468l-43-117Z"/><path d="M0 553v7h330c11.046 0 20-8.954 20-20V250c0-11.046-8.954-20-20-20H0v7h328c8.284 0 15 6.716 15 15v286c0 8.284-6.716 15-15 15H0Zm1300 7v-7H972c-8.284 0-15-6.716-15-15V252c0-8.284 6.716-15 15-15h328v-7H970c-11.046 0-20 8.954-20 20v290c0 11.046 8.954 20 20 20h330Z"/><path fill-rule="evenodd" clip-rule="evenodd" d="M350 0h-7v78c0 8.284-6.716 15-15 15H0v7h35.118L15.65 134.545c-1.878 3.333.53 7.455 4.356 7.455h46.986c3.826 0 6.234-4.122 4.356-7.455L51.882 100h95.236l-19.467 34.545c-1.878 3.333.53 7.455 4.356 7.455h46.986c3.826 0 6.234-4.122 4.356-7.455L163.882 100h95.236l-19.467 34.545c-1.878 3.333.53 7.455 4.356 7.455h46.986c3.826 0 6.234-4.122 4.356-7.455L275.882 100H330c11.046 0 20-8.954 20-20V0ZM22.301 135l20.706-35h.986L64.7 135H22.3Zm133.692-35h-.986l-20.706 35h42.398l-20.706-35Zm90.308 35 20.706-35h.986l20.706 35h-42.398Z"/></g><defs><clipPath id="a"><path fill="#fff" d="M0 0h1300v1000H0z"/></clipPath></defs></svg>