<svg width="1300" height="1000" viewBox="0 0 1300 1000" fill="none" xmlns="http://www.w3.org/2000/svg"><g clip-path="url(#a)" fill="#000"><path fill-rule="evenodd" clip-rule="evenodd" d="M950 0h7v78c0 8.284 6.716 15 15 15h328v7h-35.12l19.47 34.545c1.88 3.333-.53 7.455-4.36 7.455h-46.98c-3.83 0-6.24-4.122-4.36-7.455L1248.12 100h-95.24l19.47 34.545c1.88 3.333-.53 7.455-4.36 7.455h-46.98c-3.83 0-6.24-4.122-4.36-7.455L1136.12 100h-95.24l19.47 34.545c1.88 3.333-.53 7.455-4.36 7.455h-46.98c-3.83 0-6.24-4.122-4.36-7.455L1024.12 100H970c-11.046 0-20-8.954-20-20V0Zm82.01 100h.98l20.71 35h-42.4l20.71-35Zm112 0-20.71 35h42.4l-20.71-35h-.98Zm112 0h.98l20.71 35h-42.4l20.71-35ZM400 900h-80V720h10c11.046 0 20-8.954 20-20v-20c0-11.046-8.954-20-20-20h-10v-10c0-11.046-8.954-20-20-20H0v7h298c8.284 0 15 6.716 15 15v8H70c-6.85 0-12.895 3.444-16.5 8.694C49.895 663.444 43.85 660 37 660H0v7h35c8.284 0 15 6.716 15 15v16c0 8.284-6.716 15-15 15H0v7h37c6.85 0 12.895-3.444 16.5-8.694C57.105 716.556 63.15 720 70 720h243v180H0v100h1300V900H987V720h243c6.85 0 12.9-3.444 16.5-8.694 3.6 5.25 9.65 8.694 16.5 8.694h37v-7h-35c-8.28 0-15-6.716-15-15v-16c0-8.284 6.72-15 15-15h35v-7h-37c-6.85 0-12.9 3.444-16.5 8.694-3.6-5.25-9.65-8.694-16.5-8.694H987v-8c0-8.284 6.716-15 15-15h298v-7h-300c-11.046 0-20 8.954-20 20v10h-10c-11.046 0-20 8.954-20 20v20c0 11.046 8.954 20 20 20h10v180h-80V220c0-11.046-8.954-20-20-20H420c-11.046 0-20 8.954-20 20v680Zm7-339v282h91V207h-76c-8.284 0-15 6.716-15 15v8h51c11.046 0 20 8.954 20 20v291c0 11.046-8.954 20-20 20h-51Zm486 282V561h-53c-11.046 0-20-8.954-20-20V250c0-11.046 8.954-20 20-20h53v-8c0-8.284-6.716-15-15-15h-78v636h93ZM793 207H505v693h288V207Zm7 643h93v50h-93v-50Zm-302 0h-91v50h91v-50Zm745-152v-16c0-8.284-6.72-15-15-15H972c-8.284 0-15 6.716-15 15v16c0 8.284 6.716 15 15 15h256c8.28 0 15-6.716 15-15ZM72 667c-8.284 0-15 6.716-15 15v16c0 8.284 6.716 15 15 15h256c8.284 0 15-6.716 15-15v-16c0-8.284-6.716-15-15-15H72Zm821-430v317h-51c-8.284 0-15-6.716-15-15V252c0-8.284 6.716-15 15-15h51ZM407 554h49c8.284 0 15-6.716 15-15V252c0-8.284-6.716-15-15-15h-49v317Z"/><path d="M0 560v-7h328c8.284 0 15-6.716 15-15V252c0-8.284-6.716-15-15-15H0v-7h330c11.046 0 20 8.954 20 20v290c0 11.046-8.954 20-20 20H0Zm1300-7v7H970c-11.046 0-20-8.954-20-20V250c0-11.046 8.954-20 20-20h330v7H972c-8.284 0-15 6.716-15 15v286c0 8.284 6.716 15 15 15h328Z"/><path fill-rule="evenodd" clip-rule="evenodd" d="M343 0h7v80c0 11.046-8.954 20-20 20h-54.118l19.467 34.545c1.878 3.333-.53 7.455-4.356 7.455h-46.986c-3.826 0-6.234-4.122-4.356-7.455L259.118 100h-95.236l19.467 34.545c1.878 3.333-.53 7.455-4.356 7.455h-46.986c-3.826 0-6.234-4.122-4.356-7.455L147.118 100H51.882l19.467 34.545c1.878 3.333-.53 7.455-4.356 7.455H20.007c-3.826 0-6.234-4.122-4.356-7.455L35.118 100H0v-7h328c8.284 0 15-6.716 15-15V0ZM43.007 100 22.3 135h42.4l-20.706-35h-.986Zm112 0h.986l20.706 35h-42.398l20.706-35Zm112 0-20.706 35h42.398l-20.706-35h-.986Z"/></g><defs><clipPath id="a"><path fill="#fff" d="M0 0h1300v1000H0z"/></clipPath></defs></svg>