<svg width="1300" height="1000" viewBox="0 0 1300 1000" fill="none" xmlns="http://www.w3.org/2000/svg"><path d="M1300 100H0v7h1300v-7Z" fill="#000"/><path fill-rule="evenodd" clip-rule="evenodd" d="M400 843H0v7h400v50H0v100h1300V900H900v-50h400v-7H900V220c0-11.046-8.954-20-20-20H420c-11.046 0-20 8.954-20 20v623Zm7 57v-50h240v50H407Zm0-57h240V207H422c-8.284 0-15 6.716-15 15v8h200c11.046 0 20 8.954 20 20v290c0 11.046-8.954 20-20 20H407v283Zm247 57v-50h239v50H654Zm0-57h239V560H694c-11.046 0-20-8.954-20-20V250c0-11.046 8.954-20 20-20h199v-8c0-8.284-6.716-15-15-15H654v636Zm42-606h197v316H696c-8.284 0-15-6.716-15-15V252c0-8.284 6.716-15 15-15Zm-289 0v316h198c8.284 0 15-6.716 15-15V252c0-8.284-6.716-15-15-15H407Z" fill="#000"/><path d="M0 560v-7h328c8.284 0 15-6.716 15-15V252c0-8.284-6.716-15-15-15H0v-7h330c11.046 0 20 8.954 20 20v290c0 11.046-8.954 20-20 20H0Zm1300-7v7H970c-11.046 0-20-8.954-20-20V250c0-11.046 8.954-20 20-20h330v7H972c-8.284 0-15 6.716-15 15v286c0 8.284 6.716 15 15 15h328Z" fill="#000"/></svg>