<svg width="1300" height="1000" viewBox="0 0 1300 1000" fill="none" xmlns="http://www.w3.org/2000/svg"><path d="M1300 100H0v7h1300v-7Z" fill="#000"/><path fill-rule="evenodd" clip-rule="evenodd" d="M672.388 337.83c1.835-.165 8.802-1.278 12.434-3.009 4.345-2.07 8.287-5.681 10.881-9.598 1.871-2.826 3.555-8.377 4.348-11.251.334-1.209.551-2.445.694-3.691l2.768-24.167c.13-1.801.141-3.965-.016-5.762-.419-4.765-1.691-8.901-4.075-13.093-2.385-4.191-5.288-7.801-9.24-10.719-3.952-2.918-9.017-5.282-13.877-6.44-4.847-1.048-6.715-1.197-11.673-.931-4.604.44-7.227 1.117-11.462 2.955-5.455 2.367-8.43 4.38-12.421 8.741-3.743 4.091-5.453 6.947-7.238 12.161-1.737 5.076-2.187 8.269-1.74 13.601.188 2.242.985 5.678.985 5.678l6.183 23.705c.287 1.102.633 2.185 1.087 3.228 1.109 2.543 3.504 7.554 6.247 10.348 4.054 4.129 7.255 5.886 12.864 7.482 4.976 1.417 13.251.762 13.251.762Zm-.61-6.973c1.479-.133 7.089-1.049 10.01-2.495 3.494-1.73 6.66-4.759 8.737-8.05 1.454-2.304 2.758-6.77 3.41-9.242.307-1.166.502-2.355.629-3.555l2.129-20.124c.099-1.517.101-3.34-.031-4.854-.353-4.016-1.392-7.504-3.327-11.043-1.935-3.538-4.286-6.589-7.48-9.06-3.194-2.471-7.284-4.478-11.204-5.47-3.909-.898-5.414-1.03-9.409-.822-3.709.357-5.82.918-9.227 2.453-4.388 1.976-6.779 3.662-9.981 7.323-3.003 3.434-4.372 5.835-5.793 10.221-1.384 4.271-1.736 6.959-1.359 11.453.159 1.889.813 4.786.813 4.786l5.009 19.794c.268 1.059.589 2.101 1.016 3.107.933 2.198 2.831 6.254 4.987 8.549 3.28 3.491 5.865 4.982 10.39 6.344 4.015 1.209 10.681.685 10.681.685Z" fill="#000"/><path fill-rule="evenodd" clip-rule="evenodd" d="M400 843V220c0-11.046 8.954-20 20-20h460c11.046 0 20 8.954 20 20v623h400v7H900v50h400v100H0V900h400v-50H0v-7h400Zm105-636h288v650.13l-1-.129-10-139.997-60-156.496-3.5-22 9.902 18.39c.393.728.96 1.348 1.651 1.804l42.392 27.94a.836.836 0 0 0 1.036-.093c11.275-10.738 11.559-28.633.63-39.723L760 532.509s-49-143.497-67-182.996c-2.506-5.5-8.5-9.428-14.5-9.5-41.5-.5-54 13.5-72.5 46.999-17.528 36.034-30.715 83.36-31 84.998-8 45.999-17 103.498-17 103.498l-9.424 23.807c-4.675 11.81 3.731 24.694 16.423 25.173a.925.925 0 0 0 .789-.392l33.712-48.088-31 167.996-62.084 114.136a6.831 6.831 0 0 0 2.084 8.861l-3.5 5V207Zm295 651.03V850h93v50h-93v-11.227l27-7.772v-1.907c0-10.059-7.472-18.554-17.45-19.836L800 858.03Zm-7 32.758L761 900h32v-9.212ZM800 207v636h93V560h-53c-11.046 0-20-8.954-20-20V250c0-11.046 8.954-20 20-20h53v-8c0-8.284-6.716-15-15-15h-78ZM498 850h-91v50h91v-50Zm7 35.938L530 900h-25v-14.062ZM584 900l-38-1-36-20.5 9.758-12.963a7.178 7.178 0 0 1-2.575-9.498L577 744l18.5-106.75L617 523.5s-5.5 44 44 123.5c2.802 4.5-22 97-22 97l-75.5 135.5 14.627 7.501a10 10 0 0 1 5.392 7.95L584 900Zm143 0-1.5-7.5a6.636 6.636 0 0 1-6.603-5.969L704.5 744.004 666 664.506l-19 79.498-73 131.997 8.372 4.751a20 20 0 0 1 10.128 17.394V900H727Zm-229-57h-91V560h51c11.046 0 20-8.954 20-20V250c0-11.046-8.954-20-20-20h-51v-8c0-8.284 6.716-15 15-15h76v636Zm395-606h-51c-8.284 0-15 6.716-15 15v286c0 8.284 6.716 15 15 15h51V237ZM407 553V237h49c8.284 0 15 6.716 15 15v286c0 8.284-6.716 15-15 15h-49Zm400.937 312.274L784.5 863.47 774 716.889l-60-157.087C699.433 412.238 687.621 366.8 681.517 352.84c-2.08-4.758-7.201-6.842-12.393-6.84-12.272.005-36.29 4.386-53.125 35.217C597.321 415.423 582 471.752 582 471.752l-17 104.559-10.365 26.618c-2.229 5.726 1.995 11.904 8.14 11.904a.437.437 0 0 0 .356-.183l27.369-38.339 20.5-59.534 35.645-98.078a1.484 1.484 0 0 1 2.821.91l-27.164 96.099a6.795 6.795 0 0 0-.269 2.149c.312 7.767 3.556 56.355 36.467 109.982 1.5 2.444 54.5 115.564 54.5 115.564l12.876 135.033a8.447 8.447 0 0 0 7.124 7.547L735.5 899l81.672-23.703-.004-.237a10 10 0 0 0-9.231-9.786ZM715 517c-4-82.5-27-166-27-166l43 117 22.5 66.485 19.034 22.783c4.975 5.955 4.255 14.8-1.618 19.873a.71.71 0 0 1-.868.046l-34.098-23.565S715.17 520.507 715 517Z" fill="#000"/><path d="M0 560v-7h328c8.284 0 15-6.716 15-15V252c0-8.284-6.716-15-15-15H0v-7h330c11.046 0 20 8.954 20 20v290c0 11.046-8.954 20-20 20H0Zm1300-7v7H970c-11.046 0-20-8.954-20-20V250c0-11.046 8.954-20 20-20h330v7H972c-8.284 0-15 6.716-15 15v286c0 8.284 6.716 15 15 15h328Z" fill="#000"/></svg>