<svg id="Capa_1" data-name="Capa 1" xmlns="http://www.w3.org/2000/svg" viewBox="0 0 1300 1000"><defs><style>.cls-1,.cls-2,.cls-5,.cls-6{fill:#fff;}.cls-1,.cls-4,.cls-5,.cls-6,.cls-7{stroke:#262626;}.cls-1,.cls-6,.cls-7{stroke-miterlimit:10;}.cls-1,.cls-4,.cls-5,.cls-7{stroke-width:10px;}.cls-3{fill:#262626;}.cls-4,.cls-7{fill:none;}.cls-4,.cls-5{stroke-linecap:round;stroke-linejoin:round;}.cls-6{stroke-width:9.94px;}</style></defs><title>ticket-office--wait</title><path class="cls-1" d="M802,538.08,479.25,536.8c-14.52,0-26.3,10.66-26.3,23.81V817.72c0,13.15,11.78,23.81,26.3,23.81L802,843Z"/><path class="cls-1" d="M5,842.67l401.25.49c14.52,0,26.29-10.69,26.29-23.88V561.38c0-13.19-11.77-23.89-26.29-23.89L5,537Z"/><path class="cls-1" d="M433.11,905h20V546.44c0-5.21-4.48-9.43-10-9.43h0c-5.52,0-10,4.22-10,9.43Z"/><path class="cls-1" d="M793.25,906.09l501.75-.9v-832l-476.75.9a25,25,0,0,0-25,25Z"/><path class="cls-2" d="M1166.44,978.53l.13-31.4-12.44,0-18.94-258-21.37,258-12.62,0,.32,31.4H1028.9V965.8l21.56-18.65h-4.87l28.12-325.5h-13.26v-.08l-25,.13,7.26-111.37c.08-1.29,2-32.54,13.84-64.46,16.08-43.43,42.78-66.6,77.23-67h.93c34.15,0,60.52,22.59,76.26,65.34,11.56,31.38,13.35,62.23,13.42,63.53l7.05,113.74-23.63.14L1206,612.2l1.48,9.44-13.27,0,28.13,325.49h-1.63l18.06,19,.42,12.34Z"/><path class="cls-3" d="M1134.7,383.86c77.93,0,84.67,124.14,84.67,124.14l6.73,108.51-14.17.08-20.79-110.23-17.77-70.84,28.28,181.13-12.88,0,28.12,325.48h-7.8l24.76,26.11.18,5.27h-62.57l.13-31.41-12.82,0L1135.49,625l-26.27,317.14-13.07,0,.32,31.41H1033.9v-5.44l30-26H1051l28.12-325.5h-12.88l28-179.9L1076,507.34,1056.6,616.59l-15.83.08,6.91-106s7.39-125.85,86.14-126.79h.88m0-10h-1c-36.7.44-65,24.74-81.86,70.28-12,32.3-14,64-14.14,65.88l-6.91,106-.7,10.71,10.73-.06,13.8-.07v0h13.65l-27.19,314.64-.68,8-13,11.28-3.46,3v20h82.68l-.11-10.11-.22-21.28h3l9.22,0,.76-9.2,15.71-189.58,13.91,189.49.68,9.29,9.32,0h2.75l-.09,21.35,0,10h82.95l-.35-10.34-.18-5.27-.12-3.79-2.62-2.76-13.76-14.51-.48-5.57-27.19-314.64h2l11.66,0v0l12.84-.07,10.57-.07-.65-10.55-6.72-108.46c-.1-1.76-2-33.11-13.71-64.95-16.53-44.9-44.52-68.62-80.94-68.62Z"/><line class="cls-1" x1="1073.79" y1="621.66" x2="1194.04" y2="621.66"/><polyline class="cls-4" points="1114.56 384.73 1134.14 426.27 1153.38 384.73"/><line class="cls-5" x1="1134.14" y1="426.27" x2="1134.14" y2="618.72"/><ellipse class="cls-6" cx="1132.97" cy="337.14" rx="23.5" ry="29"/><rect class="cls-3" x="1142.61" y="432.28" width="22.81" height="13.31" rx="2"/><rect class="cls-2" x="1017.03" y="510.09" width="257.98" height="389.91"/><path class="cls-7" d="M1064.29,507.49a75,75,0,0,0-150,0"/><path class="cls-7" d="M863.32,504.18l431.68,1V114.1l-431.68-1a25,25,0,0,0-25,25V479.18A25,25,0,0,0,863.32,504.18Z"/><rect class="cls-3" y="900" width="1300" height="100"/></svg>