<svg id="Capa_1" data-name="Capa 1" xmlns="http://www.w3.org/2000/svg" viewBox="0 0 1300 1000"><defs><style>.cls-1{fill:#fff;}</style></defs><title>2-landmarks-expand</title><path d="M1263.62,636.88h0l0-.1-13.27-24.15-3.74-6.78-3-5.38,0-.07-.06-.1,2,0,1,0,.74,0,.33-1.75,2.78-15.39,1.63-9,4.27-24.4,4.29-24.42,2.14-12.2c.17-1,.35-2,.52-3.07a21.33,21.33,0,0,0-1-10.1l-.14-.38.1.32-29.61-85.61a43.28,43.28,0,0,0-3.38-6.65,41.27,41.27,0,0,0-2.58-3.69,48.28,48.28,0,0,0-4-4.5l0,0c-.27-.28-.52-.52-.78-.76l-.23-.22-.51-.49-.58-.53c-.37-.36-.76-.67-1.14-1l0,0c-.38-.33-.76-.65-1.15-1a73.27,73.27,0,0,0-9.89-6.5c-.68-.38-1.35-.74-2-1.1l-1.28-.65a.82.82,0,0,0-.2-.12,101.54,101.54,0,0,0-15.76-6.25,129.24,129.24,0,0,0-72.72,0,101.82,101.82,0,0,0-15.75,6.25l-.21.12c-.43.21-.86.43-1.27.65-.69.36-1.36.72-2,1.1a73.27,73.27,0,0,0-9.89,6.5c-.39.3-.77.62-1.16,1s-.75.64-1.14,1l-.57.53-.51.49c-.35.33-.69.64-1,1a48.33,48.33,0,0,0-4,4.49c-.8,1-1.56,2.1-2.26,3.22a4.21,4.21,0,0,0-.28.41l-.09.15c-.22.36-.44.71-.64,1.08a1.4,1.4,0,0,0-.1.16l-.61,1.07c-.37.68-.8,1.47-1.09,2.12l-1,2-6.91,14.6-.83,1.76-13.73,29-37.84-42.51-6-18.89-.25-.74-.75-.62-28.09-23h0L976.06,372l0,0-2.55,1.75-10.64,7.34-2.72,1.9,1.27,3.07,13.89,33.56.36.86.58.45,15.74,12-.05,0-.83.7-.54.46-1.23,1h0l1.43,1.93q12.36,16.74,24.66,33.51l12.28,16.81,6.14,8.39,3.07,4.19,1.54,2.1.76,1.05c.29.36.65.8,1,1.14a20.53,20.53,0,0,0,1.77,1.72,21.3,21.3,0,0,0,5.7,3.55,19.53,19.53,0,0,0,2.26.8,21.3,21.3,0,0,0,5.71.87,20.36,20.36,0,0,0,5.76-.66,21.61,21.61,0,0,0,10-5.72,21.38,21.38,0,0,0,3.48-4.62l2.57-4.52,7.59-13.4,2.65-4.69c2.79-4.92,5.62-9.8,8.44-14.69l.79-1.35.21,11.92V474l1.19,50.9V525l-10.34,77h0v.28l-2.3,38.48-1.15,19.3-.28,4.82c0,.36,0,.73-.05,1.09,0,1.21-.06,2.41-.11,3.62l-.3,9.65-.74,23.12-.5,15.62-.41,14.45-.67,24-.54,19.31c0,.53,0,1.05,0,1.58l0,1.4c0,2.23,0,4.45-.07,6.67l-.08,9.66-.32,32.8-.06,6-.09,10.67L1080,860.4h5q.08-4,.17-7.95.19-9.26.37-18.5l.25-12.51.53-26.24.2-9.65c.06-2.42.08-4.82.15-7.24,0-.33,0-.67,0-1s0-.93,0-1.4l.39-10,.35-9.17v-.13l2.92-77.11c0-.32,0-.65,0-1,.08-2.88.18-5.77.32-8.66q.15-3.4.35-6.81c.1-2,.22-3.93.34-5.9.31-5.36.65-10.71,1-16.06,0-.58.07-1.15.1-1.73.13-2,.24-4,.35-6q.33-5.76.62-11.53l.91-17.29.09-1.8,2.34-19.2L1099,564.2l2.09-19.37,2.24-19.35,0-.3V525l-.5-16.77c-.08-2.82-.17-5.64-.25-8.45s-.15-5.6-.21-8.39l-.4-16.76-.29-16.77-.06-3.1v0H1093l-23.25,43.76,0,.06a16.26,16.26,0,0,1-2.13,2.69,16.47,16.47,0,0,1-7.54,4.44,16.13,16.13,0,0,1-8.77-.12,17.14,17.14,0,0,1-3.41-1.45,16.57,16.57,0,0,1-4-3.22c-.26-.29-.43-.5-.69-.81l0-.07-.71-1-1.54-2.1-3.05-4.2-6.11-8.4-12.22-16.8-23-31.55,0,0,1.16-1.07,2.39-2.16-2.54-2.08h0L996,429.35l-15.28-12.52-10.33-29.61,5.53-4.15,0,0,25.94,18.38,7.94,17.4.18.39.18.19h0L1050,466l2.51,2.94,1.82-3.53h0l2.3-4.26,14.83-27.5,8.56-15.89,1.06-1.94.27-.5v0l.24-.42.44-.75,0,0,0-.07c.37-.63.78-1.22,1.2-1.81l.07-.11c.66-1,1.37-1.9,2.14-2.82a38.74,38.74,0,0,1,3.36-3.54l1-.89.5-.45.42-.37.67-.54.2-.14v0c.38-.31.79-.62,1.21-.93,1.06-.8,2.19-1.56,3.33-2.29a69.4,69.4,0,0,1,7.24-4,90.33,90.33,0,0,1,15.71-5.7,113.35,113.35,0,0,1,28.18-3.54H1158a113.43,113.43,0,0,1,28.19,3.54,90.23,90.23,0,0,1,15.7,5.7,68.4,68.4,0,0,1,7.24,4c.87.55,1.74,1.13,2.56,1.73l.8.59c.41.29.82.6,1.18.9l0,0,.19.13,0,0,.34.28.29.23.43.37,0,0,.46.42.25.23,0,0,.72.63c.31.29.62.59.91.89.87.85,1.69,1.75,2.48,2.69a34.7,34.7,0,0,1,4.07,6l.54,1,0,.08c.17.35.33.7.49,1.06.09.18.17.37.25.55l0,0c.07.17.14.35.2.52l.23.58.25.63,1,2.62,2,5.25,4,10.5,7.94,21c.78,2.05,1.57,4.11,2.32,6.16,4.51,12,8.94,24,13.42,36l.1.34a16.48,16.48,0,0,1,1.15,5.08,16.78,16.78,0,0,1-.09,2.65l-.46,3-1.89,12.22-3.76,24.45-1.26,8.17-2.51,16.28-1.49,9.15-2,12.45-.23,1.39h-6.35l1,2.43.06.15.55,1.32,3.52,8.38,5.42,12.88,6.16,14.67-3.16,1.91-2.06-2-4.29-4.07-16.78-16,0,0-1.78-12.46-.82-5.73.1-1.9,4.4-81.54h0l0-.54-.15-.48L1219.66,480l0-.13-7.34-25.13v0h-8.62l-.05,3.14-.3,16.77-.39,16.76c-.12,5.59-.31,11.18-.47,16.77l-.5,16.77v.22l0,.32,2.24,19.35,2.1,19.37,2.15,19.36,1.6,13.09.74,6.11.09,1.77.9,17.23q.49,9.62,1.08,19.24c.72,12.84,1.66,25.66,2,38.52l2.92,77.11.75,19.27c.14,3.22.15,6.43.23,9.65l.2,9.65.78,38.58q.26,13.32.55,26.62h5l-.22-26.7-.39-38.61-.08-9.66c-.05-3.21,0-6.42-.15-9.65l-.54-19.31-1.08-38.61-1.23-38.61-.3-9.65c-.07-1.61-.09-3.22-.17-4.82l-.29-4.83-1.15-19.28-2.29-38.47V602h0l-10.32-76.89v0l0-.14v.1l0-.23,0,.13,1.19-50.9v-.54l.23-13.1,0,.1L1215,482l9.8,32.7-2.57,43.73-2.31,39.68h0v.08l0,.13,2.34,20.14.07.61,0,0,.73.85h0l5.45,5.91,13.37,14.5,4.77,5.18,1,1.1,2.18,2.37,15.1-9.76h0Zm-84.31,208.88-2.77-32.44-1.37-16.23-1.29-16.23c-.08-1-.14-2-.24-3.05q0-.43-.09-.87l-.17-1.38-.33-2.81-.64-5.36-.31-2.58-1.9-16.18-3.68-32.37,0-.13c-2.35-21.59-4.71-43.17-6.72-64.81l-.26-2.71v-.1h-2.89l-4,0-4,0h-2.89l-.27,2.81c-2,21.64-4.37,43.22-6.72,64.81l-3.68,32.36-1.89,16.18-1,8.08-.48,4c-.16,1.34-.23,2.7-.34,4.06l-1.3,16.23-1.37,16.23L1126,845.76l-1.32,14.64h6l6.87-78.93c.13-1.35.21-2.7.38-4l.51-4,1-8.07,2-16.14,4.1-32.29,7-54.86v.11l7,54.75,4.11,32.29,1.52,12,.54,4.26.2,1.58.82,6.35.51,4a.66.66,0,0,1,0,.14c.09.71.15,1.42.21,2.13s.09,1.18.15,1.77l6.87,78.93h6.05l-1.3-14.47Z"/><path class="cls-1" d="M1257.7,509.43l-.46,3-1.89,12.22-3.76,24.45-1.26,8.17-2.51,16.28-1.49,9.15-2,12.45-.23,1.39h-6.35l1,2.43.06.15.55,1.32,3.52,8.38,5.42,12.88,6.16,14.67-3.16,1.91-2.06-2-4.29-4.07-16.78-16,0,0-1.78-12.46-.82-5.73.1-1.9,4.4-81.54h0l0-.54-.15-.48L1219.66,480l0-.13-7.34-25.13v0h-8.62l-.05,3.14-.3,16.77-.39,16.76c-.12,5.59-.31,11.18-.47,16.77l-.5,16.77v.22l0,.32,2.24,19.35,2.1,19.37,2.15,19.36,1.6,13.09.74,6.11.09,1.77.9,17.23q.49,9.62,1.08,19.24c.72,12.84,1.66,25.66,2,38.52l2.92,77.11.75,19.27c.14,3.22.15,6.43.23,9.65l.2,9.65.78,38.58q.26,13.32.55,26.62h-39.67l-1.3-14.47,0-.17-2.77-32.44-1.37-16.23-1.29-16.23c-.08-1-.14-2-.24-3.05q0-.43-.09-.87l-.17-1.38-.33-2.81-.64-5.36-.31-2.58-1.9-16.18-3.68-32.37,0-.13c-2.35-21.59-4.71-43.17-6.72-64.81l-.26-2.71v-.1h-2.89l-4,0-4,0h-2.89l-.27,2.81c-2,21.64-4.37,43.22-6.72,64.81l-3.68,32.36-1.89,16.18-1,8.08-.48,4c-.16,1.34-.23,2.7-.34,4.06l-1.3,16.23-1.37,16.23L1126,845.76l-1.32,14.64H1085q.08-4,.17-7.95.19-9.26.37-18.5l.25-12.51.53-26.24.2-9.65c.06-2.42.08-4.82.15-7.24,0-.33,0-.67,0-1s0-.93,0-1.4l.39-10,.35-9.17v-.13l2.92-77.11c.08-3.21.2-6.43.35-9.64q.15-3.4.35-6.81c.1-2,.22-3.93.34-5.9.31-5.36.65-10.71,1-16.06,0-.58.07-1.15.1-1.73.13-2,.24-4,.35-6q.33-5.76.62-11.53l.91-17.29.09-1.8,2.34-19.2L1099,564.2l2.09-19.37,2.24-19.35,0-.3V525l-.5-16.77c-.08-2.82-.17-5.64-.25-8.45s-.15-5.6-.21-8.39l-.4-16.76-.29-16.77-.06-3.1v0H1093l-23.25,43.76,0,.06a16.26,16.26,0,0,1-2.13,2.69,16.47,16.47,0,0,1-7.54,4.44,16.13,16.13,0,0,1-8.77-.12,17.14,17.14,0,0,1-3.41-1.45,16.57,16.57,0,0,1-4-3.22c-.26-.29-.43-.5-.69-.81l0-.07-.71-1-1.54-2.1-3.05-4.2-6.11-8.4-12.22-16.8-23-31.55,0,0,1.16-1.07,2.39-2.16-2.54-2.08h0L996,429.35l-15.28-12.52-10.33-29.61,5.53-4.15,0,0,25.94,18.38,7.94,17.4.18.39.18.19h0L1050,466l2.51,2.94,1.82-3.53h0l2.3-4.26,14.83-27.5,8.56-15.89,1.06-1.94.27-.5v0l.24-.42.44-.75,0,0,0-.07c.37-.63.78-1.22,1.2-1.81l.07-.11c.66-1,1.37-1.9,2.14-2.82a38.74,38.74,0,0,1,3.36-3.54l1-.89.5-.45.42-.37.67-.54.2-.14v0c.38-.31.79-.62,1.21-.93,1.06-.8,2.19-1.56,3.33-2.29a69.4,69.4,0,0,1,7.24-4,90.33,90.33,0,0,1,15.71-5.7,113.35,113.35,0,0,1,28.18-3.54H1158a113.43,113.43,0,0,1,28.19,3.54,90.23,90.23,0,0,1,15.7,5.7,68.4,68.4,0,0,1,7.24,4c.87.55,1.74,1.13,2.56,1.73l.8.59c.41.29.82.6,1.18.9l0,0,.19.13,0,0,.34.28.29.23.43.37,0,0,.46.42.25.23,0,0,.72.63c.31.29.62.59.91.89.87.85,1.69,1.75,2.48,2.69a34.7,34.7,0,0,1,4.07,6l.54,1,0,.08c.17.35.33.7.49,1.06.09.18.17.37.25.55l0,0c.07.17.14.35.2.52l.23.58.25.63,1,2.62,2,5.25,4,10.5,7.94,21c.78,2.05,1.57,4.11,2.32,6.16,4.51,12,8.94,24,13.42,36l.1.34a16.48,16.48,0,0,1,1.15,5.08A16.78,16.78,0,0,1,1257.7,509.43Z"/><path d="M1187.22,310.66c0-.85-.06-1.73-.15-2.61l-.4-2.84a6.78,6.78,0,0,0-.15-.68l-.07-.28a35.18,35.18,0,0,0-6.55-13.9,33,33,0,0,0-3.86-4.18h0c-.47-.43-1-.85-1.46-1.26-.75-.62-1.54-1.2-2.36-1.75s-1.65-1.08-2.51-1.57c-.57-.33-1.16-.64-1.76-.94s-1.16-.56-1.76-.81c-.9-.38-1.81-.72-2.74-1s-1.86-.58-2.81-.81a33.76,33.76,0,0,0-22.83,2.65,34.45,34.45,0,0,0-17.84,21c-.27.85-.49,1.71-.68,2.58l-.07.28-.09.34c0,.11,0,.22-.07.33l-.4,2.85h0c-.09.87-.12,1.76-.15,2.61v0c0,.38,0,.77,0,1.16s0,.64,0,1c0,.68.07,1.36.13,2l.09.88.06.45c.06.38.11.74.17,1.08l.06.37.3,1.45.08.38c.61,3.52,1.32,7.11,2,10.58l1.21,6.12,1.85,9.34v0l.21.77c.07.25.15.51.24.76a22.36,22.36,0,0,0,.81,2.2c.28.65.58,1.28.91,1.91.16.32.33.62.51.93.4.68.82,1.33,1.27,2,.31.43.63.86,1,1.27s.67.79,1,1.16c0,0,0,0,0,0a25.14,25.14,0,0,0,11.2,7c1.09.33,2.07.55,3,.73s1.91.35,2.9.48a41.76,41.76,0,0,0,10.79,0c1-.13,2-.29,2.91-.48s1.88-.4,3-.73a25.15,25.15,0,0,0,14.47-11.41,25.78,25.78,0,0,0,2.46-5.79l.21-.74.46-2.2,2.61-13.27c.69-3.49,1.4-7.09,2-10.64l.37-1.8c.11-.59.2-1.21.28-1.9a34.05,34.05,0,0,0,.25-3.85C1187.25,311.46,1187.24,311.06,1187.22,310.66Zm-54.07,37.94c-.21-.36-.4-.73-.58-1.1a19.38,19.38,0,0,1-.83-2c-.12-.36-.24-.72-.34-1.09l-.16-.56-3.9-20.47c-.15-.91-.35-1.82-.54-2.7,0-.22-.1-.43-.14-.65-.1-.43-.19-.88-.27-1.32-.05-.22-.09-.45-.13-.67l-.21-1.31,0-.25c-.06-.5-.11-1-.15-1.51a28.44,28.44,0,0,1,0-3c0-.37.08-.78.11-1.18,0-.64.1-1.24.19-1.83l.43-2.25h0c0-.13.08-.27.11-.42s0-.08,0-.13a.65.65,0,0,0,0-.13h0c.13-.47.27-.94.43-1.41h0a24.31,24.31,0,0,1,1.42-3.43,26.86,26.86,0,0,1,3.69-5.58,25.79,25.79,0,0,1,9.37-6.87,25.5,25.5,0,0,1,9.88-2.14l.56,0h2.38a25.65,25.65,0,0,1,7.31,1.26c.78.26,1.54.55,2.3.88.46.2.92.42,1.37.64h0a26.25,26.25,0,0,1,6,4.17c.35.31.69.65,1,1s.65.69,1,1.05A27,27,0,0,1,1179,306l.09.27c0,.15.08.29.11.42l.43,2.27c.1.58.14,1.17.2,1.81,0,.41.06.81.1,1.23a25.33,25.33,0,0,1-.05,3c0,.51-.09,1-.15,1.52l-.25,1.56c-.15.88-.34,1.76-.54,2.62s-.39,1.8-.54,2.72l-3.91,20.5-.14.51a19.12,19.12,0,0,1-1.75,4.19,18.29,18.29,0,0,1-6.33,6.4,18.49,18.49,0,0,1-4.17,1.85c-.78.23-1.67.43-2.3.55s-1.55.29-2.43.41a36.58,36.58,0,0,1-4.48.28,37,37,0,0,1-4.51-.28c-.87-.12-1.66-.26-2.43-.41-.61-.12-1.52-.32-2.29-.55a18.31,18.31,0,0,1-7.75-4.67A17.21,17.21,0,0,1,1133.15,348.6Z"/><path class="cls-1" d="M1125.85,315c0,.5.1,1,.16,1.5l.25,1.58c.15.88.34,1.77.54,2.62s.39,1.8.54,2.7l3.89,20.47.16.56a19,19,0,0,0,1.75,4.18,18.31,18.31,0,0,0,10.5,8.25c.77.23,1.67.43,2.29.55s1.56.29,2.43.41a36.14,36.14,0,0,0,9,0c.89-.12,1.68-.25,2.44-.41s1.52-.32,2.3-.55a18.31,18.31,0,0,0,10.5-8.25,18.42,18.42,0,0,0,1.74-4.19l.15-.51,3.91-20.5c.15-.91.35-1.83.54-2.71s.39-1.75.54-2.62l.24-1.57c.07-.5.12-1,.16-1.51a27.86,27.86,0,0,0,.05-3c-.05-.41-.08-.82-.11-1.23,0-.63-.1-1.23-.19-1.8l-.43-2.27c0-.14-.08-.28-.11-.42s-.07-.18-.1-.28a26.88,26.88,0,0,0-5.53-10.44,25.84,25.84,0,0,0-9.36-6.86,25.53,25.53,0,0,0-9.62-2.14l-1.42,0h-1.53a26.14,26.14,0,0,0-19.24,9,27.13,27.13,0,0,0-5.54,10.45,2.76,2.76,0,0,1-.08.27c0,.14-.08.28-.11.41l-.43,2.25c-.1.6-.14,1.2-.2,1.83,0,.41-.06.82-.1,1.18A28.51,28.51,0,0,0,1125.85,315Z"/><path d="M1136.84,432.25c-2.43-.33-4.86-.5-7.28-.61s-4.86-.17-7.28-.19l-3.64,0c-1.22,0-2.43.06-3.64.13-2.43.12-4.86.29-7.28.63v8.39c2.42.34,4.85.51,7.28.63,1.21.07,2.42.09,3.64.13l3.64,0c2.42,0,4.85-.06,7.28-.18s4.85-.29,7.28-.62Z"/><path d="M1265,639.28l-1.37-2.4h0l0-.1-13.23-24.06-3.74-6.77-3-5.48,0-.07h0l2,0,1,0h.74l.32-1.74,2.79-15.39,1.63-9,4.28-24.41,4.28-24.41,2.14-12.21c.17-1,.35-2,.53-3.07a21,21,0,0,0,.19-3.54,21.77,21.77,0,0,0-1.36-6.94l.1.31-29.61-85.63a42.58,42.58,0,0,0-3.42-6.69,41.27,41.27,0,0,0-2.58-3.69,48.28,48.28,0,0,0-4-4.5l0,0-.78-.76-.23-.22-.51-.49-.58-.53c-.37-.36-.76-.67-1.14-1l0,0c-.37-.32-.75-.62-1.12-.91a72.18,72.18,0,0,0-9.9-6.51c-.67-.37-1.34-.74-2-1.1-.42-.23-.85-.44-1.28-.65l-.21-.11a99.25,99.25,0,0,0-15.76-6.26,129.28,129.28,0,0,0-72.73,0,99.25,99.25,0,0,0-15.76,6.26l-.22.11c-.43.21-.85.42-1.28.65l-2,1.1a72.18,72.18,0,0,0-9.9,6.51c-.39.3-.77.61-1.15.94s-.76.64-1.15,1l-.57.53-.51.49c-.35.34-.69.65-1,1a49.78,49.78,0,0,0-4,4.5c-.8,1-1.56,2.1-2.26,3.21-.1.14-.19.27-.28.42l-.09.15c-.22.34-.43.68-.63,1a1.4,1.4,0,0,0-.1.16l-.61,1.07c-.37.68-.8,1.47-1.09,2.12l-1,2-6.9,14.56-.83,1.76-13.73,29,0,.05-37.84-42.52-6-18.9-.25-.74-.76-.62-28.09-23h0L976,372l-2.55,1.75-10.64,7.34-2.72,1.9-.05,0,1.27,3.07,13.9,33.57h0l.36.85.58.44,15.7,12,0,0h0l-.87.73-.51.42-.36.31-.86.73,0,0,1.43,1.94c8.25,11.17,16.5,22.31,24.67,33.53l12.28,16.8,6.15,8.4,3.06,4.19,1.54,2.1.77,1.06c.28.35.64.79,1,1.14a19,19,0,0,0,1.77,1.71,21.3,21.3,0,0,0,5.7,3.55,17.87,17.87,0,0,0,2.26.81,21.36,21.36,0,0,0,5.72.86,20.29,20.29,0,0,0,5.75-.66,21.71,21.71,0,0,0,10-5.71,22,22,0,0,0,3.48-4.63l2.57-4.53,7.59-13.4,2.65-4.68c2.79-4.92,5.62-9.81,8.45-14.7l.78-1.35.22,11.87v.6l1.19,50.88v0l-10.34,77v.1h0v.18l-2.3,38.48-1.15,19.3-.28,4.82c0,.36,0,.73-.05,1.09,0,1.24-.07,2.49-.12,3.73l-.3,9.66-.73,23-.5,15.62-.41,14.45-.68,24.17-.54,19.31c0,.48,0,1,0,1.44l0,1.4c0,2.28,0,4.55-.08,6.82l-.08,9.65-.31,32.66-.06,6-.09,10.67L1080,860.4h5l.18-7.95q.19-9.26.37-18.5l.25-12.51.52-26.1.2-9.65c.06-2.46.08-4.92.16-7.38,0-.33,0-.67,0-1s0-.84,0-1.26l.39-10.11.35-9.17v-.13l2.91-77q.13-4.87.36-9.75.15-3.4.35-6.81c.1-2,.22-3.93.34-5.9.31-5.36.65-10.71,1-16.06,0-.58.07-1.15.1-1.73.13-2,.24-4,.35-6q.33-5.76.62-11.53l.91-17.29,116.48,0h0l.9,17.32q.5,9.63,1.08,19.26c.72,12.83,1.66,25.66,2,38.52l2.92,77.13.74,19.28c.15,3.22.16,6.43.25,9.65l.19,9.65.78,38.61q.24,13.23.55,26.45h5l-.22-26.54-.39-38.63-.08-9.65c-.05-3.22,0-6.43-.15-9.66l-.54-19.31L1222.89,718l-1.23-38.62-.3-9.66c-.06-1.61-.09-3.22-.17-4.82l-.28-4.82-1.15-19.3-2.3-38.48v-.18h0L1207.09,525l1.19-50.91v-.55l.24-13.05v0l6.5,21.63,9.8,32.71-2.57,43.75L1220,598.23h0v.08l0,.13h0l2.34,20.14.06.53v.08l.75.87h0l5.45,5.91,13.38,14.5,4.77,5.18,1,1.1,2.18,2.38,15.11-9.78Zm-16.65-17.56,6.16,14.67,0,.1-3.16,1.91-2.07-2-4.29-4.08-16.8-16v-.07l-1.78-12.39-.49-3.44h13.46l3.52,8.38Zm-278-234.5,5.52-4.15h0l25.93,18.39,7.43,16.27L996,429.35l0,0-15.28-12.51-10.33-29.62Zm179.38,165.59.14,21.38.22,19.15-54.85,3.34,1.59-13,2.16-19.37,2.09-19.37,2.24-19.36,0-.32V525l-.5-16.77c-.08-2.82-.17-5.64-.25-8.45s-.16-5.55-.22-8.33l-.4-16.77-.29-16.77,0-3.15H1093l-23.26,43.78,0,.06a16.42,16.42,0,0,1-9.67,7.13,15.94,15.94,0,0,1-8.77-.12,16.43,16.43,0,0,1-7.45-4.67c-.26-.29-.43-.5-.69-.81l0-.07-.71-1-1.54-2.1-3.06-4.19-6.1-8.41-12.23-16.81-23-31.57,0,0,8.56-6.11,7.33-7.69L1049.94,466l2.51,2.95,1.82-3.53h0l2.3-4.28,14.83-27.5,8.57-15.88,1.06-2,.27-.5v0l.23-.38.45-.79,0,0,0-.07c.37-.61.78-1.19,1.19-1.78a.86.86,0,0,0,.07-.1q1-1.46,2.13-2.82a40.27,40.27,0,0,1,3.37-3.54c.28-.27.66-.6,1-.89l.5-.46.42-.36.67-.55.2-.14v0c.39-.31.79-.61,1.22-.93,1.05-.8,2.18-1.55,3.33-2.29a71.14,71.14,0,0,1,7.23-4,91.56,91.56,0,0,1,15.72-5.7q3.35-.87,6.73-1.52l24.25,38.63-.22,18.43-.14,21.37-.11,42.74Zm-17.82-164.88a119.71,119.71,0,0,1,15.39-1H1158a118.5,118.5,0,0,1,15.54,1.06l-20.67,31.7Zm71.76,66.84-.06,3.15-.29,16.77-.39,16.77c-.12,5.59-.31,11.18-.48,16.78L1202,525v.22l0,.32,2.24,19.36,2.1,19.37,2.15,19.37,1.59,13h0c-11.74-.73-44.37-2.69-54.42-3.29l.22-19.17.14-21.38.12-42.73-.12-42.74-.13-21.37-.22-18.31,23.94-38.72q3.35.63,6.61,1.49a91,91,0,0,1,15.72,5.7,70.24,70.24,0,0,1,7.24,4c.86.56,1.71,1.12,2.53,1.7l.8.59c.41.31.82.6,1.18.9l0,0,0,0,.2.14.34.28.32.27.4.33,0,0,.49.46.22.19,0,0,.75.67.88.85c.87.85,1.69,1.75,2.48,2.69a34.7,34.7,0,0,1,4.07,6c.19.34.37.69.54,1l0,.08c.18.36.35.73.52,1.1.08.17.15.34.22.51l0,0c.08.18.16.37.23.56l.23.57.25.64,1,2.62,2,5.25,4,10.51,7.94,21c.78,2.06,1.56,4.12,2.32,6.18,4.51,12,8.94,24,13.42,36l.1.33a16,16,0,0,1,1.14,5.08,16.73,16.73,0,0,1-.09,2.65l-.45,3-1.89,12.22-3.76,24.46-1.26,8.17-2.51,16.28-1.49,9.15-2,12.37h0l-10.49-1.08-8,.8,4.32-80.19h0l0-.53-.16-.48-10.3-33.59,0-.14-7.36-25.18Zm-27.12,358.71-1.37-16.25L1173.9,781c-.09-1.06-.15-2.13-.26-3.19q0-.43-.09-.87l-.17-1.38-.32-2.67-.65-5.5-.31-2.58-1.9-16.18-3.68-32.37c-2.35-21.6-4.71-43.19-6.72-64.83l-.28-2.82H1145.8l-.27,2.82c-2,21.64-4.37,43.23-6.72,64.83l-3.68,32.37-1.9,16.18-1,8.08-.48,4.05c-.17,1.34-.24,2.71-.35,4.06l-1.29,16.23-1.37,16.25L1126,845.93l-1.31,14.47h6l6.85-78.79c.14-1.35.22-2.7.39-4l.5-4.05,1-8.07,2-16.15,4.1-32.29,7-54.88,7,54.88,4.11,32.29,1.51,11.89.54,4.26.2,1.58.83,6.49.51,4.05c.09.71.15,1.42.21,2.13s.11,1.27.17,1.91l6.86,78.79h6.05l-1.31-14.47Z"/><path d="M1187.24,310.66c0-.85-.06-1.73-.15-2.6l-.4-2.84c0-.24-.09-.46-.15-.69l-.07-.28a35.07,35.07,0,0,0-6.55-13.89l-.26-.3c-.44-.56-.9-1.1-1.38-1.63l-.39-.43c-.59-.63-1.21-1.24-1.85-1.83h0c-.47-.44-1-.86-1.46-1.26-.75-.62-1.54-1.2-2.36-1.75s-1.65-1.08-2.51-1.57c-.57-.33-1.16-.64-1.76-.94s-1.16-.56-1.76-.81c-.89-.38-1.8-.73-2.74-1s-1.86-.58-2.81-.81a33.76,33.76,0,0,0-22.83,2.65,34.45,34.45,0,0,0-17.84,21q-.4,1.27-.69,2.58l-.07.28c0,.12,0,.23-.08.34a3.43,3.43,0,0,0-.06.34l-.41,2.84h0c-.09.87-.12,1.76-.15,2.61v0c0,.39,0,.77,0,1.16s0,.64,0,1c0,.68.07,1.36.13,2,0,.29.06.59.1.88s0,.3,0,.45c.06.38.11.74.17,1.08,0,.13,0,.26.07.38l.29,1.44.08.38c.61,3.52,1.32,7.11,2,10.58l1.21,6.12,1.86,9.36.22.78c.07.25.15.5.23.75a22.36,22.36,0,0,0,.81,2.2c.28.65.58,1.28.91,1.91.16.32.33.62.51.93a21.17,21.17,0,0,0,1.27,2c.31.43.63.86,1,1.27s.67.79,1,1.16c0,0,0,0,0,0a24.94,24.94,0,0,0,5.49,4.47,25.94,25.94,0,0,0,5.71,2.54c1.1.33,2.08.54,3,.73s1.91.34,2.91.48a42.89,42.89,0,0,0,10.78,0c1-.14,2-.3,2.92-.48s1.87-.4,3-.73a26.23,26.23,0,0,0,5.72-2.54,25.22,25.22,0,0,0,11.22-14.67l.21-.74.46-2.2,2.61-13.28c.69-3.48,1.4-7.08,2-10.64l.37-1.8c.11-.59.2-1.22.29-1.91a36.31,36.31,0,0,0,.24-3.84C1187.27,311.47,1187.26,311.07,1187.24,310.66Zm-59.9,12.73c-.15-.91-.35-1.82-.54-2.7,0-.22-.1-.43-.14-.65q-.15-.66-.27-1.32c-.05-.22-.08-.44-.12-.66l-.22-1.32,0-.25c-.06-.5-.11-1-.15-1.51a28.44,28.44,0,0,1,0-3c0-.37.08-.78.11-1.18,0-.64.1-1.24.19-1.83l.43-2.25h0c0-.14.08-.27.12-.41a.74.74,0,0,0,0-.14.65.65,0,0,0,0-.13h0c.13-.47.27-.94.43-1.41h0a29.16,29.16,0,0,1,1.42-3.43,26.86,26.86,0,0,1,3.69-5.58,25.79,25.79,0,0,1,9.37-6.87,25.5,25.5,0,0,1,9.88-2.14l.56,0h1l1.16,0h.25a25.65,25.65,0,0,1,7.31,1.26c.78.25,1.56.55,2.32.88.46.2.91.41,1.35.64h0a25.73,25.73,0,0,1,6,4.17c.35.31.69.65,1,1s.65.69,1,1.05A27.1,27.1,0,0,1,1179,306c0,.1.06.19.08.28a3.31,3.31,0,0,1,.12.42l.43,2.27c.09.57.14,1.17.19,1.81,0,.4.07.81.11,1.22a27.86,27.86,0,0,1,0,3c0,.51-.09,1-.15,1.52l-.25,1.56c-.15.88-.35,1.77-.53,2.63s-.4,1.79-.55,2.71l-3.91,20.51-.15.51a17.94,17.94,0,0,1-1.75,4.18,18.15,18.15,0,0,1-6.33,6.41,18.41,18.41,0,0,1-4.16,1.85c-.78.23-1.68.43-2.3.55s-1.56.29-2.44.41a36.22,36.22,0,0,1-9,0c-.87-.12-1.66-.26-2.43-.41-.61-.12-1.51-.32-2.29-.55a18.49,18.49,0,0,1-4.17-1.85,18,18,0,0,1-3.59-2.84,17.21,17.21,0,0,1-2.74-3.57c-.21-.36-.4-.73-.58-1.1a16.67,16.67,0,0,1-.83-2c-.12-.36-.24-.72-.34-1.09l-.16-.56Z"/><polygon points="1243.55 600.39 1243.59 600.46 1246.93 600.46 1246.55 600.45 1245.59 600.43 1243.55 600.39"/><polygon points="990.16 434.43 990.17 434.44 991.04 433.71 991.04 433.7 991.91 432.97 991.86 432.94 990.16 434.43"/><path class="cls-1" d="M837,110.7V499.37a4.06,4.06,0,0,0,4,4.06h459V900H803.4V94.65A21.56,21.56,0,0,1,825,73.09h475v33.56H841A4.05,4.05,0,0,0,837,110.7Z"/><path d="M807.4,900h-8V94.65A25.58,25.58,0,0,1,825,69.09h475v8H825A17.57,17.57,0,0,0,807.4,94.65Z"/><path d="M1300,507.43H841a8.07,8.07,0,0,1-8-8.06V110.7a8.06,8.06,0,0,1,8-8.06h459v8H841l0,388.73,459,.06Z"/><path d="M1300,507.43H841a8.07,8.07,0,0,1-8-8.06V110.7a8.06,8.06,0,0,1,8-8h459v8H841l0,388.72,459,.06Z"/><path d="M1074.92,503.43h-7c0-42.42-31.26-76.93-69.68-76.93S928.55,461,928.55,503.43h-7c0-46.28,34.4-83.93,76.69-83.93S1074.92,457.15,1074.92,503.43Z"/></svg>