<svg id="Capa_1" data-name="Capa 1" xmlns="http://www.w3.org/2000/svg" viewBox="0 0 1300 1000"><defs><style>.cls-1{fill:#fff;}</style></defs><title>2-landmarks-expand</title><path class="cls-1" d="M1125.61,315.06c0,.51.08,1,.14,1.51l.26,1.58c.14.88.34,1.77.53,2.63s.4,1.8.55,2.71L1131,344l.16.57a19,19,0,0,0,1.75,4.18,18.29,18.29,0,0,0,10.53,8.28c.78.23,1.68.43,2.3.55s1.58.29,2.44.41a36.3,36.3,0,0,0,9,0c.87-.12,1.7-.26,2.45-.41s1.53-.32,2.3-.55a18.56,18.56,0,0,0,4.18-1.85,18.35,18.35,0,0,0,6.35-6.43,18.72,18.72,0,0,0,1.75-4.19l.15-.52,3.91-20.55c.16-.92.36-1.83.55-2.72s.39-1.75.54-2.63l.25-1.57c.06-.5.11-1,.15-1.52a27.86,27.86,0,0,0,0-3c0-.42-.08-.83-.11-1.23,0-.64-.1-1.24-.19-1.82l-.43-2.27c0-.14-.08-.28-.12-.42l-.09-.28a27,27,0,0,0-5.54-10.46,26.14,26.14,0,0,0-19-9l-1.42,0h-1.53a26.07,26.07,0,0,0-19.29,9,27.05,27.05,0,0,0-5.56,10.47c0,.09,0,.18-.07.27a3.84,3.84,0,0,0-.13.41l-.43,2.26c-.09.6-.14,1.2-.19,1.84,0,.4-.06.81-.11,1.18A26.25,26.25,0,0,0,1125.61,315.06Z"/><path class="cls-1" d="M1049.24,941.11l.82,2.91,63.58-.42,3.62,0h1.32l.83-16.58c.18-2.06.32-4.13.43-6.19.1-1.66.16-3.31.24-5l.07-3.44.09-1.77.06-1.09h0l5.76-63.78,2.77-32.44,1.37-16.22,1.29-16.23c.12-1.36.19-2.72.35-4.06l.48-4,1-8.08,1.9-16.17,3.68-32.35c2.35-21.59,4.71-43.17,6.71-64.79l.28-2.82h2.89l4,0,4,0h2.89l.28,2.82c2,21.62,4.36,43.2,6.71,64.79l3.68,32.35,1.9,16.17,1,8.08.47,4c.17,1.34.24,2.7.36,4.06l1.29,16.23,1.37,16.22,2.77,32.44,5.77,63.78h0l.09,1.09v.24l0,1.53.07,3.44c.08,1.66.13,3.31.23,5,.12,2.06.26,4.13.43,6.19l.84,16.58h1.32l3.62,0,63.59.42.81-2.91-30.87-12.42-1.15-.47-.48-1L1216.85,912l-1.57-3.5,6.17-.1c-.57-24.87-1.19-49.76-1.66-74.64L1219,795.2l-.2-9.65c-.08-3.22-.09-6.43-.24-9.65l-.75-19.27-2.91-77.08c-.34-12.86-1.28-25.67-2-38.51-.39-6.41-.73-12.83-1.07-19.24l-1-19-2.33-19.19-2.15-19.36-2.1-19.36L1202,525.55l0-.33V525l.5-16.75c.16-5.6.35-11.19.47-16.78l.39-16.75.3-16.77,0-3.14h8.62l.3,2.86c.4,4.32.83,8.64,1.26,12.95s.84,8.65,1.31,13l2.76,25.91c.12,1.09.25,2.16.36,3.26l.28,3.28.55,6.48,1.11,13,1.11,13,1.18,13c1.59,17.27,3.11,34.57,4.81,51.85l2.53,25.91,1.88,18.27h3.77l10.15-26.88-5.15-18.73-.85-3.07h7l-.38-37.43c0-.82,0-1.62,0-2.44-.11-9.87-.34-19.74-.56-29.61l-.4-18c-.06-3-.15-6-.17-8.93s-.28-5.8-.61-8.67-.82-5.72-1.43-8.56l-.47-2.11-.55-2.14c-.38-1.47-.67-2.93-1-4.39l-3.9-17.56c-2.59-11.73-5.28-23.42-7.93-35.13l-2-8.79c-.16-.77-.32-1.33-.49-2s-.36-1.26-.56-1.89c-.4-1.24-.89-2.46-1.41-3.65a38.45,38.45,0,0,0-3.94-6.74c-.78-1.05-1.61-2-2.48-3-.45-.48-.87-1-1.35-1.4l-.7-.68-.79-.72-.77-.7-.68-.57c-.47-.4-1-.8-1.53-1.2-1-.79-2.17-1.55-3.33-2.28a70.28,70.28,0,0,0-7.23-4,90.33,90.33,0,0,0-15.71-5.7,113.11,113.11,0,0,0-27.62-3.54h-11.25a113.82,113.82,0,0,0-28.18,3.54,90.33,90.33,0,0,0-15.71,5.7,69.25,69.25,0,0,0-7.23,4c-1.15.73-2.28,1.49-3.33,2.28-.53.4-1.06.8-1.53,1.2l-.69.57-.76.7-.79.72-.7.68c-.48.44-.9.92-1.36,1.4-.86,1-1.69,2-2.47,3a37.19,37.19,0,0,0-3.93,6.74,36.74,36.74,0,0,0-1.42,3.65c-.2.63-.38,1.26-.57,1.89s-.32,1.22-.48,2l-2,8.79c-2.65,11.71-5.35,23.4-7.94,35.13l-3.89,17.56c-.35,1.46-.63,2.92-1,4.39l-.54,2.14-.48,2.11c-.61,2.84-1.09,5.68-1.43,8.56s-.54,5.75-.61,8.67-.11,5.94-.17,8.93l-.39,18c-.23,9.87-.46,19.74-.57,29.61v0l0,2.47-.38,37.43h7l-.84,3.07-5.15,18.73,10.15,26.88h3.77l1.88-18.27,2.52-25.91c1.71-17.28,3.22-34.58,4.81-51.85l1.19-13,1.11-13,1.11-13,.55-6.48.28-3.28c.1-1.1.24-2.17.36-3.26l2.76-25.91c.47-4.31.87-8.63,1.31-13s.86-8.63,1.27-12.95l.29-2.86h8.62l0,3.14.29,16.77.4,16.75c.12,5.59.31,11.18.47,16.78l.49,16.75v.22l0,.33-2.23,19.34-2.1,19.36-2.15,19.36-2.34,19.19-1,19q-.49,9.62-1.07,19.24c-.72,12.84-1.67,25.65-2,38.51l-2.91,77.08-.75,19.27c-.16,3.22-.16,6.43-.24,9.65l-.2,9.65-.78,38.57c-.46,24.88-1.07,49.77-1.65,74.64l6.16.1-1.56,3.5-6.84,15.18-.48,1-1.15.47Z"/><path d="M1136.57,432.61c-2.43-.33-4.87-.5-7.3-.62s-4.86-.17-7.3-.18l-3.65,0c-1.21.05-2.43.06-3.65.14-2.43.11-4.86.29-7.29.63V441c2.43.33,4.86.51,7.29.63,1.22.07,2.44.08,3.65.13l3.65,0c2.44,0,4.87-.05,7.3-.18s4.87-.29,7.3-.61Z"/><path d="M1118.14,311.94a32,32,0,0,0,.24,3.89c.09.69.18,1.32.29,1.91l.37,1.83c.62,3.54,1.34,7.15,2,10.64l3.06,15.48.23.79a24.9,24.9,0,0,0,2.46,5.79,25.28,25.28,0,0,0,8.78,8.9,25.67,25.67,0,0,0,5.73,2.55c1.1.33,2.08.55,3,.73s1.92.35,2.92.48a41.91,41.91,0,0,0,10.81,0c1-.13,2-.29,2.92-.48s1.88-.4,3-.73a25.67,25.67,0,0,0,5.73-2.55,25.25,25.25,0,0,0,8.78-8.89,25.63,25.63,0,0,0,2.47-5.8l.21-.75.47-2.21,2.61-13.31c.69-3.49,1.41-7.1,2-10.67l.37-1.79c.11-.6.21-1.23.29-1.92a34.05,34.05,0,0,0,.25-3.85c0-.44,0-.84-.05-1.25,0-.85-.06-1.73-.15-2.61l-.4-2.85c0-.23-.1-.46-.16-.68l-.07-.29A34,34,0,0,0,1144.87,278a35.12,35.12,0,0,0-19.35,12.39,35.13,35.13,0,0,0-6.56,13.93l-.07.28c-.06.22-.11.45-.15.67l-.4,2.86c-.1.88-.13,1.76-.16,2.61C1118.17,311.14,1118.16,311.54,1118.14,311.94Zm7.37.07c0-.37.08-.78.11-1.19.05-.63.1-1.23.19-1.83l.43-2.26c0-.13.08-.27.12-.41l.09-.27a26.9,26.9,0,0,1,5.55-10.47,25.94,25.94,0,0,1,9.39-6.89,25.56,25.56,0,0,1,9.9-2.14l.57,0h1l1.42,0a25.69,25.69,0,0,1,9.65,2.14,26.12,26.12,0,0,1,9.39,6.88,27.31,27.31,0,0,1,5.55,10.47,2.29,2.29,0,0,0,.08.28,3.31,3.31,0,0,1,.12.42l.43,2.27c.09.58.14,1.18.19,1.81,0,.41.07.82.11,1.23a28,28,0,0,1,0,3c0,.5-.09,1-.15,1.52l-.25,1.57c-.15.88-.35,1.77-.54,2.63s-.39,1.8-.55,2.72l-3.91,20.56-.15.51a18,18,0,0,1-1.75,4.19,18.42,18.42,0,0,1-10.53,8.28c-.78.23-1.68.43-2.3.55s-1.57.29-2.44.41a36.38,36.38,0,0,1-9,0c-.86-.12-1.69-.26-2.44-.41a23.66,23.66,0,0,1-2.3-.56,17.94,17.94,0,0,1-12.27-12.46L1131,344l-3.9-20.52c-.15-.9-.35-1.82-.55-2.7s-.38-1.75-.53-2.63l-.25-1.58c-.07-.5-.12-1-.16-1.51A28.59,28.59,0,0,1,1125.51,312Z"/><path d="M1041.78,950.73v3.42h3.42l77.6,0h3.48v-3.46l0-10,0-10,.06-19.83v0l11.27-129.48c.13-1.35.22-2.7.39-4.05l.51-4,1-8.06,2.06-16.14,4.1-32.28,7-54.85,7,54.85,4.11,32.28,2,16.14,1,8.06.5,4c.17,1.35.26,2.7.39,4.05L1179,911v0l.06,19.83,0,10,0,10v3.46h3.47l77.6,0h3.43V936.7l-2.17-.85c-2.81-1.1-5.64-2.15-8.47-3.22l-8.46-3.21-16-6-6.56-10.81,2.24,0,1.66,0v-1.69l-.65-77.22-.37-38.6-.1-9.65c0-3.22,0-6.43-.14-9.66l-.55-19.3-1.08-38.6-1.22-38.6-.31-9.65c-.06-1.61-.08-3.22-.17-4.82l-.28-4.82-1.15-19.28-2.29-38.46v-.19h0l-10.34-77v.11l0-.24,0,.13,1.34-57.88,1.9,17,2.77,25.87c.11,1.07.24,2.15.34,3.22l.24,3.23.52,6.49,1,13q1,13,2,26l3.87,51.92,1.9,26,1.85,26,.17,2.39h2.43l11.06,0h2l.52-1.88,9.68-34.8.19-.7-.19-.68L1246,613.63l2.17,0,2.1,0,.12-22.95c-.14-17.12-.1-34.27,0-51.39l.07-18c0-3,0-6,.07-9s-.14-6.14-.43-9.2-.7-6.11-1.27-9.12c-.28-1.5-.61-3-1-4.48s-.58-2.92-.88-4.39l-3.46-17.63-6.9-35.24-1.72-8.82c-.13-.71-.33-1.52-.5-2.29s-.37-1.55-.6-2.31a47.19,47.19,0,0,0-1.58-4.51,44.78,44.78,0,0,0-4.55-8.39,41.41,41.41,0,0,0-2.9-3.8c-.53-.61-1-1.21-1.6-1.78l-.83-.87-.83-.78a51.15,51.15,0,0,0-7.36-6,85.68,85.68,0,0,0-8-4.79,99.41,99.41,0,0,0-17.15-7,129.12,129.12,0,0,0-36.34-5.22h0a129.12,129.12,0,0,0-36.34,5.22,99,99,0,0,0-17.14,7,83.16,83.16,0,0,0-8,4.79,50.15,50.15,0,0,0-7.37,6l-.83.78-.82.87c-.56.57-1.08,1.17-1.61,1.78a43.27,43.27,0,0,0-2.9,3.8,44.78,44.78,0,0,0-4.55,8.39,47.19,47.19,0,0,0-1.58,4.51c-.23.76-.42,1.54-.6,2.31s-.36,1.58-.49,2.29l-1.73,8.82-6.91,35.24-3.45,17.63c-.3,1.47-.56,3-.88,4.39s-.68,3-1,4.48c-.57,3-1,6.06-1.27,9.12s-.42,6.12-.42,9.2,0,6,.06,9l.07,18c.08,17.12.12,34.27,0,51.39l.12,22.95,2.1,0,2.18,0L1054.69,630l-.19.68.19.7,9.69,34.8.5,1.88h2l11.06,0h2.43l.18-2.39,1.84-26,1.9-26,3.88-51.92q.94-13,2-26l1-13,.51-6.49.25-3.23c.09-1.07.23-2.15.33-3.22l2.78-25.87,1.88-17,1.35,57.88,0-.13,0,.24V525l-10.34,77h0v.19l-2.3,38.46L1084.47,660l-.28,4.82c-.08,1.6-.11,3.21-.17,4.82l-.31,9.65-1.23,38.6-1.08,38.6-.54,19.3c-.11,3.23-.1,6.44-.14,9.66l-.09,9.65-.37,38.6-.66,77.22v1.69l1.66,0,2.24,0-6.56,10.81-16,6-8.48,3.21c-2.82,1.07-5.65,2.12-8.46,3.22l-2.17.85v14Zm17.93-320.17,4.65-16.93,13.64,0-2.49,25.53-1.88,18.27h-3.77Zm65.77-241.51,24.37,38.82h0l-.21,18.48-.14,21.42-.12,42.84.12,42.84.15,21.43.21,19.22-54.66,3.33,1.67-13.83,2.16-19.35,2.1-19.37,2.24-19.35,0-.32V525l-.5-16.77c-.16-5.59-.35-11.18-.47-16.77l-.4-16.75-.29-16.77,0-3.14h-8.62l-.3,2.86c-.4,4.32-.83,8.64-1.26,12.95s-.84,8.64-1.31,13l-2.76,25.91c-.12,1.1-.25,2.16-.36,3.26l-.28,3.27-.55,6.49-1.11,13-1.11,13-1.18,13c-1.44,15.58-2.81,31.16-4.31,46.74l-9.08-.91-10.7,1.1.37-37,0-2.47v0c.11-9.87.34-19.75.56-29.62l.4-18c.06-3,.15-6,.17-8.94s.28-5.79.61-8.66.82-5.73,1.43-8.55l.47-2.12.55-2.13c.38-1.49.67-2.94,1-4.41l3.9-17.56c2.58-11.72,5.28-23.41,7.92-35.12l2-8.78c.16-.78.32-1.35.49-2s.36-1.25.56-1.88a36.74,36.74,0,0,1,1.42-3.65,37.28,37.28,0,0,1,3.93-6.75c.78-1,1.61-2,2.48-3,.45-.47.87-1,1.35-1.39l.7-.68.79-.72.76-.69c.21-.18.44-.39.69-.59.47-.39,1-.79,1.53-1.19,1-.8,2.18-1.55,3.33-2.28a70.36,70.36,0,0,1,7.23-4,91.12,91.12,0,0,1,15.71-5.69Q1122.28,389.67,1125.48,389.05Zm48-1-20.83,32-21.12-31.93a118.89,118.89,0,0,1,15.79-1.09h11.25A117.57,117.57,0,0,1,1173.49,388Zm53.86,225.63H1241l4.66,16.93-10.15,26.89h-3.77l-1.88-18.27Zm-17.2-16.26c-12.22-.76-45.33-2.74-54.74-3.3l.22-19.19.15-21.43.11-42.84-.11-42.84-.14-21.42-.21-18.35h0l24.12-39q3.35.64,6.65,1.51a90.82,90.82,0,0,1,15.71,5.69,69.32,69.32,0,0,1,7.23,4c1.16.73,2.28,1.48,3.33,2.28.53.4,1.06.8,1.53,1.19.25.2.49.41.69.59l.76.69.8.72.69.68c.48.44.9.92,1.36,1.39.86,1,1.69,2,2.46,3a37.37,37.37,0,0,1,4,6.75c.52,1.2,1,2.4,1.41,3.65.21.63.39,1.26.57,1.88s.31,1.23.48,2l2,8.78c2.65,11.71,5.35,23.4,7.94,35.12l3.89,17.56c.35,1.47.63,2.92,1,4.41l.53,2.13.48,2.12q.92,4.23,1.44,8.55t.6,8.66c0,2.91.11,5.95.17,8.94l.39,18c.23,9.87.46,19.75.57,29.62v0l0,2.47.38,37.06-11.22-1.15-8.56.85c-1.51-15.55-2.88-31.12-4.31-46.68l-1.19-13-1.11-13-1.11-13-.55-6.49-.28-3.27c-.1-1.1-.24-2.16-.36-3.26l-2.76-25.91c-.47-4.32-.87-8.63-1.31-13s-.86-8.63-1.27-12.95l-.29-2.86h-8.62l-.05,3.14-.29,16.77-.4,16.75c-.12,5.59-.31,11.18-.47,16.77L1202,525v.21l0,.32,2.23,19.35,2.1,19.37,2.15,19.35Zm.67,5.55v-.13l0-.55ZM1185.24,912.4l31.74,0,6.67,14.81.48,1,1.15.47,30.87,12.42-.81,2.91-63.59-.42-3.62,0h-1.32L1186,927c-.18-2.07-.33-4.14-.43-6.19-.1-1.67-.16-3.32-.23-5Zm-64.64-6.59-18.1-1L1084,905.83c.55-24,1.13-48,1.59-72.05l.77-38.59.19-9.65c.09-3.21.1-6.42.25-9.64l.74-19.27,2.92-77.08c.34-12.85,1.28-25.68,2-38.51.39-6.4.74-12.83,1.07-19.24l.87-16.47,116.52,0,.86,16.5c.34,6.41.68,12.84,1.07,19.24.72,12.83,1.67,25.66,2,38.51l2.91,77.08.75,19.27c.16,3.22.16,6.43.24,9.64l.2,9.65.77,38.59c.46,24,1,48,1.6,72.05l-18.51-1.05-18.08,1-5.43-60.07-2.77-32.43-1.37-16.24-1.29-16.22c-.12-1.36-.19-2.71-.35-4.06l-.48-4-1-8.07-1.9-16.18-3.68-32.34c-2.35-21.59-4.71-43.18-6.71-64.81l-.28-2.81h-13.71l-.28,2.81c-2,21.63-4.36,43.22-6.71,64.81l-3.68,32.34-1.9,16.18-1,8.07-.47,4c-.17,1.35-.24,2.7-.36,4.06l-1.29,16.22-1.37,16.24L1126,845.75Zm-71.4,35.3,30.87-12.42,1.15-.47.48-1,6.67-14.81h31.74l-.07,3.43c-.08,1.66-.13,3.31-.23,5-.12,2.05-.27,4.12-.43,6.19l-.85,16.57h-1.31l-3.62,0L1050,944Z"/><polygon points="1179.01 910.84 1179.01 910.95 1179.02 911.12 1179.01 910.84"/><polygon points="1207.07 524.87 1207.08 525.11 1207.08 525 1207.07 524.87"/><polygon points="1210.78 602.25 1210.81 602.8 1210.82 602.93 1210.78 602.25"/><path d="M1246.19,568.89c0,.81,0,1.63,0,2.44l0-2.47Z"/><polygon points="1210.78 602.25 1210.81 602.8 1210.82 602.93 1210.78 602.25"/><rect y="900" width="1300" height="100"/><path class="cls-1" d="M837,118.5V499.37a4.06,4.06,0,0,0,4,4.06h459V900H803.4V102.45A21.56,21.56,0,0,1,825,80.89h475v33.56H841A4.05,4.05,0,0,0,837,118.5Z"/><path d="M807.4,900h-8V102.45A25.59,25.59,0,0,1,825,76.89h475v8H825a17.58,17.58,0,0,0-17.56,17.56Z"/><path d="M1300,507.43H841a8.07,8.07,0,0,1-8-8.06V118.5a8.06,8.06,0,0,1,8-8h459v8H841l0,380.92,459,.06Z"/><path d="M1300,507.43H841a8.07,8.07,0,0,1-8-8.06V118.5a8.06,8.06,0,0,1,8-8h459v8H841l0,380.92,459,.06Z"/><path d="M1074.93,503.43h-7c0-42.42-31.26-76.93-69.69-76.93S928.55,461,928.55,503.43h-7c0-46.28,34.4-83.93,76.69-83.93S1074.93,457.15,1074.93,503.43Z"/></svg>