<svg width="1300" height="1000" viewBox="0 0 1300 1000" fill="none" xmlns="http://www.w3.org/2000/svg"><path fill-rule="evenodd" clip-rule="evenodd" d="M999.649 333.086c-3.769 1.408-10.807 1.91-12.649 1.914 0 0-8.301-.069-13.135-1.914-5.448-2.079-8.483-4.109-12.162-8.575-2.49-3.022-4.438-8.223-5.322-10.853-.362-1.079-.611-2.188-.801-3.31l-4.093-24.154s-.495-3.492-.487-5.742c.02-5.351.746-8.493 2.919-13.398 2.232-5.038 4.185-7.735 8.27-11.484 4.356-3.996 7.495-5.742 13.135-7.625 4.38-1.462 7.052-1.907 11.676-1.945 4.963.167 6.811.479 11.548 1.945 4.742 1.577 9.582 4.373 13.262 7.625 3.68 3.252 6.26 7.101 8.27 11.484s2.92 8.615 2.92 13.398c0 1.803-.2 3.959-.49 5.742l-4.86 23.833a25.09 25.09 0 0 1-1.01 3.617c-1.04 2.793-3.21 8.177-5.32 10.829-2.92 3.676-7.16 6.929-11.671 8.613Zm-2.46-6.699c-3.036 1.186-8.705 1.609-10.189 1.613 0 0-6.687-.058-10.581-1.613-4.389-1.752-6.834-3.462-9.797-7.226-1.949-2.474-3.485-6.68-4.224-8.951-.338-1.039-.567-2.105-.741-3.184l-3.265-20.155s-.399-2.943-.392-4.839c.016-4.509.601-7.156 2.351-11.29 1.799-4.246 3.371-6.518 6.663-9.677 3.508-3.368 6.037-4.839 10.581-6.426 3.527-1.232 5.68-1.607 9.405-1.639 3.998.141 5.487.403 9.302 1.639 3.818 1.329 7.718 3.685 10.688 6.426 2.96 2.74 5.04 5.983 6.66 9.677s2.35 7.26 2.35 11.29c0 1.52-.16 3.337-.39 4.839l-3.88 19.862a24.563 24.563 0 0 1-.93 3.486c-.87 2.407-2.56 6.742-4.21 8.91-2.35 3.098-5.77 5.839-9.401 7.258Z" fill="#000"/><path fill-rule="evenodd" clip-rule="evenodd" d="M700 120c0-11.046 8.954-20 20-20h460c11.05 0 20 8.954 20 20v780h100v100H0V900h700V120Zm22-13h456c8.28 0 15 6.716 15 15v28H707v-28c0-8.284 6.716-15 15-15Zm471 50v343h-104.04c.28-10.498.47-21.054.47-30.838 0-1.662-5.91-57.127-23.43-93.162-15.05-29.175-40.06-34.545-80.183-34.979-36.975-.426-60.317 6.979-85.944 34.197C879.5 406 866 428.5 866 428.5l-42.5-42-25.047-34.394c-2.992-4.281-9.286-7.313-14.375-6.135-7.119 1.649-12.415 9.915-10.427 16.948L782 396l61.489 72.047c-3.776 9.845-5.885 20.638-5.937 31.953H707V157h486ZM707 900V507h486v393H707Zm374.44-427.529-.11 27.529h-30.01l-2.81-30.909-7.46-50.009a1.234 1.234 0 0 0-1.21-1.07 1.235 1.235 0 0 0-1.24 1.324L1042 488l1.2 12h-52.27c-.185-40.126-26.235-73.681-60.792-81.686a.961.961 0 0 0-1.035-.232 70.363 70.363 0 0 0-14.862-1.582c-14.503 0-28.08 4.43-39.66 12.119 6.307-10.069 16.697-26.514 30.639-48.104C927 351 967.5 347.808 985.49 348.021c37.97.425 60.76 3.937 74.96 32.494 16.54 35.272 20.98 91.956 20.98 91.956h.01ZM983.93 500c-.181-36.305-23.258-66.736-54.071-74.553L924.5 487.5l-1.23 12.5h60.66Zm-112.636-16.157 52.301-59.653a63.566 63.566 0 0 0-9.354-.69c-27.345 0-51.059 17.467-62.465 42.829l14.957 17.491a3 3 0 0 0 4.561.023Zm-6.052 9.692-16.516-19.352c-2.659 8.066-4.129 16.758-4.174 25.817h70.669l1.279-13 7-52.5-50.664 59.101a5 5 0 0 1-7.594-.066ZM789.5 393.5l57.297 67.006c4.47-9.007 10.403-17.024 17.447-23.667L816 390l-22.857-34.285a7.22 7.22 0 0 0-6.007-3.215c-4.816 0-8.282 4.626-6.929 9.248L789.5 393.5Z" fill="#000"/></svg>