<svg width="1300" height="1000" fill="none" xmlns="http://www.w3.org/2000/svg"><path d="M0 900h1300v100H0V900Z" fill="#000"/><path fill-rule="evenodd" clip-rule="evenodd" d="M1300 107H822c-8.284 0-15 6.716-15 15v28h493v7H807v343h130.551c.174-37.808 23.312-69.783 54.892-80.047L972 396l-8.349-33.081c-1.988-7.033 3.308-15.299 10.427-16.948 5.089-1.178 11.383 1.854 14.375 6.135L1013.5 386.5l42.5 42s13.5-22.5 33.87-53.282c25.63-27.218 48.97-34.623 85.95-34.197 40.12.434 65.13 5.804 80.18 34.979 17.52 36.035 23.43 91.5 23.43 93.162 0 9.784-.19 20.34-.47 30.838H1300v7H807v393h-7V120c0-11.046 8.954-20 20-20h480v7ZM944.551 500c.178-35.835 22.652-65.934 52.855-74.232l57.834 67.767a5.007 5.007 0 0 0 7.6.066l16.84-19.646c2.71 8.131 4.2 16.902 4.25 26.045H944.551Zm116.739-16.157 15.39-17.554c-11.41-25.337-35.11-42.789-62.44-42.789-2.91 0-5.77.198-8.59.581l51.08 59.739a3 3 0 0 0 4.56.023ZM1090.93 500c-.05-11.392-2.19-22.255-6.02-32.154l28.59-33.346-7 52.5-1.28 13h-14.29Zm23.57-12.5-1.23 12.5h119.93l-1.2-12-3.4-68.664a1.235 1.235 0 0 1 1.24-1.324c.61.005 1.13.462 1.21 1.07l7.46 50.009 2.81 30.909h30.01l.11-27.529h-.01s-4.44-56.684-20.98-91.956c-14.2-28.557-36.99-32.069-74.96-32.494-17.99-.213-58.49 2.979-80.27 32.494-16.86 26.105-28.52 44.688-34.06 53.574 8.42 7.144 15.44 16.159 20.55 26.469l37-42.202a.97.97 0 0 1 1.7.717l-5.91 68.427Zm-100.26-71c8.02 0 15.77 1.356 23.04 3.87L1006 390l-22.857-34.285a7.22 7.22 0 0 0-6.007-3.215c-4.816 0-8.282 4.626-6.929 9.248L979.5 393.5l20.85 24.38c4.5-.906 9.15-1.38 13.89-1.38Z" fill="#000"/><path fill-rule="evenodd" clip-rule="evenodd" d="M1189.65 333.086c-3.77 1.408-10.81 1.91-12.65 1.914 0 0-8.3-.069-13.14-1.914-5.44-2.079-8.48-4.109-12.16-8.575-2.49-3.022-4.44-8.223-5.32-10.853a22.077 22.077 0 0 1-.8-3.31l-4.09-24.154s-.5-3.492-.49-5.742c.02-5.351.75-8.493 2.92-13.398 2.23-5.038 4.18-7.735 8.27-11.484 4.35-3.996 7.49-5.742 13.13-7.625 4.38-1.462 7.06-1.907 11.68-1.945 4.96.167 6.81.479 11.55 1.945 4.74 1.577 9.58 4.373 13.26 7.625 3.68 3.252 6.26 7.101 8.27 11.484s2.92 8.615 2.92 13.398c0 1.803-.2 3.959-.49 5.742l-4.86 23.833a25.09 25.09 0 0 1-1.01 3.617c-1.04 2.793-3.21 8.177-5.32 10.829-2.92 3.676-7.16 6.929-11.67 8.613Zm-2.46-6.699c-3.04 1.186-8.71 1.609-10.19 1.613 0 0-6.69-.058-10.58-1.613-4.39-1.752-6.83-3.462-9.8-7.226-1.95-2.474-3.48-6.68-4.22-8.951a20.428 20.428 0 0 1-.74-3.184l-3.27-20.155s-.4-2.943-.39-4.839c.02-4.509.6-7.156 2.35-11.29 1.8-4.246 3.37-6.518 6.66-9.677 3.51-3.368 6.04-4.839 10.58-6.426 3.53-1.232 5.68-1.607 9.41-1.639 4 .141 5.49.403 9.3 1.639 3.82 1.329 7.72 3.685 10.69 6.426 2.96 2.74 5.04 5.983 6.66 9.677s2.35 7.26 2.35 11.29c0 1.52-.16 3.337-.39 4.839l-3.88 19.862a24.563 24.563 0 0 1-.93 3.486c-.87 2.407-2.56 6.742-4.21 8.91-2.35 3.098-5.77 5.839-9.4 7.258Z" fill="#000"/></svg>