<svg width="1300" height="1000" viewBox="0 0 1300 1000" fill="none" xmlns="http://www.w3.org/2000/svg"><path fill-rule="evenodd" clip-rule="evenodd" d="M987 335c1.842-.004 8.88-.506 12.649-1.914 4.511-1.684 8.751-4.937 11.671-8.613 2.11-2.652 4.28-8.036 5.32-10.829a25.09 25.09 0 0 0 1.01-3.617l4.86-23.833c.29-1.783.49-3.939.49-5.742 0-4.783-.91-9.015-2.92-13.398-2.01-4.383-4.59-8.232-8.27-11.484-3.68-3.252-8.52-6.048-13.262-7.625-4.737-1.466-6.585-1.778-11.548-1.945-4.624.038-7.296.483-11.676 1.945-5.64 1.883-8.779 3.629-13.135 7.625-4.085 3.749-6.038 6.446-8.27 11.484-2.173 4.905-2.899 8.047-2.919 13.398-.008 2.25.487 5.742.487 5.742l4.093 24.154c.19 1.122.439 2.231.801 3.31.884 2.63 2.832 7.831 5.322 10.853 3.679 4.466 6.714 6.496 12.162 8.575C978.699 334.931 987 335 987 335Zm0-7c1.484-.004 7.153-.427 10.189-1.613 3.631-1.419 7.051-4.16 9.401-7.258 1.65-2.168 3.34-6.503 4.21-8.91.4-1.135.7-2.302.93-3.486l3.88-19.862c.23-1.502.39-3.319.39-4.839 0-4.03-.73-7.596-2.35-11.29-1.62-3.694-3.7-6.937-6.66-9.677-2.97-2.741-6.87-5.097-10.688-6.426-3.815-1.236-5.304-1.498-9.302-1.639-3.725.032-5.878.407-9.405 1.639-4.544 1.587-7.073 3.058-10.581 6.426-3.292 3.159-4.864 5.431-6.663 9.677-1.75 4.134-2.335 6.781-2.351 11.29-.007 1.896.392 4.839.392 4.839l3.265 20.155c.174 1.079.403 2.145.741 3.184.739 2.271 2.275 6.477 4.224 8.951 2.963 3.764 5.408 5.474 9.797 7.226C980.313 327.942 987 328 987 328Z" fill="#000"/><path d="m873.429 466.31.01.01-.46.97-.02.05h-.01l.02-.05.89-2.02.06.01-.49 1.03Z" fill="#000"/><path fill-rule="evenodd" clip-rule="evenodd" d="M700 120c0-11.046 8.954-20 20-20h460c11.05 0 20 8.954 20 20v780h100v100H0V900h700V120Zm22-13h456c8.28 0 15 6.716 15 15v28H707v-28c0-8.284 6.716-15 15-15Zm-15 793h486V507H707v393Zm486-743v343h-104.04c.28-10.498.47-21.054.47-30.838 0-1.662-5.91-57.127-23.43-93.162-15.05-29.175-40.06-34.545-80.183-34.979-36.975-.426-60.317 6.979-85.944 34.197C879.5 406 866 428.5 866 428.5l-42.5-42-19.491-26.766 8.651-8.651a3 3 0 0 0 0-4.243l-41.719-41.719a3 3 0 0 0-4.243 0l-27.577 27.577a3 3 0 0 0 0 4.243l37.417 37.417L782 396l61.489 72.047c-3.776 9.845-5.885 20.638-5.937 31.953H707V157h486ZM784.076 374.968l-1.115-4.086-.115-.115-2.639-9.019c-1.353-4.622 2.113-9.248 6.929-9.248a7.22 7.22 0 0 1 6.007 3.215L816 390l48.244 46.839c-7.044 6.643-12.977 14.66-17.447 23.667L789.5 393.5l-5.424-18.532Zm-10.762-13.734-26.415-26.415 21.92-21.92 36.063 36.062-5.045 5.045-1.384-1.9c-2.992-4.281-9.286-7.313-14.375-6.135-6.557 1.519-11.567 8.651-10.764 15.263Zm75.412 112.949c-2.659 8.066-4.129 16.758-4.174 25.817h70.669l1.279-13 7-52.5-50.664 59.101a5 5 0 0 1-7.594-.066l-16.516-19.352ZM923.27 500h60.66c-.181-36.305-23.258-66.736-54.071-74.553L924.5 487.5l-1.23 12.5Zm.325-75.81-52.301 59.653a3 3 0 0 1-4.561-.023l-14.957-17.491c11.406-25.362 35.12-42.829 62.465-42.829 3.171 0 6.294.235 9.354.69Zm6.543-5.876a.961.961 0 0 0-1.035-.232 70.363 70.363 0 0 0-14.862-1.582c-14.503 0-28.08 4.43-39.66 12.119 6.307-10.069 16.697-26.514 30.639-48.104C927 351 967.5 347.808 985.49 348.021c37.97.425 60.76 3.937 74.96 32.494 16.54 35.272 20.98 91.956 20.98 91.956h.01l-.11 27.529h-30.01l-2.81-30.909-7.46-50.009a1.234 1.234 0 0 0-1.21-1.07 1.235 1.235 0 0 0-1.24 1.324L1042 488l1.2 12h-52.27c-.185-40.126-26.235-73.681-60.792-81.686Z" fill="#000"/></svg>