<svg id="Capa_1" data-name="Capa 1" xmlns="http://www.w3.org/2000/svg" viewBox="0 0 1300 1000"><defs><style>.cls-1,.cls-2,.cls-3{fill:#fff;}.cls-1,.cls-2,.cls-5,.cls-6{stroke:#262626;stroke-miterlimit:10;}.cls-1,.cls-5,.cls-6{stroke-width:10px;}.cls-2{stroke-width:10.49px;}.cls-4{fill:#262626;}.cls-5,.cls-6{fill:none;}.cls-6{stroke-linecap:round;}</style></defs><title>ticket-office--receive</title><path class="cls-1" d="M801,538.08,478.25,536.8c-14.52,0-26.3,10.66-26.3,23.8V817.72c0,13.15,11.78,23.81,26.3,23.81L801,843Z"/><path class="cls-1" d="M4,842.67l401.25.49c14.52,0,26.29-10.69,26.29-23.88V561.37c0-13.18-11.77-23.88-26.29-23.88L4,537Z"/><path class="cls-1" d="M432.11,905h20V546.44c0-5.21-4.48-9.43-10-9.43h0c-5.52,0-10,4.22-10,9.43Z"/><path class="cls-1" d="M793.25,906.09l501.75-.9v-832l-476.75.9a25,25,0,0,0-25,25Z"/><path class="cls-2" d="M1133.52,337.26c0,16,10.52,29,23.5,29s23.5-13,23.5-29-10.52-29-23.5-29S1133.52,321.25,1133.52,337.26Z"/><path class="cls-3" d="M1190.46,978.62l0-31.65h-12.88l-20.78-260.24L1135.33,947h-12.67l-.22,31.65h-75.12l.19-12.6,22.08-19h-4.82l29.28-325.5h-13.74L1108,451.23l-51.42,53.13-74.83-99.22L1001.4,392l58.11,56c37.75-64.87,86-68.24,95.53-68.24.69,0,1.17,0,1.42,0,35.39.06,65.92,22.15,88.29,63.91a253.47,253.47,0,0,1,23.09,62.64l.34,1.67-40.63,82.18,5.07,31.36h-13.74L1248.16,947h-6.83l24.2,19.1,0,12.55Zm28.71-440.29,11.4-33.85-23.48-40.78Z"/><path class="cls-4" d="M1155,384.68c.83,0,1.28,0,1.28,0,81.91,0,106.62,122.54,106.62,122.54l-34.24,69.24-6-33L1236,503.94l-38.23-66.41,29,179h-13.34L1242.69,942h-15.78l33.63,26.53v5.12h-65.08l0-31.65h-13.26l-25.31-317-26.19,317h-13l-.22,31.65H1052.4l.07-5.28L1083.05,942h-12.81l29.28-325.5h-13.33l29.3-180.18L1057,496.68l-68.13-90.33,11.92-8L1060.7,456c37-68.27,85.87-71.33,94.34-71.33m0-10c-9.73,0-58,3.3-96.57,65.29l-50.7-48.83-5.81-5.59-6.7,4.49-11.92,8-8.78,5.89,6.37,8.44,68.12,90.33,7,9.33,8.13-8.4,36.28-37.47-24.18,148.71-1.89,11.6h14.15l-28.3,314.6-.71,7.94-13.63,11.75-3.4,2.94-.07,4.49-.07,5.28-.15,10.14h85.15l.07-9.93.15-21.72h12.31l.76-9.18,16.06-194.31,15.51,194.28L1173,952h12.5l0,21.64v10h85.1v-20l-3.8-3-13.26-10.46-.82-9.11-28.3-314.6h14.15l-1.88-11.59-3.88-24,4.93-10,34.23-69.24,1.52-3.06-.68-3.35a259,259,0,0,0-23.58-64c-23.28-43.43-55.29-66.43-92.58-66.54-.35,0-.86,0-1.54,0Zm65.83,142.91-4.48-27.71,8.72,15.14-4.24,12.57Z"/><line class="cls-5" x1="1094.39" y1="621.48" x2="1214.64" y2="621.48"/><polyline class="cls-6" points="1135.29 384.73 1154.87 426.27 1174.1 384.73"/><line class="cls-6" x1="1154.87" y1="426.27" x2="1154.87" y2="618.72"/><rect class="cls-4" x="1169.16" y="432.42" width="22.81" height="13.31" rx="2"/><rect class="cls-3" x="1014.03" y="510.12" width="267.14" height="389.88"/><rect class="cls-4" y="900" width="1300" height="100"/><path class="cls-5" d="M1064.29,507.49a75,75,0,0,0-150,0"/><path class="cls-5" d="M863.32,504.18l431.68,1V114.1l-431.68-1a25,25,0,0,0-25,25V479.18A25,25,0,0,0,863.32,504.18Z"/></svg>