<svg id="Capa_1" data-name="Capa 1" xmlns="http://www.w3.org/2000/svg" viewBox="0 0 1300 1000"><defs><style>.cls-1,.cls-2,.cls-4{fill:#fff;}.cls-1,.cls-4,.cls-5,.cls-6,.cls-7,.cls-8{stroke:#262626;}.cls-1,.cls-4,.cls-5,.cls-6,.cls-8{stroke-miterlimit:10;}.cls-1,.cls-7,.cls-8{stroke-width:10px;}.cls-3{fill:#262626;}.cls-4{stroke-width:9.94px;}.cls-5{fill:#b4b4b4;stroke-width:8px;}.cls-6,.cls-7,.cls-8{fill:none;}.cls-6{stroke-width:10.11px;}.cls-7{stroke-linecap:round;stroke-linejoin:round;}</style></defs><title>ticket-office--handle-card</title><path class="cls-1" d="M802,538.08,479.25,536.8c-14.52,0-26.3,10.66-26.3,23.8V817.72c0,13.15,11.78,23.81,26.3,23.81L802,843Z"/><path class="cls-1" d="M5,842.67l401.25.49c14.52,0,26.29-10.69,26.29-23.88V561.37c0-13.18-11.77-23.88-26.29-23.88L5,537Z"/><path class="cls-1" d="M433.11,905h20V546.44c0-5.21-4.48-9.43-10-9.43h0c-5.52,0-10,4.22-10,9.43Z"/><path class="cls-1" d="M793.25,906.09l501.75-.9v-832l-476.75.9a25,25,0,0,0-25,25Z"/><path class="cls-2" d="M1208.17,977.71l0-31.65h-12.88l-20.77-260.24L1153,946.07h-12.67l-.22,31.65H1065l.19-12.6,22.08-19h-4.81l29.27-325.5H1098l27.53-169.31-49.37,54.38-95.64-35.2,9.54-23.72,76.29,18.69c18.66-43.91,46.14-65.07,66.2-75.13,22.59-11.34,40.69-11.47,41.45-11.47,35.45,0,66,22.1,88.44,63.91a254,254,0,0,1,23.09,62.64l.33,1.67-40.63,82.19,5.07,31.35h-13.74l29.29,325.5H1259l24.21,19.09v12.55Zm28.71-440.29,11.4-33.85-23.48-40.78Z"/><path class="cls-3" d="M1174,383.8c81.91,0,106.63,122.54,106.63,122.54l-34.24,69.24-6-33L1253.74,503l-38.24-66.41,29,179h-13.33l29.28,325.5h-15.78l33.62,26.53v5.12h-65.07l0-31.65h-13.27l-25.3-317-26.2,317h-13l-.23,31.65h-65.07l.08-5.28,30.57-26.37H1088l29.27-325.5h-13.32L1133.2,435.4l-58.45,64.37-87.64-32.25,6-14.92,76.25,18.68c35-87.48,104.67-87.48,104.67-87.48m0-10c-.81,0-20.06.14-43.69,12a131.12,131.12,0,0,0-37.18,28.09c-11.76,12.64-21.72,28-29.68,45.65l-68-16.66-8.42-2.06-3.24,8.05-6,14.92L974,473.35l9.67,3.55,87.64,32.26,6.32,2.32,4.53-5,35.76-39.38L1094,614l-1.89,11.6h14.15L1078,940.17l-.72,7.94-13.62,11.75-3.4,2.94-.07,4.49-.08,5.28-.15,10.14h85.15l.07-9.93.16-21.72h12.31l.76-9.18,16-194.31L1190,941.86l.74,9.21h12.49l0,21.64v10h85.09v-20l-3.8-3-13.25-10.46-.82-9.11-28.31-314.6h14.15L1254.33,614l-3.88-24,4.93-10,34.24-69.25,1.51-3.06-.67-3.35a259.59,259.59,0,0,0-23.59-64c-23.33-43.54-55.43-66.55-92.84-66.55Zm64.56,142.88L1234.1,489l8.72,15.14-4.23,12.57Z"/><ellipse class="cls-4" cx="1174.64" cy="337.14" rx="23.5" ry="29"/><line class="cls-5" x1="1234.51" y1="620.08" x2="1114.26" y2="620.08"/><line class="cls-6" x1="1235.51" y1="621.06" x2="1112.48" y2="621.06"/><polyline class="cls-7" points="1193.74 384.13 1174.16 425.67 1154.92 384.13"/><line class="cls-7" x1="1174.16" y1="425.67" x2="1174.16" y2="618.12"/><rect class="cls-3" x="1187.28" y="431.82" width="22.81" height="13.31" rx="2" transform="translate(2397.38 876.94) rotate(-180)"/><path class="cls-8" d="M1064.29,507.49a75,75,0,0,0-150,0"/><path class="cls-8" d="M863.32,504.18l431.68,1V114.1l-431.68-1a25,25,0,0,0-25,25V479.18A25,25,0,0,0,863.32,504.18Z"/><rect class="cls-2" x="845.73" y="510.09" width="444.25" height="389.91"/><rect class="cls-3" y="900" width="1300" height="100"/><path class="cls-1" d="M933.61,433.5l33,39.38a5,5,0,0,0,7.05.61l6.56-5.51,13.86-11.63a5,5,0,0,0,.62-7l-33-39.38a5,5,0,0,0-7-.62l-12.48,10.48-2,1.67-5.95,5A5,5,0,0,0,933.61,433.5Z"/><line class="cls-1" x1="987.81" y1="460.09" x2="951.07" y2="416.3"/></svg>