<svg id="Capa_1" data-name="Capa 1" xmlns="http://www.w3.org/2000/svg" viewBox="0 0 1300 1000"><defs><style>.cls-1{fill:#fff;}.cls-2,.cls-3{fill:none;stroke:#000;stroke-linejoin:round;}.cls-2{stroke-width:8px;}.cls-3{stroke-width:7px;}</style></defs><title>ticket-office--handle-card</title><polygon class="cls-1" points="1053.03 467.55 1052.43 468.69 1054.24 465.16 1054.25 465.15 1055.82 462.25 1055.82 462.26 1053.03 467.55"/><polygon class="cls-1" points="1079.93 417.55 1071.38 433.39 1079.94 417.5 1081 415.56 1079.93 417.55"/><polygon class="cls-1" points="1081.27 415.03 1081.5 414.65 1081.27 415.06 1081.01 415.53 1081.27 415.03"/><polygon class="cls-1" points="1103.29 525.31 1101.05 544.67 1099.24 561.39 1101.05 544.59 1103.29 525.24 1103.32 525.03 1103.29 525.31"/><path class="cls-1" d="M1118.6,441.16c-1.22-.05-2.43-.06-3.64-.13-2.43-.12-4.86-.29-7.28-.63V432c2.42-.34,4.85-.51,7.28-.63,1.21-.07,2.42-.09,3.64-.13l3.64,0c2.42,0,4.85.06,7.28.18s4.85.29,7.28.62v8.39c-2.43.32-4.85.5-7.28.61s-4.86.17-7.28.18Z"/><path class="cls-1" d="M1257.75,506.54a18,18,0,0,1-.1,2.65l-.46,3-1.88,12.23-3.76,24.44-1.26,8.17-2.51,16.28-1.49,9.15-2,12.45-.23,1.39h-6.36l1,2.44.07.14.55,1.32,3.48,8.28,5.41,12.89,0,.1,6.17,14.67-3.17,1.9-2.06-2-4.29-4.06-16.78-16,0,0-1.79-12.45-.82-5.73.1-1.91,4.4-81.54h0l0-.54-.15-.48-10.3-33.57,0-.14-7.34-25.12v-.05h-8.62l-.06,3.14-.29,16.77-.39,16.76c-.12,5.59-.31,11.19-.47,16.77l-.5,16.77v.22l0,.32,2.24,19.35,2.09,19.37,2.16,19.36,1.59,13.1.74,6.1.09,1.77.91,17.23q.49,9.62,1.07,19.24c.72,12.84,1.67,25.66,2,38.52l2.91,77.11.75,19.27c.15,3.22.16,6.43.24,9.65l.2,9.65.77,38.58c.46,23.84,1,47.65,1.58,71.48,0,1.06.06,2.13.08,3.19l-2.44.1h-3.73l1.58,3.49L1223.6,927l.48,1,1.16.46,30.87,12.43,0,.16-.78,2.75-63.6-.42-3.62,0h-1.31l-.84-16.58c-.17-2.06-.32-4.13-.43-6.19-.1-1.66-.16-3.32-.23-5l-.08-3.43-.09-1.77-.06-1.09h0l-3.87-42.89-1.88-20.74-1-11.87-1.77-20.74-1-11.36-.4-4.72-.23-2.89-1.07-13.49c-.08-.93-.14-1.86-.22-2.79,0-.38-.07-.76-.12-1.13a.66.66,0,0,0,0-.14l-.32-2.67-.15-1.24-1-8.08-1.9-16.18L1166.48,716l0-.13q-1.18-10.92-2.37-21.83l-.48-4.56q-.64-6-1.26-12c-.37-3.59-.74-7.19-1.1-10.78q-.78-7.82-1.51-15.64l-.26-2.71v-.1h-13.72l-.28,2.81c-2,21.64-4.36,43.22-6.71,64.81l-3.68,32.36-1.9,16.18-1,8.08-.48,4c-.16,1.34-.23,2.7-.35,4.06l-1.29,16.23-1.37,16.23L1126,845.53,1120.57,905l-.39,4.33h0l0,1.09-.06,1.16,0,.61v.18l-.08,3.25c-.08,1.66-.13,3.32-.23,5-.11,2.06-.25,4.13-.43,6.19l-.84,16.58h-1.31l-3.63,0-63.6.42-.76-2.75-.05-.16L1080,928.48l1.15-.46.48-1,6.83-15.19,1.57-3.49h-3.73l-2.43-.1c0-1.05.05-2.11.07-3.16l.12-5.3q.67-28.56,1.28-57.14l.18-9.07.78-38.58.13-6.85.06-2.66c0-.28,0-.56,0-.84,0-2.18.08-4.36.14-6.54,0-.75,0-1.51.08-2.27l.75-19.28,2.92-77.12q.12-4.83.35-9.64c.12-2.65.26-5.31.41-8l.18-3.21c.35-5.94.73-11.88,1.06-17.83.17-2.75.33-5.51.49-8.26q.3-5.44.58-10.88v-.1l.9-17.2.09-1.8,2.33-19.11-1.58,13,54.85-3.34-.22-19.15-.14-21.37-.12-42.74.12-42.74.14-21.37.21-18.43-24.24-38.62c-2.26.43-4.51.93-6.73,1.51a91.26,91.26,0,0,0-15.72,5.7,70.09,70.09,0,0,0-7.23,4c-1.15.74-2.28,1.49-3.34,2.3-.42.31-.83.61-1.21.92v0l-.2.14c-.24.2-.47.38-.67.56l-.42.36-.5.45c-.33.29-.71.62-1,.89a40.36,40.36,0,0,0-3.36,3.55,34,34,0,0,0-2.13,2.81l-.07.11c-.43.6-.85,1.21-1.23,1.84-.16.29-.33.57-.49.83v0c.16-.27.32-.56.49-.83.38-.64.8-1.25,1.23-1.85a.34.34,0,0,1,.07-.11,33.6,33.6,0,0,1,2.14-2.81,38.78,38.78,0,0,1,3.36-3.55c.27-.26.66-.59,1-.88l.5-.46.42-.36.66-.55.2-.14,0,0c.38-.31.79-.62,1.21-.93,1.06-.8,2.18-1.56,3.33-2.29a70.28,70.28,0,0,1,7.23-4,90.43,90.43,0,0,1,15.72-5.7,113.28,113.28,0,0,1,28.18-3.53c.5,0,1,0,1.49,0h7.71q.75,0,1.5,0a113.34,113.34,0,0,1,28.18,3.53,90.33,90.33,0,0,1,15.71,5.7,67.27,67.27,0,0,1,7.23,4c.87.55,1.74,1.13,2.57,1.73l.77.56.62.47.62.49s0,0,0,0l.18.12,0,0,.64.52.43.36.49.46,0,0c.17.14.34.3.51.45l.45.4c.31.29.62.59.91.89q1.31,1.29,2.49,2.7c.26.31.52.63.77.95s.49.64.73,1a34.56,34.56,0,0,1,2,3c.61,1.06,1.16,2.14,1.66,3.25.18.36.33.74.48,1.11l.23.58.24.64,1,2.62,2,5.24,4,10.5,7.94,21c.78,2.05,1.56,4.11,2.32,6.17,4.51,12,8.93,24,13.42,36l.1.34A16.48,16.48,0,0,1,1257.75,506.54Z"/><path d="M1118.41,311.63a34.09,34.09,0,0,0,.24,3.88c.09.69.18,1.31.29,1.91l.38,1.81c.6,3.52,1.31,7.11,2,10.58l3.07,15.47.22.79a25.71,25.71,0,0,0,2.46,5.78,25.25,25.25,0,0,0,8.76,8.88,26.15,26.15,0,0,0,5.71,2.54c1.1.33,2.08.54,3,.73s1.9.35,2.9.48a43,43,0,0,0,10.79,0c1-.13,2-.29,2.91-.48s1.88-.4,3-.73a26,26,0,0,0,5.72-2.54,25.34,25.34,0,0,0,8.76-8.88,25.71,25.71,0,0,0,2.46-5.78l.2-.75.47-2.2,2.61-13.27c.69-3.48,1.4-7.08,2-10.64l.37-1.79c.1-.6.2-1.22.28-1.91a34.05,34.05,0,0,0,.25-3.85c0-.43,0-.83,0-1.24,0-.85-.06-1.73-.15-2.6l-.4-2.84a5.32,5.32,0,0,0-.16-.69l-.06-.28a35.27,35.27,0,0,0-6.55-13.89,34.54,34.54,0,0,0-12-9.7,33.63,33.63,0,0,0-30.14,0,34.27,34.27,0,0,0-12,9.71,34.88,34.88,0,0,0-6.55,13.89l-.07.27c-.06.23-.11.46-.15.68l-.4,2.85c-.09.87-.12,1.75-.15,2.6C1118.44,310.83,1118.43,311.23,1118.41,311.63Zm7.36.06c0-.36.07-.77.11-1.18,0-.63.1-1.23.19-1.83l.43-2.25c0-.13.07-.27.11-.41l.09-.27a27,27,0,0,1,5.53-10.44,26.1,26.1,0,0,1,19.24-9H1153l1.42,0a26.1,26.1,0,0,1,19,9,26.77,26.77,0,0,1,5.53,10.43c0,.1.07.19.1.28s.08.28.11.42l.43,2.27c.09.57.14,1.17.19,1.8,0,.41.06.82.11,1.23a27.86,27.86,0,0,1,0,3c0,.5-.09,1-.16,1.51l-.24,1.57c-.15.87-.35,1.76-.54,2.62s-.39,1.8-.54,2.71l-3.91,20.5-.15.52A18.06,18.06,0,0,1,1162,356.6c-.78.23-1.68.43-2.3.55s-1.55.29-2.43.41a36.22,36.22,0,0,1-9,0c-.87-.12-1.67-.25-2.43-.41s-1.52-.32-2.29-.55a18.18,18.18,0,0,1-10.5-8.25,18.84,18.84,0,0,1-1.75-4.18l-.16-.56-3.89-20.47c-.15-.9-.35-1.81-.54-2.7s-.39-1.74-.54-2.62l-.25-1.57c-.06-.5-.12-1-.16-1.51C1125.75,313.68,1125.73,312.66,1125.77,311.69Z"/><path class="cls-1" d="M1125.81,314.74c0,.5.1,1,.16,1.51l.25,1.57c.15.88.35,1.77.54,2.62s.39,1.8.54,2.7l3.89,20.47.16.56a18.84,18.84,0,0,0,1.75,4.18,18.18,18.18,0,0,0,10.5,8.25c.77.23,1.68.43,2.29.55s1.56.29,2.43.41a36.22,36.22,0,0,0,9,0c.88-.12,1.67-.25,2.43-.41s1.52-.32,2.3-.55a17.86,17.86,0,0,0,12.24-12.43l.15-.52,3.91-20.5c.15-.91.35-1.82.54-2.71s.39-1.75.54-2.62l.24-1.57c.07-.5.13-1,.16-1.51a27.86,27.86,0,0,0,0-3c0-.41-.08-.82-.11-1.23,0-.63-.1-1.23-.19-1.8l-.43-2.27c0-.14-.07-.28-.11-.42s-.06-.18-.1-.28a26.77,26.77,0,0,0-5.53-10.43,26.1,26.1,0,0,0-19-9l-1.42,0h-1.53a26.1,26.1,0,0,0-19.24,9,27,27,0,0,0-5.53,10.44l-.09.27c0,.14-.08.28-.11.41l-.43,2.25c-.09.6-.14,1.2-.19,1.83,0,.41-.07.82-.11,1.18C1125.73,312.66,1125.75,313.68,1125.81,314.74Z"/><polygon class="cls-1" points="983.74 443 976.37 459.09 957.3 453.94 935.73 431.17 939.09 425.08 970.29 431.2 983.74 443"/><path class="cls-1" d="M1103.32,525l0,.28-2.24,19.36-1.81,16.72L1099,564l-2.16,19.37-1.58,13,54.85-3.34-.22-19.15-.14-21.37-.12-42.74.12-42.74.14-21.37.21-18.43-24.24-38.62c-2.26.43-4.51.93-6.73,1.51a91.26,91.26,0,0,0-15.72,5.7,70.09,70.09,0,0,0-7.23,4c-1.15.74-2.28,1.49-3.34,2.3-.42.31-.83.61-1.21.92v0l-.2.14c-.24.2-.47.38-.67.56l-.42.36-.5.45c-.33.29-.71.62-1,.89a40.36,40.36,0,0,0-3.36,3.55,34,34,0,0,0-2.13,2.81l-.07.11c-.43.6-.85,1.21-1.23,1.84-.16.29-.33.57-.49.83l-.23.41-.26.47v0l-1.07,2-8.55,15.84,0,0-14.83,27.5-.71,1.32h0l-2.79,5.29-.6,1.14-.28.54-2.78,5.28-1.08-.51-10.09-4.79-.86-.41-48.85-23.06-3.54,10-5.32,9.12,33.89,19.38,18,10.31,9,5.16,4.51,2.57,2.25,1.29,1.06.6.07.05c.36.18.6.3,1,.46a16.67,16.67,0,0,0,5,1.28,17,17,0,0,0,3.7-.08,12.51,12.51,0,0,0,1.36-.25,0,0,0,0,1,0,0l.55-.13a16.48,16.48,0,0,0,7.55-4.43,16.82,16.82,0,0,0,2.12-2.7l0-.06L1093,454.54h8.63l.05,3.14.29,16.77.4,16.77c.07,2.78.14,5.55.22,8.33v.06q.14,4.17.25,8.32V508l.5,16.77V525Zm4.36-93c2.42-.34,4.85-.51,7.28-.63,1.21-.07,2.42-.09,3.64-.13l3.64,0c2.42,0,4.85.06,7.28.18s4.85.29,7.28.62v8.39c-2.43.32-4.85.5-7.28.61s-4.86.17-7.28.18l-3.64,0c-1.22-.05-2.43-.06-3.64-.13-2.43-.12-4.86-.29-7.28-.63Z"/><path d="M1136.8,432v8.39c-2.43.32-4.85.5-7.28.61s-4.86.17-7.28.18l-3.64,0c-1.22-.05-2.43-.06-3.64-.13-2.43-.12-4.86-.29-7.28-.63V432c2.42-.34,4.85-.51,7.28-.63,1.21-.07,2.42-.09,3.64-.13l3.64,0c2.42,0,4.85.06,7.28.18S1134.37,431.68,1136.8,432Z"/><path d="M1252.92,932.61l-8.48-3.2-16-6.06-6.56-10.81,2.23,0h1.66v-1.69l-.65-77.27L1224.7,795l-.08-9.66c0-3.22,0-6.43-.15-9.66l-.54-19.31-1.08-38.61-1.23-38.63-.31-9.66c-.06-1.61-.08-3.22-.16-4.82l-.29-4.82-1.15-19.3-2.3-38.47v-.19h0l-10.35-77.1,1.19-50.91v-.54l.23-13.1,6.5,21.63,9.81,32.71-2.57,43.75L1219.9,598v.09l0,.13h0l2.34,20.14.07.61.75.87,5.46,5.91,13.38,14.5,4.77,5.19,1,1.09,2.19,2.38,15.11-9.78-1.43-2.49h0l-13.28-24.16-3.73-6.77-3-5.48,0-.07,2,0,1,0h.74l.31-1.74,2.79-15.39,1.64-9,4.27-24.41,4.29-24.41,2.14-12.21c.16-1,.35-2,.52-3.07a21,21,0,0,0,.2-3.54,21.77,21.77,0,0,0-1.36-6.94l.1.31-29.62-85.63a43.62,43.62,0,0,0-6-10.38,49.78,49.78,0,0,0-4-4.5c-.36-.36-.7-.67-1-1l-.52-.5-.57-.52c-.38-.36-.76-.68-1.14-1s-.77-.64-1.15-.94a73.21,73.21,0,0,0-9.91-6.51l-2-1.1-1.28-.65-.21-.11A99.63,99.63,0,0,0,1189,380.7a129.31,129.31,0,0,0-72.74,0A99.14,99.14,0,0,0,1100.5,387l-.22.11-1.28.65-2,1.1a73.74,73.74,0,0,0-9.9,6.51c-.38.3-.76.61-1.15.94s-.76.65-1.14,1l-.57.52-.52.5c-.34.33-.68.64-1,1a48.28,48.28,0,0,0-4,4.5,37.14,37.14,0,0,0-2.26,3.21c-.1.14-.19.28-.28.42a.6.6,0,0,0-.09.15c-.25.4-.49.79-.73,1.2l-.61,1.07c-.38.68-.8,1.47-1.1,2.13l-1,2L1065,430.33l-10.88,23-2.55,5.46-4,8.54-7.71-3.18-.6-.25v.1l-2.9-1.3-.15-.06-48.91-21.9L974,426l-.52-.57-1-.26-35.06-9.45h0l-2.77-.75-1.61,2.64-6.7,11.06-1.73,2.89,2.42,2.28,26.44,24.92.68.63.71.17L974.12,464h.06l-.5,1-.49,1-.51,1.07.29.17.89-2h.06l-.49,1h0l-.46,1,1.8,1c12.1,6.8,24.2,13.58,36.25,20.46l18.09,10.29,9.05,5.14,4.52,2.56L1045,508l1.14.65c.39.21.91.45,1.34.64a21.48,21.48,0,0,0,9,1.73,17.37,17.37,0,0,0,2.39-.19c.56-.07,1.11-.17,1.65-.29l.42-.1.23-.05.2-.05a21.54,21.54,0,0,0,10-5.71,21.85,21.85,0,0,0,3.48-4.63l2.56-4.52,7.6-13.41,2.65-4.68c2.79-4.92,5.62-9.8,8.45-14.7l.78-1.35.21,11.93v.54l1.19,50.91-10.35,77.1h0v.19l-2.3,38.47-1.15,19.3-.29,4.82c-.08,1.6-.1,3.21-.16,4.82l-.3,9.66-1.24,38.63-1.08,38.61-.54,19.31c-.12,3.23-.1,6.44-.15,9.66l-.08,9.66-.38,38.62-.65,77.27v1.69h1.66l2.24,0-6.57,10.81-16,6.06-8.47,3.2c-2.82,1.08-5.67,2.13-8.47,3.23l-2.18.84v17.46h3.43l77.65.05h3.48v-3.47l0-10,0-10,.06-19.84,0,.16,0-.27v.11l11.27-129.56c.13-1.35.22-2.7.38-4l.51-4.05,1-8.07,2-16.15,4.1-32.29,7-54.88,7,54.88,4.11,32.29,2,16.15,1,8.07.5,4.05c.17,1.34.26,2.69.39,4L1179,910.93l.06,19.84,0,10,0,10v3.47h3.48l77.64-.05h3.42V936.68l-2.18-.84C1258.59,934.74,1255.75,933.69,1252.92,932.61Zm-4.63-311.12,6.17,14.67,0,.09-3.17,1.91-2.06-2-4.29-4.08-16.81-16v-.08l-1.77-12.38-.49-3.44h13.46l3.51,8.38,5.38,12.79Zm-35.84-219.32.59.43.62.49h0l.08.05.12.09c.24.2.47.38.67.56l.43.36.46.42,0,0c.17.14.34.3.51.45l.26.23.22.21.88.85q1.31,1.29,2.49,2.7c.26.31.52.63.77.95s.49.64.73,1a34.56,34.56,0,0,1,2,3c.16.27.31.54.46.81.45.81.86,1.64,1.24,2.48.17.37.32.74.47,1.11l.23.58.25.63,1,2.62,2,5.25,4,10.51,7.94,21q1.17,3.08,2.32,6.17c4.51,12,8.94,24,13.42,36l.1.33a16.31,16.31,0,0,1,1.14,5.09,16.65,16.65,0,0,1-.09,2.64l-.45,3-1.89,12.22L1251.59,549l-1.26,8.17-2.51,16.29-1.49,9.15-2,12.36h0l-10.5-1.08-8,.8,4.33-80.19h0l0-.53-.16-.48-10.3-33.59,0-.14-7.35-25.17h-8.63l-.05,3.14-.29,16.77-.39,16.77c-.13,5.59-.32,11.19-.48,16.78l-.5,16.77V525l0,.32,2.24,19.36,2.1,19.37,2.16,19.37,1.58,13h0c-11.74-.74-44.36-2.69-54.42-3.3l.23-19.17.14-21.37.12-42.74L1156,467.1l-.14-21.37-.21-18.31,23.94-38.72q3.33.63,6.61,1.49a91.26,91.26,0,0,1,15.72,5.7,70.09,70.09,0,0,1,7.23,4c.86.55,1.72,1.12,2.54,1.7Zm-39-14.46-20.66,31.7-21-31.71a119.87,119.87,0,0,1,15.4-1.05H1158A120.1,120.1,0,0,1,1173.5,387.71ZM957.3,453.94l-21.57-22.77,3.36-6.09,31.2,6.12L983.74,443l-7.37,16.09ZM1099,564l.29-2.65,1.81-16.72,2.24-19.36,0-.28v-.26l-.5-16.77v-.07q-.12-4.15-.25-8.32v-.06c-.09-2.78-.17-5.55-.22-8.33l-.4-16.77-.29-16.77-.05-3.14H1093l-23.26,43.77,0,.06a16.82,16.82,0,0,1-2.12,2.7,16.48,16.48,0,0,1-7.55,4.43l-.55.13a0,0,0,0,0,0,0,12.51,12.51,0,0,1-1.36.25,17,17,0,0,1-3.7.08,16.67,16.67,0,0,1-5-1.28c-.36-.16-.6-.28-1-.46l-.07-.05-1.06-.6-2.25-1.29-4.51-2.57-9-5.16-18-10.31-33.89-19.38,5.32-9.12,3.54-10,48.85,23.06.86.41,10.09,4.79,1.08.51,2.78-5.28.28-.54.6-1.14,1.2-2.33h0l1.59-2.95h0l.71-1.32,14.83-27.5,0,0,8.55-15.84,1.07-2v0l.26-.47.23-.41c.16-.26.33-.54.49-.83.38-.63.8-1.24,1.23-1.84l.07-.11a34,34,0,0,1,2.13-2.81,40.36,40.36,0,0,1,3.36-3.55c.29-.27.67-.6,1-.89l.5-.45.42-.36c.2-.18.43-.36.67-.56l.2-.14v0c.38-.31.79-.61,1.21-.92,1.06-.81,2.19-1.56,3.34-2.3a70.09,70.09,0,0,1,7.23-4,91.26,91.26,0,0,1,15.72-5.7c2.22-.58,4.47-1.08,6.73-1.51l24.24,38.62-.21,18.43-.14,21.37-.12,42.74.12,42.74.14,21.37.22,19.15-54.85,3.34,1.58-13ZM1120,912.37l-.08,3.25v.19c-.07,1.66-.13,3.32-.23,5-.11,2.06-.26,4.12-.43,6.18l-.84,16.59h-1.31l-3.63,0-63.62.42-.81-2.91.07,0,30.82-12.4,1.15-.47.48-1,6.84-15.19.19-.42,31.43,0h0Zm59.24-66.68-1-11.87-1.75-20.58-1-11.52-.4-4.72-.23-2.89-1.05-13.35c0-.48-.08-1-.12-1.46s-.07-1-.12-1.47-.07-.76-.12-1.13l-.33-2.81-.15-1.24-1-8.08-1.9-16.18L1166.48,716q-1.2-11-2.39-22l-.48-4.56q-.64-6-1.26-12c-.37-3.59-.74-7.19-1.1-10.78-.26-2.6-.51-5.21-.77-7.82l-.72-7.71-.28-2.82h-13.72l-.28,2.82c-2,21.64-4.36,43.23-6.72,64.83l-3.68,32.37-1.9,16.18-1,8.08-.49,4.05c-.16,1.34-.23,2.71-.34,4.06l-1.3,16.24-1.37,16.24L1126,845.69l-5.37,59.3h0l-17.73-1-18.91,1.08.12-5.3q.67-28.56,1.28-57.14c.06-3,.12-5.93.17-8.9l.78-38.61.14-7,.06-2.66c0-.28,0-.56,0-.84,0-2.18.07-4.36.14-6.54,0-.75,0-1.51.08-2.27l.75-19.28,2.92-77.12q.12-4.83.35-9.64c.12-2.65.26-5.31.41-8l.18-3.21.54-8.91c.18-2.94.36-5.87.52-8.81s.34-5.58.49-8.37q.3-5.44.58-10.88v-.1l.89-17.2h0l116.47,0h0l.9,17.33c.33,6.41.67,12.84,1.07,19.25.72,12.84,1.67,25.67,2,38.53l2.91,77.12.75,19.28c.15,3.22.16,6.43.24,9.65l.2,9.65.78,38.61c.44,23.77,1,47.55,1.57,71.31h0l-18.34-1-18.29,1-3.49-38.59ZM1255.34,944l-63.63-.42-3.62,0h-1.31v-.19l-.83-16.4c-.17-2.06-.32-4.12-.43-6.18-.1-1.66-.16-3.32-.23-5l-.08-3.44,0-.79,31.44,0,.19.42,6.84,15.19.48,1,1.15.47,30.81,12.4.08,0Z"/><path d="M1051.51,458.74s0,0,0,.05l2.55-5.46Z"/><path d="M1118.41,311.64a36.56,36.56,0,0,0,.24,3.88c.09.69.19,1.31.29,1.9l.38,1.83c.61,3.52,1.32,7.1,2,10.57l3.06,15.49.23.78a24.83,24.83,0,0,0,2.46,5.78,25.17,25.17,0,0,0,8.76,8.88,25.48,25.48,0,0,0,5.71,2.54c1.1.33,2.08.55,3,.73s1.91.35,2.91.48a41.76,41.76,0,0,0,10.79,0c1-.13,2-.29,2.91-.48s1.88-.4,3-.73a25.48,25.48,0,0,0,5.71-2.54,25.17,25.17,0,0,0,8.76-8.88,24.83,24.83,0,0,0,2.46-5.78l.22-.75.46-2.2,2.6-13.28c.69-3.48,1.41-7.08,2-10.64l.36-1.79c.11-.6.21-1.22.29-1.91a34.05,34.05,0,0,0,.25-3.85c0-.43,0-.84,0-1.24,0-.85-.06-1.73-.15-2.6l-.4-2.85c0-.23-.1-.46-.15-.68l-.07-.29a35.14,35.14,0,0,0-6.55-13.89,34.62,34.62,0,0,0-12-9.71,35.09,35.09,0,0,0-7.32-2.65,31.45,31.45,0,0,0-15.5,0A34.64,34.64,0,0,0,1119.23,304l-.07.28c-.05.22-.11.45-.15.67l-.4,2.86c-.09.87-.12,1.75-.15,2.6C1118.44,310.84,1118.43,311.24,1118.41,311.64Zm45.64-23.2a25.9,25.9,0,0,1,9.37,6.87,27.09,27.09,0,0,1,5.54,10.44,2.29,2.29,0,0,0,.08.28,3.31,3.31,0,0,1,.12.42l.43,2.26c.09.58.14,1.18.19,1.81,0,.41.06.82.11,1.22a27.78,27.78,0,0,1-.05,3c0,.51-.09,1-.15,1.52l-.26,1.56c-.14.88-.34,1.77-.53,2.63s-.39,1.8-.54,2.71l-3.91,20.51-.15.51a18,18,0,0,1-1.75,4.19,18.21,18.21,0,0,1-6.33,6.4,17.87,17.87,0,0,1-4.17,1.85c-.77.23-1.67.43-2.29.56s-1.56.28-2.44.4a35,35,0,0,1-9,0c-.87-.12-1.67-.25-2.43-.4s-1.52-.33-2.3-.56a18,18,0,0,1-4.16-1.85,17.79,17.79,0,0,1-8.08-10.58l-.16-.57-3.9-20.47c-.15-.9-.35-1.82-.54-2.7s-.39-1.75-.53-2.62l-.26-1.58c-.06-.49-.11-1-.15-1.51a28.22,28.22,0,0,1,0-3c0-.37.08-.78.11-1.19,0-.63.1-1.23.19-1.83l.43-2.25a3.17,3.17,0,0,1,.12-.41c0-.09.05-.18.08-.28a27.09,27.09,0,0,1,5.54-10.44,25.9,25.9,0,0,1,9.37-6.87,25.26,25.26,0,0,1,9.87-2.13l.57,0h1l1.42,0A25.72,25.72,0,0,1,1164.05,288.44Z"/><polygon points="1246.89 600.22 1243.55 600.22 1243.51 600.15 1245.55 600.19 1246.51 600.21 1246.89 600.22"/><polygon points="973.43 466.31 973.44 466.32 972.98 467.29 972.96 467.34 972.95 467.34 972.97 467.29 973.86 465.27 973.92 465.28 973.43 466.31"/><polygon points="1036.33 462.7 1039.23 463.9 1039.23 464 1036.33 462.7"/><polygon points="1055.82 462.26 1053.03 467.55 1054.23 465.22 1054.23 465.21 1055.82 462.26"/><rect y="900" width="1300" height="100"/><path class="cls-1" d="M837,110.7V499.37a4.06,4.06,0,0,0,4,4.06h459V900H803.4V94.65A21.56,21.56,0,0,1,825,73.09h475v33.56H841A4.05,4.05,0,0,0,837,110.7Z"/><path class="cls-2" d="M1300,73.09H825A21.56,21.56,0,0,0,803.4,94.65V900"/><path class="cls-2" d="M1300,503.43H841a4.06,4.06,0,0,1-4-4.06V110.7a4.06,4.06,0,0,1,4-4.06h459"/><path class="cls-2" d="M1300,503.43H841a4.06,4.06,0,0,1-4-4.06V110.7a4.05,4.05,0,0,1,4-4h459"/><path class="cls-3" d="M925.05,503.43c0-44.42,32.77-80.43,73.19-80.43s73.19,36,73.19,80.43"/><path class="cls-1" d="M946.49,455.8l.56-.57,1.1-1.1,8.86-8.87,8.15-8.16,4.34-4.37a.53.53,0,0,0,0-.73l-1-1L933,395.58,930.37,393h0s0,0-.07-.06a.38.38,0,0,0-.16-.06.47.47,0,0,0-.35.08s0,0,0,0l0,0s0,0-.07.05L911,411.68,906.62,416a.46.46,0,0,0,0,.66l1,1L942,452.22l3.63,3.63h0l.09.07a.64.64,0,0,0,.19.08.63.63,0,0,0,.41-.1Z"/><path d="M900.3,417.48a7.64,7.64,0,0,0,2.18,5.24l34.58,34.45,2.63,2.63.26.25a7.72,7.72,0,0,0,1.17.87,7.64,7.64,0,0,0,8.27-.27c.19-.15.4-.29.57-.45l.27-.24.22-.2,1.66-1.67,8.88-8.86,8.17-8.14,4.51-4.51a7.6,7.6,0,0,0-.13-10.56l0,0L938.08,390.5l-1.62-1.64-.26-.24a7.77,7.77,0,0,0-1.18-.89,8,8,0,0,0-2.77-1,7.63,7.63,0,0,0-5.6,1.3c-.2.15-.41.28-.59.44l-.27.25-18.9,18.89-4.51,4.52A7.61,7.61,0,0,0,900.3,417.48ZM917,405.66,929.66,393l.05-.05,0,0s0,0,0,0a.5.5,0,0,1,.35-.07.25.25,0,0,1,.15.06.12.12,0,0,1,.08.06h0l2.63,2.63L968.5,431l1,1a.53.53,0,0,1,0,.73l-4.35,4.37L957,445.25l-.21.22ZM906.62,416l3.62-3.63,39.82,39.81-1.91,1.91-1.11,1.1-.55.57-.13.1a.58.58,0,0,1-.41.1.33.33,0,0,1-.19-.08.18.18,0,0,1-.09-.06h0L942,452.22l-34.4-34.54-1-1A.45.45,0,0,1,906.62,416Z"/></svg>