<svg width="1300" height="1000" fill="none" xmlns="http://www.w3.org/2000/svg"><path d="M0 900h1300v100H0V900Z" fill="#000"/><path fill-rule="evenodd" clip-rule="evenodd" d="M1300 107H822c-8.284 0-15 6.716-15 15v28h493v7H807v343h130.551c.212-46.083 34.54-83.5 76.689-83.5 23.38 0 44.35 11.513 58.43 29.631 3.38-19.796 9.72-48.473 20.25-70.131 15.04-29.151 42.84-34.537 82.9-34.979 40.12.434 65.13 5.804 80.18 34.979 17.52 36.035 23.43 91.5 23.43 93.163 0 9.783-.19 20.339-.47 30.837H1300v7H807v393h-7V120c0-11.046 8.954-20 20-20h480v7Zm-285.76 316.5c23.45 0 44.23 12.85 56.87 32.505-1.13 7.702-1.62 12.677-1.62 13.158 0 9.783.18 20.339.46 30.837H944.551c.21-42.233 31.389-76.5 69.689-76.5Zm63.24 48.971.1 27.529h6.35c-.06-11.066-2.24-21.587-6.12-31.087-.22 2.284-.32 3.558-.32 3.558h-.01Zm20.99-91.956c-10.95 23.345-16.6 56.069-19.16 75.531 7.29 12.77 11.54 27.832 11.62 43.954h16.67l2.81-30.909 7.46-50.009c.08-.608.59-1.065 1.21-1.07.72-.007 1.29.606 1.23 1.324L1116.92 488l-1.2 12h117.48l-1.2-12-3.4-68.664a1.235 1.235 0 0 1 1.24-1.324c.61.005 1.13.462 1.21 1.07l7.46 50.009 2.81 30.909h30.01l.11-27.529h-.01s-4.44-56.684-20.98-91.956c-14.15-28.45-36.9-32.048-74.63-32.494-37.97.425-63.15 3.937-77.35 32.494Z" fill="#000"/><path fill-rule="evenodd" clip-rule="evenodd" d="M1189.65 333.086c-3.77 1.408-10.81 1.91-12.65 1.914 0 0-8.3-.069-13.14-1.914-5.44-2.079-8.48-4.109-12.16-8.575-2.49-3.022-4.44-8.223-5.32-10.853a22.077 22.077 0 0 1-.8-3.31l-4.09-24.154s-.5-3.492-.49-5.742c.02-5.351.75-8.493 2.92-13.398 2.23-5.038 4.18-7.735 8.27-11.484 4.35-3.996 7.49-5.742 13.13-7.625 4.38-1.462 7.06-1.907 11.68-1.945 4.96.167 6.81.479 11.55 1.945 4.74 1.577 9.58 4.373 13.26 7.625 3.68 3.252 6.26 7.101 8.27 11.484s2.92 8.615 2.92 13.398c0 1.803-.2 3.959-.49 5.742l-4.86 23.833a25.09 25.09 0 0 1-1.01 3.617c-1.04 2.793-3.21 8.177-5.32 10.829-2.92 3.676-7.16 6.929-11.67 8.613Zm-2.46-6.699c-3.04 1.186-8.71 1.609-10.19 1.613 0 0-6.69-.058-10.58-1.613-4.39-1.752-6.83-3.462-9.8-7.226-1.95-2.474-3.48-6.68-4.22-8.951a20.428 20.428 0 0 1-.74-3.184l-3.27-20.155s-.4-2.943-.39-4.839c.02-4.509.6-7.156 2.35-11.29 1.8-4.246 3.37-6.518 6.66-9.677 3.51-3.368 6.04-4.839 10.58-6.426 3.53-1.232 5.68-1.607 9.41-1.639 4 .141 5.49.403 9.3 1.639 3.82 1.329 7.72 3.685 10.69 6.426 2.96 2.74 5.04 5.983 6.66 9.677s2.35 7.26 2.35 11.29c0 1.52-.16 3.337-.39 4.839l-3.88 19.862a24.563 24.563 0 0 1-.93 3.486c-.87 2.407-2.56 6.742-4.21 8.91-2.35 3.098-5.77 5.839-9.4 7.258Z" fill="#000"/></svg>