<svg id="Capa_1" data-name="Capa 1" xmlns="http://www.w3.org/2000/svg" viewBox="0 0 1300 1000"><defs><style>.cls-1{fill:#fff;}</style></defs><title>2-landmarks-expand</title><path class="cls-1" d="M1125.61,315.06c0,.51.08,1,.14,1.51l.26,1.58c.14.88.34,1.77.53,2.63s.4,1.8.55,2.71L1131,344l.16.57a19,19,0,0,0,1.75,4.18,18.29,18.29,0,0,0,10.53,8.28c.78.23,1.68.43,2.3.55s1.58.29,2.44.41a36.3,36.3,0,0,0,9,0c.87-.12,1.7-.26,2.45-.41s1.53-.32,2.3-.55a18.56,18.56,0,0,0,4.18-1.85,18.35,18.35,0,0,0,6.35-6.43,18.72,18.72,0,0,0,1.75-4.19l.15-.52,3.91-20.55c.16-.92.36-1.83.55-2.72s.39-1.75.54-2.63l.25-1.57c.06-.5.11-1,.15-1.52a27.86,27.86,0,0,0,0-3c0-.42-.08-.83-.11-1.23,0-.64-.1-1.24-.19-1.82l-.43-2.27c0-.14-.08-.28-.12-.42l-.09-.28a27,27,0,0,0-5.54-10.46,26.14,26.14,0,0,0-19-9l-1.42,0h-1.53a26.07,26.07,0,0,0-19.29,9,27.05,27.05,0,0,0-5.56,10.47c0,.09,0,.18-.07.27a3.84,3.84,0,0,0-.13.41l-.43,2.26c-.09.6-.14,1.2-.19,1.84,0,.4-.06.81-.11,1.18A26.25,26.25,0,0,0,1125.61,315.06Z"/><path class="cls-1" d="M1246.64,608.77h-7l.84,3.06,5.16,18.73-10.16,26.89h-3.77l-1.87-18.26-2.49-25.54,0-.38c-.17-1.72-.34-3.45-.5-5.17-1.51-15.56-2.88-31.12-4.31-46.68l-1.18-13-1.12-13-1.11-13-.55-6.48-.27-3.29c-.11-1.09-.25-2.16-.37-3.25l-2.75-25.91c-.48-4.32-.88-8.63-1.32-13s-.86-8.63-1.26-12.95l-.3-2.87h-8.62l0,3.14-.29,16.77-.39,16.75c-.13,5.59-.32,11.18-.48,16.77L1202,525v.22l0,.32,2.23,19.35,2.1,19.36,2.15,19.36,2.27,18.63.07.56,1,19c.33,6.41.67,12.83,1.06,19.23.73,12.84,1.67,25.66,2,38.52l2.91,77.08.75,19.26c.16,3.22.17,6.43.24,9.65l.2,9.65.78,38.58q.26,13.32.56,26.63H1180.7l-1.33-14.65-2.77-32.44-1.37-16.23-1.29-16.22c-.11-1.36-.18-2.72-.35-4.06l-.48-4-1-8.08-1.89-16.17-3.68-32.35c-2.36-21.59-4.71-43.17-6.72-64.8l-.28-2.81h-13.71l-.28,2.81c-2,21.63-4.36,43.21-6.71,64.8l-3.68,32.35-1.9,16.17-1,8.08-.47,4c-.17,1.34-.24,2.7-.36,4.06l-1.29,16.22-1.36,16.23-2.78,32.44-1.32,14.65h-39.66q.32-13.32.56-26.63l.77-38.58.2-9.65c.08-3.22.09-6.43.24-9.65l.75-19.26,2.92-77.08c.33-12.86,1.28-25.68,2-38.52q.59-9.6,1.07-19.23l.87-16.48.13-2.52.65-5.37,1.68-13.82,2.15-19.36,2.1-19.36,2.24-19.35,0-.32V525l-.49-16.76c-.16-5.59-.36-11.18-.48-16.77l-.39-16.75-.29-16.77-.06-3.15h-8.62l-.29,2.86q-.61,6.48-1.27,12.95c-.43,4.33-.83,8.64-1.31,13l-2.76,25.91c-.11,1.09-.25,2.16-.36,3.25l-.28,3.29-.55,6.48-1.11,13-1.11,13-1.18,13c-1.59,17.28-3.11,34.57-4.81,51.85l-2.53,25.92-1.87,18.27h-3.78l-10.14-26.88,4.65-16.93.49-1.8.85-3.06h-7v-.43l.37-37,0-2.47v0c.11-9.87.34-19.75.57-29.62l.39-18c.06-3,.15-6,.17-8.94s.28-5.8.61-8.66.82-5.73,1.44-8.56l.47-2.11.54-2.14c.38-1.48.67-2.93,1-4.39l3.9-17.57c2.59-11.72,5.28-23.41,7.93-35.12l2-8.79c.17-.77.33-1.34.49-2s.36-1.26.57-1.88a36.67,36.67,0,0,1,1.41-3.65,38,38,0,0,1,3.93-6.74c.78-1.05,1.61-2.05,2.48-3,.45-.47.87-1,1.35-1.39l.7-.68.79-.72.77-.7.68-.58c.47-.4,1-.79,1.53-1.19,1-.8,2.18-1.55,3.34-2.29a71,71,0,0,1,7.22-4,86,86,0,0,1,9.65-3.88h0c2-.66,4-1.26,6-1.8,1.14-.3,2.29-.58,3.44-.84q1.42-.32,2.85-.6,3-.58,6.06-1c.52-.08,1-.14,1.58-.21a120.14,120.14,0,0,1,12.45-.87l1.79,0h11.25q3.39,0,6.76.25c.66,0,1.33.08,2,.14.45,0,.9.07,1.34.12,1,.09,2.08.2,3.12.32l1.67.22h0c2,.27,4,.58,6.06,1,1.11.21,2.22.44,3.32.69l1.69.4,1.68.42a90,90,0,0,1,15.71,5.69,70.09,70.09,0,0,1,7.23,4c1.16.74,2.28,1.49,3.33,2.29.53.4,1.07.79,1.53,1.19.25.2.49.41.69.58l.77.7.79.72.7.68c.47.44.89.92,1.35,1.39.87,1,1.7,2,2.47,3a37.49,37.49,0,0,1,3.94,6.74,36.67,36.67,0,0,1,1.41,3.65c.21.62.39,1.26.57,1.88s.32,1.23.48,2l2,8.79c2.65,11.71,5.35,23.4,7.94,35.12l3.89,17.57c.35,1.46.63,2.91,1,4.39l.54,2.14.47,2.11q.92,4.25,1.44,8.56t.6,8.66c0,2.91.11,5.95.17,8.94l.4,18c.23,9.87.46,19.75.56,29.62,0,.81,0,1.62,0,2.44l.38,37.42Z"/><path d="M1136.57,432.61c-2.43-.33-4.87-.5-7.3-.62s-4.86-.17-7.3-.18l-3.65,0c-1.21.05-2.43.06-3.65.14-2.43.11-4.86.29-7.29.63V441c2.43.33,4.86.51,7.29.63,1.22.07,2.44.08,3.65.13l3.65,0c2.44,0,4.87-.05,7.3-.18s4.87-.29,7.3-.61Z"/><path d="M1187.09,310.73c0-.85-.06-1.74-.15-2.61l-.4-2.85c0-.24-.09-.46-.15-.69l-.07-.28a35.25,35.25,0,0,0-6.56-13.93A35.12,35.12,0,0,0,1160.41,278a31.61,31.61,0,0,0-15.54,0,35.08,35.08,0,0,0-7.34,2.66,34.69,34.69,0,0,0-12,9.74A35.15,35.15,0,0,0,1119,304.3l-.07.28c-.05.23-.11.45-.15.68l-.4,2.86c-.09.87-.12,1.76-.15,2.61,0,.4,0,.81,0,1.21a36.74,36.74,0,0,0,.24,3.89c.09.69.19,1.32.29,1.91l.38,1.83c.61,3.54,1.33,7.15,2,10.64l3.07,15.48.22.78a25.2,25.2,0,0,0,11.25,14.7,25.79,25.79,0,0,0,5.72,2.55c1.11.33,2.09.55,3,.73s1.92.35,2.92.48a41.91,41.91,0,0,0,10.81,0c1-.13,2-.3,2.93-.48s1.87-.4,3-.73a25.79,25.79,0,0,0,5.72-2.55,25.2,25.2,0,0,0,11.25-14.7l.21-.74.47-2.21,2.61-13.31c.69-3.49,1.41-7.1,2-10.67l.37-1.8c.11-.6.2-1.22.29-1.91a34.17,34.17,0,0,0,.24-3.86C1187.12,311.54,1187.11,311.14,1187.09,310.73Zm-34.45,47.55a35.26,35.26,0,0,1-4.51-.29l-.86-.12c-.55-.09-1.08-.18-1.58-.28l-.44-.09-.07,0-.53-.12c-.41-.1-.85-.21-1.26-.33a18.05,18.05,0,0,1-4.17-1.85,18.32,18.32,0,0,1-6.35-6.42,18,18,0,0,1-1.75-4.19L1131,344l-3.91-20.52c-.15-.9-.35-1.82-.54-2.7s-.39-1.76-.54-2.63l-.25-1.58c-.06-.5-.12-1-.15-1.52a28.4,28.4,0,0,1,0-3c0-.37.07-.78.11-1.19,0-.63.1-1.23.19-1.83l.43-2.26a3.71,3.71,0,0,1,.12-.41c0-.09.05-.19.08-.28a27.24,27.24,0,0,1,5.55-10.47,25.89,25.89,0,0,1,9.39-6.88,25,25,0,0,1,4.88-1.56c.41-.1.83-.18,1.25-.24s.84-.13,1.26-.18c.83-.09,1.67-.15,2.51-.16l.57,0h1l1.15,0h.26a23,23,0,0,1,2.5.19,25.47,25.47,0,0,1,7.15,1.95,25.8,25.8,0,0,1,9.39,6.88,27.1,27.1,0,0,1,5.55,10.47l.09.28a3.25,3.25,0,0,1,.11.42l.44,2.27c.09.58.13,1.18.19,1.81,0,.41.06.82.11,1.23a27.94,27.94,0,0,1-.06,3c0,.51-.09,1-.15,1.53l-.25,1.56c-.15.88-.34,1.78-.53,2.64s-.4,1.8-.55,2.71l-3.92,20.56-.15.51a17.91,17.91,0,0,1-1.75,4.2,18.32,18.32,0,0,1-6.35,6.42,18.05,18.05,0,0,1-4.17,1.85c-.78.23-1.68.43-2.3.56s-1.58.29-2.45.4l-1.1.13C1154.83,358.23,1153.71,358.29,1152.64,358.28Z"/><path d="M1250.67,630,1246,613.63h2.17l2.1,0,.12-22.95c-.13-17.13-.1-34.27,0-51.4l.07-18c0-3,0-6,.06-9s-.14-6.13-.42-9.19-.7-6.11-1.28-9.12c-.28-1.5-.61-3-.95-4.48s-.59-2.93-.89-4.39l-3.45-17.63-6.91-35.25-1.72-8.81c-.13-.71-.32-1.52-.49-2.3s-.38-1.54-.61-2.3a42.26,42.26,0,0,0-1.58-4.51,45.4,45.4,0,0,0-4.54-8.4,43.23,43.23,0,0,0-2.91-3.79c-.53-.61-1-1.21-1.6-1.78l-.82-.87-.83-.79a51.22,51.22,0,0,0-7.37-6,83.46,83.46,0,0,0-8-4.78,98.62,98.62,0,0,0-17.15-7,129.12,129.12,0,0,0-36.34-5.22,140.72,140.72,0,0,0-18.33,1.31,119.73,119.73,0,0,0-18,3.91,98,98,0,0,0-17.15,7,81.06,81.06,0,0,0-8,4.78,50.68,50.68,0,0,0-7.37,6l-.83.79-.82.87c-.56.57-1.08,1.17-1.61,1.78a45.16,45.16,0,0,0-2.9,3.79,46,46,0,0,0-4.55,8.4,44.53,44.53,0,0,0-1.57,4.51c-.23.76-.42,1.54-.61,2.3s-.36,1.59-.49,2.3l-1.72,8.81-6.92,35.25-3.45,17.63c-.3,1.46-.56,3-.88,4.39s-.68,3-1,4.48a90.11,90.11,0,0,0-1.28,9.12q-.42,4.59-.42,9.19c.05,3,.05,6,.06,9l.07,18c.09,17.13.12,34.27,0,51.4l.12,22.95,2.1,0h2.17L1054.69,630l-.19.69.19.7,9.69,34.8.51,1.87h2l11.06,0h2.43l.18-2.39,1.84-26,1.91-26,3.87-51.92q1-13,2-26l1-13,.51-6.49.25-3.23c.09-1.07.23-2.15.34-3.23l2.77-25.86,1.88-17,1.36,57.88-10.35,77v.2l-2.3,38.46L1084.47,660l-.28,4.81c-.08,1.61-.1,3.21-.17,4.83l-.3,9.65-1.23,38.6-1.09,38.6-.53,19.3c-.12,3.22-.1,6.44-.15,9.65l-.08,9.65-.38,38.61L1080,860.4h5q.3-13.3.55-26.63l.77-38.58.2-9.65c.08-3.21.09-6.42.24-9.64l.75-19.28,2.92-77.07c.34-12.86,1.27-25.68,2-38.52q.58-9.6,1.07-19.23l.87-16.48h0l116.48,0,.87,16.5c.34,6.41.67,12.83,1.07,19.23.72,12.84,1.66,25.66,2,38.52l2.91,77.07.76,19.28c.15,3.22.16,6.43.23,9.64l.2,9.65.77,38.58q.26,13.32.56,26.63h5l-.22-26.71-.37-38.61-.09-9.65c-.05-3.21,0-6.43-.15-9.65l-.54-19.3-1.09-38.6-1.22-38.6-.3-9.65c-.07-1.62-.09-3.22-.17-4.83l-.29-4.81-1.14-19.29-2.3-38.46V602l-10.34-77,1.35-57.88,1.9,17,2.76,25.86c.11,1.08.25,2.16.34,3.23l.25,3.23.51,6.49,1,13q1,13,2,26l3.87,51.92,1.91,26,1.84,26,.17,2.39h2.43l11.07,0h2l.52-1.87,9.69-34.8.18-.7Zm-191,.58,4.65-16.93H1078l-2.49,25.53-1.87,18.27h-3.77Zm90.15-202.68-.22,18.48-.14,21.41-.11,42.85.11,42.84.15,21.43.21,19.22-54.62,3.32h0l1.68-13.82,2.16-19.36,2.09-19.37,2.24-19.34,0-.32V525l-.49-16.76c-.16-5.59-.36-11.18-.48-16.77l-.4-16.76-.28-16.76-.06-3.14h-8.62l-.3,2.85c-.39,4.33-.83,8.65-1.26,13s-.84,8.64-1.31,13l-2.76,25.91c-.11,1.09-.25,2.16-.36,3.26l-.27,3.27-.56,6.49-1.1,13-1.12,13-1.18,13c-1.44,15.58-2.81,31.16-4.31,46.73l-9.07-.9-10.67,1.1h0l.37-37,0-2.48c.11-9.86.34-19.72.56-29.58l.4-18c.07-3,.15-6,.17-8.93s.28-5.79.61-8.67.82-5.72,1.44-8.55l.46-2.11.55-2.14c.38-1.48.67-2.93,1-4.4l3.9-17.56c2.59-11.72,5.29-23.41,7.93-35.13l2-8.78c.16-.77.32-1.34.48-2s.36-1.25.57-1.88a36.67,36.67,0,0,1,1.41-3.65,37.92,37.92,0,0,1,3.94-6.75c.77-1,1.6-2,2.47-3,.45-.47.87-1,1.35-1.39l.7-.68.79-.73.76-.69.69-.58c.47-.39,1-.79,1.53-1.19,1-.8,2.18-1.55,3.34-2.28a68.32,68.32,0,0,1,7.23-4,83.15,83.15,0,0,1,9.68-3.88h0q3-1,6-1.8c1.16-.3,2.31-.59,3.48-.84.94-.22,1.89-.42,2.84-.61h0l24.37,38.81Zm-18.31-39.82h0l1.58-.2a114.85,114.85,0,0,1,12.45-.87c.59,0,1.17,0,1.76,0h11.24q3.4,0,6.8.26c.66,0,1.33.08,2,.14.45,0,.89.07,1.34.12,1,.09,2.08.2,3.12.32l1.66.23-20.83,32Zm79.28,214.87,0-.13,0-.56Zm16,5.16c-1.51-15.56-2.88-31.12-4.31-46.68l-1.18-13-1.12-13-1.1-13-.56-6.49-.27-3.27c-.11-1.1-.25-2.17-.36-3.26l-2.76-25.91c-.48-4.32-.88-8.64-1.32-13s-.86-8.63-1.26-13l-.3-2.85h-8.61l-.06,3.14-.29,16.76-.39,16.76c-.13,5.59-.32,11.18-.48,16.77L1202,525v.22l0,.32,2.24,19.34,2.09,19.37,2.15,19.36,1.68,13.77c-12.22-.76-45.33-2.74-54.73-3.3l.21-19.19.15-21.43.11-42.84-.11-42.85-.14-21.41-.21-18.35h0l24.12-39c1.11.21,2.22.44,3.32.69l1.69.4,1.64.42a90.82,90.82,0,0,1,15.71,5.69,68.32,68.32,0,0,1,7.23,4c1.16.73,2.28,1.48,3.34,2.28.53.4,1.06.8,1.53,1.19l.68.58.77.69.79.73.7.68c.47.44.9.92,1.35,1.39.87,1,1.7,2,2.47,3a38.58,38.58,0,0,1,4,6.75c.52,1.2,1,2.4,1.4,3.65.21.63.39,1.26.57,1.88s.31,1.23.48,2l2,8.78c2.65,11.72,5.35,23.41,7.94,35.13l3.89,17.56c.35,1.47.63,2.92,1,4.4l.54,2.14.47,2.11c.62,2.83,1.09,5.67,1.44,8.55s.54,5.77.61,8.67.1,5.95.17,8.93l.39,18c.23,9.86.46,19.72.57,29.58l0,2.48.37,37.06-11.21-1.15-8.53.85Zm3,31.08-2.49-25.53H1241l4.65,16.93-10.15,26.88h-3.77Zm-53.29,174.14-1.37-16.23-1.29-16.22c-.11-1.36-.18-2.72-.35-4.06l-.48-4-1-8.07-1.9-16.18-3.67-32.35c-2.35-21.59-4.71-43.17-6.72-64.8l-.27-2.81h-13.72l-.27,2.81c-2,21.63-4.37,43.21-6.72,64.8l-3.68,32.35-1.9,16.18-1,8.07-.48,4c-.17,1.34-.24,2.7-.35,4.06l-1.29,16.22-1.37,16.23L1126,845.75l-1.32,14.65h6l6.87-78.94c.13-1.34.21-2.69.38-4l.51-4,1-8.07,2-16.13,4.1-32.28,7-54.85,7,54.85,4.1,32.28,2,16.13,1,8.07.51,4c.17,1.35.25,2.7.38,4l6.87,78.94h6.05l-1.33-14.65Z"/><polygon points="1207.07 524.87 1207.08 525.11 1207.08 525 1207.07 524.87"/><polygon points="1210.78 602.25 1210.81 602.8 1210.82 602.93 1210.78 602.25"/><path d="M1246.19,568.89c0,.81,0,1.63,0,2.44l0-2.47Z"/><polygon points="1210.78 602.25 1210.81 602.8 1210.82 602.93 1210.78 602.25"/><path class="cls-1" d="M837,110.7V499.37a4.06,4.06,0,0,0,4,4.06h459V900H803.4V94.65A21.56,21.56,0,0,1,825,73.09h475v33.56H841A4.05,4.05,0,0,0,837,110.7Z"/><path d="M807.4,900h-8V94.65A25.59,25.59,0,0,1,825,69.09h475v8H825A17.58,17.58,0,0,0,807.4,94.65Z"/><path d="M1300,507.43H841a8.07,8.07,0,0,1-8-8.06V110.7a8.06,8.06,0,0,1,8-8.06h459v8H841l0,388.73,459,.06Z"/><path d="M1300,507.43H841a8.07,8.07,0,0,1-8-8.06V110.7a8.06,8.06,0,0,1,8-8h459v8H841l0,388.72,459,.06Z"/><path d="M1074.93,503.43h-7c0-42.42-31.26-76.93-69.69-76.93S928.55,461,928.55,503.43h-7c0-46.28,34.4-83.93,76.69-83.93S1074.93,457.15,1074.93,503.43Z"/></svg>