<svg width="1300" height="1000" fill="none" xmlns="http://www.w3.org/2000/svg"><path d="m973.43 466.31.01.01-.46.97-.02.05h-.01l.02-.05.89-2.02.06.01-.49 1.03ZM0 900h1300v100H0V900Z" fill="#000"/><path fill-rule="evenodd" clip-rule="evenodd" d="M822 107h478v-7H820c-11.046 0-20 8.954-20 20v780h7V507h493v-7h-21.04c.28-10.498.47-21.054.47-30.838 0-1.662-5.91-57.127-23.43-93.162-15.05-29.175-40.06-34.545-80.18-34.979-36.98-.426-60.32 6.979-85.95 34.197C1069.5 406 1056 428.5 1056 428.5l-42.5-42-19.491-26.765 8.651-8.652a3.003 3.003 0 0 0 0-4.243l-41.718-41.719a3 3 0 0 0-4.243 0l-27.577 27.577a3 3 0 0 0 0 4.243l37.415 37.415L972 396l20.443 23.953c-31.58 10.264-54.718 42.239-54.892 80.047H807V157h493v-7H807v-28c0-8.284 6.716-15 15-15Zm152.09 268.017-1.128-4.135-.116-.117-2.639-9.017c-1.353-4.622 2.113-9.248 6.929-9.248a7.22 7.22 0 0 1 6.007 3.215L1006 390l31.28 30.37a70.363 70.363 0 0 0-23.04-3.87c-4.74 0-9.39.474-13.89 1.38L979.5 393.5l-5.41-18.483Zm-10.777-13.784L936.9 334.819l21.92-21.92 36.063 36.062-5.045 5.046-1.385-1.901c-2.992-4.281-9.286-7.313-14.375-6.135-6.557 1.519-11.567 8.651-10.765 15.262Zm34.093 64.535c-30.203 8.298-52.677 38.397-52.855 74.232h139.379c-.05-9.143-1.54-17.914-4.25-26.045l-16.84 19.646a5.007 5.007 0 0 1-7.6-.066l-57.834-67.767Zm79.274 40.521-15.39 17.554a3 3 0 0 1-4.56-.023l-51.08-59.739a63.72 63.72 0 0 1 8.59-.581c27.33 0 51.03 17.452 62.44 42.789Zm8.23 1.557c3.83 9.899 5.97 20.762 6.02 32.154h14.29l1.28-13 7-52.5-28.59 33.346ZM1113.27 500l1.23-12.5 5.91-68.427a.97.97 0 0 0-1.7-.717l-37 42.202c-5.11-10.31-12.13-19.325-20.55-26.469 5.54-8.886 17.2-27.469 34.06-53.574 21.78-29.515 62.28-32.707 80.27-32.494 37.97.425 60.76 3.937 74.96 32.494 16.54 35.272 20.98 91.956 20.98 91.956h.01l-.11 27.529h-30.01l-2.81-30.909-7.46-50.009a1.234 1.234 0 0 0-1.21-1.07 1.235 1.235 0 0 0-1.24 1.324L1232 488l1.2 12h-119.93Z" fill="#000"/><path fill-rule="evenodd" clip-rule="evenodd" d="M1177 335c1.84-.004 8.88-.506 12.65-1.914 4.51-1.684 8.75-4.937 11.67-8.613 2.11-2.652 4.28-8.036 5.32-10.829a25.09 25.09 0 0 0 1.01-3.617l4.86-23.833c.29-1.783.49-3.939.49-5.742 0-4.783-.91-9.015-2.92-13.398-2.01-4.383-4.59-8.232-8.27-11.484-3.68-3.252-8.52-6.048-13.26-7.625-4.74-1.466-6.59-1.778-11.55-1.945-4.62.038-7.3.483-11.68 1.945-5.64 1.883-8.78 3.629-13.13 7.625-4.09 3.749-6.04 6.446-8.27 11.484-2.17 4.905-2.9 8.047-2.92 13.398-.01 2.25.49 5.742.49 5.742l4.09 24.154c.19 1.122.44 2.231.8 3.31.88 2.63 2.83 7.831 5.32 10.853 3.68 4.466 6.72 6.496 12.16 8.575C1168.7 334.931 1177 335 1177 335Zm0-7c1.48-.004 7.15-.427 10.19-1.613 3.63-1.419 7.05-4.16 9.4-7.258 1.65-2.168 3.34-6.503 4.21-8.91.4-1.135.7-2.302.93-3.486l3.88-19.862c.23-1.502.39-3.319.39-4.839 0-4.03-.73-7.596-2.35-11.29-1.62-3.694-3.7-6.937-6.66-9.677-2.97-2.741-6.87-5.097-10.69-6.426-3.81-1.236-5.3-1.498-9.3-1.639-3.73.032-5.88.407-9.41 1.639-4.54 1.587-7.07 3.058-10.58 6.426-3.29 3.159-4.86 5.431-6.66 9.677-1.75 4.134-2.33 6.781-2.35 11.29-.01 1.896.39 4.839.39 4.839l3.27 20.155c.17 1.079.4 2.145.74 3.184.74 2.271 2.27 6.477 4.22 8.951 2.97 3.764 5.41 5.474 9.8 7.226C1170.31 327.942 1177 328 1177 328Z" fill="#000"/></svg>