<svg id="Capa_1" data-name="Capa 1" xmlns="http://www.w3.org/2000/svg" viewBox="0 0 1300 1000"><defs><style>.cls-1{fill:#fff;}</style></defs><title>2-landmarks-expand</title><polygon class="cls-1" points="1053.03 467.55 1052.43 468.69 1054.24 465.16 1054.25 465.15 1055.82 462.25 1055.82 462.26 1053.03 467.55"/><polygon class="cls-1" points="1079.93 417.55 1071.38 433.39 1079.94 417.5 1081 415.56 1079.93 417.55"/><polygon class="cls-1" points="1081.27 415.03 1081.5 414.65 1081.27 415.06 1081.01 415.53 1081.27 415.03"/><polygon class="cls-1" points="1103.29 525.31 1101.05 544.67 1099.24 561.39 1101.05 544.59 1103.29 525.24 1103.32 525.03 1103.29 525.31"/><path class="cls-1" d="M1118.6,441.16c-1.22-.05-2.43-.06-3.64-.13-2.43-.12-4.86-.29-7.28-.63V432c2.42-.34,4.85-.51,7.28-.63,1.21-.07,2.42-.09,3.64-.13l3.64,0c2.42,0,4.85.06,7.28.18s4.85.29,7.28.62v8.39c-2.43.32-4.85.5-7.28.61s-4.86.17-7.28.18Z"/><path class="cls-1" d="M1081.51,414.62c.15-.26.31-.54.48-.8-.16.29-.33.57-.49.83Z"/><path class="cls-1" d="M1257.75,506.54a18,18,0,0,1-.1,2.65l-.46,3-1.88,12.23-3.76,24.44-1.26,8.17-2.51,16.28-1.49,9.15-2,12.45-.23,1.39h-6.36l1,2.44.07.14.55,1.32,3.48,8.28,5.41,12.89,0,.1,6.17,14.67-3.17,1.9-2.06-2-4.29-4.06-16.78-16,0,0-1.79-12.45-.82-5.73.1-1.91,4.4-81.54h0l0-.54-.15-.48-10.3-33.57,0-.14-7.34-25.12v-.05h-8.62l-.06,3.14-.29,16.77-.39,16.76c-.12,5.59-.31,11.19-.47,16.77l-.5,16.77v.22l0,.32,2.24,19.35,2.09,19.37,2.16,19.36,1.59,13.1.74,6.1.09,1.77.91,17.23q.49,9.62,1.07,19.24c.72,12.84,1.67,25.66,2,38.52l2.91,77.11.75,19.27c.15,3.22.16,6.43.24,9.65l.2,9.65.77,38.58q.25,13.44.56,26.86h-39.65l-1.33-14.71-1-11.87-1.77-20.74-1-11.36-.4-4.72-.23-2.89-1.07-13.49c0-.44-.07-.88-.1-1.32s-.07-1-.12-1.47-.07-.76-.12-1.13a.66.66,0,0,0,0-.14l-.32-2.67-.15-1.24-1-8.08-1.9-16.18L1166.48,716l0-.13q-1.18-10.92-2.37-21.83l-.48-4.56q-.64-6-1.26-12c-.37-3.59-.74-7.19-1.1-10.78-.26-2.6-.51-5.21-.77-7.82s-.5-5.21-.74-7.82l-.26-2.71v-.1h-13.72l-.28,2.81c-2,21.64-4.36,43.22-6.71,64.81l-3.68,32.36-1.9,16.18-1,8.08-.48,4c-.16,1.34-.23,2.7-.35,4.06l-1.29,16.23-1.37,16.23L1126,845.53l-1.35,14.87H1085q.21-8.89.38-17.79l.18-9.07.78-38.58.13-6.85.06-2.66c0-.28,0-.56,0-.84,0-2.18.08-4.36.14-6.54,0-.75,0-1.51.08-2.27l.75-19.28,2.92-77.12q.12-4.83.35-9.64c.12-2.65.26-5.31.41-8l.18-3.21.54-8.91c.18-3,.36-5.95.52-8.92.17-2.75.33-5.51.49-8.26q.3-5.44.58-10.88v-.1l.9-17.2.09-1.8,2.33-19.11-1.58,13,54.85-3.34-.22-19.15-.14-21.37-.12-42.74.12-42.74.14-21.37.21-18.43-24.24-38.62c-2.26.43-4.51.93-6.73,1.51a91.26,91.26,0,0,0-15.72,5.7,70.09,70.09,0,0,0-7.23,4c-1.15.74-2.28,1.49-3.34,2.3-.42.31-.83.61-1.21.92v0l-.2.14c-.24.2-.47.38-.67.56l-.42.36-.5.45c-.33.29-.71.62-1,.89a40.36,40.36,0,0,0-3.36,3.55,34,34,0,0,0-2.13,2.81l-.07.11c-.43.6-.85,1.21-1.23,1.84a0,0,0,0,1,0,0c.38-.64.8-1.25,1.23-1.85a.34.34,0,0,1,.07-.11,33.6,33.6,0,0,1,2.14-2.81,38.78,38.78,0,0,1,3.36-3.55c.27-.26.66-.59,1-.88l.5-.46.42-.36.66-.55.2-.14,0,0c.38-.31.79-.62,1.21-.93,1.06-.8,2.18-1.56,3.33-2.29a70.28,70.28,0,0,1,7.23-4,90.43,90.43,0,0,1,15.72-5.7,113.28,113.28,0,0,1,28.18-3.53c.5,0,1,0,1.49,0h7.71q.75,0,1.5,0a113.34,113.34,0,0,1,28.18,3.53,90.33,90.33,0,0,1,15.71,5.7,67.27,67.27,0,0,1,7.23,4c.87.55,1.74,1.13,2.57,1.73l.77.56.62.47.62.49h0l.08.05.12.09.64.52.43.36.49.46,0,0c.17.14.34.3.51.45l.26.23.19.17c.31.29.62.59.91.89q1.31,1.29,2.49,2.7c.26.31.52.63.77.95s.49.64.73,1a34.56,34.56,0,0,1,2,3c.16.27.31.54.46.81.43.8.83,1.61,1.2,2.44.18.36.33.74.48,1.11l.23.58.24.64,1,2.62,2,5.24,4,10.5,7.94,21c.78,2.05,1.56,4.11,2.32,6.17,4.51,12,8.93,24,13.42,36l.1.34A16.48,16.48,0,0,1,1257.75,506.54Z"/><path d="M1187.18,310.42c0-.85-.06-1.73-.15-2.6l-.4-2.85a6.78,6.78,0,0,0-.15-.68l-.07-.28a35.05,35.05,0,0,0-6.54-13.89,31.86,31.86,0,0,0-2.49-2.86c-.22-.23-.45-.46-.68-.67-.46-.44-.94-.87-1.42-1.3,0,0,0,0,0,0a36,36,0,0,0-7.38-4.87,33.34,33.34,0,0,0-4.49-1.85c-.92-.31-1.86-.58-2.81-.81a33.57,33.57,0,0,0-20.19,1.48c-.9.35-1.78.75-2.64,1.18a37.68,37.68,0,0,0-4,2.28,33.69,33.69,0,0,0-8,7.42,35,35,0,0,0-6.54,13.9l-.07.28-.09.33a3.4,3.4,0,0,0-.07.34l-.39,2.85c-.1.88-.13,1.76-.16,2.61,0,.2,0,.4,0,.6s0,.4,0,.6,0,.64,0,1c0,.68.07,1.36.13,2l.09.88c0,.17,0,.34.07.51l.15,1c0,.15.05.3.08.45l.37,1.82c.61,3.52,1.32,7.11,2,10.58l.76,3.82,2.3,11.64v0l.22.79c.14.49.3,1,.47,1.47.06.19.13.37.21.56a3,3,0,0,0,.12.32,27.87,27.87,0,0,0,1.26,2.72l.4.71a25.52,25.52,0,0,0,2.23,3.21s0,0,0,0a25.62,25.62,0,0,0,6.51,5.63,26.23,26.23,0,0,0,5.72,2.54c1.09.32,2.07.54,3,.72s1.91.36,2.9.49a43,43,0,0,0,10.79,0c1-.13,2-.3,2.91-.49s1.88-.4,3-.72a25.94,25.94,0,0,0,5.71-2.54A25.09,25.09,0,0,0,1181,346.06l.21-.74.46-2.2,2.61-13.27c.69-3.49,1.4-7.09,2-10.64l.37-1.79c.11-.6.2-1.22.28-1.91a34.05,34.05,0,0,0,.25-3.85C1187.21,311.22,1187.2,310.83,1187.18,310.42Zm-52.74,39.89a14.92,14.92,0,0,1-1.33-1.95c-.21-.36-.4-.72-.58-1.1a16.78,16.78,0,0,1-.73-1.74c-.16-.43-.3-.88-.43-1.33l-.17-.57-3.9-20.47c-.07-.46-.16-.92-.25-1.37s-.19-.89-.29-1.33c0-.22-.1-.43-.14-.65-.1-.43-.19-.87-.27-1.31,0-.23-.09-.45-.13-.68l-.25-1.57c0-.22,0-.44-.07-.66s-.06-.56-.08-.84,0-.74,0-1.1q0-1,0-1.95l.06-.56c0-.2,0-.4.05-.61,0-.64.1-1.23.19-1.83l.43-2.25h0c0-.13.08-.27.11-.42a1.14,1.14,0,0,0,.09-.26c.13-.48.27-.95.43-1.42a24.93,24.93,0,0,1,1.42-3.44,26.86,26.86,0,0,1,3.69-5.58,25.79,25.79,0,0,1,9.37-6.87,25.5,25.5,0,0,1,9.88-2.14l.56,0h2.38a25.65,25.65,0,0,1,7.3,1.26c.78.25,1.55.55,2.31.88a26.27,26.27,0,0,1,8.42,5.81c.33.34.65.69,1,1.05h0a26.79,26.79,0,0,1,5.52,10.43l.09.27.12.43.42,2.26c.1.58.14,1.18.2,1.81,0,.41.06.81.1,1.23a25.3,25.3,0,0,1,0,3c0,.51-.08,1-.15,1.52l-.25,1.56c-.14.88-.34,1.77-.54,2.62s-.39,1.8-.54,2.72l-3.91,20.5-.14.51a19.12,19.12,0,0,1-1.75,4.19,18.29,18.29,0,0,1-6.33,6.4,18.49,18.49,0,0,1-4.17,1.85c-.78.23-1.67.43-2.29.55s-1.56.29-2.44.41a34.7,34.7,0,0,1-4.48.28,35.14,35.14,0,0,1-4.51-.28c-.86-.12-1.66-.26-2.43-.41-.61-.12-1.51-.32-2.29-.55a18.69,18.69,0,0,1-4.17-1.85,18.94,18.94,0,0,1-3.58-2.82A16.52,16.52,0,0,1,1134.44,350.31Z"/><path class="cls-1" d="M1125.81,314.74c0,.5.1,1,.16,1.51l.25,1.57c.15.88.35,1.77.54,2.62s.39,1.8.54,2.7l3.89,20.47.16.56a18.84,18.84,0,0,0,1.75,4.18,18.18,18.18,0,0,0,10.5,8.25c.77.23,1.68.43,2.29.55s1.56.29,2.43.41a36.22,36.22,0,0,0,9,0c.88-.12,1.67-.25,2.43-.41s1.52-.32,2.3-.55a17.86,17.86,0,0,0,12.24-12.43l.15-.52,3.91-20.5c.15-.91.35-1.82.54-2.71s.39-1.75.54-2.62l.24-1.57c.07-.5.13-1,.16-1.51a27.86,27.86,0,0,0,0-3c0-.41-.08-.82-.11-1.23,0-.63-.1-1.23-.19-1.8l-.43-2.27c0-.14-.07-.28-.11-.42s-.06-.18-.1-.28a26.77,26.77,0,0,0-5.53-10.43,26.1,26.1,0,0,0-19-9l-1.42,0h-1.53a26.1,26.1,0,0,0-19.24,9,27,27,0,0,0-5.53,10.44l-.09.27c0,.14-.08.28-.11.41l-.43,2.25c-.09.6-.14,1.2-.19,1.83,0,.41-.07.82-.11,1.18C1125.73,312.66,1125.75,313.68,1125.81,314.74Z"/><polygon class="cls-1" points="983.74 443 976.37 459.09 957.3 453.94 935.73 431.17 939.09 425.08 970.29 431.2 983.74 443"/><path class="cls-1" d="M1103.32,525l0,.28-2.24,19.36-1.81,16.72L1099,564l-2.16,19.37-1.58,13,54.85-3.34-.22-19.15-.14-21.37-.12-42.74.12-42.74.14-21.37.21-18.43-24.24-38.62c-2.26.43-4.51.93-6.73,1.51a91.26,91.26,0,0,0-15.72,5.7,70.09,70.09,0,0,0-7.23,4c-1.15.74-2.28,1.49-3.34,2.3-.42.31-.83.61-1.21.92v0l-.2.14c-.24.2-.47.38-.67.56l-.42.36-.5.45c-.33.29-.71.62-1,.89a40.36,40.36,0,0,0-3.36,3.55,34,34,0,0,0-2.13,2.81l-.07.11c-.43.6-.85,1.21-1.23,1.84-.16.29-.33.57-.49.83l-.23.41-.26.47v0l-1.07,2-8.55,15.84,0,0-14.83,27.5-.71,1.32h0l-2.79,5.29-.6,1.14-.28.54-2.78,5.28-1.08-.51-10.09-4.79-.86-.41-48.85-23.06-3.54,10-5.32,9.12,33.89,19.38,18,10.31,9,5.16,4.51,2.57,2.25,1.29,1.06.6.07.05c.36.18.6.3,1,.46a16.67,16.67,0,0,0,5,1.28,17,17,0,0,0,3.7-.08,12.51,12.51,0,0,0,1.36-.25,0,0,0,0,1,0,0l.55-.13a16.48,16.48,0,0,0,7.55-4.43,16.82,16.82,0,0,0,2.12-2.7l0-.06L1093,454.54h8.63l.05,3.14.29,16.77.4,16.77c.07,2.78.14,5.55.22,8.33v.06q.14,4.17.25,8.32V508l.5,16.77V525Zm4.36-93c2.42-.34,4.85-.51,7.28-.63,1.21-.07,2.42-.09,3.64-.13l3.64,0c2.42,0,4.85.06,7.28.18s4.85.29,7.28.62v8.39c-2.43.32-4.85.5-7.28.61s-4.86.17-7.28.18l-3.64,0c-1.22-.05-2.43-.06-3.64-.13-2.43-.12-4.86-.29-7.28-.63Z"/><path d="M1136.8,432v8.39c-2.43.32-4.85.5-7.28.61s-4.86.17-7.28.18l-3.64,0c-1.22-.05-2.43-.06-3.64-.13-2.43-.12-4.86-.29-7.28-.63V432c2.42-.34,4.85-.51,7.28-.63,1.21-.07,2.42-.09,3.64-.13l3.64,0c2.42,0,4.85.06,7.28.18S1134.37,431.68,1136.8,432Z"/><path d="M1263.57,636.64h0l-13.28-24.16-3.73-6.77-3-5.48,0-.07,2,0,1,0h.74l.31-1.74,2.79-15.39,1.64-9,4.27-24.41,4.29-24.41,2.14-12.21c.16-1,.35-2,.52-3.07a21,21,0,0,0,.2-3.54,21.77,21.77,0,0,0-1.36-6.94l.1.31-29.62-85.63a43.62,43.62,0,0,0-6-10.38,49.78,49.78,0,0,0-4-4.5c-.36-.36-.7-.67-1-1l-.52-.5-.57-.52c-.38-.36-.76-.68-1.14-1s-.77-.64-1.15-.94a73.21,73.21,0,0,0-9.91-6.51l-2-1.1-1.28-.65-.21-.11A99.63,99.63,0,0,0,1189,380.7a129.31,129.31,0,0,0-72.74,0A99.14,99.14,0,0,0,1100.5,387l-.22.11-1.28.65-2,1.1a73.74,73.74,0,0,0-9.9,6.51c-.38.3-.76.61-1.15.94s-.76.65-1.14,1l-.57.52-.52.5c-.34.33-.68.64-1,1a48.28,48.28,0,0,0-4,4.5,37.14,37.14,0,0,0-2.26,3.21c-.1.14-.19.28-.28.42a.6.6,0,0,0-.09.15c-.25.4-.49.79-.73,1.2l-.61,1.07c-.38.68-.8,1.47-1.1,2.13l-1,2L1065,430.33l-10.88,23-2.55,5.46-4,8.54-7.71-3.18-.6-.25v.1l-2.9-1.3-.15-.06-48.91-21.9L974,426l-.52-.57-1-.26-35.06-9.45h0l-2.77-.75-1.61,2.64-6.7,11.06-1.73,2.89,2.42,2.28,26.44,24.92.68.63.71.17L974.12,464h.06l-.5,1-.49,1-.51,1.07.29.17.89-2h.06l-.49,1h0l-.46,1,1.8,1c12.1,6.8,24.2,13.58,36.25,20.46l18.09,10.29,9.05,5.14,4.52,2.56L1045,508l1.14.65c.39.21.91.45,1.34.64a21.48,21.48,0,0,0,9,1.73,17.37,17.37,0,0,0,2.39-.19c.56-.07,1.11-.17,1.65-.29l.42-.1.23-.05.2-.05a21.54,21.54,0,0,0,10-5.71,21.85,21.85,0,0,0,3.48-4.63l2.56-4.52,7.6-13.41,2.65-4.68c2.79-4.92,5.62-9.8,8.45-14.7l.78-1.35.21,11.93v.54l1.19,50.91-10.35,77.1h0v.19l-2.3,38.47-1.15,19.3-.29,4.82c-.08,1.6-.1,3.21-.16,4.82l-.3,9.66-1.24,38.63-1.08,38.61-.54,19.31c-.12,3.23-.1,6.44-.15,9.66l-.08,9.66-.38,38.62-.23,26.78h5q.21-8.89.38-17.79c.06-3,.12-5.93.17-8.9l.78-38.61.14-7,.06-2.66c0-.28,0-.56,0-.84,0-2.18.07-4.36.14-6.54,0-.75,0-1.51.08-2.27l.75-19.28,2.92-77.12q.12-4.83.35-9.64c.12-2.65.26-5.31.41-8l.18-3.21.54-8.91c.18-2.94.36-5.87.52-8.81s.34-5.58.49-8.37q.3-5.44.58-10.88v-.1l.89-17.2h0l116.47,0h0l.9,17.33c.33,6.41.67,12.84,1.07,19.25.72,12.84,1.67,25.67,2,38.53l2.91,77.12.75,19.28c.15,3.22.16,6.43.24,9.65l.2,9.65.78,38.61q.24,13.35.54,26.69h5l-.23-26.78L1224.7,795l-.08-9.66c0-3.22,0-6.43-.15-9.66l-.54-19.31-1.08-38.61-1.23-38.63-.31-9.66c-.06-1.61-.08-3.22-.16-4.82l-.29-4.82-1.15-19.3-2.3-38.47v-.19h0l-10.35-77.1,1.19-50.91v-.54l.23-13.1,6.5,21.63,9.81,32.71-2.57,43.75L1219.9,598v.09l0,.13h0l2.34,20.14.07.61.75.87,5.46,5.91,13.38,14.5,4.77,5.19,1,1.09,2.19,2.38,15.11-9.78ZM957.3,453.94l-21.57-22.77,3.36-6.09,31.2,6.12L983.74,443l-7.37,16.09Zm137.91,142.5,1.58-13L1099,564l.29-2.65,1.81-16.72,2.24-19.36,0-.28v-.26l-.5-16.77v-.07q-.12-4.15-.25-8.32v-.06c-.09-2.78-.17-5.55-.22-8.33l-.4-16.77-.29-16.77-.05-3.14H1093l-23.26,43.77,0,.06a16.82,16.82,0,0,1-2.12,2.7,16.48,16.48,0,0,1-7.55,4.43l-.55.13a0,0,0,0,0,0,0,12.51,12.51,0,0,1-1.36.25,17,17,0,0,1-3.7.08,16.67,16.67,0,0,1-5-1.28c-.36-.16-.6-.28-1-.46l-.07-.05-1.06-.6-2.25-1.29-4.51-2.57-9-5.16-18-10.31-33.89-19.38,5.32-9.12,3.54-10,48.85,23.06.86.41,10.09,4.79,1.08.51,2.78-5.28.28-.54.6-1.14,1.2-2.33h0l1.59-2.95h0l.71-1.32,14.83-27.5,0,0,8.55-15.84,1.07-2v0l.26-.47.23-.41c.16-.26.33-.54.49-.83.38-.63.8-1.24,1.23-1.84l.07-.11a34,34,0,0,1,2.13-2.81,40.36,40.36,0,0,1,3.36-3.55c.29-.27.67-.6,1-.89l.5-.45.42-.36c.2-.18.43-.36.67-.56l.2-.14v0c.38-.31.79-.61,1.21-.92,1.06-.81,2.19-1.56,3.34-2.3a70.09,70.09,0,0,1,7.23-4,91.26,91.26,0,0,1,15.72-5.7c2.22-.58,4.47-1.08,6.73-1.51l24.24,38.62-.21,18.43-.14,21.37-.12,42.74.12,42.74.14,21.37.22,19.15Zm36.66-208.74a119.87,119.87,0,0,1,15.4-1.05H1158a120.1,120.1,0,0,1,15.53,1.06l-20.66,31.7Zm71.76,66.84-.05,3.14-.29,16.77-.39,16.77c-.13,5.59-.32,11.19-.48,16.78l-.5,16.77V525l0,.32,2.24,19.36,2.1,19.37,2.16,19.37,1.58,13h0c-11.74-.74-44.36-2.69-54.42-3.3l.23-19.17.14-21.37.12-42.74L1156,467.1l-.14-21.37-.21-18.31,23.94-38.72q3.33.63,6.61,1.49a91.26,91.26,0,0,1,15.72,5.7,70.09,70.09,0,0,1,7.23,4c.86.55,1.72,1.12,2.54,1.7l.8.6.59.43.62.49h0l.08.05.12.09c.24.2.47.38.67.56l.43.36.46.42,0,0c.17.14.34.3.51.45l.26.23.22.21.88.85q1.31,1.29,2.49,2.7c.26.31.52.63.77.95s.49.64.73,1a34.56,34.56,0,0,1,2,3c.16.27.31.54.46.81.45.81.86,1.64,1.24,2.48.17.37.32.74.47,1.11l.23.58.25.63,1,2.62,2,5.25,4,10.51,7.94,21q1.17,3.08,2.32,6.17c4.51,12,8.94,24,13.42,36l.1.33a16.31,16.31,0,0,1,1.14,5.09,16.65,16.65,0,0,1-.09,2.64l-.45,3-1.89,12.22L1251.59,549l-1.26,8.17-2.51,16.29-1.49,9.15-2,12.36h0l-10.5-1.08-8,.8,4.33-80.19h0l0-.53-.16-.48-10.3-33.59,0-.14-7.35-25.17Zm47.7,183.62-2.06-2-4.29-4.08-16.81-16v-.08l-1.77-12.38-.49-3.44h13.46l3.51,8.38,5.38,12.79,0,.1,6.17,14.67,0,.09Zm-73.06,195.66-1.75-20.58-1-11.52-.4-4.72-.23-2.89-1.05-13.35c0-.48-.08-1-.12-1.46s-.07-1-.12-1.47-.07-.76-.12-1.13l-.33-2.81-.15-1.24-1-8.08-1.9-16.18L1166.48,716q-1.2-11-2.39-22l-.48-4.56q-.64-6-1.26-12c-.37-3.59-.74-7.19-1.1-10.78-.26-2.6-.51-5.21-.77-7.82l-.72-7.71-.28-2.82h-13.72l-.28,2.82c-2,21.64-4.36,43.23-6.72,64.83l-3.68,32.37-1.9,16.18-1,8.08-.49,4.05c-.16,1.34-.23,2.71-.34,4.06l-1.3,16.24-1.37,16.24L1126,845.69l-1.33,14.71h6l6.87-79c.13-1.35.22-2.7.38-4l.51-4.05,1-8.07,2-16.15,4.1-32.29,7-54.88,7,54.88,4.11,32.29,2,16.15,1,8.07.5,4.05c.17,1.34.26,2.69.39,4l6.88,79h6l-1.33-14.71Z"/><path d="M1051.51,458.74s0,0,0,.05l2.55-5.46Z"/><path d="M1187.2,310.43c0-.86-.06-1.74-.15-2.61l-.4-2.84c0-.24-.09-.46-.15-.69l-.07-.28a35.07,35.07,0,0,0-6.55-13.89,29.41,29.41,0,0,0-2.5-2.86c-.22-.23-.45-.46-.68-.67-.46-.45-.93-.88-1.42-1.3,0,0,0,0,0,0a35.65,35.65,0,0,0-7.36-4.88,33,33,0,0,0-4.51-1.84c-.92-.31-1.86-.58-2.81-.81a33.57,33.57,0,0,0-20.19,1.48q-1.35.52-2.64,1.17a36.76,36.76,0,0,0-4,2.29,33.69,33.69,0,0,0-8,7.42,35,35,0,0,0-6.54,13.9l-.07.28-.09.33a3.43,3.43,0,0,0-.06.34l-.4,2.85c-.1.88-.13,1.76-.16,2.61,0,.2,0,.4,0,.6l0,.61c0,.32,0,.63,0,.95,0,.68.07,1.36.13,2,0,.29.06.59.1.88l.06.51.15,1c0,.15.05.3.08.45l.37,1.82c.61,3.52,1.32,7.11,2,10.58l.76,3.82,2.31,11.66.22.79c.14.49.3,1,.47,1.47.06.19.13.37.21.56a3,3,0,0,0,.12.32,23.85,23.85,0,0,0,1.26,2.72l.4.71a23.58,23.58,0,0,0,2.23,3.21s0,0,0,0a25.24,25.24,0,0,0,6.52,5.65,26.15,26.15,0,0,0,5.71,2.54c1.1.33,2.08.54,3,.73s1.91.35,2.91.48a42.89,42.89,0,0,0,10.78,0c1-.13,2-.3,2.92-.48s1.87-.4,3-.73a26,26,0,0,0,5.72-2.54,25.34,25.34,0,0,0,8.76-8.88,25.78,25.78,0,0,0,2.46-5.79l.21-.74.46-2.2,2.61-13.28c.69-3.48,1.4-7.08,2-10.64l.37-1.79c.11-.6.2-1.22.29-1.91a34,34,0,0,0,.24-3.85C1187.23,311.23,1187.22,310.83,1187.2,310.43Zm-59.9,12.72c-.07-.46-.16-.92-.25-1.37s-.2-.89-.29-1.33c0-.22-.1-.43-.14-.65-.1-.44-.19-.88-.27-1.31,0-.22-.08-.44-.12-.66l-.25-1.58c0-.22-.06-.45-.08-.67s-.06-.56-.08-.84,0-.74,0-1.1c0-.67,0-1.32,0-1.94,0-.19,0-.38,0-.57s0-.4.05-.61c0-.64.1-1.23.19-1.83l.43-2.25h0c0-.14.08-.27.12-.41a2.76,2.76,0,0,0,.08-.27c.13-.48.27-.95.43-1.42a27.68,27.68,0,0,1,1.42-3.44,26.86,26.86,0,0,1,3.69-5.58,25.79,25.79,0,0,1,9.37-6.87,25.5,25.5,0,0,1,9.88-2.14l.56,0h1l.92,0h.49a25.65,25.65,0,0,1,7.3,1.26,22.67,22.67,0,0,1,2.33.88,25.87,25.87,0,0,1,8.4,5.81c.33.33.65.69,1,1.05h0a27.11,27.11,0,0,1,5.54,10.43l.09.28a3.25,3.25,0,0,1,.11.42l.44,2.27c.08.58.13,1.17.18,1.81,0,.41.07.81.11,1.22a27.82,27.82,0,0,1-.05,3c0,.51-.09,1-.15,1.52l-.25,1.56c-.15.88-.34,1.77-.53,2.63s-.4,1.79-.55,2.71l-3.91,20.51-.15.51a17.71,17.71,0,0,1-8.08,10.59,18.41,18.41,0,0,1-4.16,1.85c-.78.23-1.68.43-2.3.55s-1.56.29-2.44.41a34.7,34.7,0,0,1-4.48.28,35.14,35.14,0,0,1-4.51-.28c-.87-.12-1.66-.25-2.43-.41-.61-.12-1.51-.32-2.29-.55a18.49,18.49,0,0,1-4.17-1.85,18,18,0,0,1-3.59-2.84,14.35,14.35,0,0,1-1.41-1.62,14.92,14.92,0,0,1-1.33-1.95c-.21-.36-.4-.72-.58-1.1a14.85,14.85,0,0,1-.73-1.74c-.16-.43-.3-.88-.43-1.33l-.17-.57Z"/><polygon points="1246.89 600.22 1243.55 600.22 1243.51 600.15 1245.55 600.19 1246.51 600.21 1246.89 600.22"/><polygon points="973.43 466.31 973.44 466.32 972.98 467.29 972.96 467.34 972.95 467.34 972.97 467.29 973.86 465.27 973.92 465.28 973.43 466.31"/><polygon points="1036.33 462.7 1039.23 463.9 1039.23 464 1036.33 462.7"/><polygon points="1055.82 462.26 1053.03 467.55 1054.23 465.22 1054.23 465.21 1055.82 462.26"/><path class="cls-1" d="M837,110.7V499.37a4.06,4.06,0,0,0,4,4.06h459V900H803.4V94.65A21.56,21.56,0,0,1,825,73.09h475v33.56H841A4.05,4.05,0,0,0,837,110.7Z"/><path d="M807.4,900h-8V94.65A25.59,25.59,0,0,1,825,69.09h475v8H825A17.58,17.58,0,0,0,807.4,94.65Z"/><path d="M1300,507.43H841a8.07,8.07,0,0,1-8-8.06V110.7a8.06,8.06,0,0,1,8-8.06h459v8H841l0,388.73,459,.06Z"/><path d="M1300,507.43H841a8.07,8.07,0,0,1-8-8.06V110.7a8.06,8.06,0,0,1,8-8h459v8H841l0,388.72,459,.06Z"/><path d="M1074.93,503.43h-7c0-42.42-31.26-76.93-69.69-76.93S928.55,461,928.55,503.43h-7c0-46.28,34.41-83.93,76.69-83.93S1074.93,457.15,1074.93,503.43Z"/><path class="cls-1" d="M946.49,455.8l.56-.57,1.1-1.1,8.86-8.87,8.15-8.16,4.34-4.37a.53.53,0,0,0,0-.73l-1-1L933,395.58,930.37,393h0s0,0-.07-.06a.38.38,0,0,0-.16-.06.47.47,0,0,0-.35.08s0,0,0,0l0,0s0,0-.07.05L911,411.68,906.62,416a.46.46,0,0,0,0,.66l1,1L942,452.22l3.63,3.63h0l.09.07a.64.64,0,0,0,.19.08.63.63,0,0,0,.41-.1Z"/><path d="M900.3,417.48a7.64,7.64,0,0,0,2.18,5.24l34.58,34.45,2.63,2.63.26.25a7.72,7.72,0,0,0,1.17.87,7.64,7.64,0,0,0,8.27-.27c.19-.15.4-.29.57-.45l.27-.24.22-.2,1.66-1.67,8.88-8.86,8.17-8.14,4.51-4.51a7.6,7.6,0,0,0-.13-10.56l0,0L938.08,390.5l-1.62-1.64-.26-.24a7.77,7.77,0,0,0-1.18-.89,8,8,0,0,0-2.77-1,7.63,7.63,0,0,0-5.6,1.3c-.2.15-.41.28-.59.44l-.27.25-18.9,18.89-4.51,4.52A7.61,7.61,0,0,0,900.3,417.48ZM917,405.66,929.66,393l.05-.05,0,0s0,0,0,0a.5.5,0,0,1,.35-.07.25.25,0,0,1,.15.06.12.12,0,0,1,.08.06h0l2.63,2.63L968.5,431l1,1a.53.53,0,0,1,0,.73l-4.35,4.37L957,445.25l-.21.22ZM906.62,416l3.62-3.63,39.82,39.81-1.91,1.91-1.11,1.1-.55.57-.13.1a.58.58,0,0,1-.41.1.33.33,0,0,1-.19-.08.18.18,0,0,1-.09-.06h0L942,452.22l-34.4-34.54-1-1A.45.45,0,0,1,906.62,416Z"/></svg>