<svg id="Capa_1" data-name="Capa 1" xmlns="http://www.w3.org/2000/svg" viewBox="0 0 1300 1000"><title>2-landmarks-expand</title><rect y="900" width="1300" height="100"/><path d="M679.35,507.92l-2.45,6.56H670l13.87-33.81h5.24L703,514.48h-6.86l-2.45-6.56Zm7.16-19.11-5.15,13.77H691.7Z"/><path d="M717.13,492.14c0-3.95,1-6.94,2.89-9s4.76-3,8.48-3,6.63,1,8.52,3,2.85,5,2.85,9v10.48q0,6.13-2.85,9.26c-1.89,2.1-4.73,3.14-8.52,3.14q-11.37,0-11.37-12.4Zm16.32,9.95v-9c0-2.58-.39-4.44-1.15-5.59a4.25,4.25,0,0,0-3.8-1.71,4.18,4.18,0,0,0-3.77,1.71q-1.12,1.72-1.13,5.59v9q0,3.87,1.13,5.61a4.15,4.15,0,0,0,3.77,1.74,4.19,4.19,0,0,0,3.82-1.74Q733.45,506,733.45,502.09Z"/><path d="M743.84,491.55v-6.61l7.2-4.27h6.42v33.81H751V487.39Z"/><path d="M795.88,572.6H634.63a19.14,19.14,0,0,1-19.12-19.12V444.33a19.15,19.15,0,0,1,19.12-19.12H795.88A19.15,19.15,0,0,1,815,444.33V553.48h0A19.14,19.14,0,0,1,795.88,572.6ZM634.63,433.21a11.13,11.13,0,0,0-11.12,11.12V553.48a11.13,11.13,0,0,0,11.12,11.12H795.88A11.13,11.13,0,0,0,807,553.48h0V444.33a11.13,11.13,0,0,0-11.12-11.12Z"/><path d="M815,900h-8V881.69a11.13,11.13,0,0,0-11.12-11.12H634.63a11.13,11.13,0,0,0-11.12,11.12V900h-8V881.69a19.15,19.15,0,0,1,19.12-19.12H795.88A19.15,19.15,0,0,1,815,881.69Z"/><path d="M783.39,552H647.12a8.06,8.06,0,0,1-8-8V453.82a8.06,8.06,0,0,1,8-8.05H783.39a8.06,8.06,0,0,1,8.05,8.05V544A8.06,8.06,0,0,1,783.39,552ZM647.12,453.77l0,90.22,136.32,0,.05,0V453.82Z"/><path d="M769.88,870.57H660.61a4,4,0,0,1-4-4v-298a4,4,0,0,1,4-4H769.88a4,4,0,0,1,4,4v298A4,4,0,0,1,769.88,870.57Zm-105.27-8H765.88v-290H664.61Z"/><rect x="690.56" y="589.6" width="49.36" height="8"/><path d="M715.24,640.83a4,4,0,0,1-2.59-1l-14.82-12.6a4,4,0,0,1-1.41-3V593.6a4,4,0,0,1,4-4H707a4,4,0,0,1,2.59.95l5.64,4.8,5.64-4.8a4,4,0,0,1,2.59-.95h6.58a4,4,0,0,1,4,4v30.63a4,4,0,0,1-1.41,3l-14.81,12.6A4,4,0,0,1,715.24,640.83Zm-10.82-18.45,10.82,9.2,10.81-9.2V597.6h-1.11l-7.11,6a4,4,0,0,1-5.18,0l-7.11-6h-1.12Z"/></svg>