<svg width="1300" height="1000" fill="none" xmlns="http://www.w3.org/2000/svg"><path d="M673 600.5a3.5 3.5 0 0 1 3.5-3.5h43a3.5 3.5 0 1 1 0 7h-43a3.5 3.5 0 0 1-3.5-3.5Z" fill="#000"/><path fill-rule="evenodd" clip-rule="evenodd" d="M615 357c-8.284 0-15 6.716-15 15v190c0 8.284 6.716 15 15 15h33v286h-10c-11.046 0-20 8.954-20 20v17h7v-15c0-8.284 6.716-15 15-15h116c8.284 0 15 6.716 15 15v15h7v-17c0-11.046-8.954-20-20-20h-10V577h37c8.284 0 15-6.716 15-15V372c0-8.284-6.716-15-15-15H615Zm126 506V577h-86v286h86ZM617 570c-5.523 0-10-4.477-10-10V374c0-5.523 4.477-10 10-10h166c5.523 0 10 4.477 10 10v186c0 5.523-4.477 10-10 10H617Z" fill="#000"/><path d="M0 900h1300v100H0V900Z" fill="#000"/></svg>