<svg width="1300" height="1000" viewBox="0 0 1300 1000" fill="none" xmlns="http://www.w3.org/2000/svg"><path d="M0 900h1300v100H0V900Z" fill="#000"/><path fill-rule="evenodd" clip-rule="evenodd" d="M676.5 597a3.5 3.5 0 1 0 0 7h1.5v25c0 5.523 4.477 10 10 10h20c5.523 0 10-4.477 10-10v-25h1.5a3.5 3.5 0 1 0 0-7h-43Zm8.5 7h26v23a5 5 0 0 1-5 5h-16a5 5 0 0 1-5-5v-23Zm18.442-151c-1.89 2.06-2.89 5.05-2.89 9v10.48c0 8.267 3.79 12.4 11.37 12.4 3.79 0 6.63-1.04 8.53-3.14 1.893-2.087 2.84-5.173 2.84-9.26V462c0-4-.94-7-2.84-9s-4.81-3-8.53-3c-3.72 0-6.59.94-8.48 3Zm13.43 9.95v9c0 2.607-.377 4.477-1.13 5.61a4.188 4.188 0 0 1-3.82 1.74 4.143 4.143 0 0 1-3.77-1.74c-.754-1.16-1.13-3.03-1.13-5.61v-9c.006-2.58.383-4.443 1.13-5.59a4.178 4.178 0 0 1 3.77-1.71 4.259 4.259 0 0 1 2.124.357c.665.3 1.242.766 1.676 1.353.76 1.15 1.15 3.01 1.15 5.59Zm-50.788 19.348 1.687-4.519h14.36l1.688 4.519a3.138 3.138 0 0 0 2.941 2.041c2.233 0 3.752-2.265 2.905-4.331l-11.099-27.055a3.909 3.909 0 0 0-7.229 0l-11.099 27.055c-.847 2.066.672 4.331 2.905 4.331a3.14 3.14 0 0 0 2.941-2.041Zm3.697-9.859 5.15-13.77 5.19 13.77h-10.34Z" fill="#000"/><path d="M727.271 456.435c0 2.21 2.394 3.591 4.308 2.486l2.892-1.672v23.88a3.21 3.21 0 0 0 6.42 0v-25.561a5.038 5.038 0 0 0-7.608-4.334l-4.605 2.731a2.872 2.872 0 0 0-1.407 2.47Z" fill="#000"/><path fill-rule="evenodd" clip-rule="evenodd" d="M615 357c-8.284 0-15 6.716-15 15v190c0 8.284 6.716 15 15 15h33v286h-10c-11.046 0-20 8.954-20 20v17h7v-15c0-8.284 6.716-15 15-15h116c8.284 0 15 6.716 15 15v15h7v-17c0-11.046-8.954-20-20-20h-10V577h37c8.284 0 15-6.716 15-15V372c0-8.284-6.716-15-15-15H615Zm126 506h-86V577h86v286Zm42-293c5.523 0 10-4.477 10-10V374c0-5.523-4.477-10-10-10H617c-5.523 0-10 4.477-10 10v186c0 5.523 4.477 10 10 10h166Z" fill="#000"/></svg>