<svg id="Capa_1" data-name="Capa 1" xmlns="http://www.w3.org/2000/svg" viewBox="0 0 1300 1000"><defs><style>.cls-1{fill:#fff;}</style></defs><title>2-landmarks-expand</title><path class="cls-1" d="M763,572.6v290h22a19.15,19.15,0,0,1,19.12,19.12V900H604.6v-18.3a19.15,19.15,0,0,1,19.12-19.12h22v-290h-22a19.15,19.15,0,0,1-19.12-19.12V444.33a19.14,19.14,0,0,1,19.12-19.12H785a19.14,19.14,0,0,1,19.12,19.12V553.48A19.15,19.15,0,0,1,785,572.6Z"/><path d="M785,572.6H623.72a19.14,19.14,0,0,1-19.12-19.12V444.33a19.15,19.15,0,0,1,19.12-19.12H785a19.15,19.15,0,0,1,19.12,19.12V553.48A19.14,19.14,0,0,1,785,572.6ZM623.72,433.21a11.13,11.13,0,0,0-11.12,11.12V553.48a11.13,11.13,0,0,0,11.12,11.12H785a11.13,11.13,0,0,0,11.12-11.12V444.33A11.13,11.13,0,0,0,785,433.21Z"/><path d="M804.09,900h-8V881.69A11.13,11.13,0,0,0,785,870.57H623.72a11.13,11.13,0,0,0-11.12,11.12V900h-8V881.69a19.15,19.15,0,0,1,19.12-19.12H785a19.15,19.15,0,0,1,19.12,19.12Z"/><path d="M772.48,552H636.21a8.06,8.06,0,0,1-8.05-8V453.82a8.06,8.06,0,0,1,8.05-8.05H772.48a8.06,8.06,0,0,1,8,8.05V544A8.06,8.06,0,0,1,772.48,552ZM636.21,453.77,636.16,544l136.32,0,0,0V453.82Z"/><path d="M759,870.57H649.7a4,4,0,0,1-4-4v-298a4,4,0,0,1,4-4H759a4,4,0,0,1,4,4v298A4,4,0,0,1,759,870.57Zm-105.27-8H755v-290H653.7Z"/><rect x="679.65" y="589.6" width="49.36" height="8"/></svg>