<svg id="Capa_1" data-name="Capa 1" xmlns="http://www.w3.org/2000/svg" viewBox="0 0 1300 1000"><title>2-landmarks-expand</title><rect y="900" width="1300" height="100"/><path d="M796.82,572.6H635.57a19.14,19.14,0,0,1-19.12-19.12V444.33a19.15,19.15,0,0,1,19.12-19.12H796.82a19.15,19.15,0,0,1,19.12,19.12V553.48A19.14,19.14,0,0,1,796.82,572.6ZM635.57,433.21a11.13,11.13,0,0,0-11.12,11.12V553.48a11.13,11.13,0,0,0,11.12,11.12H796.82a11.13,11.13,0,0,0,11.12-11.12V444.33a11.13,11.13,0,0,0-11.12-11.12Z"/><path d="M815.94,900h-8V881.69a11.13,11.13,0,0,0-11.12-11.12H635.57a11.13,11.13,0,0,0-11.12,11.12V900h-8V881.69a19.15,19.15,0,0,1,19.12-19.12H796.82a19.15,19.15,0,0,1,19.12,19.12Z"/><path d="M784.33,552H648.06a8.06,8.06,0,0,1-8-8V453.82a8.06,8.06,0,0,1,8-8.05H784.33a8.06,8.06,0,0,1,8,8.05V544A8.06,8.06,0,0,1,784.33,552ZM648.06,453.77,648,544l136.32,0,0,0V453.82Z"/><path d="M770.82,870.57H661.55a4,4,0,0,1-4-4v-298a4,4,0,0,1,4-4H770.82a4,4,0,0,1,4,4v298A4,4,0,0,1,770.82,870.57Zm-105.27-8H766.82v-290H665.55Z"/><rect x="691.5" y="589.6" width="49.36" height="8"/></svg>