<svg width="1300" height="1000" viewBox="0 0 1300 1000" fill="none" xmlns="http://www.w3.org/2000/svg">
<path fill-rule="evenodd" clip-rule="evenodd" d="M690 312C681.716 312 675 318.716 675 327V481C675 489.284 681.716 496 690 496H817C825.284 496 832 489.284 832 481V327C832 318.716 825.284 312 817 312H690ZM692.016 319.472C686.493 319.472 682.016 323.949 682.016 329.472V478.528C682.016 484.051 686.493 488.528 692.016 488.528H814.982C820.505 488.528 824.982 484.051 824.982 478.528V329.472C824.982 323.949 820.505 319.472 814.982 319.472H692.016Z" fill="black"/>
<path d="M0 900H1300V1000H0V900Z" fill="black"/>
<path fill-rule="evenodd" clip-rule="evenodd" d="M727 375C725.895 375 725 375.895 725 377V431C725 432.105 725.895 433 727 433H781C782.105 433 783 432.105 783 431V377C783 375.895 782.105 375 781 375H727ZM731 380C730.448 380 730 380.448 730 381V427C730 427.552 730.448 428 731 428H777C777.552 428 778 427.552 778 427V381C778 380.448 777.552 380 777 380H731Z" fill="black"/>
<path d="M768 418H774V424H768V418Z" fill="black"/>
<path d="M768 406H774V412H768V406Z" fill="black"/>
<path d="M756 412H762V418H756V412Z" fill="black"/>
<path d="M756 406H762V412H756V406Z" fill="black"/>
<path d="M762 412H768V418H762V412Z" fill="black"/>
<path d="M762 418H768V424H762V418Z" fill="black"/>
<path d="M739.531 389.531H746.542V396.542H739.531V389.531Z" fill="black"/>
<path d="M739.609 411.609H746.62V418.62H739.609V411.609Z" fill="black"/>
<path d="M761.613 389.609H768.624V396.62H761.613V389.609Z" fill="black"/>
<path fill-rule="evenodd" clip-rule="evenodd" d="M735.422 383.922C734.593 383.922 733.922 384.593 733.922 385.422V400.65C733.922 401.479 734.593 402.15 735.422 402.15H750.65C751.479 402.15 752.15 401.479 752.15 400.65V385.422C752.15 384.593 751.479 383.922 750.65 383.922H735.422ZM749.348 386.727H736.728V399.346H749.348V386.727Z" fill="black"/>
<path fill-rule="evenodd" clip-rule="evenodd" d="M735.5 406C734.672 406 734 406.672 734 407.5V422.729C734 423.557 734.672 424.229 735.5 424.229H750.729C751.557 424.229 752.229 423.557 752.229 422.729V407.5C752.229 406.672 751.557 406 750.729 406H735.5ZM749.426 408.805H736.806V421.425H749.426V408.805Z" fill="black"/>
<path fill-rule="evenodd" clip-rule="evenodd" d="M757.5 384C756.672 384 756 384.672 756 385.5V400.729C756 401.557 756.672 402.229 757.5 402.229H772.729C773.557 402.229 774.229 401.557 774.229 400.729V385.5C774.229 384.672 773.557 384 772.729 384H757.5ZM771.426 386.805H758.806V399.425H771.426V386.805Z" fill="black"/>
</svg>
