<svg id="Capa_1" data-name="Capa 1" xmlns="http://www.w3.org/2000/svg" viewBox="0 0 1300 1000"><defs><style>.cls-1{fill:#fff;}</style></defs><title>2-landmarks-expand</title><path class="cls-1" d="M762,572.6v290h22a19.15,19.15,0,0,1,19.12,19.12V900H603.66v-18.3a19.15,19.15,0,0,1,19.12-19.12h22v-290h-22a19.15,19.15,0,0,1-19.12-19.12V444.33a19.14,19.14,0,0,1,19.12-19.12H784a19.14,19.14,0,0,1,19.12,19.12V553.48A19.15,19.15,0,0,1,784,572.6Z"/><path d="M667.5,507.92l-2.45,6.56h-6.86l13.87-33.81h5.24l13.87,33.81h-6.86l-2.45-6.56Zm7.16-19.11-5.15,13.77h10.34Z"/><path d="M705.28,492.14c0-3.95,1-6.94,2.89-9s4.76-3,8.48-3,6.63,1,8.53,3,2.84,5,2.84,9v10.48q0,6.13-2.84,9.26c-1.9,2.1-4.74,3.14-8.53,3.14q-11.37,0-11.37-12.4Zm16.32,9.95v-9c0-2.58-.39-4.44-1.15-5.59a4.25,4.25,0,0,0-3.8-1.71,4.18,4.18,0,0,0-3.77,1.71q-1.12,1.72-1.13,5.59v9q0,3.87,1.13,5.61a4.15,4.15,0,0,0,3.77,1.74,4.19,4.19,0,0,0,3.82-1.74Q721.6,506,721.6,502.09Z"/><path d="M732,491.55v-6.61l7.2-4.27h6.42v33.81h-6.42V487.39Z"/><path d="M784,572.6H622.78a19.14,19.14,0,0,1-19.12-19.12V444.33a19.15,19.15,0,0,1,19.12-19.12H784a19.15,19.15,0,0,1,19.12,19.12V553.48A19.14,19.14,0,0,1,784,572.6ZM622.78,433.21a11.13,11.13,0,0,0-11.12,11.12V553.48a11.13,11.13,0,0,0,11.12,11.12H784a11.13,11.13,0,0,0,11.12-11.12V444.33A11.13,11.13,0,0,0,784,433.21Z"/><path d="M803.15,900h-8V881.69A11.13,11.13,0,0,0,784,870.57H622.78a11.13,11.13,0,0,0-11.12,11.12V900h-8V881.69a19.15,19.15,0,0,1,19.12-19.12H784a19.15,19.15,0,0,1,19.12,19.12Z"/><path d="M771.54,552H635.27a8.06,8.06,0,0,1-8-8V453.82a8.06,8.06,0,0,1,8-8.05H771.54a8.06,8.06,0,0,1,8.05,8.05V544A8.06,8.06,0,0,1,771.54,552ZM635.27,453.77l0,90.22,136.32,0,.05,0V453.82Z"/><path d="M758,870.57H648.76a4,4,0,0,1-4-4v-298a4,4,0,0,1,4-4H758a4,4,0,0,1,4,4v298A4,4,0,0,1,758,870.57Zm-105.28-8H754v-290H652.76Z"/><rect x="678.72" y="589.6" width="49.36" height="8"/><path d="M703.39,640.83a4,4,0,0,1-2.59-1L686,627.28a4,4,0,0,1-1.41-3V593.6a4,4,0,0,1,4-4h6.59a4,4,0,0,1,2.59.95l5.64,4.8,5.64-4.8a4,4,0,0,1,2.59-.95h6.58a4,4,0,0,1,4,4v30.63a4,4,0,0,1-1.41,3L706,639.88A4,4,0,0,1,703.39,640.83Zm-10.82-18.45,10.82,9.2,10.81-9.2V597.6h-1.11l-7.11,6a4,4,0,0,1-5.18,0l-7.11-6h-1.12Z"/></svg>