<svg width="1300" height="1000" viewBox="0 0 1300 1000" fill="none" xmlns="http://www.w3.org/2000/svg"><path fill-rule="evenodd" clip-rule="evenodd" d="M740 312c-8.284 0-15 6.716-15 15v154c0 8.284 6.716 15 15 15h127c8.284 0 15-6.716 15-15V327c0-8.284-6.716-15-15-15H740Zm2.016 7.472c-5.523 0-10 4.477-10 10v149.056c0 5.523 4.477 10 10 10h122.966c5.523 0 10-4.477 10-10V329.472c0-5.523-4.477-10-10-10H742.016Z" fill="#000"/><path d="M0 900h1300v100H0V900Z" fill="#000"/><path fill-rule="evenodd" clip-rule="evenodd" d="M777 375a2 2 0 0 0-2 2v54a2 2 0 0 0 2 2h54a2 2 0 0 0 2-2v-54a2 2 0 0 0-2-2h-54Zm4 5a1 1 0 0 0-1 1v46a1 1 0 0 0 1 1h46a1 1 0 0 0 1-1v-46a1 1 0 0 0-1-1h-46Z" fill="#000"/><path d="M818 418h6v6h-6v-6Zm0-12h6v6h-6v-6Zm-12 6h6v6h-6v-6Zm0-6h6v6h-6v-6Zm6 6h6v6h-6v-6Zm0 6h6v6h-6v-6Zm-22.469-28.469h7.011v7.011h-7.011v-7.011Zm.078 22.078h7.011v7.011h-7.011v-7.011Zm22.004-22h7.011v7.011h-7.011v-7.011Z" fill="#000"/><path fill-rule="evenodd" clip-rule="evenodd" d="M785.422 383.922a1.5 1.5 0 0 0-1.5 1.5v15.228a1.5 1.5 0 0 0 1.5 1.5h15.228a1.5 1.5 0 0 0 1.5-1.5v-15.228a1.5 1.5 0 0 0-1.5-1.5h-15.228Zm13.926 2.805h-12.62v12.619h12.62v-12.619ZM785.5 406a1.5 1.5 0 0 0-1.5 1.5v15.229a1.5 1.5 0 0 0 1.5 1.5h15.229a1.5 1.5 0 0 0 1.5-1.5V407.5a1.5 1.5 0 0 0-1.5-1.5H785.5Zm13.926 2.805h-12.62v12.62h12.62v-12.62ZM807.5 384a1.5 1.5 0 0 0-1.5 1.5v15.229a1.5 1.5 0 0 0 1.5 1.5h15.229a1.5 1.5 0 0 0 1.5-1.5V385.5a1.5 1.5 0 0 0-1.5-1.5H807.5Zm13.926 2.805h-12.62v12.62h12.62v-12.62Z" fill="#000"/></svg>