<svg id="Capa_1" data-name="Capa 1" xmlns="http://www.w3.org/2000/svg" viewBox="0 0 1300 1000"><defs><style>.cls-1{fill:#fff;}</style></defs><title>2-landmarks-expand</title><polygon points="377.51 948.54 265.57 1000 0 1000 0 899 268.88 899 377.51 948.54"/><polygon points="490.36 1000 284.73 1000 387.13 952.93 490.36 1000"/><polygon points="485.28 899 387.12 944.13 288.16 899 485.28 899"/><polygon points="500 901.04 500 995.6 396.73 948.51 500 901.04"/><rect class="cls-1" x="258" y="899" width="8" height="6"/><path class="cls-1" d="M266,981.19h-8v-12.7h8Zm0-25.4h-8V943.1h8Zm0-25.39h-8V917.7h8Z"/><rect class="cls-1" x="258" y="993.89" width="8" height="6"/><polygon class="cls-1" points="500 901.04 396.73 948.51 500 995.6 500 1000 490.36 1000 387.13 952.93 284.73 1000 265.57 1000 377.51 948.54 268.88 899 288.16 899 387.12 944.13 485.28 899 500 899 500 901.04"/><path d="M1198.37,598.92H596a8.06,8.06,0,0,1-8-8.06V218.07a8.06,8.06,0,0,1,8-8h602.38a8.06,8.06,0,0,1,8.05,8V590.86A8.06,8.06,0,0,1,1198.37,598.92ZM596,218l0,372.84,602.43.06a.06.06,0,0,0,.05-.06V218.07Z"/><path d="M1224.08,941.71h-126v-8h126a17.58,17.58,0,0,0,17.56-17.56V97.5a17.58,17.58,0,0,0-17.56-17.56H569.6A17.58,17.58,0,0,0,552,97.5V916.15a17.58,17.58,0,0,0,17.56,17.56h126v8h-126A25.59,25.59,0,0,1,544,916.15V97.5A25.59,25.59,0,0,1,569.6,71.94h654.48a25.59,25.59,0,0,1,25.56,25.56V916.15A25.59,25.59,0,0,1,1224.08,941.71Z"/><path d="M1076.53,974.11H717.15a25.59,25.59,0,0,1-25.56-25.56V928a25.59,25.59,0,0,1,25.56-25.56h359.38A25.59,25.59,0,0,1,1102.09,928v20.54A25.59,25.59,0,0,1,1076.53,974.11ZM717.15,910.45A17.58,17.58,0,0,0,699.59,928v20.54a17.58,17.58,0,0,0,17.56,17.56h359.38a17.58,17.58,0,0,0,17.56-17.56V928a17.58,17.58,0,0,0-17.56-17.56Z"/><rect x="548.38" y="870.79" width="697.6" height="8"/><rect x="548.38" y="130.36" width="697.6" height="8"/><path d="M629.18,795a41.24,41.24,0,1,1,41.24-41.24A41.29,41.29,0,0,1,629.18,795Zm0-74.48a33.24,33.24,0,1,0,33.24,33.24A33.28,33.28,0,0,0,629.18,720.49Z"/><path d="M724.65,795a41.24,41.24,0,1,1,41.24-41.24A41.29,41.29,0,0,1,724.65,795Zm0-74.48a33.24,33.24,0,1,0,33.24,33.24A33.28,33.28,0,0,0,724.65,720.49Z"/><path d="M1069.88,795a41.24,41.24,0,1,1,41.24-41.24A41.29,41.29,0,0,1,1069.88,795Zm0-74.48a33.24,33.24,0,1,0,33.24,33.24A33.28,33.28,0,0,0,1069.88,720.49Z"/><path d="M1165.35,795a41.24,41.24,0,1,1,41.24-41.24A41.29,41.29,0,0,1,1165.35,795Zm0-74.48a33.24,33.24,0,1,0,33.24,33.24A33.28,33.28,0,0,0,1165.35,720.49Z"/></svg>