<svg id="Capa_1" data-name="Capa 1" xmlns="http://www.w3.org/2000/svg" viewBox="0 0 1300 1000"><defs><style>.cls-1{fill:#fff;}</style></defs><title>2-landmarks-expand</title><path class="cls-1" d="M995.54,904V179a4.05,4.05,0,0,0-4-4H503.33a4.05,4.05,0,0,0-4.05,4V904Z"/><path d="M995.54,908H499.28a4,4,0,0,1-4-4V179a8.06,8.06,0,0,1,8.05-8H991.49a8.06,8.06,0,0,1,8,8V904A4,4,0,0,1,995.54,908Zm-492.26-8H991.54V179l-488.21,0Z"/><rect x="591.79" y="174.96" width="8" height="729.04"/><rect x="899.53" y="174.96" width="8" height="729.04"/><path class="cls-1" d="M995.54,601.09H958.65a21.56,21.56,0,0,1-21.56-21.56V230.08a21.56,21.56,0,0,1,21.56-21.56h36.89Z"/><path d="M995.54,605.09H958.65a25.59,25.59,0,0,1-25.56-25.56V230.08a25.59,25.59,0,0,1,25.56-25.56h36.89a4,4,0,0,1,4,4V601.09A4,4,0,0,1,995.54,605.09ZM958.65,212.52a17.58,17.58,0,0,0-17.56,17.56V579.53a17.58,17.58,0,0,0,17.56,17.56h32.89V212.52Z"/><path class="cls-1" d="M499.28,208.52h36.89a21.56,21.56,0,0,1,21.56,21.56V579.53a21.57,21.57,0,0,1-21.56,21.56H499.28Z"/><path d="M536.17,605.09H499.28a4,4,0,0,1-4-4V208.52a4,4,0,0,1,4-4h36.89a25.59,25.59,0,0,1,25.56,25.56V579.53A25.59,25.59,0,0,1,536.17,605.09Zm-32.89-8h32.89a17.58,17.58,0,0,0,17.56-17.56V230.08a17.58,17.58,0,0,0-17.56-17.56H503.28Z"/><path class="cls-1" d="M790.07,272.22c0,.5-.09,1-.15,1.51l-.26,1.58c-.14.87-.34,1.76-.53,2.62s-.4,1.8-.55,2.7l-3.9,20.49-.16.57a17.52,17.52,0,0,1-1.75,4.18,18.07,18.07,0,0,1-6.33,6.41,18.72,18.72,0,0,1-4.17,1.86c-.78.23-1.69.43-2.3.55-.77.16-1.56.29-2.43.41a37,37,0,0,1-4.51.28,34.63,34.63,0,0,1-4.49-.28c-.88-.12-1.68-.25-2.44-.41s-1.52-.32-2.3-.55a18.52,18.52,0,0,1-4.17-1.86,18.07,18.07,0,0,1-6.34-6.4,18.53,18.53,0,0,1-1.75-4.2l-.15-.5-3.91-20.53c-.15-.92-.35-1.84-.54-2.72s-.39-1.75-.54-2.62l-.25-1.57c-.06-.5-.12-1-.15-1.52a25.43,25.43,0,0,1,0-3c0-.41.07-.82.11-1.23.05-.63.09-1.23.19-1.8l.43-2.27a3,3,0,0,1,.12-.43,2.76,2.76,0,0,1,.08-.27,27.13,27.13,0,0,1,5.54-10.45,26.18,26.18,0,0,1,19-9l1.42,0h1l.57,0a25.23,25.23,0,0,1,9.89,2.14,25.67,25.67,0,0,1,9.37,6.87,27.12,27.12,0,0,1,5.55,10.46c0,.08,0,.17.08.26a3.31,3.31,0,0,1,.12.42l.43,2.25c.09.6.13,1.2.19,1.83,0,.41.07.82.11,1.19C790.15,270.15,790.14,271.17,790.07,272.22Z"/><path class="cls-1" d="M853.67,571.18,853,604l-6.64,1.8L829,578.69l-.11-23.14h0v-3.16l-3.18.19-6,.37-18.81-47,1.61-51.37-2.19-43.94c.42,1.39.82,2.77,1.23,4.15l6.9,23.41c.6,2,1.12,3.92,1.76,5.85l1.91,5.81,3.84,11.62L831.32,508c2.5,7.76,5.08,15.5,7.52,23.27s4.88,15.56,7.29,23.35l.06.17.1.17c.77,1.41,1.54,2.82,2.27,4.27s1.43,2.88,2.1,4.36,1.29,3,1.89,4.48C852.94,569.08,853.33,570.13,853.67,571.18Z"/><path class="cls-1" d="M734.32,635.55c-6,19.24-12.42,38.34-18.91,57.39l-10.29,29.74c-1.68,5-3.49,9.89-5.24,14.84l-.6,1.78c-.09.23-.15.37-.29.7l-.41.91-1.59,3.6-3.19,7.2-12.71,28.77c-2.1,4.81-4.25,9.59-6.41,14.37l-6.45,14.34q-12.87,28.69-26.13,57.21l9.32,19.16,0,.07.08,0,30.19,13.26L681,900.7l-36.89-.7-40.88-14.73,10.44-37.88L612,846.5l-4-2,5.56-12.21,6.32-14.16c4.22-9.44,8.32-18.92,12.48-28.38l12.15-28.53,12-28.59.09-.24.06-.22L666.78,689l10.31-43c1.7-7.18,3.49-14.34,5.28-21.5L687.73,603l5.36-21.47,2-7.59,20.7,35.93Z"/><path class="cls-1" d="M931,884.58l-.33,3.69L867.5,899.11l-13-30.57-.91-2.14-1.84.39-5.22,1.09L809.73,738.77l-40.89-63c-13.59-21-27.45-41.86-40.52-63.22-6.59-10.65-13.08-21.35-19.59-32.05l-4.89-8a39.11,39.11,0,0,1-2.17-4c-.66-1.35-1.23-2.73-1.75-4.13s-.93-2.85-1.29-4.31v0h0a44.06,44.06,0,0,1-1.14-13.24,41.39,41.39,0,0,1,.56-4.42l.85-4.61,1.64-9.23c1.12-6.16,2.19-12.32,3.38-18.47s2.32-12.29,3.64-18.4c1-4.92,2.17-9.81,3.48-14.68l27.21-30.47,22.24-39.8h-2.6l-52.26,68.06-8.31,22.24-8.18,22.3L681,541.72,672.92,564l-.09.26-.06.44-.61,5c-.17,1.65-.38,3.32-.53,5l-.48,5c-.1,1.37-.22,2.75-.32,4.13l-19.6,25.58L644.72,607l1.88-32.26,9-14.07h0l1.78-2.77-3-.63L649,556.09c6.84-23.6,13.85-47.13,20.83-70.67l5.38-18.12,2.68-9.07.68-2.26.74-2.26c.12-.34.25-.69.36-1s.13-.27.17-.38l.25-.53,1-2.12c2.71-5.64,5.55-11.26,8.41-16.87s5.77-11.19,8.69-16.78C704,404.88,710,393.79,716,382.68l9-16.61,2.29-4.21c.33-.62.65-1.31,1-1.88s.73-1.16,1.11-1.72l1.24-1.66,1.35-1.53c.48-.5,1-1,1.46-1.44s1-.89,1.54-1.35a32.71,32.71,0,0,1,14.43-6.63,34.62,34.62,0,0,1,7.87-.56,32,32,0,0,1,7.8,1.14c1.29.31,2.53.78,3.78,1.2a39.86,39.86,0,0,1,3.62,1.71,30.28,30.28,0,0,1,6.58,4.7,29.66,29.66,0,0,1,5.12,6.36,34.32,34.32,0,0,1,3.23,7.58l.1.32c.52,1.74,1.05,3.49,1.58,5.23,1.84,7.68,4,23.65,4.12,24.38v0l1,86.32,0,5.4V490l0,10.63,0,1.69.37,50.32v.11l13,38.14c4.34,12.71,8.78,25.38,13.16,38.08,8.76,25.4,17.71,50.72,26.58,76.07l6.67,19,.84,2.38.4,1.13c.1.32.19.67.27,1,.16.71.29,1.49.42,2.33l.22,1.28.24,1.25c.61,3.31,1.23,6.62,1.89,9.91,2.6,13.2,5.34,26.36,8.12,39.51s5.72,26.25,8.61,39.37c1.44,6.56,3,13.1,4.45,19.64s3,13.1,4.54,19.64h0l.11.47.31.42,12.09,15.93h0l.64.82,1.1.19Z"/><path d="M937.89,878.58l-2.57-.34h0l-34.87-4.72-12.32-13.42q-8.26-39.17-16.1-78.43c-2.62-13.17-5.21-26.34-7.65-39.5-.63-3.3-1.21-6.59-1.77-9.88l-.23-1.23-.18-1.17c-.13-.83-.26-1.74-.48-2.74-.11-.5-.25-1-.42-1.55l-.43-1.29-.81-2.39-6.51-19.07-51.65-151.6-2.07-32.57-.21-3.32.57,1.58,14.45,40.25.84,2.36,2.45-.18h0l4.81-.36.29,20.6v.76l.4.73h0l17.25,31.84,1.65,3,3.39-1.05h0l12.31-4,3-1-.09-2.83h0L859.69,571l0-.75-.27-.44h0c-.87-1.36-1.7-2.74-2.55-4.11l-2.48-4.15c-.84-1.38-1.62-2.79-2.43-4.18l-2.31-4,.07.23-.17-.38.1.15-14.33-46.49L821,460l-3.56-11.68-1.79-5.85c-.61-1.94-1.11-3.92-1.65-5.89L807.54,413q-4.41-16.17-8.74-32.41c-1-3.67-1.95-7.36-2.9-11q-.52-1.93-1-3.87l.07.23a44.79,44.79,0,0,0-3.65-9.6L790,354c-.43-.74-.94-1.44-1.41-2.16a20.65,20.65,0,0,0-1.51-2.1c-.54-.68-1-1.39-1.64-2a40,40,0,0,0-7.73-7.07,43.82,43.82,0,0,0-4.54-2.79,38.88,38.88,0,0,0-4.93-2.07l-1.27-.43c-.43-.14-.87-.23-1.3-.34-.87-.2-1.73-.47-2.62-.61l-2.67-.37c-.89-.14-1.78-.13-2.67-.19A37.85,37.85,0,0,0,747.07,335,39.88,39.88,0,0,0,729,345.64c-.59.64-1.22,1.25-1.78,1.9s-1.14,1.31-1.67,2L724,351.62l-1.43,2.15c-.45.74-.85,1.5-1.28,2.24s-.74,1.5-1.12,2.26l-2.12,4.19-8.49,16.93L692.5,413.2q-4.23,8.48-8.41,17c-2.79,5.67-5.54,11.36-8.19,17.15l-1,2.16-.24.55c-.11.24-.2.47-.28.69-.17.43-.3.84-.43,1.23l-.7,2.26-.64,2.28-2.53,9.13L665,483.91l-20.24,73-.55,2,1.92.43h0l4.82,1-9.68,11.76-.37.46-.13.89h0l-4.7,35.91-.42,3.21,3.26,1.23h0l12.17,4.33,3.09,1.09,1.78-2.57,20.23-30,.46-.7,0-.64h0l.46-5,.51-5c.17-1.65.38-3.32.56-5l.53-4.63-.09.25.13-.6,0,.35,15.75-44.52L700,505.77c-.28,1.19-.57,2.39-.86,3.57l-4.48,18.29-2.19,9.16c-.38,1.52-.71,3.05-1.06,4.58a46.4,46.4,0,0,0-.61,15.49c.07.53.15,1,.23,1.58l-5.45,21.3-5.32,21.48-5.18,21.52c-1.74,7.18-3.46,14.35-5.09,21.54l-9.92,43.15-9.68,42.92.13-.33-.19.59.06-.26-23.73,56.91-23.49,57.4-.72,1.76,1.58.81,4.58,2.31-13.71,37.8-.84,2.32,2.24,1.06,45.45,20,.1,0h.08l46.76-.24,0-16.8L656,880.42l-7.56-14.2,11.94-25.92,3.28-7.15,3.24-7.15,6.48-14.33,25.91-57.29,3.24-7.15,1.63-3.59.39-.86c.12-.26.37-.77.51-1.18l.7-2c1.79-4.92,3.61-9.82,5.36-14.76l10.6-29.57q9.24-25.92,18.18-52a1.91,1.91,0,0,0,.13-.36l1.53,2.4,1.55,2.41,20.35,31.53q20.14,31.17,40.63,62.09l38.33,129.92.67,2.27,2.2-.54,5.25-1.25,10.48,38.67.07.26.28,0c12.82-2.11,25.93-4.27,39.27-6.68s26.87-5,40.4-7.91ZM801.53,414.83l6.9,23.41c.6,2,1.12,3.92,1.76,5.85l1.91,5.81,3.84,11.62L831.32,508c2.5,7.76,5.08,15.5,7.52,23.27s4.88,15.56,7.29,23.35l.06.17.1.17c.77,1.41,1.54,2.82,2.27,4.27s1.43,2.88,2.1,4.36,1.29,3,1.89,4.48c.39,1,.78,2.08,1.12,3.13L853,604l-6.64,1.8L829,578.69l-.11-23.14h0v-3.16l-3.18.19-6,.37-18.81-47,1.61-51.37-2.19-43.94C800.72,412.07,801.12,413.45,801.53,414.83ZM715.41,692.94l-10.29,29.74c-1.68,5-3.49,9.89-5.24,14.84l-.6,1.78c-.09.23-.15.37-.29.7l-.41.91-1.59,3.6-3.19,7.2-12.71,28.77c-2.1,4.81-4.25,9.59-6.41,14.37l-6.45,14.34q-12.87,28.69-26.13,57.21l9.32,19.16,0,.07.08,0,30.19,13.26.19-.22.29.41-.48-.19L681,900.7l-36.89-.7-40.88-14.73,10.44-37.88L612,846.5l-4-2,5.56-12.21,6.32-14.16c4.22-9.44,8.32-18.92,12.48-28.38l12.15-28.53,12-28.59.09-.24.06-.22L666.78,689l10.31-43c1.7-7.18,3.49-14.34,5.28-21.5L687.73,603l5.36-21.47,2-7.59,20.7,35.93,18.56,25.66C728.28,654.79,721.9,673.89,715.41,692.94ZM930.62,888.27,867.5,899.11l-13-30.57-.91-2.14-1.84.39-5.22,1.09L809.73,738.77l-40.89-63c-13.59-21-27.45-41.86-40.52-63.22-6.59-10.65-13.08-21.35-19.59-32.05l-4.89-8a39.11,39.11,0,0,1-2.17-4c-.66-1.35-1.23-2.73-1.75-4.13s-.93-2.85-1.29-4.31v0a44.06,44.06,0,0,1-1.14-13.24,41.39,41.39,0,0,1,.56-4.42l.85-4.61,1.64-9.23c1.12-6.16,2.19-12.32,3.38-18.47s2.32-12.29,3.64-18.4c1-4.92,2.17-9.81,3.48-14.68l27.21-30.47,22.24-39.8h-2.6l-52.26,68.06-8.31,22.24-8.18,22.3L681,541.72,672.92,564l-.09.26-.06.44-.61,5c-.17,1.65-.38,3.32-.53,5l-.48,5c-.1,1.37-.22,2.75-.32,4.13l-19.6,25.58L644.72,607l1.88-32.26,9-14.07h0l1.78-2.77-3-.63L649,556.09c6.84-23.6,13.85-47.13,20.83-70.67l5.38-18.12,2.68-9.07.68-2.26.74-2.26c.12-.34.25-.69.36-1s.13-.27.17-.38l.25-.53,1-2.12c2.71-5.64,5.55-11.26,8.41-16.87s5.77-11.19,8.69-16.78C704,404.88,710,393.79,716,382.68l9-16.61,2.29-4.21c.33-.62.65-1.31,1-1.88s.73-1.16,1.11-1.72l1.24-1.66,1.35-1.53c.48-.5,1-1,1.46-1.44s1-.89,1.54-1.35a32.71,32.71,0,0,1,14.43-6.63,34.62,34.62,0,0,1,7.87-.56,32,32,0,0,1,7.8,1.14c1.29.31,2.53.78,3.78,1.2a39.86,39.86,0,0,1,3.62,1.71,30.28,30.28,0,0,1,6.58,4.7,29.66,29.66,0,0,1,5.12,6.36,34.32,34.32,0,0,1,3.23,7.58l.1.32c.52,1.74,1.05,3.49,1.58,5.23,1.84,7.68,4,23.65,4.12,24.38v0l1,86.32,0,5.4V490l0,10.63,0,1.69.37,50.32v.11l13,38.14c4.34,12.71,8.78,25.38,13.16,38.08,8.76,25.4,17.71,50.72,26.58,76.07l6.67,19,.84,2.38.4,1.13c.1.32.19.67.27,1,.16.71.29,1.49.42,2.33l.22,1.28.24,1.25c.61,3.31,1.23,6.62,1.89,9.91,2.6,13.2,5.34,26.36,8.12,39.51s5.72,26.25,8.61,39.37c1.44,6.56,3,13.1,4.45,19.64s3,13.1,4.54,19.64h0l.11.47.31.42,12.09,15.93h0l.64.82,1.1.19L931,884.58Z"/><polygon points="650.51 730.02 650.32 730.61 650.38 730.35 650.51 730.02"/><polygon points="682.21 899.11 681.74 898.92 681.92 898.7 682.21 899.11"/><path d="M698.64,560.12v0Z"/><polygon points="795.12 486.22 794.95 486.25 794.95 485.8 795.12 486.22"/><polygon points="800.89 513.45 800.53 515.2 800.32 511.85 800.89 513.45"/><polygon points="794.99 498.7 794.98 498.7 794.98 496.99 794.99 498.7"/><path d="M797.43,267.91c0-.86-.06-1.74-.15-2.61l-.4-2.86c0-.23-.09-.45-.15-.67l-.07-.29a35.11,35.11,0,0,0-6.55-13.9,34.57,34.57,0,0,0-12-9.72,32.78,32.78,0,0,0-22.85-2.66A35.12,35.12,0,0,0,736,247.58a35.13,35.13,0,0,0-6.56,13.9l-.06.29a4.82,4.82,0,0,0-.16.68l-.4,2.85c-.09.87-.12,1.75-.15,2.61,0,.39,0,.8,0,1.24a34.2,34.2,0,0,0,.25,3.85c.08.68.18,1.31.28,1.91l.37,1.79c.62,3.57,1.34,7.17,2,10.65l2.6,13.3.47,2.2.21.74a25.21,25.21,0,0,0,17,17.22c1.1.33,2.08.55,3,.73s1.91.35,2.91.49a43.13,43.13,0,0,0,10.81,0c1-.14,2-.3,2.91-.49s1.87-.4,3-.73a25.27,25.27,0,0,0,14.48-11.43,24.9,24.9,0,0,0,2.46-5.79l.23-.78,3.06-15.46c.69-3.48,1.4-7.08,2-10.62l.38-1.83c.11-.59.2-1.22.29-1.91a34,34,0,0,0,.25-3.88C797.46,268.71,797.45,268.3,797.43,267.91Zm-7.36,4.31c0,.5-.09,1-.15,1.51l-.26,1.58c-.14.87-.34,1.76-.53,2.62s-.4,1.8-.55,2.7l-3.9,20.49-.16.57a17.52,17.52,0,0,1-1.75,4.18,18.07,18.07,0,0,1-6.33,6.41,18.72,18.72,0,0,1-4.17,1.86c-.78.23-1.69.43-2.3.55-.77.16-1.56.29-2.43.41a37,37,0,0,1-4.51.28,34.63,34.63,0,0,1-4.49-.28c-.88-.12-1.68-.25-2.44-.41s-1.52-.32-2.3-.55a18.52,18.52,0,0,1-4.17-1.86,18.07,18.07,0,0,1-6.34-6.4,18.53,18.53,0,0,1-1.75-4.2l-.15-.5-3.91-20.53c-.15-.92-.35-1.84-.54-2.72s-.39-1.75-.54-2.62l-.25-1.57c-.06-.5-.12-1-.15-1.52a25.43,25.43,0,0,1,0-3c0-.41.07-.82.11-1.23.05-.63.09-1.23.19-1.8l.43-2.27a3,3,0,0,1,.12-.43,2.76,2.76,0,0,1,.08-.27,27.13,27.13,0,0,1,5.54-10.45,26.18,26.18,0,0,1,19-9l1.42,0h1l.57,0a25.23,25.23,0,0,1,9.89,2.14,25.67,25.67,0,0,1,9.37,6.87,27.12,27.12,0,0,1,5.55,10.46c0,.08,0,.17.08.26a3.31,3.31,0,0,1,.12.42l.43,2.25c.09.6.13,1.2.19,1.83,0,.41.07.82.11,1.19C790.15,270.15,790.14,271.17,790.07,272.22Z"/></svg>