<svg xmlns="http://www.w3.org/2000/svg" viewBox="0 0 1300 1000"><defs><style>.cls-1{fill:#fff;}</style></defs><title>2-landmarks-expand</title><g id="Capa_1" data-name="Capa 1"><path class="cls-1" d="M695.6,937.71h-126A21.56,21.56,0,0,1,548,916.15V97.5A21.56,21.56,0,0,1,569.6,75.94h654.48a21.56,21.56,0,0,1,21.56,21.56V916.15a21.56,21.56,0,0,1-21.56,21.56h-126"/><path d="M1224.08,941.71h-126v-8h126a17.58,17.58,0,0,0,17.56-17.56V97.5a17.58,17.58,0,0,0-17.56-17.56H569.6A17.58,17.58,0,0,0,552,97.5V916.15a17.58,17.58,0,0,0,17.56,17.56h126v8h-126A25.59,25.59,0,0,1,544,916.15V97.5A25.59,25.59,0,0,1,569.6,71.94h654.48a25.59,25.59,0,0,1,25.56,25.56V916.15A25.59,25.59,0,0,1,1224.08,941.71Z"/><rect x="548.38" y="870.79" width="697.6" height="8"/><rect x="548.38" y="130.36" width="697.6" height="8"/><path class="cls-1" d="M629.18,791h0a37.24,37.24,0,0,1-37.24-37.24h0a37.24,37.24,0,0,1,37.24-37.24h0a37.24,37.24,0,0,1,37.24,37.24h0A37.24,37.24,0,0,1,629.18,791Z"/><path d="M629.18,795a41.24,41.24,0,1,1,41.24-41.24A41.29,41.29,0,0,1,629.18,795Zm0-74.48a33.24,33.24,0,1,0,33.24,33.24A33.28,33.28,0,0,0,629.18,720.49Z"/><path class="cls-1" d="M724.66,791h0a37.24,37.24,0,0,1-37.24-37.24h0a37.24,37.24,0,0,1,37.24-37.24h0a37.24,37.24,0,0,1,37.24,37.24h0A37.24,37.24,0,0,1,724.66,791Z"/><path d="M724.66,795a41.24,41.24,0,1,1,41.24-41.24A41.29,41.29,0,0,1,724.66,795Zm0-74.48a33.24,33.24,0,1,0,33.24,33.24A33.28,33.28,0,0,0,724.66,720.49Z"/><path class="cls-1" d="M1069.88,791h0a37.24,37.24,0,0,1-37.24-37.24h0a37.24,37.24,0,0,1,37.24-37.24h0a37.24,37.24,0,0,1,37.24,37.24h0A37.24,37.24,0,0,1,1069.88,791Z"/><path d="M1069.88,795a41.24,41.24,0,1,1,41.24-41.24A41.29,41.29,0,0,1,1069.88,795Zm0-74.48a33.24,33.24,0,1,0,33.24,33.24A33.28,33.28,0,0,0,1069.88,720.49Z"/><path class="cls-1" d="M1165.35,791h0a37.24,37.24,0,0,1-37.24-37.24h0a37.24,37.24,0,0,1,37.24-37.24h0a37.24,37.24,0,0,1,37.24,37.24h0A37.24,37.24,0,0,1,1165.35,791Z"/><path d="M1165.35,795a41.24,41.24,0,1,1,41.24-41.24A41.29,41.29,0,0,1,1165.35,795Zm0-74.48a33.24,33.24,0,1,0,33.24,33.24A33.28,33.28,0,0,0,1165.35,720.49Z"/><path class="cls-1" d="M1198.37,594.92a4.06,4.06,0,0,0,4.05-4.06V218.07a4.05,4.05,0,0,0-4.05-4H596a4.05,4.05,0,0,0-4,4V590.86a4.06,4.06,0,0,0,4,4.06Z"/><path d="M1198.37,598.92H596a8.06,8.06,0,0,1-8-8.06V218.07a8.06,8.06,0,0,1,8-8h602.38a8.06,8.06,0,0,1,8.05,8V590.86A8.06,8.06,0,0,1,1198.37,598.92ZM596,218l0,372.84,602.43.06a.06.06,0,0,0,.05-.06V218.07Z"/><path class="cls-1" d="M1098.09,958.53a21.56,21.56,0,0,1-21.56,21.56H717.16a21.56,21.56,0,0,1-21.56-21.56v-43.4h402.49Z"/><path d="M1076.53,984.09H717.16a25.58,25.58,0,0,1-25.56-25.56v-43.4a4,4,0,0,1,4-4h402.49a4,4,0,0,1,4,4v43.4A25.58,25.58,0,0,1,1076.53,984.09Zm-376.93-65v39.4a17.58,17.58,0,0,0,17.56,17.56h359.37a17.58,17.58,0,0,0,17.56-17.56v-39.4Z"/></g><g id="Capa_2" data-name="Capa 2"><polygon class="cls-1" points="646.21 938.28 646.21 970.11 679.45 970.11 679.45 937.71 646.21 938.28"/><path d="M679.45,974.11H646.21a4,4,0,0,1-4-4V938.28a4,4,0,0,1,3.93-4l33.24-.57a3.89,3.89,0,0,1,2.87,1.15,4,4,0,0,1,1.2,2.85v32.4A4,4,0,0,1,679.45,974.11Zm-29.24-8h25.24V941.78l-25.24.43Z"/><path d="M695.62,974.11H630a4,4,0,0,1-4-4V938.28a4,4,0,0,1,4-4l65.59-.57h0a4,4,0,0,1,4,4v32.4A4,4,0,0,1,695.62,974.11Zm-61.58-8h57.58V941.74l-57.58.5Z"/><polygon class="cls-1" points="1114.26 938.28 1114.26 970.11 1147.5 970.11 1147.5 937.71 1114.26 938.28"/><path d="M1147.5,974.11h-33.24a4,4,0,0,1-4-4V938.28a4,4,0,0,1,3.93-4l33.25-.57a3.92,3.92,0,0,1,2.87,1.15,4,4,0,0,1,1.19,2.85v32.4A4,4,0,0,1,1147.5,974.11Zm-29.24-8h25.24V941.78l-25.24.43Z"/><path d="M1163.67,974.11h-65.58a4,4,0,0,1-4-4V938.28a4,4,0,0,1,4-4l65.58-.57h0a4,4,0,0,1,4,4v32.4A4,4,0,0,1,1163.67,974.11Zm-61.58-8h57.58V941.74l-57.58.5Z"/></g></svg>