<svg id="Capa_1" data-name="Capa 1" xmlns="http://www.w3.org/2000/svg" viewBox="0 0 1300 1000"><title>2-landmarks-expand</title><rect y="900" width="1300" height="100" transform="translate(1300 1900) rotate(180)"/><path d="M1024.86,755.28H769a25.59,25.59,0,0,1-25.56-25.56V711.17A25.59,25.59,0,0,1,769,685.61h255.89a25.59,25.59,0,0,1,25.56,25.56v18.55A25.59,25.59,0,0,1,1024.86,755.28ZM769,693.61a17.58,17.58,0,0,0-17.56,17.56v18.55A17.58,17.58,0,0,0,769,747.28h255.89a17.58,17.58,0,0,0,17.56-17.56V711.17a17.58,17.58,0,0,0-17.56-17.56Z"/><path d="M725.85,755.28H470a25.59,25.59,0,0,1-25.56-25.56V711.17A25.59,25.59,0,0,1,470,685.61H725.85a25.59,25.59,0,0,1,25.56,25.56v18.55A25.59,25.59,0,0,1,725.85,755.28ZM470,693.61a17.58,17.58,0,0,0-17.56,17.56v18.55A17.58,17.58,0,0,0,470,747.28H725.85a17.58,17.58,0,0,0,17.56-17.56V711.17a17.58,17.58,0,0,0-17.56-17.56Z"/><path d="M1044.86,574H450a25.59,25.59,0,0,1-25.56-25.56V226.66A25.59,25.59,0,0,1,450,201.1h594.9a25.59,25.59,0,0,1,25.56,25.56V548.45A25.59,25.59,0,0,1,1044.86,574ZM450,209.1a17.58,17.58,0,0,0-17.56,17.56V548.45A17.58,17.58,0,0,0,450,566h594.9a17.58,17.58,0,0,0,17.56-17.56V226.66a17.58,17.58,0,0,0-17.56-17.56Z"/><path d="M1024.86,114.9H470A25.59,25.59,0,0,1,444.4,89.33V0h8V89.33A17.58,17.58,0,0,0,470,106.89h554.9a17.58,17.58,0,0,0,17.56-17.56V0h8V89.34A25.59,25.59,0,0,1,1024.86,114.9Z"/><path d="M1018.37,689.61h-8V656.19a11.13,11.13,0,0,0-11.12-11.12H495.57a11.13,11.13,0,0,0-11.12,11.12v33.42h-8V656.19a19.14,19.14,0,0,1,19.12-19.12H999.25a19.15,19.15,0,0,1,19.12,19.12Z"/><path d="M631.62,190.47H589.05a7.34,7.34,0,0,1-6.23-11.22L604.1,145a7.3,7.3,0,0,1,6.23-3.47h0a7.31,7.31,0,0,1,6.24,3.47h0l21.28,34.25a7.34,7.34,0,0,1-6.23,11.22Zm-41.39-8h40.21l-20.11-32.35Z"/><rect x="606.33" y="110.9" width="8" height="34.63"/><path d="M778.13,190.47H735.57a7.35,7.35,0,0,1-6.24-11.22L750.61,145a7.35,7.35,0,0,1,12.48,0l21.28,34.25a7.35,7.35,0,0,1-6.24,11.22Zm-41.38-8H777l-20.1-32.35Z"/><rect x="752.85" y="110.9" width="8" height="34.63"/><path d="M924.65,190.47H882.08a7.34,7.34,0,0,1-6.23-11.22L897.13,145a7.34,7.34,0,0,1,12.47,0h0l21.28,34.25a7.34,7.34,0,0,1-6.23,11.22Zm-41.39-8h40.21l-20.1-32.35Z"/><rect x="899.37" y="110.9" width="8" height="34.63"/><path d="M1014.37,904H998a4,4,0,0,1-4-4V751.28a4,4,0,0,1,4-4h16.34a4,4,0,0,1,4,4V900A4,4,0,0,1,1014.37,904ZM1002,896h8.34V755.28H1002Z"/><path d="M496.79,904H480.45a4,4,0,0,1-4-4V751.28a4,4,0,0,1,4-4h16.34a4,4,0,0,1,4,4V900A4,4,0,0,1,496.79,904Zm-12.34-8h8.34V755.28h-8.34Z"/></svg>