<svg id="Capa_1" data-name="Capa 1" xmlns="http://www.w3.org/2000/svg" viewBox="0 0 1300 1000"><defs><style>.cls-1{fill:#fff;}</style></defs><title>2-landmarks-expand</title><path class="cls-1" d="M995.54,904V179a4.05,4.05,0,0,0-4-4H503.33a4.05,4.05,0,0,0-4.05,4V904Z"/><path d="M995.54,908H499.28a4,4,0,0,1-4-4V179a8.06,8.06,0,0,1,8.05-8H991.49a8.06,8.06,0,0,1,8,8V904A4,4,0,0,1,995.54,908Zm-492.26-8H991.54V179l-488.21,0Z"/><rect x="591.79" y="174.96" width="8" height="729.04"/><rect x="899.53" y="174.96" width="8" height="729.04"/><path class="cls-1" d="M995.54,601.09H958.65a21.56,21.56,0,0,1-21.56-21.56V230.08a21.56,21.56,0,0,1,21.56-21.56h36.89Z"/><path d="M995.54,605.09H958.65a25.59,25.59,0,0,1-25.56-25.56V230.08a25.59,25.59,0,0,1,25.56-25.56h36.89a4,4,0,0,1,4,4V601.09A4,4,0,0,1,995.54,605.09ZM958.65,212.52a17.58,17.58,0,0,0-17.56,17.56V579.53a17.58,17.58,0,0,0,17.56,17.56h32.89V212.52Z"/><path class="cls-1" d="M499.28,208.52h36.89a21.56,21.56,0,0,1,21.56,21.56V579.53a21.57,21.57,0,0,1-21.56,21.56H499.28Z"/><path d="M536.17,605.09H499.28a4,4,0,0,1-4-4V208.52a4,4,0,0,1,4-4h36.89a25.59,25.59,0,0,1,25.56,25.56V579.53A25.59,25.59,0,0,1,536.17,605.09Zm-32.89-8h32.89a17.58,17.58,0,0,0,17.56-17.56V230.08a17.58,17.58,0,0,0-17.56-17.56H503.28Z"/></svg>