<svg id="Capa_1" data-name="Capa 1" xmlns="http://www.w3.org/2000/svg" viewBox="0 0 1300 1000"><defs><style>.cls-1{fill:#fff;}</style></defs><title>2-landmarks-expand</title><path class="cls-1" d="M995.54,908.6V179a4.05,4.05,0,0,0-4-4H503.33a4.05,4.05,0,0,0-4.05,4V908.6Z"/><path d="M995.54,912.6H499.28a4,4,0,0,1-4-4V179a8.06,8.06,0,0,1,8.05-8H991.49a8.06,8.06,0,0,1,8,8V908.6A4,4,0,0,1,995.54,912.6Zm-492.26-8H991.54V179l-488.21,0Z"/><rect x="743.41" y="174.96" width="8" height="733.64"/><rect class="cls-1" x="532.84" y="208.52" width="176.51" height="392.57" rx="21.56"/><path d="M687.78,605.09H554.4a25.59,25.59,0,0,1-25.56-25.56V230.08a25.58,25.58,0,0,1,25.56-25.56H687.78a25.58,25.58,0,0,1,25.56,25.56V579.53A25.59,25.59,0,0,1,687.78,605.09ZM554.4,212.52a17.57,17.57,0,0,0-17.56,17.56V579.53a17.58,17.58,0,0,0,17.56,17.56H687.78a17.58,17.58,0,0,0,17.56-17.56V230.08a17.57,17.57,0,0,0-17.56-17.56Z"/><rect class="cls-1" x="780.97" y="208.52" width="176.51" height="392.57" rx="21.56"/><path d="M935.92,605.09H802.53A25.59,25.59,0,0,1,777,579.53V230.08a25.59,25.59,0,0,1,25.56-25.56H935.92a25.59,25.59,0,0,1,25.56,25.56V579.53A25.59,25.59,0,0,1,935.92,605.09ZM802.53,212.52A17.58,17.58,0,0,0,785,230.08V579.53a17.58,17.58,0,0,0,17.56,17.56H935.92a17.58,17.58,0,0,0,17.56-17.56V230.08a17.58,17.58,0,0,0-17.56-17.56Z"/><rect y="900" width="1300" height="100" transform="translate(1300 1900) rotate(180)"/></svg>