<svg id="Capa_1" data-name="Capa 1" xmlns="http://www.w3.org/2000/svg" viewBox="0 0 1300 1000"><defs><style>.cls-1,.cls-2{fill:#fff;}.cls-2{stroke:#000;stroke-linejoin:round;stroke-width:8px;}</style></defs><title>train--front</title><polygon points="403.15 949.03 319.88 1000 0 1000 0 899 319.49 899 403.15 949.03"/><polygon points="410.85 944.32 335.07 899 484.9 899 410.85 944.32"/><polygon points="410.9 953.66 488.36 1000 335.21 1000 410.9 953.66"/><polygon points="500 899.14 500 997.64 418.6 948.96 500 899.14"/><rect class="cls-1" x="500" y="899" width="800" height="101" transform="translate(1800 1899) rotate(180)"/><rect class="cls-1" x="308" y="899" width="8" height="6"/><path class="cls-1" d="M316,981.19h-8v-12.7h8Zm0-25.39h-8V943.1h8Zm0-25.4h-8V917.7h8Z"/><rect class="cls-1" x="308" y="993.89" width="8" height="6"/><polygon class="cls-1" points="500 997.64 500 1000 488.38 1000 410.9 953.66 403.15 949.03 319.49 899 335.07 899 410.85 944.32 418.6 948.96 500 997.64"/><polygon class="cls-1" points="500 899 500 899.14 418.6 948.96 410.9 953.66 335.19 1000 319.86 1000 403.15 949.03 410.85 944.32 484.9 899 500 899"/><polygon class="cls-1" points="500 1000 500 1000 488.38 1000 488.36 1000 500 1000"/><polygon class="cls-1" points="335.21 1000 335.19 1000 319.86 1000 319.88 1000 335.21 1000"/><path class="cls-2" d="M695.6,937.71h-126A21.56,21.56,0,0,1,548,916.15V97.5A21.56,21.56,0,0,1,569.6,75.94h654.48a21.56,21.56,0,0,1,21.56,21.56V916.15a21.56,21.56,0,0,1-21.56,21.56h-126"/><rect class="cls-2" x="695.6" y="906.45" width="402.5" height="63.66" rx="21.56"/><line class="cls-2" x1="548.38" y1="874.79" x2="1245.98" y2="874.79"/><line class="cls-2" x1="548.38" y1="134.36" x2="1245.98" y2="134.36"/><path class="cls-2" d="M629.18,791h0a37.24,37.24,0,0,1-37.24-37.24h0a37.24,37.24,0,0,1,37.24-37.24h0a37.24,37.24,0,0,1,37.24,37.24h0A37.24,37.24,0,0,1,629.18,791Z"/><path class="cls-2" d="M724.66,791h0a37.24,37.24,0,0,1-37.24-37.24h0a37.24,37.24,0,0,1,37.24-37.24h0a37.24,37.24,0,0,1,37.24,37.24h0A37.24,37.24,0,0,1,724.66,791Z"/><path class="cls-2" d="M1069.88,791h0a37.24,37.24,0,0,1-37.24-37.24h0a37.24,37.24,0,0,1,37.24-37.24h0a37.24,37.24,0,0,1,37.24,37.24h0A37.24,37.24,0,0,1,1069.88,791Z"/><path class="cls-2" d="M1165.35,791h0a37.24,37.24,0,0,1-37.24-37.24h0a37.24,37.24,0,0,1,37.24-37.24h0a37.24,37.24,0,0,1,37.24,37.24h0A37.24,37.24,0,0,1,1165.35,791Z"/><path class="cls-2" d="M1198.37,594.92a4.06,4.06,0,0,0,4.05-4.06V218.07a4.05,4.05,0,0,0-4.05-4H596a4.05,4.05,0,0,0-4,4V590.86a4.06,4.06,0,0,0,4,4.06Z"/></svg>