<svg width="1300" height="1000" viewBox="0 0 1300 1000" fill="none" xmlns="http://www.w3.org/2000/svg"><path d="M0 900h1300v100H0V900Z" fill="#000"/><path fill-rule="evenodd" clip-rule="evenodd" d="M1178 547c8.28 0 15 6.716 15 15v338h7V560c0-11.046-8.95-20-20-20h-10.52c-3.38-22.637-22.9-40-46.48-40h-72c-2.76 0-5 2.239-5 5v35h-10c-11.05 0-20 8.954-20 20H818.5a3.5 3.5 0 1 0 0 7H1016v15.524l-198.824 71.692a3.29 3.29 0 0 0-2.176 3.097c0 2.281 2.263 3.871 4.409 3.097L1016 589.524V900h7V562c0-8.284 6.72-15 15-15h140Zm-55-40c19.7 0 36.08 14.246 39.39 33H1053v-33h70Z" fill="#000"/><path fill-rule="evenodd" clip-rule="evenodd" d="M1046 585c0-8.284 6.72-15 15-15h94c8.28 0 15 6.716 15 15v40c0 8.284-6.72 15-15 15h-94c-8.28 0-15-6.716-15-15v-40Zm7 2c0-5.523 4.48-10 10-10h90c5.52 0 10 4.477 10 10v36c0 5.523-4.48 10-10 10h-90c-5.52 0-10-4.477-10-10v-36ZM608 900h-7V589.524L404.409 660.41c-2.146.774-4.409-.816-4.409-3.097a3.29 3.29 0 0 1 2.176-3.097L601 582.524V567H403.5a3.5 3.5 0 1 1 0-7H601c0-11.046 8.954-20 20-20h10v-35a5 5 0 0 1 5-5h72c23.579 0 43.102 17.363 46.482 40H765c11.046 0 20 8.954 20 20v340h-7V562c0-8.284-6.716-15-15-15H623c-8.284 0-15 6.716-15 15v338Zm30-360h109.39c-3.311-18.754-19.687-33-39.39-33h-70v33Z" fill="#000"/><path fill-rule="evenodd" clip-rule="evenodd" d="M646 570c-8.284 0-15 6.716-15 15v40c0 8.284 6.716 15 15 15h94c8.284 0 15-6.716 15-15v-40c0-8.284-6.716-15-15-15h-94Zm2 7c-5.523 0-10 4.477-10 10v36c0 5.523 4.477 10 10 10h90c5.523 0 10-4.477 10-10v-36c0-5.523-4.477-10-10-10h-90Z" fill="#000"/><path d="M0 800v-7h328c8.284 0 15-6.716 15-15V562c0-8.284-6.716-15-15-15H0v-7h330c11.046 0 20 8.954 20 20v340h-7V795.199A19.922 19.922 0 0 1 330 800H0Zm1257-4.801a19.936 19.936 0 0 0 13 4.801h30v-7h-28c-8.28 0-15-6.716-15-15V562c0-8.284 6.72-15 15-15h28v-7h-30c-11.05 0-20 8.954-20 20v340h7V795.199Z" fill="#000"/></svg>