<svg width="1300" height="1000" viewBox="0 0 1300 1000" fill="none" xmlns="http://www.w3.org/2000/svg"><path fill-rule="evenodd" clip-rule="evenodd" d="M1038 547c-8.28 0-15 6.716-15 15v338h-7V589.524L819.409 660.41c-2.146.774-4.409-.816-4.409-3.097a3.29 3.29 0 0 1 2.176-3.097L1016 582.524V567H818.5a3.5 3.5 0 1 1 0-7H1016c0-11.046 8.95-20 20-20h10v-35c0-2.761 2.24-5 5-5h72c23.58 0 43.1 17.363 46.48 40H1180c11.05 0 20 8.954 20 20v340h-7V562c0-8.284-6.72-15-15-15h-140Zm124.39-7c-3.31-18.754-19.69-33-39.39-33h-70v33h109.39Z" fill="#000"/><path fill-rule="evenodd" clip-rule="evenodd" d="M1061 570c-8.28 0-15 6.716-15 15v40c0 8.284 6.72 15 15 15h94c8.28 0 15-6.716 15-15v-40c0-8.284-6.72-15-15-15h-94Zm2 7c-5.52 0-10 4.477-10 10v36c0 5.523 4.48 10 10 10h90c5.52 0 10-4.477 10-10v-36c0-5.523-4.48-10-10-10h-90ZM601 900h7V562c0-8.284 6.716-15 15-15h140c8.284 0 15 6.716 15 15v338h7V560c0-11.046-8.954-20-20-20h-10.518c-3.38-22.637-22.903-40-46.482-40h-72a5 5 0 0 0-5 5v35h-10c-11.046 0-20 8.954-20 20H403.5a3.5 3.5 0 1 0 0 7H601v15.524l-198.824 71.692a3.29 3.29 0 0 0-2.176 3.097c0 2.281 2.263 3.871 4.409 3.097L601 589.524V900Zm37-360h109.39c-3.311-18.754-19.687-33-39.39-33h-70v33Z" fill="#000"/><path d="M0 793v7h330c4.963 0 9.504-1.808 13-4.801V900h7V560c0-11.046-8.954-20-20-20H0v7h328c8.284 0 15 6.716 15 15v216c0 8.284-6.716 15-15 15H0Zm1270 7c-4.96 0-9.5-1.808-13-4.801V900h-7V560c0-11.046 8.95-20 20-20h30v7h-28c-8.28 0-15 6.716-15 15v216c0 8.284 6.72 15 15 15h28v7h-30Z" fill="#000"/><path fill-rule="evenodd" clip-rule="evenodd" d="M620.121 583.942a3.001 3.001 0 0 1 0-4.243l27.577-27.577a3 3 0 0 1 4.243 0L669.819 570H740c8.284 0 15 6.716 15 15v40c0 8.284-6.716 15-15 15h-94c-8.284 0-15-6.716-15-15v-30.18l-10.879-10.878ZM638 623v-21.18l23.841 23.841a2.998 2.998 0 0 0 4.242 0l27.577-27.577a3 3 0 0 0 0-4.243L676.819 577H738c5.523 0 10 4.477 10 10v36c0 5.523-4.477 10-10 10h-90c-5.523 0-10-4.477-10-10Zm47.882-27.038-21.92 21.921-36.063-36.063 21.921-21.92 36.062 36.062Z" fill="#000"/><path d="M0 900h1300v100H0V900Z" fill="#000"/></svg>