<svg id="Capa_1" data-name="Capa 1" xmlns="http://www.w3.org/2000/svg" viewBox="0 0 1300 1000"><title>2-landmarks-expand</title><rect y="900" width="1300" height="100" transform="translate(1300 1900) rotate(180)"/><path d="M634,900h-8V541.51H475.88a17.58,17.58,0,0,0-17.56,17.56V900h-8V559.07a25.59,25.59,0,0,1,25.56-25.56H626.07a7.92,7.92,0,0,1,7.91,7.91Z"/><path d="M592.37,641.34H491.93a8.07,8.07,0,0,1-8.05-8.06V575.12a8.06,8.06,0,0,1,8.05-8H592.37a8.06,8.06,0,0,1,8,8v58.16A8.07,8.07,0,0,1,592.37,641.34ZM491.93,575.07l-.05,58.21,100.49.06a.06.06,0,0,0,0-.06V575.12Z"/><path d="M595.26,541.51H499.51a4,4,0,0,1-4-4,52.06,52.06,0,0,1,52-52h47.75a4,4,0,0,1,4,4v48A4,4,0,0,1,595.26,541.51Zm-91.57-8h87.57v-40H547.51A44.07,44.07,0,0,0,503.69,533.51Z"/><path d="M837.81,567.3H630a4,4,0,0,1-4-4V544.4a4,4,0,0,1,4-4H837.81a13.45,13.45,0,1,1,0,26.9ZM634,559.3H837.81a5.45,5.45,0,1,0,0-10.9H634Z"/><path d="M822,667.49a13.48,13.48,0,0,1-4.62-.82L628.61,597.76A4,4,0,0,1,626,594V573.89a4,4,0,0,1,5.37-3.75l195.23,71.27A13.45,13.45,0,0,1,822,667.49ZM634,591.21,820.1,659.16h0a5.45,5.45,0,0,0,3.73-10.24L634,579.61Z"/><path d="M1051.53,900h-8V541.51H893.43a17.58,17.58,0,0,0-17.56,17.56V900h-8V559.07a25.59,25.59,0,0,1,25.56-25.56h150.19a7.92,7.92,0,0,1,7.91,7.91Z"/><path d="M1009.92,641.34H909.48a8.07,8.07,0,0,1-8.05-8.06V575.12a8.06,8.06,0,0,1,8.05-8h100.44a8.06,8.06,0,0,1,8.05,8v58.16A8.07,8.07,0,0,1,1009.92,641.34ZM909.48,575.07l-.05,58.21,100.49.06a.06.06,0,0,0,.05-.06V575.12Z"/><path d="M1012.81,541.51H917.06a4,4,0,0,1-4-4,52.06,52.06,0,0,1,52-52h47.75a4,4,0,0,1,4,4v48A4,4,0,0,1,1012.81,541.51Zm-91.57-8h87.57v-40H965.06A44.07,44.07,0,0,0,921.24,533.51Z"/><path d="M1255.36,567.3H1047.53a4,4,0,0,1-4-4V544.4a4,4,0,0,1,4-4h207.83a13.45,13.45,0,1,1,0,26.9Zm-203.83-8h203.83a5.45,5.45,0,1,0,0-10.9H1051.53Z"/><path d="M1239.53,667.49a13.4,13.4,0,0,1-4.62-.82h0l-188.75-68.91a4,4,0,0,1-2.63-3.75V573.89a4,4,0,0,1,5.37-3.75l195.23,71.27a13.47,13.47,0,0,1,8,17.24,13.47,13.47,0,0,1-12.62,8.84Zm-1.88-8.33a5.45,5.45,0,1,0,3.74-10.24l-189.86-69.31v11.6Z"/></svg>