<svg id="Capa_1" data-name="Capa 1" xmlns="http://www.w3.org/2000/svg" viewBox="0 0 1300 1000"><defs><style>.cls-1,.cls-3,.cls-4,.cls-6{fill:#fff;}.cls-1,.cls-3,.cls-5,.cls-6{stroke:#262626;}.cls-1,.cls-3{stroke-miterlimit:10;}.cls-1,.cls-5,.cls-6{stroke-width:10px;}.cls-2{fill:#262626;}.cls-3{stroke-width:8px;}.cls-5{fill:none;}.cls-5,.cls-6{stroke-linecap:round;stroke-linejoin:round;}</style></defs><title>turnstile</title><path class="cls-1" d="M1026,587.48l185.1,86.31a9.27,9.27,0,0,0,12.33-4.49h0a9.29,9.29,0,0,0-4.48-12.34l-185.1-86.31Z"/><path class="cls-1" d="M1034.34,565.64h204.23a9.53,9.53,0,0,0,9.28-9.76h0a9.53,9.53,0,0,0-9.28-9.76H1034.34Z"/><path class="cls-1" d="M886.45,534.8h129a19,19,0,0,1,19,19V904.26a0,0,0,0,1,0,0H867.42a0,0,0,0,1,0,0V553.83A19,19,0,0,1,886.45,534.8Z"/><rect class="cls-1" x="897.13" y="556.34" width="111.4" height="65.87" rx="14.27"/><path class="cls-1" d="M622.09,589.38l185.1,86.31a9.28,9.28,0,0,0,12.34-4.49h0a9.29,9.29,0,0,0-4.5-12.34L629.94,572.55Z"/><path class="cls-1" d="M630.45,566.54H834.68a9.53,9.53,0,0,0,9.28-9.76h0a9.53,9.53,0,0,0-9.28-9.76H630.45Z"/><path class="cls-1" d="M482.73,534.85h129a19,19,0,0,1,19,19V905.16a0,0,0,0,1,0,0H463.7a0,0,0,0,1,0,0V553.88A19,19,0,0,1,482.73,534.85Z"/><rect class="cls-1" x="493.24" y="556.48" width="111.4" height="65.72" rx="14.27"/><path class="cls-1" d="M.33,837.64l416,.48c15,0,27.25-10.6,27.25-23.67V558.84c0-13.07-12.2-23.66-27.25-23.66l-416-.49"/><path class="cls-1" d="M500.83,535h92.84V491.06H547.25c-25.64,0-46.42,19.65-46.42,43.89Z"/><path class="cls-1" d="M905.55,534.8h92.84V490.91H952c-25.63,0-46.42,19.65-46.42,43.89Z"/><rect class="cls-2" y="900" width="1300" height="100" transform="translate(1300 1900) rotate(180)"/><path class="cls-3" d="M443.54,903.22h20V543.79a9.73,9.73,0,0,0-10-9.45h0a9.74,9.74,0,0,0-10,9.45Z"/><path class="cls-4" d="M194.08,895.12l.26-31H181.62L163.1,607,142,864.09H129l.21,31H54.56l0-12.92L77,864.15l-3.62,0,28.08-325.47H88.36l4.11-26.44L54.06,425.74l.29-1.54a259.31,259.31,0,0,1,22-62.34c21.46-41.73,50.86-64,85-64.41h1c33.92,0,63.15,22.15,84.54,64.07a262.73,262.73,0,0,1,22,62.68l.29,1.49-38,89.49,3.67,23.47H221.75l28.12,325.47-5.69,0L266,882l1.15,13.12ZM224,468.62l8.9-46-22.48-41ZM99.82,464.9l12.81-82.46-22.2,40.15Z"/><path class="cls-2" d="M162.37,302.44c78,0,101.63,122.7,101.63,122.7l-31.13,73.4-4.29-27.42,9.54-49.29L201,354.11l28,179.54-12.77,0,28.12,325.48-14.18.06,31,25.32.49,5.59H199.12l.26-31h-13.1L163.42,542,137.36,859.08H123.92l.22,31H59.57V884.6l31.53-25.39-12.27-.06,28.08-325.48-12.73,0L121.9,355.34,85.14,421.83l10.6,47.79-4.35,27.86L59.26,425.14S82.73,303.38,161.48,302.45h.89m0-10h-1c-36.13.43-67.05,23.64-89.41,67.12a264.51,264.51,0,0,0-22.51,63.68l-.59,3.08,1.27,2.87,32.14,72.34,5,11.35-3,19.23-1.79,11.52H96L68.88,858.3l-.56,6.42-15,12.09-3.72,3V890.1l0,10h84.66l-.07-10.07-.15-21h12.58l.76-9.18,15.44-187.85L176.3,859.87l.67,9.28h12.32L189.13,890,189,900.12h83.57l-.95-10.88-.5-5.58-.36-4.2-3.27-2.67-12.42-10.16-.72-8.34L227.2,543.66h13.55L239,532.11l-2.55-16.29,5.67-13.37,31.14-73.4,1.18-2.8-.57-3a268,268,0,0,0-22.46-64c-22.29-43.71-53.06-66.81-89-66.81ZM224.5,439.58l-4.76-30.5,7.88,14.39-3.12,16.11ZM95.72,423.36l7.64-13.82L99,437.91l-3.23-14.55Z"/><path class="cls-1" d="M136.9,254.54c0,16.06,10.62,29.07,23.73,29.07s23.73-13,23.73-29.07-10.63-29.07-23.73-29.07S136.9,238.49,136.9,254.54Z"/><line class="cls-1" x1="99.66" y1="538.67" x2="219.91" y2="538.67"/><polyline class="cls-5" points="142.43 301.74 162.01 343.28 181.25 301.74"/><line class="cls-6" x1="162.01" y1="343.28" x2="162.01" y2="535.73"/><polygon class="cls-4" points="138.49 229.76 127.7 211.75 161.5 198.26 195.53 212.78 185.2 229.76 138.49 229.76"/><path class="cls-2" d="M161.44,203.67l26.82,11.44-5.87,9.65H141.32L135,214.22l26.43-10.55m.13-10.82-3.84,1.53L131.3,204.93l-10.9,4.35,6,10.07,6.31,10.55,2.91,4.86H188l2.92-4.8,5.87-9.65,6-9.87-10.62-4.53-26.82-11.44-3.79-1.62Z"/><path class="cls-4" d="M161.42,249.55c-9.3,0-16.26-2.39-20.69-7.09a16.65,16.65,0,0,1-4.62-11.75l.28-4.7H187l.14,4.86a17,17,0,0,1-4.93,11.64C177.7,247.18,170.7,249.55,161.42,249.55Z"/><path class="cls-2" d="M182.17,231s.39,13.54-20.75,13.54S141.1,231,141.1,231h41.07m9.71-10h-60.2l-.56,9.4a21.54,21.54,0,0,0,6,15.48c5.41,5.75,13.6,8.66,24.33,8.66s18.89-2.88,24.41-8.55a21.9,21.9,0,0,0,6.33-15.27l-.28-9.72Z"/></svg>