<svg id="Capa_1" data-name="Capa 1" xmlns="http://www.w3.org/2000/svg" viewBox="0 0 1300 1000"><title>2-landmarks-expand</title><path d="M1189.81,900h-8V559.07a17.58,17.58,0,0,0-17.56-17.56h-150.1V900h-8V541.42a7.92,7.92,0,0,1,7.91-7.91h150.19a25.59,25.59,0,0,1,25.56,25.56Z"/><path d="M1148.2,641.34H1047.76a8.07,8.07,0,0,1-8-8.06V575.12a8.06,8.06,0,0,1,8-8H1148.2a8.06,8.06,0,0,1,8,8v58.16A8.07,8.07,0,0,1,1148.2,641.34Zm-100.44-66.27,0,58.21,0,.06H1148.2l0-58.22Z"/><path d="M1140.62,541.51h-95.75a4,4,0,0,1-4-4v-48a4,4,0,0,1,4-4h47.75a52.06,52.06,0,0,1,52,52A4,4,0,0,1,1140.62,541.51Zm-91.75-8h87.57a44.07,44.07,0,0,0-43.82-40h-43.75Z"/><path d="M1010.15,567.3H802.32a13.45,13.45,0,0,1,0-26.9h207.83a4,4,0,0,1,4,4v18.9A4,4,0,0,1,1010.15,567.3ZM802.32,548.4a5.45,5.45,0,0,0,0,10.9h203.83V548.4Z"/><path d="M818.15,667.49a13.45,13.45,0,0,1-4.6-26.08l195.23-71.27a4,4,0,0,1,5.37,3.75V594a4,4,0,0,1-2.63,3.75L822.77,666.67A13.4,13.4,0,0,1,818.15,667.49Zm188-87.88L816.29,648.92A5.45,5.45,0,0,0,820,659.16l186.12-67.95Z"/><path d="M772.26,900h-8V559.07a17.58,17.58,0,0,0-17.56-17.56H596.6V900h-8V541.42a7.91,7.91,0,0,1,7.91-7.91H746.7a25.59,25.59,0,0,1,25.56,25.56Z"/><path d="M730.65,641.34H630.21a8.07,8.07,0,0,1-8.05-8.06V575.12a8.06,8.06,0,0,1,8.05-8H730.65a8.06,8.06,0,0,1,8.05,8v58.16A8.07,8.07,0,0,1,730.65,641.34ZM630.21,575.07l-.05,58.21.05.06H730.65l.05-58.22Z"/><path d="M723.06,541.51H627.32a4,4,0,0,1-4-4v-48a4,4,0,0,1,4-4h47.74a52.06,52.06,0,0,1,52,52A4,4,0,0,1,723.06,541.51Zm-91.74-8h87.56a44.05,44.05,0,0,0-43.82-40H631.32Z"/><path d="M592.6,567.3H384.77a13.45,13.45,0,0,1,0-26.9H592.6a4,4,0,0,1,4,4v18.9A4,4,0,0,1,592.6,567.3ZM384.77,548.4a5.45,5.45,0,0,0,0,10.9H588.6V548.4Z"/><path d="M400.6,667.49a13.45,13.45,0,0,1-4.6-26.08l195.22-71.27a4,4,0,0,1,5.38,3.75V594a4,4,0,0,1-2.63,3.75L405.22,666.67A13.4,13.4,0,0,1,400.6,667.49Zm188-87.88L398.74,648.92a5.45,5.45,0,0,0-3.25,7,5.45,5.45,0,0,0,7,3.25L588.6,591.21Z"/></svg>