<svg width="1300" height="1000" fill="none" xmlns="http://www.w3.org/2000/svg"><path d="M1076 900h7V220c0-11.046-8.95-20-20-20H672c-11.046 0-20 8.954-20 20v680h7V222c0-8.284 6.716-15 15-15h387c8.28 0 15 6.716 15 15v678Z" fill="#000"/><path fill-rule="evenodd" clip-rule="evenodd" d="M1053 245c0-8.284-6.72-15-15-15H878c-8.284 0-15 6.716-15 15v440c0 8.284 6.716 15 15 15h160c8.28 0 15-6.716 15-15V245Zm-183 2v346h176V247c0-5.523-4.48-10-10-10H880c-5.523 0-10 4.477-10 10Zm176 436v-83H870v83c0 5.523 4.477 10 10 10h156c5.52 0 10-4.477 10-10Z" fill="#000"/><path d="M764.5 391a3.5 3.5 0 1 1 0 7h-23a3.5 3.5 0 1 1 0-7h23Z" fill="#000"/><path fill-rule="evenodd" clip-rule="evenodd" d="M751.612 370.995c.296.003.592.005.888.005 38.936 0 70.5-31.564 70.5-70.5S791.436 230 752.5 230 682 261.564 682 300.5a70.442 70.442 0 0 0 3.382 21.635l-14.487 12.156c-8.462 7.1-9.565 19.716-2.465 28.177l25.711 30.642c7.1 8.461 19.716 9.565 28.177 2.465l29.294-24.58Zm8.938-7.5C791.819 359.539 816 332.843 816 300.5c0-35.07-28.43-63.5-63.5-63.5S689 265.43 689 300.5c0 5.791.775 11.4 2.227 16.731l30.256-25.388c11.759-9.867 28.648-10.699 41.32-2.036l10.725-8.999c4.23-3.55 10.538-2.999 14.088 1.232l6.428 7.661c3.55 4.23 2.998 10.538-1.233 14.088l-10.724 8.999c6.33 13.983 2.578 30.472-9.181 40.338l-12.356 10.369Zm26.23-63.783a5 5 0 0 0 .616-7.044l-3.857-4.596a5 5 0 0 0-7.044-.617l-12.257 10.285-5.829-3.126a30.002 30.002 0 0 0-33.46 3.458l-48.022 40.296c-6.347 5.325-7.174 14.787-1.849 21.133l23.14 27.577c5.325 6.346 14.786 7.174 21.133 1.849l48.022-40.296a30 30 0 0 0 9.216-32.35l-2.066-6.284 12.257-10.285Z" fill="#000"/><path d="M0 900h1300v100H0V900Z" fill="#000"/></svg>