<svg width="1300" height="1000" viewBox="0 0 1300 1000" fill="none" xmlns="http://www.w3.org/2000/svg"><path d="M1083 900h-7V222c0-8.284-6.72-15-15-15H674c-8.284 0-15 6.716-15 15v678h-7V220c0-11.046 8.954-20 20-20h391c11.05 0 20 8.954 20 20v680Z" fill="#000"/><path fill-rule="evenodd" clip-rule="evenodd" d="M1038 230c8.28 0 15 6.716 15 15v440c0 8.284-6.72 15-15 15H878c-8.284 0-15-6.716-15-15V245c0-8.284 6.716-15 15-15h160ZM870 593V247c0-5.523 4.477-10 10-10h156c5.52 0 10 4.477 10 10v346H870Zm176 7v83c0 5.523-4.48 10-10 10H880c-5.523 0-10-4.477-10-10v-83h176Z" fill="#000"/><path d="M768 394.5a3.5 3.5 0 0 0-3.5-3.5h-23a3.5 3.5 0 1 0 0 7h23a3.5 3.5 0 0 0 3.5-3.5Z" fill="#000"/><path fill-rule="evenodd" clip-rule="evenodd" d="M682 300.5c0 38.936 31.564 70.5 70.5 70.5s70.5-31.564 70.5-70.5-31.564-70.5-70.5-70.5-70.5 31.564-70.5 70.5Zm7 0c0 35.07 28.43 63.5 63.5 63.5s63.5-28.43 63.5-63.5-28.43-63.5-63.5-63.5-63.5 28.43-63.5 63.5Z" fill="#000"/><path d="M0 900h1300v100H0V900Z" fill="#000"/></svg>