<svg width="1300" height="1000" viewBox="0 0 1300 1000" fill="none" xmlns="http://www.w3.org/2000/svg"><path d="M242 900h7V96.227c0-8.284 6.716-15 15-15h456c8.284 0 15 6.716 15 15V900h7V94c0-11.046-8.954-20-20-20H262c-11.046 0-20 8.954-20 20v806ZM0 900h1300v100H0V900Z" fill="#000"/><path fill-rule="evenodd" clip-rule="evenodd" d="M319 538c-11.046 0-20 8.954-20 20s8.954 20 20 20h342c11.046 0 20-8.954 20-20s-8.954-20-20-20H319Zm.865 7c-7.18 0-13 5.82-13 13s5.82 13 13 13h340.27c7.18 0 13-5.82 13-13s-5.82-13-13-13h-340.27Z" fill="#000"/><path d="M319 578h7v322h-7V578Zm336 0h7v322h-7V578Z" fill="#000"/></svg>